<?xml version="1.0" encoding="UTF-8"?>
<svg id="Layer_1" data-name="Layer 1" xmlns="http://www.w3.org/2000/svg" viewBox="0 0 864 864">
  <path d="M320.14,160.53c-6.63,2.07-11.12,6.95-15.68,11.7-1.37,1.43-2.28,2.41-4.6,1.18-19.86-10.54-38.38-22.85-52.9-40.33-14.8-17.82-23.92-38.24-27.21-61.2-.46-3.19-.65-6.44,.15-9.83,.5,.17,1.07,.18,1.25,.45,13.76,20.23,32.42,34.73,53.62,46.4,13.72,7.56,28.37,13.19,42.09,20.74,6.53,3.59,13.13,7.06,18.38,12.49,1.85,1.91,3.31,1.78,5.03-.02,.74-.78,1.62-1.48,2.55-2.01,3.79-2.14,3.34-4.45,.71-7.34-10.79-11.85-20.16-24.72-27.5-39.02-10.67-20.8-16.08-42.6-11.72-66,1.87-10.05,5.54-19.42,14.48-25.62,1.06-.73,2.19-2.35,3.58-1.15,1.16,1-.17,2.31-.57,3.38-6.14,16.49-1.53,31.73,5.45,46.65,6.71,14.33,17.07,26.15,26.85,38.36,7.95,9.93,16.73,19.12,25.2,28.58,1.88,2.1,3.45,1.79,5.7,1.17,15.51-4.3,30.74-9.75,46.78-12,3.48-.49,6.95-1,11.66-1.69-5.33-2.95-2.81-5.37-.93-7.81,14.04-18.24,26.42-37.49,35.43-58.74,4.84-11.42,8.39-23.3,11.56-35.29,.34-1.27,.22-3.29,1.64-3.56,1.97-.38,2.13,1.88,2.77,3.13,9.6,18.46,10.87,38.26,8.84,58.42-1.58,15.73-6.05,30.68-14,44.45-1.56,2.71-1.37,3.78,1.93,4.63,17.67,4.6,31.99,14.48,43.92,28.16,5.49,6.3,10.92,12.7,17.37,18.1,12.28,10.28,23.55,10.98,37.05,2.3,4.05-2.61,7.69-5.75,11.26-8.98,3.11-2.81,6.27-5.55,9.95-7.6,11.89-6.65,22.44-3.48,28.76,8.73,3.75,7.25,5.68,15.08,6.53,23.13,4.09,38.85-8.96,71.66-35.83,99.23-23.44,24.05-52.72,38.33-84.35,48.04-29.98,9.21-60.64,14.04-92.15,11.88-23.69-1.62-45.72-9.34-67.38-18.37-7.95-3.32-15.77-6.95-24.22-10.7,.58,2.54,2.23,3.63,3.69,4.81,8.58,6.92,18.82,10.65,28.8,14.87,28.5,12.03,58.12,17.2,89.01,14.42,2.56-.23,2.48,.73,2,2.61-11.86,45.96,2.46,84.75,32.67,119.19,10.96,12.49,23.16,23.72,35.26,35.07,2.78,2.61,3.56,.58,4.75-1.24,8.51-13.02,14.92-27.14,21.29-41.25,8.55-18.94,17.63-37.59,29.45-54.78,10.72-15.6,23.71-28.65,41.37-36.3,37.26-16.16,76.78-3.95,100.56,31.16,12.19,17.99,19.08,38.14,23.22,59.31,4.65,23.77,5.28,47.68,2.56,71.71-.15,1.36-.09,2.8-1.25,4.32-1.63-2.22-2.02-4.77-2.79-7.12-3.16-9.78-7.4-19.09-13.11-27.62-3.11-4.65-6.9-8.95-13.06-9.57-8.29-.84-13.59,3.76-17.02,10.51-6.94,13.66-10.4,28.46-13.3,43.4-.23,1.19-.52,2.36-1.17,3.67-3.06-9.98-8.33-18.51-15.39-26-2.04-2.16-4.21-4.12-6.65-5.77-10.22-6.94-19.73-6.06-28.53,2.67-7.48,7.42-11.6,16.81-14.81,26.56-4.66,14.2-8.09,28.65-6.08,43.81,.07,.55-.06,1.13-.12,2.14-4.87-3.65-9.4-7.05-13.93-10.45-.23,.18-.45,.37-.68,.55,2.56,3.85,5.12,7.69,7.67,11.54,14.53,21.91,25.49,45.38,30.46,71.33,6.29,32.86,1.18,64.44-11.56,95.03-1.34,3.23-1.41,6.13-1.02,9.7,3.35,30.41-4.59,56.78-29.19,76.59-2.41,1.94-3.19,3.07-1.05,5.76,2.98,3.76,5.29,8,7.03,12.52,.82,2.12,.45,3.11-2.05,3.21-10.07,.37-20.12,1.07-30.21,.93-2.57-.04-4.1-.95-5-3.98-2.03,4.51-5.79,4.54-9.43,4.7-13.2,.6-26.31-.09-39.39-2.13-4.43-.69-3.83-2.17-1.63-4.75,2.83-3.32,5.72-6.62,9.63-8.63,2.76-1.41,2.54-2.55,.39-4.21-.98-.75-1.75-1.78-2.75-2.5-2.24-1.61-2.82-5.61-5.67-5.57-2.55,.04-5.05,2.13-7.62,3.2-31.61,13.14-64.62,16.58-98.45,14.09-9.67-.71-19.31-1.9-29.19-4.65,4.09-4.3,7.89-8.3,10.24-14.94-7.34,6.82-14.28,12.01-21.84,16.31-2.2,1.25-1.59,2.47-.62,4.11,5.83,9.9,4.3,8.82-4.96,10.11-9.89,1.37-19.78,.87-29.7,.75-4.29-.05-4.32-3.58-6.53-6.19-1,5.35-4.58,5.27-8.47,5.25-11.78-.04-23.54,.04-35.27-1.49-4.58-.6-3.81-1.9-1.54-4.57,4.72-5.53,10.7-9.21,17.26-12.13-.67-1.98-2.3-2.73-3.57-3.78-7.65-6.32-13.96-13.68-17.49-23.07-.94-2.49-2.66-3.5-4.87-4.48-32.51-14.49-60.78-34.67-82.92-62.8-16.02-20.36-26.99-42.97-29.14-69.23-.09-1.08-.21-2.16-.25-3.24-.29-7.85-.29-7.92-8.38-7.79-5.89,.09-11.8,.09-17.64,.71-4.11,.44-4.67-.74-3.68-4.41,4.05-15,11.28-28.46,19.74-41.34,3.7-5.64,7.57-11.17,12.1-16.85-.25,16.25,11.75,24.4,21.25,34.14,4.64,4.76,9.36,9.43,14,14.19,1.14,1.17,2.08,2.54,3.59,4.41-5.43-.5-9.96-1.43-14.6-1.35-5.38,.1-10.36,1.43-15.22,3.7-2.74,1.28-3.4,2.65-2.54,5.73,8.5,30.56,34.31,43.98,65.73,33.97,21.1-6.72,38.91-19,55.33-33.39,27.79-24.35,50.96-52.81,72.59-82.61,2.18-3.01,1.8-4.17-2.02-4.32-10.75-.42-21.03,1.31-30.47,6.63-11.6,6.54-15.59,17.89-18.41,29.9-.35,1.49-.63,3-.98,4.68-1.81-1.15-1.83-2.98-2.46-4.43-10-23.35-25.11-42.6-45.99-57.18-6.02-4.21-12.62-7.2-19.85-8.78-8.94-1.96-17.23-.6-24.87,4.49-12.05,8.03-20.22,19.02-24.88,32.67-.49,1.43-.9,2.89-1.4,4.49-2.09-1.03-2.3-3.07-3.14-4.6-7.33-13.33-14.79-26.56-26.16-37.03-11.11-10.23-21.21-9.18-30.15,3.05-6.1,8.35-9.88,17.85-13.72,27.34-3.83,9.48-7.72,18.93-11.6,28.39-.11,.26-.39,.46-.94,1.09-2.57-9.45-4.13-18.79-5.4-28.15-5.38-39.58-4.82-78.88,7-117.38,8.54-27.82,22.85-51.87,47.95-68.1,27.83-17.99,62.18-16.13,87.96,4.73,17.38,14.06,31.41,31.24,44.33,49.3,19.88,27.8,42.43,52.96,70.29,73.04,7.04,5.07,14.31,9.8,21.74,14.31,3.1,1.88,4.44,1.71,6.06-1.84,12.2-26.7,13.62-54.04,5.7-82.12-6.78-24.05-18.14-46.09-29.71-68.01-22.12-41.93-44.32-83.82-66.86-125.52-12.67-23.43-13.65-47.49-5.93-72.43,3.01-9.72,8.52-17.82,15.9-24.74,2.13-2,4.17-4.1,6.25-6.15Zm87.48,70.91c17.27-1.45,33.33-10.29,43.12-29,3.45-6.59,4.72-13.75,3.67-21.18-3.82-27.06-36.2-45.42-62.17-35.28-18.72,7.31-30.94,29.32-28.97,51.51,1.28,14.37,8.32,24.32,21.54,29.88,6.19,2.6,12.69,3.98,22.8,4.06Zm129.95,461.05c-37.08,12.42-72.83,9.74-107.57-7.6,2.57,20.17,16.67,38.9,36.66,44.81,13.44,3.98,26.87,4.11,40.29,.04,17.66-5.36,29.98-20.44,30.63-37.25Zm-44.63-493.4c.79-.05,2.34-.09,3.88-.25,29.48-3.06,43.53-32.2,26.77-55.54-13.68-19.05-39.12-19.74-52.43-1.33-5.99,8.29-8.87,17.68-8.76,27.89,.19,17.66,12.12,29.3,30.54,29.22Zm-56.77,362.42c.68,5.77,3.24,10.53,5.67,15.28,9.27,18.17,26.58,28.41,46.11,26.6,22.47-2.08,36.75-19.67,33.61-45.03-27.68,17.86-56.17,15.16-85.38,3.16Zm4.3,66.85c3.5,8.91,8.5,15.49,14.68,21.24,16.61,15.46,43.83,19.47,64.19,9.47,12.34-6.06,20.39-19.13,18.93-31.25-15.01,8.8-31.37,11.12-48.31,10.98-16.87-.14-33.28-2.39-49.48-10.44Zm-12.11-128.26c5.85,15.11,14.51,26.27,29.87,30.53,9.51,2.64,18.67,1.54,25.76-6.09,7.42-7.99,8.73-17.86,8.07-28.68-23.78,13.76-33.69,14.43-63.69,4.23Zm54.23-190.38c-14.18,.17-27.72-2.78-40.63-8.46-8.24-3.63-16.16-7.85-22.29-14.76-1.82-2.05-2.55-3.32,.88-4.39,2.71-.85,4.82-2.8,6.11-5.42,.88-1.8,.21-3.47-1.21-4.56-1.87-1.44-2.26,.82-2.99,1.66-3.5,4.03-7.8,6.47-13.07,7.37-1.18,.2-3.6-.59-3.03,2.21,.43,2.13,1.96,2.67,3.85,2.34,1.94-.34,3.4-.17,4.85,1.57,8.64,10.29,20.11,16.34,32.46,20.85,38.25,13.95,88.64,3.2,120.2-31.64,.42-.46,.83-.93,1.18-1.43,.49-.69,.61-1.42-.08-2.06-.7-.65-1.53-1.28-2.45-.56-.97,.75-1.81,1.68-2.68,2.56-22.32,22.59-49.4,34.04-81.08,34.73Zm-16.98,143.72c-13.51,11.68-28.45,12.33-45.03,8.21,5.47,9.6,11.45,17.36,20.73,21.82,9.5,4.57,18.87,.73,22.77-9.07,2.58-6.5,2.51-13.24,1.53-20.95Zm-55.6-24.06c5.32,12.48,18.49,20.43,28.75,17.63,8.94-2.43,16.48-14.63,15-24.25-12.99,7.26-25.8,10.06-43.76,6.62Zm-12.76-34.35c1.77,6.5,4.57,11.41,8.4,15.71,6.69,7.52,16.18,8.29,24.05,1.96,6.14-4.94,7.86-11.81,8.55-19.87-13.34,8.15-26.55,9.57-41,2.2Zm-6.87-35.61c1.82,7.44,4.65,13.01,9.18,17.64,3.64,3.72,8.06,5.1,13.15,3.82,7.68-1.93,14.6-10.77,15.08-19.58-12.55,6.51-24.85,7.43-37.42-1.88Zm242.83-201.66c-.01-5.06-4.02-9.25-8.94-9.35-4.58-.09-7.89,3.22-7.81,7.81,.09,4.93,4.32,9.43,8.93,9.53,4.32,.09,7.83-3.5,7.82-8Zm-30.64,663.8c-.29-3.59-2.13-5.73-5.81-5.83-3.34-.09-7.02,3.55-6.79,6.86,.24,3.36,1.8,5.91,5.59,6.13,3.41,.2,7.02-3.56,7.01-7.16Zm21.75-44.21c-.05-3.38-2.92-6.38-6.08-6.35-3.26,.03-6.4,3.36-6.33,6.71,.08,3.41,2.97,6.15,6.31,5.98,3.27-.16,6.14-3.15,6.09-6.35Zm-220.08,1.43c-.19-3.11-2.33-4.77-5.65-4.94-3.86-.2-7.17,2.84-7.04,6.35,.14,3.55,2.29,5.23,5.63,5.47,3.68,.26,7-2.83,7.06-6.88Zm-54.9,41.99c-4.16,.14-7.81,3.89-7.55,7.43,.23,3.13,1.85,5.33,5.21,5.44,3.41,.11,6.98-3.85,6.85-7.53-.11-3.2-1.6-5.28-4.51-5.33Zm225.77-86.17c8.57-4.49,16.88-3.78,25.36,1.68-.69-5.53-3.51-8.19-7.89-9.35-6.35-1.68-13.21,1.06-17.48,7.67Zm-244.72,54.21c.13-3.05-2.25-4.33-5.23-4.75-3.62-.51-7.77,2.55-7.8,5.73-.04,3.41,2.11,4.97,5.26,5.3,3.87,.4,7.46-2.29,7.77-6.29Zm-26.72-40.52c-3.34,.36-5.83,1.87-6.24,5.55-.37,3.27,2.26,5.89,5.68,5.92,3.34,.03,6.68-2.89,6.48-5.96-.23-3.5-2.52-5.08-5.92-5.51Zm244.59,63.39c-4.59-.09-8.42,2.76-8.39,5.92,.03,3.33,2.22,4.53,5.2,4.67,3.98,.18,7.59-2.56,7.63-5.9,.04-3.38-2.2-4.46-4.45-4.68Zm22.34-54.27c-3.3,.45-5.94,1.73-6.09,5.59-.13,3.19,2.72,5.78,5.99,5.61,3.35-.17,6.47-3.17,6.23-6.22-.29-3.68-2.88-4.74-6.13-4.99Zm-254.96,20.95c4.52-.12,8.27-3.06,7.99-5.86-.35-3.49-2.79-4.59-5.91-4.52-3.55,.08-6.96,2.98-6.68,5.81,.31,3.1,2.29,4.57,4.59,4.56Zm273.78-4.86c-3.39,.48-5.64,2.46-5.74,5.97-.09,3.23,1.95,5.12,5.25,5.11,3.13,0,6.13-3.36,5.9-6.49-.23-3.23-2.34-4.41-5.41-4.59Zm33.37-19.46c2.35-.17,4.4-1.23,4.65-4.28,.24-3.08-2.83-6.09-6.24-6.1-2.64,0-5.03,.66-5.37,3.83-.32,3,3.26,6.47,6.96,6.55ZM144.67,465.36c-.06-3.31-1.96-5.08-4.96-4.99-3.26,.09-5.7,1.97-5.76,5.46-.05,3.08,2.02,4.95,5.02,4.98,3.44,.03,5.34-2.08,5.7-5.45Zm159.01,337.06c3.02-.34,5.24-1.8,5.29-5.16,.05-3.41-2.17-5.05-5.33-5.07-3.21-.02-5.43,1.85-5.44,5.07,0,3.17,2.05,5.01,5.48,5.16Zm40.17-66.21c-.5-5.77-3.31-7.73-7.29-8.33-6.46-.97-13.95,3.11-16.66,9.28,7.63-5,15.18-7.77,23.95-.95Zm243.21,66.02c3.39,.06,6.72-2.73,6.67-5.45-.06-3.24-2.36-4.28-4.99-4.21-3.21,.08-5.81,1.78-6.15,5.15-.3,3.01,1.97,4.24,4.46,4.51Zm155.17-352c3.09-.42,4.76-2.27,4.67-5.3-.1-3.36-2.38-5.06-5.48-5.07-2.77,0-4.72,1.71-4.71,4.66,.01,3.49,2.11,5.27,5.52,5.7Zm-592.22,60.53c3.09-.29,5.09-2.18,5.05-5.33-.04-3.06-2.25-4.78-5.27-4.59-3.08,.19-5.41,1.96-5.3,5.26,.11,3.07,2.32,4.5,5.52,4.66Zm393.29,257.31c-3.23,.58-5.55,2.23-5.48,5.75,.05,2.68,1.87,4.18,4.56,4.25,3,.08,6.1-3.17,5.81-6.02-.29-2.9-2.36-3.71-4.89-3.98Zm-209.91-6.36c3.28-.09,5.58-1.8,5.85-5.15,.25-3.07-2.1-4.29-4.82-4.33-3.21-.05-5.38,1.79-5.72,4.88-.32,2.95,1.66,4.41,4.69,4.6ZM153.97,455.29c3.84-.1,7.1-2.75,6.72-5.4-.4-2.82-2.57-3.83-5.07-3.62-3.15,.26-5.77,1.76-6,5.26-.21,3.12,2.22,3.64,4.36,3.76Zm210.45,288.07c2.69-.3,4.99-1.68,5.17-5.02,.17-3.09-2.01-4.48-4.74-4.57-3.09-.11-5.55,1.32-5.84,4.68-.29,3.36,2.05,4.52,5.41,4.91Zm358.97-284.79c.28,2.9,1.75,4.74,4.73,4.58,3.47-.18,5.4-2.41,5.39-5.76-.01-3.01-2.31-4.4-5.03-4.27-3.2,.16-4.97,2.16-5.09,5.44Zm-366.52,328.73c-2.77,.4-5.08,1.64-5.1,4.79-.02,3.05,1.9,4.87,4.97,4.84,3.16-.03,5.37-1.74,5.41-5.02,.04-3.21-2.26-4.41-5.29-4.6Zm-52.11-254.1c-.09-3.25-1.97-4.87-4.7-4.87-3.09,0-4.73,2.27-4.86,5.16-.14,2.96,1.86,4.68,4.65,4.61,3-.07,4.65-2.09,4.91-4.9Zm415.19-125.57c-.36-3.04-2.24-4.39-5.01-4.36-2.92,.03-5.1,1.42-5.31,4.59-.2,3.06,1.74,4.59,4.54,4.62,3.14,.03,5.09-1.78,5.78-4.85ZM155.6,473.7c-2.85,.03-5.02,1.41-5.36,4.44-.34,3.04,1.37,5.13,4.47,5.32,3.07,.19,4.94-1.74,5.32-4.67,.38-2.98-1.47-4.5-4.43-5.09Zm399.86,324.16c-2.96,.54-5.51,1.75-5.53,5.15-.02,2.82,2.15,4.06,4.72,3.99,3.16-.08,5.32-1.78,5.47-5.1,.14-3.07-2.19-3.7-4.65-4.05ZM132.78,537.93c-2.79,.47-4.98,1.66-4.73,4.99,.21,2.78,1.73,4.68,4.68,4.62,3.27-.06,5.18-1.95,5.04-5.26-.13-2.92-2.07-4.25-4.99-4.36Zm174.66,287.89c.3,2.46,1.17,4.6,4.07,4.57,3.26-.04,5.09-2.16,5.37-5.19,.24-2.65-1.43-4.52-4.08-4.54-3.18-.03-4.98,1.93-5.36,5.17Zm262.83,4.99c2.69-.36,5.53-1.23,5.63-4.68,.08-2.84-2.35-3.9-4.84-3.83-2.8,.07-5.35,1.19-5.6,4.39-.23,2.98,2.05,3.81,4.82,4.13Zm72.83-404.87c-2.43,.63-4.78,1.98-4.72,5.09,.05,2.55,1.75,4.47,4.5,4.34,3.12-.15,5.4-1.79,5.28-5.23-.1-2.78-2.03-4-5.05-4.2Zm-417.94,25.14c3.19-.13,5.19-1.69,5.26-4.76,.07-2.94-1.96-4.61-4.73-4.58-2.84,.03-5.18,1.43-5.17,4.71,0,2.97,1.98,4.29,4.64,4.64Zm62.75,85.78c-3.01,.49-4.79,2.22-4.65,5.26,.13,2.77,1.77,4.7,4.68,4.64,3.39-.06,4.91-2.46,4.9-5.5,0-2.98-2.26-4.07-4.93-4.41Zm112.04,261.89c-2.95,.48-5.52,1.84-5.8,5.26-.21,2.54,1.64,3.83,4.06,4.02,2.88,.23,6.34-2.84,6.26-5.53-.07-2.77-2.01-3.49-4.52-3.74Zm318.51-357.63c-.4-3.01-2.06-4.66-4.94-4.51-3.28,.17-5.01,2.25-4.97,5.46,.04,2.77,1.9,4.22,4.53,4.16,3.24-.08,4.92-2.1,5.38-5.11Zm-364.56,119.98c.27,2.84,1.45,4.95,4.19,4.88,3-.08,4.78-2.13,4.76-5.16-.02-2.89-1.73-4.78-4.65-4.55-2.82,.22-4.22,2.24-4.3,4.84Zm-17.32-4.55c-2.69,.31-4.8,1.42-4.6,4.59,.19,3,1.86,5.1,4.99,4.99,2.85-.1,4.58-2.08,4.51-4.91-.07-2.86-1.91-4.44-4.9-4.67Zm-94.07-92.56c2.73-.54,4.62-2.36,4.68-5.21,.05-2.54-1.68-4.29-4.42-4.29-2.85,0-4.65,1.47-4.8,4.44-.15,2.96,1.56,4.45,4.54,5.07Zm-10.64-33.45c-.25-2.86-1.87-4.55-4.46-4.52-2.9,.03-5.06,1.65-5.05,4.86,.01,2.71,1.63,4.39,4.36,4.38,3.05-.01,4.8-1.75,5.15-4.72Zm84.71,137.33c2.47-.32,4.21-1.67,4.21-4.11,0-3.19-2.04-5.21-5.14-5.47-2.48-.21-4.03,1.41-4.1,3.98-.1,3.4,2.1,4.86,5.03,5.6Zm-67.27-70.08c-.2-2.7-1.43-4.53-4.27-4.54-2.94,0-4.6,1.85-4.87,4.62-.27,2.74,1.35,4.6,3.98,4.78,3.15,.21,4.65-1.96,5.17-4.86Zm14.35-12.19c2.92-.45,4.47-2.14,4.32-5.01-.14-2.57-1.52-4.56-4.25-4.49-2.98,.08-4.97,2.02-4.9,5.01,.07,2.79,2.04,4.29,4.84,4.5Zm-71.79-61.76c-.09-2.78-1.7-3.99-4.13-3.99-2.99,0-5.06,1.62-5.24,4.63-.18,2.93,1.72,4.61,4.59,4.48,3.1-.15,4.38-2.37,4.78-5.12Zm9.28,121.78c-2.88,.58-4.79,2.21-4.65,5.28,.12,2.65,1.85,4.27,4.54,4.16,2.99-.12,4.32-2.31,4.39-4.95,.07-2.61-1.51-4.21-4.28-4.48Zm186.14,279.9c-2.59,.83-4.99,2.33-5.07,5.82-.04,2.05,.75,3.62,3.27,3.42,2.93-.23,6.2-3.48,5.94-6.07-.22-2.18-1.51-3.26-4.14-3.17Zm280.56-419.62c-2.6,.44-4.84,1.61-4.73,4.87,.09,2.61,1.99,3.87,4.34,3.74,2.79-.15,5.12-1.51,5.22-4.7,.09-2.97-2.02-3.81-4.82-3.92Zm42.47,70.32c2.42-.28,4.41-1.38,4.55-4.19,.14-2.87-1.28-4.87-4.35-4.84-2.67,.03-4.35,1.64-4.48,4.36-.13,2.75,1.38,4.3,4.28,4.67Zm-502.06-32.85c-2.5,.25-4.51,1.2-4.68,4.08-.18,3.12,1.93,4.55,4.58,4.78,2.75,.24,4.38-1.59,4.42-4.27,.04-2.65-1.54-4.25-4.32-4.6Zm490.1,15.13c-.25-2.56-1.46-4.36-3.99-4.34-3,.02-4.99,1.76-4.95,4.87,.03,2.46,1.63,4.1,4.14,3.99,2.77-.11,4.45-1.79,4.81-4.53Zm-435.26,49.19c-.28-2.64-1.46-4.63-4.18-4.71-2.91-.08-4.56,1.83-4.6,4.65-.03,2.38,1.3,4.28,3.81,4.41,2.86,.15,4.44-1.66,4.98-4.36Zm14.99-11.17c2.52-.25,4.57-1.46,4.6-4.48,.03-2.76-1.68-4.25-4.4-4.31-2.79-.06-4.33,1.57-4.53,4.23-.2,2.75,1.25,4.32,4.33,4.56Zm-105.86-33.39c-.22-2.69-1.65-4.16-4.23-3.99-2.8,.19-4.77,1.83-4.73,4.72,.03,2.47,1.79,3.98,4.3,3.94,2.97-.05,4.37-1.92,4.66-4.68Zm447.21,157c-2.77,.2-5.17,1.19-5.2,4.14-.02,2.83,2.44,3.71,4.89,3.71,2.67,0,4.99-1.05,5.07-4.11,.08-3.12-2.57-3.31-4.76-3.75ZM237.44,470.56c-.27-3.06-2.19-4.47-4.92-4.37-2.74,.11-4.07,2.1-3.88,4.71,.19,2.51,1.56,4.47,4.34,4.39,2.89-.08,4.32-1.92,4.45-4.73Zm346.39,265.53c-2.59,.21-4.41,1.56-4.37,4.56,.03,2.5,1.46,4.06,3.97,4.17,2.94,.14,4.66-1.61,4.87-4.39,.21-2.75-1.45-4.2-4.47-4.34ZM245.05,443.37c2.7-.25,4.4-1.67,4.54-4.32,.15-2.85-1.72-4.13-4.35-4.19-2.72-.06-4.38,1.45-4.47,4.15-.09,2.79,1.74,4.03,4.28,4.36Zm436.87-50.19c-.41-2.3-2.07-3.5-4.21-3.41-2.77,.12-4.73,1.83-4.77,4.71-.04,2.37,1.7,3.61,4.02,3.5,2.88-.14,4.34-1.99,4.96-4.8ZM134.78,485.84c-2.12,.65-4.1,1.86-3.98,4.63,.1,2.5,1.84,4.06,4.27,3.93,2.56-.14,4.38-1.81,4.29-4.52-.08-2.49-1.8-3.76-4.58-4.03Zm88.17,24.86c2.64-.36,4.34-1.97,4.35-4.86,.01-2.59-1.6-4.06-4.15-3.95-2.75,.12-4.16,1.98-4.31,4.58-.15,2.57,1.24,4.04,4.12,4.22Zm-12.59,17.33c-.24-2.78-1.93-4.21-4.56-4.21-2.51,0-4.1,1.43-3.89,4.11,.21,2.68,1.88,4.33,4.51,4.37,2.58,.03,3.76-1.76,3.94-4.27Zm489.58-127.79c2.23-.74,4.39-1.93,4.31-4.95-.07-2.6-2.06-3.36-4.22-3.24-2.82,.16-4.73,1.69-4.6,4.71,.11,2.49,2.01,3.25,4.52,3.48Zm-373.53,126.88c0,2.76,1.34,4.34,3.81,4.62,2.98,.34,4.23-1.73,4.5-4.21,.29-2.68-1.57-4.03-3.98-4.1-2.42-.07-4.05,1.28-4.34,3.69Zm-110.4-59.14c2.51-.54,3.88-2.22,3.81-4.85-.07-2.57-1.63-4.06-4.17-3.79-2.61,.27-4.23,2-4.04,4.7,.17,2.44,1.71,3.84,4.4,3.95Zm-7.01,42.14c-2.4,.35-3.85,1.73-3.8,4.28,.05,2.48,1.38,4.24,3.95,4.14,2.65-.1,4.2-1.8,4.16-4.55-.05-2.67-1.73-3.73-4.31-3.87Zm424.75,122.33c-.15-2.7-1.83-3.9-4.25-3.77-2.36,.13-4.28,1.56-4.25,4.01,.03,2.65,1.96,4.21,4.61,4.03,2.4-.17,3.85-1.7,3.89-4.26Zm99.42-204.41c-.09-2.66-1.55-3.95-3.78-3.96-2.66-.01-4.36,1.56-4.35,4.29,0,2.32,1.53,3.73,3.8,3.78,2.75,.06,4.08-1.68,4.34-4.1Zm-118.45,396.92c-.33-2.1-1.7-2.46-3.39-2.32-2.84,.25-6.16,3.7-5.84,6.14,.24,1.88,1.5,2.8,3.22,2.38,3.25-.8,5.08-3.16,6.01-6.2Zm15.5-416.32c2.5-.52,4.31-1.71,4.35-4.51,.03-2.52-1.52-3.66-3.82-3.49-2.55,.19-4.41,1.6-4.44,4.33-.02,2.4,1.73,3.38,3.91,3.68Zm-464.76,106.51c2.23-.55,4.1-1.84,3.91-4.66-.15-2.17-1.72-3.29-3.84-3.18-2.8,.14-4.26,1.94-4.16,4.59,.08,2.14,1.64,3.21,4.1,3.25Zm182.84,281.53c-.31-2.48-1.82-3.6-4.08-3.55-2.66,.06-4.43,1.54-4.43,4.25,0,2.4,1.79,3.52,4.03,3.47,2.64-.06,4.22-1.53,4.49-4.17ZM121.26,507.48c-2.59,.24-3.85,1.91-3.93,4.31-.07,2.26,1.05,4.12,3.58,3.83,2.59-.29,4.16-2.03,4.1-4.79-.05-2.33-1.63-3.14-3.74-3.36Zm103.76,17.35c-.21-2.07-1.1-3.56-3.41-3.49-2.91,.1-4.52,1.76-4.66,4.63-.1,1.97,.9,3.25,2.99,3.26,2.93,.02,4.41-1.69,5.08-4.41Zm-38.22,24.9c-.36-2.5-1.83-4.09-4.43-4.32-2.26-.21-3.98,.72-3.96,3.29,.01,2.76,1.87,4.14,4.3,4.55,2.45,.41,3.54-1.26,4.09-3.51Zm435.29,91.71c-.13-2.28-1.45-3.49-3.52-3.63-2.65-.18-4.6,1.04-4.85,3.84-.2,2.19,1.23,3.52,3.34,3.67,2.71,.19,4.24-1.45,5.02-3.88Zm-247.53,124.63c-.45-2.17-1.96-3.28-4.23-3.12-2.22,.16-3.85,1.28-3.76,3.76,.08,2.36,1.49,3.83,3.81,3.68,2.36-.15,3.89-1.63,4.18-4.32Zm230.96-128.94c-.25-2.35-1.77-3.59-4-3.52-2.53,.08-3.92,1.85-3.87,4.28,.05,2.11,1.55,3.45,3.65,3.35,2.39-.11,3.95-1.5,4.22-4.11Zm-238.79,167.98c-2.41,.23-4.19,1.42-4.42,3.89-.22,2.36,1.62,3.28,3.61,3.26,2.53-.03,4.64-1.14,4.66-4.02,.02-2.34-1.83-2.95-3.85-3.12Zm264.94-386.02c-.06-2.34-1.32-3.55-3.39-3.67-2.72-.15-4.35,1.52-4.7,4.02-.31,2.18,1.23,3.47,3.3,3.5,2.56,.04,4.25-1.37,4.8-3.85Zm-458.22,66.01c-2.51,.3-4.02,1.75-3.92,4.23,.09,2.24,1.52,3.78,3.92,3.62,2.33-.15,3.54-1.66,3.63-3.99,.09-2.47-1.26-3.63-3.63-3.87Zm109.71,32.14c-2.29,.34-3.91,1.59-4.1,4.09-.19,2.38,1.09,3.95,3.48,3.89,2.49-.06,3.92-1.69,3.98-4.18,.05-2.11-1.07-3.45-3.35-3.8Zm-62.6-36.99c-.2-2.27-1.32-3.62-3.56-3.5-2.52,.13-4.02,1.6-4.02,4.18,0,2.21,1.25,3.5,3.49,3.46,2.67-.05,3.69-1.87,4.1-4.14Zm439.76,.35c-.34-2-1.21-3.71-3.45-3.54-2.5,.19-3.69,2.03-3.81,4.41-.11,2.23,1.3,3.57,3.38,3.47,2.49-.12,3.64-1.93,3.88-4.33Zm-411.09-2.95c-.33-2.2-1.75-3.42-4.05-3.48-2.16-.06-3.58,1.06-3.76,3.27-.2,2.46,1.19,3.87,3.55,3.94,2.29,.07,3.7-1.31,4.26-3.74Zm430.9,20.58c2.32-.23,3.75-1.51,3.97-3.78,.21-2.09-.71-3.72-3-3.88-2.5-.17-4.29,1.18-4.62,3.59-.34,2.45,1.62,3.41,3.65,4.06Zm-544.95,8.43c2.39-.09,3.77-1.47,4.03-3.64,.26-2.25-.85-3.93-3.3-4.06-2.33-.12-3.78,1.18-3.99,3.51-.21,2.31,.93,3.77,3.26,4.19Zm544.58-86.45c-.12-2.19-1.27-3.59-3.39-3.59-2.24,0-3.78,1.34-3.89,3.68-.11,2.33,1.06,3.9,3.53,3.81,2.36-.09,3.42-1.72,3.76-3.9Zm-478.57,36.21c-.1-2.34-1.35-3.93-3.58-4.17-2.3-.25-3.94,1.09-4.03,3.48-.09,2.42,1.53,3.63,3.82,3.8,2.16,.16,3.54-.84,3.8-3.12Zm51.69,59.87c-2.34,.41-4.11,1.53-4.13,4.09-.02,2.09,1.31,3.54,3.39,3.61,2.52,.08,3.95-1.47,4-4,.05-2.14-1.15-3.36-3.26-3.7Zm351.87,141.55c-.41-2.34-2.17-3.04-4.32-2.87-2.21,.18-3.97,1.42-3.85,3.72,.13,2.4,2.18,3.23,4.33,3.02,2.1-.21,3.78-1.23,3.84-3.87Zm5.84,145.04c-.17-1.97-1.72-2.95-3.71-2.91-2.31,.04-3.84,1.54-3.82,3.83,.03,2.33,1.65,3.74,3.97,3.6,2.38-.15,3.35-1.92,3.56-4.51ZM267.49,470.77c2.16-.16,4.14-1.16,4.2-3.7,.06-2.49-1.98-3.2-4.15-3.27-2.44-.08-3.75,1.32-3.81,3.62-.06,2.21,1.36,3.27,3.75,3.35Zm108.15,95.21c2.21-.64,3.66-2.09,3.58-4.58-.06-1.89-1.1-3.37-3.15-3.26-2.48,.13-3.96,1.66-3.99,4.2-.03,2.19,1.28,3.34,3.56,3.65Zm370.72-98.31c2.19-.3,3.86-1.43,3.97-3.68,.12-2.34-1.48-3.75-3.75-3.69-2.27,.05-3.66,1.62-3.72,3.86-.06,2.16,1.4,3.22,3.5,3.51Zm-55.62-29.73c2.44-.28,3.72-1.81,3.89-3.97,.2-2.43-1.69-3.22-3.68-3.07-1.97,.15-3.54,1.23-3.57,3.51-.02,2.23,1.22,3.36,3.35,3.53Zm10.67,53.5c-.31-2.25-1.66-3.31-3.75-3.31-2.39,0-3.71,1.34-3.64,3.73,.06,2.01,.93,3.72,3.22,3.65,2.5-.08,3.66-1.86,4.17-4.07Zm9.56-37.97c-2.07,.26-3.33,1.36-3.3,3.6,.03,2.26,.96,4.02,3.44,4.02,2.16,0,3.32-1.43,3.43-3.57,.13-2.43-1.21-3.65-3.57-4.04Zm-398.6,93.58c-.47-2.12-1.62-3.39-3.86-3.29-2.19,.1-3.52,1.29-3.48,3.5,.04,2.45,1.6,3.71,3.94,3.52,2.1-.18,3.22-1.65,3.4-3.72Zm380.7-39.38c-2.05,.26-3.96,.85-4.03,3.46-.07,2.49,1.79,3.08,3.72,3.2,2.08,.12,3.7-.83,3.83-3.09,.13-2.26-1.33-3.3-3.52-3.57Zm-359.94,70.54c1.85-.61,3.61-1.56,3.55-3.96-.05-2.04-1.19-3.61-3.34-3.64-2.37-.03-3.62,1.59-3.64,3.84-.01,2.01,1.03,3.46,3.43,3.76Zm275.92,176.43c-.39-2.26-1.9-3.22-3.95-3-2.03,.22-3.45,1.48-3.3,3.7,.16,2.28,1.74,3.21,3.83,2.98,2.08-.23,3.24-1.58,3.41-3.68Zm-217.27,3.18c-.03-2.34-1.5-3.37-3.55-3.42-2.12-.04-3.61,1.26-3.67,3.38-.06,2.16,1.46,3.46,3.55,3.46,2.05,0,3.43-1.21,3.67-3.42Zm-61.74-23.12c-2.29,.4-4.16,1.45-4.27,4.04-.09,2.05,1.39,3.16,3.31,3.08,2.22-.09,3.83-1.29,4.04-3.69,.18-2.09-1.12-3.05-3.07-3.44ZM198.78,477.93c-.35-1.92-1.49-3.1-3.46-3.06-2.47,.05-3.54,1.7-3.67,3.95-.12,2,.94,3.46,2.96,3.36,2.46-.12,3.81-1.8,4.17-4.25Zm414.72,330.75c-2.37,.22-3.69,1.54-3.65,3.91,.04,2.28,1.55,3.34,3.66,3.24,2.38-.1,3.66-1.62,3.64-3.94-.02-2.27-1.45-3.25-3.65-3.21Zm36.63-435.13c-1.96,.55-3.53,1.81-3.49,4.11,.04,2.19,1.84,2.67,3.67,2.6,2.37-.1,3.83-1.33,3.63-3.81-.17-2.07-1.74-2.73-3.82-2.89Zm-464.55,94.07c-.1-2.16-1.23-3.51-3.38-3.62-2.19-.12-3.47,1.2-3.67,3.32-.2,2.13,.82,3.7,3.02,3.87,2.36,.18,3.65-1.25,4.02-3.57Zm196.19,332.09c2.27-.08,3.81-1.15,3.9-3.28,.09-2.19-1.44-3.34-3.59-3.35-1.94-.01-3.32,.99-3.5,2.97-.2,2.25,1.23,3.32,3.19,3.67Zm-70.48-280.16c2.31-.47,3.61-1.83,3.57-4.15-.03-2.01-1.23-3.2-3.23-3.12-2.27,.09-3.83,1.3-3.77,3.74,.05,2.13,1.27,3.37,3.44,3.53Zm353.54-121.55c-.13-2.08-1.28-3.21-3.24-3.27-2.34-.08-3.93,1.12-4.02,3.53-.07,1.94,1.07,3.31,3.11,3.3,2.29,0,3.71-1.31,4.15-3.56Zm-327.35,378.39c2.22-.33,3.73-1.58,3.74-3.85,.02-2.04-1.53-2.92-3.43-2.75-2.18,.19-3.85,1.3-3.77,3.72,.06,2.03,1.54,2.8,3.46,2.88Zm-85.45-325.07c2.18-.24,3.4-1.57,3.46-3.63,.06-2.31-1.65-3.27-3.66-3.24-2.31,.03-3.17,1.76-3.08,3.79,.08,1.93,1.24,3.07,3.29,3.08ZM323.28,74.35c-.31-2.32-1.68-3.39-3.78-3.28-2.18,.12-3.32,1.59-3.23,3.68,.09,2.21,1.57,3.3,3.69,3.13,2.11-.17,3.25-1.48,3.32-3.53Zm58.66,710.27c-.04-2.16-1.39-3.14-3.26-3.19-2.07-.06-3.61,.99-3.85,3.22-.22,2.07,.99,3.33,2.92,3.45,2.3,.14,3.75-1.17,4.19-3.47Zm308.47-287.12c-1.94,.3-3.37,1.45-3.61,3.5-.27,2.25,1.19,3.61,3.26,3.61,2.04,0,3.46-1.38,3.5-3.55,.04-1.94-1.12-3.11-3.15-3.56Zm-487.53-63.98c.09-2.27-1.06-3.42-2.99-3.6-2.46-.23-3.77,1.23-3.96,3.55-.16,2,1.04,3.27,2.97,3.45,2.48,.24,3.56-1.38,3.97-3.4Zm110.87,63.07c2.09-.16,3.1-1.5,3.08-3.32-.03-2.32-1.51-3.66-3.83-3.63-2.17,.03-2.79,1.8-2.79,3.5,0,2.15,1.54,3.15,3.54,3.45Zm55.59,74.07c-.18-2.15-1.42-3.09-3.38-2.97-2.22,.13-3.95,1.11-3.9,3.61,.04,2.02,1.47,3.04,3.38,2.96,2.23-.1,3.75-1.21,3.89-3.59Zm-32.46,246.11c.05-2.43-1.11-3.48-3.08-3.56-2.4-.1-3.86,1.25-3.96,3.56-.08,1.87,1.08,3.31,3.09,3.3,2.26,0,3.72-1.24,3.94-3.3ZM169.2,440.91c.2,2.02,1.42,3.15,3.33,2.99,1.96-.16,3.48-1.25,3.55-3.48,.06-2.04-1.23-3.23-3.07-3.28-2.33-.06-3.49,1.52-3.8,3.77Zm520.31,39.54c-2.11,.13-3.24,1.28-3.22,3.26,.03,1.9,1.04,3.36,3.09,3.33,2.2-.03,3.39-1.53,3.43-3.61,.04-2.09-1.42-2.91-3.3-2.98Zm-45.9,19.01c2.37-.32,3.63-1.75,3.65-4.04,.01-2.02-1.26-3.16-3.29-3.02-2.17,.15-3.36,1.48-3.34,3.68,.02,1.91,.82,3.28,2.98,3.38Zm-326.02,73.81c-2.18,.06-3.69,1.12-3.88,3.24-.18,2.02,.75,3.76,3.07,3.78,2.2,.02,3.3-1.52,3.53-3.57,.22-1.97-.58-3.3-2.72-3.44Zm341.58-133.74c1.97-.47,3.46-1.56,3.54-3.67,.07-2.11-1.4-2.95-3.36-2.88-2.17,.08-3.51,1.21-3.47,3.44,.03,2.01,1.29,3,3.29,3.11Zm-407.5-22.01c-.27-1.96-1.52-2.93-3.45-2.96-2.07-.04-3.25,1.28-3.25,3.15,0,2.13,1.32,3.47,3.59,3.23,1.9-.21,3.08-1.3,3.1-3.42ZM335.66,102.44c-2.47,.08-3.13,1.52-3.07,3.38,.07,2.15,1.24,3.52,3.45,3.3,1.88-.18,2.95-1.47,2.92-3.44-.03-2.33-1.55-3.09-3.3-3.24Zm-14.64,436.62c.12,1.73,.86,3.06,2.71,3.1,2.08,.05,3.59-1.05,3.82-3.2,.2-1.92-.68-3.44-2.82-3.35-2.04,.09-3.39,1.29-3.71,3.45Zm337.9-121.22c-1.95,.1-3.29,.92-3.41,3.02-.11,1.91,.53,3.51,2.67,3.64,2.15,.12,3.61-1.07,3.76-3.26,.14-1.98-.98-3.18-3.02-3.4Zm-376.53,89.6c-.04-1.98-1.02-3.25-3-3.31-1.88-.06-3.26,.77-3.2,2.97,.06,2.08,.86,3.66,3.16,3.65,2.01-.01,2.91-1.39,3.04-3.31Zm-88.94-66.57c-.25-2.19-1.56-3.19-3.69-3.22-2.11-.03-3.09,1.25-3.15,3.15-.07,1.97,1.06,3.22,3.06,3.24,2.03,.02,3.52-.9,3.79-3.17Zm425.17,163.89c-2.32,.13-3.43,1.53-3.43,3.61,0,2.07,1.51,2.98,3.41,2.99,2.07,0,3.05-1.26,3.06-3.26,0-2.04-1.07-3.12-3.04-3.33Zm-10.18-154.02c1.86-.78,3.38-2.3,3.45-4.66,.05-1.6-1.31-2.55-2.84-2.43-2.3,.19-3.61,1.62-3.69,3.99-.06,1.82,.77,2.94,3.08,3.1Zm-254.01,101.5c1.74-.21,2.77-1.38,2.82-3.29,.05-1.95-.99-3.22-2.97-3.31-2.25-.11-3.42,1.3-3.35,3.4,.06,1.88,1.3,2.99,3.5,3.21Zm-62.31-43.08c-2.11,.15-3.6,1.12-3.67,3.34-.07,2.1,1.59,3.02,3.32,3.17,1.97,.17,3.1-1.17,3.29-3.11,.2-2.09-.99-3.09-2.94-3.39Zm-53.79-87.17c-1.92,.2-3.09,1.17-3,3.24,.08,1.85,.81,3.36,2.88,3.46,2.31,.1,3.32-1.48,3.36-3.5,.04-1.97-1.29-2.98-3.24-3.2Zm393.89,341.42c-.24-2-1.34-3.05-3.42-2.88-1.96,.16-3.27,1.15-3.19,3.23,.07,1.89,.95,3.38,3.1,3.3,2.2-.08,3.28-1.49,3.5-3.65Zm-434.9-225.87c-.27-1.72-1.22-3-3.22-2.96-1.87,.04-3.18,1.09-3.39,3.04-.23,2.06,1,3.15,2.9,3.34,2.26,.22,3.25-1.23,3.71-3.42Zm435.52-92.31c2.21-.37,3.69-1.55,3.66-3.91-.02-1.82-1.28-2.76-3.03-2.72-2.11,.04-3.47,1.24-3.66,3.35-.18,2.02,1.04,3.05,3.02,3.29Zm-462.25,198.31c-.13-1.96-1.38-2.89-3.28-3-2.05-.12-3.81,.51-3.76,2.91,.04,2.19,1.65,3.3,3.67,3.29,1.85,0,3.1-1.14,3.38-3.2Zm536.92-226.51c-.12-1.91-1.16-2.86-2.98-2.83-2.16,.04-3.53,1.24-3.7,3.37-.15,1.88,1.06,2.87,2.88,2.79,2.09-.09,3.39-1.26,3.8-3.33Zm-93.46,239.94c2.06-.27,3.61-1.09,3.72-3.37,.09-1.83-.88-3-2.7-3.04-2.04-.05-3.65,.89-3.96,3.06-.3,2.12,1.12,2.99,2.94,3.35ZM242.44,105.84c-1.82,.2-3.28,.88-3.34,3.04-.06,1.94,.65,3.42,2.83,3.43,2.24,0,3.43-1.37,3.47-3.51,.03-1.8-1.09-2.8-2.96-2.95Zm27.11,397.18c1.88-.31,3.03-1.39,2.95-3.39-.08-1.97-1.17-3.23-3.21-3.05-1.92,.17-3.1,1.4-3.04,3.38,.06,1.97,1.21,3.05,3.31,3.06Zm-135.7,29.68c1.99-.13,3.29-1.17,3.49-3.03,.21-1.99-1.11-3.19-2.97-3.31-1.89-.12-3.2,.97-3.34,2.96-.14,1.97,.91,3.11,2.81,3.38Zm163.49,24.95c1.93-.39,3.55-1.3,3.52-3.51-.02-1.79-1.37-2.78-3.07-2.76-2.11,.03-3.53,1.25-3.51,3.42,.02,1.75,1.26,2.69,3.06,2.86Zm393.66-145.63c-.19-1.9-1.44-2.9-3.31-2.88-1.87,.02-3.2,1.08-3.35,3.03-.16,2,.95,3.16,2.94,3.26,2.23,.11,3.21-1.34,3.72-3.41Zm-317.44,429.53c-.15-1.64-1.15-2.73-2.91-2.77-2.2-.05-3.42,1.25-3.47,3.43-.04,1.76,.78,3.03,2.7,3.01,2.23-.02,3.2-1.52,3.68-3.67ZM211.52,420.89c-1.97,.3-3.33,1.35-3.19,3.62,.12,1.96,1.56,2.61,3.23,2.55,2.22-.08,3.38-1.41,3.29-3.62-.08-1.96-1.46-2.53-3.33-2.55Zm-10.79,75.52c-.18-1.74-1.14-2.86-2.94-2.77-2.21,.11-3.21,1.65-3.29,3.68-.07,1.75,.8,3.02,2.75,2.83,2.14-.21,3.06-1.76,3.49-3.74Zm425.91,153.55c-1.74,.26-3.11,1.18-3.35,3.12-.26,2.05,.88,3.3,2.91,3.34,1.9,.05,3.33-.95,3.57-2.93,.25-2.08-1.13-3.03-3.12-3.53ZM157.39,434.38c-1.84,.29-3.19,1.14-3.14,3.2,.05,2,1.36,3.12,3.21,3.17,1.97,.05,3.1-1.41,3.17-3.21,.08-1.97-1.37-2.89-3.24-3.16Zm102.7,60.26c-.3-1.94-1.21-3.18-3.29-3.07-2.11,.12-2.94,1.51-2.82,3.39,.12,1.86,1.24,3.31,3.18,3.14,1.84-.16,2.82-1.61,2.94-3.47Zm386.17-104.75c-.25-1.72-1.11-3.02-2.92-3.04-2.13-.02-3.52,1.18-3.59,3.4-.06,1.77,.85,2.99,2.75,3.02,2.23,.03,3.3-1.36,3.76-3.38ZM259.23,111.33c-.06-1.48-.61-2.73-2.31-2.79-2.34-.08-3.76,1.24-4,3.51-.2,1.82,.89,2.96,2.72,2.87,2.14-.1,3.18-1.55,3.6-3.6Zm444.82,373.95c2.04-.23,3.45-1.31,3.52-3.49,.05-1.59-.99-2.66-2.61-2.64-2.15,.03-3.47,1.22-3.53,3.45-.04,1.66,.9,2.54,2.62,2.67Zm-175.99,319.72c-1.68,.15-2.94,1.23-3.07,3.12-.13,1.84,1.15,2.82,2.9,2.8,2.11-.02,3.57-1.22,3.6-3.36,.03-1.87-1.43-2.52-3.42-2.56Zm198.64-334.08c.06-2-.87-3.26-2.91-3.28-1.98-.02-3.15,1.14-3.13,3.14,.03,2.03,1.37,3.08,3.25,3.08,1.75,0,2.75-1.1,2.79-2.94Zm-408.32,59.6c-.09-1.96-1.15-2.93-2.95-2.9-1.96,.03-3.25,1.04-3.21,3.12,.03,1.79,1.02,2.94,2.9,2.87,1.93-.08,3.13-1.13,3.27-3.09Zm346.39-70.45c1.65-.47,3.09-1.38,3.03-3.38-.06-2.01-1.49-3.08-3.38-2.93-1.93,.15-3.01,1.55-2.84,3.49,.14,1.73,1.29,2.69,3.19,2.82Zm-365.05,62.62c.02-2-.77-3.31-2.97-3.23-2.06,.08-3.14,1.45-3.17,3.3-.03,1.73,1.21,2.88,2.95,3,2.05,.15,3.14-.98,3.18-3.07Zm53.62,223.65c1.86-.43,3.24-1.32,3.21-3.4-.02-1.89-1.18-2.88-2.98-2.77-1.97,.12-3.09,1.4-3.13,3.36-.04,1.88,1.1,2.76,2.9,2.81Zm-61.96-186.41c-.27-1.57-1.36-2.45-3.13-2.31-1.9,.15-3.2,1.19-3.12,3.21,.07,1.67,.95,3.01,2.85,2.88,2.09-.14,3.32-1.33,3.4-3.78Zm384.98-75.14c1.98-.15,3.22-1.23,3.35-3.17,.11-1.77-.83-2.98-2.76-2.96-1.98,.03-3.26,1.14-3.39,3.08-.12,1.8,1.01,2.82,2.8,3.05ZM263.63,125.84c-.11-1.76-.92-3.1-2.78-2.99-1.95,.12-3.02,1.5-2.99,3.45,.02,1.56,.92,2.68,2.55,2.72,2.05,.05,3.01-1.23,3.22-3.18Zm388.33,279.59c-.24-1.68-1.21-2.64-2.79-2.6-1.9,.04-3.33,1.04-3.46,3.04-.13,1.92,1.25,2.9,2.95,2.8,1.87-.1,3.03-1.36,3.3-3.25Zm-413,108.62c-2.07,.22-3.25,1.45-3.2,3.36,.04,1.86,1.45,2.66,3.24,2.49,1.78-.17,2.85-1.26,2.9-3.05,.06-1.94-1.23-2.68-2.94-2.81Zm443.89-80.25c-.13-1.53-.99-2.7-2.86-2.65-1.94,.06-3.2,1.28-3.4,3.15-.2,1.86,.98,2.88,2.8,2.88,1.99,0,3.06-1.2,3.45-3.39Zm-344.43,116.99c1.81-.58,3.24-1.73,3.41-3.8,.15-1.79-1.17-2.41-2.73-2.32-1.99,.11-3.14,1.26-3.17,3.25-.02,1.51,.63,2.68,2.49,2.87Zm-154.82-30.33c-1.89,.26-3.11,1.28-3.1,3.26,.01,1.73,.95,2.99,2.79,2.89,1.94-.1,2.99-1.45,3.11-3.32,.12-1.86-.97-2.75-2.81-2.83Zm-8.68-64.89c1.91-.33,3.25-1.35,3.29-3.3,.03-1.79-1.14-2.92-2.95-2.81-1.87,.11-3.26,1.09-3.2,3.19,.05,1.78,1.05,2.82,2.87,2.93ZM471.08,89.29c-1.54,.61-4.13,.26-4.09,3.12,.02,1.73,1.59,2.19,3.04,2.03,1.99-.21,3.55-1.38,3.85-3.38,.27-1.77-1.34-1.67-2.8-1.77ZM147.5,523.6c-.23-1.67-.87-3.07-2.84-2.91-1.71,.14-2.92,1.21-2.96,2.97-.04,2,1.21,3.2,3.18,3.14,1.9-.05,2.48-1.53,2.62-3.21Zm131.53-48.41c-1.96,.56-2.96,1.81-2.75,3.77,.19,1.72,1.25,3.04,3.01,2.93,2.07-.13,2.82-1.75,2.63-3.65-.17-1.69-1.13-2.82-2.89-3.05Zm-158.93,61.72c.02-1.78-.87-2.99-2.59-3.19-1.82-.21-2.83,.95-2.91,2.73-.07,1.76,.91,3,2.6,3.19,1.79,.2,2.79-.9,2.89-2.73Zm503.33,257.04c-1.52,.15-2.74,.95-2.89,2.76-.17,2.01,.84,3.32,2.89,3.31,1.75,0,2.86-1.1,2.89-2.91,.03-1.75-.83-2.89-2.88-3.16ZM267.75,139.59c-.15-1.7-.94-2.93-2.78-2.97-1.8-.04-2.84,1.08-3.03,2.78-.18,1.71,.56,3.13,2.39,3.26,1.97,.13,2.97-1.23,3.41-3.07Zm13.19,5.86c1.96-.33,3.17-1.41,3.27-3.35,.08-1.58-.81-2.71-2.44-2.79-2.02-.11-3.19,1.2-3.45,3.02-.27,1.83,.99,2.75,2.62,3.12Zm352.4,502.14c.09,1.28,.85,2.48,2.69,2.56,1.95,.09,3.26-.96,3.49-2.87,.24-2-.93-3.2-2.92-3.26-1.99-.06-3.05,1.12-3.26,3.56ZM213.8,493.04c-.31-1.83-1.27-3.09-3.31-3.05-1.59,.03-2.64,1-2.72,2.56-.1,1.98,1.06,3.27,3,3.36,1.75,.08,2.8-1.04,3.03-2.88ZM477.45,76.38c-.04-1.99-1.35-2.79-2.96-2.83-1.78-.04-3.43,.72-3.5,2.79-.05,1.61,1.2,2.38,2.72,2.48,1.85,.12,3.29-.46,3.74-2.45Zm-216.71,381.78c-.05-1.75-.63-3.29-2.49-3.35-1.88-.06-3.29,1.08-3.3,3.12-.01,1.76,1.1,2.92,2.86,3.06,1.93,.15,2.67-1.18,2.94-2.84Zm424.98,5.46c-.18-1.48-1.01-2.65-2.83-2.61-1.9,.04-3.18,1.09-3.24,3.07-.05,1.58,.86,2.58,2.5,2.61,1.9,.03,3.17-.84,3.58-3.07Zm-504.02,46.17c0-1.87-.91-2.98-2.7-3.21-2.06-.27-3.3,.86-3.58,2.77-.27,1.86,.96,2.85,2.69,3.08,2,.26,3.25-.65,3.59-2.65Zm76.19-87.16c-2.01,.08-2.91,1.16-2.93,2.94-.03,1.94,.86,3.29,2.94,3.32,1.88,.03,2.72-1.17,2.77-2.95,.06-1.98-.81-3.2-2.78-3.31Zm71.2,124.39c-1.94,.17-3.11,1.29-3.17,3.23-.05,1.53,.82,2.76,2.47,2.76,2.01,0,3.09-1.39,3.25-3.24,.14-1.61-.91-2.52-2.56-2.76Zm284.22-117.9c-.25-1.52-1.05-2.66-2.94-2.66-2.07,0-3.05,1.19-3.23,3.14-.15,1.6,.42,2.73,2.21,2.78,2.13,.07,3.5-.88,3.96-3.26Zm125.51,37.36c-2,.11-3,1.25-3.05,3.2-.04,1.57,.76,2.76,2.33,2.85,1.89,.11,3.22-.87,3.32-2.92,.09-1.77-.76-2.87-2.61-3.13Zm-163.05,51.1c-.25-1.38-.95-2.52-2.62-2.52-2,0-3.21,1.23-3.35,3.13-.11,1.52,.78,2.78,2.46,2.76,1.99-.02,2.86-1.51,3.51-3.38Zm-304.02,3.87c1.5-.64,2.79-1.62,2.66-3.65-.11-1.78-1.38-2.36-2.9-2.25-1.87,.13-2.68,1.41-2.6,3.18,.07,1.59,.98,2.52,2.83,2.73Zm367.6,140.52c-.13-1.57-.86-2.83-2.7-2.95-1.74-.12-3.05,.64-3.16,2.51-.11,1.95,.9,3.23,2.92,3.35,1.84,.1,2.78-.96,2.94-2.91Zm-439.52-98.13c-.28-1.68-.83-3.24-2.94-3.35-1.94-.1-2.71,1.06-2.71,2.83,0,2,.99,3.12,3.06,3.09,1.61-.03,2.52-.85,2.59-2.57ZM325.72,62.66c-1.73,.05-3,.62-2.78,2.42,.25,2.06,1.8,2.71,3.69,2.63,1.56-.07,2.88-.77,2.72-2.45-.2-2.11-2.03-2.43-3.63-2.6Zm-83.76,464.64c-.04-1.83-.94-2.95-2.78-2.97-1.6-.02-2.61,1.01-2.73,2.57-.13,1.72,.62,3.1,2.5,3.24,1.88,.14,2.7-1.14,3.01-2.84ZM351.49,103.92c-1.61,.24-3.15,.77-3.14,2.67,0,1.55,1.18,2.59,2.72,2.56,1.81-.03,3.41-.85,3.38-2.95-.03-1.74-1.54-2.05-2.96-2.27Zm-96.3,365.38c-.13-2.1-1.32-3.21-3.28-3.18-1.66,.02-2.5,1.22-2.36,2.83,.14,1.65,.9,3.07,2.76,3.19,1.91,.12,2.76-1.07,2.88-2.83Zm420.89-20.18c1.83-.15,2.95-1.05,3.03-2.9,.08-1.89-.97-2.92-2.82-2.9-1.79,.02-2.95,1.04-3.02,2.85-.08,1.85,1.01,2.81,2.81,2.95Zm-316.73,320.63c-.14-1.69-1.21-2.61-2.98-2.45-1.9,.17-3.06,1.29-2.99,3.3,.06,1.71,1.26,2.33,2.77,2.35,1.98,.02,3.09-.99,3.2-3.19Zm-1.18-14.01c-.22-1.85-1.34-2.74-3.09-2.63-1.55,.1-2.51,1.1-2.57,2.68-.07,1.83,.94,2.93,2.75,2.87,1.75-.05,2.7-1.2,2.92-2.92Zm293.9-287.9c-.14-1.65-1.15-2.52-2.71-2.52-1.75,0-2.95,.91-3.02,2.78-.08,1.95,1.19,2.85,2.91,2.78,1.74-.07,2.76-1.19,2.82-3.05Zm42.36-79.66c-.22-1.59-1.05-2.56-2.74-2.43-1.82,.14-2.85,1.33-2.87,3.02-.03,1.78,1.02,2.86,2.95,2.62,1.84-.23,2.54-1.5,2.66-3.2Zm-374.78,424.59c1.59-.23,2.89-1.12,2.82-2.88-.07-1.73-1.34-2.81-3.11-2.57-1.63,.22-2.9,1.28-2.7,3.09,.17,1.5,1.25,2.39,2.99,2.36Zm315.94-138.71c-1.82,.15-2.59,1.22-2.58,2.76,.02,1.69,.77,3.02,2.68,3.07,1.91,.05,2.8-1.1,2.67-2.92-.13-1.72-1.05-2.82-2.77-2.91Zm16.56-221.25c1.58-.08,2.71-.8,2.71-2.48,0-1.68-.72-3.15-2.68-3.01-1.67,.12-2.94,1.2-2.85,3.01,.08,1.57,1.22,2.39,2.82,2.48ZM321.43,148.81c-.17-1.66-1.15-2.49-2.76-2.51-2-.03-2.73,1.23-2.63,3.02,.09,1.68,.64,3.18,2.76,2.8,1.74-.31,2.57-1.55,2.64-3.31Zm-155.17,377.17c-1.42,.26-2.44,1.07-2.37,2.71,.07,1.77,1.09,2.9,2.88,2.92,1.69,.02,2.39-1.24,2.47-2.74,.1-1.89-1.09-2.7-2.98-2.89ZM272.35,117.73c-1.91,.34-2.92,1.57-2.86,3.49,.04,1.38,.88,2.33,2.39,2.22,1.79-.13,2.82-1.25,2.91-2.98,.09-1.55-.61-2.67-2.44-2.73ZM126.3,485.43c-.35-1.57-1.05-2.98-2.93-2.78-1.51,.16-2.43,1.3-2.34,2.86,.09,1.56,1.08,2.47,2.68,2.49,1.67,.03,2.42-.97,2.59-2.57Zm514.45-72.3c-.28-1.57-1.14-2.55-2.77-2.48-1.81,.07-2.81,1.14-2.77,2.96,.04,1.62,1,2.64,2.61,2.52,1.71-.13,2.68-1.29,2.93-3Zm-10.03,257.78c-.35-1.48-1.34-2.5-3.15-2.3-1.66,.19-2.34,1.43-2.18,2.94,.15,1.43,.85,2.66,2.6,2.6,1.89-.07,2.64-1.23,2.73-3.23ZM294.04,161.57c1.73-.16,2.85-1.06,2.86-2.9,0-1.62-.92-2.64-2.57-2.61-1.63,.03-2.52,1.12-2.66,2.66-.15,1.6,.63,2.63,2.37,2.85Zm185.77-66.11c-1.74,0-3.02,.56-3.02,2.26,0,1.95,1.44,2.5,3.14,2.46,1.49-.03,2.85-.46,2.85-2.24,0-2-1.54-2.38-2.97-2.49Zm-191.17,396.06c1.53-.19,2.13-1.19,2.09-2.57-.06-1.72-.87-3.1-2.69-3.22-1.72-.11-2.46,1.16-2.37,2.74,.1,1.8,1.31,2.68,2.97,3.05Zm22.56-332.39c-.19-1.35-.6-2.52-2.2-2.42-1.83,.11-2.75,1.29-2.75,3.03,0,1.53,.77,2.77,2.46,2.65,1.91-.14,2.3-1.71,2.49-3.26Zm-174.28,359.74c1.56-.27,2.54-1.17,2.5-2.78-.03-1.65-1.04-2.59-2.69-2.43-1.54,.14-2.62,1.04-2.5,2.72,.11,1.56,.93,2.57,2.68,2.49ZM323.67,144.54c1.81-.41,2.56-1.64,2.56-3.3,0-1.45-.48-2.93-2.26-2.69-1.82,.24-2.18,1.85-2.18,3.46,0,1.31,.35,2.39,1.87,2.53ZM120.36,555.8c-.33-1.74-1.34-2.78-3.15-2.58-1.52,.17-2.65,1.12-2.44,2.76,.22,1.65,1.25,2.88,3.12,2.64,1.51-.2,2.46-1.15,2.47-2.82Zm505.04-122.54c-.06-1.55-.83-2.55-2.25-2.48-1.91,.1-3.21,1.25-3.2,3.25,.01,1.46,1.12,2.13,2.54,2.08,1.86-.07,2.72-1.19,2.91-2.85Zm-275.95,106.65c-.29-1.81-1.39-2.69-3.15-2.56-1.62,.12-2.45,1.1-2.3,2.76,.14,1.55,.94,2.6,2.56,2.65,1.87,.05,2.66-1.16,2.89-2.85Zm-148.97-117.4c1.69-.23,3.07-1,2.97-2.86-.07-1.32-1.16-2.2-2.54-2.24-1.9-.06-2.81,1.07-2.81,2.89,0,1.51,.93,2.17,2.38,2.22Zm424.73,59.39c-.15-1.5-.98-2.46-2.68-2.33-1.59,.13-2.65,1-2.49,2.67,.14,1.52,1.01,2.67,2.7,2.54,1.6-.11,2.47-1.11,2.47-2.89Zm-15.57,68.26c1.47-.05,2.34-.85,2.45-2.24,.13-1.59-.74-2.74-2.3-2.93-1.61-.2-2.67,.74-2.69,2.4-.02,1.62,1.01,2.47,2.54,2.77ZM476.18,64.81c-.34-1.55-1.3-2.49-2.86-2.39-1.51,.1-2.6,1.02-2.65,2.63-.05,1.83,1.31,2.31,2.78,2.24,1.48-.07,2.63-.76,2.73-2.48ZM122.71,500.78c1.39-.29,2.34-1.22,2.45-2.77,.12-1.69-.84-2.58-2.5-2.57-1.6,.01-2.65,.78-2.62,2.51,.03,1.61,.92,2.53,2.67,2.83Zm5.57,60.68c-1.69,.26-2.52,1.47-2.41,3.16,.08,1.27,.83,2.44,2.31,2.31,1.82-.16,2.62-1.54,2.57-3.2-.04-1.3-.78-2.3-2.46-2.28Zm539.17-67.81c1.64-.21,3.03-.83,3.01-2.73-.02-1.55-.99-2.63-2.58-2.59-1.51,.03-2.55,.99-2.75,2.54-.22,1.68,.77,2.49,2.32,2.78ZM356.22,119.29c.07-1.47-.61-2.37-2.04-2.51-1.78-.17-3.04,.71-3.18,2.47-.12,1.57,.93,2.55,2.53,2.58,1.66,.04,2.34-1.14,2.69-2.54Zm-50.25,24.79c-.18-1.62-1.04-2.55-2.7-2.39-1.64,.15-2.41,1.31-2.37,2.83,.05,1.56,.92,2.63,2.63,2.4,1.56-.21,2.34-1.26,2.43-2.83Zm-83.78,264.36c1.32-.05,2.58-.62,2.67-2.29,.09-1.63-1.05-2.5-2.57-2.65-1.63-.16-2.63,.75-2.82,2.34-.21,1.78,.97,2.39,2.72,2.6Zm-15.55,153.21c.22,1.42,.97,2.41,2.37,2.35,1.57-.07,2.5-1.09,2.47-2.71-.03-1.59-.82-2.68-2.53-2.51-1.64,.17-2.19,1.43-2.32,2.87Zm22.83-65.14c2,.01,2.75-1.1,2.74-2.6,0-1.63-1.08-2.41-2.7-2.4-1.65,.02-2.6,.85-2.5,2.52,.09,1.61,1.13,2.38,2.45,2.48Zm367.43,31.31c-.37-1.3-1.01-2.52-2.69-2.39-1.56,.12-2.5,1.16-2.46,2.72,.04,1.54,.91,2.6,2.59,2.47,1.56-.12,2.4-1.11,2.57-2.8Zm8.55-20.11c1.76,0,2.65-.98,2.78-2.51,.12-1.42-.72-2.31-2.17-2.37-1.55-.07-2.77,.63-2.96,2.22-.19,1.63,.85,2.48,2.35,2.66Zm-255.49,23.29c-.07-1.77-1.07-2.69-2.58-2.67-1.49,.03-2.59,.9-2.43,2.62,.15,1.54,1.07,2.6,2.6,2.63,1.64,.03,2.33-1.14,2.4-2.59Zm273.57-84.31c-.15-1.57-1.1-2.39-2.76-2.26-1.64,.13-2.57,1.05-2.37,2.75,.18,1.58,1.12,2.64,2.74,2.54,1.65-.11,2.3-1.35,2.39-3.03ZM312.83,133c-.1-1.46-.87-2.26-2.34-2.06-1.51,.2-2.47,1.08-2.54,2.69-.06,1.47,.78,2.38,2.14,2.36,1.8-.02,2.6-1.27,2.73-2.99Zm356.59,338.37c1.58-.28,2.48-1.16,2.35-2.84-.13-1.63-1.1-2.61-2.69-2.53-1.6,.09-2.49,1.19-2.34,2.82,.14,1.55,.95,2.56,2.68,2.54ZM314.95,46.83c-1.35,.17-2.47,.75-2.3,2.27,.19,1.8,1.48,2.66,3.21,2.52,1.4-.12,2.21-1.08,2.02-2.53-.22-1.64-1.34-2.29-2.93-2.26Zm279.79,791.14c-.12-1.26-.65-2.24-2.18-2.29-1.74-.05-3.02,.66-3.22,2.49-.15,1.37,.5,2.42,2.04,2.42,1.68,0,2.89-.78,3.36-2.62Zm-222.49-12.14c1.55-.15,2.6-.97,2.54-2.57-.05-1.58-1.07-2.43-2.71-2.33-1.44,.09-2.25,1.03-2.33,2.32-.1,1.59,.85,2.48,2.5,2.58Zm24.23-7.81c-1.42,.32-2.69,1.1-2.58,2.93,.08,1.36,.98,2.22,2.45,2.01,1.53-.21,2.47-1.19,2.57-2.7,.1-1.46-.81-2.17-2.45-2.25Zm-126.96-311.07c-1.54,.36-2.53,1.23-2.64,2.8-.11,1.59,1.01,2.22,2.33,2.17,1.52-.06,2.62-.87,2.53-2.61-.08-1.39-.79-2.26-2.22-2.36Zm41.53,63.76c-.18-1.48-.88-2.67-2.51-2.77-1.63-.1-2.61,.81-2.65,2.5-.04,1.66,.88,2.66,2.46,2.8,1.64,.14,2.54-.83,2.71-2.52Zm-90.4-22.92c.03-1.55-.69-2.51-2.09-2.64-1.59-.15-2.62,.73-2.81,2.34-.18,1.49,.69,2.37,2.07,2.49,1.56,.14,2.62-.63,2.84-2.2Zm477.05-28.81c-.16-1.52-1.06-2.17-2.48-2.17-1.64,0-2.72,.9-2.77,2.46-.05,1.65,1.1,2.46,2.72,2.38,1.68-.08,2.39-1.13,2.52-2.67Zm-28.75-151.62c-.3-1.5-1.22-2.37-2.88-2.19-1.66,.18-2.43,1.28-2.31,2.86,.11,1.46,1.08,2.17,2.53,2.03,1.55-.14,2.56-.93,2.66-2.71Zm-400.52,172.9c-1.64,.18-2.41,1.14-2.49,2.72-.06,1.21,.41,2.15,1.71,2.23,1.67,.11,2.45-1.05,2.78-2.48,.37-1.6-.77-2.1-2-2.47Zm422.05-90.96c1.37,.01,2.33-.63,2.54-2.02,.25-1.67-.66-2.67-2.27-2.71-1.35-.03-2.27,.8-2.36,2.24-.1,1.44,.63,2.27,2.08,2.49Zm-84.35,153.03c-1.66-.02-2.68,.79-2.66,2.44,.02,1.32,.71,2.37,2.21,2.44,1.55,.08,2.77-.49,2.89-2.21,.12-1.64-.79-2.55-2.44-2.68ZM144.33,445.32c1.3-.27,2.25-1.2,2.41-2.68,.17-1.57-.96-2.06-2.31-2.1-1.65-.05-2.64,.84-2.6,2.43,.03,1.28,.8,2.25,2.5,2.35Zm453.87,27.47c-.13-1.1-.62-2.2-2.11-2.36-1.67-.18-2.64,.75-2.83,2.36-.17,1.41,.4,2.49,1.95,2.57,1.57,.08,2.65-.67,3-2.57Zm-284.76,31.67c-.07-1.56-.78-2.61-2.46-2.65-1.69-.04-2.54,1-2.54,2.58,0,1.34,.72,2.34,2.19,2.44,1.63,.11,2.57-.7,2.8-2.36Zm-117.4,3.81c-.18-1.16-.8-2.22-2.18-2.31-1.51-.1-2.71,.69-2.84,2.3-.12,1.53,.67,2.72,2.31,2.77,1.59,.04,2.37-1.1,2.71-2.76Zm-68.27-33.71c1.54-.15,2.6-.85,2.64-2.54,.04-1.43-.73-2.33-2.14-2.45-1.59-.14-2.67,.66-2.88,2.26-.22,1.71,.83,2.47,2.38,2.73ZM496.87,57.45c-.26-1.63-1.44-2.16-2.97-2.11-1.35,.04-2.6,.53-2.47,2.07,.15,1.78,1.45,2.7,3.21,2.56,1.36-.11,2.22-.96,2.24-2.53Zm67.12,453.33c1.43-.21,2.7-.71,2.9-2.34,.18-1.51-.73-2.25-2.15-2.24-1.5,.02-2.65,.69-2.87,2.31-.2,1.53,.7,2.17,2.11,2.27ZM460.74,85.21c1.35-.2,2.87-.48,2.82-2.24-.04-1.49-1.43-1.87-2.66-1.91-1.43-.05-2.9,.31-2.8,2.13,.08,1.42,1.28,1.92,2.65,2.02ZM144.04,451.46c-.43-1.25-1.04-2.43-2.55-2.23-1.47,.19-2.71,1.05-2.63,2.72,.07,1.41,1.1,2.28,2.5,2.19,1.56-.09,2.5-1.07,2.68-2.68Zm121.32-20.19c-1.72-.1-2.3,.83-2.31,2.23-.02,1.67,.9,2.5,2.54,2.53,1.15,.02,2.24-.28,2.31-1.62,.09-1.78-1-2.75-2.54-3.15ZM356.5,98.48c.2-1.59-.77-2.24-2.06-2.46-1.44-.24-2.85,.04-3.24,1.68-.36,1.5,.74,2.21,2.03,2.44,1.46,.27,2.7-.12,3.28-1.67Zm255.65,392.65c-1.48,.27-2.07,1.27-1.83,2.66,.22,1.26,.83,2.49,2.41,2.2,1.32-.25,2.21-1.21,2.06-2.66-.16-1.47-1.29-1.97-2.64-2.2Zm24.01,13.88c1.7-.09,2.67-.97,2.74-2.52,.07-1.39-.81-2.25-2.21-2.38-1.73-.15-2.51,.84-2.49,2.45,.02,1.3,.47,2.38,1.95,2.45Zm.58-130.81c-.22-1.46-1.1-2.25-2.51-2.01-1.4,.24-2.68,.93-2.65,2.63,.03,1.53,1.11,2.13,2.48,2.03,1.58-.11,2.41-1.14,2.69-2.65Zm35.07,125.3c-.13-1.21-.65-2.24-2.17-2.22-1.65,.02-2.48,1.02-2.49,2.59-.02,1.36,.66,2.38,2.14,2.36,1.62-.02,2.4-1.04,2.52-2.73Zm-85.03-58.56c1.77-.05,2.6-1.09,2.72-2.58,.13-1.47-.82-2.27-2.25-2.14-1.29,.12-2.31,.78-2.38,2.26-.06,1.39,.47,2.35,1.91,2.45Zm-359.49,94.23c-1.61,.17-2.52,1.17-2.6,2.67-.06,1.35,.73,2.4,2.22,2.3,1.55-.11,2.52-1.14,2.59-2.67,.07-1.39-.71-2.27-2.21-2.3Zm94.09,15.85c-1.7,.13-2.41,1.09-2.34,2.74,.06,1.43,.71,2.4,2.22,2.34,1.65-.07,2.47-1.13,2.42-2.73-.04-1.41-.82-2.25-2.3-2.34Zm.53-29.26c.01-1.5-.7-2.54-2.08-2.61-1.62-.08-2.47,1.04-2.55,2.61-.07,1.37,.47,2.5,1.98,2.56,1.67,.06,2.3-1.2,2.66-2.55Zm347.93-88.6c1.29-.35,2.28-1.23,2.34-2.79,.05-1.28-.89-1.95-2.08-2.01-1.59-.09-2.81,.68-2.88,2.32-.06,1.39,1.07,2.1,2.62,2.49ZM497.6,30.27c-.21-1.65-1.21-2.47-2.76-2.47-1.42,0-2.28,.91-2.35,2.3-.06,1.4,.71,2.36,2.16,2.4,1.5,.04,2.64-.6,2.94-2.23ZM196.69,469.66c1.3-.22,2.31-1.07,2.35-2.68,.03-1.46-.94-2.26-2.34-2.32-1.72-.08-2.56,.96-2.5,2.58,.05,1.33,.66,2.37,2.49,2.42Zm411.2,151.57c1.56-.28,2.53-1.14,2.39-2.8-.11-1.46-1.09-2.21-2.49-2.16-1.66,.05-2.53,1.01-2.34,2.71,.16,1.41,.96,2.21,2.43,2.25ZM318.21,83.38c-1,.16-2.43,.25-2.46,1.85-.04,1.71,1.34,2.34,2.81,2.38,1.28,.03,2.54-.44,2.46-2.05-.08-1.49-1.27-1.94-2.8-2.18Zm298.56,336.36c-.08-1.47-.93-2.25-2.33-2.17-1.3,.08-2.33,.75-2.4,2.23-.07,1.44,.75,2.33,2.12,2.42,1.64,.11,2.44-.91,2.61-2.48ZM288.88,125.19c-1.59,.25-2.45,1.2-2.45,2.79,0,1.25,.72,2.03,2,1.99,1.57-.05,2.66-.89,2.75-2.5,.08-1.46-.85-2.2-2.3-2.29Zm-79.46,289.98c0,1.51,.73,2.41,2.21,2.41,1.2,0,2.05-.76,2.24-1.95,.24-1.5-.62-2.42-2-2.59-1.46-.18-2.25,.74-2.45,2.14Zm169.32,130.17c.02-1.53-.71-2.37-2.16-2.52-1.41-.14-2.44,.43-2.68,1.91-.23,1.41,.38,2.51,1.82,2.72,1.55,.22,2.67-.52,3.02-2.11Zm-12.2-436.07c-.09-1.51-.97-2.39-2.35-2.33-1.27,.05-2.46,.72-2.38,2.28,.06,1.26,1,1.9,2.15,2.05,1.47,.19,2.3-.6,2.58-2Zm-138.63,405.73c-1.53,0-2.38,.83-2.52,2.17-.14,1.36,.5,2.41,2,2.46,1.38,.04,2.32-.71,2.46-2.13,.14-1.42-.58-2.28-1.94-2.49Zm-44.41-99.7c1.4-.14,2.37-.9,2.49-2.28,.11-1.21-.62-2.1-1.91-2.16-1.5-.08-2.31,.93-2.48,2.24-.17,1.25,.66,1.97,1.9,2.2Zm115.67,148c-1.38,.11-2.34,.8-2.38,2.23-.04,1.62,.94,2.56,2.53,2.58,1.5,.02,2.15-1.03,2.1-2.4-.05-1.37-.8-2.24-2.24-2.4Zm-32.18-33.25c1.39-.23,2.08-1.04,1.87-2.53-.17-1.24-.95-1.97-2.16-1.91-1.37,.07-2.33,.83-2.22,2.34,.11,1.43,.95,2.17,2.5,2.09Zm-79.75,30.24c1.24-.35,2.41-1.01,2.45-2.65,.03-1.22-.7-2.06-1.96-2.03-1.6,.03-2.5,1.01-2.58,2.59-.07,1.26,.64,1.94,2.09,2.09Zm149.73-25.64c-1.25,.1-2.04,.76-2.01,2.05,.03,1.39,.77,2.44,2.23,2.47,1.42,.03,2.37-.86,2.31-2.32-.06-1.47-1.11-2.1-2.53-2.2Zm-215.97-13.27c-1.09,.28-2,.98-1.81,2.46,.18,1.35,.96,2.3,2.42,2.12,1.38-.17,2.14-1.12,2.07-2.52-.08-1.47-1.01-2.1-2.68-2.06ZM344.38,95.49c-.22-1.65-1.44-2.15-2.94-2.15-1.19,0-2.18,.5-2.1,1.88,.1,1.76,1.38,2.26,2.9,2.28,1.26,.02,2.01-.61,2.15-2.01Zm277.94,406.57c-.07-1.53-.97-2.19-2.4-2.12-1.19,.06-2.08,.68-2.16,1.94-.09,1.48,.89,2.37,2.19,2.46,1.38,.09,2.22-.84,2.36-2.28Zm122.1-22.69c-.21-1.34-.85-2.38-2.33-2.28-1.36,.09-2.31,.97-2.17,2.41,.14,1.43,1.18,2.07,2.58,1.97,1.25-.09,1.88-.85,1.92-2.11Zm-466.69-19.62c-.36-1.18-.94-2.33-2.43-2.28-1.54,.05-2.12,1.16-1.98,2.55,.15,1.44,1.04,2.19,2.54,2.04,1.33-.13,1.76-1.05,1.87-2.31Zm-2.28,75.66c-1.47,.18-2.19,1.07-2.15,2.45,.04,1.37,.74,2.35,2.26,2.23,1.26-.1,1.83-.98,1.86-2.18,.03-1.35-.44-2.37-1.97-2.51Zm352.62-42.26c1.53-.25,2.02-1.27,1.89-2.65-.14-1.43-1-2.3-2.45-2.1-1.23,.17-1.75,1.13-1.67,2.36,.09,1.4,.74,2.29,2.23,2.39Zm73.72-67.55c-1.42,.02-2.27,.75-2.49,2.11-.19,1.19,.28,2.22,1.54,2.28,1.49,.07,2.64-.76,2.8-2.34,.12-1.2-.57-1.96-1.85-2.06Zm-369.39,82.99c-.23-1.36-1.06-2.13-2.52-2.07-1.36,.06-1.89,.97-1.84,2.18,.06,1.47,.93,2.26,2.43,2.13,1.27-.11,1.86-.94,1.94-2.24Zm307.13-127c-.03-1.24-.55-2.13-1.88-2.1-1.39,.03-2.35,.82-2.48,2.24-.11,1.19,.35,2.14,1.79,2.12,1.48-.02,2.14-1,2.57-2.25Zm-24.14,140.63c-1.42,.25-2.12,1.11-1.95,2.54,.13,1.17,.84,2.15,2.04,2.04,1.56-.14,2.41-1.27,2.21-2.88-.16-1.23-1.05-1.76-2.29-1.71ZM282.7,156.72c-.1-1.48-1.01-1.96-2.22-1.76-1.27,.21-2.41,.84-2.51,2.31-.09,1.31,.74,2.04,2,2,1.6-.06,2.48-1.04,2.72-2.55Zm42.69-60.29c1.23,0,2.26-.3,2.32-1.66,.07-1.71-1.09-2.45-2.58-2.52-1.06-.05-2.21,.28-2.29,1.66-.1,1.79,1.26,2.18,2.56,2.52Z"/>
  <path d="M417.23,217.42c-12.42-.07-22.4-10.17-22.25-22.51,.15-12.2,10.11-21.93,22.39-21.87,12.67,.06,22.6,9.88,22.46,22.23-.14,12.51-10.05,22.22-22.61,22.15Zm13.52-34.96c-2.49,.19-4.74,1.31-4.78,4.58-.04,3,1.52,5.09,4.64,5.15,3.33,.06,4.96-2.05,5.1-5.25,.13-3.06-1.61-4.43-4.95-4.47Z"/>
  <path d="M495.1,190.5c-11.88-.01-20.69-8.64-20.78-20.33-.09-11.69,9.02-20.67,20.98-20.71,11.5-.04,20.41,8.68,20.52,20.08,.11,11.75-9.01,20.98-20.72,20.96Zm13.15-31.46c-2.86,.3-5.04,1.46-4.97,4.78,.07,2.98,1.96,4.47,4.74,4.58,3.19,.13,4.85-1.91,5.01-4.84,.16-3.05-1.97-4.23-4.78-4.52Z"/>
</svg>