<?xml version="1.0" encoding="UTF-8"?>
<svg id="Layer_1" data-name="Layer 1" xmlns="http://www.w3.org/2000/svg" viewBox="0 0 864 864">
  <path d="M201.39,139.35c9.53,14.41,20.36,25.98,31.85,36.99,15.29,14.65,31,28.71,50.87,37.07,6.97,2.93,14.12,4.99,21.82,4.42,3.09-.23,5.61-1.43,7.39-3.99,1.22-1.75,1.57-3.15-1.11-4.14-42.43-15.67-65.31-48.11-76.45-90.18-4.98-18.82-.83-37.32,4.03-56.1,1.75,1.31,2,2.99,2.5,4.4,4.18,11.66,9.05,23.04,13.94,34.42,11.46,26.68,32.51,43.45,57.34,56.35,7.66,3.98,16.01,6.05,24.79,5.75,1.49-.05,3.04,.22,4.42-.57,.46-1.07-.37-1.45-.98-1.76-16.78-8.4-27.25-22.79-36.39-38.41-14.39-24.59-18.92-51.03-14.7-79.12,.78-5.21,2.88-9.56,6.48-13.35,3.89-4.09,7.58-8.37,12.01-13.3,1.19,7.33,3.01,13.81,4.88,20.28,3.9,13.52,7.65,27.08,15.53,39.04,7.81,11.85,18.55,20.15,31.01,26.54,10.9,5.59,22.02,10.65,33.52,14.87,1.29,.47,2.58,1,3.91,1.32,2.24,.53,4.82,1.22,6.55-.6,1.89-1.98-.31-3.97-1.01-5.84-11.78-31.6-14.88-63.56-4.05-96.09,1.85-5.56,4.83-10.56,8.41-15.18,.71-.92,1.36-2.41,2.72-2.15,1.38,.27,1.26,1.92,1.56,3.01,5.69,20.52,12.86,40.5,22.07,59.72,6.1,12.72,13.2,24.85,21.46,36.28,2.6,3.6,5.46,7,9.39,9.3,4.75,2.79,7.66,1.84,9.55-3.41,1.61-4.48,2.24-9.2,2.82-13.91,2.95-23.91,2.32-47.95,2.66-71.96,.06-4.11,0-8.22,.61-12.57,28,21.57,44.8,49.97,51.75,84.4,1.91-.6,1.68-2.02,2.02-3.09,4.47-14.3,8.24-28.8,11.86-43.34,1.66-6.67,5.49-12.12,9.77-18.02,3.7,6.65,5.91,13.26,7.97,19.94,5.12,16.54,8.86,33.38,10.91,50.59,1.08,9.07,.85,17.99-1.84,26.8-.44,1.43-1.75,3.45,.24,4.53,1.75,.95,3.6-.06,5.03-1.33,4-3.55,6.35-8.22,8.34-13.03,5.04-12.14,7.56-24.82,7.62-37.98,.01-3.31,0-6.63,0-10.65,4.04,2.86,6.36,6.21,8.49,9.62,10.68,17.11,18.11,35.32,18.64,55.86,.26,10.19-2.95,18.96-10.07,26.2-2.1,2.13-2.4,3.56-.19,6,27.09,29.96,34.57,65.13,27.36,104.14-.44,2.4-.83,4.82-1.19,7.24-.06,.41,.12,.85,.3,1.97,2.28-2.79,4.21-5.21,6.21-7.59,3.11-3.71,6.85-6.57,11.54-7.98,14.65-4.44,26.82,5.85,26.45,22.54-.21,9.73-2.65,19.09-6.03,28.15-5.8,15.5-12.04,30.78-23.63,43.16-15.9,16.98-36,25.92-58.28,30.75-17.24,3.73-34.68,3.01-52.12,2.35-10.24-.39-20.48-1.2-30.72-1.21-24.98-.04-39.98,12.68-44.83,37.21-4.03,20.36,.46,39.52,7.91,58.24,6.02,15.15,14.33,29.05,24.11,42.07,2.95,3.92,6.35,7.41,10.15,10.56,6.06,5.02,12.36,5.22,19.19,1.72,8.44-4.32,15.3-10.64,22-17.13,15.05-14.58,29.49-29.8,44.05-44.86,23.28-24.1,51.9-36.53,84.3-41.91,16.78-2.79,33.56-5.21,50.63-4.56,6.1,.23,12.16,.87,18.17,2.84-.35,.58-.48,1.1-.81,1.3-21.33,12.7-30.12,32.94-33.57,56.24-3.51,23.69,1.82,46.22,9.64,68.36,4.73,13.38,9.49,26.76,13.5,40.84-2.8-2.1-5.56-4.25-8.4-6.3-12.44-8.99-25.05-17.68-40.53-20.67-7.17-1.38-14.34-1.47-21.16,1.67-7.33,3.38-11.77,8.99-12.89,17.14-.91,6.65-.07,13.11,1.47,19.55,1.89,7.89,3.45,15.83,3.19,23.98-1.79,.74-2.66-.69-3.76-1.32-7.73-4.41-15.54-8.63-24.63-9.49-10.16-.96-19.13,4.7-22.81,14.18-1.2,3.1-.38,6,.48,8.95,3.94,13.5,8.63,26.83,9.87,40.95,3.16,35.86-3.08,69.26-26.65,97.78-5.14,6.22-11.19,11.73-17.05,17.32-6.03,5.76-6.88,12.16-3.61,19.6,3.61,8.2,6.08,16.67,5.02,25.8-.12,1.06-.29,2.13-.56,3.16-1.32,5.13-1.76,5.31-6.31,2.71-5.31-3.04-10.74-5.89-15.86-9.23-2.76-1.8-4.15-1.16-5.97,1.16-4.53,5.78-9.2,11.44-14.45,16.6-2.1,2.07-3.25,2.28-5.2-.44-4.89-6.82-9.65-13.7-13.81-21.51-6.21,6.21-12.89,10.96-20.84,13.71-4.89,1.7-5.41,1.4-6.29-3.68-.93-5.35-.62-10.65,.49-15.95,1.48-6.99,.78-7.77-6.04-6.13-8.05,1.94-16.16,3.4-24.39,4.18-11.12,1.04-22.27,1.71-33.45,1.44-4.04-.1-7.85-.99-12.18-3.6,.7,4.74,1.65,8.7,1.27,12.7-.25,2.74-.42,5.49-.9,8.19-1,5.56-1.04,5.48-5.73,2.76-5.82-3.37-11.78-6.51-17.52-10.01-2.29-1.4-3.13-.62-4.16,1.34-3.57,6.82-8.14,12.91-13.49,18.45-1.88,1.95-3.15,2.26-5.1,.03-3.82-4.37-8.06-8.38-11.84-12.78-1.7-1.99-2.84-2.01-4.83-.56-5.61,4.11-11.87,6.93-18.65,8.53-1.85,.44-3.85,1.54-4.61-1.64-.43-1.8-2.27-1.2-3.55-1.13-40.01,2.03-76.93-8.61-110.22-29.99-35.34-22.69-57.99-55.61-69.37-96.01-3.22-11.44-3.52-23.26-.26-34.93,.15-.54,.02-1.16,.02-2.14-3.81,1.42-6.69,4.1-10.42,5-14.04,3.38-14.07-.06-11.64-10.53,6.26-27.04,21.08-49.13,41.23-68.89,1.19,4.61,.39,8.3-.29,11.94-1.04,5.56-2.25,11.09-2.24,16.8,.03,10.42,4.95,17.44,14.94,20.4,12.35,3.67,21.78,12.23,32.45,18.72,1.99,1.21,1.47,2.36-.1,3.43-10.55,7.17-20.22,15.35-28.55,25.03-1.44,1.68-2.48,.92-3.83-.1-5.24-3.98-10.51-7.91-15.82-11.8-2.16-1.59-4.12-3.59-7.2-4.23,.12,5.21,1.53,9.86,3.42,14.36,17.78,42.31,48.15,69.91,93.44,80.3,15.43,3.54,30.86,6.47,46.77,4.6,3.63-.43,7.26-1.1,10.82-1.95,5.86-1.4,5.92-1.6,3.19-6.8-6.99-13.29-12.57-27.17-17.69-41.28-8.93-24.56-12.18-50.13-14.23-75.96-.61-7.63-1.71-15.19-3.32-22.68-6-27.86-35.35-38.17-57.47-20.17-.71,.58-1.41,1.18-2.04,1.84-1.69,1.75-2.75,1.06-2.95-.97-.35-3.49-.56-7.01-.55-10.52,0-6.88,.27-13.76,.3-20.64,.02-4-.78-7.91-1.91-11.74-5.2-17.62-18.23-25.77-36.33-22.89-16.41,2.61-30.62,10.25-44.34,19.04-1.01,.65-2.02,1.3-3.62,2.32,.65-5.91,2.72-10.78,4.55-15.65,3.65-9.73,7.79-19.28,11.4-29.02,8.12-21.91,12.48-44.39,9.97-67.91-1.65-15.51-8.46-27.9-21.23-36.95-.58-.41-1.06-.97-2.04-1.89,7.44-1.65,14.41-1.8,21.35-1.36,30.62,1.93,60.36,8.03,88.34,20.89,21.46,9.86,39.95,24.23,57.2,40.21,12.7,11.76,26.15,22.61,40.1,32.82,6.63,4.85,6.85,4.74,10.36-2.35,17.58-35.53,27.56-72.76,25.91-112.77-.64-15.45-3.84-30.17-8.81-44.79-7.1-20.88-17.55-39.5-32.5-55.81-9.03-9.86-15.89-21.34-20.1-34.19-.61-1.84-1.37-3.16-3.49-3.73-41.74-11.18-70.17-37.46-87.69-76.57-6.55-14.63-11.55-29.59-14.06-45.41-.48-3.04-.61-6.07-.27-10.59Zm155.08,543.38c-3.68-3.81-7.36-7.62-11.05-11.43-.29,.3-.59,.6-.88,.9,3.98,3.51,6.72,8.28,11.62,10.87,1.79,1.53,1.24,3.44,1.13,5.45-.48,8.61-.53,17.16,6.98,24.13,.63-2.42,1.3-4.47,3.98-3.58,1.26,.42,1.58,1.43,.98,2.57-1.89,3.59,.59,4.52,3.21,5.37,2.4,.79,4.68,2.36,7.4,.83,.74-.42,2.23-.45,2.36,.59,.44,3.45,2.34,3.55,5.35,4.72,3.72,1.44,7.84,2.99,11.59,4.38,14.45,5.36,29.56,7.73,45.07,6.22,23.35-2.28,44.79-10.71,65.75-20.6,4.56-2.15,8.73-5.1,12.12-8.95,2.63-2.98,4.33-6.36,4.15-10.66-1.54,.53-1.76,1.66-2.09,2.61-1.97,5.67-6.33,9.26-10.95,12.6-1.69,1.22-3.94,2.33-5.05-.17-1.2-2.69-3.56-3.97-5.25-5.98-1.34-1.6-3.83-3.97,.3-5.51,.57-.21,1.58,.57,1.63-.73,.01-.39-.22-.96-.52-1.17-.8-.55-1.4,.13-1.99,.57-4.97,3.76-10.89,5-16.8,5.43-15.86,1.18-15,4-15.02-14.34,0-3.66-.23-4.37-4.01-3.32-17.02,4.75-34.23,8.1-52.08,5.84-8.97-1.14-17.77-3.06-26.54-5.22-2.07-.51-4.19-1.74-6.22,.81-1.26,1.58-3.29,.75-4.12-1.01-1.92-4.1-6.21-3.34-9.38-4.83-1.31-.62-2,.52-2.12,1.66-.64,5.89-3.78,4.99-7.46,2.83-.64-.38-1.38-.6-2.08-.89ZM486.77,233.54c.06-13.56-2.39-24.19-7.4-34.19-14.01-28.01-46.58-35.3-71.2-15.96-21.29,16.72-28.79,47.4-18.62,72.98,10.15,25.54,49.63,44.25,78.56,19.09,13.35-11.61,17.97-27.18,18.66-41.9Zm129.49,.12c.08-4.15-.34-8.25-1.09-12.32-6.43-34.94-41.8-49.41-70.83-28.97-22.97,16.16-29.47,52.83-13.48,76.04,17.54,25.48,55.54,26.82,74.09,2.31,8.18-10.81,11.39-23.53,11.31-37.05Zm-92.67,499.98c.49-8.89-.22-9.47-8.76-7.23-5.32,1.39-10.62,2.85-15.96,4.12-2.17,.52-4.1,1.01-4.9,3.47-.43,1.32-1.87,2.32-2.74,.94-2.4-3.81-5.23-1.82-7.96-.99-24.32,7.46-48.98,10.26-74.24,5.82-7.67-1.35-15.34-2.83-23.07-3.59-5.94-.58-8.76,3.57-6.75,9.18,2.58,7.19,7.44,12.56,13.98,16.39,9.53,5.58,19.86,8.64,30.86,9.35,25.16,1.61,49.65-2.4,73.86-8.8,2-.53,3.85-1.14,3.45-3.88-.13-.92,.3-1.88,1.39-2.05,.82-.13,1.55,.39,1.79,1.15,.81,2.59,2.27,1.7,3.86,.88,10.07-5.19,15.04-13.49,15.18-24.76Zm-162.33-79.68c.76,2.73,2.64,4.47,4.59,6.02,16.15,12.8,34.83,19.63,55.05,22.02,17.96,2.12,34.77-3.73,51.55-9.09,1.74-.55,2.26-1.87,2.87-3.28,2.11-4.93,4.4-9.83,7.88-13.92,2.14-2.52,3.14-4.63,1.17-7.65-.69-1.05-1.37-2.83,.12-3.68,1.43-.82,2.51,.55,3.39,1.63,1.01,1.24,1.84,2.48,3.52,.58,3.93-4.43,6.97-9.29,8.05-15.19,.65-3.55-.79-5.17-4.52-4.73-5.96,.7-11.75,2.22-17.37,4.18-25.12,8.75-50.61,11.42-76.75,5.34-1.1-.26-3.06-.84-2.95,.85,.19,2.89-2.38,6.08,1.22,8.76,2.28,1.7,1.6,6.17-1,7.31-1.74,.76-2.17,1.83-2.55,3.36-.59,2.37-1.21,4.75-2,7.05-2.26,6.56-3.49,7.08-9.43,3.52-7.51-4.51-16.13-7.05-22.86-13.08Zm72.21-21.26c5.35-.08,10.69-.16,15.98-1.17,13.8-2.63,26.9-7.07,38.53-15.13,4.43-3.07,7.53-7.24,7.81-12.87,.33-6.83-3.94-10.24-10.42-8.43-2.05,.57-4.19,1.15-6.01,2.2-2.3,1.32-5.61,.23-6.98,4.1-1.51,4.26-4.69-.67-7.74,.47-25.23,9.44-50.72,8.21-75.96-.11-5.45-1.8-9.6-.96-14.05,2.07-8.04,5.46-8.24,6.87,.15,11.94,18.01,10.88,37.43,17.17,58.69,16.94Zm-55.12-54.53c-1.33-3.47-1.66-6.62-.22-9.61,1.74-3.6-.89-3.44-2.91-3.63-1.73-.16-2.65,1.23-3.5,2.56-3.71,5.81-2.15,13.01,4.25,17.1,16.4,10.5,34.46,15.75,53.89,15.24,13.17-.35,25.44-4.84,37.16-10.72,.55-.27,1.41-.5,1.54-.93,1.01-3.39,3.1-4.06,6.61-4.22,3.52-.16,8.64-8.61,8.72-12.63,.07-3.49-3.93-9.24-7.69-10.67-2.05-.78-4.58-2.06-5.2,1.79-.17,1.04-.95,1.86-1.92,1.22-6.19-4.07-4.62,1.34-5.16,4.17-.29,1.52,.73,3.72-1.61,4.21-1.94,.41-2.93-1.29-3.88-2.69-.34-.51-.64-1.04-.94-1.57-.87-1.58-1.78-2.74-3.97-1.86-1.97,.79-1.77,2.13-1.61,3.71,.16,1.56,1.23,3.29-.62,4.63-1.68-.72-2.07-2.27-2.2-3.76-.22-2.51-1.01-3.2-3.77-2.79-4.04,.6-7.02,1.6-7.26,6.35-.06,1.17-.31,2.7-1.7,3.13-2.96-1.78-.43-7.05-5.09-7.24-6.08-.25-2.09,6.11-5.34,8.14-1.64-1.23-2.06-3.21-2.37-5.06-.63-3.7-3.37-2.18-5.4-2.37-2.14-.2-2.89,.86-3.01,2.97-.1,1.81,.79,4.79-1.75,5-2.54,.21-2.49-2.97-3.34-4.82-.19-.41-.3-.88-.35-1.33-.21-2.02-1.6-2.33-3.27-2.39-1.77-.06-2.27,.94-2.69,2.45-.53,1.94-.14,4.32-2.41,5.83-1.46-1.47-1.52-3.27-1.63-5.06-.11-1.78,1.12-4-2.25-4.4-3.22-.38-3.22,1.76-3.98,3.75-.75,1.96-1,4.38-3.49,5.84-1.24-2.81-1.55-5.36-1.16-7.92,.38-2.49-.78-3.17-2.94-3.55-2.33-.41-3.32,.41-3.86,2.62-.69,2.86-1.11,5.92-3.66,8.52Zm119.22,194.43c-8.07-.72-15.45,.53-22.81,1.62-23.98,3.54-47.96,5.83-72.05,.92-1.48-.3-3.05-.35-4.56-.24-3.65,.27-5.61,2.13-5.18,6,.66,5.94,3.05,11.17,6.75,15.79,1.12,1.4,2.13,3.19,4.81,1.6,1.38-.82,3.45,.54,2.69,2.82-.6,1.8,.08,2.64,1.52,3.16,2.57,.94,5.14,1.99,7.81,2.55,2.06,.43,4.59,1.26,5.2-2.39,.27-1.62,2.19-1.31,3.54-1.27,1.35,.03,1.99,.93,1.76,2.14-.58,3.06,1.31,3.14,3.48,3.22,12.11,.45,24.05-1.51,36.08-2.29,15.24-1,26.01-8.51,34.5-20.46,1.19-1.68,1.32-2.79,.14-4.42-1.23-1.71-2.48-1.38-3.93-.51-.52,.31-1.06,.61-1.61,.88-1.34,.65-2.65,.91-3.61-.61-.85-1.34-.05-2.28,.84-3.2,1.46-1.51,3.47-2.52,4.63-5.31Zm-37.76-242.19c.57,3.66,2.05,7.1,1.03,10.78-.23,.82-.41,1.92-1.58,1.91-.91-.01-1.13-.93-1.42-1.6-1.05-2.37-1.99-4.8-3.09-7.15-.69-1.49-.45-3.91-3.32-3.44-2.76,.45-2.68,2.31-2.57,4.43,.11,2.13-.02,4.28-.15,6.41-.04,.69-.13,1.69-1.14,1.63-.47-.03-1.08-.59-1.33-1.07-1.29-2.43-2.55-4.88-3.67-7.38-.74-1.64-1.7-2.28-3.57-1.98-2.18,.34-2.13,1.76-2.11,3.35,.04,3.23,.36,6.53-1.69,10.47-1.36-3.76-2.34-6.59-3.4-9.38-.48-1.26-.9-2.99-2.53-2.87-2.04,.14-1.2,2.11-1.41,3.31-.33,1.92-.09,3.96-1.33,5.78-1.81-1.67-1.81-4-1.87-5.98-.1-3.32-2.1-3.1-4.3-3.06-2.15,.04-4.23-.33-4.56,2.96-.3,3.07-.55,6.34-2.81,9.07-2.45-2.34-3.02-5.21-3.28-8.07-.22-2.43-.21-4.38-3.6-4.55-3.7-.18-3.24,2.42-3.67,4.49-.6,2.89-.98,5.85-2.72,8.86-2.85-4.01-3-8.16-3.42-12.19-.23-2.17-1.43-2.68-3.32-2.94-2.17-.3-3.02,.61-3.5,2.55-.9,3.63-1.73,7.3-4.04,11.23-1.56-4.61-1.53-8.65-1.41-12.69,.06-1.88-.2-3.28-2.37-3.74-2.52-.53-2.75,1.38-3.21,2.91-1.17,3.92-2.23,7.89-3.58,12.73-2.19-5.48-1.6-9.99-.84-14.51,.22-1.29,1.1-2.76-.99-3.34-1.57-.44-2.78,.16-3.42,1.56-1.4,3.05-2.67,6.16-4.02,9.23-1.85,4.19-.42,7.25,3.02,9.95,5.67,4.44,12.19,6.99,18.99,8.86,22.39,6.13,44.56,3.84,66.58-2.06,4.15-1.11,7.85-3.36,11.25-6.04,1.86-1.47,2.82-3.33,1.99-5.63-1.72-4.7-4.35-8.89-7.6-12.79Zm-48.54-12.78c-1.77-5.43-1.72-10.26-2.05-15.06-.15-2.25,1.14-5.34-3.22-5.72-3.81-.33-4.96,1.3-5.78,4.63-1.17,4.78-2.98,9.4-4.51,14.09-2.19-4.7-.98-9.21-1-13.69,0-2.2,2.06-5.23-2.27-6.2-4.29-.97-4.18,2.13-5.06,4.62-1.43,4-1.92,8.4-4.89,12.73-1.31-6.66-.19-12.52-.37-19.53-4.46,4.54-4.63,10.19-8.18,14.52-.78-4.23,.28-7.63,1.33-11.06,.32-1.03,1.79-2.19,.43-3.25-1.34-1.04-2.96-.54-4.35,.18-4.49,2.31-6.27,8.97-3.51,13.6,2.15,3.6,5.13,6.48,8.85,8.46,20.49,10.91,42.06,11.68,64.16,6.51,7.72-1.8,14.69-5.19,19.84-11.56,1.61-1.99,2.85-4.15,1.28-6.68-1.58-2.54-3.36-4.95-5.72-8.37,.04,5.5,2.99,9.64,1.22,14.51-4.26-4.5-5.47-10.5-10.1-15.21-.63,7.2,1.23,13.46,.39,19.92-2.09-.93-2.39-2.73-3.04-4.17-1.71-3.75-3.47-7.51-4.74-11.42-.97-3-2.83-3.05-5.3-2.76-2.88,.34-2.21,2.35-2.14,4.11,.1,2.6,.34,5.2,.29,7.79-.06,2.92,.78,6.01-1.49,9.22-3.2-4.74-4.35-9.79-5.54-14.76-.88-3.67-1.7-6.39-6.67-5.95-4.84,.43-3.42,3.89-3.97,6.31-1.04,4.51-1.45,9.18-3.86,14.16Zm209.94-176.03c-2.98-2.24-5.86-.34-8.58,.35-32.87,8.3-66.07,12.73-99.98,8.62-31.85-3.86-59.89-15.66-81.98-39.73-.35-.38-.9-.58-1.96-1.24,3.34,13.79,11.3,23.18,22.75,29.78,17.28,9.97,36.28,14.43,55.86,16.7,37.55,4.35,74.14-.46,109.96-12.07,1.39-.45,3.07-.56,3.94-2.4Zm-232.42,136.83c-1.11-4.36-.23-7.53-.37-10.66-.08-1.66,.94-3.88-1.81-4.49-2.7-.6-2.84,1.63-3.51,3.25-.53,1.27-.89,2.63-1.57,3.81-.79,1.37-1.15,3.92-3.12,3.36-2.04-.58-.69-2.86-.7-4.4-.01-1.02,1.11-2.06-.06-3.07-4.66,7.86-3.41,12.27,4.8,16.02,7.71,3.52,15.89,5.57,24.26,6.56,13.01,1.53,25.96,1.36,38.48-3.32,6.67-2.49,7.72-4.5,5.72-10.92-.64-2.04-1.18-4.12-1.89-6.13-.57-1.63-.6-4.1-3.18-3.69-2.43,.39-1.49,2.68-1.55,4.18-.18,4.99-.25,9.99-1.83,15.89-2.92-5.36-3.35-10.35-4.36-15.18-.31-1.5,.18-4.03-2.18-3.77-1.75,.19-1.25,2.49-1.36,3.94-.3,4.15-.15,8.37-2.05,12.38-2.03-4.35-2.53-8.97-3.04-13.57-.21-1.9-1.13-2.61-3.01-2.56-1.66,.04-2.56,.67-2.72,2.36-.14,1.52-.27,3.06-.6,4.55-.77,3.51-.73,7.28-2.9,11.3-1.71-5.52-2-10.27-2.08-14.99-.05-2.92-1.44-3.14-3.73-3.07-2.68,.08-2.21,1.97-2.36,3.55-.45,4.76-.24,9.66-2.99,15.19-2.24-5.33-2.09-9.88-2.51-14.34-.17-1.75,.73-4.5-2.33-4.62-2.88-.11-1.93,2.57-2.39,4.13-1.01,3.44-.83,7.3-3.52,10.83-1.35-4.69-1.65-8.79-1.68-12.9-.02-1.84-.64-2.86-2.53-3.11-2.23-.29-1.93,1.4-2.22,2.65-.75,3.24-1.06,6.6-3.1,10.87Zm-8.69-38.6c-2.06,1.97-1.96,3.74-2.26,5.27-1.59,8.1,.28,11.1,8.27,12.56,18.14,3.31,36.22,3.06,54.14-1.52,3.54-.9,7.17-1.86,10.15-4.1,2.37-1.78,4.24-4.9,1.59-6.86-3.53-2.6-6.48-5.62-9.85-9.92,0,1.98-.13,2.73,.02,3.41,.66,3.04-1.14,7.92,5.33,6.6,1.65-.34,2.53,1.6,1.42,3.31-1.4,2.15-8.49,1.57-9.47-.8-1.36-3.26-2.51-6.6-4.15-10.98-1.61,5.1-.15,9.54-2.66,14.29-.87-3.84-1.45-6.79-2.24-9.69-.35-1.29,.12-3.52-2.25-3.28-2.03,.21-1.96,2.03-2,3.57-.12,4.16-.14,8.34-1.68,12.99-2.55-3.68-2.7-7.42-3.86-10.8-.58-1.7-.02-4.78-2.68-4.52-2.27,.22-1.4,3.01-1.6,4.7-.37,3.02-.33,6.11-2.01,9.7-1.7-4.24-2.43-7.78-2.91-11.39-.16-1.22-.23-2.61-1.94-2.56-1.67,.05-1.69,1.43-1.89,2.65-.32,1.99-.3,4.1-1.58,6-2.24-2.36-.82-5.74-3.45-8.01-2.21,4.41-.88,9.59-4.03,13.98-2.21-3.64-1.45-7.2-1.75-10.58-.08-.97,.55-2.52-.86-2.73-1.71-.25-1.57,1.51-1.83,2.59-.75,3.04-1.18,6.21-3.95,9.14-1.07-3.13-.71-5.85-.88-8.52-.08-1.31,1.08-3.54-1.25-3.68-1.92-.12-1.91,2.09-2.21,3.5-.69,3.2-.96,6.55-4.44,9.37-.43-4.75-.79-8.82-1.23-13.71Zm166.92,355.51c.74,.21,1.04,.4,1.29,.34,.59-.13,1.17-.32,1.73-.57,6.38-2.8,10.46-7.99,13.42-13.92,24.42-48.89,23.41-98.24,2.31-147.87-.3-.7-.64-1.39-1.04-2.04-.39-.64-.88-1.22-1.33-1.83,22.59,58.17,19.34,113.59-16.37,165.88Zm56.23-128.21c1.28,21.64,1.28,43.21-1.74,64.76-3.07,21.9-12.4,41.26-23.75,59.89,34.62-39.65,45.9-114.62,22.11-145.96,11.28,26.33,12.62,53.21,4.9,80.59,3.4-19.86,5.68-39.7-1.52-59.28Zm-108.51-117.83c.6,1.18,.67,1.52,.89,1.69,.95,.76,1.95,1.47,2.93,2.2,28.93,21.64,41.17,50.96,39.83,86.53-.65,17.33-6.41,33.17-14,48.51-.68,1.37-2.13,2.61-1.47,4.5,1.63-.67,2.29-2.12,3.12-3.37,5.75-8.64,9.29-18.22,11.62-28.25,7.1-30.57,4.41-59.82-12.21-87.06-7.07-11.59-17.03-19.71-30.7-24.74Zm-93.37-129.09c0,1.58,0,2.49,0,3.4,0,2.02,1.27,5.06-1.14,5.62-2.24,.52-2.87-2.62-3.71-4.54-.06-.14-.09-.29-.15-.43-.58-1.3-.38-3.47-2.53-3.21-2.19,.26-1.29,2.38-1.66,3.71-.37,1.34,.38,3.55-1.7,3.64-1.63,.07-1.58-1.93-1.91-3.21-.35-1.37,.22-3.56-1.84-3.57-1.62,0-1.42,2.07-1.82,3.31-.38,1.17-.53,2.64-2.03,2.7-2.12,.09-1.56-1.79-1.85-3.02-.1-.43-.16-.9-.81-.76-1.25,8,.51,10.82,8.61,11.62,15.01,1.48,29.85-.2,45.11-3.41-6.93-3.41-2.64-8.22-2.01-12.74q-6.1,4.88-9.39,2.76c0,1.58,.06,2.93-.02,4.27-.05,.89-.08,2.1-1.13,2.29-1.51,.27-1.33-1.27-1.82-2.12-.99-1.75-.33-4.22-2.29-5.72-2.57,2.19-2.66,5.39-4.23,7.78-1.29,1.97-3.12,2.73-5.09,1.65-1.85-1.02-.8-2.65,.02-3.96,1.01-1.61,1.21-3.22,.41-5.29q-2.27,4.84-7.01-.78Zm84.51-36.1c-1.08-.37-1.58-.61-2.11-.71-4.65-.89-9.3-1.79-13.96-2.61-27.38-4.82-54.14-11.49-78.47-25.67-35.24-20.54-64.99-45.83-76.08-87.02,.13,8.28,5.5,22.41,12.95,33.45,18.55,27.46,42.97,47.85,73.48,60.9,5.7,2.44,11.35,5,17.02,7.51l-.28,.71c-5.76-2.08-11.52-4.16-17.28-6.24,15.03,9.46,58.65,19.47,84.73,19.69Zm-88.53,13.84c.81,4.32-2.53,7.99,1.53,11.12,1.21,.93-.3,1.72-1.25,2.23-4.05,2.18-8.64,.49-10.77-4.04-.59-1.26-.94-2.78-2.74-2.47-1.44,.25-1,1.64-1.2,2.62-.31,1.48,.46,3.83-2.15,3.73-2.03-.08-2.55-1.93-2.82-3.66-.34-2.18-.62-4.36-.93-6.55-.37,.05-.74,.11-1.1,.16,0,2.86,.22,5.75-.05,8.59-.38,3.98,1.37,5.6,5.16,5.76,8.26,.36,16.5-.09,24.73-.55,1.33-.07,2.23,0,1.65-1.98-.52-1.76,.83-2.76,2.64-2.91,1.71-.14,3.16,.17,3.18,2.27,.02,1.37,.58,1.99,1.9,1.86,6.54-.62,13.09-1.18,19.49-2.72,1.29-.31,2.11-1.73,.62-2.02-3.88-.75-7.32-2.5-10.98-3.73-.98-.33-2.12,.11-2.63,1.31-1.87,4.35-3.73,1.86-4.96-.27-1.35-2.36-2.31-5-3.05-7.63-.75-2.66-2.4-2.91-4.52-2.25-2.41,.74-1.05,2.4-.73,3.75,.21,.89,.51,1.76,.76,2.64,.57,2,.98,4.24-1.24,5.26-2.17,.99-3.17-1.17-4.2-2.62-1.74-2.43-2.84-5.35-6.33-7.87Zm55.51-260.99c-4-4.71-9-7.45-14.94-8.59-10.58-2.03-19.5,1.81-27.76,7.88-10.56,7.75-19,17.6-27.14,27.73-.3,.38-.9,.89,.07,1.53,2.37-1.82,4.81-3.64,7.2-5.52,8.51-6.7,16.55-14.01,26.02-19.42,11.59-6.62,23.5-10.23,36.54-3.6ZM139.67,434.46c35.99,8.57,72.51,14.69,106.92,28.77-33.06-19.29-69.45-26.24-106.92-28.77Zm588.04-3.31c-4.23-.88-7.07-.49-9.89-.32-11.47,.69-22.84,2.2-34.12,4.29-18.37,3.41-36.6,7.39-53.42,15.96-4.4,2.24-8.7,4.72-11.87,9.02,34.05-17.08,71.23-22.09,109.3-28.95Zm-164.6-284.89c1.87,1.51,3.28,.87,4.58,.9,13.73,.33,24.76,5.57,32.44,17.31,2.6,3.98,4.67,8.19,6.81,12.4,.9,1.77,1.56,4.78,4.31,3.66,2.99-1.22,1.39-4.03,.6-5.95-3.64-8.9-8.93-16.71-16.83-22.36-9.41-6.73-19.84-8.84-31.91-5.96Zm-59.47,390.35c-26.78-30.74-43.86-65.24-42.2-107.22-6.05,43.73,13.89,77.19,42.2,107.22Zm102.89-451.95c-.27,.83-.38,.99-.35,1.11,.31,1.18,.66,2.34,.96,3.52,3.99,15.49,8.54,30.89,5.99,47.22-.31,1.96-1.47,4.98,1.28,5.5,2.98,.56,3.68-2.6,4.23-4.95,.34-1.46,.27-3.03,.28-4.55,.03-5.37-1.02-10.61-2-15.85-2.04-10.94-4.49-21.75-10.4-32ZM415.43,24.55c-.07,21.19,20.37,65.39,34.07,73.43-8.37-11.32-15.76-22.52-20.9-35-5.08-12.33-8.42-25.28-13.17-38.43Zm-116.32,565.4c-8.49,2.8-23.89,32.81-21.48,42.12,7.31-14.34,14.2-27.83,21.48-42.12Zm44.11,51.43c-1.1-29.6,.47-59,8.9-87.7-10.79,28.39-11.99,57.78-8.9,87.7ZM511.07,48.23c7.29,23.19,14.25,46.45,12.45,71.43,.75-.15,1.5-.29,2.26-.44,2.17-25.02-6.4-47.98-14.71-70.99Zm163.11,249.58c-5.55,23.34-15.7,44.42-31.09,62.91,18.3-17.06,27.5-38.61,31.09-62.91ZM184.23,677.48c-4.41-3.68-9.36-5.63-14.51-7.1-8.23-2.35-12.64-8.01-14.53-16.09-1.06-4.55-.89-9.09-.41-13.67,.46-4.38,.9-8.77,1.36-13.15-2.16,6.84-3.97,13.76-4.2,20.86-.29,9.19,3.14,17.16,11.41,21.48,6.52,3.4,13.89,5.17,20.88,7.67ZM322.76,75.31c-4.43-8.8-7.46-18.03-9.93-27.45-1.31-5.01-2.47-10.06-3.75-15.08-.21-.82-.37-2.03-1.58-1.83-1.23,.2-1.01,1.44-.87,2.24,.52,3.16,1.01,6.33,1.8,9.42,2.98,11.69,6.25,23.27,14.33,32.7Zm201.78-1.76c4.16,15.68,5.06,31.71,6.65,47.65,.13,1.32-.07,3.16,2.54,3.94-.58-17.88-3.37-35.02-9.19-51.59Zm58.69,534.23c.04-5.64-2.88-9.56-6.89-12.88-.58-.48-1.29-1.03-2.05-.62-.98,.53-.7,1.57-.62,2.44,.46,4.69,2.42,8.75,5.4,12.32,.81,.97,1.57,2.61,3.22,1.89,1.33-.58,.76-2.13,.94-3.16Zm-313.48,196.63c-1.61,.56-1.14,1.95-1.46,3.06-2.06,7.27,1.98,15.08-2.03,22.21-.5,.89-.24,2.56,1.27,3.03,.98,.3,2.2,.63,3.09,.31,1.6-.58,.66-2.08,.6-3.19-.17-3.04-.97-6.16-.54-9.1,.64-4.39-2.84-8.9,.63-13.22,.62-.77,.34-2.77-1.55-3.09Zm296.99-262.96c-1.03,.01-1.18,.64-1.17,1.51,.06,2.93,7.52,13.76,10.29,14.85,1.59,.62,3.12,.37,2.52-1.65-1.82-6.07-5.87-10.61-10.77-14.44-.22-.17-.57-.19-.87-.27Zm-277.24-13.27c-.68-1.65-2.27-1.41-3.7-1.01-4.69,1.28-8.59,3.92-11.97,7.33-.81,.82-2.03,1.83-1.08,3.11,.73,.99,2.04,.42,3,.07,4.32-1.59,8.34-3.79,12-6.59,.84-.65,1.68-1.36,1.76-2.91Zm-138.47,160.02c-3.04-3.13-6.55-4.24-10.65-2.48-5.45,2.34-10.88,4.71-16.33,7.05-.93,.4-2.62,.29-2.4,1.57,.29,1.65,2.04,1.61,3.39,1.39,4-.67,7.41-2.84,10.71-4.93,4.77-3.01,9.52-4.73,15.27-2.6Zm154.56-128.77c.43,1.09-.68,3.2,1.16,3.76,1.73,.52,2.51-1.37,3.24-2.65,1.75-3.09,2.67-6.47,3.2-9.95,.22-1.47,.59-3.38-1.29-3.93-1.79-.52-2.63,1.19-3.39,2.49-1.81,3.08-2.69,6.45-2.91,10.29Zm277.44-15.48c-2.32-.08-1.92,1.36-1.5,2.44,1.28,3.31,3.37,6.14,5.77,8.7,1.5,1.6,3.45,4.64,5.34,3.26,2.39-1.75-.07-4.47-1.35-6.36-2.2-3.26-4.58-6.46-8.26-8.04Zm-364.91-35.69c3.98-.75,7.93-2.54,11.16-5.71,.5-.49,.95-1.35,.88-1.98-.08-.78-.96-1.12-1.78-1.03-4.58,.52-8.98,1.5-12.3,5.04-.7,.74-1.51,1.62-.81,2.8,.54,.91,1.47,.95,2.85,.87Zm71.41,43.44c5.09-2.54,8.32-6.64,10.77-11.43,.46-.91,1.13-2,0-2.89-1.17-.93-2.37-.42-3.32,.38-4.3,3.62-7,8.15-7.45,13.94Zm-56.41,36.37c.02,.57-.3,1.69,.58,2.21,1.12,.67,2.03-.2,2.77-.97,2.81-2.91,4.67-6.38,5.88-10.2,.21-.64,.17-1.62-.19-2.13-.65-.91-1.64-.35-2.47-.02-3.46,1.37-6.52,6.4-6.58,11.1Zm84.41-49.72c.21,1.35-.35,2.89,.99,3.84,.72,.51,1.5,.1,1.98-.55,2.6-3.53,4.25-7.41,4.14-11.87-.02-.89-.26-1.9-1.29-2.23-1.04-.33-1.74,.39-2.32,1.1-2.3,2.84-3.21,6.19-3.5,9.72Zm-50.58-22.94c5.42,.13,10.13-1.59,14.15-5.19,.56-.5,.94-1.24,.65-2.04-.31-.88-1.11-.94-1.86-.8-5.29,1.02-9.82,3.3-12.94,8.03Zm168.5-83.7c2.32-1.28,5.51-.14,5.64-2.67,.12-2.28,1.04-3.39,2.21-4.99,1.41-1.93,.82-4.14-1.46-5.36-2.46-1.32-2.24,1.26-2.87,2.28-1.85,2.98-2.88,6.29-3.51,10.73Zm194.45,147.24c-.78-3.43-2.5-6.71-5.47-9.25-.7-.6-1.71-1.04-2.45-.4-.43,.37-.51,1.4-.4,2.08,.57,3.72,2.63,6.68,5.01,9.45,.58,.68,1.35,1.3,2.36,.82,.99-.47,.96-1.43,.96-2.71Zm-410.55-28.36c-.2,1.58-.42,2.76,.47,3.14,.67,.28,1.83-.03,2.53-.47,2.47-1.56,4.43-3.68,5.97-6.16,.49-.79,.79-1.72,.19-2.57-.7-.99-1.8-1.16-2.86-.81-3.65,1.2-5.77,3.75-6.3,6.88Zm58.75,3.04c-3.42,.08-8.14,3.7-8.29,6.24-.1,1.65,.84,2.01,2.26,2.01,3.27,0,9.3-4.25,9.02-6.5-.23-1.93-1.87-1.57-2.99-1.75Zm10.74,26.87c4.7-2.92,7.22-6.39,9.39-10.16,.53-.93,.74-2.15-.34-2.87-1.17-.77-2.35-.29-3.32,.56-3.48,3.04-4.87,7.03-5.72,12.48Zm374.74-305.86c-2.44-5.32-5.69-6.62-8.95-4.34-5.17,3.62-7.6,9.13-9.65,14.81,2.71-2.94,4.99-6.17,7.5-9.22,2.7-3.28,5.83-5.47,11.09-1.25Zm-18.48,340.87c-.94-5.71-2.99-9.46-6.44-12.46-.95-.83-2.08-1.6-3.29-.81-1.4,.92-.62,2.23-.04,3.24,2.22,3.83,4.99,7.16,9.76,10.04Zm-447.76-120.42c2.96-1.26,5.48-3.4,7.38-6.24,.48-.73,.96-1.64,.36-2.56-.71-1.07-1.84-.92-2.9-.81-3.25,.34-6.55,3.98-6.59,7.24-.01,1.1-.03,2.2,1.75,2.37Zm472.06,.71c.1-2.73-2.97-5.93-5.79-5.93-1.77,0-3.38,.39-3.53,2.61-.14,2.12,4.2,5.77,6.77,5.75,1.61-.02,2.59-.68,2.55-2.42Zm-406.33,120.4c3.84-2.29,6.2-5.08,7.8-8.55,.47-1.02,1.33-2.3,.08-3.32-1.28-1.04-2.66-.48-3.72,.43-3.29,2.84-4.34,6.55-4.16,11.43Zm363.77-76.67c-1.78,.09-2.85,.9-2.83,2.82,.04,2.55,3.66,5.96,6.18,5.75,1.65-.14,2.98-.77,2.9-2.77-.11-2.59-3.69-5.89-6.25-5.8Zm-304.43,20.16c-.29-.24-.58-.47-.87-.71-6.96,8.08-13.97,16.13-19.11,25.54l.9,.66c6.36-8.5,12.72-17,19.09-25.5Zm274,64.9c-.18-2.46-1.99-4.97-4.89-6.76-.64-.4-1.41-.76-2.13-.26-.76,.52-.55,1.33-.38,2.08,.61,2.72,1.7,5.23,3.37,7.46,.74,.99,1.58,2.03,3.02,1.27,1.09-.57,1.26-1.64,1.01-3.79Zm-27.89-35.06c-1.24-3.77-4.76-5.46-7.84-7.57-.85-.58-2.1-1-2.86,.11-.7,1.02-.07,2.2,.67,2.88,2.44,2.25,4.93,4.47,7.59,6.45,1.79,1.33,2.34,0,2.43-1.87Zm-398.75-104.65c.04,.93-.53,2.4,1.48,2.4,1.82,0,6.54-5.29,6.8-7.49,.19-1.59-.62-2.23-2.02-2.38-2.76-.3-5.97,3.46-6.26,7.47Zm108.09,37.2c2.7-.45,5.4-1.45,7.87-3.04,.91-.59,1.81-1.37,1.4-2.6-.38-1.12-1.43-1.55-2.57-1.53-3.6,.07-6.53,1.65-8.65,4.43-1.43,1.88-.28,2.73,1.95,2.74Zm-60.42-.53c2.45-.02,6.69-.94,8.16-1.75,1.08-.59,2.41-1.21,2.16-2.64-.28-1.61-1.84-1.31-3-1.32-2.8,0-5.42,.87-7.97,1.91-1.21,.49-3.04,.99-2.72,2.61,.35,1.74,2.27,.94,3.37,1.18Zm400.77,14.34c.14-2.23-4.26-6.5-7.02-6.56-1.31-.03-2.38,.22-2.54,1.85-.22,2.31,4.01,6.34,7.1,6.7,1.39,.17,2.42-.08,2.45-1.99ZM360.79,271.37c12.04-2.39,21.32,1.79,28.37,12.51-1.6-10.27-15.7-17.69-28.37-12.51Zm235.22,316.83c-.13-2.94-1.29-5.55-3.12-7.88-.8-1.02-1.87-1.72-3.18-1.03-1.26,.66-.75,1.83-.5,2.84,.66,2.72,2.07,5.06,3.78,7.23,.55,.7,1.12,1.62,2.19,1.26,1.15-.39,.66-1.53,.83-2.43Zm44.87-93.67c-.61-2.55-1.94-4.9-5.12-5.24-1.86-.2-2.8,1.31-2.71,2.98,.18,3.18,2.18,4.94,5.22,5.42,2.09,.33,2.6-1.08,2.61-3.15Zm-297.76-167.88c7.82,10.36,21.02,20.9,27.52,21.74-10.31-6.48-19.32-13.61-27.52-21.74Zm377.07,244.77c-.13-5.4-2.29-8.79-5.57-11.64-.69-.6-1.61-1.16-2.45-.55-.88,.63-.51,1.67-.16,2.5,1.58,3.64,3.64,6.91,8.17,9.69Zm-73.53-93.33c-1.97,.08-3.32,.9-3.1,2.73,.39,3.32,2.99,4.75,5.81,5.56,1.65,.47,2.68-.75,2.47-2.35-.41-3.13-2.26-5.15-5.18-5.95Zm-297.32-189.03c6.32,9.81,19.4,10.01,24.46,1.05-7.99,6.15-15.88,6.29-24.46-1.05Zm-107.94,306.96c-.05-.85-.97-1.09-2.16-.98-3.02,.28-7.23,5.82-6.68,8.82,.18,.97,.55,1.73,1.77,1.46,1.19-.27,7.1-7.52,7.08-9.3Zm393.12-9.01c-1.11-.05-1.09,1.32-.83,2.5,.75,3.37,3.27,5.39,5.93,7.22,.88,.6,1.72,.48,2.01-.8,.53-2.34-3.95-8.67-7.11-8.92Zm-445.88,214.15c4.31-7.02,7.94-13.09,12.21-18.76-6.68,4.22-12.59,12.98-12.21,18.76Zm-28.69-289.2c2.13,.04,6.78-5.58,6.3-7.62-.2-.84-.74-1.31-1.59-1.32-2.02-.03-3.44,1.09-4.51,2.63-1.13,1.62-2.04,3.4-1.62,5.47,.12,.58,.71,.94,1.42,.83Zm436.89,22.34c-.95-2.95-3.38-4.49-6.16-5.45-1.34-.47-2.07,.71-1.68,1.9,.94,2.89,1.99,6.05,5.28,6.87,1.61,.4,2.35-1.54,2.56-3.31Zm-378.02,74.13c2.75-1.86,4.5-4.62,5.39-7.93,.23-.87,.24-2.12-.97-2.13-3.46-.04-4.3,2.88-5.44,5.31-.44,.94-.64,2.04-.75,3.08-.09,.98,.29,1.81,1.77,1.68Zm476.22-70.55c-.95-2.8-2.71-5.18-5.28-6.95-.66-.46-1.46-.54-2.13-.07-.87,.62-.85,1.54-.49,2.44,1.11,2.78,3.07,4.85,5.66,6.23,1.3,.69,2.39,.37,2.23-1.66Zm-55.09,37.7c-.54-2.34-1.22-4.97-2.81-7.26-.51-.74-1.16-1.59-2.2-1.18-.84,.33-.64,1.27-.57,1.99,.29,2.73,.98,5.36,2.22,7.81,.46,.91,1.01,2.1,2.3,1.71,1.29-.39,1.02-1.68,1.05-3.07Zm-282.36,93.33c-1.86-7.3-3.77-14.59-5.87-21.84-.13,7.85,2,15.07,5.87,21.84Zm-72.52-97.6c-.21-1.1,.08-2.78-1.74-2.48-2.8,.46-3.91,2.66-4.1,5.22-.11,1.57,.62,3.46,2.33,3.29,3.52-.36,2.86-3.64,3.51-6.03Zm-83.26-23.86c-.27-1.13-1.17-1.44-2.1-1.24-3.32,.7-5.25,2.87-5.93,6.13-.19,.9-.02,1.87,1.21,2.05,1.29,.19,6.97-5.62,6.82-6.94Zm87.13-40.76c1.92-.19,4.79,.05,4.81-2.26,.01-2.65-2.98-1.66-4.76-1.96-.58-.1-1.23-.04-1.81,.1-1.38,.32-3.7-.39-3.82,1.45-.13,1.94,2.22,2.06,3.76,2.51,.57,.17,1.2,.12,1.82,.17Zm-109.26,11.12c-2.46,.12-5.62,3.28-5.75,5.63-.05,.94,.23,1.41,1.17,1.46,1.87,.09,7.29-4.3,7.03-5.75-.25-1.4-1.39-1.34-2.45-1.34Zm397.95,11.75c-1.51,.09-3.08,.57-2.48,2.02,1.24,2.97,4.27,3.61,7.09,4.19,1,.2,1.86-.53,1.42-1.66-1.09-2.8-3.26-4.25-6.03-4.54Zm-274.52,278.1c-.03-1.17,.37-2.53-1.15-2.7-1.72-.19-2.45,1.17-2.64,2.57-.53,3.9,1.7,7.35,2.03,11.14,.02,.27,.63,.67,.97,.68,.75,.02,1.21-.86,1-1.23-2.06-3.53-1.13-7.06-.2-10.46Zm-109.83-321.24c-.07-.14-.18-.71-.47-.82-1.91-.73-3.6-.14-4.98,1.23-1.6,1.58-2.29,3.53-1.77,5.77,.06,.25,.71,.5,1.1,.51,1.44,.05,6.06-4.84,6.13-6.69Zm-10.55,16.33c-2.87,.58-4.33,2.45-4.5,5.36-.07,1.19,.42,2.38,1.82,1.77,2.41-1.05,4.53-2.7,5.21-5.35,.46-1.8-1.27-1.62-2.52-1.78ZM253.65,119.59c-.46-2.22-1.63-3.9-4.09-4.22-1.72-.22-3.36,.45-3.21,2.32,.2,2.63,2.73,3,4.71,3.67,1.41,.47,2.36-.13,2.59-1.77Zm72.25,421.72c-.08,1.18-.41,2.16,.49,2.76,.25,.17,.87-.03,1.24-.21,1.31-.66,5.22-7.97,4.87-8.99-.24-.7-.76-.98-1.38-.72-3.26,1.41-4.33,4.38-5.22,7.16Zm-65.38-33.07c-.7-1.6-2.01-1.82-3.43-1.63-2.48,.32-4.47,1.55-4.89,4.09-.21,1.29,1.33,1.58,2.38,1.29,2.31-.63,4.78-1.12,5.93-3.75Zm378.41,24.35c-1.19,.17-2.47,.59-2.22,1.85,.6,2.98,3.23,3.86,5.71,4.61,1.59,.48,1.77-.73,1.51-1.92-.59-2.72-2.37-4.14-5.01-4.54Zm-445.28-56.37c-.57-1.84-2.11-2.26-3.61-2.22-2.35,.06-3.51,1.64-3.8,3.84-.19,1.42,.31,2.58,1.98,2.23,2.28-.48,4.25-1.58,5.43-3.85ZM498.34,102.21c2.13-.23,3.02-1.67,3.13-3.68,.11-1.84-.88-2.94-2.69-2.8-2.05,.15-3.37,1.38-3.36,3.53,0,1.76,1.12,2.7,2.92,2.95Zm113.38,443.51c-.44-2.39-2.14-3.6-4.4-3.8-1.44-.13-2.82,.69-2.61,2.42,.29,2.29,2.05,3.25,4.13,3.55,1.52,.21,2.69-.33,2.87-2.17Zm-32.04-39.48c.17-1.95-.93-2.86-2.67-2.84-1.98,.02-3.69,.98-3.87,3.06-.17,1.94,1.36,2.98,3.17,3.15,2.34,.22,3.1-1.39,3.37-3.36Zm-358.37,61.94c-3.44,2.59-4.3,5.71-4.77,9-.12,.83-.28,1.98,.96,2.18,1.08,.17,1.59-.76,1.94-1.59,1.16-2.78,2.29-5.58,1.87-9.59Zm152.91,30.58c-2.51-.8-4.51-2.75-6.05-1.04-2.05,2.28-2.55,5.36-1.4,8.51,.97-3.68,3.86-5.38,7.45-7.47Zm274.62-82.11c-1.96,.12-1.75,1.51-1.63,2.65,.24,2.3,.72,4.73,3.6,4.83,1.67,.05,2.06-1.67,1.78-3.05-.43-2.14-1.43-3.95-3.76-4.43Zm-61.25,50.18c-1.67,.28-1.96,1.5-1.72,2.74,.41,2.08,.94,4.5,3.54,4.61,1.62,.07,2.01-1.69,1.69-3.13-.44-1.97-1.2-3.8-3.51-4.21ZM336.77,145.48c-1.87,.12-2.52,1.36-2.53,3.07,0,1.94,.95,3.26,2.92,3.38,1.94,.11,2.67-1.14,2.5-2.95-.17-1.77-.69-3.3-2.9-3.5Zm-129.14,376.93c-.13-1.51-1.14-2.02-2.22-1.8-2.67,.54-4.8,2.01-5.53,4.74-.28,1.03,.9,1.49,1.87,1.33,2.69-.44,4.75-1.79,5.88-4.28Zm416.53,7.08c-.43-2.33-1.64-4.01-4.03-4.31-1.41-.18-2.34,.78-2.12,2.25,.35,2.31,1.83,3.91,4.04,4.35,1.33,.26,2.14-.87,2.11-2.29Zm-60.59-9.25c-1.74,.07-2.52,1.07-2.44,2.67,.11,2.21,1.44,3.27,3.6,3.29,1.41,.02,3.01,.06,2.75-2.02-.28-2.23-1.8-3.41-3.91-3.94Zm-50.72,248.25c-4.77-.24-8.7,1.81-13.58,3.94,5.96,1.1,10.08-.54,13.58-3.94Zm178.8-252.49c-.53-1.81-.18-4.47-2.91-4.95-2.08-.36-1.86,1.61-1.75,2.86,.18,2.18,.75,4.53,3.2,4.97,1.78,.32,1.27-1.6,1.46-2.89Zm-390.38,40.14c-.11-1.29,.23-3.04-1.6-2.67-2.47,.49-3.08,2.71-3.14,4.9-.05,1.44,.06,3.75,1.98,3.3,2.64-.61,2.03-3.65,2.77-5.52Zm-41.92-60.29c-.1-.98-.8-1.2-1.59-1.19-2.62,.03-4.7,1.08-5.93,3.44-.4,.77-.66,1.75,.59,2.19,1.41,.49,6.95-3.06,6.93-4.44Zm96.92,337.14c.06,6.28,2.45,11.81,5.98,16.93-1.66-5.74-3.97-11.25-5.98-16.93Zm310.93-351.68c-1.09-1.9-2.94-2.77-5.11-2.94-1.44-.11-2.41,.76-1.95,2.23,.76,2.41,2.85,2.88,5.06,2.74,1.04-.07,2.1-.44,2-2.03Zm-400.29,70.1c1.9-.75,4.05-1.66,4.14-4.08,.06-1.68-1.7-1.89-3.11-1.73-2.12,.25-3.19,1.61-3.33,3.66-.1,1.46,.6,2.28,2.3,2.14Zm321.55,44.49c-.06-2.61-3.49-7.45-4.82-7.14-.97,.23-.91,1.06-.9,1.83,.02,2.5,3.19,6.97,4.75,6.68,1.01-.19,.97-.99,.97-1.37ZM252.94,230.79c-1.52,.39-2.65,1.23-2.38,2.83,.32,1.9,1.41,3.5,3.58,3.31,1.51-.13,2.39-1.37,2.07-2.95-.36-1.73-1.38-2.98-3.27-3.19Zm20.89,296.3c.01-1.28-.67-1.83-1.7-1.69-2.27,.3-4.67,.7-5.25,3.41-.29,1.37,1.07,1.68,2.14,1.59,2.23-.19,3.99-1.18,4.82-3.31Zm345.45,79.68c-.57-1.98-2.04-3.41-4.31-3.89-1.18-.25-2.39,.25-2.16,1.59,.44,2.56,2.43,3.76,4.81,4.23,1.08,.21,1.68-.48,1.66-1.92Zm-73.86-70.14c-.43-1.82-1.37-3.27-3.49-3.44-1.67-.14-2.64,.79-2.45,2.42,.25,2.1,1.82,3.02,3.76,3.23,1.46,.16,2.25-.59,2.18-2.2ZM299.34,168.9c-.49-1.72-1.74-2.65-3.56-2.65-1.43,0-2.8,.55-2.74,2.26,.06,1.73,1.35,2.67,2.94,2.86,1.67,.2,2.84-.64,3.36-2.48Zm26.56-32.31c-.37-1.69,.03-4.13-2.66-4.33-1.71-.13-2.08,1.46-2.03,2.89,.07,1.89,.61,3.81,2.61,4.26,1.89,.43,1.96-1.31,2.08-2.82Zm-161.32,395.59c1.9-1.56,3.5-3.54,3.84-6.24,.12-.94-.65-2.13-1.6-1.6-2.41,1.35-3.43,3.75-3.68,6.45-.07,.77,.11,1.56,1.44,1.39Zm38.11,260.71c-.3,.16-.79,.27-1.07,.58-2.01,2.14-1.93,5.75-5.04,7.17-.05,.02,.19,1.15,.54,1.51,.86,.88,1.89,.4,2.23-.44,1.05-2.54,2.9-4.52,4.42-6.72,.69-1,.79-2.05-1.09-2.09Zm28.84,23.6c.13-1.62-2.23-3.66,.72-4.83,1.14-.45,1.47-1.65,.44-2.59-.74-.68-1.85-1.57-2.65-1.44-1.3,.21-.88,1.68-.9,2.7-.02,.75,.17,1.57-.06,2.24-1.07,3.1-1.11,3.09,2.45,3.92ZM353.24,146.52c1.44-.28,2.17-1.14,1.92-2.54-.32-1.75-1.32-3.16-3.2-3.25-1.7-.08-2.31,1.22-2.11,2.76,.25,1.93,1.69,2.66,3.39,3.03Zm215.53,424.11c-.64-2.07-1.74-4-4.3-4.54-1.15-.24-2.39,.08-2.14,1.51,.48,2.74,2.74,3.85,5.09,4.59,.84,.27,1.36-.42,1.35-1.57Zm-182.11,241.36c5.67,1.17,11.23,2.72,16.78,4.32-5.18-3.01-10.44-5.73-16.78-4.32Zm-86.41,13.9c-.06,.73-.15,1.19-.12,1.64,.07,1.13-.48,2.77,1.2,2.95,1.76,.18,1.5-1.49,1.65-2.63,.06-.45,.09-.91,.07-1.36-.07-1.96,1.38-5.19-1.41-5.32-2.24-.11-.7,3.31-1.39,4.73Zm-115.5-367.96c-3.87-.36-5.37,1.95-6.38,4.76-.22,.6-.06,1.7,.36,2.08,.62,.56,1.43-.03,1.93-.63,1.52-1.81,3.37-3.43,4.09-6.21ZM515.32,98.7c.04-1.68-.38-3.21-2.23-3.35-1.99-.14-2.36,1.58-2.43,3.09-.07,1.56,.38,3.21,2.22,3.34,2,.14,2.17-1.64,2.44-3.08Zm-79.34,299.15c-1.42,.92-1.27,2.53-1.44,3.9-.37,2.91,2.45,2,3.75,2.9,.69,.47,1.57-.19,1.32-1.11-.58-2.14-.98-4.46-3.63-5.68Zm8.26,12.28c4.42,1.24,7.36-1.15,6.59-4.67-.11-.52-.51-1.17-.96-1.39-.7-.34-1.01,.38-1.25,.91-.88,1.96-1.96,3.76-4.39,5.14Zm-234.67,66.08c.18-1.36-.32-2.17-1.4-2.07-3.01,.26-3.79,2.61-4.3,5.05-.14,.69-.07,1.84,.91,1.65,2.62-.52,3.87-2.61,4.79-4.63Zm-68.37,80.09c2.43-2.09,3.56-4.21,4.72-6.27,.48-.86,1.05-2.16-.08-2.85-1.35-.83-2.25,.33-2.87,1.35-1.32,2.18-2.3,4.48-1.77,7.77Zm296.56,269.14c1.11-.64,3.75,.81,3.64-1.74-.08-1.86-2.28-2.19-4-2.17-1.43,.02-3.43-.36-3.32,1.92,.1,2.04,1.94,1.98,3.68,1.99Zm115.22-258.56c-.87-1.98-1.78-4.22-4.28-4.77-1.34-.29-1.76,1.04-1.63,2.17,.31,2.63,2.12,4,4.5,4.54,1.2,.27,1.47-.75,1.4-1.94Zm-333.58-73.89c2.18-.12,4.45-.31,5.2-2.72,.44-1.4-.97-1.77-2.04-1.54-2.15,.47-4.84,.56-5.52,3.13-.37,1.39,1.46,.94,2.36,1.13Zm27.49-9.72c-1.6,.56-3.92,.5-3.88,2.98,.03,1.43,1.51,1.9,2.8,1.71,1.65-.24,3.57-.59,3.66-2.74,.06-1.39-1.03-2.13-2.58-1.96Zm22.03,6.15c-1.39,.28-3.28,.21-3.09,2.38,.15,1.71,1.74,1.97,3.16,1.88,1.55-.1,3.5-.5,3.55-2.2,.06-2.03-2.15-1.62-3.62-2.06Zm181.69-68.17c-2.2,1.16-2.62,2.87-2.76,4.49-.15,1.65-4.03,.64-2.24,2.68,1.28,1.46,3.19-.73,4.74-1.46,4.02-1.9-.25-3.59,.26-5.71Zm-292.27,78.89c2.04-.53,2.64-2.28,3.12-4.03,.35-1.3-.4-2.08-1.68-2.1-1.77-.03-2.88,.91-3.05,2.7-.13,1.37-.16,2.77,1.61,3.43Zm287.45,315.07c-3.26-1.33-5.88-.1-8.46,.12-1.25,.1-1.37,1.45-1.27,2.57,.07,.81,.46,.91,1.19,.57,2.57-1.17,5.75-.61,8.54-3.26ZM314.33,180.58c-.36-1.6-1.37-2.85-3.34-2.71-1.53,.11-2.58,1.06-2.26,2.73,.32,1.63,1.47,2.68,3.15,2.75,1.61,.06,2.51-.83,2.44-2.77Zm216.53-44.97c-1.97,.53-2.21,2.23-2.25,3.86-.03,1.29-.04,3.06,1.91,2.93,2.14-.15,2.33-2.12,2.53-3.73,.19-1.5-.58-2.59-2.19-3.05ZM182.7,487.4c-.03-1.09-.53-1.75-1.41-1.45-2.48,.84-4.01,2.74-4.82,5.15-.28,.82,.27,1.58,1.27,1.2,2.4-.92,4.01-2.69,4.96-4.89Zm495.25,65.88c-.31-1.83-1.91-2.29-3.55-2.53-1.16-.17-2.82-.27-2.86,1.27-.04,1.79,1.29,2.98,3.18,3.14,1.35,.12,2.76,.16,3.23-1.88Zm-436.45,6.22c.05-1.32-.62-1.91-1.66-1.84-2.58,.18-3.65,1.93-4,4.24-.13,.86-.2,2.25,1.01,2.04,2.46-.44,3.6-2.55,4.66-4.44Zm-11.05,15.19c.23,.93-.14,2.86,1.23,2.26,2.39-1.03,2.63-3.8,3.22-6.1,.21-.81-.24-1.75-1.1-1.49-2.6,.77-3.01,3.07-3.34,5.33ZM423.65,117.34c1.78-.17,2.81-1.18,2.9-2.91,.08-1.53-.69-2.68-2.34-2.78-1.89-.11-2.72,1.11-2.83,2.82-.1,1.57,.67,2.57,2.26,2.87Zm284.06,427.59c-.77-2.02-1.62-4.02-4.19-4.26-1-.09-1.96,.34-1.65,1.54,.57,2.23,2.09,3.73,4.3,4.34,1.18,.33,1.62-.48,1.54-1.62ZM502.05,113.31c-.09-.91-.25-2.12-1.82-2.3-1.79-.2-2.93,.72-3.26,2.41-.31,1.56,.43,2.73,2.04,2.94,1.92,.25,2.63-1.07,3.04-3.05Zm-218.24,42.86c-.35-1.71-1.64-2.48-3.18-2.67-1.63-.2-2.56,.85-2.56,2.41,0,1.78,1.1,2.78,2.89,2.64,1.39-.11,2.6-.7,2.85-2.38Zm218.65-26.66c0-1.71-.86-2.75-2.47-2.71-1.57,.04-2.45,1.16-2.56,2.72-.11,1.49,.18,2.91,2.07,2.86,1.75-.05,2.73-1.17,2.96-2.86Zm-175.58,632.52c-1.23-1.7-.81-4.75-3.67-5.48-.89-.23-1.87,.9-1.48,1.76,.9,1.97,1.36,4.42,3.76,5.27,.79,.28,1.34-.43,1.39-1.55Zm286.75-249.28c-1.12-.01-2.27,.05-2.16,1.27,.23,2.47,2.01,3.67,4.25,4.11,.87,.17,2.21-.21,2.02-1.26-.4-2.26-1.94-3.7-4.12-4.12Zm-18.7,97.98c-1.29,.39-1.3,1.42-1.03,2.23,.71,2.09,1.14,4.59,3.83,5.05,.93,.16,.93-1.1,.65-1.77-.82-2.03-1.02-4.5-3.45-5.51Zm-337.96-82.51c-1.84,.27-2.65,1.41-2.45,3.18,.13,1.19,.34,2.76,1.9,2.63,2.34-.2,2.52-2.38,2.74-4.11,.18-1.37-1.06-1.63-2.19-1.69Zm.02,60.01c2.35-1.38,4.51-2.9,4.53-6.03,0-.84-.91-1.37-1.66-.89-2.3,1.46-3.63,3.53-3.31,6.39,.01,.12,.18,.22,.44,.53Zm-12.18,213.48c-.44,.02-.88,.04-1.33,.06-.26,2.68-.55,5.35-.78,8.03-.07,.77,.09,1.56,1.04,1.74,.96,.18,1.38-.47,1.52-1.26,.52-2.93,.71-5.83-.46-8.57Zm-76.73-336.44c.22,1.09-.57,2.88,1.27,2.78,1.75-.1,2.81-1.64,3.19-3.34,.29-1.33-.39-2.57-1.7-2.73-2.37-.29-2.23,1.86-2.76,3.29ZM553.78,96.14c.14-1.38-.27-2.39-1.57-2.5-1.79-.14-2.9,.87-3.16,2.62-.2,1.35,.28,2.6,1.79,2.65,1.83,.06,2.59-1.32,2.93-2.78Zm-66.12,48.44c1.8-.21,2.76-1.36,3-3.22,.19-1.49-.51-2.38-1.98-2.35-1.91,.05-3.09,1.14-3.23,3.07-.11,1.4,.67,2.24,2.22,2.51Zm-180.24,555.89c-1.75,.75-1.56,2.41-1.8,3.79-.21,1.2-.93,2.99,1.16,3.12,1.29,.08,2.74-.66,2.57-2.49-.15-1.64-.31-3.32-1.93-4.42ZM419.74,86.67c-.44-1.65-1.69-2.41-3.32-2.48-1.38-.05-2.46,.74-2.4,2.16,.09,1.88,1.59,2.47,3.21,2.46,1.28,0,2.38-.51,2.5-2.14Zm-53.21,51.57c1.34-.2,2.5-.74,2.23-2.24-.28-1.57-1.34-2.77-3.05-2.8-1.38-.02-2.23,.94-2.19,2.32,.05,1.88,1.52,2.37,3.01,2.72Zm135.13-51.74c-.04-1.55-.53-2.86-2.25-2.9-1.66-.04-2.47,1.12-2.45,2.69,.02,1.32,.65,2.41,2.08,2.62,1.8,.27,2.38-.94,2.63-2.41Zm-96.81,4.91c.18,1.13-.35,2.98,1.52,2.62,2.26-.44,2-3.11,3.01-4.7,.34-.54-.76-2.16-1.94-2.02-2.4,.28-2.26,2.41-2.59,4.1Zm-90.4,30.64c-.38-1.31,.18-3.46-2.02-3.8-1.81-.28-2.08,1.38-2.13,2.75-.07,1.77,.48,3.43,2.44,3.72,1.8,.27,1.55-1.34,1.71-2.67Zm96.18-14.61c1.79-.22,2.6-1.33,2.7-3.04,.09-1.62-.7-2.64-2.33-2.66-1.95-.02-2.5,1.4-2.59,3.03-.08,1.51,.38,2.69,2.22,2.67Zm-102.95,738.82c.3-.13,.59-.26,.89-.39-.58-2.81-1.13-5.63-1.77-8.43-.21-.94-.2-2.46-1.83-1.84-.95,.36-1.06,1.45-.7,2.37,1.1,2.78,2.27,5.53,3.41,8.29ZM500.31,146.23c0-1.51-.98-2.12-2.27-2.27-1.52-.18-2.74,.41-2.93,2.06-.19,1.68,.97,2.43,2.45,2.6,1.7,.2,2.36-.96,2.74-2.38Zm183.85,319.09c-1.51-.13-2.15,.61-2.19,1.82-.06,1.81,.62,3.34,2.5,3.77,1.43,.32,2.28-.59,2.29-2.04,0-1.86-.93-3.09-2.6-3.55Zm-59.88,26.4c-1.57,.03-1.97,1-1.79,2.15,.3,1.98,1.74,2.74,3.58,2.82,.96,.04,2-.27,1.81-1.46-.33-2.02-1.8-3.05-3.59-3.51Zm29.77,4.62c-1.4-.06-2.02,.71-2.13,1.89-.18,1.94,1.02,2.76,2.73,2.87,1.11,.07,2.83,.41,2.67-1.42-.15-1.79-1.72-2.72-3.27-3.34Zm-51.01,63.63c-.63-1.73-1.11-3.77-3.49-4.1-1.03-.14-1.75,.56-1.69,1.64,.12,2.39,2.01,3.23,3.86,3.9,.9,.33,1.29-.45,1.33-1.44Zm62.52-28.11c1.45-.16,1.76-1.15,1.55-2.28-.29-1.56-.19-3.66-2.49-3.64-1.52,.01-1.72,1.52-1.63,2.75,.11,1.61,.76,2.91,2.57,3.17Zm-57.57,76.59c-.42-1.96-1.42-3.66-3.64-3.99-1.22-.18-1.28,1.07-1.22,1.97,.12,1.97,.93,3.56,3.01,4.03,1.44,.32,1.83-.66,1.85-2.01Zm-303.18-92.67c-.31-1.53-1.38-1.93-2.67-1.87-2.02,.09-3.01,1.33-2.93,3.23,.07,1.73,1.51,1.59,2.7,1.47,1.72-.16,2.65-1.2,2.91-2.84Zm373.46-2.64c-.43-1.56-1.64-2.06-3.05-2.03-1.35,.03-2.34,.77-2.15,2.24,.19,1.49,1.16,2.46,2.71,2.44,1.62-.02,2.26-1.17,2.5-2.65ZM439.12,108.2c-.17-1.61-1.02-2.72-2.82-2.84-1.51-.1-2.28,.77-2.26,2.19,.02,1.76,.99,2.9,2.76,2.97,1.37,.06,2.26-.73,2.32-2.33ZM201.12,499.22c-3.4,.34-4.97,2.02-5.56,4.81-.12,.59,.03,1.49,.68,1.45,2.57-.14,3.25-2.42,4.36-4.17,.28-.44,.28-1.06,.52-2.09Zm469.21-232.87c1.4,3.22,2.43,6.6,5.08,9-.36-3.78-1.65-7.03-5.08-9Zm-32.94,242.62c-1.27,.1-2.11,.7-1.79,2.01,.4,1.63,1.68,2.52,3.28,2.69,1.18,.13,2.18-.55,2.05-1.83-.21-2.02-1.87-2.52-3.54-2.87Zm-383.3,67.82c1.69-.76,2.36-2.34,2.74-3.95,.3-1.27-.64-1.99-1.9-1.96-1.93,.05-2.69,1.29-2.58,3.05,.07,1.16,.08,2.51,1.74,2.86Zm436.93-94.85c-1.07,.13-1.67,.85-1.68,2.05-.02,1.7,.75,2.93,2.52,3.07,1.22,.1,2.01-.8,1.95-1.95-.08-1.57-.82-2.84-2.79-3.17ZM315.21,201.58c-.05-1.64-1.31-2.52-2.84-2.9-1.59-.39-2.18,.77-2.23,2.14-.06,1.75,.72,3.05,2.56,3.16,1.35,.08,2.28-.73,2.5-2.4Zm36.68-75.53c-.29-1.69-1.51-2.4-3.17-2.45-1.3-.04-2.54,.35-2.4,1.97,.15,1.78,1.5,2.57,3.11,2.68,1.32,.09,2.3-.59,2.46-2.19ZM212.76,801.89c1.5-2.54-.23-3.21-2.16-3.56-.95-.17-2.13,.58-1.73,1.47,.83,1.81,1.54,4.53,3.58,4.68,2.21,.16-.21-1.72,.31-2.59Zm389.11-285.73c-1.2,.15-2.18,.81-2.03,2,.21,1.68,1.58,2.59,3.14,2.88,1.29,.24,2.07-.64,1.9-1.89-.22-1.67-1.34-2.66-3.01-2.99Zm-321.84,122.69c-3.26,3.88-3.96,6.55-2.61,10.19,1.75-3.26,2.84-6.41,2.61-10.19Zm-22.66,171.25c-1.63,2-1.28,4.25-1.85,6.18-.3,1.02,.89,1.39,1.84,1.5,1.14,.14,1.83-.41,1.61-1.52-.39-1.94,.19-4.18-1.6-6.15Zm442.19-255.25c-1.35-.02-2.47,.47-2.52,1.93-.07,1.91,1.39,2.51,2.99,2.66,1.33,.12,2.51-.37,2.56-1.86,.06-1.93-1.51-2.35-3.03-2.72Zm-168.12,291.04c-1.07-5.05-2.13-10.1-3.2-15.15-.59,5.42,.6,10.44,3.2,15.15Zm88.18-345.84c-.41-1.68-1.83-2.19-3.38-2.38-1.21-.15-2.21,.34-2.15,1.72,.07,1.64,1.29,2.36,2.75,2.55,1.3,.17,2.43-.18,2.78-1.88Zm-9.17-23.73c-.07-1.12-.79-1.32-1.56-1.26-2.27,.19-3.97,1.35-4.77,3.47-.31,.81,.49,1.38,1.37,1.11,2-.62,3.89-1.46,4.96-3.33ZM221.53,793.63c-.12-1.21-.71-1.91-1.78-1.49-1.7,.68-3.28,1.72-3.28,3.82,0,1.17,.83,2.06,2.09,1.72,2.05-.55,2.32-2.52,2.97-4.05Zm59.96,27.49c-1.91,4.09-.91,8.08,0,12.07v-12.07Zm35.46-79.34c-.91,.47-2.11,1.01-1.77,2.23,.41,1.49,.26,3.64,2.41,3.95,1.14,.17,2.21-.76,1.78-2.02-.5-1.45-.21-3.48-2.41-4.16ZM547.63,112c1.86-.11,2.57-1.37,2.79-2.97,.16-1.19-.4-2.16-1.65-2.23-1.76-.09-2.79,1.01-3.08,2.66-.25,1.41,.58,2.23,1.95,2.54ZM219.53,818.66c-1.13,.39-1.74,1.47-1.58,2.41,.37,2.06,2.22,2.19,3.9,2.31,.78,.05,1.85-.21,1.61-1.07-.53-1.84-2.13-2.79-3.93-3.65Zm410.51-305.58c-.26-1.86-1.78-2.25-3.27-2.55-1.07-.22-2.47-.16-2.5,1.19-.05,1.91,1.72,2.27,3.2,2.62,1.11,.26,2.13,.11,2.57-1.26ZM340.1,134.76c-.12-1.51-.75-2.81-2.22-3.07-1.81-.31-2.22,1.23-2.37,2.59-.15,1.42,.64,2.28,2.08,2.38,1.37,.1,2.33-.43,2.51-1.91Zm280.17,349.53c1.28-.19,2.59-.61,2.66-2.02,.09-1.62-1.09-2.46-2.65-2.39-1.34,.06-2.34,.91-2.41,2.27-.07,1.51,1.09,1.99,2.4,2.14ZM361.86,120.41c-.18-1.64-1.36-2.28-2.77-2.57-1.16-.24-2.32,.11-2.5,1.36-.23,1.63,.9,2.53,2.4,2.78,1.28,.22,2.46,0,2.87-1.57Zm177.76-23.05c-1.98,.28-2.79,1.64-3.02,3.43-.12,.97,.21,2.05,1.36,1.82,1.78-.36,2.81-1.71,3.13-3.49,.19-1.06-.27-1.76-1.47-1.76Zm-256,86.72c-.88-1.63-2.22-3.09-4.11-3.76-.83-.3-1.35,.63-1.08,1.47,.64,1.98,1.91,3.48,4,3.93,.79,.17,1.37-.49,1.19-1.63Zm336.65,400.56c-1.13,.21-1.53,.95-1.31,1.93,.37,1.66,1.17,3.12,2.97,3.53,1.13,.26,1.65-.56,1.5-1.59-.28-1.89-1.23-3.31-3.16-3.88Zm-363.37,246.72c.81-.62,.69-1.42,.54-2.1-.35-1.65,.62-3.72-1.4-4.84-.77-.43-1.59-.1-1.65,.8-.15,2.03-.7,4.24,1.38,5.74,.33,.24,.79,.29,1.13,.4Zm-14.8-740.62c1.38,.02,1.88-1.03,1.93-2.05,.09-1.67-.87-2.92-2.46-3.36-1.43-.39-1.81,.7-1.83,1.87-.03,1.7,.86,2.82,2.36,3.54Zm59,759.07c-.49-2.98-2.07-5-4.09-6.69-.5-.42-1.15,.18-1.22,.86-.35,3.33,2.48,4.09,4.51,5.49,.12,.08,.28,.12,.8,.34Zm-146.35-295.46c2.41-1.85,4.09-3.64,4.31-6.35,.05-.59-.84-.83-1.43-.5-2.43,1.36-3.91,3.23-2.88,6.85Zm435.99-41.23c-.33-1.69-1.17-2.85-3.01-2.85-1.32,0-2.07,.81-1.76,2.07,.39,1.61,1.48,2.65,3.27,2.61,1.16-.03,1.54-.78,1.5-1.82Zm-18.83,2.49c-.24-1.48-.99-2.54-2.62-2.62-1.29-.06-2.04,.69-2,1.95,.05,1.56,.95,2.62,2.52,2.71,1.22,.07,1.89-.81,2.1-2.04ZM497.48,57.6c-.21-1.7-.86-3.14-2.88-3.46-.91-.14-1.6,.31-1.46,1.2,.25,1.65,.63,3.4,2.56,3.92,1.13,.3,1.59-.58,1.79-1.66Zm-84.42,16.58c-.03-1.21-.36-2.35-1.62-2.41-1.91-.09-2.52,1.42-2.71,2.98-.14,1.15,.32,2.19,1.73,2.06,1.55-.15,2.31-1.24,2.6-2.63ZM241.64,824.12c-.12,1.1-.32,1.99-.28,2.87,.07,1.66,.06,3.43,1.86,4.34,.3,.15,1.08,.04,1.16-.15,.65-1.55-.11-2.95-.71-4.31-.39-.89-.01-2.25-2.03-2.75Zm413.1-292.65c-1.24,.09-2.05,.66-1.92,1.94,.15,1.5,1.05,2.49,2.59,2.53,1.23,.04,1.95-.81,1.91-1.99-.05-1.58-1.09-2.32-2.58-2.49ZM498.9,71.36c-.22-1.28-.39-2.66-1.96-2.69-1.8-.03-2.24,1.31-2.13,2.82,.09,1.24,.37,2.63,1.89,2.66,1.77,.04,2.1-1.4,2.2-2.79Zm191.68,481.39c-.14-1.68-1.39-2.18-2.74-2.42-1.19-.21-2.7-.27-2.94,1.19-.32,1.91,1.31,2.49,2.83,2.73,1.21,.19,2.39-.04,2.85-1.5Zm-13.55-63.38c-.93,.19-2.2,.24-2.08,1.67,.15,1.92,1.84,2.19,3.3,2.39,1.06,.15,2.28-.16,2.19-1.57-.14-1.93-1.87-2.05-3.4-2.5Zm-30.65,73.1c-.37-2.92-1.75-4.52-4.08-5.33-.59-.21-1.44,0-1.37,.72,.23,2.43,2.24,3.45,4.02,4.6,.21,.14,.58,.02,1.43,.02Zm-354.52,252.32c1.03-4.07,.81-6.81-.79-10.8-1.01,4.15-1.14,6.94,.79,10.8Zm-116.56-43.92c-2.35,.95-3.17,3.06-4.66,4.43-.56,.52-.75,1.34,0,1.98,.71,.6,1.53,.44,2.04-.15,1.46-1.7,2.89-3.46,2.63-6.26ZM595.3,110.94c-1.64,.04-2.39,1.07-2.62,2.53-.18,1.14,.12,2.16,1.55,2.15,1.73,0,2.84-.9,2.95-2.67,.08-1.21-.58-1.95-1.88-2.01Zm-86.47,668.61c1.63-.13,3.43-.33,3.88-2.36,.33-1.5-.93-1.73-2.05-1.64-1.77,.15-3.39,.86-3.8,2.71-.28,1.24,.95,1.27,1.98,1.28Zm-34.76,34.7c-.32-1.47-1.34-1.57-2.44-1.34-1.48,.32-3.19,.71-3.18,2.57,0,1.12,1.25,1.7,2.39,1.43,1.47-.36,2.83-1.01,3.24-2.66Zm217.46-318.28c-.11-1.64-.78-2.88-2.52-3.18-.98-.17-1.94,.24-1.89,1.32,.09,1.79,1.13,3.06,2.92,3.47,1.24,.29,1.47-.62,1.49-1.61Zm-105.52,1.34c-.11-1.18-.72-1.92-2.01-1.78-1.57,.16-2.41,1.2-2.49,2.67-.07,1.23,.76,1.99,1.99,1.82,1.44-.21,2.44-1.04,2.51-2.7Zm74.2-27.43c-.42-1.91-1.92-2.57-3.57-3.02-.98-.26-1.98-.11-2,1.11-.04,1.89,1.37,2.58,2.96,2.87,.98,.18,2.16,.56,2.62-.97Zm-38.06-3.77c-2.73-.07-4.89,.52-6.42,2.65-.43,.6-.04,1.33,.54,1.41,2.52,.34,4.14-1.21,5.6-2.97,.08-.1,.08-.28,.28-1.09Zm74.47-12.67c-1.19,.11-2.6,.31-2.54,1.85,.06,1.53,1.33,2.34,2.8,2.38,1.35,.04,2.44-.79,2.37-2.17-.07-1.38-1.28-1.91-2.63-2.07Zm-433.63,106.73c-1.58,.13-2.38,1.11-2.55,2.6-.13,1.13,.27,2.23,1.52,2.34,1.71,.14,2.23-1.24,2.49-2.6,.22-1.13-.1-2.08-1.46-2.34Zm-3.2-15.41c-.22-.99-.38-2.25-1.82-2-1.67,.29-1.77,1.88-1.98,3.21-.15,.89-.18,2.05,1.07,2.06,1.99,0,2.12-1.82,2.73-3.26Zm373.22-22.37c-1.08-.08-2.11,.1-2.06,1.27,.07,1.89,1.53,2.45,3.15,2.54,.85,.04,2.1,.1,2.02-1.14-.11-1.83-1.75-2.23-3.11-2.67Zm-347.94,24.83c.04-1.29-.45-2.07-1.78-2.08-1.46-.02-2.21,.8-2.23,2.19-.01,1.27,.49,2.54,1.86,2.64,1.82,.12,1.86-1.53,2.14-2.74Zm230.4-417.1c-.26-.97-.23-2.42-1.98-2.29-1.24,.1-1.79,1.12-1.87,2.25-.09,1.27,.16,2.62,1.72,2.72,1.57,.1,1.88-1.23,2.13-2.69ZM228.84,531.85c-1.56,.22-2.3,1.34-2.58,2.75-.2,.98,.24,2.04,1.31,1.94,1.64-.14,2.76-1.24,2.94-2.96,.11-1.07-.53-1.67-1.67-1.74Zm99.65-340.79c1.12-.18,1.5-.89,1.25-1.92-.37-1.53-1.09-2.88-2.86-2.96-1.3-.06-1.95,.86-1.55,2.07,.49,1.47,1.49,2.57,3.16,2.8Zm371.73,334.73c-1.16-.17-1.57,.41-1.57,1.26,0,1.92,.47,3.72,2.53,4.33,.87,.26,1.22-.73,1.14-1.53-.16-1.67-.44-3.33-2.11-4.06ZM243.37,101.06c-1.38,.08-2.47,.64-2.53,2.05-.06,1.27,1.02,1.74,2.13,1.86,1.12,.12,2.18-.12,2.37-1.45,.21-1.46-.68-2.18-1.97-2.46Z"/>
  <path d="M367.87,691.91c2.48,.23,4.05,1.64,4.21,4.3,.13,2.16-.99,3.62-3.21,3.45-2.63-.2-4.01-2.03-4.14-4.57-.1-1.92,.9-3.15,3.15-3.18Z"/>
  <path d="M379.36,711.88c.05-1.85-.06-3.87,2.32-3.8,2.35,.07,3.39,1.8,3.45,4.04,.06,2.2-.75,4.24-3.16,4.18-2.77-.08-2.08-2.82-2.62-4.41Z"/>
  <path d="M376.64,708.6c-.03,1.55-.3,2.8-1.98,2.56-3.19-.44-4-2.88-4.26-5.58-.12-1.27,.23-2.69,1.9-2.36,2.96,.58,4.09,2.81,4.35,5.38Z"/>
  <path d="M452.51,706.59c-1.8-.33-3.3-1.2-3.31-3.17-.01-2.38,1.93-2.93,3.82-3.08,2.1-.17,2.48,1.38,2.54,3.02,.08,2.07-1.05,3.06-3.06,3.23Z"/>
  <path d="M382.93,697.5c-.28,1.67-.75,3.55-2.87,3.32-2.02-.22-2.31-2.23-2.4-3.91-.1-1.61,.23-3.26,2.41-2.99,1.94,.23,2.84,1.59,2.87,3.59Z"/>
  <path d="M428.5,706.7c-1.84-.36-2.82-1.37-2.5-3.19,.32-1.82,1.57-3.2,3.37-3.09,1.92,.12,1.98,2.03,1.98,3.53,0,1.85-1.18,2.65-2.85,2.75Z"/>
  <path d="M409.73,699.54c0,1.71-.73,2.77-2.4,2.67-1.79-.11-3.35-.87-3.19-2.99,.13-1.69,1.31-2.76,3.05-2.71,1.91,.05,2.4,1.5,2.54,3.03Z"/>
  <path d="M476.29,714.66c-.01,1.68-.93,2.72-2.46,2.8-2.11,.11-2.9-1.47-3.08-3.26-.16-1.57,.56-2.77,2.29-2.76,2.05,.01,2.8,1.53,3.25,3.22Z"/>
  <path d="M411.84,715.15c-.19,1.5-.61,2.66-2.25,2.36-1.39-.26-1.95-1.35-1.92-2.7,.03-1.32,.46-2.52,2.03-2.45,1.81,.09,1.97,1.57,2.14,2.79Z"/>
  <path d="M430.16,722.57c-1.39-.3-2.49-1.04-2.54-2.6-.04-1.19,.73-1.97,1.93-2.02,1.66-.07,2.41,.99,2.47,2.51,.04,1.17-.56,1.96-1.85,2.11Z"/>
  <path d="M484.37,231.92c-.48,16.61-5.47,31.36-19,41.9-13.08,10.18-30.45,7.31-40.43-6.07-15.53-20.83-8.95-56.09,13.05-69.92,17.22-10.83,37.25-2.73,43.96,17.8,1.73,5.28,2.39,10.72,2.42,16.3Zm-26.94-10.02c5.41-.18,10.35-.89,14.31-4.59,3.56-3.32,3.97-7.7,1.14-11.49-7-9.37-25.28-11.01-33.86-3.05-3.81,3.53-3.97,6.78-.43,10.7,5.11,5.67,11.68,8.06,18.85,8.42Z"/>
  <path d="M613.45,237.68c-.63,14.96-5.49,28.13-17,38.2-12.47,10.92-29.05,9.08-39.05-4.07-15.75-20.72-5.5-56.92,18.82-66.44,12.94-5.07,25.78-.38,32.43,11.97,3.4,6.32,4.93,13.13,4.8,20.35Zm-24.11-7.07c6.22,.09,9.9-.87,12.64-2.81,3.48-2.48,4.34-5.88,2.41-9.62-4.82-9.37-20.32-13.22-28.93-7.19-4.69,3.29-5.37,7.19-1.72,11.69,4.42,5.47,10.43,7.76,15.6,7.93Z"/>
  <path d="M521.83,733.22c-.01,1.71-.84,2.96-2.43,2.64-2.35-.48-4.2-2.06-4.39-4.57-.13-1.67,1.58-2.18,2.95-2.18,2.65,.01,3.6,1.84,3.87,4.11Z"/>
  <path d="M476.74,744.68c.07,1.93-1,2.77-2.74,2.78-1.52,.01-2.69-.77-2.67-2.38,.01-1.72,1.14-2.76,2.85-2.86,1.62-.09,2.42,.9,2.56,2.45Z"/>
  <path d="M506.01,734.56c-.19,1.39-.62,2.67-2.14,2.46-1.82-.25-2.21-1.88-2.24-3.42-.02-1.26,.59-2.77,1.87-2.67,1.99,.16,2.14,2.15,2.51,3.62Z"/>
  <path d="M457.5,748.75c-.11,1.49-1.02,2.22-2.4,2.17-1.62-.06-3.24-.74-3.38-2.45-.14-1.76,1.55-2.03,2.95-2.07,1.57-.05,2.6,.7,2.83,2.35Z"/>
  <path d="M458.85,760.13c-.15,1.64-1.12,2.46-2.7,2.45-1.36-.01-2.4-.77-2.51-2.16-.13-1.65,1.05-2.58,2.49-2.77,1.64-.21,2.43,.95,2.73,2.48Z"/>
  <path d="M432.56,746.35c1.59,.17,2.55,1.02,2.56,2.62,.02,1.54-1,2.12-2.41,2-1.58-.13-2.57-1.14-2.65-2.62-.08-1.54,1.19-1.91,2.49-2Z"/>
  <path d="M505.26,746.89c-.23,1.19,.09,2.84-1.65,2.82-1.78-.03-2.05-1.62-2.07-3.02-.01-1.31-.17-3.14,1.81-2.97,1.64,.14,1.79,1.83,1.92,3.17Z"/>
  <path d="M479.48,759.03c-.04,1.48-.91,2.3-2.27,2.24-1.29-.06-2.29-.88-2.38-2.29-.09-1.58,1.06-2.11,2.35-2.13,1.34-.02,2.31,.64,2.3,2.18Z"/>
  <path d="M435.11,759.59c-.36,1.24-1.05,2.23-2.48,1.98-1.29-.23-2.12-1.14-1.87-2.56,.2-1.16,1.12-1.85,2.21-1.81,1.36,.05,2.04,1.02,2.14,2.39Z"/>
  <path d="M518.67,744.23c.01,1.09-.32,2.18-1.37,2.01-1.95-.32-2.99-1.97-3.64-3.65-.36-.93,.66-1.22,1.42-1.13,1.76,.21,3.14,.98,3.59,2.77Z"/>
  <path d="M409.37,750.48c-.13,.94-.4,1.98-1.47,1.93-1.52-.08-2.39-1.25-2.66-2.65-.28-1.47,.88-1.84,1.98-1.73,1.35,.13,2.09,1.06,2.16,2.45Z"/>
  <path d="M403.93,661.85c-.14,1.93-.41,3.76-3,3.7-2.15-.05-3.74-1.16-3.68-3.26,.07-2.57,2.23-3.63,4.47-3.72,2.02-.09,2.32,1.59,2.21,3.28Z"/>
  <path d="M486.69,637.21c-.1,1.48-.47,2.91-1.94,2.71-3.03-.43-3.14-3.22-3.67-5.47-.27-1.13,.37-2.18,1.76-1.92,2.62,.5,3.54,2.47,3.85,4.68Z"/>
  <path d="M489.14,632.92c.28-1.68,1.16-2.66,2.82-2.3,2.16,.47,3.48,1.94,3.43,4.19-.03,1.36-.94,2.35-2.45,2-2.07-.48-3.54-1.69-3.81-3.9Z"/>
  <path d="M463.59,648.13c.09,1.81-.81,2.65-2.41,2.77-1.78,.13-3.08-.69-3.18-2.49-.11-1.89,.94-3.33,2.94-3.34,1.9-.01,2.33,1.63,2.66,3.05Z"/>
  <path d="M442.49,654.09c-.11,1.69-.94,2.68-2.57,2.68-1.39,0-2.35-.82-2.31-2.27,.05-1.47,.72-2.76,2.34-2.92,1.75-.17,2.27,1.14,2.53,2.51Z"/>
  <path d="M422.06,672.51c-1.73-.54-3.07-1.33-2.88-3.14,.15-1.5,1.45-1.82,2.73-1.68,1.46,.17,2.64,.78,2.35,2.59-.22,1.33-.95,2.14-2.19,2.23Z"/>
  <path d="M418.98,654.15c1.61,.23,2.35,1.3,2.4,2.79,.05,1.36-.7,2.5-2.08,2.49-1.57-.01-2.39-1.26-2.45-2.75-.06-1.36,.73-2.25,2.13-2.53Z"/>
  <path d="M444.17,667.8c-.16,1.04-.27,2.27-1.57,2.37-1.64,.13-2.41-1.11-2.58-2.52-.15-1.19,.61-2.02,1.84-2.07,1.45-.06,2.12,.87,2.31,2.22Z"/>
  <path d="M480.61,598.49c2.38,.51,4.14,1.85,4.47,4.42,.26,2.03-1.24,2.65-2.92,2.58-2.63-.11-4.31-1.63-4.58-4.2-.19-1.81,1.22-2.62,3.03-2.8Z"/>
  <path d="M488.37,612.1c-.43,1.6-1.37,2.85-3.13,2.54-1.66-.29-2.5-1.64-2.3-3.36,.2-1.77,1.53-2.1,2.99-1.88,1.47,.22,2.49,1,2.44,2.7Z"/>
  <path d="M382.02,614.44c-1.67-.29-2.4-1.44-2.51-2.83-.14-1.81,1.19-2.21,2.68-2.12,1.39,.09,2.22,.86,2.2,2.29-.03,1.57-.88,2.46-2.37,2.65Z"/>
  <path d="M438.8,619.06c-.18,1.46-1.12,2.11-2.48,2.19-1.43,.08-2.4-.67-2.59-2.05-.2-1.47,.75-2.27,2.13-2.43,1.67-.2,2.5,.83,2.93,2.3Z"/>
  <path d="M453.57,618.19c-1.32-.51-1.97-1.5-1.83-2.81,.11-1.06,.58-2.23,1.94-1.97,1.35,.25,1.98,1.34,1.83,2.71-.12,1.12-.67,1.98-1.94,2.08Z"/>
  <path d="M471.48,570.76c1.6,.29,2.14,1.4,1.83,2.91-.24,1.14-.53,2.61-2.07,2.46-1.85-.18-2.3-1.69-2.19-3.31,.09-1.41,.9-2.15,2.44-2.07Z"/>
  <path d="M461.79,583.65c-1.45-.21-2.5-.98-2.54-2.56-.03-1.34,1.01-1.84,2.14-1.68,1.24,.17,2.29,.89,2.38,2.29,.08,1.25-.65,1.92-1.97,1.95Z"/>
  <path d="M414.61,592.63c-1.44-.25-1.64-1.27-1.55-2.36,.12-1.5,.86-2.57,2.5-2.62,1.03-.04,1.83,.51,1.6,1.61-.31,1.49-1.02,2.79-2.54,3.37Z"/>
  <path d="M491.59,788.54c-.76,2.73-2.97,3.69-5.42,4.08-1.82,.29-3.8-.56-3.7-2.44,.2-3.75,3.76-2.59,5.97-3.25,1.27-.38,2.79-.37,3.16,1.61Z"/>
  <path d="M399.75,791.96c-2.73-1.08-2.58-4.01-3.35-6.04-.67-1.76,1.52-2.81,3.35-2.66,1.55,.13,3.57,2.27,3.01,2.51-3.06,1.29,.6,5.48-3.02,6.19Z"/>
  <path d="M481.8,799.78c.24,1.78-1.05,2.03-2.26,2.09-2.75,.13-4.7-1.27-5.47-3.82-.55-1.83,1.04-2.26,2.47-2.35,2.93-.19,4.3,1.71,5.26,4.08Z"/>
  <path d="M482.11,780.67c1.61,.19,3.69,.41,3.5,2.22-.25,2.46-2.53,3.18-4.8,3.19-1.64,0-3.22-.42-3.07-2.49,.2-2.76,2.54-2.57,4.37-2.92Z"/>
  <path d="M448.74,781.02c1.19,.16,2.95-.14,2.66,1.97-.21,1.5-.89,3.05-2.75,3.11-1.82,.06-2.76-1.2-2.81-2.88-.05-1.8,1.34-2.12,2.9-2.2Z"/>
  <path d="M448.52,804.14c-.14,1.67-1.06,2.67-2.86,2.68-1.48,0-2.84-.49-2.81-2.2,.03-1.69,1.24-2.78,2.88-2.94,1.55-.16,2.47,.85,2.78,2.47Z"/>
  <path d="M415.09,791.18c-.3,2.01-1.56,2.91-3.47,2.96-1.32,.03-2.61-.34-2.52-1.94,.1-1.69,1.15-2.87,2.91-2.98,1.41-.09,2.79,.15,3.07,1.97Z"/>
  <path d="M416.8,801.25c-.51,1.7-1.57,3.23-3.28,3.43-1.88,.22-1.84-1.75-1.92-2.99-.12-1.87,1.17-2.76,2.9-2.76,1.37,0,2.24,.8,2.29,2.32Z"/>
  <path d="M441.42,796.91c-.15,1.84-1.58,2.09-2.93,2.14-1.36,.05-2.92-.1-3.12-1.88-.2-1.74,1-2.4,2.56-2.42,1.59-.02,3.05,.26,3.5,2.15Z"/>
  <path d="M473.26,778.01c-.1,1.94-1.04,3.29-2.63,3.46-1.82,.19-2.58-1.56-2.87-2.99-.38-1.88,1.43-2.05,2.66-2.4,1.76-.5,2.36,.78,2.84,1.93Z"/>
  <path d="M422.3,796.9c-1.82,.02-2.04-1.46-2.31-2.75-.32-1.55,.29-2.75,1.94-2.99,2.1-.31,2.53,1.23,2.63,2.83,.1,1.53-.57,2.61-2.27,2.92Z"/>
  <path d="M417.08,784.55c-1.37-.19-2.69-.58-2.57-2.37,.08-1.29,.75-2.44,2.16-2.43,1.69,0,2.87,1.03,2.91,2.78,.04,1.48-1.09,1.98-2.5,2.03Z"/>
  <path d="M427.82,785.67c-1.29-.1-2.66-.11-2.5-1.86,.13-1.47,.94-2.62,2.56-2.58,1.49,.04,2.67,1,2.76,2.46,.1,1.88-1.53,1.86-2.81,1.97Z"/>
  <path d="M460.83,794.79c-.28,1.63-1.3,2.37-2.81,2.45-1.24,.07-2.11-.62-2.04-1.85,.09-1.56,1.14-2.43,2.71-2.39,1.12,.03,2.02,.52,2.14,1.78Z"/>
  <path d="M470.62,791.43c-.31,1.47-1.34,1.98-2.62,2.01-1.1,.03-2.27-.31-2.18-1.63,.1-1.55,1.26-2.32,2.77-2.23,1.1,.06,1.97,.63,2.03,1.86Z"/>
</svg>