<?xml version="1.0" encoding="UTF-8"?>
<svg id="Layer_1" data-name="Layer 1" xmlns="http://www.w3.org/2000/svg" viewBox="0 0 864 864">
  <path d="M774.55,558.73c-6.79-14.74-15.81-28.07-28.64-38.39-4.19-3.37-8.97-4.68-14.07-2.21-5.26,2.56-7.71,7.1-8.11,12.83-.24,3.44,.17,6.88,1.49,10.01,1.41,3.32,1.11,5.23-2.17,7.54-8.85,6.21-9.61,13.25-3.02,21.9,1.34,1.76,2.9,3.35,4.35,5.02,2.3,2.63,4.6,5.26,7.17,8.19-4.9,1.75-9.57,2.1-13.37,4.89-5.72,4.2-6.53,9.46-1.82,14.72,2.15,2.41,4.79,4.38,7.25,6.5,3.72,3.2,7.1,6.69,9.57,10.97,.58,1,1.55,2.18,.93,3.25-.79,1.36-2.14,.2-3.2,.03-3.06-.49-6.07-1.37-9.14-1.68-12.45-1.24-16.47,3.87-12.64,15.75,3.04,9.44,8.51,17.52,14.21,25.44,1.82,2.53,1.31,4.38-.36,6.25-1.91,2.15-3.09-.25-4.4-1.06-5.9-3.65-10.96-8.57-17.31-11.55-5.54-2.6-9.35-1.18-11.9,4.38-1.5,3.26-2.02,6.78-2.63,10.28-1.54,8.88-2.8,17.81-5.63,26.42-.84,2.56-1.6,4.73-4.86,4.66-3.24-.07-3.04-2.89-3.65-4.75-1.8-5.47-3.08-11.1-4.94-16.55-1.99-5.86-6.08-7.56-11.92-5.41-3.39,1.25-6.16,3.44-8.92,5.7-5.02,4.12-9.43,8.99-15.05,12.37-1.51,.91-3.44,2.41-4.86,1.43-1.7-1.17-.15-3.27,.3-4.88,2.34-8.41,4.69-16.82,4.58-25.65-.07-5.86-2.85-7.68-8.36-5.62-3.76,1.41-7.16,3.53-10.34,5.95-7.64,5.81-15.43,11.46-22.79,17.62-2.99,2.5-5.2,1.46-7.99,.38-3.04-1.17-1.97-3.6-1.98-5.64-.03-11.23,.19-22.47-.01-33.7-.09-5.05-2.79-6.49-7.42-4.57-1.09,.45-2.11,1.07-3.12,1.68-9.2,5.63-18.39,11.28-27.6,16.89-1.33,.81-2.52,1.85-4.4,.62-2.45-1.61-3.39-3.06-2.11-6.12,3.97-9.45,6.95-19.21,6.62-29.62-.18-5.75-3.61-7.6-8.62-4.79-1.79,1-3.43,2.33-4.98,3.67-4.47,3.87-8.8,7.9-13.31,11.72-1.83,1.54-4.11,4.74-5.98,3.49-2.21-1.49-.33-4.94,.33-7.4,1.15-4.27,2.9-8.4,3.21-12.87,.34-4.94-2.02-6.62-6.54-4.47-3.05,1.45-5.85,3.43-8.73,5.23-2.37,1.49-4.64,4.25-7.02,4.32-3.13,.09-3.26-4.39-5.37-6.34-.21-.2-.33-.52-.55-.69-3.38-2.52-2.94-5.22-.55-8.17,4.48-5.53,7.43-11.72,9.65-18.3-.14-1.54-.36-3.07-.61-4.58-1.69-10.44-12.03-9.25-20.23-7.46-.68,.15-1.37,.32-1.97,.68-.89,.53-1.48,1.43-2.11,2.24-2.26,2.91-8.38,7.7-12.3,8.1-3.64,.37-5.65-3.17-8.21-5.59-2.39-2.26-2.84-4.28-1.66-7.34,1.74-4.54,3.01-9.27,4.34-13.96,1.53-5.4,3.06-10.85,2.96-16.52-.09-4.85-2.21-6.43-6.86-5.2-2.79,.74-5.48,1.84-8.84,2.99,.78-1.19,1.19-1.78,1.56-2.39,1.65-2.77,2.83-5.75,1.11-8.78-1.76-3.11-5.02-2.64-7.96-2.5-5.93,.29-11.71,1.57-17.5,2.75-8.9,1.81-8.82,1.76-12.94-6.63-1.13-2.3-1.11-3.54,1.29-4.89,5.54-3.1,11.05-6.29,16.35-9.78,4.53-2.98,4.44-6.26-.02-9.39-4.17-2.92-8.83-4.75-13.86-5.63-2.48-.44-4.96-.86-8.13-1.42,6.71-5.02,13.11-9.04,18.46-14.38,1.56-1.56,3.55-3.16,2.87-5.63-.78-2.81-3.63-2.71-5.88-3.11-3.73-.67-7.66-.05-11.96-1.78,2.14-.23,3.6-.33,5.04-.55,7.13-1.09,9.19-5.64,5.21-11.68-.97-1.47-2.17-2.81-3.4-4.08-5.51-5.67-12.15-9.84-18.73-14.09-1.87-1.2-4.14-1.99-5.51-4.44,4.16-.63,7.96-1.19,11.75-1.78,7.29-1.14,14.76-1.32,21.82-3.7,5.85-1.97,7.22-6.46,3.63-11.48-1.19-1.66-2.76-3.06-4.24-4.5-3.18-3.09-6.99-5.46-9.82-8.94-6.84-8.41-6.89-8.42-17.03-5.03-.42,.14-.84,.28-1.25,.45-2.15,.91-2.99,.27-2.78-2.1,.39-4.3,1.63-7.12,6.71-8.21,11.82-2.55,23.81-4.71,35-9.54,6.56-2.83,7.16-5.27,3.45-11.27-.85-1.38-1.8-2.73-2.91-3.9-5.39-5.68-10.88-11.27-16.26-16.96-1.45-1.53-4.41-2.94-3.36-5.16,1.07-2.26,4.22-1.45,6.5-1.32,9.44,.53,18.13,3.95,26.88,7.15,3.61,1.32,7.19,2.8,11.05,3.15,4.18,.37,6.4-1.56,6.8-5.75,.28-2.99-.36-5.9-1.12-8.75-3.4-12.75-9.6-24.12-17.38-34.66-1.85-2.5-2.13-4.36-.24-7.05,2.45-3.49,4.45-7.33,6.33-11.17,1.01-2.07,2.39-3.05,4.53-3.67,7.24-2.07,14.43-4.31,21.63-6.53,1.36-.42,2.57-.75,2.66-2.86,.57-13.29,1.56-26.57-.87-39.79-.11-.61-.5-1.46,.83-1.97,3.06,2.91,4.43,6.68,5.15,10.79,1.68,9.49,.83,18.85-1.57,28.11-.68,2.64-.6,4.1,2.8,2.71,5.74-2.35,11.58-4.45,17.37-6.66,1.24-.47,2.57-.77,2-2.73-3.16-10.84-2.95-22.24-5.32-33.23-.62-2.86-1.8-3.21-4.19-2.89-5.28,.71-10.61,.71-15.93,.81-3.14,.06-4.3-.68-4.35-4.14-.18-10.57-2.26-20.87-6.28-30.66-1.16-2.82-1.07-4.76,.87-7.16,2.77-3.42,7.7-6.46,7.71-10.4,.02-4.07-3.56-8.19-5.66-12.24-3.61-6.95-7.37-13.82-10.93-20.79-1.85-3.62-3.79-5.01-7.53-2-3.09,2.49-6.78,4.22-9.96,6.61-2.54,1.9-4.22,1.6-6.36-.66-8.69-9.2-18.61-16.86-29.81-22.77-2.26-1.19-2.69-2.28-2.01-4.82,2.22-8.27,4.05-16.65,5.97-25,.33-1.45,1.23-3.39-1.63-3.46-9.69-.22-18.07-3.98-25.7-9.65-1.69-1.25-2.74-1.22-3.72,.83-2.29,4.8-4.56,9.62-7.19,14.23-1.4,2.44-.75,3.64,1.33,4.95,7.71,4.86,15.96,8.32,24.93,10.05,1.47,.28,3.22-.02,4.55,1.82-2.71,1.23-5.36,.87-7.89,.55-8.43-1.09-16.5-3.38-23.79-7.89-1.32-.81-2.76-2.06-3.39,.22-1.13,4.06-3.66,3.69-6.8,2.94-2.72-.65-5.54-1-8.33-1.17-2.8-.18-3.9-1.37-3.77-4.19,.13-2.79,.8-6.17-.47-8.25-1.42-2.32-5.14-.84-7.84-1.3-9.12-1.56-16.87-6.02-24.79-11.35-.66,2.07-1.34,3.84-1.77,5.66-1.5,6.32-2.97,12.65-4.31,19.01-.4,1.9-1.03,3.19-3.04,3.85-20.11,6.58-36,19.37-50.33,34.4-11.5,12.07-25.13,20.5-41.45,24.35-28.61,6.75-57.62,10.06-87.02,9.84-6.06-.04-12.12-.21-18.16,.49-3.62,.42-7.07,1.4-9.73,3.88-15.45,14.49-24.24,31.82-20.44,53.45,3.62,20.55,14.53,37.4,29.83,51.14,21.76,19.53,47.53,31.71,75.58,39.37,46.16,12.6,92.97,16.68,140.55,11.09,7.71-.91,10.33,2.07,7.81,9.3-10.53,30.2-19.43,60.87-27.09,91.92-2.99,12.14-6.01,24.28-8.06,36.6-3.2,19.26-5,38.68-5.62,58.2-.07,2.31-.72,3.3-3.15,3.75-11.73,2.18-20.77,8.89-28.45,17.64-5.96,6.79-8.79,14.79-7.46,23.75,.7,4.73-.94,6.08-5.17,5.64-1.16-.12-2.71,1.17-3.39-.82-1.03-3,2.84-11.59,5.86-13.08-4.3-4.7,.44-9.02,.57-13.53,.18-6.34,5.22-7.14,10.23-8.26-2.61-1.77-5.03-1.2-7.48-1.37,.29-1.2,.48-2.05,.71-2.89,1.98-7.14,1.98-7.1,9.58-7.15,2.97-.02,6.12,.39,8.7-2.45-5.38-1.53-10.24,1.09-15.56,.43,1.51-4.89,3.03-9.5,4.34-14.17,1.08-3.83,3.38-5.54,7.38-5.27,1.52,.1,3.16-.18,4.62-1.51-3.07-1.7-6.17-.14-9.36-.36,.21-.79,.31-1.34,.49-1.85,5.7-16.31,11.51-32.57,17.09-48.92,7.1-20.8,14.12-41.63,20.93-62.53,1.02-3.12,2.02-3.27,4.58-1.98,2.16,1.09,4.48,2.13,7.65,2.22-1.49-2.1-3.06-2.17-4.4-2.64q-6.39-2.25-4.23-8.57c.05-.14,.12-.27,.15-.42,.59-3.05,1.64-4.79,5.2-2.79,1.67,.94,3.72,1.76,6.69,1.19-2.98-1.22-5.26-2.21-7.58-3.08-1.16-.44-2.36-.67-1.78-2.36,.91-2.65,1.11-6.02,2.91-7.73,1.49-1.42,4.08,1.39,6.3,1.94,.39,.1,.96,.73,1.38-.26-1.83-.98-3.6-2.04-5.47-2.88-1.25-.57-2.02-1.15-1.48-2.64,1.59-4.37,2.51-9,4.98-13.17,2.1,1.4,3.79,3.18,6.86,2.96-1.28-1.08-2.05-2.12-3.09-2.53-3.55-1.41-3.43-3.53-1.97-6.55,1.41-2.91,2.26-6.1,3.35-9.16-1.53,1.29-2.31,2.86-2.91,4.5-20.96,56.98-43.86,113.21-66.31,169.61-1.18,2.97-2.49,4.04-5.75,3.72-9.28-.93-18.61-.7-27.92-.37-8.44,.3-16.78,1.29-24.8,4.25-17.85,6.6-27.74,29.75-20.12,47.1,1.37,3.12,3.15,3.58,5.83,1.84,2.32-1.5,4.63-3.02,7.15-4.67,.91,3.22,1.45,6,2.46,8.6,2.54,6.54,7.16,8.32,13.46,5.23,3.86-1.89,7.46-4.26,10.57-7.24,1.88-1.8,3.05-1.78,4.1,.77,1.96,4.73,4.77,9.06,9.13,11.72,3.25,1.99,3.32,4.11,2.61,7.29-3.45,15.47-5.34,31.15-6.29,46.96-1.92,31.96,2.75,63,11.88,93.62,6.59,22.08,8.7,44.67,3.25,67.43-2.48,10.36-5.89,20.43-10.5,30.07-2.22,4.64-2.06,9.29,1.37,13.3,3.28,3.83,7.56,4.22,12.16,2.69,1.68-.56,3.56-.72,5.06-1.57,2.95-1.66,5.08-1.32,7.85,.86,5.98,4.7,12.25,4.61,18.27,.15,1.68-1.25,2.55-.58,3.83,.21,7.52,4.65,14.78,4.68,21.54-1.48,1.88-1.71,3.35-1.88,5.17,.17,2.78,3.14,6.56,4.53,10.63,4.89,7.64,.68,12.04-4.77,9.76-12.03-.59-1.89-.83-3.72-.48-5.66,1.98-11.2,4-22.4,5.85-33.62,.43-2.62,1.37-3.4,4.1-2.95,8.25,1.35,15.73,5.07,23.69,7.27,3.09,.86,4.08,2.61,4.38,5.67,1.37,13.97,3.13,27.91,6.04,41.66,2.2,10.41,15.15,15.7,23.96,9.7,2.46-1.68,3.83-1.87,6.38-.02,5.92,4.28,12.74,5.59,19.03,1.28,4.05-2.77,6.93-2.41,10.73-.05,5.22,3.25,10.98,3.65,15.55-.86,3.05-3.01,4.79-3.13,8.16-.56,4.83,3.68,10.01,3.41,14,.37,3.75-2.86,5.56-7.47,3.8-12.27-2.59-7.09-1.33-14.33-1.69-21.5-.12-2.36,.94-3.13,3.21-2.85,3.96,.48,7.94,.77,11.91,1.22,66.56,7.66,129.51-3.78,188.55-35.71,19.32-10.45,37.17-23.07,53.32-37.96,24.61-22.69,42.13-50.11,53.39-81.54,13.34-37.23,14.57-74.35-2.27-110.91ZM127.88,244.86c-3.2-.12-5.99-3.46-5.94-7.1,.05-3.55,3.07-6.7,6.38-6.64,3.32,.06,6.08,3.16,6.13,6.89,.05,3.85-2.96,7-6.57,6.86Zm10.13-28.99c-2.06,.19-3.5-1.1-3.28-3.18,.32-3,2.48-4.44,5.11-4.94,2.15,.07,3.33,1.02,3.18,2.99-.23,3.03-2.03,4.85-5.01,5.13Zm59.77,21.81c-2.29-.01-3.16-2.26-3.29-4.15,.29-2.73,1.08-4.88,3.83-4.9,2.53-.02,3.45,1.84,3.44,4.2-.01,2.71-1.32,4.87-3.98,4.85Zm8.9-17.03c-3.86-.13-6.97-3.58-6.91-7.68,.05-3.98,3.36-7.26,7.34-7.27,3.93-.02,6.87,3.03,6.81,7.07-.06,4.27-3.49,8.01-7.25,7.88Zm22.76,70.53c-1.53,.02-2.34-.97-2.4-2.51,.05-1.54,.76-2.56,2.37-2.48,1.46,.08,2.45,.9,2.46,2.49,0,1.59-.94,2.48-2.42,2.5Zm16.5-10.49c-1.5-.03-2.06-1.01-2.07-2.28-.01-1.34,.73-2.23,2.14-2.22,1.39,0,2.2,.9,2.16,2.21-.04,1.29-.93,2.07-2.23,2.29Zm21.42-22.21c-2.01,2.87-4.35,5.51-6.58,8.23-.59,.72-1.41,1.2-2.3,.6-.69-.46-.8-1.34-.2-1.91,4.71-4.43,8.7-9.52,12.94-14.43,.05,3.31-2.27,5.25-3.86,7.52Zm5.5-40.04c-16.89-.02-29.57-13.23-29.66-30.92-.1-18.02,12.16-31.16,29.13-31.24,17.09-.08,30.02,13.52,30.07,31.61,.04,17.26-12.82,30.57-29.54,30.55Zm-91.48,348.5c-3.12-.56-4.37-2.77-4.17-5.83,.2-3.13,1.56-5.76,4.91-5.73,3.13,.03,4.97,2.25,5.23,5.03-.12,3.53-3.35,7-5.96,6.53Zm10.98-24.67c-1.36,.07-2.23-.7-2.22-2.09,0-1.31,.74-2.15,2.1-2.3,1.37,.22,2.03,1.1,2.01,2.4-.02,1.16-.74,1.93-1.89,1.99Zm5.75,34.45c-2.78-.14-3.78-2.4-3.98-5.02,.29-2.74,1.82-4.42,4.57-4.26,2.48,.15,4.09,1.77,3.94,4.39-.15,2.76-1.51,5.04-4.54,4.88Zm9.72-12.95c-1.93-.17-2.6-1.76-2.53-3.46,.07-1.72,1.34-2.42,2.91-2.58,1.8,.22,2.61,1.34,2.52,2.97-.09,1.74-.9,3.23-2.9,3.06Zm14.29-15.3c-3.21-.3-5.27-2.14-5.15-5.5,.13-3.54,2.52-5.39,5.8-5.5,3.45-.12,4.78,2.37,5.13,5.03-.11,3.55-2.78,6.25-5.78,5.97Zm192.5-8.71c4.55-2.09,9.25-3.79,14.12-4.95,1.56-.37,3.4-.65,3.35,1.94-1.1,3.92-3.8,6.66-6.61,9.26-5.99,5.52-10.12,4.2-12.48-3.73-.53-1.79,.63-2.07,1.61-2.52Zm14.45,88.53c-5.12-.04-9.31-4.21-9.26-9.23,.05-4.77,4.51-9.16,9.43-9.29,5.31-.14,9.2,3.65,9.27,9.02,.07,5.36-4.09,9.54-9.44,9.5Zm7.53,25.86c.1,5.13-3.4,8.98-8.25,9.09-4.53,.1-8.45-4.06-8.47-8.99-.01-4.6,3.78-8.48,8.39-8.57,4.69-.09,8.23,3.51,8.32,8.47Zm-28.06-72.1c4.88,.03,8.4,3.88,8.23,9-.18,5.43-4.05,9.39-9.15,9.35-5.12-.05-8.65-3.86-8.55-9.22,.1-5.08,4.33-9.16,9.46-9.13Zm5.77,146.09c0,4.15-3.26,7.74-6.91,7.64-3.59-.1-6.39-3.24-6.28-7.07,.11-4.04,3.39-7.4,7.21-7.37,3.4,.02,5.98,2.96,5.97,6.8Zm-12.43-89.36c-.05,5.3-4.01,9.38-9.09,9.35-4.98-.03-8.54-3.68-8.52-8.72,.02-5.39,4.17-9.41,9.63-9.33,4.68,.07,8.03,3.72,7.98,8.7Zm8.25-137.24c2.43,1.37,2.9,3.04-.02,4.34-3.77,1.68-7.65,3.13-11.46,4.71-1.81,.75-2.77-.09-3.46-1.64-.9-2.02-1.93-4-2.72-6.06-1.36-3.58-.09-5.34,3.67-5.29,4.83,.74,9.66,1.5,13.99,3.93Zm-6.7-25.99c.26,1.84-1.36,2.48-2.62,3.14-4.06,2.13-8.5,3.19-12.85,4.53-1.79,.55-2.7,.17-3.14-1.73-.56-2.42-1.34-4.8-2.02-7.19-.6-2.1,.21-2.78,2.07-2.22,5.15,.48,10.13,.88,15.1,1.43,1.38,.15,3.19,.1,3.46,2.04Zm-18.78-35.77c5.79,4.03,11.63,8.06,16.08,13.65,2.91,3.65,2.22,5.27-2.45,6.06-4.49,.76-9.02,1.33-13.51,2.12-4.85,.85-5.58,.28-5.43-4.63-.21-1.15,.34-2.02,1.11-2.74,2.82-2.64,2.72-5.3,.16-8.04-.4-.42-.73-.93-.99-1.46-1.15-2.4-1.41-5.61-.05-7.15,1.44-1.63,3.51,1.09,5.07,2.18Zm-49.27,102.88c.09-3.17,3.17-6.32,6.2-6.33,3.13-.01,5.92,3.13,5.81,6.55-.11,3.47-2.87,6.01-6.4,5.88-3.31-.13-5.71-2.73-5.62-6.1Zm5.41,125.15c.12,4.01-2.51,6.92-6.33,7.02-3.9,.1-6.87-2.72-6.87-6.52,0-3.41,2.96-6.42,6.48-6.59,3.74-.18,6.61,2.43,6.72,6.1Zm11.36-201.07c-.13-3.41,3.07-6.68,6.4-6.4,3.47,.3,4.98,2.63,5.34,5.38,.01,3.78-2.93,6.75-6.19,6.56-3.41-.2-5.42-2.04-5.55-5.54Zm2.97,29.69c-.23,3.23-1.86,5.38-5.41,5.47-3.34,.08-5.69-1.52-6.12-4.98-.35-2.9,3.11-5.8,6.56-5.68,3.16,.11,4.73,1.92,4.96,5.19Zm-5.9-106.95c-3.57-.04-6.01-2.85-5.92-6.82,.1-4.33,3.05-7.18,7.32-7.08,3.68,.09,5.53,2.15,5.4,6.02-.15,4.35-3.23,7.93-6.79,7.89Zm-3.01,41.5c0,3.54-2.63,6.15-6.08,6.06-3.2-.09-5.62-2.71-5.6-6.07,.02-3.5,2.74-6.27,6.07-6.18,3.02,.08,5.62,2.95,5.61,6.19Zm4.48,141.7c3.27,0,5.56,2.59,5.47,6.17-.09,3.77-2.89,6.99-6.04,6.97-3.34-.02-5.77-2.79-5.75-6.56,.02-3.69,2.82-6.6,6.33-6.59Zm7.59,65.26c4.52-.04,7.37,3.04,7.42,8.03,.04,4.67-2.73,7.8-7.05,7.94-4.62,.15-8.13-3.33-8.09-8.02,.04-4.55,3.29-7.9,7.72-7.94Zm4.82-209.83c-3.08-.27-5.38-3.22-5.1-6.55,.3-3.57,3.01-6.1,6.34-5.93,3.22,.17,5.31,2.85,5.02,6.45-.29,3.55-3.15,6.3-6.26,6.03Zm7.7-46.89c3.53,.18,5.22,2.44,5.47,5.77,.26,3.4-2.22,6.21-5.38,6.32-3.21,.11-5.73-2.48-5.78-5.94-.04-3.14,2.73-6.3,5.68-6.16Zm-3.94-25.54c0-3.68,3.7-7.3,7.46-7.27,3.17,.03,5.83,3.08,5.71,6.55-.12,3.68-3.58,7.04-7.15,6.97-3.49-.07-6.01-2.68-6.01-6.26Zm1.64,196.83c.18-3.26,3.18-6.15,6.39-6.15,3.37,0,5.85,2.78,5.76,6.46-.09,3.54-2.78,6.14-6.24,6.04-3.53-.1-6.09-2.85-5.9-6.34Zm7.66-23.4c-3.57-.22-5.19-2.38-5.13-5.87,.06-3.72,2.21-5.71,5.68-6.11,3.18-.36,5.35,2.1,5.34,5.6,0,3.57-2.66,6.57-5.89,6.38Zm14.91-120.59c2.39-.88,4.72-.21,5.72,1.97,1.39,3.04,3.7,3.29,6.45,3.4,2.82,.11,5.57,.58,7.67,2.81,2.61,2.78,2.25,4.61-1.39,5.74-4.39,1.36-8.99,1.52-13.53,1.9-3.67,.3-7.35,.4-11.03,.53-1.11,.04-2.58,.53-3.05-.95-.29-.9-.2-2.12,.19-2.99,.66-1.49,2.02-.72,3.1-.47,4.67,1.05,9.24,.85,14.48-1.08-5.11-3.78-11.81-2.66-15.48-8.02,2.31-.95,4.57-1.96,6.87-2.81Zm50.18-157.79c2.43,.35,4.06,1.64,4.18,4.39-.19,2.3-1.65,3.47-3.82,3.25-2.59-.26-3.83-2.21-3.84-4.64,0-2.06,1.3-3.31,3.48-3Zm-5.43,53.34c1.05-1.58,1.88-1,2.65,.15,6.63,9.9,11.62,20.51,13.87,31.76,.12,4.03-1.6,5.49-4.98,4.44-2.09-.65-4.09-1.67-6.06-2.67-6.31-3.21-12.48-6.72-19.47-8.32-1.47-.34-2.59-.77-1.35-2.6,5.14-7.56,10.25-15.15,15.33-22.75Zm-12.28-67.94c-.1,3.74-3.55,7.18-7.11,7.11-3.89-.08-7.14-3.66-6.98-7.68,.14-3.74,2.64-6.24,6.15-6.14,4.22,.12,8.04,3.34,7.95,6.71Zm-10.07-47.75c3.17,.39,4.74,2.55,4.75,5.94,.01,3.35-2.64,5.98-5.83,5.86-3.57-.14-4.76-2.5-4.8-5.61-.05-3.52,2.46-6.24,5.88-6.18Zm-13.8,170.12c.93-3.05,2.78-5.83,4.36-8.65,.57-1.01,1.47-.66,2.21,.05,6.17,6,11.17,12.95,16.03,19.99,1.36,1.98,.08,3.31-1.82,4.08-8.92,3.61-18.09,6.31-27.61,7.73-2.28,.38-2.6-.67-1.89-2.52,.58-1.52,1.08-3.06,1.65-4.58,1.4-3.72,1.99-8.38,8.12-5.96,1.52,.6,3.76,.11,4.47-1.92,.63-1.82-1.06-2.86-2.06-4.09-1.17-1.42-4.11-2.01-3.46-4.14Zm-6.37-18.72c-3.53-.19-5.29-2.35-5.37-5.76-.08-3.44,2.95-6.35,6.14-6.14,3.02,.2,5.3,2.86,5.19,6.03-.11,3.19-2.88,6.03-5.97,5.86Zm-.42-177.89c3.59-.13,6.37,2.42,6.36,5.83-.01,3.93-3.43,7.87-6.87,7.92-3.61,.06-6.32-2.75-6.29-6.5,.04-4.06,2.9-7.1,6.8-7.24Zm-6.71,97.06c-.03,.11,.06,.32,.15,.38q8.43,5.51,9.04,12.57c-2.21-.23-4.27-1.78-6.57-.9,.1,2.55,1.92,3.08,3.66,2.87,3.17-.39,2.94,1.29,2.58,3.41-.82,4.85-3.64,8.28-7.62,10.89-6.64,4.35-17.51,3.35-22.99-2.08-6.2-6.15-7.48-17.06-3.04-24.07,1.51-2.38,2.43-2.24,4.08-.19,2.05,2.56,4.43,4.86,6.67,7.27-1.14-4.24-3.24-7.76-7.25-10.66,2.82-1.01,3.68-3.74,6.37-4.51,2.59-.74,4.1-.81,3.15,2.6-.47,1.69-.87,3.43-.32,5.49,1.59-1.45,1.33-3.36,1.48-4.9,.38-4.13,2.79-4.57,5.66-3.05,1.98,1.05,6.21,.38,4.95,4.88Zm-10.35-109.04c3.2-.03,5.07,1.96,5.26,5.38-.06,3.2-1.72,5.37-4.99,5.39-3.4,.02-5.49-2.19-5.59-5.56-.1-3.36,2.22-5.18,5.32-5.21Zm-23.07-2.96c3.56-.14,5.92,2.25,6,6.07,.08,3.84-2.41,6.92-5.73,7.09-3.5,.19-6.14-2.55-6.24-6.44-.1-3.88,2.3-6.58,5.98-6.72Zm-17.86-22.49c3.6-.09,5.14,2.28,5.32,5.5-.18,3.71-2.06,5.72-5.56,5.62-3.4-.1-5.47-2.03-5.38-5.62,.08-3.57,2.3-5.41,5.62-5.5Zm-28.26,10.56c.28-3.44,2.39-5.31,5.74-5.46,3-.14,5.55,2.69,5.34,5.75-.24,3.5-2.44,5.09-5.36,5.48-3.37-.02-5.97-2.71-5.72-5.77Zm4.72,75.93c.1-18.26,13.7-31.93,31.56-31.71,16.58,.2,29.42,13.97,29.3,31.4-.13,18.01-13.52,32.14-30.37,32.05-17.46-.1-30.59-13.76-30.5-31.74Zm24.88,250.78c3.04,.08,5.31,2.36,5.32,5.35,.01,3.2-2.69,6.11-5.86,5.99-3.35-.13-5.62-1.67-5.69-5.4-.06-3.49,2.61-6.05,6.23-5.95Zm-5.67,49.52c3.23,0,5.84,2.77,5.73,6.06-.11,3.09-2.96,5.8-6.15,5.82-3.3,.02-5.71-2.57-5.63-6.06,.08-3.22,2.78-5.83,6.05-5.82Zm-3.94,114.75c3.27,.15,5.74,3.07,5.64,6.68-.1,3.74-2.87,6.78-6.19,6.81-3.49,.03-6.18-2.92-6.12-6.71,.06-3.87,3.08-6.94,6.67-6.78Zm-31.71-62.98c2.18-.06,3.42,1.38,3.39,4.04-.21,2.1-1.32,4.01-3.94,3.97-2.15-.03-3.38-1.65-3.46-3.79-.1-2.67,1.56-4.14,4.01-4.22Zm-3.6,29.53c2.85,.18,4.56,1.89,4.43,5.51-.18,2.33-1.49,4.51-4.52,4.34-3.14-.18-4.59-2.49-4.47-5.53,.11-2.78,1.79-4.49,4.55-4.32Zm-5.89-13.88c2.17-.2,3.06,1.25,3.4,3.13-.24,1.99-1.2,3.42-3.23,3.56-2.13,.14-3.19-1.29-3.31-3.24-.13-2.1,1.18-3.27,3.15-3.45Zm-6.46-27.09c1.51,.23,2.4,1.05,2.39,2.61-.01,1.52-.73,2.54-2.36,2.55-1.67,0-2.29-1.16-2.4-2.59-.13-1.62,.87-2.36,2.37-2.58Zm-11.99,9.72c1.48-.03,2.44,.81,2.61,2.38-.18,1.48-.97,2.5-2.47,2.6-1.56,.1-2.48-.86-2.51-2.39-.02-1.49,.81-2.56,2.37-2.6Zm-.59,14.59c3.83,.27,4.48,3.22,4.93,5.92,.03,3.77-2.98,7.76-5.65,7.81-2.76,.05-5.42-3.38-5.43-7,0-3.72,2.87-6.96,6.15-6.73Zm-31.32,268.08c-4.36-.11-7.26-3.32-7.13-7.88,.12-4.19,3.22-7,7.61-6.9,3.75,.09,6.76,3.4,6.73,7.4-.03,4.17-3.26,7.49-7.21,7.38Zm24.85-.59c-3.47-.12-4.91-2.56-4.93-5.64-.02-3.15,2.1-4.95,5.07-5,3.52-.06,4.62,2.56,4.94,5.61-.47,2.94-1.81,5.13-5.08,5.02Zm27.09,.99c-3.33-.06-5.63-1.6-5.83-5.21-.18-3.35,3.25-6.54,7.27-6.57,2.56,.2,4.75,1.35,4.95,4.62,.2,3.37-3.18,7.22-6.39,7.16Zm24.62,.3c-3.65-.25-5.17-2.48-5.18-5.85,0-3.18,3.19-5.75,6.73-5.47,3.21,.25,5.22,1.96,5.35,5.29,.13,3.16-3.4,6.14-6.9,6.04Zm43.83-48.15c-18.82-2.19-35.12-10.7-51-20.32-9.41-5.7-17.88-12.52-25.56-20.37-1.97-2.02-3.22-3.63,.24-5.69-3.18,1.74-4.8,.59-6.68-1.68-21.38-25.9-32.82-55.7-35.53-89.04-.94-11.51-.95-23-.21-34.53,.22-3.36,.67-5.64,4.68-5.68,1.2-.01,2.63-.34,4.07-1.94-2.16-.81-3.81-.44-5.51,.27-1.91,.8-2.61,.35-2.4-1.92,.92-9.72,2.68-19.29,4.48-28.87,.31-1.67,.95-2.16,2.77-2.56,5.44-1.22,9.14-.2,10.83,5.68,.54,1.89,2.16,3.46,3.38,5.32-1.29,.65-2.44,1.23-3.86,1.95,7.08-.99,13.96-1.5,20.21-4.73,2.27-1.17,2.47,.76,3.41,2.07,7.34,10.25,8.84,22.12,10.44,34.18,4.24,32.06,14.4,62.31,28.79,91.23,9.41,18.91,21.74,35.84,35.09,52.02,5.94,7.19,5.07,15.42,5.64,23.53,.19,2.63-2.04,1.23-3.28,1.09Zm7.96-92.6c-5.62,.09-10.21-4.27-10.33-9.83-.12-5.58,3.96-9.92,9.46-10.06,5.58-.14,9.52,4.09,9.58,10.32,.06,5.6-3.47,9.48-8.71,9.57Zm3.97-105.3c.07-3.53,3.02-6.45,6.5-6.43,3.37,.02,5.94,2.75,5.95,6.32,.01,3.66-2.76,6.35-6.46,6.28-3.66-.07-6.06-2.55-5.99-6.17Zm14.62,259.4c-3.46,.15-6.53-3.32-6.58-7.43-.05-3.74,2.55-6.43,6.27-6.51,3.63-.08,6.19,2.56,6.28,6.47,.09,4.01-2.56,7.33-5.97,7.48Zm13.38-161.2c-3.96,.09-6.86-3.14-6.81-7.6,.05-4.44,2.9-7.57,6.89-7.59,3.77-.02,6.64,3.16,6.63,7.33-.01,4.41-2.89,7.78-6.72,7.86Zm11.18,163c-4.4,.1-7.86-3.46-8.02-8.26-.16-4.86,3.29-8.57,8.05-8.65,4.6-.08,7.98,3.33,8.04,8.08,.06,4.82-3.5,8.71-8.06,8.82Zm6.68-162.02c-.06-5.17,4.26-9.51,9.52-9.55,4.55-.04,7.89,3.67,7.85,8.75-.03,5.43-3.86,9.6-8.81,9.59-4.71,0-8.5-3.91-8.56-8.79Zm27.88,154.21c-.24,4.56-3.79,8.03-7.98,7.8-4-.22-6.74-3.75-6.57-8.47,.16-4.51,3.22-7.44,7.67-7.35,4.28,.08,7.12,3.38,6.87,8.01Zm3.53-299.87c-.91,7.18-3.19,13.95-6.15,21.29-4.15-5.07-7.64-9.45-11.25-13.71-1.1-1.29-1.15-2.17,.18-3.25,4.46-3.61,9.73-5.49,15.14-6.99,2.39-.66,2.28,1.16,2.08,2.66Zm74.23,86.09c2.39-2.82,5.04-5.39,8.15-7.39,1.41-.91,2.87-2.72,4.68-1.65,1.59,.95,.5,3,.84,4.27-.32,5.8-1.95,10.94-4.32,15.91-.92,1.93-1.81,2.44-3.6,1.03-1.5-1.18-3.16-2.15-4.73-3.25q-5.4-3.77-1.02-8.93Zm-9.4,32.59c.28-3.4,3.27-6.13,6.5-5.93,3.38,.21,5.94,3.24,5.61,6.66-.33,3.48-3.26,5.93-6.69,5.59-3.41-.34-5.69-3-5.43-6.31Zm13.11,52.73c-.1,3.41-3.28,6.55-6.59,6.51-3.49-.05-5.9-2.45-5.85-5.86,.05-3.59,3.24-6.75,6.85-6.76,3.26-.01,5.7,2.65,5.59,6.11Zm-9.85-34.84c3.35-.09,6.04,2.71,6.02,6.27-.02,3.78-2.98,6.97-6.55,7.06-3.47,.09-6.27-2.57-6.33-6-.07-3.75,3.19-7.23,6.86-7.33Zm-24.64-22.04c3.23,.13,5.41,2.77,5.3,6.38-.11,3.55-3.07,6.33-6.66,6.25-3.32-.07-5.8-2.71-5.69-6.05,.12-3.52,3.56-6.73,7.04-6.58Zm-34.64,10.84c3.69-.05,6.75,3.15,6.87,7.15,.12,4.37-3.35,8.41-7.27,8.44-3.84,.03-6.8-3.34-6.76-7.68,.05-4.49,3.1-7.86,7.16-7.91Zm3.8,180.69c-3.02-.21-5.13-1.9-5.47-5.36-.31-3.14,2.89-6.16,6.58-6.31,3.36-.14,5.33,1.41,5.43,4.88,.1,3.63-2.72,6.67-6.54,6.79Zm-.64-117c-5.06,.17-8.85-3.6-8.88-8.84-.03-5.33,3.78-9.36,8.98-9.48,4.83-.11,8.58,3.61,8.66,8.62,.09,5.31-3.72,9.53-8.76,9.71Zm6.56-141.64c-3.63-4.64,2.57-4.81,3.72-7.31,1.11,2.12-.4,3.37-.55,5.05,.74,1.27,1.88-.42,2.6,.17,3.56,2.9,4.99,.18,6.05-2.47,1.31-3.29,3.81-4.59,6.97-5.38,2.54-.64,2.85,.33,2.21,2.43-1.76,5.8-4.14,11.31-7.36,16.46-1.08,1.73-2.26,2.14-3.87,.58-3.27-3.18-7-5.97-9.78-9.53Zm3.59,39.13c-.26-3.36,3.16-6.51,7-6.42,3.21,.07,5.38,1.58,5.66,4.98,.29,3.44-2.68,6.29-6.95,6.39-2.71-.25-5.42-1.15-5.72-4.95Zm15.7,65.02c3.15-.08,6.2,2.59,6.34,5.53,.14,3.09-2.57,5.7-5.98,5.76-3.4,.06-6.15-2.34-6.29-5.48-.13-3.07,2.59-5.74,5.93-5.82Zm-.11,83.48c-3.29-.13-5.67-1.61-5.81-5.26-.14-3.57,3.49-7.06,7.17-6.85,3.41,.2,5.4,2,5.52,5.56-.02,3.59-3.17,6.7-6.88,6.55Zm7.71-36.36c-3.21,.04-6.2-3.15-6.3-6.73-.11-3.79,2.78-7.22,6.17-7.32,3.47-.1,6.59,3.16,6.61,6.89,.02,3.59-3.18,7.12-6.48,7.16Zm7.2-124.41c1.87-1.31,3.83-4,5.93-2.83,2.04,1.13,.47,3.98,.02,6.05-.28,1.27-.69,2.52-1.17,4.24-1.87-1.52-3.19-2.67-4.58-3.71-1.61-1.21-2.15-2.38-.2-3.75Zm9.26,180.71c-3.94,.12-6.44-2.5-6.41-6.73,.03-4.47,3.69-8.25,8.06-8.33,3.49-.06,6.24,2.83,6.27,6.59,.03,4.46-3.59,8.34-7.92,8.47Zm9.14-50.55c-2.87-.4-5.29-1.7-5.4-5.38-.1-3.21,2.79-5.83,6.39-5.83,3.3,0,5.29,1.52,5.38,4.98,.08,3.44-2.67,6.25-6.36,6.23Zm11.74,28.82c-3.68-.02-6.54-2.81-6.5-6.36,.04-3.64,3.18-6.81,6.73-6.78,3.5,.03,6.32,3.04,6.2,6.63-.12,3.62-2.98,6.53-6.43,6.51Zm68.99-100c6.05-5.4,12.28-10.63,20-13.5,4.42-1.64,5.74-.53,5.61,4.65-.37,4.82-2,9.96-4.29,14.96-.99,2.16-2.22,2.27-4.19,1.64-5.32-1.73-10.67-3.34-16.02-4.96-1.62-.49-3.1-1.01-1.11-2.79Zm-15.55,21.91c3.72-.1,6.32,2.47,6.4,6.35,.1,4.54-3.97,8.66-8.71,8.83-3.82,.14-6.16-2.03-6.24-5.79-.11-5.1,3.67-9.25,8.55-9.38Zm-29.88-45.19c3.6-2.86,7.32-5.5,11.4-7.61,5.96-3.09,9.91-1.22,11.3,5.39,.42,2,.38,4.1,.55,6.16q-.19,12.58-11.31,6.88c-3.93-2.03-7.72-4.36-11.69-6.32-3.07-1.51-2.62-2.62-.26-4.49Zm9.78,59.47c-.04,3.27-2.01,5.24-5.22,5.49-3.23,.24-5.12-1.75-5.11-4.8,.02-3.3,2.3-4.9,5.5-5.21,2.96,.06,4.86,1.47,4.82,4.52Zm-12.82-33.73c3.94,.09,6.41,3.03,6.31,7.51-.1,4.46-3.37,7.89-7.38,7.74-3.97-.15-6.82-3.25-6.69-7.26,.15-4.58,3.55-8.08,7.75-7.98Zm-12.14,49.46c.11-3.78,3.4-6.44,7.99-6.44,4.1,0,6.68,2.32,6.62,5.99-.06,3.75-3.98,7.24-8.06,7.16-4.03-.08-6.67-2.78-6.55-6.7Zm12.59,26.99c.02-4.16,3.11-7.2,7.33-7.22,3.87,0,6.25,2.48,6.21,6.48-.04,4.22-3.24,7.45-7.23,7.3-3.74-.14-6.33-2.83-6.32-6.56Zm13.95,35.4c-3.78-.07-6.38-3.01-6.21-7.04,.16-3.85,3.05-6.58,6.88-6.5,3.55,.07,5.9,2.56,5.91,6.27,0,4.26-2.78,7.34-6.59,7.27Zm10.48-48.59c-4.04,.01-6.71-2.83-6.71-7.13,0-5,3.87-8.94,8.59-8.76,4,.15,6.55,3.06,6.52,7.41-.04,4.71-3.75,8.47-8.4,8.49Zm17.02,9.37c3.34,.08,5.46,2.27,5.45,5.65-.01,3.58-3.26,7.08-6.69,6.86-3.27-.21-5.64-1.79-5.72-5.44-.09-3.84,3.25-7.15,6.97-7.06Zm7.18,31.34c-.38,3.72-3.68,6.55-7.25,6.19-3.54-.35-6.11-3.6-5.64-7.1,.46-3.38,3.59-5.58,7.45-5.23,3.55,.32,5.77,2.83,5.43,6.14Zm4.07-61.2c-3.25,.02-5.39-1.54-5.67-4.92-.25-3.15,2.84-6.19,6.6-6.3,2.75,.19,4.97,1.61,5.28,4.97,.28,3.05-2.92,6.23-6.22,6.26Zm17.1,53.2c-3.39-.04-5.91-2.56-5.91-5.89,0-3.68,3.11-7,6.62-7.06,3.2-.06,5.68,2.53,5.79,6.03,.12,3.87-2.8,6.98-6.49,6.93Zm2.77-31.26c-3.02-.03-5.5-2.89-5.43-6.27,.07-3.48,2.69-5.97,6.32-5.84,3.43,.12,5.48,1.78,5.52,4.92-.13,3.86-3.34,7.22-6.41,7.19Zm8.83-39.22c-.2,2.94-3.37,5.61-6.58,5.27-3.24-.34-5.69-1.8-5.58-5.55,.09-2.95,3.26-5.49,6.5-5.38,3.07,.1,5.85,2.88,5.66,5.66Zm10.51,13.41c3.17,0,5.65,2.48,5.59,5.56-.06,3.19-3.21,6.15-6.4,6.04-3.05-.11-5.48-2.79-5.32-5.86,.16-3.19,2.88-5.74,6.13-5.73Zm1.31,43.66c-3.36-.03-5.82-2.58-5.76-5.98,.06-3.5,3.2-6.64,6.58-6.33,3.51,.32,5.04,2.63,5.3,5.43-.08,3.93-2.94,6.9-6.12,6.87Zm8.93-68.91c-4.18-.5-8.39-.84-12.94-2.14,3.51-3.71,6.45-7.2,10.26-9.77,4.6-3.09,7.61-2.02,9.47,3.24,2.94,8.36,1.89,9.69-6.79,8.66Zm14.46,37.75c-3.08-.16-5.44-1.52-5.55-5.02-.1-3.13,2.71-6.11,5.78-6.11,3.3,0,5.13,1.79,5.44,4.55,.11,3.76-2.55,6.74-5.67,6.58Zm21.12,10.49c-3.04-.3-4.93-2.06-4.81-5.24,.14-3.67,3.02-4.26,5.79-4.75,2.75,.39,5.08,1.17,5.25,4.4,.14,2.74-3.27,5.89-6.22,5.59Zm7.12-28.76c-.73,2.83-2.57,4.76-5.87,4.34-2.88-.36-4.54-2.36-4.08-5.25,.53-3.27,3.07-4.64,6.15-4.3,2.65,.29,4.12,2.07,3.8,5.21Zm3.74-26.26c-2.28-3.32-2.62-7.14-2.9-10.64,.26-4.64,1.02-8.84,2.58-12.87,1.07-2.79,2.8-4,5.85-2.39,4.6,2.42,8.81,5.37,12.91,8.53,1.79,1.38,1.51,2.48,.28,3.99-4.2,5.19-9.05,9.72-13.93,14.23-1.84,1.7-3.45,1.09-4.78-.85Zm10.46,14.52c.1-2.44,2.06-3.59,4.25-3.69,2.31-.1,3.3,1.58,3.54,3.72-.23,2.43-1.54,3.93-3.95,3.93-2.42,0-3.94-1.58-3.84-3.96Zm6.52,26.13c-3.06,.17-4.99-1.63-5.25-4.79-.25-2.99,2.4-5.68,5.92-5.78,2.78,.18,4.55,2.05,4.57,5.08,.02,3.26-2.04,5.31-5.23,5.49Zm39.23-179.94c1.69-.07,2.74,.87,2.9,2.64-.2,1.74-1.32,2.71-2.93,2.67-1.65-.04-2.69-1.14-2.61-2.91,.07-1.63,1.23-2.35,2.64-2.41Zm-3.58,18.25c2.22-.12,3.35,1.43,3.68,3.48-.16,2.59-1.82,3.84-4,3.89-2.01,.05-3.11-1.54-3.08-3.54,.03-2.16,1.24-3.72,3.4-3.84Zm-6.57,37.6c1.86,.23,3.25,1.1,3.33,3.23,.08,2.27-1.14,3.66-3.36,3.68-2.26,.02-3.46-1.54-3.45-3.67,.01-2.04,1.39-3.08,3.48-3.24Zm4.25,47.45c-.42,2.77-1.52,5.22-5.03,5.36-2.97,.12-5.57-2.67-5.3-5.82,.27-3.15,2.05-5.39,5.33-5.35,3.33,.04,4.87,2.3,5,5.8Zm-20.55-100.34c-1.21-1.45-.99-2.82,.77-3.55,1.56-.64,3.8-1.73,4.41,.78,.62,2.55,2.08,3.48,4.26,3.68,3.21,.29,2.99,2.69,3.38,6.16,.05,.65-.87,.98-2.54,.35-4.11-1.53-7.48-4.09-10.28-7.42Zm6,43.82c-3.41,.08-6.26,.28-8.6-1.67-1.42-1.18-2.36-2.71-1.92-4.64,.41-1.8,1.89-2.56,3.54-2.89,4.13-.82,8.19-.06,12.24,.71,1.56,.3,1.94,1.27,1.3,2.57-.93,1.9,.66,5.09-2.76,5.7-1.44,.25-2.93,.18-3.79,.23Zm-11.51,35.66c.08-3.95,3.06-3.31,5.42-3.26,5.53,.11,9.11,2.36,9.02,5.45-.08,2.81-3.79,7.6-5.7,7.35-3.52-.46-8.81-6.24-8.74-9.54Zm5.4,75.05c-3.25,.12-4.62-2.13-5.01-5.15,.19-3.14,1.59-5.48,4.95-5.7,3.12-.21,5.2,1.54,5.14,4.74-.06,3.18-1.38,5.97-5.08,6.11Zm4.92-25.67c-2.26,.06-3.53-1.5-3.37-3.73,.17-2.43,1.85-3.5,3.8-3.68,2.45,.1,3.78,1.08,3.76,3.24-.03,2.66-1.71,4.1-4.18,4.17Zm9.63,15.94c-3.57,0-4.97-2.25-5.15-5.39-.19-3.41,3.04-6.68,6.33-6.68,3.08,0,5.26,2.25,5.2,5.36-.07,3.49-3.1,6.7-6.38,6.71Zm5.06-69.12c.08-2.64,1.63-4.1,4.22-4.04,2.43,.06,3.8,1.57,3.71,4-.09,2.66-1.54,4.32-4.17,4.79-2.65-.57-3.84-2.25-3.77-4.75Zm6.05,45.41c-2.85-.19-4.41-2.13-4.32-5.07,.09-2.83,1.84-4.38,4.48-4.34,2.87,.04,4.44,1.88,4.6,4.71-.28,3.01-1.83,4.89-4.76,4.69Zm2.3-71.28c-3.19,0-4.49-2.33-4.8-5.28,.38-2.93,1.66-5.26,4.89-5.2,3.16,.06,4.77,2.29,4.74,5.28-.03,2.98-1.69,5.2-4.82,5.19Zm5.02-40.66c.1-2.15,1.31-3.77,3.54-3.71,2.54,.07,3.71,1.97,4.26,4.15-.5,2.39-1.75,4.03-4.12,4.01-2.75-.02-3.8-1.97-3.69-4.46Zm6.93,100.81c-2.57-.29-3.93-2.05-3.74-4.6,.22-2.98,2.08-4.54,5.03-4.33,2.64,.19,3.82,1.91,3.7,4.61-.5,2.71-1.9,4.65-4.99,4.31Zm2.61-23.33c-2.93,.13-4.67-1.93-4.6-4.85,.09-3.48,2.82-4.49,5.51-5.22,2.83,.46,4.67,1.88,4.52,4.69-.18,3.24-2.34,5.25-5.44,5.38Zm6.05-32.05c-.18,3.33-2.56,5.06-5.75,5.6-2.92-.39-5.15-1.6-5.49-4.75-.3-2.74,2.97-5.71,6.13-5.62,3.03,.09,5.27,1.6,5.1,4.77Zm-6.19-21.25c-3.45-.38-5.36-2.04-5.36-5.44,0-3.01,3.28-6.08,6.49-5.94,3.34,.15,5.12,2.14,5.2,5.38,.08,2.99-3.49,6.11-6.33,6Z"/>
  <path d="M477.93,170.28c-4.83-12.87-9.15-25.13-17.31-35.48-1.31-1.66-1.15-2.79,.67-3.91,2.26-1.39,4.41-2.95,6.6-4.44,5.72-3.91,5.75-3.94,9.27,1.8,4.54,7.41,8.57,15.15,14.26,21.81,1,1.17,1.18,2.24,.12,3.52-4.4,5.33-8.74,10.71-13.62,16.7Z"/>
  <path d="M543.62,240.79c.15,.93-.87,1.92-2.25,2.67-4.79,2.59-9.59,5.15-14.37,7.74-2.23,1.21-2.64,.14-2.86-1.93-1.01-9.21-1.49-18.5-4.33-27.42-.51-1.62,.23-2.09,1.57-2.42,4.43-1.08,8.86-2.18,13.27-3.32,2.51-.65,3.46,1.02,4.29,2.81,3.1,6.67,3.63,13.9,4.68,21.87Z"/>
  <path d="M489.75,110.49c1.03-.13,1.62,.57,2.24,1.19,6.03,5.98,10.19,13.31,14.65,20.43,1.02,1.63,.07,2.81-.85,3.96-2.94,3.69-5.98,7.29-8.86,11.03-1.49,1.93-2.31,1.64-3.44-.34-4.83-8.44-9.7-16.86-15.61-24.63-.65-.86-1.28-1.73-.12-2.64,3.71-2.9,7.44-5.79,11.17-8.67,.22-.17,.54-.22,.81-.32Z"/>
  <path d="M515.29,220.79c1.44-.14,1.68,1.37,1.89,2.88,1.29,9.34,1.77,18.79,3.76,28.03,.39,1.8-.39,2.7-1.99,3.35-3.27,1.34-6.5,2.8-9.72,4.24-2.23,1-3.1,.29-3.42-2.13-1.42-10.63-1.75-21.49-6.07-31.57-.45-1.05-.58-2.06,.93-2.32,4.65-.8,9.3-1.58,14.61-2.47Z"/>
  <path d="M510.13,130.31c-3.73-8.69-8.45-15.39-14.5-21.13-1.09-1.04-1.96-1.81-.19-3.02,5.47-3.73,10.14-8.57,16.05-11.69,5.46-2.88,8.67-1.36,8.97,4.71,.56,11.33-3.87,21.11-10.33,31.13Z"/>
  <path d="M347.34,80.33q.18,9.18-8.64,6.62c-7.91-2.28-14.8-6.36-21.12-11.58-1.8-1.49-2.17-2.79-1.47-4.83,1.05-3.06,1.04-7.52,3.12-8.89,2.28-1.5,4.82,2.67,7.46,4.04,5.01,2.61,10.16,4.98,15.74,5.46,4.06,.35,5.46,1.81,4.93,5.65-.16,1.16-.02,2.35-.02,3.53Z"/>
  <path d="M540.1,214.45c7-1.86,13.21-3.69,19.52-5.14,5.09-1.17,6.84,.54,6.32,5.77-.62,6.31-3.75,11.38-8.05,15.84-3.16,3.29-6.61,6.21-11.16,9.03,0-9.15-.3-17.81-6.63-25.5Z"/>
  <path d="M411.39,74.39c-.06,.32-.08,.46-.11,.61-2.07,11.31,.42,11.16-11.78,7.32-5.99-1.88-11.1-5.33-15.98-9.19-1.64-1.3-2.17-2.5-.87-4.44,1.71-2.56,2.56-6.59,4.83-7.6,2.33-1.04,4.56,2.94,7.07,4.37,4.48,2.56,8.94,5.11,14.08,6.15,1.55,.31,3.46,.46,2.76,2.78Z"/>
  <path d="M413.83,38.35c0,3.25-.05,6.5,.02,9.74,.04,2.32-.7,3.3-3.16,2.48-4.53-1.52-8.68-3.69-12.47-6.59-1.5-1.15-1.91-2.27-.94-4.13,3.61-6.94,7.03-13.98,10.57-20.96,.5-.98,.83-2.51,2.35-2.23,1.34,.25,1.52,1.68,1.81,2.8,1.62,6.19,1.97,12.53,1.82,18.88Z"/>
  <path d="M346.38,26.84c.61,8.88,.15,9.2-8.06,5.54-.27-.12-.53-.26-.79-.38q-8.09-3.89-5.16-12.41c1.82-5.28,3.63-10.56,5.54-15.81,.53-1.46,.71-3.85,2.46-3.77,1.97,.09,2.19,2.56,2.62,4.19,1.95,7.42,2.98,14.99,3.4,22.65Z"/>
  <path d="M347.19,61.52c.16,7.76,.17,7.73-6.37,5.78-6.29-1.87-11.9-4.95-17.18-8.85-2.52-1.87-3.26-3.5-2.18-6.56,2.49-7.08,2.29-7.07,8.46-3.02,3.45,2.27,7.03,4.66,11.1,5.3,5.04,.8,7.41,2.9,6.17,7.35Z"/>
  <path d="M413.38,56.99c-.27,2.52-.52,4.72-.75,6.92-.56,5.42-.57,5.46-5.83,3.42-5.54-2.15-10.53-5.24-15.21-8.91-2.05-1.61-2.16-2.96-1.01-5.21,3.83-7.43,3.72-7.44,10.71-3.41,2.94,1.69,5.96,3.27,9.33,3.96,2,.41,3.36,1.17,2.77,3.23Z"/>
  <path d="M328.8,30.51c5.2,3.22,10.36,6.01,16.19,7.19,1.73,.35,1.94,1.49,1.93,2.92-.01,2.06,.06,4.12,.08,6.18,.06,5.99,.04,6.03-5.77,3.96-4.6-1.64-8.75-4.09-12.77-6.88-2.89-2.01-3.84-4.08-2.03-7.33,.99-1.76,1.51-3.79,2.37-6.04Z"/>
  <path d="M275.74,499.24c5.02-.93,9.95-1.45,14.88-.17-4.94,2.61-9.99,.36-14.88,.17Z"/>
  <path d="M278.89,482.69c4.3-.77,8.54,.55,12.81,1.26h-12.83c0-.42,.02-.84,.03-1.26Z"/>
  <path d="M288.93,519.22c-3.24,.81-6.07,.11-10.05-.55,5.42-1.42,6.71-1.31,10.05,.55Z"/>
  <path d="M241.95,661.54c16.72,1.33,33.43,.44,50.16,1.13-16.67,1.82-33.39,.04-50.07,1.32-.03-.82-.06-1.63-.09-2.45Z"/>
  <path d="M264.86,711.46c3.99-4.4,8.12-8.61,15.13-9.14-3.73,5.88-8.69,8.67-15.13,9.14Z"/>
  <path d="M321.66,782.55c4.67-5.87,11.33-8.24,18.3-10.02-5.55,4.27-11.8,7.26-18.3,10.02Z"/>
  <path d="M290.19,722.08c-5.46,3.71-10.3,1.79-15.94,.92,5.46-2.89,10.24-3.37,15.94-.92Z"/>
  <path d="M268.13,615.6c5.7-.99,10.96-1.6,16.58-1.25-2.63,2.86-9.45,3.33-16.58,1.25Z"/>
  <path d="M252.61,644.62c-5.22,2.55-9.41,2.09-13.63,1.19,3.97-1.98,8.02-3.27,13.63-1.19Z"/>
  <path d="M293.42,696.7c2.43-2.08,4.99-3.01,7.75-3.33,1.02-.12,2.27-.13,2.35,1.23,.06,.99-.99,1.37-1.88,1.46-2.73,.25-5.48,.44-8.22,.65Z"/>
  <path d="M356.95,208.34c3.73,5.71,2.24,13.79-3.42,18.5-6.03,5.02-14.98,4.74-20.63-.63-4.32-4.11-5.87-10.85-3.75-16.3,2.22-5.71,7.87-9.64,14.06-9.8,5.88-.15,11.52,3.25,13.84,8.35-.74-.71-1.37-1.61-2.22-2.09-3-1.69-5.51-.42-7.14,2.05-1.4,2.12-1.17,4.64,1.21,6.15,2.7,1.72,4.96,.64,6.86-1.66,1.13-1.37,.7-3.07,1.19-4.57Z"/>
  <path d="M287.73,183.39c4.61,6.98,2.49,16.48-4.72,21.15-6.81,4.42-16.62,2.28-21.08-4.58-4.57-7.03-2.42-16.85,4.67-21.4,6.88-4.41,16.98-2.06,21.25,4.95-.92-.71-1.74-1.66-2.77-2.07-2.72-1.09-4.93,0-6.35,2.35-1.31,2.18-.87,4.34,1.33,5.73,2.58,1.64,4.7,.62,6.5-1.54,1.14-1.37,.71-3.08,1.16-4.59Z"/>
  <path d="M378.5,279.72c1.89,2.31,2.26,4.9,2.07,8.37-2.12-2.92-2.85-5.48-2.07-8.37Z"/>
</svg>