<?xml version="1.0" encoding="UTF-8"?>
<svg id="Layer_1" data-name="Layer 1" xmlns="http://www.w3.org/2000/svg" viewBox="0 0 864 864">
  <path d="M735.52,435.55c-4.12,1.41-8.09,2.61-11.94,4.11-10.78,4.21-12.14,7.46-7.42,18.12,4.82,10.9,12.14,20.31,18.33,30.39,2.23,3.64,4.5,7.26,6.41,11.14-6.31-6.02-12.28-12.29-19.19-17.57-5.12-3.91-10.46-7.37-16.69-9.2-9.87-2.91-14.98,1.88-12.74,11.9,.37,1.64,.83,3.26,1.35,5.27-2.57-1.06-4.7-2.21-6.99-2.84-7.86-2.18-13.49,1.9-13.5,10.06,0,9.31,3.05,18.07,5.62,26.9,.73,2.5,1.56,4.97,2.74,8.68-4.09-3.32-7.17-5.84-10.27-8.32-6.88-5.5-14.43-9.79-22.76-12.68-1.91-.66-3.87-1.23-5.86-1.55-4.35-.71-9.88-1.67-12.47,1.35-1.87,2.18,2.49,6.38,4.33,9.49,12.7,21.44,26.73,42.12,36.95,64.98,11.23,25.13,18.81,51.08,19.48,78.87,.93,38.36-14.73,68.72-43.58,93.06-26.37,22.25-57.23,35.64-89.76,45.75-12.5,3.89-25.2,7.1-38.11,9.33-3.03,.52-5.03,1.83-6.75,4.34-2.19,3.19-4.82,6.07-7.72,9.65,4.45,.43,8.51,.84,12.57,1.21,14.14,1.3,25.13,9.25,28.5,20.64,.13,.45,.32,.88,.42,1.34,1.66,7.45,0,9.39-7.6,8.91-5.71-.36-10.65-3.42-16.15-4.53-5.84-1.18-6.26-.89-5.75,4.47-9.05,3.12-17.31-1.3-25.92-2.67-1.39-.22-2.75-.6-4.14-.74-1.5-.15-3.41-1.05-4.41,.22-1.26,1.59,1.95,2.15,1.47,4.12-4.54-.6-9.08-1.14-13.4-3.14-10.08-4.65-19.77-5.54-29.49,1.71-6.7,4.99-12.84,3.43-17.79-3.35-5.49-7.52-8.85-16.09-11.48-24.93-.7-2.35-1.69-3.25-4.22-3-24.55,2.43-49.15,3.42-73.8,1.67-.58-.04-1.17,.15-2.18,.3,3.11,6.82,4.08,13.54,1.18,20.51-4.42,10.59-13.32,14.41-23.97,10.02-2.15-.89-4.19-2.07-6.24-3.18-8.81-4.78-18.3-3.93-26.23,2.27-2.08,1.62-4.19,3.33-6.54,4.46-4.78,2.3-8.82,.02-9.29-5.21-.19-2.13-1.48-2.14-2.84-2.21-5.74-.29-10.66,1.69-14.93,5.5-.87,.78-1.46,2.5-2.82,2.07-1.48-.47-1.8-2.34-1.65-3.58,.5-4.11-1.44-3.89-4.38-3.02-6.88,2.03-13.44,5.5-21.62,3.74,.5,.81,.15,.48,.22,.32,2.18-5.48-1.23-4.92-4.66-4.33-3.54,.6-7.16,1.08-10.24,3.05-3.62,2.32-4.53-.3-5.02-2.79-1.44-7.29,.41-13.94,4.82-19.82,6.89-9.19,16.97-11.69,27.63-12.5,12.32-.93,24.61,.32,36.89,1.25,3.85,.29,7.72,.37,11.67,.55,.12-2.28-1.64-2.84-2.58-3.92-34.92-40.48-54.98-86.6-52.65-140.89,.83-19.27,6.31-37.79,12.16-56.05,18.41-57.41,37.05-114.76,59.91-170.61,15.47-37.79,34.9-73.4,58.37-106.85,13.61-19.39,26.79-39.11,35.71-61.25,1.68-4.17,2.81-8.59,3.82-12.98,.47-2.04,1.07-2.55,3.06-2.06,6.88,1.68,13.67,1.2,20.14-1.65,3.4-1.49,3.53-.1,3.28,2.71-1,11.35-2.99,22.54-4.87,33.76-.23,1.36-.82,2.28-2.02,2.92-9.4,5.07-18.96,8.43-29.14,2.13-2.68-1.66-3.8-.47-5.07,1.72-2.58,4.44-5.2,8.89-8.09,13.13-1.89,2.76-1.79,4.08,1.64,5.26,10.95,3.77,21.87,4.76,32.94,.64,.72-.27,1.47-.45,2.21-.64,.1-.03,.25,.13,.98,.54-2.29,7.21-4.61,14.57-6.96,21.93-.58,1.82-2.25,2.01-3.76,2.3-13.45,2.51-26.4,1.41-38.39-5.73-2.13-1.26-3.42-1.44-4.93,.88-3.31,5.09-6.81,10.07-10.39,14.98-1.46,2-1.39,3.25,.9,4.34,15.61,7.46,31.61,10.39,48.43,4.34,2.2-.79,3.69-2.13,4.39-4.44,7.57-25.02,16.84-49.6,21.23-75.47,2.52-14.87,4.6-29.93,1.89-45.1-.38-2.09,.04-3.87,1.19-5.73,1.69-2.73,2.97-5.72,4.03-8.84-3.04,3.78-5.62,7.83-8.77,11.47-12.89,14.88-28.82,25.99-46.23,34.41-35.49,17.17-70.39,35.5-105.68,53.06-17.82,8.87-36.63,13.08-56.65,9.73-10.88-1.82-22.11-7.11-28.21-13.52,3.82-.76,7.34-1.68,10.92-2.09,2.87-.33,3.63-1.63,3.41-4.3-.31-3.62,.54-7.14,1.64-10.56,.62-1.95,1.55-4.49,3.47-4.7,5-.56,3.46-3.31,2.8-6.2-.94-4.09-1.63-8.25-2.39-12.38-.27-1.49-.59-2.68-2.6-2.42-1.78,.23-2.98,.77-2.93,2.81,.09,3.74,.15,7.48,.21,11.22,.07,4.11-.63,8.09-2.3,11.84-1.74,3.9-4.35,4.54-7.8,2.02-4.88-3.58-9.11-13.49-9.07-21.76,1.81,5.88,3.31,11.4,7.09,15.83,1.5,1.76,3.06,3.98,5.74,3.29,2.69-.69,3.03-3.47,3.42-5.68,.95-5.4,.31-10.89,.34-16.34,.02-2.78-1.92-2.26-3.59-2.25-6.52,.07-13.02,.64-19.56,.5-4.02-.09-6.06-1.56-7.78-5.14-7.86-16.36-13.75-33.12-12.19-51.67,1.02-12.1,6.35-23.5,14.33-30.28,.82,3.68,1.39,7.31,2.45,10.78,2.45,8.02,7.37,11.9,15.68,12.31,17.2,.84,31.25-6.28,43.02-18.12,12.29-12.36,19.7-27.95,27.28-43.34,5.52-11.21,11.3-22.25,19.24-31.98,12.73-15.6,29.99-23.96,48.59-30.11,6.37-2.11,12.9-3.61,19.48-4.9,1.52-.3,3.13-.44,2.56-2.86-1.76-7.42,.75-14.21,3.58-20.82,6.56-15.32,16.5-28.16,29.1-39.02,6.61-5.7,13.37-11.27,18.94-18.04,3.58-4.36,6.81-8.96,6.79-16.3,4.57,9.52,5.34,18.3,3.98,27.34-1.91,12.64-7.31,24.11-12.31,35.69-4.2,9.74-7.69,19.74-11.4,29.67-1.04,2.78-.29,3.64,2.43,3.61,1.08-.01,2.17,.21,3.25,.36,13.07,1.92,13.57,2.14,18.66-9.79,7.07-16.57,19.73-27.27,34.76-35.92,8.51-4.9,17.02-9.82,24.74-15.94,1.71-1.35,3.37-2.78,4.98-4.24,6.57-6,10.82-12.91,8.62-22.43,6.03,10.46,9.55,21.29,6.72,33.49-4.64,19.98-15.81,36.05-29.86,50.43-5.45,5.57-10.93,11.11-16.49,16.57-1.96,1.93-2.52,3.06,.45,4.72,4.2,2.34,7.94,7.12,12.13,7.44,4.05,.31,5.85-6.25,9.48-9.06,9.08-7.03,19.78-9.71,30.65-11.9,13.9-2.8,27.93-4.93,41.49-9.28,5.35-1.72,10.56-3.76,15.56-6.33,10.3-5.29,18.05-12.71,20.72-24.47,.31-1.35,.94-2.64,1.47-3.93,.1-.24,.41-.38,.95-.85-.44,10.99-2.6,21.17-8.17,30.46-15.29,25.49-38.33,40.76-65.96,50-7.37,2.46-15.02,4.14-21.9,8.02-2.63,1.49-3.07,2.27-1.19,5.37,3.23,5.31,5.47,8.59,12.8,5.42,5.49-2.37,11.95,.59,17.78,2.3,14.02,4.11,28.19,7.05,42.87,5,18.54-2.59,34.95-9.28,45.81-25.62,1.87-2.82,3.09-6.06,5.02-9.92,.02,4.8-1.39,8.36-3.36,11.75-7.34,12.56-18.2,21.64-29.89,29.81-23.29,16.27-49.35,18.66-76.51,14.71-3.62-.53-4.24,.03-3.49,3.47,.72,3.33-.16,7.42,1.48,10.03,1.69,2.68,5.86,.32,8.99,.96,13.64,2.76,26.63,7.75,40.04,11.24,9.08,2.35,18.19,4.37,27.69,3.43,15.54-1.54,25.87-9.93,30.48-24.89,.21-.67,.47-1.33,1.06-1.8-.59,11.66-6.93,20.2-15.97,26.46-22.59,15.63-47.42,19.7-73.96,12.43-5.85-1.6-11.59-3.65-17.3-5.7-2.43-.87-3.15-.46-3.47,2.19-.54,4.47-1.62,8.88-2.46,13.32-.28,1.48-1.02,3.21,1.74,3.06,8.38-.46,14.96,3.86,21.29,8.43,8.35,6.03,16.53,12.22,26.34,15.84,14.72,5.43,29.42,6.1,44.7-.08-19.34,17.74-41.3,24.5-66.63,20.39-12.05-1.95-23.29-5.76-33.04-13.28-2.46-1.89-3.85-2.03-4.92,1.3-2.28,7.13-5.41,13.94-8.49,20.76-.61,1.35-1.63,2.68,.03,4.19,6.92,6.27,12.36,14.08,20.26,19.33,8.9,5.92,18.47,8.96,29.22,6.87,5.79-1.13,10.23-4.35,13.73-9.05-1,5-4.37,8.06-8.83,9.97-7.64,3.27-15.51,2.99-23.38,.88-11.21-2.99-21.55-8.13-31.97-13.06-5.9-2.79-5.93-2.71-8.7,3.26-9.88,21.35-20.66,42.27-29.34,64.18-13.24,33.43-16.43,67.97-11.99,103.39,2.42,19.34,5.08,38.65,12.79,56.81,.67,1.57,1.39,3.11,2.64,5.89,2.65-6.21,5.6-11.17,8.71-16.03,20.14-31.39,42.68-61.05,65.28-90.66,9.36-12.27,18.79-24.48,28.16-36.75,1.36-1.77,2.28-3.51,5.18-1.92,26.31,14.42,49.2,32.66,66.99,57.19,15.79,21.78,21.65,45.56,17.21,72.01-.85,5.07-1.51,10.17-2.27,15.26-.07,.45-.26,.88-.54,1.8-1.74-2.63-1.89-5.42-2.65-7.95-2.19-7.31-4.16-14.7-7.24-21.71-.76-1.74-.96-4.44-3.63-4.18-2.39,.23-2.9,2.73-3.44,4.59-2.24,7.69-2.76,15.65-3.19,23.58-.69,12.77-.73,25.53,2.13,38.2-2.21-4.36-4.18-8.86-6.66-13.06-5.93-10.02-13.02-11.34-21.8-3.62-11.73,10.33-18.73,23.17-18.75,39.22,0,.72,0,1.43-.62,2.31-3.62-7.69-7.18-15.41-10.89-23.05-2.31-4.77-4.89-9.41-8.27-13.54-7.02-8.56-15.67-10.11-25.32-4.54-7.66,4.42-13.09,10.96-17.47,18.47-1.33,2.27-2.53,4.61-4.07,7.42-.95-3.05-1.53-5.68-2.57-8.13-3.65-8.59-11.78-10.61-19.01-4.83-10.49,8.38-10.57,9.74-1.42,19.32,12.71,13.33,26.17,25.81,40.64,37.26,30.93,24.48,65.68,28.83,103.05,20.3,6.56-1.5,12.84-3.75,18.87-6.77,14.23-7.13,21.14-18.75,21.45-34.53,.26-13.5-3.5-26.17-7.83-38.74-4.16-12.06-9.31-23.85-10.89-36.66-.42-3.38-.64-6.89-.24-10.26,1.5-12.61-.69-24.56-5.96-35.98-1.57-3.4-1.4-6.31,.04-9.74,7.62-18.22,22.38-27.89,40.24-33.65,24.95-8.04,50.68-9.85,76.71-8.83,1.05,.04,2.19-.11,3.43,1.05Zm-313.63,379.88c11.15-2.25,21.65-5.94,29.58-14.56,11.34-12.33,15.2-27.28,14.27-43.64-1.71-30.1-10.13-58.59-21.92-86.08-10.19-23.78-22.54-46.56-34.67-69.37-28.25-53.13-35.71-109.68-29.37-168.69,.98-9.13,2.71-18.18,3.95-27.29,.17-1.27,1.83-4.6-2.13-2.96-6.66,2.74-13.64,4.16-20.95,5.08,1.79,3.93,2.82,7.55-.72,10.59-2.33,2-4.97,1.77-7.38,.18-4.27-2.83-2.65-6.74-1.4-10.56-1.62-.25-3.04-.33-4.37-.7-3.52-.98-6.06-1.54-5.66,3.93,.26,3.55-2.74,5.92-6.4,6.28-3.83,.38-6.61-1.48-8.05-5.08-1.37-3.43-.13-6.06,2.72-8.11,.59-.43,1.51-.56,1.47-1.75-1.88-1.18-4.08-2.16-5.75-3.7-2.37-2.18-3.67-1.39-5,.96-2.53,4.48-5.03,8.98-7.75,13.34-1.34,2.16-.8,3.27,1.23,4.43,6.26,3.59,12.73,6.62,19.88,7.91,14.08,2.52,27.99,.96,41.76-2.12,3.47-.78,4.05-.03,3.61,3.25-1.09,8.19-2.03,16.4-2.77,24.62-.26,2.83-1.16,4.12-4.13,4.35-6.63,.51-13.23,1.35-19.89,2.05,3.22,6.74,3.04,10.19-.76,12.98-3.1,2.28-6.36,2.4-9.49,.02-1.39-1.06-2.33-2.51-2.69-4.27-.68-3.28,.74-5.98,3.02-8.53-1.04-.24-1.47-.4-1.91-.43-13.43-.74-26.74-2.16-39.25-7.58-2.19-.95-2.69,.34-3.33,1.88-2.24,5.48-4.43,10.98-6.84,16.39-1.07,2.39-.11,3.19,1.9,4.18,8.9,4.37,18.21,7.34,28.04,8.52,17.12,2.07,33.91,.54,50.28-5,2.59-.88,4.72-1.98,4.59,2.53-.13,4.66,.48,9.33,.71,14.01q.46,9.25-8.64,11.94c-.58,.17-1.11,.5-1.7,.78,4.29,4.99,4.79,7.8,1.92,10.97-2.35,2.58-5.23,3.08-7.91,.89-3.87-3.17-2.49-6.79,.52-10.84-18.48,3.76-36.3,5.92-54.58,3.7,2.36,5.85,1.85,9.62-1.49,11.78-3.01,1.94-6.11,1.62-8.61-.75-4.43-4.22-1.85-8.32,1.21-12.38-3.58-1.12-6.73-1.98-9.79-3.09-2.76-1-3.28,.35-3.25,2.64,.06,3.9,.21,7.8,.06,11.69-.12,3.2,1.23,4.7,4.29,5.55,29.62,8.21,58.58,7.5,86.46-6.53,3.24-1.63,3.82-.9,4.11,2.23,.91,9.64,2.8,19.13,5.41,28.44,.87,3.12,.25,4.11-2.9,4.51-10.59,1.35-21.16,1.02-31.75,.24-5.78-.43-11.55-.88-17.53-1.33,1.9,7.26,.78,11.74-3.5,14.4-3.64,2.25-7.51,2.41-10.92-.35-6.16-5-4.44-10.72-.45-16.51-10.55-1.01-20.5-1.91-30.26-4.01-3.33-.71-3.56,1.17-3.91,3.48-1.57,10.51-4.25,20.76-7.66,30.8-5.86,17.25-12.74,34.14-17.45,51.79-5.27,19.72-8.67,39.55-5.64,60.08,.59,4,2.45,6.06,5.81,7.58,7.37,3.33,15.18,4.69,23.14,5.18,20.54,1.27,41.03,2.94,61.49,5.32,35.79,4.16,71.55,6.66,106.06-7.58,2.16-.89,3.1-.36,3.57,1.91,1.11,5.34,2.31,10.66,3.64,15.94,.72,2.86-.12,4.28-3.02,5.02-6.2,1.58-12.32,3.42-18.72,5.22,5.67,4.53,6.98,8.47,4.41,12.5-2.42,3.79-7.29,5.15-11.06,3.1-1.86-1.02-3.08-2.55-3.86-4.51-1.42-3.56,.17-6.53,2.27-9.84-8.14,1.26-15.68,2.43-23.6,3.66,5.54,5.93,6.12,10.88,2.17,14.81-3.3,3.28-8.39,3.5-11.87,.52-4.39-3.76-4.09-8.2,.63-14.15h-28.82c5.8,6.51,6.29,11.42,2.09,15.76-3.52,3.63-8.74,3.87-12.66,.61-2.66-2.21-3.39-5.06-3.11-8.38,.28-3.29,2.64-5.34,5.33-8.02-34.54,.02-66.66-6.89-97.81-21.22,7.58,23.95,18.14,45.23,34.28,63.61,11.52,13.12,25.04,23.34,42.13,27.18,37,8.31,73.64,7.44,109.32-6.9,1.11-.45,2.21-1.91,3.89-.41-6.72,8.74-16.92,11.54-26.17,15.93Zm-53.71-625.31c19.1,.23,33.93-13.93,34.27-32.72,.36-20-14.58-35.87-33.92-36.04-19.33-.17-34.17,14.62-34.45,34.32-.28,19.59,14.18,34.2,34.1,34.44Zm-116.49-4.33c-.11,18.34,14.84,33.42,33.13,33.42,18.02,0,32.5-14.94,32.48-33.53-.01-18.62-14.71-33.66-32.92-33.67-18.25-.01-32.58,14.79-32.69,33.78Zm-17.42,105.6c.28-1.38-.27-2.4-1.31-3.28-1.94-1.64-3.47-3.75-4.32-6.02-1.04-2.77-2.37-2.81-4.91-2.13-3.02,.81-3.86,2.38-3.87,5.31-.01,7.82-.67,15.59-3.66,22.94-1.12,2.76-2.48,5.32-5.72,6.37-1.27,.41-4.83-.85-3.11,2.66,1.06,2.15,1.37,6.16,5.63,4.45,6.36-2.55,12.67-5.21,19.01-7.81,1.6-.66,2.58-1.55,2.18-3.52-1.29-6.32-1.65-12.66,.07-18.97Zm94.92-79.52c-3.07,1.02-4.03,2.93-2.52,6.55,2.21,5.32,3.67,10.95,3.41,16.79-.1,2.26-.21,4.92-2.68,6.09-2.57,1.21-4.54-.58-6.19-2.16-3.15-3-6.07-6.23-9.07-9.39-.52-.55-.96-1.41-1.81-1.12-.77,.26-1.13,1.02-.91,1.91,2.03,8.13,1.72,16.73,4.96,24.63,1.02,2.5,1.93,3.54,4.57,1.36,6.24-5.14,12.63-10.11,19.12-14.92,3.34-2.48,3.88-4.84,1.8-8.59-3.82-6.88-7.12-14.04-10.67-21.17Zm-79.05,88.23c-3.96-2.51-7.48-4.76-11.03-6.97-2.17-1.36-3.5-.77-3.75,1.82-.46,4.83-.19,9.64,.53,14.44,.41,2.71,1.74,1.89,3.22,1.04,6.07-3.45,12.11-6.94,18.24-10.29,2-1.09,2.4-2.17,1.67-4.44-1.69-5.26-2.58-10.96-.49-16.07,1.83-4.49,.06-7.01-2.31-10.23-2.25-3.05-4.11-1.37-6.41-.57-2.58,.89-2.79,2.32-1.98,4.66,1.95,5.69,2.47,11.52,1.43,17.51-.51,2.91-.43,5.88,.89,9.1Zm57.76-68.7c-6.28,3.32-8.42,7.5-6.15,14.22,1.63,4.82,1.42,10.15-.87,15.05-1.58,3.39-4.02,4.93-7.88,4.03-8.19-1.91-8.94-1.22-8.34,7.23,.08,1.08,.2,2.17,.42,3.23,1.13,5.36,1.72,5.62,6.06,2.42,5.88-4.35,11.71-8.75,17.53-13.17,6.02-4.56,5.94-4.54,2.57-10.99-1-1.91-1.67-4.01-2.31-6.08-1.58-5.11-.98-10.4-1.02-15.95Zm-46.31,66.5c7.29-4.94,13.88-9.61,20.69-13.94,2.56-1.63,2.68-3.09,1.69-5.72-2.31-6.13-3.03-12.4-.09-18.62,1.63-3.45-1.68-4.78-3.26-6.4-2.15-2.2-3.7,.99-5.56,1.67-2.42,.89-1.97,2.73-1.23,4.63,2.06,5.31,2.86,10.84,2.44,16.51-.24,3.21,.02,7.08-3.6,8.49-3.6,1.4-5.51-1.89-7.63-4.1-.83-.86-1.47-2.3-2.96-1.73-1.29,.49-1.57,1.89-1.69,3.12-.5,5.14-.38,10.24,1.19,16.08Zm-44.04-15.41c-6.57,1.6-12.58,3.08-18.62,4.5-1.42,.33-2.26,.83-1.88,2.5,1.6,6.97,2.97,14.04,7.03,20.13,2.89,4.33,6.02,4.26,8.22-.57,3.78-8.29,4.59-17.24,5.25-26.56Zm408.02,470.62c-.07-5.45-4.11-9.53-9.39-9.47-5.36,.06-9.55,4.48-9.5,10.02,.05,5.34,4.23,9.58,9.44,9.55,5.23-.03,9.53-4.61,9.46-10.1ZM300.43,252h-.02c0-.47,.05-.94,0-1.4-.49-3.64,.55-8.61-2.46-10.35-2.03-1.17-5.16,3.14-7.65,5.15-2.76,2.22-8.27,3.35-7.75,6.68,.51,3.27,5.44,5.07,8.79,7.06,6.49,3.86,8.67,2.73,9.09-4.82,.04-.78,0-1.56,0-2.33Zm-52.4,31.49c-.52-2.71-1.16-5.74-1.66-8.8-.43-2.6-1.5-3.5-4.11-2.24-3.64,1.74-7.34,3.39-11.1,4.83-2.71,1.03-2.23,2.47-.95,4.2,2.34,3.17,5.2,5.75,8.67,7.64,2.16,1.17,4.39,3.24,6.83,1.93,2.67-1.43,1.9-4.63,2.33-7.55Zm26.05-9.47c-.2-1.68-.35-3.86-.73-6-.47-2.6-1.16-5.16-1.72-7.75-.44-2.03-1.22-2.54-3.19-1.3-3.29,2.07-6.72,3.94-10.18,5.71-1.99,1.02-2.06,1.96-.52,3.43,3.48,3.34,6.86,6.79,10.38,10.08,1.2,1.12,2.45,2.95,4.29,2.27,1.91-.71,1.15-2.97,1.58-4.55,.12-.44,.06-.93,.1-1.89Zm374.16,462.54c4.5,.09,7.97-3.27,8.13-7.87,.15-4.37-3.04-7.94-7.28-8.16-4.5-.23-8.43,3.55-8.45,8.15-.02,4.32,3.33,7.79,7.6,7.88ZM327.51,232.26c-.61-3.81-1.39-8.55-2.13-13.3-.42-2.72-1.32-3-3.51-1.19-10.88,8.97-10.95,11.85-.12,18.62,1.4,.87,2.95,2.52,4.57,1.6,1.62-.91,.96-3.09,1.18-5.73Zm-135.79,91.01c-1.08,3.89,.86,4.59,4.69,3.24,1.75-.62,3.63-.9,5.43-1.37,7.38-1.91,7.71-3.22,2.21-8.84-.11-.11-.21-.23-.34-.32-2.58-1.91-5.05-5.32-8.34-4.22-3.51,1.17-2.79,5.46-3.42,8.56-.15,.76-.13,1.55-.23,2.94Zm457.85,345.25c-.07-4.11-3.48-7.39-7.5-7.22-3.94,.17-7.23,3.63-7.26,7.65-.03,3.94,3.57,7.41,7.52,7.24,3.93-.17,7.31-3.75,7.24-7.67Zm26.42-12.56c.07-3.88-2.86-7.07-6.51-7.08-3.76,0-7.37,3.47-7.33,7.06,.04,3.2,3.37,6.74,6.48,6.89,3.85,.18,7.29-3.04,7.36-6.88Zm2.16,50.59c-.06-3.79-3.19-6.8-6.96-6.7-3.46,.09-6.36,3.15-6.43,6.77-.08,3.81,2.98,6.7,6.92,6.56,3.65-.13,6.53-3.07,6.47-6.63Zm-65.75,7.85c-.04-3.74-2.82-6.68-6.27-6.64-3.87,.04-7.01,3.34-6.9,7.23,.1,3.5,3.13,6.44,6.61,6.4,3.58-.04,6.6-3.26,6.56-6.99Zm65.38-87.8c.11-3.58-2.75-6.76-6.2-6.91-3.47-.15-6.59,2.79-6.78,6.38-.19,3.68,2.55,6.68,6.2,6.8,3.61,.11,6.67-2.71,6.78-6.27ZM219.48,232.86c-3.49-7.06-6.12-8.88-9.75-7.28-4.66,2.06-8.1,10.01-6.2,14.86,4.08-4.83,8.65-8.61,15.95-7.58Zm322.71,326.62c4.27-12.32,.12-24.08-2.24-35.96-.39,12.06-.88,24.13,2.24,35.96Zm44.75,205.23c-3.14,.68-5.76,2.16-5.64,5.99,.11,3.7,2.43,5.59,5.97,5.72,3.21,.12,6.18-2.88,5.89-5.87-.35-3.55-2.43-5.53-6.22-5.84Zm88.24-83.79c-.36-3.03-2.1-5.35-5.49-5.36-3.38-.01-5.9,1.77-6.21,5.5-.28,3.38,2.21,6.03,5.59,5.93,3.64-.11,5.56-2.22,6.11-6.07Zm-244.17-124c10.4-8.86,17.81-20.21,25.41-31.4-8.82,10.17-19.33,18.93-25.41,31.4Zm215.99,136.27c-3.28,.29-5.64,1.93-5.58,5.48,.05,3.18,2.06,5.43,5.31,5.31,3.21-.12,5.67-1.99,5.67-5.56,0-3.31-1.94-5.08-5.4-5.23Zm-97.35,16.78c5.54,.02,9.52-1.27,11.29-5.65,2.32-5.73-.47-10.38-4.63-15.6,1.69,8.57,1.96,15.81-6.66,21.25Zm75.52-50.15c-.03-2.81-1.39-4.68-4.38-4.85-3.26-.18-5.47,1.42-5.72,4.77-.24,3.11,1.53,5.1,4.6,5.33,3.44,.25,4.96-2,5.5-5.25Zm25.56-26.49c2.88-.73,4.95-2.42,4.86-5.73-.08-3.28-2.3-4.72-5.29-4.57-3.07,.16-4.89,2.25-4.87,5.23,.01,3.07,2.1,4.65,5.3,5.07Zm-416.07,207.6c-9.83-1.62-21.1,2.81-18.3,13.28,4.61-6.63,10.41-11.32,18.3-13.28Zm338.56-357.04c4.8,9.83,9.68,19.62,13.46,29.92-1.1-11.51-5.12-21.69-13.46-29.92Zm84.3,121.16c-.38-3.07-1.96-4.83-4.96-4.58-2.84,.24-4.7,2.04-4.6,4.92,.1,2.86,1.92,4.68,4.91,4.45,2.87-.22,4.38-2.09,4.65-4.8Zm-64.04,138.91c-.44-2.63-1.93-4.45-4.91-4.29-2.64,.15-4.34,1.67-4.38,4.47-.04,2.98,1.62,4.84,4.51,4.79,2.78-.05,4.49-1.85,4.79-4.97Zm-58.81-58c1.01,9.63-2.27,16.59-13.26,19.67,12.87,1.18,18.44-7.79,13.26-19.67Zm27.27,98.45c-.06-3.02-.91-5.04-3.9-5.16-2.97-.12-4.76,1.35-4.8,4.37-.03,2.72,1.63,4.45,4.25,4.59,2.64,.14,4.33-1.36,4.44-3.79Zm-67.58,53.87c5.98,.93,10.05,2.71,13.63,5.82,3.77,3.28,4.69,8.11,7.23,12.66,1.66-12.44-9.07-19.89-20.87-18.48Zm-13.22-307.84c-2.46,8-2.09,15.95,.27,23.85,.87-7.97,1.53-15.94-.27-23.85Zm178.61,51.87c-2.59,.44-4.44,1.8-4.27,4.55,.15,2.47,1.97,3.86,4.39,3.86,2.77,0,4.27-1.67,4.11-4.44-.15-2.54-1.74-3.8-4.23-3.96Zm-114.08,97.74c5.29-.79,9.55-1.41,11.28-6.05,1.42-3.83,.33-7.34-2.47-10.84,.46,8.61-.84,11.2-8.81,16.9Zm70.8,10.84c-.38-2.39-1.57-4.16-4.17-4.15-2.81,0-4.25,1.83-4.23,4.51,.01,2.64,1.7,3.93,4.26,3.84,2.58-.09,3.85-1.7,4.14-4.2Zm-360.59,150.98c-7.49,0-15.67,8.1-14.88,14.68,4.28-5.76,8.17-11.57,14.88-14.68Zm310.46-147.6c4.47-.92,7.35-2.26,8.61-5.61,1.43-3.79,.22-7.14-2.55-10.15,1.61,6.21-1.19,10.85-6.06,15.76Zm80.18-112.41c2.05-.45,3.91-1.37,3.88-3.82-.03-2.1-1.38-3.51-3.57-3.54-2.4-.03-3.79,1.36-3.86,3.75-.07,2.26,1.33,3.34,3.56,3.61Zm-20.35,140.78c1.91-.38,3.46-1.44,3.44-3.58-.03-2.38-1.6-3.62-3.97-3.44-2.16,.17-3.36,1.48-3.25,3.69,.1,2.26,1.57,3.17,3.79,3.33Zm-154.21,121.14c2.91,4.01,3.86,8.98,6.76,13.38,1.76-7.49,.09-10.81-6.76-13.38Zm200.19-234.68c.06-2.58-1-3.94-3.15-4.18-2.3-.26-3.4,1.2-3.59,3.26-.2,2.13,.78,3.66,3.06,3.73,2.07,.06,3.51-.94,3.69-2.81Zm-221-101.75c4.38-2.6,8.54-5.42,10.67-10.28-4.87,2.05-8.91,4.96-10.67,10.28Zm62.93-61.54c2.05-.28,3.22-1.5,3.26-3.37,.05-2.26-1.58-3.37-3.6-3.33-1.84,.04-3.3,1.23-3.21,3.22,.09,2.12,1.56,3.22,3.55,3.48Zm-5.45,85.81c.76-6.33,1.04-12.66,0-18.98-1.11,6.33-1.64,12.66,0,18.98Zm136.23,119.59c2.11-.06,3.32-1.15,3.38-3.08,.06-1.95-1.17-3.26-3.07-3.29-1.9-.03-3.15,1.31-3.32,3.17-.19,2.07,1.25,2.93,3.01,3.21Zm-121.44-239c-1.82-.01-2.84,.99-2.96,2.79-.15,2.14,1.21,3.14,3.1,3.28,1.85,.14,2.99-1.09,3.11-2.78,.15-2.04-1.28-3-3.25-3.3Zm48.52,97.93c2.23,6.9,4.45,13.79,6.68,20.69-.5-7.54-2.91-14.46-6.68-20.69Zm20.22-21.54c-1.97-5.97-4.73-11.47-9.32-15.9,2.46,5.67,5.35,11.1,9.32,15.9Zm-98.9-17.75c1.67-.27,2.91-1.06,2.75-2.97-.15-1.78-1.24-2.9-3.05-2.7-1.76,.19-2.69,1.39-2.51,3.23,.16,1.64,1.12,2.44,2.81,2.44Zm45.37,326.36c1.71-.13,2.48-1.11,2.45-2.76-.02-1.74-1.11-2.58-2.68-2.51-1.76,.09-2.95,1.12-2.75,3.02,.17,1.68,1.4,2.27,2.98,2.24Zm13.91-293.24c.67,5.42,1.61,10.68,3.89,15.6-.56-5.41-1.63-10.69-3.89-15.6Zm-56.08-50.98c-.2-1.72-1.16-2.71-2.75-2.71-1.63,0-2.57,1.06-2.55,2.71,.02,1.67,.97,2.63,2.64,2.57,1.61-.06,2.56-.97,2.65-2.57Zm19.16,4.02c-.4-1.5-1.25-2.51-2.93-2.42-1.49,.08-2.3,1.07-2.22,2.46,.1,1.64,1.24,2.45,2.87,2.37,1.47-.07,2.23-.92,2.28-2.41Zm124.26,9.59c-.2-1.36-.93-2.39-2.34-2.46-1.61-.08-2.66,.92-2.8,2.51-.14,1.5,.81,2.39,2.24,2.41,1.55,.02,2.67-.75,2.91-2.47Zm25.07,21.73c.03-1.47-.8-2.43-2.38-2.62-1.43-.17-2.34,.64-2.6,2.01-.33,1.77,.77,2.53,2.31,2.69,1.36,.14,2.39-.38,2.66-2.07Zm-144.14-60.18c.95-.37,2.3-.51,2.51-2.04,.2-1.48-.67-2.35-2.03-2.53-1.34-.17-2.47,.37-2.63,1.89-.14,1.36,.45,2.36,2.14,2.68Zm-256.37,424.42c3.53-2.87,6.25-5.07,8.96-7.27-3.67,1-7.14,2.25-8.96,7.27Z"/>
  <path d="M246.92,567.47c-3.11-3.07-4.99-6.19-7.95-8.25-4.89-3.4-8.93-2.94-12.66,1.71-5.5,6.86-4.53,14.92-3.94,22.85,.19,2.61,.88,5.19,1.43,8.3-3.37-2.65-5.41-5.88-7.83-8.75-5.74-6.83-11.79-13.32-19.61-17.83-10.78-6.23-18.68-2.78-21.67,9.36-1.97,7.99-1.45,16.09-1,24.19,.1,1.85,.31,3.69-.43,5.83-2.54-6.94-5.1-13.87-7.6-20.83-3.05-8.5-6.04-17.03-10.56-24.91-1.56-2.72-3.32-5.28-5.68-7.37-5.9-5.24-12.26-4.39-16.61,2.22-3.61,5.49-4.17,12.01-6.08,18.07-.6,1.9-1.05,3.86-1.54,5.67-1.17,.26-1.18-.41-1.23-1-3.78-44.4,4.62-85.87,29.64-123.35,11.78-17.65,26.83-32.31,42.22-46.69,3.5-3.28,3.9-.29,4.74,2.03,13.96,38.73,31.36,75.99,49.08,113.06,5.46,11.42,7.62,21.36,1.85,32.77-1.95,3.85-2.92,8.18-4.57,12.95Zm-28.16-77.57c5.09,13,11.44,25.4,19.72,36.76-4.2-13.49-11.5-25.33-19.72-36.76Zm-11.57,11.93c2.58,12.37,5.17,24.74,7.75,37.11,2.02-9.09-1.95-27.12-7.75-37.11Zm-73.44,37.03c3.14-15.23,5.6-30.59,9.41-45.68-5.46,14.74-9.08,29.87-9.41,45.68Zm41.77-25.8c-.52-9.83-1.04-19.66-1.57-29.48-1.98,9.97-1.38,19.83,1.57,29.48Zm-11.88,26.64v-29.47c-1.97,9.82-1.7,19.64,0,29.47Zm47.24,8c-1.94-7.44-3.88-14.89-5.82-22.33,1.43,7.58,2.23,15.32,5.82,22.33Zm-19.07-80.65c-1.28,.33-2.11,1.14-2.25,2.48-.15,1.42,.59,2.46,1.98,2.53,1.35,.07,2.32-.82,2.24-2.28-.07-1.22-.44-2.4-1.97-2.73Zm19.1-16.37c-.06-1.42-.67-2.43-2.11-2.51-1.55-.08-2.09,1.13-2.2,2.38-.1,1.18,.57,2.05,1.84,2.14,1.42,.1,2.26-.63,2.47-2.02Z"/>
  <path d="M371.75,363.14c0,3.47-2.73,6.32-6.06,6.31-3.31,0-6.1-2.81-6.2-6.23-.09-3.3,2.77-6.52,5.85-6.6,3.53-.09,6.4,2.84,6.41,6.52Z"/>
  <path d="M381.29,317.17c2.48,.5,4.39,1.82,4.34,4.56-.05,2.71-1.33,4.98-4.42,4.95-3-.03-4.51-2.14-4.43-4.92,.07-2.6,1.76-4.2,4.51-4.59Z"/>
  <path d="M405.42,321.9c-.38,2.74-2.09,4.12-4.73,4.07-2.27-.04-3.87-1.27-3.81-3.75,.07-2.89,1.7-4.81,4.57-4.73,2.43,.07,3.73,1.92,3.97,4.4Z"/>
  <path d="M405.63,260.07c1.9,.08,3,1.3,3.02,3.24,.04,2.83-1.65,4.19-4.36,4.39-2.1,.16-3.26-.79-3.26-2.93,0-2.1,2.45-4.67,4.6-4.7Z"/>
  <path d="M415,256.03c-.28,1.11,.42,3.03-1.93,2.71-1.66-.22-2.99-1.11-3.04-2.94-.05-1.69,.75-3.13,2.63-3.17,2.16-.05,2.18,1.75,2.34,3.39Z"/>
  <path d="M347.92,685.54c-21.59-.13-46.61-2.86-70.98-10.22-6.72-2.03-13.28-4.51-19.54-7.7-5.44-2.77-1.25-6.94-1.09-10.27,.15-3,3.07-.86,4.52-.6,48.4,8.95,96.93,9.97,145.62,2.75,7.56-1.12,14.99-3.03,22.12-5.76,3.18-1.22,4.38-.32,5.51,2.49,1.51,3.75,3.18,7.47,5.16,10.99,1.73,3.07,.7,4.27-2.22,5.5-14.05,5.92-28.77,9.13-43.81,11.05-13.79,1.76-27.63,2.36-45.3,1.77Z"/>
  <path d="M281.46,758.35c15.12,1.29,30.03,2.14,44.98,2.46,32.31,.7,64.51-.34,96.45-5.77,11.41-1.94,22.45-5.23,33.1-9.72,3.34-1.41,4.72-1.22,4.58,2.86-.14,4.04,.22,8.1,.56,12.14,.29,3.37-.99,4.9-4.36,5.79-23.01,6.09-46.48,9.07-70.18,10.23-27.9,1.37-55.77,1.02-83.46-3.51-9.26-1.51-17.75-3.81-21.68-14.49Z"/>
  <path d="M304.3,638.3c-13.8-2.38-26.34-6.05-38.92-9.62-4.4-1.25-3.48-3.42-2.65-6.5,1.08-4.07,3.31-2.57,5.59-1.62,21.12,8.73,43.32,9.92,65.68,8.66,21.14-1.19,42.25-3.18,62.79-8.85,4.68-1.29,9.1-3.23,13.37-5.46,2.17-1.13,3.18-.86,4.22,1.45,1.97,4.4,4.1,8.75,6.56,12.89,1.85,3.11,1.03,4.19-2.18,5.07-13.12,3.62-26.53,5.47-40.05,6.52-7.45,.58-14.93,.76-22.39,1.2-1.46,.09-3.72-.63-2.21,2.65,2.31,5,1.33,8.75-2.26,11.17-3.39,2.28-6.82,1.99-9.99-.39-3.26-2.45-3.75-6.64-1.58-11.48,.24-.53,.45-1.06,.77-1.82-9.43-.77-18.54-1.52-28.11-2.31,.39,2.51,2.12,4.61,1.41,7.1-.68,2.37-1.88,4.31-4.23,5.25-3.5,1.4-6.68,.46-8.76-2.42-3.06-4.23-1.1-7.91,2.94-11.49Z"/>
  <path d="M345.5,600.69c-20.43-.08-35.77-2.23-50.51-7.82-5.57-2.11-10.61-5.18-15.46-8.6-1.67-1.17-2.91-2.4-2-4.61,1.6-3.88,3.28-7.73,4.78-11.66,.8-2.09,1.79-2.07,3.43-.92,24.24,16.97,51.29,18.17,79.23,13.84,7.93-1.23,15.19-4.55,21.96-8.81,2.78-1.75,4.21-1.57,5.21,1.84,1,3.42,2.33,6.8,3.99,9.95,1.52,2.88,.56,3.96-2.03,5.28-16.78,8.55-34.73,11.49-48.6,11.52Z"/>
  <path d="M383.61,699.49c.02-5.09,3.76-8.99,8.68-9.05,5.23-.06,9.3,3.86,9.34,8.98,.04,5.06-4.07,9.04-9.29,9-5.06-.04-8.75-3.81-8.73-8.93Z"/>
  <path d="M384.03,795.08c0,4.73-3.79,8.48-8.61,8.51-4.86,.03-8.77-3.62-8.87-8.29-.11-4.87,3.89-9.05,8.68-9.08,5-.02,8.8,3.8,8.8,8.86Z"/>
  <path d="M341.02,688.7c4.46-.14,8.68,3.98,8.79,8.58,.12,4.64-3.84,8.64-8.58,8.66-4.62,.02-8.34-3.57-8.47-8.18-.13-4.68,3.73-8.92,8.26-9.06Z"/>
  <path d="M409.95,799.05c-4.66-.1-8.25-3.73-8.24-8.34,.01-4.87,3.92-8.75,8.57-8.53,4.84,.24,8.39,4.08,8.26,8.94-.12,4.58-3.86,8.02-8.58,7.92Z"/>
  <path d="M282.61,599.61c4.77-.09,8.28,3.32,8.39,8.14,.1,4.6-3.59,8.58-8.03,8.66-4.73,.09-8.67-3.48-8.73-7.9-.06-4.77,3.75-8.82,8.36-8.9Z"/>
  <path d="M340.68,606.8c4.64-.1,8.42,3.37,8.63,7.92,.21,4.56-3.32,8.45-7.86,8.65-4.62,.21-8.93-3.72-8.97-8.17-.04-4.49,3.68-8.3,8.2-8.4Z"/>
  <path d="M328.43,744.79c.13,4.4-3.7,8.25-8.26,8.29-4.19,.04-7.74-3.32-7.93-7.5-.2-4.46,3.6-8.89,7.67-8.95,4.5-.06,8.39,3.66,8.52,8.15Z"/>
  <path d="M339.69,800.76c-4.52,0-8.44-3.86-8.4-8.29,.04-4.43,3.7-8.17,7.97-8.16,4.27,.02,8.07,3.79,8.13,8.07,.07,4.47-3.51,8.37-7.7,8.38Z"/>
  <path d="M379.16,611.03c0,4.26-3.76,8.03-8.05,8.08-4.15,.05-8.03-3.83-8.03-8.03,0-4.34,3.75-8.37,7.77-8.34,4.64,.03,8.31,3.71,8.31,8.3Z"/>
  <path d="M450.4,784.4c-.03,4.28-3.84,7.98-8.14,7.89-4.31-.09-7.58-3.51-7.54-7.86,.04-4.18,3.56-7.84,7.63-7.93,4.4-.09,8.07,3.51,8.04,7.9Z"/>
  <path d="M362.52,573.62c-4.81-.03-7.82-2.92-7.68-7.36,.14-4.38,3.42-7.14,8.57-7.22,4.6-.07,7.38,2.59,7.38,7.07,0,4.42-3.44,7.54-8.27,7.51Z"/>
  <path d="M331.88,512.35c3.89-.02,7.18,3.35,7.32,7.48,.13,4.09-3.11,7.65-7,7.7-4.05,.05-7.77-3.65-7.72-7.68,.05-3.89,3.59-7.48,7.41-7.5Z"/>
  <path d="M323.14,465c-.05,3.91-3.3,7.26-7.01,7.21-3.8-.05-7.04-3.36-7.06-7.22-.02-3.87,3.2-7.39,6.83-7.45,4.03-.07,7.29,3.3,7.24,7.46Z"/>
  <path d="M320.28,614.43c.06,3.81-3.31,7.24-7.04,7.17-3.8-.07-6.84-3.1-6.84-6.83,0-4.1,2.92-7.31,6.79-7.45,3.75-.14,7.03,3.16,7.1,7.11Z"/>
  <path d="M300.6,693.27c.07,3.73-2.61,6.51-6.34,6.57-3.84,.06-6.84-2.84-6.85-6.64-.01-3.64,2.75-6.55,6.34-6.66,3.63-.12,6.78,2.97,6.84,6.73Z"/>
  <path d="M416.1,652.82c-4.06,0-5.91-3.31-4.11-6.57,1.59-2.87,8.59-6.39,11.75-5.63,2.5,.6,4.55,2.2,2.9,5.01-2.4,4.1-6.32,6.31-10.54,7.19Z"/>
  <path d="M281.16,746.53c-3.63,.02-6.74-3.19-6.74-6.97,0-3.44,2.82-6.2,6.28-6.17,3.44,.03,6.41,3.11,6.44,6.7,.04,3.6-2.58,6.41-5.99,6.43Z"/>
  <path d="M437.75,695.5c-2.45-.42-4.96-1.21-5.01-4.65-.06-3.74,4.41-7.25,8.88-7.15,3.88,.09,4.27,3.18,4.72,5.82,.43,2.49-4.72,6.01-8.6,5.98Z"/>
  <path d="M405.05,600.29c.19,1.03-.23,1.67-.84,2.18-2.63,2.17-5.37,4.22-8.54,5.54-1.44,.6-3.24,1.03-4.38-.25-1.43-1.59-.13-3.22,.78-4.61,1.62-2.5,3.84-4.46,6.27-6.15,1.22-.85,2.62-2.5,4-1.74,1.77,.97,1.9,3.39,2.71,5.02Z"/>
  <path d="M395.67,651.62c-.27,3.37-2.21,5.29-5.59,5.53-3.24,.23-5.9-2.56-5.71-5.9,.19-3.37,1.9-5.71,5.44-5.63,3.59,.08,5.58,2.27,5.87,6Z"/>
  <path d="M311.62,791.43c-3.99-.02-9.17-4.12-8.78-7.06,.37-2.8,2.2-4.42,5.08-4.44,3.24-.02,6.77,4.72,6.91,8.8,.09,2.6-1.63,2.57-3.21,2.7Z"/>
  <path d="M458.62,735.48c-.47,3.17-2.3,5.26-5.48,5.22-3.27-.04-5.15-2.29-4.98-5.52,.16-3.15,2.16-5.32,5.39-5.28,3.3,.04,4.83,2.35,5.08,5.58Z"/>
  <path d="M266.97,686.11c-.14,2.9-1.55,5.03-4.69,5.07-3.22,.04-5.37-1.88-5.34-5.13,.03-2.93,1.8-4.97,4.98-4.95,3.09,.02,4.81,1.74,5.05,5.01Z"/>
  <path d="M271.3,647.75c-2.92-.41-5.12-1.9-4.92-5.04,.19-2.84,1.82-5.01,5.11-4.89,2.99,.11,5.26,1.48,5.24,4.71-.02,3.3-2.11,4.99-5.44,5.23Z"/>
  <path d="M377.37,409.82c1.78,.32,2.92,1.43,2.79,3.45-.13,1.99-1.26,3.15-3.36,2.94-1.8-.18-2.85-1.32-2.74-3.11,.11-1.85,.96-3.27,3.31-3.27Z"/>
  <path d="M385.49,566.24c-1.93-.26-3.29-1.25-3.09-3.27,.19-1.84,1.49-3.26,3.4-3.06,1.88,.19,2.81,1.8,2.79,3.66-.02,1.95-1.42,2.53-3.1,2.67Z"/>
  <path d="M372.51,464.08c1.79-.08,2.64,.72,2.67,2.12,.03,1.36-.75,2.31-2.21,2.35-1.27,.03-1.9-.76-2.09-1.96-.23-1.5,.56-2.24,1.63-2.51Z"/>
  <path d="M373.82,163.55c.05,6.83-5.18,12.21-12,12.34-7.11,.13-12.76-5.51-12.72-12.69,.04-6.96,5.3-12.46,11.91-12.44,7.07,.02,12.76,5.69,12.81,12.79Z"/>
  <path d="M289.28,192.32c.09,6.83-5.46,12.61-12.2,12.71-6.56,.09-12-5.38-12.09-12.15-.09-6.95,5.34-12.61,12.17-12.67,6.67-.06,12.03,5.3,12.13,12.12Z"/>
</svg>