<?xml version="1.0" encoding="UTF-8"?>
<svg id="Layer_1" data-name="Layer 1" xmlns="http://www.w3.org/2000/svg" viewBox="0 0 864 864">
  <path d="M443.1,676.74c4.63-2.42,7.87-6.25,11.19-9.95,4.3-4.79,8.48-9.7,12.47-14.76,1.55-1.97,2.88-2.28,5.13-1.44,10.68,3.97,21.15,3.42,31.57-1.33,7.84-3.58,15.68-7.36,24.35-8.59,4.79-.68,9.66-1.28,14.41,1.53-2.22,3.55-5.66,5.59-8.36,8.35-3.19,3.27-6.94,6.51-5.7,11.68,1.26,5.24,5.83,7.04,10.46,8.42,14.74,4.38,28.21-1.64,35.88-15.98,1.86-3.48,3.2-7.16,4.33-10.93,.64-2.13,1.6-2.47,3.25-.83,6.13,6.08,9.94,12.94,7.76,21.95-.37,1.52-.64,3.08-.88,4.63-.57,3.76-.33,7.3,3.33,9.57,3.77,2.33,7.71,2.61,11.62,.41,3.35-1.89,5.76-4.84,8.01-7.88,5.14-6.94,10.31-13.88,14.64-21.37,1.57-2.71,3.14-2.61,5.22-.91,2.85,2.34,4.85,5.33,6.48,8.58,2.18,4.36,5.36,7.72,9.72,9.9,4.6,2.3,9.11,2.26,13.32-.9,4.08-3.06,5.13-7.31,4.45-12.17-.44-3.09-1.7-5.87-3.34-8.65,2.5-.64,3.24,1.28,4.31,2.43,1.48,1.61,2.64,3.53,4.15,5.12,5.85,6.15,12.95,6.2,19.03,.21,3.92-3.86,6.16-8.7,7.74-13.84,1.33-4.35,2.61-8.75,3.44-13.21,.67-3.6,2.3-3.48,4.84-2.08,3.85,2.13,5.89,5.57,6.89,9.68,.48,1.98,.72,4.02,.97,6.04,.65,5.12,2.29,6.39,7.48,5.6,5-.76,8.59-3.69,11.4-7.67,5.17-7.34,7.91-15.63,9.35-24.42,.32-1.93,.02-3.26-2.04-4.09-21.25-8.52-32.19-26.17-40.45-46.08-8.51-20.5-13.6-42.11-20.47-63.15-6.01-18.4-12.6-36.5-23.29-52.85-3.58-5.48-8.06-10.26-12.56-16.42,8.99,1.71,16.2,4.99,23.12,9,10.77,6.23,20.44,14.05,30.74,20.97,7.58,5.1,15.42,9.68,24.43,11.92,15.9,3.95,31.1-1.99,40.31-15.53,7.56-11.11,11.11-23.59,12.19-36.7,2.39-29.15-5.4-55.7-22.03-79.59-7.77-11.16-18.72-17.41-32.37-18.76-1.51-.15-4.02,.63-3.82-2.14,.2-2.7,2.62-1.69,4.11-1.63,22.84,.96,41.88,9.99,57.05,27.11,20.09,22.66,32.92,49.2,41.3,78.04,10.32,35.54,17.34,71.72,19.7,108.7,.94,14.68-.2,29.24-5.36,43.18-5.07,13.7-14.42,24.01-27.18,30.71-5.71,3-7.76,6.71-8.74,12.82-3.8,23.75-10.82,46.5-24.12,66.85-14.37,21.97-33.9,38.62-55.59,52.91-28.06,18.47-58.05,33.13-89.36,45.2-3.7,1.42-4.49,.27-5.09-3.1-1.26-6.97-3.2-13.78-6.81-19.97-2.33-4-5.41-7.31-9.44-9.66-.84-.49-1.82-.85-2.62-.1-.96,.91-.13,1.74,.48,2.39,17.66,18.77,16.08,42.26,15.92,65.34-.05,7.39-1.02,14.75-4.31,21.56-1.12,2.32-2.12,4.68-5.47,2.01-2.27-1.81-5.2-1.43-7.46,.41-2.52,2.05-3.37,4.98-2.54,8.09,.55,2.08,1.66,4.01,2.71,6.45-13.9,3.01-27.95,3.77-42.45,5.05,1.09-3.87,2.15-7.22,2.94-10.63,.42-1.81,.66-3.75,.5-5.59-.33-3.93-3.68-6.7-7.38-6.42-3.69,.28-5.64,2.99-5.31,7.43,.4,5.45,2.55,10.26,6.07,15.18-13.12,.81-25.6,1.35-38.06-.91-2.58-.47-2.56-1.46-1.62-3.46,1.07-2.28,1.74-4.74,1.54-7.31-.3-3.8-4.01-6.88-7.86-6.48-4.48,.46-4.99,3.59-4.65,7.21,.33,3.62,1.86,6.88,2.73,10.73-2.46-1.93-5.16-3.63-7.34-5.84-3.3-3.35-3.06-7.43,.9-11.21,4.76-4.55,9.95-8.65,14.9-13.01,6.47-5.71,13.42-10.91,18.81-17.77,2.34-2.99,3.64-6.16,2.56-10.05-.93-3.35-2.15-4.91-6.27-3.72-24.01,6.91-48.57,10.02-73.54,9.67-7.85-.11-15.69-.82-23.54-.92-3.81-.05-5.19-1.67-5.51-5.25-.97-10.79-4.69-20.78-9.25-30.49-.56-1.19-.74-2.7-2.77-3.69,3.7,11.01,6.37,21.78,8.48,32.68,2.19,11.37,2.51,22.77,.41,34.19-2.8,15.31-7.82,20.27-23.17,22.85-2.76,.46-5.54,.77-8.71,1.21,1.28-3.95,2.56-7.39,3.48-10.93,.64-2.49,.62-5.08-1.93-6.75-2.3-1.51-4.78-1.51-7.19-.38-2.65,1.24-3.13,3.62-3.15,6.31-.03,4.63,2.48,7.96,6.04,11.74-14.38,1.67-28.14,2.44-42.38,2.52,1.09-3.85,2.22-7.34,3.03-10.92,.48-2.12,.74-4.37,.58-6.53-.26-3.54-3.72-6.12-7.37-5.69-3.85,.44-5.37,2.9-5.13,6.57,.38,5.91,2.19,11.32,7.13,16.65-15.07,.23-28.88,.61-42.76-3.32,1.66-2.9,3.58-5.24,4.38-8.14,.86-3.09,.79-6-2.12-8.03-2.33-1.62-4.95-2.29-7.48-.55-2.92,2.01-3.79,4.93-2.76,8.3,.67,2.19,1.56,4.3,2.57,7.04-4.48-1.27-8.31-2.64-9.35-6.88-.97-3.99,1.8-6.89,4.68-9.14,8.41-6.58,17.01-12.93,25.45-19.47,5.72-4.43,11.29-9.04,16-14.57,1.21-1.42,2.31-3.01,3.14-4.68,1.61-3.22,1.46-5.31-3-6.2-17.12-3.42-33.92-8.1-50.06-14.82-77.1-32.09-120.57-90.3-132.32-172.35-6-41.92,4.07-81.45,21.34-119.42,13.37-29.38,32.4-55.19,51.81-80.71,11.89-15.65,23.57-31.41,31.81-49.41,3.08-6.73,5.83-13.6,7.44-20.8,.92-4.1,2.98-5.41,6.96-5.88,17.48-2.03,34.87-4.69,51.61-10.41,6.85-2.34,13.54-5.09,19.49-9.29,3.48-2.46,6.48-5.36,7.48-9.51-.46-1.04-1.01-.62-1.27-.4-15.2,12.86-33.65,17.93-52.58,21.52-45.22,8.57-90.77,10.84-136.49,5.01-30.99-3.95-61.02-11.82-89.4-25.28-13.67-6.48-25.89-14.84-35.27-26.89-14.67-18.83-15.91-40.15-3.61-60.62,10.18-16.96,24.94-29.33,40.84-40.52,25.87-18.2,54.14-31.74,83.75-42.55,4.76-1.74,6.24-3.72,5.94-8.98-.91-15.92,5.26-29.86,14.39-42.44,16.89-23.27,36.79-43.72,59.28-61.63,1.87-1.49,3.71-3.26,7.47-3.9-19.5,33.65-24.12,68.02-10.02,103.98-.96-4.89-1.96-9.78-2.86-14.68-.25-1.37-.41-2.82-.26-4.2,.16-1.51,.31-3.5,2.16-3.78,1.83-.28,1.95,1.74,2.47,2.94,1.82,4.23,4.32,8.01,7.48,11.35,1.45,1.53,3.32,3.1,5.34,2.18,2.21-1,.64-3.31,.55-5.02-.13-2.5-.57-4.99-.72-7.49-.06-.98-.68-2.35,.67-2.91,1.16-.48,2.06,.51,2.92,1.14,3.11,2.29,5.53,5.27,6.9,8.8,1.51,3.89,4.2,2.46,6.61,1.9,3.13-.74,1.35-3.04,.96-4.58-.79-3.12-1.93-6.16-3.29-10.33,5.73,2.51,9.83,5.43,13.54,8.96,1.38,1.31,2.19,1.94,3.17-.61,7.24-18.76,18.98-34.66,32.41-49.33,17.51-19.13,35.73-37.56,55.49-54.4C370.69,1.71,371.94,.18,374.42,0c-3.47,8.5-7.9,16.2-12.01,24.05-14.05,26.85-28.27,53.63-38.27,82.36-1.7,4.89-3.08,9.89-4.79,14.78-.75,2.15-.08,3.14,1.88,3.91,3.95,1.54,7.88,3.13,11.72,4.9,2.5,1.15,3.66-.32,5.14-1.85,24.42-25.22,50.81-48.18,79.3-68.69,5.08-3.66,10.66-6.64,16.02-9.91,.75-.46,1.56-1.36,2.5-.65,.96,.72,.35,1.75,.03,2.59-.61,1.61-1.14,3.3-2.07,4.72-14.75,22.51-26.14,46.89-39.22,70.33-5.43,9.73-11.49,19.11-15.22,29.72-1.07,3.05,2.62,11.5,5.6,12.48,1.1,.37,1.77-.34,2.51-.87,31.96-22.93,66.04-42.41,100.04-62.05,12.68-7.32,24.63-15.71,34.73-26.48,9.3-9.92,13.51-21.31,10.76-34.96-.46-2.29-1.78-6.21,.76-6.76,3.42-.74,3.05,3.48,3.75,5.82,5.82,19.61,1.86,37.43-9.51,54.14-13.95,20.5-31.91,37.12-50.61,53.01-19.53,16.6-40.45,31.39-61.18,46.41-1.33,.96-3.07,1.54-4.04,3.82,31.08,1.88,61.09-3.77,91.57-9.21-.72,2.5-2.56,3.69-4.12,5.01-15.93,13.46-34.73,21.18-54.46,26.98-9.05,2.66-18.22,4.87-27.59,6.02-3.01,.37-3.78,1.54-3.76,4.47,.09,11.36-.05,11.47,11.24,14.15,15.34,3.65,29.85,9.64,44.45,15.43,3.12,1.24,3.11,2.37,.73,4.39-5.88,4.99-13.13,6.6-20.34,8.12-13.09,2.76-26.38,4.12-39.75,4.37-2.94,.06-4.49,.95-5.63,3.7-1.8,4.34-3.87,8.6-6.22,12.68-1.52,2.64-1.09,3.98,1.41,5.63,13.43,8.85,24.83,20.21,37.29,30.28,.94,.76,1.64,1.8,2.7,2.99-4.58,2.13-8.97,1.17-13.17,.57-13.4-1.91-26.62-4.67-39.09-10.13-2.43-1.06-3.59-.52-4.92,1.53-5.02,7.79-10.09,15.55-15.31,23.2-1.52,2.22-1.36,3.56,.49,5.6,10.34,11.41,19.25,23.94,28.75,36.77-3.12,1.09-5.69,.74-8.22,.28-13.75-2.5-26.57-7.57-38.54-14.65-3-1.78-4.16-1.25-5.51,1.6-3.3,6.95-6.72,13.84-10.27,20.66-1.55,2.96-1.28,4.89,1.44,7.19,9.37,7.91,17.71,16.86,26.37,26.69-5.08,.62-9.51,.99-13.88,1.73-8.35,1.41-16.52,3.87-25.01,4.52-1.77,.13-2.54,.98-2.74,2.57-.58,4.52-1.88,9.09-1.52,13.54,.43,5.28,4.54,8.77,8.75,11.65,7,4.78,14.68,8.52,21.37,13.77,1.21,.95,2.41,1.92,3.86,3.08-3.64,2.76-7.59,3.8-11.43,5-8.1,2.53-16.36,4.51-24.75,5.78-2.84,.43-4.17,1.46-4.15,4.44,.04,6.28-.04,12.57-.26,18.84-.13,3.66,1.46,3.98,4.61,3.34,18.02-3.67,34.7-10.88,51.03-19.04,28.92-14.46,54.57-33.52,77.65-56.02,27.5-26.81,58.84-47.47,95.09-60.39,18.91-6.74,38.32-11.03,58.54-10.74,4.36,.06,8.66,.51,13.92,2.78-2.57,2.18-5.28,4.21-7.69,6.56-14.21,13.84-19,30.88-17.19,50.28,2.15,23.02,11.23,43.65,21.7,63.79,6.87,13.22,14.69,25.9,22.66,38.89-2.97-1.23-5.95-2.45-8.91-3.7-9-3.78-18.08-7.32-27.95-7.98-16.56-1.1-25.67,10.1-21.28,26.21,2.76,10.12,8.29,18.94,13.35,27.97,2.21,3.94,4.44,7.86,7,12.4-7.21-1.79-13.66-3.62-20.21-4.97-21.81-4.5-41.37,1.72-59.62,13.22-24.26,15.28-43.79,35.58-61.1,58.2-3.87,5.06-7.76,10.1-10.54,15.94Zm-204.05-135.89c2.15,.49,3.36-1.06,4.82-2.09-1.03-2.14-3.46-3.69-2.47-6.64,2.27,.55,3.07,2.49,4.58,3.52,.86,.59,1.71,.67,2.61,.06,.8-.54,.74-1.25,.56-2.06-.99-4.5-5.81-6.91-9.9-4.97-18.85,8.95-38.17,12.25-58.32,4.63-2.54-.96-3.26-.37-3.6,2.17-1.23,9.09,2.87,15.98,11.5,19.21,5.45,2.04,11.24,2.93,16.66,1.3,11.86-3.55,23.26-8.4,33.69-15.25l-.12,.11Zm11.25-304.93c26.36-.33,50.64-7.66,73.08-21.47,3.27-2.01,4.32-4.29,4.09-7.96-1.45-23.33-11.02-42.64-30.11-56.07-18.68-13.14-39.12-17.3-60.06-4.94-26.06,15.38-36.08,52.96-28.68,78.32,.71,2.44,2.13,3.93,4.51,4.96,11.87,5.13,24.27,7.32,37.17,7.16Zm-43.72,411.81c6.32,.12,12.05-1.89,17.4-5.04,9.38-5.51,17.62-12.55,25.59-19.87,7.84-7.21,7.89-8.81,1.74-17.62-.09-.13-.19-.25-.27-.39-1.75-2.95-3.61-3.12-6.41-.96-7.21,5.56-14.89,10.42-23.4,13.84-11.89,4.78-24.29,7.33-37,8.41-3.1,.26-4.64,.63-3.04,4.36,4.34,10.08,14.6,17.25,25.38,17.26Zm35.77,73.93c6.81,.14,12.5-1.84,17.58-6.14,9.97-8.43,16.62-19.24,20.87-31.38,2.23-6.39,1.75-13.06-2.57-18.87-2.6-3.49-4.65-3.53-6.72,.21-2.45,4.43-5.73,8.22-8.77,12.19-10.35,13.47-22.88,24.13-39.32,29.44-2.87,.93-2.53,2.11-1.07,3.87,5.51,6.63,12.61,10.15,20.01,10.69Zm-7.17-260.74c6.34-.37,13.2-3.56,20.16-6.38,.99-.4,1.54-.93,.79-2.1-.66-1.04-2.59-2.26-.75-3.41,1.14-.71,2.1,.95,2.74,2.03,.59,.98,1.2,2.11,2.5,1.28,1.54-.98,2.43-2.66,2.28-4.39-.13-1.45-1.75-.89-2.75-.95-1.09-.07-2.19,.09-3.29,.11-11.86,.17-23.15-1.83-33.02-8.96-5.5-3.97-7.44-3.23-9.1,3.55-.5,2.03-.53,4.04-.15,6.07,1.53,8.16,8.76,13.1,20.58,13.15Zm120.26-324.09c-.05,6.16,4.5,11.12,10.22,11.15,5.3,.02,9.57-4.14,9.67-9.42,.1-5.42-5.63-11.18-11.14-11.23-5.11-.04-8.7,3.86-8.75,9.5Zm79.63,28.95c0-5.47-4.32-9.82-9.82-9.87-4.51-.04-8.27,3.54-8.25,7.86,.03,5.25,5.2,10.76,9.98,10.64,4.53-.12,8.09-3.91,8.09-8.62Zm-152.02,228.3c-2.88-2.47-4.71,1.32-6.73-.06-4.84-3.3-10.92-3.92-15.63-7.48-.92-.7-2.18-1.99-3.33-.88-2.56,2.48-4.04,5.63-3.82,9.27,.2,3.29,2.48,5,5.44,5.68,2.93,.67,6,.71,8.84-.36,4.94-1.85,9.79-3.95,15.23-6.17ZM115.28,224.85c.55-2.63-.79-4.36-2.29-5.91-3.43-3.55-10.26-4.3-14.86-1.76-4.71,2.59-7.36,8.03-6.36,13.03,1.11,5.61,6.12,9.19,10.85,7.78,1.56-.47,3.17-1.2,3.41-2.85,.23-1.57-1.64-1.58-2.66-2.18-2.78-1.63-5.77-3.4-4.23-7.22,1.53-3.81,4.77-5.03,8.86-4.38,2.72,.44,4.56,2.55,7.28,3.48Zm-37.58,39.54c8.46,.03,14.03-2.88,17.83-8.95,.93-1.48,1.7-3.58-.02-4.62-1.51-.92-2.15,1.29-2.89,2.3-3.7,5.02-8.69,6.87-14.75,6.45-8-.56-13.55-5.05-18.25-11.06-.75-.96-1.39-3.13-3.06-2.05-1.41,.91-.3,2.64,.31,3.84,4.58,9.08,12.17,13.49,20.83,14.09ZM302.73,118.02c4.23,.16,7.68-2.76,7.67-6.48,0-4.06-5.66-8.77-10.65-8.88-3.67-.08-6.83,2.95-7.03,6.74-.23,4.25,4.62,8.42,10.01,8.62Zm-113.25,11.57c4.83,0,8.04-2.67,8.05-6.67,.01-3.96-5.07-7.54-10.83-7.62-4.48-.06-7.49,2.65-7.4,6.65,.1,4.3,4.56,7.65,10.18,7.64ZM478.5,473.34c-4.96,.09-9.03,3.6-8.97,7.73,.07,4.15,3.71,7.3,8.26,7.14,4.72-.16,8.89-4.01,8.78-8.09-.11-3.92-3.61-6.87-8.07-6.78Zm62.54,375.74c.14-4.44-2.33-7.33-6.21-7.45-3.73-.11-6.6,2.88-6.45,7.06,.15,4.17,1.84,7.91,4.09,11.32,1.59,2.4,3.46,2.36,5.21-.03,2.42-3.31,2.81-7.22,3.36-10.9ZM471.06,139.95c-.1-3.91-4.29-7.67-8.58-7.68-3.54,0-6.78,3.35-6.76,7,.03,4.35,4.24,8.37,8.54,8.16,3.87-.19,6.89-3.51,6.79-7.48Zm-139.48,710c.21-4.83-2.07-7.87-5.9-7.92-3.83-.04-6.51,3.59-6.05,8.34,.35,3.5,1.94,6.55,3.83,9.43,1.67,2.54,3.52,2.36,5.03-.15,1.78-2.97,2.94-6.18,3.09-9.7Zm202.83-412.45c4.22,.05,7.73-3.11,7.9-7.1,.17-4.06-3.04-7.17-7.53-7.29-4.31-.12-7.74,2.95-7.84,7-.1,4.1,3.18,7.34,7.47,7.39Zm-233.92-89.83c-6.72,2.2-13.37,3.39-20.26,1.37-1.91-.56-2.44,.49-2.69,2.15-.92,5.98,3.64,10.14,9.47,8.35,6.13-1.88,10.14-6.41,13.47-11.87Zm287.06,500.29c.18-4.74-2.34-7.8-6.06-7.81-3.75-.01-6.38,3.08-6.03,7.38,.31,3.85,1.87,7.2,4.35,10.2,1.93,2.34,3.22,1.77,4.56-.49,1.79-3.01,2.93-6.22,3.18-9.27Zm-79.39-417.6c-.04-3.78-3.4-6.88-7.52-6.93-4.06-.05-7.66,3.44-7.62,7.38,.04,3.91,3.33,6.94,7.45,6.86,4.27-.08,7.74-3.39,7.7-7.32Zm-3.87,36.14c3.87,.1,7.54-3.5,7.62-7.47,.07-3.85-3.15-7.08-7.2-7.21-4.03-.13-7.63,3.33-7.64,7.34,0,3.71,3.46,7.23,7.22,7.33Zm-127.73,381.2c0-4.2-2.4-6.88-6.07-6.81-3.49,.07-6.16,3.1-6.16,6.98,0,4.18,4.04,11.14,6.53,11.27,2.4,.13,5.42-5.45,5.69-10.5,.02-.31,0-.63,0-.94Zm33.86-664.02c-.07-3.83-3.87-7.32-7.85-7.2-3.79,.12-6.85,3.23-6.86,6.98-.01,4.17,3.22,7.31,7.55,7.32,4.03,.02,7.23-3.16,7.16-7.11Zm122.81,283.62c3.96,.13,7.66-3.18,7.92-7.08,.25-3.69-3.01-6.9-7.16-7.06-4.1-.16-7.58,3.13-7.61,7.17-.02,3.51,3.26,6.84,6.84,6.96Zm20.94,59.73c4.09,.06,7.51-3.28,7.5-7.33,0-3.4-3.07-6.43-6.64-6.55-3.83-.13-7.75,3.45-7.84,7.17-.09,3.53,3.15,6.64,6.98,6.7Zm-102.65-20.27c-.03-3.36-3.17-5.93-7.13-5.82-4.22,.11-7.92,3.46-7.73,7.16,.21,4.06,2.87,5.65,6.55,5.79,4.35,.17,8.35-3.34,8.32-7.13Zm60.52,.03c-.04-3.17-3.07-5.82-6.71-5.87-4.14-.06-8.06,3.4-7.95,7.02,.1,3.31,2.98,5.83,6.68,5.85,4.23,.02,8.03-3.31,7.98-7Zm25.92,35.64c-3.71,.11-7.28,3.84-6.86,7.46,.44,3.83,2.9,5.78,6.64,5.91,3.97,.14,7.46-3.21,7.42-6.88-.03-3.56-3.4-6.6-7.2-6.49ZM201.23,107.1c-.11-4.23-5.56-8.19-10.22-7.8-2.98,.25-5.06,1.78-4.99,5.1,.09,3.8,4.94,7.78,9.42,7.61,3.42-.13,5.54-1.89,5.79-4.91Zm350.53,372.93c-3.83-.06-7.41,3.19-7.54,6.84-.12,3.37,2.88,6.23,6.68,6.35,3.95,.13,7.34-2.96,7.42-6.77,.07-3.55-2.8-6.36-6.57-6.42ZM201.81,90.53c3.76,.04,6.8-2.51,6.82-5.7,.02-3.13-4.3-6.42-8.67-6.36-3.5,.04-6.17,1.56-6.48,5.39-.27,3.33,4.02,6.63,8.33,6.68Zm357.76,322.43c3.97,.09,7.46-3.05,7.53-6.77,.07-3.68-2.69-6.29-6.67-6.28-3.96,.01-7.05,2.79-7.23,6.51-.18,3.75,2.45,6.45,6.37,6.54Zm-76.54,122.24c-4.07,.05-7.24,2.81-7.34,6.39-.1,3.53,2.82,6.21,6.77,6.21,4.07,0,7.17-2.74,7.25-6.42,.08-3.72-2.62-6.23-6.68-6.19Zm-100.68-9.78c3.79,.12,7.11-2.82,7.3-6.45,.2-3.73-2.49-6.62-6.27-6.74-3.36-.11-7.04,3.38-7.15,6.8-.11,3.42,2.63,6.28,6.12,6.39Zm109.45,55.33c-4.02-.1-7.3,2.65-7.44,6.24-.14,3.47,2.48,6.05,6.23,6.16,3.9,.11,7.26-2.71,7.47-6.28,.2-3.37-2.51-6.02-6.26-6.12ZM337.54,255.13c4.62-.04,8.99-3.74,8.81-7.33-.19-4.02-3.21-4.62-6.35-4.65-4.18-.04-8.36,3.46-8.2,6.86,.18,3.82,2.95,4.78,5.74,5.12Zm-29.15-173.99c-2.84,.29-5.38,1.79-5.55,5.66-.15,3.44,3.56,6.19,8.11,6.03,3.58-.12,6.05-1.8,6.27-5.62,.19-3.26-3.85-6.17-8.83-6.07Zm-6.73,178.32c-4.37-.18-8.57,2.76-8.58,6.02-.02,4.03,2.84,5.21,6.22,5.45,4.29,.3,8.45-2.8,8.46-6.26,.01-4.32-3.37-4.62-6.1-5.21Zm112.51,238.44c-.31-3.23-2.41-4.85-5.9-4.84-3.71,.01-7.29,3.25-7.15,6.65,.15,3.48,2.09,5.45,5.66,5.53,3.87,.09,7.45-3.32,7.39-7.34Zm57.78,19.86c4.4,.02,7.74-2.68,7.69-6.02-.06-3.84-2.35-5.6-6.03-5.72-4.06-.13-7.7,2.81-7.43,6.18,.3,3.76,2.76,5.38,5.77,5.57ZM377.95,111.87c-3.71-.09-6.32,2.32-6.36,5.88-.04,3.37,2.71,5.86,6.45,5.86,3.49,0,7.14-3.06,7.19-6.03,.05-3.12-3.12-5.6-7.28-5.71Zm204.71,375.69c-3.73-.33-6.88,2.32-7.17,5.82-.31,3.73,1.48,6.02,5.18,6.56,3.67,.54,6.77-2.16,6.98-5.93,.22-3.83-1.99-5.69-4.99-6.46Zm-192.2,117.27c-3.93-.02-7.61,3.23-7.41,6.57,.23,3.8,2.6,5.46,6.24,5.45,3.78-.02,7.03-3.22,6.89-6.77-.15-3.78-2.74-4.89-5.72-5.24Zm25.93-89.46c-4.32-.04-8.03,3.09-7.77,6.44,.27,3.5,2.37,5.3,5.94,5.28,3.95-.02,7.23-2.92,7.26-6.51,.04-3.96-2.7-4.87-5.43-5.22Zm4.76-300.63c0-4.1-2.98-7.69-6.05-7.34-3.73,.42-5.24,3.11-5.39,6.51-.15,3.67,2.97,7.15,6.09,6.92,3.92-.29,5-3.12,5.35-6.09Zm15.94,271.43c4.13,.02,7.62-3.01,7.52-6.49-.11-3.72-2.48-5.24-5.87-5.28-3.62-.05-6.96,2.98-7,6.25-.05,3.72,2.15,5.28,5.35,5.53Zm-47.72,89.02c-4.35-.14-8.29,3-8.18,6.22,.11,3.33,2.11,5.08,5.38,5.28,3.63,.22,7.55-2.97,7.52-6.28-.04-3.37-2.11-5-4.72-5.22Zm57.33-35.45c-4.03-.01-7.46,2.87-7.43,6.09,.03,3.82,2.59,5.16,5.86,5.38,3.79,.26,7.05-2.61,7.03-6.06-.02-3.75-2.38-5.18-5.46-5.41Zm235.61,174.73c4.15-.09,7.4-2.77,7.14-5.78-.34-3.84-3.15-4.71-6.36-4.77-4.25-.08-7.55,2.43-7.26,5.64,.37,4.17,3.8,4.38,6.49,4.91Zm29.58-15.55c3.47-.45,6.81-1.35,6.81-5.55,0-3.96-2.99-5.2-6.44-5.05-3.54,.16-6.66,1.59-6.83,5.56-.18,4.23,3.3,4.62,6.46,5.03ZM365.12,210.74c-3.96-.06-7.82,3.21-7.56,6.44,.26,3.31,2.57,4.4,5.55,4.42,3.75,.03,7.31-2.75,7.34-5.86,.03-3.65-2.48-4.69-5.33-4.99Zm75.35,367.49c.36-3-1.72-5.48-4.84-5.8-3.37-.34-7.07,2.6-7.31,5.96-.24,3.28,1.66,4.92,4.68,5.38,3.69,.56,7.05-1.99,7.47-5.54Zm180.48,139.25c-3.49,.22-6.55,1.47-6.59,5.23-.04,3.71,2.89,5.36,6.38,5.36,3.39,0,6.36-1.24,6.48-5.17,.13-4.1-3.1-4.87-6.27-5.42Zm-140.87-272.21c-.3-3.01-2.14-4.97-5.64-5.12-3.21-.14-6.45,2.95-6.29,6.18,.15,3.11,1.67,5.35,5.07,5.6,3.48,.26,6.79-2.81,6.85-6.66Zm-179.84-195.1c4.12,.07,7.52-2.83,7.39-6.11-.14-3.31-2.19-4.68-5.28-4.74-3.73-.07-7.06,2.81-7.06,6.16,0,3.5,2.43,4.38,4.95,4.69Zm438.47,428.74c4.33-.06,7.66-2.67,7.4-5.63-.3-3.48-2.86-4.59-5.89-4.71-3.6-.15-7.13,2.57-7.02,5.45,.15,3.83,2.88,4.75,5.51,4.89Zm69.96-104.99c3.53,.05,6.63-2.6,6.59-5.6-.04-3.62-2.19-5.34-5.64-5.45-3.35-.1-6.44,2.92-6.36,6.13,.1,3.68,2.76,4.46,5.41,4.92Zm-55.74,84.28c4.18,.05,7.2-2.23,7.18-5.23-.03-3.71-2.49-5.11-5.81-5.28-3.42-.17-7.14,2.69-6.95,5.52,.25,3.7,3.02,4.69,5.57,4.99Zm-241.76-179.8c-3.41,.05-6.46,2.85-6.19,5.87,.28,3.16,1.98,5.18,5.43,5.15,3.47-.03,6.64-3.01,6.35-6.09-.33-3.39-2.65-4.67-5.59-4.93Zm-70.99-264.89c-.51-3.44-2.23-5.89-5.97-5.97-3.43-.07-5.06,2.03-5.11,5.36-.05,3.47,2.81,6.51,6.11,6.38,3.59-.14,4.58-2.7,4.97-5.77Zm240.26,479.54c3.18-.39,6.48-1.24,6.64-5.14,.15-3.69-2.8-5.07-6.04-5.08-3.45-.01-6.4,1.5-6.45,5.32-.05,3.4,2.61,4.66,5.86,4.89ZM340.67,223.53c-3.69,0-7.4,2.99-7.36,5.85,.04,3.29,2.15,4.66,5.22,4.77,3.83,.14,7.21-2.68,7.08-5.96-.14-3.38-2.45-4.41-4.93-4.66Zm120.83,356.29c4.05,.02,7.48-2.81,7.2-5.81-.32-3.47-2.73-4.82-5.9-4.74-3.5,.08-6.24,1.61-6.37,5.48-.13,3.55,2.37,4.81,5.08,5.07Zm89.32,104.88c-2.75,.39-5.67,1.43-5.63,5.15,.04,3.81,3.13,4.77,6.24,4.88,3.22,.11,5.93-1.12,6.39-4.77,.33-2.64-3.1-5.25-7-5.26Zm77.64,16.26c-.21-3.52-2.2-5.46-5.54-5.83-3.01-.34-6.25,2.84-5.97,5.86,.32,3.36,2.23,5.52,5.76,5.47,3.45-.05,5.39-2.03,5.74-5.49Zm-280.54-159.82c-3.52,.08-6.49,3.04-6.32,6.13,.18,3.24,1.91,5.23,5.31,5.31,3.29,.07,6.41-3.11,6.14-6.33-.28-3.33-2.35-4.9-5.13-5.11Zm77.51,68.06c4.22,.08,7.63-2.65,7.48-5.68-.16-3.44-2.71-4.52-5.54-4.47-3.31,.06-6.5,1.24-6.8,5.1-.27,3.49,2.29,4.84,4.86,5.05Zm14.89,13.7c-3.79-.02-7.3,2.88-7.03,5.75,.3,3.14,2.4,4.57,5.39,4.69,3.45,.14,6.77-2.76,6.64-5.79-.14-3.34-2.39-4.41-5-4.65Zm267.5,99.39c2.8-.5,5.82-1.39,5.98-5.05,.16-3.71-2.64-5.2-5.87-5.17-3.26,.02-5.87,1.78-6.02,5.26-.14,3.51,2.56,4.6,5.9,4.96Zm7.7-46.18c3.38-.36,6.37-1.58,6.39-5.43,.02-3.41-2.68-4.72-5.77-4.85-3.22-.14-6.36,2.86-6.09,5.75,.3,3.24,2.44,4.45,5.46,4.53Zm-126.44,20.15c.63,3.12,2.7,5.05,6.08,4.87,3.18-.17,5.3-2.23,5.3-5.43,0-3.56-2.55-5.34-5.83-5.37-3.49-.04-5.26,2.2-5.55,5.93Zm-177.39-63.62c3.31-.47,6.05-1.91,6.32-5.67,.24-3.41-2.2-4.79-5.17-4.69-3.41,.11-6.24,1.67-6.45,5.5-.18,3.33,2.2,4.55,5.29,4.87Zm102.73-101.8c-3.29,.12-5.56,1.79-6.08,5.14-.52,3.36,1.39,5.31,4.58,5.88,3.02,.55,6.45-2.18,6.56-5.23,.12-3.33-1.8-5.11-5.06-5.8Zm23.7,180.62c3.16-.34,5.82-1.64,5.93-5.23,.11-3.63-2.44-5.34-5.74-5.34-3.32,0-5.65,1.74-5.7,5.39-.05,3.57,2.4,4.72,5.51,5.19ZM208.75,70.22c3.57,0,7.47-3.3,7.35-6.21-.15-3.7-3.05-3.94-5.72-4-3.62-.09-6.73,2.82-6.5,5.91,.23,3.12,2.38,4.11,4.87,4.3Zm191.53,477.33c3.32-.48,5.89-2.08,5.95-5.58,.06-3.49-2.46-4.94-5.72-4.72-3.32,.22-5.95,1.92-6.01,5.41-.07,3.49,2.72,4.59,5.78,4.89Zm16.7-285.75c.29,2.28,1.36,4.36,4.57,4.24,3-.11,6.65-3.79,6.28-6.49-.43-3.09-2.66-4.52-5.54-4.75-2.81-.22-5.42,3.13-5.31,7Zm146.55,174.09c-.3-2.56-1.55-4.62-4.58-4.78-3-.16-5.87,3.35-5.72,6.86,.12,2.82,1.31,4.92,4.43,5.03,2.83,.1,5.95-3.67,5.87-7.11Zm-204.04-60.5c3.78-.04,7.96-3.91,7.7-6.83-.27-3.01-2.4-4.26-5.14-4.3-2.92-.04-6.41,4.04-6.19,7.11,.18,2.53,1.57,3.95,3.64,4.01Zm21.13,173.7c-.17-3-2.04-4.91-5.05-4.81-3.42,.11-5.4,2.56-5.62,5.84-.19,2.84,1.59,4.73,4.46,5.07,2.8,.33,6.12-2.98,6.2-6.1Zm269.77,171.19c2.8-.55,5.57-1.81,5.51-5.43-.05-3.15-2.59-4.65-5.41-4.71-3.04-.07-5.58,1.44-5.76,4.84-.18,3.44,2.13,4.9,5.65,5.31Zm-244.71-163.39c-3.43-.14-6.71,2.8-6.57,5.79,.14,2.92,1.84,4.85,4.76,4.77,3.4-.09,5.51-2.28,5.9-5.63,.35-3.06-1.49-4.59-4.08-4.93Zm346.83,15.62c-.4-3.13-1.88-5.21-5.08-5-3.15,.2-4.56,2.42-4.53,5.43,.03,3.02,1.47,5.23,4.69,5.19,3.52-.05,4.43-2.8,4.92-5.61Zm-81.62,151.03c-2.66,.28-5.42,1.19-5.63,4.33-.22,3.24,2.4,4.6,5.29,4.62,3.03,.02,5.69-1.12,5.68-4.75,0-3.28-2.56-3.88-5.34-4.19Zm100.45-92.13c-2.71,.28-5.42,1.01-5.63,4.32-.22,3.45,2.39,4.47,5.28,4.52,3.01,.05,5.34-1.46,5.51-4.55,.18-3.18-2.38-4.01-5.17-4.29Zm15.13-106.69c-.56-2.61-1.94-4.46-5-4.29-3.23,.19-4.77,2.45-4.9,5.26-.13,3.02,2.11,4.44,4.92,4.38,3.19-.07,4.52-2.28,4.98-5.35Zm-417.37,68.57c-.25-2.54-2-4.1-4.85-4.19-2.95-.1-4.82,1.58-4.9,4.51-.09,3.22,2.07,4.94,5.05,4.99,2.96,.05,4.4-1.97,4.71-5.31Zm359.21-74.98c-.12-2.7-1.09-5.11-4.16-5.21-3.06-.1-4.39,2.22-4.47,5-.08,2.79,1.14,5.12,4.17,5.28,3.18,.17,4.17-2.22,4.45-5.07Zm96.1,40.83c2.95-.39,4.94-1.96,4.98-5.06,.04-2.93-2.18-4.16-4.68-4.05-2.97,.13-4.94,2.06-5.03,5.09-.09,2.96,2.09,3.85,4.73,4.03Zm-170.67,141.54c2.78-.25,5.29-1.04,5.53-4.11,.26-3.29-2.42-4.16-4.99-4.36-2.74-.21-5.15,.91-5.38,3.97-.24,3.26,2.36,3.99,4.85,4.49Zm97.9-80.19c.4,3,2.38,4.44,5.11,4.37,2.73-.07,4.84-1.69,5.01-4.58,.17-2.9-2.05-4.15-4.54-4.28-2.97-.15-5,1.37-5.58,4.49Zm-251.33,50.53c-2.46,.12-4.64,1.1-4.58,3.99,.08,3.35,2.71,4.4,5.54,4.34,2.44-.05,4.88-1.04,4.77-4-.12-3.32-2.68-4.21-5.73-4.33Zm186.2-183.25c.01,2.73,.92,4.97,3.48,5.04,3.09,.08,4.76-2.17,4.91-5.18,.12-2.53-.67-4.92-3.7-4.95-3.39-.04-4.2,2.63-4.68,5.09Zm-155.74,195.08c2.57-.27,5.13-.88,4.89-3.9-.27-3.35-3.2-3.86-5.94-3.92-2.57-.06-5.05,.9-4.82,3.8,.26,3.27,3.25,3.71,5.88,4.02ZM387.93,107.62c2.84-.29,5.11-1.67,5.34-4.46,.25-3.07-2.55-3.79-4.9-3.88-2.73-.11-5.14,1.16-5.21,4.24-.06,2.92,2.25,3.83,4.76,4.1Zm-59.59,322.41c.23,2.34,1.02,4.69,3.96,4.58,3.44-.13,4.59-2.92,4.88-5.83,.24-2.44-1.46-3.73-3.75-3.83-3.28-.15-4.66,1.91-5.09,5.08Zm456.43,148.6c-3,.38-4.55,2.59-4.68,5.69-.09,2.3,1.57,3.32,3.77,3.17,3.16-.23,5.41-1.63,5.59-5.12,.15-2.99-1.83-3.65-4.68-3.73Zm-432.04-54.72c.34,2.6,1.68,4.24,4.26,4.08,2.97-.19,5.04-1.95,5.03-5.04,0-2.65-2-3.72-4.46-3.66-2.98,.07-4.35,1.96-4.83,4.62Zm366.01,41.1c.36,2.04,.66,4.56,3.29,4.23,3.18-.4,4.46-3.14,4.79-6.08,.26-2.28-.7-4.22-3.27-4.09-3.56,.19-4.15,3.17-4.81,5.93Zm48.62,1.62c-2.37,.49-3.88,2.01-3.68,4.83,.17,2.44,1.35,4.43,3.97,4.35,2.98-.1,4.47-2.22,4.33-5.08-.12-2.5-1.68-3.95-4.61-4.09Zm-528.95,81.61c-2.48,.32-4.62,1.28-4.38,4.27,.24,2.98,2.52,4.32,5.19,4.32,2.41,0,4.18-1.53,4.2-4.11,.03-3.14-2.18-4.17-5.01-4.48Zm504.14-117.92c-2.55,.29-4.05,1.8-4.07,4.29-.03,2.76,1.28,5.09,4.22,5.32,2.6,.2,3.9-1.8,4.07-4.25,.2-2.94-1.36-4.68-4.21-5.36Zm-166.75,172.88c-.28-2.89-2.31-4.06-4.78-4.07-2.61,0-4.58,1.46-4.24,4.36,.33,2.89,2.38,4.29,5.23,4.12,2.61-.16,3.71-1.91,3.8-4.41Zm216.3-151.49c-.36-2.7-1.68-4.73-4.68-4.76-2.48-.02-3.6,1.83-3.58,4.07,.03,2.71,1.12,5.08,4.24,5.14,2.65,.05,3.66-1.98,4.01-4.45Zm-37.37-50.75c-.31-2.57-1.29-4.85-4.35-4.98-2.78-.11-3.72,1.89-3.63,4.33,.1,2.77,1.39,4.88,4.34,5.08,2.88,.2,3.51-1.96,3.64-4.44Zm-479.76,229.04c2.89,.07,4.78-1.18,5.16-3.89,.4-2.8-1.45-3.94-3.96-4.12-2.79-.2-5.21,.69-5.6,3.72-.4,3.1,2.2,3.72,4.39,4.29Zm226.02-66.11c2.58-.07,4.99-.71,5-3.35,.02-2.74-2.34-3.99-4.89-3.95-2.34,.04-5.05,.45-4.94,3.64,.1,2.98,2.57,3.52,4.82,3.67Zm325.22-142.88c-.16-2.85-1.38-4.79-4.14-4.89-2.61-.09-4.02,1.6-3.74,4.19,.27,2.56,1.14,5.14,4.29,5.08,2.65-.05,3.45-2.2,3.59-4.38Zm-601.97,39.6c-.66-2.68-2.54-3.83-5.1-3.78-2.24,.05-3.99,1.11-3.95,3.61,.04,2.92,2.25,4.01,4.68,4.12,2.46,.11,3.91-1.51,4.38-3.96Zm5.04,7.15c-2.61,.43-4.31,1.97-4.17,4.68,.14,2.63,2.12,3.75,4.57,3.63,2.53-.12,4.13-1.64,4-4.22-.13-2.53-1.87-3.79-4.4-4.1Zm-10.03,8.82c-.16-2.81-1.85-4.37-4.7-4.47-2.52-.09-4.19,1.23-4.22,3.87-.04,2.92,2.14,4.08,4.51,4.39,2.41,.31,4.18-.87,4.41-3.79ZM324.41,66.18c2.43-.07,4.88-.62,4.97-3.25,.1-3.22-2.84-3.81-5.3-4.01-2.27-.18-4.82,.75-4.88,3.26-.07,3.09,2.77,3.65,5.21,4Zm-55.66,560c2.41-.19,4.67-1.06,4.99-4.16,.27-2.62-1.39-3.7-3.74-3.64-2.99,.07-5.23,1.51-5.4,4.66-.12,2.31,1.76,3.05,4.14,3.14Zm538.71-200.14c-.39-2.59-1.45-5.12-4.69-5.15-2.24-.02-3.14,1.95-2.89,4.02,.34,2.83,1.72,5.29,4.79,5.44,2.32,.11,2.8-2.04,2.78-4.3Zm-286.81,269.87c2.48-.14,4.4-1.21,4.26-3.89-.13-2.52-1.97-3.82-4.47-3.87-2.57-.05-4.36,1.3-4.25,3.89,.1,2.49,1.91,3.78,4.47,3.88Zm183.98-172.36c.01-2.7-1.44-4.04-3.75-4.06-2.9-.03-4.18,1.92-4.09,4.61,.07,2.25,1.19,4.03,3.7,3.95,2.86-.09,4.04-1.98,4.14-4.5ZM318.5,76.64c2.35-.2,4.73-.95,4.79-3.51,.05-2.41-2.29-3.18-4.44-3.17-2.47,.01-5.02,.64-4.93,3.71,.07,2.66,2.61,2.63,4.58,2.97Zm474.53,327.52c-.28-2.56-1.28-4.9-4.34-5.05-2.04-.1-3.14,1.56-2.9,3.5,.31,2.61,1.44,5.05,4.42,5.29,2.15,.17,2.74-1.68,2.83-3.74ZM446.99,150.03c-2.38,.31-3.87,1.48-3.82,3.92,.05,2.61,1.66,4.14,4.14,4,2.16-.12,3.83-1.62,3.86-3.94,.04-2.68-1.84-3.69-4.18-3.98Zm-112.93,390.95c-.26-2.38-1.69-3.73-3.92-3.97-2.2-.24-4.26,.56-4.52,3.03-.28,2.7,1.77,3.86,4.07,4.25,2.47,.42,3.68-1.16,4.36-3.31Zm23.15,43.98c-.5-2.26-1.92-3.93-4.09-3.94-2.27,0-3.79,1.71-3.51,4.08,.25,2.12,1.51,4.05,3.9,3.98,2.36-.06,3.37-1.94,3.71-4.12Zm456.07-135.05c0-2.52-1.23-4.36-3.69-4.61-2.57-.26-3.46,1.67-3.39,3.97,.08,2.42,1.25,4.48,3.66,4.73,2.54,.27,3.24-1.89,3.41-4.08ZM292.51,717.93c-.42-2.64-2.25-3.51-4.64-3.48-2.28,.03-4.11,1.03-3.85,3.55,.28,2.65,2.49,3.34,4.8,3.3,2.1-.03,3.47-1.11,3.69-3.38ZM226,112.73c-.29-2.21-1.55-3.45-3.77-3.37-2.39,.08-3.91,1.49-3.84,3.86,.06,2.15,1.64,3.46,3.76,3.45,2.41-.02,3.61-1.59,3.85-3.94Zm196,437.1c-2.34,.55-4.02,1.86-3.85,4.43,.14,2.16,1.66,3.36,3.83,3.16,2.37-.21,3.52-1.79,3.57-4.1,.05-2.34-1.41-3.25-3.55-3.49Zm254.68-89.3c-2.15,.5-3.3,1.82-2.94,4,.33,2.02,1.05,4.18,3.54,4.17,2.53-.01,3.36-2.09,3.22-4.22-.14-2.19-1.52-3.64-3.83-3.95Zm-78.68,254.12c-.13-2.33-1.53-3.51-3.64-3.56-2.27-.05-4.1,1.04-4.07,3.57,.03,2.3,1.79,3.27,3.86,3.26,2.06,0,3.63-.94,3.84-3.26Zm187.04-337.73c-.27-2.56-1.1-4.79-3.99-4.98-1.79-.11-3.01,1.28-2.72,3.07,.41,2.5,1.26,5.09,4.39,5.23,2.09,.09,2.28-1.72,2.32-3.32Zm20.3,98.97c.05-2.35-.78-4.3-3.46-4.56-2.08-.2-3.2,1.19-3.11,3.19,.1,2.3,.94,4.5,3.51,4.82,2.08,.25,2.89-1.43,3.06-3.45ZM245.7,641.34c-.31-2.39-1.92-3.17-3.99-3.11-2.21,.07-4.22,.93-4.25,3.43-.03,2.33,1.85,3.14,3.92,3.1,2.23-.05,3.92-1.01,4.33-3.43Zm50.43,42.46c-.44-2.13-1.96-2.88-3.77-2.72-2.27,.21-4.47,1.2-4.39,3.85,.08,2.37,2.19,2.75,4.15,2.56,2.22-.21,3.69-1.39,4-3.69Zm107.5-364.19c-.37-1.92-.94-3.85-3.31-3.86-2.33-.01-3.32,1.63-3.17,3.78,.15,2.11,1.43,3.6,3.58,3.64,2.18,.05,2.78-1.65,2.89-3.56Zm174.92,351.94c1.8-.07,3.64-.42,3.6-2.68-.04-2.63-2.08-3.26-4.27-3.23-1.96,.03-4.15,.57-3.99,2.91,.17,2.46,2.54,2.8,4.65,2.99Zm145.66-191.4c-.07-2.14-1.13-3.7-3.24-3.84-2.43-.15-3.07,1.87-3.06,3.79,.02,1.97,.98,3.87,3.14,3.94,2.33,.08,2.79-2.01,3.15-3.9Zm-207.12,93.11c-.2-2.17-1.51-3.09-3.48-2.92-2.12,.18-4.2,.85-4.14,3.47,.05,2.02,1.67,3,3.53,3.02,2.29,.02,3.81-1.15,4.09-3.56Zm-215.89,139.65c2.4-.07,3.56-1.43,3.77-3.52,.23-2.22-1.24-3.17-3.19-3.1-2.21,.09-4.06,1.08-4,3.65,.05,2.11,1.64,2.82,3.42,2.97Zm505.44-199.82c2.34-.1,3.17-1.55,3.15-3.44-.03-2.39-1.52-3.85-3.84-3.93-1.88-.06-2.71,1.37-2.65,3.18,.08,2.25,.87,3.98,3.34,4.19Zm-112.88,155.01c-1.73,.18-3.93,.48-4.1,2.73-.16,2.2,1.74,3.21,3.81,3.2,2.15-.01,4.3-.7,4.27-3.27-.02-2.15-2.02-2.46-3.99-2.66Zm90.65-211.21c1.99-.39,3.09-1.62,2.85-3.6-.24-1.97-1.23-3.75-3.48-3.71-2.08,.04-2.9,1.67-2.83,3.58,.07,2.16,1.32,3.4,3.47,3.73Zm-321.97,9.44c-.12-2.12-1.34-3.4-3.55-3.35-2.18,.05-3.52,1.34-3.51,3.58,0,2.06,1.31,3.16,3.28,3.23,2.21,.09,3.48-1.1,3.78-3.46ZM332.6,45.96c-1.95,.06-4.01,.43-3.97,2.52,.05,2.65,2.62,2.8,4.59,2.96,1.84,.15,3.72-.63,3.54-2.77-.19-2.34-2.36-2.56-4.15-2.7Zm161.93,518.22c-.09-2.06-1.23-3.16-3.17-3.31-2.09-.16-3.74,.71-4.02,2.9-.29,2.31,1.32,3.41,3.34,3.54,2.08,.14,3.47-1.01,3.85-3.13Zm-160.54-3.67c-.1-2.07-1.09-3.33-3.14-3.37-1.94-.03-3.33,.93-3.49,3-.16,1.99,.84,3.42,2.83,3.62,2.23,.22,3.37-1.22,3.8-3.25ZM494.28,113.93c-1.88,.13-3.38,.9-3.52,2.94-.15,2.23,1.22,3.48,3.36,3.63,2.3,.16,3.5-1.32,3.53-3.41,.02-1.98-1.41-2.96-3.36-3.16Zm279.06,358.55c1.94-.09,2.95-1.13,3.02-2.94,.09-2.13-.88-3.72-3.08-3.99-2.11-.26-3.26,1.05-3.21,3.07,.05,2.06,1.14,3.5,3.27,3.86ZM454.85,210.52c-.23-1.9-.96-3.44-3.17-3.27-1.92,.14-3.33,1.39-3.43,3.29-.11,2.17,1.24,3.61,3.49,3.5,2.02-.1,2.93-1.56,3.11-3.52Zm31.82-83.93c-.34-2.14-1.59-3.33-3.8-3.29-1.86,.03-2.99,1.06-2.83,2.96,.2,2.4,1.85,3.69,4.08,3.68,1.86,0,2.53-1.55,2.55-3.35Zm-198.65,145.26c-.22-2.25-1.51-3.37-3.69-3.35-1.93,.02-3.33,.84-3.36,3.02-.03,2.06,1.12,3.26,3.09,3.34,2.02,.09,3.66-.67,3.96-3.01Zm22.57,457.59c-.14-1.94-1.18-2.95-2.99-2.88-2.06,.08-3.65,1.1-3.65,3.32,0,1.74,1.18,2.83,3,2.8,2.14-.03,3.43-1.12,3.64-3.25Zm128.12-85.59c-1.81,.12-3.67,.51-3.63,2.73,.04,2.07,1.79,2.8,3.64,2.87,1.74,.06,3.25-.74,3.38-2.54,.16-2.14-1.47-2.88-3.39-3.05ZM218.17,51.38c1.94-.16,4.1-.62,4.03-2.53-.1-2.73-2.85-2.24-4.67-2.39-1.53-.12-3.4,.32-3.35,2.31,.07,2.57,2.41,2.29,3.99,2.61ZM736.23,661.43c-.59-1.94-1.94-2.81-3.87-2.62-1.67,.16-3.19,.98-3.05,2.84,.17,2.26,1.92,3.09,4,2.87,1.74-.19,2.71-1.35,2.91-3.09Zm-.59,30.72c-1.93,.24-3.34,1.19-3.33,3.22,.01,1.82,1.33,2.87,3.09,2.83,1.91-.04,3.31-.99,3.26-3.15-.05-1.9-1.26-2.71-3.02-2.89Zm-158.76-307.58c-1.82,.18-3.45,.71-3.61,2.89-.14,1.95,1.07,2.89,2.88,2.93,2.1,.05,3.8-.77,3.91-3.12,.09-2.01-1.44-2.56-3.18-2.7Zm-16.63,79.55c.24,1.96,1.37,2.84,3.21,2.74,1.76-.1,3.06-.96,3.15-2.84,.1-1.92-1.09-2.93-2.91-2.93-1.96,0-3.24,1-3.45,3.03Zm19.95,223.44c-.35-2-1.73-2.93-3.61-3.01-1.92-.09-3.56,.67-3.38,2.92,.17,2.08,1.82,2.8,3.71,2.8,1.74,0,3.02-.74,3.27-2.7Zm-326.33-33.18c2.04,.08,3.24-.97,3.39-2.69,.17-2.01-1.06-3.25-3.13-3.27-1.85-.02-2.94,1.07-2.99,2.91-.05,1.87,1.08,2.82,2.73,3.05Zm378.82,32.11c-1.96,.53-3.32,1.76-3.29,3.87,.02,1.21,.76,2.66,2.29,2.35,2.14-.43,3.58-2.02,3.71-4.2,.08-1.44-1.33-1.89-2.71-2.02Zm-94.27-179.09c1.45-.35,2.82-1.1,2.82-2.94,0-2.03-1.27-3.1-3.27-3.04-1.91,.06-2.75,1.47-2.72,3.11,.02,1.74,1.18,2.75,3.18,2.87Zm-83.95,99.67c-.2-1.87-1.25-2.88-3.09-2.69-1.95,.2-3.16,1.43-3.05,3.42,.08,1.61,1.23,2.47,2.85,2.44,2.05-.03,3.06-1.22,3.3-3.17Zm-47.49-19.02c-.12-1.58-.92-2.63-2.6-2.73-1.95-.11-3.5,.65-3.63,2.78-.12,1.93,1.22,2.86,3.01,2.82,1.75-.03,2.93-.98,3.22-2.88Zm387.29-96.35c1.64-.1,2.67-.94,2.8-2.56,.16-1.93-.52-3.47-2.72-3.57-1.59-.07-2.78,.9-2.95,2.45-.22,1.99,.99,3.16,2.87,3.68Zm-66.84,219.23c1.22-.48,2.8-1.01,2.61-3-.17-1.84-1.52-2.71-3.26-2.62-1.79,.09-2.99,1.32-2.95,3.03,.05,1.84,1.55,2.5,3.6,2.59Zm-450.04,1.23c-.15-1.87-1.32-2.88-3.05-2.88-1.74,0-3.05,1.17-3.19,2.88-.16,1.89,1.27,2.87,3,2.87,1.75,0,2.84-1.12,3.24-2.88Zm161.9-451.18c-.32-1.8-1.28-2.86-3.18-2.76-1.69,.09-2.6,1.15-2.61,2.76,0,1.82,1.01,3.04,2.87,3.06,1.89,.02,2.72-1.29,2.92-3.06Zm-42.91-170.14c-1.56,.23-2.95,.96-2.88,2.87,.06,1.6,1.19,2.5,2.81,2.52,1.71,.03,3.27-.6,3.32-2.49,.04-1.8-1.37-2.65-3.25-2.91Zm-74.23,171.23c1.7-.28,3.14-1.07,3.13-2.9-.01-1.84-1.36-2.75-3.16-2.69-1.81,.06-3,1.1-3.07,2.89-.08,1.98,1.36,2.61,3.11,2.7Zm-89.09,206.39c-.07-1.62-.88-2.67-2.52-2.83-2.01-.2-3.45,.8-3.67,2.78-.21,1.91,1.21,2.88,2.94,2.87,1.7-.01,2.91-.99,3.25-2.82ZM466.07,206.58c-.1-1.63-.95-2.83-2.77-2.99-1.81-.15-3.01,.68-3.11,2.62-.09,1.84,.88,3.01,2.66,3.18,1.81,.18,2.88-.86,3.22-2.81Zm-203.06,523.06c-.35-1.81-1.56-2.73-3.26-2.62-1.7,.11-2.98,1.24-2.88,3.01,.09,1.76,1.43,2.72,3.18,2.64,1.82-.08,2.61-1.39,2.96-3.02Zm539.08-172.05c1.97-.4,2.86-1.83,2.96-3.66,.08-1.62-.94-2.73-2.58-2.65-2.12,.1-2.84,1.64-2.86,3.56-.01,1.62,.66,2.69,2.48,2.75Zm-35.49-69.09c-.25-1.8-1.21-2.93-3.06-2.72-1.51,.17-2.53,1.16-2.44,2.84,.1,1.79,1.15,2.97,2.88,3.02,1.96,.06,2.46-1.49,2.62-3.14Zm-477.68,211.44c.04-1.94-1.13-2.71-2.66-2.76-1.64-.06-3.26,.44-3.47,2.41-.21,1.96,1.05,2.91,2.86,2.91,1.72,0,3.02-.77,3.27-2.56Zm351.17,38.78c1.56-.22,3.2-.6,3.42-2.47,.24-1.95-1.13-2.77-2.88-2.79-1.73-.03-3.04,.75-3.18,2.64-.13,1.76,1.08,2.4,2.64,2.63Zm-307.17-253.6c-.27-1.6-1.17-2.52-2.82-2.5-1.75,.03-3.11,.8-3.19,2.67-.07,1.7,1.19,2.49,2.75,2.51,1.75,.03,2.92-.87,3.26-2.68Zm-126.23,79.77c-.26-1.74-1.28-2.82-3.05-2.81-1.79,0-2.95,1.06-2.85,2.91,.08,1.56,1.11,2.55,2.72,2.6,1.78,.06,2.89-.83,3.19-2.7Zm313.55,95.51c1.51-.15,2.97-.77,3.02-2.69,.04-1.69-1.19-2.51-2.79-2.47-1.71,.04-3.18,.83-3.29,2.65-.11,1.75,1.38,2.24,3.06,2.51Zm-40.87,7.14c1.17-.21,2.67-.5,2.7-2.28,.02-1.99-1.53-2.52-3.18-2.55-1.67-.03-3.32,.56-3.22,2.47,.09,1.88,1.84,2.21,3.7,2.36Zm-231.22-189.53c-.34-1.79-1.42-2.84-3.22-2.7-1.84,.14-2.79,1.44-2.68,3.21,.1,1.63,1.19,2.48,2.87,2.4,1.84-.09,2.84-1.08,3.03-2.91Zm47.42-118.03c-1.56,.13-2.87,.78-3.02,2.7-.14,1.82,1.12,2.52,2.6,2.61,1.73,.11,3.06-.64,3.09-2.63,.03-1.65-.82-2.6-2.68-2.68Zm-106.38,208.25c-.21-1.23-.97-2.36-2.66-2.33-1.56,.03-2.79,.82-2.84,2.52-.05,1.65,.98,2.69,2.61,2.71,1.58,.02,2.64-.86,2.89-2.9Zm281.92,50.08c-.39-1.73-1.64-2.21-3.14-2.03-1.63,.2-3.16,.89-2.97,2.84,.16,1.65,1.54,2.27,3.07,2.1,1.69-.18,2.84-1.11,3.04-2.91Zm-230.29-65.47c-.13-1.36-1.13-2.34-2.92-2.44-1.56-.09-2.84,.51-2.94,2.21-.12,2.07,1.23,3.14,3.14,3.2,1.51,.05,2.64-.77,2.73-2.96Zm489.09-53.95c-.31-1.71-1.31-2.86-3.09-2.79-1.57,.05-2.58,1.09-2.48,2.76,.1,1.62,1.14,2.59,2.72,2.57,1.51-.02,2.61-.84,2.86-2.53Zm-459.99-26.93c-.02-1.66-1.24-2.14-2.51-2.15-1.67-.01-3.13,.7-3.32,2.59-.19,1.83,1,2.56,2.63,2.39,1.65-.17,2.97-.94,3.21-2.83Zm-26.1-2.26c1.34-.15,2.35-.98,2.38-2.66,.03-1.59-.7-2.84-2.38-2.9-1.68-.07-2.52,1.13-2.6,2.72-.08,1.56,.44,2.78,2.59,2.85Zm379.09,203.45c1.57-.02,2.91-.71,3.05-2.26,.17-1.86-1.18-2.79-2.95-2.83-1.58-.03-2.72,.72-2.73,2.46,0,1.68,1.01,2.49,2.63,2.63Zm-395.23-18.15c-.2-1.45-1.06-2.42-2.73-2.49-1.75-.07-2.66,1-2.72,2.59-.06,1.68,1.09,2.62,2.67,2.67,1.62,.04,2.59-.92,2.78-2.77Zm52.23-239.05c1.81-.21,2.7-1.36,2.64-3.1-.04-1.36-.91-2.38-2.32-2.37-1.72,.02-2.93,.94-2.9,2.83,.03,1.59,.85,2.56,2.57,2.64Zm479.69,53.69c-1.64,.11-2.69,1-2.81,2.58-.12,1.61,.81,2.75,2.46,2.8,1.6,.04,2.62-.94,2.77-2.57,.15-1.7-.76-2.6-2.42-2.81Zm-488.06,266.72c-.28-1.63-1.16-2.73-2.84-2.5-1.74,.24-2.82,1.37-2.68,3.26,.12,1.5,1.1,2.24,2.54,2.2,1.88-.05,2.8-1.17,2.97-2.96ZM508.25,107.27c0-1.63-.81-2.63-2.5-2.7-1.65-.07-2.73,.86-2.9,2.44-.18,1.65,.84,2.73,2.46,2.79,1.58,.06,2.6-.88,2.93-2.54Zm155.67,574.38c-.1-1.77-1.35-2.41-2.81-2.55-1.59-.15-2.74,.59-2.93,2.31-.18,1.55,.66,2.38,2.12,2.49,1.69,.13,3.08-.39,3.63-2.25Zm-299.67-108.17c-.15-1.59-1.15-2.41-2.75-2.38-1.72,.04-3.08,.72-2.96,2.73,.1,1.62,1.16,2.54,2.73,2.55,1.78,.01,2.87-.93,2.98-2.9Zm-106.77,62.07c-.45-1.51-1.28-2.56-2.97-2.31-1.55,.23-2.61,1.18-2.49,2.82,.12,1.64,1.23,2.5,2.87,2.28,1.55-.21,2.4-1.24,2.59-2.79Zm-54.06-57.92c-1.69,.13-3.23,.7-3.3,2.61-.07,1.69,1.23,2.42,2.81,2.48,1.61,.05,2.75-.7,2.97-2.35,.23-1.78-.9-2.5-2.48-2.74Zm489.83,153.14c-.14-1.84-1.42-2.28-2.95-2.22-1.51,.07-2.99,.58-2.8,2.41,.16,1.52,1.25,2.56,2.93,2.45,1.58-.11,2.62-.93,2.82-2.64Zm-227.41-139.73c.05-1.54-.85-2.36-2.24-2.47-1.54-.12-2.86,.59-3.18,2.17-.36,1.77,.86,2.66,2.42,2.71,1.52,.05,2.68-.75,3-2.42Zm-182.12-164.47c-.34-1.35-1.14-2.25-2.58-2.14-1.78,.14-2.9,1.2-2.77,3.02,.11,1.56,1.39,1.89,2.73,1.78,1.6-.13,2.5-1.03,2.62-2.67Zm173.46,105.34c1.43-.19,2.52-1.16,2.36-3.05-.12-1.51-1.17-2.13-2.62-2.02-1.87,.15-2.87,1.22-2.72,3.09,.12,1.49,1.09,2.16,2.99,1.99Zm-167.12-133.76c-.06-1.4-.68-2.39-2.17-2.44-1.97-.06-2.67,1.28-2.76,2.96-.07,1.42,.86,2.5,2.15,2.54,1.84,.05,2.56-1.39,2.78-3.07Zm5.28-17.2c-1.22-1.5-2.38-3.49-4.08-4.8-.87-.67-2.24,.87-1.75,1.92,.87,1.84,1.92,3.81,3.92,4.69,.89,.39,1.81-.23,1.91-1.81Zm158.98-118.18c-.34-1.53-1.1-2.64-2.82-2.37-1.32,.21-2.32,1.02-2.27,2.47,.06,1.57,.98,2.69,2.59,2.64,1.59-.05,2.41-1.16,2.5-2.75Zm13.64,288.28c-.37-1.84-1.67-2.51-3.36-2.46-1.38,.04-2.46,.71-2.29,2.26,.17,1.53,1.13,2.55,2.75,2.58,1.55,.02,2.62-.73,2.91-2.38Zm-179.85,189.29c1.77-.12,3.03-1.02,3.09-2.8,.04-1.4-1.03-2.19-2.48-2.17-1.78,.04-3.01,.9-3.06,2.75-.04,1.5,1.05,2.11,2.45,2.21Zm482.98-186.93c.18,1.54,.87,2.75,2.58,2.66,1.56-.08,2.59-1.04,2.54-2.74-.04-1.62-.87-2.71-2.56-2.69-1.69,.02-2.43,1.15-2.57,2.77Zm-506.57-146.21c-.02-1.49-.73-2.47-2.24-2.42-1.73,.05-3.08,.83-3.02,2.82,.05,1.69,1.09,2.59,2.75,2.48,1.7-.11,2.33-1.35,2.51-2.88Zm81.07,156.31c-1.55,.13-2.78,.77-2.74,2.49,.03,1.32,.72,2.44,2.25,2.45,1.61,0,2.69-.91,2.77-2.51,.07-1.41-.82-2.26-2.27-2.42Zm-93.7,.52c1.54-.05,2.68-.72,2.89-2.36,.21-1.63-.56-2.77-2.23-2.87-1.55-.1-2.72,.72-2.91,2.35-.18,1.57,.48,2.68,2.25,2.88Zm33.94,109.19c1.57-.34,2.55-1.19,2.28-2.91-.18-1.17-.83-2.09-2.17-1.92-1.53,.19-2.68,1.01-2.61,2.7,.06,1.45,1,2.19,2.49,2.13Zm-26.95-73.98c-1.69,.31-2.57,1.25-2.29,2.96,.23,1.43,1.19,2.28,2.61,2.13,1.69-.18,2.37-1.49,2.27-3.03-.1-1.51-1.25-2.03-2.59-2.07Zm.32-102.18c-1.5,.17-2.74,.83-2.91,2.42-.16,1.46,.76,2.27,2.26,2.23,1.63-.04,2.6-.96,2.68-2.55,.07-1.27-.83-1.89-2.02-2.1Zm501.61,52.66c1.51-.03,2.46-.8,2.61-2.23,.15-1.44-.65-2.46-2.11-2.62-1.63-.18-2.87,.55-2.83,2.32,.04,1.34,.9,2.3,2.33,2.53Zm-515.11-62.22c-1.54,.26-2.49,1.13-2.43,2.77,.06,1.48,1.01,2.23,2.43,2.15,1.8-.1,2.91-1.09,2.71-2.96-.16-1.46-1.32-1.93-2.71-1.96Zm26.39-78.67c1.56-.35,2.45-1.4,2.5-2.95,.05-1.59-1.1-2.22-2.47-2.12-1.61,.12-2.58,1.17-2.51,2.81,.06,1.46,1,2.2,2.49,2.26Zm484.59,272.94c1.63,0,2.78-.86,2.87-2.4,.08-1.39-1.05-2.21-2.42-2.29-1.61-.1-2.7,.69-2.76,2.38-.06,1.5,.9,2.18,2.31,2.31Zm30.13-209.95c-1.31,.25-2.27,.88-2.21,2.41,.05,1.36,.72,2.5,2.08,2.65,1.73,.2,2.5-1.04,2.48-2.59-.02-1.38-.94-2.2-2.35-2.47Zm-48.27,86.19c1.48-.11,2.27-1.02,2.43-2.34,.17-1.44-.69-2.42-2.08-2.58-1.33-.15-2.51,.46-2.67,1.96-.18,1.63,.83,2.52,2.32,2.96Zm14.19,78.05c-.06-1.3-.72-2.28-2.22-2.37-1.45-.09-2.49,.7-2.63,2.12-.16,1.64,.78,2.75,2.47,2.75,1.4,0,2.32-.83,2.38-2.51Zm-114.35,33.68c.1,1.78,1.31,2.39,2.77,2.61,1.42,.21,2.5-.45,2.76-1.86,.28-1.58-.92-2.23-2.2-2.44-1.43-.23-2.79,.02-3.32,1.69ZM405.79,80.36c-.09-1.52-.97-2.25-2.38-2.26-1.57,0-2.75,.69-2.66,2.44,.07,1.37,.96,2.33,2.37,2.35,1.6,.02,2.53-.91,2.68-2.53Zm407.86,448.11c-1.17,.09-2.21,.44-2.33,1.74-.16,1.68,.92,2.53,2.44,2.69,1.27,.14,2.64-.11,2.57-1.77-.06-1.56-1.24-2.33-2.69-2.66Zm-476.9,2.64c-.4-1.35-1.29-2.14-2.69-1.96-1.36,.18-2.27,1.07-2.14,2.51,.12,1.47,1.09,2.19,2.55,1.93,1.32-.24,2.19-1.03,2.28-2.48Zm480.63-57.85c-1.43,.09-2.32,.85-2.36,2.26-.04,1.59,.79,2.65,2.48,2.58,1.44-.06,2.22-1.01,2.14-2.43-.07-1.35-.81-2.26-2.27-2.41Zm-110.04,69.26c-1.35,.33-2.25,1.08-2.13,2.57,.11,1.43,1.02,2.39,2.39,2.34,1.62-.05,2.57-1.2,2.37-2.81-.17-1.36-1.18-2.11-2.63-2.1Zm1.87-33.4c-.22-1.44-1.16-2.25-2.51-2.3-1.43-.05-2.28,.86-2.37,2.32-.09,1.45,.58,2.51,2.06,2.54,1.57,.03,2.53-.95,2.81-2.57Zm-421.25,154.87c-.12-1.48-.94-2.38-2.41-2.3-1.4,.07-2.4,.97-2.44,2.4-.04,1.49,.99,2.37,2.39,2.33,1.4-.04,2.23-1,2.45-2.43Zm-6.71-261.08c-.02-1.27-.57-2.13-1.92-2.14-1.42-.01-2.47,.73-2.7,2.12-.26,1.58,.84,2.32,2.23,2.37,1.48,.05,2.24-.89,2.4-2.34Zm519.48,135.26c-.13-1.51-1.08-2.25-2.47-2.14-1.35,.1-2.35,.89-2.23,2.43,.11,1.47,1.07,2.24,2.49,2.15,1.41-.09,2.24-.92,2.22-2.44Zm-524.42,113.41c-.37-1.38-1.24-2.14-2.69-1.9-1.23,.2-1.91,1.16-1.87,2.3,.05,1.38,.9,2.39,2.39,2.21,1.4-.16,2.02-1.24,2.17-2.61Zm496.25-139.57c1.63,.05,2.24-1.04,2.35-2.3,.1-1.18-.69-2.03-1.87-2.24-1.46-.27-2.39,.49-2.5,1.93-.11,1.4,.77,2.22,2.02,2.61Zm-501.9,128.6c-.18-1.21-.83-2.1-2.04-2.12-1.66-.03-2.52,1.03-2.46,2.64,.05,1.24,.88,1.99,2.13,1.88,1.39-.12,2.11-1.08,2.37-2.41Zm-1.32-222.85c-.29-1.41-1.13-2.2-2.59-2.09-1.45,.11-2.31,1.06-2.19,2.45,.12,1.35,1.03,2.33,2.5,2.14,1.34-.17,2.17-1.07,2.28-2.5ZM519.76,92.78c-1.45,.17-2.58,.87-2.89,2.42-.32,1.58,.68,2.34,2.07,2.34,1.57,0,2.55-.97,2.72-2.55,.14-1.29-.65-1.94-1.9-2.21Zm282.18,315.48c1.28-.06,2.14-.79,2.12-2-.02-1.54-.86-2.69-2.57-2.67-1.35,.01-1.9,.99-1.85,2.2,.06,1.41,.87,2.26,2.3,2.47Zm4.37,180.58c-.15-1.27-.86-2.08-2.1-2.12-1.39-.05-2.5,.59-2.59,2.12-.08,1.34,.92,1.95,2.08,2.09,1.51,.18,2.3-.7,2.6-2.09ZM235.56,483.5c1.4-.24,2.33-.94,2.18-2.48-.12-1.23-.84-2.03-2.12-2.05-1.46-.03-2.45,.77-2.49,2.21-.05,1.5,1.08,2.11,2.44,2.33Zm67.24-113.76c-.22-1.2-.95-1.95-2.17-1.92-1.46,.03-2.28,.92-2.14,2.38,.11,1.17,.88,2.1,2.1,2.01,1.34-.1,2.18-.99,2.22-2.47Zm14.16,115.02c-1.43,.25-2.3,1.04-2.15,2.51,.12,1.24,.99,1.92,2.23,1.93,1.46,.01,2.47-.83,2.43-2.23-.05-1.36-1.06-2.17-2.5-2.21Zm482.47-28.46c1.62,.04,2.32-.88,2.39-2.29,.06-1.17-.3-2.19-1.68-2.37-1.53-.2-2.4,.63-2.62,2.03-.22,1.42,.46,2.38,1.91,2.63Zm-34.07,206.65c-1.42,.02-2.44,.64-2.57,2.08-.14,1.48,.82,2.29,2.19,2.43,1.41,.14,2.42-.59,2.56-2.03,.15-1.5-.85-2.18-2.18-2.48ZM254.8,463.18c-.26-1.34-1.06-2.24-2.55-2.09-1.63,.16-1.97,1.39-1.76,2.75,.18,1.16,.8,2.13,2.16,1.98,1.45-.16,2.21-1.06,2.15-2.64Zm456.5,25.13c-.08-1.51-1.02-2.21-2.46-2.18-1.24,.03-2.14,.77-2.17,2.04-.03,1.44,.95,2.4,2.31,2.54,1.54,.16,2.18-.93,2.32-2.4Zm-418.87-74.6c-.24-.8-.68-1.75-2-1.81-1.54-.07-2.31,.94-2.37,2.26-.05,1.3,.61,2.52,2.16,2.38,1.35-.12,2.16-1.06,2.21-2.83Zm180.99-208.18c1.59,.04,2.37-.88,2.63-2.19,.29-1.46-.42-2.44-1.92-2.56-1.44-.11-2.37,.69-2.57,2.12-.2,1.43,.46,2.37,1.86,2.63Zm-220.67,338.49c1.4-.25,2.29-1.03,2.09-2.5-.22-1.63-1.36-2.35-2.95-2.17-1.24,.14-1.95,1.02-1.86,2.21,.12,1.58,1.08,2.46,2.73,2.46Zm518.03-190.06c-.27-1.52-.91-2.69-2.68-2.61-1.38,.06-1.87,1.06-1.76,2.26,.15,1.55,.98,2.68,2.67,2.62,1.32-.05,1.82-1,1.77-2.26ZM252.42,522.39c-1.27,.14-2.41,.65-2.39,2.2,.02,1.59,1.32,2.02,2.6,2.07,1.21,.05,2.09-.62,2.18-1.92,.1-1.58-.89-2.18-2.39-2.34Zm484.76,121.19c-1.37,.14-2.45,.7-2.41,2.23,.04,1.51,1.07,2.13,2.49,2.08,1.42-.05,2.39-.81,2.42-2.25,.03-1.59-1.18-1.96-2.5-2.06Z"/>
  <path d="M205.82,852.73c-1.86,1.05-3.76,.57-5.56,.65-2.03,.09-4.6,.72-6-.24-2.21-1.53,.79-3.37,.93-5.26,.23-3.02-.86-5.23-3.2-6.87-1.95-1.37-4.15-1.52-6.23-.3-2.53,1.49-3.72,3.87-3.4,6.75,.2,1.81,.92,3.56,1.47,5.55-2.43,0-4.61,.05-6.79,0-6.18-.18-6.15-.19-5.48-6.06,.31-2.73-.73-5.01-3.02-6.46-1.98-1.25-4.24-1.37-6.25-.07-2.35,1.52-3.56,4.09-2.61,6.55,2.23,5.77-1.06,5.64-4.98,5.29-1.25-.11-2.52-.14-3.77-.05-3.5,.26-5.05-.46-2.95-4.29,1.44-2.64,1.39-5.52-1.41-7.59-1.75-1.29-3.74-1.69-5.79-.82-2.12,.9-2.32,2.79-2.15,4.76,.17,1.98,.41,3.95,.64,6.04-6.27-2.94-6.68-8.98-.82-13.82,4.35-3.59,9.16-6.62,13.68-10.01,4.02-3.01,8.02-6.06,11.86-9.29,18.88-15.89,28.83-35.95,28.75-60.88-.03-10.39-.44-20.72-1.53-31.04-.2-1.92-1.38-4.48,1.09-5.46,2.41-.96,3.37,1.73,4.68,3.13,7.08,7.57,14.03,15.26,21.18,22.76,8.58,8.99,18.84,15.62,30.24,20.44,3.18,1.35,4.37,3.25,4.62,6.7,1.45,20.6-.41,40.78-6.83,60.47-1.17,3.59-2.67,7.05-4.68,10.26-4.93,7.88-16.84,12.29-25.71,9.71-2.37-.69-.99-1.79-.58-2.74,1.13-2.62,.76-4.86-1.34-6.84-2.92-2.75-7.87-3.82-9.84-1.7-3.19,3.43-1.49,6.6,1.1,9.54,.28,.31,.4,.76,.65,1.23Z"/>
  <path d="M122.66,113.16c11.19,.03,22.14,9.59,22.94,19.85,.18,2.24-.32,3.39-2.59,4.13-13.31,4.37-25.91,10.43-38.39,16.71-3.31,1.67-4.63,1-5.61-2.51-3.27-11.65,2.54-28.06,12.57-34.79,3.35-2.25,7.02-3.46,11.08-3.41Z"/>
  <path d="M244.32,200.42c0-6.07,1.42-11.84,3.86-17.35,6.76-15.25,20.97-21.67,36.38-16.52,14.17,4.74,21.6,18.82,17.87,34.55-3.46,14.58-13.02,23.53-27.41,26.72-17.46,3.87-30.89-8.41-30.7-27.41Zm48.26-6.86c-.12-3.95-3.96-7.03-8.06-6.84-3.32,.15-5.24,1.97-5.27,5.34-.04,3.36,4.04,6.5,8.04,6.25,3.27-.21,5.23-1.83,5.3-4.75Z"/>
  <path d="M245.31,624.78c-3.93-1.69-4.82-4.77-5.48-7.95-.16-.76,.09-1.56,.93-1.93,.69-.3,1.31,.07,1.56,.6,1.3,2.82,3.43,5.42,2.99,9.28Z"/>
  <path d="M234.94,624.23c0,1.46-.15,2.55-1.75,2.19-1.74-.38-2.56-1.62-2.7-3.29-.1-1.17,.39-2.35,1.69-2.25,2.08,.16,2.59,1.84,2.77,3.34Z"/>
  <path d="M247.39,609.18c1.95,.95,3.06,2.54,3.01,4.77-.02,1.03-.78,1.89-1.88,1.47-2.26-.85-2.62-2.92-2.7-5-.03-.82,.45-1.48,1.56-1.25Z"/>
  <path d="M229.64,636.56c-2.04-.5-2.62-2.11-2.87-3.87-.14-.97,.15-2.18,1.34-1.96,1.95,.36,2.6,2.08,2.92,3.84,.19,1.05-.19,1.83-1.39,1.98Z"/>
  <path d="M271.75,690.2c-2.59,0-4.25-.92-4.7-3.3-.2-1.03,.32-2.08,1.48-1.77,2.08,.55,4.45,1.12,5.11,3.54,.46,1.67-1.2,1.36-1.89,1.54Z"/>
  <path d="M269.74,699.32c-2.58,.84-4.72,.52-6.02-1.83-.51-.92-.16-2.23,.77-2.27,2.66-.1,3.43,2.66,5.25,4.1Z"/>
  <path d="M274,680.67c-1.61-.23-2.57-1.44-2.9-2.99-.24-1.16,.47-2.29,1.79-2.05,1.7,.31,2.31,1.88,2.73,3.36,.33,1.17-.31,1.71-1.62,1.68Z"/>
  <path d="M223.3,538.69c1.38,1.6,3.4,2.99,3.83,5.39,.19,1.06-1.21,1.7-1.97,1.36-2.19-.95-2.93-3.07-3.31-5.25-.14-.77,.13-1.55,1.45-1.5Z"/>
  <path d="M239.16,540.74c-.59,.19-1.17,.48-1.77,.54-1.93,.19-2.88-.95-3.22-2.66-.15-.75-.16-1.75,.76-1.97,1.67-.39,2.52,.96,3.32,2.07,.43,.6,.53,1.43,.79,2.15,.01-.01,.13-.12,.13-.12Z"/>
</svg>