<?xml version="1.0" encoding="UTF-8"?>
<svg id="Layer_1" data-name="Layer 1" xmlns="http://www.w3.org/2000/svg" viewBox="0 0 864 864">
  <path d="M473.34,422.55c-41.9-1.2-84.14-7.2-124.9-21.58-15.52-5.47-30.66-11.86-44.5-21.03-18.73-12.4-31.99-29.16-40.38-49.83-1.37-3.37-2.54-4.23-6.18-2.99-13.25,4.51-26.36,4.59-38.81-2.82-10.46-6.22-16.33-15.57-17.89-27.5-1.17-8.93-.45-17.84,1.2-26.71,.65-3.48,1.84-4.43,5.38-3.4,12.66,3.68,25.73,4.68,38.81,5.61,3.33,.24,4.29-.72,4.44-4.1,1.35-29.55,9.79-56.82,27.04-81.06,2.08-2.92,1.35-4.22-1.21-6-10.82-7.53-20.66-16.1-27.78-27.41-8.16-12.95-10.55-27.63-12.55-42.37-1.2-8.85-2.42-17.76-1.16-26.73,.31-2.21,.73-4.43,1.39-6.55,3.58-11.49,10.96-15.34,22.5-11.74,8.09,2.52,14.83,7.25,21.17,12.77,18.91,16.45,37.16,33.69,57.56,48.39,2.88,2.08,5.14,2.42,8.15,.59,2.44-1.49,5.11-2.68,7.83-3.58,3.37-1.11,3.71-2.48,1.62-5.34-9.28-12.68-14.02-27.16-16.11-42.56-1.65-12.11-1.84-24.2,1.42-36.15,.93-3.41,2.16-6.69,3.92-9.75,4.68-8.11,12.64-9.89,20.36-4.53,3.85,2.67,7,6.07,9.5,10.03,14.7,23.28,27.29,47.64,37.17,73.36,1.11,2.88,2.2,3.49,5.18,2.69,8.97-2.43,9.06-2.29,7.74-11.48-2.81-19.61-3.76-39.11,2.51-58.33,3.79-11.61,9.06-22.54,15.71-32.73,8.7-13.34,21.78-12.93,30.03,.86,7.36,12.3,11.51,25.95,15.71,39.52,5.15,16.64,8.91,33.64,12.37,50.7,.34,1.68,.32,3.57,1.97,4.69,3.13,2.14,5.98,1.19,7.22-2.55,6.24-18.86,13.73-37.13,24.96-53.68,6.49-9.57,14.07-18.2,22.34-26.22,6.84-6.64,14.99-10.32,24.76-9.01,8.12,1.09,12.94,5.59,14.76,13.58,2.29,10.08-.57,19.68-3.23,29.2-5.36,19.25-13.3,37.63-19.4,56.63-1.61,5.01-2.71,10.2-4.42,15.17-1.48,4.29,1.83,5.5,4.07,7.6,2.52,2.37,4.05,.2,5.69-1.09,14.55-11.54,29.71-22.13,46.74-29.77,3.94-1.77,7.93-3.44,12.19-4.24,9.41-1.77,15.58,2.71,16.96,12.15,.95,6.5-.29,12.75-2.34,18.85-4.05,12.07-9.73,23.35-18.27,32.86-3.33,3.7-3.15,6.37-.58,10.29,8.59,13.08,16.85,26.37,25.18,39.62,2.04,3.24,4.02,6.54,5.68,9.98,1.28,2.65,2.65,2.89,5.23,1.69,11.88-5.55,23.47-11.63,34.67-18.42,5.09-3.09,5.13-3.15,6.46,2.81,2.48,11.1,4.82,22.29,1.83,33.63-4.64,17.54-16.42,28.45-33.17,34.27-3.02,1.05-4.41,2.19-4.51,5.54-.99,32.61-15.04,59.26-37.8,81.8-25.7,25.45-57,40.47-91.74,49.21-23.46,5.9-47.32,7.02-72.47,7.16Zm74.17-100.57c2.22,.19,4.44,.39,6.67,.58,19.2,1.65,35.35-4.75,47.69-19.39,21.51-25.5,18.73-67.94-5.53-91.4-19.1-18.47-45.71-20.65-65.9-5.39-27.05,20.45-35.2,66.69-16.67,95.07,4.46,6.83,10.07,12.48,18.84,16.61-2.49-2.86-4.22-4.51-5.56-6.44-10.84-15.6-14.93-32.56-8.07-50.73,7.08-18.76,27.72-22.69,42.51-9.1,21.48,19.74,13.12,64.5-13.99,70.19Zm-180.11,11.13c-5.76-.73-10.87-2.82-15.53-5.96-16.91-11.41-24.58-36.68-16.91-55.48,6.77-16.6,24.43-21.64,37.91-10.36,14.53,12.16,20.33,27.81,16.65,46.62-.58,2.95-1.58,5.82-2.38,8.73,3.44-3.44,5.55-7.51,7.16-11.84,12.2-32.81-4.54-74.56-35.99-89.85-21.79-10.59-47.47-3.54-60.79,16.67-6.02,9.14-9.27,19.27-10.29,30.06-2.41,25.51,3.38,48.23,24.75,64.36,16.84,12.71,35.6,15.41,55.43,7.05Zm45.51-212.38c.91-1.42-.05-2.34-.55-3.23-13.07-23.61-25.66-47.49-40.32-70.17-2.34-3.62-4.98-7.05-8.34-9.83-6.59-5.45-10.79-4.58-14.7,3.12-4.63,9.1-4.9,18.79-3.23,28.55,3.2,18.68,10.84,35.66,20.73,51.68,1.38,2.23,2.53,4.84,5.91,6.79-1.71-3.1-2.91-5.33-4.17-7.52-7.86-13.63-14.22-27.88-17.62-43.31-2.19-9.94-2.9-19.95,.31-29.82,2.78-8.54,6.18-9.31,12.17-2.79,4.55,4.96,8.34,10.54,11.63,16.38,10.05,17.81,20.59,35.31,32.45,51.99,1.91,2.68,3.19,5.83,5.73,8.16Zm115.75,228.26c-1.53,5.16-3.66,9.95-7.08,14.06-13.12,15.76-30.78,21.54-50.46,22.46-15.37,.71-29.52-3.23-41.56-13.03-7.12-5.79-12.99-12.68-13.9-22.47-.08-.84-.35-1.6-1.29-1.74-1.21-.18-1.55,.83-2.05,1.63-2.9,4.62-7.02,6.24-12.31,4.98-1-.24-2.26-1.2-2.85,.39-.59,1.57,.69,2.39,1.86,2.88,3.33,1.39,6.74,.99,9.68-.77,3.56-2.12,5-1,6.68,2.44,3.19,6.54,8.05,11.87,13.88,16.24,14,10.49,29.95,14.11,47.05,12.31,23.89-2.52,43.7-11.8,54.11-35.2,1.02-2.29,2.03-1.73,3.62-.93,3.61,1.83,7.35,3.2,11.48,1.78,1.1-.38,2.27-.88,1.92-2.28-.33-1.33-1.46-1.25-2.71-1.16-8.76,.6-11.75-1.41-14.65-9.71-.28-.79-.56-1.62-1.47-1.58-.97,.04-1.13,.92-1.19,1.76-.22,2.75,.46,5.36,1.25,7.95Zm-194.8-213.1c-.64-2.01-2.15-2.43-3.32-3-23.01-11.27-42.72-26.67-59.03-46.49-3.84-4.67-8.34-8.84-13.92-11.56-5.56-2.71-9.35-1.6-12.5,3.73-2.24,3.79-3.41,7.95-3.48,12.32-.52,30.97,8.75,58.13,31.41,80.01,1.07,1.03,2.09,2.2,4.44,2.74-3.85-4.53-7.23-8.34-10.43-12.3-16.86-20.91-23.51-44.98-21.66-71.53,.34-4.81,1.44-10.24,6.32-12.12,4.82-1.86,8.85,1.95,12.13,5.12,6.54,6.31,12.72,13,19.05,19.54,14.42,14.87,31.84,25.13,50.97,33.54Zm182.76-25.3c1.36-3.89,2.68-7.79,4.08-11.67,7.4-20.52,16.14-40.28,31.54-56.32,5.36-5.58,11.16-10.52,18.57-13.16,7.26-2.59,11.36-.37,13.19,7.03,1.13,4.55,1.19,9.19,.73,13.81-.83,8.43-2.43,16.71-4.96,24.83-2.87,9.23-6.57,18.14-9.87,27.36,.67-.06,.82-.47,.99-.86,7.11-15.39,13.39-31.07,15.91-47.95,.99-6.62,1.52-13.35-.65-19.93-2.76-8.37-7.61-10.71-15.9-7.63-5.18,1.92-9.63,5.01-13.57,8.8-21.58,20.72-32.44,47.23-40.07,75.7Zm-23.38-10.82c-.24-2.61-.3-5.25-.74-7.83-2.97-17.55-8.45-34.34-15.43-50.68-4.08-9.57-8.5-18.95-15.23-26.99-6.68-7.98-14.46-7.16-19.89,1.92,8.96-6.3,14.35-5.25,20.84,4.1,3.19,4.6,5.92,9.47,8.25,14.56,9.55,20.87,18.06,42.1,22.21,64.93Zm95.45,49.05c1.43-2.08,2.11-3.53,3.19-4.57,11.07-10.7,22.97-20.31,37.14-26.68,4-1.8,8.56-4.44,12.6-1.03,3.9,3.28,2.73,8.22,1.74,12.6-2.58,11.5-7.94,21.83-13.84,31.91-1.35,2.31-3.26,4.37-3.67,7.18,2.3-2.89,4.51-5.83,6.37-8.97,6.62-11.14,13.1-22.42,14.26-35.67,.91-10.44-5.18-14.6-14.67-10.37-16.31,7.27-30.02,18.04-41.91,31.23-.66,.74-1.82,1.34-1.22,4.37Zm-175.98,22.56c4.73-.27,9.06-1.71,12.91-4.48,3.02-2.18,3.25-4.83,1.31-7.89-4.5-7.12-15.03-7.41-20.41-.52-1.96,2.51-3.17,5.29-1.68,8.42,1.54,3.24,4.48,4.33,7.88,4.48Zm20.02-59.35c-5.18-28.26-3.73-56.28,3.14-84.1-8.39,27.77-9.94,55.78-3.14,84.1Zm-49.21,21.03c.36-.16,.72-.33,1.08-.49-5.87-15.35-11.74-30.7-17.61-46.05-.41,.16-.82,.32-1.23,.48,5.21,15.63,10.69,31.15,17.76,46.06Zm62.47-51.33c-4.86,13.69-1.96,27.23,.8,40.78-.74-13.58-1.99-27.15-.8-40.78Zm38.8,36.21c.46-10.49-5.69-39.72-9.87-45.5,4.31,15.44,6.56,30.07,9.87,45.5Zm-13.22-5.96c-1.1-13.14-5.68-29.32-9.28-32.81,3.05,10.78,5.97,21.12,9.28,32.81Zm-86.97-12c.4,6.32,9.82,23.9,14.54,28.18-5.1-9.88-9.82-19.03-14.54-28.18Zm148.97,22.41c3.71-8.77,7.41-17.54,11.49-26.15-6.92,7.36-9.46,16.65-11.49,26.15Zm77.23,41.13c6.29-4.53,11.97-9.65,15.42-16.58-.33-.27-.65-.53-.98-.8-4.81,5.79-9.63,11.58-14.44,17.38Zm-324.64-32.56c5.55,8.02,12.6,14.28,21.46,18.43-7.62-5.59-14.42-12.14-21.46-18.43Zm-11.37,3.78c-.26,.31-.53,.62-.79,.93,6.53,6.93,13.29,13.62,21.44,18.81-6.88-6.58-13.77-13.16-20.65-19.74Zm344.04,3.34c-7.33,4.95-12.45,11.8-16.7,19.4,5.56-6.47,11.13-12.93,16.7-19.4Zm-75.19-11.77c1.77-7.58,5.02-14.7,6.87-22.26-4.57,6.71-6.25,14.32-6.87,22.26Zm-10.33-35.2c-4.2,8.19-8.05,16.49-9.03,25.75,3.01-8.58,6.02-17.17,9.03-25.75Zm-74.3,21.25c-.38-7.73-1.04-15.38-3.23-22.81-.13,7.78,1.29,15.35,3.23,22.81Zm-156.55,16.64c4.24,5.88,9.88,9.95,16.64,12.43-5.55-4.14-11.09-8.29-16.64-12.43Zm-17.45,31.61c.3-.35,.61-.69,.91-1.04-3.6-2.61-7.2-5.22-10.81-7.82l-.85,1.17c3.58,2.56,7.16,5.12,10.75,7.68Z"/>
  <path d="M526.45,565.73c.27,2.36,1.43,4.27,3.02,5.96,2.79,4.65,5.58,9.3,8.37,13.94,.81,2.85,1.91,5.49,4.9,6.75,2.57,4.37,5.13,8.74,7.7,13.11,11.66,17.95,25.08,34.61,37.59,52.18,1.09-1.51-.16-2.24-.59-2.96-3.41-5.69-3.4-5.99,3.01-7.67,4.17-1.09,8.42-1.88,12.78-.86,3.53,.83,6.25,2.57,7.13,6.26,.85,3.56-.9,6.21-3.63,8.24-2.95,2.19-6.03,4.19-8.99,6.36-.64,.47-1.97,.87-1.07,2.15,.76,1.08,1.33,.94,2.65,.28,5.81-2.9,11.73-2.79,17.2,.94,2.98,2.03,4.6,5.14,3.61,8.73-.92,3.32-3.91,4.4-7.12,4.69-1.75,.16-3.49,.29-5.35,.45,.08,4.07,3.18,3.89,5.74,4.18,9.38,1.06,9.58,.98,11.06,10.02,6.9,42.14-5.45,77.15-38.67,104.57-10.12,8.35-21.46,15.01-31.38,23.61-3.11,2.69-2.78,4.09,.46,5.76,2.13,1.1,4.23,2.25,6.41,3.24,10.22,4.66,15.1,13.27,17.71,23.64,.79,3.16-1.16,2.95-3.17,3-20.44,.52-40.88,1.08-61.33,1.57-5.27,.13-10.55-.07-15.82,.12-2.95,.11-3.86-1.01-3.91-3.88-.1-5.62,.44-11.18,1.37-16.69,.46-2.76-.33-3.41-2.98-2.92-20.02,3.74-39.71,3.27-59.81-5.8,3.06,5.32,5.56,9.41,7.79,13.64,1.79,3.38,3.11,6.98,4.1,10.71,.69,2.6-.09,3.43-2.72,3.36-7.99-.21-15.97-.33-23.96-.37-17.1-.08-34.19-.27-51.28,.01-4.75,.08-5.34-1.7-4.71-5.61,.98-6.11,4.23-11.26,7.06-17.2-4.69,.74-8.86,1.52-13.07,2.04-18.23,2.22-35.24-1.58-51.19-10.52-22.6-12.68-42.96-28.23-60.35-47.49-2.4-2.66-3.78-2.82-5.34,.45-.33,.7-.91,1.31-1.44,1.91-7.63,8.69-14.76,7.4-18.93-3.46-3.02-7.86-3.28-16.16-3.52-25.19-2.48,1.88-4.43,3.4-6.43,4.86-2.8,2.06-5.89,3.65-9.33,2.04-3.57-1.67-3.91-5.32-3.94-8.68-.05-5.97,1.73-11.65,3.33-17.34,.25-.89,.46-1.79,.84-3.27-2.38,.57-4.31,1.08-6.27,1.5-11.89,2.55-19.92-4.92-18.09-16.98,1.32-8.69,5-16.12,12.42-21.32,1.41-.99,2.71-2.12,4.71-3.7-2.87-1.05-5.2-1.83-7.48-2.74-8.13-3.24-14.82-8.15-18.53-16.38-1.43-3.17-2.24-6.54,0-9.58,2.25-3.04,5.69-3.24,9.15-2.76,6.45,.89,12.22,3.68,17.84,6.71,3.06,1.65,4.91,1.3,6.43-1.87,6.55-13.71,11.89-27.89,16.47-42.37,.64-2.03,.18-3.68-.84-5.43-3.78-6.5-7.88-12.78-12.5-18.71-4.51-5.8-10.69-8.97-17.57-10.99-7.2-2.11-14.52-3.8-21.51-6.61-4.32-1.74-8.53-3.69-11.74-7.2-2.78-3.03-4.01-6.59-2.56-10.6,1.53-4.23,4.85-6.25,9.22-6.43,11.55-.48,22.41,2.83,33.25,6.2,1.78,.56,3.45,1.68,5.54,1.41,.14-1.83-1.41-2.39-2.37-3.23-16.66-14.47-23.94-33.45-26.34-54.75-.3-2.66-.58-5.68,2.28-7.29,2.62-1.48,4.99,.09,7.09,1.52,10.42,7.12,20.6,14.57,30.48,22.43,5.69,4.52,9.24,10.72,12.82,16.94-2.2-11.98-4.74-23.84-5.49-35.96-.25-3.98-.43-7.97,.92-11.86,2.61-7.51,9.97-9.11,15.33-3.09,5.42,6.08,7.13,13.83,8.67,21.51,1.25,6.26,2,12.61,2.06,19.03,.06,6.39-.68,12.72-1.39,19.26,1.69-.17,1.62-1.54,1.96-2.34,7.85-18.68,19.82-34.15,35.88-46.5,6.21-4.77,12.15-9.91,17.38-15.76,2.61-2.92,3.72-2.01,4.75,1.03,1.1,3.22,1.51,6.58,1.53,9.91,.27,41.31-12.49,76.95-45.8,103.31-6.99,5.53-14.71,10.16-22.22,15.01-3.5,2.26-6.06,5.04-7.45,9.01-1.32,3.76-3.4,7.31-4.35,11.14-5.82,23.56-13.38,46.92-9.24,71.77,3.7,22.23,13.65,41.08,30.62,56,5.1,4.48,9.68,9.77,16.26,12.36,1.28,.83,2.56,1.66,3.84,2.49,15.75,11.44,32.92,18.01,52.73,14.8,8.53-1.38,16.97-2.97,25.67-1.29,1.57,.3,4.51,1.85,5.04-1.48,.49-3.06-2.26-2.41-3.97-2.7-2.38-.4-2.37-2.21-2.57-3.97-1.64-13.99-2.04-28.04-1.84-42.09,.05-3.65-.93-4.99-4.54-4.32-1.24,.23-2.55,.1-3.83,.07-2.56-.06-5.44,.14-6.68-2.67-1.27-2.87-.28-5.65,1.55-8.07,3.03-3.99,6.98-6.67,11.99-7.2,5.73-.6,2.89-4.94,3.59-7.68,.7-2.78-1.02-3.42-3.45-3.71-3.49-.42-6.91-1.37-9.96-3.22-4.28-2.59-4.87-5.83-1.55-9.44,3.79-4.12,8.35-7.21,14.15-7,4.14,.15,4.12-2.47,4.48-5.15,.47-3.52-2.37-2.23-3.89-2.5-5.01-.92-8.61-3.51-9.98-8.47-1.08-3.91,.41-7.3,3.5-9.79,3.92-3.16,8.11-3.35,12.44-.68,.88,.54,2.28,1.99,2.82,1.02,1.29-2.31,2.17-4.94,2.71-7.55,.25-1.22-1.47-1.4-2.55-1.63-4.37-.91-8.79-1.63-13.11-2.77-2.63-.69-5.29-1.93-5.63-5.17-.33-3.12,1.75-5.03,4.08-6.55,6.35-4.15,13.34-5.74,20.55-3.24,3.87,1.34,5.6,.47,7.57-2.81,4.27-7.12,4.43-6.96-3.83-8.2-3.78-.57-7.62-1.09-11.26-2.2-5.9-1.8-6.78-5.58-2.27-9.86,5.83-5.53,12.99-7.96,21.01-7.69,4.83,.17,9.62,1.02,14.01,2.89,3.83,1.63,5.32-.97,6.17-3.19,.86-2.23-2.11-2.1-3.45-2.67-7.21-3.02-14.48-5.9-21.79-8.7-2.46-.94-3.58-1.94-1.48-4.33,8.39-9.58,17.94-17.27,31-19.38,6.35-1.02,12.33,.63,18.38,2.2,2.61,.68,1.69,2.26,1.51,4.57,2.13-3.21,3.79-5.7,5.45-8.19,1.14-1.59,2.28-3.18,3.42-4.77,13.03-16.15,22.42-33.99,25.83-54.7,2.62-15.92,4.85-31.84,3.92-48.06-.16-2.74-.85-3.47-3.55-3.5-6.59-.09-9.28-5.02-6.04-10.71,.63-1.1,1.28-2.44,2.29-3.02,6.19-3.57,5.76-8.93,4.68-14.86-1.07-5.85-.79-5.86,4.98-5.56,27.63,1.44,55.2,1.71,82.48-4.03,.43-.09,.92,.1,1.32,.15,.34,.75,.19,1.61-.36,1.72-5.63,1.17-4.83,4.76-3.7,8.86,1.03,3.71,.96,7.61,.31,11.41-.98,5.72-4.04,7.51-9.63,5.75-1.36-.43-2.67-1.05-3.95-1.69q-4.77-2.4-6.59,2.35c-.43,1.13-.87,2.27-1.31,3.41-3.47,6.15-5.09,12.86-6.01,19.79l.1-.14c-3.61,12.66-3.2,25.41-1.08,38.25,2.8,16.95,8.72,32.84,16.04,48.27,.37,.78,1.28,1.32,1.94,1.97,1.05,2.06,2.11,4.12,3.16,6.18Zm-33.51,16.46c3.48-.02,5.98-.49,8.3-1.61,5.27-2.55,7.2-7.91,4.68-12.74-4.02-7.71-17.54-10.46-24.27-4.94-6.36,5.22-5.65,12.86,1.62,16.72,3.28,1.74,6.85,2.52,9.66,2.58Zm-264.41-77.05c4.06,33.86,.98,67.52-4.06,101.12,9.53-33.41,9.49-67.16,4.06-101.12Zm246.55-5.48c-5.35,.02-11.27,4.93-11.13,9.23,.12,3.53,5.01,6.89,10.16,6.97,5.69,.09,11.06-3.92,11.19-8.35,.12-4.3-4.53-7.88-10.22-7.85Zm-66.48,144.88c5.6,0,11.56-4.34,11.72-8.56,.14-3.88-5.53-7.94-10.94-7.85-4.69,.08-9.15,4.53-9.26,9.21-.09,3.97,3.71,7.19,8.48,7.19Zm141.78,209.71c.04-5.02-2.85-9.54-6.1-9.54-2.73,0-5.38,3.67-5.33,7.39,.05,4.12,2.85,7.98,6.04,7.96,3.71-.02,5.36-2.24,5.4-5.81ZM181.15,522.43c9.15,9.73,15.75,21.09,21.29,33.19,5.52,12.08,8.98,24.85,13.23,37.33-6.21-26.11-14.31-51.32-34.52-70.51Zm372.91,330.95c.38,3.31,1.3,6.25,5.23,6.29,3.76,.04,5.49-2.39,5.38-5.9-.11-3.55-1.96-6.49-5.6-6.66-3.86-.18-4.67,3.13-5.01,6.27Zm-20.32,1.68c.1-4.01-2.94-7.85-5.98-7.64-3.01,.21-4.62,2.07-4.5,5.04,.14,3.51,1.11,6.81,5.32,7.2,3.27,.3,4.82-1.82,5.16-4.6Zm-244.25-334.73c-11.5,19.62-24.87,38.05-36.88,57.34,13.76-18.18,26.65-36.91,36.88-57.34Zm227.48,334.13c.12-3.25-1.07-5.29-3.68-5.24-3.49,.07-5.48,2.47-5.73,5.89-.19,2.68,1.1,5,4,4.9,3.61-.13,4.97-2.93,5.41-5.55Zm-121.59-32.55c-5.9-3.01-7.46-6.18-6.76-12.18,.61-5.15,.89-5.49,4.86-6.47,.34-.08,.79-.68,.78-1.02-.05-1.49,.83-3.4-1.07-4.26-1.59-.72-2.75,.39-3.49,1.7-2.74,4.84-4.42,9.98-2.85,15.53,1.02,3.59,2.85,6.74,8.53,6.69Zm-3.46,30.94c-.54-2.42-2.32-3.93-4.92-4.06-2.28-.11-4.21,1.14-4.24,3.59-.05,2.97,2.29,4.05,4.81,4.25,2.3,.18,3.99-.92,4.35-3.78Zm29.57-3.14c-2.27,.69-4.24,1.87-4.01,4.51,.22,2.54,2.1,3.99,4.6,3.78,2.18-.18,3.96-1.43,3.73-4.02-.23-2.52-1.76-3.93-4.32-4.28Zm-15,3.96c-.29-2.57-1.7-4.21-4.23-4.36-2.5-.15-4.54,1.34-4.84,3.71-.37,2.91,2.29,3.53,4.49,3.78,2.22,.25,4.04-.64,4.58-3.12Zm-15.38-113.17c.66-6.5-.07-11.29-3.2-15.49-1.18-1.59-2.7-2.99-4.83-2.4-2.21,.61-3.33,2.43-3.47,4.69-.09,1.54-.86,3.24,.8,4.78,.13-.83,.2-1.45,.32-2.06,.36-1.8-.06-4.25,2.38-4.7,2.8-.51,3.99,1.9,4.75,3.92,1.22,3.24,1.95,6.66,3.24,11.26Zm155.34,76.18c-3.28-.12-3.65-2.34-4.25-4.53-1.09-3.99-2.12-8.04-5.38-10.98-1.86-1.67-3.68-2.52-5.61,.1,8.14,1.21,10.75,7.7,9.15,22.24,3.05-1.29,.44-7.36,6.09-6.83Zm-106.42,39.53c-.36-2.28-1.86-3.5-4.16-3.52-1.67-.02-3.28,.71-3.23,2.66,.07,2.95,2.54,3.3,4.71,3.51,1.57,.16,2.66-.76,2.68-2.65Zm-26.22-52.27c-2.81-2.86-4.96-6.23-7.66-4.15-3.29,2.52-2.48,6.97-1.76,10.8,.93-2.54,.74-5.43,1.84-7.7,2.28-4.71,4.05,.29,7.59,1.05Zm149.9-58.24c-2.96,4.41,1.34,5.01,2.59,6.74,1.65,2.3,4.48,3.16,7.24,1.91,2.9-1.31,4.04-3.81,3.42-7.76-1.49,3.29-1.62,7.35-5.94,6.86-4.04-.46-6.51-2.95-7.31-7.75Zm-227.61,76.4c-3.58,6.77-4.13,6.81-9,1.39-.43-.48-.8-1.03-1.3-1.4-.38-.28-.64-1.19-1.62-.37,1.84,3.58,3.63,7.53,8.39,7.1,2.94-.26,3.28-3.29,3.52-6.72Zm85.13-5.84c3.26,4.04,4.95,4.51,7.61,2.26,3.06-2.58,3.18-7.23,.02-10.69,.64,3.52,1.65,7-1.14,9.65-2.31,2.2-4.17-.88-6.49-1.22Zm126.32-.5c2.95-4.35,3.32-8.2,3.38-11.98,.07-4.46-2.25-5.71-6.69-4,6.31,.71,6.53,1.58,3.31,15.98Zm-279.25-250.89c4.49-3,8.98-6.01,13.47-9.01-5.85,.99-10.13,4.42-13.47,9.01Zm104.82,192.36c2.22,2.37,4.51,2.78,6.7,.63,2.78-2.72,2.39-5.8,.31-9.62-.02,9.37-.33,9.75-7.01,8.98Zm-115.44-174.04c3.53-1.93,7.05-3.85,10.58-5.78-4.57-.01-7.75,2.55-10.58,5.78Z"/>
  <path d="M312.75,791.93c-14.37-.19-27.28-2.13-39.08-9.1-3.04-1.79-4.3-3.84-3.28-7.42,2.53-8.9,6.46-17.04,13.13-23.54,7.82-7.61,16.04-5.52,19.28,4.92,1.6,5.16,2.62,10.52,3.58,15.84,1.16,6.43,2.21,12.85,6.38,19.29Zm-15.05-24.75c-2.04,5.79-4.07,11.58-6.11,17.37,3.63-5.24,6.17-10.86,6.11-17.37Zm-11.88-.91c-2.33,4.69-3.21,8.44-2.78,12.46,1.19-3.68,2.77-7.29,2.78-12.46Z"/>
  <path d="M421.62,563.91c-1.14,1.59-2.28,3.18-3.42,4.77-7.27-1.28-14.2-3.63-20.25-7.84-3.68-2.56-4.39-6.51-2.54-10.7,5.21-11.82,27.2-23.71,40.04-21.93,4.27,.59,4.48,2.19,2.81,5.67-4.23,8.81-9.33,17.08-14.54,25.32-.93,1.47-2.16,2.81-2.1,4.72Z"/>
  <path d="M231.68,640.32c15.81-13.49,39.42-19.51,58.63-12.02,1.95,.76,2.31,1.64,.65,2.92-12.06,9.25-24.97,15.59-40.79,11.61-2.78-.7-5.55-1.5-8.27-2.42-3.39-1.15-6.72-1.9-10.22-.09Zm37.8-9.42c-7.22,1.43-14.44,2.85-21.66,4.28,7.5,.04,14.74-1.27,21.66-4.28Zm-25.07,8.45c5.45,.48,9.86,1.7,14.92,.72-2.68-.3-4.87-.55-7.06-.78-2.28-.24-4.56-.87-7.86,.06Z"/>
  <path d="M522.97,521.84c.46,0,.62,0,.78,0,12.93-.42,13.13-.27,15.86,12.24,.27,1.25,.63,2.35-.71,3.39-5.52,4.28-11.02,8.59-16.41,13.05-1.94,1.6-2.91,1.25-3.76-.92-3.14-7.98-6.06-16.03-8.51-24.25-.61-2.03-.12-2.9,2.1-2.95,3.66-.08,7.31-.37,10.66-.55Z"/>
  <path d="M582.04,621.86c8.39,.24,14.66,3.66,18.81,10.77,1.45,2.49,1.27,4.37-1.43,5.97-4.8,2.84-9.55,5.79-14.17,8.92-1.6,1.08-2.33,.37-3.1-.69-4.58-6.34-9.09-12.73-13.69-19.05-1.38-1.89-.72-2.79,1.2-3.5,4.09-1.5,8.31-2.22,12.38-2.42Z"/>
  <path d="M505.34,501.01c-.16-4.8,5.73-8.18,10.95-7.14,1.25,.25,2.48,.63,3.69,1.03,2.99,1.01,7.22,0,8.89,2.73,2.5,4.07,2.29,9.2,2.85,13.95,.19,1.59-.97,2.12-2.22,2.68-5.91,2.66-12.33,3.23-18.54,4.68-1.97,.46-2.39-.75-2.8-2.31-1.43-5.42-2.32-10.92-2.82-15.62Z"/>
  <path d="M553.24,606.35c5.65-2.1,10.91-5.2,16.87-6.54,3.75-.84,7.47-1.62,11.31-.54,5.6,1.56,6.91,5.68,2.99,9.91-5.02,5.44-11.65,8.83-17.39,13.35-1.07,.84-2.21,.86-2.9-.23-3.42-5.47-8.77-9.65-10.76-16.08,0,0-.14,.13-.14,.13Z"/>
  <path d="M537.85,585.63c-2.79-4.65-5.58-9.3-8.37-13.94-.47-1.67,.35-2.74,1.68-3.57,5.26-3.29,10.53-6.58,15.79-9.89,2.32-1.46,3.95-1.23,5.36,1.42,6.4,11.96,7.29,9.24-2.74,18.01-2.52,2.2-5.14,4.29-7.61,6.54-1.21,1.11-2.26,2.3-4.1,1.43Z"/>
  <path d="M506.29,471.21c1.12-2.52,3.11-3.14,5.76-3.12,11.97,.09,15.56,8.97,15.74,17.62,.03,1.47-.67,2.19-2.18,2.59-5.84,1.56-11.69,3.14-17.42,5.04-3.1,1.03-3.66-.13-3.43-2.79,.57-6.5,1.1-12.99,1.64-19.49,0,0-.11,.15-.11,.15Z"/>
  <path d="M550.45,605.5c-2.57-4.37-5.13-8.74-7.7-13.11-2.14-2.87-1.54-4.64,1.9-5.94,4.16-1.57,8.18-3.49,12.52-4.57,2.85-.71,5.65-.68,8.46,.18,6.38,1.96,7.59,6.32,2.71,10.81-3.85,3.54-8.07,6.69-12.15,9.99-1.21,.98-2.81,1.61-2.95,3.49,0,0,.14-.13,.13-.13-.98-.24-1.95-.48-2.92-.72Z"/>
  <path d="M339.04,786.51c-7.36-.2-13.8,.79-20.05,2.82-2.87,.93-3.86-.36-3.97-2.86-.4-8.44,1.73-16.16,7.21-22.68,2.18-2.59,4.86-2.43,6.7,.59,4.15,6.82,6.36,14.49,10.11,22.12Z"/>
  <path d="M265.41,778.67c-1.28-.83-2.56-1.66-3.84-2.49-3.78-3.38-7.47-6.86-11.38-10.09-3.4-2.81-2.44-5.95-.89-9,1.78-3.5,3.46-7.5,8.44-7.23,4.11,.22,5.45,3.45,6.4,6.74,1.98,6.78,1.79,13.84,2.41,20.79,.03,.39-.75,.86-1.15,1.29Z"/>
  <path d="M449.63,485.54c-.9,6.47-1.83,12.93-2.71,19.4-.26,1.87-1.15,2.42-2.96,1.81-3.77-1.27-7.64-2.25-11.17-4.17-3.25-1.76-4.13-4.36-2.41-7.59,3.64-6.84,9.86-10.11,17.05-11.94,2.34-.6,2.22,.99,2.2,2.49Z"/>
  <path d="M526.45,565.73c-1.05-2.06-2.11-4.12-3.16-6.18-2.34-3.82-1.27-6.11,2.84-7.9,4.36-1.9,8.46-4.43,12.61-6.8,2.6-1.48,4.09-1.22,5.49,1.79,2.85,6.12,3.03,6-2.58,9.6-4.02,2.59-8.04,5.19-11.3,8.77-1.14,1.26-2.24,2.39-3.9,.73Z"/>
  <path d="M412.37,523.19c7.03-9.85,17.87-13.51,27.48-10.28,3.69,1.24,5.39,3.05,3.7,6.99-.69,1.6-1.1,3.31-1.63,4.97-.51,1.6-1.34,2.44-3.15,1.62-8.14-3.68-16.7-4.71-26.39-3.3Z"/>
  <path d="M512.3,451.42c.44-1.14,.87-2.28,1.31-3.41,.53-1.26,1.29-2.48,2.79-1.45,4.87,3.36,9.85,6.7,10.65,13.33,.45,3.73-.78,5.91-4.99,5.4-3.66-.44-7.34-.54-10.92,.41-2.47,.65-2.83-.25-2.22-2.37,1.15-3.96,2.25-7.94,3.38-11.91Z"/>
  <path d="M449.55,464.31c.93,4.72,.3,8.85,.38,12.96,.04,2.01-.59,2.6-2.53,1.45-6.13-3.64-6.32-9.13-.37-13.08,.63-.42,1.35-.72,2.52-1.34Z"/>
  <path d="M412.87,168.15c-2.31,0-4.62-.18-5.5-2.81-.82-2.44,.42-4.31,2.1-5.95,3.72-3.62,9.59-3.91,13.58-.72,2.87,2.29,2.73,4.54-.22,6.53-2.98,2.01-6.34,2.97-9.96,2.95Z"/>
  <path d="M493.61,578.32c-3.26,.01-6.29-.8-9.03-2.57-4.31-2.78-4.46-6.48-.41-9.51,5.2-3.89,14.84-2.13,18.3,3.36,1.75,2.79,1.18,5.19-1.55,6.94-2.2,1.41-4.73,1.75-7.31,1.78Z"/>
  <path d="M475.19,512.42c-2.8-.93-6.65-.29-7.77-4.09-.67-2.27,4.3-5.73,7.88-5.43,3.21,.26,7.01,1.16,6.9,5.01-.1,3.62-3.91,3.97-7.02,4.51Z"/>
  <path d="M409.2,640.98c-2.46-.68-6.36,.58-6.31-3.8,.04-3.85,3.03-5.35,6.43-5.65,3.62-.31,8.24,2.5,7.76,4.64-.93,4.09-4.5,4.29-7.88,4.81Z"/>
</svg>