<?xml version="1.0" encoding="UTF-8"?>
<svg id="Layer_1" data-name="Layer 1" xmlns="http://www.w3.org/2000/svg" viewBox="0 0 864 864">
  <path d="M653.9,490.76c2.22-2.74,4.89-3.58,7.28-4.76,10.58-5.21,18.73-12.65,22.7-24.1,1.1-3.17,1.24-5.97-.51-9.16-3.75-6.85-6.98-13.98-10.46-20.98-.59-1.19-.96-2.96-2.59-2.85-1.31,.09-1.47,1.77-1.99,2.84-4.34,8.96-10.22,16.72-17.94,23.04-.71,.58-1.44,1.16-2.22,1.63-.99,.6-2.15,2.03-3.18,.88-1.15-1.29,.63-2.07,1.38-2.85,3.09-3.19,6.4-6.18,9.37-9.48,5.09-5.64,8.85-12.1,11.02-19.44,.72-2.45,.8-4.77-.52-7.1-4.23-7.47-8.39-14.97-12.58-22.46-1.91-3.41-3.07-1.17-3.99,.66-3.38,6.77-7.57,12.97-12.84,18.41-1.55,1.6-3.3,3.01-5.25,4.76-1.1-2.86,.69-3.95,1.79-5.21,6.02-6.86,11-14.32,13.87-23.08,.87-2.67,.84-5-.77-7.41-5.46-8.15-10.92-16.3-16.19-24.57-2.31-3.62-3.56-3.03-5.34,.4-2.47,4.76-5.34,9.32-9.33,13.02-.82,.75-1.86,2.19-3.06,.91-.99-1.05,.43-1.89,1.04-2.64,4.32-5.28,7.44-11.2,9.81-17.57,.83-2.23,.64-4.15-.75-6.05-3.71-5.07-7.43-10.14-11.08-15.26-1.83-2.57-3.06-2.33-4.5,.41-2.37,4.53-4.84,9.04-8.97,12.38-1.35-1.57-.57-2.48-.05-3.37,1.01-1.72,2.09-3.39,3.09-5.12,5.79-10,5.12-15.98-2.47-24.48-1.57-1.76-2.57-.74-3.87,.11-2.1,1.37-3.54,3.79-6.97,4.41,.96-3.06,2.93-4.74,4.71-6.42,2.3-2.18,3.02-4.05,1.03-7.05-2.01-3.03-3.39-6.52-4.7-9.94-.92-2.4-2.18-3.61-5.23-2.98,3.67-1.82,3.72-4.7,3.07-7.79-.21-.99,0-2.33-1.34-2.64-1.22-.28-1.94,.75-2.66,1.51-6.47,6.75-6.66,14.91-4.69,23.25,3.32,14.06,9.31,27.2,14.64,40.57,14.1,35.43,30.49,69.92,42.44,106.23,12.55,38.12,18.39,77.12,16.63,117.19-2.13,48.3-12.44,94.97-28.79,140.37-1.01,2.8-1.59,5.56-1.51,8.51,.63,22.62-.9,45.04-6.72,67.01-.68,2.56,.13,3.59,2.54,4.27,20.1,5.73,31.33,20.38,38.71,38.8,1.32,3.3,1.69,6.83,1.47,10.4-.14,2.2-.76,4.17-2.37,5.8-2.61,2.65-7.69,2.62-8.2,7.63-.03,.34-1.65,.77-2.51,.72-3.64-.19-7.12-.23-10.72,1.14-2.53,.96-3.56-.6-4.2-3.86-2.1-10.68-4.31-21.45-9.38-31.28-.56-1.08-1.41-2.21-2.9-1.47-1.21,.6-1.03,1.76-.69,2.83,2.55,8.14,3.66,16.53,4.42,24.99,.23,2.51,.62,5.4-1.66,6.86-1.87,1.19-4.23,.14-6.49-.61-3.48-1.16-7.27-1.38-10.92-2.07-3.82-.71-5.71-2.66-5.43-6.95,.66-10.25-1.84-20.09-4.83-29.78-.53-1.71-.81-4.69-3.43-3.96-2.26,.63-1.06,3.09-.75,4.83,1.66,9.38,2.48,18.82,2.39,28.36-.03,3.39-1.09,3.95-4.06,2.54-6.55-3.1-12.74-6.7-18.29-11.38-3.48-2.94-5.79-6.23-6.53-11.1-1.04-6.78-3.33-13.35-5.02-20.04-2.97-11.78-2.06-23.76-1.71-35.7,.62-21.3,1.23-42.6,1.87-63.89,.16-5.21,.45-10.41,.61-15.62,.04-1.33,.36-3.16-1.37-3.49-2-.38-2.44,1.45-2.74,2.97-1.18,6.04-1.52,12.16-1.72,18.29-.71,21.3-1,42.61-2.13,63.89-.66,12.49-.53,24.8,2.11,37.03,.77,3.59,1.63,7.18,2.82,10.64,1.2,3.49,1.03,5.32-3.39,5.64-4.45,.32-8.88,.26-13.31,.49-3.01,.15-4.86-1.06-6.37-3.52-3.47-5.63-7.81-10.61-12.24-15.5-.82-.91-1.68-1.8-2.64-2.55-1.31-1.03-2.83-2.44-4.41-.77-1.59,1.68-.13,3.14,1.04,4.34,5.58,5.75,10.38,12.12,14.44,19,4.23,7.17,7.79,14.62,6.65,23.38-.63,4.87-6.7,10.96-11.35,11.37-1.85,.17-1.88-1.15-2.23-2.27-2.21-7.05-5.86-13.48-8.74-20.24-.59-1.39-1.07-3.35-2.98-2.86-2.27,.58-1.62,2.65-1.16,4.24,1.89,6.64,3.71,13.27,4.46,20.17,.33,3.02-.64,4.59-3.73,5.03-5,.71-9.98,1.62-14.96,2.48-2.85,.5-4.35-.31-5.22-3.43-2.09-7.52-4.54-14.95-8.16-21.91-.87-1.66-1.61-4.31-4.19-3.15-2.68,1.2-.95,3.44-.31,5.18,2.34,6.36,3.81,12.91,4.87,19.59,.51,3.2-.61,4.12-3.64,3.96-16.19-.85-31.26-5.74-45.83-12.5-2.01-.93-2.82-2.55-3.25-4.66-2.07-10.11-2.93-20.32-2.5-30.62,.13-3.15-.51-5.98-1.74-8.88-9.76-23.07-15.75-47.07-16.48-72.17-.82-28.58,8.57-53.98,25.71-76.5,18.79-24.68,41.65-44.12,72.29-52.59,15.06-4.16,28.88-11.04,42.3-18.82,5.96-3.45,11.15-7.96,15.34-13.88-2.61,1.35-5.31,2.56-7.81,4.08-18.39,11.22-37.46,20.87-58.6,25.88-2.96,.7-5.85,1.86-8.63,3.12-2.19,1-3.29,.51-4.28-1.6-10.74-23.04-39.9-32.37-66.03-19.01-15.33,7.84-28.53,18.44-40.59,30.59-1.05,1.05-2.03,3.07-3.49,2.6-1.95-.63-1.1-2.91-1.12-4.47-.17-10.69-1.61-21.02-6.88-30.61-12.19-22.21-33.75-29.31-56.67-18.49-12.44,5.87-21.66,15.35-29.45,26.4-1.37,1.94-2.64,3.94-4.6,6.89-.85-10.36-1.34-19.5-3.22-28.45-5.31-25.35-16.54-47.57-36.81-64.1-18.48-15.06-40.58-17.69-63.53-15.45-8.23,.8-16.33,2.53-24.29,4.86-1.34,.39-3.43,2.18-4.26-1.15-.27-1.1-2.36-.67-2.55,.36-.89,4.77-5.25,4.54-8.34,6-2.15,1.02-4.24,2.49-7.27,2.36,5.35-8.27,10.55-16.31,15-24.81,8.23-15.71,13.58-32.18,13.25-50.1-.18-9.43-1.85-18.6-6.63-26.95-9.85-17.22-28.7-25.47-50.13-21.84-3.02,.51-5.99,1.31-8.98,1.96-4.73,1.02-4.92,.85-3.51-3.67,2.53-8.13,4.15-16.32,2.64-24.89-2.55-14.45-9.46-26.24-21.14-35.2-1.06-.81-2.41-1.37-3.04-3.16,6.25-2.41,12.89-2.38,19.32-3.06,21.65-2.28,43.38-3.19,65.17-2.92,39.44,.49,77.65,7.69,114.94,20.3,21.32,7.21,42.59,14.58,63.74,22.28,11.89,4.33,23.9,8.35,35.89,12.38,3.56,1.2,6.86,3.15,10.79,3.4,1.98,.13,3.55,1.2,3.57,3.89,.26,28.81,13.26,52.7,29.45,75.27,13.07,18.23,27.88,35,43.46,51.11,5.69,5.88,12.24,10.7,19.01,15.16,17.41,11.49,34.95,22.8,55,29.31,8.01,2.6,16.11,5.09,24.56,5.78,15.95,1.32,27.65-5.93,35.19-21.98,9.04-19.24,11.29-39.64,9.43-60.58-.61-6.93-1.38-13.88-2.98-20.68-.58-2.44,1.28-2.68,2.93-2.89,.65-.08,.96,2.02,1.91,.49,.32-.52,.17-1.61-.18-2.21-.59-1.03-1.66-.71-2.38-.11-2.58,2.17-3.61,.66-4.32-1.72-6.07-20.32-16.9-38.25-28.07-56.03-11.07-17.6-25.1-32.83-38.67-48.41-11.7-13.43-22.67-27.43-32.84-42.01-11.94-17.12-17.35-36.69-20.22-57.1-1.18-8.38-1.47-16.81-.84-25.23,.24-3.22-.89-4.61-3.84-5.64-17.06-5.94-32.94-14.11-46.69-25.96-6.03-5.19-11.44-11.03-14.86-18.42-1.65-3.57-2.63-6.97,.96-9.97,3.43-2.87,6.16-.21,8.67,1.45,16.88,11.21,35.3,18.98,54.61,24.81,2.2,.66,4.7,2.33,6.4-.84,2.85-5.33,2.46-7.84-1.11-10.64-14.03-10.99-26.7-23.41-38.37-36.88-11.66-13.47-22.5-27.52-31.24-43.09-2.93-5.23-5.27-10.7-7.38-16.31-1.59-4.24-.8-7.46,3.12-9.85,3.85-2.35,6.95-1.27,9.71,1.94,14.56,16.93,31.25,31.6,48.68,45.44,11.89,9.44,24.63,17.71,37.47,25.79,3.3,2.08,6.67,4.25,9.45-.88,.54-1.01,1.81-1.63,2.74-2.42,6.93-5.86,6.82-5.83,4.14-14.38-5.95-19.02-14.13-37.15-21.84-55.47-6.65-15.83-14-31.34-22.06-46.5-1.83-3.45-2.45-6.56,1.13-9.37,3.6-2.83,6.83-2.1,9.87,.76,14.58,13.7,27.29,29.03,38.22,45.73,11.65,17.8,23.34,35.61,32.99,54.63,1.15,2.28,2.34,2.79,4.66,1.7,10.49-4.92,21.68-7.53,32.99-9.66,2.58-.49,3.9-1.64,4.7-4.17,5.8-18.37,9.26-37.13,9.98-56.39,.12-3.27-.77-7.15,3.79-8.29,4.6-1.15,7.26,1.68,9.14,5.26,4.75,9.05,7.32,18.85,8.92,28.86,1.59,9.99,2.64,20.08,1.82,30.21-.29,3.58,.69,5.15,4.47,5.78,8.15,1.34,8.05,1.54,12.57-5.31,11.36-17.2,19.61-35.65,22.72-56.17,.48-3.14,1.75-5.58,5.04-6.4,3.29-.81,6.09,.27,8.3,2.7,3.13,3.43,4.33,7.76,4.85,12.2,2.67,22.67-.59,44.33-11.85,64.4-1.9,3.39-1.54,5.18,1.29,7.66,8.26,7.25,14.34,16.33,20.33,25.43,1.04,1.58,2.03,1.76,3.8,2.17,15.02,3.42,27.16-3.52,39.37-10.38,8.96-5.03,17.81-10.22,28.45-11.04,9.64-.74,17.39,2.49,23.49,9.96,11.01,13.47,15.53,29.07,14.66,46.21-.9,17.65-4.6,34.64-13.94,49.97-9.41,15.45-23.24,25.85-39.18,33.75-22.35,11.08-46.24,15.84-70.94,17.32-19.46,1.16-38.92,.69-58.39,.2-4.48-.11-8.89,.24-13.14,1.74-5.92,2.09-7.56,5.37-5.85,11.41,2.08,7.36,6.27,13.63,10.51,19.81,15.91,23.22,32.34,46.09,47.91,69.53,29.85,44.94,54.96,92.44,74.75,142.66,10.62,26.95,16.51,55.08,19.82,83.84,3.7,32.11,2.86,64.1-1.21,96.07-.3,2.32,.39,5.45-3.01,6.57-.26,.08-.5,1.4-.29,1.56,3.51,2.79,1.13,6.2,.86,9.23-1.89,21.66-3.9,43.31-6.06,64.94-.36,3.58,1.98,2.92,3.69,2.89,7.23-.13,14.41,.3,21.53,1.44,14.38,2.31,26.05,8.68,33.06,22.09,3,5.73,4.43,11.72,3.75,18.18-.17,1.59-.59,3.39-2.13,3.78-1.74,.43-1.92-1.64-2.5-2.75-3.85-7.44-9.25-13.72-15.02-19.66-1.16-1.19-2.89-3.77-4.94-1.88-2.11,1.95,.33,3.59,1.55,4.94,5.46,6.08,10.14,12.64,13.54,20.13,1.37,3.01,.87,4.59-2.21,6.02-8.17,3.79-16.76,5.77-25.63,6.84-3.02,.36-4.39-.55-4.7-3.85-.84-8.93-3.34-17.44-7.8-25.27-1.04-1.83-1.83-5.48-4.32-4.35-2.4,1.09-.23,4.27,.48,6.11,2.96,7.65,4.71,15.49,5.51,23.63,.34,3.46-.63,4.67-4.15,4.6-12.85-.24-25.49-2.4-38.23-3.72-14.56-1.52-27.73-6.07-39.24-14.73-7.61-5.72-14.42-12.53-19.61-20.74-1.33-2.11-1.56-3.47,.96-4.71,28.63-14.1,43.48-39.68,55.31-67.42,13.24-31.05,18.63-63.62,17.48-97.39-.71-20.67,.13-41.41-3.14-61.94-.82-5.14-1.85-10.25-2.85-15.36-.47-2.41-1.54-2.82-3.23-.79-13.38,16.04-31.79,16.59-50.45,16.33-.95-.01-2.53,.29-2.28-1.37,.2-1.35,1.67-1.13,2.69-1.14,8.14-.05,16.24-.4,24.26-1.91,10.44-1.96,18.93-6.84,24.49-16.18,1.73-2.91,2.2-5.9,1.17-9.24-3.21-10.55-6.33-21.13-9.36-31.73-1.02-3.57-2.16-4.1-5.1-1.37-10.88,10.12-23.69,16.23-38.6,17.54-1.87,.16-5.05,1.2-5.31-.85-.31-2.46,3.03-1.76,4.7-1.92,12.77-1.22,24.06-5.9,33.8-14.18,7.12-6.04,7.68-8.03,4.48-16.53-3.94-10.46-8.14-20.83-12.3-31.21-.54-1.34-.59-3.52-2.28-3.65-1.67-.13-2.13,1.98-2.8,3.24-5.93,11.24-16.02,17.42-27.08,22.44-.69,.31-1.45,.51-2.19,.61-.41,.06-.86-.18-1.99-.46Zm-74.61-279.48c8.14,.05,15.73-1.95,22.82-5.95,14.25-8.04,19.37-23.96,12.17-38.66-4.52-9.23-11.47-16.28-20.84-20.56-10.18-4.64-20.71-5.71-30.99-.37-13.64,7.09-20.37,21.69-16.93,35.77,4.06,16.58,18.59,29.39,33.76,29.76Zm42.22-81.48c-.03,8.44,5,19.3,12.84,27.71,9.06,9.73,23.21,12.59,35.36,7.16,9.72-4.34,14.79-14.04,11.07-23.73-6.2-16.12-17.36-27.59-35.07-30.1-11.73-1.66-24.32,3.94-24.19,18.95Zm82.95,114.53c3.21-.15,6.42-.26,9.62-.44,16.86-.94,32.64-5.08,46.05-15.93,8.94-7.23,15.34-16.16,17.71-27.65,.43-2.07,.95-4.29-1.52-5.05-2.98-.92-3.08,1.99-3.48,3.68-4.35,18.01-16.82,28.67-33.2,34.61-20.53,7.45-41.82,7.17-62.89,2.19-11.5-2.72-20.37-9.13-23.04-21.7-.19-.89-.55-1.75-.92-2.59-.39-.87-1.01-1.6-2.08-1.46-1.03,.13-1.62,.95-1.81,1.86-.21,1.02-.29,2.12-.14,3.15,1,7.09,4,13.2,9.55,17.79,7.02,5.81,15.67,8.69,24.24,10.13,7.08,1.19,14.55,1.84,21.91,1.42ZM157.88,476.25c1.98,.6,2.98-.16,3.89-.94,5.63-4.8,11.21-9.66,16.84-14.45,19.57-16.68,39.16-33.33,58.73-50.01,5-4.26,10.36-8.15,14.62-13.23,.8-.95,2.57-2.03,1.43-3.38-1.03-1.21-2.67-.03-3.76,.62-2.62,1.56-5.17,3.27-7.6,5.11-15.25,11.58-29.62,24.23-43.85,37.01-13.85,12.45-28.11,24.52-40.3,39.26Zm119.78,77.48c1.76-.54,1.89-1.47,2.18-2.35,10-30.19,18.12-60.94,27.22-91.4,.78-2.62,1.04-5.4,1.43-8.12,.2-1.44,.93-3.43-1.03-3.98-2.23-.63-2.64,1.59-3.24,3.08-1.14,2.84-2.32,5.68-3.17,8.6-6.04,20.69-12.3,41.32-17.11,62.36-2.38,10.4-4.78,20.79-6.27,31.81ZM714.29,166.69c.24,1.96,.32,3.97,.76,5.88,.42,1.78,1.1,3.79,3.56,3.31,2.53-.49,2.23-2.49,1.85-4.37-.24-1.2-.62-2.37-.75-3.58-.48-4.38,1.29-7.75,4.93-10.09,3.63-2.34,6.74-.55,9.66,1.57,2.63,1.9,4.63,4.39,6.37,7.13,1.17,1.84,3.01,3.09,4.99,1.63,1.91-1.41,.7-3.41-.29-4.9-2.45-3.73-5.3-7.12-9.23-9.4-4.8-2.79-9.89-3.55-14.82-.69-5.04,2.93-7.25,7.64-7.05,13.51Zm58.01-37.49c-5.42,.03-9.31,2.69-10.53,6.78-1.04,3.47,1.34,11.12,4.12,13.08,.7,.49,1.39,1.29,2.43,.54,1.1-.79,1.75-1.71,1.27-3.11-.61-1.74-1.37-3.43-1.81-5.2-.55-2.23-1.2-4.69,1.51-6.07,2.45-1.25,4.56-.16,6.17,1.64,2.23,2.51,4.19,5.26,6.35,7.83,.99,1.19,2.2,2.4,3.9,1.17,1.5-1.08,1.6-2.69,.64-4.08-2.01-2.89-4.14-5.69-6.36-8.42-2.11-2.6-4.74-4.36-7.68-4.16ZM436.85,790.6c-.62-3.04-1.38-6.16-3.33-8.82-1.02-1.39-2.2-2.69-4.2-1.93-1.79,.68-2.63,2.17-2.6,3.96,.07,3.64,1.21,6.92,3.87,9.53,1.14,1.12,2.43,1.94,4.11,1.2,1.64-.73,1.9-2.27,2.16-3.94Zm295.67-41.98c-.37-3.23,.28-6.7-4.11-6.79-2.12-.04-6.08,5.05-5.59,7.57,.56,2.85,1.74,6.19,5.23,6.05,4.36-.18,4.1-4.11,4.46-6.83Zm-281.83-13.32c-.97-2.43,.14-6.8-4.03-6.88-3.1-.06-4.14,3.18-4.19,6.13-.05,3.26,1.15,5.94,4.79,5.99,3.14,.05,3.14-2.72,3.44-5.24Zm276.28,38.57c-.26-3.27-1.85-5.56-5.23-5.82-2.88-.22-3.92,1.91-4.06,4.45-.18,3.38,2.29,6.53,5.07,6.46,3.26-.09,3.68-2.62,4.22-5.09Zm-275.04,24.78c-.18-2.58-.75-5.23-3.41-6.84-1.08-.65-2.2-.25-2.87,.65-1.79,2.41-1.88,5.1-.8,7.82,.73,1.84,1.46,4.04,4.02,3.56,2.58-.48,3.09-2.64,3.06-5.19Zm-15.6-86.61c-.05-.76-.06-1.53-.16-2.28-.2-1.54-.47-3.28-2.3-3.53-1.55-.22-2.33,1.24-3.06,2.41-.4,.64-.79,1.33-1,2.05-.72,2.56-2.46,5.2,.14,7.66,1.05,.99,2.39,1.43,3.78,.6,2.7-1.6,2.45-4.33,2.59-6.91Zm-12.39,36.6c.48,2.39,.59,5.27,3.42,6.75,1.13,.59,2.5,.62,3.38-.41,2.13-2.49,1.06-5.13,.1-7.71-.05-.14-.1-.29-.16-.43-.83-1.81-1.63-3.99-4.15-3.33-2.29,.6-2.5,2.79-2.59,5.13Zm41.21-28.54c-.15-1.75,.35-4.31-1.93-4.94-2.23-.61-3.24,1.75-4.31,3.37-.41,.63-.73,1.33-1,2.04-.98,2.54-1.83,5.41,1.68,6.37,3.22,.88,4.49-1.72,5.2-4.41,.19-.73,.23-1.5,.36-2.43Zm57.56-70.78c-.35-1.85,0-5.19-3.01-4.81-3,.38-4.55,3.4-4.69,6.53-.1,2.27,1.24,3.99,3.52,3.97,3.33-.04,4.18-2.5,4.18-5.69Zm-40.03,30.07c.22,2.59,1.3,4.38,3.91,4.3,2.94-.1,4.35-1.98,4.17-4.87-.14-2.34-.6-5.14-3.44-5.06-3.2,.09-4.38,2.81-4.64,5.63Zm-24.13,84c-.41-2.4,.46-6.35-3.14-5.87-3.02,.41-3.35,4.35-3.44,7.24-.07,2.42,1.38,4.44,3.81,4.29,3.63-.23,2.61-3.37,2.77-5.67Zm106.65-427.52c-.48-1.54-.37-4.36-3.74-3.96-2.67,.32-4.68,1.92-4.68,4.74,0,2.8,1.87,4.7,4.64,4.59,2.62-.1,3.93-2.05,3.78-5.37Zm-85.88,363.04c-.43-1.51,.3-3.83-2.2-4.26-1.98-.34-5.27,4.29-5.35,7.25-.06,2.14,.81,3.83,3.09,3.59,3.77-.39,4.18-3.45,4.46-6.58Zm-14.74,87.86c-.7-2.01-.63-5.27-3.39-5.19-2.96,.09-3.86,3.16-4.04,5.84-.15,2.17,.69,4.08,3.3,4.03,2.85-.06,3.87-2.03,4.14-4.69Zm128.18-400.23c-.07-2.6-.73-4.83-3.37-4.89-2.87-.07-3.78,2.17-3.74,4.72,.03,2.46,.64,4.8,3.66,4.81,3.17,0,3.3-2.55,3.46-4.63Zm-133.41,297.27c-.11-2.04-.3-4.52-2.93-4.25-2.95,.3-4.19,2.88-4.3,5.67-.08,2.06,1.1,3.74,3.24,3.7,3.11-.07,3.93-2.39,3.99-5.12Zm-12.7,79.8c-.81-2.33,.04-6.08-3.75-6.58-2.02-.27-3.03,1.99-2.77,3.92,.38,2.75,.48,6.17,4.15,6.59,2.14,.25,2.21-2.02,2.37-3.94Zm158.09-110.6c-.17-1.88-.22-4.16-2.75-3.91-2.79,.28-4.14,2.43-4.21,5.17-.06,2.29,1.04,4.03,3.51,3.82,2.98-.25,3.28-2.72,3.45-5.07Zm-103.34,18.74c-.67-1.76-.3-5.1-2.92-4.76-2.59,.33-3.64,3.4-3.94,6.06-.23,1.94,.67,3.39,2.78,3.37,2.87-.03,3.9-1.93,4.09-4.67Zm105.9-50.58c3.02-1,4.56-3.27,4.91-6.4,.15-1.38-.53-2.74-1.98-2.44-3.11,.63-5.09,2.85-5.75,5.86-.38,1.71,.87,2.8,2.82,2.99Zm-139.89,129.15c2.19-.29,3.66-1.97,3.4-3.9-.25-1.82-.74-4.74-3.36-4.65-2.33,.08-3.41,2.44-3.6,4.6-.19,2.22,1.07,3.68,3.57,3.94Zm141.82-266.25c-.16-2.25-1.27-3.86-3.6-3.97-2.21-.1-3.34,1.34-3.31,3.51,.03,2.42,1.02,4.3,3.71,4.26,2.26-.03,2.98-1.79,3.2-3.81Zm123.88,282.57c-2.31,.69-4.55,1.67-4.88,4.55-.23,1.94,.77,3.43,2.79,3.32,2.98-.16,3.91-2.49,4.26-5.04,.21-1.51-.21-2.73-2.17-2.83Zm-139.57-340.5c-.28-1.89-.78-3.86-3.09-3.71-2.51,.17-3.45,2.28-3.62,4.49-.13,1.71,.88,2.93,2.76,2.79,2.14-.17,3.7-1.18,3.94-3.56Zm-113.33,231.4c-.24-1.39-.02-3.55-2.03-3.39-2.37,.19-4.18,2.01-4.61,4.38-.34,1.86,.91,3.26,2.9,3.3,2.77,.06,3.48-1.94,3.73-4.29Zm102.33-276.5c-.1-1.72,.12-3.86-2.36-3.61-1.92,.19-3.34,1.65-3.53,3.69-.18,2.09,.84,3.73,3.05,3.78,2.53,.06,2.62-2.06,2.83-3.86Zm158.98,327.96c1.95-.37,3.57-1.39,3.6-3.75,.02-2.19-1.49-2.73-3.4-2.6-2.14,.14-3.47,1.37-3.58,3.38-.1,1.93,1.15,3.03,3.38,2.98Zm-170.4-71.44c-.75-1.45-.01-4.48-2.59-4.31-2.27,.15-2.74,2.88-3.12,4.95-.33,1.77,.5,3.07,2.33,3.11,2.23,.05,3.01-1.61,3.38-3.75Zm-23.27-30.75c1.79,0,3.18-.82,3.39-2.81,.26-2.44-1.42-3.88-3.44-4.11-2.11-.23-2.47,1.84-2.75,3.54-.33,2.07,.52,3.22,2.79,3.38Zm74.24-40.12c2.04-.38,3.16-1.84,3.5-3.93,.29-1.77-.82-2.54-2.36-2.51-2.19,.04-3.82,1.13-4.06,3.41-.19,1.78,1.02,2.69,2.92,3.04Zm3.55-21.77c-.74-1.09-.43-3.73-2.54-3.44-1.99,.27-3.06,2.54-3.11,4.59-.04,1.61,.92,3.08,2.85,2.87,2.06-.23,2.56-1.92,2.8-4.01Zm-1.57-45.26c-2.02,.74-3.16,2.29-3.28,4.39-.09,1.61,1.03,2.62,2.59,2.43,2.35-.29,3.18-2.12,3.21-4.23,.02-1.48-.73-2.59-2.51-2.59Zm-45.4,71.8c-.41-1.66-1.23-2.93-3.06-2.89-1.7,.04-2.99,.93-3,2.78-.01,2,1.21,3.19,3.17,3.11,1.75-.07,2.61-1.35,2.89-3Zm45.79,11.58c-1.83,.21-2.87,1.32-2.88,3.31,0,1.58,.69,2.71,2.43,2.67,2.12-.05,2.88-1.52,3-3.36,.11-1.61-.59-2.65-2.54-2.61Zm-13.12-128.87c-.22-1.35-.64-2.64-2.21-2.43-1.85,.25-3.07,1.48-2.95,3.43,.08,1.39,1.2,2.19,2.55,2.09,1.85-.12,2.51-1.47,2.62-3.1Zm-107.25,184.42c1.46-.22,2.24-1.22,2.34-2.75,.09-1.28-.11-2.63-1.71-2.7-1.7-.08-2.99,.92-3.2,2.61-.19,1.56,.87,2.49,2.57,2.84Zm104.05-117.38c1.42-.26,2.64-1.14,2.77-2.87,.11-1.48-1.03-2.14-2.36-2.25-1.72-.13-2.51,.86-2.57,2.48-.04,1.33,.28,2.44,2.15,2.64Z"/>
  <path d="M158.88,649.26c5.14,15.91,9.88,30.62,14.63,45.33,.98,3.04,1.86,6.13,3.01,9.11,.75,1.95,.82,3.46-1.68,4.32,2.43,1.18,6.4,8.59,6.09,10.55-.29,1.83-1.35,1.06-2.37,.89-2.54-.42-2.84-2.36-3.19-4.79-.82,2.94-2.29,3.72-4.91,2.6-5.76-2.44-11.98-3.7-17.56-6.63-2.21-1.16-4.08-2.37-2.06-5.26,.46-.65,.83-2.04-.44-2.25-1.19-.2-1.9,.81-1.78,2.1,.31,3.17-1.38,2.92-3.38,1.94-15.32-7.53-29.11-16.89-38.55-31.65-11.75-18.35-11.07-39.4,2.09-53.12,11.15-11.62,25.27-15.95,40.92-15.24,32.51,1.48,55.86,18.23,72.62,45.08,8.02,12.86,15.26,26.2,22.45,39.56,13.44,25,34.73,40.55,61.08,50.07,29.18,10.54,58.29,9.51,87.54,.65,1.17-.36,2.37-.66,3.49-1.14,2.95-1.24,3.82,.11,3.98,2.87,.88,15.23,3.95,30.06,8.57,44.56,2.09,6.56,4.56,13,6.86,19.49,.56,1.59,1.26,3.14,1.7,4.76,1.98,7.25,0,10.37-7.3,10.97-17.45,1.44-34.72,.48-52.18-1.71-24.32-3.05-46.72-11.07-68.17-22.05-23.81-12.18-42.73-29.72-54.04-54.46-7.65-16.73-12.6-34.49-19.06-51.68-4.63-12.31-8.13-25.09-14.34-36.78-12.68-23.87-40.03-36.14-66.24-29.83-17.08,4.12-24.49,16.76-19.73,33.63,2.42,8.56,8.63,12.58,17.37,11.25,10.84-1.64,17.92-7.94,22.16-17.8,.6-1.39,1.25-2.76,2.43-5.37Zm223.22,129.57c-.01-3.48-2.37-5.47-6.48-5.47-4,0-7.9,3.74-7.65,7.58,.24,3.58,2.79,4.92,5.97,5.12,3.74,.23,8.17-3.8,8.16-7.23Zm-39.63-7.65c.09,3.63,2.9,7.01,5.68,7.09,2.7,.07,5.98-3.86,5.94-7.12-.04-3.25-3.05-6.16-6.29-5.95-3.87,.25-4.99,2.94-5.33,5.98Zm-54.73-5.31c.16,2.46,1.39,4.76,4.72,4.99,2.99,.21,6.09-3.51,5.84-6.92-.22-2.95-1.97-4.76-4.89-4.99-3.15-.26-5.76,2.8-5.67,6.92Zm31.11,7.36c3.12-.15,5.14-1.55,5.23-4.71,.09-2.99-1.4-5.17-4.56-5.19-3.15-.02-5.29,1.88-5.55,5.03-.28,3.31,2.18,4.38,4.88,4.87Zm-39.05-28.58c-.53-2.21-1.56-4.64-4.5-4.55-2.62,.08-3.98,2.33-4.12,4.78-.15,2.65,1.34,4.45,4.12,4.44,2.67-.01,4.16-1.63,4.5-4.67Z"/>
  <path d="M683.53,633.62c-9,.76-17.68-1.03-26.24-3.5-1.38-.4-4.05-.27-3.41-2.52,.46-1.63,2.73-.77,4.11-.33,10.83,3.43,21.93,3.84,33.17,3.33,10.86-.49,20.35-3.85,27.95-11.89,.95-1,2.09-3.12,3.62-1.66,1.44,1.37-.43,2.78-1.39,3.82-7.59,8.2-17.25,11.92-28.17,12.71-3.2,.23-6.43,.04-9.64,.04Z"/>
  <path d="M685.7,676.2c-12.33-.16-22.48-2.38-32.53-5.13-1.17-.32-3.37-.24-2.86-2.11,.46-1.66,2.45-.84,3.63-.53,9.66,2.51,19.42,4.1,29.41,4.58,9.25,.44,17.53-1.7,25.03-7.18,2.7-1.98,5.74-3.5,8.66-5.17,.9-.52,2.03-1.22,2.76,.12,.56,1.01-.32,1.77-1.08,2.24-10.75,6.69-20.98,14.78-33.03,13.19Z"/>
  <path d="M632.03,710.27c5.31,.5,9.38,2.65,13.54,4.4,11.43,4.84,23.21,7.61,35.72,7.11,6.36-.25,12.4-1.67,18.4-3.56,1.15-.36,2.95-1.56,3.55,.28,.55,1.67-1.43,2.12-2.66,2.53-13.42,4.49-27.01,5.03-40.68,1.35-7.69-2.07-15.11-4.98-22.45-8.05-1.82-.76-3.68-1.52-5.43-4.07Z"/>
  <path d="M672.33,754.67c-9.71,.02-20.89-3.15-31.93-6.94-1.25-.43-3.69-.62-2.8-2.7,.62-1.43,2.44-.31,3.7,.15,14.43,5.19,29.15,8.32,44.58,5.96,2.4-.37,4.72-1.28,7.11-1.8,1.09-.23,2.66-1.26,3.29,.22,.8,1.89-1.18,2.27-2.36,2.64-6.34,1.98-12.84,2.85-21.59,2.46Z"/>
  <path d="M650.83,784.69c-8.28,1.4-16.21-2.91-24.58-5.06-.91-.24-2.25-.92-1.85-2.21,.41-1.36,1.79-.85,2.78-.71,1.05,.15,2.13,.42,3.07,.87,12.1,5.84,24.64,5.15,37.31,2.57,2.04-.42,5.29-1.71,5.72,.31,.59,2.74-2.95,2.14-4.82,2.58-5.53,1.32-11.15,1.94-17.63,1.65Z"/>
  <path d="M605.06,183.55c-.28,3.71-1.1,8.37-3.77,12.45-3.1,4.73-8.03,5.37-12.04,1.47-5.85-5.69-9.16-12.53-8.68-20.9,.32-5.46,3.79-10.25,8.33-11.49,4.8-1.31,9.73,.82,12.95,5.65,2.36,3.55,3.25,7.53,3.22,12.82Z"/>
  <path d="M660.18,150.5c-.61,3.3-.47,7.25-4.24,8.99-3.89,1.79-7.47,.33-10.62-2.23-6.59-5.35-8.93-15.2-5.1-21.39,2.94-4.76,7.22-5.68,11.62-2.2,5.34,4.22,7.9,9.95,8.34,16.83Z"/>
</svg>