<?xml version="1.0" encoding="UTF-8"?>
<svg id="Layer_1" data-name="Layer 1" xmlns="http://www.w3.org/2000/svg" viewBox="0 0 864 864">
  <path d="M159.67,622.53c.65-10.14,.21-20.01-1.61-29.81-5.46-29.48-27.83-49.36-57.77-51.82-23.16-1.9-43.23,5.82-61.62,19.06-6.51,4.69-12.83,9.65-19.84,14.93,.06-4.92,1.52-8.75,2.64-12.61,11.6-40.14,29.09-77.24,57.34-108.51,21.59-23.89,46.9-42.37,77.93-52.66,25.69-8.52,48.53-3.55,70.01,11.76,16.08,11.46,27.91,26.4,37.06,43.7,9.09,17.18,17.49,34.69,24.69,52.94,.71-.34,1.28-.44,1.56-.78,19.79-23.85,40.64-46.88,56.99-73.39,6.35-10.29,11.84-21.04,16.44-32.22,2.5-6.06,2.32-6.38-4.08-6.68-18.37-.85-36.7-2.02-55.03-3.59-59.75-5.12-112.77-27.25-160.3-63.12-18-13.58-32.3-30.34-39.64-52.18-9.35-27.81,1.92-57.11,26.96-70.47,10.22-5.45,20.96-5.77,32.09-4.24,16.26,2.23,32.54,4.22,49,1.89,11.96-1.69,21.89-6.57,29.24-16.52,4.82-6.52,9.9-12.82,14.04-19.84,4.15-7.02,9.07-13.48,15.97-18.1,1.96-1.31,2.72-2.98,3.01-5.34,5.34-43.53,24-80.67,53.61-112.77,9.7-10.51,20.63-19.61,30.81-29.55,2.7-2.63,5.93-3.58,9.36-1.52,3.57,2.14,5.35,5.5,4.53,9.62-.52,2.6-1.78,5.08-2.92,7.51-16.11,34.2-27.05,69.85-30.19,107.66-.42,5.01-.04,10.08-.15,15.13-.08,3.55,1.16,5.04,5.05,4.94,7.74-.2,15.51-.05,23.25,.39,4.07,.23,5.62-.95,6.08-5.15,2.83-25.46,10.61-49.24,25.04-70.6,5.69-8.41,12.14-16.15,20.69-21.85,6.01-4.01,12.58-5.3,19.61-3.44,9.38,2.49,13.3,9.56,10.67,19.65-2.99,11.5-7.12,22.68-9.61,34.34-3.31,15.5-3.6,31.1-2.8,46.82,.17,3.44,1.65,4.51,4.9,4.89,10.93,1.29,21.83,2.83,31.88,7.77,1.72,.84,3.02,.52,4.28-.91,24.15-27.34,44.8-56.53,50.4-93.85,2.28-15.18,1.65-30.18-2.11-45.06-.31-1.22-.65-2.44-.88-3.68-1.11-5.87,.74-10.77,5-12.5,5.13-2.09,8.83,.63,11.64,4.42,10.68,14.42,16.92,30.9,21.46,48.06,8.48,32.09,4.61,63.59-4.69,94.86-5.28,17.77-13.23,34.29-22.83,50.02-2.8,4.59-3.05,8.85-2.36,13.82,5.96,43,.32,84.41-17.26,124.18-9.46,21.41-22.03,40.5-40.52,55.25-2.66,2.12-4.06,4.67-4.81,8.07-5.04,22.91-8.51,46.05-11.11,69.34-.44,3.95,1.06,4.61,4.42,4.49,6.38-.24,12.77-.11,20.29,1.6-6.12,5.19-12.23,7.7-18.27,10.32-5.38,2.33-7.83,9.17-5.15,14.27,1,1.91,2.73,1.41,4.26,1.44,5.41,.1,10.83-.06,16.15,1.12,1.03,.23,2.39,.18,2.76,1.35,.51,1.6-1.06,2.12-2.02,2.76-4.97,3.35-10.39,5.86-16.1,7.54-3.33,.98-4.06,2.48-3.53,5.81,1.35,8.53,2.34,17.12,4.73,25.48,2.46-.08,2.73-2.22,3.62-3.6,17.39-26.76,34.84-53.51,56.14-77.39,23.75-26.64,51.98-46.2,88.07-51.97,28.24-4.52,55.61-.51,82.35,9.3,37.3,13.68,66.58,38.13,92.16,67.72,11.47,13.27,21.85,27.29,30.51,42.55,1.4,2.47,3.16,4.8,3.8,7.95-34.95-4.92-68.39-.31-100.11,14.83-31.77,15.18-57.05,36.95-69.61,72.16-20.69-28.26-46.25-44.71-82.11-37.85-23.15,4.43-49.48,23.25-59.44,42.33,5.28,.28,9.77-2.36,14.62-2.79,2.42-.21,5.57-1.9,7.05,.27,1.34,1.96-1.34,4.18-2.54,6.1-1.72,2.75-3.31,5.73-5.63,7.9-3.98,3.73-2.77,6.85,.19,10.17,3.23,3.63,6.55,7.2,9.7,10.9,2.18,2.56,4,2.28,6.26,.05,3.6-3.56,7.75-6.47,12.16-8.95,1.32-.74,2.92-2.21,4.37-.87,1.15,1.07,.1,2.73-.34,4.05-1.75,5.33-4.14,10.4-7.02,15.19-1.76,2.93-1.47,5,1.3,6.84,.15,.1,.28,.23,.43,.33,4.49,3.3,8.6,8.34,13.59,9.45,5.66,1.26,8.42-6.2,13.14-8.91,2.43-1.4,4.74-5.17,7.19-3.8,2.68,1.5,.2,5.19-.08,7.9-.27,2.68-.93,5.32-1.48,7.97-1.57,7.53-1.57,7.5,5.59,9.78,4.63,1.48,9.3,2.87,13.83,4.63,3.83,1.49,6.07,.83,8.23-3,3.05-5.41,6.01-11.05,11.45-15.96,2.12,6.55,2.81,12.71,3.29,18.81,.29,3.67,1.49,4.87,5.14,5.07,13.65,.76,13.64,.89,19.53-11.65,2.85-6.06,3.32-6.74,6.89-9.86,2.46,5.79,3.58,11.79,4.22,17.84,.33,3.07,1.51,3.88,4.47,3.69,8.48-.53,16.81-2.02,25.17-3.36,2.87-.46,4.12-1.76,3.43-4.78-.36-1.57-.45-3.23-.41-4.84,.05-1.85-1.1-4.3,1.23-5.31,1.81-.79,3.31,.93,4.78,1.91,.3,.2,.54,.49,.85,.67,3.44,2.11,5.29,7.62,9.74,6.83,6.17-1.09,11.69-4.61,17.04-7.97,2.48-1.55,.97-3.85,.46-5.87-.77-3.08-3.49-7.05-1.2-9.1,2.8-2.5,5.73,1.66,8.24,3.19,3.79,2.31,6.39,2.01,9.45-1.06,5.87-5.89,11.31-12.11,16.12-18.89,1.67-2.35,1.49-3.7-1.38-4.65-4.14-1.37-6.81-4.43-9.13-8.03-6.92-10.76-14.04-21.4-21.01-32.12-1.04-1.59-2.88-3.46-1.69-5.31,1.17-1.82,3.34-.24,5,.05,11.01,1.9,22.03,3.78,32.98,5.98,3.65,.73,4.87,.07,4.5-3.81-.79-8.43-1.31-16.89-1.81-25.35-.1-1.68-.77-4.2,1.23-4.79,2.15-.64,2.64,2.02,3.5,3.45,4.19,6.94,8.49,13.84,12.28,20.99,2.25,4.24,3.73,3.92,6.88,.77,8.54-8.54,17.42-16.73,26.24-24.98,1.38-1.29,2.97-3.75,4.85-2.63,2.02,1.21,.31,3.6-.29,5.38-3.16,9.39-6.46,18.74-9.59,28.14-1.86,5.59-1.6,5.77,4.37,4.49,7.21-1.55,14.41-3.11,21.77-3.41,.7,1.95-.88,2.33-1.72,3.08-5.25,4.68-10.42,9.45-15.85,13.9-3.79,3.1-2.95,4.68,.98,6.71,5.43,2.81,10.59,6.15,15.84,9.31,1.37,.83,3.19,1.65,3.08,3.46-.14,2.08-2.34,1.88-3.79,2.38-5.79,2-11.53,4.17-17.41,5.83-4.02,1.14-4.9,3.43-4.29,7.19,.72,4.44,1.15,8.94,1.59,13.42,.18,1.85,1.39,4.21-.96,5.35-1.84,.89-3.33-.78-4.77-1.83-8.89-6.47-17.85-12.84-26.62-19.47-2.84-2.14-4.07-1.85-5.43,1.45-14.02,34.1-38.77,58.56-69.96,77.02-54.44,32.21-113.33,47.42-176.58,45.74-6.13-.16-12.27-.1-18.38-.53-3.63-.25-4.24,.66-3.44,4.19,2.79,12.3,5.34,24.66,6.46,37.25,.05,.54,.12,1.08,.16,1.61,1.3,16.67-1.86,21.15-18.03,23.67-37.14,5.77-74.31,6.34-111.39-.57-8.16-1.52-16.04-4.29-19.38-12.88-5.54-14.25-2.36-22.1,9.08-26.82,6.25-2.59,7.92-5.86,7.2-12.51-1.55-14.4-1.13-14.37-15.56-17.31-7.77-1.58-15.52-3.28-23.18-5.31-3.81-1.01-4.29,0-3.66,3.5,2.56,14.2,4.05,28.52,5.21,42.91,.65,8.12-2.31,13.37-9.09,17.35-12.45,7.3-26.18,10.01-40.22,11.53-27.02,2.93-53.98,2.73-80.75-2.58-2.99-.59-5.95-1.49-8.81-2.58-11.67-4.44-17.15-16.51-12.95-28.22,1.56-4.34,5.03-6.51,9.06-7.85,7.2-2.39,14.61-3.98,22.19-4.55,6.94-.52,7.08,1.15,6.87-7.81-.71-29.92-2.42-59.82-1.47-89.76,.29-9.18,.68-18.39,2.59-27.42,.51-2.39,.11-4.62-.36-6.94-7.04-34.95-2.73-68.88,9.61-101.98,1.75-4.7-.05-5.11-3.76-5.43-28.53-2.46-51.23,9-70.03,29.45-5.44,5.92-10.19,12.48-15.26,18.75Zm84.15,25.63c1.09,50.43,22.96,89.74,68.9,114.21,22.39,11.92,46.85,18.47,71.54,23.96,3.32,.74,3.59-.89,3.42-3.49-.73-11.17-.52-22.34-.18-33.52,.08-2.77-1.07-4.76-2.69-6.8-9.91-12.43-18.8-25.59-26-39.76-13.88-27.34-19.76-56.67-20.37-87.16-.7-34.78,7.99-67.92,18.8-100.47,11.56-34.79,19.78-70.37,27.55-106.09,1.68-7.73,1.28-7.8-6.43-8.34-1.8-.13-3.61-.23-5.38-.54-3.31-.59-4.51-.64-6.33,3.82-10.37,25.43-24.66,48.74-41.57,70.41-17.74,22.73-35.61,45.39-50.21,70.34-18.5,31.6-30.36,65.25-31.06,103.43Zm91.5-440.44c-.49-3.92-.75-7.9-1.52-11.77-5.15-25.89-30.05-39.72-54.79-30.51-19.29,7.18-33.44,28.48-32.58,49.06,.96,23.09,16.62,40.68,37.28,41.89,29.59,1.73,51.39-18.93,51.61-48.66Zm111.66,27.16c.22-25.78-19.18-45.85-42.7-44.18-27.95,1.99-49.43,28.77-45.29,56.47,3.9,26.16,26.76,41.62,52.46,35.46,20.92-5.01,35.32-24.37,35.53-47.75Zm-269.47,71.7c-.52,3.84,1.69,5.3,3.46,6.9,7.65,6.88,16.9,10.93,26.36,14.46,43.79,16.3,88.07,16.44,132.53,3.2,15-4.47,29.72-9.91,43.36-17.81,1.61-.93,4.1-1.97,2.44-4.44-1.47-2.19-3.14-.3-4.62,.57-50.14,29.39-103.24,36.41-159.15,20.59-16.11-4.56-31.35-11.35-44.39-23.47Zm107.1,537.58c1.06-7.6-2.44-15.88-8.1-18.92-4.31-2.31-8.56-2.65-12.5,.9-4.51,4.07-6.44,12.44-4.13,17.97,8.89-12.4,11.73-12.39,24.73,.05Zm169.7,.17c-.54-7.08-3.37-11.82-9.22-14.19-4.51-1.82-8.93-.99-12.43,2.62-3.49,3.61-4.16,7.89-2.76,12.97,9.74-9.16,11.94-9.3,24.41-1.4Zm-69.28,2.76c3.81-3.56,6.28-7.38,11.3-7.3,4.52,.07,7.17,4.09,11.55,5.58-.11-6.4-1.98-11.16-7.39-13.89-4.04-2.04-8.16-1.86-11.58,1.22-4,3.61-5.24,8.24-3.88,14.4Zm-150.56-1.36c.16-7.4-1.07-12.68-6.54-16.14-3.47-2.2-7.1-2.62-10.62-.18-4.67,3.24-6.24,7.81-5.68,14.71,8.33-9.34,15.57-7.61,22.84,1.61Zm250.3,.7q9.72-8.25,22.83-.71c-.66-6.17-2.18-11.28-7.61-14.3-3.39-1.88-6.96-2-10.13,.5-4.44,3.5-5.86,8.21-5.09,14.52ZM190.39,244.03c7.05-1.37,11.99-.48,15,4.88,1.21,2.14,1.51,4.56-.08,6.62-1.4,1.82-3.21,.8-4.92,.19-1.27-.45-2.82-1.73-3.89-.15-1.02,1.51-.08,3.11,.96,4.42,2.52,3.17,7.27,3.69,10.07,1.12,3.92-3.59,3.78-12.28-.27-16.86-4.29-4.84-10.55-5.36-16.87-.23Zm421.19,235.55c2.57-.11,3.76-1.46,3.64-3.82-.15-2.76-1.24-5.01-4.35-5.23-2.73-.2-4.04,1.64-3.92,4.06,.13,2.8,1.86,4.57,4.63,5Zm-9.07-24.01c-2.05,.32-3.5,1.48-3.49,3.82,0,3.23,2.19,4.94,4.98,5.45,2.14,.39,3.32-1.42,3.32-3.37,0-3-1.63-5.01-4.82-5.9Zm-86.06-321.54c2.36-.4,4.03-1.71,3.78-4.25-.25-2.51-.63-6.32-3.22-6.33-2.72-.01-3.14,3.87-3.67,6.38-.45,2.14,.64,3.79,3.11,4.2ZM138.54,427.1c2.52-.52,4.54-1.88,4.7-4.47,.16-2.52-1.76-4.06-4.14-3.84-2.47,.23-4.36,1.92-4.41,4.61-.04,2.35,1.69,3.37,3.84,3.7Zm353.92,184.33c1.88,.31,3.66,.23,3.77-1.92,.18-3.7-2.83-3.97-5.45-4.52-2.04-.43-4.29-.7-4.41,2.14-.18,4.4,4.15,2.86,6.09,4.3Zm-30.53-195.22c-2.57,.06-4.06,1.54-4.21,3.93-.16,2.47,1.71,3.36,3.86,3.47,2.58,.14,4.08-1.19,4.07-3.8,0-2.35-1.38-3.54-3.72-3.6Zm132.57,33.98c2.23-.36,3.37-1.66,3.21-3.72-.18-2.32-1.25-4.24-3.91-4.33-2.05-.06-3.58,.98-3.48,3.2,.12,2.63,1.76,4.18,4.18,4.85ZM425.17,88.7c.4,1.79,1.4,3.3,3.53,3,2.3-.32,3.96-1.72,3.86-4.29-.07-1.88-1.37-2.97-3.15-2.89-2.42,.1-3.82,1.6-4.24,4.19Zm-236.52,125.25c-2.18,.09-3.73,1.17-3.91,3.43-.17,2.15,1.38,3.19,3.3,3.41,2.36,.28,3.76-1.05,3.88-3.32,.12-2.06-1.17-3.22-3.28-3.52Zm147.47-110.72c-.3-1.75-1.25-2.82-3.2-2.67-2.48,.19-3.95,1.67-4.16,4.02-.2,2.21,1.36,3.25,3.39,3.05,2.45-.24,3.58-2,3.97-4.4ZM151.92,416.88c-.43-1.69-1.38-2.89-3.29-2.74-2.41,.19-4.09,1.49-4.03,4,.04,1.73,1.27,2.96,3.18,2.82,2.43-.18,3.82-1.6,4.15-4.08Zm29.52,70.34c-2.04,.17-3.21,1.3-3.34,3.38-.13,2.05,.81,3.69,2.84,3.86,2.25,.19,3.71-1.3,3.78-3.59,.07-2.05-1.23-3.23-3.28-3.66ZM299.89,89.87c-1.66,.34-3.66,.92-3.61,3.39,.04,1.99,1.37,3.3,3.44,3.26,2.45-.05,3.26-1.86,3.44-3.95,.18-2.03-.95-2.89-3.27-2.71ZM155.19,230.65c2.03-.1,3.59-1.11,3.8-3.44,.2-2.22-1.17-3.27-3.23-3.37-2.29-.1-3.82,1.08-4.03,3.37-.2,2.17,1.19,3.19,3.46,3.44Zm325.98,343.13c-.04-1.89-1.05-3.19-2.79-3.34-2.26-.2-3.73,1.26-3.93,3.43-.2,2.11,1.24,3.34,3.27,3.3,2.05-.03,3.06-1.5,3.45-3.39Zm-50.27-500.98c2-.16,3.63-1.16,3.97-3.4,.28-1.82-.62-3.24-2.61-3.27-2.22-.04-3.72,1.23-4.14,3.41-.37,1.93,.62,3.04,2.78,3.26Zm198.73,451.74c2.03-.18,2.87-1.41,2.92-3.21,.06-2.07-1.06-3.47-3.05-3.72-1.87-.24-3.06,1.05-3.19,2.83-.16,2.27,1.25,3.54,3.31,4.1Zm65.27,223.82c.15-1.21-.26-2.55-1.48-2.37-2.7,.4-4.55,2.21-5.09,4.89-.3,1.49,1.05,2.45,2.34,2.36,2.87-.21,3.65-2.53,4.24-4.88ZM187.75,459.99c-.08-1.89-1.14-3.05-2.94-3.06-2.12,0-3.21,1.41-3.02,3.47,.15,1.64,.91,3.25,2.84,3.22,2.17-.03,2.77-1.81,3.11-3.63Zm-87.37-3.92c-2.59,0-4.14-.09-5.67,.02-1.96,.14-2.6,1.64-2.89,3.28-.22,1.25-.25,2.77,1.22,3.12,1.67,.39,2.21-1.35,3.13-2.36,1.02-1.12,2.17-2.11,4.21-4.06Zm353.83,29.45c-1.63,.16-3.43,.65-3.74,2.83-.29,2,.99,3.04,2.88,3.01,2.15-.04,3.96-.91,4.03-3.38,.05-1.78-1.3-2.39-3.17-2.46Zm83.05-414.74c-.18-1.43-.29-3.18-2.22-2.97-2.31,.25-3.09,2.15-3.22,4.25-.08,1.29,.07,2.67,1.82,2.62,2.44-.07,3.2-1.86,3.61-3.91Zm-123.36-1.34c-1.74,.41-2.88,1.69-2.9,3.7-.02,1.65,.92,2.82,2.72,2.51,1.93-.33,3.41-1.52,3.4-3.58,0-1.63-1.29-2.45-3.22-2.63Zm-90.47,8.59c1.81-.45,3.47-1.27,3.57-3.39,.08-1.61-1.05-2.8-2.67-2.79-2.07,.01-3.29,1.36-3.45,3.4-.14,1.68,.71,2.71,2.55,2.78Zm237.93,20.82c-.02-1.77-.72-3.03-2.4-3.15-2.07-.15-2.81,1.39-2.8,3.13,0,1.6,.29,3.65,2.26,3.69,2.15,.05,2.62-2.01,2.94-3.68Zm2.69,596.13c-1.53,.26-2.8,.93-2.56,2.76,.23,1.79,1.36,3.01,3.23,3.06,1.75,.05,2.66-1.13,2.56-2.78-.11-1.87-1.31-2.88-3.23-3.04ZM294.29,108.29c1.83-.55,3.62-1.39,3.81-3.68,.13-1.56-1.12-2.2-2.45-2.08-2.1,.18-3.75,1.18-3.84,3.55-.06,1.49,.88,2.21,2.48,2.2Zm96.24,8.5c-1.63-.02-2.42,.83-2.12,2.35,.33,1.7,.42,3.87,3.06,3.53,1.91-.24,2.88-1.71,2.71-3.44-.2-2-2.02-2.25-3.65-2.44Zm90.31,218.07c-.39-1.53-1.22-2.69-2.92-2.55-1.8,.15-3.08,1.18-2.82,3.14,.2,1.48,1.1,2.75,2.82,2.68,1.98-.08,2.59-1.6,2.93-3.26ZM183.59,470.8c-2.11,.72-2.43,2.63-2.34,4.65,.06,1.52,.62,3.06,2.51,2.62,2.17-.51,2.25-2.51,2.25-4.31,0-1.45-.13-2.94-2.42-2.95ZM549.9,155.91c1.5-.37,2.72-1.32,2.64-3.2-.08-1.83-1.08-3.07-3.06-2.74-1.79,.29-2.77,1.51-2.6,3.41,.15,1.66,1.07,2.55,3.01,2.54Zm-52.21-4.13c-.23-1.53,0-3.53-2.4-3.3-2,.19-2.49,1.81-2.41,3.53,.08,1.71,.71,3.4,2.66,3.37,2.24-.03,2.02-2.02,2.15-3.6ZM114,434.78c-.08-1.39-.9-1.97-2.09-1.88-2.17,.18-3.69,1.35-3.96,3.55-.17,1.42,.79,2.49,2.26,2.22,2.1-.37,3.26-1.93,3.79-3.9ZM339.43,87.96c-.09-1.53-.86-2.39-2.32-2.46-2.19-.11-3.27,1.16-3.51,3.19-.18,1.5,.53,2.43,2.11,2.35,1.99-.1,3.33-1.08,3.72-3.07Zm306.1,631.52c-1.45,.18-3.19,.39-3.18,2.53,0,1.66,1.23,2.57,2.81,2.55,1.82-.02,3-1.07,3.02-2.97,.01-1.54-1.04-2.1-2.64-2.1Zm-173.71-157.78c1.44-.35,2.54-1.63,2.67-3.56,.13-1.92-1.23-2.22-2.83-2.21-2.09,.01-2.79,1.32-2.88,3.05-.08,1.61,.67,2.71,3.04,2.72Zm-427.48-29.55c-1.95,.1-3.05,1.21-3.01,3.08,.03,1.35,.19,3.57,1.82,3.36,1.91-.24,3.24-2.16,3.57-4.2,.25-1.6-.98-2.13-2.38-2.24Zm416.4-67.96c0-1.49-.28-2.75-1.93-2.64-2.07,.13-3.01,1.68-3.35,3.5-.25,1.36,.36,2.57,1.92,2.47,2.04-.13,2.91-1.66,3.35-3.32Zm282.15,249.58c-1.99,.34-2.46,1.81-2.41,3.56,.04,1.5,.82,2.35,2.39,2.23,1.96-.14,2.95-1.32,2.87-3.19-.07-1.64-1.05-2.61-2.86-2.6ZM396.1,134.34c-.03-1.68-.87-2.7-2.56-2.8-1.6-.09-2.9,.65-3.04,2.33-.16,1.85,.86,3.12,2.8,3.12,1.62,0,2.61-.96,2.8-2.65Zm221.56,352.07c-1.68,.19-2.65,1.07-2.58,2.77,.07,1.77,.88,3.18,2.76,3.3,1.97,.13,2.86-1.15,2.78-3.03-.08-1.87-1.15-2.86-2.96-3.04Zm-91.68-392.32c-1.82,.93-2.64,2.65-2.86,4.65-.18,1.59,.76,2.4,2.28,1.98,2.35-.64,2.61-2.69,2.66-4.67,.03-1.14-.55-2.05-2.08-1.96Zm283.5,517.65c-1.78,.18-3.03,.95-3.15,2.89-.09,1.44,.56,2.42,2.04,2.56,1.84,.18,3.1-.7,3.42-2.53,.3-1.72-.73-2.59-2.31-2.93ZM469.91,350.96c1.84-.15,2.73-1.4,3-3.08,.23-1.46-.63-2.41-2.04-2.54-2.04-.18-2.78,1.21-2.9,2.96-.1,1.32,.24,2.48,1.94,2.66Zm134.7,72.8c-1.79,.27-2.89,1.31-2.82,3.19,.05,1.35,.79,2.57,2.26,2.46,2.04-.15,3.2-1.6,3.19-3.59,0-1.47-1.18-2.04-2.63-2.06Zm117.77,310.19c-.22-1.12-.4-2.63-2.01-2.53-2.13,.12-2.87,2.01-3.33,3.72-.38,1.44,.57,2.55,2.02,2.53,2.15-.04,3-1.62,3.32-3.71ZM136.25,216.36c1.75-.3,3-1.22,2.94-3.13-.05-1.54-1.27-2.09-2.63-2.02-1.83,.11-3.07,1.06-2.95,3.04,.09,1.51,1.22,2.03,2.64,2.11Zm111.15,268.07c1.3-.3,2.61-.88,2.42-2.7-.19-1.81-1.41-2.93-3.16-3.1-1.59-.16-2.14,1.12-2.21,2.44-.09,1.84,.81,3.04,2.94,3.36Zm186.64-43.19c.1-1.49-.69-2.35-2.08-2.5-1.82-.2-3.1,.69-3.36,2.52-.23,1.6,.66,2.95,2.23,2.97,1.71,.02,2.76-1.31,3.21-2.99Zm-42.74-343.87c-.13,1.78,.74,2.5,2.14,2.6,1.81,.13,3.1-.66,3.35-2.54,.22-1.65-.55-2.83-2.31-2.73-1.7,.1-2.94,1.04-3.18,2.67Zm97.2,263.01c1.7-.19,2.62-1.24,2.65-2.86,.03-1.63-.81-2.8-2.59-2.78-1.94,.03-3.05,1.19-2.96,3.08,.08,1.63,1.2,2.53,2.9,2.56ZM117.26,441.86c-.11-1.48-.94-2.37-2.38-2.41-1.56-.04-2.97,.63-3.13,2.34-.15,1.59,.61,2.85,2.49,2.75,1.65-.09,2.54-1.18,3.02-2.67Zm331-41.77c-.2-1.28-.87-2.41-2.63-2.31-1.37,.07-2.37,.76-2.44,2.25-.07,1.59,.62,2.84,2.29,2.99,1.73,.15,2.4-1.14,2.78-2.93Zm-216.88,29.61c-.42-1.99-1.79-3.19-3.92-3.4-1.28-.12-2,.79-1.89,1.96,.22,2.24,1.68,3.38,3.86,3.51,1.21,.07,1.97-.58,1.95-2.07Zm282.19-131.36c1.98-.4,2.63-1.85,2.7-3.55,.05-1.28-.35-2.72-1.95-2.71-2.14,.02-2.42,1.87-2.57,3.46-.12,1.27,.27,2.5,1.82,2.8Zm-106.32-194.04c-1.54,.23-2.8,.92-3.01,2.58-.2,1.53,.69,2.38,2.22,2.33,1.56-.05,2.93-.7,3.07-2.4,.12-1.41-.84-2.29-2.28-2.51Zm89.71,214.62c-.17-1.61-1-2.49-2.49-2.25-1.82,.3-2.77,1.57-2.71,3.41,.04,1.36,.69,2.59,2.19,2.5,2.23-.13,2.65-1.99,3.01-3.66Zm210.75,118.33c2.04-.32,2.29-1.98,2.44-3.55,.13-1.45-.58-2.45-2.18-2.25-1.55,.19-2.69,1.11-2.72,2.75-.03,1.56,.86,2.63,2.46,3.05ZM120.45,224.95c-.08-1.33-.82-2.07-2.01-2.09-2.25-.04-3.01,1.64-3.44,3.45-.29,1.24,.21,2.27,1.63,1.98,1.84-.37,3.16-1.56,3.83-3.34ZM708.4,742.64c-.09-1.24-.6-2.34-1.86-2.19-2,.24-3.17,1.65-3.2,3.65-.02,1.14,.79,2.17,2.07,1.83,1.63-.42,2.81-1.5,3-3.3Zm-71.94-190.74c-.14-1.66-.97-2.61-2.72-2.45-1.78,.17-2.38,1.38-2.22,2.97,.15,1.52,.81,2.82,2.63,2.6,1.72-.21,2.11-1.64,2.31-3.12ZM200.96,214.16c-1.83,.04-2.83,1.02-2.83,2.62,0,1.3,.75,2.42,2.24,2.51,1.64,.1,2.75-.72,2.93-2.38,.19-1.73-.79-2.59-2.34-2.75Zm423.28,504.77c-.29-1.68-1.52-2.37-3.03-2.39-1.3-.01-2.53,.61-2.66,2.11-.16,1.81,1.2,2.55,2.67,2.71,1.6,.17,2.67-.74,3.02-2.43Zm69.92-290.45c-.17-1.57-.99-2.83-2.64-2.82-1.54,.01-2.71,1-2.76,2.73-.05,1.77,1.09,2.69,2.66,2.78,1.66,.09,2.64-.91,2.74-2.69ZM429.64,104.92c.04-1.54-.8-2.44-2.24-2.49-1.87-.06-3.15,.93-3.19,2.88-.03,1.53,1.05,2.25,2.49,2.21,1.62-.05,2.68-.93,2.94-2.6Zm-13.46,19.82c-.13-1.37-.69-2.45-2.2-2.46-1.75-.02-2.49,1.33-2.69,2.75-.19,1.34,.56,2.52,2.09,2.44,1.58-.08,2.42-1.24,2.8-2.72ZM235.3,462.38c-1.76,.26-2.42,1.34-2.21,2.99,.19,1.5,.81,2.92,2.52,2.9,1.83-.03,2.1-1.61,2.16-3.08,.06-1.68-.78-2.64-2.47-2.81Zm335.95,4.49c-.02-1.49-.77-2.41-2.19-2.6-1.6-.22-2.89,.37-3.1,2.12-.18,1.46,.76,2.43,2.12,2.59,1.53,.19,2.79-.44,3.17-2.11Zm-482.44,2.7c-.25-1.34-.72-2.78-2.54-2.65-1.74,.13-2.26,1.54-2.28,3.08-.02,1.47,.76,2.39,2.24,2.43,1.76,.04,2.52-1.04,2.58-2.86Zm411.18-128.97c-1.4,.21-2.38,.93-2.41,2.42-.04,1.65,.83,2.94,2.5,2.88,1.61-.06,2.55-1.33,2.43-2.98-.11-1.43-1.07-2.2-2.52-2.32Zm-254.63,396.96c-1.86,.35-2.33,1.6-2.24,3.19,.09,1.61,.7,3.02,2.56,2.67,1.71-.33,1.95-1.93,1.88-3.44-.06-1.41-.66-2.41-2.2-2.42Zm288.3,46.9c-1.33,.15-2.59,.58-2.46,2.16,.14,1.73,1.5,2.29,3.06,2.23,1.49-.06,3.07-.42,2.73-2.35-.29-1.63-1.83-1.97-3.33-2.04ZM173.54,211.74c-1.59,.16-2.67,.93-2.84,2.58-.19,1.83,.95,2.59,2.56,2.53,1.52-.05,2.76-.8,2.87-2.5,.11-1.74-.98-2.49-2.59-2.61Zm276.47,327.76c1.61-.32,2.74-1.18,2.62-2.88-.11-1.68-1.21-2.54-2.92-2.37-1.46,.15-2.27,1.07-2.28,2.5-.01,1.68,.87,2.65,2.57,2.74Zm182.79,179.37c-1.63,.08-2.65,.84-2.66,2.56,0,1.42,.65,2.38,2.17,2.36,1.54-.02,2.83-.7,3.07-2.29,.28-1.8-1.11-2.34-2.58-2.63Zm-32.28-6.15c-.2-1.82-1.46-2.33-3.02-2.28-1.49,.05-3.03,.31-2.75,2.36,.23,1.65,1.45,2.39,3.03,2.49,1.78,.11,2.58-.9,2.74-2.58Z"/>
  <path d="M352.5,711.29c-28.18,8.48-56.3,12.33-84.16-.92,27.96,7.91,56.08,1.72,84.16,.92Z"/>
  <path d="M342.35,665.41c-16.92,15.84-71.23,15.86-87.14-.23,29.55,13.23,58.32,9.36,87.14,.23Z"/>
  <path d="M256.36,628.16c25.24,7.57,51.13,8.54,77.2,7.67-26.81,8.26-52.15,1.79-77.2-7.67Z"/>
  <path d="M264.67,590.95c21.22,9.51,43.34,14.24,67.41,12.97-11.39,8.06-51.06-.37-67.41-12.97Z"/>
  <path d="M296.29,741.57c21.27,3.32,42.48,3.97,63.62-.88-21.02,9.89-42.29,7.35-63.62,.88Z"/>
  <path d="M332.5,581.52c-15.57,7.22-46.9,.05-61.45-14.13,19.5,11.28,39.41,15.24,61.45,14.13Z"/>
  <path d="M294.71,528.01c16.78,7.39,34.18,11.6,53.68,9.72-11.2,7.33-41.65,1.49-53.68-9.72Z"/>
  <path d="M307.6,505.76c14.61,5.38,29.69,8.55,45.33,8.88-16.49,4.46-31.43,.66-45.33-8.88Z"/>
  <path d="M282.84,546.88c16.77,8.49,34.7,11.37,53.19,11.71-19.39,3.7-37.03-.81-53.19-11.71Z"/>
  <path d="M321.74,489.47c11.79,3.7,23.73,6.48,36.23,5.83-13.09,4.87-24.83,.67-36.23-5.83Z"/>
  <path d="M362.88,481.28c-11.72,1.86-22.79,.17-33.13-5.72,10.92,2.77,22.05,4.23,33.13,5.72Z"/>
  <path d="M370.9,454.68c-8.29,1.51-16.22,.39-23.65-3.82,7.79,1.82,15.84,1.72,23.65,3.82Z"/>
  <path d="M360.11,724.32c-.57,2.55-2.63,3.38-4.81,3.24-2.17-.14-4.54-1.18-4.22-3.86,.29-2.41,2.47-3.41,4.81-3.35,2.44,.06,4.04,1.27,4.22,3.98Z"/>
  <path d="M337.66,462.63c10.28,2.1,19.34,3.96,28.87,5.91-6.2,1.74-18.06-.66-28.87-5.91Z"/>
  <path d="M351.53,440.86c6.25,1.43,12.59,2.26,18.93,3.14-6.84,2.73-13.04,.84-18.93-3.14Z"/>
  <path d="M317.8,548.17c-.25,1.98-1.15,3.42-3.27,3.56-1.99,.13-3.64-.77-3.9-2.81-.28-2.15,1.23-3.21,3.24-3.38,1.95-.17,3.5,.44,3.93,2.63Z"/>
  <path d="M335.22,725.14c1.88,.09,3.47,.92,3.62,2.66,.21,2.45-1.73,3.33-3.86,3.48-1.86,.13-3.23-.8-3.21-2.75,.03-2.13,1.62-3.01,3.44-3.39Z"/>
  <path d="M374.62,431.16c-5.19,1.95-10.07,1.38-14.71-1.43,4.9,.48,9.81,.95,14.71,1.43Z"/>
  <path d="M284.84,623.51c-1.77-.42-3.1-1.2-2.83-3.26,.28-2.13,1.74-3.13,3.73-3.03,1.64,.09,2.56,1.26,2.42,2.94-.17,2-1.12,3.36-3.32,3.35Z"/>
  <path d="M309.97,622.42c-.2,1.83-1.23,2.89-3.08,2.89-1.68,0-3.29-.52-3.29-2.57,0-2.02,1.25-3.36,3.3-3.32,1.72,.04,2.93,1.06,3.07,2.99Z"/>
  <path d="M283.27,584.74c2.11,.15,3.36,1.3,3.47,3.38,.09,1.68-.8,2.77-2.61,2.64-1.99-.14-3.5-1.05-3.52-3.26-.02-1.65,.92-2.66,2.66-2.76Z"/>
  <path d="M359.85,734.87c-4.4,2.96-9.53,3.11-14.58,3.55,4.76-1.57,9.2-4.38,14.58-3.55Z"/>
  <path d="M369.51,412.01c1.53-.14,2.25-.35,2.91-.24,2.7,.47,5.68-1.9,8.1,.79,.15,.17-.18,1.13-.52,1.34-1.52,.95-8.3-.02-10.49-1.9Z"/>
  <path d="M362.97,418.97c5.1,.69,10.19,1.38,15.52,2.1-5.97,2.16-9.23,1.86-15.52-2.1Z"/>
  <path d="M343.32,549.09c-.01,1.75-.96,2.61-2.6,2.67-1.47,.06-3.01-.18-3.22-1.95-.24-1.98,1.22-2.81,2.91-3.04,1.68-.23,2.6,.73,2.92,2.32Z"/>
  <path d="M325.96,655.76c1.58,.12,2.93,.79,3,2.4,.07,1.58-1.07,2.54-2.72,2.52-1.35-.01-2.47-.66-2.61-2.07-.16-1.6,.69-2.62,2.33-2.85Z"/>
  <path d="M297.94,659.91c-1.44-.13-2.48-.85-2.48-2.33,0-1.7,1-2.71,2.78-2.47,1.44,.19,2.17,1.23,2.17,2.66,0,1.59-.97,2.2-2.47,2.14Z"/>
  <path d="M289.32,207.87c-.05,10.88-8.19,20.35-17.55,20.4-9.71,.05-16.94-7.31-16.89-17.2,.06-11.18,8.69-20.82,18.55-20.73,9.29,.09,15.93,7.41,15.89,17.53Zm-9.44-5.45c-2.11,.3-3.17,1.68-3,3.68,.18,2.06,1.65,3.06,3.72,3.03,1.93-.03,3.04-1.1,3.02-2.98-.02-2.34-1.44-3.5-3.75-3.73Z"/>
  <path d="M400.92,235.34c0,11.24-7.23,19.51-17.16,19.6-8.92,.09-15.9-6.97-15.96-16.14-.08-10.66,8.14-19.95,17.76-20.08,8.66-.12,15.35,7.12,15.36,16.63Z"/>
</svg>