<?xml version="1.0" encoding="UTF-8"?>
<svg id="Layer_1" data-name="Layer 1" xmlns="http://www.w3.org/2000/svg" viewBox="0 0 864 864">
  <path d="M630.26,753.6c-7.76,4.05-16.04,6.81-24.69,8.27-3.06,.51-4.71,1.77-5.85,4.53-3.55,8.53-6.87,17.18-11.71,25.11-1.07,1.75-.59,2.86,.68,4.27,2.6,2.87,5.16,5.81,7.39,8.96,9.67,13.63,11.24,28.23,4.84,43.67-.56,1.35-.78,3.32-2.27,3.64-1.82,.39-1.78-2-2.84-2.9-.33-.28-.64-.58-1.26-1.14-2.2,4.06-2.45,8.59-4.19,12.57-.58,1.32-.72,3.27-2.4,3.43-1.57,.15-1.77-1.8-2.41-2.87-3.93-6.53-7.95-12.99-13.66-18.17-3.98-3.61-4.47-3.51-5.6,1.54-1.04,4.65-1.89,9.35-2.64,14.06-.67,4.14-1.13,4.47-4.49,1.89-13.2-10.09-23.64-22.68-32.56-36.57-1.53-2.37-2.66-3.32-5.59-2.41-22.64,6.99-46.03,8.27-69.49,8.24-24.62-.03-49.23-.87-73.68-4.15-7.68-1.03-15.34-2.34-22.92-3.9-2.73-.56-4.35,.01-6.23,1.92-13.04,13.17-27.38,24.84-42.07,36.11-1.47,1.13-3.03,3.28-4.96,2.32-1.74-.87-.67-3.25-.73-4.95-.18-4.79-.81-9.48-2.1-14.12-.76-2.76-1.8-2.67-3.52-.92-5.27,5.37-9.26,11.66-13.19,18.01-.83,1.35-1.24,3.05-3.03,3.87-3.74-4.78-3.54-10.92-5.48-16.38q-4.12,3.41-5.96-1.67c-6.76-18.62-1.77-36.67,14.52-51.15,2.47-2.2,2.56-3.71,1.14-6.3-4.54-8.31-7.26-17.32-9.45-26.46-.72-3.02-2.13-4.1-5.03-4.51-3.53-.5-6.99-1.49-10.45-2.4-2.67-.71-5.47-.72-6.51-4.6-.62-2.28-4.06-3.37-6.52-1.73-1.96,1.32-3.29,.69-4.88-.14-5.16-2.71-9.99-5.95-14.75-9.3-1.39-.98-2.43-1.88-.71-3.46,.76-.7,1.84-1.64,1.17-2.62-.86-1.24-2.78-1.09-3.67-.45-3.53,2.51-5.7,.29-8.01-1.85-2.85-2.63-5.68-5.28-8.58-7.85-1.96-1.74-2.36-3.1,.15-4.85,1.52-1.06,4.19-2.38,2.48-4.85-1.66-2.4-4.47-1.95-6.4-.36-3.31,2.74-5.09,1.05-7.14-1.54-4.26-5.4-7.99-11.15-11.8-16.85-1.26-1.89-1.65-3.29,.68-4.74,1.98-1.24,2.73-3.45,1.52-5.47-1.29-2.15-3.53-3.57-6.09-2.19-2.68,1.44-3.28-.24-4.15-2.06-3.64-7.55-6.18-15.5-8.88-23.4-.84-2.45-.66-4.19,2.28-5.15,1.03-.34,3.27-.91,2.32-3.06-.91-2.07-2.71-2.43-4.45-1.27-2.4,1.6-2.67,.03-3.05-1.69-.58-2.62-1.11-5.25-1.8-7.84-.68-2.55-.45-4.2,2.76-4.54,2.55-.26,3.52-2.21,2.9-4.59-.65-2.46-3.08-2.86-4.7-2.04-3.78,1.91-3.79-.55-4.17-2.95-2-12.53-3.92-25.14-3.85-37.78,.03-4.43-.21-8.63-.57-13.03-.84-10.08-.23-20.27,.84-30.38,.24-2.3,.9-3.97,3.1-5.43,4.07-2.7,3.75-5.13-.68-7.39-1.6-.81-1.22-1.85-1.04-2.94,1.43-8.84,3.55-17.53,5.84-26.19,.6-2.27,1.67-2.33,3.56-1.66,2.23,.8,4.55,1.4,6.87,1.91,.97,.22,2.25,.34,2.81-.76,.69-1.36-.47-2.19-1.31-3-1.67-1.58-3.78-2.38-5.94-2.99-2.46-.7-3.29-1.79-2.37-4.52,8.87-26.5,21.69-51,37.5-73.97,2.51-3.65,3.58-3.48,5.6,.89,7.01,15.15,13.65,30.48,20.97,45.48,11.64,23.85,26.23,45.76,44.43,65.19,6.68,7.13,14.51,12.31,23.98,14.96,2.03,.57,3.51,1.06,4.37-1.82,8.24-27.67,20.93-53.56,32.26-80,2.7-6.3,5.4-12.61,8.09-18.92,2.06-4.84,2.07-4.91-3.24-5.83-18.78-3.26-36.87-8.7-53.78-17.58-15.64-8.22-30.56-17.55-42.29-31.1-15.8-18.23-22.41-40.12-24.6-63.6-4.06-43.62,7.64-83.28,30.87-119.88,1.73-2.72,1.29-4.3-.58-6.59-26.71-32.6-45.15-69.4-55.06-110.33-4.33-17.89-6.66-36.1-3.95-54.56,.84-5.73,3.18-10.85,7.42-14.97,6.02-5.86,13.02-6.38,19.79-1.38,4.75,3.51,8.32,8.1,11.62,12.92,12.54,18.34,23.7,37.6,36.77,55.6,12.64,17.41,26.3,33.96,41.37,49.33,1.81,1.85,3.17,3.35,5.57,.37,7.24-9,17.03-14.35,27.65-18.28,2.7-1,3.89-2.17,4.04-5.33,.62-12.67,6.28-23.81,11.46-35.04,2.81-6.1,6.08-11.99,10.33-17.23,6.52-8.03,12.99-7.34,17.4,2.08,4.17,8.91,5.17,18.63,6.28,28.26,.51,4.44,.87,8.91,1,13.38,.09,2.87,1.24,3.74,3.88,3.06,.29-.07,.59-.17,.88-.15,8.65,.65,12.79-3.33,15.4-11.76,3.7-11.95,10.28-22.8,17.22-33.27,1.72-2.6,3.69-5.08,5.82-7.35,5.8-6.18,10.06-5.28,12.93,2.84,3.63,10.26,4.15,21.01,4.4,31.76,.09,4.03,.1,8.05,.19,12.08,.02,1.04-.06,2.22,.39,3.08,1.46,2.78,15.15,2.83,16.95,.12,6.71-10.12,14.48-19.33,23.52-27.46,2.56-2.3,5.31-4.38,8.42-5.86,6.46-3.08,10.42-.91,11.3,6.17,.71,5.69-.16,11.34-.83,16.95-.82,6.96-1.94,13.89-3.18,20.78-.52,2.86,.12,4.44,2.96,5.43,5.48,1.92,10.93,3.99,16.27,6.26,2.63,1.12,4.09,.63,5.94-1.61,18.35-22.18,33.07-46.7,46.81-71.87,6.14-11.25,12.12-22.6,18.28-33.85,2.74-5,6.23-9.48,10.58-13.21,5.95-5.11,13.35-4.76,18.8,.93,5.68,5.93,7.54,13.45,8.3,21.26,1.99,20.54-.29,40.85-4.2,60.95-6.05,31.05-16.27,60.74-30.59,88.97-1.32,2.61-1.16,4.24,.61,6.71,5.83,8.13,10.29,17.12,14.88,25.98,9.13,17.6,18.52,35.07,26.58,53.21,22.82,51.41,3.25,94.67-28.82,123.44-29.41,26.38-63.64,42.8-102.93,48.34-6.76,.95-13.48,2.27-20.36,3.45,.77,2.92,2.89,4.46,4.49,6.32,13.62,15.83,27.78,31.2,40.82,47.53,11.4,14.27,21.32,29.46,28.84,46.16,2.42,5.38,2.51,5.43,7.76,2.6,8.39-4.53,15.01-11.24,21.6-17.94,19.59-19.94,33.68-43.54,45.77-68.52,5.78-11.94,12.08-23.63,18.19-35.4,.5-.96,.7-2.59,2.22-2.38,1.27,.18,1.75,1.54,2.27,2.6,4.72,9.64,9.36,19.32,14.15,28.92,1.32,2.65,.35,3.37-2.17,3.62-3.12,.32-5.81,1.56-7.07,4.69-.74,1.84-1.18,3.87,.67,5.34,1.71,1.37,3.68,1.22,5.4-.05,2.15-1.59,4.18-3.35,6.73-5.42,2.88,7.19,5.84,14.15,8.45,21.24,2.94,7.97,5.47,16.09,8.39,24.07,1.09,2.97,.43,4.57-2.34,6.07-3.79,2.06-7.39,4.5-10.61,7.43-.93,.85-2.66,1.61-1.58,3.15,.95,1.36,2.47,.41,3.69-.05,3.67-1.37,6.82-3.67,10.06-5.79,2.03-1.33,3.13-1.65,3.95,1.33,4.29,15.57,7.22,31.36,8.76,47.44,.29,3.07-.29,4.63-3.59,5.25-3.56,.67-6.64,2.57-9.05,5.42-1.17,1.39-1.83,2.92-.7,4.45,1.22,1.66,2.79,.51,3.99-.2,2.31-1.36,4.51-2.9,6.68-4.48,1.93-1.4,3.23-1.76,3.29,1.34,.31,16.27,.28,32.52-2.09,48.68-.41,2.81-1.57,3.37-4.11,3.03-2.83-.38-5.68-.15-8.31,1.16-1.07,.53-2.29,1.11-2.36,2.46-.09,1.66,1.38,2.13,2.57,2.7,2.55,1.22,5.26,.82,7.93,.71,1.63-.06,3.03-.2,2.56,2.24-6.96,36.88-18.89,71.52-44.95,99.77-5.9,6.4-12.79,11.62-20.27,16.08-2.2,1.31-4.07,2.21-6.16-.41-.94-1.17-2.74-1.74-4.25-2.35-1.5-.6-3.29-1.33-4.21,.84-.76,1.79-.63,3.48,1.26,4.68,.84,.53,1.97,.8,2.32,2.42Zm-235.01-369.61c1.84-4.45,.71-8.81-3.81-12.09,2.1,8.5-3.26,12.91-8.54,17.45,5.35,.19,8.75-3.04,12.5-5.51-.9,2.24,.02,4.07,1.35,5.77,2.31,2.95,4.97,5.53,8.14,7.57,18.44,11.84,38.57,15.17,59.95,11.59,18.75-3.14,31.9-13.21,37.89-31.71,.26-.8,1.38-1.69-.27-2.93-1.53,2.81-2.96,5.53-4.49,8.2-5.72,10.03-14.04,16.79-25.2,20.01-11.37,3.28-22.87,3.53-34.52,1.9-16.45-2.3-30.57-9.46-43-20.25Zm151.5,299.48c0-5.96,.17-11.93-.03-17.88-1.31-38.37-6.82-76-20.16-112.2-7.42-20.13-16.68-39.26-31.44-55.23-18.77-20.31-45.48-26.62-69.71-16.46-12.37,5.19-22.45,13.47-31.22,23.43-13.89,15.78-23.42,34.14-30.98,53.56-14.74,37.85-21.16,77.2-20.89,117.75,.16,24.39,1.18,48.69,9.28,71.97,9.6,27.6,26.14,49.62,53.75,61.35,19.54,8.3,40.3,9,61.16,7.24,13.14-1.1,25.45-4.91,36.33-12.6,20.82-14.72,31.89-35.79,38.37-59.69,5.44-20.06,6.09-40.63,5.53-61.26Zm-189.72-388.83c-.08-21.51-9.02-40.53-25.01-52.04-12.45-8.96-26.04-12.3-40.32-4.78-11.83,6.23-17.9,17.24-21.3,29.7-9.01,32.95,8,61.79,39.92,68,19.6,3.81,35.2-3.19,42.37-19.1,3.11-6.91,4.27-14.25,4.35-21.78Zm161.71-11.93c-.17,5.56,.38,11.06,1.75,16.42,2.99,11.68,9.75,20.13,21.84,23.08,11.55,2.82,22.54,.98,32.46-5.78,27.87-18.99,29.37-58.57,3.09-80.02-17.73-14.47-39.68-10.04-50.55,10.14-6.09,11.31-8.36,23.49-8.59,36.16Zm-254.48,86.72c5.4-.06,11.35-2.04,14.99-4.99,6.51-5.29,5.7-14.08-1.67-18.04-7.52-4.04-20.23-2.45-26.45,3.31-5.88,5.45-5.02,13.16,1.97,17.07,3.45,1.93,7.25,2.61,11.17,2.65Zm339.2-40.95c-5.84-.02-10.6,1.05-14.72,4.08-6.76,4.95-6.23,13.49,1.02,17.62,6.86,3.91,18.15,2.84,24.04-2.37,3.07-2.71,4.9-6.06,4.09-10.31-.82-4.29-3.86-6.53-7.75-7.88-2.42-.84-4.92-1.22-6.68-1.15Zm-12.67,67.04c10.73-6.59,20.15-14.72,28.76-23.77,24.52-25.81,31.52-55.9,21.64-89.99-.75-2.58-1.4-5.35-3.5-7.65-.15,.61-.32,.9-.26,1.15,.45,1.88,.96,3.75,1.43,5.63,8.12,32.5,3.03,61.98-19.56,87.71-8.7,9.9-18.43,18.59-28.51,26.93ZM271.02,113.38c-13.15,8.86-25.56,18.76-39,27.21,11.29,.12,32.38-14.48,39-27.21Zm-23.08,48.17c15.71-6.17,28.59-16.05,38.61-29.63-13.96,8.44-26.6,18.59-38.61,29.63Zm11.35-65.5c-13.3,8.31-27.98,14.24-41.83,23.76,10.41,1.06,37.18-14.39,41.83-23.76Zm362.92-6.48c-15.71-4.56-31.64-8.33-47.47-12.51,14.61,8.59,30.12,13.92,47.47,12.51Zm-18.29,45.33c-16.18-2.7-30.78-6.89-45.9-12.14,8.53,9.59,34.99,16.82,45.9,12.14Zm-36.78-35.36c8.43,9.83,38.22,17.38,45.59,11.65-15.56-2.31-30.45-6.21-45.59-11.65ZM280.87,847.32c4.81-5.2,6.82-11.62,8.7-18.09,.99-3.42,1.79-6.9,1.12-10.5-.16-.85-.08-1.93-1.1-2.26-1.33-.42-1.95,.78-2.29,1.62-3.81,9.34-6.37,18.97-6.44,29.23Zm272.06-10.32c.25,2.64,.58,6.62,1.06,10.59,.11,.92,.18,2.29,1.62,2.24,1.06-.04,1.27-1.1,1.55-1.92,2.77-8.1,2.7-16.3,.79-24.55-.2-.84-.46-1.87-1.56-1.86-1.04,.02-1.36,1-1.66,1.83-1.43,3.98-1.27,8.18-1.8,13.67Zm33.12,10.49c.46-8.45-1.86-16.48-4.43-24.46-.49-1.53-1.23-3.59-3.09-3.27-2.35,.41-1.75,2.81-1.65,4.46,.45,7.85,3.15,15.06,6.64,22.01,.37,.73,.82,1.66,2.53,1.26ZM217.02,92.82c10.02,2.6,28.85-6.17,33.16-15.79-10.81,6.81-22.33,9.83-33.16,15.79Zm94.88,741.42c.04-4.12-.07-7.1-.83-10-.28-1.08-.35-2.68-1.88-2.58-1.11,.08-1.31,1.51-1.58,2.46-2.25,7.89-2.09,15.89-.93,23.92,.1,.72,.31,1.68,1.23,1.45,.57-.14,1.11-.93,1.41-1.55,2.26-4.69,2.42-9.77,2.58-13.71ZM205.68,75.17c11.42-.52,21.48-4.06,29.1-12.97-9.83,4.03-20.34,6.5-29.1,12.97Zm227.95,127.3c-4.07,4-6.79,15.6-5,19.99,.53,1.29,1.29,2.41,2.82,2.56,1.33,.13,2.48-.45,2.79-1.74,1.65-6.88,1.22-13.68-.6-20.81ZM582.72,54.58c6.54,7.73,27.58,13.94,34.3,10.08-11.5-3.38-22.65-6.66-34.3-10.08ZM284.15,727.21c3.24,18.22,7.61,36.12,17.5,52.16-7.48-16.83-12.37-34.5-17.5-52.16ZM459.11,175.11c-3.39,3.62-4.2,8.13-5.23,12.54-.4,1.73-.58,3.54,.34,5.19,.57,1.02,1.24,2.17,2.64,1.99,1.16-.15,1.71-1.2,1.88-2.23,1-5.77,1.26-11.58,.37-17.49ZM594.51,35.75c4.64,7.11,20.87,13.02,28.11,10.41-9.21-4.26-18.69-5.84-28.11-10.41Zm-165.42,233.95c-2.7,5.7-1.98,10.64-1.05,15.53,.35,1.85,1.13,4.2,3.64,3.62,2.52-.58,2.64-2.91,2.31-5.11-.69-4.6-2.29-8.9-4.9-14.04Zm42.78-44.44c-4.39,4.42-4.65,10.17-5.61,15.67-.3,1.74,.08,3.39,2.13,3.82,2.48,.52,2.59-1.64,2.88-3.08,1.09-5.39,.75-10.86,.6-16.4Zm123.12,592.4c-3.56,6.72-1.65,19.53,3.23,23.92,1.04-8.23-.75-15.46-3.23-23.92Zm-323.05,22.52c3.63-5.11,4.09-10.53,4.54-15.91,.19-2.3,.76-6.13-1.19-6.38-2.6-.34-2.29,3.4-2.8,5.54-.51,2.16-.86,4.37-1.04,6.59-.26,3.14-1.44,6.36,.49,10.16Zm418.52-277.14c-3.96-.08-8.52,3.83-9.02,7.51-.39,2.84,.92,4.02,3.58,3.14,3.55-1.17,5.85-3.85,7.5-7.11,1.24-2.46,.36-3.61-2.05-3.54ZM496.34,182.26c-4.6,4.49-6.2,9.14-7.13,14.07-.29,1.56-.43,3.6,1.65,4.04,1.94,.41,2.88-1.37,3.43-2.88,1.61-4.49,2.2-9.16,2.06-15.23Zm-92.04,56.42c-1.18,4.7-1.7,9.31,.33,13.82,.66,1.46,1.43,3.26,3.53,2.47,1.76-.66,2.25-2.41,1.91-4.09-.9-4.48-2.9-8.49-5.78-12.21Zm-18.61-137.61c-.26-10.37-3.1-20.11-7.22-29.58,3.14,4.59,.13,10,2.19,14.74,2.08,4.8,1.04,10.58,5.04,14.84Zm271.52,569.76c2.37-.29,4.32-2.16,6.2-4.06,2.24-2.27,1.35-3.99-1.18-5.17-2.17-1.02-4.11-.32-5.69,1.28-1.71,1.72-3.09,3.71-2.58,6.33,.28,1.42,1.45,1.74,3.25,1.63ZM199.91,53.94c7.82,1.68,19.16-2.49,23.44-8.7-8.13,2.84-15.81,4.55-23.44,8.7Zm252.23,185.06c-3.41,4.74-4.19,10.11-4.44,15.6-.07,1.56-.28,3.7,1.95,3.8,2.06,.09,2.44-2.01,2.62-3.56,.59-5.25,.61-10.52-.13-15.84Zm-4.2,47.77c-4.14,5.81-5.14,11.15-4.38,16.92,.17,1.28,.79,2.34,2.17,2.41,1.47,.07,2.16-1.05,2.17-2.31,.08-5.25,.03-10.51,.03-17.02Zm170.34,273.24c-.02-1.59,.16-3.02-1.12-3.55-1.52-.62-1.93,.99-2.56,1.86-2.11,2.92-3.38,6.25-4.3,9.7-.29,1.09-.68,2.5,.55,3.26,1.33,.83,2.24-.35,2.98-1.2,2.63-2.99,3.8-6.63,4.45-10.08Zm-384.98,78c1.91-.5,5.3-.19,5.58-3.26,.29-3.11-2.85-4-5.38-4-2.55,0-6,.09-6.01,3.69-.01,2.92,2.86,3.35,5.81,3.57ZM454.94,135.66c-4.8,4.2-7.62,11.06-6.73,15.12,.25,1.15,.44,2.48,1.94,2.6,1.02,.09,1.52-.78,1.87-1.62,2.04-4.94,2.2-10.14,2.92-16.11Zm-62.83,2.06c-.85,5.33-.62,10.53,.6,15.67,.25,1.05,.91,2.11,2.06,2,1.31-.13,2.04-1.33,2.06-2.56,.09-5.52-1.69-10.48-4.72-15.1Zm18.57,15.13c-3.55,4.65-4.78,12.49-3.12,16.39,.29,.69,.5,1.48,1.36,1.58,1.15,.13,1.5-.8,1.72-1.65,1.35-5.21,.7-10.35,.04-16.32Zm19.21,1.25c-.98-2.8,.72-7.58-2.17-7.8-2.66-.21-2.8,4.55-3.05,7.38-.23,2.65-.94,6.79,2.59,6.84,3.39,.05,1.64-4.28,2.62-6.42Zm93.38,2.26c-4.78,4.47-7.36,8.95-8.94,14.06-.25,.81-.34,1.85,.68,2.29,.92,.39,1.83-.04,2.33-.8,2.86-4.41,5.52-8.9,5.93-15.54ZM172.52,551.77c-.12-3.22-1.8-4.97-4.62-5.28-2.49-.27-4.68,1.07-4.78,3.59-.14,3.43,2.96,4.15,5.54,4.65,2.21,.43,3.65-.8,3.87-2.96ZM367.92,126.39c-.78,4.58-.04,8.92,1.29,13.18,.49,1.56,1.65,2.72,3.32,2.34,2.01-.46,1.66-2.27,1.29-3.69-1.12-4.3-2.88-8.32-5.9-11.83Zm12.1,26.88c-2.99,5.46-2.72,10-1.23,14.61,.3,.92,.36,2.3,1.76,2.17,1.42-.14,1.98-1.44,1.88-2.62-.4-4.36-.34-8.81-2.41-14.16Zm-30.08-1.09c-1.28,6.4,.54,11.08,2.81,15.65,.48,.96,1.19,1.91,2.41,1.48,1.35-.48,.96-1.76,.68-2.68-1.38-4.66-2.67-9.36-5.91-14.45Zm290.23,488.18c.17,1.47-.18,3.21,2.13,3.18,2.5-.04,6.29-3.58,6.5-6,.19-2.15-1.09-3.24-2.89-3.06-3.4,.34-5.06,2.73-5.75,5.88ZM418.61,127.01c-3.09,4.89-4.41,9.16-4.19,13.83,.05,1.14,.5,2.53,1.93,2.62,1.35,.09,1.54-1.3,1.71-2.23,.77-4.31,1.52-8.64,.56-14.23Zm281.33,473.11c2.47-.64,5.8-.65,6.14-4.29,.2-2.17-1.86-2.96-3.76-2.78-2.92,.28-5.82,1.27-6.36,4.53-.42,2.57,2.04,2.32,3.98,2.54Zm-61.67-118.87c0-.51,.24-1.74-1.03-2.11-.97-.29-1.58,.63-2.11,1.34-2.06,2.81-3.24,5.98-3.57,9.44-.08,.82-.23,1.89,.81,2.31,1.04,.42,1.66-.39,2.2-1.07,2.18-2.75,3.4-5.89,3.7-9.9ZM338.32,143.85c-.03-5.35-2.18-9.78-5.48-13.71-.56-.67-1.45-1.33-2.35-.93-1.06,.46-.69,1.53-.38,2.32,1.88,4.67,4.55,8.81,8.21,12.32Zm320.11,310.26c-4.12,3.55-6.18,7.47-7.03,12.09-.16,.88-.1,1.87,.85,2.35,1.02,.52,1.76-.26,2.2-.95,2.51-3.88,4.32-7.99,3.97-13.49ZM471.58,137.02c-2.88,3.71-5.26,7.6-6.34,12.11-.32,1.33-1.09,3.29,.69,3.93,1.89,.67,2.29-1.36,2.85-2.66,1.82-4.24,2.63-8.73,2.81-13.37Zm171.94,445.86c.27-1.99,.54-3.03-.46-3.46-1.06-.46-1.5,.63-2.01,1.26-1.75,2.19-3.49,4.41-4.53,7.05-.44,1.11-.85,2.42,.35,3.22,1.43,.96,2.56-.06,3.37-1.13,1.81-2.38,3.09-5.03,3.28-6.95Zm-7.12,91.51c-3.36,.6-3.33,3.43-3.62,5.83-.22,1.84,.85,3.37,2.87,3.02,2.82-.48,4.31-2.74,4.51-5.32,.17-2.16-1.54-3.36-3.77-3.53Zm52.62-89.49c-.15-2.11-1.75-2.52-3.17-2.45-3.01,.15-5.59,1.63-6.43,4.53-.45,1.55,1.55,2.44,3.09,2.45,3.19,.03,5.09-1.98,6.51-4.53Zm-474.04-98.07c1.38-.12,2.88-.32,2.46-2.23-.63-2.88-1.2-6.09-4.85-6.64-1.98-.3-3,1.21-2.88,3.09,.2,3.24,2.2,5.02,5.28,5.77Zm435.56,164.36c3.69-.26,4.13-3.48,4.96-6.25,.38-1.27-.44-2.06-1.76-1.68-3.03,.87-6.26,1.82-6.86,5.45-.36,2.21,1.75,2.33,3.66,2.48Zm-232.38-341.66c-.42-2.14,.24-6.22-2.07-6.37-2.68-.17-1.72,3.93-2.54,6.09-.1,.27-.12,.58-.11,.88,.05,2-.61,5.03,1.9,5.21,2.94,.21,2.38-3.06,2.81-5.09,.03-.14,0-.3,0-.72Zm213.28,269.01c-2.73,.08-7.52,8.86-6.24,11.32,.69,1.32,1.45,1.37,2.35,.32,2.46-2.86,4.2-6.12,5.07-9.81,.2-.87,.18-1.86-1.19-1.83Zm-380.19,23.41c-1.71,.75-3.9,1.27-3.62,3.78,.25,2.21,1.44,4.15,3.96,4,1.95-.11,4.06-1.03,3.63-3.54-.35-2.02-1.29-4.04-3.97-4.25Zm424.57,23.75c-3.04,.05-6.95,4.19-6.88,6.46,.05,1.65,.98,2.41,2.56,2.41,2.28,0,5.81-4.14,5.69-6.64-.07-1.4-.68-2.23-1.37-2.23Zm-13.84-60.82c-2.58,.71-5.51,1.69-6.2,5.12-.43,2.16,1.22,3.61,3.15,3.45,4.2-.36,3.88-4.26,4.84-7.08,.42-1.23-.31-1.59-1.79-1.49Zm-474.16,53.35c-.13-2.79-1.55-4.27-4.15-4.33-1.88-.05-3.77,.62-3.69,2.88,.09,2.35,1.36,4.35,3.93,4.57,2.09,.18,3.68-.87,3.9-3.12Zm19.91-175.83c.27,2.19-.21,4.78,2.33,6.17,.99,.55,2.13,.22,2.81-.66,1.75-2.25,.61-4.53-.25-6.69-.64-1.59-1.34-3.77-3.59-3.16-2.13,.57-.97,2.75-1.29,4.34Zm-21.77,104.69c-.37-2.56-.74-5.23-4.07-5.44-1.74-.11-3.57,.72-3.34,2.71,.34,2.93,2.41,4.73,5.32,5.15,1.55,.23,2.6-.57,2.1-2.43Zm.4,23.52c-1.09-2.04-1.3-5.22-4.52-5.68-2.02-.29-2.9,1.45-2.64,3.25,.37,2.59,1.38,5.02,4.41,5.38,1.66,.2,2.83-.75,2.75-2.95Zm474.53-89.13c-.33-1.42-1.4-2.14-2.77-1.02-2.41,1.96-4.49,4.32-5.42,7.37-.49,1.6,.23,2.63,2.07,2.19,2.01-.48,6.27-6.3,6.12-8.54Zm-25.83,143.76c.02-1.15-.59-1.49-1.68-1.44-2.42,.11-7.43,5.07-7.47,7.46-.01,.93,.07,1.77,1.33,1.79,2.14,.03,7.97-5.77,7.82-7.81Zm-434.59,.54c-2.28,.3-3.7,1.54-3.66,3.78,.05,2.42,2,3.27,4,3.28,2.19,.02,3.75-1.42,3.59-3.65-.15-2.17-1.81-3.25-3.93-3.4Zm470.49-74.27c2.62-.53,5.23-1.64,5.81-4.49,.37-1.8-1.64-2.71-3.36-2.48-2.69,.36-4.62,1.95-5.06,4.73-.26,1.65,.94,2.3,2.61,2.24Zm-421.53-2.68c-.24,2.76,2.37,4.27,4.65,5.87,1.2,.84,2.31-.21,3.09-1.02,1.2-1.24,.18-2.16-.78-2.92-1.39-1.11-2.88-2.09-3.73-3.76-.4-.78-1.03-1.7-2.03-1.44-1.23,.33-1.2,1.53-1.21,3.27Zm-39.54-84.32c-.63-1.77-.28-4.54-3.13-4.55-2.24-.01-3.25,1.81-3.25,4.02,0,2.2,1.01,3.89,3.22,4.11,2.25,.23,2.95-1.52,3.16-3.58ZM608.3,22.68c4.22,5.8,10.25,7.87,14.49,5.39-4.36-2.43-8.87-3.62-14.49-5.39ZM324.47,543.26c-.15-1.5-.15-3.42-1.96-2.9-2.42,.7-3.8,2.9-3.91,5.43-.07,1.55,.42,3.98,2.28,3.67,3.31-.54,2.96-3.89,3.59-6.2Zm-116.58,41.21c-.67-1.94-1.77-3.41-4.07-3.25-2.01,.14-3.4,1.36-3.47,3.33-.07,2.26,1.51,3.56,3.65,3.57,2.17,0,3.34-1.54,3.89-3.64Zm419.03-46.79c.02-.6,.41-1.62-.62-2.07-.39-.17-1.25,.09-1.52,.44-1.98,2.57-3.89,5.21-4.63,8.46-.17,.74-.18,1.57,.53,1.99,.98,.58,1.62-.23,2.24-.83,2.2-2.13,3.39-4.79,4-7.99Zm-456.37,30.61c-.82-2.51-3.04-3.46-5.35-3.99-1.65-.38-2.56,.8-2.36,2.4,.31,2.39,1.36,4.4,4.14,4.42,1.68,0,3.24-.62,3.57-2.83Zm502.01-54.85c3.5-.41,5.3-2.63,6.4-5.53,.41-1.09,.6-2.5-.58-3.19-1.13-.65-1.84,.6-2.53,1.26-1.57,1.53-3.21,3.05-4.51,4.8-1,1.34-.57,2.52,1.22,2.65Zm-477.14,26.6c2.22-.33,3.24-1.67,2.98-3.69-.26-2.03-1.41-3.76-3.62-3.78-2.21-.02-3.59,1.5-3.47,3.72,.14,2.43,1.95,3.42,4.11,3.75Zm413.05,55.48c1.91-.19,2.92-2.24,3.23-4.75,.19-1.56-.7-2.73-2.32-2.52-2.8,.37-4.57,2.33-5,4.93-.28,1.67,1.34,2.44,4.09,2.33Zm-399.25,97.12c1.29-.45,3.43-.06,3.11-2.27-.35-2.4-2-4.01-4.49-4.24-2-.18-3.16,1.23-3.02,3.03,.19,2.48,2.1,3.35,4.4,3.48Zm18.4,24.9c2.46-.31,4.84-1.33,5.37-4.15,.29-1.55-1.55-2.15-2.85-2.09-2.69,.13-5,1.38-5.54,4.17-.32,1.65,1.42,1.94,3.02,2.08Zm407.48-7.21c2.82-.12,3.67-2.07,4-4.46,.26-1.82-.65-3.09-2.39-3.03-2.57,.09-3.96,1.98-4.47,4.29-.45,2.06,.95,2.93,2.86,3.21Zm8.85-170.15c-.45-1.37-.17-3.62-2.05-3.88-1.81-.25-1.74,2.04-2.27,3.29-.81,1.91-1.47,3.95,.15,5.81,.5,.58,1.32,.78,2.03,.42,2.32-1.19,1.51-3.59,2.14-5.64ZM509.46,209.99c5.01-4.26,6.43-8.69,5.14-14.98-2.67,4.61-4.47,9.16-5.14,14.98ZM198.59,557.3c-2.14,.49-3.31,1.71-3.17,3.8,.16,2.36,1.41,3.94,3.92,3.97,2.07,.02,2.98-1.29,2.67-3.23-.34-2.09-1.08-4.03-3.42-4.54Zm28.96,120.79c-2.2,.69-5.13,.83-5.58,3.85-.21,1.39,1.57,2.02,3.01,1.71,2.4-.51,5.42-.64,6.04-3.51,.36-1.65-1.87-1.83-3.48-2.05ZM511.92,372.67c-3.86-1.86-6.75-4.05-8.73-7.23-.4-.65-1.05-1.19-1.84-.77-.94,.49-.8,1.47-.7,2.35,.47,4.19,5.17,6.79,11.28,5.66Zm164.46,153.3c.16-1.68-.4-2.44-1.73-1.73-2.67,1.43-4.72,3.52-5.57,6.52-.17,.62,.02,1.54,.4,2.08,.52,.74,1.41,.29,1.96-.09,2.49-1.75,4.04-4.21,4.93-6.77Zm-481.8-71.34c-.27-1.75-1.31-3.23-3.34-3.21-1.87,.01-3.63,1-3.45,3.19,.17,2.1,1.54,3.63,3.82,3.43,1.71-.15,3.05-1.13,2.97-3.42Zm448.89,148.23c2.68,.22,6.87-5.21,6.14-7.77-.32-1.11-1.04-1.51-1.96-.94-2.77,1.71-4.37,4.37-5.37,7.37-.26,.79,.4,1.34,1.19,1.34Zm1.35-37.49c-.1-1.07,.31-3-1.31-2.59-3.02,.76-3.92,3.79-4.88,6.38-.48,1.3,.14,3.04,1.84,2.78,3.58-.57,3.25-4.07,4.35-6.56Zm-405.39,157.38c2.22-.21,4.7-.49,4.99-3.29,.21-2.03-1.68-2.77-3.41-2.57-2.32,.27-4.5,1.49-4.87,3.89-.33,2.15,1.84,1.76,3.3,1.97Zm-18.88-184.85c-.07-2.38-1.15-4.59-3.32-4.59-2.13,0-1.96,2.56-2.03,4.3-.08,1.9,.34,3.83,2.58,3.95,2.36,.12,2.67-1.86,2.77-3.66Zm-29.21-17.75c-1.69,.19-2.98,1.34-3.02,3.38-.04,2,1.13,3.58,3.17,3.62,1.79,.03,2.94-1.28,3.1-3.19,.17-2.09-.62-3.46-3.25-3.8Zm50.85,121.42c.35,1.75,1.64,2.64,3.41,2.63,1.97,0,4.21-.41,4.15-2.9-.05-1.97-1.88-2.9-3.81-2.98-2.08-.09-3.26,1.09-3.75,3.25Zm19.4,38.15c1.82-.19,3.9-.51,4-3.33,.08-2.25-1.54-2.29-3.04-2.06-2.07,.32-4.93-.05-4.94,3.12,0,2.03,1.89,2.36,3.97,2.27Zm417.37-64.61c1.72-.53,4.51-.22,4.95-3.02,.31-2.02-1.66-2.63-3.38-2.55-2.22,.11-4.77,.3-5.09,3.17-.22,1.93,1.67,2.1,3.52,2.4Zm-424.69,13.05c-.74-1.94-2.09-3.31-4.22-3.22-2.04,.09-3.23,1.67-3.2,3.55,.04,2.12,1.72,2.97,3.7,2.91,2.02-.07,3.15-1.34,3.72-3.24Zm-40.74-55.01c-1.74,.14-2.82,1-2.87,2.76-.07,2.48,1.32,3.95,3.71,4.1,1.95,.12,2.96-1.17,2.92-3.12-.05-2.42-1.88-3.12-3.76-3.75Zm-9.48-60.12c1.66,.02,2.93-.81,2.8-2.3-.19-2.22-.82-4.62-3.61-4.92-1.73-.19-2.88,1.07-2.78,2.77,.14,2.22,1.29,3.92,3.59,4.45ZM451.49,205.79c-2.53,4.25-2.03,8.72-1.27,13.2,.11,.67,.49,1.44,1.5,1.2,.75-.18,.8-.86,.83-1.4,.19-4.37,.28-8.73-1.05-13Zm81.19-26.77c-2.85,2.57-4.05,5.36-5.18,8.16-.4,1-.38,2.13,.87,2.62,.97,.38,1.76-.19,2.28-.95,1.9-2.72,2.84-5.67,2.03-9.83Zm-148.05,5.14c-1.22,4.64-.75,8.08,.4,11.47,.32,.93,.84,2.1,2.2,1.64,1.05-.36,.95-1.44,.88-2.3-.28-3.43-1.3-6.65-3.48-10.81Zm263.81,533.98c2-.25,4.05-.68,4.09-3.18,.03-2.19-1.82-2.48-3.53-2.43-2.06,.06-3.99,.6-4.04,3.15-.04,2.3,1.77,2.38,3.48,2.46Zm-472.01-204.84c-2.05,.06-2.84,1.55-3.09,3.19-.35,2.36,1.08,3.61,3.31,3.81,1.83,.16,2.68-.94,2.8-2.7,.15-2.25-.82-3.68-3.03-4.3ZM406.87,118.45c-2.09,3.08-3,6.5-3.39,10.09-.08,.76,.12,1.54,.94,1.79,.85,.26,1.39-.4,1.69-1.05,1.6-3.48,2.23-7.05,.77-10.84Zm2.1,161.77c.58,1.76-.04,4.09,2.03,5.41,.35,.22,1.31,.07,1.56-.25,1.33-1.66,1.07-3.64,.65-5.5-.39-1.74-.29-4.59-2.52-4.42-1.89,.14-1.2,2.95-1.72,4.76Zm224.35,279.11c-.24-1.32,.03-3.52-1.54-3.22-2.83,.54-3.4,3.35-3.76,5.84-.2,1.34,.09,3.12,1.87,2.8,2.9-.51,3.18-3.09,3.43-5.43Zm-414.84,60.53c-.51-2.06-1.96-2.82-3.96-2.81-1.88,0-3.38,.65-3.14,2.81,.25,2.24,1.82,3.44,4.03,3.34,1.92-.08,2.77-1.49,3.07-3.33Zm378.23-36.03c2.09,.11,5.96-3.58,6.11-5.82,.08-1.16-.28-2.08-1.54-2.29-1.49-.25-5.66,4.77-5.78,6.79-.06,.98,.29,1.35,1.21,1.33Zm70.87,66.15c-.04-1.68-.05-3.44-2.43-3.41-2.1,.03-3.43,1.08-3.35,3.26,.07,1.75,.13,3.86,2.57,3.97,2.5,.11,3.28-1.58,3.21-3.82Zm-26.19-32.24c.33,1.14-.18,3.61,2.31,3.51,2.15-.08,3.12-1.95,3.19-4.09,.06-1.97-.84-3.03-2.89-2.98-2.06,.05-2.91,1.1-2.61,3.55Zm-429.21,59.26c-1.04-2.07-1.77-4.41-4.52-4.48-1.7-.04-3.1,1.16-2.88,2.73,.36,2.64,2.7,3.3,5,3.47,1.16,.08,2.43-.09,2.4-1.72ZM216.39,29.27c-5.79,.34-10.15,1.66-15.19,4.42,6.79,1.05,10.47-.01,15.19-4.42Zm456.42,648.6c1.58-.09,3.38-.46,3.3-2.57-.08-2.12-1.72-3.03-3.75-2.93-2.07,.1-3.58,1.46-3.51,3.34,.07,2.04,2.11,2.14,3.96,2.17Zm-466.14-154.01c-2.09,.12-2.48,1.41-2.38,3.05,.14,2.28,1.1,4.15,3.47,4.39,1.78,.18,2.5-1.33,2.28-3.01-.27-2.14-1.02-3.99-3.38-4.43Zm267.97-241.62c-3.16,1.34-4.84,3.39-5.83,6.04-.44,1.18-.08,2.42,1.13,3.06,1.44,.77,2.29-.28,2.77-1.36,.99-2.25,1.97-4.54,1.92-7.74Zm-234.58,314.56c-.76-1.99-1-4.51-3.64-4.99-1.65-.3-2.49,1.1-2.2,2.53,.42,2.08,.73,4.65,3.33,5.12,1.34,.24,2.22-1.18,2.51-2.66Zm28.48,148.08c.14-.97-.04-2.19-1.12-1.95-3.56,.8-3.62,4.32-4.83,6.89-.38,.81,.01,1.82,1.16,1.99,1.64,.24,4.76-4.31,4.79-6.93Zm-39.62-217.44c-.63,2.69-.48,4.72,0,6.73,.36,1.53,1.1,2.94,3,2.3,2.01-.67,2.77-2.37,1.83-4.2-.97-1.9-2.46-3.52-4.83-4.83Zm-56.75,85.94c-.08-1.95-.89-3.45-3-3.61-1.77-.13-3.25,.7-3.46,2.61-.21,1.92,.52,3.49,2.7,3.82,2.15,.33,3.25-.84,3.76-2.83Zm51.82-57.89c.31-1.46,.41-3.71-1.99-3.64-2.67,.09-2,2.78-2.21,4.55-.2,1.7,.03,3.59,2.25,3.48,2.57-.13,2.22-2.21,1.95-4.39Zm403.62-38.88c2.51-.57,4.19-2.39,5.04-4.81,.5-1.4-.66-2.24-2.02-2.12-2.92,.27-4.26,2.39-4.96,4.9-.32,1.17,.51,1.89,1.93,2.03Zm-9.38,118.81c-.11-1.05-.45-2.62-1.58-2.09-2.7,1.27-4.58,3.6-5.65,6.42-.4,1.05,.33,1.57,1.43,1.62,2.19,.1,5.79-3.57,5.8-5.96Zm-355.49,53.83c-2.01-.02-5.65,3.89-5.6,5.8,.03,.99,.38,1.9,1.49,1.67,3.02-.64,4.81-2.71,5.67-5.55,.39-1.29-.55-1.83-1.56-1.91Zm-24.95-74.08c-1.76,.13-2.63,1.3-2.61,2.61,.03,2.57,1.9,3.84,4.18,4.37,1.09,.25,2.34-.4,2.25-1.52-.19-2.5-1.94-4.11-3.82-5.46Zm-16.29-5.87c-.6-1.74-1.52-3.51-3.47-3.62-2.03-.12-2.69,1.66-2.67,3.41,.02,1.97,1.39,3.01,3.2,3,1.61,0,2.78-.96,2.95-2.79Zm403.75,41.21c2.17-.55,4.04-1.77,4.36-4.28,.17-1.3-.48-3.14-2.07-2.83-2.63,.51-3.51,3.04-4.22,5.3-.36,1.14,.35,2,1.94,1.8ZM377.47,197.64c-1.48,3.91,.24,6.79,1.44,9.73,.34,.84,1.03,1.6,2.07,1.25,1.11-.37,.93-1.44,.76-2.27-.63-3.08-2.07-5.78-4.27-8.71ZM211.91,498.07c-.88-1.87-2.18-3.86-4.73-4.29-1.43-.24-2.12,1.08-1.92,2.35,.37,2.38,1.73,4.06,4.27,4.36,1.37,.16,2.23-.55,2.37-2.43Zm413.45,8.45c-.33-.58-.51-1.15-.9-1.52-.51-.5-1.21-.22-1.59,.2-1.1,1.21-2.24,2.43-3.08,3.81-.66,1.1-2.86,2.36-1.02,3.63,1.42,.98,3.12-.34,4.09-1.78,.9-1.35,1.64-2.81,2.5-4.33Zm-376.72,17.38c-.73-1.71-1.52-3.91-4.12-4.12-1.51-.12-1.85,1.29-1.61,2.53,.43,2.17,.98,4.54,3.64,4.81,1.56,.15,2.04-1.37,2.08-3.22Zm368.95,57.2c2.65-.57,3.97-2.68,4.77-5.09,.36-1.07-.54-2.14-1.73-2-2.91,.34-4.12,2.61-4.9,5.04-.37,1.16,.45,1.91,1.86,2.05Zm-417.51,28.62c-.5-2.04-1.51-3.72-3.65-4.08-1.67-.28-2.4,1.07-2.4,2.54,0,1.95,.9,3.61,2.88,4,1.68,.33,2.71-.85,3.17-2.46Zm54.37-24.31c2.12-.5,3.12-1.79,3.03-3.88-.08-1.67-.8-3.1-2.62-2.94-2.14,.19-2.88,1.99-2.95,3.88-.06,1.64,.7,2.88,2.54,2.93Zm409.35-64.97c.05-1.26,.06-2.24-1.09-2.44-1.21-.21-5.03,4.92-4.92,6.48,.08,1.06,.76,1.82,1.69,1.62,3.17-.68,3.81-3.34,4.32-5.67Zm-448.03,194.14c1.85-.46,3.8-1.1,3.99-3.38,.16-1.92-1.48-2.48-3.02-2.34-2,.19-3.85,1.19-4.06,3.36-.18,1.84,1.37,2.36,3.09,2.35Zm470.05-56.63c1.08-.62,3.6,.03,3.4-2.28-.27-3.11-3.44-2.07-5.32-2.76-1.45-.53-2.17,.68-2.11,2.04,.1,2.36,1.91,2.69,4.03,2.99ZM218.52,497.43c.15,2.48,.33,4.84,3.2,5.21,1.95,.25,1.93-1.48,1.9-2.75-.05-2.38-1-4.53-3.44-5.02-1.97-.39-1.5,1.58-1.66,2.56Zm399.59,128.53c-.21-1.83-1.52-2.26-2.88-2.15-2.34,.2-3.84,1.62-4.07,3.97-.16,1.61,1.08,1.93,2.4,1.81,2.33-.21,3.69-1.64,4.55-3.64Zm-387.28,29.54c1.21-.37,2.92-.9,2.81-2.61-.13-1.98-1.73-3.05-3.74-2.93-1.54,.09-3.09,.65-2.7,2.66,.33,1.71,1.37,2.93,3.63,2.88ZM471.91,195.1c-1.75,3.16-1.62,6.12-1.61,9.06,0,.93,.24,1.94,1.29,2,1.06,.05,1.35-.97,1.51-1.86,.52-2.99,1.34-6.02-1.19-9.2Zm-252.22,372.6c1.66-.16,2.68-.96,2.63-2.54-.07-2.18-1.19-3.67-3.49-3.83-1.4-.1-2.35,.73-2.24,2.14,.16,2.01,.89,3.75,3.09,4.23Zm470.92-15.59c2.77-.71,3.95-2.81,4.43-5.43,.17-.91-.23-2.15-1.23-1.88-2.6,.71-4.17,2.73-4.94,5.23-.36,1.16,.45,1.91,1.75,2.08Zm-512.57,102.34c.34,1.77,1.68,2.34,3.22,2.33,1.86,0,3.71-.53,3.7-2.82,0-1.73-1.44-2.54-3.03-2.55-1.97-.01-3.23,1.14-3.88,3.04ZM485.11,145.61c-2.53,3.2-2.7,6.01-3,8.76-.09,.88,.05,1.9,1.09,2.17,1.44,.38,1.72-.86,1.99-1.8,.79-2.69,.88-5.39-.09-9.13Zm185.92,433.52c-2.72,.76-4.19,2.67-5.95,4.09-.8,.64-1.68,1.47-.8,2.59,.74,.94,1.84,.89,2.82,.39,2.7-1.37,4.26-3.41,3.93-7.06ZM442.48,120.17c-2.33,3.78-3.52,6.94-3.4,10.53,.02,.68-.07,1.59,.84,1.81,1.14,.27,1.62-.68,1.79-1.48,.7-3.24,1.29-6.51,.77-10.85Zm-46.76,50.9c-1.32,3.41-.56,6.02,.46,8.59,.37,.93,.73,2.18,2.06,1.72,1.14-.4,1.13-1.67,1.01-2.67-.32-2.65-1.19-5.09-3.54-7.64Zm264.96,447.06c.67,1.18-.58,3.68,1.82,3.72,1.79,.03,3.34-1.35,3.26-3.44-.06-1.65-.64-3.32-2.73-3.32-1.81,0-2.55,1.17-2.35,3.04Zm-406,120.57c-1.76,.21-2.81,1.2-2.77,2.88,.05,1.72,.85,3.31,2.82,3.25,1.94-.06,2.71-1.52,2.64-3.37-.07-1.73-.98-2.68-2.69-2.76Zm12.08-187.55c-.26-1.86-.76-3.6-3.06-3.65-1.65-.04-2.42,1.26-2.44,2.63-.02,2,1.29,3.38,3.21,3.65,1.71,.24,2.12-1.21,2.29-2.63Zm131.58-254.2c1.4-4.24,1.33-7.74-1.11-11.03-.95,3.6-2.57,7.25,1.11,11.03Zm-161.17,408.73c.11-1.54-.76-1.98-1.95-1.78-2.15,.37-4.08,1.26-4.65,3.57-.34,1.36,.6,2.5,1.96,2.35,2.43-.28,3.89-1.94,4.65-4.14Zm-52.26-76.57c-2.15,.13-2.31,1.73-2.28,3.21,.03,1.55-.24,3.61,2.26,3.54,2.02-.06,2.8-1.6,2.84-3.37,.04-1.85-.95-3.06-2.82-3.38ZM430.8,175.03c-2,2.92-3.32,6.02-3.47,9.49-.04,.94-.45,2.33,1.03,2.5,1.11,.13,1.3-1.1,1.46-1.91,.66-3.31,1.66-6.59,.97-10.09Zm54.92,89.51c-.13-1-.2-3.36-1.93-2.76-2.52,.87-1.77,4.01-2.42,6.17-.29,.95,.16,2.39,1.53,1.95,2.24-.72,3-2.65,2.83-5.36ZM218.49,640.04c1.35-.22,2.51-.8,2.19-2.23-.5-2.22-2.27-3.4-4.4-3.68-1.32-.17-2.27,.89-2.09,2.22,.33,2.43,2.37,3.09,4.31,3.69Zm422.96-121.85c0-.9,.02-2.01-.94-1.77-2.81,.72-4.35,2.97-5.44,5.44-.44,1,.05,2.33,1.47,2.02,3.05-.66,3.79-3.45,4.91-5.7Zm-431.62,29.08c-.33-1.44-.64-3.25-2.84-2.97-1.64,.21-2.56,1.44-2.35,3.17,.2,1.61,1.11,2.85,2.8,2.91,1.86,.07,2.5-1.21,2.39-3.11Zm34.07,190.35c1.72-.18,3.04-.92,2.83-2.76-.22-1.93-1.73-2.69-3.55-2.61-1.64,.08-3.03,.83-2.83,2.69,.22,1.97,1.88,2.46,3.55,2.67Zm-53.03-246.35c-1.42,.44-2.4,1.33-2.44,3.04-.04,1.82,.69,3.25,2.56,3.54,1.68,.26,2.92-.59,2.88-2.44-.03-1.9-.95-3.32-3-4.14Zm245.06-174.87c-.27-1.67,.04-4.46-1.47-4.27-2.63,.33-2.14,3.38-2.34,5.42-.15,1.53,.01,4,2.02,3.63,2.26-.41,1.39-3.14,1.79-4.78Zm-162.47,270.9c-.71-.82,.1-3.46-2.47-3.36-1.59,.06-2.41,1.59-2.37,3.24,.05,1.79,.75,3.26,2.79,3.31,1.69,.05,2.3-1.04,2.04-3.2Zm-92.55,12.75c1.46-.23,3-.77,3.01-2.56,.01-2.02-1.76-2.62-3.39-2.89-1.59-.26-2.67,.78-2.74,2.25-.09,1.88,1.1,2.97,3.12,3.2Zm88.84-38.2c.12,2.3,.44,4.56,3.06,5.31,1.39,.4,1.79-.78,1.74-1.9-.09-2.47-.62-4.9-3.4-5.59-1.53-.38-1.21,1.24-1.41,2.18Zm17.7,16.35c-2.8,1.38-3.46,3.7-4.41,5.79-.37,.82-.8,1.75,.2,2.34,.93,.55,1.72-.17,2.31-.8,1.8-1.93,2.78-4.13,1.9-7.33Zm-81.42,67.88c-.43-1.94-1.55-3.21-3.57-3.34-1.53-.1-2.77,.73-2.48,2.31,.34,1.87,1.8,3.01,3.75,3.13,1.35,.08,2.16-.72,2.3-2.11Zm41.87,6.5c-1.89,.53-3.93,1.43-4.48,3.88-.29,1.28,.96,1.75,2.03,1.77,2.73,.05,3.84-1.86,4.45-4.1,.33-1.21-.7-1.41-1.99-1.55Zm15.63-32.95c-.29-1.53-.96-3.15-2.74-3.38-1.61-.21-2.29,1.27-2.11,2.66,.22,1.71,.63,3.85,2.63,4.07,1.8,.19,2-1.72,2.22-3.35Zm-72.64-144.41c1.76-.47,2.91-1.58,2.66-3.44-.2-1.5-1.18-3.02-2.87-2.71-2.01,.37-1.83,2.41-1.91,3.96-.06,1.29,.55,2.27,2.12,2.19Zm12.64,189.13c1.82,.16,2.43-.82,2.41-2.13-.02-1.82-.31-3.68-2.58-4.04-1.73-.28-2.36,.93-2.48,2.4-.18,2.09,.93,3.29,2.65,3.77Zm424.75,57.61c1.31-.18,3.12-.02,3.01-1.77-.13-2.13-2.21-2.54-3.92-2.72-1.3-.13-2.89,.25-2.89,1.94,0,2.49,2.15,2.29,3.8,2.55Zm-30.84-160.53c2.14-1.24,3.34-3.38,3.85-5.93,.16-.79-.37-1.57-1.28-1.32-2.8,.77-4.01,2.87-4.25,5.62-.08,.94,.09,1.84,1.68,1.64Zm-360.79,1.55c-.4-1.6-1.02-3.14-3-3.22-1.6-.06-2.45,.92-2.3,2.53,.16,1.73,.82,3.3,2.82,3.31,1.46,.01,2.38-1,2.48-2.63Zm-11.43-85.58c-1.37,.28-2.11,1.21-1.94,2.53,.21,1.68,.9,3.32,2.85,3.5,1.69,.16,2.42-1.02,2.16-2.61-.27-1.74-1.18-3.03-3.07-3.42Zm155.38-253.15c-1.1,2.9-1.98,5.28-1.15,7.85,.31,.98,.78,2.28,1.91,2.19,1.32-.11,1.16-1.52,1.13-2.52-.07-2.36-.4-4.69-1.89-7.52Zm261.83,466.7c-1.52,.12-2.51,.8-2.24,2.24,.39,2.11,2.04,2.81,3.99,2.73,1.19-.05,2.76-.41,2.5-1.85-.39-2.19-2.45-2.7-4.25-3.12Zm-448.94-8.79c-1.8,.04-3.45,.51-3.79,2.39-.29,1.61,.97,2.29,2.47,2.37,1.98,.12,3.66-.6,3.97-2.63,.26-1.74-1.39-1.93-2.65-2.13Zm27.66-213.88c1.4-.2,2.41-.9,2.08-2.33-.44-1.94-1.44-3.79-3.69-3.83-1.4-.03-1.71,1.47-1.64,2.69,.13,2.01,1.14,3.31,3.24,3.48Zm-49.84,62.43c-1.77,.18-2.73,1.08-2.63,2.88,.1,1.73,1.07,2.79,2.81,2.74,1.74-.05,2.72-1.24,2.71-2.89,0-1.76-1.32-2.48-2.89-2.74Zm98.61,84.91c-1.52,.48-3.24,1.2-3.27,3.3-.02,1.47,1.11,2.37,2.64,2.31,2.11-.08,2.53-1.59,2.6-3.34,.05-1.26,.03-2.41-1.97-2.26Zm-62.87-14.87c-.62-1.72-1.68-3.1-3.62-3.4-1.37-.22-2.39,.52-2.48,1.91-.16,2.31,1.62,2.99,3.4,3.34,1.28,.25,2.27-.43,2.7-1.84Zm115.25-20.68c.74-4.56,.7-7.92-1.32-12.32-1.72,4.87-1.73,8.21,1.32,12.32Zm295.63,94.31c1.72-.29,3.62-.64,3.96-2.81,.26-1.72-1.21-1.84-2.41-1.71-1.77,.19-3.77,.41-4.05,2.68-.2,1.63,1.15,1.82,2.5,1.84Zm-443.81-88.79c-.4-1.83-1.54-3.14-3.42-3.49-1.85-.34-2.25,1.27-2.3,2.53-.11,2.55,2.13,2.36,3.74,2.72,1.22,.27,1.94-.38,1.98-1.76Zm84.26-51.19c-.19-1.49-.16-3.23-2.3-2.99-1.67,.18-2.44,1.35-2.44,3.07,0,1.7,.55,2.94,2.41,2.93,1.95-.01,2.22-1.52,2.33-3.01Zm-26.82-35.62c1.01-.18,1.94-.67,1.56-1.98-.54-1.82-1.28-3.84-3.41-4.11-1.53-.2-1.68,1.37-1.53,2.56,.24,1.89,1.1,3.32,3.38,3.53Zm14.84,57.04c-1.52,.01-2.21,.93-2.24,2.25-.04,2.07,.98,3.4,3.15,3.54,1.43,.09,2.27-.69,2.3-2.11,.05-2.17-1.4-3.11-3.21-3.67Zm-21.95,106.95c-1.62,.19-2.54,1.26-2.51,2.66,.04,1.79,1.51,2.49,3.12,2.47,1.52-.02,2.67-1.01,2.57-2.49-.12-1.72-1.77-2.17-3.18-2.64Zm-36.02,5.37c-.62-1.55-1.52-2.91-3.41-2.88-1.69,.03-2.19,1.32-2.11,2.77,.1,1.75,1.13,2.71,2.88,2.58,1.41-.11,2.49-.8,2.64-2.47Zm35.1-69.69c-.28-1.65-.99-3.1-2.97-3.12-1.66-.02-2.35,1.12-2.11,2.65,.27,1.75,1.2,3.03,3.19,2.94,1.46-.07,2.02-.99,1.89-2.46Zm68.11-45.47c-.15-1.49-.75-2.8-2.34-2.69-1.88,.14-2.8,1.66-2.78,3.41,.01,1.43,.89,2.55,2.55,2.35,1.76-.21,2.36-1.53,2.56-3.07Zm-96.68,18.95c-1.14,.51-2.85,.89-2.69,2.77,.14,1.77,1.67,2.4,3.23,2.48,1.33,.06,2.41-.6,2.25-2.12-.15-1.52-.57-3-2.79-3.13Zm24.31,78.27c-1.91,.14-3.08,1.45-3.61,3.2-.37,1.23,.61,1.98,1.78,1.85,1.9-.2,3.97-.54,4.26-2.94,.17-1.41-1.01-1.96-2.44-2.11ZM350.14,126.28c-.71,3.08-.38,5.01,.59,6.79,.55,1,1.48,2.16,2.8,1.57,1.72-.77,.58-1.94,.01-2.89-.93-1.57-1.93-3.09-3.41-5.46Zm-86.25,531.18c1.94-.14,2.88-1.36,3.22-3.11,.24-1.21-.31-2.22-1.58-2.09-1.79,.18-3.64,.77-3.88,2.95-.15,1.37,.88,2.09,2.24,2.25Zm391.91,27.31c-.88-1.95-2.74-2.39-4.66-2.62-1-.12-1.8,.31-1.61,1.49,.37,2.39,2.12,3.01,4.2,3.01,1.13,0,2.02-.41,2.07-1.88Zm-396.04-116.41c-.1-1.24-.7-2.24-2.14-2.12-1.64,.14-2.1,1.42-2.07,2.88,.02,1.18,.02,2.68,1.62,2.58,1.74-.11,2.15-1.77,2.59-3.33Zm73.82-403.56c-.38,2.78-.35,4.94,1.02,6.86,.51,.72,1.3,1.36,2.28,.98,1.14-.44,.86-1.4,.55-2.25-.71-1.91-1.24-3.95-3.85-5.59ZM200.96,443.73c.03-1.3-.32-2.38-1.86-2.42-1.7-.05-2.89,.93-3.17,2.47-.27,1.51,.87,2.59,2.28,2.67,1.66,.09,2.7-.93,2.75-2.73Zm81.26,269.28c.56-3.63,.2-6.42-.58-9.19-.16-.58-.46-1.08-1.16-1.08-.81,0-.97,.69-.97,1.21,0,2.99-.03,6.02,2.71,9.06Zm383.53-111.16c1.6-.56,3.2-1.39,3.42-3.43,.14-1.26-.78-2.02-1.98-1.61-1.68,.57-3.38,1.46-3.66,3.44-.18,1.27,.86,1.72,2.22,1.6Zm-486.51-123.74c-1.58,.12-2.4,1.02-2.44,2.53-.04,1.54,.82,2.55,2.35,2.53,1.47-.03,2.45-.96,2.44-2.52-.01-1.49-.75-2.46-2.35-2.54Zm419.41,126.86c.9-1.21,3.23-1.44,3.04-2.87-.28-2.13-2.72-1.75-4.32-2.23-.96-.29-1.89,.05-1.64,1.29,.33,1.66,1.45,2.82,2.91,3.81Zm-400.52,63.77c-.31-1.4-.97-2.66-2.76-2.64-1.45,.02-2.08,1.18-2.1,2.34-.02,1.69,1.15,2.65,2.81,2.69,1.39,.03,2.07-.86,2.05-2.39Zm394.77-100.42c-.13-1.2-.91-1.72-2.1-1.63-1.67,.12-3.47,.43-3.61,2.47-.08,1.18,.9,2.2,2.32,2.21,1.95,.01,2.88-1.23,3.39-3.05Zm80.97-9.27c-.14-.7-.06-1.93-.93-1.64-2.33,.77-3.67,2.75-4.53,4.93-.34,.87,.61,1.19,1.38,1.11,2.61-.3,3.67-2.06,4.07-4.4Zm-473.36,139.98c-.28-1.47-.75-2.78-2.5-2.66-1.91,.12-2.4,1.5-2.4,3.15,0,1.56,1,2.12,2.35,1.95,1.4-.18,2.63-.72,2.55-2.43Zm486.22-168.93c-.14-1.21-.41-2.49-1.89-2.46-1.85,.03-2.35,1.55-2.41,3.05-.06,1.38,.86,2.14,2.22,2.1,1.7-.05,2.14-1.2,2.08-2.69ZM495.49,164.41c2.71-2.58,3.73-5.94,4.56-9.39-2.3,2.74-4.47,5.55-4.56,9.39Zm116.21,442.82c.12-1.13-.35-1.88-1.46-1.73-2,.28-3.11,1.66-3.54,3.53-.24,1.04,.44,1.84,1.46,1.74,2.06-.21,2.87-1.87,3.54-3.54Zm2.1,134.74c1.3-.39,3.26-.31,3.13-2.27-.1-1.43-1.67-1.94-3.06-1.97-1.37-.02-2.83,.16-2.83,1.97,0,1.68,1.28,2.12,2.77,2.26Zm-382.52-44.02c1.95-.65,2.3-2.49,2.66-4.21,.16-.77-.48-1.51-1.38-1.2-1.75,.59-3.31,1.63-3.48,3.61-.1,1.13,.86,1.82,2.2,1.79Zm232.85-432.52c-.24-1.23-.6-2.64-2.09-2.35-1.95,.38-2.19,2.2-2.25,3.87-.04,1.27,.76,2.02,1.97,1.77,1.68-.35,2.32-1.67,2.37-3.3Zm208.59,227.29c1.69-.33,2.12-1.6,2.22-2.97,.11-1.48-.43-2.75-2.07-2.93-1.59-.18-2.05,1-1.99,2.32,.06,1.44-.05,3.06,1.84,3.59Zm-391.37,61.69c-1.83-.29-2.86,.03-2.84,1.05,.03,2.12,1.76,2.94,3.47,3.56,1,.36,1.93-.13,1.89-1.19-.08-2.04-1.4-3.16-2.51-3.42Zm-90.19,35.15c-.38-1.45-1.15-2.77-2.85-2.69-1.61,.08-1.98,1.5-1.98,2.89,0,1.55,.72,2.54,2.39,2.36,1.43-.15,2.47-.83,2.45-2.56Zm430.8,105.03c-.28-1.62-1.51-2.12-2.91-2.12-1.25,0-2.47,.5-2.46,2,.02,1.49,.81,2.6,2.49,2.47,1.41-.11,2.58-.7,2.87-2.35Zm-359.84,22.68c1.82-.3,3.21-1.18,3.34-3.32,.06-1.1-.15-2.28-1.58-1.99-1.65,.33-2.92,1.38-3.26,3.16-.21,1.1-.08,2.09,1.5,2.15ZM445.96,168.54c-1.6,2.64-3.97,5.14-1.82,8.85,2.52-2.78,2.31-5.79,1.82-8.85Zm-174.33,374c-1.41,.14-2.03,.96-1.87,2.09,.26,1.75,1.36,3.05,3.17,3.02,1.11-.02,1.59-1.24,1.42-2.35-.25-1.58-1.12-2.65-2.72-2.77Zm392.15,153.84c-.79,.25-2.56-.34-2.44,1.38,.14,1.89,1.85,2.45,3.59,2.45,1.17,0,2.78-.08,2.73-1.49-.08-2.06-1.99-2.18-3.88-2.34Zm-4.86-195.94c-1.97,1.88-4.44,3.14-4.76,6.04-.1,.86,.93,1.09,1.65,.73,2.66-1.34,3.62-3.56,3.11-6.77Zm-426.57,12.08c-.02-1.51-.66-2.8-2.45-2.95-1.28-.11-1.86,.88-1.82,2.04,.05,1.62,.68,2.93,2.53,3.1,1.45,.13,1.68-.89,1.75-2.18Zm4.34,172.3c1.55-.6,3.27-1.24,3.66-3.2,.21-1.07-.83-1.5-1.72-1.49-1.9,.01-2.83,1.35-3.35,2.95-.32,1,.16,1.68,1.41,1.75Zm362.85-145.89c-3.4,.7-4.5,2.66-5.36,4.83-.23,.58,0,1.39,.64,1.39,2.63-.02,2.99-2.39,3.96-4.1,.21-.36,.29-.8,.76-2.12ZM467.61,175.33c1.35-3.23,1.41-4.47,.38-7.82-2.54,3.24-2.6,4.31-.38,7.82Zm-236.66,403.95c1.53-.11,1.88-1.18,1.96-2.43,.09-1.35-.44-2.35-1.87-2.45-1.32-.09-2.29,.57-2.3,2.01-.01,1.47,.78,2.44,2.2,2.87Zm33.35,148.84c-1.83,.42-1.93,1.97-2.09,3.4-.14,1.23,.5,2.02,1.79,1.83,1.5-.22,2.27-1.25,2.26-2.75-.01-1.27-.52-2.26-1.96-2.48Zm-14.99-44.28c-.07-1.21-.74-1.66-1.75-1.45-1.86,.39-3.18,1.45-3.4,3.43-.11,.97,.8,1.12,1.5,1.09,2.02-.09,3.09-1.34,3.65-3.06ZM500.8,238.75c-4.4,2.78-5.21,4.18-4.77,7.9,2.27-2.19,3.53-4.67,4.77-7.9Zm-9.96-25.74c-1.35,2.39-2.94,4.38-2.05,7.2,.07,.23,.91,.51,1.03,.39,1.84-1.82,1.53-4.27,1.8-6.54,.02-.19-.29-.41-.78-1.06ZM190.93,512.57c-.04-1.38-.78-2.38-2.04-2.49-1.56-.14-2.43,1-2.54,2.46-.08,1.11,.57,2.05,1.73,2.2,1.57,.2,2.38-.82,2.84-2.17ZM406.94,192.78c-1.06,2.24-.97,4.29,.56,6.19,.41,.51,1.18,.47,1.56-.08,1.56-2.27-.35-3.85-1.23-5.62-.09-.19-.44-.26-.89-.5Zm11.09-15.73c-.83,1.07-1.2,1.37-1.32,1.74-.61,1.8-1.39,3.63-.16,5.45,.16,.23,.95,.38,1.09,.22,1.41-1.48,.53-3.33,.7-5.02,.05-.52-.13-1.07-.31-2.4Zm238.16,366.96c-2.65,1.02-3.28,3.09-2.98,5.63,.08,.66,.68,1.09,1.27,.7,1.91-1.28,2.43-3.22,2.22-5.41-.02-.26-.27-.5-.51-.91Zm-371.26,27.09c-.07-1.03,.4-2.63-1.16-2.35-1.55,.28-2.16,1.93-2.34,3.47-.12,1.01-.28,2.46,1.12,2.46,2.35,0,1.83-2.25,2.38-3.58Zm-8.86,29.05c-.44-1.5-1.03-3.26-3.02-3.71-.71-.16-1.33,.75-1.15,1.56,.39,1.74,.81,3.6,3.02,3.86,.86,.1,1.27-.59,1.16-1.72Zm-14.57-4.56c-.43-1.11-.88-2.47-2.49-2.47-1.23,0-1.76,.95-1.63,2.1,.16,1.43,.92,2.54,2.45,2.58,1.21,.03,1.75-.86,1.67-2.22Zm-15.5,103.55c2.43-.93,4.04-2.19,3.97-4.76,0-.24-.68-.73-.84-.66-2.13,.93-3.51,2.39-3.13,5.42Zm385.43-3.84c-.3-1.06-.99-1.97-2.26-2.27-1.27-.3-2.01,.34-2.17,1.58-.21,1.62,.62,2.63,2.18,2.75,1.16,.09,1.88-.73,2.25-2.06ZM359.03,202.5c-.55-3.1-.53-5.74-2.97-7.94-.91,3.41-.78,5.99,2.97,7.94Zm-120.16,338.99c.59,.91-.12,2.85,1.51,3.16,1.69,.32,1.52-1.45,1.58-2.5,.08-1.3,.04-2.95-1.6-3.17-1.42-.19-1.2,1.33-1.49,2.51Zm391.47,69.09c-.21-.69-.51-1.47-1.59-1.62-1.61-.23-2.62,.54-2.95,2.03-.21,.97,.3,1.84,1.37,1.88,1.45,.06,2.58-.59,3.17-2.3Zm-358.9-4.57c-.55-1.25-1.31-2.38-2.76-2.49-1.7-.12-1.69,1.32-1.71,2.43-.03,1.7,1.01,2.28,2.59,1.99,1.06-.19,1.93-.63,1.87-1.94Zm371.31-117.82c1.45-.34,2.94-.92,3.13-2.86,.09-.93-.27-1.91-1.44-1.51-1.54,.53-2.85,1.52-3.2,3.25-.19,.92,.45,1.27,1.51,1.12Zm-374.15,149.66c0-1.19-.49-1.83-1.64-1.46-1.32,.42-2.52,1.16-2.65,2.7-.1,1.22,.66,2.03,1.9,1.97,2.03-.11,1.92-1.94,2.39-3.2Zm-46.92-118.55c-.1-1.38-.64-2.64-2.17-2.93-1.35-.26-1.84,.8-1.83,1.93,.02,1.46,.69,2.67,2.2,2.98,1.42,.29,1.73-.77,1.8-1.98Zm54.64,58.6c-.2-1.21-.81-2.21-2.24-2.24-1.73-.04-1.76,1.28-1.67,2.51,.09,1.23,.39,2.5,2,2.38,1.46-.11,1.91-1.22,1.91-2.64ZM425.67,113.63c-1.34-.14-1.73,.74-2.19,1.46-.84,1.33-1.09,2.74-.2,4.13,.29,.45,.74,1.07,1.4,.6,1.28-.92,.82-2.39,.97-3.64,.09-.72,.02-1.45,.02-2.55Z"/>
  <path d="M375.97,754.6c51.12,4.09,99.86-7.36,148.38-22.25-.81,2.11-2.47,2.21-3.76,2.71-6.39,2.46-12.7,5.32-19.31,6.97-3.19,.8-2.75,3.43-4.44,4.74-1.44-2.57-3.53-2.29-5.95-1.59-12.46,3.65-25.14,6.36-37.95,8.38-9.86,1.55-19.77,2.82-29.69,4-2.66,.32-4.43,.46-2.94,3.81,.47,1.07,1.1,2.95-.81,3.36-1.81,.38-1.72-1.59-2.32-2.7-.64-1.17,.6-3.41-1.7-3.55-2.36-.15-4.87-.3-7.09,.34-1.63,.47-.18,2.29-.13,3.51,.08,1.73,.85,4.13-1.55,4.41-2.34,.27-2.21-2.2-2.6-3.92-.35-1.56,1.23-4.63-2.23-4.06-2.38,.4-6.9-2.46-6.58,3.43,.05,.95-.44,1.88-1.45,1.95-1.32,.1-1.94-1.14-1.88-2.08,.22-3.55-1.88-3.77-4.65-4.04-3.87-.37-7.91-.49-11.36-3.41Z"/>
  <path d="M373.23,628.38c51.64-.64,102.81-5.4,153.47-15.64-3.14,3.13-7.53,2.96-11.18,4.56,0,.3-.07,.61,.01,.86,.59,1.74,2.46,4.36,.19,5.03-2.54,.76-2.3-2.31-2.2-4.1,.08-1.49-.7-1.46-1.6-1.27-2.62,.54-5.23,1.18-7.84,1.78-1.31,.3-.93,1.15-.77,2.06,.21,1.17,.28,2.36,.31,3.55,.03,.94-.24,1.91-1.33,2.01-1.17,.11-1.58-.9-1.46-1.79,.8-6.24-2.95-4.76-6.56-4.08-36.62,6.91-73.58,9.79-110.82,9.23-3.44-.05-7.02,.26-10.22-2.21Z"/>
  <path d="M366.8,691.63c46.24,7.52,92.19,7.96,138.22-5.45-2.17,3.07-2.71,3.51-7.49,5.11-12.2,4.08-24.77,6.48-37.54,7.75-27.25,2.72-54.44,2.69-81.46-2.44-6.97-1.32-9-2.06-11.72-4.96Z"/>
  <path d="M387.63,568.54c1.99,0,3.98,0,5.97,0,15.8-.08,31.61,.03,47.38-1.32,3.22-.28,5.36-.64,2.99-4.42-.23-.36-.32-.84-.38-1.28-.2-1.6-.84-3.74,1.22-4.2,1.89-.41,1.83,1.87,2.47,3.13,.96,1.88-.36,5.02,1.47,5.72,1.98,.77,4.64-.18,7-.44,.87-.1,1.72-.36,2.79-.6-.78-2.2-1.61-4.19-2.19-6.25-.31-1.11-.55-2.63,.81-3.17,1.68-.67,2.32,.99,2.93,2.06,1.22,2.12,1.11,4.53,.98,7.29,3.65-.59,7.14-1.15,10.89-1.76-.72-2.95-1.41-5.61-2-8.29-.22-.98-.59-2.24,.72-2.71,1.43-.52,2.17,.57,2.73,1.67,.97,1.92,1.34,4.01,.95,6.09-.47,2.46,.46,2.73,2.59,2.37,6.64-1.12,13.01-3.23,19.49-4.94,1.15-.3,2.31-.61,3.47-.86,1.01-.21,2.28-.59,2.73,.68,.54,1.53-.81,2.01-1.93,2.44-6.97,2.72-14.26,4.37-21.56,5.78-27.36,5.27-55.01,6.66-82.81,5.65-2.94-.11-5.92-.22-8.73-1.22,.02-.47,.03-.94,.05-1.41Z"/>
  <path d="M406.54,513.29c26.56-.21,52.73,1.16,78.46-7.15-.71,4.37-3.57,4.53-5.82,5.14-14.31,3.88-28.95,5.27-43.71,5.55-8.03,.16-16.08,.44-24.05-.85-1.51-.24-3.32-.02-4.88-2.69Z"/>
  <path d="M338.49,262.62c-2.05,.54-4.03,1.02-5.99,1.59-2.55,.74-4.19,2.32-4.17,5.11,.02,2.86,1.53,4.8,4.17,5.75,4.08,1.47,7.95,.49,11.64-1.4,1.18-.6,2.14-1.82,3.12,.26,5.94,12.67,5.37,31.16-4.57,41.22-14.1,14.26-36.19,10.83-46.67-7.18-9.4-16.16-3.81-40.22,11.76-50.67,10.88-7.3,24.42-5.07,30.72,5.32Z"/>
  <path d="M574.19,254.69c-2.54,.78-4.89,1.24-7.01,2.22-2.9,1.34-4.21,3.85-3.29,7,.92,3.17,3.5,3.85,6.42,3.35,1.75-.3,3.59-.61,5.14-1.41,3.27-1.69,3.91-.28,4.41,2.75,2,12.15,.34,23.51-7.1,33.56-10,13.49-28.76,13.63-39.17,.46-12.77-16.15-9.1-42.37,7.58-54.22,11.28-8.01,24.75-5.57,33.02,6.3Z"/>
  <path d="M268.18,351.46c2.11,.51,4.07,1.36,4.08,3.9,0,2.14-1.15,3.79-3.49,3.78-2.35,0-4-1.31-4.07-3.78-.06-2.19,1.19-3.57,3.48-3.9Z"/>
  <path d="M599.4,339.2c.38-2.18,1.31-3.78,3.78-3.56,2.26,.2,3.54,1.56,3.5,3.83-.04,2.29-1.31,3.67-3.68,3.47-2.21-.18-3.46-1.52-3.6-3.75Z"/>
</svg>