<?xml version="1.0" encoding="UTF-8"?>
<svg id="Layer_1" data-name="Layer 1" xmlns="http://www.w3.org/2000/svg" viewBox="0 0 864 864">
  <path d="M579.51,861.33c.17-.13,.32-.27,.46-.42,1.04-1.1,1.48-2.62,1.88-4.08,6.67-24.42,8.97-49.73,14.63-74.37,5.72-24.9,13.23-48.82,15.22-74.51,1.35-17.41-.66-34.73-1.2-52.08-.63-20.31-1.09-40.65-3.65-60.84-1.65-12.98-5.8-24.98-16.96-32.92-3.83-2.72-5.71-5.76-6.18-10.12-.15-1.38-.49-2.75-.78-4.11-6.42-30.22-16.14-59.55-24.25-89.32-6.32-23.21-12.66-46.4-14.24-70.57-.55-8.39,.5-16.6,2.53-24.97-1.1,.11-1.57,.08-1.98,.22-2.36,.78-4.71,1.57-7.05,2.4-20.83,7.34-42.11,13.1-64.06,15.6-30.02,3.43-60.16,2.79-90.16-.25-30.37-3.09-58.47-12.31-81.55-33.63-17.36-16.02-30.36-35.14-41.04-55.99-4.93-9.63-8.57-19.78-11.73-30.13,2.11,3.45,3.89,7.04,5.54,10.69,7.05,15.6,15.47,30.37,25.6,44.21,20.5,28.02,46.85,46.99,81.31,54.1,13.84,2.85,27.62,5.8,41.75,6.77,25.6,1.75,51.2,2.39,76.62-1.81,46.81-7.75,90.98-23.24,132.27-46.62,29.03-16.44,56.16-35.48,78.39-60.72,17.22-19.55,27.83-41.89,26.39-68.54-1.04-19.13-6.62-37.24-15.27-54.29-16.48-32.5-41.46-53.32-78.98-56.42-2.61-.22-3.67-1.69-4.74-3.74-8.75-16.69-20.99-30.73-34.48-43.6-15.53-14.81-33.8-25.62-53.48-34.1-10.97-4.73-22.3-7.7-34.32-7.1-10.12,.5-13.4,5.1-10.32,14.77,2.83,8.87,5.51,17.77,8.03,26.73,4.54,16.13,8.81,32.32,11.32,48.92,.52,3.44-.34,5.07-3.85,5.81-4.24,.88-8.41,2.17-12.52,3.57-2.72,.93-4.46,.61-6.26-1.89-9.06-12.61-20.68-22.64-33.01-31.87-8.5-6.36-10.01-5.78-11.17,4.97-1.8,16.69-1.09,33.43-.32,51.11-1.19-1.42-1.73-2.14-2.35-2.79-14.41-15.44-29.88-29.38-50.63-35.9-4.82-1.51-5.03-1.43-4.62,3.61,1.43,17.96,3.71,35.8,7.94,53.33,.75,3.1-.03,4.38-2.85,5.56-8.45,3.52-16.71,7.48-24.67,12-2.15,1.22-3.7,.99-5.44-.48-4.27-3.6-8.58-7.15-12.87-10.73-25.67-21.36-53.79-38.87-84.01-52.97-8.15-3.8-16.77-6.71-26.09-5.33-13.12,1.93-17.38,8.36-13.97,21.19,.75,2.84,1.77,5.62,2.9,8.33,2.39,5.72,4.97,11.37,7.42,17.06,14.28,33.16,25.15,67.37,31.81,102.9,.58,3.08-.26,4.01-3.04,3.89-4.8-.21-9.61-.36-14.4-.72-5.89-.45-11.77-.81-17.62,.32-3.42,.66-4.17,1.87-1.69,4.89,7.5,9.08,8.22,19.65,2.16,29.78-4.07,6.81-8.93,13.06-14.22,18.97-4.62,5.17-4.64,5.1,2.29,7.07,7.75,2.2,15.67,3.89,23.11,7.1,8.85,3.81,13.9,10.17,13.41,20.19-.23,4.8-.24,9.63-.77,14.4-1.44,12.97-4.6,25.62-7.49,38.32-.33,1.45-1.54,3.28-.31,4.37,1.5,1.32,3.12-.45,4.66-.99,.72-.25,1.37-.72,2.07-1.05,12.92-6.08,25.95-11.78,40.06-14.73,6.78-1.42,11.85,.47,16.19,5.41,5.4,6.14,8.85,13.44,12.24,20.76,5.75,12.4,10.01,25.38,14.8,38.16,.52,1.38,.61,3.57,2.46,3.53,1.92-.04,1.95-2.26,2.13-3.66,2.28-17.97,13.6-31.29,23.24-45.48,2.7-3.98,6.14-4.89,10.84-4.06,32.03,5.63,64.21,5.69,96.46,2.18,7.42-.81,7.15-.84,7.59,6.51,.27,4.6-.85,7.52-4.91,10.31-6.22,4.27-9.4,10.96-10.93,18.35-.62,2.96-.25,4.92,3.54,4.31,1.11-.18,2.51-.51,3.15,1.12,1.42,3.65-1.62,10.39-5.43,11.58-5.93,1.86-9.46,5.61-10.2,11.9-.42,3.53,.34,5.77,4.51,5.69,1.48-.03,3.47-.53,3.81,2.18,.86,6.99-1.45,9.88-8.49,10.21-.93,.04-1.87,.05-2.79,.17-6.01,.79-8.67,3.73-9.27,9.75-.26,2.58,.6,3.58,3.17,3.93,5.78,.79,5.64,.92,4.1,6.33-.82,2.88-2.14,4.15-5.25,3.71-3.85-.55-7.72-.45-11.59,.22-3.57,.63-6.33,2.38-8.46,5.26-4.02,5.45-3.62,6.49,2.88,7.78,1.38,.27,3.36-.27,3.76,1.85,.57,3.02-4.06,8.15-7.14,7.97-4.65-.28-9.29-.66-13.93-.93-5.83-.34-10.25,2.4-12.28,7.36-.8,1.96-.62,3.18,1.65,3.82,3.13,.88,6.22,1.95,9.32,2.93,1.05,.33,1.99,.47,1.47,2.16-1.68,5.44-5.79,8.25-11.69,8.01-5.86-.24-11.78-1.47-17.57,.39-3.17,1.02-5.63,3.26-5.62,6.68,0,3.27,3.53,2.06,5.35,3.1,1.22,.7,3.4,.07,3.54,2.25,.23,3.44-6.65,10.42-10.21,10.47-5.89,.08-11.79-.44-17.63,.83-5.64,1.23-9.28,4.69-11.39,9.95-1.25,3.12-.92,5.09,3.12,5.04,2.63-.03,5.26,.28,7.89,.5,9.34,.79,9.08,.67,4.68,9.1-2.39,4.59-5.47,6.81-10.63,7.55-7.5,1.07-14.85,3.11-21.97,5.9-7.53,2.96-11.26,8.89-13.34,16.22-.91,3.22-.29,5.03,3.72,4.41,4.59-.71,9.25-1.01,13.88-1.51,2.82-.31,3.48,.68,2.72,3.48-2.42,8.94-5.67,16.99-16.38,18.54-.3,.04-.59,.2-.87,.32-8.36,3.42-12.72,10.01-14.79,18.48-.68,2.8-.09,4.16,3.11,3.62,2.9-.48,5.85-.7,8.77-1.09,1.98-.26,2.87,.34,2.6,2.52-.6,4.82-1.49,8.91-6.3,12.05-8.05,5.25-14.59,12.16-15.58,22.56-.23,2.47-.9,5.66,.95,7.08,1.92,1.48,4.25-1.06,6.09-2.2,3.58-2.24,4.88-1.62,5.41,2.66,3.71,29.84,13.53,57.51,29.45,83.08,21.85,35.09,52.68,58.09,93.04,66.72,34.52,7.38,69.6,7.75,104.69,3.36,5.21-.65,10.39-2.55,15.64-1.73,6.07,.94,27.9,6.19,33.5,1.91Zm-60.03-575.48c-1.79-.67-3.73-1.26-5.15,.44-1.53,1.81-.7,3.69,.38,5.55,1.68,2.9,4.79,4.1,7.34,6.22-4.52,1.51-8.03,.19-10.34-3.67-1.96-3.28-1.6-8.2,.99-10.28,3.31-2.66,6.7-1.69,9.86,.38,3.28,2.15,5.53,5.12,6.45,9.06-2.78-3.11-5.51-6.19-9.52-7.7Zm-5.76-203.61c2.37,.34,3.56,1.82,3.72,4.07,.14,2.01-.42,4.03-2.79,4.02-2.31-.01-2.82-2.11-2.95-4.04-.11-1.68-.31-3.51,2.02-4.05Zm-3.75-25.51c-.09-1.77,.67-2.97,2.64-3.16,1.86,.37,3,1.47,3.04,3.45,.04,1.86-.92,2.99-2.83,2.81-1.75-.16-2.77-1.32-2.85-3.09Zm11.35,73.55c.05-1.6,.99-2.55,2.59-2.62,1.55-.07,2.22,.91,2.09,2.34-.14,1.5-.9,2.56-2.53,2.71-1.56-.1-2.18-1.06-2.14-2.44Zm.47,111.28c-.43,1.66-1.31,2.92-3.09,2.87-1.94-.05-2.57-1.5-2.42-3.18,.16-1.79,1.33-2.75,3.13-2.52,1.55,.2,2.32,1.3,2.39,2.82Zm-2.35-138.39c.34-1.43,1.3-2.48,2.92-2.28,1.48,.18,1.91,1.28,1.78,2.69-.3,1.45-1.15,2.57-2.7,2.49-1.65-.09-2.37-1.32-1.99-2.89Zm2.75-28.7c-2.14-.17-3.25-1.78-3.39-3.81-.13-1.97,.88-3.22,3.05-3.35,2.28,.37,3.54,1.84,3.61,4.1,.06,2.05-1.31,3.23-3.27,3.07Zm-3.23,34.9c1.52-.18,2.29,.65,2.1,2.16-.2,1.58-.81,2.92-2.61,3.21-1.64-.32-2.42-1.4-2.3-2.91,.12-1.59,1.37-2.3,2.81-2.47Zm-4.75,46.08c1.41,.1,2.22,.78,2.1,2.01-.13,1.43-.87,2.67-2.48,2.75-1.21,.06-2-.78-1.96-2,.05-1.53,1-2.43,2.33-2.76Zm15.87,54.96c-1.53,.31-2.3-.78-2.46-2.11-.24-2.06,1.17-2.97,2.54-3.63,1.74,.06,2.76,.84,2.86,2.18,.14,1.95-1.1,3.19-2.94,3.56Zm-.77-125.43c-.12-1.79,1.01-2.83,2.82-3.11,2.12,.22,3.53,1.34,3.57,3.51,.03,1.59-.58,3.25-2.53,3.34-2.44,.11-3.7-1.47-3.86-3.74Zm1.9,35.2c-.05-1.97,.85-3.26,2.88-3.41,1.64-.12,2.52,.83,2.75,2.48-.26,1.8-1.08,3.23-3.06,3.43-1.7,.18-2.52-.86-2.57-2.5Zm4.91,68.5c-1.68,.1-2.69-.94-2.54-2.55,.14-1.5,1.23-2.52,2.81-2.59,1.51-.06,2.13,.97,2.33,2.34-.28,1.48-.95,2.7-2.59,2.79Zm21.57,91.24c.05-4.43,.12-7.71-1.88-10.52-1.38-1.93-2.94-3.81-5.6-3.44-2.87,.4-4.06,2.74-4.6,5.21-.73,3.35-.31,6.76,.19,10.14,.15,1.04,.28,2.08,.06,3.14-2.62-5.79-3.29-11.66,.04-17.42,1.6-2.77,4.25-3.98,7.5-3.47,4.14,.65,5.92,3.66,6.83,7.28,.73,2.92,.35,5.72-2.54,9.08Zm-6.92-147.5c2.39,.05,5.57,3.91,5.4,6.25-.11,1.51-1.09,1.79-2.22,1.51-2.9-.71-4.89-2.68-5.64-5.45-.46-1.69,1.16-2.23,2.47-2.31Zm7.22-4.22c-1.98-.3-3.42-1.36-3.33-3.58,.07-1.83,1.32-2.81,3.12-2.58,1.97,.26,3.63,1.21,3.49,3.52-.11,1.81-1.4,2.63-3.28,2.64Zm63.47,159.47c-2.61-1.47-3.95-1.31-5.88,1.33-11.31,15.47-26.76,25.58-44.09,33.11-1.41,.61-2.94,.99-4.44,1.35-1.13,.27-2.3,.33-3.56,.12,9.18-3.3,17.07-8.71,25.04-14.01,8.61-5.73,15.95-12.79,22.17-21.03,2.41-3.19,4.95-6.31,3.44-10.87-.45-1.37-.25-3.63,1.7-3.74,2.78-.16,1.33,2.19,1.33,3.44,0,4.67,3.03,6.82,6.73,8.51,1.37,.62,3.13,.15,4.52,1.8-2.53,2.62-4.93,1.13-6.95,0Zm-7.82-202.41c.79,1.42,1.99,3.32-.13,4.36-1.86,.91-2.64-1.06-3.25-2.41-1.88-4.15-3.65-8.34-5.46-12.52,3.86,2.89,6.6,6.55,8.84,10.56Zm-9.08-2.76c.53,1.21,.88,2.43-.56,3.17-1.28,.66-2.06-.38-2.55-1.3-1.35-2.51-2.56-5.08-2.65-8.18,1.48,2.57,4.58,3.59,5.77,6.31Zm-11.74-11.73c.91,3.65,1.93,7.27,2.65,10.95,.24,1.24,.18,3.11-1.61,3.28-1.65,.16-1.66-1.56-1.74-2.7-.26-3.76-.39-7.54-.56-11.31,.42-.07,.85-.15,1.27-.22Zm-3.08,24.11c1.21-.04,2.1,.78,2.1,2.02,0,1.77-1.06,2.8-2.68,3.16-1.62-.03-2.46-.94-2.43-2.31,.04-1.8,1.26-2.81,3.01-2.87Zm-9.23-30.77c2.14-.08,3.29,1.31,3.76,3.13-.06,1.77-.73,2.99-2.39,3.01-2.27,.02-3.84-1.19-4.02-3.53-.13-1.66,1.18-2.55,2.64-2.61Zm-10.76-14.54c2.49,.19,3.95,1.53,4.23,4-.38,1.98-1.37,3.27-3.47,2.95-2.3-.35-4.25-1.48-4.22-4.1,.02-1.99,1.43-3.01,3.46-2.85Zm-4.69,32.4c.28-2.59,1.6-4.84,4.76-4.61,3.29,.24,4.25,2.58,4.48,5.22-.65,2.94-1.86,5.01-5.03,4.53-2.83-.43-4.53-2.29-4.22-5.15Zm10.77,55.34c14.9-22.63,41.07-31.89,66.76-23.49,32.98,10.78,55.09,48.5,48.29,82.39-5.37,26.78-31.57,49.44-58.89,50.94-22.48,1.24-41.72-5.55-55.84-23.65-9.43-12.09-12.56-26.43-12.69-41.53,.4-15.91,3.43-31.08,12.37-44.66Zm-12.4-68.36c.1,2.38-1.17,4.06-3.96,4.24-2.52-.6-4.47-2.03-4.33-4.91,.11-2.39,1.61-4.05,4.17-3.96,2.83,.1,4.01,2.2,4.12,4.63Zm-7.59-34.69c1.4,.09,2.66,.73,2.68,2.56-.37,1.81-1.66,2.99-3.38,3.15-1.83,.17-2.04-1.55-2.09-2.91-.06-1.82,1-2.92,2.8-2.81Zm-3,47.42c-.17,2.09-1.49,3.3-3.66,3.52-2.31-.54-3.41-2.22-3.33-4.37,.08-2.05,1.4-3.55,3.64-3.34,2.38,.22,3.54,1.88,3.35,4.19Zm-4.44-33.49c2.35,.16,4.06,1.54,4.01,4.17-.04,2.22-1.4,3.28-3.7,3.4-2.29-.23-4.03-1.41-4.13-3.95-.09-2.41,1.55-3.77,3.82-3.62Zm-.93,43.77c2.06-.09,2.99,1.24,3.2,3.1-.23,1.82-.51,3.67-2.8,3.54-1.84-.1-3.2-1.22-3.3-3.21-.1-1.94,.84-3.34,2.9-3.43Zm-2.45,11.74c1.69-.21,2.48,.84,2.92,2.15-.04,1.54-.67,2.57-2.09,2.73-1.66,.19-2.58-.88-2.85-2.38-.27-1.48,.59-2.32,2.02-2.5Zm-3.01-33.32c.09,2.32-1.17,4.02-3.45,4.07-2.88,.07-4.48-1.81-4.59-4.66-.09-2.42,1.46-3.55,3.84-3.87,2.52,.32,4.09,1.77,4.2,4.46Zm-5.35-35.37c2.19,.22,3.81,1.28,4.01,3.6,.18,2.15-1.11,3.57-3.21,3.71-2.47,.16-4.13-1.18-4.29-3.73-.14-2.28,1.5-3.14,3.49-3.58Zm-7.58,16.23c2.66,.31,4.17,2.07,4.09,4.74-.08,2.37-1.7,3.48-4.04,3.71-2.61-.74-4.38-2.36-4.26-5.23,.11-2.49,1.96-3.48,4.2-3.22Zm-5.12-26.48c1.55-.23,2.09,.93,2.4,2.22-.15,1.47-1.1,2.13-2.45,2.2-1.27,.06-2.02-.68-2.1-1.92-.09-1.47,.84-2.3,2.16-2.49Zm-5.56,12.78c2.13,.34,3.72,1.37,3.77,3.77,.04,2.08-1.32,3.05-3.25,3.03-2.15-.03-3.4-1.32-3.58-3.42-.18-2.08,1.16-2.98,3.07-3.38Zm-5.64-13.42c1.66,.05,3.14,.71,2.89,2.73-.2,1.68-1.64,2.02-3.06,2.13-1.47-.3-2.76-.8-2.68-2.58,.08-1.77,1.38-2.33,2.85-2.28Zm-6.2,162.93c.14-1.68,.95-2.88,2.75-3.13,1.36,.25,2.5,.91,2.41,2.34-.12,1.84-1.17,3.25-3.17,3.31-1.53,.04-2.11-1.13-1.99-2.52Zm-1.09,27.93c.14-1.44,.92-2.71,2.43-2.97,1.48-.25,2.13,.84,2.41,2.1-.32,1.75-1.2,2.94-2.98,2.99-1.27,.03-1.97-.94-1.86-2.12Zm-217.24,6.82c-.16,3.2-1.77,5.93-5.32,5.69-3.57-.24-5.33-3.01-5.29-6.43,.04-3.32,1.96-5.35,5.16-5.68,4.06,.5,5.62,2.96,5.45,6.41Zm-24.34,.72c-.05-2.19,.89-4.19,3.31-4.19,2.81,0,3.77,2.22,4.12,4.74-.14,2.15-.89,4.16-3.36,4.12-2.74-.05-4.02-2.09-4.08-4.67Zm3.64,22.84c-.19,.43-1.05,1-1.36,.88-2.09-.81-1.88-2.84-2.19-4.58-.17-.99-.28-2-.41-2.98,1.69-.28,2.25,.73,2.79,1.6,.97,1.54,2.01,3.15,1.16,5.07Zm5.72-7.47c2.62,.34,3.93,1.8,4.08,4.27,.13,2.17-1.01,3.76-3.11,3.8-2.35,.04-4.11-1.37-4.32-3.89-.2-2.37,1.26-3.61,3.35-4.18Zm-.64-31.66c-4.65-.01-7.94-3.31-7.89-7.89,.05-4.7,4.08-9.02,8.32-8.92,4.05,.09,7.69,4.06,7.72,8.4,.03,4.52-3.75,8.42-8.15,8.41Zm8.33-23.44c-3.8,.06-7.27-3.31-7.21-7.01,.06-4.26,3.66-7.94,7.64-7.82,3.88,.12,6.97,3.36,6.95,7.29-.02,3.96-3.46,7.47-7.38,7.54Zm15.19,22.43c-4.21-.06-7.23-3.53-7.06-8.09,.16-4.32,3.62-7.8,7.65-7.7,4.3,.1,7.54,3.53,7.41,7.84-.13,4.46-3.71,8.01-8,7.95Zm10,92.4c-2.12-.75-4.17-1.72-4.32-4.25-.1-1.76,1.17-2.99,2.96-2.85,2.58,.2,3.67,2.16,3.91,4.46,.16,1.58-.86,2.54-2.54,2.65Zm194.95,50.07c-13.57,4.01-26.95,3.96-39.86-1.88-2.45-1.11-3.69-1.16-5.26,1.05-1.34,1.88-3.23,3.34-5.33,4.39-.83,.42-1.92,.78-2.57-.06-.76-.98,.33-1.64,.89-2.29,.61-.7,1.32-1.31,1.97-1.97,3.75-3.76,6.33-8,5.79-13.6-.13-1.38-.31-3.07,1.76-3.04,1.67,.02,2.36,1.39,2.43,2.89,.06,1.38,.24,2.95-.31,4.12-1.85,3.96,.62,5.32,3.57,6.4,10.31,3.8,20.91,5.53,31.9,4.42,1.67-.17,3.35-.3,5.02-.45Zm-30.99-228.25c.15-1.46,1.06-2.62,2.69-2.73,1.62-.1,2.78,.64,2.75,2.38-.03,1.83-1.36,2.62-2.78,3.12-1.77-.27-2.84-1.14-2.66-2.77Zm13.38,104.53c-.06-1.78,1.11-2.8,2.84-2.87,1.58-.07,2.48,.87,2.68,2.21-.16,1.97-.96,3.17-2.81,3.15-1.54-.02-2.66-.93-2.71-2.49Zm6.79-106.23c1.96-.28,3.97,.73,3.82,3.01-.19,2.99-1.99,5.32-5.04,5.83-2.25,.38-2.6-1.65-2.82-3.64,.21-2.45,1.14-4.78,4.04-5.2Zm-3.06,15.82c1.92-.13,2.83,1.07,2.65,2.92-.18,1.97-1.46,2.95-3.39,3.22-1.65-.17-2.5-1.23-2.42-2.78,.1-1.89,1.21-3.23,3.16-3.36Zm-2.89,68.74c-.07,1.57-.89,2.58-2.44,2.85-1.52,.26-2.39-.65-2.46-2.03-.07-1.52,.7-2.68,2.35-2.86,1.44-.15,2.32,.55,2.54,2.04Zm-1.82-30.63c.02,1.8-1.02,2.86-2.83,3.01-1.54,.13-2.28-.77-2.39-2.19-.14-1.93,1.03-2.75,2.68-3,1.52,.04,2.52,.71,2.54,2.18Zm-17.52-65.26c-2.13,.63-1.44-1.3-.84-2.35,2.68-4.67,10.38-5.06,14.31-.62-4.23,2.28-9.06,1.67-13.47,2.97Zm-1.06,29.57c-1.96,.04-2.6-1.44-2.5-3.18,.1-1.79,1.11-2.81,2.92-2.94,1.69,.28,2.47,1.28,2.32,2.92-.15,1.68-.87,3.16-2.73,3.19Zm.06,14.47c-1.83,.03-2.63-.92-2.67-2.5-.04-1.55,.75-2.66,2.3-2.91,1.62-.26,2.64,.59,2.77,2.21,.15,1.78-.85,2.79-2.41,3.2Zm9.17-54.47c-3.18,.51-6.35,1.13-9.54,1.5-3.81,.45-5.26,2.52-3.79,5.94,1.84,4.26-.07,6.03-3.72,7.6-3.1,1.33-5.9,3.36-8.84,5.07-1.05,.61-2.29,1.58-3.18,.04-.66-1.14-.28-2.54,.85-3.31,2.3-1.56,4.56-3.32,7.1-4.33,3.86-1.52,4.81-3.88,3.45-7.58-1.16-3.13-.25-4.76,3.3-5.25,4.79-.66,9.5-2.13,14.36,.32Zm-24.72,55.37c-.3,1.66-1.43,2.69-3.12,2.95-1.4-.12-2-.92-1.83-2.19,.23-1.7,1.27-2.94,2.95-3.17,1.58-.21,2.25,1,1.99,2.4Zm22.81-61.16c-.04,.5-.07,1-.11,1.51-2.67,0-5.34,.02-8.01-.01-.56,0-1.27,.09-1.4-.77-.15-.99,.53-1.39,1.28-1.53,2.84-.53,5.61-.34,8.24,.81Zm-26.53-16.98c.42-1.81,2.5-1.99,3.75-1.24,1.82,1.09,.02,1.82-.7,2.69-2.12,2.57-1.95,5.73-2.05,8.81-.07,2.06,.32,4.26-2.42,6.49-.96-6.31,.21-11.55,1.41-16.75Zm.79,29.04c2.95-1.15,2.97-3.25,3-5.9,.06-4.29-1.15-8.49-.21-12.89,1.41-6.64,6.68-8.75,12.9-4.31-2.93,1.47-5.8,1.25-8.61,.92-2.26-.26-3.23,.53-3.1,2.75,.14,2.39,1.74,1.43,3.04,1.37,3.08-.14,6.17-.21,9.26-.22,1.07,0,2.54,.13,2.62,1.38,.09,1.56-1.5,1.07-2.47,1.24-.3,.05-.62,.04-.92,.07-9.85,.71-10.03,.9-9.59,10.57,.33,7.2-.49,8.13-8.85,9.76-.1-2.33,1.02-4,2.94-4.74Zm-8.79,21.5c-6.69,3.34-12.71,5.78-18.34,9.88-.58-1.87-1.19-3.54-1.61-5.25-.31-1.25-.15-2.36,1.29-3.08,6.69-3.34,8.85-3.59,18.67-1.55Zm-27.98-20.68c5.36-5.36,6.48,1.92,9.67,2.88-2.55-.12-4.99-.85-7.57-.63-2.52,.21-5.13,.49-8.25-.81,2.38-1.56,4.99-.28,6.15-1.44Zm-3.08,25.23c-2.25-5.58,1.11-10.6,1.08-15.92,0-.95,.69-1.47,1.5-1.42,5.6,.31,11.19,.76,16.55,2.38-.03,.42-.07,.84-.1,1.26-2.66,0-5.32-.06-7.97,.03-1.32,.04-3.19-.54-3.71,1.08-.66,2.04,2.24,1.05,2.73,2.66-.49,.22-.97,.55-1.49,.65q-6.22,1.24-4.06,7.75c2.52,7.59,2.53,7.62-4.93,10.63-2.67,1.07-5.24,2.58-8.64,2.7,1.28-2.95,3.49-4.38,5.79-5.53,2.73-1.37,4.43-3.36,3.26-6.26Zm5.67,21.29c-.37,1.86-1.67,2.72-3.63,2.6-1.47-.09-2.28-1.01-2.16-2.47,.16-1.99,1.32-3.21,3.33-3.08,1.54,.09,2.54,1.07,2.46,2.96Zm-14.19-40.18c1.19-.17,2.55-.83,3.55,.15,.95,.93,.23,1.78-.5,2.73-1.57,2.03,.32,4.01,.48,6.03,.21,2.6,.89,5.15,1.28,7.74,.11,.72,.07,1.7-.97,1.71-.46,0-1.23-.52-1.36-.96-1.52-5.01-2.95-10.05-4.4-15.08-.01-1.44,.68-2.15,1.92-2.32Zm-5.87-18.71c1.99,1.83,1.75,4.93,.53,5.84-3.82,2.84-1.4,5.89-1.19,8.91,.27,3.88,2.85,7.52,1.28,11.87-4.9-11.29-5.1-21.11-.62-26.62Zm-33.99,76.25c1.83-.14,2.93,.74,3.11,2.61-.27,2.36-1.57,3.85-3.85,3.99-1.86,.12-2.86-1.37-2.82-3.04,.05-2.11,1.4-3.4,3.56-3.56Zm-23.44,101.55c-.1-22.86,6.89-41.02,20.48-56.58,21.85-25.03,60.37-27.73,85.43-5.86,18.37,16.02,28.34,36.48,28.95,60.81,.66,26.76-13.07,45.81-36.09,57.24-22.1,10.98-45.41,9.87-67.34-1.28-22.69-11.54-31.84-31.53-31.44-54.33Zm-1.96-66.22c-.16,1.94-1.65,3.02-3.55,2.77-1.97-.25-2.81-1.76-2.59-3.68,.19-1.66,1.13-2.77,2.72-3.02,2.18,.62,3.6,1.81,3.43,3.93Zm-8.68-40.07c2.73,.1,4.17,1.96,4.16,4.58,0,3.07-1.83,4.72-4.8,5.09-2.93-.25-4.12-2.17-4.11-4.68,.01-2.95,1.49-5.11,4.75-5Zm-3.1,150.27c1.77,.28,2.41,1.67,2.44,2.87-.4,2.05-1.21,3.17-2.87,3-1.78-.18-2.76-1.36-2.58-3.17,.17-1.72,1.12-3,3.01-2.7Zm-2.47-81.75c-.14,1.55-.65,3.19-2.57,3.24-1.65,.05-2.38-1.23-2.42-2.75-.05-1.75,.91-2.82,2.59-3.25,1.68,.18,2.54,1.16,2.39,2.75Zm-3.47-44.92c1.88,.11,3.13,1.22,3.24,3.31-.34,1.93-1.49,3.06-3.49,2.93-1.75-.12-2.96-1.21-2.92-3,.04-1.89,1.08-3.36,3.16-3.23Zm-7.3-40.42c3.13,.39,4.82,2.08,4.77,4.87-.06,3.08-2.13,4.77-5.09,4.8-2.73,.02-4.18-1.88-4.23-4.47-.06-3.09,1.93-4.61,4.55-5.2Zm-3.96,20.52c3.78,.09,5.37,2.48,5.87,5.53,.05,3.59-2.9,6.79-6.11,6.67-3.51-.13-5.85-1.9-6.07-5.63-.21-3.51,2.84-6.65,6.3-6.57Zm-9.1-35.52c2.14,.02,3.56,1.25,3.54,3.39-.02,2.42-1.42,3.94-3.93,4.34-2.29-.39-3.52-1.78-3.44-4.09,.08-2.35,1.46-3.68,3.82-3.65Zm-6.47,14.77c3.5-.09,6.46,2.83,6.53,6.43,.07,3.54-3.16,6.91-6.7,6.98-3.57,.07-6.39-2.77-6.4-6.45-.01-3.86,2.82-6.86,6.56-6.95Zm-8.54-11.86c.03,3.4-2.84,6.59-5.76,6.37-3.34-.26-5.51-2.13-5.4-5.64,.11-3.51,2.03-5.97,5.66-6.01,3.43-.04,5.15,2.28,5.5,5.28Zm-12.49-22.26c3.07,0,4.91,1.84,4.68,5.01-.22,3.08-2.19,4.57-5.2,4.7-2.94-.26-4.67-1.72-4.46-4.74,.21-2.99,1.92-4.97,4.97-4.97Zm-6.52,41.08c.46-3.42,3.57-6,6.74-5.62,3.25,.39,5.53,3.35,5.02,6.55-.55,3.51-3.58,6.07-6.71,5.69-3.14-.39-5.48-3.45-5.05-6.61Zm-1.56-18.72c-.02,3.51-2.76,6.21-5.97,5.99-3.64-.26-5.8-2.39-5.72-5.96,.08-3.56,2.36-5.74,5.96-5.74,3.76,0,5.34,2.54,5.73,5.71Zm-20.78-18.02c-.26-3.15,2.67-6.34,5.68-6.04,3.33,.34,5.25,2.36,5.54,5.35,.05,3.73-2.61,6.65-5.73,6.46-3.51-.21-5.21-2.45-5.49-5.78Zm11.81,39.67c-3.11-.23-3.86-2.78-3.97-5.34-.1-2.42,1.49-3.77,3.8-3.63,2.77,.17,3.95,2.05,3.97,4.97-.28,2.07-1.04,4.21-3.8,4.01Zm8.75,28.54c-3.43,.02-5.97-2.84-6.06-6.82-.08-3.76,2.94-7.1,6.4-7.08,3.47,.02,6.21,2.98,6.24,6.74,.03,3.57-3.25,7.14-6.58,7.16Zm4,76.4c1.46,.03,2.69,.75,3.77,1.61,3.72,2.97,7.8,5.28,12.75,6.2-4.64,6.32-17,1.02-19.12-4.27-.9-2.24,.06-3.6,2.59-3.54Zm-3.94,48.91c2.7-.07,3.2,2.39,3.45,4.61-.09,1.96-.42,4.18-2.63,4.28-2.82,.12-3.16-2.46-3.34-4.63-.16-1.94,.28-4.2,2.52-4.26Zm-13.3-24.19c-.16,2.49-1.64,3.98-4.12,3.85-2.7-.14-4.16-2.09-4.13-4.65,.03-2.46,1.66-4.06,4.18-3.9,2.66,.17,4.1,1.84,4.07,4.7Zm-7.14-35.1c1.89,.09,3.06,1.2,3.28,3.12-.29,1.82-1.31,2.89-3.1,2.72-1.8-.17-2.61-1.52-2.65-3.2-.04-1.59,.82-2.72,2.48-2.64Zm-8.75,35.12c1.72,.15,2.21,1.43,2.04,2.96-.19,1.77-.83,3.54-2.9,3.33-1.6-.16-2.33-1.74-2.56-3.33,.44-1.84,1.39-3.14,3.42-2.96Zm20.14,20.25c-9.46,.66-18.41-1.26-26.8-5.64-1.57-.82-3.97-1.75-2.94-3.95,1-2.16,3.3-1.01,4.94-.36,9.48,3.75,18.99,7.33,29.98,7.04-1.45,2.81-3.42,2.78-5.16,2.9Zm1.07,63.74c-1.12-.9-1.18-2.14-.68-3.38,5.96-14.68,8.91-30.24,13.16-45.41,.17-.6,.34-1.19,.55-1.78,.48-1.37,1.28-2.84,2.81-2.61,1.79,.27,1.39,2.19,1.49,3.47,.19,2.36-.58,4.61-1.47,6.75-4.41,10.6-6.74,21.89-10.8,32.6-.2,.53-.15,1.16-.28,2.36,6.26-1.67,10.8-5.76,16.81-6.7-6.21,4.78-12.41,9.56-18.63,14.33-.89,.68-1.91,1.21-2.96,.36Zm25.03,.09c-2.28,.13-3.79-1.33-3.79-3.69,0-2.64,1.82-3.68,4.15-4.02,2.17,.09,3.68,.96,3.52,3.31-.16,2.37-1.38,4.26-3.87,4.4Zm-11.22-17.17c-1.54,.7-3.24,.54-2.69-1.5,2.38-8.8,4.44-17.79,10.65-24.97,.24-.28,.83-.26,1.26-.38,.32,.23,.64,.46,.97,.69-4.19,7.17-6.94,14.93-10.15,22.67,4.99-3.31,9.76-6.81,15.92-7.43-4.75,4.49-10,8.22-15.95,10.92Zm25.31,8.21c-2.34-.58-4.16-1.58-3.88-4.03,.27-2.38,2.2-3.34,4.38-3.13,1.96,.18,3.58,1.23,3.42,3.58-.17,2.52-2.06,3.15-3.93,3.59Zm41.98,13.97c1.82,4.84,1.13,9.09,3.67,12.57-3.81-.58-5.25-5.08-3.67-12.57Zm-9.42-3.55c1.43-.4,1.79,.86,2.24,1.81,1.94,4.1,2.54,8.61,3.91,12.87,1.07,3.32,.78,8.8,5.21,8.78,4.21-.01,4.42-5.26,5.56-8.7,.65-1.97,1.15-3.98,1.72-5.97,.51,6.92,.63,13.63-4.72,18.93-2.15,2.13-4.07,2.56-5.58-.17-4.39-7.9-7-16.5-9.21-25.22-.21-.84-.28-2.01,.87-2.34Zm22.46,31.51c-2.19,3.91-4.45,7.79-6.79,11.62-3.07,5.03-4.61,4.99-7.35-.42-2.17-4.27-4.05-8.69-5.96-13.08-3.27-7.51-6.5-15.04-9.67-22.6-1-2.39-2.12-4.81-1.3-8.19,2.62,2.21,3.17,4.84,4.17,7.19,3.83,8.95,6.75,18.29,11.34,26.92,.65,1.23,1.45,2.37,2.16,3.56,1.67,2.78,3.15,3.19,5.42,.29,2.52-3.22,4.73-6.83,8.36-9.15,1.43,1.62,.22,2.78-.39,3.86Zm10.33-17.74c-1.76-.02-2.89-.95-2.97-2.8-.08-1.89,.98-2.78,2.89-2.89,1.69,.07,2.85,.81,2.83,2.75-.02,1.79-.86,2.96-2.75,2.94Zm222.57,166.31c.14,.57,.08,1.27-.12,1.83-4.58,12.89-17.3,25.83-29.41,27.08-15.21,1.57-25.03-13.45-23.66-23.79,1.46-11.06,4.82-21.73,7.32-33.17,15.39,11,27.67,7.42,36.73-8.55,3.18,12.71,6.18,24.65,9.14,36.59Zm-51.86-32.2c.06,.98-.11,1.87-1.51,1.98-1.79-.59-2.24-2.26-2.64-3.89-.24-.99,.04-2.01,1.32-1.79,1.98,.34,2.71,1.85,2.83,3.7Zm-1.16-14.26c.07-1.28,.9-1.88,2.15-1.93,1.56,.22,2,1.37,2.02,2.67,.02,1.19-.59,2.2-1.91,2.14-1.74-.07-2.35-1.32-2.26-2.88Zm15.23-91.27c.69-10.26,.81-20.57,3.02-30.64,.32,10.14,1.12,20.1,3.01,29.96,.62,3.25-1.16,4.72-4.04,4.79-3.14,.08-2.1-2.54-1.99-4.11Zm-.35,10.23c0-1.5,.28-2.45,2.11-2.95,5.33-1.48,5.21-1.57,6.17,4.05,1.15,6.72,2.33,13.44,3.87,20.08,.93,4.01-.55,4.93-4.19,4.72-7.08-.41-7.95-1.19-7.99-8.22-.02-2.48,0-4.96,0-7.44,.01,0,.03,0,.04,0,0-3.41,0-6.82,0-10.23Zm-.96,53.09c.24-3.56,.4-7.12,.6-10.68,.1,0,.21,0,.31,0,0-4.18,.01-8.37,0-12.55,0-1.99,.56-2.79,2.79-2.1,2.65,.82,5.44,1.39,8.24,.61,1.55-.43,2.33,.17,2.68,1.65,1.56,6.64,3.11,13.28,4.72,19.9,.39,1.6-.36,2.61-1.38,3.67-3.72,3.84-10.91,5.22-16.05,3.19-1.91-.75-2.01-2.04-1.9-3.68Zm2.48,6.62c5.88,1.53,11.37,.82,16.06-3.43,1.93-1.75,2.55-.64,3.02,1.25,2.23,9.02,4.51,18.02,6.72,27.04,.21,.86,.23,1.86,.03,2.73-1.79,7.95-11.38,15.66-19.35,15.64-5.22-.07-9.43-2.69-13.56-5.47-1.45-.98-1.14-2.42-.88-3.79,1.95-10.51,3.57-21.06,4.66-31.7,.23-2.26,1.08-2.85,3.31-2.27Zm-6.93-83.7c1.84,.07,2.68,1.17,2.72,2.63-.09,1.84-.9,2.63-2.38,2.33-1.68-.34-2.62-1.52-2.58-3.25,.03-1.36,1.09-1.75,2.23-1.7Zm-6.48,7.6c2.29,.69,5.04,1.78,5.55,4.2,.43,2.05-2.01,.84-3.18,1.21-1.95-.4-4.64,.35-4.79-2.89-.07-1.49,.69-3.04,2.42-2.52Zm-1.39,39.45c1.28,0,1.75,1.09,1.97,2.06-.01,1.35-.42,2.44-1.65,2.61-1.48,.2-2.31-.84-2.44-2.21-.14-1.43,.64-2.47,2.12-2.46Zm-2.17-12.9c-.5,3.71-1.95,6.48-5.65,6.56-3.48,.07-4.81-2.61-4.61-5.67,.21-3.25,1.44-6.26,5.42-6.2,3.47,.05,4.52,2.63,4.85,5.31Zm-8.57-30.21c3.65,.17,4.19,2.97,4.51,6-.66,3.18-1.71,6.43-5.68,6.6-3.39,.14-4.77-2.34-4.77-5.51,0-3.57,2.98-7.23,5.94-7.09Zm-8.11,111.06c.13-1.57,1.15-2.42,2.8-2.38,1.65,.19,2.43,1.14,2.32,2.77-.11,1.57-1.01,2.64-2.57,2.67-1.91,.03-2.69-1.33-2.54-3.05Zm7.14,22.28c-.19,1.69-.99,3.09-2.85,3.03-2.02-.07-3.01-1.43-2.86-3.44,.14-1.92,1.16-3.12,3.03-3.4,2.08,.53,2.89,1.86,2.68,3.81Zm-4.75,27.9c0,1.13-.49,2.29-1.8,2.27-1.77-.03-2.82-1.16-2.96-2.94-.11-1.43,.53-2.37,2.12-2.49,1.84,.21,2.63,1.43,2.64,3.16Zm-8.06-93.64c-3.25,.16-4.43-2.31-4.42-5.31,.02-3.45,2.66-6.53,5.49-6.22,2.92,.32,4.33,2.12,4.2,5.85-.27,2.58-1.55,5.49-5.27,5.68Zm-2.68,37.77c.1,3.86-2.84,7.4-6,7.28-3.5-.13-4.79-2.46-4.97-5.58-.2-3.53,2.55-6.89,5.59-6.73,3.24,.17,5.09,1.99,5.39,5.03Zm-5.01-16.55c.07-1.56,1-2.58,2.66-2.5,1.64,.08,2.54,1.1,2.35,2.72-.17,1.49-1.07,2.49-2.67,2.67-1.61-.31-2.42-1.36-2.35-2.89Zm.76,58.99c.09-1.39,.73-2.34,2.24-2.46,1.58,.36,2.38,1.37,2.44,2.96,.06,1.75-.9,2.64-2.56,2.51-1.78-.14-2.21-1.47-2.11-3.01Zm4.65-154.42c3.83-.04,5.03,2.8,4.92,6-.11,3.01-1.47,5.58-5.06,5.38-3.41-.19-4.69-2.56-4.88-5.86,.5-2.81,1.54-5.49,5.02-5.52Zm1.93,22.48c3.97,.28,4.8,3.29,4.98,6.32-.03,4.56-3.2,8.57-6.7,8.41-3.86-.17-5.3-2.71-5.29-6.26,0-4.32,3.51-8.72,7-8.47Zm-15.35-20.94c1.27,.02,2.07,.63,2.15,1.92,.1,1.47-.73,2.42-2.07,2.66-1.52,.27-2.4-.75-2.41-2.13,0-1.37,.9-2.25,2.33-2.45Zm-5.82,18.13c.18-2.47,.82-5.12,4.13-5.01,2.3,.07,2.87,1.92,3.08,3.69-.37,2.69-1.42,4.77-4.12,5-2.35,.2-3.24-1.75-3.1-3.69Zm8.08,21.61c4.56,.06,8.23,4.11,8.11,8.95-.13,5.02-4.38,9.28-9.17,9.17-4.71-.11-8.29-3.72-8.19-8.27,.11-5.11,4.62-9.91,9.25-9.86Zm-7.59,30.51c4.73-.13,8.95,4.75,9.04,10.47,.08,5.25-4.14,9.72-9.16,9.71-4.69-.02-8.5-4.36-8.52-9.74-.03-5.16,4.24-10.31,8.65-10.43Zm.13,36.92c.13,2.2-1.08,3.43-3.08,3.93-2.26,.01-3.14-1.46-3.23-3.26-.1-2.04,.87-3.79,3.1-3.9,1.98-.1,3.1,1.27,3.21,3.24Zm-3.79,21.76c3.31,.22,5.73,3.31,5.65,7.22-.08,3.7-2.84,6.78-6.13,6.83-3.29,.05-6.05-3.16-5.94-6.89,.12-3.86,3.25-7.36,6.41-7.15Zm4.06,33.61c.97-.19,2.01-.83,3.39,.51-13.66,6.03-17.37,18.31-19.46,31.26-2.73,16.93,.44,32.72,10.76,46.77,8.99,12.25,19.36,23.46,27.35,36.47,4.7,7.66,8.49,15.73,10.75,24.51-9.08-20.96-25.26-36.68-39.26-54.01-16.97-20.99-19.63-44.29-9.82-69.08,3-7.57,7.2-14.61,16.3-16.43Zm-20.81-20.06c-1.49-.09-2.57-1.02-2.76-2.56-.18-1.45,.65-2.42,2.08-2.38,1.53,.04,2.44,1.06,2.78,2.54-.01,1.44-.61,2.49-2.1,2.4Zm3.17,12.91c-.28,1.33-.88,2.45-2.41,2.32-1.55-.14-1.98-1.31-1.8-2.7,.16-1.18,.79-2.1,2.07-2.1,1.58,0,2.03,1.13,2.13,2.48Zm-4.05,7.85c1.58,0,2.05,1.11,2,2.49-.06,1.36-.6,2.48-2.16,2.4-1.48-.07-2.04-1.15-2.11-2.54,.1-1.41,.82-2.34,2.27-2.35Zm2.19-71.03c3.35,.19,5.96,3.36,5.88,7.14-.09,4.02-2.89,7.18-6.4,7.2-3.62,.02-6.09-2.74-6.03-6.75,.06-4.23,3.12-7.77,6.54-7.58Zm-5.76,23.87c3.11-.18,5.77,2.5,5.82,5.84,.06,3.99-2.63,7.45-5.91,7.61-2.98,.14-5.51-2.62-5.58-6.1-.08-3.6,2.68-7.17,5.67-7.34Zm-14.08,11.89c3.74-.14,7.21,3.81,7.18,8.15-.03,4.19-3.24,7.66-7.1,7.67-3.79,.01-6.87-3.47-6.9-7.8-.03-4.12,3.18-7.89,6.82-8.03Zm6.45,26.12c.05,1.69-.77,2.67-2.37,2.78-1.24,.09-2.03-.73-2.11-1.93-.1-1.5,.48-2.77,2.13-3,1.54-.22,2.1,.88,2.35,2.14Zm-12.19,33.36c-.05,1.46-.89,2.18-2.27,2.36-1.27-.34-2.31-.94-2.26-2.44,.05-1.47,.99-2.25,2.35-2.27,1.43-.01,2.22,.86,2.17,2.34Zm-3.24-18.85c1.64,.17,2.27,1.15,2.25,2.5-.03,1.5-.74,2.81-2.31,2.94-1.46,.12-2.13-1.09-2.11-2.44,.02-1.49,.8-2.56,2.17-3Zm-9.49,103.31c-.23,1.58-1.39,2.45-2.91,2.53-1.53,.08-2.23-.94-2.07-2.41,.17-1.63,1.26-2.37,2.76-2.56,1.4,.26,2.44,.91,2.22,2.45Zm-7.29-42.8c-1.83-.42-2.57-1.64-2.54-3.37,.04-1.93,1.01-3.44,2.94-3.49,2.07-.05,2.92,1.56,2.74,3.48-.17,1.85-1.2,3.12-3.14,3.39Zm.4-92.04c2.73-.13,4.22,1.57,4.63,4.19-.19,2.95-1.71,4.76-4.6,4.95-2.76,.18-4.5-1.33-4.48-4.15,.02-2.8,1.49-4.85,4.44-4.99Zm-9.48,40.89c.21-2.59,1.46-4.44,4.24-4.68,2.26-.19,2.81,1.47,3.2,3.42-.5,2.31-1.64,4.24-4.41,4.42-2.1,.14-3.2-1.07-3.03-3.16Zm-7.5-17.9c3.37,.36,4.8,2.59,4.84,5.73,.04,3.33-2.86,6.11-5.92,5.76-3.35-.38-4.68-2.6-4.87-5.31,.14-3.86,2.81-6.51,5.95-6.18Zm-1.4,49.73c.19-1.86,1.2-3.14,3.22-3.31,1.59,.4,2.51,1.35,2.21,3.01-.34,1.84-1.34,3.23-3.44,3-1.43-.16-2.13-1.34-1.99-2.69Zm-1.23-15.31c-1.49-.15-2.36-.97-2.3-2.36,.07-1.85,1.02-3.27,2.96-3.46,1.43-.13,2.24,.95,2.24,2.31,.01,1.93-1.17,3.02-2.9,3.51Zm4.42,29.85c1.68-.38,2.48,1.01,2.52,2.54,.05,1.84-.81,3.23-2.65,3.89-1.57-.02-2.13-1.04-2.17-2.4-.06-1.79,.38-3.59,2.3-4.02Zm-10.32,46.46c.12-1.18,.91-2.05,2.14-2.02,1.43,.04,2.17,.97,2.24,2.42-.21,1.22-.94,1.97-2.18,1.93-1.42-.04-2.36-.83-2.21-2.33Zm-11.13-90.54c3.95,.03,7.09,3.47,6.97,7.66-.12,3.96-3.23,7.01-7.13,6.98-3.95-.03-6.91-3.09-6.91-7.11,0-4.32,3.05-7.55,7.07-7.53Zm-1.03,106.72c1.38-.02,2.38,.77,2.61,2.13,.25,1.47-.64,2.25-2.1,2.53-1.47-.24-2.56-.99-2.57-2.63,0-1.24,.85-2,2.06-2.02Zm-2.34-8.06c-1.27-.11-2.44-.89-2.26-2.44,.21-1.82,1.04-3.24,3.14-3.49,1.54,.15,2.14,1.18,2.02,2.56-.15,1.76-.58,3.57-2.9,3.38Zm4.11-20.15c-1.86,.32-2.86-1.03-2.87-2.71,0-1.81,1.06-3.09,2.87-3.55,1.67,.13,2.57,1.06,2.67,2.6,.14,1.91-.83,3.34-2.68,3.67Zm1.8-39.95c-2.33,.09-2.66-1.87-2.58-3.61,.09-2.02,1.06-3.54,3.35-3.74,2.13,.32,2.8,1.69,2.65,3.65-.16,2.14-1.31,3.62-3.43,3.7Zm-18.37-18.36c3.94,.12,5.25,2.8,5.48,6.15,.23,3.37-2.63,6.23-6.44,6.31-3.18-.25-5.21-2.11-5.27-5.83-.05-3.63,2.87-6.74,6.23-6.63Zm-1.25,132.4c.2-1.26,.84-2.32,2.34-2.49,1.26,.22,1.87,1.04,1.82,2.26-.06,1.42-.9,2.36-2.32,2.36-1.25,0-2.04-.84-1.83-2.13Zm1.38,16.72c-.08,1.48-.7,2.67-2.35,2.75-1.57-.17-2.43-1.1-2.33-2.45,.11-1.53,1.15-2.51,2.79-2.44,1.29,.05,1.96,.94,1.89,2.14Zm2.19-48.81c-1.67,.23-2.51-1.09-2.55-2.57-.05-1.96,1.5-2.81,2.84-3.6,1.76,.22,2.86,1.08,2.75,2.66-.12,1.8-1.19,3.25-3.04,3.51Zm-2.94-62.62c-3.2-.15-4.84-1.78-4.77-4.72,.08-3.39,1.94-5.68,5.39-5.81,2.97-.12,4.52,1.98,4.58,4.79,.07,3.5-1.95,5.37-5.2,5.74Zm-6.27,18.04c4.67,.1,7.94,3.85,7.91,9.07-.03,4.86-3.74,8.74-8.38,8.75-4.74,0-8.22-3.76-8.14-8.81,.08-5.16,3.86-9.11,8.61-9.01Zm-4.48,107.94c3.01-.05,4.25,2,4.4,4.8-.21,2.66-1.48,4.61-4.18,4.65-2.95,.05-4.46-1.94-4.36-4.81,.09-2.56,1.38-4.59,4.13-4.64Zm-.68-82.92c.12-1.59,1.15-2.41,2.68-2.56,1.46,.31,2.28,1.19,2.07,2.6-.24,1.64-1.14,2.98-3.01,2.78-1.51-.17-1.84-1.54-1.74-2.81Zm-1.39,50.22c-.28,2.51-1.29,4.83-4.29,4.93-2.41,.08-3.46-1.85-3.45-4.1,.02-2.77,1.19-4.97,4.23-5.05,2.43-.06,3.43,1.72,3.51,4.22Zm-26.13-50.98c.24-4.43,3.61-7.73,7.75-7.6,3.99,.13,6.61,3.45,6.38,8.09-.23,4.64-3.4,7.81-7.62,7.61-3.91-.18-6.76-3.73-6.51-8.11Zm-4.52,38.75c-.35-3.67,2.74-7.2,6.18-7.28,3.42-.08,6.37,2.87,6.49,6.5,.13,3.76-2.88,7.03-6.52,6.94-3.94-.1-5.81-2.49-6.16-6.16Zm16.89,61.79c-2.37-.03-2.99-1.93-3.05-3.91-.05-2.01,1.11-3.11,2.99-3.41,2.28,.44,3.34,1.91,3.24,3.97-.09,1.85-1.2,3.38-3.19,3.36Zm-4.25-15.69c-4.45-.09-7.9-3.83-7.91-8.58,0-5.16,4.11-9.69,8.68-9.54,4.23,.14,7.67,4.4,7.63,9.46-.03,4.8-3.86,8.74-8.4,8.65Zm3.47-126.22c.13-3.24,1.19-6.04,4.9-6.05,3.29-.01,4.92,2.28,4.99,5.52,.06,3.2-1.31,5.52-4.71,5.73-3.47,.22-4.98-1.91-5.18-5.2Zm12.08,155.95c-3,.14-5.87-2.94-6.05-6.49-.18-3.53,2.41-6.88,5.42-7.02,3.1-.15,5.87,2.86,5.96,6.46,.09,3.78-2.27,6.91-5.34,7.06Zm9.85,21.32c-3.52,.09-5.68-2.29-5.76-5.88-.07-3.44,1.52-6,5.2-6.45,3.1-.38,5.64,2.37,5.73,6.41-.38,2.7-1.41,5.82-5.17,5.92Zm5.56-23.86c-3.11-.07-4.77-2.05-4.84-5.06-.07-2.97,1.38-5.23,4.52-5.31,3.33-.08,4.87,2.14,5.1,5.21-.2,3.15-1.54,5.24-4.78,5.16Zm9.77,31.88c-2.27,.06-3.86-1.22-3.97-3.56-.12-2.3,1.19-3.68,3.56-3.98,2.35,.21,3.61,1.6,3.67,3.87,.05,2.09-1.07,3.62-3.26,3.67Zm82.42-107.27c-1.37-.19-2.18-1.17-2.04-2.58,.15-1.61,1.15-2.49,2.8-2.29,1.43,.17,2.09,1.11,2.05,2.61-.3,1.48-1.15,2.48-2.8,2.26Zm9.18-13.27c-1.5,.1-2.4-.82-2.46-2.16-.08-1.58,.86-2.61,2.55-2.57,1.49,.04,2.1,1.07,2.36,2.37-.26,1.38-1.03,2.27-2.45,2.36Zm5.61,35.31c-1.51-.23-2.5-.86-2.32-2.37,.18-1.42,.77-2.76,2.45-2.83,1.45-.06,2.21,.89,2.16,2.34-.06,1.55-.9,2.51-2.29,2.86Zm36.28,111.88c-1.66-.22-2.2-1.49-2.06-3,.13-1.38,.99-2.15,2.41-2.26,1.56,.34,2.38,1.4,2.33,2.9-.05,1.59-1.03,2.57-2.68,2.36Zm8.84-78.2c-.17,14.21-2.29,28.11-7.61,41.39-1.25,3.13-2.63,6.21-5.41,8.46,3.08-7.06,6-14.2,7.45-21.75,5.91-30.98,5.35-61.56-8.19-90.64-12.16-26.12-36.51-37.12-64.06-28.63-23.87,7.35-42.78,21.69-53.82,44.74-4.77,9.95-6.9,20.86-9.26,31.62-.33,1.5-.34,3.08-1.33,4.42-1.87-20.84,10.36-48.76,27.75-63.7,15.28-13.13,32.4-21.96,53-21.71,20.89,.25,36.89,9.36,47.13,27.91,11.69,21.18,14.63,44.22,14.35,67.91Zm-.89-186.53c-1.42,.92-2.36-.21-2.89-1.33-.87-1.84-2.38-3.54-1.8-6.23,2.39,1.24,4.27,2.02,5.28,3.88,.71,1.32,.81,2.78-.59,3.68Zm.73-80.38c-1.37,.03-2.26-.88-2.32-2.3-.08-1.65,.38-3.16,2.29-3.33,1.63-.14,2.41,1,2.64,2.36-.08,1.87-.72,3.22-2.6,3.26Zm2.61,33.28c.23-1.69,1.29-2.9,3.05-2.89,1.77,.01,2.26,1.43,2.15,2.92-.12,1.6-.64,3.05-2.65,3.18-1.68-.42-2.8-1.38-2.55-3.22Zm7.81,293.43c-1.39,.13-2.52-.6-2.54-2.03-.02-1.87,1.41-2.62,3.05-2.73,1.24-.09,1.9,.75,2.08,1.72-.24,1.78-1,2.89-2.58,3.05Zm3.9,20.17c-1.63-.02-2.54-1.04-2.41-2.64,.13-1.63,.92-2.98,2.76-3.01,1.69-.03,2.27,1.22,2.46,2.68-.24,1.68-.92,3-2.81,2.97Zm.03-230.69c-7.66-13.45-9.47-28.01-7.74-43.18,.42-3.67,.85-7.33,1.39-11.99,2.18,3.26,2.58,6.34,4.44,8.69,7.71,9.77,20.32,12.13,31.27,5.57,8.95-5.36,15.07-13.16,19.76-22.84,1.45,10.05,3.01,20.08,4.28,30.15,.52,4.12,1.32,8.29,.38,12.47-1.72,1.4-2.25,3.58-3.1,5.5-5.24,11.72-14.41,19.23-25.95,24.05-9.91,4.14-19.46,.84-24.74-8.44Zm31.24,8.68c7.46-4.19,13.58-9.74,17.67-17.34,2.11-3.92,3.78-8.04,4.88-12.37,1.6,8.16,.34,16.28-.42,24.39-1.02,10.83-3.17,21.42-6.96,31.67-1.65,4.46-4.64,7.22-9.17,8.4-3.63,.95-7.14,.38-9.1-2.88-6.15-10.2-12.77-20.04-20.81-29.15,8.73,4.23,16.39,1.5,23.91-2.73Zm-9.69,215.67c-1.49,.09-3.02-.32-2.93-2.09,.11-2.2,1.52-3.68,3.79-3.92,1.69-.18,2.42,1,2.69,2.52-.26,2.1-1.39,3.37-3.55,3.49Zm17.18-88.76c-.97,14.29-3.41,28.3-6.32,42.28-.38,1.84-.64,3.12-.64,4.04-.87,2.42-1.47,4.93-2.01,7.46-1.33,0-2.66,.01-3.99,.02-4.59,.02-9.19,.19-14.42-.75,2.36-2.28,4.87-2.41,7.19-2.66,3.21-.34,4.84-1.95,5.79-5.01,11.55-36.98,15.49-74.6,9.82-113.06-1.06-7.19-1.72-14.45-4.05-21.96,4.45,.84,8.27,.18,12.28-2.57-.77,5.85-4.65,9.4-5.75,14.24,3.76-3.82,5.62-8.93,8.69-13.28-1.08,6.13-3.77,11.67-6.61,16.99-2.06,3.86-2.45,7.52-1.89,11.6,2.87,20.82,3.33,41.7,1.91,62.68Zm5.34,89.01c-1.29-.02-1.92-.83-1.88-2.06,.05-1.44,.84-2.24,2.32-2.14,1.21,.08,1.93,.73,2,1.95-.29,1.38-1.01,2.27-2.44,2.25Zm4.23-14.88c-.05-1.69,1.04-2.79,2.75-3.11,1.73,.16,2.4,1.22,2.35,2.8-.05,1.65-1.03,2.54-2.63,2.54-1.4,0-2.44-.92-2.48-2.23Z"/>
  <path d="M170.69,529.49c10.08,3.13,18.49,7.44,26.69,12.07,24.03,13.55,42.54,32.03,51.3,58.89,11.3,34.65-.12,70.55-29.19,92.54-6.97,5.27-14.71,8.46-24.15,9.2,3.58,6.2,7.61,11.19,11.88,15.97,18.55,20.79,40.69,35.28,68.96,38.81,9.71,1.21,19.26,.7,28.24-3.5,3.69-1.73,3.8,.8,4.54,2.95,8.63,25.01,21.92,47.17,40.51,66.06,9.2,9.35,19.65,17.06,31.02,23.56,2.26,1.29,4.46,2.69,6.57,3.96-.36,1.99-1.73,1.52-2.65,1.65-58.79,8.43-112.27-5.24-161.12-38.53-45.17-30.78-69.8-74.01-75.79-127.67-3.11-27.82,1.96-55.05,12.74-81.02,3.57-8.59,7.3-17.11,11.15-25.57,6.78-14.9,7.65-29.85,.86-44.98-.49-1.1-.81-2.28-1.55-4.39Zm27.4,119.07c-3.71,.03-7.22,3.84-7.17,7.8,.04,3.87,3.03,7.12,6.55,7.14,3.75,.02,7.07-3.6,7.12-7.78,.04-3.82-3-7.18-6.49-7.15Zm-37.11,53.34c.49,2.67,1.35,5.49,5.21,5.5,3.04,0,5.92-3.59,5.79-7.26-.12-3.23-1.43-5.81-5-6.2-3-.33-6.04,3.68-6,7.97Zm53.62-115.43c-.51-2.45-1.54-5.29-5.3-5.06-3.95,.24-5.51,3.19-5.65,6.67-.14,3.38,1.76,5.52,5.3,5.64,3.09,.1,5.7-3.07,5.65-7.24Zm-62.36,68.29c.54,2.56,1.32,5.51,4.88,5.36,3.78-.17,5.2-3.15,5.27-6.47,.07-3.06-1.47-5.79-4.8-5.66-3.64,.14-5.06,3.04-5.35,6.78Zm51.02-49.61c-.47-2.73-1.7-5.19-5.16-5.07-3.88,.13-5.23,2.84-5.23,6.28,0,3.22,1.69,5.51,5.01,5.35,3.63-.18,5.27-2.74,5.38-6.55Zm-25.78,117.66c-.26-3.29-1.38-6.01-4.81-5.84-3.69,.19-5.11,3.15-5.2,6.48-.08,3.18,1.82,5.63,4.88,5.64,3.85,.01,4.58-3.39,5.12-6.28Zm10.69-88.92c-.11-3.37-1.64-5.32-4.75-5.57-2.9-.24-5.86,3.09-5.57,6.25,.29,3.13,1.86,5.55,5.28,5.23,3.42-.32,4.96-2.81,5.03-5.91Zm1.2-35.89c-.32-2.84-1.5-5.28-4.7-5.27-3.51,.01-5.24,2.47-5.36,5.79-.12,3.16,1.81,5.07,4.84,5.02,3.25-.06,4.87-2.31,5.22-5.53Zm11.74,82.27c-.23-2.98-1.45-5.28-4.68-5.17-3.49,.12-5.2,2.42-5.1,5.84,.09,3.04,1.63,5.04,4.85,4.88,3.38-.16,4.67-2.49,4.93-5.55Zm-22.38-10.67c-.24-2.91-1.55-4.7-4.38-4.51-2.92,.19-4.39,2.14-4.32,4.98,.06,2.69,1.62,4.53,4.33,4.31,2.74-.22,4.35-2.07,4.37-4.78Zm46.35-65.36c-.15-2.73-1.66-4.19-4.14-4.19-3.03,.01-4.36,2.06-4.48,4.87-.11,2.66,1.48,4.16,3.98,4.1,2.94-.07,4.24-2.17,4.64-4.78Zm-2.52,14.33c-2.04,.33-3.98,1.42-4.15,4.23-.18,2.84,1.43,4.37,4.17,4.47,2.72,.1,4.43-1.37,4.62-4.12,.2-2.82-1.37-4.27-4.64-4.57Zm-27.24-38.52c-.17-2.78-1.99-3.91-4.32-3.99-2.47-.08-4.24,1.25-4.06,3.96,.17,2.49,1.82,4.03,4.26,4.06,2.52,.04,3.9-1.56,4.12-4.03Zm19.8,57.33c-.11-1.93-1.44-3.46-3.69-3.54-2.34-.08-3.79,1.61-3.82,3.85-.04,2.4,1.23,4.31,3.9,4.23,2.4-.07,3.43-1.82,3.62-4.55Zm-40.29-31.78c-.11-2.37-1.18-3.69-3.42-3.74-2.39-.06-3.87,1.25-3.99,3.58-.12,2.39,1.45,3.81,3.71,3.87,2.41,.07,3.48-1.61,3.69-3.71Zm8.52,46.11c-.28-1.87-1.41-3.24-3.55-3.21-2.68,.04-3.75,2.03-3.72,4.32,.02,2.12,1.54,3.33,3.69,3.15,2.35-.2,3.39-1.78,3.58-4.26Zm23.17-85.99c-.19-2.1-1.39-3.52-3.52-3.47-2.28,.05-3.76,1.56-3.84,3.88-.08,2.19,1.21,3.61,3.43,3.46,2.18-.14,3.75-1.35,3.94-3.87Zm-40.33,54.86c-2.28,.12-3.79,1.29-4.05,3.55-.27,2.33,1.33,3.35,3.37,3.4,2.36,.06,3.62-1.33,3.7-3.71,.06-2.04-.97-3.1-3.01-3.25Zm35.24,5.77c-2.11,.47-3.72,1.59-3.84,3.91-.12,2.16,1.06,3.61,3.29,3.5,2.52-.12,3.86-1.75,3.87-4.24,0-2.07-1.47-2.86-3.32-3.17Zm13.77,42.82c-2.12,.34-3.38,1.53-3.31,3.7,.07,2.31,1.34,3.77,3.74,3.73,2.23-.04,3.25-1.48,3.29-3.61,.04-2.48-1.52-3.48-3.71-3.82Zm5.28-10.09c2.15-.4,3.72-1.53,3.66-3.94-.05-2.05-1.48-3.07-3.39-3.03-2.19,.05-3.38,1.37-3.37,3.59,.01,1.97,.92,3.21,3.09,3.38Zm-29.58,66.61c1.67,0,2.76-.81,2.87-2.42,.16-2.4-1.14-3.79-3.52-4-1.57-.14-2.94,.58-2.96,2.22-.03,2.29,1.5,3.59,3.61,4.2Zm-10-105.95c1.93-.44,3.32-1.47,3.22-3.72-.07-1.66-1.16-2.59-2.72-2.49-2,.14-3.65,1.16-3.63,3.4,.01,1.76,1.26,2.7,3.13,2.81Zm-2.57,68.24c2-.25,2.99-1.48,2.86-3.41-.12-1.73-1.23-2.84-2.99-2.79-1.92,.05-3.2,1.22-3.17,3.16,.03,1.96,1.36,2.93,3.31,3.04Zm54.85-96.5c-.22-1.79-1.21-3-2.98-2.95-1.86,.05-3.32,1.07-3.23,3.16,.07,1.7,1.03,2.97,2.89,2.97,2.02,0,3-1.3,3.32-3.17Zm75,237.55c.06-1.73-.9-2.83-2.68-2.97-1.82-.14-2.98,.98-3.16,2.7-.21,1.97,.81,3.31,2.9,3.35,1.88,.04,2.67-1.24,2.94-3.09Zm-96.38-209.07c-.31-1.53-1.17-2.47-2.79-2.42-1.56,.05-2.67,.77-2.54,2.5,.14,1.73,1.14,2.9,2.94,2.77,1.58-.11,2.26-1.34,2.39-2.86Zm24.04,20.37c-.24-1.39-1.09-2.38-2.75-2.27-1.6,.11-2.55,1.07-2.5,2.73,.04,1.67,1.02,2.6,2.65,2.52,1.64-.08,2.36-1.25,2.6-2.98Zm8.16-15.19c-.18-1.47-1.17-2.43-2.71-2.46-1.34-.02-2.41,.81-2.41,2.28,0,1.84,1.07,2.89,2.91,2.82,1.46-.06,2.12-1.07,2.2-2.64Zm-38.56-70.24c-1,.14-2.03,.52-1.68,1.32,.89,2.01,2.54,3.39,4.76,3.8,.97,.18,2.06-.34,1.66-1.5-.78-2.24-2.86-2.99-4.74-3.62Zm-46.49,130.8c0-1.62-.99-2.36-2.31-2.35-1.32,0-2.3,.79-2.34,2.29-.03,1.39,.59,2.49,2.01,2.57,1.66,.1,2.35-1.12,2.63-2.51Zm23.9,26.18c1.54-.06,2.48-.89,2.63-2.23,.19-1.73-.99-2.48-2.57-2.52-1.39-.03-2.47,.59-2.56,2.08-.1,1.72,1.11,2.37,2.5,2.66Zm-22.13-75.52c-.34-1.2-.97-2.46-2.59-2.42-1.61,.03-2.42,1.21-2.42,2.74,0,1.35,.72,2.35,2.18,2.39,1.63,.04,2.42-1,2.82-2.71Zm39.87,90.31c-1.18,0-2.41,.18-2.36,1.58,.07,1.82,1.53,2.61,3.12,2.85,1.25,.19,2.15-.55,2.02-1.87-.16-1.58-1.3-2.34-2.77-2.56Zm19.07-159.35c-.11-1.04-.64-1.85-1.98-1.89-1.71-.05-2.56,1-2.78,2.49-.19,1.32,.75,2.02,1.95,2.04,1.56,.02,2.61-.77,2.81-2.64Zm84.91,234.72c-1.45,.14-2.22,.99-2.21,2.39,.01,1.21,.76,2.03,1.97,2.12,1.46,.11,2.32-.83,2.46-2.16,.15-1.47-.85-2.16-2.22-2.35Zm-150.17-130.94c-1.24,.3-2.1,1.04-2.12,2.48-.02,1.32,.34,2.57,1.91,2.59,1.45,.02,2.16-1.09,2.28-2.4,.12-1.36-.51-2.35-2.07-2.67Zm89.2-68.9c-.28-1.13-.91-2.16-2.39-2-1.39,.15-2.13,1.15-1.99,2.54,.11,1.16,.8,2.02,2.07,1.96,1.4-.06,2.16-.92,2.31-2.51Zm-29.94,134.36c-.91-1.59-1.97-3.29-4.2-3.56-.89-.11-1.58,.5-1.18,1.41,.82,1.86,2.07,3.46,4.21,3.84,.8,.14,1.39-.52,1.17-1.69Zm39.5,83c-.24-1.41-.93-2.35-2.46-2.23-1.3,.1-1.92,1.02-1.9,2.22,.01,1.18,.55,2.13,1.91,2.16,1.45,.03,2.32-.67,2.45-2.15Z"/>
  <path d="M414.21,279.33c.13,21.06-16.75,38.06-37.32,37.53-9.07-.23-16.57-4.04-22.29-10.9-8.72-10.46-13.3-22.82-13.89-36.28-.74-17,12.19-30.69,29.19-31.89,25.33-1.8,44.16,15.86,44.32,41.55Zm-52.08,7.82c.11-3.6-2.38-6.51-5.76-6.53-3.84-.02-5.52,2.3-5.76,5.86-.25,3.71,2.09,6.69,5.34,6.91,3.08,.21,6.07-2.81,6.18-6.24Z"/>
  <path d="M620.12,239.9c-29.13-.33-51.24-24.83-47.69-49.27,.79-5.47,2.79-10.49,5.97-14.99,11.7-16.61,34.12-24.92,53.95-20.05,27.97,6.87,39.48,39.5,22.18,63.48-9.19,12.74-21.63,20.14-34.4,20.82Zm-13.17-29.47c.11-3.59-2.72-6.8-6.07-6.89-3.21-.09-6.15,2.8-6.27,6.15-.13,3.71,2.96,7.24,6.33,7.22,3.03-.02,5.9-3.12,6-6.49Z"/>
</svg>