<?xml version="1.0" encoding="UTF-8"?>
<svg id="Layer_1" data-name="Layer 1" xmlns="http://www.w3.org/2000/svg" viewBox="0 0 864 864">
  <path d="M752.19,435.06c-12.21-20.8-7.39-44.04,11.96-58.32,5.86-4.33,12.36-7.53,18.71-11.01,1.44-.79,4.03-1.16,3.64-3.28-.49-2.65-3.19-1.6-4.91-1.61-8.14-.04-16.26,.13-24.17-2.34-14.54-4.54-24.42-14.57-31.87-27.26-12.01-20.43-18.72-41.63-8.2-64.97,.23-.52-.05-1.27-.14-2.47-9.67,5.8-18.37,12.12-26.47,19.19-28.1,24.53-55.76,49.58-84.19,73.73-69.1,58.73-137.89,117.91-216.36,164.33-2.52,1.49-4.28,3.38-5.12,6.39-8.83,31.65-20.43,62.47-28.38,94.38-.95,3.79-2.58,3.85-5.55,2.34-10.61-5.4-20.64-11.62-29.21-19.97-8.08-7.87-12.86-17.56-15.83-28.35-1.09-3.96,.06-5.47,3.96-5.9,4.4-.49,8.68-1.68,12.75-3.47,4.13-1.82,5.29-4.87,3.61-9.08-1.47-3.69-3.67-6.82-6.66-9.44-4.74-4.15-10.16-7.11-16.24-8.63-3.06-.76-3.89-2.2-3.68-5.21,.71-10.06,1.81-20.04,3.74-29.97,.97-5,2.77-6.27,7.16-3.42,1.15,.75,2.61,1.07,3.97,1.44,3.64,.99,7.37,1.92,10.43-1.27,3.34-3.48,2.45-7.47,.92-11.41-2.49-6.43-6.5-11.84-12.05-15.81-2.84-2.03-2.79-3.77-1.7-6.59,6.98-18.18,15.45-35.66,24.12-53.07,1.67-3.34,3.27-2.89,5.64-1.09,4.1,3.11,8.54,5.68,13.43,7.35,2.21,.76,4.59,1.43,6.49-.47,1.94-1.94,1.02-4.27,.26-6.46-2.57-7.46-6.94-13.89-11.6-20.13-1.49-2-2.3-3.64-.95-6.17,5.98-11.24,11.01-22.94,15.9-34.68,1.26-3.02,2.62-3.61,5.55-2.23,4.16,1.95,8.55,3.43,13.1,4.18,7.16,1.18,9.72-2,6.89-8.75-1.21-2.9-2.98-5.63-4.88-8.15-3.16-4.19-8.58-7.78-9.45-12.31-.93-4.83,2.37-10.45,3.74-15.75,1.45-5.58,1.33-5.49,5.86-1.86,8.54,6.85,15.67,15.4,25.21,21.02,3.17,1.87,7.11,4.64,10.27,2.13,3.13-2.49,.51-6.63-.58-9.86-4.29-12.75-11.74-23.68-19.95-34.17-2.26-2.88-4.32-5.93-6.47-8.9,13.63,4.49,25.78,11.05,38.71,15.79,6.63,2.43,13.21,5.14,20.33,5.8,7.7,.72,10.76-3.63,7.7-10.83-2.13-5.02-5.87-8.81-9.91-12.27-10.38-8.91-22.17-15.74-33.96-22.55-2.32-1.34-4.68-2.59-7.02-3.88,1.23-1,2.06-.97,2.88-1,19.09-.67,38.19,1.11,57.27-.4,10.23-.81,20.5-1.59,29.83-6.46,2.64-1.38,5.71-2.9,5.42-6.51-.3-3.84-3.85-4.4-6.68-4.93-8.68-1.62-17.41-3.01-26.15-4.29-20.74-3.04-41.12-7.17-59.13-18.79-1.44-.93-3.84-1.58-3.57-3.45,.29-2.03,2.88-1.66,4.46-1.91,14.66-2.32,29.38-4.27,44.01-6.75,23.38-3.95,46.55-8.83,68.23-18.94,2.77-1.29,7.51-2.15,6.88-5.48-.66-3.45-5.39-2.27-8.36-2.3-15.2-.17-30.41,.35-45.6-.72-14.64-1.02-28.96-4.15-43.51-6.21,.54-2.01,1.88-2.17,2.98-2.64,13.83-5.95,27.05-13.05,39.69-21.22,13.22-8.55,26.39-17.17,37.08-28.96,1.67-1.84,3.53-3.92,2.19-6.59-1.35-2.68-4.16-2.22-6.61-2.1-1.05,.05-2.09,.32-3.13,.51-13.19,2.4-25.27,7.85-37.18,13.69-19.19,9.41-38.02,19.64-58.77,25.41-2.64,.74-6.56,2.51-7.92,.25-1.53-2.54,2.5-4.33,4.2-6.37,.67-.81,1.57-1.42,2.35-2.14,15.34-13.9,30.46-28.02,43.81-43.88,9.45-11.23,18.69-22.65,25.4-35.82,1.86-3.65,3.65-7.82-.07-11.26-3.6-3.33-7.76-1.52-11.39,.33-5.59,2.84-9.99,7.29-14.22,11.8-9.81,10.43-19.46,21.02-29.17,31.54-16.88,18.3-35.08,34.94-57.88,45.74-2.79,1.32-5.5,3.16-9.18,2.65,.76-3.8,2.86-6.65,4.66-9.6,14.59-23.99,25.86-49.44,33.66-76.42,1.08-3.74,2.01-7.54,1.77-11.47-.18-2.92-.96-5.77-3.83-7.1-3.1-1.44-5.86-.13-8.24,1.99-4.03,3.59-6.94,8.02-9.24,12.83-5.26,11-10.36,22.07-15.57,33.09-7.77,16.44-19.97,28.56-36.2,36.61-6.62,3.28-13.66,5.34-21.32,6.95,.24-1.29,.23-2.02,.52-2.6,1.28-2.52,2.58-5.03,3.99-7.48,14.82-25.77,28.76-51.96,38.51-80.16,2.37-6.87,4.27-13.86,4.02-21.24-.1-2.88-.3-5.92-3.33-7.28-2.96-1.33-5.92-.55-8.53,1.25-4.38,3.02-6.88,7.55-9.21,12.12-6.83,13.38-13.75,26.71-20.24,40.26-11.39,23.79-23.74,47-39.21,68.45-2.95,4.09-6.45,6.58-11.34,7.94-22.79,6.36-46.2,8.45-69.61,10.62-16.89,1.57-33.94,1.06-50.7,4.21-18.18,3.41-35.06,9.3-48.71,22.68-14.46,14.16-20.45,41.03-.48,60.09,14.55,13.88,31.69,23.06,50.8,28.53,27.61,7.91,55.56,9.38,83.93,3.94,12.87-2.47,26.07-2.9,38.99,.27,14.42,3.54,20.71,11.91,20.58,26.67-.06,6.92-1.09,13.74-2.78,20.44-8.44,33.64-25.06,63.26-45.08,91.16-12.16,16.94-24.85,33.51-35.94,51.21-20.93,33.4-34.54,69.91-45.57,107.51-14.26,48.61-18.54,97.76-8.47,147.78,2.23,11.09,7.1,21.62,7.69,32.98,1.38,26.3,4.38,52.48,5.37,78.83,.53,14.16,4.16,28.03,12.91,39.77,4.57,6.12,8.29,5.53,11.7-1.31,.66-1.31,.56-3.15,3.14-2.18,4.26,1.6,7.08-.86,9.3-4.16,4.13-6.15,6.16-13.06,7.14-20.32,.75-5.54,1.44-11.09,2.15-16.64,1.25,8.77,1,17.44,1.33,26.08,.23,5.98,1.1,11.96,2.01,17.89,.5,3.25,2.09,6.19,5.76,6.84,3.51,.61,5.34-2.05,7.38-4.29,1.27-1.4,1.2-3.68,3.13-4.61,7.32,9.5,10.76,9.31,16.18-1.15,5.07-9.78,8.85-19.99,10.06-31.09,1.73-15.83,2.79-31.7,3.4-47.6,.15-3.83,1.29-4.43,4.67-3.36,11.48,3.64,23.23,6.29,35.22,7.43,25.69,2.44,51.38,5.1,77.13,6.64,10.26,.61,18.22,3.65,24.85,11.4,2.36,2.76,3.59,5.18,3.43,8.85-.43,9.85-.24,19.74,1,29.53,1.25,9.92,4.35,18.8,7.15,28.27,10.69,.04,21.38,.07,32.07,.01,2.7-.01,6.36,1.46,7.92-1.2,1.76-3-1.55-5.5-3.09-7.87-5.64-8.7-10.46-17.69-11.37-28.22-.38-4.37-1.91-7.16,3.87-7.12,6.36,0,12.73,.09,19.09,.13,2.98,.02,6.13-.24,9.06,.19,2.88,.41,5.58,1.7,8.55,1.54,.53-.03,.92,.16,1.17,.46,.91,.34,1.5,1.38,2.04,2.24,2.49,3.93,3.85,8.31,5.15,12.73,2.43,8.3,4.59,16.7,9.48,24.06,1.03,1.55,1.79,2.89,3.95,2.89,15.38,0,30.77,.38,46.14,.02,8.07-.19,11.23-5.35,8.94-13.11-1.41-4.78-4.04-9-6.6-13.25-3.89-6.45-7.89-12.85-11.28-20.68,4.24,.46,7.53,.8,10.81,1.17,17.76,1.98,35.54,3.16,53.45,2.65,28.3-.81,50.99-12.18,68.81-34.17,21.43-26.44,36.07-55.99,43.27-89.31,6.94-32.11,7.43-64.14-.19-96.19-.82-3.46-1.98-6.82-4.15-9.68-3.23-4.25-6.87-4.06-9.66,.43-2.11,3.39-2.8,7.21-3.3,11.09-1.13,8.8-.36,17.67-.84,26.49-1.46,26.73-11.77,49.79-30.4,68.74-15.25,15.51-35.03,22.8-55.87,27.39-25.12,5.53-47.8,1.68-66.42-17.54-1.59-1.65-3.43-3.06-5.17-4.56-26.49-22.99-55.46-42.05-88.22-54.95-21.04-8.28-42.94-12.95-65.47-14.56-4.39-.31-5.4-1.45-3.25-5.67,6.1-11.97,12.22-23.93,19.57-35.19,6.02-9.22,13.12-17.49,21.47-24.74,13.55-11.76,28.43-10.34,43.27-3.97,13.3,5.7,17.8,17.29,17.74,31.12,0,2-.68,4.65,1.56,5.79,2.6,1.32,4.14-1.21,5.87-2.56,10.78-8.42,23.2-4.33,26.77,8.98,.87,3.23,.94,6.67,1.79,9.9,.76,2.88-.79,8.02,2.97,8.09,3.93,.07,3.28-5.11,3.84-8.19,1.65-9.03,4.2-17.43,11.61-23.72,13.41-11.38,42.24-18.72,61.05,.34,3.1,3.14,6.3,6.19,9.36,9.37,7.05,7.33,9.26,6.88,12.8-2.66,2.46-6.65,6.46-12.18,12.37-16.15,6.16-4.13,13.52-5.78,20.46-6.87,8.43-1.32,15.79,2.7,20.83,10.11,1.14,1.68,2.17,4.09,4.66,3.86,2.7-.25,2.68-3,3.3-4.89,1.77-5.36,4.97-9.7,8.88-13.64,5.96-6,13.39-9.59,20.92-13.03-16.9,1.12-27.64,10.96-35.03,26.4-1.52-4.26-.28-6.89,.83-9.4,7.37-16.7,21.53-23.63,38.51-25.85,5.67-.74,12.1,.63,15.96,4.5,5.6,5.61,12.05,3.52,19.25,5.61-4.36-8.51-8.2-15.64-11.69-22.94-4.16-8.69-6.94-17.59-5.71-27.59,2.36-19.22,12.02-33.65,27.76-44.32,3.82-2.59,4.86-4.9,1.62-8.96-4.07-5.09-9.5-9.01-12.49-15.02-5.36-10.77-10.1-21.65-10.9-33.92-.36-5.62,.32-10.84,2.43-16.05,3.29-8.13,10.31-13.37,15.32-20.16,.76-1.03,2.29-2.03,3.69-.81,1.22,1.06,.94,2.61,.41,3.96-1.02,2.6-3.45,3.97-5.36,5.76-11.78,10.98-20.9,31.13-8.67,49.77,3.78,5.76,6.84,11.97,12.13,16.6,4.88,4.26,6.56,11.45,13.87,13.75,3.13,.98,3.17,4.45-.91,5.98-2.64,.99-5.22,2.17-7.86,3.18-17.75,6.77-25.04,21.2-28.3,38.59-.03,.14,.39,.37,1.21,1.09,6.35-26.66,26.54-37.41,51.55-43.65-2.56-1.58-3.71-2.39-4.94-3.03-12.46-6.44-21.87-16.05-28.91-28.04ZM136.4,188.27c-4.2,2.56-8.95,3.15-13.69,3.5-3.49,.26-7.02,.05-11.41,.05,3.67-7.47,8.44-12.89,15.29-16.28,2.21-1.09,4.68-1.6,7.21-1.04,3.3,.73,5.97,2.25,6.67,5.9,.7,3.66-1.12,6.07-4.06,7.86Zm100.93,44.93c-8.75,15.07-31.79,20.37-46.22,10.62-.69-.47-1.26-1.11-2.94-2.6,27.89,5.38,39.48,1.23,50.04-17.15,1.26,3.86,1.07,5.78-.88,9.14Zm63.17,388.86c-.06,6.2-4.25,10.75-9.91,10.76-6.65,0-12.44-6.59-12.23-13.94,.18-6.27,4.32-10.79,9.92-10.82,6.52-.04,12.29,6.57,12.22,14Zm-24.15-185.25c-2.68-1.55-3.36-4.11-2.86-6.85,.96-5.34,3.92-9.44,8.76-11.92,5.26-2.69,9.12,0,8.75,6.69-.63,4.4-2.88,8.63-7.2,11.64-2.39,1.66-4.87,1.93-7.44,.44Zm15.01-257.89c3.09-11.06,14.18-20.28,26.26-21.77,1.92-.24,3.87-.28,4.82-.34,21.52,.33,36.34,18.96,31.15,37.93-1.39,5.09-4.14,9.31-8.23,12.66-11.3,9.27-32.15,9.61-43.61,.7-9.17-7.14-13.32-18.76-10.4-29.19Zm-16.66,165.43c.77-1.95,2.59-1.37,3.13-1.41,3.8,.2,6.63,.25,9.43,.52,1.59,.15,3.84-.45,3.96,2.28,.1,2.27-1.14,3.86-3.28,4.16-4.34,.59-8.38-.62-12.11-2.83-.97-.58-1.57-1.6-1.14-2.71Zm-1.34,14.81c.22-1.49,2.16-1.47,3.56-1.57,.87-.07,1.76-.25,2.62-.14,1.91,.23,5.16-1.09,5.29,1.54,.14,2.99-3.17,3.1-5.77,3.27-.75-.09-1.64-.11-2.48-.32-1.54-.38-3.48-.91-3.21-2.77Zm6.33,10.75c-3.77,1.93-7.53,2.49-11.22-.28,3.85-1.81,7.53-.93,11.22,.28Zm-41.63,54.21c.46-.87,1.53-.78,2.34-.53,4.25,1.31,8.61,2.35,12.32,5.19-4.9,1.38-9.22-.13-13.42-2.2-.94-.46-1.88-1.26-1.25-2.46Zm15.87,79.89c-2.24,1.79-4.86,2.24-7.37,.74-2.71-1.61-3.6-4.29-2.97-7.29,.91-4.32,3.4-7.66,7.03-10.11,2.15-1.45,4.58-2.13,6.93-.72,2.23,1.33,2.16,3.84,2.39,5.96-.39,4.77-2.42,8.55-6.01,11.43Zm7.95,51.68c-.34,3.45-1.35,6.99-5.43,7.15-3.65,.14-4.26-3.38-4.2-6.18,.07-3.35,.68-7.33,4.93-7.52,3.79-.17,4.38,3.35,4.7,6.55Zm-8.72-84.5c-3.26-.23-5.03-2.46-4.85-5.76,.21-3.88,2.77-5.72,6.34-5.5,3.4,.22,4.57,2.82,4.58,6.19-.57,3.25-2.61,5.3-6.07,5.06Zm-49.03,.48c.26-1.21,1.58-1.28,2.62-1.2,4.53,.34,8.96,1.07,14.02,4.57-5.95,.66-10.38,.17-14.73-1.22-.97-.31-2.17-.93-1.91-2.14Zm17.58,126.74c-4.25-.03-7.56-3.69-7.65-8.45-.13-6.54,5.7-13.24,11.73-13.47,4.52-.17,7.77,3.41,7.89,8.67,.13,6.32-6.16,13.29-11.96,13.26Zm8.76,213.46c-.53,2.67-.35,6.53-3.88,6.96-2.53,.31-2.31-2.99-2.25-4.97,.08-2.72-.16-6.29,3.3-6.81,2.64-.4,2.73,2.5,2.82,4.81Zm-6.49-267.74c-4.58,0-8.05-4.08-7.96-9.36,.11-6.25,6.25-12.82,11.89-12.73,4.56,.08,7.62,3.7,7.6,8.98-.03,6.31-6.01,13.1-11.53,13.1Zm-32.57-53.16c.25-.65,1.24-1.32,1.98-1.42,6.42-.85,12.32,.84,17.99,3.87-6.27,1.25-12.4,.59-18.51-.65-.89-.18-1.82-.86-1.45-1.8Zm-5.42,17.39c5.45-.64,10.53,.36,15.12,3.67-5.15,1.24-10.21,.97-15.24-.25-.86-.21-1.71-.76-1.64-1.77,.06-.96,.89-1.55,1.76-1.65Zm5.84,27.49c-5.69,1.51-10.73,1.45-16.49-.45,5.56-3.32,12.08-3.13,16.49,.45Zm-7.84,21.03c-4.72,1.46-9.35,1.74-13.79-.83,4.7-1.96,9.29-1.42,13.79,.83Zm-17.09,16.51c3.43-2.19,12.44-1.51,16.74,1.54-5.5,1.88-11,1.28-16.27,2.09-.93,.14-1.92-.31-2.09-1.2-.22-1.13,.73-1.86,1.63-2.43Zm15.81,18.55c-6.82,2.77-13.7,5.07-21.21,3.79,6.28-5.39,13.79-4.44,21.21-3.79Zm-25.23,20.79c8.69-1.59,17.4-2.89,26.27-1.36-8.17,2.99-16.54,4.36-25.14,4.34-1.08,0-2.2-.42-2.42-1.62-.07-.38,.77-1.26,1.29-1.36Zm-1.52,16.54c.09-.54,.76-1.23,1.31-1.4,8.82-2.78,17.74-3.71,26.91-.92-8.59,3.13-17.36,4.85-26.5,3.91-.77-.08-1.9-.45-1.72-1.59Zm.59,19.31c7.44-3.6,15.29-4.77,23.42-4.27,1.21,.07,2.57,.53,2.55,2.11-.02,1.07-1.14,1.28-1.95,1.38-7.94,.94-15.85,2.52-24.01,.79Zm4.77,16.53c-.25-1.26,.63-1.98,1.6-2.43,7.47-3.45,15.37-4.85,23.55-4.85,.88,0,1.91,.12,2.03,1.2,.11,1.04-.86,1.5-1.68,1.7-7.66,1.94-15.17,4.48-23.02,5.61-1.09,.12-2.2,.16-2.48-1.23Zm5.62,148.06c-2.48,.18-2.97-2.03-3.24-3.95-.18-1.31-.51-2.88,1.41-3.41,2.26,.4,3.15,2.07,3.52,4.04,.27,1.46-.11,3.2-1.69,3.32Zm6.91,15.47c-2.8-.51-1.58-3.43-2.55-4.68,.1-1.59-.11-3.64,1.23-3.33,2.51,.58,2.67,3.28,3.04,5.45,.21,1.23-.22,2.84-1.72,2.56Zm3.98-8.97c-2.1-.36-2.48-2.3-2.53-4.13-.03-1.13-.47-2.58,1.38-2.95,2.09,.77,2.83,2.47,2.95,4.53,.08,1.3-.15,2.82-1.8,2.55Zm-3.4-21.77c3.48,2.19,4.6,4.25,3.97,7.11-.16,.73-.87,1.26-1.54,.77-2.38-1.75-2.16-4.34-2.43-7.89Zm13.17,28.19c-1.73-.45-2.58-1.78-2.67-3.54-.06-1.26,.52-2.01,1.92-1.92,1.71,.57,2.52,1.85,2.56,3.59,.03,1.13-.36,2.25-1.82,1.87Zm.55-8.12c-2.13-.65-2.7-2.66-2.9-4.63-.12-1.23,.74-1.89,2.1-1.87,2.11,.63,3,2.22,3.02,4.35,0,1.4-.66,2.63-2.22,2.15Zm.82-14.05c-2.38-.59-2.9-2.7-3.02-4.84-.06-1.03,.02-2.5,1.34-2.27,2.56,.44,3.11,2.87,3.98,4.48-.19,1.81-.9,2.98-2.3,2.64Zm24.25-46.01c-.01,2.4-.93,3.79-3.59,2.61-20.04-8.9-36.31-21.33-40.4-44.57-1.82-10.36,.55-20.03,6.98-28.47,4.58-6.02,10.64-9.22,18.37-8.29,7.52,.91,11.19,6.28,13.48,12.67,5.26,14.69,5.73,30.05,5.16,45.42,0,6.87,.02,13.75-.01,20.62Zm8.55-127.43c4.17-.1,7.45,2.66,7.55,6.38,.12,4.16-3.13,7.28-7.82,7.44-4.2,.15-7.32-1.4-7.86-5.91-.48-3.99,3.62-7.8,8.13-7.91Zm-5.24,195.42c1.75,.04,2.38,1.28,2.36,2.88-.02,1.48-.23,2.86-2.06,3.14-2.1-.13-2.67-1.65-2.79-3.28-.12-1.61,.77-2.78,2.49-2.74Zm1.38,19.78c-2.67-.16-3.15-2.52-3.09-4.71,.06-2.32,.34-5.01,3.42-4.93,2.79,.07,2.85,2.58,2.9,4.89-.35,1.99,.2,4.96-3.23,4.75Zm3.52-35.32c-.25,2.32,.06,5.98-2.94,5.98-3.12,0-1.56-3.6-2.2-5.52,.66-2.11-.36-5.5,2.71-5.53,2.56-.03,2.64,3,2.42,5.08Zm3.44,22.45c-2.2,.13-3-1.52-3.1-3.4-.08-1.59,.15-3.47,2.19-3.5,2.3-.04,2.45,2.04,2.78,3.82,0,1.37,0,2.98-1.87,3.08Zm4.99,12.25c-1.97-.39-2.47-2.28-2.44-4.09,.02-1.21,.37-2.42,2.03-2.63,1.95,.73,2.11,2.47,2.14,4.21,.02,1.2-.09,2.84-1.73,2.51Zm3.61-11.64c-3.17-.04-2.94-2.8-3.36-4.95,.22-1.45-.32-3.76,1.95-3.46,2.69,.35,3.01,3.05,3.29,5.27,.18,1.39-.11,3.17-1.88,3.14Zm4.64-17.29c.02,2-.93,3.53-2.96,3.55-2.32,.02-1.86-1.98-1.92-3.33,.35-2.07,.64-4.37,3.17-4.07,1.93,.22,1.7,2.31,1.72,3.85Zm-8.92-371.43c-.77-.27-1.78-.73-1.33-1.79,.2-.47,1.15-.98,1.66-.9,4.01,.65,8.19,.9,12.45,4.5-5.24,.82-9.02-.49-12.78-1.8Zm12.62,386.4c-2.17-.11-2.47-2.12-2.65-3.86-.16-1.57,.41-2.95,2.25-2.62,1.92,.35,2.02,2.08,2.02,3.69-.14,1.19-.04,2.87-1.61,2.78Zm4.1-9.62c-.35,.64-1.22,.63-1.87,.23-2.51-1.59-2.98-4.14-3.15-6.82,.14-1.89-.26-4.64,1.83-4.99,2.62-.44,2.98,2.53,3.44,4.43,.57,2.34,1,4.85-.25,7.15Zm2.59-128.24c-5.76-.2-10.02-4.31-9.88-9.51,.14-5.21,4.3-8.89,9.88-8.75,5.76,.14,10.28,4.22,10.24,9.25-.04,5.28-4.51,9.21-10.25,9.01Zm4.49-37.05c-3.68-.39-6.94-1.42-6.76-5.85,.18-4.44,3.46-5.93,7.29-6.07,3.59-.13,6.39,1.41,6.38,5.44,0,4.42-3.1,5.96-6.92,6.48Zm1.14-45.51c-3.95-.06-6.72-3.56-6.72-8.47,0-6.09,4.3-11.89,8.87-11.99,3.81-.08,6.59,3.48,6.68,8.53,.1,6.1-4.26,12-8.82,11.93Zm9.9-204.32c-4.34-.45-8.39-1.55-12.32-5.6,5.42-.37,9.16,1.56,13.01,2.85,.55,.18,1.26,.98,1.25,1.49-.02,1.06-1.04,1.36-1.94,1.27Zm-3.48-20.68c5.28-.78,6.28-.59,9.94,1.85-5.29,1.83-7.31,1.45-9.94-1.85Zm16.77,328.03c-2.64-.45-5.4-1.03-5.58-4.38-.18-3.32,2.44-3.96,5-4.01,2.83-.05,5.48,.95,5.65,4.18,.16,3.13-2.45,3.84-5.07,4.2Zm5.1-33.38c.15-3.84,2.38-5.78,6.14-5.59,4.08,.21,6.34,2.53,6.71,6.42-.32,3.72-2.17,5.79-5.65,6-3.86,.23-7.34-3.11-7.19-6.83Zm13.58,61.63c-4.02-.14-6.75-2.35-6.96-6.45-.19-3.81,2.3-5.89,5.96-5.86,4.01,.03,6.58,2.13,6.93,6.54-.27,3.56-2.07,5.91-5.94,5.77Zm63.02-75.14c3.66,.23,6.41,2.26,6.48,6.34,.06,3.49-2.16,4.96-5.63,5.17-3.68-.39-6.12-2.41-6.24-6.36-.11-3.44,2.18-5.35,5.39-5.15Zm-31.63-25.51c6.82,0,13.53,7.02,13.66,14.28,.1,5.81-3.74,9.79-9.41,9.76-6.87-.04-13.57-6.61-13.79-13.54-.19-5.78,4.1-10.5,9.54-10.5Zm-18.73,53.26c.04-5.09,4.83-9.84,9.92-9.83,5.29,.02,9.59,4.5,9.57,9.98-.02,5.32-4.53,9.56-10.04,9.42-5.07-.12-9.49-4.61-9.45-9.58Zm18.57,45.61c-4.6-.12-8.44-3.28-8.54-7.04-.11-4.35,4.61-8.27,9.92-8.25,5.1,.02,8.83,3.09,8.76,7.22-.07,4.32-4.95,8.2-10.14,8.07Zm16.61,30.94c-4.44,.12-8.2-3.12-8.03-6.91,.17-3.9,2.42-6.1,6.29-6.42,4.27-.35,8.16,3.13,8.02,7.21-.14,4.13-2.93,5.64-6.28,6.12Zm5.98-62.4c-.02-4.15,3.77-7.63,8.4-7.7,4.43-.07,7.73,2.77,7.86,6.76,.14,4.21-3.52,7.52-8.36,7.58-4.54,.06-7.87-2.74-7.89-6.64Zm14.82,41.46c-4.05,.08-6.28-2.6-6.29-6.37-.01-3.83,2.83-5.38,6.38-5.72,3.63,.43,6.14,2.2,6.01,6.06-.13,3.66-2.42,5.97-6.1,6.04Zm340.49-130.3c2.41,.1,2.64,2.36,2.6,4.35-.04,1.66-.42,3.15-2.52,3.34-2.05-.46-2.65-2.02-2.68-3.88-.03-1.85,.52-3.89,2.6-3.8Zm-1.32,25.16c1.77-.13,2.27,1.3,2.57,2.74-.17,1.92-.88,3.54-3.04,3.58-1.63,.03-2.52-1.32-2.59-2.79-.1-1.99,1-3.39,3.06-3.53Zm-6.15,20.34c2.45-.28,3.45,1.23,3.82,3.4-.25,2.36-1.39,4.14-3.83,4.31-2.41,.16-3.41-1.62-3.43-3.78-.03-2.22,1.17-3.68,3.44-3.94Zm-3.85,25.01c2.43-.09,3.8,1.4,4.09,3.75-.34,2.6-1.62,4.49-4.22,4.61-2.41,.11-3.86-1.48-3.93-3.93-.08-2.69,1.41-4.33,4.06-4.43Zm-15.05-.65c2.36-.18,4.13,1.15,3.89,3.78-.3,3.35-2.41,5.21-5.52,5.87-2.54-.25-4.32-1.43-4.09-3.92,.31-3.28,2.37-5.48,5.72-5.73Zm-9.94,27.94c2.23-.17,4.18,.64,4.6,3.45-.26,2.78-2.17,4.21-4.8,4.55-2.49,.32-4.88-.67-5.07-3.37-.22-3.3,2.48-4.43,5.26-4.64Zm-29.65,22.21c.23-4.14,3.15-6.28,7.05-6.41,3.65-.13,6.19,2.03,6.08,5.77-.12,4.18-3.07,6.02-7.03,6.42-3.51-.38-6.32-1.82-6.1-5.78Zm2.03,28.06c-.01,6.6-6.27,12.5-13.25,12.48-5.44-.01-9.19-3.53-9.28-8.71-.12-6.95,6.54-13.92,13.33-13.96,5.25-.03,9.21,4.36,9.2,10.18Zm-23.91-29.53c3.67,.14,6.22,1.93,5.92,5.81-.34,4.48-3.66,5.98-7.14,6.34-3.99-.08-6.31-1.58-6.53-5.23-.22-3.7,3.6-7.08,7.75-6.92Zm-116.39,87.27c.06-1.38,.47-2.78,.96-4.08,.91-2.43,2.39-2.4,3.84-.49,.73,.96,1.34,2.11,1.67,3.27,3.4,11.73,5.65,23.64,5.41,37.54-8.7-11.67-12.45-23.27-11.89-36.24Zm5.87-43.57c-3.57,.1-5.79-1.85-5.69-5.4,.11-4,2.6-6.63,6.57-6.9,3.52-.24,5.31,2.15,5.76,5.65-.48,3.88-2.39,6.52-6.64,6.65Zm91.93,4.37c.23,3.36-3.02,6.34-6.98,6.32-3.36-.02-5.92-1.34-6.28-5.02-.3-3.06,3.49-6.4,7.47-6.51,2.83,.39,5.53,1.39,5.79,5.21Zm-14.67-31.87c5.65,.09,9.74,3.87,9.68,8.95-.06,5.6-5.94,10.87-12.15,10.9-5.46,.02-10.17-4.34-10.09-9.36,.08-5.32,6.39-10.59,12.56-10.49Zm-45.48-1.15c.57-4.07,3.43-6.02,7.36-6.21,3.9-.19,7.09,2.78,6.89,6.38-.24,4.43-3.26,5.85-6.63,6.09-4.56-.09-8.08-2.99-7.62-6.27Zm.64,22.4c4.89-.24,8.85,2.83,8.96,6.93,.12,4.43-4.7,8.48-10.24,8.61-4.77,.11-8.32-2.82-8.33-6.87-.01-4.42,4.42-8.42,9.61-8.67Zm-2.65,83.5c.18,.29,.23,.66,.37,1.08-.33,1.97-1.67,1.36-2.69,.78-6.59-3.72-11.81-8.87-15.65-15.39-.53-.89-.97-2.02,0-2.91,.76-.71,1.67-.25,2.43,.18,6.86,3.81,11.47,9.78,15.55,16.25Zm-15.26-115.37c-.11,5.19-4.72,9.61-9.95,9.55-4.76-.06-8.27-3.63-8.24-8.39,.03-5.19,4.6-9.83,9.69-9.84,5.06,0,8.62,3.63,8.5,8.68Zm-16.19-45.13c6.13,.38,10.33,4.68,9.86,10.09-.43,4.98-5.59,8.66-11.68,8.34-5.52-.3-9.88-4.42-9.69-9.17,.21-5.27,5.6-9.61,11.5-9.25Zm-116.71,72.78c-4.13-.1-8.44-4.24-8.17-8.06,.28-3.91,2.6-5.99,6.53-6.04,4.31-.06,8.13,3.8,8.07,8.47-.52,3.27-2.3,5.73-6.43,5.63Zm13.89-22.42c-4.95-.09-9.21-3.93-9.23-8.33-.02-4.84,4.24-8.84,9.33-8.75,5.05,.09,8.66,3.7,8.65,8.67-.01,5.11-3.55,8.51-8.75,8.42Zm13.43,94.69c-.34-.79-.84-1.71,.07-2.39,1.29-.97,2.37,0,3.3,.71,6.33,4.87,10.45,11.22,12.09,19.32-7.35-3.94-12.23-10.07-15.46-17.64Zm66.91-161.04c2.56,.03,5.22,.97,5.22,4.04,0,2.98-2.39,3.99-5.23,4.17-2.71-.24-5.43-1.08-5.35-4.4,.07-3.07,2.83-3.85,5.36-3.82Zm-1.51,50.7c3.75-.01,5.57,2.5,5.95,6.2-.63,3.45-2.57,5.91-6.23,5.94-3.61,.03-6.1-2.05-6.08-5.86,.03-3.96,2.5-6.27,6.36-6.28Zm-13.49,79.35c-1.76-.02-3.53,0-5.29,0-18.25-.21-35.3-4.01-49.98-15.74-3.45-2.76-3.6-4.06,.42-6.3,23.13-12.88,47.32-6.43,58.72,15.87,3.02,5.9,2.8,6.24-3.88,6.17Zm.09-108.22c-.08,5.81-5.89,10.71-12.82,10.81-6.38,.09-11.59-4.25-11.7-9.74-.11-5.97,5.83-10.91,13.17-10.95,6.69-.04,11.42,4.08,11.35,9.88Zm-18.6-41.02c3.24-.07,6.1,1.34,6.25,4.96,.17,4.06-2.96,5.06-6.3,5.47-3.32-.33-6.7-.86-6.54-5.12,.15-3.89,3.22-5.23,6.59-5.3Zm-6.6,74.17c-.02,4.97-4.28,9.07-9.2,8.84-4.68-.21-8.59-3.97-8.63-8.3-.04-5.13,4.29-9.52,9.33-9.44,4.81,.07,8.53,3.96,8.51,8.9Zm-11.24-41.94c.13,4.79-4.57,9.04-10.27,9.29-5.23,.23-9.98-3.46-10.19-7.9-.22-4.69,5.06-9.11,10.98-9.19,5.41-.07,9.35,3.17,9.48,7.8Zm-19.95-44.99c4.26-.14,7.93,2.96,7.81,6.31-.14,3.81-2.59,5.77-6.18,5.76-3.74,0-6.51-1.95-6.74-5.93-.23-3.81,2.26-5.61,5.11-6.14Zm-15.49,15.62c4.54-.02,8.83,4.18,8.9,8.7,.07,4.69-3.96,8.52-8.89,8.46-4.76-.06-8.47-3.64-8.52-8.21-.06-4.77,3.89-8.92,8.51-8.95Zm-7.27,38.11c4.07,.14,6.78,3.09,6.64,7.22-.14,4.1-3.83,7.42-8.1,7.28-4.01-.13-7.15-3.23-7.06-6.97,.1-4.2,4.05-7.68,8.53-7.53Zm88.67-189.99c1.89,0,3.44,.6,3.87,2.68-.11,1.75-1.17,2.66-2.73,2.56-1.92-.12-4.04-.53-4.11-3.05-.05-1.8,1.49-2.18,2.97-2.19Zm-1.59,26.44c2.25,.22,3.98,1.23,4.64,3.49-.19,1.34-.97,2.04-2.15,1.84-2.19-.37-4.04-1.49-4.57-3.76-.33-1.39,1.01-1.67,2.08-1.57Zm-16.86-42.07c2.66,.8,5.93,1.26,5.66,4.99-.18,2.54-2.46,3.33-4.77,2.86-2.6-.53-5.44-1.29-5.42-4.69,.02-2.78,2.19-3.24,4.53-3.16Zm-31.24,11.16c1.86,.15,3.97,.39,4.04,2.59,.07,2.27-2.13,2.59-3.87,2.67-1.83,.09-3.85-.44-3.94-2.63-.1-2.37,2.01-2.49,3.77-2.64Zm-1.37,18.3c1.96,.05,3.26,1,3.65,3.01-.36,1.68-1.52,2.41-3.05,2.14-1.78-.31-3.44-1.19-3.32-3.34,.08-1.5,1.43-1.84,2.72-1.81Zm-4.97,18.44c-.07,2.27-2.34,2.36-4.07,2.21-1.81-.16-4.46,.07-4.56-2.45-.11-2.77,2.58-2.14,4.1-2.51,2.11,.32,4.61,.09,4.53,2.75Zm-11.61-19.42c2.33,.26,4.73,.96,4.49,3.93-.2,2.47-2.41,2.56-4.43,2.64-2.05-.43-4.31-.87-4.15-3.64,.14-2.38,1.96-3.17,4.09-2.93Zm20.45,29.61c-15.91,2.32-24.23,14.35-32.63,27.11,3.65-18.96,23.8-33.59,43.95-34.17,13.31-.39,21.56,7.31,30.23,15.5-12.32-10.84-26.83-10.58-41.55-8.43Zm56.61,24.65c-1.56-4.96-4.49-9.15-6.9-13.64-2.43-4.53-6.84-6.92-10.03-10.54,12.24,5.12,15.41,17.44,21.63,27.44-2.34-.24-4.1-1.39-4.69-3.25Zm6.48-77.19c-3.59-.05-8.58-4.09-8.32-6.73,.21-2.18,2.41-3.88,4.93-3.8,3.42,.11,7.89,4.01,7.65,6.83-.22,2.48-1.74,3.73-4.25,3.7Zm105.65-63.99c2.57,.62,4.42,1.84,4.54,4.56,.08,1.78-.71,3.23-2.77,3.03-2.27-.23-4.18-1.45-4.54-3.77-.29-1.88,.87-3.3,2.77-3.82Zm-3.32,21.24c1.96-.19,2.72,1.24,3.15,2.59,.02,2.16-.88,3.41-2.7,3.6-1.77,.19-3.24-.73-3.43-2.55-.2-1.99,.9-3.44,2.98-3.64Zm-11.52-46.87c2.88-.28,6.8,3.74,6.83,6.94-.26,2.16-1.02,3.94-3.77,3.94-3.01,0-7.41-3.72-7.29-6.42,.11-2.6,1.64-4.21,4.24-4.46Zm.49,139.47c-2.52-.65-5.09-1.85-5.47-4.8-.2-1.54,1.37-2.2,2.99-2.23,2.38,.73,4.56,1.82,5,4.58,.27,1.68-.99,2.84-2.51,2.44Zm-3.09-103.18c3.11,.16,4.49,2.33,5.23,4.9-.26,1.92-.99,3.61-2.89,3.21-2.64-.56-4.94-2.1-5.24-5.14-.19-1.87,1.07-3.06,2.91-2.97Zm-4.07,21.7c1.79,.09,2.67,1.35,3.02,3.02-.22,1.52-.93,2.68-2.55,2.72-1.79,.04-3.01-1.14-3.19-2.77-.18-1.7,.77-3.06,2.72-2.96Zm-12.06-38.99c2.94,.77,5.49,2.47,5.97,6.11,.3,2.25-.73,3.79-3.23,3.87-2.85,.09-6.95-3.69-6.86-6.3,.07-2.14,1.59-3.65,4.12-3.68Zm-2.52,25.65c3.21,.42,5.66,2.15,5.79,5.67,.08,2.25-1.5,3.38-3.89,3.52-2.8-.89-5.67-2.19-5.99-5.59-.23-2.42,1.64-3.92,4.1-3.6Zm-3.34,90.14c-2.37-.15-4.63-.89-5.38-3.4-.5-1.69,.82-2.47,2.42-2.72,2.22,.59,4.53,1.19,5.11,3.83,.32,1.46-.7,2.38-2.15,2.29Zm-6.22-71.68c3.09,.36,5.11,2.18,5.41,5.18-.03,2.27-1.11,3.46-2.96,3.2-2.97-.42-5.46-1.91-5.8-5.19-.21-2.07,1.36-3.42,3.36-3.19Zm-8.45-32.38c3.4-.2,7.44,3.53,7.43,6.82,0,2.22-.96,3.67-2.71,3.81-3.68,.14-8.41-3.78-8.53-6.63-.11-2.58,1.35-3.86,3.82-4.01Zm2,116.83c-1.89,.07-3.51-.7-4.04-2.53-.41-1.42,.77-2.28,2.11-2.28,1.9-.01,3.21,1.02,3.79,2.81,.13,1.43-.71,1.96-1.85,2Zm-16.86-87.27c3.34,.55,5.89,2.23,6.39,5.71-.32,2.52-1.67,4.22-3.84,3.67-3.17-.8-6.78-1.87-6.93-6.09-.09-2.66,2-3.69,4.37-3.3Zm5.75,71.72c.08,1.48-1.32,1.89-2.83,1.86-1.62-.21-3.62-.32-4.05-2.47-.35-1.8,1.17-2.6,2.64-2.5,1.93,.13,4.1,.63,4.23,3.11Zm-26.28-27.12c-2-.52-4.32-1.26-4.21-3.84,.07-1.73,1.69-2.64,3.47-2.32,2.18,.39,3.85,1.52,4.22,3.9-.41,2-1.75,2.71-3.48,2.26Zm7.77,43.17c-1.74-.34-3.62-.85-4.07-2.81-.37-1.59,1.01-1.99,2.41-2.13,1.87,.46,3.8,1.1,3.94,3.46,.07,1.28-1.14,1.7-2.28,1.48Zm1.61-62.01c-2.71-.23-5.31-1.33-5.81-4.35-.4-2.41,1.54-3.24,3.66-3.53,2.82,.3,5.19,1.33,5.66,4.44,.37,2.46-1.32,3.63-3.5,3.44Zm4.24,103.06c.91-13.83,19.44-26.37,39.77-24.88-17.16,1.94-32.22,7.3-39.77,24.88Zm63.17-21.05c-12.61-11.76-42.47-15.33-56.99,1.19-2.59,2.95-4.43,6.29-6.46,10.3,.23-11.27,14.29-21.39,22.85-22.5,12.91-1.67,25.29,.06,37.33,4.92,9.05,3.65,15.29,10.12,20.72,19.85-7.74-3.82-12.41-9.09-17.44-13.77Zm60.17-220.28c2.94,.37,5.02,2.12,5.1,5.38,.06,2.53-1.37,4.62-4.18,4.34-3.43-.34-5.24-2.69-5.31-6.1-.06-2.65,1.59-3.71,4.4-3.61Zm6.21,46.93c-.29,2.18-1.02,4.22-3.41,3.97-2.87-.29-4.77-2.19-4.94-5.22-.14-2.42,1-4.3,3.62-4.09,3.1,.25,4.24,2.68,4.74,5.34Zm-12.06,30.23c1.81,.03,2.82,1.23,2.76,3.14-.33,1.79-1.28,2.97-3.22,2.66-1.63-.26-2.26-1.5-2.19-3.09,.08-1.67,1.1-2.73,2.64-2.71Zm-4.78,117.78c.07,1.46-.43,2.62-2,2.46-2.12-.22-3.55-1.62-4.03-3.63-.4-1.69,.72-2.79,2.36-2.72,2.35,.1,3.03,2.06,3.67,3.89Zm-6.12-128c-2.73-.03-4.09-1.95-4.2-4.49-.09-2.09,1.34-3.11,3.43-3.29,2.37,.39,3.73,1.87,3.84,4.25,.09,1.99-.98,3.56-3.06,3.53Zm-9.48-67.06c.16-.08,.32-.16,.48-.21,3.52-1.1,6.97-1.39,9.85,1.48,1.57,1.56,1.57,3.56,.64,5.4-1.82,3.56-5.04,4.68-9.07,4.62-3.15-.47-6.8-1.04-7.4-5.13-.55-3.74,2.86-4.81,5.5-6.16Zm-5.65,22.91c3.41,.15,6.88,3.88,6.53,7.1-.27,2.43-1.57,3.87-4.15,3.82-3.4-.07-7.39-3.6-7.34-6.47,.04-2.49,2.36-4.55,4.97-4.44Zm-10.07,35.42c-.15-2.18,1.1-3.89,3.39-3.86,2.96,.04,4.06,2.29,4.68,4.59-.28,2.33-.89,4.33-3.39,4.12-2.76-.23-4.49-2.09-4.68-4.85Zm2.39,134.76c0-1.76,1.64-2.87,3.36-2.41,3.08,.84,4.99,2.99,5.53,6.01-.32,2.06-1.6,2.57-3.09,2.13-2.9-.87-5.78-2.13-5.8-5.73Zm9.05,39.25c-.22,.84-.61,1.92-1.7,1.4-1.26-.6-1.56-2.08-1.1-3.2,2.77-6.69,6.43-12.66,13.7-15.35-4.83,5.02-9.08,10.28-10.9,17.15Zm8.21-18.26c4.6-7.37,15.84-8.85,24.96-3.93-8.52-2.01-16.77-2.04-24.96,3.93Zm26.5-19.51c-1.78-.08-2.89-1.15-3.15-2.88-.23-1.52,.24-2.75,2.11-3.01,1.84,.29,3.12,1.34,3.4,3.27,.24,1.68-.64,2.69-2.36,2.61Zm55.63-222.9c.07,1.7-.45,3.17-2.58,3.41-2.53-.32-3.49-2.12-3.67-4.39-.13-1.69,.42-3.37,2.51-3.3,2.59,.09,3.64,1.93,3.74,4.28Zm19.39,203.16c.28,1.36-.44,2.65-1.86,2.61-2.2-.06-3.49-1.64-3.78-3.7-.19-1.36,.89-2.19,2.31-2.48,1.95,.36,2.96,1.76,3.34,3.56Zm2.89-157.25c2.49-.14,3.63,1.65,3.92,3.92-.04,2.23-.81,4.14-3.15,4.06-2.3-.08-3.78-1.89-4.09-4.11-.32-2.28,1.21-3.76,3.32-3.88Zm-8.88,79.57c-1.84-.06-2.57-1.43-2.63-3.09-.04-1.29,.73-2.45,2.16-2.49,1.83-.06,3.01,1.14,3.14,2.84,.12,1.5-.81,2.61-2.67,2.74Zm-32.2,54.42c-2.73-.37-4.25-2.55-4.36-5.21-.09-2.11,1.07-3.91,3.51-3.6,2.82,.36,4.17,2.33,4.29,5.59-.05,1.81-1.13,3.53-3.44,3.22Zm1.23,24.1c-.49,1.81-1.1,3.46-3.11,3.02-2.25-.49-3.6-2.17-3.58-4.52,.02-1.57,1.11-2.73,2.72-2.52,2.34,.29,3.53,1.97,3.97,4.02Zm15.47-159.13c-2.25-.04-3.59-1.38-3.67-3.68-.07-2.03,.97-3.31,3.03-3.78,2.15,.39,3.37,1.69,3.52,3.92,.14,2.06-.63,3.58-2.88,3.54Zm6.92,78.83c.16,2.41-1.19,3.97-3.62,4.49-2.56-.62-3.98-2.24-4.05-4.86-.05-2.22,1.04-3.95,3.32-4.02,2.74-.08,4.18,1.83,4.35,4.39Zm-9.68-48.06c.13,2.03-.74,4.1-3.14,3.92-2.95-.22-4.73-2.23-4.69-5.24,.03-2.06,1.2-3.59,3.51-3.88,2.72,.66,4.15,2.58,4.32,5.2Zm-5.26,22.28c-.52,1.98-1.05,3.9-3.27,3.75-2.2-.14-3.54-1.65-3.28-3.93,.21-1.88,1.27-3.39,3.43-3.25,2.15,.14,2.76,1.82,3.12,3.42Zm-4.91,17.94c2-.15,2.5,1.57,2.87,3.06,.03,1.95-.77,3.29-2.64,3.46-1.86,.17-3.06-1-3.18-2.81-.13-1.98,.87-3.55,2.94-3.7Zm.31,77.38c2.03-.06,2.7,1.34,2.73,3.12,.03,1.43-.6,2.35-2.2,2.4-1.69-.33-2.95-1.23-2.89-3.11,.04-1.35,.95-2.36,2.35-2.4Zm.63-28.57c-1.4-.14-2.2-1.11-2.1-2.53,.12-1.79,1.08-2.88,2.98-2.99,1.57,.33,2.58,1.23,2.38,2.89-.22,1.81-1.4,2.82-3.26,2.63Zm2.17-26.77c.16-2.24,1.53-3.73,3.76-3.55,2.55,.21,3.56,2.21,3.34,4.55-.2,2.13-1.5,3.5-3.9,3.59-2.53-.46-3.37-2.25-3.2-4.59Zm9.06,56.57c1.72,.41,2.53,1.8,2.3,3.56-.17,1.29-.94,2.19-2.28,2.35-1.72-.64-2.77-1.77-2.67-3.52,.09-1.51,.88-2.81,2.65-2.38Zm.66-16.73c-.14-1.31,.74-2.44,2.17-2.45,2.06-.01,2.98,1.49,3.58,3.07-.22,1.75-1.08,2.88-2.66,2.9-2.23,.03-2.91-1.77-3.09-3.53Zm4.38-16.96c.07-1.88,1.38-3.51,3.4-3.29,2.52,.28,4.05,1.92,3.98,4.67-.18,2.25-1.21,3.77-3.64,3.48-2.76-.33-3.84-2.41-3.74-4.86Zm6.07-17.54c.15-1.62,1.22-2.4,2.84-2.45,1.65,.31,2.43,1.33,2.15,2.97-.25,1.49-1.07,2.7-2.77,2.49-1.63-.2-2.36-1.45-2.22-3.01Zm-.1-41.21c.13-1.77,1.03-3.17,2.9-3.01,2.01,.18,3.03,1.69,2.91,3.69-.1,1.74-.95,2.98-2.93,3.07-1.92-.51-3.05-1.67-2.89-3.75Zm3.41-70.31c-2.43-.07-4.17-1.37-4.08-3.87,.07-2.09,1.8-2.97,3.78-2.81,2.08,.18,3.75,1.03,3.87,3.4-.32,2.15-1.49,3.34-3.56,3.28Zm-3.51,27.02c2.81,.75,4.62,2.69,4.79,5.51,.14,2.24-1.26,4.38-3.74,4.24-3.2-.17-5.11-2.36-5.14-5.6-.02-2.44,1.67-3.71,4.09-4.16Zm-6.91-41.14c-1.79-.19-3.63-.91-3.44-3.1,.18-2.21,2.13-2.54,3.91-2.4,1.7,.14,2.88,1.1,2.93,2.95-.41,1.89-1.68,2.73-3.4,2.55Zm-5.69-35.11c-.3,1.99-1.4,3.28-3.43,3.09-1.97-.19-3.07-1.58-2.95-3.58,.13-2.06,1.55-3.1,3.48-3.08,2.21,.03,2.71,1.74,2.9,3.56Zm-4.96-23.04c1.47-.04,2.29,.75,2.22,2.26-.32,1.77-1.15,3.12-3.1,2.91-1.28-.13-2.41-1.03-2.36-2.45,.06-1.94,1.49-2.69,3.25-2.73Zm-7.05,73.38c-2.53,.11-3.81-1.66-4.08-4-.27-2.37,1.16-3.52,3.17-3.95,2.59,.3,4.2,1.59,4.34,4.03,.12,2.21-1.18,3.83-3.43,3.93Zm-.81-30.69c2.03-.15,3.34,.92,3.39,3.07,.04,1.84-1.05,2.83-2.59,3.27-1.97-.24-3.13-1.3-3.31-3-.19-1.71,.61-3.2,2.52-3.34Zm-6.54-24.17c2.87-.24,4.48,1.7,4.8,4.43,.31,2.57-.92,4.29-3.26,4.92-3.38-.34-5-2.25-5.27-5.12-.24-2.49,1.51-4.04,3.73-4.22Zm-.5,69.53c2.54-.02,3.51,1.92,3.91,4.11-.11,2.44-1.16,4.37-3.63,4.4-2.44,.03-3.66-1.86-3.78-4.22-.13-2.42,.89-4.27,3.5-4.29Zm-1.88,31.73c2.93,.1,4.07,2.22,4.69,4.46-.11,2.45-1.04,4.23-3.28,4.29-3.24,.09-4.51-2.3-4.78-5.1-.22-2.25,1.04-3.73,3.38-3.65Zm-5.41,42.09c1.42,.17,2,1.34,1.89,2.71-.14,1.65-1.12,2.48-2.79,2.5-1.4-.2-2.37-.96-2.21-2.4,.19-1.73,1.18-3.03,3.11-2.81Zm1.98,68.81c-.14,1.74-1.12,2.94-2.87,3.05-1.59,.1-2.62-.96-2.62-2.58,0-1.79,1.04-2.95,2.84-3.07,1.68-.11,2.47,.95,2.64,2.6Zm-6.74-199.57c1.72,.14,3.08,1.11,3.09,2.97,0,1.93-1.37,2.84-3.17,2.68-1.68-.15-2.98-1.02-3.15-2.97,.27-1.86,1.41-2.83,3.24-2.68Zm.51,22.1c-1.94,0-3.41-1.08-3.56-3.16-.13-1.79,1.19-2.37,2.72-2.57,1.87,.1,2.98,1.14,3.23,2.91,.24,1.71-.78,2.81-2.39,2.82Zm-1.95,13.55c2.76-.04,4.57,1.44,4.84,4.12-.3,2.93-1.65,4.69-4.37,4.49-2.62-.19-4.82-1.63-4.94-4.51-.11-2.77,1.98-4.07,4.47-4.11Zm-1.33,29.43c3.28,.05,4.88,2.4,5.17,5.55,0,2.9-1.06,5.02-4.21,4.92-3.18-.1-5.43-1.76-5.53-5.16-.09-3,1.41-5.36,4.57-5.31Zm-12.93-40.77c-.27-1.82,1.05-2.49,2.52-2.57,1.66-.08,3.03,.61,3.48,2.43,.02,1.75-1.04,2.54-2.58,2.57-1.65,.04-3.15-.54-3.42-2.44Zm2.64,77.36c.26-2.13,1.45-3.62,3.8-3.33,2.04,.25,2.92,1.82,2.87,3.71-.05,2.23-1.46,3.36-3.35,3.72-2.47-.51-3.6-1.89-3.33-4.11Zm4.83,145.29c-2-.05-3.09-1.4-3.48-3.24-.37-1.7,.81-2.03,2.27-2.08,1.72,.21,3.36,.75,3.43,2.97,.04,1.38-.8,2.38-2.21,2.35Zm4.09-40.76c-.15,1.38-.94,2.19-2.34,2.29-1.53-.41-2.58-1.23-2.42-2.92,.13-1.39,1-2.29,2.43-2.18,1.63,.12,2.52,1.11,2.33,2.81Zm-2.18-88.98c-.09-1.79,.85-3.13,2.63-3.38,1.99-.28,2.73,1.12,2.92,2.6,0,2.18-.94,3.3-2.81,3.35-1.63,.04-2.65-.96-2.73-2.58Zm4.32,103.91c-.4-1.63,.52-2.64,2.24-2.96,2.48,.41,4.06,1.87,4.48,4.39,.26,1.57-.43,3.07-2.13,2.96-2.55-.16-4.01-2.03-4.6-4.39Zm57.37,4.28c-1.38-.03-2.78-.43-4.14-.81-8.31-2.33-16.54-3.44-24.62,.97-1.01,.55-2.42,.31-3.63,.53-4.52,.82-8.14,2.6-10.19,7.25-1.99,4.52-5.16,8.41-8.64,11.96-.79,.8-1.6,2.31-2.99,1.18-1.13-.92,0-1.91,.48-2.77,3.35-5.86,7.41-11.22,12.17-15.96,6.19-6.16,13.71-9.24,21.77-8.39,7.42-.93,13.64,2.15,20.22,1.87,1.15-.05,2.12,.8,2.09,1.97-.03,1.45-1.22,2.23-2.52,2.21Zm5.16-63.71c-2.23-.33-3.79-1.86-4-4.18-.17-1.93,1.19-2.84,2.98-2.77,2.3,.1,3.91,1.23,4.27,3.66-.37,1.86-1.03,3.61-3.25,3.28Zm.18-47.43c-2.03-.09-3.18-1.51-3.35-3.45-.16-1.94,1.1-2.81,2.92-3.01,2,.15,3.39,1.1,3.57,3.17,.18,2.15-1.02,3.39-3.14,3.3Zm.44-19.65c-2.23,.4-3.7-1.19-3.79-3.4-.12-3.09,2.01-4.29,4.7-4.57,1.72-.18,3.16,.38,3.23,2.78-.5,2.24-1.36,4.7-4.14,5.2Zm9.77,50.51c-1.62-.26-3.31-.8-3.55-2.52-.23-1.66,1.24-2.4,2.76-2.34,1.73,.06,2.98,.96,3.13,2.82,.13,1.63-.99,2.01-2.33,2.05Zm-1.14-25.96c2.62,.53,4.06,2.13,3.91,4.82-.12,2.17-1.21,3.91-3.61,3.68-2.65-.26-4.12-2.11-3.95-4.75,.13-2.06,1.16-3.72,3.65-3.75Zm2.17-70.03c-1.49,.05-2.61-1-2.8-2.52-.24-1.84,.85-2.94,2.59-3.24,1.79-.31,2.93,.56,3.42,2.17-.29,2.06-1.19,3.53-3.21,3.59Zm13.51-6.26c-17.27-4.7-29.14-16.1-38.14-30.84-9.45-15.5-14.18-32.22-11.34-50.56,.68-4.4,2.14-8.51,5.53-13.65-7.02,22.25-1.37,41.19,8.49,59.37,10.4,19.17,26.92,29.78,48.23,33.76-4.18,2.82-8.28,3.14-12.78,1.92Z"/>
  <path d="M320.33,182.16c.05,7.93-6.4,14.89-14.01,15.11-6.55,.19-11.85-4.91-11.95-11.5-.12-7.97,6.69-15.61,14.09-15.8,6.61-.17,11.82,5.19,11.87,12.19Z"/>
</svg>