<?xml version="1.0" encoding="UTF-8"?>
<svg id="Layer_1" data-name="Layer 1" xmlns="http://www.w3.org/2000/svg" viewBox="0 0 864 864">
  <path d="M441.64,835.57c-5.83,1.85-11.87,1.26-17.89,1.28-10.25,.03-20.5,.1-30.75,.2-.89,0-2.17,.04-2.62,.59-6.02,7.47-14.97,5.18-22.65,6.57-9.61,1.74-19.42,2.31-29.14,3.76,14.29,.84,28.53-.38,43.53-1.48-3.95,2.16-7.66,1.78-11.13,2.09-14.21,1.29-28.45,2.79-42.7,3.1-7.74,.17-16.72,.61-22.94-3.76-5.34-3.76-9.47-1.32-14.02-1.31-5.39,.01-10.77,1.25-16.16,2-19.37,2.71-38.65,6.53-58.38,5.02-1.69-.13-3.4-.01-5.35-1.11,3.76-.99,7.24-.86,10.7-1.1,8.48-.59,16.91-.74,25.36-2.83,11.46-2.83,23.48-1.97,35.24-2.9,6.96-.55,13.9-1.83,20.93-1.2,1.99,.18,3.23-.92,4.34-2.25,2.58-3.1,5.1-6.25,8.45-10.37-12.87,1.08-24.76,2.08-36.65,3.07,3.03-2.57,6.6-2.98,10.06-3.22,8.21-.57,16.45-.75,24.68-1.1,.92-.04,1.94,.13,2.75-.2,1.58-.65,3.58-1.7,3.41-3.42-.21-2.13-2.47-1.18-3.86-1.21-9.5-.21-18.91,1.25-28.37,1.69-1.5,.07-3.01,0-4.55-.3,8.02-2.45,16.33-2.83,24.61-3.16,4-.16,8.11-.53,12.06,.63,2.21,.65,3.06-.78,4.07-2.2,3.07-4.29,6.96-6.18,12.45-5.25,6.12,1.03,12.34,1.45,18.53,1.97,2.52,.21,5.06-.02,6.23-2.94,1.49-3.71,2.02-7.54,.88-11.38-.36-1.22-2.13-1.14-3.3-1.31-22.67-3.35-43.33-12.03-62.83-23.72-3.18-1.9-4.06-.82-5.23,1.97-6.69,15.94-12.02,32.33-16.17,49.09-.84,3.38-2.52,4.52-5.71,4.8-18.25,1.63-36.47,3.71-54.83,3.92-3.83,.04-7.65,.85-11.25,1.29-.99-1.14-.3-1.68,.14-2.24,2.06-2.66,1.06-3.52-1.91-3.37-15.35,.76-30.7,1.56-46.05,2.21-5.2,.22-10.42,.03-15.71-.69,6.57-.57,13.13-1.3,19.71-1.68,14.42-.84,28.86-1.72,43.32-1,2.42,.12,3.99-.59,5.35-2.72,4.57-7.18,9.65-13.96,18.31-18.29-5.33-2.32-10.18-.69-14.74-1.48,0-.43,0-.86,0-1.29,6.51,0,13.02-.11,19.53,.03,6.37,.14,12.76,.27,19.08,.93,3.92,.41,4.09-.76,3.13-4-4.83-16.39-10.62-32.49-14.86-49.07-4.95-19.36-8.72-38.83-6.49-58.97,.5-4.51,.64-5.26,2.58-8.48,1.77,3.8,2.69,7.37,2.54,11.58-.61,17.79,1.98,35.23,7.39,52.27-.98-5.95-1.99-11.9-2.93-17.86-.25-1.58-1.33-3.34,.7-4.62,.51-.32,1.11-.84,.41-1.44-5.63-4.79-2.82-11.52-3.97-17.33-.41-2.04-.06-4.24,.98-6.63,1.94,3.85,3.88,7.71,5.93,11.78,1.16-1.87-.01-3.09-.52-4.2-14.65-31.95-20.08-65.63-19.57-100.56,.42-29.02,4.45-57.55,10.62-85.83,1.15-5.26-.21-6.86-5.61-8.32-13.64-3.68-36.36,2.97-44.76,19.02-2.03-5.29-3.51-10.46-6.17-15.21-4.17-7.47-9.18-12.49-18.55-13.4-11.06-1.07-21.8-3.62-32.86,.57-15.82,5.99-24.68,18.46-31.66,32.69-2.91,5.94-5.41,12.18-7.3,18.85-.96-8.22-2.19-16.42-2.83-24.67-2.07-26.49,2.26-52.44,7.98-78.08,9.24-41.43,25.4-80.19,47.4-116.49,2.98-4.91,6.22-9.69,9.73-14.23,1.91-2.46,2.2-4.46,.78-7.15-1.51-2.88-2.75-5.92-3.95-8.95-2.17-5.49-1.5-8.09,3.66-10.8,10.78-5.65,10.97-4.56,13.35,5.97,.58,2.57,.99,5.19,1.3,7.81,.3,2.46,.37,4.94,.57,7.77,1.91-.82,1.86-2.58,2.44-3.82,2.55-5.42,5.76-10.29,10.65-13.92,1.78-1.32,3.55-3.04,5.59-.58,1.97,2.37,4.58,4.97,2,8.2-4.35,5.45-8.21,11.36-13.49,16.01-1.95,1.72-2.07,2.45,.17,3.98,32.67,22.33,54.86,53.18,71.71,88.38,4.36,9.11,8.53,18.29,12.13,27.72,.54,1.42,.87,3.02,2.23,4.07,2.01-.81,2.23-2.89,3-4.48,17.79-37.01,38.67-72.32,59.52-107.64,7.28-12.33,13.25-25.33,18.04-38.83,3.11-8.77,2.39-17.74,.97-26.71-.52-3.25-2.3-3.49-5.03-2.56-16.03,5.44-32.66,7.88-49.45,8.2-34.02,.64-67.83-2.12-100.45-12.25-23.39-7.26-42.8-21.4-60.19-38.72-18.74-18.66-25.24-41.77-27.05-66.99-.52-7.27,1.51-14.18,3.99-20.86,3.22-8.68,11.49-11.36,19.86-6.41,10.7,6.34,21.31,12.83,32.82,17.65,12.71,5.31,25.82,9,39.68,9.51,6.49,.24,6.5,.2,5.87-6.08-1.94-19.48,8.61-39.52,25.42-45.53,6.56-2.35,11.1-5.47,14.59-11.26,5.23-8.68,13.3-11.13,22.95-9.13,3.8,.79,7.67,1.37,11.34,2.57,4.45,1.46,7.54,.16,10.79-3.01,9.99-9.74,16.72-21.56,22.28-34.12,3.46-7.8,6.36-15.85,9.59-23.76,.74-1.8,1.05-3.89,3.02-5.39,2.06,2.86,2.19,6.08,2.38,9.23,1.27,21.78-5.02,41.74-14.83,60.82-2.59,5.04-2.64,4.94,2.65,6.5,4.17,1.23,8.42,2.35,12.38,4.1,3.4,1.51,5.7,.72,8.35-1.54,14.54-12.38,25.46-27.47,34.48-44.21,9.71-18.03,16.65-37.11,23.11-56.44,.39-1.18,.78-2.36,1.16-3.55,.38-1.2,.78-2.66,2.31-2.45,1.26,.17,1.18,1.66,1.43,2.69,2.78,11.44,3.48,23.1,2.67,34.75-1.44,20.78-9,39.53-20.33,56.85-2.03,3.1-4.13,6.17-5.85,9.71,9.43-4.23,18.1-9.63,26.69-15.23,8.71-5.68,15.27-13.51,21.86-21.82,.39,4.21-.72,8.25-3.3,13.91-6.97,15.29-18.26,26.88-31.53,36.72-4.74,3.51-9.63,6.84-14.63,9.98-3.19,2.01-3.2,3.27-.1,5.48,5.06,3.61,9.88,7.56,14.63,11.57,2.52,2.14,4.75,2.12,7.63,.74,32.14-15.43,57-38.87,76.06-68.76,8.62-13.52,15.94-27.74,22.65-42.29,1.37-2.96,2.95-5.82,4.42-8.73,.36-.71,.73-1.44,1.67-1.28,.98,.17,1.03,1.07,1.09,1.81,.22,2.48,.5,4.96,.53,7.44,.48,36.21-7.53,69.95-29.04,99.77-5.75,7.98-13.48,13.69-21.43,19.18-2.28,1.58-4.64,3.03-6.55,5.27,13.84,.96,56.32-27.06,70.63-47.02-3.82,14.65-9.9,26.51-19.37,36.75-18.39,19.88-41.56,31.95-66.81,40.04-6.03,1.93-5.66,3.69-4.89,8.42,3.09,19.12,.72,38.16-2.02,57.09-5.13,35.43-15.03,69.83-23.26,104.59-5.3,22.38-10.07,44.9-11.07,67.98-.85,19.57,1.07,38.95,4.31,59.35,3.07-3.7,5.5-6.62,7.92-9.54,19.27-23.2,37.15-47.52,56.91-70.32,39.16-45.18,82.31-86.01,131.53-120.17,16.94-11.75,35.22-21.01,54.93-27.24,2.86-.91,3.8-2.1,2.58-4.98-1.75-4.14-3.24-8.39-4.92-12.57-1.55-3.86-1.13-7.18,2.11-10.08,2.54-2.27,4.81-4.84,7.35-7.11,2.96-2.64,4.94-1.57,6.05,1.94,.85,2.69,1.2,5.45,1.21,8.25,.02,6.96,0,13.92,0,21.1,3.57-1.53,6.01-4.79,8.92-7.4,3.36-3,6.43-6.34,9.84-9.28,3.41-2.93,7.43-1.75,11.47,3.05,2.64,3.13,2.22,5.41-1.61,8.6-4.54,3.78-9.11,7.53-14.16,10.62-2.84,1.73-2.94,3.03-.32,5.42,25.71,23.4,46.64,50.83,65.5,79.81,15.41,23.68,24.08,50.29,31.45,77.35,7.31,26.86,10.62,54.23,10.55,82.02-.02,6.39-.89,12.79-1.38,19.36-1.71-.77-1.65-2.17-1.99-3.28-3.31-10.77-9.64-19.78-16.62-28.39-3.26-4.03-7.34-7.16-11.99-9.49-14.25-7.16-27.56-2.54-35.72,12.14-3.56,6.4-5.87,13.3-8.49,20.4-2.53-1.47-2.72-3.8-3.55-5.68-3-6.77-6.85-12.92-12.72-17.58-10.29-8.17-24.22-7.5-33.61,1.67-7.72,7.55-12.12,16.8-13.45,27.52-.58,4.71-1.23,9.41-2.01,15.39-1.92-5.27-3.26-9.36-4.89-13.33-2.02-4.93-4.79-9.48-8.7-13.13-10.24-9.56-25.82-7.24-35.32,5.26-9.12,12-10.75,26.19-11.59,40.58-.34,5.79,.19,11.65-1.97,17.46-1.83-5.87-3.5-11.8-5.53-17.6-2.68-7.65-5.73-15.2-11.88-20.86-9.85-9.06-22.82-9.8-34.27-2.55-12,7.6-19.85,18.58-26.37,30.81-5.27,9.89-9.84,20.08-13.67,30.62-.52,1.44-1.23,2.81-2.05,4.64-2-2.19-2.3-4.65-2.99-6.9-3.8-12.45-10.62-22.49-22.77-28.05-7.94-3.63-15.71-2.73-22.9,2.16-2.93,1.99-3.47,4.19-1.46,7.81,17.39,31.28,39.11,59.48,62.04,86.74,17.99,21.37,27.67,45.77,29.88,73.41,.46,5.73,1.18,11.43,1.78,17.15,.42,4.05,2.79,7.23,4.93,10.43,15.66,23.38,37.94,37.19,64.75,44.14,21.72,5.63,43.6,7.12,65.25-.19,15.42-5.21,28.8-13.39,36.02-28.93,6.18-13.29,4.96-26.86,1.43-40.59-3.13-12.17-7.03-24.16-8.48-36.73-1.34-11.67-.5-23.27,.85-34.86,.14-1.2,.48-2.41-.22-3.78-4.14,1.36-6.86,5.15-11.27,6.22-7.08,1.72-16.4-2.61-19.32-9.3-4.76-10.9-5.84-22.08-3.62-33.73,1.2-6.34,.93-12.67-2.1-18.64,3.4,1.2,4.72,2.34,10.32,8.52,2.08,2.3,4.32,4.45,6.52,6.65,2.61,2.61,5.07,2.16,7.74-.13,9.44-8.14,15.17-18.78,20.15-29.88,3.04-6.78,5.67-13.73,8.52-20.69,1.76,.73,.94,2.16,.99,3.19,.67,13.85,1.98,27.61,6.18,40.91,1.31,4.14,2.96,8.13,6.2,11.31,2.6,2.55,5.07,2.6,7.85,.46,4.32-3.32,6.97-7.84,9.17-12.87,.82,3.21,.99,3.92-.23,8.34-3.67,13.36-8.17,26.42-14.7,38.7-1.98,3.72-4.33,7.21-7.5,10.04-5.29,4.73-10.59,4.09-14.57-1.74-1.93-2.83-3.43-5.88-4.99-9.17-1.09,4.2-.93,8.48-.73,12.76,.84,18.32,4.87,35.94,11.23,53.1,9.94,26.85,5.55,52.28-8.04,76.67-3.08,5.53-8.13,9.34-12.93,13.3-10.56,8.71-23.03,13.96-35.34,19.5-.93,.42-2.01,.5-3.16,.43,1.83-1.96,5.36-1.35,6.42-4.66-6.36,.71-12.34,2.52-19.29,4.23,3.9,1.75,7.25-.59,10.67,1.02-3.76,2.38-7.85,2.26-11.66,2.6-20.37,1.8-40.79,1.11-61.19,.48-5.29-.16-10.23-2.5-15.55-2.96-20.69-1.77-41.46-3.01-61.64-8.46-13.8-3.72-27.53-7.73-41.39-11.2-13.57-3.4-27.44-5.13-41.41-6.03-2.13-.14-3.48,.34-4.57,2.22-4.21,7.26-8.53,14.45-12.76,21.7-.45,.76-.96,1.87-.72,2.56,.36,1.01,1.7,.77,2.47,.45,9.61-3.98,19.37-.85,29.02-.46,6.23,.26,12.39-.29,18.66-.13Zm9.8-26.24c.34-1.63,1.51-2.76,2.54-4.17-3.07,.8-5.87,2.25-9.05,1.73-1.52-.25-3.6-.18-4.07-1.6-.58-1.79,1.59-2.25,2.81-3.07,.96-.65,2.33-.82,2.79-2.52-2.74,.96-5.54,1.47-7.79,2.86-2.56,1.58-4.93,1.75-7.67,1.23,3.52-6.03,11.02-6.25,15.68-11.72-10.33,2.28-17.39,11.92-28.62,9.41,2.99-1.95,5.98-3.9,8.98-5.85-6.17,1.81-12.32,3.56-17.87,8.34,9.46,2.4,18.35,2.03,27.04,3.28,5.09,.74,9.99,3.22,15.34,1.98,1.23,1.41,3.03,1.38,4.62,1.95,5.15,1.82,10.69,1.94,15.85,3.52,12.42,3.81,24.95,7.2,37.62,9.98,18.14,3.98,36.86,3.49,55.11,7.1,9.92,1.96,20.2,2.31,30.35,2.87,8.21,.45,16.47,.18,24.35-1.86-6.26,0-12.68,.38-19.03-.08-14.92-1.08-29.93-1.17-44.67-4.29-4.19-.89-8.63,.09-12.83-1.47-3.34-1.24-6.85-1.63-10.46-1.76-7.1-.26-14.31,.11-21.21-2.06-6.95-2.18-14.07-3.7-21.1-5.56-11.24-2.97-22.45-5.99-33.82-8.42-1.65-.35-3.32-1.01-4.89,.19Zm-211.7-242.58c-.22,3.7-.79,7.41-.6,11.09,1.02,20.41,1.5,40.87,4.73,61.11,1.05,6.58,2.81,13,6,19.81,.81-2.4,.38-3.74,.02-5.06-4.74-17.14-6.07-34.71-7.07-52.37-.62-10.98-1.26-21.94-1.13-32.93,.02-1.78,.43-3.54-2.09-1.48,2.61-12.75,4.68-25.63,7.94-38.2,5.3-20.37,11-40.67,19.16-60.15,3.84-9.16,7.39-18.49,11.98-27.27,4.47-8.54,7.57-17.63,14.85-25.01,6.81-6.9,11.11-16.37,13.96-26.05,.69-2.35,1.91-4.59,3.13-6.75,4.84-8.61,10.66-16.68,14.49-25.87,.35-.84,.39-2.15,1.79-2.44,3.83-.77,7.28-7.14,6.09-11.19-2.19,1.03-1.36,4.33-4.51,5.57,3.28-6.26,3.03-12.76,5.63-18.55-3.96,3.91-5.54,9.01-8.13,13.54-17.66,30.87-34.85,62-50.08,94.17-9.23,19.51-16.78,39.7-24.15,59.95-4.14,11.37-6.19,23.32-8.9,35.08-3.66,15.87-7.97,31.63-8.76,48.02-.67,13.95-.1,27.85,.74,41.8,1.59,26.34,5.64,52.03,14.79,76.95,10.56,28.79,26.32,53.63,50.94,72.4,8,6.1,16.88,10.33,26.4,13.42-32.24-14.73-53.78-39.37-66.91-71.83,4.28,7.61,9.03,14.91,14.27,21.92,10.1,13.5,13.49,17.21,18,18.61-21.04-22.7-37.69-47.55-44.53-77.93,4.95,9.23,7.51,19.74,14.9,27.7-.43-2.11-1.28-4.01-2.22-5.88-6.86-13.64-13.9-27.21-17.19-42.29-4.35-19.94-5.92-40.19-6.41-60.53-.23-9.86-1.11-19.83,2.83-29.34Zm39.07-371.51c13.38,.01,24-3.54,32.69-12.09,5.03-4.96,8.92-10.75,12.19-16.96,5.3-10.06,4.59-19.71-2.08-28.9-6.78-9.34-16.51-14.11-27.31-16.61-14.17-3.27-27.38-1.29-37.56,10.18-5.58,6.28-10.01,13.49-13.6,21.11-5.83,12.36-2.08,27.35,8.76,35.59,8.39,6.39,18.28,7.28,26.91,7.68Zm296.7,312.1c1.03-14.74,.18-29.4-1.46-44.06-3.2-28.63-8.9-56.74-17.6-84.21-2.5-7.91-5.64-15.57-12.94-20.47-1.89-1.27-1.18-2.04,.03-3.15,8.67-8.02,17.33-16.06,25.97-24.11,1.27-1.19,2.32-1.84,3.92-.29,3.01,2.91,6.35,5.44,8.9,8.86,12.56,16.84,19.67,36.23,26.02,55.93,7.45,23.13,11.8,46.97,15.71,70.9,1.23,7.55,1.7,15.23,3.83,23.41,.89-5.12,0-9.35-.45-13.61-4.13-38.32-11.81-75.78-27.57-111.2-6.22-13.97-13.48-27.31-26.15-38.15,.84-.48,1.76-.81,2.46-1.42,20.19-17.62,41.95-32.99,65.46-45.89,2.57-1.41,4.2-.69,6.26,.72,22.02,15.12,40.1,34.34,56.46,55.15,16.99,21.62,30.32,45.48,39.77,71.36,8.2,22.47,15.91,45.11,17.41,69.3,.36,5.85,1.13,11.66,1.73,17.65,1.33-.55,.96-1.24,.95-1.79-.54-19.32-3.47-38.27-8.66-56.89-14.38-51.55-40.18-96.44-78.42-133.97-8.61-8.45-16.73-17.46-27.3-23.86-2.72-1.65-4.13-2.69-6.77-.98-1.04,.67-2.22,1.11-3.29,1.74-16.97,10.07-33.55,20.71-49.27,32.69-20.82,15.86-39.6,34-58.19,52.27-12.22,12.01-23.45,25.09-34.48,38.23-13.07,15.59-26.69,30.68-39.9,46.15-4.7,5.51-9.66,10.81-14.57,16.14-2.71,2.94-6.3,9.16-6.33,11.77,.84-.88,1.5-1.47,2.05-2.16,9.1-11.45,18.96-22.27,28.39-33.44,2.91-3.44,4.47-2.41,6.12,.58,2.74,4.95,4.01,10.44,5.21,15.89,5.86,26.72,5.45,53.96,6.45,81.07,.35,9.39-.52,18.81,.54,28.2,.91-6.3,1.86-12.6,2.07-18.92,.93-27.83-.58-55.55-5.37-82.99-1.66-9.55-3.1-19.4-9.6-27.36-1.22-1.49,.27-2.2,.99-3.08,5.36-6.66,11.28-12.82,16.67-19.49,11.64-14.4,24.15-28.1,36.29-42.1,3.56-4.11,7.18-8.14,11.24-11.79,1.62-1.46,2.61-1.41,4.19,.15,4.29,4.25,7.35,9.21,9.42,14.83,10.94,29.66,15.71,60.64,19.54,91.8,1.66,13.49,1.79,27.15,4.28,40.6ZM209.19,138.02c-2.84,7.86-4.18,15.46-1.34,23.29,1.37,3.79,5.77,6.22,9.86,5.31,7.71-1.71,14.43-5.54,18.36-12.43,3.62-6.35,7.42-12.44,12.08-18.07,2.73-3.3,2.78-6.99,.77-10.86-6.29-12.17-18.43-13.98-28.84-4.19-2.16,2.03-4.56,3.71,.51,5.51,4.18,1.49,5.85,7.19,4.2,12.03-1.35,3.97-4.33,5.43-8.37,5.01-3.33-.35-4.6-3.41-7.23-5.6Zm41.6,345.21c1.11-3.06,.77-5.17,.22-7.15-5.38-19.31-11.43-38.38-19.9-56.6-6.97-15.01-14.85-29.45-27.08-40.92-12.3-11.53-27.29-19.49-40.5-29.82-.94-.74-2.23-1.04-3.38-1.49-.65-.26-1.22-.02-1.56,.59-.3,.53-.62,1.43,.06,1.55,4.04,.76,1.24,2.57,.53,3.77-1.59,2.67-3.36,5.22-5.12,7.79-15.83,23.09-27.69,48.21-36.73,74.56-8.01,23.34-13.73,47.37-18.23,71.64-1.8,9.72-3.45,19.48-3.34,29.47,1.82-5.56,2.4-11.37,3.62-17.04,5.83-27.09,10.95-54.35,19.36-80.84,9.57-30.12,23.29-58.11,41.41-83.98,1.81-2.58,3.21-2.57,5.6-.82,7.28,5.31,14.67,10.47,22.11,15.55,2,1.36,2.32,2.78,1.9,5.09-1.48,8.09-2.88,16.2-3.95,24.35-4.23,32.36-6.62,64.89-8.37,97.46-.24,4.52-.74,9.07,.33,13.62,.82-2.79,1.39-5.61,1.62-8.45,2.52-30.95,4.88-61.92,7.52-92.87,.92-10.81,2.44-21.58,3.93-32.33,.15-1.08-.33-5.46,3.19-2.63,5.92,4.76,11.92,9.43,16.82,15.37,10.44,12.65,16.84,27.47,23.34,42.26,.4,.92,.52,1.67,.21,2.64-3.88,12.07-4.36,24.72-6.17,37.14-1.91,13.1-3.87,26.22-4.18,39.52,5.41-24.16,6.77-48.98,11.48-73.31,6.01,14.8,10.42,29.89,15.26,45.88ZM108.62,165.26c-.4,.14-.8,.27-1.2,.41,2.17,12.82,5.19,25.39,11.86,36.79,1.95,3.33,4.59,6.24,6.71,9.48,7.27,11.07,14.94,21.76,26.27,29.17,31.56,20.66,66.95,29.43,103.89,33.13,18.51,1.85,37.12,1.57,55.59-.05,9.7-.85,19.9-1.87,28.6-8.96-3.35,.39-6.13,.19-7.86,3.15-.86,1.47-3.39,2.01-4.01,.95-1.8-3.07-3.34-1.1-5.09-.37-1.42,.59-3.08,1.82-4.29,1.5-5.97-1.6-11.48,.39-17.23,1.26-13.74,2.07-27.6,.52-41.39,.04-22.18-.77-43.82-4.99-64.66-12.6-21.83-7.96-42.96-17.13-58.17-36.09-12.08-15.07-23.76-30.22-27.57-49.8-.52-2.66-.97-5.34-1.46-8ZM373.08,790.67c-2.59-10.32-3.45-20.85-5.59-31.14-4.66-22.46-8.05-44.94-3.12-67.82,3.89-18.06,11.05-34.21,26.41-45.66,5.07-3.78,11.01-5.9,17.37-8.91-2.84-.51-4.55,.29-6.29,.84-11.98,3.81-20.87,11.76-27.33,22.11-13.46,21.56-16.82,45.27-13.91,70.24,1.71,14.66,5.07,29,7.6,43.49,1.01,5.79,2.19,11.55,4.85,16.84Zm298.31-330.7c-.31-2.38-.46-4.8-.96-7.14-4.61-21.54-9.76-42.96-16.36-63.99-7.49-23.89-16.49-47.19-29.03-68.93-3.31-5.74-6.69-11.67-12.41-15.58,1.66,2.74,3.73,5.15,5.59,7.72,12.27,16.95,19.13,36.5,26.39,55.79,11.26,29.94,17.62,61.31,26.79,92.13Zm-324.72-190.68c5.46,25.29-6.55,47.43-12.29,70.67,3.21-6.9,6.13-13.96,9.54-20.53,6.76-13.03,6.92-26.55,6.3-40.42-.15-3.42-.8-6.83-3.55-9.73Zm-96.98,284.92c2.55-3.77,4.12-7.3,4.1-11.2,0-2.69,1.38-5.78-.71-8.07-2.38-2.59-2.21-5.16-1.31-8.17,2.68-9.04,5.24-18.12,6.26-27.55-8.09,18.45-9.45,38.42-13.33,57.85,2.68-3.4,2.28-7.98,5.12-11.83,.28,3.17-1.56,5.66-.13,8.97ZM664.93,255.39c2.07-.94,3.48,1.56,5.74,.36,4.1-2.17,7.25-5.27,10.15-8.68,.86-1.01,2.09-2.99,.2-4.02-1.59-.87-3.68-2.57-5.55-.75-3.95,3.87-8.21,7.51-10.54,13.08ZM332.89,842.17c-3.83-.67-6.69,1.12-9.76-.11,.19-.6,.39-1.17,.54-1.75,1.41-5.63,5.21-10.07,7.57-15.22,.42-.92,1.6-2.05,.12-2.72-1.33-.59-1.65,1.03-2.18,1.88-.41,.65-.69,1.39-.94,2.12-1.94,5.55-4.92,10.17-10.19,13.3-2.98,1.77-5.46,4.37-8.16,6.6,.24,.32,.49,.63,.73,.95,6.88-2.94,14.65-1.75,22.27-5.05ZM446.9,151.32c1.58-2.21,1.46-3.81,.85-5.13-3.62-7.86-9.23-13.89-16.91-17.97-1.17-.62-2.11-.53-2.82,.55-.9,1.37,.33,1.92,1.15,2.55,7.07,5.43,14.62,10.39,17.72,20Zm-197.53,477.72c-1.22,7.56,4.23,30.02,7.54,32.21,.16-11.5-3.21-21.94-7.54-32.21Zm-1.37-67.65c-2.44,3.83-2.73,8.1-2.94,12.4-.35,7.12-.62,14.24,.31,21.34,.12,.89-.04,2.11,1.15,2.25,1.49,.17,1.55-1.19,1.73-2.22,.13-.76,.19-1.55,.19-2.32,.02-10.47-2.03-20.91-.43-31.44Zm18.52,269.87c-3.28-.86-6.56-.59-9.87-.23-12.16,1.34-24.32,2.62-36.5,3.82-1.04,.1-3.12,.75-3.1-.83,.04-3.05-1.18-1.37-1.82-.61-.84,1-2.35,1.59-2.42,4.02,17.94-2.54,35.84-3.84,53.71-6.17Zm-4.87-340.94c6.46-3.93,14.45-24.27,12.82-31.88-4.34,10.78-8.39,20.86-12.82,31.88Zm1.85,10.96c-3.62,7.69-6.96,15.49-7.75,24.12-.08,.89,.46,1.85,1.65,1.84,1.13-.01,1.7-.89,1.9-1.77,1.88-7.92,4.51-15.7,4.19-24.19Zm17.59-39.23c-2.12,.17-2.39,1.25-2.72,1.99-3.22,7.35-5.38,15.06-7.82,22.68-.27,.83-.03,1.84,.07,2.76,.09,.81,.56,1.58,1.39,1.57,.43,0,1.06-.68,1.23-1.18,3.15-9,5.36-18.24,7.84-27.82Zm13.03-37.75c7.28-1.71,15.83-17.64,14.77-26.89-3.05,9.7-9.83,17.33-14.77,26.89Zm356.24-178.33c3.17-4.7,2.01-9.84,1.65-14.84-.07-.94-.01-2.39-1.48-2.54-1.24-.12-1.81,.99-2.5,1.82-2.95,3.53-2.68,11.17,2.33,15.56Zm-222.51-86.2c-3.44-8.21-7.4-16.07-14.02-22.28-.38-.36-1.32-.65-1.65-.43-.99,.67-.45,1.6-.08,2.46,2.25,5.21,6.84,8.76,9.67,13.58,1.51,2.57,3.07,5.24,6.08,6.67Zm-143.79,338.61c4.05-9.39,4.47-19.45,6.28-29.25-4.98,9.21-6.69,19.04-6.28,29.25Zm-37.18,101.3c-.91,4.18-.26,8.25,.25,12.32,.55,4.42,.49,8.97,2.37,13.15,.36,.79,.69,1.93,1.89,1.59,1.07-.3,1.23-1.3,1.02-2.28-1.74-8.27-2.61-16.73-5.53-24.79ZM484.33,97.29c-1.14-6.66-6.17-9.74-11.43-12.58-1.46-.79-3.37-1.97-4.43,.09-.96,1.88,.83,3.2,2.32,3.93,4.81,2.36,9.4,5.03,13.53,8.56Zm-229.86,471.65c-1.82,1.05-1.56,2.25-1.57,3.24-.08,6.97-.13,13.94-.11,20.91,0,1.13-.34,2.94,1.36,2.94,1.41,0,1.69-1.72,1.75-2.9,.42-8.01,.35-16-1.44-24.19ZM468.76,124.55c-1.13-6.66-6.31-10.32-10.87-14.33-1.77-1.56-4.75-4.71-6.51-2.37-1.49,1.98,2.23,4.18,4.27,5.71,4.54,3.41,9.79,5.98,13.11,10.99Zm-202.73,402.34c3.58-7.49,5.65-15.33,5.5-23.65-3.48,7.5-6.02,15.22-5.5,23.65Zm15.74-20.92c-3.18,7.72-5.29,15.64-4.28,24.04,2.78-7.78,4.58-15.72,4.28-24.04Zm.92,228.78c-6.47-7.78-11.2-16.69-17.45-26.02,1.76,10.12,11.78,24.54,17.45,26.02Zm4.48-305.52c-4.86,8.24-10.35,16.33-10.16,26.52,2.84-9.02,7.19-17.47,10.16-26.52Zm-31.36,174.85c1.16,8.19-.11,16.96,5.01,24.37,.19-8.48-2.29-16.42-5.01-24.37Zm36.4-144.34c2.46-8.06,6.22-15.61,8.48-23.68-6.47,7.61-10.32,18.09-8.48,23.68ZM475.5,111.5c-2.34-6.06-7.42-9.29-12.57-12.39-1.13-.68-2.81-1.73-3.73-.32-1.02,1.55,.8,2.32,1.9,3.06,4.79,3.23,9.6,6.44,14.4,9.65Zm-23.49,18.42c-1.96-5.91-7.23-7.69-11.73-10.31-.99-.58-2.59-.95-3.31,.47-.74,1.45,.59,2.38,1.61,2.93,4.44,2.38,8.95,4.62,13.43,6.91Zm-182.52,504.62c-1.23,7.17,4.48,20.93,10.18,24.37-4.56-7.97-6.65-15.89-10.18-24.37Zm22.13-200.37c-3.98,7.23-7.51,14.64-8.22,23.06,4.04-7.21,6.41-15.02,8.22-23.06Zm-33.1,126.41c4.04-7.78,4.34-14.69,2.99-21.83-1.66,6.73-4.24,13.33-2.99,21.83Zm38.75-87.17c-2.07,7.44-3.43,14.91-2.4,22.63,3.31-7.27,2.92-14.96,2.4-22.63Zm29.89,305.33c-9.64-5.2-18.34-12.05-27.62-17.99,7.46,8.6,17.33,13.53,27.62,17.99ZM159.48,319.48c.9-3.61,.56-7.13-.16-10.63-.3-1.47-.43-3.21-2.32-3.65-.99-.23-1.93,.33-2.42,1.09-.98,1.52-1.2,4.1-.29,4.78,2.92,2.18,3.36,5.55,5.19,8.41Zm142.48-54.16c-10.59,2.85-21.52,2.52-32.3,3.58,10.8-.87,21.98,1.97,32.3-3.58Zm60.06-147.71c.54,1.98,.93,3.96,1.62,5.81,.5,1.34,.65,3.7,2.53,3.31,1.99-.41,1.36-2.84,1.45-4.37,.07-1.1-.99-2.21-1.24-3.39-.27-1.29-1.61-2.61-.71-3.82,.72-.98,1.76-1.5-.08-2.11-1.08-.36-2.26-.27-2.73,.99-.42,1.14-.58,2.38-.86,3.57Zm-179.8,192.24c-5.46,3.71-8.73,10.58-8.83,18.05,4.24-5.82,6.75-11.82,8.83-18.05Zm124.36,116.13c4.15-6.44,9.78-12.16,10.32-20.31-2.99,7-9.12,12.45-10.32,20.31ZM381.64,82.71c-4.88-4.41-9.98-5.56-14.88-7.08-.44-.13-1.38,.21-1.54,.58-.48,1.06,.34,1.76,1.18,2.18,4.4,2.21,8.89,4.16,15.24,4.32Zm-120.28,556.14c-1.44,7.34,1.67,17.38,5.9,20.13-2.11-7.18-4-13.65-5.9-20.13Zm195.57-195.16c5.48-7.52,13.85-12.74,17.66-21.72-6.2,6.95-13.21,13.22-17.66,21.72Zm34.47-370.25c-.85-4.75-3.13-7-6.2-8.58-1.65-.85-3.15-.16-3.95,1.32-.83,1.54,.71,2.17,1.71,2.74,2.47,1.41,5.01,2.69,8.44,4.51Zm-67.47,414.63c-7.16,6.53-12.31,14.76-18.67,21.97,6.99-6.68,13.56-13.71,18.67-21.97Zm-130.7,43.17c2.34-6.79,2.52-13.9,2.82-21-2.46,6.78-3.34,13.77-2.82,21ZM386.93,68.21c-2.92-4.06-7.75-4.17-11.61-6.19-.86-.45-2.21-1.2-2.78,.18-.49,1.18,.76,1.94,1.66,2.47,3.9,2.3,8.26,3.07,12.73,3.54Zm-4.29,48.96c1.16-4.08,.74-8.01,.17-11.92-.14-.95-.61-1.88-1.7-1.86-.88,.01-1.24,.86-1.28,1.66-.23,4.29,.06,8.48,2.81,12.12Zm-23.77-32.58c2.79,4.98,11.77,7.29,17.13,5.29-5.83-1.8-11.48-3.55-17.13-5.29Zm-32.66,321.94c-3.59,7.21-7.5,14.28-9.4,22.19,4.39-6.88,7.54-14.27,9.4-22.19Zm31.69-296.89c-3.31-4.65-8.63-4.87-13.39-6.32,3.36,4.54,8.34,5.5,13.39,6.32Zm127.88-27.55c-1.26-3.54-3.42-6.07-6.86-7.12-1.05-.32-2.31-.38-2.85,.83-.55,1.25,.44,2.11,1.39,2.57,2.74,1.33,5.55,2.5,8.33,3.73Zm-133.82,12.64c3.54,3.54,7.78,5.97,12.67,7.25-2.75-4.87-7.62-6.17-12.67-7.25Zm-77.47,472.97c.45,6.21,.9,12.42,1.34,18.64,.48-.05,.95-.09,1.43-.14-.96-6.15,1.31-12.58-2.78-18.49ZM390.09,97.05c-.04,5.28-.18,9.26,4.28,12.45,.78-4.99-.02-8.58-4.28-12.45Zm-21.15,624.3c.06,5.82,1.6,11.24,4.23,16.36-.98-5.57-.9-11.43-4.23-16.36Zm-76.17,23.47c3.84,6.31,11.86,12.77,16.86,13.21-6.7-3.98-11.44-9.02-16.86-13.21Zm-21.06-48.71c.4-.2,.79-.39,1.19-.59-2.57-5.16-5.14-10.33-7.71-15.49,.18,6.35,3.19,11.3,6.53,16.08ZM421.71,180.64c1.21-3.21,1.57-6.46,1.28-9.78-.08-.9-.15-2.05-1.33-2.04-1.06,0-1.47,1.02-1.54,1.97-.25,3.36,.02,6.67,1.58,9.85Zm-75.85,145.44c-3.36,3.82-4.72,8.51-4.96,13.61,2.91-4.01,4.1-8.67,4.96-13.61Zm30.33-204.31c-.64-3.84-1.39-6.79-3.02-9.46-.4-.66-.94-1.36-1.84-1-.86,.35-.86,1.28-.72,1.98,.67,3.27,2.2,6.03,5.57,8.48Zm-49.51,240.89c-2.67,3.89-6,7.44-7.26,12.18,4.21-2.98,6.02-7.39,7.26-12.18Zm-46.36,327.76c.3-.24,.59-.49,.89-.73-2.39-4.15-4.79-8.29-7.18-12.44-.35,.2-.71,.4-1.06,.6,1.29,4.83,3.57,9.11,7.35,12.57Zm96.34,31.22c-.44,5.36,.94,10.35,3.89,14.91-.64-5.1-2.67-9.86-3.89-14.91Zm272.26,102.38c-6.67-.15-11.18,2.93-16.01,5.11,5.23-.59,9.94-2.77,16.01-5.11Zm24.39-443.68c.37-.21,.74-.42,1.1-.63-1.24-4.07-3.32-7.58-6.12-10.59-.41,.27-.82,.55-1.22,.82,2.08,3.47,4.16,6.94,6.24,10.4Zm-222.93-209c-.39-4.42-3.04-7.09-6.26-9.33,1.08,3.86,3.37,6.82,6.26,9.33Zm-151.14-89.11c5.2,4.34,7.82,5.09,11.92,3.55-4.16-1.54-7.8-3.36-11.92-3.55Zm163.81,84.44c-.88-4.34-2.99-6.85-6.64-8.35,.79,4.09,4,6,6.64,8.35Zm-208.77,508.63c1.33,4.71,1.52,9.91,5.2,15.19-.39-6.31-3.16-10.59-5.2-15.19Zm163.95,115.65c5.08-1.43,10.17-2.85,15.25-4.28-5.22,.94-10.88,.31-15.25,4.28Zm-152.56-211.01c-.15,5.22-1.1,10.35,.2,15.42,.61-5.19,1.27-10.37-.2-15.42ZM397.82,104.73c.83-2.94,1.5-5.84-.32-8.97-2.71,3.4-1.94,6.24,.32,8.97Zm-83.44-25.41c-2.78-2.76-6.11-3.93-10.97-3.85,3.87,2.76,7.18,3.99,10.97,3.85Zm39.45,228.22c-3.94,5.83-4.67,9.22-3.16,12.3,1.12-4.34,2.14-8.32,3.16-12.3Zm-15.2,38.59c-4.08,5.66-4.88,9.01-3.38,13.17,1.09-4.24,2.08-8.09,3.38-13.17Zm352.97,126.91c-.38-2.9-.69-5.81-1.17-8.7-.14-.86-.61-1.94-1.84-1.53-.86,.29-.89,1.27-.7,1.99,.77,2.81,1.33,5.71,3.7,8.23ZM405.04,97.45c2.44-1.79,2.54-4.14,3.46-6.03,.36-.74,.06-1.58-.7-2-.92-.51-1.49,.18-1.77,.9-.82,2.09-1.91,4.17-.99,7.13Zm-138.19,516.86c-.46,5.33,.08,10.37,3.34,14.71-1.11-4.9-2.23-9.81-3.34-14.71Zm116.9-114.87c4.88-2.76,8.76-6.42,12.74-11.77-4.89,4.52-8.81,8.14-12.74,11.77ZM494.74,58.47c-.6-3.55-1.57-5.44-4.21-5.87-.94-.15-2.06,.42-1.98,1.42,.27,3.35,3.43,2.73,6.19,4.45Zm-209.31,658.6c.76,4.72,2.87,7.74,6.82,10.51-1.63-3.84-4.13-6.49-6.82-10.51Zm-37.34,40.87c.47,4.01,1.57,7.81,4.44,10.84-.49-4-2.35-7.44-4.44-10.84Zm127.16,17.32c-.21,3.47,.33,6.77,2.71,10.55,.77-4.56-.76-7.59-2.71-10.55ZM138.79,167.72c-1.55,2.85-3.27,5.52-6.66,7.55,5.56-.4,6.81-1.86,6.66-7.55Zm115.38,614.09c.2,4.62,1.81,8.67,3.74,12.58,.36-.14,.72-.29,1.08-.43-1.61-4.05-3.21-8.1-4.82-12.15Zm94.58-420.82c1.18-4.34,2.36-8.68,3.55-13.02-2.92,3.93-3.52,8.41-3.55,13.02Zm337.08-22.02c-.71,4.09,1.86,6.33,3.47,9.14,.44-.26,.87-.51,1.31-.77-1.59-2.79-3.19-5.58-4.78-8.37Zm-324.75-55.25c.95,4.34,1.18,8.76,1.41,13.18,.1-4.45,2.08-9.1-1.41-13.18Zm-43.22,100.24c-3.02,2.53-5.12,5.69-5.81,9.65,2.96-2.57,3.88-6.37,5.81-9.65Zm117.61-217.2c-1.25,3.6-1.96,6.54,1.23,10.04,.07-3.75,.63-6.58-1.23-10.04Zm53.88-16.39c-1.17-4.4-2.56-7.08-6.41-9.49,1.56,3.93,3.27,6.4,6.41,9.49Zm-151.02,639.96c3,2.86,6.89,3.18,10.93,2.93-3.64-.98-7.28-1.96-10.93-2.93Zm333.09-388.73c.04-3.12-.1-6.2-3.35-8.8-.12,3.89,1.38,6.43,3.35,8.8Zm-343.85-14.85c-2.33,3-4.24,6.21-4.19,10.2,1.83-3.21,4.11-6.21,4.19-10.2Zm17.99-39.52c-2.73,4.08-3.41,7.59-3.34,11.32,1.51-3.28,3.2-6.52,3.34-11.32Zm-84.24,425.96c.36-.14,.72-.28,1.08-.42-1.48-3.39-2.97-6.77-4.45-10.16-.5,4.18,1.82,7.23,3.37,10.58Z"/>
  <path d="M382.84,854.32c-43.4,2.67-86.51,9.29-130.07,9.68,43.23-5,86.56-8.6,130.07-9.68Z"/>
  <path d="M482.93,846.51c-32.39,4.37-64.87,6.54-97.55,3.85,32.55-.37,65.05-2.15,97.55-3.85Z"/>
  <path d="M598.08,847.49c-27.43,2.58-54.82,5.89-82.37,2.03,27.43-1.96,54.94-.71,82.37-2.03Z"/>
  <path d="M299.01,839.4c-28.42,.74-56.39,7.84-85.56,6.07,5.29-2.43,75.55-7.5,85.56-6.07Z"/>
  <path d="M507.81,835.28c-31.75,1.8-63.36,5.35-95.03,8.11,31.42-5.75,63.09-8.49,95.03-8.11Z"/>
  <path d="M406.94,826.46h68.4c-22.81,4.77-45.65,2.1-68.48,1.18,.03-.39,.05-.79,.08-1.18Z"/>
  <path d="M209.42,820.67c-21.39,2.23-42.62,6.07-64.21,6.35,21.09-5.14,42.62-6.02,64.21-6.35Z"/>
  <path d="M247.74,854.78c18.97-2.72,38.12-1.74,57.15-3.07-19,1.95-37.84,6.41-57.15,3.07Z"/>
  <path d="M475.54,850.81c22.36-6.67,45.33-7.13,68.43-6.28-23.05-.61-45.62,3.83-68.43,6.28Z"/>
  <path d="M154.85,814.16c21.59-2.66,42.44,.38,64.41,.45-8.63,1.95-54.26,1.56-64.41-.45Z"/>
  <path d="M627.18,846.76c-19.98-1.71-39.97-3.43-59.95-5.14,20.27-2.02,40.07,2.09,60.04,3.95-.03,.4-.06,.79-.09,1.19Z"/>
  <path d="M188.97,828.5c-19.02,1.23-38.03,2.47-57.05,3.7,18.79-4.02,37.82-4.61,57.05-3.7Z"/>
  <path d="M668.8,841.97h-53.99c.01-.52,.02-1.05,.03-1.57,17.57,.55,35.17,.05,53.95,1.57Z"/>
  <path d="M648.46,852.43c-18.25,1.07-36.51,1.64-54.77-.03,18.25-1.43,36.51-.36,54.77,.03Z"/>
  <path d="M320.14,813.22c-11.25,1.51-22.42,2.26-33.57-.12,11.22-1.69,22.43-1.26,33.57,.12Z"/>
  <path d="M458.23,859.78c-16.13,1.34-32.29,1.89-48.48,1.24,16.13-1.52,32.31-1.41,48.48-1.24Z"/>
  <path d="M322.61,819.06c-12.35,.75-24.7,1.5-37.05,2.26-.03-.45-.05-.9-.08-1.34,12.48-.86,24.95-1.77,37.12-.91Z"/>
  <path d="M174.35,849.1c9.45-2.53,19.11-3.08,28.76-3.67,.04,.39,.08,.78,.12,1.17-9.63,.83-19.25,1.67-28.88,2.5Z"/>
  <path d="M404.21,858.88c-11.22,1.29-22.36,2.67-33.6,2.07,11.17-1.63,22.41-2.14,33.6-2.07Z"/>
  <path d="M502.36,855.73c-15.13,.72-30.26,1.69-45.39,0h45.39Z"/>
  <path d="M162.84,855.57c9.54-.87,19.07-1.74,29-2.64-3.68,2.28-20.3,4.1-29,2.64Z"/>
  <path d="M181.14,842.37c-10.89,.7-21.78,1.41-32.67,2.11,10.78-2.48,21.71-2.63,32.67-2.11Z"/>
  <path d="M696,837.42c-11.59,.76-23.1-.24-34.63-.85,11.58-1.15,23.11,.35,34.63,.85Z"/>
  <path d="M184.64,859.42c8.98-2.49,18.13-2.66,27.32-2.26-9.11,.75-18.21,1.5-27.32,2.26Z"/>
  <path d="M233.94,859.91c5.47-1.85,11.15-1.16,17.87-1.34-6.58,1.96-12.2,2.03-17.87,1.34Z"/>
  <path d="M415.17,832.78c-5.37,1.61-10.75,.06-16.17-.76,5.37-.97,10.63,.52,16.17,.76Z"/>
  <path d="M188.18,805.62c-5.53,1.94-9.93,1.17-14.26,1.17,4.23-1.15,8.53-1.56,14.26-1.17Z"/>
  <path d="M137.24,821.52c3.96-1.81,8.13-1.39,12.31-.9-4.06,.66-8.09,1.48-12.31,.9Z"/>
  <path d="M272.83,160.34c-7.5-.26-13.01-5.68-12.79-12.58,.24-7.73,6.17-13.72,13.23-13.39,6.85,.32,12.35,6.3,12.26,13.32-.09,7.2-5.8,12.88-12.7,12.64Z"/>
  <path d="M316.5,367.69c.42,3.79-2.57,6.26-4.15,9-4.37,7.58-7.35,15.76-11.26,23.52-1.79,3.55-3.51,7.18-6.99,9.71,3.65-7.63,7.31-15.26,10.93-22.91,2.79-5.9,5.55-11.81,9.36-17.15,.6-.83,.8-2.1,2.21-2.08l-.09-.09Z"/>
  <path d="M316.59,367.78c2.18-7.48,6.78-13.71,10.62-20.33-3.2,6.94-5.31,14.45-10.71,20.23,0,0,.1,.09,.1,.09Z"/>
</svg>