<?xml version="1.0" encoding="UTF-8"?>
<svg id="Layer_1" data-name="Layer 1" xmlns="http://www.w3.org/2000/svg" viewBox="0 0 864 864">
  <path d="M663.73,626.31c-.59-.78-.98-1.08-1.07-1.46-5.22-21.38-21.14-29.27-40.84-32.03-7.93-1.11-15.72,.63-23.37,2.87-3.19,.93-4.1,1.74-2.34,5.3,14.58,29.71,24.33,60.83,25.75,94.14,.98,23.07-2.2,45.54-10.68,67.14-.31,.79-.5,1.62-.17,2.98,1.63-1.44,3.3-2.85,4.88-4.34,1.7-1.6,3.39-3.23,4.98-4.95,18.65-20.14,30.64-44.21,39.8-69.67,12.15-33.75,22.39-68.08,27.94-103.65,.27-1.74-.2-5.01,2.42-4.7,2.41,.28,1.59,3.38,1.66,5.3,.48,13.07,3.57,25.79,5.14,38.71,7.07,58.2-8.4,109.04-50.13,150.89-14.75,14.79-32.61,25.17-52.41,32.03-3.11,1.08-5.78,2.6-8.22,4.83-7.81,7.15-16.67,12.81-26.06,17.33,.02,1.65,1.19,1.92,1.95,2.47,5.57,3.97,9.97,9.04,13.69,14.7,4.75,7.23,3.4,11.28-4.63,14.55-3.04,1.24-6.29,1.75-9.48,1.4-15.03-1.67-29.81,.09-44.49,3.08-2.82,.57-4.18-.09-5.26-2.82-2.21-5.57-5.06-10.89-7.17-16.49-1.17-3.09-2.67-3.8-5.83-3.37-16.98,2.31-34.07,3.6-51.21,3.78-34.67,.37-68.96-3.49-103-9.81-3.59-.67-4.63-.29-3.75,3.62,1.86,8.26-1.6,15.84-3.7,23.56-.48,1.77-1.89,1.61-3.18,1.54-10.55-.59-21.06,0-31.59,.69-6.68,.44-13.12-1.19-19.23-3.77-5-2.11-5.58-4.43-2.2-8.65,6.16-7.69,12.94-14.83,21.57-19.76,3.18-1.82,3.08-2.72,.65-5.1-16.59-16.2-30.24-34.71-40.37-55.49-20.19-41.42-19.26-83.69-3.15-126.11,7.4-19.49,18.14-37.03,32.55-52.18,2.03-2.13,1.75-3.5,.05-5.46-4.86-5.59-11.2-7.91-18.31-8.14-19.53-.64-35.26,8.21-49.45,20.47-7.7,6.65-13.32,15.15-19.41,23.19-1.77,2.33-3.5,4.7-5.39,6.93-1.09,1.28-2.19,3.46-4.09,2.69-2.09-.85-.87-3.13-.61-4.68,1.17-6.92,2.6-13.8,3.82-20.72,2.15-12.27,4.27-24.58,2.38-37.07-2.29-15.19-13.75-21.96-28.25-16.88-8.73,3.05-15.8,8.8-22.96,14.38-1.73,1.35-3.52,2.62-5.35,3.82-1,.66-2.15,1.04-3.23,.04-.94-.87-.52-1.88-.2-2.85,.13-.42,.29-.83,.5-1.21,10.7-19.69,17.84-41.07,28.86-60.61,.93-1.65,1.77-3.37,2.54-5.11,4.51-10.05-.49-18.57-11.57-18.9-11.63-.34-21.85,3.43-29.78,12.39-1.4,1.58-2.31,4.58-5.45,2.35-3.04-2.15-1.29-4.52-.11-6.53,7.22-12.22,14.5-24.41,21.92-36.51,15.5-25.3,32.76-49.24,54.86-69.32,4.44-4.03,8.95-8.03,13.75-11.61,8.46-6.31,6.19-7.21,13.35,1.28,9.05,10.74,17.73,21.8,26.53,32.76,22.52,28.05,47.21,53.98,75.09,76.78,7.84,6.41,16.17,12.07,25.07,16.93,2.56,1.4,3.91,.95,5.89-1.04,19.73-19.8,32.14-44.11,42.82-69.44,13.1-31.05,21.32-63.44,26.29-96.72,.53-3.58-.33-4.23-3.78-3.79-23.7,3.07-47.49,4.91-71.39,3.73-15.83-.79-31.47-3-46.49-8.42-39.97-14.44-59.88-51.2-49.95-92.4,4.08-16.94,11.82-32.1,23.4-45.14,2.37-2.67,2.5-4.71,1-7.69-9.15-18.16-18.16-36.39-27.24-54.59-3.22-6.45-5.95-13.06-6.77-20.29-.26-2.32-.6-4.97,1.41-6.58,2.25-1.79,4.5,.1,6.5,1.07,10.34,4.99,18.25,13.1,26.33,20.94,7.97,7.73,15.25,16.09,22.37,24.74-4.83-20.32-5.35-41.09-7.24-61.67-1.59-17.33-3.3-34.72-.51-52.11,1.15-7.15,3.12-14.01,7.85-19.74,5.37-6.48,12.06-6.59,17.52-.19,4.64,5.43,7.25,11.99,9.78,18.54,10.67,27.61,18.14,56.22,26.51,84.55,2.2,7.43,4.73,14.76,7.02,22.17,.77,2.5,2.07,3.46,4.81,3.11,6.68-.85,13.38-1.49,20.09-2.03,2.77-.22,3.75-1.21,4.23-4.17,3.81-23.52,5.94-47.36,13.19-70.22,1.37-4.34,3.25-8.45,5.68-12.32,2.01-3.21,4.17-3.2,6.76-.8,3.77,3.49,5.89,7.95,7.55,12.69,4.47,12.74,5.54,26,5.84,39.34,.22,9.81,.52,19.59,1.83,29.34,.51,3.81,2.21,4.92,5.75,4.45,3.02-.4,6.05,1.14,7.11-4.28,2.8-14.34,6.83-28.44,10.18-42.68,5.09-21.64,8.16-43.73,14.81-65.02,2.28-7.29,4.85-14.45,9.58-20.57,4.39-5.67,8.38-5.46,11.69,.94,4.64,8.97,6.13,18.88,7.71,28.7,2.84,17.65,3.3,35.55,5.27,53.29,1.37,12.36,3.59,24.63,3.58,37.12,0,4.11,0,8.24-.97,12.23-.73,2.99-.06,4.41,3.04,5.37,8.52,2.62,16.12,7.04,22.37,13.41,2.84,2.88,3.61,1.84,4.67-1.25,4.02-11.76,8.14-23.49,12.38-35.17,1.39-3.84,2.94-7.67,5.33-11.04,2.61-3.69,5.38-3.68,7.91,.14,3.02,4.56,4.29,9.85,3.65,15.1-1.82,14.79-3.31,29.67-8.34,43.88-2.01,5.69-5.13,10.74-9.05,16,2.97,.55,5.35,0,7.73-.2,8.03-.7,15.08,4.02,17.65,11.61,.89,2.63,.32,4.21-2.5,4.89-4.87,1.18-9.82,1.63-14.81,1.49-3.1-.09-3.18,.95-2.96,3.89,.75,9.75,6.22,14.48,15.26,16.11,1,.18,1.95,.61,2.94,.89,7.4,2.12,7.78,2.76,6.2,10.47-2.37,11.57-4.28,13.22-17.3,15.29-2.27,.36-4.99-.25-5.88,3.28-.92,3.66,1.33,5.03,3.68,6.58,2.81,1.85,5.51,3.92,8.49,5.45,3.74,1.92,4.55,4.52,3.16,8.3-1.68,4.57-4.18,6.63-8.41,6.03-3.17-.45-6.27-1.4-9.4-2.14-1.83-.43-3.51-1.24-4.76,1.34-1.03,2.11-1.27,3.35,.57,5.28,3.53,3.69,6.8,7.69,8.97,12.4,2.93,6.36,1.07,9.17-5.85,9.02-3.69-.08-7.36-.64-10.71-2.12-2.84-1.25-4.79-1.3-6.49,1.7-1.22,2.13-4.23,3.94-4.21,5.88,.02,2.16,3.65,2.82,5.57,4.34,7.74,6.12,6.46,16.28-2.66,20.68-2.17,1.05-4.04,.54-5.68-.88-2.66-2.29-5.33-4.6-7.72-7.15-1.58-1.68-2.58-1.45-3.76,.2-.34,.48-.72,.92-1.07,1.39-2.21,2.91-5.54,5.55-6.34,8.81-.89,3.65,4.17,5.37,5.64,8.62,.72,1.6,1.76,3.09,2.22,4.75,1.03,3.73,.83,7.38-2.43,10.03-3.21,2.61-6.36,1-9.38-.64-.9-.49-1.75-1.07-2.57-1.69-1.83-1.39-2.95-1.13-3.91,1.1-2.13,4.98-4.38,9.9-6.75,14.77-1.21,2.48-.65,3.51,1.98,4.34,3.67,1.16,6.89,3.27,9.26,6.4,4.09,5.38,1.93,11.23-4.61,12.73-2.46,.56-4.97,.79-7.41,.24-3.56-.81-4.93-.05-4.66,4.02,.59,9.13,.39,9.11,8.83,12.13,1.77,.64,3.58,1.42,5.08,2.52,3.94,2.89,4.15,8.53,.58,11.87-1.75,1.64-3.91,2.98-6.17,3.15-5.76,.44-6.4,3.55-4.96,8.16,.17,.55,.12,1.16,.23,1.74,.64,3.45,.68,7.19,2.1,10.28,1.83,3.99,6.34,.93,9.46,2.36,3.23,1.48,7.83,1.41,7.83,6.26,0,4.51-4.35,5.43-7.53,6.08-4.78,.97-5.5,3.07-3.52,7.02,.32,.64,.48,1.39,.59,2.11,.59,4.03,2.4,6.18,6.94,5.4,2.42-.42,4.95,.2,7.26,1.29,4.38,2.07,4.9,5.2,1.33,8.55-1.94,1.82-4.19,3.25-6.75,3.98-1.91,.55-2.16,1.29-1.35,3.11,4.21,9.54,11.22,17.07,17.64,25.04,1.03,1.28,1.9,1.05,2.88,.06,.61-.63,1.27-1.22,1.82-1.9,19.91-24.38,41.41-47.4,61.02-72.04,17.65-22.17,32.81-45.95,46.68-70.61,2.79-4.97,6.09-9.65,8.98-14.57,1.49-2.53,3.07-2.7,5.75-1.74,17.96,6.47,32.78,17.22,44.87,31.92,11.91,14.49,22.6,29.88,33.36,45.22,4.89,6.96,2.93,10.78-5.5,11.51-2.91,.25-5.85,.42-8.72,.92-4.31,.75-7.96,2.85-10.87,6.15-5.13,5.8-5.09,10.36,.7,15.54,5.01,4.49,10.44,8.49,15.62,12.79,1.78,1.47,4.01,2.99,3.46,5.69-.54,2.66-3.27,2.59-5.29,3.21-4.36,1.35-8.57,2.97-12.25,5.75-5.31,4-7.05,9.07-5.28,15.47,1.71,6.14,5.01,11.51,8.16,16.95,4.25,7.34,9.09,14.36,12.62,22.1,1.47,3.23,4.15,7.18,1.14,10.18-3.21,3.21-6.82-.25-9.96-1.73-5.42-2.56-10.6-5.6-16.54-6.97-13.98-3.23-24.25,2.42-28.78,15.99-4.91,14.68-6.35,30.02-8.47,45.23-.44,3.15-.52,6.4-2.09,9.89Zm-165.74-304.39c-7.04,3.2-12.18,7.24-16.98,11.67-15.52,14.32-28.01,30.47-32.91,51.73-7.7,33.37-15.14,66.78-19.47,100.79-3.75,29.46-11.76,57.55-26.12,83.71-9.44,17.19-19.04,34.28-28.93,51.21-10.72,18.35-18.44,37.86-21.92,58.9-3.01,18.22-1.89,36.51-.19,54.75,2.15,23.2,7.36,45.65,18.52,66.34,8.73,16.18,22.33,26.04,40.31,29.7,20.11,4.1,40.24,2.38,60.29-.53,13.05-1.9,25.94-4.57,38.01-10.23,5.64-2.65,9.83-6.56,12.48-12.35,5.69-12.39,10.96-24.94,13.89-38.28,7.4-33.76,7.38-67.68,1.27-101.62-6.14-34.14-17.4-66.77-29.93-98.99-8.24-21.18-15.45-42.64-18.81-65.21-5.49-36.83-8.61-73.84-8.21-111.1,.26-24.68,1.18-49.25,18.71-70.46Zm-126.25-106.6c.14-17.91-10.68-29.16-27.63-28.5-10.56,.41-19.57,4.44-26.74,12.32-11.74,12.9-11.17,32.01,1.25,42.28,13.93,11.53,35.86,9.94,46.06-3.48,5.04-6.63,7.04-14.35,7.06-22.62Zm133.86-11.89c-.3-14.27-7.09-23.45-19.37-26.17-7.19-1.59-14.25-1.05-21.13,1.51-15.22,5.66-24.86,21.78-21.84,36.39,2.93,14.16,16.95,24.02,32.93,23.17,17.78-.95,29.82-15.24,29.4-34.9Zm-130.18,93.35c-26,.07-43.21-8.56-58.85-21.24-1.87-1.52-1.71-2.67-.45-4.33,.69-.91,1.4-2.14,.47-3.21-1.16-1.32-2.56-.51-3.5,.32-2.52,2.23-4,.85-5.7-1.13-2.48-2.89-4.91-5.81-6.95-9.03-.48-.75-1.07-1.63-2.06-1.11-1.21,.64-.87,1.75-.22,2.61,2.2,2.92,4.21,6.04,6.76,8.6,2.31,2.32,2.5,5.14,3.54,7.84,.92,2.4,5.6-.73,7.79,2.61,1.21,1.84,3.6,2.93,5.49,4.3,16.96,12.31,35.62,18.83,56.79,16.3,23.98-2.86,43.66-14.21,60.48-31.08,1.48-1.48,2.55-3.55,5.41-2.16,1.41,.68,2.4-.94,1.56-2.01-2.37-3.04,.3-4.74,1.33-6.97,.71-1.54,3.51-3.37,1.34-4.74-1.96-1.23-2.91,1.83-3.72,3.29-1.88,3.41-3.54,3.76-5.93,.48-.81-1.12-1.95-3.47-3.61-2.08-1.43,1.2,.6,2.8,1.22,4.17,.3,.66,.73,1.29,1.23,1.81,1.65,1.74,1.34,3.27-.21,4.94-18.24,19.68-40.5,30.81-62.21,31.8Zm208.95,213.73c4.12-.02,7.99-4.07,7.96-8.33-.03-4.14-3.41-7.57-7.47-7.6-4.63-.03-8.3,3.76-8.16,8.43,.12,4.07,3.64,7.51,7.66,7.49Zm51.06,66.36c-.09-4.04-3.73-7.42-7.79-7.23-4.1,.19-7.65,3.71-7.61,7.54,.04,4.23,3.7,7.63,8.04,7.48,3.94-.14,7.45-3.84,7.37-7.79Zm-320.96-60.2c-.07-4.23-3.33-7.59-7.37-7.6-4.17-.01-7.85,3.62-7.82,7.73,.03,4.12,3.84,7.78,7.93,7.62,4.08-.16,7.34-3.63,7.27-7.74Zm-84.56-22.29c-3.9,.05-7.49,3.41-7.56,7.06-.08,3.99,3.5,7.55,7.53,7.49,4.16-.06,7.55-3.46,7.49-7.51-.06-3.81-3.54-7.1-7.45-7.04Zm456.74-45.31c-4.04,.08-7.6,3.29-7.64,6.9-.04,3.96,3.84,7.57,8.07,7.52,3.93-.05,7.04-3.38,6.93-7.42-.11-4.04-3.31-7.08-7.36-7Zm-34.45,2.9c.08-3.67-3.17-7.01-6.92-7.12-3.78-.11-7.47,3.43-7.45,7.14,.02,3.61,3.38,6.81,7.21,6.87,3.69,.06,7.07-3.2,7.15-6.89Zm-377.39,96.61c3.32,0,6.24-2.78,6.35-6.02,.12-3.61-2.57-6.38-6.26-6.47-3.67-.09-6.91,2.63-6.97,5.86-.06,3.39,3.31,6.64,6.87,6.64Zm305.68,193.05c-.18,3.63,.63,6.28,3.45,7.17,3.24,1.01,4.64-1.77,5.82-4.1,1.57-3.1,2.36-6.35-.2-9.39-1.13-1.34-2.7-1.91-4.33-1.14-3.42,1.62-4.44,4.76-4.74,7.46Zm88.97-246.72c.05-3.38-2.26-5.93-5.51-6.09-3.31-.16-6.08,2.5-6.19,5.96-.1,3.33,2.71,6.22,5.99,6.14,3.12-.08,5.66-2.75,5.7-6ZM343.02,125.6c-8.48,1.09-16.83,.91-25.17-.23-1-.14-2.2,.13-2.4,1.38-.26,1.67,1.02,2.36,2.33,2.63,5.15,1.04,10.35,1.68,15.58,.64,3.46-.69,7.14-.91,9.65-4.41ZM203.93,459.03c3.33-.1,5.91-2.75,5.73-5.89-.18-3.13-3.01-5.68-6.16-5.54-3.22,.14-5.93,2.92-5.8,5.93,.14,3.03,3.04,5.59,6.23,5.49Zm419.36,22.98c-2.87,.34-5.1,1.88-5.38,5.36-.27,3.27,2.19,5.92,5.48,6.1,3.33,.19,6.02-2.23,6.07-5.46,.05-3.11-2.63-5.89-6.17-6.01Zm-294.65,323.5c.13-4.12-3.45-8.38-6.77-8.48-2.42-.07-3.9,1.1-4.08,3.59-.23,3.14,4.06,8.55,6.98,8.68,2.87,.13,3.69-1.84,3.86-3.79Zm-60.5-313.6c2.92-.28,4.79-2.02,5.02-5.27,.21-3-2.44-5.64-5.58-5.46-3.16,.18-5.2,1.88-5.34,5.22-.13,3.05,2.47,5.54,5.9,5.5Zm-10.08,36.24c-.38-2.89-2.3-4.66-5.46-4.8-2.81-.13-5.67,2.95-5.43,5.78,.27,3.23,2.25,5.02,5.46,5.15,2.81,.11,5.51-2.89,5.44-6.12ZM339.05,116.66c-1.14-1.48-2.64-.83-4.04-.66-6.08,.71-12.07,2.48-18.29,1.34-.87-.16-1.94-.14-2,1.06-.06,1.3,.82,2.06,1.98,2.6,4.52,2.11,18.38-.54,22.34-4.33Zm351.06,391.24c-2.67,.49-4.94,1.9-4.87,5.29,.06,3.25,1.96,5.31,5.23,5.25,3.02-.05,4.95-2.06,5.07-5.04,.13-3.21-1.7-5.16-5.43-5.5Zm-34.45,210.68c-2.31,0-3.46,.98-3.44,2.96,.03,2.92,5.26,6.78,9.16,6.76,2.02-.01,3.41-.86,3.49-3.02,.11-2.89-5.19-6.7-9.21-6.7Zm18.22-50.84c-1.37,.07-2.61-.03-3.25,1.25-.45,.91-.15,1.78,.55,2.36,3.43,2.83,7.3,4.77,11.74,5.36,1.19,.16,2.38-.26,2.83-1.56,.39-1.11-.24-2.05-1.01-2.71-3.18-2.73-6.93-4.21-10.87-4.7ZM306.64,76.83c1.01,3.51,3.18,4.24,5.64,3.46,5.04-1.59,10.06-3.06,15.38-3.28,.65-.03,1.57-.06,1.66-1.04,.08-.93-.75-1.19-1.39-1.42-4.02-1.42-8.04-1.33-12.03,.16-2.87,1.07-5.7,2.27-9.26,2.12Zm-6.71,675.69c.08-3.97-2.28-7.38-5.02-7.24-2.61,.14-3.85,1.88-3.98,4.32-.18,3.25,3.05,7.49,5.57,7.39,2.98-.12,3.16-2.47,3.43-4.47Zm351.44-24.5c-1.18,.12-2.39,.32-2.98,1.49-.57,1.15-.28,2.31,.59,3.24,2.33,2.47,5.13,4.31,8.14,5.83,.95,.48,1.95,.66,2.88-.08,1.11-.88,.93-2.05,.62-3.2-.78-2.89-6.42-7.3-9.26-7.27Zm18.17-12.28c-.22-.56-.38-1.29-.75-1.9-1.54-2.51-8.38-4.81-11.16-3.71-2.72,1.08-2.27,2.88-.54,4.35,2.35,2.01,5.11,3.43,8.17,4.08,2.18,.47,3.7-.37,4.28-2.83Zm-43.37-179.61c-2.78,.44-4.93,1.89-4.76,5.01,.18,3.13,2.13,5.15,5.43,4.9,2.98-.22,4.85-2.06,4.63-5.16-.21-3.02-2.12-4.6-5.31-4.75ZM318.12,103.34c4.32,.2,8.34-1.26,12.41-2.37,1.23-.33,3.51-.23,3.02-2.21-.41-1.67-2.5-1.09-3.86-.94-4.49,.51-8.97,1.09-13.43,1.82-1.68,.27-4.7-1.32-4.76,1.03-.06,2.38,3.09,2.52,5.3,2.66,.44,.03,.88,0,1.31,0Zm327.7,633.95c-1.95,.02-3.48,1.24-2.41,3.5,1.43,3.02,3.77,5.57,7.04,6.73,2.56,.91,4.31-.89,3.72-3.5-.61-2.68-5.27-6.64-8.35-6.74Zm-352.94-12.77c-.46-2.69-1.07-5.61-4.69-5.62-2.83,0-3.96,2.1-4.09,4.73-.16,3.37,2.12,6.66,4.59,6.38,3.04-.34,3.87-2.69,4.19-5.49Zm-75.22-176.71c2.99-.26,4.77-1.84,4.87-4.71,.1-3.13-1.78-4.95-4.86-4.96-2.81,0-4.85,1.54-4.83,4.52,.02,3.02,1.89,4.73,4.82,5.15ZM327.14,60.5c-7.04-1.25-13.8-1.02-19.98-3.54-.49-.2-1.12,.19-1.33,.84-.36,1.14,.22,1.96,.98,2.69,3.32,3.16,15.61,3.49,20.33,.01Zm359.03,600.46c1.53,.02,2.74-.07,3.3-1.33,.39-.86,0-1.66-.55-2.41-1.9-2.57-9.26-4.67-12.1-3.34-1.77,.83-2.79,2.07-.53,3.39,3.15,1.83,6.58,3.08,9.88,3.69ZM244.8,459.55c-.38-2.98-2.09-4.69-4.93-4.64-2.82,.05-4.67,1.75-4.66,4.7,.02,3.02,1.97,4.52,4.8,4.51,2.91,0,4.46-1.8,4.78-4.58Zm-45.61-40.34c-2.87,.28-4.92,1.66-4.97,4.54-.05,3.04,1.84,4.9,4.94,4.85,2.89-.05,4.58-1.78,4.57-4.71-.01-2.93-1.72-4.45-4.54-4.69ZM486.78,95.63c1.45-.16,2.92-.21,4.33-.51,.93-.2,2.23-.44,2.16-1.72-.05-1.04-1.23-1.1-2.04-1.25-4.73-.86-9.47-1.68-14.21-2.48-1-.17-2.21-.33-2.6,.92-.45,1.42,.64,2.18,1.74,2.63,3.4,1.37,6.88,2.42,10.62,2.43Zm8.07,14.96c-6.84-2.92-13.34-3.41-20.02-2.6-.7,.08-1.44,.52-1.24,1.45,.2,.95,.95,1.51,1.85,1.61,3.18,.35,6.37,.8,9.56,.85,3.06,.05,6.29,1.07,9.85-1.3ZM199.89,520.71c2.97,0,4.88-1.44,5.11-4.29,.25-3.14-1.71-4.93-4.69-5.09-2.87-.15-4.68,1.6-4.82,4.47-.14,2.93,1.71,4.42,4.4,4.91Zm466.87,168.58c-1.38-.02-2.38,.07-3.19,.82-.57,.53-.21,1.05,.08,1.54,1.21,2.1,9.52,5.87,12,5.44,1.18-.2,2.39-.5,2.78-1.77,.43-1.41-.69-2.11-1.71-2.66-3.22-1.74-6.7-2.74-9.95-3.37Zm4.08-10.3c-.97,.25-2.78-.06-3.22,1.73-.38,1.55,1.11,2.29,2.22,2.86,2.45,1.25,4.97,2.38,7.5,3.44,1.26,.53,2.63,.6,3.48-.77,.88-1.41,.07-2.48-.97-3.39-2.47-2.16-5.31-3.51-9.02-3.86ZM198.21,480.78c-2.44,.36-4.4,1.61-4.31,4.7,.09,2.95,1.87,4.63,4.75,4.64,2.92,0,4.71-1.86,4.7-4.69,0-2.87-1.87-4.44-5.14-4.65ZM420.31,127.76v.3c1.01,0,2.03,.04,3.05-.01,.69-.04,1.62,0,1.62-.98,0-.43-.52-1.06-.96-1.26-5.15-2.32-10.54-3.38-16.19-2.63-1.27,.17-2.21,.87-2.05,2.34,.15,1.4,1.3,1.37,2.31,1.44,4.08,.28,8.15,.53,12.23,.8Zm247.7,413.71c-.15-2.93-1.63-4.7-4.29-4.79-2.74-.09-4.88,1.28-4.97,4.34-.08,2.91,1.58,4.78,4.46,4.88,2.91,.1,4.43-1.79,4.8-4.43ZM485.49,121.06c1.59-.08,3.19-.09,4.78-.27,1.06-.12,2.65,.07,2.63-1.5-.02-1.25-1.48-1.19-2.43-1.34-4.87-.77-9.74-1.51-14.63-2.21-.81-.12-1.9-.35-2.17,.78-.24,1,.73,1.49,1.42,1.96,3.14,2.16,6.72,2.56,10.4,2.58Zm168.74,296.99c-2.59,.26-4.45,1.45-4.6,4.22-.17,2.98,1.67,4.7,4.42,4.83,2.6,.13,4.43-1.54,4.64-4.19,.24-2.98-1.71-4.37-4.45-4.87Zm-419.03,147c-.26-2.83-1.62-4.75-4.53-4.91-2.75-.15-4.41,1.5-4.55,4.17-.16,2.92,1.6,4.67,4.43,4.86,2.74,.19,4.19-1.52,4.65-4.12Zm72.43-12.6c-.2-2.52-1.76-4.27-4.67-4.19-2.86,.08-4.64,1.74-4.42,4.76,.22,2.93,2.1,4.47,4.94,4.35,2.68-.11,4.25-1.65,4.14-4.92Zm-63.32-127.03c-.31-2.76-2.01-4.19-4.67-4.08-2.64,.11-4.4,1.63-4.33,4.47,.07,3.08,2.07,4.46,4.89,4.36,2.82-.09,3.99-2.03,4.12-4.75Zm339.83,281.04c-.34-2.37-1.37-4.5-4.25-4.41-2.86,.09-4.56,1.95-4.58,4.83-.02,2.69,1.45,4.47,4.24,4.55,3.12,.08,4.24-2.02,4.59-4.97Zm-5.5,64.43c-2.74,0-6.19,3.98-6.11,6.72,.06,1.95,1.09,2.93,3.01,2.93,2.4,0,6.09-3.55,6.14-5.93,.05-2.22-1-3.56-3.04-3.72ZM274.26,446.9c-.31-2.39-2-3.79-4.61-3.81-2.67-.02-4.5,1.41-4.41,4.23,.1,2.91,2.01,4.55,4.81,4.49,2.67-.06,4.15-1.77,4.21-4.91Zm34.14,31.24c-.53-2.39-2.03-4.27-4.98-4.08-2.7,.17-4.32,1.92-4.12,4.69,.2,2.73,2,4.24,4.7,4.22,2.78-.02,4.23-1.66,4.4-4.83Zm355.5,222.63c-1.42,.02-2.77,.16-3.39,1.58-.71,1.64,.48,2.43,1.68,3.04,2.6,1.32,5.24,2.56,8.14,3.09,1.22,.22,2.41,0,2.89-1.35,.4-1.12-.21-2.02-1.06-2.65-2.49-1.83-5.27-3.07-8.25-3.71Zm-85.46-159.23c2.62-.39,4.59-1.59,4.52-4.43-.07-2.58-1.85-3.98-4.34-4-2.66-.02-4.6,1.4-4.71,4.16-.12,2.92,2.02,3.92,4.54,4.27Zm-269.92,236.8c-.55-2.63-1.78-5.27-5.21-5.56-2.1-.18-3.79,1.21-3.4,3.49,.53,3.06,2.55,5.32,5.65,5.85,2.1,.35,2.99-1.31,2.96-3.77Zm3.57-729.69s0-.05,0-.08c-.58,0-1.17-.05-1.75,.01-1.32,.15-3.41-1.31-3.79,.64-.45,2.34,2.07,2.5,3.65,2.75,3.91,.6,7.85,.29,11.74-.39,1.1-.19,2.78-.1,2.76-1.52-.02-1.6-1.77-1.87-3.03-1.86-3.19,.02-6.39,.28-9.58,.45Zm255.23,806.51c.06-4.06-1.49-6.93-4.69-8.9-1.36-.84-2.82-.75-4.09,.27-1.05,.84-1.97,1.89-1.67,3.34,.35,1.75,2.59,3.49,3.17,3.1,3.34-2.22,4.7,1.47,7.28,2.19Zm120.28-211.73c1.33-.1,2.75,.07,3.68-1.07,.69-.85,.13-1.71-.54-2.29-2.9-2.51-6.23-3.75-10.11-3.07-.88,.15-1.79,.45-1.97,1.47-.18,.97,.46,1.67,1.2,2.17,2.34,1.6,4.94,2.49,7.74,2.79Zm-39.86,112.7c0-3.03-4.17-7.75-7.13-8.02-1.01-.09-2.11-.22-2.77,.82-.55,.86-.18,1.75,.31,2.45,1.87,2.66,4.1,4.96,7.11,6.34,1.56,.71,2.57,.37,2.47-1.59Zm-8.02,8.72c-.18-2.95-1.17-5.62-3.69-7.52-1.13-.85-2.5-1.09-3.69-.26-1.18,.83-.76,2.12-.3,3.2,.96,2.3,2.12,4.5,3.93,6.28,.74,.72,1.57,1.47,2.69,1.05,1.22-.46,.94-1.66,1.07-2.76Zm-71.09,29.96c-2.48-.03-5.25,3.38-5.19,6.23,.04,1.68,.74,2.82,2.53,2.93,2.32,.13,5.79-3.33,5.75-5.71-.03-2.08-1.19-3.17-3.09-3.45ZM413.11,115.18c-2.13,.2-3.93-.09-5.53,.8-.42,.23-.76,.85-.87,1.35-.16,.72,.46,1.02,1.06,1.06,5.22,.36,10.45,.72,15.68,1,.81,.04,1.92-.12,1.95-1.26,.03-1.12-1.11-1.31-1.88-1.43-3.59-.59-7.2-1.06-10.42-1.51Zm10.86-14.54c.77-.51,2.46,.85,2.7-.97,.18-1.37-1.34-1.79-2.41-2.11-4.39-1.32-8.85-1.58-13.37-.63-.87,.18-1.93,.34-1.95,1.38-.02,1.36,1.23,1.43,2.22,1.5,4.21,.28,8.45-.08,12.81,.84Zm-3.09-12.79c1.41,.08,1.99,.18,2.57,.13,1.23-.09,3.15,.66,3.44-.91,.35-1.89-1.69-2.01-3.05-2.29-3.63-.75-7.26-.55-10.84,.33-.99,.24-2.09,.64-1.92,1.96,.17,1.32,1.32,1.48,2.34,1.42,2.76-.18,5.52-.46,7.46-.64Zm-108.81-46.17c2.08-.51,4.89-1.17,7.69-1.88,.71-.18,1.5-.56,1.42-1.38-.08-.76-.85-1.13-1.6-1.23-2.92-.37-5.8-.01-8.59,.78-1.32,.37-3.83-.6-3.61,1.86,.17,1.96,2.35,1.69,4.7,1.86Zm112.72,66.66c.06-.39,.11-.79,.17-1.18-4.89-2.03-9.9-3.56-15.39-2.78-.85,.12-1.81,.32-1.89,1.44-.07,.99,.78,1.14,1.48,1.2,5.21,.46,10.42,.89,15.63,1.33Zm-140.25,47.52c4.79,2.97,11.74,.17,15.59-6.24-5.98,1.01-9.74,6.16-15.59,6.24Zm345.75,614.55c-.45-2.93-1.54-5.64-4.76-6.48-1.78-.46-2.15,1.16-1.94,2.56,.44,2.95,1.27,5.94,4.42,6.92,2.05,.64,1.98-1.51,2.28-2.99Zm-328.59,87.97c3.42-2.47,5.77-4.63,8.84-5.57,1.11-.34,2.97,.08,2.94-1.83-.01-.71-.77-1.57-1.41-2.08-1.31-1.05-2.81-.83-4.05,.14-2.75,2.16-4.87,4.8-6.32,9.34ZM419.31,141.71c-3.68-3.23-7.16-2.38-10.63-1.12-1.06,.38-2.41,.79-2,2.32,.33,1.25,1.51,1.76,2.72,1.73,3.36-.09,6.43-1.2,9.91-2.93Zm-150.23-9.25c5.75,3.64,13.79-.55,14.91-7.76-4.87,3.11-8.88,7.04-14.91,7.76Zm216.46-63.42c1.45-.07,2.91-.09,4.36-.24,.96-.1,2.34,0,2.42-1.26,.07-1.15-1.18-1.6-2.16-1.82-3.31-.75-6.65-.52-9.97,0-.7,.11-1.46,.37-1.52,1.26-.05,.85,.59,1.3,1.27,1.58,1.81,.74,3.73,.43,5.61,.48Zm-194.53,68.51c-5.26,2.32-8.33,7.95-15.09,8.8,5.54,2.81,11.06-.56,15.09-8.8Zm-18.5-21.4c-4.15-.89-10.33,1.77-11.92,4.78-.43,.82-.66,1.61-.02,2.4,.52,.65,1.23,.86,1.9,.36,3.28-2.42,6.53-4.9,10.05-7.55Zm220.52,275.23c2.78-2.33,4.76-4.38,5.71-7.18,.63-1.85,.08-3.62-1.89-4.27-2.13-.69-2.28,1.32-2.65,2.59-.75,2.6-1.86,5.19-1.17,8.86Zm58.48-241.51c-1.28,.16-3.12-.07-3.43,1.77-.33,1.94,1.63,1.65,2.75,2.04,2.07,.72,4.17,1.33,6.26,1.98,.82,.26,1.81,.7,2.35-.27,.48-.87-.15-1.7-.77-2.33-1.92-1.97-4.28-3.01-7.16-3.19Zm-6.35,16.17c-.77,.02-1.8,.16-2.26,1.26-.42,1,.26,1.67,1,2.14,2.33,1.49,4.48,3.17,6.36,5.21,.81,.88,1.77,1.26,2.04-.49,.4-2.59-4.19-7.99-7.14-8.12Zm18.13,69.42c0,.73-.06,1.46,.02,2.18,.11,.98,.04,2.3,1.28,2.47,1.36,.19,1.52-1.17,1.71-2.11,.68-3.39,.56-6.7-1.44-9.69-.48-.72-1.16-1.52-2.14-1.11-1.05,.45-.69,1.5-.45,2.27,.61,1.96,1.24,3.9,1.02,5.98Zm-71.19-154.37c-4.2-2.04-8.69-1.46-13.08-1.66-.59-.03-1.17,.27-1.21,.96-.06,1.06,.66,1.56,1.57,1.72,4.27,.76,8.5,.71,12.72-1.02Zm-32.56,62.61c-1.67,.32-4.19,.09-4.31,2.43-.11,2.18,2.07,2.95,4.07,2.84,1.9-.1,4.64,.19,4.64-2.49,0-2.08-2.29-2.66-4.4-2.78Zm88.54,484.45c-.18-2.1-1.32-3.27-3.34-3.27-2.21,0-3.52,1.32-3.61,3.48-.08,1.94,.93,3.51,2.99,3.51,2.29,0,3.66-1.43,3.95-3.72Zm.5-470.02c-.84,.1-2.16-.31-2.36,1.09-.13,.95,.81,1.53,1.64,1.82,2.22,.78,4.33,1.77,6.26,3.12,.61,.43,1.35,.72,2,.16,.87-.76,.33-1.64-.04-2.39-1.52-3.07-4.39-3.58-7.5-3.8Zm-63.03-106.18c2.05-.34,4.21-.66,6.36-1.09,.64-.13,1.56-.22,1.5-1.21-.05-.87-.83-1.16-1.51-1.37-2.32-.73-4.63-.34-6.91,.26-1.15,.31-3.08,.02-2.83,1.86,.21,1.59,2.01,1.32,3.39,1.55Zm87.57,592.28c-2.07,.22-3.17,1.37-3.23,3.38-.07,2.04,1.05,3.45,3.03,3.44,2.09-.02,3.49-1.35,3.48-3.59,0-2.1-1.35-3.02-3.27-3.23ZM260.38,103.34c-.62,3.06-1.62,5.41-3.3,7.46-.66,.81-1.1,1.8-.06,2.66,.94,.78,1.88,.35,2.76-.25,3.41-2.29,3.83-6.16,.6-9.88Zm302.24,663.52c-.15-1.97-1.32-3.13-3.28-3.36-2-.23-3.57,.72-3.78,2.74-.24,2.24,1.31,3.53,3.4,3.71,1.98,.17,3.23-1.03,3.66-3.09Zm-11.68-113.36c-2.14,.28-3.14,1.52-2.99,3.6,.13,1.86,1.21,3.06,3.08,3.03,2.06-.03,3.21-1.35,3.27-3.38,.06-2.22-1.48-2.97-3.36-3.25Zm-25.11-57.48c1.99-.29,3.34-1.35,3.36-3.36,.02-2.06-1.3-3.19-3.36-3.16-2.04,.03-3.31,1.16-3.31,3.24,0,2.09,1.38,3.03,3.31,3.29ZM324.91,162.82c-.46-1.78-1.84-1.92-3.12-1.87-2.45,.1-4.84,.93-5.41,3.49-.3,1.35,1.55,2.13,2.89,1.89,2.29-.41,4.46-1.27,5.65-3.51Zm225.74,623.87c2.08-.35,3.03-1.67,2.94-3.65-.09-1.91-1.35-2.89-3.16-2.86-2.04,.04-3.29,1.23-3.19,3.31,.1,2.02,1.38,3.07,3.4,3.2Zm.96-101.21c1.83-.33,3.3-1.24,3.4-3.29,.09-1.91-1.12-2.96-3-2.96-2.03,0-3.43,1.11-3.48,3.12-.05,1.78,1.19,2.87,3.09,3.13Zm14.56-2.47c1.78-.27,3.15-1.22,3.34-3.25,.18-1.9-.86-3.12-2.74-3.26-2.24-.16-3.64,1.03-3.75,3.3-.1,1.95,1.23,2.8,3.14,3.21Zm-1.54-62.28c-1.66,.16-3.11,.87-3.19,2.79-.08,2,1.03,3.31,3.14,3.37,2.12,.06,3.31-1.12,3.26-3.19-.04-1.87-1.27-2.82-3.21-2.97Zm-4.65-481.42c1.13-.14,2.22,.3,2.48-.92,.21-.98-.47-1.6-1.26-2.07-2.09-1.25-4.35-1.69-6.72-1.3-.63,.1-1.53,.65-1.68,1.17-.3,1.05,.73,1.52,1.54,1.75,1.96,.56,3.95,.97,5.63,1.37Zm-50.96,9.85c1.74-.29,4.34-.31,4.54-2.37,.2-1.99-2.18-2.34-3.97-2.34-1.8,0-3.99,.33-4.2,2.29-.2,1.86,1.83,2.3,3.62,2.42Zm24.92,396.15c-.12-1.9-1.2-2.96-3.03-3.08-1.84-.12-3.18,.76-3.31,2.7-.15,2.12,1.13,3.35,3.14,3.4,1.85,.05,2.84-1.23,3.2-3.02Zm-202.89,236.58c-.32-1.95-1.37-3.23-3.44-3.15-1.85,.08-2.98,1.28-2.96,3.1,.01,1.76,.92,3.09,2.88,3.14,2.05,.06,3.21-1.05,3.52-3.09Zm184.49-234.24c-.36-1.8-1.51-2.76-3.31-2.76-2.07,0-3.31,1.12-3.17,3.22,.12,1.83,1.35,2.91,3.17,2.89,2.06-.02,3.03-1.38,3.31-3.35Zm-1.93-25.11c-1.63,.3-2.65,1.3-2.63,3.22,.03,1.88,.93,3.18,2.85,3.11,1.96-.07,3.36-1.21,3.19-3.35-.15-1.81-1.37-2.81-3.41-2.99Zm41.05,71.66c1.7-.32,2.91-1.32,2.85-3.17-.06-1.89-1.33-2.87-3.19-2.79-1.89,.08-2.92,1.17-2.87,3.09,.05,1.98,1.31,2.75,3.22,2.87Zm6.78-463.02c1.4-.11,3.39-.27,2.27-2.3-1.25-2.27-3.96-1.92-6.23-1.83-1.2,.05-2.67,.86-2.31,2.02,.63,2.01,2.95,1.22,4.49,1.81,.52,.2,1.13,.2,1.78,.3Zm-73.35-97.47c-.73,0-1.32-.07-1.89,.01-1.04,.15-2.7-.61-2.88,1.01-.18,1.58,1.4,2,2.69,2.32,.56,.14,1.18,.23,1.73,.11,2-.44,5.49,.36,5.47-2.02-.01-2.24-3.44-.8-5.11-1.44Zm-121.54,511.21c1.7-.29,3.26-.94,3.18-2.9-.07-1.85-1.58-2.8-3.26-2.94-1.85-.15-3.16,.96-3.12,2.83,.04,1.84,1.47,2.69,3.19,3.01ZM563.1,121.62c1.62,.07,3.14,.2,3.26-1.6,.16-2.37-1.64-2.78-3.48-2.81-1.74-.03-4.26,.08-4.24,1.95,.03,2.62,3.18,1.5,4.47,2.45Zm-7.56,588.88c1.67-.33,3.01-1.39,2.92-3.42-.08-1.82-1.35-2.93-3.2-2.84-1.84,.09-2.92,1.27-2.94,3.13-.03,1.9,1.08,2.9,3.23,3.13Zm-8.04-138.1c0-2.07-1.11-3.12-2.92-3.21-1.85-.09-3.1,.98-3.18,2.85-.08,1.86,1.02,3.04,2.91,3.12,1.88,.08,2.94-1,3.19-2.76Zm-23.08-4.7c-.22-1.95-1.5-2.92-3.21-2.89-2.01,.03-3.16,1.31-3.01,3.41,.12,1.68,1.15,2.62,2.84,2.59,2.01-.03,3.2-1.06,3.37-3.1Zm33.18,232.81c-.29-1.83-1.48-2.72-3.28-2.65-1.89,.08-2.91,1.21-2.82,3.11,.09,1.92,1.3,2.92,3.13,2.8,1.85-.12,2.7-1.45,2.97-3.26Zm-13.6-196.7c-.12-2-1.33-2.95-3.12-2.93-1.63,.01-2.77,1-2.82,2.71-.05,1.85,.91,3.08,2.84,3.12,1.91,.04,2.89-1.08,3.1-2.9ZM368.77,146.14c-1.92,.56-4.65,.08-5.53,2.41-.5,1.31,1.29,2.25,2.67,1.99,2.08-.39,4.6-.76,5.41-2.92,.55-1.48-1.34-1.36-2.54-1.48ZM489.33,28.95c1.38-.52,3.92,.51,4.21-1.79,.31-2.45-2.15-1.82-3.55-1.78-1.73,.04-4.48-.9-4.8,1.45-.32,2.4,2.41,1.68,4.14,2.11Zm77.2,719.1c-.16-1.67-1.14-2.66-2.79-2.79-1.7-.14-2.93,.83-3.02,2.47-.1,1.8,.92,3.1,2.91,3.07,1.7-.03,2.62-1.07,2.9-2.75Zm-233.17-161.03c-1.53,.17-2.74,.99-2.85,2.63-.12,1.83,.95,3.1,2.83,3.13,1.85,.03,3.02-1.13,2.95-3.01-.06-1.65-1.2-2.53-2.93-2.75Zm228.53-440.73c-3.63-4.62-6.4-5.4-11.57-3.44,3.68,1.95,7.2,2.69,11.57,3.44Zm-51.64,204.64c2.23-.34,3.63-1.6,3.67-4.03,.03-1.51-.6-3.78-1.89-3.39-2.38,.72-1.78,3.93-3.11,5.79-.7,.99,.16,1.55,1.33,1.63Zm-8.92,103.7c-1.27,.06-1.55,.8-1.08,1.74,.9,1.81,0,4.82,2.72,5.3,1.5,.26,2.46-1.44,2.37-3.07-.14-2.48-2.06-3.28-4.01-3.97Zm-180.19,305.9c-1.61,.13-2.77,.95-2.88,2.61-.11,1.67,.87,2.73,2.57,2.81,1.7,.08,2.74-.9,2.89-2.54,.17-1.76-1-2.54-2.59-2.87ZM570.75,231.51c.46,1.19-.79,3.3,1.59,3.37,1.98,.06,2.73-1.62,2.82-3.28,.11-1.93-.81-3.68-2.92-3.57-2.23,.11-1.05,2.26-1.5,3.49Zm-42.04,88.28c5.9,.12,8.24-3.46,5.67-8.58-1.35,3.33-2.27,6.75-5.67,8.58Zm-35.01,100.82c.61,1.27-.37,3.8,1.99,3.86,1.59,.04,2.58-1.69,2.4-3.5-.16-1.7-.92-3.18-2.76-3.31-2.1-.15-1.41,1.64-1.63,2.95Zm-119.98,149.04c-.11-1.68-1.13-2.57-2.81-2.61-1.67-.03-2.81,.82-2.96,2.56-.15,1.74,.72,2.82,2.49,2.91,1.89,.1,3.01-.87,3.29-2.87Zm315.27,54.01c-1.41-.01-3.32-.47-3.38,1.14-.08,2.26,2.26,2.27,3.88,2.5,1.43,.21,3.4-.04,3.37-1.78-.05-2.66-2.7-1.13-3.87-1.86Zm-297.38-68.9c-1.67,.06-2.66,.87-2.71,2.39-.06,1.65,.77,2.86,2.56,2.93,1.75,.07,2.78-.97,2.86-2.65,.09-1.84-1.22-2.48-2.71-2.68Zm157.55-257.3c2.74-.01,4-1.32,4.69-3.17,.6-1.6-.09-2.9-1.66-3.44-2.05-.71-1.92,.99-2.16,2.21-.27,1.36-.54,2.72-.87,4.4Zm-206.05,342.34c-1.78,.14-2.88,1.14-2.91,2.76-.03,1.63,1.09,2.79,2.76,2.82,1.71,.03,2.72-1.26,2.83-2.8,.12-1.7-1.11-2.56-2.68-2.78Zm-10.02,75.75c-1.61,.18-2.76,.9-2.83,2.64-.06,1.52,.84,2.49,2.3,2.63,1.64,.15,2.85-.72,3.06-2.38,.22-1.73-.9-2.59-2.52-2.89Zm15.67-114c1.78-.06,2.86-.84,2.91-2.6,.06-1.77-1.06-2.67-2.68-2.74-1.49-.06-2.49,.89-2.59,2.35-.11,1.63,.75,2.71,2.36,2.98ZM424.39,74.21c-3.07-1.5-5.65-.81-8.16-.79-.75,0-1.57,.39-1.57,1.18,0,1.05,.95,1.41,1.83,1.4,2.54,0,5.2,.48,7.89-1.79Zm-93.15,537.66c-.29-1.76-1.49-2.52-3.08-2.32-1.59,.2-2.66,1.25-2.43,3,.21,1.55,1.36,2.15,2.82,2.05,1.67-.1,2.67-.95,2.68-2.73Zm-43.88,243.21c2.35-2.08,4.18-3.68,5.99-5.3,.67-.6,2.27-.9,1.44-2.16-.91-1.37-2.35-.87-3.38,.06-1.96,1.78-3.12,4.07-4.05,7.4Zm6.84-172.4c1.41-.15,2.52-.74,2.61-2.29,.09-1.7-.85-2.69-2.55-2.79-1.5-.08-2.52,.71-2.64,2.21-.13,1.73,.98,2.55,2.58,2.87Zm81.6-136.74c1.73-.21,2.65-1.31,2.53-2.91-.11-1.43-1.23-2.27-2.72-2.23-1.5,.04-2.46,.84-2.47,2.4,0,1.7,.9,2.66,2.65,2.74Zm-33.56,112.65c-1.59,.37-2.65,1.28-2.42,3.01,.2,1.49,1.25,2.27,2.76,2.15,1.74-.14,2.64-1.23,2.43-2.92-.19-1.47-1.28-2.18-2.78-2.24Zm54.37-122.55c-.32-1.43-1.07-2.63-2.87-2.5-1.61,.12-2.21,1.3-2.21,2.76,0,1.48,.69,2.61,2.28,2.69,1.82,.09,2.51-1.17,2.8-2.95Zm-66.86,94.98c-1.57-.03-2.52,.79-2.72,2.28-.21,1.57,.68,2.59,2.19,2.71,1.65,.14,2.88-.63,2.94-2.47,.05-1.58-.86-2.39-2.4-2.52Zm81.13-111.48c1.6-.28,2.73-1.17,2.54-2.88-.16-1.41-1.19-2.36-2.72-2.21-1.52,.14-2.27,1.22-2.28,2.67-.01,1.54,.88,2.35,2.46,2.42Zm92.46,8.8c.03-1.71-.95-2.48-2.42-2.5-1.61-.03-2.27,1.13-2.32,2.58-.04,1.24,.35,2.42,1.81,2.51,1.75,.1,2.52-1.12,2.93-2.58Zm-107.03-33.54c1.1-.33,2.27-.86,2.36-2.42,.09-1.57-.9-2.41-2.35-2.5-1.49-.09-2.5,.78-2.58,2.28-.08,1.51,.89,2.32,2.57,2.65Zm-64.97,242.49c-1.44,.04-2.54,.73-2.51,2.29,.02,1.24,.87,2.2,2.21,2.27,1.55,.09,2.5-.86,2.57-2.33,.06-1.34-.87-2.05-2.27-2.23Zm-20.08-20.05c-.13-1.44-1.03-2.08-2.34-2.07-1.54,0-2.54,.82-2.47,2.41,.06,1.32,.98,2.15,2.3,2.14,1.54,0,2.33-.99,2.51-2.48ZM415.01,67.62c3.21-.16,6.42-.33,9.63-.49-.02-.42-.04-.85-.06-1.27-3.26-.82-6.49-1.18-9.57,1.76Zm-5.83,399.28c-.08,1.34,.57,2.22,1.85,2.43,1.52,.25,2.52-.57,2.69-2.05,.18-1.56-.83-2.42-2.29-2.47-1.28-.04-2.12,.7-2.24,2.08Zm-106.23,191.01c-1.28,.22-2.29,.79-2.18,2.23,.1,1.27,.84,2.3,2.21,2.27,1.46-.03,2.58-.9,2.46-2.47-.1-1.34-1.25-1.85-2.49-2.03Zm106.54-159.8c-1.39,.02-2.21,.71-2.21,2.11,0,1.43,.48,2.66,2.2,2.63,1.33-.02,2.23-.86,2.36-2.14,.16-1.58-.89-2.34-2.34-2.61ZM488.83,14.1c-1.19,.29-3.04-.04-2.8,1.86,.2,1.6,1.95,1.52,3.2,1.53,1.12,0,2.6-.11,2.56-1.67-.04-1.91-1.78-1.44-2.95-1.71Zm-156.46,686.63c1.54-.11,2.47-.89,2.41-2.49-.05-1.36-.89-2.17-2.24-2.2-1.6-.03-2.43,.92-2.39,2.47,.03,1.36,.84,2.12,2.22,2.22Zm15.56,52.5c.03-1.46-.62-2.34-1.95-2.56-1.6-.25-2.51,.62-2.73,2.12-.21,1.39,.55,2.24,1.91,2.4,1.52,.19,2.52-.47,2.77-1.97Zm52.53-236.19c-1.14,.24-2.07,.98-2.06,2.28,0,1.23,.64,2.29,2.09,2.31,1.55,.02,2.53-.81,2.41-2.39-.09-1.27-.94-2.07-2.44-2.2Zm156.94-327.73c-.02,3.09-.68,5.23,1.2,6.66,.68,.52,1.72-.36,2.07-1.17,1.12-2.64-1.12-3.41-3.26-5.49Zm131.56,422.53c-1.02,.16-2.68-.46-2.63,1.25,.04,1.51,1.7,1.78,2.94,2.03,1.13,.22,2.64,.17,2.62-1.33-.02-1.6-1.7-1.62-2.93-1.95Zm-272.25-129.53c1.31-.08,2.22-.66,2.35-2.04,.11-1.17-.5-1.97-1.66-2.15-1.34-.21-2.28,.45-2.55,1.76-.29,1.41,.55,2.13,1.85,2.44Z"/>
  <path d="M415.01,803.75c2.73-.74,3.85,1.11,5.23,2.23,5.18,4.17,9.7,4.45,15.2,.63,2.28-1.58,4.4-3.38,6.53-5.16,3.55-2.97,7.24-3.22,10.69-.13,9.72,8.7,10.92,6.72,20.28-.83,7.3-5.89,10.74-5.91,18.15,.02q5.04,4.02,9.69-.43c1.82-1.75,3.86-3.15,6.12-1.18,2.41,2.1,.17,3.91-.94,5.68-.39,.62-.85,1.19-1.3,1.77-4.93,6.3-6.94,6.27-12-.05-1.37-1.71-2.77-3.42-4.39-4.88-4.19-3.79-7.75-3.75-12.02-.1-3,2.56-5.95,5.19-9.04,7.63-3.35,2.63-6.57,2.32-9.91-.41-9.25-7.56-9.31-7.5-18.76-.19-9.47,7.32-15.07,6.3-23.54-4.57Z"/>
  <path d="M490.26,742.33c-5.14,6.69-12.07,10.21-20.45,10.99-3.37,.32-5.82-.58-7.88-3.45-2.94-4.11-4.12-4.09-8.15-.99-1.97,1.51-3.88,3.12-5.99,4.43-7.38,4.58-14.47,2.39-18.05-5.5-1.27-2.8-1.99-5.75-1.49-9.07,1.13,1.95,2.17,3.97,3.4,5.85,4.5,6.87,9.86,8.04,16.75,3.68,2.1-1.33,4.08-2.84,6.17-4.17,2.31-1.47,5.05-1.96,6.79,.32,6.61,8.64,14.21,4.87,21.69,1.98,2.54-.98,4.8-2.7,7.19-4.08Z"/>
  <path d="M443.39,693.59c2.46-3.27,4.93-2.98,6.7-1.47,8.78,7.48,16.46,3.9,24.05-1.96,1.04-.8,2.16-1.51,3.26-2.23,7.43-4.84,10.37-4.53,16.03,2.25,2.12,2.54,4.05,2.93,6.74,1.17,3.13-2.04,6.36-3.93,9.83-5.5-3.75,3.98-7.66,7.74-12.27,10.64-2.47,1.56-4.39,.22-5.34-2-3.86-9-7.66-7.85-15.06-2.85-3.39,2.29-6.73,4.67-10.2,6.83-4.63,2.88-9.08,2.46-13.43-.9-2.81-2.17-5.46-4.85-10.32-3.99Z"/>
  <path d="M422.68,738.26c-2.18,3.01-4.15,6.21-6.59,9.01-7,8.02-11.03,8.64-20.07,3.11-2.57-1.57-4.19-2.03-5.68,1.25-.88,1.94-2.53,3.56-3.95,5.22-1.19,1.39-2.71,2.44-4.6,1.4-1.92-1.05-2.35-2.89-1.95-4.92,1.15-5.78,9.09-9.69,14.31-7.09,11.5,5.74,14.66,5.17,23.52-4.21,1.39-1.47,2.73-2.99,4.1-4.49,.3,.24,.6,.47,.91,.71Z"/>
  <path d="M419.56,581.37c1.43,.51,1.16,1.56,1.43,2.31,1.4,3.82,3.34,4.67,7.09,2.97,3.36-1.53,5.95-4.18,8.96-6.24,5.18-3.54,7.67-3.04,11.17,2.21,3.67,5.51,3.71,5.52,8.97,1.59,2.17-1.62,4.35-3.23,6.82-4.49-2.73,4.12-6.19,7.51-10.05,10.42-2.27,1.71-4.24,.44-5.4-1.75-5.2-9.83-7.78-6.6-14.07-2.07-1.89,1.36-3.8,2.75-5.85,3.82-5.74,3.01-8.45,1.58-9.25-4.72-.16-1.28-.5-2.58,.18-4.05Z"/>
  <path d="M508.36,641.88c-2.45,2.24-4.78,3.11-7.08,3.97-6.03,2.24-8.54,.32-8.1-6.17,.11-1.57,.48-3.12,.8-5.13-4.58,1.71-7.27,5.43-11.1,7.4-3,1.54-5.88,5.01-9.47,2.31-3.48-2.62-1.76-6.72-1.41-10.26,.06-.65,.59-1.25,.96-1.99,1.79,1.48,1.05,3.4,1.29,5.01,.55,3.72,2.46,4.89,5.78,3.27,4.59-2.24,9.08-4.69,13.63-7.02,.64-.33,1.35-.49,2.36-.85,.54,3.32-.72,7.08,2.08,9.47,3.03,2.59,6.41-.42,10.25,0Z"/>
  <path d="M402.61,628c-7.26,4.64-12.76,11.57-20.09,16.18-2.53,1.59-5.06,3.32-7.94,.79-2.17-1.9-3.21-8.99-1.72-11.2,.96-1.42,1.87-1.16,2.6,.21,.2,.37,.2,.85,.29,1.27,1.65,7.63,2.37,7.91,9.17,4,6.05-3.48,11.02-8.59,17.69-11.26Z"/>
  <path d="M461.89,637.71c.18,3.93-4.71,11.23-7.2,12.25-1.74,.71-3.14,.19-4.31-1.07-1.17-1.25-1.8-2.78-.86-4.37,2.25-3.79,5.85-5.92,9.83-7.42,1.42-.54,2.51,.22,2.54,.61Z"/>
  <path d="M397.69,693.39c1.13-3.65,3.65-3.78,5.81-3.09,5.05,1.59,8.63-.24,12.03-3.81,2.66-2.79,5.93-4.68,10.51-2.67-6.03,1.03-8.7,6.22-12.91,9.5-1.76,1.37-3.89,1.21-5.89,.82-3.01-.59-6.02-.94-9.55-.75Z"/>
  <path d="M458.6,629.33c-3.55,5.32-8.17,9.24-14.34,11.12-2.24,.68-4.34-.18-5.94-1.91-.86-.92-1.07-2.1-.61-3.27,.48-1.24,1.7-2.09,2.78-1.56,6.76,3.3,11.35-.9,16.19-4.4,.42-.3,.88-.83,1.93,.02Z"/>
  <path d="M377.09,737.15c-2.35,7.12-11.01,11.49-16.81,8.47-1.48-.77-2.87-1.69-2.24-3.69,.61-1.93,2.34-2.5,3.86-1.75,5,2.46,8.97,.48,12.9-2.4,.6-.44,1.28-1.35,2.29-.62Z"/>
  <path d="M374.93,687.42c-3.92,3.92-5.92,8.92-8.16,13.79-1.05,2.29-2.76,4-5.55,2.86-3-1.23-4.43-3.74-4.38-6.93,.02-1.4,1.06-1.82,2.05-.77,3.27,3.47,5.49,.92,7.6-1.34,2.56-2.75,4.62-6.02,8.44-7.61Z"/>
  <path d="M422.86,637.64c-.1,3.04-5.78,8.5-8.58,8.73-3.77,.31-4.78-2.78-6.15-5.28-.79-1.44-.21-3.25,1.43-2.29,3.93,2.31,6.59-.27,9.67-1.61,1.44-.62,3-1.31,3.63,.45Z"/>
  <path d="M402.78,577.89c.8,6.25,3.18,4.14,5.27,2.06,2.04-2.03,3.84-4.31,6.37-7.19-1.62,6.86-5.11,11.68-8.69,16.39-1.32,1.73-2.92,1.19-3.81-.61-1.54-3.13-2.11-6.32,.86-10.64Z"/>
  <path d="M512.26,690.43c3.46,3.09,6.25,5.53,8.98,8.04,1.74,1.6,2.23,3.56,.42,5.31-1.99,1.92-4.21,1.27-5.64-.71-2.48-3.44-3.99-7.32-3.76-12.64Z"/>
  <path d="M386.35,805.06c-2.64,.09-8.95-4.18-9.58-6.16-.41-1.29,.4-1.59,1.35-1.38,.67,.15,1.26,.68,1.85,1.09,5.1,3.47,6.15,3.34,10.42-.89,1.17-1.16,2.52-3.85,3.86-2.78,1.79,1.42-.8,3.15-1.56,4.65-1.42,2.77-3.34,5.15-6.35,5.47Z"/>
  <path d="M455.24,423.72c1.62,2.19-.03,5.88,3.25,6.44,3.13,.53,3.64-3.32,5.87-4.59-.62,5.06-3.61,9.36-6.73,9.61-2.19,.18-3.64-1.02-4.36-2.94-1.2-3.21-.77-6.09,1.97-8.53Z"/>
  <path d="M425.34,537.68c1.59,.92,1.53,2.24,2.02,3.24,1.56,3.17,3.73,3.78,6.8,2.09,2.99-1.65,5.56-4.14,9.21-4.6-3.12,3.68-6.7,6.8-10.98,8.91-3.09,1.53-5.83,.08-6.83-3.28-.59-1.96-.7-4.02-.21-6.36Z"/>
  <path d="M454.83,468.46c4.68,6.37,5.4,6.59,13.73,4.5-2.2,4.97-5.31,6.84-9.1,5.49-4.1-1.46-5.98-5.22-4.63-9.99Z"/>
  <path d="M517.33,754.68c-.02,1.25-.8,3.25-2.83,2.9-4.93-.85-3.76-5.44-4.6-8.71-.25-.97-.58-2.49,1.27-2.59,2.25-.12,6.14,4.79,6.16,8.4Z"/>
  <path d="M396.08,642.3c.73-2.51,1.37-5.78,4.76-6.19,1.97-.24,3.34,1.9,2.93,4.02-.53,2.76-.71,6.26-4.56,6.46-2.17,.11-3.11-1.82-3.13-4.29Z"/>
  <path d="M431.32,694.65c-.2,2.25-.82,4.34-2.12,6.17-1.05,1.47-2.51,2.18-4.17,1.22-1.6-.92-1.93-2.45-1.2-4.18,.99-2.35,2.9-4.01,4.44-5.94,.48-.6,1.13-.91,1.89-.37,1.11,.78,1.13,1.96,1.16,3.11Z"/>
  <path d="M378.86,701.91c-.6,2.26-.21,5.72-3.25,5.37-3.26-.38-3.31-3.89-3.44-6.65-.11-2.42,1.16-4.15,3.55-3.95,3.15,.27,2.87,3.07,3.14,5.23Z"/>
  <path d="M442.77,474.63c-2.51,.05-4.21-.99-5.05-3.06-.57-1.39-1.79-3.27-.21-4.36,1.32-.91,2.11,1.03,2.88,1.95,2.14,2.59,4.07,1.03,6.14-.07,.88-.47,1.98-1.84,2.96-.33,.64,.99-.28,1.93-.94,2.68-1.59,1.82-3.57,2.95-5.78,3.2Z"/>
  <path d="M489.68,586.73c2.88,7.34,8.7,2.55,13.04,3.47-1.82,3.04-7.82,5.98-10.53,4.82-3.65-1.56-2.26-5.12-2.51-8.29Z"/>
  <path d="M508.62,757.01c-.04,1.74-.49,3.47-2.58,3.23-3.54-.4-3.88-3.49-4.28-6.17-.24-1.62,.26-3.29,2.47-3.28,2.2,.02,4.45,3.27,4.39,6.21Z"/>
  <path d="M468.22,583.8c6.99,6.68,11-1,17.5-2.8-3.77,4.02-6.76,7.02-10.63,8.83-3.47,1.62-5.75-.31-6.86-6.03Z"/>
  <path d="M468.14,365.94c-1.4,2.48-2.88,4.87-5.14,6.66-1.57,1.24-3.36,1.21-4.82-.14-1.55-1.44-1.68-3.36-.91-5.27,.34-.86,1.2-1.66,1.93-.55,2.52,3.85,4.53,1.57,6.67-.36,.51-.46,1.1-1.01,2.28-.34Z"/>
  <path d="M399.77,804.87c-.53,2.28-1.44,4.57-4.5,4.66-1.82,.06-3.28-1.12-2.95-2.93,.47-2.56,1.54-5.26,4.62-5.54,2.07-.19,2.87,1.57,2.83,3.8Z"/>
  <path d="M451.92,495.97c-1.48,3.62-3.39,5.21-5.13,6.9-1.66,1.62-3.44,3.61-6.05,2.4-2.78-1.29-3.49-3.92-3.67-6.74,1.75-.51,1.7,.65,1.89,1.38,.78,2.95,2.67,2.76,4.69,1.56,2.47-1.47,4.8-3.17,8.27-5.49Z"/>
  <path d="M475.53,431.77c-2.37,1.99-4.67,4.17-7.69,1.85-2.35-1.81-1.43-6.71,1.52-9.97q1.34,6.94,6.17,8.12Z"/>
  <path d="M453.46,386.71c1.46,2.26,.98,5.73,3.81,6.15,2.83,.42,2.87-3.71,6.54-4.89-1.77,3.62-2.76,6.58-5.65,8.4-1.19,.75-2.68,.62-3.63-.42-2.43-2.66-2.13-5.75-1.08-9.24Z"/>
  <path d="M446.86,537.35q5,6.23,11.8,4.39c-2.93,3.33-6.44,5.27-8.39,4.2-3.4-1.86-3.31-5.34-3.42-8.59Z"/>
  <path d="M478.13,548.11c-3.14,2.63-5.4,4.1-7.95,2.14-3-2.29-1.44-5.13,.08-8.32,.09,4.66,2.76,6.23,7.87,6.18Z"/>
  <path d="M468.85,500.71c1.72,4.46,4.79,5.29,9.63,3.74-2.97,3.13-5.44,5.13-8.59,3.59-2.82-1.38-2.73-4.07-1.05-7.33Z"/>
  <path d="M471.78,397.69c-2.26,1.77-4.41,2.62-6.01,.3-2.01-2.92-.91-5.66,1.87-8.65,.54,3.61,.45,6.97,4.15,8.35Z"/>
  <path d="M463.46,501.39c-1.86,2.55-3.46,3.98-5.51,4.76-1.43,.54-2.95,.38-3.86-1.13-.73-1.21-.78-2.5,.03-3.73,.39-.59,1.26-1.48,1.62-.67,1.76,3.94,4.36,1.22,7.72,.76Z"/>
  <path d="M471.56,367.97c.4,2.9-.32,4.81,.57,6.61,.51,1.03,.4,2.1-.79,2.51-.75,.26-1.75,.27-2.49,0-1.09-.4-1.33-1.49-1.06-2.55,.58-2.24,1.82-4.1,3.77-6.57Z"/>
  <path d="M456.46,418.16c-2.22,3.32-4.85,6.25-7.88,8.82-.62,.53-1.55,1.01-2.29,.13-.4-.48-.2-1.25,.34-1.48,3.94-1.62,6.16-5.45,9.82-7.47Z"/>
  <path d="M325.58,219.64c.44-7.22,3.22-14.85,10.31-20.36,5.81-4.52,12.17-4.63,18.27-.52,12.47,8.41,14.53,25.18,4.46,36.31-5.71,6.31-14.17,8.45-21.5,5.43-7.42-3.06-11.76-10.32-11.54-20.87Zm31.93-2.97c-.29-2.62-1.36-4.6-4.19-4.76-2.78-.16-4.37,1.46-4.66,4.14-.31,2.9,1.47,4.42,4.07,4.64,2.69,.23,4.3-1.37,4.78-4.02Zm-10.1-13.89c-2.44,.44-4.16,1.67-4.1,4.28,.06,2.62,1.91,3.99,4.27,4.02,2.5,.03,4.01-1.62,4-4.19-.02-2.66-1.78-3.76-4.16-4.11Z"/>
  <path d="M458.7,209.19c.48-7.89,3.6-15.67,11.13-21.2,5.52-4.05,11.91-4.19,17.69-.59,11.93,7.42,14.65,25.19,5.47,35.8-5.84,6.75-14.14,8.93-22.23,5.83-7.52-2.87-12.1-9.96-12.05-19.84Zm28.38-11.14c-2.41,.4-4,1.63-4.03,4.26-.03,2.88,1.64,4.37,4.33,4.31,2.43-.06,4.24-1.59,4.23-4.1-.02-2.68-1.87-4.08-4.52-4.47Zm-1.73-3.79c-.37-2.53-1.77-4.1-4.29-4.07-2.57,.03-3.99,1.73-4,4.21-.02,2.6,1.6,3.95,4.16,3.94,2.67,0,3.77-1.72,4.13-4.08Z"/>
</svg>