<?xml version="1.0" encoding="UTF-8"?>
<svg id="Layer_1" data-name="Layer 1" xmlns="http://www.w3.org/2000/svg" viewBox="0 0 864 864">
  <path d="M363.53,840.56c2.71,10.87-2.71,19.87-13.44,22.31-6.84,1.55-13.78,1.14-20.68,.9-20.27-.69-40.57-1.11-60.62-4.89-4.67-.88-5.28-2.9-4.15-6.86,1.3-4.57,3.28-8.85,4.91-13.31-3.46,3.48-5.47,7.83-6.12,12.54-.62,4.46-2.94,5.88-6.99,5.98-9.53,.24-19.06,.8-28.59,.86-19.52,.12-39.04,1.1-58.55-.61-4.21-.37-5.54-1.68-4.89-5.99,2.57-17.22,11-29.28,28.33-34.37,8.59-2.52,17.26-4.55,26.1-5.64,4-.5,4.7-1.53,3.61-5.4-6.57-23.33-16.35-45.34-26.71-67.17-12.43-26.19-23.06-53.02-26.09-82.2-3.91-37.6,.26-74.3,13.13-109.87,19.47-53.82,48.13-102.16,86.65-144.61,8.25-9.1,16.25-18.48,23.41-28.5,6.94-9.71,9.16-20.26,5.74-31.9-.98-3.33-2.63-4.43-6.16-4.59-37.97-1.77-75.75-5.44-113-13.24-23.81-4.98-45.94-13.97-63.91-31.01-28.06-26.6-38.4-58.87-29.91-96.79,2.36-10.54,7.61-19.77,14.73-27.86,12.19-13.84,30.85-17.58,47.47-9.69,3.76,1.78,7.38,3.8,10.74,6.26q6.01,4.41,10.8-1.63c9.87-12.44,20.9-23.77,32.63-34.44,14.96-13.61,32.53-21.32,52.64-23.09,3.14-.28,4.59-1.17,5.15-4.36,1-5.63,3-10.97,6.24-15.76,3.48-5.16,6.9-5.55,11.24-1.16,1.72,1.74,3.44,3.61,4.59,5.73,2.04,3.77,3.38,2.97,5.54,.02,18.75-25.55,28.36-54.25,29.86-85.78,.05-1.08,.08-2.15,.15-3.22,.02-.28,.18-.56,.41-1.19,3.55,1.56,5.62,4.51,7.58,7.51,9.65,14.74,10.88,31.1,8.75,47.94-2.14,16.84-6.84,33.07-12.36,49.08-.52,1.5-2.2,3.49-.73,4.64,1.78,1.39,3.72-.43,5.3-1.51,12.21-8.33,23.79-17.45,34.91-27.19,17.43-15.28,33.21-31.98,45.51-51.77,.67-1.07,1.11-3.04,2.74-2.62,1.52,.39,1.2,2.34,1.32,3.6,2.33,23.74-1.6,46.58-10.15,68.7-4.94,12.78-11.11,24.97-18.01,36.75,.57,.73,1.09,.44,1.63,.13,23.03-13.33,45.71-27.17,66.44-43.98,11.2-9.08,20.76-19.62,29-31.41,.86-1.23,1.61-3.29,3.18-2.98,1.89,.37,1.83,2.69,2,4.28,1.45,13.01-1.33,25.41-5.93,37.44-7.17,18.75-18.66,34.88-30.94,50.53-9.42,12.01-19.94,22.98-30.93,33.54-1.4,1.34-3.13,2.46-3.98,4.98,9.29-2.07,18.23-4.14,27.35-5.27,29.52-3.64,58.9-3.46,88.03,3.24,6.76,1.56,13.37,3.62,18.95,8.03,1.18,.93,3.06,1.77,2.76,3.39-.35,1.88-2.49,1.35-3.9,1.56-40.97,5.97-80.07,17.68-116.4,37.87-2.28,1.27-4.5,2.65-6.73,4.01-.63,.39-1.17,.91-2.15,1.68,6.83,1.87,13.28,3.45,19.62,5.41,18.19,5.63,33.49,15.88,46.61,29.54,2.46,2.56,4.41,5.5,6.05,8.67,1.59,3.08,.74,4.04-2.63,3.84-13.1-.77-26.13-.08-39,2.59-15.17,3.15-29.39,8.91-43.07,16.03-3.3,1.72-6.04,3.04-8.74-.74-.71-.99-1.98-1.48-3.45-.2,2.15,2.5,4.56,4.83,6.4,7.54,4.29,6.34-.32,15.14-8.02,15.56-.72,.04-1.75-.05-2.13-.5-.74-.89,.19-1.62,.73-2.35,1.26-1.68,4.69-2.98,2.51-5.46-1.71-1.94-4.62-.69-6.89,.41-9.74,4.7-9.84,5.26-3.16,13.55,2.12,2.63,4.16,5.34,5.99,8.18,3.46,5.37,2.69,8.45-3.04,10.97-3.01,1.32-5.06,2.67-5.79,6.25-.7,3.44-3.17,3.84-5.81,1.51-.69-.61-1.41-1.25-1.89-2.01-.95-1.53-4.11-1.7-3.47-3.67,.69-2.13,3.58-1.92,5.58-2.58,1.89-.62,3.82-1.11,5.66-1.85,1.24-.5,.89-1.54,.13-2.21-1.26-1.11-.8,.48-1.19,.81-2.81,2.41-8.68,2.6-10.29,.09-1.71,4.06-3.31,7.97-5.01,11.83-.84,1.91,.48,2.77,1.51,3.9,4.5,4.92,8.02,10.51,10.81,16.53,2.43,5.26,.58,8.13-5.08,8.06-5.17-.06-9.81-2.43-14.74-3.56-1.76-.4-.45-2.14-1.47-3.25-1.18,2.72-2.27,5.24-4.06,9.37,3.64-4.39,4.82-2.42,6.1,.13,2.56,5.11,4.84,10.31,5.77,15.97,.88,5.33-1.61,7.77-6.99,7.45-5.21-.31-9.21-3.84-14.11-5.1-1.99-.51,1.16-2.77,.15-4.6-.83,1.41-1.8,2.8-2.52,4.3-1.17,2.43-3.33,4.18,.71,7.11,3.92,2.84,5.72,8.3,6.62,13.37,.76,4.31-2.74,8.01-7.49,7.83-3.33-.13-6.72-.57-9.94-1.8,.39-2.49,3.08-.81,3.98-2.5-1.01-1.4-2.75,.19-3.56-.61-.67-.67-.66-2.03-.99-3.21-1.37,1.64-1.41,3.57-1.94,5.3-.38,1.24-.35,1.65,1.37,2.28,3.26,1.19,7.46,13.67,6.31,17.02-.91,2.64-3.12,3.45-7.8,2.86-.66-.95,.11-1.31,.74-1.69,.61-.37,.81-.85,.47-1.69-2.62-.45-4.91,.55-7.56,1.75,2.64,3.05,5.77,5.06,7.88,8.08,4.62,6.62,2.97,10.95-4.88,12.6-.87,.18-1.72,.45-3.08,.81,4.46,4.02,2.22,6.87-.58,10.29-19.41,23.68-36.21,48.91-45.43,78.5-.41,1.32-.72,2.67-1.13,3.99-.69,2.16-.18,3.26,2.25,3.93,45.09,12.4,83.5,36.88,119,66.43,4.1,3.41,7.92,5.26,13.34,5.49,21.88,.94,41.06,9.65,58.92,21.7,4.84,3.26,9.5,6.79,14.25,10.19,1.2,.86,2.2,2.16,4.22,2.07-.11-5.82-1.3-11.35-2.2-16.92-.61-3.79-1.37-7.57-1.86-11.38-.25-1.94-1.05-4.61,2.92-3.5,1.38,.38,2.22-1.43,3.19-2.37,4.29-4.18,8.44-8.53,12.86-12.57,3.66-3.34,5.45-2.75,6.53,2.09,1.85,8.31,1.69,16.8,1.69,25.25,0,2.53,.43,4.35,3.12,5.42,2.82,1.12,4.51,.8,5.82-2.15,1.75-3.93,3.97-7.65,6.81-10.92,2.91-3.34,4.32-3.24,6.6,.52,2.97,4.89,5.19,10.18,6.47,15.72,.85,3.69,3.44,3.68,6.11,4.27,3.04,.66,3.68-1.55,4.53-3.48,2.78-6.33,5.5-12.69,8.25-19.03,.71-1.64,.8-4.14,2.81-4.39,2.18-.26,3.22,2.07,4.36,3.66,4.03,5.66,6.71,12.08,9.94,18.19,1.26,2.38,2.46,3.76,5.31,2.44,2.57-1.19,6.27-.76,5.5-5.63-.98-6.22-1.1-12.56-.84-18.87,.07-1.79-.15-4.04,1.76-4.93,1.96-.92,3.52,.76,4.81,1.97,4.59,4.32,9.22,8.61,13.49,13.23,2.16,2.34,3.68,2.15,5.62,.15,.21-.22,.46-.4,.69-.61q9.42-8.26,5.22-19.82c-1.69-4.64-3.01-9.37-3.55-14.29-.16-1.48-.68-3.29,.81-4.27,1.37-.91,2.6,.44,3.73,1.1,4.13,2.44,8.64,3.99,13.04,5.8,3.14,1.29,4.57,.82,5.46-2.75,2.62-10.51,3.78-21.18,4.15-31.95,.76-22.3-.4-44.58-.75-66.88-.36-22.77-.15-45.5,3.03-68.13,4.55-32.35,18.1-60.73,37.57-86.58,14.07-18.68,30.42-35.47,44.56-54.11,16.21-21.38,27.4-44.71,29.73-71.84,1.14-13.33-1-26.37-2.49-39.5-.16-1.42-1.39-3.29,.13-4.25,1.38-.87,2.87,.6,4.15,1.36,10.4,6.15,16.27,15.69,19.56,26.94,6.25,21.39,5.75,43.15,2.97,64.96-3.33,26.12-9.73,51.35-23.28,74.27-7.67,12.98-16.75,25.03-25.34,37.4-17.53,25.25-23.17,53.04-19.24,83.3,3.39,26.09,9.38,51.71,13,77.75,5.96,42.87,4.64,85-12.7,125.47-13.24,30.89-33.67,56.72-57.54,79.96-29.98,29.2-64.78,50.66-104.57,63.84-8.31,2.75-16.74,5.14-25.37,6.79-2.48,.47-3.3,.09-3.64-2.74-2.07-16.88-.15-33.44,3.4-49.92,.19-.9,.38-1.8,.52-2.71,.04-.27-.12-.57-.26-1.15-1.95,.83-1.71,2.75-2.04,4.12-4.15,17.05-5.36,34.24-2.72,51.69,1.63,10.79-4.28,18.29-15,19.79-.91,.13-1.84,.27-2.75,.23-24.1-1.14-48.27-1.3-72.15-5.33-7.05-1.19-8-3.53-4.3-9.87,3.31-5.67,8.4-9.28,14.22-12,7.1-3.32,14.23-6.57,21.26-10.03,1.89-.93,4.33-1.48,5.37-4.31-.95,.05-1.6-.09-2.07,.14-10.38,5-20.79,9.94-31.07,15.14-3.6,1.82-6.42,4.9-8.53,8.28-1.66,2.66-3.55,3.4-6.45,3.13-15.93-1.48-31.75-3.66-47.44-6.87-2.31-.47-4.65-1.9-7.12-.49,1.15-2.32,1.05-4.79,.76-7.23-1.77-14.69-2.33-29.36,.35-44.03,.44-2.43,1.2-4.96,.3-7.57-2.15,.64-1.47,2.3-1.74,3.51-4.16,18.47-2.81,36.91,.35,55.33ZM431.68,135.02c4.24-3.3,7.65-7.33,10.22-12.11-3.53,3.9-7.06,7.8-10.59,11.7-3.98,3.54-7.96,7.09-11.94,10.63,.28,.3,.55,.6,.83,.9,3.96-3.56,8.18-6.83,11.48-11.12Zm295.96,230.58c-.01,1.65-.37,3.39,.05,4.91,.51,1.84,1.91,3.53,3.93,1.59,1.7-1.64,.65-3.63-.25-5.43-.95-1.92-2.23-2.2-3.9-.9-1.59-2.39-5.62-1.89-8.39,1.08-.96,1.02-1.98,2.19-.98,3.63,1.04,1.49,2.56,.98,3.67,.14,2.05-1.55,3.92-3.33,5.87-5.02Zm-116.1,381.04c-2.56-1.64-4.93-1.38-6.87,.93-1.55,1.85-2.49,4-.36,6.06,2.26,2.19,4.1,.68,5.89-.91,1.34-1.19,1.73-2.8,2.14-4.41,2.44,1.47,4.63,.9,6.58-.92,2.52-2.34,2.62-5.24,1.7-8.32,3.54,2.81,10.32,1.08,12.01-3.09,.74-1.83,.6-3.62-.72-5.13-1.34-1.54-3.1-1.86-4.98-1.14-4.36,1.67-6.4,4.87-6.14,9.53-6.52-1.41-7.88-.32-9.25,7.4Zm50.11-51.35c1.05-.85,2.35-1.54,3.1-2.6,1.29-1.84,1.84-4.13,.16-5.92-1.63-1.74-3.91-2.39-6.23-1.16-2.44,1.3-2.62,3.89-3.23,6.2-3.13-2.62-6.49-2.16-9.79-.52-1.85,.92-3.05,2.46-2.96,4.75,.09,2.27,1.37,3.63,3.28,4.53,2.35,1.11,4.77,1.29,6.95-.26,3.04-2.17,3.24-5.29,2.43-8.59,1.63,2.06,3.88,2.99,6.36,3.53-.71,.98-1.63,1.88-2.09,2.97-1.03,2.45-1.88,5.13,.95,6.97,2.65,1.72,5.59,1.95,8.05-.29,2.49-2.27,1.72-5.05,.23-7.53-1.71-2.84-4.37-2.98-7.21-2.07Zm16.35-203.26c-1.77-.06-3.09-.41-3.55-2.6-.4-1.9-1.38-3.73-2.35-5.46-.89-1.6-2.42-2.39-4.29-1.8-1.76,.56-2.84,1.83-2.97,3.7-.23,3.27,1.34,5.45,4.08,7.12,1.18,.72,4.22-.6,3.4,2.25-.62,2.16-2.57-.38-3.91,.23-.38,.18-.91,.02-1.37,.07-2.1,.23-4.74-.04-5.11,2.78-.35,2.68,1.8,4,3.98,4.99,4.01,1.83,5.92-1.24,7.85-3.77,1.6,1.31,.29,2.19,.16,3.13-.54,3.69,.56,6.64,3.81,8.66,1.36,.84,2.77,1.38,4.32,.51,1.76-.99,1.86-2.68,1.74-4.41-.11-1.57-.54-3.22-1.69-4.18-2.34-1.94-4.13-3.61-2.22-7.04,.86-1.54-.73-3.12-2.02-4.3,4.88-1.4,8.68-7.31,7.34-11.85-.62-2.1-1.63-4.84-4.71-2.63-4.06,2.91-5.25,10.53-2.49,14.6ZM233.69,228.64c6.69,15.11,24.33,21.91,42.01,16.82,18.72-5.39,31.47-25.34,28.47-44.57-2.25-14.44-16.6-28.05-29.63-27.85,9.82,16.84,12.38,33.98-1.24,49.58-10.61,12.14-24.57,12.32-39.61,6.02Zm37.59,607.47c13.57-13.23,31.78-13.16,48.85-18.73-2.74-.72-4.58-1.14-6.38-1.7-12.6-3.96-24.84-8.79-36.48-15.07-2.91-1.57-4.35-1.66-4.27,2.3,.13,6.33-1.41,12.47-2.58,18.64-.91,4.78-.82,9.43,.86,14.56Zm30.99-716.79c3.63,0,7.32-.25,9.19-3.94,1.97-3.89-.6-6.76-2.96-9.42-2.86-3.21-6.11-6.08-8.33-9.82-1.27-2.14-2.76-1.9-4.59-.62-4.38,3.07-7.16,10.78-5.67,16.1,1.32,4.74,5.93,7.61,12.36,7.7Zm79.54,52.1c-.05-.64-.06-2.02-.27-3.38-.97-6.28-6.02-9.72-12.33-8.46-5.25,1.05-7.94,6.16-6.41,12.19,.53,2.1,1.38,4.1,2.8,5.72,2.93,3.33,6.05,7.45,11,5.84,5-1.62,5.23-6.6,5.21-11.91Zm-179.76,6.56c5.81,3.57,12.19,2.64,17.52-2.26,7-6.44,8.72-16.3,4.4-25.35-2.8-5.87-7.06-8.54-12.27-7.68,9.25,12.22,5.22,29.77-9.65,35.29Zm150.53-57.25c-6.4,.12-13.29,6.63-14.65,13.87-.73,3.88,.29,7.19,3.93,8.92,3.72,1.78,6.45-.38,8.65-3.23,3.15-4.07,4.76-8.89,6.4-13.66,1.49-4.33,.21-5.99-4.33-5.91Zm-114.07,634.03c9.23-1.12,18.22-2.87,26.09-8.1,2.57-1.71,4.63-4.05,3.13-7.29-1.4-3.04-4.47-3.01-7.22-2.28-9.3,2.46-16.75,7.98-23.42,14.67-.61,.61-1.41,1.39-.96,2.39,.5,1.09,1.59,.5,2.38,.61ZM92.79,256.36c17.92,10.53,36.8,17.29,58.03,16.24,21.11-1.04,46.43-14.83,52.3-27.13-15.02,14.67-32.22,23.64-53.11,24.31-20.26,.64-39.01-5.28-57.22-13.42Zm156.35,406.26c.03-5.47-4.45-10.52-9.4-10.59-4.48-.07-7.88,3.78-7.88,8.92,0,5.25,5.07,10.66,10.04,10.73,3.92,.05,7.22-4.07,7.25-9.05Zm-14.28-34.46c.11-4.71-3.48-8.49-8.29-8.72-5.28-.25-9.73,4.26-9.89,10.01-.13,4.4,3.55,8.09,8.19,8.23,5.03,.15,9.88-4.47,10-9.53ZM408.21,218.13c-.08-5.92-4.88-10.87-10.36-10.67-4.07,.14-6.73,2.97-6.75,7.16-.02,5.69,5.37,11.22,10.78,11.08,3.75-.1,6.38-3.25,6.32-7.56Zm-184.21,345.75c-4.92-.09-8.66,3.82-8.84,9.25-.15,4.43,2.87,7.92,7.03,8.12,4.87,.23,9.47-4.3,9.47-9.31,0-4.61-3.2-7.98-7.65-8.06Zm455.07-10.82c-.58,1.94-1.25,3.02-3.32,2.64-1.97-.37-3.97-.01-5.87,.78-2.21,.93-3.8,2.33-2.88,4.92,.85,2.38,2.64,3.86,5.33,3.39,2.57-.45,4.71-1.91,5.39-4.44,.5-1.88,.61-1.69,2.03-.67,2.22,1.59,4.14,.47,5.33-1.67,.99-1.78,1.88-4.61-.4-5.2-3.32-.86-3.64-3.16-4.66-5.52-.65-1.5-1.85-2.81-3-4.03-1.4-1.48-3.11-1.94-4.97-.71-1.77,1.16-2.23,2.8-1.84,4.81,.73,3.75,4.07,5.99,8.87,5.71ZM411.49,263.9c-.28-1.13-.46-2.52-.97-3.77-1.77-4.32-5.95-6.55-9.51-5.2-3.64,1.39-5.22,5.67-3.71,10.16,.29,.87,.64,1.75,1.13,2.52,1.96,3.1,4.55,6.2,8.39,5.28,4.06-.98,4.11-5.22,4.67-8.98ZM266.04,98.99c0,3.38,.51,5.62,2.86,6.78,2.33,1.15,4.75,1.07,6.97-.35,2.63-1.69,4.2-7.38,2.63-10.86-1.36-3.02-3.16-6.62-6.86-6.54-3.4,.07-3.81,3.88-4.69,6.56-.56,1.72-.74,3.56-.91,4.41Zm-30.01,442.05c-.04-3.91-2.83-6.65-6.72-6.59-4.24,.06-8.07,4.08-8.09,8.46-.01,3.7,3.04,6.98,6.53,7.02,4.11,.05,8.32-4.48,8.27-8.89Zm-20.28,184.75c7.69-1.09,15.38-3.18,23.09-5.21,1.92-.5,2.12-1.92,.96-3.07-1.79-1.78-.62-7.06-5.07-5.41-7.19,2.66-13.63,6.93-20.04,11.15-.63,.41-1.31,.97-1.08,1.82,.27,.98,1.17,.75,2.15,.72Zm-14.23-25.38c7.56-1.11,14.87-3.47,22.25-5.61,4.02-1.17,3.27-3.32,2.41-6.25-1.13-3.86-3.26-1.6-4.97-1.02-3.05,1.04-6.04,2.27-9,3.55-4.08,1.77-8.23,3.43-11.83,6.13-.72,.54-1.51,1.23-1.24,2.28,.32,1.27,1.47,.74,2.38,.9Zm-24.13-38.38c4.56,31.14,33.5,83.77,49.19,88.29-12.27-12.9-22.69-26.05-31.06-40.75-8.5-14.94-13.2-31.29-18.13-47.54Zm9.74,183.79c.01-4.91-2.28-8.22-5.6-8.08-3.49,.15-6.82,4.9-6.79,9.69,.03,4.04,2.67,7.05,6.28,7.16,3.62,.11,6.09-3.45,6.11-8.77Zm42.44-357.33c-3.76,.28-7.28,.52-10.8,.82-.85,.07-2.08-.02-2.06,1.2,0,.54,.83,1.22,1.43,1.58,5.32,3.2,11.25,4.8,17.18,6.37,.89,.23,1.95,.44,2.47-.56,1.36-2.6,2.78-5.63,2.27-8.27-.48-2.49-3.69-.83-5.68-1.09-1.66-.22-3.37-.04-4.81-.04Zm40.76-280.08c-.57,.2-1.4,.29-1.98,.71-4.88,3.57-8.56,8.26-11.82,13.28-.69,1.06-.63,2.43,.32,3.43,1.05,1.1,2.37,1.12,3.82,.73,4.58-1.25,12.02-9.66,12.63-14.34,.29-2.2-.44-3.57-2.98-3.81Zm-83.39,437.66c7.7-.52,14.03-1.66,20.31-3.03,1.22-.27,3.16-.33,2.37-2.43-.74-1.95-.36-5.78-3.11-5.25-7.64,1.47-15.16,3.74-21.82,8.09-.6,.39-1.36,.89-1.14,1.79,.25,.99,1.17,.78,1.89,.82,.92,.05,1.84,.01,1.49,.01Zm470.34,32.08c.35,2.31,.09,5.45,4.15,5.52,4.89,.09,8.35-2.94,8.34-7.26-.01-3.99-2.78-7.19-6.24-7.2-3.96-.02-6.31,3.19-6.24,8.93Zm-376.5,170.45c.06-4.01-2.31-7.67-4.99-7.69-2.83-.03-6.39,5.27-6.35,9.54,.03,3.45,1.91,5.41,5.25,5.76,3.41,.36,6.02-3.02,6.09-7.61Zm-49.19-394.78c3.44,6.82,8.66,9.82,14.14,12.5,1.01,.49,1.85-.01,2.27-.93,1.02-2.23,1.96-4.49,2.87-6.76,.44-1.11-.1-1.68-1.24-1.87-5.68-.91-11.35-1.85-18.04-2.94Zm-25.87,390.63c-.08-2.77-.66-5.84-4.48-6.45-3.04-.48-6.43,4.26-6.34,8.73,.07,3.5,1.27,6.42,5.28,6.81,3.13,.3,5.56-3.63,5.55-9.09Zm449.11-161.24c.34-3.9-2.48-8.02-5.83-8.13-3.9-.13-5.3,2.55-5.68,5.88-.46,3.99,1.76,7.04,5.17,7.4,3.36,.35,6.06-1.84,6.35-5.15ZM254.5,189.58c-3.63-.09-6.61,2.63-6.69,6.13-.08,3.36,2.55,5.98,6.11,6.1,3.3,.11,6.37-2.67,6.49-5.86,.13-3.38-2.56-6.27-5.92-6.36Zm51.5-96.38c10.95-14.19,22.38-58.58,17.85-67.45,.1,16.34-3.76,31.77-9.05,47.27-1.91-1.45-3.28-3.02-5.28-1.58-1.04,.75-1.75,1.8-1.33,3.16,.74,2.4,2.7,2.52,5.26,1.96-2.65,5.91-5.05,11.27-7.46,16.63Zm-109.79,441.49c4.76,4.43,9.87,5.32,14.47,7.21,1.47,.61,3.46,2.16,4.61,.53,1.36-1.93,1.89-4.49,2.54-6.84,.23-.83-.76-1.19-1.58-1.21-6.24-.1-12.49-.63-20.04,.3Zm101.99,316.32c-.07-3.26-1.16-5.83-4.83-6.11-3.31-.25-6.37,3.89-6.3,8.28,.05,3.05,1.47,4.99,4.61,5.23,3.55,.27,6.5-3.15,6.52-7.39Zm-115.35-236.1c6.96,3.65,13.42,4.52,19.88,4.31,3.03-.1,1.32-3.43,1.66-5.3,.26-1.44-.05-2.98-2.08-2.63-6.1,1.05-12.34,1.39-19.46,3.61Zm4.94-38.19c5.49,3.56,10.57,5.1,15.71,6.49,1.76,.47,2.98,.12,3.11-2.05,.09-1.52,.36-3.03,.63-4.53,.33-1.86-.07-2.85-2.28-2.73-5.46,.29-10.81,1.11-17.16,2.83Zm129.45-293.84c-4.21,.04-6.58,1.57-6.53,4.2,.06,3.05,4.18,6.35,8.1,6.15,3.27-.16,5.56-1.83,5.76-5.36,.19-3.31-2.45-5.04-7.33-4.99Zm374.73,349.06c.11-4.32-2.93-8.35-6.33-8.16-3.68,.2-4.84,2.87-5.05,5.98-.25,3.73,3.24,7.46,6.73,7.3,3.18-.14,4.56-2.09,4.65-5.13Zm-64.61,122.26c4.57-.12,8.06-2.8,7.97-5.71-.12-3.94-2.97-5.13-6.21-5.41-3.1-.27-7.14,3.33-6.91,6.11,.29,3.5,2.52,5.02,5.15,5.01Zm-333.11,17.86c6.74,15.26,16.7,28.71,24.62,43.3-5-16.25-15.72-29.26-24.62-43.3Zm20.59,86.27c3.16,.15,5.76-2.34,5.92-5.69,.18-3.55-2.33-6.68-5.5-6.6-3.43,.09-5.29,2.1-5.62,5.45-.36,3.63,2.02,6.68,5.2,6.84Zm364.03-170.25c-.08-3.92-2.76-6.46-6.34-6.17-3.31,.27-5.4,2.12-5.58,5.53-.15,2.71,3.95,5.98,7.15,5.79,3.46-.2,4.59-2.53,4.78-5.15Zm-66.33,51c.02-3.67-4.35-8.41-7.28-8.13-2.86,.28-4.33,2.08-4.38,4.93-.05,2.89,4.69,7.6,7.64,7.43,2.78-.17,3.83-2.12,4.02-4.23Zm86.21-116.08c2.5-.16,4.79-1.77,4.56-5.04-.26-3.58-2.88-5.32-6.42-5.14-3.28,.16-6.19,1.31-6.65,5.07-.29,2.39,4.18,5.17,8.5,5.12Zm-450.88,73.58c-2.99,.31-4.95,2.19-5.19,5.55-.22,3.11,2.74,5.87,5.95,5.62,3.31-.26,5.47-1.99,5.61-5.49,.12-3.14-2.71-5.75-6.37-5.68Zm432.03-131.22c-.03,4.5,2.93,8.37,6.23,8.46,3.27,.09,4.11-2.28,4.3-4.87,.24-3.42-3.39-7.77-6.4-7.89-3.39-.14-4,2.14-4.13,4.3Zm-8.17,42.2c.13,4.17,4.07,8.24,7.36,7.91,2.33-.23,3.54-1.66,3.56-3.99,.03-3.14-4.16-8.62-6.57-8.44-2.94,.21-4.19,2.14-4.35,4.52ZM499.87,193.06c-26.04,3.23-51.52,8.74-75.85,18.93,24.7-8.68,50.1-14.54,75.85-18.93Zm121.01,537.23c-.27-3.4-.23-6.94-4.23-6.89-3.92,.05-4.05,3.51-4.08,6.52,0,1.06,.21,2.14,.41,3.19,.34,1.76,.19,4.11,2.62,4.26,2.22,.14,3.56-1.71,4.44-3.51,.58-1.19,.64-2.64,.84-3.57Zm65.47-291.17c.27,2.97,.39,5.77,2.79,7.67,.99,.78,2.13,.34,2.93-.41,2.43-2.28,2.37-5.19,1.54-8.06-.82-2.87-1.66-7.66-4.22-7.29-3.07,.45-2.45,5.25-3.04,8.08Zm7.59,120.22c3.4-.28,5.69-1.8,5.53-5.1-.16-3.32-2.68-4.64-5.79-4.53-3.3,.12-6.53,1.23-6.42,5.03,.12,4.03,4.07,3.8,6.68,4.6Zm.53,46.67c0-2.84-.78-4.69-2.77-5.57-2.42-1.06-3.01,1.37-4.14,2.61-.6,.66-1.08,1.5-1.4,2.34-.96,2.53-3.73,5.52,.03,7.55,3.95,2.14,5.6-1.5,7.26-4.18,.62-1,.84-2.24,1.03-2.75Zm-13.18-59.06c.07,3.15,2.78,5.02,5.16,3.27,2.97-2.18,4.75-5.23,4.01-9.16-.33-1.73-1.21-3.32-3.01-3.75-1.82-.44-2.67,1.25-3.56,2.42-1.6,2.11-2.69,4.46-2.6,7.21Zm1.35-122.1c3.77-.13,8.14-4.16,8.12-7.47-.02-2.25-1.38-2.83-3.33-2.71-3.88,.24-9.66,4.33-9.39,6.81,.29,2.67,2.23,3.38,4.6,3.37ZM417.07,244.25c-.35,3.08-.63,5.74-.97,8.39-.24,1.89,.92,1.89,2.26,1.89,13.2,.03,25.24,4.55,37.16,9.56,2.88,1.21,5.55,3,8.8,3.2-12.09-6.39-24.43-12.09-38.14-14.04-2.57-.37-5.74,.43-7.63-.83-2.33-1.55,.12-5.2-1.48-8.16Zm340.11,59.79c-3.15,.38-5.12,2.12-5.19,5.29-.07,3.24,2.07,5.1,5.11,5.36,3.22,.27,5.35-1.61,5.44-4.8,.09-3.36-2.17-5.14-5.36-5.84Zm-69.72,186.3c-2.88,.55-6.01,1.18-6.09,4.92-.08,3.89,3.32,4.55,6.12,4.77,2.77,.22,5.25-1.14,5.32-4.42,.08-3.39-2.29-4.72-5.36-5.27ZM317.46,111.73c4.88,2.4,9.85,4.63,14.58,7.29,2.5,1.41,4.66,1.51,7.37,.81,6.76-1.73,13.16-6.18,21.62-2.02-2.44-3.04-4.59-3.14-6.74-3.33-4.68-.4-9.24,.56-13.53,2.1-4.28,1.53-7.86,1.07-11.74-1.13-3.49-1.97-7.22-3.72-11.56-3.73Zm359.64,505.57c-4.72-.02-8.54,2.32-8.47,5.19,.07,3.04,1.84,4.34,4.7,4.39,3.7,.06,6.7-2.99,6.69-6.65,0-2.08-.82-3.17-2.92-2.93Zm-240.24,229.93c-.08,3.43,1.11,5.4,4.15,5.48,3.92,.11,4.77-2.78,4.95-5.85,.17-2.78-.56-5.71-3.91-5.59-3.7,.13-4.63,3.39-5.19,5.96Zm256.09-425.73c-.02,3.55,3.11,7.58,5.76,7.51,2.19-.05,3.25-1.29,3.29-3.5,.05-3.04-3.41-7.94-5.83-7.91-2.67,.03-2.88,2.2-3.22,3.9ZM225.84,847.55c-.16-2.88-.96-5.59-4.25-5.54-3.1,.05-4.45,2.52-4.39,5.43,.07,2.87,1.3,5.29,4.56,5.21,3.07-.08,3.91-2.48,4.08-5.1Zm232,.7c.26,2.79,1.29,5.15,4.3,4.98,3.51-.21,4.09-3.25,4.22-6.04,.11-2.32-.91-4.48-3.55-4.39-3.28,.11-4.49,2.63-4.97,5.46ZM328.97,272.62c-.48-2.73-1.65-4.99-4.96-4.86-2.41,.1-4.33,1.41-4.2,3.97,.17,3.33,2.67,4.78,5.68,4.9,2.39,.1,3.56-1.5,3.48-4.02Zm353.42,161.28c.4-2.98,0-5.2-2.84-5.27-3.29-.08-4.35,2.38-4.49,5.22-.13,2.6,.49,5.45,3.44,5.55,3.87,.13,3.24-3.65,3.88-5.5Zm-68.13,320.9c.2,2.82,1.67,4.62,4.5,4.74,2.52,.1,3.98-1.36,3.85-3.99-.15-3.03-1.99-4.89-4.81-5.15-2.88-.27-3.13,2.27-3.54,4.4Zm126.16-401.13c-.13-2.25-.81-4.18-3.36-4.12-2.91,.07-4.39,2.04-4.61,4.77-.19,2.45,1,4.44,3.6,4.33,2.87-.12,4.09-2.32,4.37-4.97Zm-378.84-30.41c-12.24,3.96-24.51,7.85-36.83,11.57,12.97-1.63,25.08-6.01,36.83-11.57Zm327.21,295.09c.1-2.62-1.35-3.61-3.68-3.74-2.92-.15-4.24,1.54-4.41,4.16-.16,2.4,1.37,3.85,3.61,3.85,2.61,0,4.16-1.66,4.48-4.26Zm-213.38,188.11c-9.31-5.01-18.91-9.43-28.38-14.11,8.64,6.38,18.18,10.92,28.38,14.11Zm267.38-472.56c3.32-.43,5.11-2.63,5.77-5.68,.39-1.81-1.17-2.4-2.65-2.28-2.97,.23-5.4,1.57-6.08,4.65-.44,2.01,.94,3.07,2.96,3.31ZM387.56,90.89c5.96-11.37,11-23.05,12.85-35.85-3.25,12.33-8.29,24.02-12.85,35.85Zm-97.24,708.04c-10.39-4.17-17.1-13-25.26-19.96,6.81,8.69,13.95,16.97,25.26,19.96Zm390.07-340.81c2.53-.53,3.73-2.3,3.82-4.87,.07-1.98-1.06-3.53-2.98-3.28-2.57,.33-4.61,1.94-4.63,4.84-.01,2.2,1.53,3.19,3.78,3.31Zm87.04-164.88c-.27-1.95-1.2-3.59-3.69-3.59-2.34,0-3.81,1.27-3.95,3.6-.14,2.44,1.42,3.76,3.68,3.78,2.15,.02,3.87-.96,3.96-3.79Zm-348.08-23.07c10.9-.44,21.71,.29,32.39,2.55-10.61-3.22-21.33-4.93-32.39-2.55Zm-50.54-146.78c5.94-6.34,15.8-23.98,16.03-28.27-5.29,9.8-10.34,19.17-16.03,28.27Zm-31.23,159.28c.05-1.99-.26-4.13-2.27-4.08-2.86,.07-3.26,2.83-3.64,5.08-.32,1.88,.38,3.62,2.56,3.51,2.8-.14,3.14-2.48,3.36-4.51Zm381.15,98.92c-.08,1.65,.33,2.93,1.94,2.62,2.59-.49,3.8-2.49,4-4.95,.12-1.49-.17-3.83-1.92-3.5-2.93,.55-3.29,3.63-4.02,5.83ZM202.09,158.76c2.09-.24,3.43-1.39,3.67-3.41,.27-2.25-1.23-3.43-3.22-3.52-2.2-.09-3.18,1.65-3.36,3.54-.18,1.92,1.1,2.99,2.92,3.38Zm126.19,134.24c-1.89,.24-3.12,1.27-2.93,3.27,.21,2.3,1.85,3.5,3.99,3.59,1.98,.08,3.07-1.25,2.94-3.22-.15-2.38-1.84-3.29-4-3.64Zm-57.98,478.32c-.33-1.79-1.3-2.84-3.12-2.66-2.03,.2-3.49,1.33-3.57,3.45-.06,1.7,.97,3.1,2.78,2.87,2-.26,3.78-1.23,3.91-3.66ZM120.76,179.3c.05,3.85,1.83,6.21,4.78,6.91,4.96,1.19,9.47-.11,13.6-4.32-11.38,4.65-14.49,4.23-18.38-2.59Zm609.46,195.63c-2.19,.18-3.01,1.5-2.98,3.4,.03,1.75,.92,2.97,2.78,2.92,2.13-.06,2.78-1.68,2.91-3.44,.14-1.89-1.08-2.69-2.71-2.87Zm19.53-42.75c.34,1.79,.72,3.87,3.28,4.03,1.34,.08,2.38-.84,2.27-2.32-.17-2.42-1.81-4.06-3.9-4.58-1.71-.42-1.34,1.54-1.64,2.87Zm-186.34,340.18c.23,4.95-3.94,3.33-6.72,4.86,5.05,.31,9.23,.09,13.67-1.21-2.58-.82-6.34,1.57-6.95-3.65Zm204.74-403.85c-1.71,.22-2.55,1.23-2.37,2.8,.18,1.61,.95,2.98,2.89,2.82,1.62-.13,2.45-1.21,2.34-2.79-.12-1.73-1.11-2.75-2.86-2.83Zm-345.79-62.02c0-1.76-.74-3.04-2.54-3.22-1.64-.16-2.64,.92-2.65,2.45-.01,1.66,.99,2.92,2.69,3.21,1.82,.31,2.34-.95,2.5-2.44Zm350.2,47.23c-.31-1.51-.96-2.7-2.66-2.65-1.83,.06-2.8,1.17-2.74,2.97,.05,1.56,.89,2.61,2.59,2.57,1.87-.04,2.7-1.16,2.82-2.89Zm-364.87-96.88c-.27-.35-.54-.7-.82-1.06-4.59,3.53-9.18,7.07-13.77,10.6,.22,.28,.44,.57,.66,.85,4.64-3.47,9.28-6.93,13.92-10.4Zm-196.43,9.76c0-1.31-.43-2.39-1.99-2.35-2,.05-2.9,1.4-3.14,3.18-.18,1.34,.32,2.48,1.89,2.4,1.92-.11,2.86-1.4,3.24-3.23Zm526.89,171.84c-.25-.95-.8-1.83-2.12-1.71-2.06,.18-2.96,1.46-2.85,3.44,.06,1.16,.51,2.28,1.9,2.04,1.88-.32,2.82-1.68,3.07-3.77Zm-412.22,135.92c-3.23,2.44-6.39,.92-8.36,3.42-.53,.67,.92,3.28,2.87,4.99-3-6.05,3.44-4.45,5.48-8.41Zm-1.96-172.32c-.4-1.61-1.56-2.13-3.1-2.05-1.27,.07-2.1,.71-1.9,2.03,.25,1.68,1.57,2.19,3.05,2.15,1.25-.03,1.91-.84,1.95-2.13Zm-30.78-211.28c-4.21,.93-6.36,4.1-8.14,7.66,2.97-2.24,5.09-5.4,8.14-7.66Zm141.88,112.29c1.3-.06,2-.71,1.99-1.97,0-1.57-.81-2.62-2.39-2.69-1.35-.06-2.39,.65-2.28,2.15,.12,1.57,1.27,2.26,2.68,2.51Zm-13.56,77.06c-.15-1.14-.91-1.96-2.27-2.16-1.15-.17-2.28,.1-2.4,1.43-.15,1.61,.93,2.56,2.43,2.76,1.17,.16,2.02-.49,2.24-2.02Zm-79.77,13.72c1.65-.12,2.39-1.13,2.36-2.67-.02-1.12-.48-2.09-1.85-2.03-1.71,.07-2.24,1.29-2.38,2.73-.13,1.3,.62,1.9,1.87,1.97Z"/>
  <path d="M485.3,679.22c-6.96-4.76-13.3-9.31-19.86-13.54-17.8-11.47-37.1-18.43-58.48-18.74-2.21-.03-3.66-1.12-5.22-2.47-30.89-26.55-64.73-48.32-102.72-63.36-6.01-2.38-12.1-4.54-18.44-5.8-2.88-.57-3.31-1.59-2.52-4.35,5.31-18.36,14.25-34.96,24.54-50.88,6.84-10.59,14.2-20.82,22.94-30,2.64-2.77,3.61-6.63,6.03-9.68,31.09-39.07,70.69-64.14,120.02-73.2,34.54-6.35,68.27-2.28,101.41,8.46,1.89,.61,5.1,1.16,1.66,3.93-25.94,20.88-39.79,49.61-51.24,79.7-12.73,33.46-21.5,67.93-24.31,103.79-1.71,21.8,.19,43.29,4.68,64.62,.66,3.16,1.15,6.35,1.69,9.53,.07,.42-.07,.88-.18,1.99Zm-100.19-126.49c-.2-2.41-1.34-4.55-4.68-4.56-3.25,0-7.16,4.45-6.94,7.99,.21,3.38,2.42,4.87,5.54,4.97,3.45,.11,6.15-3.52,6.08-8.41Zm28.21,63.13c.07-3.34-1.78-5.67-4.55-5.74-3.08-.08-6.77,3.85-6.89,7.43-.11,3.28,1.53,5.21,4.82,5.47,3.7,.3,6.53-2.84,6.62-7.16Zm32.12,4.56c-.55-3.13-1.94-5.72-5.65-5.95-3-.19-5.56,2.76-5.53,6.06,.03,3.48,2.87,6.44,6.06,6.02,3.36-.44,5-2.61,5.13-6.13Zm-.52-70.58c-.07-3.17-1.4-5.33-4.85-5.41-3.09-.07-5.93,3.12-5.86,6.48,.07,3.59,2.33,5.45,5.58,5.37,3.82-.1,4.91-3.07,5.13-6.44Zm23.1-102.64c-.4-3.68-2.37-5.44-5.86-5.23-3.29,.2-5.01,2.15-5,5.4,0,3.4,2,5.05,5.26,5,3.41-.05,5.4-1.82,5.6-5.18Zm35.37-5.75c2.74-.39,5.59-1.01,5.47-4.69-.11-3.53-2.62-5.2-5.84-5.24-2.88-.04-5.74,.94-5.9,4.45-.19,4.04,2.91,4.9,6.27,5.48Zm-76.85,81.01c-.21-3.54-2.31-5.44-5.6-5.45-3.1-.01-5.28,1.84-5.35,5.12-.07,3.55,2.28,5.35,5.55,5.43,3.19,.08,5.01-1.9,5.39-5.09Zm15.87-84.26c3.16-.28,5.4-1.82,5.36-5.07-.04-3.35-2.18-5.4-5.59-5.31-3.04,.08-5.3,1.57-5.33,5-.03,3.67,2.4,4.93,5.56,5.37Zm-44.15,60.89c-.41-3.16-2.24-5.04-5.43-4.92-3.09,.12-5.11,1.98-5.38,5.16-.23,2.67,2.93,5.55,5.77,5.25,3.14-.34,4.86-2.22,5.03-5.49Zm18.11,58.54c-.13-3.29-1.69-5.49-4.92-5.55-3.05-.05-4.71,2.01-4.67,5.03,.03,2.97,1.66,4.94,4.69,5.17,3.25,.25,4.59-1.8,4.9-4.65Zm-86.27,16.09c-.12-3.03-1.62-5.02-4.67-5.23-2.81-.19-4.7,1.23-4.88,4.25-.19,3.41,1.79,5.21,4.89,5.49,2.98,.27,4.37-1.68,4.66-4.52Zm96.46-95.08c.08,3.29,1.94,4.85,4.86,5.02,3.05,.18,5.02-1.53,5.05-4.56,.03-2.97-1.87-4.8-4.87-4.93-3.03-.13-4.82,1.45-5.05,4.47Zm-79.2,60.51c2.93,.17,4.86-1.1,5.21-3.96,.37-3.01-1.16-5.05-4.19-5.47-2.99-.42-5.15,.88-5.41,4.08-.26,3.08,1.54,4.75,4.39,5.36Zm107.29,49.62c-.16-3.06-1.6-5.12-4.72-5.18-2.79-.05-4.74,1.47-4.73,4.49,.01,3.16,2.05,4.84,4.97,4.93,2.62,.09,4.21-1.55,4.48-4.25Zm-100.94-29.79c-.36-2.38-1.22-4.54-4.18-4.44-3.16,.11-4.75,2.19-4.74,5.15,0,2.86,1.7,4.67,4.68,4.5,3.04-.17,4.04-2.39,4.25-5.21Zm-32.44-15.6c2.76-.3,4.82-1.5,4.78-4.49-.03-2.64-1.75-4.3-4.35-4.34-2.81-.04-4.53,1.62-4.7,4.5-.17,2.97,1.92,3.82,4.27,4.33Zm150.83-15.08c-.15-2.63-1.67-3.93-4.09-4.07-2.89-.16-4.76,1.39-4.94,4.23-.16,2.54,1.66,3.92,4.04,4.03,2.8,.13,4.58-1.34,4.99-4.19Zm-89.6,72.62c2.37-.06,4.48-.68,4.35-3.19-.14-2.55-1.57-4.86-4.45-5.02-2.69-.15-4.31,1.71-4.38,4.29-.08,2.98,2.29,3.59,4.49,3.92Zm20.63-147.28c-.23-2.68-2.02-3.77-4.33-3.67-2.21,.1-4.23,1.01-4.32,3.74-.08,2.69,1.68,3.88,4.02,3.92,2.54,.05,4.3-1.26,4.62-3.99Zm60.04,107.72c-.4-2.52-2.02-3.97-4.66-3.97-2.3,0-3.89,1.27-3.8,3.69,.11,2.81,2.26,4.04,4.67,4.15,2.19,.1,3.75-1.22,3.8-3.87Zm-88.65-25.02c2.24-.3,4.3-1.21,4.22-4.1-.06-2.08-1.36-3.43-3.56-3.29-2.63,.16-4.99,1.25-5.04,4.18-.05,2.34,1.91,3.23,4.39,3.22Zm28.76,53.34c-2.3,.39-4.48,1.29-4.48,4.16,0,2.15,1.52,3.37,3.67,3.27,2.48-.12,4.66-1.1,4.85-3.92,.17-2.53-1.61-3.41-4.05-3.51Zm38.26-134.36c2.33-.1,4.09-.88,4-3.44-.1-2.83-1.98-4.07-4.59-3.95-2.13,.1-3.95,1.13-3.99,3.57-.05,3.07,2.22,3.62,4.58,3.83Zm-11.01,141.39c-.16-2.31-1.15-4.01-3.58-3.84-2.37,.16-3.98,1.78-4.07,4.15-.1,2.31,1.76,3,3.73,3.01,2.21,.02,3.85-.81,3.92-3.32Zm-9.18-13.89c-.07-2.41-1.51-3.74-3.72-3.71-2.18,.03-3.71,1.32-3.64,3.76,.07,2.36,1.48,3.75,3.71,3.76,2.26,0,3.55-1.46,3.65-3.81Zm2.51-126.26c-.25-2.25-1.44-3.81-3.72-3.94-2.22-.13-3.93,1.12-4.21,3.38-.3,2.46,1.33,3.59,3.62,3.76,2.29,.16,3.81-.84,4.31-3.2Zm72.02-4.94c-.36-2.32-1.71-3.82-4.18-3.85-2.23-.03-3.35,1.56-3.32,3.55,.03,2.54,1.77,3.74,4.18,3.83,2.28,.08,3.23-1.29,3.32-3.53Zm2.95,26.43c-.29-2.11-1.41-3.59-3.77-3.65-2.28-.06-3.92,1.04-3.89,3.47,.03,2.21,1.29,3.88,3.6,3.95,2.26,.07,3.53-1.46,4.05-3.78Zm-46.11,35.2c2.23-.18,3.63-1.31,3.81-3.64,.18-2.42-1.25-3.74-3.43-3.96-2.41-.25-3.64,1.32-3.76,3.57-.13,2.25,.95,3.75,3.39,4.04Zm-39.04-22.25c2.1-.33,3.9-1.19,3.84-3.68-.05-2.16-1.57-3.4-3.62-3.43-2.26-.03-3.88,1.21-3.88,3.63,0,2.22,1.56,3.17,3.66,3.47Zm66.13-60.1c-.2-2.25-1.5-3.37-3.6-3.39-2.26-.01-3.87,1.11-3.96,3.5-.07,2.01,1.21,3.1,3.19,3.05,2.12-.05,3.85-.86,4.37-3.17Zm-30.66,90.15c-.08-2.12-1.16-3.63-3.26-3.72-2.35-.1-3.75,1.51-3.73,3.76,.01,2.26,1.83,3.09,3.8,3.08,1.89-.01,3.15-1.03,3.19-3.12Zm-58.34,.52c-.22-2.04-1.22-3.5-3.37-3.6-2-.09-3.14,1.31-3.3,3.11-.19,2.06,.99,3.62,3.09,3.83,2.19,.22,3.25-1.26,3.59-3.34Zm6.77,14.65c1.87-.19,3.24-1.1,3.2-3.14-.05-1.94-1.25-3.16-3.25-3.16-2.24,0-3.41,1.52-3.49,3.53-.08,2.17,1.64,2.68,3.54,2.77Zm-46.64-34.01c1.93-.43,3.75-1.31,3.57-3.81-.12-1.65-1.11-2.97-3.06-2.63-1.99,.35-3.43,1.56-3.54,3.67-.1,1.81,.92,2.85,3.03,2.77Zm24.35-25.15c.06-2.01-1.04-2.96-2.7-3.13-2.06-.21-3.58,.72-3.84,2.89-.22,1.85,1.03,2.81,2.67,2.99,2.06,.22,3.45-.75,3.87-2.75Zm103.35,2.98c-.1-1.82-.89-3.11-2.64-3.24-1.9-.14-3.23,.91-3.39,2.87-.15,1.75,.77,2.91,2.61,3.01,1.89,.1,3.21-.67,3.42-2.64Zm-116.15,25.47c1.43-.3,2.86-.84,2.87-2.79,0-1.96-.96-3.29-3.03-3.25-2.02,.04-3.04,1.35-3.06,3.29-.02,1.97,1.36,2.55,3.22,2.74Zm161.82-82.41c-1.73,.38-3.44,.87-3.52,2.98-.09,2.24,1.53,2.84,3.36,2.73,1.81-.11,3.33-.88,3.22-3.05-.09-1.87-1.38-2.56-3.06-2.66Zm-127.4,49.4c-.29-1.73-1.11-3.05-2.87-3.04-1.9,.01-3.17,1.18-3.03,3.17,.12,1.72,1.34,2.7,3.06,2.68,1.79-.02,2.66-1.16,2.84-2.81Zm61.24,7.93c-.37-1.2-.92-2.5-2.59-2.53-1.92-.03-3.32,.92-3.34,2.95,0,1.62,1.27,2.48,2.76,2.48,1.67,0,2.89-.86,3.17-2.9Zm7.29,10.39c1.46-.29,2.77-.88,2.81-2.52,.04-1.81-1.09-2.78-2.89-2.8-1.4-.02-2.4,.65-2.49,2.11-.11,1.77,.88,2.81,2.57,3.21Zm-18.44,.82c-.17-1.64-1.07-2.49-2.68-2.51-1.63-.02-2.61,.84-2.68,2.46-.08,1.7,.96,2.51,2.56,2.5,1.57-.01,2.51-.91,2.81-2.45Zm25.82,18.51c-.12-1.33-.69-2.33-2.1-2.5-1.7-.21-2.54,.78-2.55,2.35,0,1.35,.78,2.26,2.23,2.27,1.38,0,2.23-.7,2.41-2.11Z"/>
</svg>