<?xml version="1.0" encoding="UTF-8"?>
<svg id="Layer_1" data-name="Layer 1" xmlns="http://www.w3.org/2000/svg" viewBox="0 0 864 864">
  <path d="M284.09,515.7c.43-1.15,1.14-2.03,2.21-2.69,16.36-9.99,34.27-13.69,53.81-13.53-1.37,3.03-3.74,4.33-5.58,6.03-9.51,8.8-18.71,17.84-26.08,28.61-1.98,2.88-1.58,4.14,1.35,5.68,4.73,2.49,9.32,5.27,13.86,8.1,1.82,1.14,3.17,1.03,4.78-.29,14.28-11.69,30.56-19.98,47.11-27.82,.81-.38,1.61-.77,2.44-1.09,.96-.37,2.04-1.01,2.94-.23,1.06,.92,0,1.94-.33,2.8-5.81,14.8-11.06,29.84-17.67,44.31-1.11,2.44-.57,3.32,1.43,4.46,6.65,3.77,4.32,4.43,10.09-1.04,12.08-11.46,25.66-20.72,41.06-27.19,1.91-.8,3.91-1.42,5.89-2.05,.81-.26,1.69-.3,3.04-.53-1.3,5.18-3.91,9.31-5.99,13.61-5.54,11.52-11.26,22.95-17.09,34.33-1.19,2.33-1.32,3.51,1.27,4.82,2.9,1.46,5.67,3.32,8.19,5.37,2.11,1.72,3.09,1.44,4.9-.6,14.02-15.79,31.84-25.04,52.21-29.74,.84-.19,1.7-.28,2.7-.45,.09,.66,.33,1.18,.17,1.43-9.98,15.13-19.13,30.82-30,45.37-.8,1.07-1.64,2.15-2.64,3.01-1.53,1.32-1.48,2.42,.11,3.56,.12,.09,.22,.2,.33,.3,3.35,3.16,6.21,7.47,10.19,9.19,4.51,1.95,7.62-3.57,11.63-5.29,12.45-5.32,25.29-8.65,38.81-9.32,1.13-.06,2.38-.31,3.85,.97-5.09,4.97-10.35,9.68-14.95,15.03-6,6.99-12.14,13.87-18.34,20.7-1.26,1.39-1.28,2.39-.38,3.89,2.53,4.2,5.03,8.43,7.37,12.73,1.16,2.14,2.37,2.13,4.27,.99,15.65-9.46,32.9-11.51,50.73-10.77,1.11,.05,2.72-.49,3.17,.87,.43,1.27-1.02,2.01-1.88,2.76-12.1,10.53-22.6,22.89-36.17,31.72-1.48,.96-1.21,1.65-.29,2.77,2.82,3.46,5.61,6.94,8.29,10.5,1.52,2.03,2.46,1.96,4.39,.13,11.02-10.45,23.8-17.7,38.89-20.46,.58-.11,1.18-.27,1.76-.24,1.26,.06,2.93-.84,3.63,.65,.55,1.17-.83,2.1-1.53,2.99-8.52,10.7-16.92,21.5-25.7,31.98-2.7,3.22-2.79,4.73,.97,6.94,3.32,1.95,6.51,5.49,9.95,5.53,3.71,.05,4.42-5.27,6.58-8.12,6.05-7.99,13.31-14.57,21.67-20.23-2.15,10.43-4.62,20.64-8.68,30.32-1.66,3.96-.98,4.98,3.07,5.53,7.79,1.06,7.6,1.22,9.59-6.4,2.25-8.62,4.8-17.17,7.3-25.73,.44-1.52,.77-3.2,2.61-4.35,4,5.05,5.4,11.17,7.08,17.08,1.5,5.28,2.86,10.65,3.04,16.19,.08,2.54,.88,3.65,3.5,2.69,.55-.2,1.17-.21,1.74-.37,6.58-1.78,6.24-.37,4.97-7.42-1.77-9.86-2.25-19.79-1.38-29.77,.22-2.49,.53-4.97,1.98-7.41,2.59,1.83,3.86,4.37,5.26,6.75,4.28,7.31,8.68,14.57,12.12,22.33,1.36,3.06,2.34,2.88,4.53,.73,8.6-8.45,8.55-8.34,4.09-19.26-3.59-8.81-6.86-17.74-10.24-26.63-.4-1.06-1.09-2.13-.45-3.6,4.55,.7,8.03,3.58,11.75,5.86,5.09,3.12,9.59,7.03,13.99,11.03,1.61,1.46,2.53,1.69,3.4-.72,3.04-8.42,5.21-17.04,6.2-25.93,.22-1.95,.96-4.35-1.95-5.16-2.34-.65-4.87-3.04-7.01-1.27-2.06,1.71-2.3,4.88-1.16,7.49,1.36,3.13,3.13,6.07,4.73,9.09,.53,1,1.08,1.99,1.27,3.24-10.37-9.89-18.39-21.77-27.87-32.57,11.54,1.54,21.75,6.24,32.15,12.6,.51-6.83,2.18-12.73-3.24-18.24-6-6.11-10.82-13.34-17.87-19.78,5.53-1.06,10.21-.47,14.82,.09,3.14,.39,4.25-.18,3.52-3.61-3.07-14.28-7.19-28.23-12.31-41.9-.93-2.48-1.96-2.86-4.16-1.33-3.9,2.71-6.63,6.36-8.97,10.37-6.15,10.57-9.63,22.01-11.18,34.1-.15,1.13,.14,2.4-1,3.64-2.06-1.25-3.01-3.45-4.31-5.29-3.94-5.59-7.64-11.35-12.77-16-9.65-8.74-19.94-9.22-30.19-1.11-3.54,2.8-6.7,6.08-10.8,9.84,0-7.97,.09-14.92-1.47-21.71-.4-1.74-.74-3.5-1.29-5.19-3.73-11.63-12.03-15.09-22.84-9.58-2.22,1.13-4.47,2.22-6.82,3.38-1-2.74,.29-4.74,.95-6.78,3.9-12.02,8.17-23.95,9.82-36.55,1.68-12.86,1.57-25.35-8.85-35.25-5.41-5.14-11.81-8.43-18.77-10.84-1.94-.67-4.05-.91-5.72-2.23,.34-.84,1.01-1.1,1.74-1.33,20.34-6.57,41.11-8.39,62.1-4.31,20.23,3.93,34.49,16.66,45.55,33.32,5.35,8.05,9.94,16.56,13.73,25.49,5.16,12.18,13.36,22.38,21.75,33.47,.48-7.97,.85-15.25,1.36-22.52,1.6-22.68,7.62-44.14,17.52-64.59,11.41-23.57,30.77-36.75,55.54-42.97,12.14-3.05,24.45-4.83,36.89-5.09,.68,1.3-.19,1.86-.78,2.45-10.12,10.08-12.39,22.31-9.66,35.81,3.63,18.01,13.35,32.91,24.39,47.09,4.84,6.22,9.97,12.21,14.91,18.35,1.37,1.7,3.1,3.18,3.98,5.67-1.81,.77-3.51,.17-5.14-.12-2.94-.53-5.88-.93-8.87-.81-7.37,.29-11.66,3.57-13.43,10.72-2.05,8.31-2.27,16.77-1.57,25.27,.55,6.67,.97,13.35,1.54,20.02,.28,3.26-.71,3.69-3.37,1.98-5.51-3.54-11.13-6.87-17.14-9.53-10.6-4.68-20.11-3.62-28.79,4.54-6.03,5.68-11.2,11.95-15,19.25-1.87,3.6-2.83,2.9-4.36-.03-5.74-10.98-12.37-21.36-20.88-30.44-4.6-4.91-9.58-9.34-15.85-12.09-3.18-1.39-5.06-1.38-5.67,2.96-.55,3.95,.21,7.24,1.95,10.66,10.22,20.2,19.53,40.75,24.12,63.11,9.55,46.49-4.06,86.17-35.99,120.05-25.83,27.4-58.06,44.63-93.67,55.73-37.85,11.8-76.84,13.55-116.12,12.15-2.82-.1-5.65-.21-8.47-.43-2.51-.19-3.19,.71-2.35,3.12,1.87,5.37,3.11,10.83,2.6,16.61-.24,2.75-1.26,3.76-4.14,3.76-34.81-.05-69.62-.02-104.43,.1-3.01,.01-3.78-1.03-3.7-3.89,.31-10.76,6.85-18.83,17.93-21.52,7.91-1.92,15.97-1.22,24-1.07,2.91,.05,5.82,0,8.73-.33-13.09,.5-26.12-.38-39.16-1.23-13.36-.88-26.3-2.92-37.87-10.3-3.03-1.93-5.81-4.18-8.27-6.76-1.7-1.79-2.89-1.92-4.67,0-2.41,2.59-5.22,4.76-9.2,5.09,2.69-3.7,6.9-5.99,9.67-9.99-5.79-2.45-10.92-5.61-15.85-9.12-1.08-.77-1.96-1.24-2.94,.2-4.3,6.32-10.83,9.41-18.46,12.06,5.12,2.87,10.06,4.2,14.98,5.5,2.62,.7,4.54,1.92,5.82,4.33,3,5.65,6.21,11.18,9.08,16.89,1.25,2.49,2.16,5.25,2.72,7.99,2.17,10.69,1.04,12.02-9.63,12.03-35.55,.03-71.11-.03-106.66,.16-4.29,.02-5.33-1.38-4.99-5.37,.89-10.42,7.62-17.87,18.5-19.96,6.78-1.3,13.62-1.01,20.46-.51,2.36,.17,4.71,.38,7.82,.63-2.56-3.92-4.95-7.2-6.96-10.7-9.68-16.84-16.94-34.78-22.38-53.35-5.52-18.84-12.25-37.21-19.06-55.58-.2-.53-.5-1.01-.76-1.53-7,4.22-11.94,3.35-17.04-3.21-7.59-9.76-9.6-21.27-9.86-33.19-.47-20.86,1-41.63,3.82-62.29,.74-5.38,.23-10.68,.04-16.02-1.28-35.65,1.88-70.78,13.68-104.66,8.47-24.32,22.56-45.4,39.15-64.96,20.81-24.52,45.84-44,72.41-61.73,14.83-9.9,30.08-19.26,43.02-31.73,14.49-13.97,25.56-29.82,27.19-50.67,.32-4.14,.1-8.32,.31-12.47,.2-3.84-1.22-4.82-4.98-3.88-11.97,3.01-24.06,5.5-36.24,7.47-32.17,5.21-64.42,9.72-97.05,10.69-19.12,.57-38.07-.24-56.15-7.65-30.97-12.69-46.24-39.86-40.84-72.93,2.25-13.78,6.31-26.84,14.36-38.52,5.18-7.51,11.27-10.37,20.79-8.81,17.9,2.92,36.03,4.46,54.23,2.57,4.44-.46,8.82-1.24,13.1-2.61,8.31-2.66,14.28-7.56,16.91-16.25,1.54-5.11,3.7-10.04,5.67-15.01,5.5-13.86,16.6-22.21,29.14-28.86,15.16-8.05,31.42-12.56,48.58-13.71,1.77-.12,3.42-.09,4.75-1.79,16.82-21.39,33.76-42.69,50.55-64.11,5.05-6.45,9.17-13.54,12.92-20.82,.51-.99,.58-2.69,2.09-2.48,1.27,.18,1.44,1.75,1.84,2.82,1.61,4.37,2.16,8.94,2.33,13.56,.82,22.18-4.94,42.98-13.38,63.19-1.72,4.11-3.45,8.23-5.46,12.21-1.15,2.28-.49,3.02,1.69,3.75,11.07,3.7,21.26,9.2,31.01,15.55,1.97,1.29,3.68,2.08,6.04,.49,36.88-24.94,68.27-54.98,88.83-95.14,1.08-2.11,1.95-4.34,2.99-6.47,.43-.89,.53-2.27,1.78-2.31,1.31-.05,1.37,1.36,1.77,2.24,3.66,8.09,5.69,16.6,6.18,25.43,1.39,24.98-6.55,47.45-18.83,68.68-11.41,19.74-26.89,35.87-45,49.53-2.35,1.77-2.97,2.96-1.4,5.66,2.45,4.23,4.57,8.69,6.45,13.2,1.03,2.47,2.31,3.24,4.96,3.22,10.97-.09,21.56-2.22,32.03-5.22,2.23-.64,4.45-1.7,6.91-1.17,.18,1.66-1.03,2.5-1.88,3.44-10.27,11.34-19.94,23.3-32.47,32.36-.87,.63-1.65,1.25-1.59,2.48,.52,9.6,.49,19.21-.35,29.04,6.8-3.31,8.03-12.04,2.86-19.23,8.25,1.53,16.39,1.27,25.32,1.84-6.49,9.31-13.68,16.9-23.45,20.83-5.16,2.08-6.15,5.24-7.2,9.74-.99,4.23,.33,5.97,4.15,7.49,7.46,2.98,15.28,4.71,23.58,7.23-2.1,2.61-4.31,4.18-6.68,5.59-7.75,4.62-16.25,7.42-24.94,9.4-3.8,.87-6.16,2.11-6.97,6.06-.38,1.82-1.48,3.49-2.24,5.23-1.92,6.72-6.18,12.43-8.83,19.47,4.34-1.2,8.99-.61,10.43-5.53,1.41-4.79,1.87-9.64-1.63-13.94,9.03,4.75,18.48,8.58,28.86,12.45-6.33,4.19-12.7,5.18-18.8,6.74-6.03,1.54-12.15,2.93-18.44,2.98-1.83,.01-3.05,.62-3.93,2.29-2.01,3.81-6,7.67-5.74,11.26,.27,3.71,6.35,4.41,9.79,6.59,4.89,3.1,9.98,5.87,14.92,8.89,1.84,1.13,3.76,2.3,4.87,4.53-2.61,1.13-5.12,1.2-7.6,1.18-11.11-.12-22.3,1.16-33.28-1.63-.91-.23-1.7-.18-2.35,.7-2.39,3.22-4.88,6.36-7.25,9.6-1.43,1.95,.54,2.56,1.59,3.4,6.37,5.11,12.78,10.17,19.18,15.26,.56,.44,1.3,.76,1.31,2.03-1.81,.78-3.86,.62-5.84,.64-10.55,.12-21.11,.38-31.63-.76-1.75-.19-2.76,.27-3.76,1.57-1.27,1.64-2.74,3.13-4.07,4.72-5.29,6.36-5.26,6.32,1.69,11.22,6.02,4.25,12.56,7.8,18.38,12.77-.74,.5-1.07,.93-1.42,.93-12.91,.07-25.86,1.15-38.69-1.1-1.51-.26-2.59-.08-3.62,.93-.11,.1-.21,.21-.32,.31q-9.66,8.82-.98,18.37c3.17,3.49,6.35,6.97,9.6,10.53-1.85,1.61-3.7,1.27-5.37,1.3-8.91,.14-17.84,.85-26.71-.5-1.94-.29-3.44-.03-4.52,1.85-2.87,5.03-5.84,10-8.78,14.99-1.22,2.07,.03,2.87,1.69,3.66,6.72,3.17,13.42,6.37,20.09,9.62,1.81,.88,3.82,1.52,5.47,3.39-5.87,2.82-11.96,3.46-17.88,4.66-4.65,.95-9.38,1.56-14.1,2.09-2.41,.27-3.58,1.05-3.98,3.67-1.45,9.56-1.48,18.96,2.09,28.1,.81,2.06,1.59,4.18,3.46,5.59,3.19,7.75,9.65,12.57,15.9,17.53,4.24,3.37,5.59,2.8,6.92-2.53,.3-1.21,.13-2.33-.12-3.51-1.01-4.78-3.69-8.68-6.38-12.62-1.93-2.82-4.02-3.33-7.17-1.84-2.92,1.38-6.16,2.08-9.26,3.07Zm-71.34,176.45c-4.07,1.94-6.96,5.38-10.35,8.18-7,5.78-13.89,11.71-22.78,14.48-12.2,3.8-21.36-1.69-23.73-14.21-.75-3.98-.45-7.98,.18-11.97,.71-4.47,2.39-8.68,3.81-13.49-7.43,1.35-14.39,1.17-21.31,.06-3.08-.49-2.7,1.2-2.3,3.1,5.47,26.01,14.03,50.92,26.25,74.56,.92,1.78,2.04,2.65,4.14,2.62,16.64-.21,33.27-.22,49.75-3.18,4.08-.73,4.59-2.19,3.84-5.91-3.14-15.73-5.97-31.52-8.91-47.29-.46-2.47-1.13-5.01,1.57-6.76,3.85-1.54,7.71-3.09,11.56-4.63-4.33,.5-8.43,1.51-11.73,4.42Zm-86.55-124.03c0,.65,0,.8,0,.95-.28,9.76-.3,9.87,9.24,11.22,15.86,2.25,31.69,5.65,47.82,3.05,12.97-2.09,10.61-.16,9.41-11.89-1.55-15.21-3.83-30.4,.45-45.58,1.45-5.13,1.23-5.01-3.88-5.21-17.52-.67-34.56-3.73-50.44-11.44-3.34-1.62-3.81-.66-4.51,2.15-4.68,18.81-7.3,37.89-8.1,56.74Zm-.22,34.63c.89,12.03,1.87,24.02,3.75,35.92,.26,1.64,.27,3.15,2.49,3.58,16.51,3.22,33.02,6.28,49.97,4.58,1.52-.15,2.89-.6,4.13-1.5,4.33-3.13,8.65-6.28,13.02-9.37,1.05-.74,1.75-1.39,1.55-2.86-2.22-15.74-4.41-31.49-6.52-47.25-.31-2.34-1.11-2.4-3.17-1.75-20.77,6.55-41.58,6.09-62.29-.21-2.94-.89-2.95,.3-2.94,2.36,.02,5.5,0,11,0,16.5Zm66.6-84.31c1.77,.44,2.79-.52,3.43-2.62,5.39-17.53,13.01-34.1,21.78-50.17,1.19-2.18,1.28-3.05-1.48-3.97-14.14-4.71-26.75-12.09-37.42-22.58-1.65-1.62-2.5-1.42-3.83,.23-3.34,4.17-6.93,8.15-10.24,12.35-11.98,15.16-21.25,31.82-27.44,50.17-.85,2.51-.95,3.78,2.31,4.45,7.26,1.5,14.4,3.59,21.59,5.41,10.22,2.58,20.32,5.68,31.29,6.73Zm-27.13,240.01c15.14,25.55,35.22,44.63,61.75,56.7,.93,.42,1.88,.97,2.96,.36,5.92-3.35,12.28-5.95,17.3-10.81,2.15-2.09,2.11-3.24-.2-5.15-10.7-8.87-17.86-20.13-21.91-33.39-1.3-4.23-2.5-8.5-3.75-12.76-17.63,6.89-33.88,8.4-56.15,5.05ZM272.65,137.17c.2-2.89-.41-6.13-1.08-9.31-4.8-22.56-29.74-32.16-45.8-17.21-10.73,9.99-18.04,22.46-20.92,37.08-2.67,13.6,2.81,22.67,16.04,27.21,25.11,8.61,51.72-10.59,51.76-37.77Zm-53.38,323.76c1.22-.02,1.47-.95,1.91-1.69,7.8-13.01,16.32-25.51,26.47-36.82,2-2.24,2.04-3.26-1.07-4.47-7.93-3.09-15.21-7.41-21.55-13.14-5.79-5.23-5.77-5.3-12.09-.29-11.18,8.86-21.83,18.32-31.8,28.54-1.35,1.38-2.9,2.51-.08,4.32,11.99,7.7,24.06,15.27,36.35,22.49,.64,.38,1.28,.74,1.85,1.07Zm115.88-174.74c.13-4.91-.87-11.06-1.76-17.24-.36-2.51-1.35-2.91-3.55-2.15-3.23,1.11-6.47,2.28-9.8,2.95-3.71,.74-4.89,2.3-4.4,6.28,2.42,19.55-2.42,37.38-13.46,53.63-6.9,10.16-15.31,18.92-24.71,26.74-1.82,1.51-2.67,2.35-.13,4.1,4.28,2.94,8.36,6.18,12.38,9.47,2.54,2.07,4.33,2.05,6.61-.59,7.66-8.9,15.14-17.93,21.36-27.92,10.29-16.51,17.58-34.01,17.44-55.27Zm-62.51,74.56c-.8,.56-1.51,1.06-2.21,1.56-5.45,3.87-10.91,7.72-16.34,11.62-9.88,7.11-19.77,14.23-29.58,21.44-.99,.73-3.62,1.67-.91,3.52,8.45,5.79,16.33,12.38,25.14,17.67,1.96,1.18,3.03,.75,4.5-.82,12.16-13.03,24.38-26.01,36.7-38.89,1.9-1.99,2.47-2.89-.54-4.23-5.58-2.5-10.71-5.78-14.93-10.32-.49-.52-1.1-.93-1.83-1.54Zm-142.14,283.77c1.42,8.51,2.77,16.39,4.02,24.29,.36,2.27,1.77,2.75,3.73,2.98,6.81,.78,13.63,1.05,20.48,1.03,2.29,0,3.8-.67,5.05-2.78,2.82-4.74,6.41-8.92,10.24-12.89,2.37-2.46,4.72-4.94,7.64-8-17.88,3.15-34.41,2.53-51.16-4.62ZM367.28,170.02c.1-2.52-.27-5.76-.89-8.98-5.36-28.06-34.31-44.62-59.53-33.63-16.72,7.29-25.49,21.4-29.78,38.39-5.85,23.13,9.89,47.7,33.15,52.49,29.75,6.13,56.98-16.55,57.05-48.27Zm-36.95,381.23c9.76,4.21,18.07,8.99,26.17,14.15,2.09,1.33,3.18,1.43,3.09-1.54-.25-8.18-3.44-15.19-8.41-21.51-1.12-1.42-2.33-2.11-4.17-.99-5.27,3.2-10.61,6.3-16.69,9.89Zm108.45,50.6c.05-3.83-2.7-6.95-5.53-10.02-1.02-1.11-2.07-.81-3.14-.02-3.83,2.79-7.68,5.56-11.52,8.34-1.42,1.02-1.5,1.93-.03,3.11,4.84,3.91,9.63,7.88,14.37,11.91,1.35,1.15,2.25,1.35,2.88-.53,1.31-3.94,2.7-7.85,2.98-12.79Zm-41.62-17.02c-.19-6.39-1.86-12.98-7.48-18.02-1.36-1.22-2.54-1.79-4.23-.42-3.21,2.61-6.53,5.1-9.85,7.57-1.82,1.36-1.44,2.09,.41,3.05,6.3,3.28,12.55,6.64,18.75,10.1,2.04,1.14,2.67,.69,2.4-2.29ZM190.47,232.18c-1.44,2.57-2.82,5.17-4.32,7.71-12.02,20.44-30.02,28.98-53.35,25.24-17.78-2.85-33.07-11.05-46.98-22.14-.81-.65-1.36-2.15-2.89-1.22,.08,1.18,.89,1.87,1.67,2.52,17.96,15.03,38.01,24.87,62.04,23.97,18.81-.71,39.39-17.64,43.83-36.07Zm-28.79-36.93c-.13-2.69-.5-5.33-1.57-7.82-3.75-8.69-12.39-10.41-19.01-3.66-3.95,4.02-6.64,8.77-6.94,14.56-.37,7.02,3.5,12.33,10.29,14.3,5.15,1.5,11.28-1.53,14.5-7.13,1.83-3.17,2.49-6.65,2.74-10.25Zm308.05,446.82c-.22-1.98-.39-4.05-.7-6.11-.17-1.17-.5-2.32-.86-3.45-1.79-5.51-2.23-5.71-7.45-3.65-1.93,.76-3.85,1.63-5.85,2.14-3.21,.81-4.03,1.72-1.24,4.43,3.18,3.09,5.79,6.77,8.85,10,1.77,1.87,2.94,6.28,5.04,5.33,2.71-1.22,1.93-5.51,2.21-8.69Zm-189.28,17.5c-35.8,44.76-42.34,104.47-19.39,140.77-23.28-50.55-9.95-96.69,19.39-140.77Zm217.9,24.3c-.8-4.45-1.9-8.6-4.1-12.39-.89-1.53-2.12-1.95-3.76-1.48-2.71,.78-5.43,1.56-8.15,2.3-1.72,.47-2.14,1.14-.99,2.79,3.41,4.87,6.66,9.85,10.02,14.75,.53,.77,1.25,2.31,2.31,1.12,1.92-2.13,4.59-3.91,4.67-7.1Zm22.9,41.28c4.77-6.51,5.69-12.33,2.82-18.57-1.14-2.48-2.58-3.91-5.45-1.85-2.52,1.81-5.23,3.37-7.93,4.91-2.01,1.15-1.88,2.14-.36,3.7,3.6,3.72,7.04,7.59,10.91,11.81ZM426.1,202.63c4.95-4.95,6.13-18.15,2.49-23.44-1.51-2.19-4.12-.82-6.21-1.07-1.36-.16-1.24,.84-.93,1.77,2.38,7.2,3.65,14.65,4.66,22.74Zm-210.47-27.32c14.37,9.76,35.98,5.58,49.88-9.46,12.36-13.38,15.13-36.7,5.22-49.46,8.43,20.18,6.12,37.83-9.92,52.12-13.33,11.88-28.75,13.61-45.18,6.79Zm386.78,563.15c4.76-1.44,8.72-4,12.73-6.46,1.96-1.2,2.39-2.44,.58-4.09-.98-.89-1.87-1.91-2.93-2.69-1.74-1.27-10.82,.94-10.29,2.21,1.54,3.74-1.79,7.11-.08,11.02ZM99.01,187.91c.16,1.16,.17,2.84,.64,4.37,1.07,3.52,4.33,4.56,7.39,2.51,5.67-3.8,10.31-15.67,8.67-22.18-1.3-5.16-4.8-6.42-8.8-2.93-5.35,4.66-7.45,10.86-7.89,18.23ZM632.24,713.97c3.63-3.91,5.8-8.41,8.35-12.63,.78-1.29,3.27-3.2-.1-4.47-2.39-.89-4.87-3.25-7.05,.79-2.75,5.11-3.56,10.21-1.2,16.3Zm-215.6-437.51c8.57-2.89,10.66-5.94,10.52-14.27-.04-2.27-1.17-3.46-2.77-4.69-1.66-1.27-2.2-.67-2.67,1.05-1.6,5.85-3.3,11.67-5.08,17.91Zm161.7,466.66c1.94-.14,4.46-.27,6.97-.51,.98-.09,2.41-.08,2.18-1.56-.42-2.76-.64-5.81-4.64-5.89-3.71-.08-7.03,1.15-10.05,3.09-1.43,.92-3.3,2.33-2.64,4.17,.52,1.46,2.63,.54,4.03,.67,1.18,.11,2.37,.02,4.14,.02Zm-23.66-8.37c.09-3.5-2.56-4.32-5.14-4.95-1.84-.45-8.52,3.66-8.54,5.45-.03,2.61,2.83,2.24,4.42,3.15,.88,.5,1.93,.72,2.92,1.01,4.96,1.44,6.26,.48,6.34-4.66Zm-226.28-329.78c9.35,1.61,15.18-4.3,13.79-13.47-4.48,4.37-9.13,8.92-13.79,13.47Zm53.17-62.04c6.81,1,12.58-3.51,13.13-9.65,.2-2.21-1.51-2.65-2.8-3.52-1.6-1.09-1.98,.34-2.6,1.29-2.48,3.82-4.98,7.64-7.73,11.87Zm49.62,443.91c1.87,19.95-8.41,36.36-16.09,53.54,9.55-16.58,19.19-33.14,16.09-53.54Zm-61.13-427.81c-3.7,2.82-11.48,11.71-13.42,15.25,3.26-.27,6.88,1.68,8.95-1.91,2.25-3.9,3.39-8.32,4.46-13.33Zm20.38-129.07c-5.51,12.26-8.37,15.59-16.3,18.73-3.86,1.53-7.83,2.79-11.78,4.09-4.32,1.42-8.66,2.77-12.44,5.51,9.37-3.99,19.71-5.22,28.7-10.2,6.73-3.73,10.89-9.35,11.82-18.13Zm46.16,357.2c3.43,2.13,6.53,4.06,9.63,6,.25,.16,.48,.35,.71,.53,.81,.63,1.6,.7,2.36-.08,.76-.78,1.4-1.64,.68-2.74-1.93-2.95-4.88-4.88-7.85-6.34-1.82-.9-3.46,1.63-5.53,2.63Zm-150.38-128.18c-2.67,3.99-3.74,8.5-5.05,12.92-.32,1.07-1.24,2.7,.08,3.09,1.41,.42,3.47-.13,3.83-2.09,.84-4.55,2.03-9.08,1.13-13.92Zm106.68,102.58c4.58,2.74,8.84,5.28,13.93,8.33-3.17-8.79-9.34-12.26-13.93-8.33Zm-92.36-127.27c3.19-.37,5.96,1.41,7.36-1.85,1.44-3.35,2.63-6.81,3.93-10.22-3.74,3.66-7.87,6.8-11.28,12.08Zm61.29,401.08c-1.54-12.96-2.98-25.99-4.14-39.09-.49,.87-.62,1.72-.59,2.57,.48,12.28,2,24.44,4.73,36.51Zm-59-325.06c3.77,3.47,6.76,6.23,9.75,8.98,1,.92,1.89,.61,2.67-.3,.86-1.01,1.27-2.19,.02-3.08-3.44-2.46-6.81-5.13-12.44-5.6Zm371.21-19.91c-.4-2.34-1.82-3.5-4.03-3.39-2.31,.11-3.56,1.68-3.49,3.84,.08,2.28,1.68,3.41,3.94,3.29,2.31-.13,3.36-1.61,3.58-3.73Zm-273.81,66.14c2.48,1.6,4.51,3,6.62,4.25,.95,.56,2.16,1.4,3.1,.04,.74-1.08,.33-2.19-.39-3.25-2.98-4.38-4.18-4.59-9.33-1.04Zm14.26-300.99c-.15-2.32-1.31-3.77-3.53-3.87-2.21-.1-3.54,1.07-3.7,3.44-.17,2.49,1.25,3.51,3.4,3.68,2.28,.17,3.55-1.07,3.82-3.24Zm241.09,279.74c2.19-.33,3.6-1.49,3.55-3.79-.05-2.33-1.56-3.49-3.76-3.5-2.36-.01-3.48,1.51-3.46,3.74,.02,2.31,1.36,3.48,3.67,3.55ZM465.26,32.51c-2.48,.13-3.62,1.49-3.62,3.73,0,2.14,1.35,3.36,3.38,3.3,2.09-.07,3.78-1.18,3.79-3.53,0-2.27-1.3-3.52-3.55-3.5Zm-66.41,100.99c2.23-.07,3.48-1.23,3.63-3.25,.18-2.35-1.29-3.68-3.49-3.63-1.95,.04-3.26,1.29-3.28,3.44-.03,2.18,1.23,3.17,3.14,3.43Zm-5.8,173.65c-.4-2.04-1.5-3.47-3.88-3.25-2.06,.19-3.27,1.44-3.24,3.52,.03,2.41,1.64,3.46,3.82,3.32,1.97-.13,3.26-1.3,3.3-3.58Zm-40.64,232.17c2.83,2.54,5.66,5.08,8.51,7.6,.62,.55,1.21,1.67,2.15,.97,.94-.7,.84-1.99,.13-2.81-2.81-3.22-6.08-5.76-10.79-5.76Zm62.19-418.78c-.19-2.08-1.2-3.32-3.36-3.28-2.36,.05-3.52,1.43-3.41,3.67,.1,2.14,1.68,3.12,3.61,3.07,2.05-.05,3.12-1.4,3.17-3.46Zm-53.34,413.6c-1.76,.1-3.91,1.54-3.65,2.12,1.24,2.68,4.39,2.99,6.77,4.28,1.01,.55,2.1,.3,2.39-1.04,.11-.52,.01-1.26-.3-1.67-1.36-1.81-3.27-2.89-5.22-3.68Zm12.57-204.94c-2.03,.17-3.43,1.22-3.49,3.28-.06,2.09,1.35,3.34,3.35,3.33,1.77,0,3.09-1.12,3.26-3.01,.2-2.17-1.15-3.2-3.12-3.6Zm26.88,247.56c-.67-6.17-4.93-9.73-9.23-13.25-.58-.47-1.32-.78-1.94-.02-.65,.8-.04,1.4,.51,1.84,4.12,3.26,8,6.74,10.65,11.43Zm272.97-23c-.12-1.97-.95-3.29-2.91-3.42-2.07-.14-3.49,.84-3.65,3-.14,1.94,.95,3.12,2.86,3.27,2.05,.16,3.41-.79,3.7-2.85Zm-74.84-41.46c-1.57,.46-3.14,1.1-3.18,3.32-.04,2.16,1.24,3.28,3.21,3.36,1.88,.08,2.93-1.19,3.15-2.99,.26-2.16-1.03-3.17-3.18-3.7ZM400.36,154c-.03-1.66-1.02-2.76-2.96-2.76-1.8,0-3.18,.77-3.31,2.78-.14,2.2,1.14,3.29,3.2,3.31,1.9,.01,2.94-1.11,3.07-3.32Zm-63.38-101.97c-.29-1.64-1.28-2.99-3.07-3.01-2.04-.02-3.21,1.4-3.16,3.43,.05,1.78,1.45,2.53,3.01,2.54,1.73,0,3.12-.73,3.22-2.95Zm108.13,32.64c-.28-1.81-1.26-3.01-3.19-2.92-1.82,.09-3.12,1.2-3.16,3.05-.04,2.1,1.31,3.3,3.38,3.16,1.84-.13,2.8-1.41,2.97-3.29Zm58.17,582.85c1.01,2.25,3.13,3.47,4.69,5.2,.5,.55,.97,1.13,1.52,1.62,1.07,.98,2.06,.68,2.24-.66,.4-3.12-5.42-7.35-8.44-6.16Zm-54.7-87.62c-1.39,.84-2.47,1.33-3.32,2.09-.54,.47,0,1.08,.54,1.39,2.04,1.17,4.05,2.39,6.15,3.42,.81,.39,2.28-.11,1.67-1.04-1.37-2.11-3.28-3.87-5.04-5.85Zm220.97-52.6c1.6-.22,3.1-.92,3.29-2.83,.19-1.9-1.02-3.14-2.83-3.27-1.8-.13-3.17,.94-3.38,2.8-.22,1.9,.86,3.02,2.93,3.29ZM459.13,57.96c-.29-1.71-1.07-3.11-3.04-3.01-1.85,.09-3,1.31-2.93,3.14,.06,1.59,1.13,2.78,2.8,2.83,1.86,.06,2.93-1.05,3.17-2.96Zm-15.11,35.69c-.3-1.44-1.32-2.51-3.27-2.32-1.65,.16-2.78,1.04-2.67,2.86,.11,1.87,1.1,3.12,3.04,3.05,1.88-.07,2.92-1.21,2.9-3.59Zm-93.51,497.28c-.05-1.99-1.23-2.95-3.07-2.96-1.7,0-2.76,1.13-2.89,2.74-.16,1.9,.99,3.13,2.84,3.18,1.81,.05,2.98-1.03,3.13-2.97ZM329.96,62.28c-.02-2.06-1.14-3.1-2.97-3.25-2.03-.17-2.98,1.22-3.08,2.97-.1,1.68,.97,2.75,2.7,2.84,1.83,.09,3.12-.64,3.36-2.56Zm81.14,113.6c-.44-1.54-1.12-3.04-3.14-2.96-1.86,.08-3.06,1.21-3.06,3.1,0,1.69,1.1,2.77,2.8,2.82,1.84,.06,3.01-.95,3.4-2.97Zm22.44-85.74c-1.5,.2-2.99,.53-2.95,2.53,.04,1.95,1.24,3.06,3.08,3.1,1.56,.03,3.06-.67,3.06-2.52,0-1.92-1.33-2.85-3.2-3.12Zm155.65,419.35c1.42-.32,2.92-1.02,2.94-2.96,.03-1.71-1.22-2.61-2.84-2.74-1.99-.16-3.02,1.02-3.1,2.88-.07,1.74,1,2.64,3,2.82Zm59.9,119.53c-1.43,5-.24,9.64,1.93,14.13,.2-4.81-.34-9.51-1.93-14.13ZM449.29,75.53c-.19-1.67-1.1-2.71-2.91-2.55-1.72,.14-2.76,1.2-2.7,2.94,.07,1.76,1.24,2.73,2.95,2.65,1.74-.08,2.62-1.2,2.66-3.04Zm129.33,427.39c1.85-.29,2.93-1.37,2.93-3.25,0-1.78-1.11-2.75-2.82-2.67-1.7,.08-2.69,1.17-2.69,2.9,0,1.66,.78,2.8,2.58,3.02ZM429.83,101.68c-.07-1.67-.85-2.87-2.57-2.94-1.78-.07-3.24,.76-3.17,2.77,.07,1.8,1.23,3.08,3.06,3.05,1.62-.03,2.6-1.15,2.68-2.88Zm21.17-31.7c1.57-.32,3.03-.94,3.09-2.67,.07-1.89-1.13-3.02-3.05-2.98-1.68,.03-2.82,.92-2.74,2.75,.07,1.68,1.03,2.67,2.7,2.9Zm10.2-19.31c1.84-.17,2.86-1.13,2.81-2.89-.05-1.69-.99-2.86-2.78-2.84-1.94,.03-3.07,1.1-2.95,3.11,.11,1.8,1.28,2.56,2.92,2.61Zm-3.8,32.01c1.71-.2,2.87-1.06,2.87-2.83,0-1.96-1.2-3.07-3.12-2.97-1.74,.09-2.65,1.32-2.59,3.03,.06,1.74,1.09,2.68,2.84,2.77Zm-17.74,17.94c-.24-1.49-.94-2.81-2.72-2.68-1.8,.13-2.97,1.24-2.77,3.19,.18,1.71,1.37,2.63,3,2.55,1.69-.09,2.55-1.22,2.49-3.06Zm.58,560.2c-.21-1.67-1.02-2.82-2.77-2.84-1.66-.02-2.88,.9-2.96,2.6-.09,1.87,.98,3.07,2.93,3.02,1.71-.04,2.59-1.14,2.8-2.79Zm94.58,45.34c.92-2.63-.59-4.6-1.73-6.59-.74-1.29-1.85-1.17-3-.29-1.13,.87-1.63,1.7-.27,2.74,1.69,1.29,2.33,3.86,4.99,4.14Zm-120.64-64.65c-.16-1.49-.79-2.63-2.44-2.62-1.81,0-3.31,.76-3.3,2.8,.01,1.74,1.27,2.71,2.94,2.71,1.76,0,2.59-1.22,2.8-2.89Zm-10.39-356.32c1.94-.04,2.95-1.09,3.06-2.97,.1-1.55-.69-2.5-2.26-2.62-1.83-.14-3.22,.47-3.26,2.56-.03,1.61,.63,2.83,2.46,3.02Zm206.65,242.91c-.11-1.72-1.05-2.71-2.81-2.72-1.49,0-2.68,.71-2.73,2.3-.05,1.62,.69,2.93,2.53,3.03,1.74,.1,2.76-.83,3.01-2.62ZM335.99,58.9c-1.77,.24-2.75,1.17-2.76,2.92,0,1.76,.91,2.83,2.7,2.73,1.69-.09,2.69-1.14,2.71-2.88,.03-1.78-.98-2.67-2.65-2.78Zm78.13,186.3c1.75-.09,2.82-1.01,2.92-2.67,.1-1.68-.83-2.79-2.6-2.82-1.72-.03-2.76,1-2.92,2.64-.17,1.78,1.04,2.55,2.6,2.85Zm-108.13,317.38c-.21-1.74-1.25-2.67-2.95-2.66-1.71,.02-2.85,.92-2.84,2.72,0,1.98,1.2,3.02,3.12,2.92,1.75-.09,2.55-1.29,2.68-2.99Zm37.24-193.61c-1.74,.16-2.65,1.25-2.55,2.95,.08,1.47,.97,2.56,2.57,2.49,1.77-.08,2.68-1.22,2.6-2.95-.07-1.52-.95-2.43-2.62-2.49Zm167.03,295.71c2.31,2.7,3.12,5.44,5.9,4.96,1.85-.32,1.49-2.49,.96-3.72-1.34-3.12-3.68-.62-6.87-1.23Zm-104-37.29c-.32-1.69-1.37-2.53-3.04-2.47-1.5,.06-2.54,.92-2.57,2.42-.04,1.72,1.1,2.69,2.75,2.75,1.72,.05,2.57-1.09,2.87-2.7Zm37.23-27.37c-1.07-5.33-4.53-8.64-8.36-11.62-.34,.29-.68,.58-1.02,.87,3.13,3.58,6.25,7.17,9.38,10.75Zm-79.1-255.73c-1.57,.2-2.49,.95-2.5,2.58-.01,1.81,.82,2.79,2.68,2.7,1.53-.07,2.57-.87,2.53-2.46-.05-1.68-.96-2.73-2.71-2.82Zm250.85,200.46c-.07-1.58-.83-2.53-2.44-2.56-1.59-.03-2.49,.93-2.69,2.4-.21,1.58,.76,2.65,2.21,2.81,1.74,.19,2.69-.94,2.92-2.64Zm-327.22,2.71c-.22-1.72-1.32-2.58-3.02-2.46-1.47,.11-2.56,.94-2.44,2.57,.14,1.76,1.37,2.62,3.03,2.57,1.56-.04,2.33-1.08,2.42-2.68Zm181.2,143.49c-.01-1.64-.91-2.43-2.49-2.44-1.72-.01-2.89,.76-2.87,2.6,.02,1.57,1.08,2.48,2.54,2.54,1.69,.06,2.76-.87,2.81-2.69Zm197.63-185.56c-.26-1.2-.78-2.35-2.43-2.39-1.77-.05-2.74,.92-2.88,2.61-.14,1.61,.87,2.45,2.34,2.59,1.82,.17,2.56-1.04,2.97-2.81Zm12.19,4.39c-.12-1.28-.73-2.44-2.28-2.55-1.82-.13-3.17,.73-3.28,2.68-.09,1.61,1.13,2.35,2.51,2.51,1.71,.2,2.69-.78,3.05-2.64Zm-293.89-189.41c.07-1.56-.67-2.67-2.19-2.81-1.72-.17-2.87,.87-2.92,2.58-.05,1.51,.99,2.44,2.49,2.57,1.62,.14,2.41-.81,2.62-2.34Zm14.2-26.37c-.1-1.51-.99-2.39-2.46-2.48-1.7-.1-2.8,.77-2.8,2.56,0,1.69,1.28,2.19,2.65,2.28,1.56,.11,2.38-.81,2.61-2.37Zm43.1,351.03c-.11-1.47-.65-2.66-2.28-2.81-1.75-.16-2.95,.8-3.07,2.48-.13,1.75,1.07,2.74,2.77,2.78,1.55,.04,2.42-.9,2.58-2.46Zm268.18-182.33c-.22-1.56-1.05-2.49-2.65-2.38-1.5,.1-2.59,.91-2.46,2.53,.12,1.47,1.03,2.53,2.59,2.47,1.54-.06,2.26-1.2,2.51-2.62Zm-372.99-79.72c-.2-1.59-1-2.81-2.72-2.82-1.45,0-2.54,.92-2.48,2.47,.06,1.42,.89,2.48,2.43,2.59,1.53,.11,2.45-.7,2.76-2.25ZM460.02,67.12c-1.66,.03-2.88,.79-2.98,2.51-.09,1.52,.92,2.41,2.44,2.54,1.75,.15,2.85-.7,2.93-2.46,.07-1.51-.79-2.44-2.38-2.59Zm-95.27,535.41c1.44-.19,2.54-.8,2.64-2.39,.11-1.72-.68-2.85-2.49-2.85-1.57,0-2.39,1.01-2.42,2.52-.02,1.49,.74,2.46,2.27,2.72Zm50.79-400.49c-.03-1.5-.88-2.39-2.43-2.43-1.85-.05-2.69,1.23-2.69,2.82,0,1.55,1.18,2.36,2.68,2.27,1.49-.09,2.4-.98,2.45-2.66Zm10.52-76.8c-.06-1.47-.73-2.55-2.28-2.68-1.47-.12-2.6,.61-2.8,2.16-.21,1.71,.67,2.93,2.4,2.94,1.38,.01,2.46-.82,2.67-2.42Zm-9.75-13.29c1.21-.33,2.4-.93,2.48-2.53,.08-1.62-.99-2.5-2.45-2.63-1.59-.14-2.48,.9-2.6,2.42-.14,1.64,.91,2.38,2.58,2.73Zm49.54-52.77c1.62-.38,2.59-1.37,2.5-3.07-.09-1.59-1.13-2.31-2.67-2.19-1.59,.12-2.35,1.07-2.25,2.63,.09,1.48,.87,2.43,2.42,2.63Zm37.15,621.12c.53-4.36-1.99-8.77-5.8-11.17,2.11,4.06,3.96,7.61,5.8,11.17Zm-145.48-320.45c-.12-1.54-.84-2.5-2.48-2.44-1.51,.05-2.66,.85-2.68,2.35-.02,1.49,1.06,2.37,2.58,2.45,1.62,.09,2.4-.82,2.57-2.36Zm117.25,275.72c.33-.2,.67-.39,1-.59-1.04-3.68-3.42-6.4-5.79-9.13-.34,.24-.68,.47-1.02,.71,1.94,3,3.87,6,5.81,9.01Zm-46.95-3.45c1.56-.22,2.51-1.14,2.44-2.61-.07-1.43-1.01-2.5-2.55-2.42-1.5,.07-2.37,1.08-2.38,2.59,0,1.61,1.09,2.24,2.48,2.44Zm17.67,45.39c-.28-1.25-.95-2.3-2.56-2.36-1.35-.05-2.34,.49-2.51,1.93-.2,1.61,.65,2.55,2.19,2.75,1.56,.2,2.53-.57,2.88-2.32Zm214.63-157.52c1.41-.16,2.41-.84,2.42-2.2,.01-1.58-1.02-2.39-2.6-2.36-1.38,.02-2.32,.8-2.35,2.15-.03,1.59,1.07,2.31,2.52,2.42ZM429.89,109.53c-.11-1.57-.87-2.68-2.45-2.57-1.45,.1-2.46,1.1-2.39,2.68,.06,1.36,.97,2.18,2.29,2.26,1.6,.1,2.43-.82,2.55-2.37Zm295.2,366.22c-.17-1.39-1.04-2.15-2.36-2.18-1.6-.03-2.49,1.02-2.5,2.51-.01,1.37,.91,2.14,2.32,2.13,1.6,0,2.43-.89,2.55-2.47ZM369.32,238.15c-.03-1.61-.98-2.47-2.46-2.45-1.47,.02-2.47,.93-2.5,2.49-.04,1.61,.96,2.41,2.47,2.41,1.54,0,2.4-.87,2.49-2.45Zm-49.96-166.79c.28,1.35,1.47,1.8,2.88,1.71,1.28-.08,2.34-.71,2.13-2.21-.21-1.55-1.36-2.29-2.83-2.16-1.28,.11-2.09,.98-2.18,2.66Zm19.51,502.21c-1.4,.16-2.27,.94-2.21,2.29,.06,1.31,.88,2.2,2.31,2.14,1.45-.06,2.08-1.12,2.13-2.36,.05-1.39-.83-2.12-2.23-2.07Zm17.46-333.29c1.38-.11,2.19-.83,2.22-2.24,.03-1.34-.57-2.38-1.99-2.42-1.52-.05-2.59,.76-2.52,2.4,.06,1.35,.94,2.09,2.29,2.26Zm39.5,371.54c.03-1.47-.95-2.15-2.18-2.13-1.24,.02-2.16,.82-2.19,2.21-.03,1.42,.81,2.19,2.14,2.14,1.29-.05,2.09-.86,2.23-2.22ZM321.49,85.77c-1.35,.26-2.22,1.04-1.99,2.45,.21,1.28,1.07,2.21,2.5,1.93,1.41-.28,1.81-1.42,1.7-2.72-.11-1.32-1.08-1.63-2.21-1.66Zm61.72,526.82c-.24-1.2-.73-2.35-2.18-2.2-1.23,.12-2.26,.89-2.11,2.33,.14,1.36,1.05,2.06,2.43,1.92,1.17-.11,1.87-.76,1.86-2.05Zm-61.48-49.02c-.04-1.49-.79-2.41-2.18-2.35-1.33,.06-2.18,1-2.15,2.38,.02,1.17,.75,2,1.94,2.04,1.37,.04,2.16-.79,2.38-2.07Zm79.59-227.6c-1.43,.05-1.85,.85-1.62,2.02,.23,1.16,.65,2.36,2.09,2.33,1.09-.02,1.94-.77,1.94-1.93,.01-1.58-1.09-2.21-2.42-2.42Zm7.43,280.31c1.18-.17,2.01-.86,1.88-2.03-.13-1.19-.72-2.35-2.22-2.3-1.41,.05-2.2,.91-2.09,2.31,.11,1.38,1.02,2.05,2.43,2.03Zm28.63-503.12c-1.19,.04-1.9,.7-2.11,1.79-.23,1.21,.44,2,1.56,2.17,1.38,.21,2.27-.66,2.4-1.92,.11-1.13-.76-1.79-1.85-2.05Zm-98.08-71.56c-1.3,.28-2.14,1.05-2.05,2.37,.07,1.14,.97,1.81,2.07,1.83,1.12,.02,1.97-.64,2-1.82,.03-1.3-.71-2.13-2.01-2.38Zm-25.6,39.65c1.34-.29,1.82-1.28,1.66-2.59-.14-1.12-.74-2.01-2-1.84-1.42,.19-1.92,1.3-1.79,2.58,.12,1.11,.77,1.88,2.12,1.85Zm144.59,598.99c1.17-.11,2.07-.57,2.07-1.86,0-1.32-.53-2.33-2.07-2.35-1.25-.02-1.93,.66-2.06,1.87-.15,1.49,.69,2.16,2.05,2.34ZM468.14,22.2c-1.38,.07-2.21,.8-2.2,2.19,.01,1.17,.76,1.93,1.93,2.01,1.34,.08,2.33-.64,2.47-1.97,.15-1.46-.94-1.99-2.21-2.22Z"/>
  <path d="M251.39,134.05c-.15,7.91-2.06,15.3-6.62,21.86-4.96,7.12-12.65,10.18-20.13,8.12-7.03-1.94-12.18-8.7-12.58-17.2-.51-10.73,2.77-20.28,10.21-28.12,4.47-4.7,9.79-8,16.69-6.12,7.02,1.91,10.05,7.37,11.69,13.93,.62,2.48,.73,4.99,.74,7.53Z"/>
  <path d="M365.7,169.18c.22,26.56-18.58,47.7-43.76,48.61-28.87,1.04-48.92-23.14-43.56-51.09,2.48-12.92,8.88-24.03,19.38-32.18,23.73-18.43,57.34-7.21,65.89,21.81,1.35,4.59,2.08,9.28,2.05,12.85Zm-47.91,45.65c29.81-.05,49.85-26.38,43.49-53.42-4.82-20.5-24.54-34.13-44.73-30.56-13.66,2.41-22.62,11.42-29.16,22.89-7.83,13.73-8.74,28.1-.89,42.09,7.34,13.09,19.45,18.58,31.3,19Z"/>
  <path d="M158.82,196.19c-.09,4.13-1.18,7.95-3.83,11.17-2.61,3.18-5.74,5.19-10.11,3.85-4-1.22-7.49-5.41-7.83-9.4-.51-6.03,4.37-14.3,9.91-16.8,4-1.81,7.7-.7,10,3.05,1.53,2.49,1.95,5.26,1.86,8.13Z"/>
  <path d="M101.17,188.88c-.04-6.02,1.92-10.88,5.25-15.22,1.27-1.66,2.83-3.34,5.2-2.42,2.07,.81,2.44,2.88,2.4,4.85-.11,5.62-1.65,10.78-5.29,15.18-1.44,1.74-3.12,3.69-5.53,2.9-2.67-.88-1.81-3.65-2.03-5.29Z"/>
  <path d="M336.73,164.97c-.32,10.11-3.74,19.69-11.52,27.43-6.08,6.05-13.26,8.41-21.59,5.6-8.36-2.83-12.23-9.35-12.6-17.7-.69-15.45,5.46-28.22,17.43-37.72,8.21-6.52,19.81-3.03,24.91,6.61,2.5,4.72,3.31,9.81,3.37,15.78Z"/>
</svg>