<?xml version="1.0" encoding="UTF-8"?>
<svg id="Layer_1" data-name="Layer 1" xmlns="http://www.w3.org/2000/svg" viewBox="0 0 864 864">
  <path d="M753.18,404.82c-4.86-4.95-10.15-9.49-16.02-13.09-33.42-20.52-68.49-30.67-107.22-16.12-1.86,.7-3.41,1.15-4.52-1.25-.74-1.6-2.46-2.91-4.1-2.05-1.43,.75-.15,2.44,.18,3.72,.41,1.54,1.47,3.17-.57,4.5-1.86,1.21-3.19,.49-4.37-.95-1.08-1.32-2.08-.87-3.16-.02-1.04,.82-1.3,1.88-.38,2.76,2.57,2.45,.39,3.63-1.16,5.07-14.73,13.6-21.93,30.34-21.29,50.46,.18,5.52,.11,11.07-.34,16.57-.43,5.2-1.03,10.46-3.19,15.37-1.61-.61-1.57-1.86-1.99-2.78-8.95-19.7-18.5-39.09-29.48-57.77-14.94-25.41-33.83-47.81-52.86-70.11-4.76-5.58-10.04-10.79-12.62-17.96-3.59-9.96-7.71-19.71-12.34-29.24-3.69-7.6-5.38-15.68-4.47-24.14,.99-9.24,5.47-15.69,14.84-18.37,9.19-2.63,18.58-4.29,28.03-5.2,42.78-4.11,84.58-13.07,125.75-25.13,23.19-6.79,45.81-15.04,66.04-28.66,30-20.2,38.84-54.13,22.3-84.63-1.79-3.3-3.36-3.91-6.74-2.26-14.25,6.96-29.11,12.21-44.63,15.62-33.3,7.33-64.26,4.66-91.24-19.07-9.43-8.29-20.22-15.09-32.74-18.21-3.42-.85-4.03-2.1-3.43-5.63,4.22-25.14-3.74-46.25-22.03-63.65-2.65-2.52-5.92-5.6-9.7-3.16-4.1,2.64-1.58,6.75-.33,10.02,3.36,8.77,3.66,17.67,1.8,26.72-.88,4.29-2.23,8.45-5.11,11.94-1.14-.79-1.05-1.79-1.1-2.67-.69-11.5-5.78-21.18-12.51-30.16-8.22-10.95-19.68-15.18-32.89-15.57-2.83-.08-5.75,.37-6.7,3.67-.92,3.2,1.5,4.68,3.73,6.12,.9,.58,1.85,1.1,2.74,1.7,16.83,11.28,20.57,33.97,8.04,48.2-2.91,3.31-6.22,5.14-10.75,5.21-4.9,.08-9.81,.56-14.68,1.17-3.07,.39-5.62-.4-8.33-1.72-25.33-12.35-43.44-32.13-57.85-55.77-3.53-5.79-7.09-11.57-11.2-18.27-5.86,20.07-7.15,39.11-1.99,58.25,3.62,13.42,8.6,26.3,19.08,36.15,2.41,2.26-.1,2.45-1.15,2.94-6.85,3.15-13.8,6.36-19.66,10.97-7.49,5.88-14.79,5.28-23.18,2.78-41.52-12.36-70.26-40.08-92.44-75.91-1.44-2.33-1.76-6.93-4.87-6.33-3.25,.62-3.52,5.07-3.78,8.19-1.23,14.37-2.81,28.77-1.6,43.2,2.31,27.5,14.25,49.9,36.53,66.44,11.15,8.28,23.89,13.82,36.2,20.05,3.21,1.62,3.92,3.09,3.2,6.66-6.54,32.32-2.59,62.94,15.77,90.95,8.88,13.55,19.82,25.41,31.57,36.5,28.29,26.7,52.82,56.45,72.97,89.77,3.46,5.72,3.44,5.82-3.22,6.45-2.24,.21-3.21,.63-1.87,2.94,1.65,2.85,2.34,6.43,7.41,4.33,2.79-1.16,5.56,1.22,5.77,4.39,.22,3.22-2.66,1.44-4.13,1.66-1.76,.26-3.1,.43-2.33,2.7,.53,1.56,.28,4,3.24,2.38,.73-.4,1.81-.17,2.72-.24,4.49-.33,4.42,3.27,4.56,5.94,.18,3.5-2.7,.94-4.08,1.5-1.21,.48-3.53-1.06-3.5,1.5,.02,2.12,.66,4.42,3.76,4.03,3.92-.5,5.28,1.78,6.23,5.15,2.9,10.28,3.15,20.91,4.53,31.39,.55,4.22,.63,7.17-5.02,6.53-1.96-.22-4.29-.09-3.69,3.52,.55,3.32,1.93,3.33,4.62,2.76,4.92-1.04,5.39-.6,4.55,4.5-2.78,16.85-6.77,33.39-14.19,48.89-3.91,8.18-8.44,15.99-14.39,22.95-2.65,3.09-5.48,3.82-9.32,3.11-12.18-2.25-22.59-7.87-31.29-16.51-13.58-13.48-22.87-28.84-20.62-49.07,.41-3.64,.11-7.36,.17-11.05,.23-13.11-4.99-23.74-14.39-32.67-7.07-6.72-15.11-12.05-23.42-17.01-2.54-1.51-4.49-2.56-1.17-5.32,1.12-.93,1.95-2.74,.04-3.89-2.43-1.46-2.2,1-2.87,2.15-.83,1.43-.74,3.93-3.6,3.07-2.73-.83-2.61-2.34-1.55-4.56,1.01-2.1-.87-2.95-2.29-3.84-1.31-.82-2.54-.47-3.03,.87-1.58,4.27-4.38,3.14-7.36,1.95-1.99-.79-4.05-1.43-6.12-2-34.36-9.63-68.88-8.77-103.47-1.48-28.36,5.98-52.58,19.14-71.52,41.48-9.81,11.57-16.76,24.75-22.54,38.69,11.53-11.78,25.23-19.79,40.9-24.46,14.11-4.21,27.1,.14,35.77,12.05,6.3,8.65,8.47,18.7,8.5,29.14,.04,17.81-1.35,35.58-2.51,53.35-.13,1.96-.66,4.07,.56,6.31,1.5-1.98,2.65-3.6,3.91-5.14,6.15-7.5,12.6-14.69,21.24-19.48,6.58-3.65,12.99-3.09,19.1,1.06,7.8,5.31,11.34,13.16,12.38,22.19,1.45,12.69,1.06,25.44,.92,38.19-.01,1.21-.85,2.71,.97,3.88,2.43-3.79,4.72-7.58,7.22-11.23,5.09-7.43,10.95-14.02,19.53-17.65,17.16-7.26,32.42,1.41,34.77,19.83,.86,6.74,.3,13.5,.27,20.25-.02,4.46-.06,8.94,1.15,14.61,3.73-9.67,7.85-17.69,12.35-25.51,3.55-6.16,7.71-11.85,13.75-15.87,2.98-1.99,6.31-2.79,9.6-1.11,3.19,1.63,3.37,4.95,3.31,8.06-.12,6.19-1.39,12.21-3.34,18.05-9.02,26.94-9.59,54.28-3.58,81.8,4.41,20.21,11.72,39.12,27.56,53.56,.75,.68,1.31,1.72,1.63,2.69,3.95,11.9-.15,23.12-10.75,29.48-1.97,1.18-4.07,2.15-6.03,3.37-2.31,1.44-3.7,.99-4.23-1.73-.56-2.88-1.94-3.01-4.53-1.97-3.56,1.43-.85,3.06-.21,4.08,1.93,3.09,1.18,4.5-2.19,5.56-7.53,2.37-15.15,4.01-23.07,3.68-8.71-.37-16.8-3.13-21.28-10.8-3.73-6.37-7.77-10.1-15.37-11.57-6.21-1.2-12.55-4.61-13.97-12.38-.91-4.96,1.51-7.71,6.58-7.11,2.36,.28,4.66,1.04,7.3,1.65-.31-3.92-1.76-7.11-3.01-10.34-.55-1.43-1.09-3-3.19-2.56,0,.01,0,.03,0,.04-3.49-2.07-7.03-4.08-10.47-6.24-3.93-2.48-5.99-6.11-5.88-10.79,.18-7.57,4.89-10.31,11.26-6.28,2.88,1.82,3.86,1.05,4.98-1.7,2.96-7.26,2.77-14.69,1.57-22.21-1.34-8.38-4.63-16.21-6.82-24.35-3.43-12.76-.29-21.57,10.29-29.22,4.45-3.22,4.27-6.45-.64-8.99-5.11-2.64-10.63-2.89-16.19-2.2-18.06,2.26-31.8,11.57-41.88,26.38-12.19,17.92-14.98,38-12.56,59.04,3.85,33.5,19.63,60.27,46.28,80.74,.92,.71,1.54,2.06,3.46,.91,3.22-1.93,9.28,.03,9.61,3.66,.62,6.83,5.94,7.78,10.3,10,21.21,10.81,43.86,15.67,67.57,15.5,17.23-.12,34.03-2.7,49.03-11.93,3.36-2.07,5.12-1.47,7.76,.98,16.28,15.08,34.47,27.1,55.83,33.88,6.15,1.95,7.19,1.49,9.19-4.69,.38-1.16,.61-2.38,.85-3.58,1.71-8.85,1.64-17.69-.48-26.52,2.4,3.13,2.87,6.76,3.25,10.41,.87,8.21-.6,16.22-2.13,24.22-.29,1.53-.98,3.04,1.29,3.65,4.18,1.12,8.43,1.63,12.75,1.56,.55,0,1.58-.59,1.57-.62-1.41-4.17,.52-6.73,4-8.61,.13-.07,.12-.61,.03-.88-1.17-3.51,.14-5.11,3.77-5.1,1.77,0,2.42-.77,1.7-2.63-.57-1.46-2.01-3.3-.01-4.53,1.83-1.13,3.51,.25,4.98,1.36,.85,.65,1.52,1.55,2.42,2.12,1.81,1.16,3.76,1.62,5.39-.26,1.64-1.88,1.1-3.73-.62-5.25-1.38-1.22-2.83-2.38-4.36-3.38-9.93-6.52-20.72-11.29-31.76-15.58-7.74-3-15.27-6.44-21.75-11.82-2.1-1.74-2.09-2.8,.63-3.61,10.34-3.07,20.12-7.48,29.73-12.32,2.09-1.05,3.97-.62,6.17-.21,6.45,1.22,9.12,6.13,11.99,11.07,10.48,17.98,25.4,30.91,44.47,39.18,2.94,1.27,4.67,1.24,5.98-2.16,2.53-6.59,5.32-13.06,6.93-19.98,.4-1.73,.29-3.87,2.19-5.22,.79,2,0,3.57-.44,5.18-1.99,7.25-3.99,14.49-5.94,21.75-.49,1.83-.87,3.94,1.37,4.77,3.53,1.32,7.76,3.86,10.87,1.19,3.26-2.8,7.09-6.3,6.32-11.61-.39-2.67,.44-3.42,2.94-2.83,2.14,.5,3.24-.19,2.98-2.59-.31-2.81,1.33-2.44,3.21-1.94,3.47,.91,8.68-1.93,9.05-5.39,.38-3.53-3.33-3.19-5.38-4.39-.24-.14-.46-.32-.7-.54-1.82,.02-3.54-.83-5.25-1.35-2.13-.65-4.29-1.18-6.45-1.74-4-1.03-8-2.42-11.78-4.09-3.3-1.45-6.43-3.4-9.4-5.43-2.59-1.77-5.34-3.69-7.15-6.3-2.89-4.17-1.9-9.14,.61-13.22,2.71-4.41,6.61-7.96,10.33-11.48,3.64-3.44,6.82-7.35,10.47-10.77,.14-.8,.42-1.65,.89-2.57,9.5-19.1,17.07-39.07,25.64-58.59,.87-1.98,2.03-3.98,1.98-7.57-5.92,14.19-12.71,26.56-20.08,38.59-10.73,17.51-24.11,32.52-41.88,43.25-12.68,7.66-26.74,8.49-40.97,8.54,2-.76,4.07-1.22,6.16-1.57,23.69-3.97,43.76-13.72,58.77-33.49,21.98-28.97,35.92-61.6,43.56-96.63,10.16-46.59,8.89-93.31-4.06-139.47-1.48-5.27-2.77-10.58-4.15-15.88,6.54,15.72,9.63,32.35,13.45,49.64,.88-2.82,1.34-4.9,2.17-6.82,.77-1.79,1.65-3.98,4.03-3.9,2.06,.07,2.97,1.98,3.75,3.67,1.41,3.07,2.8,6.14,4.08,9.26,2.06,5.02,3.7,10.23,6.84,15.71,1.37-3.71,2.53-6.65,3.55-9.64,2.71-7.99,4.76-16.26,8.16-23.94,6.69-15.12,22.55-18.13,34.78-7.15,2.05,1.84,4.13,3.68,6.37,5.29,1.77,1.27,3.52,3.5,6.1,1.86,2.71-1.72,2.94-4.34,2.28-7.31-2.28-10.4-6.11-20.24-10.21-30.02-3.38-8.09-6.41-16.31-6.78-25.2-.34-8.13,4.47-13.03,12.62-12.96,1.68,.01,3.37,.2,5.04,.43,12.25,1.68,20.3,10.16,28.84,17.84,1.83,1.64,3.17,5.1,6.22,3.52,2.98-1.55,1.69-4.9,1.46-7.57-.1-1.21-.51-2.39-.8-3.59-1.64-6.82-5.28-12.7-8.69-18.71-4.22-7.45-6.9-15.36-6.49-24.12,.49-10.57,8-16.63,18.3-14.57,2.4,.48,4.77,1.18,7.14,1.82,4.46,1.22,9.01,1.98,13.62,2.05,2.78,.04,5.75-.27,7-3.35,1.19-2.93-.77-4.92-2.64-6.82Zm-611.22,63.25c-1.14-.02-2.18-.4-2.05-1.79,.15-1.49,1.09-2.49,2.58-2.69,1.31-.18,1.87,.67,1.92,1.91-.13,1.51-.74,2.61-2.45,2.57Zm22.28-19.58c-1.19,.15-2.22-.44-2.19-1.74,.05-1.7,1.44-2.24,2.85-2.42,1.2-.15,2.04,.44,2.29,1.7-.37,1.58-1.53,2.28-2.96,2.46Zm12.97,15.09c-1.33-.07-2.34-.67-2.5-2.06-.19-1.7,.92-2.48,2.44-2.52,1.36-.03,2.29,.75,2.28,2.2-.01,1.39-.84,2.17-2.22,2.38Zm-.38-18.8c-1.14,.12-1.64-.65-1.35-1.74,.56-2.12,2.02-3.32,4.16-3.56,1.22-.13,1.88,.63,2.14,1.65-.99,2.37-2.73,3.41-4.96,3.64Zm12.1,37.08c-1.73-.24-2-1.6-2.09-2.98-.09-1.26,.1-2.56,1.66-2.75,1.82-.22,2.39,1.13,2.43,2.57,.03,1.36-.24,2.76-1.99,3.16Zm9.78,77.14c-.29,2.96-2.22,4.83-4.93,7.35-1.06-3.82,.29-6.18,1.58-8.52,.43-.78,1.17-1.55,2.21-1.12,.96,.39,1.23,1.34,1.14,2.29Zm.91-34.75c.04,1.72-.28,3.49-2.1,4.09-1.58,.52-2.12-.88-2.19-2.11-.09-1.72,.46-3.24,2.06-3.89,1.59-.05,2.2,.69,2.23,1.91Zm.43-27.56c2.1,0,1.85,2.02,2.18,3.43-.21,1.13,.19,2.87-1.64,2.61-1.52-.22-1.99-1.79-2.12-3.2-.11-1.25,.08-2.83,1.58-2.83Zm-4.06-6.21c1.85,.01,1.74,1.74,1.89,3.04-.07,1.28-.11,2.7-1.75,2.75-1.75,.05-2.32-1.27-2.26-2.79,.06-1.41,.4-3.01,2.12-3Zm-1.85-6.11c-.04-1.36,.56-2.48,1.94-2.66,1.81-.25,1.69,1.26,1.84,2.39-.07,1.28-.15,2.7-1.73,2.76-1.47,.06-2.01-1.15-2.05-2.48Zm16.78,32.5c-4.67,8.62-9.02,17.38-11.44,26.98-.5,2-.68,3.2,2.05,2.84,1.24-.16,2.51,.54,2.54,2.07,.04,1.46-.6,2.67-2.07,3.27-1.46,.59-2.23-.36-3.11-1.26-3.36-3.42-3.3-6.7-1.2-11.12,5.52-11.62,10.46-23.51,19.42-33.28-2.07,3.49-4.26,6.92-6.19,10.49Zm-7.33-85.9c0-1.57,.87-2.61,2.46-2.75,1.66-.15,2.71,.85,2.7,2.39,0,1.61-1.29,2.27-2.7,2.45-1.54,.05-2.48-.59-2.47-2.09Zm12.44,68.73c-.48,.86-1.47,1.86-2.62,1.07-1.18-.81-.62-1.94,.17-2.74,2.4-2.46,3.05-5.78,4.65-8.75,.15,3.69-.43,7.22-2.2,10.42Zm-96.66-17.99c23.84-36.93,59.48-54.26,101.56-60.84-41.37,7.78-75.34,27.82-101.56,60.84Zm101.45,234.07c-3.02,.06-1.65-5.05-2.23-7.84-.33-1.58,.02-3.34,.26-5,.21-1.5,.51-3.39,2.4-3.39,1.81,0,2.23,1.85,2.58,3.34,.34,1.48,.53,2.99,.76,4.36-.77,3.33-.19,8.45-3.77,8.53Zm55.92-.91c-.2,1.61-1.02,2.89-2.26,3.84-1.57,1.2-3.18,2.4-4.91,3.32-1.75,.93-3.75,3.41-5.58,1.46-1.54-1.64,.28-3.99,1.19-5.86,1.21-2.5,2.74-4.81,5.39-6.01,2.85-1.28,6.15,.5,6.18,3.24Zm-9.88-54.05c.38-1.83,1.41-3.51,3.45-3.6,1.52-.07,1.59,1.51,1.8,2.71-.39,1.9-1.24,3.53-3.43,3.49-1.39-.03-2.11-1.29-1.83-2.6Zm-.45,24.1c1.57-.17,2.31,1.06,2.63,2.31,.03,1.84-.95,2.69-2.44,2.82-1.42,.13-2.27-.78-2.32-2.15-.05-1.46,.59-2.82,2.13-2.99Zm-4.4,21.92c1.77,.75,2.36,2.28,2.45,4.07,.2,3.82-4.62,10.51-8.29,11.22-3.59,.69-2.24-2.27-2.71-3.6,.47-3.98,1.21-7.56,4.04-10.29,1.25-1.2,2.65-2.19,4.51-1.4Zm-8.7-52.83c.13-2.79,2.27-3.94,4.61-4.14,2.19-.19,1.84,1.9,2.07,3.31-.36,2.62-2.08,4.31-4.42,4.52-2.2,.2-2.33-2.08-2.26-3.69Zm-2.27,21.57c.08-3.1,1.59-5.15,4.73-5.78,1.73,.14,3.28,.7,2.92,2.68-.57,3.12-2.91,5.08-5.68,5.95-1.72,.54-2.01-1.52-1.97-2.86Zm-10.34-16.44c.64-2.08,.56-5.2,3.65-4.94,2.81,.23,3.68,2.93,4.03,5.44,.14,1.01-.02,2.18-.41,3.13-1.03,2.54-2.23,5.98-5.26,5.48-2.64-.44-1.67-4.12-2.36-6.04,.13-1.25,.09-2.2,.36-3.06Zm-1.76,45.94c1.48-2.84,3.81-2.94,5.65-.35,2.8,3.95,.76,12.46-3.85,13.89-5.02,1.56-2.79-3.07-3.6-4.74,.15-3.27,.43-6.17,1.8-8.79Zm-9.95,11.83c-.55-5.09-.13-9.36,1.34-13.54,.34-.98,.82-2.19,2.13-2.02,1.39,.18,2.02,1.41,2.11,2.66,.36,4.9-.89,9.18-5.58,12.9Zm5.3,47.17c3.5,3.33,5.7,7.34,6.16,12.24-3.39-3.42-6.04-7.2-6.16-12.24Zm13.88,8.25c-.62,2.25-2.03,3.17-3.83,.8-2.27-2.99-3.5-6.42-4.09-9.91,0-1.41-.16-2.72,1.25-3.35,1.4-.63,2.37,.23,3.19,1.15,2.88,3.23,4.71,6.89,3.48,11.31Zm7.51-1.62c-1.78,.54-2.5-1.83-3.38-3.12-1.57-2.28-2.3-4.93-2.56-7.68-.13-1.43,.25-2.8,1.76-3.35,1.38-.5,2.38,.4,3.06,1.41,1.62,2.41,2.91,4.97,3.02,8.12-.44,1.56-.03,4.06-1.89,4.62Zm8.5-4.4c-2.84,.5-3.01-2.34-3.74-4.24-.11-.28-.12-.59-.19-.89-.51-2.33-1.61-4.77,.57-6.81,.97-.91,2.26-.78,3.41-.12,2.61,1.49,2.88,4.08,3.16,6.77-.05,2.33-.61,4.83-3.2,5.29Zm5.31-6.02c.27-4.67,5.2-8.73,10.32-8.44-.29,4.02-5.4,9.76-8.91,10.03-1.26,.1-1.48-.43-1.41-1.59Zm1.97,43.66c-.84-.6-1.65-1.47-1.15-2.71,.4-.98,1.27-1.19,2.25-1.14,3.64,.16,10.94,6.74,11.99,11.4-5.11-2.01-9.13-4.75-13.09-7.55Zm17.24,.78c-3.27-1.08-6.06-2.92-8.39-5.45-1.33-1.44-1.42-3.14-.34-4.64,1-1.4,2.61-1.39,4.2-1,3.2,.79,6.74,5.43,6.87,9.02,.22,1.81-.42,2.71-2.34,2.08Zm.76-10.12c-2.08-.21-4.41-1.35-4.14-3.52,.48-3.89,4.14-4.43,7.24-5.16,1.18-.28,2.53-.2,2.65,1.58,.12,2.28-3.79,7.3-5.75,7.1Zm20.78,25.29c-2.29-.16-5-.33-5.49-3.11-.35-2,1.88-1.34,2.87-1.75,2.61,.25,5,.95,5.4,3.62,.28,1.83-1.72,1.31-2.78,1.24Zm3.82-6.73c-2.69-.49-5.82-1.08-6.1-4.33-.16-1.87,2.34-1.87,4.03-2.07,2.66,.29,4.63,1.61,4.92,4.39,.19,1.76-1.4,2.28-2.85,2.01Zm24.82,14.21c4.39-1.47,7.44-1.47,10.25,1.13-3.09,.66-6.16,.82-10.25-1.13Zm8.08-3.22c-1.95-.38-5,.47-5.35-2.19-.22-1.69,2.43-1.05,3.74-1.37,1.74,.11,3.79-.15,4.17,2.01,.32,1.84-1.46,1.76-2.56,1.55Zm1.3-9.74c-1.49,.33-3.01,.51-3.99,.67-2.24-.07-3.91-.33-5.31-1.37-1.25-.92-2.02-2.26-.67-3.45,2.72-2.41,6.01-3.73,9.69-3.19,2.16,.32,2.66,2.33,2.91,4.19,.25,1.91-.98,2.79-2.62,3.15Zm164.42-9.71c.59-.81,1.32-.47,1.9,.17,.96,1.05,.24,3.68,3.08,2.99,2.58-.63,1.13-3.13,2.17-4.36,1.53-.14,1.75,1.13,2.44,1.87,1.15,1.24,3.24,1.15,3.61,.13,1.64-4.51,3.06-3.68,4.98-.27,.25,.45,1.87,.75,2.02,.53,3.16-4.41,5.35,.04,7.94,.79-8.59,.27-16.95,1.78-25.21,4-.9,.24-2.32,1.06-2.63-.6-.32-1.72-1.59-3.49-.3-5.28Zm165.39-284.94c2.21,.52,3.6,2.07,4.34,4.03-.05,1.31-.65,1.93-1.76,1.62-2.09-.58-3.3-2.07-3.72-4.15-.16-.79,.21-1.72,1.14-1.5Zm-90.8-28.55c2.14-.85,2.4,.44,1.86,2.11-.6,1.84-2.07,2.98-3.55,4.08-4.27,3.17-9.13,4.83-13.39,5.59-2.5,.21-3.61-.4-4.09-1.94-.5-1.62,.7-2.22,1.82-2.69,5.76-2.42,11.53-4.84,17.35-7.14Zm2.4,14.17c1.57-.67,1.97,.52,1.8,1.65-.17,1.17-.45,2.6-1.23,3.36-4.31,4.17-9.87,5.92-14.59,7.39-2.41,.3-3.12-.71-3.61-1.87-.51-1.23-.52-2.61,.82-3.21,5.57-2.52,11.18-4.93,16.81-7.32Zm-5.19-30.39c.86,1.28,.24,2.68-.76,3.75-4.22,4.52-9.82,5.86-15,6.77-2.47-.05-4.67,.05-4.94-2.33-.27-2.42,2.09-2.15,3.6-2.53,4.75-1.2,9.37-2.71,13.63-5.22,1.04-.61,2.27-2.24,3.48-.44Zm-8.01-19.3c1.1,.62,.84,1.85,.83,2.91-.29,1.86-.81,3.62-2.37,4.82-3.43,2.63-7.19,4.63-11.37,5.81-1.63,.46-3.2,.35-4.01-1.24-.93-1.81,.89-2.33,1.94-3.03,4.19-2.81,8.43-5.55,12.66-8.29,.72-.46,1.33-1.54,2.33-.98Zm-7.03-15.01c1.19,1.21,.73,2.88,.06,4.32-1.37,2.96-8.56,7.11-12.37,7.17-1.31,.1-2.57-.1-2.98-1.53-.37-1.3,.72-1.89,1.66-2.42,3.62-2.02,7.18-4.11,10.42-6.73,.89-.72,2.07-1.97,3.2-.82Zm-15.61,200.82c-.37-2.09-.54-4.22-.75-6.33-.12-1.14-.83-2.56,.72-3.19,1.47-.6,2.6,.36,3.56,1.39,1.56,1.67,1.89,3.75,1.88,6.29-.04,.39,.02,1.2-.24,1.88-.81,2.17-.88,5.74-3.61,5.52-2.18-.18-1.2-3.59-1.56-5.57Zm-22.12-155.35c1.51-.98,2.94-.71,4.27,.26,3.56,2.59,5.36,6.18,5.81,10.04-.05,3.97-1.83,5.18-4.61,3.25-3.32-2.31-5.84-5.42-6.82-9.49-.37-1.55-.2-3.06,1.35-4.06Zm-2.67-47.34c-.31-.97-1.21-2.02,.01-2.85,.95-.64,2.1-.3,3.05,.22,3.03,1.66,4.74,4.2,4.95,7.61-.22,2.33-.75,4.76-3.18,5.07-2.34,.29-2.43-2.26-2.96-3.94-.64-2.03-1.22-4.09-1.87-6.12Zm11.63,127.32c.3-1.78,1.29-3.18,3.21-3.37,1.73-.17,2.83,.99,3.52,2.43,1.2,2.51,1.64,5.2,1.68,8.39-.3,2.56,.16,6.81-3.35,7.19-3.24,.35-3.46-3.92-4.4-6.54-.94-2.63-1.12-5.36-.65-8.1Zm.75,70.38c.41-2.69,1.43-5.4,4.68-5.31,3.39,.1,3.91,2.88,3.97,5.67,.01,.61,0,1.23,0,2.69-.08,2.25-.3,5.36-2.47,7.81-2.04,2.3-3.95,2.36-5.02-.89-1.06-3.23-1.68-6.57-1.16-9.97Zm7.49-139.62c-3.55-3.05-5.61-7.28-8.01-11.13-1.38-2.22,1.53-1.72,2.56-2.11,5.95,.07,10.49,7.14,8.22,12.38-.65,1.51-1.52,1.93-2.77,.85Zm2.61,66.58c1.05-.67,2.12-.18,3.01,.39,3.11,2,4.2,5.08,4.36,8.71-.06,.51-.03,1.15-.22,1.71-.56,1.66-.41,4.26-2.59,4.33-2.07,.06-1.74-2.5-2.24-3.98-.93-2.74-1.67-5.54-2.5-8.31-.29-.98-1.08-2.03,.19-2.84Zm11.58-137.13c1.27,1.24,.9,2.87-.04,4.18-2.75,3.82-6.7,5.56-10.8,6.22-1.64-.03-3.07,.23-3.55-1.25-.54-1.64,.99-2.02,2-2.54,3.26-1.67,6.41-3.49,9.26-5.82,.9-.73,1.95-1.95,3.14-.79Zm-6.81-8.78c-.1,3.67-7.36,9.49-11,8.79-1.47-.29-3.1-1.61-1.9-2.75,3.39-3.22,7.75-5.28,10.81-8.58,2.21,0,2.12,1.37,2.09,2.54Zm-9.07-17.14c1.26,.49,.9,1.76,1.02,2.67-.11,3.57-4.31,8.21-7.8,8.74-1.46,.22-2.74-.02-3.54-1.43-.94-1.66,.17-2.46,1.31-3.35,2.28-1.78,4.5-3.63,6.73-5.47,.68-.56,1.24-1.55,2.28-1.16Zm-12.28-9.27c1.27-.91,2.65-2.8,4.19-.92,1.27,1.55-.13,3.16-1.2,4.4-1.48,1.72-3.13,3.3-5.31,3.57-1.42,.05-2.38-.34-2.86-1.43-.43-.98,.11-1.8,.83-2.38,1.41-1.13,2.88-2.2,4.35-3.25Zm-11.78-9.88c.63-2.69,2.93-4.11,5.02-5.45,1.66,.22,2.4,1.23,2.24,2.56-.35,2.78-1.71,5.03-4.69,5.42-1.4,.18-2.94-.89-2.56-2.52Zm4.22,64.5c-.42,1.59,.2,4.09-1.91,4.63-2.16,.55-2.91-1.85-3.78-3.36-1.22-2.12-2.02-4.45-2.26-6.92-.13-1.3,.13-2.5,1.44-3.08,1.45-.65,2.72-.17,3.69,.98,1.84,2.19,2.49,4.85,2.82,7.74Zm-7.7-79.91c1.58-.49,2.01,.76,2.49,1.67-.14,1.98-1.25,3.02-2.82,3.19-1.39,.15-2.14-1.09-2.27-2.31-.19-1.74,1.34-2.16,2.6-2.55Zm-18.38,12.79c3.72,.27,7.85,4.79,7.77,8.64-.42,1.56-.26,3.78-2.48,4.29-1.9,.44-2.5-1.43-3.23-2.7-1.37-2.38-2.58-4.86-3.92-7.26-1.23-2.21-.58-3.15,1.87-2.97Zm-2.16,11.46c-.09,1.9-.2,3.84-1.99,4.44-1.49,.5-2.25-1.24-3.08-2.24-1.98-2.38-3.13-5.2-3.93-8.15-.35-1.29-.63-2.84,.96-3.62,1.4-.69,2.72-.07,3.76,.88,2.6,2.37,3.56,5.57,4.27,8.69Zm-12.99-55.97c.44-1.04,1.61-.48,2.41-.04,2.56,1.41,4.23,3.44,4.34,6.46-.17,1.59-.29,3.34-2.07,3.75-2.11,.48-2.25-1.53-2.84-2.85-.25-.56-.52-1.12-.62-1.71-.34-1.9-2.07-3.58-1.21-5.59Zm-1.86,8.17c-.21,1.19-.15,3.55-2.17,2.87-3.38-1.13-4.1-4.62-4.87-7.7-.33-1.31,.32-2.39,1.91-2.48,2.52-.15,5.19,3.53,5.13,7.31Zm-7.31-48.99c2.81,3.58,2.63,10.45-.46,13.71-1.04,1.1-2.28,2.45-3.88,2.03-1.77-.46-1.63-2.41-1.87-3.87-.2-1.2-.17-2.44-.21-3.23,.13-3.2,.17-6.01,1.7-8.44,1.4-2.22,3.02-2.37,4.72-.2Zm198.92-102.85c-1.51,1.21-3.12,2.07-5.04,1.13-1.92-.95-2.45-2.85-2.13-4.69,.77-4.44,1.83-8.83,2.9-13.82,2.2,2.46,4.16,4.37,5.78,6.54,2.92,3.92,2.28,7.78-1.51,10.84Zm-96.6,3.3c.95-1.54,1.75-3.16,2.85-5.18,10.07,13.07,23.76,10.64,37.1,8.75,11.29-1.6,22.08-5.12,32.22-10.44,7.36-3.87,13.45-9.05,17-16.81,.68-1.49,1.13-2.85,3.66-1.89,15.97,6.09,27.91,.23,32.84-15.84,.17-.56,.52-1.07,.92-1.9,2.74,2.26,4.17,5.42,7.88,7.76-3.95,0-5.08-2.46-6.84-3.93-7.95,17.01-23.64,23.63-36.92,15.52-1.97,7.42-6.83,12.62-13.25,16.23-16.29,9.16-33.72,14.57-52.55,14.69-7.52,.05-14.69-1.46-20.41-6.85-1.75-1.65-2.31-.82-3.29,.73-1.1,1.74-2.29,3.54-5.14,4.98,1.72-2.53,2.89-4.14,3.93-5.83Zm-34.86-145.57c3.54,5.55,2.36,22.02-1.87,28.52,1.59-9.43,1.41-18.96,1.87-28.52Zm-6.54-16.84c1.72,.18,2.68,1.25,2.78,3.01-.08,1.43-.81,2.38-2.24,2.34-1.97-.06-3.06-1.33-3-3.25,.05-1.36,1.02-2.25,2.45-2.1Zm-1.26,21.86c1.56,.06,2.76,.86,2.68,2.49-.1,1.9-1.34,2.98-3.38,3.14-1.47-.33-3.1-.77-2.83-2.77,.25-1.86,1.57-2.93,3.53-2.86Zm-.03-8.89c1.44,0,2.17,.87,2.44,2.2,.02,1.19-.4,2.1-1.7,2.26-1.76,.21-2.5-.93-2.63-2.41-.1-1.19,.58-2.04,1.89-2.05Zm-2.43-21.43c1.83,.35,2.94,1.43,3.03,3.36,.06,1.33-.43,2.58-1.96,2.49-1.91-.11-2.97-1.39-3.08-3.29-.08-1.34,.45-2.36,2.02-2.56Zm.2,40.65c2.22,.63,5.29,.52,5.42,4.11,.06,1.71-1.37,2.44-2.87,2.12-2.51-.54-5.33-1.07-5.67-4.34-.22-2.07,1.54-1.83,3.12-1.89Zm20.49,80.61c-1.56-1.97-2.37-3.07-3.25-4.1-9.05-10.61-23.97-9-30.5,3.45-3.92,7.48-4.7,15.45-2.53,23.68,2.1,7.98,7.73,11.83,15.42,13.23,7.64,1.39,13.41-1.69,17.96-7.65,2.55-3.34,3.72-7.33,5.42-11.48,.49,18.53-16.02,31.76-35.1,34.8-23.73,3.78-44.88-10.91-48.96-33.84-4.25-23.9,9.22-43.87,34.05-48.3,26.66-4.76,40.7,5.78,47.48,30.22Zm-20.81,13.98c1.59,5.14,5,8.35,11.4,8.74-3.54,4.38-7.04,3.51-10.33,1.55-5.8-3.46-6.55-9.29-6.33-15.31,.23-6.2,3.37-10.71,8.71-13.71,1.28-.72,2.78-.67,3.76,.61,1.12,1.47,.09,2.56-.97,3.53-.56,.52-1.17,1-1.75,1.5-4.03,3.49-6.15,7.72-4.49,13.07Zm-27.48-107.63c1.49,.41,2.7,1.23,2.53,3.06-.12,1.34-1,2.33-2.37,2.22-1.73-.13-2.71-1.37-2.63-3.06,.06-1.29,.89-2.2,2.46-2.22Zm-6.53-6.55c1.65,.09,2.25,1.24,2.52,2.68-.23,1.3-.8,2.34-2.28,2.29-1.72-.06-2.18-1.42-2.35-2.79-.19-1.49,.63-2.25,2.11-2.18Zm-.24,12.23c1.66,.06,2.23,1.24,2.41,2.7-.12,1.23-.75,1.93-2.02,1.88-1.66-.07-2.4-1.19-2.41-2.64-.01-1.15,.79-1.98,2.03-1.94Zm-2.61,8.46c1.72,.05,2.84,1.01,2.97,2.82,.14,1.99-1.06,2.67-2.82,2.74-1.92-.1-3.33-.93-3.29-2.98,.03-1.87,1.45-2.62,3.13-2.57Zm10.43,13.45c-11.93,1.54-23.85,3.08-35.78,4.62-.05-.41-.11-.82-.17-1.22,11.51-4.84,23.67-4.94,35.95-3.39Zm-38.52,131.9c.94,.04,1.73,.36,2.07,1.36-1.3,1.74-2.78,3.08-4.88,3.3-1.25,.13-1.42-.93-1.26-1.9,.39-2.31,2.05-2.84,4.07-2.75Zm-14.45-126.37c3.14-.06,4.52,2.08,4.76,5.18-.41,2.96-2.01,5.19-5.18,5.28-3.3,.1-5.09-2.01-4.9-5.28,.19-3.17,2.18-5.12,5.32-5.18Zm-3.42,116.92c2.99,.03,4.16,2.07,4.56,4.86-.64,2.56-2.25,4.39-5.01,4.3-2.79-.09-4.5-1.86-4.35-4.79,.15-2.91,1.97-4.4,4.79-4.37Zm-6.05,20.42c.4-2.42,2.38-3.39,4.68-3.59,1.17-.1,2.04,.4,2.3,1.56-.81,2.34-2.58,3.16-4.61,3.47-1.06,.16-2.58-.13-2.37-1.44Zm-11.29-146.02c1.64,.13,3.28,.54,3.11,2.49-.22,2.38-1.84,3.73-4.26,3.83-1.49,.06-2.81-.51-2.82-2.22-.02-2.59,1.78-3.6,3.98-4.11Zm-4.09,20.16c.21-3.84,3.11-6.3,7.14-6.08,4.13,.23,7.2,3.49,7.09,7.52-.1,3.62-3.13,6.35-7.06,6.35-4.28,0-7.42-3.41-7.18-7.8Zm13.25,118.72c-.33,2.6-1.96,3.87-4.37,3.81-2.18-.06-3.25-1.64-3.15-3.76,.1-2.31,1.49-3.77,3.78-3.81,2.33-.03,3.59,1.41,3.74,3.75Zm-29.62-137.28c.65-2.89,2.98-4.47,5.87-4.93,1.55-.24,2.64,.5,2.7,2.46-.76,2.71-2.49,4.68-5.56,4.95-1.58,.14-3.43-.61-3-2.49Zm4.28,12.03c-3.98,2.16-7.96,4.4-12.82,4.06,3.21-3.55,7.46-5.19,11.6-7,.81-.36,1.91-.46,2.33,.66,.38,1.01-.29,1.85-1.11,2.29Zm-9.78-24.4c1.39-.71,2.8-.94,3.09,1.06,.31,2.16-5.43,7.68-7.7,7.61-.93-.06-1.88-.15-2.41-1.03-.61-1.01,.08-1.73,.71-2.38,1.93-1.96,3.82-3.98,6.31-5.25Zm-10.71-23.79c1.73-.21,2.39,.98,2.62,2.51-.08,2.08-1.45,2.91-3.27,3.09-1.64,.16-3.39-.3-3.19-2.25,.2-1.95,1.87-3.1,3.84-3.34Zm-3.51,15.66c2.11-1.75,4.89-2.42,7.54-5.47,.4,5.73-2.05,7.83-5.68,8.99-1.05,.34-2.2,.36-2.84-.79-.67-1.21,.19-2.07,.99-2.73Zm-15.48-48.11c.8,3.66,.13,6.58-.09,9.44-.2,2.57,.13,4.21,3.31,3.84,1.54-.18,3.83-.69,3.73,1.97-.09,2.36-1.74,3.51-4.13,3.23-1.29-.15-3.01-1.95-3.05,1.21-.03,2.34,.75,3.3,3.25,3.09,1.51-.13,3.87-.58,4.22,1.59,.28,1.77-.86,3.52-2.65,4.46-1.4,.74-2.61-.5-4.4-.45,.15,1.79,.18,3.17,.39,4.52,.3,1.89,1.21,2.82,3.16,1.67,1.61-.94,3.25-2.07,4.98-.35,1,.99,.76,2.28,.37,3.47-.7,2.14-2.15,3.27-4.48,3.2-.73-.02-1.46,.11-2.14,.17-.22,3.29,2.01,4.2,4.22,5.44,1.59,.88,4.64,1.42,3.95,3.76-.74,2.51-3.44,.77-6.02,.89,1.02,2.67,1.98,5.14,2.92,7.62,.53,1.4,1.64,1.87,2.95,1.5,2.85-.8,5.61-.92,5.78,2.82,.19,4.17-3.39,2.05-5.35,2.45,0,.32-.06,.5,0,.62,5.43,10.15,3.25,8.29,13.69,5.03,1.15-.36,2.46-2.23,3.55-.47,.72,1.16-.31,2.63-1.09,3.79-2.01,3-3.73,3.7-8.61,3.55-.23,2.09,2.38,3.19,1.91,5.39-17.94-8.3-31.42-61.86-20.4-83.46Zm13.8,98.25c.42-2.8,2.76-3.9,5.47-3.82,2.07,.06,4.56,.58,4.38,3.01-.24,3.13-3.15,3.73-5.83,4.13-1.98-.37-4.42-.63-4.02-3.32Zm-26.46,112.69c.53-3.21,3.96-5.11,7.49-3.96,4.13,1.35,7.58,3.75,10.04,7.54-4.08,2.28-8.2,3.12-12.56,2.25-3.12-.62-5.59-2.02-4.97-5.83Zm-2.66-29.39c-1.8,.3-2.89-.82-2.95-2.62-.07-1.96,1.07-3.21,2.95-3.39,1.83-.17,3.12,.84,3.75,2.43-.27,2.45-1.94,3.27-3.76,3.58Zm12.05,17.52c-3.06-.41-5.89-.71-7.13-3.75-.91-2.23-.17-4.21,1.46-5.84,2.2-2.19,4.8-2.56,7.58-1.3,3.37,1.53,6.35,3.63,8.78,6.45,1.31,1.51,1.48,2.59-1.04,2.91-3.32,.42-6.62,1.05-9.66,1.54Zm1.85-19.07c-2.22-.24-5.06-.37-4.9-3.5,.17-3.14,2.36-5.03,5.55-4.82,4.49,.29,7.89,2.65,10.84,6.88-4.28,.72-7.81,1.85-11.49,1.45Zm8.18-17.48c-2.47-.42-5.47-.01-5.51-3.21-.05-3.21,1.94-5.39,5.29-5.95,.44-.07,.94-.03,1.36,.11,3.22,1.06,7.91,2.51,7.43,5.6-.43,2.77-5.56,2.76-8.57,3.45Zm7.3-17.36c-1.45,0-1.76,.02-2.06,0-2.32-.2-4.75-.39-6.04-2.66-.87-1.53,.04-3.01,1.09-4.18,1.86-2.08,4.2-3.29,6.99-2.31,3.2,1.12,7.89,2.81,7.53,5.77-.39,3.25-5.31,3.12-7.5,3.38Zm5.4-15.64c-4.6-.38-6.68-2.94-5.75-6.42,.9-3.39,4.09-4.79,8.18-3.28,4.26,1.58,7.44,4.48,9.99,9.76-4.81,0-8.64,.25-12.42-.06Zm-5.72-23.34c2.35,.2,4.18,1.25,4.12,3.96-.05,2.42-3.43,4.75-6.51,4.64-2.25,.07-3.47-1.06-3.53-3.27-.07-2.5,3.28-5.56,5.92-5.33Zm-4.62,18.22c-.33,2.77-2.55,3.57-4.98,3.79-2.16-.35-4.29-1.06-3.83-3.63,.47-2.65,2.52-4.3,5.29-4.15,2.24,.12,3.81,1.64,3.52,3.99Zm-11.8-11.79c.26-1.92,1.42-3.02,3.43-2.97,1.62,.04,2.48,.96,2.68,2.42-.48,2.24-1.86,3.32-3.92,3.34-1.76,.02-2.41-1.22-2.19-2.79Zm.84,36.89c.09,2.39-3.75,5.72-7.62,5.55-.94-.06-1.68-1.41-1.44-3.34,.41-3.35,2.35-5.28,5.77-5.29,1.86,0,3.22,1.02,3.3,3.07Zm-1.63-15.41c-.05,3.33-2.74,6.48-5.51,6.23-3.51-.32-3.86-2.97-3.83-5.73,.03-3.3,1.75-5.26,5.04-5.3,3.02-.03,4.33,1.89,4.3,4.8Zm-10.36-17.84c.34-2.03,1.95-2.88,3.78-3.28,1.33,.12,1.97,.92,1.88,2.1-.17,2.1-1.5,3.23-3.53,3.39-1.48,.12-2.36-.8-2.13-2.21Zm4.11,45.35c1.83-.13,3.58,.66,3.46,2.78-.17,2.97-2.68,3.34-4.8,3.74-1.99-.05-4.13-.51-3.99-2.45,.2-2.84,2.75-3.88,5.33-4.07Zm-7.67-35.94c1.46-.31,2.31,.43,2.7,1.87-.31,1.97-1.74,2.73-3.5,3.01-1.27,.2-2.12-.37-2.05-1.76,.09-1.78,1.21-2.76,2.85-3.12Zm-.64,14.9c-.35,2.21-1.73,3.46-3.91,3.68-1.79,.18-2.95-.77-2.92-2.63,.03-2.25,1.22-3.82,3.5-4.01,1.88-.16,3.15,.86,3.33,2.96Zm-4.8,60.93c2.02-.02,3.95,.64,4.19,3.37-.89,2.8-2.85,4.54-5.88,4.7-2.32,.12-3.92-1.22-3.69-3.59,.3-3.02,2.53-4.45,5.38-4.48Zm-2.91-12.81c.03-2.32,1.53-3.67,3.85-3.58,1.95,.08,2.96,1.36,2.96,3.45-.21,2.12-1.66,3.17-3.65,3.28-2,.1-3.18-1.27-3.16-3.15Zm.05-66.91c1.65-.1,2.43,1.02,2.73,2.52-.26,1.59-1.21,2.55-2.75,2.64-1.48,.09-2.29-.95-2.33-2.3-.05-1.51,.68-2.76,2.34-2.86Zm1.22,26.02c2.84,.15,5.17,1.68,5.16,4.71-.02,3.43-2.57,4.85-5.6,5.33-3.02-.42-5.13-1.82-5.13-4.9,0-3.48,2.14-5.32,5.57-5.14Zm-3.31,14.63c2.57,.11,4.28,1.47,4.59,4.27-.95,2.93-2.89,4.8-6.04,4.61-2.52-.16-4.6-1.74-4.42-4.39,.22-3.32,2.77-4.62,5.87-4.49Zm-6.27,29.62c-2.95-.35-4.78-1.82-4.67-4.76,.11-2.81,1.75-4.7,4.67-4.6,2.66,.09,4.87,1.39,4.91,4.42,.05,3.22-2.23,4.42-4.91,4.95Zm.89,11.05c-.39,1.9-1.43,3.44-3.58,3.54-1.62,.07-2.68-.83-2.29-2.56,.44-1.94,1.67-3.2,3.79-3.35,1.41,.17,2.38,.87,2.08,2.37Zm-1.5-63.19c-2.25,.07-2.63-1.92-2.6-3.62,.04-1.9,.7-3.92,2.89-4.12,2.09-.19,2.73,1.58,2.88,3.4-.27,2.05-.57,4.26-3.18,4.33Zm.23-30.28c1.76,.1,2.27,1.11,2.17,2.74-.21,3.18-3.2,6.89-6,6.83-1.77-.08-2.42-1.41-2.37-3.33,.08-2.88,3.56-6.39,6.2-6.24Zm-9.34,72.87c-.66,1.74-1.19,4.02-3.63,3.9-1.85-.09-2.26-1.96-1.93-3.54,.44-2.15,1.39-4.43,3.96-4.24,1.92,.15,1.62,2.22,1.6,3.87Zm-.2-16.76c-.34,2.3-1.56,4.08-4.06,4.1-1.59,.02-1.79-1.47-1.55-2.72,.41-2.06,1.43-3.65,3.63-3.96,1.71,.18,2.17,1.27,1.98,2.58Zm-6.68-10.89c.03-1.41,.93-2.16,2.32-2.3,1.57,.29,2.45,1.19,2.36,2.81-.07,1.31-.58,2.47-2.09,2.49-1.93,.02-2.63-1.3-2.6-3.01Zm-21.34-48.8c3.06,.02,4.68,1.87,5.22,4.68,.36,1.86-.72,2.8-2.72,2.98-2.59-.53-4.62-1.95-5.15-4.81-.34-1.86,.84-2.87,2.64-2.86Zm-9.12-14.7c2.55-.16,5.73,3.47,5.5,6.34-.19,2.4-1.39,4.28-4.05,4.01-3.42-.35-4.93-2.73-5.22-6,.14-2.43,1.12-4.18,3.77-4.35Zm-18.47-22.73c3.31,.07,3.67,3.01,4.27,5.27,.04,2.09-.47,3.84-2.62,3.64-2.78-.25-4.13-2.32-4.38-4.97-.18-1.98,.5-3.99,2.73-3.94Zm-.19,12.52c2.96,.65,4.23,2.47,4.29,5.23,.05,2.03-.98,3.29-2.99,3.18-2.89-.17-4.23-2.19-4.47-4.85-.2-2.22,1.25-3.23,3.16-3.56Zm-6.97-24.59c1.43,.87,2.43,2.15,2.79,3.83,.22,1-.19,1.94-1.35,1.8-2.04-.24-2.6-1.86-2.73-3.61-.06-.86-.08-1.87,1.29-2.03Zm-19.16-10.36c1.73-.1,2.16,1.25,2.48,2.52-.31,1.45-.56,3.1-2.17,3.12-1.68,.02-1.92-1.65-2.02-3-.09-1.23,.11-2.55,1.7-2.64Zm-2.04,17.12c.04-1.48,.55-2.66,2.22-2.93,1.92,.5,2.12,2.07,2.05,3.59-.07,1.47-.25,3.5-2.22,3.3-2.07-.21-2.09-2.26-2.05-3.96Zm2.37,17.65c-.03-1.58,.52-3.3,2.54-3.06,2.23,.25,2.69,2.16,2.9,4.07-.1,1.66-.7,3.38-2.44,3.35-2.56-.05-2.96-2.34-3-4.36Zm7.24,20.25c-2.47-.57-2.74-3.03-2.78-5.19-.03-1.47,.53-2.7,2.44-2.72,2.25,.76,3.3,2.59,3.4,4.82,.08,1.89-1.16,3.52-3.06,3.09Zm-.16-35.14c-.08-1.62,.57-3.01,2.64-3.04,2.77,.98,4.05,3.04,4,5.92-.03,1.57-.86,2.71-2.59,2.42-2.91-.49-3.92-2.69-4.05-5.29Zm8.27,47.96c-2.12-.64-3.22-2.13-3.17-4.34,.02-1.28,.63-2.62,2.13-2.32,2.34,.47,3.55,2.25,3.55,4.59,0,1.38-1.03,2.09-2.51,2.07Zm-.47-23.31c-2.74-.45-3.56-2.63-3.62-5.12-.04-1.91,.75-3.24,2.9-3.4,2.8,.82,3.7,3.04,3.87,5.59,.14,2.08-1.16,3.26-3.16,2.93Zm3.34,9.61c-.05-1.82,.84-3.23,3.14-3.28,2.38,.83,4.16,2.34,3.98,5.23-.12,1.89-1.18,3.29-3.24,2.97-2.66-.41-3.81-2.44-3.89-4.92Zm6.28,24.3c-2.18-.3-3.38-2.16-3.31-4.27,.06-1.8,1.26-3.22,3.31-2.89,1.94,.31,3.28,1.48,3.4,3.63-.51,1.83-1.09,3.86-3.41,3.53Zm13.6,10.1c.15,1.41,1.36,2.92-.18,4.2-.9,.75-1.98,.64-2.95,0-1.15-.78-2.37-1.69-1.76-3.27,.78-2.03,2.62-1.61,4.27-1.45-.09-.44-.14-.9-.26-1.33-.51-1.73-1.32-3.57,.46-4.98,.74-.59,1.48,.29,1.61,.98,.38,2.07,2.62,4.61-1.19,5.85Zm-2.85-17.43c-3.77-.09-7.77-4.23-7.61-7.89,.14-3.2,1.72-5.16,4.38-5.19,4.51,.17,8.92,4.63,8.74,8.26-.17,3.4-2.27,4.89-5.5,4.81Zm6.98,4.5c-.01-2.62,1.72-4.07,4.48-4.42,2.97,.66,5.3,2.13,5.31,5.65,0,2.7-1.56,4.4-4.26,4.23-3.23-.2-5.51-2.01-5.53-5.46Zm12.37,22.59c-.38,1.65-1.28,3.19-3.29,3.35-2.06,.17-3.42-1.06-4.55-2.58-.45-.6-.92-1.72,.04-1.87,5.25-.79,3.47-5.25,4.66-9.22,2.58,3.61,3.98,6.67,3.14,10.31Zm1.04-16.56c-.02-2.7,1.18-4.4,3.99-4.55,2.92-.15,5.82,2.93,5.69,5.98-.12,2.74-1.7,4.22-4.35,4.33-2.85,.12-5.3-2.65-5.33-5.76Zm7.42,24.6c-1.65-.08-2.58-1.12-2.52-2.67,.07-1.67,1.38-2.32,2.89-2.29,1.45,.03,2.07,1.05,2.33,2.22-.36,1.6-.95,2.82-2.7,2.73Zm3.35-38.2c0-3.01,1.29-5.66,4.66-5.78,3.36-.12,4.72,2.31,5.01,5.57-.3,3.08-1.69,5.71-5.12,5.88-3.59,.17-4.55-2.72-4.54-5.66Zm9.5,13.56c3.46-.03,4.95,2.55,5.55,5.49-.1,3.11-1.73,4.74-4.49,5.1-2.6,.34-5.59-2.76-5.47-5.65,.11-2.79,1.6-4.92,4.42-4.94Zm-4.31,18.97c.04-1.28,1.06-1.78,2.21-1.82,1.55-.06,2.8,.72,2.97,2.23,.18,1.59-1.31,1.77-2.35,2.06-1.63-.21-2.9-.72-2.84-2.47Zm2.59,50.88c.13-2.14,1.03-3.92,3.57-3.79,2.5,.13,3.84,1.56,3.81,4.47-.23,2.04-1.29,3.87-3.89,3.74-2.56-.13-3.64-2-3.49-4.42Zm8.54,32.01c-2.94-.33-3.43-3.24-3.61-5.66-.16-2.25,.64-4.68,3.39-4.42,3.07,.28,3.27,3.14,3.63,5.59-.34,2.14-.57,4.8-3.41,4.48Zm3.31,8.44c-.11-2.26,.85-3.82,3.31-4.24,2.38,.12,3.42,1.66,3.59,3.86,.19,2.38-1.13,3.75-3.41,4.05-2.72,.36-3.4-1.5-3.5-3.67Zm7.25,15.18c-2.01-.41-2.87-1.7-2.83-3.56,.05-1.93,1.07-3.21,3.07-3.09,2,.12,2.81,1.5,2.73,3.42-.08,1.95-1.1,3.02-2.97,3.22Zm1.59-29.18c.65-3.22,2.44-5.49,6.01-5.71,3.04-.19,5.52,2.71,5.48,6.1-.04,3.35-2.67,6.12-5.76,5.78-3.5-.38-5.48-2.42-5.73-6.17Zm8.77,36.71c-2.4-.27-3.54-2.17-3.58-4.52-.03-1.85,.86-3.15,2.81-3.45,2.47,.5,3.68,2.1,3.82,4.44,.12,2.06-.77,3.79-3.05,3.53Zm5.51-19.67c-.19,2.01-1.45,3.42-3.46,3.6-2.02,.18-2.54-1.36-2.36-3.03,.21-1.92,1.06-3.44,3.06-3.76,1.92,.38,2.92,1.45,2.75,3.19Zm-.66-11.58c.32-3.13,3.49-5.37,7.19-4.66,4.84,.94,9.31,2.89,13.83,6.34-5.08,2.28-9.73,3.74-14.67,3.88-4.1,.12-6.68-2.31-6.34-5.56Zm13.65,20.3c.06,2.14-1.56,2.68-2.94,3.02-1.88-.03-3.15-.6-3.09-2.3,.07-1.93,1.4-3.04,3.27-3.11,1.48-.06,2.71,.75,2.76,2.39Zm-6.08,26.6c-3.01,0-4.85-1.91-4.91-4.91-.07-3.42,2.21-4.74,5.46-4.98,2.89,.37,4.69,2,4.52,5.09-.16,3.03-2.13,4.8-5.08,4.8Zm3.41-15.8c-1.63-3.04,.8-4.79,3.01-6.23,3.4-2.22,7.93-1.59,13.91,2.07-3.76,2.09-6.87,3.96-10.11,5.58-2.54,1.27-5.31,1.37-6.81-1.42Zm8.84,31.26c-1.44-.05-2.72-.67-3.06-2.13-.31-1.35,.8-1.88,1.92-1.83,1.46,.06,2.49,.88,2.87,2.4-.02,1.1-.73,1.6-1.72,1.56Zm-.83-13.68c.09-3.57,2.53-4.96,5.63-5.4,2.08-.29,3.51,.65,3.87,3.06-.55,3.21-2.94,4.66-5.91,5.25-2.12,.42-3.65-.56-3.59-2.91Zm8.81,23.63c-1.79-.56-4.18-.62-4-3.31,.1-1.46,1.65-1.63,2.87-1.42,1.97,.33,4.16,.91,4.27,3.25,.09,1.93-1.82,1.46-3.14,1.49Zm3-9.86c-.18-1.73,1.29-2.33,2.76-2.24,1.59,.1,3.07,.77,3.16,2.63,.08,1.63-1.26,1.83-2.47,1.95-1.72-.02-3.26-.56-3.45-2.34Zm11.52,14.09c-2.07,1.17-4.22,1.95-6.44,.51-1.15-.75-1.39-2.03-.86-3.26,1.1-2.53,3.25-3.48,6.01-3.59,2.01,.16,4.88,.13,5.48,2.17,.6,2.02-2.42,2.65-3.81,3.94-.11,.1-.26,.16-.39,.24Zm5.15,17.24c-2.86-.5-4.29-2.74-4.7-5.43-.25-1.62,1-2.67,2.55-2.39,2.82,.52,3.47,3,4.19,4.81-.08,1.87-.65,3.24-2.04,3Zm9.09-210.44c-.64,3.33-6.74,2.37-10.1,3.39-2.93-.45-5.7-.56-6.92-3.39-.84-1.95-.43-3.87,1.05-5.51,2.12-2.36,4.74-2.75,7.5-1.63,3.69,1.51,9.09,3.91,8.47,7.14Zm.3,223.95c-.13-.66,.45-1.3,1.09-1,2.48,1.14,2.92,3.54,4.11,6.45-3.81-.82-4.73-2.99-5.2-5.45Zm3.2-230.48c-3.71-.2-6.39-3.06-6.16-6.58,.23-3.53,3.34-6.42,6.69-6.2,3.76,.25,6.87,3.38,6.76,6.78-.12,3.58-3.32,6.21-7.28,5.99Zm8.56,99.88c5.91,11.93,16.54,14.08,28.27,14.22-14.58,3.96-26.63-1.98-28.27-14.22Zm28.22-9.88c.21-2.95,1.25-5.53,4.84-5.46,2.95,.06,4.56,1.86,4.37,4.74-.21,3.26-2.32,4.79-5.52,4.86-2.83,.03-3.87-1.69-3.7-4.14Zm1.63,93.86c.02-2.29,.76-4.48,3.21-4.94,2.29-.43,3.5,1.48,4.42,3.31,.84,1.66,1.13,3.47,1.16,6.01-.17,.68-.35,2.06-.88,3.3-.54,1.27-1.45,2.47-3.01,2.47-1.43,0-2-1.3-2.57-2.34-1.32-2.43-2.35-4.99-2.33-7.81Zm-229.38,179.9c1.2-2.41,2.48-4.78,4.11-7.89,.33,3.73-.41,6.42-1.67,8.97-.44,.88-1.15,2.11-2.41,1.38-.97-.56-.42-1.67-.03-2.46Zm-3.79,30.9c.29-2.45,.91-4.97,3.62-5.72,1.45-.4,1.9,1.1,2.01,2.6-.29,2.41-1.42,4.53-4.02,5.26-1.35,.38-1.74-1.08-1.61-2.14Zm6.06,28.16c-1.44-.28-3.91,.72-3.97-1.71-.04-1.66,2.19-1.1,3.08-1.63,1.75,0,3.26,.23,3.45,1.93,.23,2.03-1.54,1.6-2.56,1.41Zm-3.1-47.29c7.59-10.02,16.96-18.02,27.88-24.26-9.73,7.6-19.49,15.15-27.88,24.26Zm20.92,77.65c-.19-3.92,3.34-1.36,4.83-2.69,.82-.74,1.67,1.3,1.62,2.53-.08,2.14-1.41,2.43-3.21,1.91-1.42,.1-3.11,.78-3.24-1.76Zm3.99,28.32c-1.7,.19-2.57-.83-2.35-2.49,.28-2.09,1.23-3.85,3.61-3.93,1.6-.06,2.9,.71,3.2,2.57-.62,2.29-2.16,3.59-4.46,3.85Zm6.66-7.94c-2.05,.1-3.14-.93-3.29-2.92-.19-2.34,4.1-6.66,6.57-6.59,2.81,.08,4.06,1.92,4.37,4.38,.28,2.17-4.26,5.11-7.65,5.12Zm6.96-14.29c-1.03,.32-2.02-.41-1.71-1.44,.74-2.42,2.68-3.57,5.13-3.8,.92-.09,1.82,.15,1.99,1.45-1.27,2.01-3.22,3.13-5.42,3.8Zm16.47,4.53c-1.72-.28-3.26-1.04-3.34-3.05-.04-1.1,.99-1.5,1.92-1.43,1.76,.13,3.1,.94,3.63,2.49-.18,1.61-1.02,2.19-2.21,1.99Zm7.38-6.87c-.74-.06-1.58-.16-1.71-1.11-.11-.86,.53-1.33,1.16-1.77,2.79-1.96,5.82-.7,7.79,3.43-2.49-.18-4.87-.34-7.24-.54Zm13.29-55.15c-6.35,5.54-13.22,10.45-18.97,16.7-8.58,9.33-13.22,20.92-18.89,31.95-1.23,2.39-1.93,5.43-5.18,6.36-.17-.54-.41-.92-.31-1.07,7.5-11.39,11.87-24.57,20.52-35.32,5.16-6.4,11.22-11.72,17.85-16.47,4.4-3.16,4.44-3.11,5.38-7.38,1.93,3.12,1.97,3.17-.39,5.23Zm-18.7-58.95c-.08-1.81,1.04-2.79,2.78-2.89,1.32-.07,2.31,.56,2.68,1.98-.34,1.75-1.66,2.4-3.22,2.58-1.16,.14-2.19-.39-2.24-1.67Zm56.15,100.75c-9.14,13.19-16.67,27.1-20.15,42.97-.63,2.86-1.66,5.78-4.57,7.62,3.09-11.61,3.23-24.07,10.71-34.24,1.78-2.43,3.72-4.75,3.58-8.15-.1-2.45,1.19-3,3.12-1.3,1.78-2.09,3.6-4.13,5.31-6.28,.82-1.04,1.4-2.26,2.13-3.47,1.56,1.29,.35,2.14-.14,2.84Zm-20.26-52.14c.99-2.24,1.44-5.09,4.47-5.72,.85-.18,1.37,.46,1.4,1.67-1.99,1.3-1.08,4.99-4.23,5.68-1.01,.22-2.01-.8-1.64-1.63Zm-13.47-76.34c-20.17-6.64-40.47-12.38-61.89-12.93-.72-.02-1.43-.19-2.15-.29,17.2-1.56,33.99,.91,50.53,5.19,13.06,3.38,26.36,6.52,37.44,14.74,19.03,14.1,31.5,32.05,29.15,56.92-1.22,12.98,2.64,23.82,10.13,33.84,4.59,6.14,9.43,12.09,14.68,17.69,7.96,8.47,17.77,12.82,29.3,13.59,4.69,.31,9.36,.87,14.02,1.54-7.37,.64-14.74,.41-22.01-.69-6.63-1-12.67-3.73-17.61-8.39-9.19-8.66-17.23-18.31-23.94-29.01-3.48-5.55-5.59-11.64-5.28-18.29,1.58-33.58-22.11-63.93-52.39-73.9Zm76.5,224.73c-5.17,.03-8.99-4.45-9.11-10.68-.09-4.73,2.73-8.46,6.52-8.6,4.91-.18,10.5,5.6,10.57,10.93,.06,4.62-3.48,8.33-7.98,8.35Zm16.25,6.38c5.89,.03,10.72,5.37,10.48,11.58-.22,5.68-4.83,10.07-10.46,9.97-5.7-.11-10.35-5.24-10.24-11.32,.1-5.7,4.65-10.25,10.22-10.23Zm-4.14,34.17c5.26,.13,9.85,4.98,9.75,10.28-.1,5.18-4.79,9.56-9.99,9.33-5.12-.23-9.28-4.89-9.13-10.24,.14-5.32,4.32-9.49,9.37-9.36Zm18.59,18.32c6.2,.06,11.04,4.67,11.04,10.51,0,5.06-4.66,9.7-9.71,9.66-5.84-.05-11.39-5.42-11.39-11.02,0-4.9,4.73-9.19,10.07-9.14Zm1.93-21.36c.09-4.46,3.85-8.12,8.3-8.09,3.94,.03,7.27,3.38,7.32,7.34,.05,4.6-3.95,9.05-8.1,9.01-4.2-.05-7.61-3.79-7.52-8.25Zm5.45,48.21c5.06-.05,9.45,4.57,9.44,9.93,0,5.32-4.33,9.95-9.4,10.07-5.17,.12-9.84-4.76-9.76-10.2,.08-5.22,4.58-9.75,9.71-9.8Zm9.06,39.86c2.22-.04,3.35,1.75,3.77,3.88-.29,2.5-1.45,4.5-4.07,4.7-2.4,.18-3.56-1.75-3.55-3.84,0-2.4,1.08-4.68,3.85-4.73Zm2.45-58.47c-2.53,.04-2.52-2.14-2.87-3.65,.86-3.03,1.62-5.88,5.27-5.57,2.34,.2,3.47,1.84,3.13,4.19-.46,3.13-2.38,4.98-5.53,5.03Zm10.34,9c3.85,.04,6.79,3.6,6.53,7.93-.24,4.14-3.63,7.65-7.27,7.53-3.6-.12-6.32-3.53-6.2-7.76,.13-4.4,3.12-7.72,6.93-7.69Zm-5.71-51.86c-5.2,.02-9.73-4.49-9.67-9.6,.06-4.86,5-9.45,10.05-9.34,4.87,.1,8.81,4.31,8.74,9.32-.08,5.24-4.21,9.6-9.12,9.62Zm5.18-27.85c-3.19-.06-4.23-2.16-4.21-4.87,.03-3.7,4.22-8.22,7.48-8.16,3.36,.06,4.36,2.27,4.39,5.22-.11,3.83-4.07,7.87-7.65,7.8Zm-3.18-20.37c-5.97-.41-10.42-5.57-9.96-11.56,.44-5.66,5.54-9.95,11.39-9.58,5.91,.37,10.34,4.9,10.11,10.35-.24,5.86-5.93,11.18-11.54,10.8Zm-8.32,17.78c-.23,5.38-5,9.91-10.21,9.69-5.56-.24-10.52-5.55-10.23-10.94,.28-5.14,4.88-9.09,10.35-8.9,6.05,.22,10.33,4.52,10.09,10.16Zm-25.43-15.66c-5.07-.14-9.81-5.84-9.58-11.54,.18-4.64,3.44-8.08,7.66-8.1,5.32-.02,10.56,5.34,10.47,10.71-.08,4.96-4,9.05-8.55,8.93Zm-40.31,52.81c-1.98-2.99-2.55-6.25-.96-9.61,.75-1.59,2-2.68,3.85-2.95,4.12-.6,11.78,5.71,11.88,9.81,.08,3.3-2.74,6.53-6.15,6.94-3.74,.44-6.6-1.15-8.61-4.19Zm5.2,33.83c.07-3.45,1.24-6.06,5.17-6.19,3.62-.12,6.66,3.83,6.67,8.44,0,4.05-2.1,6.79-5.23,6.78-3.63-.01-6.65-4.13-6.61-9.02Zm14.11,31.34c-3.22,.06-5.89-2.68-6.05-6.21-.16-3.66,2.23-6.3,5.7-6.3,3.44,0,6.15,2.66,6.14,6.04,0,3.49-2.62,6.41-5.8,6.47Zm9.02-15.89c.07-3.01,1.1-5.15,3.78-5.31,2.57-.15,4.33,1.58,4.49,4.21,.17,2.79-1.44,4.94-4.12,5.17-2.71,.24-3.75-2.07-4.15-4.07Zm6.83,25.31c-3.28-.3-4.8-2.37-4.87-4.81,.02-4.28,2.98-7.56,6.17-7.61,3.12-.05,5.92,2.78,5.83,5.9-.1,3.31-3.8,6.82-7.13,6.52Zm11.26,22.36c-3.16-.05-5.9-4.02-5.67-8.22,.2-3.79,2.98-6.73,6.23-6.62,3.5,.12,6.23,3.36,6.14,7.28-.09,3.82-3.45,7.61-6.71,7.56Zm6.25,33.9c.46-1.92,.43-1.63,1.82-.23,1.77,1.77,4.89-1.25,5.61-5.39,2.36-.13,.3,4.32,3.64,3.39,2.46-.69,6.47,.32,3.85-4.57-.35-.65-.33-1.59,.5-2.01,.89-.46,1.72,.26,1.72,.93,.06,6.2,4.6,4.11,7.88,4.35,.91,.07,1.82,.1,2.8,.55-9.54,1.84-19.22,3-28.9,7.62,.53-2.29,.8-3.46,1.08-4.63Zm27.49,8.13c-2.08-.34-4.31-.47-5.22-2.87-.23-.59,.18-1.35,.85-1.32,2.54,.1,3.84,1.81,4.96,3.8-.33,.23-.47,.4-.58,.39Zm-2.72-52.08c-3.59-.1-6.19-3.15-6.17-7.23,.03-4.22,3.12-7.68,6.92-7.73,3.61-.05,6.55,3.06,6.5,6.88-.05,4.22-3.61,8.18-7.26,8.08Zm7.1-60.05c-3.45-.04-6.53-3.35-6.51-6.98,.02-3.62,3.12-6.59,6.84-6.54,3.62,.05,6.41,2.77,6.48,6.34,.07,3.85-3.12,7.22-6.81,7.18Zm14.72-39.14c4.5,.11,7.69,3.46,7.67,8.05-.02,4.68-4.25,9.08-8.69,9.04-4.63-.04-8.34-3.99-8.21-8.73,.14-4.63,4.39-8.49,9.23-8.37Zm-7.53-25.83c.13-4.21,4.19-7.96,8.59-7.94,3.67,.02,5.97,2.62,5.91,6.69-.06,4.65-3.67,8.57-7.89,8.56-3.84,0-6.74-3.2-6.62-7.3Zm11.8,68.33c-3.29-.02-4.46-2.76-4.99-5.65,.29-2.82,1.05-5.46,4.43-5.39,3.21,.07,5.1,2.24,5.23,5.36,.13,3.06-1.31,5.71-4.66,5.69Zm5.58,16.01c.17,4.63-3.36,8.95-7.36,8.98-3.31,.03-6.12-3.49-6.23-7.78-.11-4.7,3.01-8.83,6.76-8.95,3.65-.12,6.65,3.29,6.82,7.75Zm-20.49,24.51c.03-3.19,1.64-5.72,5.12-5.83,2.81-.09,4.37,1.76,4.68,4.56-.39,3.24-1.89,5.65-5.3,5.88-2.97,.2-4.53-1.89-4.5-4.61Zm20.8,29.69c-2.19,2.95-4.92,5.52-8.14,7.39-1.91,1.11-4.33,1.86-5.9-.16-1.48-1.9,.59-3.51,1.77-4.66,20.24-19.61,26.17-45.37,29.91-71.66,2.89-20.3-1.23-40.37-5.42-60.23-3.99-18.91-10.93-36.35-24.58-50.66-14.06-14.74-32.06-19.68-51.44-21.51-2.03-.19-4.2,.15-6.54-1.03,31.18-8.37,67.09,7.28,82.37,35.57,11.9,22.03,17.61,45.65,18.37,70.62,.53,17.1,.6,34.06-5.28,50.49-5.95,16.63-14.67,31.71-25.14,45.83Zm72.55-27.04c-.23,.53-1.2,.87-1.89,1.03-6.03,1.39-10.57-1.8-15.2-4.89-1.37-.91-2.49-3.66-4.33-2.31-2.53,1.87-4.64,4.44-6.51,7.01-.87,1.19,.97,1.63,1.82,2.04,4.67,2.24,9.38,4.4,14.35,6.71-1.17,1.93-2.9,2.19-4.68,2.22-5.23,.07-10.36-.94-13.84-4.93-2.36-2.7-3.71-1.96-5.87-.31-2.52,1.92-5.29,3.44-8.65,3.74,7.85-5.55,14.24-12.44,19.92-20.04,1.05-1.4,2.39-.88,3.76-.65,7.26,1.21,13.27,5.35,19.76,8.35,.77,.36,1.84,.95,1.37,2.02Zm-12.99-24.74c-2.62,3.4-.09,4.54,2.32,5.8,2.23,1.17,4.76,1.92,7.16,4.73-3.22-.38-5.66-.33-7.87-1.01-3.45-1.07-6.6-2.3-8.36,2.39-.27,.72-1.31,1.37-2.31,.56-.73-.6-.61-1.41-.22-2.08,3.23-5.55,6.45-11.1,9.8-16.57,.85-1.39,2.38-1.09,3.74-.54-.04-.03-.07-.06-.11-.1,5.41,3.84,11.68,6.44,17.42,11.87-8.46,.74-15.24-1.05-21.57-5.04Zm24.03-22.78c-1.98-.09-3.97-.55-5.94-.5-1.04,.03-2.77-.97-3.12,.74-.32,1.55,1.1,2.38,2.44,2.92,3.14,1.26,6.29,2.52,8.77,4.92,1.84,1.79,4.85,3.72,3.57,6.33-1.1,2.23-4.4,1.25-6.82,.95-3.13-.39-5.99-1.47-8.38-3.49-1.49-1.26-2.57-2.06-3.86,.21-1.42,2.48-4.16,2.94-6.58,3.84-1.61-1.39-.93-2.79,.11-4.23,3.48-4.83,5.89-10.38,9.95-14.82,.28-.3,.47-.72,.6-1.12,2.06-6.58,2.11-6.69,8.35-3.63,4.73,2.32,9.95,3.79,14.4,7.62-4.81,2.07-9.17,.45-13.48,.26Zm18.75-15.18c-4.42,3.26-10.31,2.7-16.01-1.69-1.39,2.07-2.52,4.44-4.84,5.67-.99,.52-2.13,.81-3.05,.11-1.25-.96-.17-1.98,.34-2.79,3.11-4.93,4.91-10.58,8.93-15.92,2.66,6.75,8.83,6.64,13.79,8.62,1.41,.56,3.3,.65,3.5,2.49,.19,1.72-1.43,2.62-2.64,3.51Zm-11.54-14.97c-1.94-.84-2.88-1.95-1.57-4.28,1.07-1.91,1.68-3.36,4.41-2.34,5.81,2.17,11.86,3.75,16.91,7.87-6.85,2.24-13.39,1.48-19.75-1.25Zm25.33-15.62c-.22,1.22-1.51,1.43-2.5,1.69-6.73,1.73-12.68-.06-18.32-4.33-.14,3.25,1.49,7.3-4.28,7.82,.93-2.95,1.64-5.43,2.5-7.86,1.91-5.4,2.79-5.91,8.24-4.28,4.25,1.27,8.47,2.66,12.4,4.77,.89,.48,2.2,.86,1.96,2.2Zm3.89-16.43c-2.66,1.33-5.51,1.71-8.48,1.79-1.96-.26-3.91-.57-5.88-.78-2.14-.22-4.82-2.63-6.04,1.43-.1,.33-1.46,.59-2.06,.38-.8-.28-.7-1.26-.51-2,.56-2.22,1.25-4.4,1.7-6.64,.3-1.44,1.22-1.55,2.34-1.54,6.63,.03,13.03,1.31,19.19,3.72,.81,.32,1.93,.66,1.95,1.71,.02,1.31-1.31,1.47-2.22,1.92Zm-11.89-16.26c-2.3-.39-4.78-1.68-5.64,2.03-.15,.66-1.01,1.25-1.86,.9-.96-.39-.51-1.24-.46-1.97,.4-6.1,.39-6.06,6.81-5.99,6.06,.06,12.12,.01,19.31,.01-5.85,4.9-11.7,6.12-18.16,5.02Zm-3.93-19.09c3.06-.09,6.12-.32,9.18-.48v.32c3.06,0,6.13-.03,9.19,.02,.87,.02,1.97-.12,2.43,.85,.5,1.05-.41,1.73-1.06,2.3-6.02,5.21-13.37,5.71-20.77,5.41-2.64-.11-1.72-2.79-1.63-4.49,.09-1.77-.1-3.84,2.68-3.93Zm-2.02-8.13c0-2.42,.4-3.69,3.25-3.44,6.01,.52,12.05,.78,18.08,1.14-2.68,3.34-6.23,3.46-9.62,3.95-2.71,.39-5.46,.45-8.17,.82-2.05,.28-3.53,.38-3.53-2.47Zm25.54-20.95c.55,1.37-.38,2.72-1.3,3.69-4.19,4.45-9.67,5.49-16.05,5.72-1.69-.24-3.96-.52-6.22-.9-2.34-.39-2.63-2.14-2.69-4.12-.06-2.11,1.04-3.15,2.94-3.36,6.67-.74,13.35-1.43,20.04-2.07,1.18-.11,2.73-.29,3.27,1.04Zm-1.15-15.44c.06,2.88-1.81,4.42-4.01,5.66-4.83,2.71-10.18,3.11-15.54,3.41-2.42-.44-6.16,1.47-5.78-3.72,.18-2.49,1.22-3.69,3.44-4.04,6.48-1.03,13.12-1.07,19.36-3.5,1.76-.68,2.49,.5,2.53,2.18Zm-4.68-11.79c.79,1.22,.09,2.39-.74,3.3-2.47,2.71-5.85,3.8-9.21,4.77-2.33,.67-4.78,.93-7.17,1.37-2.96,.61-3.68-.91-3.93-3.52-.26-2.64,.33-3.98,3.22-4.18,5.01-.35,10.04-.67,14.92-2.05,1-.29,2.19-.81,2.92,.31Zm-.81-13.22c-.66,2.27-2.61,3.31-4.54,4.23-4.61,2.19-9.68,2.6-14.61,3.5-3.1,.57-2.23-2.06-2.46-2.91-.53-2.58,.33-3.59,2.09-4.02,5.75-1.39,11.74-1.53,17.34-3.83,2.37-.97,2.73,1.15,2.18,3.03Zm-3.19-18.05c-.24,1.97-1.49,3.33-3.14,4.3-4.29,2.53-8.96,3.86-13.66,4.27-1.42-.1-2.89,.38-3.31-1.26-.37-1.45,.58-2.28,1.81-2.79,5.36-2.23,10.72-4.47,16.11-6.65,2.16-.87,2.38,.59,2.19,2.13Zm30,3.64c.79-1.86,.59-4.64,3.06-5.11,1.58-.3,1.27,1.63,1.38,2.76-.23,2.13-1.08,3.93-3.3,4.33-1.02,.18-1.52-1.07-1.13-1.98Zm2.25,19.16c-2.3,.12-1.72-2.41-1.68-3.92,.05-2.05,.67-4.14,3.23-4.1,1.91,.03,1.51,1.89,1.78,3.03-.51,2.21-.92,4.85-3.33,4.98Zm4.33-81.67c-.37,1.93-2.11,2.39-3.75,2.68-.98-.2-2.15-.38-1.93-1.55,.36-1.93,1.86-2.74,3.74-2.59,.85,.07,2.15,.35,1.94,1.45Zm2.47,67.27c-1.71,.26-2.33-1.4-2.1-2.79,.33-1.97,.24-4.89,2.53-5.18,1.72-.22,1.46,2.56,1.99,3.77-.17,2.02-.47,3.9-2.41,4.2Zm7.97-24.43c.43-1.65,1.56-2.58,3.33-2.34,1.09,.15,1.96,.73,2.21,2.02-.93,1.6-2.62,1.83-4.2,2.06-1.22,.18-1.6-.77-1.35-1.75Zm6.29,9.23c-.19,1.55-.96,2.85-2.66,3.2-1.49-.04-1.81-1.03-1.71-2.16,.14-1.64,.96-2.95,2.67-3.17,1.39-.18,1.83,1.07,1.7,2.12Zm-1.91-35.25c-1.42-.03-2.9-.42-3.29-1.95-.43-1.67,.95-2.07,2.22-2.14,1.52-.09,2.65,.57,3.05,2.19,.07,1.37-.77,1.92-1.98,1.9Zm.4-11.4c-1.15-1-2.3-2.04-3.28-3.2-6.07-7.16-13.47-10.93-23.07-9.1-2.9,.55-2.84-.87-1.84-2.77,.99-1.88,2.15-3.66,3.41-5.78,3.47,3.58-1.68,4.37-1.54,7.43,14.49-3.25,21.98,6.72,30.79,16.32-2.58-.45-3.38-1.94-4.47-2.89Zm11.26,45.87c-2.1-.26-3.61-1.64-4.09-3.75-.23-1.03,.53-1.68,1.76-1.81,1.96,.26,3.09,1.64,3.61,3.51,.27,.97-.38,2.16-1.28,2.05Zm4.29-4.75c-1.82-.18-2.79-1.65-3.18-3.32-.26-1.12,.64-1.52,1.7-1.71,1.87,.07,2.3,1.52,2.51,3.03,.12,.83,.22,2.12-1.02,1.99Zm8.74,2.51c-.6,.8-1.47,1.25-2.41,.78-1.18-.59-2.04-1.83-1.83-2.99,1.26-7.22-3.3-12.78-5.34-19.03-1.21-3.71-3.05-7.21-4.6-10.8,4.69,4.98,6.57,11.31,9.2,17.27,1.66,3.77,2.53,7.88,5.05,11.3,.73,.99,.77,2.35-.06,3.47Zm8.31-60c-1.88-.76-4.31-1.05-4.65-3.59-.15-1.14,1.17-1.08,2.15-1.14,2.04,.39,3.39,1.69,3.91,3.73,.26,1.03-.67,1.29-1.41,.99Zm-4.88-13.66c-.16-1.4,1.04-1.96,2.14-1.7,2.19,.5,3.15,2.22,3.56,3.96-.12,1.42-.52,2.25-1.74,1.77-1.9-.74-3.7-1.76-3.96-4.04Zm19.53,12.11c-1.31,.11-6.07-3.96-6-5.17,.04-.7,.49-1.21,1.16-1.06,2.68,.58,5.34,1.24,6.69,3.85-.09,1.39-.52,2.26-1.85,2.38Zm22.71,5.07c2.39,1,3.47,3.11,3.38,5.74-.04,1.21-.91,2.73-2.35,2.04-2.51-1.2-2.87-3.77-2.93-6.3-.03-1.07,.42-1.78,1.9-1.48Zm-4.22-6.72c.95,1.02,2.78,2.49,1.11,3.79-1.29,1.01-2.33-.99-3.11-1.99-7.28-9.37-15.13-18.17-25.08-24.82-14.94-9.99-30.93-16.26-49.36-13.5-1.23,.18-3.03-.43-3.37,1.55-.26,1.48-1.14,2.29-2.44,2.23-2.3-.12,.3-2.59-1.91-3.35-.91,1-1.8,1.98-3.03,3.33-.64-1.54-1.31-2.68-1.55-3.91-.21-1.1,.58-2.01,1.46-2.68,1.01-.78,1.67-.22,2.23,.64,.64,.98,1.53,1.89,2.55,.81,1.23-1.29-.33-1.73-1.1-2.35-.78-.63-2.22-1.21-1.11-2.39,.87-.92,2.45-.19,2.8,.62,2.11,4.82,6.02,3.24,9.69,3.14,23.02-.64,41.94,8.79,58.24,24.25,4.89,4.64,9.38,9.7,13.98,14.65Zm-34.63-70.98c1.55,.2,3.72-.06,3.89,2.2,.1,1.35-1.46,1.23-2.49,1.41-1.47-.24-3.3-.08-3.6-2.06-.23-1.52,1.19-1.69,2.2-1.56Zm7.67,6.55c-.18-1.66,1.4-1.73,2.59-1.71,1.69,.04,3.35,.32,3.78,2.34-.05,1.61-1.02,2.31-2.35,2.23-1.86-.11-3.77-.68-4.01-2.86Zm18.18,9.41c.14,1.61-1.75,2.3-3.42,2.08-2.11-.28-3.91-1.24-4.05-3.54-.09-1.45,1.41-1.21,2.75-1.19,1.47,.8,4.48-.2,4.73,2.64Zm-1.77-7.17c2.48,.59,5.51,.64,6.73,3.13,.56,1.14-1.66,1.15-2.85,1.35-2.35-.38-5.04-.49-5.79-3.44-.35-1.37,1.1-1.22,1.91-1.03Zm15,16.52c-2.57-.5-5.26-1.33-5.89-4.18-.39-1.74,1.57-1.25,2.75-1.4,2.64,.51,4.93,1.79,5.52,4.57,.32,1.51-1.46,1.19-2.37,1.01Zm7.17-7.54c-.34,.84-1.12,1.05-1.89,.98-3.32-.28-5.6-1.98-7.04-5.27,3.43-.92,5.77,.87,8.19,2.36,.7,.43,1.08,1.09,.74,1.93Zm8.44,7.19c-2.49-.15-4.49-1.43-5.19-3.82-.57-1.95,1.31-1.49,2.32-1.69,2.46,.22,4.83,.7,5.34,3.47,.27,1.47-1.2,2.12-2.48,2.05Zm-8.92-12.98c-18.33-7.63-37.12-13.78-56.82-16.55-19.87-2.79-48.58,6.01-60.04,27.73-5.71,10.81-8.69,22.22-8.1,34.5,.62,12.96-1.93,25.32-7.21,37.15-.62,1.39-1.3,2.74-2.53,3.93,.59-2.11,1.05-4.28,1.8-6.34,4.31-11.85,5.93-24.06,5.35-36.64-.54-11.77,2.38-22.83,7.74-33.24,9.38-18.23,25.96-25.7,44.82-29.49,13.84-2.78,27.15,.64,40.37,4.17,13.5,3.6,26.49,8.75,39.64,13.4,2.36,.83,4.85,1.71,6.79,4.36-4.66,.29-8.22-1.49-11.81-2.98Zm21.03,16.89c-1.88-.37-3.63-1.1-3.87-3.28-.21-1.86,1.21-2.32,2.74-2.19,1.97,.17,3.73,.99,3.96,3.14,.19,1.75-1.29,2.21-2.83,2.32Z"/>
  <path d="M453.5,460.65c1.74-.05,3.04,.73,4.08,1.88,1.14,1.26,1.4,2.43-.79,2.81-1.2,.21-2.46,.66-3.59,.45-1.39-.26-3.64,2.59-4.16-.95-.52-3.53,2.09-3.82,4.46-4.19Z"/>
  <path d="M456.58,450.51c-1.86,1.96-3.74,2.12-5.37,2.8-.63,.26-1.53,.98-1.96,.08-.35-.72-.17-1.74-.1-2.61,.11-1.38,1.08-1.09,2-.95,1.62,.24,3.26,.42,5.42,.69Z"/>
</svg>