<?xml version="1.0" encoding="UTF-8"?>
<svg id="Layer_1" data-name="Layer 1" xmlns="http://www.w3.org/2000/svg" viewBox="0 0 864 864">
  <path d="M671.13,549.71c2.01,.41,3.06,1.55,3.63,3.62,1.77,6.41,3.7,12.79,5.76,19.12,.79,2.42,.09,3.53-2.07,4.73-17.44,9.66-35.79,16.93-55.23,21.39-1.55,.36-3.08,.84-4.5,1.67,5.62,.11,10.92-1.44,16.11-3.07,15.36-4.82,30.72-9.74,44.02-19.28,2.87-2.06,3.02,.09,3.41,1.89,4.26,19.57,7.24,39.28,6.96,59.4-.15,11.17-.47,22.36-2.3,33.35-2.16,13.04-6.25,25.51-10.78,38.05-5.61,15.51-10.64,31.54-19.93,44.78-10.4,14.84-12.87,31.02-15.22,47.79q-1.74,12.42,9.46,18.07c8.72,4.37,14.9,10.93,17.88,20.34,1.68,5.28,3.6,10.5,3.38,16.67-9.09-12.82-22.31-19.44-36.49-25.97v27.72c-.73-.04-1.22,.04-1.28-.08-3.42-6.99-9.51-10.39-16.37-13.42-13.97-6.19-19.01-18.69-21.43-32.7-1.22-7.06-1.47-14.2-1.03-21.31,.24-3.93-1.23-4.56-4.55-3.62-4.17,1.18-8.36,2.32-12.59,3.23-3.21,.68-4.72,2.42-4.88,5.66-.36,7.13-1.59,14.17-2.96,21.15-.55,2.8-.18,4.18,2.74,5.06,17.45,5.27,22.52,19.77,26,35.37,.22,.99,.48,2.38-.93,2.75-1.18,.31-2.03-.69-2.65-1.54-6.98-9.49-17.15-14.5-27.31-19.5-4.54-2.23-4.61-2.13-4.24,3.13,.19,2.62,.48,5.23,.76,7.84,.08,.78,.27,1.67-.54,2.04-.81,.38-1.52-.24-1.93-.9-5.48-8.86-14.5-10.81-23.79-12.59-8.7-1.67-10.07-3.35-10.17-12.1-.09-8.2,.24-16.41,.52-24.61,.09-2.75-.57-3.94-3.65-3.46-5.96,.92-11.97,1.49-17.96,2.25-2.84,.36-4.44,1.99-4.63,4.9-.03,.46,0,.94-.11,1.39-2.37,9.68-1.12,16.98,10.26,20.24,5.81,1.67,8.79,7.54,10.79,13.28,1.85,5.31,3.35,10.7,3.24,16.71-7.01-10.23-17.74-14.62-28.72-19.85,.97,7.35,1.87,14.15,2.75,20.76-1.68,.72-2.33-.08-2.98-.68-5.04-4.68-10.64-8.43-17.04-11.06-10.94-4.48-16.79-13.49-19.96-24.25-1.5-5.08-5.18-7.89-8.52-11.22-1.23-1.22-2.75-.69-4.34-.47-27.26,3.85-54.6,4.42-81.93,1.17-6.87-.82-13.76-1.8-20.61-2.94,0-1.78,1.54-2.25,2.67-2.84,9.56-4.99,15.66-13.57,22.38-21.5,3.99-3.14,6.19-7.58,8.76-11.76-3.72,3.21-5.55,7.95-9.3,11.11-.85,.28-1.98,.29-2.52,.87-8.43,9.08-17.8,17.15-27.52,25.53,2.69,.63,3.88-1.4,5.67-1.56-.81,2.43-3,3.44-4.9,4.74-2.78,1.89-2.84,4.31-.06,6.19,.5,.34,1.12,.53,1.71,.69,13.42,3.7,20.54,13.02,23.46,26.18,.91,4.07,2.17,8.07,3.12,12.13,.25,1.07,1.51,2.51,.02,3.34-1.46,.81-2.55-.56-3.59-1.46-2.93-2.54-5.76-5.18-8.78-7.6-9.79-7.84-20.81-13.37-32.76-17.09-1.08-.34-2.33-1.51-3.37-.22-.75,.93,.04,2.06,.33,3.08,1.18,4.17,2.38,8.34,3.51,12.53,.19,.69,.35,1.64,.02,2.16-.54,.86-1.38,.21-2-.2-9.04-6.06-19.11-10.22-28.51-15.59-7.49-4.27-12.15-10.89-13.53-19.6-.95-5.95-2.63-11.78-2.79-17.88-.06-2.36-.87-4.47-3.87-4.98-24.06-4.07-46.57-12.65-67.91-24.27-39.92-21.75-71.35-52.73-96.25-90.43-26.32-39.84-41.21-83.66-44.92-131.38-1.53-19.71,.95-38.95,4.29-58.38-1.04-.96-2.16,.14-3.24,.37-11.42,2.42-18.87-1.96-22.46-13.21-1.8-5.65-2.55-11.5-3.28-17.34-.59-4.73-1.07-9.46-2.6-14.22,9.07,5.69,16.63,12.85,23.5,22.92,.43-13.5,4.77-24.84,6.38-36.72,.11-.83-.65-1.9,.69-2.31,1.02-.31,1.86,.29,2.47,.95,2.19,2.4,4.4,4.79,6.39,7.35,4.77,6.14,8.8,12.75,11.93,19.87,1.56,3.55,2.88,7.23,2.88,11.18-.02,11.46-4.5,17.22-16.26,20.15-3,.75-3.67,1.98-4.18,4.82-2.61,14.68-1.23,29.35-.4,44.03,.16,2.78,.98,5.08,3.8,6.31,3.4,1.49,2.94,3.61,1.13,6.29-3.49,5.16-3.1,6.05,2.78,8.13,1.17,.41,2.37,.73,3.52,1.19,2.57,1.03,3.46,2.55,1.33,4.89-.52,.57-1.05,1.15-1.48,1.79-1.39,2.04-3.07,4.01-1.89,6.78,1.21,2.85,3.88,2.77,6.29,3.02,9.42,.99,9.29,.92,6.67,9.89-.84,2.87-2.88,5.57-1.75,8.91,2.46,7.26,5.22,8.61,12.73,6.1,1.29-.43,2.78-1.47,3.94-.51,1.45,1.2,.2,2.88-.09,4.31-.5,2.43-1.08,4.84-1.77,7.22-.62,2.13-.18,3.71,1.33,5.46,7.95,9.21,7.86,9.2,19.89,3.53,2.17-1.02,4.56-3.96,6.55-2.48,1.84,1.37-.53,4.39-.77,6.73-.47,4.62-1.33,9.2-2.1,13.78-.63,3.81,3.41,10.93,6.93,12.15,1.33,.46,1.99-.58,2.82-1.15,5.86-4.03,11.91-7.84,16.79-13.12,.52-.57,1-1.35,1.85-1.07,.9,.3,.67,1.17,.67,1.96-.02,9.14,.07,18.27,0,27.41-.01,2.19,.31,4.1,2.45,5.05,2.39,1.07,2.76-1.45,3.71-2.54,5-5.71,9.83-11.57,14.75-17.35,.78-.91,1.59-2.26,2.94-1.91,1.66,.42,.89,2.1,1,3.21,.96,8.95,.77,17.93,.41,26.91-.06,1.41-.64,2.8,1.35,3.28,1.61,.39,3.06,1.16,4.73-.28,8.98-7.75,19.16-14.22,25.59-24.68,1.81-2.94,2.9-.87,3.55,1.14,2.75,8.59,4.62,17.39,5.44,26.35,.33,3.56,1.76,4.48,5.14,4.55,12.22,.23,12.18,.3,11.74-11.88-.1-2.83-1.66-7.07,.81-8.23,3.14-1.47,4.72,3.03,6.97,4.89,2.85,2.36,5.36,5.15,7.97,7.8,1.58,1.6,2.72,1.52,3.98-.45,2.3-3.6,4.41-7.13,1.12-11.25-.09-.12-.11-.29-.17-.43-3.2-8.45-2.4-9.47,6.44-8.26,5.59,.77,10.11-4.62,8.7-10.16-1.57-6.17-2.63-12.43-2.8-18.82-.07-2.86,.23-4.85,3.78-2.41,4.74,3.25,10.55,4.36,15.45,7.43,2.51,1.57,5.42-1.39,4.81-5.08-1.18-7.15-.14-14.23,.18-21.33,.05-1.22-.11-2.83,1.13-3.35,1.62-.68,2.46,.98,3.25,2,3.23,4.16,6.46,8.33,9.45,12.67,1.8,2.61,3.44,3.1,6.55,1.86,4.89-1.93,7.29-4.57,6.88-10.19-.3-4.09,.81-8.29,1.35-12.44,.18-1.39,.42-2.97,2.18-3.12,1.4-.12,2.08,1.11,2.75,2.17,2.65,4.19,5.33,8.36,7.97,12.56,2.98,4.74,6.67,.52,9.99,.74,2.89,.19,2.24-2.4,2.33-4.11,.32-6.19,.75-12.37,1.97-18.47,.26-1.32,.1-3.07,1.63-3.59,1.58-.53,2.5,.98,3.35,2.01,4.14,5.01,8.87,9.57,12.11,15.27,1.14,2.01,1.92,2.53,3.56,.44,2.31-2.93,4.15-5.78,4.83-9.75,1.24-7.31,3.43-14.46,5.3-21.66,.3-1.15,.58-2.65,2.02-2.85,1.37-.2,2.14,1.05,2.89,2.02,1.9,2.44,3.74,4.94,5.66,7.37,.54,.69,1.05,1.56,2.18,1.46,2.69-.24,10.4-8.98,10.43-11.74,.03-4.19,.12-8.37,.24-12.55,.04-1.23,.16-2.62,1.58-3.08,1.2-.39,2.01,.59,2.77,1.32,1.67,1.61,3.18,3.41,4.97,4.88,1.24,1.02,2.01,3.86,4.35,2.1,2.2-1.65,4.76-2.92,3.61-6.97-6.19-21.89-19.08-39.06-36.54-53.06-5.43-4.35-11.76-6.95-18.9-6.67-11.32,.44-19.58,7.37-23.54,19.82-5.19,16.31-6.21,33.14-5.93,50.11,.02,1.47,.72,3.05-.7,4.78-1.99-1.2-1.78-3.43-2.28-5.12-6.98-23.45-12.87-47.25-22.75-69.76-4.46-10.15-9.41-19.92-18.06-27.26-15.53-13.21-34.29-9.64-44.02,8.36-2.81,5.2-4.94,10.66-6.71,16.3-5.62,17.92-7.54,36.37-8.11,55.03-.04,1.38-.23,2.76-.42,4.13-.02,.18-.43,.31-1.05,.72-1.51-2.37-1.01-5.02-1.05-7.47-.3-18.76-.52-37.52-3.21-56.14-1.33-9.2-2.68-18.42-5.56-27.3-.67-2.06-1.38-4.13-2.34-6.07-4.7-9.45-13.66-11.88-22.5-6.12-6.98,4.56-11.31,11.3-15.14,18.49-9.78,18.37-13.52,38.13-13.72,58.73-.02,1.97,.26,4.03-.85,6.18-2.14-1.67-1.4-3.94-1.43-5.86-.31-23.1-.47-46.2-2.6-69.24-.93-10.06-2.14-20.06-5.88-29.54-.91-2.29-1.97-4.58-3.33-6.62-4.19-6.27-9.79-7.3-15.9-2.87-7.38,5.34-13.06,12.31-18.03,19.87-9.14,13.9-16.51,28.73-23.17,43.95-.57,1.31-.54,3.1-2.57,3.89-.91-2.02,.38-3.55,.98-5.09,9.01-23.26,19.06-46.11,27.24-69.69,5.52-15.92,7.09-32.28,4.65-49.03-1.74-11.91-9.06-18.64-19.86-22.19-10.87-3.58-22.18-4.12-33.52-4.14-3.92,0-7.13,2.65-10.85,3.33-.61-1.67,.5-1.95,1.19-2.4,20.04-13.08,41.31-23.81,63.31-33.12,22.04-9.33,43.41-5.87,64.15,4.22,17.23,8.38,31.1,21.32,44.81,34.38,20.31,19.35,40.1,39.22,60.06,58.93,30.95,30.56,66.94,54.03,105.77,73.25,13.46,6.66,27.17,12.82,40.76,19.21,.82,.39,1.54,1.05,2.78,.72,1.15-5.11,.68-10.4,.53-15.6-.26-8.67-1.13-17.32-1.59-25.98-.17-3.08-1.06-4.01-4.47-3.74-6.03,.46-11.94-1.46-17.89-2.38-2.84-.44-2.32-2.08-.6-3.43,5.12-4,10.01-8.33,15.63-11.65,.53-.31,1.47-.36,1.64-.77,1.93-4.52-1.1-8.45-1.68-12.69-.2-1.48-.18-3.19-2.84-3.35-6.66-.4-13.01-2.71-19.53-3.99-3.38-.67-2.9-2.23-1.12-4.02,3.82-3.84,7.64-7.71,11.71-11.28,2.41-2.12,2.77-4.01,2.16-7.24-1.57-8.26-5.56-12.71-14.39-12.24-2.22,.12-4.5-1-6.76-1.52-1.06-.24-2.26-.33-2.34-1.76-.07-1.24,.81-1.9,1.78-2.5,3.17-1.94,6.21-4.12,9.5-5.82,2.9-1.5,3.43-3.24,2.5-6.34-2.59-8.64-2.45-8.68-11.11-6.85-1.97,.42-3.94,.82-5.91,1.17-5,.88-5.75,.15-4.62-5.03,1.62-7.42,3.84-14.69,6.45-21.82,2.44-6.65-2.09-11.51-4.27-16.91-.7-1.73-2.81-.35-4.21,.01-4.34,1.11-8.64,2.39-12.99,3.5-1.3,.33-2.88,1.16-3.95-.05-1.18-1.33-.26-2.94,.27-4.36,2.87-7.69,5.77-15.37,8.63-23.06,.97-2.61-1.97-13.77-3.93-15.62-1.26-1.18-1.89-.02-2.74,.48-4.12,2.46-8.23,4.95-12.36,7.38-1.42,.83-2.9,2.37-4.61,1.04-1.53-1.19-1.02-3.1-.76-4.78,1.98-12.65,2.94-25.56,9.27-37.13,.7-1.27,.38-2.78-.01-4.1-1.35-4.59-2.2-9.29-2.83-14.65-3.46,2.43-6.54,4.68-9.7,6.79-2.06,1.37-4.22,2.6-6.4,3.76-1.09,.58-2.4,1-3.49,.05-1.09-.95-.89-2.31-.47-3.47,.99-2.77,2.04-5.53,3.25-8.21,5.71-12.71,10.29-25.91,16.81-38.25,1.65-3.13-1.32-2.67-2.33-3.04-12.49-4.51-24.02-10.99-34.72-18.63-26.84-19.19-50.88-41.07-64.83-71.97-2.05-4.54-3.78-9.19-4.02-14.22-.06-1.3-.46-2.99,1.14-3.71,1.5-.68,2.64,.45,3.71,1.33,4.94,4.08,8.91,9.1,12.67,14.19,15.09,20.39,35.02,32.66,59.86,37.67,15.67,3.16,31.32,5.93,46.74,6.05-28.2-17.4-44.43-44.27-55.86-74.74-2.07-5.53-3.32-11.3-3.98-17.17-.2-1.75-1-4.29,.85-5.06,2.12-.89,2.91,1.74,3.9,3.17,10.95,15.86,22.92,30.85,37.64,43.43,14.83,12.67,31.98,20.46,51,24.31,1.4,.28,3.35,1.23,4.21-.58,.76-1.59-.89-2.87-1.86-3.87-7.99-8.29-13.18-18.33-17.96-28.6-1.28-2.74-3.66-6.19-1.42-8.61,2.21-2.38,5.52,.36,8.04,1.45,11.23,4.85,22.33,10.01,34.1,13.45,4.42,1.29,8.95,2.19,13.66,3.32-.13-2.36-1.58-3.15-2.57-4.23-17.18-18.81-30.04-40.11-37.28-64.65-.75-2.53-1.4-5.09-1.22-7.77,.07-1.06-.04-2.27,1.11-2.87,1.33-.69,2.47,.06,3.35,.9,3.02,2.89,6.06,5.78,8.9,8.84,20.09,21.72,43.36,38.61,71.36,48.95,6.16,2.27,11.32,2.93,17.6,1.26,8.52-2.26,17.13-4.07,25.41-7.26,7.59-2.92,15.59-3.92,23.75-3.16,13.93,1.3,23.8,8.9,31.13,20.29,3.44,5.34,6.82,10.75,9.16,16.68,2.54,6.45,7.38,9.19,14.04,9.5,7.73,.36,14.63-2.31,21.23-5.85,16.67-8.92,31.18-20.72,44.65-33.88,4.21-4.11,8.09-8.57,12.91-12.03,5.3-3.8,7.58-3.3,10.17,2.82,3.47,8.18,3.96,16.9,3.19,25.6-2.93,33.09-12.94,63.49-33.24,90.36-17.64,23.35-40.46,39.5-66.94,50.79-35.01,14.93-71.19,26.02-108.84,32.28-16.4,2.73-31.65,.89-46.11-7.38-2.41-1.38-5.03-2.38-7.57-3.53-.38-.17-.82-.21-1.37,.03,9.98,5.23,19.59,11.31,31.14,12.83,5.67,.75,5.63,.82,3.21,5.96-4.11,8.76-7.27,17.8-7.81,27.56-.16,2.93-1.43,4.21-4.27,5.06-8.12,2.42-16.34,3.41-24.78,2.91-1.59-.09-3.37-.79-5.57,1.42,7.3,.8,13.86,.89,20.38-.29,3.48-.63,6.89-1.76,10.25-2.9,2.42-.82,3.5-.38,3.35,2.33-.1,1.85-.06,3.72,.03,5.58q.43,9.24-8.34,11.47c-6.96,1.75-14.07,2.01-21.2,2.08-1.24,.01-2.7-.92-4.18,1.18,9.32,.33,18.08-.07,26.75-2.15,1.2-.29,2.43-.55,3.58-1,3.32-1.3,4.56-.18,5.07,3.34,1.38,9.57,1.48,9.42-7.33,13.17-7.86,3.35-16.07,5.18-24.44,6-.15,1.88,.8,1.68,1.78,1.62,10.05-.65,19.56-3.23,28.27-8.31,3.05-1.78,4.06-1.19,4.97,2.08,2.1,7.51,4.31,15.03,8.66,21.65,1.92,2.92,.77,4.24-2.01,5.55-8.4,3.98-16.69,8.17-25.7,10.7-1.45,.41-2.8,1.15-4.07,2.07,9.72-1.44,18.72-4.93,27.3-9.62q6.74-3.68,11.12,2.42c.72,1.01,1.41,2.04,2.15,3.03q4.55,6.11-1.82,9.93c-9.07,5.4-18.37,10.29-28.76,12.66-1.02,.23-1.99,.16-1.41,1.48,.44,.99,1.04,1.44,2.53,.93,11.61-3.98,22.93-8.51,32.69-16.17,1.69-1.33,2.75-1.35,4.24,.27,2.82,3.08,5.77,6.05,8.84,8.89,1.89,1.74,1.8,2.73-.36,4.17-9.68,6.45-19.53,12.58-30.11,17.45-1.65,.76-3.45,1.26-5.03,3.55,11.1-3.8,20.54-9.22,29.66-15.3,3.07-2.05,5.7-6.22,9.03-5.96,2.98,.23,5.68,3.89,8.54,5.98q6.87,5.04,.87,11.13c-8.97,9.17-19.69,16-30.39,22.85-.76,.49-1.5,1-2.57,1.71,1.61,1.11,2.56,.1,3.44-.41,12.42-7.13,24.1-15.25,33.38-26.35,2.08-2.49,3.6-3.14,6.41-.95,4.03,3.13,8.34,5.93,12.71,8.57,2.78,1.67,3.06,2.93,1.05,5.64-9.21,12.43-20.71,22.09-34.17,29.56-2.24,1.24-4.88,2.02-6.56,5.19,3.97-.86,7.01-2.58,9.95-4.28,13.19-7.62,24.48-17.39,32.84-30.25,1.38-2.13,2.46-2.31,4.37-.93,4.03,2.89,8.14,5.65,12.19,8.51,1.36,.96,2.35,1.55,3.92-.04,13.09-13.23,27.75-24.72,41.59-37.12,26.09-23.38,52.5-46.36,80.15-67.87,16.47-12.81,33.85-24.19,53.51-31.35,24.25-8.83,46.92-3.66,68.29,9.53,.46,.28,.74,.86,1.65,1.95-7.15-1.91-13.27-.76-19.15,1.79-11.2,4.85-15.57,14.5-12.17,26.24,1.98,6.83,6.04,12.52,9.6,18.5,2.36,3.96,4.77,7.91,5.48,12.65-2.07,.67-2.15-1.07-2.71-1.9-2.64-3.88-5.59-7.41-9.59-9.98-9.69-6.21-19.71-3.43-24.79,6.94-5.1,10.39-6.38,21.65-7.31,32.94-2.1,25.49-1.83,51.13-4.75,76.58-.71,6.16-1.17,12.34-1.8,18.51-.13,1.32,.02,2.83-1.54,3.64-1.86-1.25-1.01-3.11-.94-4.68,.72-17.83,1.23-35.64-1.18-53.4-.71-5.23-1.7-10.39-3.63-15.34-3.59-9.23-8.78-10.17-15.14-2.46-5.07,6.14-8.78,13.22-11.59,20.59-5.8,15.19-11.14,30.57-16.54,45.91-5.55,15.78-10.95,31.62-16.44,47.43-.38,1.11-.46,2.5-2.36,2.81-.73-2.39,.41-4.49,1.06-6.54,5.11-16.09,10.72-32.01,14.65-48.47,4-16.76,4.54-33.41-.33-50.06-1.33-4.53-3.48-8.64-6.89-11.96-6.79-6.6-14.75-5.89-20.18,1.84-3.24,4.6-5.27,9.82-7.02,15.13-6.04,18.28-10.18,37.04-14.15,55.85-.29,1.36-.59,2.72-.89,4.09-.22,1.01-.14,2.54-1.61,2.29-1.34-.23-1.05-1.75-1.03-2.77,.04-2.48,.18-4.96,.37-7.43,1.08-14.42-1.5-28.41-5.07-42.26-1.01-3.92-2.64-7.62-5.17-10.84-5.61-7.14-14-8.05-20.74-1.98-6.83,6.15-9.3,14.37-10.53,23.18-.82,5.88,.02,10.88,4.69,15.14,3.06,2.79,5.21,6.56,8.13,9.54,2.35,2.39,1.75,3.89-.17,6.16-12.61,14.92-28.43,25.69-45.05,35.48-1.8,1.06-3.95,1.75-5.75,4.82,21.34-10.7,39.61-23.51,54.44-41.68,5.88,8.28,12.24,15.65,16.23,24.64-.41,.18-.91,.25-1.22,.54-13.36,12.22-28.79,21.22-44.87,29.25-3.13,1.56-6.55,2.63-9.35,4.97,.91,.61,1.61,.17,2.31-.1,15.79-6.12,30.64-13.96,43.76-24.76,3.5-2.88,7.45-5.47,9.47-9.83,4.95,5.05,7.7,11.5,11.02,17.56,1.6,2.92,3.96,5.63,3.77,9.32-.44,.14-.96,.16-1.3,.42-17.13,12.89-36.61,20.99-56.66,27.98-1.12,.39-2.83,.27-3.08,2.12,.35,.11,.68,.33,.91,.25,19.07-6.35,37.91-13.23,54.42-25.12,2.15-1.55,4.78-2.83,5.6-5.75,1.57,.85,2.43,2.25,3.11,3.86,2.7,6.38,5.49,12.71,8.19,19.09,.68,1.6,2.08,3.37-.27,4.85-18.95,11.1-38.91,19.97-60.23,26.5,1.32,1.14,2.26,.8,3.09,.57,19.49-5.37,37.96-13.09,54.95-24.16,1-.65,2.79-1.07,2.07-3.03Zm-236.43-141.52c1.12-2.49,1.97-5.02,1.09-8.27-4.12,3.99-8.75,6.84-12.4,11.57,3.74,.49,7.09,3.24,9.75-1.09-1.76,4.16,1.72,3.93,3.93,4.52,1.51,.41,3.58,1.94,4.52,.44,.62-.99,.81-3.98-2.37-4.13-1.23-.06-.02-.74,.06-1.08,.44-1.85-.02-3.64-1.66-4.28-1.5-.59-2.05,1.36-2.92,2.31Zm53.99-297.33c-26.16-.2-45.48,18.42-45.77,44.1-.28,25.21,20.63,46.93,45.4,47.14,28.05,.24,46.41-16.83,46.76-43.52,.36-26.71-19.87-47.52-46.4-47.72Zm87.73,31.62c1.86,0,3.73,.14,5.57-.02,21.23-1.91,33.72-19.36,28.1-39.18-7.66-26.99-42.68-39.69-65.82-23.82-9.88,6.78-13.27,16.6-11.6,28.01,3.02,20.69,21.19,35.07,43.76,35.01Zm-145.87,416.22c1.1-.81,1.57-1,1.78-1.34,9.97-16.16,16.52-33.57,19.13-52.42,.1-.73,.49-1.62-.42-2.05-1.05-.49-1.56,.37-2.27,1.01-16.13,14.64-18.35,33.9-18.22,54.8Zm-58.26-282.33c4.47-2.4,8.36-4.54,12.3-6.6,1.57-.82,2.31-1.77,1.65-3.68-2.63-7.63-5.23-15.27-7.36-23.2-4.03,10.7-5.18,21.83-6.58,33.48Zm-154.06,387.07c-.5-.04-1-.08-1.5-.13-4.34,8.48,2.54,16.96,.72,26.7-2.67-7.29-2.72-13.97-4.4-20.37-2.57,.75-3.73,2.63-3.56,4.88,.34,4.46,1.16,8.89,1.65,13.34,.14,1.32,.65,1.97,1.91,2.1,2.91,.3,5.82,.68,8.74,.88,1.88,.13,1.79-1.14,1.51-2.51-1.71-8.3-3.39-16.6-5.07-24.9Zm274.92,17.81c-5.02,.03-9.22,3.99-9.27,8.36-.05,4.62,4.14,3.64,6.47,4.34,2.85,.87,8.22-4.56,8.09-7.57-.15-3.53-1.97-5.43-5.29-5.14Zm-214.41-44.22c.71,5.85,1.34,11.09,2.06,17.01,3.61-3.45,6.47-6.43,9.61-9.09,2.5-2.12,1.55-2.99-.79-4.05-3.35-1.53-6.73-2.93-10.88-3.87Zm179.37-78.69c3.73-.07,8.82-4.25,8.41-7.18-.52-3.78-3.51-4.81-6.74-4.98-3.66-.2-5.93,3.05-5.79,7.8,.08,2.72,1.16,4.41,4.12,4.36Zm91.45-76.53c20.1-9.71,38.52-21.55,51.03-40.62-13.99,17.27-32.27,29.22-51.03,40.62Zm32.91-58.09c-7.17,7.43-14.33,14.82-22.25,21.46-8,6.72-17.2,11.8-24.96,18.79,18.37-10.31,35.1-22.59,47.22-40.25ZM193.63,686.25c4.7,1.05,9.14,2.04,13.58,3.03,1.62,.36,2.34-.2,2.04-1.92-.67-3.84-1.31-7.69-2.01-11.8-3.74,2.34-7.07,4.32-5.59,10.34-2.54-5.03-3.46-4.87-8.03,.35ZM691.21,87.36c2.61-.64,5.74-1.1,5.95-4.94,.17-3-3.55-6.41-6.81-6.26-3.09,.14-5.89,.94-5.98,4.9-.08,3.33,3.02,6.3,6.83,6.3ZM333.22,672.01c-.15-5.07-2.9-8.47-5.86-8.5-3.03-.03-5.37,2.77-5.27,6.32,.08,2.78,4.02,7.06,6.47,6.7,3.21-.47,4.68-2.62,4.65-4.52Zm228.5,174.72c-.36-2.57-.53-5.2-1.13-7.71-1.04-4.32-3.93-6.85-8.33-7.54-1.92-.3-3.82-.14-4.64,1.99-.79,2.05,.69,3.15,2.19,4.02,4.27,2.48,8.08,5.5,11.92,9.24Zm122.25-181.83c-9.42,5.68-17.86,10.34-26.63,14.37-8.81,4.06-18.11,6.78-27.26,9.89,14.71-.84,44.74-14.2,53.89-24.27Zm-322.97,184.69c-.66-6.26-3.23-11.11-8.48-14.25-2.17-1.3-4.64-1.21-6.12,1.18-1.45,2.35,.45,3.65,2.16,4.8,4.04,2.7,8.09,5.38,12.43,8.27Zm-184.37-186.34c-5.5,2.94-3.62,7.97-4.46,12.32-1.53-1.71,.17-3.93-1.49-5.27q-4.51,4.98,.9,8.06c1.33,.76,2.68,1.51,4.06,2.17,1.84,.87,2.48,.2,2.3-1.77-.48-5.02-.86-10.05-1.32-15.51Zm353.53-11.48c-.24-3.26-2.48-5.44-5.89-5.44-4.94,0-4.3,4.2-4.74,7.47-.48,3.61,2.36,3.59,4.45,3.9,3.12,.47,6.1-2.4,6.18-5.94Zm-39.37-435.51c-.86,5.4,.94,8.57,5.36,9.96,4.44,1.39,10.07-.56,11.81-4.12,1.28-2.61,.35-4.76-1.39-6.79-1.67-1.95-3.62-2.92-6.14-2.01-2,.72-3.83,1.65-3.49,4.83,.84-.71,1.3-1.07,1.73-1.47,1.46-1.36,3.09-1.31,4.73-.49,1.58,.79,2.08,2.24,1.89,3.9-.22,1.95-1.59,2.98-3.3,3.49-3.65,1.08-6.75,.2-8.94-3.02-.84-1.23-1.4-2.65-2.25-4.28Zm134.88,411.62c10.81-.85,48.3-15.68,55.98-25.16-17.99,11.57-36.86,18.59-55.98,25.16Zm-35.66,94.45c-.26-2.84-1.09-6.18-4.44-6.37-3.65-.21-4.85,3.17-5.15,6.37-.28,2.95,.85,5.34,4.18,5.36,3.18,.02,5.05-1.87,5.41-5.35Zm-286.08-104.83l-1.3-.06c-.21,3.2-.7,6.42-.55,9.61,.13,2.68-1.66,6.53,.63,7.73,1.9,1,4.76-2.02,7.2-3.25,.41-.21,.82-.44,1.21-.68,1.02-.6,1.08-1.4,.41-2.3-1.67-2.23-3.36-4.44-5.64-7.46-.79,4.57-1.37,7.91-2.04,11.78-1.47-5.49,1.51-10.47,.07-15.36Zm-121.37,39.47c-3.1,1.7-4.24,3.04-4.14,4.82,.31,6.18,.68,12.35,.32,18.54-.09,1.46,.98,2.33,2.3,2.46,2.08,.2,1.5-1.54,1.5-2.6,.05-7.4,.03-14.81,.03-23.22Zm448.91,191.21c.9-4.56,.49-8.2-.35-11.78-.64-2.72-2.29-4.66-5.37-3.32-3.16,1.38-2.57,4.04-1.12,6.24,1.91,2.89,4.22,5.51,6.84,8.85Zm-454.44-136.38c.34,2.57,1.08,4.95,4.37,4.72,2.87-.19,5.19-1.54,5.28-4.72,.09-3.46-2.4-5.01-5.39-5.1-3.07-.09-4.02,2.32-4.26,5.1Zm386.86,50.69c-3.07-.21-5.05,1.34-5.5,4.35-.44,3.01,1.63,4.8,4.22,5.12,2.93,.36,5.1-1.33,5.54-4.41,.44-3.07-1.33-4.57-4.27-5.05Zm-317.45-86.73c-1.62,4.5-1.27,7.86-1.39,11.17-.04,1.11,0,2.37,1.56,2.19,2.91-.34,6.11-1.16,7.78-3.26,1.07-1.34-2.03-2.89-3.21-4.39-1.39-1.77-2.88-3.47-4.74-5.7Zm196.36,39.72c-.17-2.53-.84-4.77-3.61-4.56-3.33,.26-5.32,2.57-5.39,5.84-.06,2.52,1.81,3.85,4.32,3.7,3.13-.19,4.56-2.13,4.69-4.98Zm43.27-160.82c2.53-.42,5.03-1.12,4.88-4.36-.12-2.53-1.57-4.57-4.27-4.66-3.22-.11-4.69,2.19-4.88,5.08-.18,2.76,1.86,3.61,4.27,3.94Zm-170.31,291.81c-.75-5.37-2.38-9.31-6.29-11.98-1.3-.89-2.85-1.39-4.14,.09-1.18,1.36-.32,2.61,.51,3.72,2.49,3.33,5.88,5.52,9.91,8.18Zm362.61-215.99c-14.43,9.06-29.64,16.52-45.56,22.58,16.62-4.63,31.88-12.01,45.56-22.58ZM412.4,331.5c-3.2,5.86-4.3,12.34-5.87,18.68-.17,.69-.17,1.64,.9,1.79,1.03,.14,1.97-.34,2.2-1.3,1.47-6.29,4.63-12.35,2.77-19.16Zm72.56,320.05c-2.32,.59-5.51,1.31-5.52,4.59-.01,2.84,3.15,3.84,5.44,3.91,3.05,.1,3.84-2.67,3.98-5.22,.12-2.22-1.22-3.35-3.89-3.28Zm-271.91,62.35c-.58-2.77-2.27-4.55-5.32-4.41-2.47,.11-4.06,1.58-3.78,4.18,.35,3.24,2.98,4.12,5.61,4.31,2.46,.17,3.37-1.66,3.48-4.08Zm260.72-56.12c-.6-1.59-.28-4.81-3.44-4.53-3.07,.27-4.35,3.32-4.7,5.97-.27,2.05,1.45,4,3.7,3.88,2.69-.14,4.52-1.77,4.43-5.32Zm12.22,127.96c-.21-2.31-1.62-4.01-4.27-4.13-2.68-.13-4.4,1.4-4.49,4.14-.08,2.75,1.66,4.22,4.25,4.51,2.95,.33,4.02-1.62,4.51-4.52Zm-259.49-42.3c-.14-2.55-1.2-4.5-4.06-4.53-2.67-.03-4.36,1.49-4.53,4.2-.19,3.14,1.82,4.42,4.61,4.5,2.65,.08,3.78-1.63,3.98-4.17Zm220.23-66.25c-2.36,.2-3.77,1.5-3.89,4.09-.13,2.64,.86,4.83,3.6,4.99,2.6,.15,4.27-1.69,4.44-4.36,.17-2.7-1.22-4.35-4.14-4.72Zm-7.42-228.57c3.41-.08,6.18,2.04,8.58,.81,3.87-1.98-.37-4.99,.18-7.57,.16-.76,.52-1.89-.98-2.38-2.4,2.82-4.85,5.7-7.78,9.14Zm-43.29-346.73c-2.07,.32-3.94,1.26-3.94,3.66,0,2.52,1.29,4.56,4.1,4.75,2.52,.18,4.24-1.07,4.25-3.76,.02-2.77-1.73-4.14-4.42-4.65Zm246.48,564.04c11.92-2.64,33.16-13.2,38.38-18.93-12.25,7.5-25.17,13.62-38.38,18.93Zm-138.65-151.51c2.24-.49,4.31-1.24,4.17-4.03-.14-2.68-2.14-3.76-4.42-3.71-2.34,.05-4.15,1.4-4.16,4.02-.02,2.88,2.28,3.26,4.42,3.72Zm164.92,198.8c-13.09,3.95-26.3,7.18-39.31,11.11,13.47-2.5,26.81-5.48,39.31-11.11Zm-88.95,121.62c-1.63,.28-3.44,1.14-3,3.1,.71,3.18,3.29,4.62,6.46,4.75,1.5,.06,2.65-.54,2.64-2.4-.02-2.47-3.3-5.55-6.09-5.45Zm-230.16-93.7c-.49-2.38-1.75-4.23-4.19-4.27-2.87-.05-3.92,2.11-3.96,4.66-.03,2.48,1.64,3.71,3.85,3.61,2.34-.11,3.92-1.55,4.3-4.01Zm95.57,5.74c-.29-2.03-.63-4.34-3.46-4.39-2.77-.04-3.51,2.16-3.68,4.38-.17,2.16,.51,4.08,3.12,4.17,2.62,.09,3.83-1.5,4.03-4.16Zm-46.22-448.74c-.96,2.9-1.72,4.89-2.26,6.94-.38,1.43-1.98,3.07-.89,4.24,1.26,1.37,3.18-.11,4.78-.38,1.03-.17,3.61-.04,2.38-2.1-1.5-2.51-1.72-5.54-4-8.69Zm-248.2,351.06c-4.48,2.15-5.64,9.6-2.46,12.33,.41,.35,1.12,.69,1.56,.57,.86-.24,.88-1.17,.88-1.92,.03-3.51,.01-7.02,.01-10.98Zm261.22-87.34c0,3.5-.07,6.25,.04,8.99,.03,.87-.17,2.93,1.3,2.06,2.09-1.24,5.53-2.31,5.3-5.01-.21-2.4-3.1-3.92-6.64-6.04ZM681.53,96.14c1.95-.29,3.72-1.17,3.62-3.71-.08-2.14-1.44-3.58-3.55-3.53-2.47,.06-4.12,1.72-4.17,4.14-.05,2.26,1.76,3.05,4.1,3.1ZM122.97,637.69c.89-3.49,2.63-6.48,2.55-10.41-2.98,1.46-5.15,3.61-8.54,3.39,2.63,1.77,2.62,5.3,5.99,7.02Zm106.83,86c-.08-2.21-1.14-3.54-3.36-3.6-2.35-.06-3.83,1.12-3.9,3.55-.06,2.19,1.39,3.6,3.34,3.73,2.28,.16,3.55-1.46,3.92-3.68Zm136.73-117.07c-.96,2.71-3.6,5.4-1.1,7.9,.98,.98,4.15,1.71,5.25-.61,1.81-3.84-2.56-4.83-4.15-7.29Zm99.21,18.54c2.14-.36,3.41-1.57,3.46-3.73,.05-2.34-1.16-3.92-3.52-4.09-2.33-.17-3.3,1.42-3.35,3.54-.05,2.32,1.18,3.73,3.41,4.28Zm-173.26,132.08c-.13-2.11-1.11-3.54-3.34-3.52-2.42,.02-3.51,1.62-3.62,3.86-.11,2.29,1.35,3.39,3.4,3.43,2.37,.04,3.62-1.32,3.56-3.77Zm253.66-202.01c.07-2.72-.85-4.09-2.9-4.03-2.29,.08-3.64,1.5-3.67,3.86-.02,1.95,.94,3.34,2.99,3.33,2.41-.01,3.5-1.55,3.58-3.16Zm-416.19,70.76c-4.51,7.48-5.36,14.81-2.33,16.78,.79-5.72,1.56-11.25,2.33-16.78Zm367.05,227.78c-.23-4.19-1.73-7.25-3.64-10.15-.75-1.14-1.88-1.76-3.14-.93-1.34,.88-.98,2.16-.19,3.22,1.96,2.65,3.72,5.5,6.97,7.86Zm-224.44-187.66c-3.51,1.02-6.76-.95-7.78,.98-1.19,2.24,.78,5.02,2.13,8.22,1.96-3.19,3.44-5.61,5.64-9.19Zm-116.8,1.37c.3-.02,.59-.04,.89-.06v-22.73c-.3,0-.59,0-.89,.01v22.77Zm233.96-87.86c-.37-.1-.74-.2-1.11-.29-1.7,6.27-3.4,12.54-5.1,18.8,.4,.11,.81,.22,1.21,.32,2.77-5.99,4.58-12.22,5-18.83Zm286.42,111.64c-8.95,4.29-18.23,7.9-27.26,12.1,9.63-2.77,18.82-6.53,27.26-12.1Zm55.05-388.8c-1.16,3.37-.4,6.54,.02,9.83,6.99-2.9,6.99-4.09-.02-9.83ZM476.65,63.45c-.04-1.94-.81-3.34-2.91-3.41-2.4-.08-3.17,1.46-3.18,3.6,0,1.89,.53,3.53,2.73,3.47,2.17-.06,3.24-1.51,3.36-3.65Zm233.91,265.11c2.25-.45,4.8-1.42,4.85-3.11,.08-2.57-2.23-4.4-4.51-5.94-2.03,3.11-.76,6.01-.34,9.05ZM353.87,152.67c-1.99,.44-4.05,1.16-4.46,3.4-.31,1.67,.92,3.11,2.72,3,2.04-.12,4.07-1,4.45-3.29,.28-1.69-.78-2.91-2.71-3.11Zm27.33,500.29c-.22-1.8-1.06-3.21-3.05-3.31-2.15-.1-3.51,1.15-3.59,3.28-.07,1.89,.95,3.24,2.98,3.35,2.21,.12,3.32-1.18,3.67-3.32Zm123.9-58.31c-.36-2.08-1.67-3.1-3.81-2.93-2.03,.16-3.01,1.43-2.88,3.38,.13,1.91,1.23,3.23,3.23,3.1,2.01-.12,3.43-1.19,3.47-3.56ZM483.06,54.62c-.03-1.52-.71-2.95-2.73-3.24-1.94-.28-3.46,.71-3.75,2.53-.34,2.19,1.32,3.33,3.28,3.61,1.73,.24,2.89-.7,3.19-2.89Zm-81.67,583.54c1.98-.31,3.05-1.45,3.07-3.41,.02-1.74-.81-3.07-2.61-3.19-1.99-.12-3.18,1.16-3.31,3.06-.13,1.91,.95,3.14,2.85,3.53Zm-10.05-54.47c-.99,3.45-1.9,6.59-2.89,10.03,2.19-.45,2.82-2.02,3.93-2.97,4.24-3.61,4.18-3.83-1.05-7.06Zm4.68-292.79c-.38-.17-.76-.34-1.14-.51-2.95,6.66-4.66,13.71-5.7,20.99,2.28-6.83,4.55-13.65,6.83-20.48Zm342.69,6.73c-.4,3.57-1.23,6.61,.95,8.99,.45,.49,3.82-1.06,3.9-2.38,.18-2.86-2.28-4.48-4.85-6.61Zm-170.25,276.6c-2.07,.1-3.24,1.24-3.39,3.1-.15,1.92,.9,3.22,2.92,3.31,1.99,.09,3.14-1,3.23-2.99,.09-1.94-.84-3.15-2.76-3.42Zm-208.69,23.34c-2.46,5.04-3.58,14.27-2.17,17.52,1.39-5.75,2.75-11.02,2.17-17.52Zm.11,17.82c4.16-3.84,5.11-9.91,2.23-13.42-.75,4.51-1.42,8.55-2.23,13.42ZM177.01,345.38c1.66-.23,2.62-1.27,2.47-3.06-.17-1.93-1.44-3.05-3.31-3.15-1.79-.1-2.95,.96-2.91,2.76,.05,2.2,1.6,3.1,3.75,3.44Zm-14.08,20.21c-.08-1.86-.88-3.35-3.01-3.23-1.72,.09-2.88,1.29-2.95,3.05-.08,2.02,1.05,3.2,3.12,3.2,1.87,0,2.81-1.06,2.84-3.02Zm238.76-158.73c-.25-1.61-.91-2.9-2.79-2.95-2.1-.05-3.05,1.3-3.1,3.16-.04,1.66,.78,3.09,2.64,3.04,1.89-.05,2.95-1.32,3.24-3.25Zm51.59,67.24c7.43,1.96,14.64,1.32,21.78-.89-7.26,1.43-14.58,.79-21.78,.89Zm-61.27,36.6c2.92-5.06,5.3-10.33,5.15-16.37-3.1,5-3.39,10.91-5.15,16.37Zm-219.7,41.97c-.07-2.05-1.24-3.17-3.11-3.37-1.83-.19-2.98,.9-2.96,2.69,.02,1.91,1.23,3.17,3.12,3.34,1.79,.16,2.86-.81,2.94-2.67Zm507.69-2.25c.79,1.17-.27,3.78,2.08,3.81,1.36,.02,3.4-1.27,3.09-3.39-.27-1.87-1.29-3.94-3.23-4.13-2.4-.24-1.36,2.18-1.94,3.71Zm-225.27-96.05c3.82,4.18,11.42,6.04,18.18,5.01-6.25-1.1-11.62-2.85-18.18-5.01Zm207.25,110.55c.51,1.59-.77,4.17,1.64,4.54,1.42,.22,3.3-1.61,3.1-3.31-.24-2.03-1.24-4.72-3.43-4.89-2.14-.17-.76,2.38-1.31,3.66Zm-352.4,61.21c.02-1.47,.19-3.38-1.36-3.07-2.37,.48-2.87,2.97-3.33,5.07-.31,1.41,.41,2.71,1.83,2.67,3.31-.1,2.05-3.17,2.86-4.67Zm388.08-94.81c-1.75,3.19-2.04,6.12-.24,8.53,1.03,1.37,2.73-.63,3.19-1.46,1.79-3.25-1.4-4.57-2.95-7.07ZM424.81,85.08c-.44,1.41,.71,3.35,1.83,3.18,2.3-.36,2.63-3.07,3.26-4.95,.51-1.51-.52-3.3-2.33-3.22-2.94,.13-1.81,3-2.76,4.99Zm-10.24,254.59c-.77,2.85-1.59,5.68-2.3,8.55-.23,.93-.98,2.26,.57,2.67,1.41,.37,2.4-.58,2.61-1.93,.48-3.06,.7-6.15-.88-9.28Zm221.2,46.85c.82,1.28-.75,4.1,2.11,4,1.32-.04,3.85-1.09,3.24-3.01-.57-1.81-1.25-4.62-3.66-4.75-2.14-.11-1.22,2.31-1.7,3.75ZM439.44,26.02c1.79-.45,2.89-1.44,2.73-3.27-.17-2.03-1.41-3.07-3.43-2.82-1.56,.19-2.51,1.19-2.43,2.84,.1,1.99,1.29,3.01,3.13,3.25Zm175.21,801.27c-1.99,.07-2.78,1.16-2.66,2.99,.11,1.56,.28,3.35,2.24,3.45,1.99,.09,3.07-1.28,2.98-3.27-.08-1.62-.64-3.02-2.56-3.16ZM454.07,55.39c-.14,1.73,.54,2.53,2.14,2.31,1.81-.25,3.94-.27,4.06-2.79,.08-1.61-1.1-2.47-2.63-2.67-2.48-.32-3.06,1.49-3.57,3.15Zm-59.15,58.55c-.3-1.89-1.44-2.52-2.97-2.3-2.05,.29-3.98,.98-3.83,3.59,.09,1.43,1.11,2.25,2.53,1.86,1.83-.5,3.99-.75,4.26-3.14Zm-132.84,262.44c-2.34,1.22-3.01,3.19-4.08,4.83-1.2,1.84,.08,2.91,1.5,3.62,1.77,.89,2.06-.71,2.39-1.82,.61-2.04,1.01-4.12,.19-6.62Zm131.35,104.2c-2.49,2.91-1.62,5.75-1.48,8.45,.03,.5,.52,1.22,.97,1.4,.86,.34,1.38-.38,1.75-1.08,1.57-2.99,.46-5.6-1.24-8.77Zm262.08-113.43c-1.71,3.19-1.6,5.36-1.46,7.52,.13,1.92,.86,2.5,2.62,1.22,4.81-3.5-.36-5.18-1.16-8.74ZM90.76,582.34c-5.46,3.66-5.77,5.41-2.24,10.93,.75-3.68,1.4-6.84,2.24-10.93ZM394.5,223.12c-1.85,.18-2.76,1.26-2.83,3.02-.07,1.8,.72,2.99,2.67,2.96,1.82-.03,2.87-.99,2.85-2.86-.02-1.75-.87-2.88-2.69-3.12ZM462.94,41.9c-1.87,.11-3.08,1.1-3.21,3.1-.09,1.55,.57,2.84,2.3,2.78,1.91-.07,3.11-1.34,3.37-3.19,.24-1.65-.68-2.58-2.47-2.68Zm-35.39,334.8c-2.57-1.09,.84-5.11-2.48-5.22-1.73-.06-4.11,2.01-3.76,3.51,.67,2.87,3.74,1.48,6.24,1.71Zm-216.76-42.46c-2.38,3.13-3.17,5.55-3.35,8.17-.07,.97,.3,1.84,1.43,2.01,1.13,.17,1.67-.53,1.95-1.49,.74-2.51,.67-5.01-.03-8.69Zm169.63-167.09c-1.8,.36-2.89,1.29-2.68,3.2,.16,1.44,.54,2.97,2.39,2.79,1.9-.18,3.14-1.36,3-3.43-.11-1.64-1.16-2.44-2.7-2.56Zm6.49,69.05c-.22-1.86-1.23-3.14-3.2-3.08-1.51,.04-2.58,1.03-2.49,2.68,.11,1.97,1.41,3.09,3.25,3.15,1.58,.06,2.4-1.09,2.45-2.76Zm9.19,12.4c-.18-1.68-.97-2.88-2.85-2.87-2.01,.01-2.52,1.38-2.47,3.1,.06,1.78,.9,3.01,2.75,2.97,1.91-.04,2.5-1.46,2.57-3.21Zm37.31,198.51c.36,.51,.71,1.02,1.07,1.52,4.56-2.31,7.22-6.64,9.81-11.07-3.63,3.18-7.26,6.36-10.89,9.55Zm-273.77,248.16c1.44-.06,2.38-.9,2.42-2.55,.05-1.73-.58-3.08-2.56-3.13-1.61-.04-2.7,.83-2.77,2.46-.07,1.75,.88,2.88,2.9,3.22ZM745.86,297.57c.88,.95-1.03,3.59,1.92,3.54,1.19-.02,3.1-.7,2.75-2.46-.38-1.91-1.3-4.36-3.25-4.64-1.87-.28-.9,2.1-1.41,3.56Zm-386.98,484.04c-.2-1.54-.87-2.86-2.39-3.06-1.67-.22-2.43,1.12-2.68,2.57-.25,1.49,.19,3.02,1.83,3.2,1.73,.19,2.64-1.23,3.24-2.71Zm365.24-468.46c.87,1.19-.7,3.95,2.03,4.04,1.21,.04,3.4-1.21,2.8-2.88-.6-1.68-1.32-4.17-3.58-4.31-1.57-.1-1.04,1.83-1.26,3.15Zm-354,153.12c-1.26,3.3-2.24,5.67-2.11,8.32,.04,.89,.33,1.89,1.58,1.89,1.17,0,1.66-.78,1.68-1.79,.04-2.42,.54-4.9-1.14-8.42Zm-156.3-97.69c-.43-1.84-1.47-3.03-3.4-3.09-1.37-.04-2.47,.64-2.41,2.11,.08,1.84,1.14,3.2,3.06,3.36,1.54,.12,2.53-.79,2.75-2.38ZM453.02,45.54c-.17-1.81-1.19-2.78-3.03-2.69-1.35,.06-2.48,.72-2.37,2.26,.12,1.71,1.18,2.94,2.88,3.13,1.75,.19,2.35-1.12,2.52-2.7Zm16.12,707.93c-1.91,.22-2.64,1.29-2.53,2.88,.1,1.47,.65,2.91,2.37,2.88,1.89-.04,2.57-1.46,2.56-3.2,0-1.71-.96-2.5-2.4-2.56Zm-279.13-14.11c-.32-1.37-1.16-2.57-3.04-2.33-1.64,.2-2.37,1.46-2.24,2.95,.14,1.71,1.13,2.9,3.03,2.61,1.56-.23,2.36-1.28,2.25-3.23Zm186.55-10.96c1.56-.38,2.63-1.28,2.56-2.83-.08-1.82-1.3-2.66-3.1-2.53-1.78,.12-2.3,1.24-2.08,2.84,.22,1.54,1.04,2.47,2.62,2.53Zm39.01-239.94c-1.24,4.58-.36,7.64,2.71,10.58,.61-4.02,.11-7.16-2.71-10.58Zm-30.34-380.36c-.18-1.55-1.22-2.12-2.55-2.03-1.96,.13-3.04,1.35-3.09,3.28-.04,1.51,.85,2.24,2.37,1.93,1.74-.36,3.18-1.1,3.27-3.17Zm260.43,276.81c1.68-1.68,5.09-1.24,4.04-4.67-.4-1.3-1.69-3.58-3.09-2.69-2.43,1.56-1.22,4.41-.94,7.36Zm-392.08,9.39c-1.66,.2-3,.87-2.97,2.75,.03,1.69,1.23,2.31,2.79,2.23,1.51-.07,2.7-.67,2.73-2.38,.04-1.65-.99-2.42-2.55-2.6ZM386.42,105.48c1.45-.69,2.27-1.96,2.18-3.61-.07-1.4-.98-2.3-2.48-2.08-1.6,.23-2.47,1.38-2.41,2.9,.06,1.48,.89,2.58,2.71,2.78Zm-5.76,368.11c-.99,2.87-2.66,4.55-1.54,6.91,.36,.77,.36,2.07,1.6,1.92,1.01-.12,1.48-1.12,1.49-2.07,.03-2.01-.17-4.01-1.55-6.77Zm-165.87-113.31c1.68,0,2.65-.76,2.68-2.16,.04-1.48-.73-2.8-2.32-2.94-1.58-.14-2.63,.86-2.67,2.47-.04,1.6,.9,2.52,2.31,2.63Zm287.64,371.45c.03-1.66-.79-2.69-2.35-2.8-1.34-.1-2.35,.68-2.47,2.11-.13,1.52,.56,2.77,2.11,3.01,1.63,.26,2.45-.82,2.71-2.32Zm-202-22.68c-.32-1.27-.96-2.44-2.64-2.33-1.62,.11-2.44,1.2-2.31,2.77,.12,1.47,.83,2.63,2.55,2.57,1.77-.07,2.09-1.43,2.4-3.01Zm175.74-304.22c-1.6,.17-2.67,.97-2.53,2.67,.14,1.65,1.31,2.43,2.9,2.29,1.37-.12,2.38-.95,2.33-2.4-.06-1.6-1.04-2.5-2.7-2.56Zm5.01,115.95c-.15-1.32-.62-2.39-2.18-2.33-1.68,.06-2.44,1.14-2.34,2.69,.09,1.38,.46,2.88,2.34,2.61,1.57-.23,2.19-1.43,2.18-2.97ZM171.25,315.66c-.57,1.58-1.03,2.65-1.34,3.77-.35,1.26-.12,2.49,.92,3.33,.39,.32,1.31,.5,1.66,.26,1.26-.85,.65-2.2,.53-3.35-.12-1.2-.28-2.44-1.78-4Zm500.31,43.65c.33,1.17-.44,3.21,1.63,3.05,1.08-.08,2.91-.81,2.52-2.69-.29-1.38-1.06-2.78-2.6-2.96-2.07-.24-1.28,1.57-1.55,2.6ZM153.23,647.76c.06,5.79-1.61,11.55,.05,17.25,1.24-5.78,.44-11.55-.05-17.25Zm206.9-185.05c-1.77,2.35-3.67,3.73-2.3,6.26,.49,.91,1.63,1.58,2.28,.94,1.93-1.91,1.05-4.11,.01-7.2Zm267.19,293.9c4.3,2.61,9.27,1.64,14.2,1.24-4.73-.41-9.46-.83-14.2-1.24Zm28.26-352.06c-1.83,.33-2.64,1.76-3.19,3.37-.38,1.11,.16,1.89,1.31,1.64,1.71-.36,3.06-1.4,3.46-3.2,.23-1.04-.4-1.7-1.58-1.82Zm-377.82-2.48c1.87-.43,1.96-2.07,2.19-3.53,.15-.95-.17-2.08-1.31-1.97-1.77,.18-2.53,1.73-2.8,3.22-.2,1.09,.65,1.97,1.92,2.28Zm78.09,237.23c1.21-.59,2.2-1.45,2.3-2.99,.09-1.44-.64-2.35-2.06-2.5-1.55-.17-2.25,.77-2.22,2.2,.03,1.35,.12,2.78,1.99,3.29Zm133.24,199.88c-1.52-.42-2.08-.67-2.64-.71-1.94-.13-3.18,1.02-4.16,2.5-.35,.53-.43,1.33,.23,1.64,1.8,.84,2.65-1.11,4.04-1.57,.66-.22,1.19-.84,2.53-1.85ZM356.37,75.29c-.14-1.37-.89-2.3-2.26-2.38-1.46-.08-2.19,.89-2.24,2.28-.05,1.6,.78,2.7,2.39,2.64,1.38-.06,2.01-1.17,2.11-2.54Zm295.91,755.12c-.35-1.59-1.47-2.24-2.98-2.25-1.33,0-2.53,.45-2.35,2.07,.18,1.63,1.52,2.24,2.94,2.35,1.42,.11,2.26-.69,2.39-2.17ZM406.57,107.02c1.36-.25,2.49-.86,2.47-2.33-.02-1.43-.95-2.24-2.45-2.14-1.4,.1-2.47,.88-2.49,2.27-.02,1.44,1.1,2.09,2.47,2.2Zm-65.7,41.11c-.22-1.48-1.04-2.19-2.55-1.93-1.62,.28-2.37,1.37-2.38,2.94,0,1.66,1.08,2.1,2.49,1.88,1.61-.24,2.37-1.29,2.44-2.89Zm-13.33-11.99c.05-1.59-.98-2.22-2.26-2.45-1.49-.27-2.35,.57-2.56,1.97-.2,1.38,.36,2.53,1.83,2.69,1.54,.17,2.62-.65,2.99-2.21Zm361.76,203.43c-.74,2.99-.95,5.13,1.1,6.84,.73,.62,1.6-.05,1.9-.7,1.31-2.85-1.16-3.88-3-6.14Zm-358.06,281.53c1.25-3.62,2.24-7.25,.27-11.05,.3,3.7-1.94,7.27-.27,11.05Zm-28.4,208.14c-1.67-.12-2.76,.6-2.67,2.29,.07,1.32,1.16,1.66,2.34,1.47,1.4-.22,2.93-.71,3.02-2.26,.09-1.7-1.56-1.41-2.68-1.51ZM386.36,246.76c-1.33,.23-2.12,1.07-1.95,2.54,.18,1.64,1.23,2.45,2.86,2.37,1.35-.07,1.88-.95,1.78-2.21-.13-1.55-.82-2.64-2.69-2.71ZM109.78,642.66c-.32-.92-.63-2.17-2.18-2.27-1.53-.1-2.39,.95-2.42,2.23-.04,1.48,.91,2.79,2.47,2.82,1.34,.03,2.15-1.02,2.13-2.78Zm38.19,45.49c-.23-1.36-.95-2.26-2.46-2.16-1.53,.1-2.14,1.14-2.07,2.52,.07,1.47,.98,2.24,2.43,2.16,1.52-.08,2.09-1.08,2.09-2.53ZM466.15,62.75c-.05-1.48-.8-2.32-2.3-2.29-1.26,.02-2,.78-2.11,2.02-.13,1.46,.6,2.45,2.04,2.54,1.45,.09,2.23-.83,2.36-2.28ZM246.57,436.76c-1.4,.21-2.31,.98-2.17,2.4,.13,1.32,.93,2.3,2.44,2.06,1.25-.19,2.47-.76,2.24-2.28-.19-1.28-1.13-2.1-2.51-2.18Zm72.04-1.75c-1.6,1.34-3.31,2.53-1.81,4.86,.45,.7,1.6,1.6,2.25,.72,1.29-1.73,1.07-3.67-.44-5.57Zm88.83-171.33c.12-1.4-.33-2.46-1.81-2.63-1.41-.16-2.32,.63-2.47,2.02-.12,1.15,.42,2.11,1.62,2.34,1.37,.26,2.3-.37,2.66-1.74Zm-1.27,19.98c-.16-1.1-.38-2.29-1.75-2.22-1.6,.09-2.46,1.17-2.27,2.76,.12,1.04,.55,2.25,1.8,2.3,1.86,.07,1.91-1.56,2.23-2.84Zm18.64,57.19c-1.34-.02-2.02,.71-2.15,1.93-.12,1.16,.22,2.22,1.52,2.46,1.55,.28,2.36-.68,2.42-2.07,.05-1.13-.56-2.06-1.79-2.32Zm55.12,5.43c-.06-.29-.13-.59-.19-.88-4.06,1.35-8.13,2.71-12.19,4.06,1.02,.4,1.94,.36,2.78,.08,3.21-1.05,6.4-2.17,9.6-3.26Zm-69.7-43.55c-1.26,.15-1.9,1-1.81,2.19,.1,1.34,.79,2.36,2.37,2.23,1.28-.11,2.02-.95,1.92-2.15-.11-1.34-.94-2.25-2.48-2.28Zm-163.24,126.13c.17,1.22,.74,2.09,2.04,2.04,1.26-.05,1.98-.88,1.99-2.1,.01-1.14-.44-2.21-1.76-2.28-1.55-.09-2.06,1.03-2.27,2.34Zm40.55-329.09c-1.53,.19-2.12,1.29-2.33,2.53-.21,1.29,.55,2.09,1.84,2.06,1.59-.04,2.66-.89,2.57-2.57-.06-1.2-.88-1.9-2.08-2.02Zm371.33,737.17c-1.11,.23-2.25,.67-2.11,1.97,.15,1.41,1.43,1.95,2.7,2.03,1.28,.08,2.06-.76,1.98-1.99-.09-1.48-1.17-2.02-2.57-2.01Zm-45.79-179.02c.27,1.28,.81,2.76,2.2,2.51,1.36-.25,1.31-1.92,1.33-3.16,.01-.98-.24-1.97-1.46-1.93-1.56,.06-1.97,1.24-2.07,2.58Zm-72.99,171.88c-.12-1.26-.73-2.25-1.98-2.07-1.48,.21-1.67,1.66-1.81,2.88-.12,1.06-.15,2.45,1.42,2.25,1.61-.2,1.88-1.82,2.37-3.06Z"/>
  <path d="M485.8,122.78c11.09,.02,20.87,9.68,20.6,20.34-.23,8.95-7.56,14.86-16.36,13.21-10.94-2.06-18.75-15.01-15.51-25.69,1.54-5.05,5.57-7.86,11.27-7.85Zm-3.09,15.11c3.08,.15,6.38-3.1,6.27-6.02-.1-2.62-1.46-4.59-4.2-4.55-3.5,.05-5.22,2.52-5.51,5.71-.24,2.54,1.05,4.42,3.44,4.86Z"/>
  <path d="M586.91,103.37c-.09,6.07-4.63,10.99-10.61,11.49-10.88,.91-20.96-11.07-18.24-21.68,1.02-3.98,3.49-6.5,7.49-7.39,9.89-2.18,21.5,7.4,21.35,17.57Zm-19.93-13.26c-2.32,.69-5.79,.54-5.89,4.27-.07,2.59,1.98,4.33,4.59,4.21,2.86-.13,5.78-1.17,5.85-4.66,.05-2.39-1.66-3.88-4.56-3.82Z"/>
</svg>