<?xml version="1.0" encoding="UTF-8"?>
<svg id="Layer_1" data-name="Layer 1" xmlns="http://www.w3.org/2000/svg" viewBox="0 0 864 864">
  <path d="M305.2,815.31c.98,1.15,1.24,2.27,.78,3.89-2.86,10.02-8.04,18.57-16.61,24.52-14.01,9.72-29.58,15.68-46.64,17.33-6.48,.62-6.64,.29-5.77-5.97,.29-2.05,.64-4.1,.96-6.15,.17-1.06,1.07-2.29,.05-3.13-.99-.82-2.09,.15-3.08,.56-8.67,3.66-16.98,8.17-25.99,11.04-6.57,2.09-13.17,3.79-20.11,4.14-3.63,.19-5.99-.49-5.34-4.87,.67-4.48-1.44-4.69-5.01-3.4-7.05,2.55-13.8,5.87-21.05,7.94-3.66,1.05-4.7-.06-4.04-3.59,.63-3.41,.78-6.95,2.91-10.34,1.92,2.07,3.47,4.08,5.35,5.71,2.64,2.28,4.41,1.29,4.9-1.97,.46-3.07-.1-6.09-1.4-8.88-1.1-2.36-1.22-4.25,1.51-5.46,.14-.06,.26-.18,.39-.28,9.8-7.62,15.21-15.43,11.2-29.75-6.97-24.88-8.24-50.71-3.07-76.42,2.69-13.4,7.1-26.11,15.99-36.85-18.1,40.54-14.73,79.99,4.17,118.71,.66-.08,1.31-.16,1.97-.24-1.62-3.67-3.43-7.27-4.83-11.03-4.37-11.78-6.31-24.09-7.24-36.54-1.52-20.36-.66-40.51,5.67-60.18,4.69-14.59,13.05-25.14,29.02-27.84,2.16-.37,2.87-1.36,2.65-3.59-1.01-10.37-.96-20.75,.42-31.08,.36-2.68-.84-4.08-2.78-5.52-15.28-11.41-36.84-10.07-50.47,3.35-13.11,12.91-18.95,29.3-21.73,46.99-.93,5.95-1.1,12.02-1.67,18.54-1.82-1.04-2.36-2.72-3.17-4.08-9.62-16.02-19.26-32.04-31.01-46.65-5.62-6.99-11.69-13.57-18.75-19.12-10.45-8.21-20.38-8.58-31.25-.9-10.14,7.17-17.77,16.93-25.96,26.1-1.56,1.74-3.13,3.48-5.57,6.19,.8-11.78,2.54-22.07,4.51-32.33,5.17-26.85,13.43-52.65,27.59-76.17,14.61-24.25,33.84-43.96,59.14-57.3,33.14-17.48,64.51-14.29,94.27,8.02,12.94,9.7,23.55,21.51,32.18,35.15,.83,1.3,1.23,3,3.44,3.86,3.06-7.52,6.12-15.02,9.18-22.52,6.51-15.97,13.02-31.92,18.05-48.45,3.73-12.27,2.96-24.61,1.52-37.04-.37-3.17-2.58-2.7-4.6-2.72-15.67-.21-31.26-1.27-46.8-3.42-30.39-4.19-59.39-12.41-85.48-29.08-14.56-9.3-27.5-20.34-35.74-35.96-6.1-11.57-7.34-23.64-3.49-36.2,2.26-7.35,5.22-14.4,8.76-21.22,8.14-15.71,12.94-32.19,12.47-50.11-.18-6.67,.48-13.42,1.36-20.06,.63-4.7-.55-8.05-3.87-11.46-13.51-13.89-24.16-29.73-31.03-47.93-4.37-11.57-7.34-23.49-7.05-35.98,.09-3.77-.13-8.28,3.9-10.14,4.19-1.94,7.21,1.62,10.02,4.04,7.44,6.4,12.91,14.56,18.98,22.16,7.4,9.27,15.29,18.05,24.93,25.06,2.22,1.62,2.66,3.04,1.53,5.58-2.83,6.34-5.35,12.82-7.52,19.51,3.84-3.22,6.65-7.16,8.76-11.55,2.93-6.07,6.15-11.96,10.58-17.03,2.5-2.86,2.41-4.75-.22-7.58-10.66-11.48-20.91-23.29-29.14-36.73-11.46-18.71-17.57-38.88-17.09-60.93,.1-4.38,.89-8.59,2.94-12.47,2.59-4.91,5.49-5.43,9.36-1.58,1.8,1.79,3.46,3.8,4.8,5.95,15.13,24.13,36.16,42.41,58.65,59.23,5.23,3.91,10.29,9.82,16.38,10.31,5.79,.47,11.95-3.64,17.94-5.75,16.13-5.69,32.48-10.64,49.25-14.03,3.77-.76,4.39-2.33,4.24-5.8-1.14-27.38,1.28-54.28,11.99-79.87,4.27-10.19,9.33-19.98,16.79-28.3,1.27-1.42,2.62-2.85,4.18-3.91,4.86-3.33,8.75-1.68,9.54,4.12,.5,3.63,.92,7.34,.71,10.98-1.75,30.14,4.46,59.09,12.71,87.77,.88,3.06,1.53,6.18,2.29,9.26-1.48-1.18-1.84-2.96-2.43-4.58-7.07-19.53-13.74-39.17-15.07-60.14-.08-1.26,0-2.93-1.67-2.96-1.92-.04-1.43,1.76-1.46,2.92-.05,2.07-.14,4.18,.18,6.22,.57,3.61-.74,6.01-3.73,8.03-2.13,1.44-4.65,2.75-5.72,5.62,3.08,.75,5.53-.64,8.11-1.31,1.03-.27,2-.88,2.8,.64,2.12,4.02,.93,9.39-2.85,12.17-.64,.47-1.34,.91-1.87,1.49-1.83,2.05-5.34,3.71-3.86,6.94,1.48,3.25,5.06,4.15,8.56,4.23,.94,.02,1.95-.13,2.81-.48,2.25-.89,3.04-.05,3.53,2.18,.78,3.58,1.86,7.1,2.98,10.59,1.42,4.43,3.24,8.69,6.66,12.02,.52,.51,1.39,1.04,2.03,.95,1.38-.18,.82-1.43,.86-2.31,.03-.79,.02-1.58,.02-2.38,1.18,2.59,3.2,3.46,6.03,3.75,11.13,1.11,22.23,2.59,33.07,5.36,5.18,1.32,8.2-.03,11.03-4.48,11.62-18.24,18.16-38.27,21.73-59.42,1.46-8.65,2.24-17.43,4.74-25.89,1.28-4.33,3.01-8.45,5.97-11.9,3.02-3.53,6.05-3.6,9.46-.41,3.27,3.05,4.86,7.16,6.34,11.16,11.62,31.3,15.71,63.39,9.74,96.49-.58,3.23-2.81,7.96-.37,9.47,3.26,2.02,5.9-2.65,8.48-4.7,23.52-18.61,39.71-42.55,50.67-70.28,2.7-6.82,5.62-13.59,9.77-19.71,1.63-2.41,3.41-4.92,6.73-4.69,3.52,.24,4.37,3.36,5.45,5.98,2.08,5.07,2.8,10.46,3.49,15.86,.24,1.89-.07,2.81-2.4,2.86-2.68,.06-5.25,1.14-7.59,2.84,1.84,2.03,4.05,.98,5.89,.7,3.7-.57,4.6,.82,4.69,4.34,.59,24.92-4.25,48.55-15.86,70.74-6.87,13.13-15.1,25.28-25.82,35.49-3.98,3.79-3.77,6.91-1.82,11.26,6.99,15.6,13.38,31.45,17.72,48.03,6.69,25.61,8.61,51.38,.86,77.09-8.01,26.59-24.85,46.85-46.9,63.08-16.09,11.85-34.47,19.33-52.65,27.15-25.74,11.07-52.69,18.45-79.67,25.72-1.37,.37-2.72,.83-3.94,2.03,2.5-.45,4.98-.97,7.49-1.32,1.68-.23,3.86-1.57,4.35,1.69,.14,.94,1.31,.71,2.06,.61,12.63-1.77,25.49-1.97,37.86-5.6,2.93-.86,4.8-2.08,5.01-5.37,.15-2.29,1.04-3.97,3.67-4.87,20.14-6.94,39.18-16.3,57.73-26.71,.54-.3,1.17-.45,2.17-.83-.12,3.2-1.49,5.72-2.48,8.31-7.16,18.69-13.3,37.6-15.19,57.71-2.18,23.29,2.36,45.07,13.35,65.66,1.72,3.22,2.68,3.04,4.81,.51,12.86-15.28,25.75-30.54,40.07-44.5,31.25-30.46,64.92-57.66,103.69-78.2,34.67-18.37,71.01-24.9,109.85-17.94,37.96,6.8,74.04,18.4,106.48,39.73,13.24,8.71,24.55,19.76,36.26,31.91-7.42-.81-13.78-1.7-20.18-2.15-18.04-1.29-35.49,.55-50.99,10.95-19.08,12.8-29.71,37.88-24.61,57.8,1.64,6.4,4.68,12.18,8.05,17.83,6.13,10.28,12.18,20.62,18.14,31,1.71,2.98,3.01,6.21,5.07,10.51-7.33-5.17-13.39-9.72-19.7-13.87-17.51-11.51-35.36-22.4-55.57-28.69-6.89-2.14-13.93-3.48-21.14-3.93-18.31-1.15-32.34,5.52-41.21,22.08-9.13,17.05-13.33,35.47-15.51,54.48-.3,2.65-.55,5.32-.96,9.35-6.46-8.79-12.62-16.23-19.46-23.08-19.97-20-43.58-33.22-71.6-37.94-10.64-1.79-20.99-.33-30.92,4.02-3.53,1.55-4.19,2.99-.99,5.93,14.48,13.33,28.08,27.42,38.77,44.16,11.34,17.76,18.38,37.12,22.91,57.54,.35,1.56,.95,3.11,.99,4.68,.29,10.88,7.29,16.7,15.51,22.3,30.81,20.99,62.41,21.15,94.54,3.88,19.36-10.4,35.57-24.41,45.19-44.75,11.59-24.49,8.28-47.43-7.61-68.95-1.39-1.88-3.25-3.47-4.12-6.52,8.04,1.16,13.95,4.94,18.68,10.86-1.25-.04-2.56-.3-3.75-.06-1.55,.32-2.48,1.52-2.15,3.18,.39,1.95,1.71,3,3.72,2.99,1.71,0,2.74-1.08,2.8-2.65,.04-1.2-.51-2.43-.8-3.64,8.88,7.06,14.22,16.69,18.66,26.75,12.54,28.43,11.7,57.45-.78,85.13-30.87,68.5-83.96,108.84-158.46,120.29-19.04,2.93-38.24,1.9-57.38,.7-4.04-.25-6.25,.94-8.38,4.42-10.16,16.58-24.54,27.98-43.33,33.34-8.56,2.44-9.11,1.74-11.18-6.97-.73-3.08,.36-7.9-2.14-8.88-2.67-1.04-4.56,3.57-7.05,5.42-10.01,7.45-20.52,13.48-33.43,14.09-3.54,.17-5.52-.74-5.23-4.65,.09-1.26-.17-2.55-.18-3.82-.06-6.69-.02-6.64-6.35-3.56-7.46,3.62-14.82,7.51-22.96,9.48-6.77,1.64-7.02,1.41-6.94-5.63,.02-1.88,.16-3.75,.24-5.72,2.23,.16,2.7,1.99,3.88,2.93,1.27,1.01,2.48,2.24,4.24,1.33,1.66-.85,1.89-2.54,1.73-4.16-.14-1.41-.34-2.92-.97-4.15-1.86-3.61-2.43-7.18-.58-10.96,.41-.83,.8-2.01-.24-2.54-1.02-.52-1.85,.43-2.27,1.26-1.03,2.03-2.46,2.47-4.7,2.13-20.62-3.08-40.65-8.19-59.77-16.67-2.66-1.18-4.79-3.11-7.37-4.34-6.11-5.35-12.82-9.96-18.56-15.76-17.41-17.63-31.43-37.72-43.29-59.38-1.76-3.22-3.52-6.44-5.25-9.68-1.72-3.21-3.4-6.45-5.1-9.67-.56,.79-.56,1.27-.4,1.69,10.65,27.76,25.64,52.78,47.05,73.63,7.64,7.44,15.43,14.79,25.19,19.56Zm12.54-346.99c4.47,0,8.95,.18,13.41-.04,10.85-.52,21.69-1.14,32.13-4.66,2.57-.87,4-2.13,4.33-4.94,.9-7.61,1.84-15.22,3.12-22.77,.66-3.88-.61-4.57-4.22-4.28-11.94,.98-23.89,1.82-35.86,2.31-3.18,.13-4.84,1-6.17,3.88-23.17,50.13-42.62,101.56-55.25,155.43-.48,2.06-.94,4.1-.13,6.12,3.45,8.53,3.12,17.13,.87,25.87-.54,2.11-.68,4.52-.26,6.64,.74,3.73-1.63,5.59-3.79,7.68-.51,.5-1.52,1.28-1.32-.44,.2-1.79-.72-1.6-1.46-.75-2.32,2.67-4.78,2.77-7.71-.08,.52,3.25,1.34,5.49,2.6,7.54,.85,1.37,1.86,2.5,3.82,2.35,15.79-1.2,31.61-.45,47.41-.84,1.92-.05,3.84,0,5.76,0-15.07,2.79-30.17,4.05-45.36,3.33-4.2-.2-5.61,1.3-6.14,5.16-1.67,12.31-1.72,24.64,.93,36.72,11.49,52.3,39.92,93.35,83.42,124.24,2.06,1.46,3.99,1.39,6.3,.88,5.51-1.21,11.06-2.32,17.49-1.86-3.58,4.34-8.88,4.23-12.37,7.66,5.9,3.35,11.98,5.13,18.27,6.31,1.27,.24,2.6,.44,3.31-1.08,2.42-5.17,7.07-9.72,4.27-16.34-.66-1.57-.83-3.46-.78-5.19,.13-4.62-1.98-4.41-5.3-2.93-6.17,2.75-12.63,4.6-19.37,5.52,7.25-2.99,14.48-5.91,20.84-10.58,1.89-1.39,3.34-2.79,3.41-5.37,.46-18.56,4.79-36.39,10.89-53.77,9.22-26.3,20.67-51.29,44.79-68.64-3.89,.44-6.68,2.23-9.35,4.13-17.95,12.73-28.61,30.73-35.74,50.93-4.97,14.08-8.82,28.55-13.32,43.33-.62-5.25-.66-5.34-5.51-3.27-8.4,3.58-17.07,6.33-25.87,8.65-7.05,1.86-14.14,3.67-21.48,4.09,4.53-1.6,9.17-2.76,13.74-4.12,11.03-3.27,22.06-6.58,32.31-11.89,2.89-1.5,6.62-2.58,7.47-6.25,2.4-10.27,5.04-20.46,8.89-30.29,.81-2.07-.3-3.25-1.73-4.46-1.57-1.32-2.83-.66-4.33,.16-3.21,1.77-6.46,3.5-9.8,5-18.39,8.23-37.52,14.51-56.55,21.04-.64,.22-1.36,.74-2.21-.28,8.94-3.72,17.77-7.39,26.59-11.06,12.69-5.28,25.21-10.88,37.17-17.7,3.08-1.76,4.15-3.18,1.62-6.51-4.59-6.01-7.71-12.92-9.7-20.19-1.04-3.78-2.54-3.93-5.74-2.72-13.01,4.9-26.31,8.92-39.79,12.33-11.58,2.93-23.2,5.68-35.12,7.02,1.41-.72,2.9-1.17,4.4-1.55,23.72-5.95,47.16-12.76,69.74-22.29,2.94-1.24,4.23-2.62,3.41-6.04-1.05-4.33-1.58-8.8-2.14-13.23-.76-6.05-1.33-12.13-1.98-18.16-2.7,.13-1.2,3.7-3.75,3.75-5.67,.12-11.34,.45-17.01,.5-10.66,.08-21.33,.02-31.99,.02,1.53-.9,3.08-.96,4.63-1.1,12.09-1.06,24.24-1.62,36.2-3.81,4.42-.81,4.87-2.19,2.11-5.66-1.79-2.24-3.93-4.21-5.65-6.51-4.53-6.04-3.79-11.22,2.27-15.65,2.96-2.16,6.13-4.05,9.31-5.89,2.02-1.17,2.91-2.6,2.82-5.02-.26-6.86-.41-13.74-.35-20.6,.03-3.16-.85-4.18-4.16-3.72-16.3,2.25-32.66,4.01-49.09,4.96-10.48,.61-20.95,.51-31.42-.02,5.1-.64,10.2-.92,15.29-1.3,21.83-1.63,43.59-3.86,65.06-8.36,3.11-.65,4.2-1.93,4.14-5.11-.19-9.26-.19-18.54,0-27.8,.06-3.19-1-3.67-3.92-3.25-9.48,1.37-18.99,2.6-28.51,3.64-13.57,1.48-27.19,2.4-40.86,2.09,3.12-.67,6.27-1.05,9.42-1.4,20.01-2.24,39.96-4.76,59.57-9.54,3.11-.76,4.51-1.95,4.51-5.4,0-7.34,.54-14.69,.77-22.03,.19-5.95,.15-5.89-5.68-4.97-18.72,2.94-37.46,3.52-56.2,.15,.62-.22,1.24-.25,1.86-.21,1.27,.08,2.55,.22,3.82,.29,17.71,.96,35.06-1,52.08-6.09,3.59-1.07,5.12-2.82,5.13-6.75,.02-6.38,.35-12.81,1.28-19.11,.71-4.78-.89-5.12-5.04-4.79-14.49,1.14-29.01,1.22-43.5-1.04Zm61.34-154.64c-5.8-3.56-10.51-7.22-13.22-12.98-9.22-19.59-1.86-48.67,15.67-61.47,12.03-8.78,26.02-5.15,32.19,8.4,4.78,10.5,4.77,21.36,2.12,32.34-.88,3.64-2.09,7.2-3.36,11.52,6-2.39,8.3-6.8,9.71-11.74,5.89-20.56,2.51-40.02-8.45-57.95-12.5-20.45-33.24-24.83-53.16-11.49-17.16,11.5-26.53,28.25-29.78,48.34-2.59,16-.25,31.27,9.79,44.58,8.63,11.44,24.82,15.91,38.49,10.45Zm-121.78-20.26c.83-1.15,1.77-2.23,2.45-3.46,1.23-2.23,2.51-4.47,3.41-6.84,8-21.19,3.39-40.62-9.22-58.4-11.08-15.63-26.74-18.97-43.88-10.33-21.81,10.99-36.36,37.42-34.72,62.73,.74,11.36,4.08,21.63,12.05,30,7.43,7.8,19.77,10.95,29.01,7.24-5.84-4.89-9.27-10.94-10.79-18.19-3.89-18.64,6.55-43.47,22.68-53.49,12.27-7.62,27.74-2.37,32.66,11.21,3.03,8.37,2.77,16.9,.74,25.47-1.13,4.78-3.31,9.17-4.39,14.06Zm104.01,39.88c3.84,2.76,8.22,3.67,12.58,4.41,3.04,.52,3.47,1.67,2.66,4.51-6.17,21.64-17.96,39.48-36.14,52.75-22.76,16.61-48.67,22.03-76.28,19.19-29.38-3.02-53.73-16.31-73.55-38.13-1.85-2.03-1.91-3.53-.49-5.82,1.36-2.19,2.93-4.48,2.95-7.95-5.71,4.67-9.68,10.02-13.48,15.51-.43,.62-.91,1.41-.19,2.16,.71,.74,1.52,.36,2.18-.05,.94-.59,1.97-1.18,2.64-2.03,1.97-2.47,3.38-1.86,5.09,.37,2.03,2.65,4.22,5.23,6.61,7.56,33.12,32.29,72.51,41.63,116.62,29.99,35.33-9.32,58.4-31.68,66.07-68.31,1.69-8.05,1.61-8.04,10.06-7.39,7.74,.59,15.15-.43,21.86-4.97-16.55,2.8-32.9,1.97-49.18-1.81Zm-146.05,237.58c-17.55,15.5-25.4,31.94-21.4,44.47,1.42-.77,1.03-2.21,1.2-3.38,1.93-13,7.91-23.83,17.63-32.58,5.75-5.18,5.83-5.11,11.35,.53,1.9,1.94,3.65,4.03,5.61,5.9,3.53,3.38,5.34,6.81,1.75,11.39-1.23,1.57-1.69,3.77-2.39,5.72-4.9,13.75-3.14,27.17,2.08,41.73,3.19-6.98,6.06-12.75,7.81-20.16-4.57,2.53-4.89,6.86-7.78,10.31-2.33-13.59-2.15-25.97,2.63-38.04,1.07-2.71,2.25-4.4,4.8-.41-3.71-7.89-9.38-13.65-14.24-20-3.36-4.39-3.46-4.22,1.81-6.51,5.86-2.56,12.25-3.36,18.22-5.61-7.67,.55-15.22,1.74-22.27,4.91-2.27,1.02-3.65,.87-5.38-1-7.09-7.66-15.21-14.13-24.02-19.68-19.07-12.01-39.61-17.74-61.62-10.42-35.64,11.85-56.25,39.27-71.45,71.77-.53,1.13-1.38,2.74,.82,3.53,.29-.41,.6-.77,.82-1.18,12.34-22.66,27.44-43.15,48.2-58.8,15.68-11.83,33.31-17.5,53.11-13.3,20.75,4.41,36.94,16.75,52.7,30.79Zm-42.63-422.98c3.98-2.4,6.38-5.36,8.64-8.3,1.87-2.44,3.4-2.72,5.82-.83,2.32,1.82,4.94,3.25,7.43,4.86,.23-.38,.46-.75,.69-1.13-21.09-17.04-41.67-34.68-61.74-52.97,.5,1.15,1.08,2.28,1.98,3.03,3.82,3.17,3.4,5.74-.04,9.28-4.68,4.81-8.58,10.39-12.81,15.64,.32,.28,.65,.55,.97,.83,5.34-4.41,10.08-9.44,14.72-14.61,.99-1.1,1.58-4.58,4.04-2.18,1.85,1.8,5.49,3.02,3.32,7.27-2.09,4.09-4.37,8.26-4.71,13.11,2.41-3.19,4.39-6.6,6.52-9.91,.64-1,1.11-3.17,3.08-1.49,2.3,1.96,5.32,3.65,6.49,6.18,1.07,2.29-2.66,3.41-3.94,5.29-.23,.33-.3,.78-.75,2.01,2.11-1.24,3.53-2.14,5.01-2.93,1.42-.75,2.6-2.72,4.59-1.03,1.83,1.57,2.64,3.1,1.68,5.79-1.31,3.63-1.83,7.55-2.69,11.34,1.54-.65,2.25-1.62,2.77-2.69,1.39-2.86,2.16-7.59,4.18-8.18,2.73-.8,5.2,3.44,8.14,4.86,3.79,1.84,3.14,3.91,1.25,6.76-1.88,2.84-3.85,5.74-4.65,9.99Zm353.37,318.64c6.18,.04,11.27-5.03,11.26-11.22,0-6.3-4.99-11.74-10.82-11.82-6.53-.09-12.22,5.31-12.21,11.59,0,6.15,5.42,11.41,11.77,11.45Zm-51.45-277.22c.32,4.65,2.44,8.76,3.9,13.05,7.84,23.14,15.34,46.33,16.02,71.1,.58,21.17-3.66,40.89-16.56,58.19-.34,.46-1.25,.94-.46,1.81,11.35-12.19,18.31-29.43,19.82-48.27,2.31-28.94-5.09-55.96-16.09-82.27-1.94-4.64-3.54-9.47-6.61-13.6Zm-26.88,333.86c-6-.07-11.4,4.77-11.56,10.38-.18,6.38,4.95,11.81,11.18,11.84,5.97,.03,11.21-4.95,11.27-10.7,.06-6.29-4.8-11.44-10.89-11.51Zm45.91-27.39c.05-6.41-4.8-11.5-10.88-11.43-5.96,.07-11.29,5.44-11.29,11.35,0,6.03,5.21,11.04,11.42,10.98,6.27-.05,10.7-4.55,10.74-10.9Zm73.85-59.27c6.04-.13,10.61-5.05,10.5-11.31-.11-6.25-5.4-11.65-11.16-11.39-5.82,.27-10.65,5.52-10.57,11.49,.08,6.37,5.07,11.34,11.24,11.21Zm56.47-35.44c-.04-5.88-4.87-10.7-10.71-10.67-6.09,.03-11.22,5.01-11.13,10.81,.09,6.01,5.23,11.18,10.98,11.05,6-.14,10.9-5.19,10.86-11.2Zm29.31,3.17c5.77-.09,10.27-4.99,10.09-10.99-.17-5.83-4.75-10.45-10.28-10.36-5.88,.09-10.76,4.86-10.77,10.51,0,5.97,5.01,10.93,10.95,10.84ZM429.85,42.33c-1.96,3.74-5.42,3.72-7.89,5.3-.79,.5-2.08,.88-1.78,1.92,.2,.69,1.35,1.25,2.2,1.57,2.33,.86,4.7,.04,7.18-.16,.23,1.66,.41,3.23,.67,4.78,.86,5.14,2.3,10.42-4.2,13.28-.75,.33-1.77,1.23-1.42,2.26,.54,1.57,2.16,1.09,3.31,1.12,6.73,.17,4.34,6.02,5.45,9.31,1.09,3.23-2.62,2.2-4.26,2.7-4.85,1.47-7.24,5.63-5.14,9.36,1.92,3.4,7.27,4.56,11.59,2.51,3.22-1.53,4.17-5.06,2.05-9.06-1.15-2.16-1.89-4.26-2.09-6.71-1.06-12.56-3.59-24.9-5.66-38.18ZM246.87,253.36c.09-4.92-4.45-9.54-9.36-9.51-4.97,.03-9.49,4.55-9.46,9.45,.03,4.86,4.14,8.97,9.14,9.16,5.07,.18,9.58-4.06,9.68-9.1Zm155.48-3.2c-.03-5.08-3.99-9.22-8.89-9.32-4.87-.09-9.39,4.42-9.46,9.44-.07,5.02,4.39,9.37,9.47,9.23,4.83-.13,8.9-4.42,8.87-9.35Zm-252.49,255.89c-4.84,.06-8.72,4.01-8.72,8.86,0,5.21,3.85,9.16,8.92,9.16,4.83,0,8.76-3.92,8.78-8.78,.03-4.89-4.26-9.3-8.98-9.24Zm543.16-103.99c5.55,.09,10.41-3.71,10.56-8.27,.14-4.15-3.9-7.88-8.52-7.88-5.9,0-10.94,3.84-11.04,8.4-.1,4.52,3.55,7.66,9.01,7.75Zm-321.08,212.27c4.62-5.65,9-10.46,13.92-14.75,4.78-4.17,10.28-7.38,15.27-11.21-18.9,8.01-32.95,20.83-39.7,40.68-1.29,3.8-1.69,7.79-1.53,11.82,.05,1.17,.25,2.35,1.72,2.41,1.31,.05,2.64-.35,3.43-1.4,1.09-1.47-.69-1.23-1.24-1.73-1.02-.94-.58-2.07-.34-3.13,.69-3.11,1.48-6.2,2.15-9.32,.9-4.18,4.51-6.31,6.8-9.44,1.3-1.78,1.03-2.26,9.3-2.02,.11,0,.22-.19,.32-.31-3.38-1.51-4.05-1.63-10.09-1.59Zm-256.34-83.23c.11-4.46-3.59-8.47-7.92-8.59-4.46-.12-8.63,3.99-8.61,8.5,.02,4.5,3.68,8.2,8.22,8.29,4.36,.09,8.2-3.71,8.31-8.2Zm305.24,88.49c2.01,4.66,4.1,9.19,4.52,14.17,.38,4.53,2.43,4.61,6.01,3.26,17.07-6.45,28.51-30.31,22.72-47.74-.47-1.43-.64-3.22-2.76-3.36-.95,1.31-.03,2.47,.2,3.66,3.83,19.43-4.84,35.08-19.09,44.67-2.61,1.76-3.97,1.79-4.66-1.94-.91-4.88-3.63-9.05-6.94-12.72Zm-220.53,225.34c-.08-4.16-1.4-7.76-2.3-11.45-.97-3.98-3.13-3.82-5.86-1.72-5.02,3.85-5.7,9.36-1.74,15.62,1.39,2.2,2.81,5.22,6.1,4.24,3.18-.95,3.7-4.02,3.8-6.69Zm269.03-1.2c-.42-4.24-1.93-8.25-4-12.04-1.76-3.22-3.82-2.78-5.97-.32-3.86,4.43-3.47,9.84,1.26,15.51,1.4,1.68,2.93,4.06,5.33,3.31,2.7-.85,3.19-3.69,3.38-6.45ZM313.01,26.77c-.47-.16-.94-.31-1.41-.47,1.6,8.47-3.81,10.59-9.75,12.79-4.32,1.61-8.75,3.41-12.94,7.07,8.5,2.13,15.94-.48,23.46-1.1,1-.08,1.49-1.13,1.44-2.2-.26-5.37-.54-10.73-.81-16.1Zm-97.62,327.59c-1.86-12.13,2.6-16.56,14.05-14.59,7.27,1.25,13.43,5.01,18.81,9.92,3.31,3.02,6.23,6.46,9.33,9.71-5.08-9.75-12.02-17.59-22.33-21.87-4.7-1.95-9.55-2.37-14.53-.98-8.94,2.5-11.32,9.42-5.32,17.82Zm-21.87,158.53c-.11-3.94-3.58-7.49-7.29-7.47-4.11,.02-7.3,3.64-7.08,8.02,.21,4.14,3.62,7.49,7.39,7.25,3.76-.24,7.08-3.95,6.97-7.79Zm550.83-98.02c3.9,.01,7.53-3.29,7.67-6.99,.15-3.94-3.48-7.46-7.68-7.43-3.83,.03-7.39,3.55-7.36,7.27,.04,3.96,3.31,7.13,7.37,7.14Zm-133.8,318.23c-3.53-.1-7.12,3.59-7.25,7.47-.13,3.69,2.98,7.08,6.71,7.31,3.77,.24,7.44-3.22,7.5-7.07,.07-3.92-3.26-7.61-6.96-7.72ZM390.45,162.36c-.98-7.23-6.4-11.57-15.02-12.48-9.91-1.05-22.93,3.94-24.86,9.53,16.75-7.87,27.9-7.14,39.88,2.95Zm143.42,507.67c.02-3.7-3.32-7.09-6.98-7.09-3.64,0-6.97,3.39-6.96,7.08,0,3.76,3.26,7.09,6.93,7.09,3.64,0,6.99-3.38,7.01-7.09Zm-281.3,176.9c-.29-2.58-.53-4.95-.83-7.3-.43-3.24-2.28-3.87-5.08-2.7-3.96,1.65-5.5,6.14-3.77,11.37,1,3.01,2.26,7.09,5.68,6.64,3.86-.51,3.42-5.04,4-8.02ZM439,115.03c.07-3.71-3.24-7.19-6.79-7.14-3.64,.06-7.02,3.47-6.99,7.08,.03,3.65,3.43,6.93,7.13,6.87,3.35-.06,6.59-3.37,6.65-6.81Zm-29.22,731.26c.33,2.89,2.07,5.55,4.15,7.96,1.15,1.33,2.24,3.52,4.6,2.37,2.05-1,2.83-3.05,2.75-5.19-.16-4.2-1.83-8.02-3.66-11.72-1.1-2.23-2.88-2.32-4.62-.6-1.87,1.84-2.93,4.11-3.21,7.18Zm-17.42-540.43c3.51,.02,7.05-3.25,6.73-6.59-.36-3.71-2.48-6.18-6.31-6.59-3.3-.35-6.86,3.09-6.99,6.43-.14,3.5,3,6.72,6.57,6.75Zm-101.97-139.29c.09-3.58-2.63-6.28-6.33-6.28-3.52,0-6.39,2.77-6.51,6.29-.11,3.58,2.67,6.6,6.08,6.61,3.71,.01,6.66-2.88,6.76-6.62Zm-55.03,139.74c3.41,.11,6.55-2.88,6.56-6.25,0-3.3-3.19-6.73-6.38-6.48-3.61,.28-5.87,2.34-6.18,6.07-.29,3.58,2.47,6.55,6,6.66Zm14.4-141.7c3.53-.02,6.4-2.91,6.31-6.35-.09-3.41-3.24-6.74-6.4-6.34-3.48,.44-5.86,2.41-5.99,6.19-.13,3.64,2.66,6.53,6.08,6.51Zm439.27,577.02c-.09,3.73,2.75,6.74,6.25,6.7,3.78-.05,5.92-2.15,6.3-5.82,.37-3.58-2.91-7.11-6.4-6.83-3.67,.29-5.62,2.61-6.15,5.96Zm-6.13-24.34c-3.23-.06-6,2.68-6.15,6.07-.16,3.51,2.71,6.64,6.19,6.47,3.72-.17,5.89-2.29,6.17-6.01,.26-3.44-2.73-6.48-6.2-6.54ZM78.32,564.51c-.27-3.12-2.03-5.43-5.87-5.56-3.39-.11-6.25,2.91-6.17,6.45,.07,3.61,1.65,6.14,5.52,6.47,3.24,.27,6.48-3.23,6.53-7.36Zm431.68,103.58c3.56-.52,5.87-2.42,6.12-6.1,.22-3.23-3.25-6.46-6.51-6.13-3.68,.37-5.81,2.57-5.73,6.28,.08,3.78,2.49,5.58,6.12,5.95ZM242.78,171.16c-.1-3.62-3.03-6.59-6.14-6.25-3.68,.39-5.74,2.64-5.91,6.3-.15,3.26,2.89,6.1,6.18,5.89,3.82-.24,5.59-2.56,5.88-5.94Zm413.86,593.81c-.12-3.78-3.11-6.66-6.34-6.25-3.44,.44-5.43,2.61-5.61,6.09-.17,3.3,2.86,6.31,6.1,5.98,3.66-.37,5.72-2.52,5.85-5.83ZM107.21,159.77c2.87,3.57,5.73,7.14,8.6,10.71,5.49,6.83,11.09,13.57,18.1,18.93,2.1,1.61,4.1,3.79,8.37,3.26-12.49-10.98-23.54-22.1-35.07-32.89Zm138.89-23.01c-3.31-.05-6.08,2.68-6.09,6.02-.01,3.36,2.76,6.33,5.97,6.1,3.47-.26,5.56-2.25,5.82-5.76,.26-3.36-2.5-6.31-5.71-6.35Zm274.54-37.53c-.09-3.25-3.12-6.27-6.28-5.87-3.39,.43-5.56,2.5-5.7,6.02-.13,3.23,3.06,6.27,6.12,6.2,3.28-.07,5.95-2.97,5.86-6.34Zm-168.18,37.02c8.13-.18,15.15,.7,21.81,3.38,6.5,2.62,12.38,6.33,17.56,11.19-5.42-12.49-26.82-20.53-39.37-14.58Zm132.97,17.19c-3.83-.05-9.06,3.23-8.85,5.87,.3,3.89,3.54,4.58,6.58,4.85,3.7,.34,6.62-2.7,6.73-6.48,.09-3.1-1.61-4.25-4.45-4.23Zm181.39,582.81c-.05-3.5-2.92-6.46-5.89-6.13-3.35,.37-5.65,2.2-5.82,5.84-.16,3.51,2.55,6.1,6.09,5.83,3.62-.27,5.27-2.55,5.63-5.54Zm-156.31-127.05c-.41-3.48-2.27-5.78-5.78-5.7-3.33,.07-5.65,2.01-5.86,5.61-.19,3.25,2.73,6.14,6.02,5.95,3.63-.2,5.2-2.52,5.62-5.87Zm63.97,139.81c.38,3.59,2.42,5.65,5.91,5.61,3.58-.04,5.6-2.42,5.55-5.87-.05-3.48-2.11-5.73-5.77-5.55-3.5,.17-5.41,2.29-5.69,5.8Zm-33.97-56.99c-.16-3.62-1.73-6.15-5.32-6.41-3.56-.26-5.84,1.9-6.07,5.38-.23,3.46,1.66,5.96,5.23,6.24,3.57,.27,5.55-1.89,6.15-5.22Zm-43.64-560.56c.54,3.47,2.48,5.62,6.02,5.51,3.26-.11,5.54-2.14,5.47-5.45-.07-3.35-2.03-5.84-5.69-5.77-3.48,.07-5.51,2.12-5.81,5.72Zm-269.25,25.24c3.31-.6,5.77-2.35,5.6-5.94-.17-3.46-2.45-5.71-6.01-5.44-3.44,.27-5.53,2.56-5.38,6.14,.15,3.46,2.48,4.92,5.79,5.24Zm179.99,322.93c3.61-.44,5.57-2.38,5.4-6.02-.15-3.3-1.95-5.54-5.33-5.51-3.49,.03-5.62,2.15-5.67,5.74-.06,3.68,2.2,5.37,5.6,5.78Zm316.99-75.68c2.72-.67,5.59-1.7,5.58-5.25,0-3.88-3.06-5.12-6.27-5.02-2.95,.09-5.92,1.24-5.81,4.98,.11,3.81,2.98,4.88,6.49,5.29Zm-159.62,363.44c3.45-.25,5.52-2.18,5.54-5.42,.02-3.41-1.9-5.76-5.63-5.64-3.27,.1-5.51,1.85-5.53,5.27-.02,3.58,2.22,5.38,5.61,5.79Zm-336.63-212.8c3.13-.56,5.53-2.06,5.48-5.8-.05-3.54-2.28-5.12-5.56-5.11-3.22,.02-5.61,1.53-5.71,5.03-.11,3.65,2.17,5.36,5.8,5.87Zm62.12-405.89c-.25-3.02-1.85-5.31-5.21-5.46-3.3-.14-5.53,1.83-5.66,5.18-.13,3.32,1.8,5.46,5.19,5.67,3.44,.21,5.26-1.74,5.68-5.39Zm-83.62,379.56c-2.93,.28-5.72,1.14-5.67,4.83,.05,3.87,3.03,4.96,6.22,5,3.18,.03,5.73-1.52,5.53-5.05-.19-3.42-2.72-4.72-6.08-4.78Zm559.83-106.81c3.52,.12,6.44-2.09,6.67-4.71,.25-2.85-2.9-5.62-6.44-5.57-2.86,.04-5.12,1.21-5.17,4.34-.06,3.44,1.77,5.63,4.95,5.94ZM265.83,157.84c3.36-.22,5.51-2.07,5.61-5.34,.09-3.24-1.78-5.61-5.27-5.48-3.26,.12-5.37,2.11-5.35,5.53,.02,3.16,1.78,4.98,5.01,5.29Zm282.24,520.96c-.28-3.26-1.89-5.48-5.28-5.5-3.19-.02-4.97,2.16-5.04,5.19-.07,3.12,1.9,5.14,4.97,5.25,3.08,.11,4.92-1.77,5.35-4.94Zm166.7,42.73c-.46-3.09-2.21-5.07-5.3-5.08-3.19,0-4.96,2.15-4.99,5.21-.03,3.21,2.03,5.04,5.14,4.99,3.1-.06,4.85-1.98,5.15-5.12Zm-325.86-68.25c-.46-4.17,1.7-7.37,3.31-10.74,.39-.83,1-1.77,.1-2.6-.7-.64-1.43-.2-2.13,.23-3.68,2.26-6.49,11.79-4.62,15.57,.85,1.71,1.93,2.6,3.68,1.21,2.92-2.32,5.58-4.89,8.24-8.99-3.81,1.58-5.14,4.92-8.59,5.32Zm285.44,110.09c-2.85,.55-5.15,1.86-5.24,5.09-.09,3.16,1.77,5.24,4.88,5.2,3.22-.04,5.34-2.03,5.25-5.44-.08-2.95-2-4.45-4.9-4.84Zm-94.9-26.01c3.05-.39,4.84-2.05,4.74-5.04-.11-3.19-2.1-4.98-5.28-4.92-3.03,.06-4.76,1.88-4.63,4.9,.13,3.19,2.12,4.8,5.18,5.06Zm222.78-304.75c-.57-3.01-2.2-4.96-5.4-4.81-3.28,.16-4.78,2.34-4.56,5.43,.21,2.86,1.96,4.72,4.96,4.62,3.18-.11,4.7-2.14,5-5.23ZM204.46,179.7c3.08-1.63,6.33-3.28,9.5-5.06,1.25-.7,3.67-.92,2.87-3.03-.78-2.04-2.93-3.12-5.13-2.47-4.18,1.23-7.17,3.94-8.57,8.18-.37,1.11-.61,2.26,1.34,2.37Zm336.68,460.08c-.58-2.91-2.02-5.1-5.3-4.93-3.03,.15-4.57,2.14-4.39,5.1,.17,2.96,2.05,4.64,4.96,4.71,3.13,.08,4.41-1.98,4.74-4.87Zm75.93,141.66c-.07-3.21-1.61-5.16-4.55-5.25-3.13-.09-5.11,1.78-5.08,5,.03,2.97,1.94,4.77,4.82,4.8,2.91,.03,4.61-1.75,4.81-4.55ZM105.67,188.35c3.21-.16,4.81-2,4.81-4.89,0-2.89-1.73-4.82-4.72-4.94-3-.12-4.86,1.58-4.95,4.59-.1,3.22,1.79,4.91,4.85,5.24Zm-17.37,352.32c-2.46,.46-5.43,1.1-5.44,4.84,0,2.93,2.27,4.15,4.86,4.12,3.09-.04,5.8-1.27,5.92-4.84,.1-3.04-2.24-3.87-5.33-4.11Zm614.09,158.62c-.58-2.55-2.18-4.33-5.21-4.2-3.03,.13-4.8,1.92-4.56,4.96,.22,2.92,2.1,4.73,5.08,4.62,3.02-.12,4.47-2.1,4.69-5.38ZM134.91,509.91c-.31-2.82-1.95-4.63-4.92-4.52-3,.11-4.62,2.19-4.54,5.05,.08,2.91,1.9,4.83,4.9,4.63,2.85-.19,4.6-1.93,4.57-5.17Zm276.81-90.96c.52,2.89,2.18,4.62,5.18,4.5,2.85-.12,4.44-2.06,4.32-4.73-.14-2.91-2.08-4.69-5.09-4.51-2.75,.16-4.23,1.92-4.41,4.74Zm92.05,218.34c2.76-.03,4.71-1.29,4.8-4.16,.09-2.93-1.55-4.9-4.59-5.03-3.1-.13-4.8,1.77-4.83,4.71-.03,2.81,1.8,4.27,4.61,4.48Zm127.84,112.63c-2.94,.32-4.94,1.71-4.98,4.72-.03,2.96,1.82,4.76,4.7,4.84,2.74,.07,4.48-1.85,4.63-4.43,.16-2.81-1.45-4.7-4.36-5.13Zm154.48-324.11c-.2-2.94-1.97-4.64-4.87-4.55-2.84,.09-4.81,1.84-4.83,4.82-.02,2.87,1.99,4.32,4.64,4.34,2.81,.02,4.84-1.34,5.06-4.62Zm-203.12,347.99c-2.75,.37-4.4,1.94-4.27,4.72,.13,2.7,1.72,4.48,4.57,4.45,3.1-.03,4.69-1.99,4.52-4.91-.16-2.75-2.03-4.14-4.82-4.25Zm40.8-49.26c-.39-2.74-1.97-4.53-5.03-4.32-2.61,.18-4.02,1.97-3.97,4.5,.06,2.95,1.73,4.91,4.76,4.79,2.74-.11,4.27-1.89,4.24-4.97ZM272.07,185.6c2.52-.58,4.41-2.13,4.26-5.09-.13-2.67-1.88-4.53-4.56-4.49-2.96,.05-4.59,2.13-4.48,5.01,.1,2.64,1.68,4.32,4.78,4.57Zm448.15,519.91c-2.77,.27-4.51,1.8-4.54,4.58-.04,3.08,1.95,4.7,4.9,4.7,2.59,0,4.23-1.6,4.28-4.21,.07-2.99-1.59-4.72-4.64-5.07ZM413.33,438.48c-2.99,.38-4.58,2.19-4.72,5.08-.14,2.89,1.55,4.59,4.35,4.57,2.95-.02,4.75-1.74,4.76-4.83,0-2.86-1.73-4.28-4.39-4.83Zm3.31,84.92c-.4-2.72-1.8-4.52-4.6-4.55-3.12-.03-4.61,1.89-4.49,4.87,.12,2.83,1.92,4.37,4.66,4.29,2.8-.08,4.12-1.97,4.43-4.61Zm138.54,181.39c-.43-2.68-1.86-4.55-4.7-4.42-2.74,.13-4.48,1.87-4.34,4.72,.13,2.77,1.86,4.51,4.65,4.44,2.82-.07,4.21-1.93,4.38-4.74Zm-136.99-215.16c-.47-2.41-1.71-4.37-4.53-4.4-3.03-.03-4.73,1.88-4.65,4.77,.08,2.72,1.91,4.29,4.68,4.27,2.83-.02,4.22-1.74,4.5-4.64Zm228.77,229.46c-2.81,.42-4.74,1.8-4.59,4.89,.14,2.86,2.02,4.27,4.72,4.15,2.73-.12,4.39-1.89,4.39-4.59,0-2.77-1.74-4.22-4.53-4.46Zm-102.96-64c-.62-2.35-1.91-4.24-4.78-4.27-2.65-.03-4.28,1.44-4.28,4.1,0,3.06,1.91,4.81,4.83,4.78,2.57-.02,3.9-1.86,4.22-4.61Zm193.92,7.76c-.11-2.98-1.72-4.71-4.43-4.7-2.67,0-4.54,1.7-4.44,4.55,.08,2.48,1.5,4.29,4.16,4.31,2.7,.02,4.5-1.34,4.71-4.15ZM475.71,169.06c-.36-2.8-1.8-4.66-4.62-4.62-2.81,.04-4.41,1.85-4.34,4.67,.06,2.6,1.66,4.3,4.22,4.32,2.71,.02,4.37-1.65,4.74-4.37Zm32.54-47.86c2.71-.25,4.44-1.67,4.5-4.48,.06-2.85-1.62-4.41-4.42-4.46-2.85-.05-4.47,1.61-4.54,4.38-.07,2.82,1.64,4.29,4.45,4.56Zm15.04,522.71c2.27-.22,4.23-1.41,4.03-4.38-.18-2.71-1.89-4.48-4.65-4.44-2.56,.04-4.18,1.76-4.17,4.3,0,2.65,1.29,4.57,4.79,4.52Zm-117.18-196.91c-.04-2.84-1.56-4.51-4.24-4.78-2.5-.25-4.36,1-4.66,3.63-.31,2.75,1.05,4.67,3.81,5.05,2.81,.39,4.33-1.35,5.09-3.9Zm307.83,226.06c.29,2.71,1.81,4.4,4.52,4.59,2.59,.18,4.25-1.27,4.43-3.89,.19-2.74-1.13-4.73-3.98-4.9-2.73-.16-4.35,1.52-4.97,4.2Zm-300.67-242.81c-.37-2.53-1.78-4.19-4.34-4.23-2.77-.04-4.58,1.66-4.64,4.4-.06,2.71,1.45,4.63,4.39,4.5,2.81-.12,4.12-2.04,4.58-4.67Zm187.41,292.82c-2.25,.51-4.12,1.57-4.09,4.3,.03,2.89,1.88,4.38,4.53,4.42,2.56,.04,4.18-1.72,4.21-4.21,.03-2.77-1.81-4.19-4.65-4.52Zm-65.94-97.4c-.3-2.63-1.85-4.14-4.37-4.09-2.47,.05-4.31,1.48-4.17,4.17,.12,2.38,1.29,4.46,4.02,4.39,2.66-.07,4.4-1.58,4.52-4.47ZM207.9,148.58c-2.64,.34-4.47,1.65-4.5,4.55-.03,2.7,1.68,4.19,4.2,4.25,2.85,.07,4.45-1.81,4.55-4.52,.1-2.64-1.57-4.03-4.25-4.27Zm194.19,375.06c-.51-2.23-1.45-4.27-4.19-4.24-2.78,.03-4.42,1.71-4.46,4.5-.03,2.56,1.42,4.34,4,4.36,2.77,.03,4.18-1.86,4.64-4.62ZM270.84,133.08c-.42-2.56-1.71-4.48-4.57-4.44-2.62,.04-4.09,1.75-4.08,4.32,0,2.62,1.69,4.2,4.19,4.28,2.54,.08,4.04-1.53,4.47-4.16Zm402.42,620.24c-.2-2.72-1.71-4.22-4.25-4.34-2.58-.12-4.33,1.3-4.35,3.98-.01,2.77,1.61,4.58,4.4,4.62,2.65,.04,3.83-1.88,4.2-4.26Zm-263.86-251.57c-.51-2.63-2-4.3-4.88-4.11-2.77,.19-3.9,2.07-3.7,4.61,.2,2.6,1.87,4.17,4.45,4.01,2.52-.16,3.99-1.78,4.12-4.51Zm258.44,221.45c2.24-.45,3.92-1.73,3.99-4.34,.07-2.67-1.57-4.2-4.08-4.29-2.78-.1-4.61,1.58-4.51,4.37,.09,2.48,1.87,3.88,4.6,4.26Zm41.95-18.86c2.35-.5,4.2-1.71,4.17-4.34-.03-2.8-1.78-4.48-4.55-4.37-2.61,.1-3.98,1.95-3.88,4.49,.1,2.53,1.55,4.06,4.26,4.22Zm9.61-16.82c-.4-2.6-1.6-4.62-4.39-4.73-2.55-.09-4.14,1.49-4.25,4.07-.11,2.64,1.59,4.17,4.01,4.39,2.48,.23,4.11-1.21,4.64-3.74Zm-194.2-30.05c2.28-.45,4.1-1.67,4.08-4.27-.03-2.48-1.5-4.26-4.07-4.38-2.5-.12-4.28,1.17-4.4,3.87-.13,2.86,1.6,4.25,4.4,4.78ZM422.8,32.05c1.68-.66,4.7,.48,4.33-2.84-.26-2.28-1.81-4.2-4.44-4.04-2.83,.17-5.96,1.53-5.79,4.42,.17,2.84,3.73,1.86,5.91,2.47Zm-27.24,431.13c-.35-2.53-1.6-4.31-4.26-4.26-2.58,.04-4.19,1.64-4.2,4.24-.01,2.6,1.56,4.22,4.18,4.2,2.58-.02,4-1.62,4.29-4.18Zm-91.29-302.69c-2.46,.36-4.15,1.71-4.04,4.31,.11,2.54,1.87,4.09,4.35,4.12,2.58,.04,4.13-1.55,4.04-4.21-.09-2.64-1.84-3.84-4.35-4.22ZM56.76,605.1c-.47-2.26-1.62-4.02-4.33-3.93-2.59,.09-4.18,1.53-4.07,4.19,.1,2.54,1.66,4.21,4.21,4.18,2.56-.03,3.89-1.77,4.19-4.45ZM305.81,147.98c-.09-2.46-1.12-4.09-3.61-4.28-2.64-.2-4.38,1.18-4.5,3.77-.13,2.6,1.58,4.16,4.12,4.26,2.45,.1,3.65-1.52,4-3.74Zm-16.46-10.61c2.1-.34,3.78-1.3,3.87-3.83,.09-2.61-1.29-4.36-3.83-4.54-2.52-.18-4.31,1.24-4.33,3.94-.03,2.62,1.65,3.94,4.29,4.43Zm387.55,599.86c-2.16,.52-3.9,1.73-3.64,4.47,.22,2.32,1.61,3.88,4.03,3.89,2.66,.01,4.17-1.62,4.19-4.19,.02-2.67-1.73-3.91-4.58-4.17Zm47.62-46.05c-2.47,.31-3.96,1.68-3.84,4.05,.12,2.5,1.73,4.16,4.28,4.13,2.57-.03,4.18-1.66,4-4.27-.18-2.58-2.01-3.76-4.44-3.91Zm-40.39,67.83c2.48-.19,4.05-1.49,4.23-4.09,.18-2.67-1.18-4.23-3.86-4.31-2.62-.07-4.16,1.46-4.4,3.98-.25,2.72,1.48,3.94,4.03,4.42Zm-165.03-137.05c-1.94,.35-3.71,1.22-3.9,3.75-.18,2.44,1.12,4.1,3.48,4.28,2.53,.19,4.27-1.25,4.45-3.9,.17-2.54-1.44-3.68-4.04-4.12ZM297.47,181.1c-.5-2.29-1.57-4-4.09-3.93-2.6,.07-4.29,1.53-4.18,4.17,.11,2.63,1.94,4.03,4.48,3.86,2.37-.16,3.56-1.82,3.79-4.1Zm-181.17,16.05c-1.93,.4-3.8,1.29-3.77,3.87,.03,2.4,1.51,3.96,3.85,4.11,2.51,.16,3.78-1.57,3.94-3.89,.18-2.51-1.31-3.78-4.02-4.09ZM393.1,478.39c-.18-2.45-1.56-3.79-3.96-3.82-2.49-.04-3.9,1.55-3.92,3.86-.02,2.55,1.54,4.23,4.19,4.1,2.39-.12,3.63-1.7,3.69-4.13Zm338.38,206.53c2.5-.17,3.91-1.62,4.05-3.91,.14-2.34-1.18-3.94-3.63-4.13-2.42-.18-4.05,1.04-4.19,3.49-.15,2.54,1.2,4.16,3.77,4.55ZM264.93,173.72c-.18-2.31-1.15-4.07-3.61-4.26-2.63-.2-4.3,1.24-4.37,3.88-.07,2.44,1.67,3.85,3.86,4.06,2.38,.23,3.74-1.33,4.12-3.68Zm473.97,476.11c-.3-2.3-1.47-3.82-4.03-3.66-2.43,.15-3.91,1.53-3.75,4.02,.15,2.37,1.61,3.91,4.05,3.82,2.42-.09,3.69-1.63,3.74-4.17Zm-126.81,105.03c-.48-2.2-1.72-3.83-4.13-3.65-2.56,.2-4.01,1.89-3.75,4.5,.24,2.41,1.93,3.65,4.26,3.44,2.39-.21,3.44-1.93,3.62-4.29ZM516.17,52.88c2.41,.2,3.77-.64,3.61-2.88-.14-2.05-.44-4.62-3.17-4.35-2.47,.24-4.51,2.37-4.73,4.73-.3,3.22,3.15,1.41,4.29,2.51Zm22.81,663.44c-.36-2.24-1.23-3.98-3.82-4.01-2.49-.03-3.84,1.35-3.94,3.75-.11,2.49,1.52,3.9,3.75,4.04,2.36,.14,3.67-1.45,4.01-3.77Zm199.8-79.14c-.37-2.24-1.71-3.79-4.04-3.87-2.52-.09-3.8,1.69-3.74,4,.07,2.46,1.84,3.68,4.17,3.62,2.19-.05,3.45-1.39,3.61-3.75Zm-4.33-12.26c-.17-2.75-1.46-4.22-3.93-4.05-2.37,.17-3.8,1.64-3.56,4.12,.23,2.44,1.84,3.6,4.24,3.47,2.34-.13,3.24-1.65,3.25-3.54Zm-98.38,116.67c2.55-.38,3.68-1.94,3.48-4.29-.18-2.15-1.53-3.57-3.75-3.49-2.4,.09-3.77,1.57-3.7,4.02,.07,2.51,1.71,3.54,3.96,3.76ZM521.05,81.63c.01-1.42-.04-2.52-1.61-2.64-2-.15-6.27,3.32-6.2,5.15,.06,1.57,.91,3.17,2.42,3.07,3.38-.24,4.4-3.12,5.39-5.58Zm199.52,516c-2.2,.22-3.72,1.29-3.72,3.57,0,2.21,1.48,3.59,3.56,3.85,2.39,.3,3.53-1.25,3.54-3.48,0-2.18-1.16-3.57-3.37-3.95Zm-160.78,130.87c2.08-.3,3.58-1.31,3.57-3.65-.01-2.54-1.49-3.82-3.95-3.73-2.29,.08-3.51,1.51-3.39,3.75,.11,2.22,1.5,3.41,3.77,3.62Zm162.02-91.95c.03,2.26,1.24,3.59,3.39,3.76,2.25,.17,3.59-1.18,3.67-3.37,.08-2.18-1.29-3.64-3.37-3.83-2.25-.21-3.32,1.38-3.7,3.44Zm-94.41,133.24c.38,2.08,1.58,3.45,3.75,3.56,2.25,.11,3.68-1.24,3.76-3.4,.09-2.41-1.37-3.85-3.84-3.82-2.28,.03-3.32,1.51-3.67,3.67Zm101.27-118.66c-.13-1.92-1.36-3.27-3.49-3.44-2.24-.18-3.61,1.16-3.71,3.35-.1,2.19,1.18,3.67,3.38,3.72,2.07,.05,3.61-.99,3.82-3.63ZM314.75,105.26c-2.14,.42-3.38,1.54-3.17,3.62,.23,2.27,1.36,3.95,3.92,3.91,1.93-.03,3.67-.87,3.38-3.05-.31-2.31-1.87-3.92-4.13-4.48Zm-16.25-86.34c3.56-.21,6.03-.28,8.48-.54,1.14-.12,2.93,.11,2.87-1.64-.06-1.82-1.62-2.69-3.31-2.71-3.05-.04-5.26,1.67-8.04,4.88Zm428.32,597.03c2.2-.21,3.45-1.39,3.51-3.66,.05-1.95-1.1-2.96-2.92-3.01-2.17-.06-3.78,1-3.85,3.28-.06,1.99,1.18,3.18,3.27,3.39Zm-680.01,2.51c-1.95,.15-3.27,1.09-3.44,3.15-.16,1.97,.63,3.57,2.74,3.7,2.16,.14,3.69-1.13,3.84-3.33,.13-1.99-1.1-3.18-3.13-3.52Zm391.58-10.88c-2.09,.1-3.11,1.31-3.11,3.36,0,1.91,1.06,2.96,2.96,2.95,1.82,0,3.06-.96,3.24-2.8,.21-2.12-1.01-3.2-3.09-3.51Zm-9.03-473.86c-.32-1.87-1.39-3.25-3.49-2.98-1.74,.22-2.87,1.43-2.62,3.37,.25,1.88,1.55,2.79,3.32,2.82,1.97,.04,2.83-1.18,2.79-3.21Zm3.86,484.37c-.05-2.11-1.16-3.15-2.98-3.19-1.75-.04-3.19,.76-3.2,2.75,0,1.86,1.15,2.96,2.99,3.03,1.81,.06,3.04-.77,3.18-2.59ZM122.82,74.89c-.96-1.52-2.2-2.09-3.7-1.92-2.17,.25-4.14,1.14-4.51,3.51-.3,1.98,1.38,1.84,2.6,1.52,2.08-.54,4.33-.91,5.61-3.12Zm-16.84,91.56c-.24-1.52-1.07-2.53-2.77-2.45-1.95,.09-3.34,1.05-3.42,3.11-.07,1.89,1.17,2.94,2.97,2.82,1.94-.13,3.05-1.39,3.22-3.47Zm-47.19,421.45c-1.57,.22-2.65,1.11-2.79,2.72-.16,1.73,.91,2.72,2.56,2.76,1.66,.04,2.69-.97,2.78-2.64,.09-1.68-.79-2.67-2.55-2.84Zm148.59,21.47c-4.63,1.55-6.36,4.81-8.99,6.93-.57,.46-1.19,1.26-.39,1.99,.7,.64,1.5,.17,2.14-.29,2.8-2.03,5.15-4.45,7.24-8.63ZM96.18,147.45c-.64-1.95-1.99-2.76-3.53-3.16-1.35-.35-2.48,.32-3.27,1.43-.56,.79-1.06,1.76-.35,2.61,1.01,1.2,2-.15,3.02-.26,1.35-.15,2.69-.4,4.14-.62Zm334.57,476.93c-1.64,.27-2.44,1.31-2.37,2.9,.05,1.13,.51,2.21,1.91,2.15,1.59-.07,2.66-.89,2.66-2.59,0-1.39-.63-2.37-2.19-2.46ZM122.21,91.19c3-2.04,4.85-3.35,6.76-4.56,.74-.47,1.35-.9,.78-1.79-.56-.87-1.42-1.42-2.35-.56-1.77,1.64-3.79,3.11-5.19,6.92Z"/>
  <path d="M297.09,731.75c3.41-4.17,6.99-6.2,10.7-8.62-2.53-2.38-6.12-1.28-9.06-4.17,4.72,1.17,8.55,2.05,12.34,3.08,1.83,.5,2.55,1.55,.56,2.84-4.2,2.73-8.62,5.03-14.53,6.87Z"/>
  <path d="M353.72,794.16c3.08-.2,5.32,.55,8,1.37-3.05,3.64-6.96,5.45-10.89,7.29-2.02-4.16,7.14-3.74,2.89-8.66Z"/>
  <path d="M286.47,670.97c3.6,1.99,6.62,3.66,10.65,5.88-4.96,2.07-8.82,3.67-12.73,5.3-.52-1.27,.42-1.22,.78-1.44,2.13-1.32,5.58-2.14,6.17-3.93,.8-2.44-3.81-2.45-4.88-5.82Z"/>
  <path d="M289.56,609.57c4.2,.77,8.08,1.96,12.38,4.56-3.62,1.58-6.5,2.85-9.85,4.31,.98-2.51,3.72-2.12,4.45-4.45-2.27-1.44-4.62-2.93-6.97-4.42Z"/>
  <path d="M310.68,533.09c1.34-3.5,8.63-.36,6.61-7.05,1.79,.65,3.54,2.06,5.92,4.02-4.7,1.14-8.72,2.11-12.53,3.03Z"/>
  <path d="M301.77,567.32c-3.26,1.99-6.16,1.79-9.32,1.35,2.6-3.34,5.31-4.57,9.32-1.35Z"/>
  <path d="M325.96,762.81c-1.09,1.84-2.45,2.82-4.75,3.69,1.21-2,.86-3.42-1.23-4.53,2.38-.26,4.11-.44,5.97,.84Z"/>
</svg>