<?xml version="1.0" encoding="UTF-8"?>
<svg id="Layer_1" data-name="Layer 1" xmlns="http://www.w3.org/2000/svg" viewBox="0 0 864 864">
  <path d="M619.59,828.59c4.22,1.06,8.09,1.53,11.72,3.04,11.63,4.84,16.21,17.61,10.45,28.8-1.63,3.16-3.6,2.89-5.83,1.21-2.71-2.05-5.37-4.21-7.79-6.59-2.3-2.26-4.25-4.87-6.75-7.8-1.61,3.73-2.94,7.27-4.63,10.63-2.61,5.16-4.39,5.72-9.77,3.67-4.89-1.86-8.59-5.32-11.55-9.42-2.22-3.08-3.65-2.73-5.68,0-1.54,2.08-3.38,3.94-5.18,5.82-2.86,3-4.18,2.67-5.67-1.35-1.47-3.96-1.35-7.98-.31-11.98,.53-2.05,.62-3.1-2.11-2.5-10.53,2.3-21.25,2.56-31.97,2.47-2.65-.02-4.06,.36-4.13,3.63-.09,4.23-2.15,8.1-3.65,12.04-1.21,3.18-3.08,3.65-6.04,2-5.54-3.09-9.53-7.76-13.43-12.55-.5-.62-1.06-1.2-1.92-2.15-1.76,3.97-3.44,7.6-5,11.28-1.95,4.59-5.23,5.16-9.53,3.53-5.54-2.1-9.66-5.94-13.03-10.61-1.71-2.37-2.82-2.45-4.64-.12-2.3,2.93-5.02,5.53-7.4,8.4-2.29,2.76-4.04,2.02-5.63-.6-1.83-3.02-2.36-6.42-2.25-9.84,.08-2.6-.92-3.25-3.37-3.39-14.59-.86-29.18-1.76-43.74-2.94-4.13-.34-4.95,.85-4.3,4.75,.69,4.14,.59,8.37-.42,12.57-.96,4.05-2.93,4.15-5.86,2.07-3.92-2.78-6.8-6.49-9.29-10.51-1.38-2.23-2.41-2.3-3.61,.09-1.32,2.61-2.89,5.09-4.08,7.75-1.71,3.84-4.43,4.29-7.98,2.91-5.55-2.16-9.5-6.19-12.6-11.05-1.69-2.66-2.82-3.12-4.7-.24-2.04,3.12-4.36,6.06-6.59,9.05-2.53,3.39-4.22,3.3-6.51-.32-1.72-2.72-2.11-5.77-1.96-8.89,.13-2.94,.87-5.74,1.86-8.53,.99-2.8,4.23-5.84,2.67-8.19-1.17-1.75-5.33-1.57-8.18-2.14-33.13-6.69-65.12-16.67-94.41-33.91-52.99-31.19-79.6-78.02-81.06-139.19-.66-27.72,2.39-55.11,10.11-81.84,1.01-3.48,.05-4.01-3.02-3.3-9.25,2.17-17.24,6.72-24.01,13.24-14.07,13.55-23.92,30.23-33.91,46.77-.84,1.39-1.42,2.93-2.28,4.3-.97,1.54-1.17,4.42-3.61,3.87-1.96-.44-1.5-3.02-1.59-4.7-1.03-19.94-1.79-39.9-3-59.83-3.43-56.53-10.41-112.5-27.15-166.86-6.83-22.2-14.26-44.18-25.92-64.44-2.42-4.21-5.25-8.19-7.84-12.31-.66-1.05-1.99-2.09-1.35-3.42,.68-1.41,2.32-.9,3.54-.87,12.99,.36,25.97,1.23,38.85,2.91,47.03,6.1,92.65,17.79,137.19,34.11,39.34,14.42,68.8,40.15,90.36,75.68,15.07,24.84,30.39,49.53,45.82,74.15,7.25,11.57,15.49,22.46,25.37,31.98,7.47,7.19,15.75,13.01,26.18,15.16,2.17,.45,4.08,.3,6.1-.69,25.63-12.52,37.95-38.84,31.09-66.59-4.19-16.95-12.88-31.84-21.79-46.56-11.93-19.73-24.08-39.32-32.5-60.92-13.56-34.77-22.72-70.38-21.82-108.1,.48-20.46,3.47-40.39,10.66-59.61,.97-2.58,1.48-5.38,2.74-7.8,2.24-4.3,.05-6.03-3.49-7.71-19.52-9.28-38.29-19.93-56.35-31.82-16.61-10.93-32.02-23.32-45.66-37.82-6.16-6.54-11.46-13.71-14.54-22.27-3.89-10.81-2.3-21.43,1.42-31.92,.72-2.02,1.83-4.14,3.61-.78,16.28,30.68,44.58,46.62,74.33,60.84,21.73,10.39,44.52,17.96,67.32,25.53,1.37,.46,2.86,1.25,4.18,.18,4.29-3.47,8.49-7.1,11.92-11.42,1.84-2.31-1.03-3.02-2.26-3.86-11.53-7.89-22.91-15.97-33.77-24.76-14.17-11.47-27.5-23.83-39.26-37.77-12.01-14.23-20.84-30.17-24.07-48.75-1.29-7.44-1.13-14.91,1.49-22.11,.92-2.53,1.67-5.29,4.47-6.92,6.63,19.35,22.07,31.48,36.45,44.17,30.14,26.6,65.56,44.75,101.66,61.66,1,.47,2.1,.7,4.46,1.47-2.2-3.27-3.61-5.67-5.31-7.85-14.04-18.1-27.87-36.32-38.05-57.01-6.14-12.47-8.1-25.26-3.37-38.65,.48-1.35,.65-3.29,2.17-3.56,1.62-.29,2.25,1.56,2.95,2.77,9.03,15.79,21.78,28.16,35.92,39.28,20.59,16.2,39.47,34.26,57.49,53.22,3.26,3.43,6.64,2.29,9.83,1.65,2.76-.55,.34-2.66-.23-3.72-6.97-12.84-14.18-25.54-21.09-38.41-6.76-12.59-13.15-25.36-16.45-39.42-1.87-7.95-2.17-15.76,1.63-23.28,3.12-6.19,4.68-6.36,8.26-.51,4.15,6.77,7.62,13.93,11.83,20.7,13.56,21.83,30.05,41.55,44.77,62.54,5.32,7.58,10.18,15.46,14.56,23.61,1.47,2.72,3.41,4.53,6.3,5.69,17.65,7.04,34.68,15.43,51.88,23.47,13.35,6.24,27.2,9.59,42.07,6.45,4.61-.97,7.25-2.62,7.7-8.07,1.22-14.72,6.5-27.82,18.19-37.53,18.26-15.19,43.55-12.06,57.36,7.28,11.67,16.33,14.37,35.18,14.14,54.67-.62,52.61-22.93,94.4-63.61,126.91-41.22,32.95-88.41,51.98-140.41,59.43-24.34,3.49-48.83,4.89-73.33,1.83-14.86-1.86-29.57-4.68-42.23-13.55-2.91-2.04-5.51-4.53-8.3-6.74-.93-.74-1.91-2.52-3.17-1.35-1.46,1.35,.14,2.68,1.05,3.66,4.01,4.32,8.76,7.69,13.84,10.64,7.91,4.59,16.45,7.68,24.99,10.79,1.69,.62,3.22,.98,3.43,3.38,1.83,21.43,13.64,37.41,28.55,51.61,12.11,11.53,24.24,23.05,36.59,34.33,22.85,20.87,40.26,45.8,54.6,72.95,16.71,31.62,30.75,64.29,40.3,98.95,11.3,41.03,9.79,81.84,1.13,122.9-5.47,25.93-14.06,50.65-28.27,73.17-3.53,5.6-7.75,10.77-12,16.62Zm-426.2-237.83c.1,21.13,3.25,40.47,9.94,60.28,18.16,53.72,67.65,63.83,105.03,49.21,19.28-7.54,33.05-21.38,44.12-38.3,16.88-25.81,32.98-52.15,52.91-75.82,1.99-2.36,2.26-3.54-1.47-4.19-10.2-1.78-20.41-1.67-30.58-.36-24.97,3.22-47.41,12.02-65.14,30.67-1.65,1.73-2.86,1.82-4.38,.12-1.3-1.45-2.65-2.85-3.96-4.3-9.25-10.2-19.39-19.32-32.43-24.34-22.43-8.62-45.83-11.62-69.75-11.31-2.83,.04-3.61,1.18-3.66,3.74-.1,4.87-.4,9.73-.62,14.59Zm360.05,105.03c-4.61,1.19-5.72-.92-6.38-4.29-1.56-7.99-4.24-15.67-7.78-23-7.62-15.8-17.89-29.07-35.13-35.25-27.63-9.9-54.63-7.48-80.81,4.99-9.02,4.3-16.07,11.48-22.71,18.9-.68,.76-2.05,1.55-.76,2.78,.97,.92,2.17,.58,3.1-.2,.99-.83,1.87-1.79,2.76-2.74,4.14-4.4,8.7-8.31,13.92-11.35,19.19-11.17,39.94-13.77,61.61-10.97,24.52,3.17,41.41,16.41,51.21,38.99,8.52,19.64,11.11,40.35,10.27,61.44-1.18,29.61-7.9,58.12-18.74,85.68-3.03,7.71-3.1,7.97,4.64,10.43,12.85,4.09,26.12,5.28,39.63,4.62-12.08-4.6-25.06-5.57-37.34-9.5,13.59,.84,26.98,3.74,40.69,2.72-12.71-3.29-26-3.37-38.63-7.04,14.12,.47,28.18,1.94,42.24-1.06-13.36-2.84-27.16-2.3-40.48-5.49,14.55,.1,29.09,1.99,43.43-2.1-13.4-2.39-27.15-1.44-40.52-4.19,7.3,.28,14.56,.13,21.82,.2,7.14,.07,14.14-.77,20.95-2.93-1.33-.79-2.57-.96-3.82-1.01-11.36-.42-22.71-.79-34.07-1.27-1.3-.05-3.48,.2-3.31-1.75,.15-1.73,2.13-.83,3.29-.84,8.6-.1,17.21,.02,25.81-.22,4.54-.13,9.07-.84,13.61-1.29-.01-.42-.02-.85-.04-1.27-13.59-.93-27.34-.3-40.81-3.21,14.26-.74,28.67,.79,43.25-3.84-2.43-1.35-4.22-.87-5.93-.84-10.23,.22-20.45,.77-30.67-.06-1.77-.14-4.83,.72-4.76-1.82,.07-2.22,2.93-.91,4.48-.9,8.94,.06,17.87-.02,26.74-1.27,3.68-.52,7.4-1,10.74-3.07-13.45-1-26.91,.49-40.32-1.57,13.63-1.35,27.53-.54,40.7-4.77-.04-.49-.07-.99-.11-1.48h-38.74c-.02-.53-.05-1.05-.07-1.58,13-.14,26.1,.53,38.71-3.41-12.41,.3-24.77,.14-37.12-.83,12.24-.93,24.39-1.71,36.03-6.02-2.38-.47-4.73-.55-7.07-.46-8.27,.32-16.54,.75-24.82,1.02-1.26,.04-3.41,.83-3.47-1.36-.05-1.98,1.94-1.7,3.37-1.79,5.83-.33,11.69-.5,17.5-1.07,4.99-.49,9.97-1.33,15.29-3.82-2.83-1.26-4.72-.57-6.6-.46-8.1,.46-16.2,.95-24.31,1.34-1.34,.06-3.53,.62-3.73-1.21-.25-2.39,2.24-1.85,3.65-2.04,6.43-.87,12.93-1.34,19.32-2.43,3.95-.67,8.13-1.17,11.43-4.25-1.76-.48-3.47-.57-5.16-.47-8.27,.48-16.53,1.04-24.79,1.48-1.14,.06-3.16,.87-3.29-.84-.17-2.15,2.09-1.51,3.34-1.57,6.5-.34,12.98-.82,19.34-2.21,3.29-.72,6.82-1.06,9.65-3.56-10.45-.7-20.89,.49-31.28-.88,9.92-2.24,20.26-1.91,29.71-6.26-9.79-2.05-19.7-.39-29.52-1.78,9.01-2.12,18.77-.91,27.91-6.83-10.13-1.35-19.21,1.17-28.27-.19,7.43-1.8,15.07-2.34,21.65-6.56-6.25-.06-12.36,.57-18.47,1.05-1.26,.1-3.42,.93-3.46-1.29-.03-1.67,2.03-1.09,3.2-1.3,5.29-.99,10.7-1.61,16.4-5.52-7.54-1.2-14.04,.93-21.29-.42,3.23-2.41,5.99-1.69,8.43-2.35,2.37-.65,5.04-.66,7.61-3.63h-15.97c0-.28,0-.56-.01-.84,3.51-.9,7.03-1.81,11.72-3.02-4.93-1.63-9.07,.22-12.73-1.57,.69-2,2.85-1.09,4.13-3.23Zm-34.02-447.51c10.93,.21,19.86-3.96,26.94-12.25,15.17-17.75,8.53-53.53-12.11-65.17-21.48-12.11-45.84-2.27-52.92,21.37-8.48,28.35,10.27,55.94,38.08,56.05Zm37.36-63.75c.13,17.62,8.42,29.86,23.06,34.6,17.53,5.68,33.9-4.82,35.58-22.99,.97-10.45-1.15-20.32-6.5-29.41-5.92-10.06-17.06-15.19-29.03-13.44-10.9,1.59-19.01,9.26-21.82,20.73-.89,3.63-1.46,7.31-1.3,10.51Zm59.09,126.46c15.94,.03,27.3-8.13,36.24-20.44,3.53-4.87,6.36-10.18,8.74-15.71,.59-1.37,.89-2.98-.92-3.75-1.89-.81-2.59,.68-3.21,2.03-.34,.73-.49,1.55-.82,2.29-4.49,10.29-10.5,19.41-20.18,25.61-15.38,9.86-35.03,6.96-44.47-6.59-3.1-4.45-5.1-9.4-5.9-14.79-.22-1.51-.73-2.55-2.45-2.16-1.48,.33-2.3,1.4-1.93,2.87,.55,2.2,1.31,4.34,2.05,6.48,5.35,15.49,17.17,24.18,32.85,24.15Zm123.71-176.84c5.09,.07,9.56-4.31,9.75-9.55,.19-5.35-4.43-10.11-9.74-10.04-4.91,.07-8.91,4.3-9.08,9.61-.17,5.53,3.8,9.9,9.07,9.97Zm-237.47,136.42c-.7-3.93-1.56-7.23-1.27-10.68,.11-1.31,.2-2.7-1.51-3.11-1.39-.33-2.51,.4-3.57,1.17-1.41,1.01-.86,2.04-.28,3.35,2.29,5.22,1.93,5.84-3.57,7.11-6.48,1.49-6.5,1.5-7.98-5.27-.43-1.98-1.65-2.68-3.52-2.38-1.2,.19-2.55,.97-1.83,2.2,2.17,3.72,2.5,8.01,4.11,11.87,.74,1.78,1.65,2.71,3.26,.21,1.89-2.95,9.51-4.06,13.03-2.51,2.51,1.11,3.15-.36,3.13-1.96Zm81.12,362.52c3.28-.52,5.93-2.06,6.11-5.99,.15-3.24-2.99-5.93-6.53-5.56-3.64,.38-6.16,2.4-6.05,6.23,.11,3.71,2.71,5.21,6.47,5.32Zm-13.05,6.77c-4.06-.15-6.92,2.48-6.86,5.9,.07,3.79,2.44,5.49,5.92,5.61,3.64,.12,5.88-1.92,5.96-5.52,.07-3.53-2.07-5.57-5.01-5.99Zm48.73-34.15c4.04,.09,7.32-2.85,7.22-6.17-.11-3.59-2.52-5.26-5.69-5.23-3.63,.03-6.06,2.16-6.34,5.95-.27,3.65,2.09,5.07,4.81,5.45Zm19.47,45.96c3.32-.38,5.75-2.23,5.89-5.77,.15-3.52-1.85-5.92-5.6-5.95-3.63-.03-5.91,2.18-6.12,5.64-.22,3.58,2.03,5.62,5.83,6.07Zm-1.9,113.19c-3.82-.02-7.01,3.05-6.81,6.41,.21,3.54,2.34,5.32,5.73,5.17,3.71-.17,6.12-2.33,6.28-6.08,.16-3.52-2.24-5.1-5.2-5.5Zm18.34-70.09c-.3-3.57-2.21-5.73-5.85-5.59-3.7,.15-6.05,2.37-6.1,6.12-.05,3.46,2.33,5.43,5.56,5.36,3.49-.07,6.08-1.91,6.39-5.89Zm-84.11-23.78c-.17-3.73-2.27-5.7-5.83-5.74-3.57-.04-5.81,1.97-5.95,5.63-.14,3.78,2.09,5.68,5.71,5.71,3.61,.03,5.65-1.97,6.07-5.6Zm28.2-72.22c-2.97,.56-5.54,2.17-5.41,5.91,.12,3.76,2.74,5.52,6.22,5.36,3.26-.15,5.63-2.14,5.6-5.57-.03-3.63-2.34-5.51-6.41-5.7Zm-37.22-34.4c.28,3.62,2.31,5.83,5.88,5.79,3.45-.04,5.97-2.03,5.97-5.73,0-3.58-2.1-5.85-5.78-5.87-3.66-.02-5.52,2.26-6.07,5.81Zm-65.9-113.28c-.34-3.07-2-5.26-5.48-5.29-3.57-.03-5.86,1.92-5.97,5.59-.1,3.65,1.95,5.95,5.6,5.85,3.48-.09,5.57-2.24,5.85-6.15Zm116.7,229.42c3.34-.51,5.7-2.37,5.69-5.96,0-3.3-1.9-5.47-5.43-5.58-3.33-.1-6.42,2.96-6.15,6.13,.29,3.44,2.41,5.1,5.88,5.4Zm3.48-107.86c-3.51,.48-6.02,2.26-6.15,6.09-.12,3.58,2.26,5.16,5.54,5.35,3.46,.2,6.36-2.59,6.23-5.9-.14-3.48-2.17-5.17-5.63-5.53Zm-83.28-81.26c-.24-3.45-2.23-5.45-5.52-5.58-3.65-.14-5.76,2.18-5.92,5.69-.17,3.5,2.1,5.49,5.42,5.54,3.52,.05,5.67-1.98,6.03-5.66Zm24.82,5.94c-3.54,.23-5.71,2.13-5.74,5.76-.03,3.76,2.43,5.59,5.92,5.59,3.54,0,5.94-2.02,5.87-5.67-.07-3.56-2.34-5.49-6.05-5.68Zm39.66,151.77c-.17-3.57-2.03-5.66-5.42-5.77-3.49-.11-6.12,1.7-6.31,5.34-.19,3.55,1.78,5.89,5.59,5.87,3.58-.02,5.71-1.9,6.15-5.44Zm-54.85-125.1c3.27-.47,5.61-2.24,5.58-5.89-.03-3.42-2.28-5.28-5.54-5.55-3.38-.29-6.07,2.67-5.9,6.15,.17,3.6,2.35,5.04,5.87,5.29Zm46.61,57.09c.1,3.75,2.29,5.57,5.52,5.62,3.53,.05,5.68-2.19,5.99-5.73,.29-3.23-2.55-5.99-5.8-5.67-3.49,.34-5.61,2.21-5.72,5.78Zm59.18,96.8c3.24-.61,5.61-2.33,5.5-6.07-.11-3.78-2.52-5.66-6.07-5.41-3.53,.25-5.7,2.52-5.45,6.18,.23,3.39,2.41,5.14,6.02,5.29Zm-242.26-364.52c3.43-.5,5.58-2.63,5.59-6.1,0-3.38-2.32-5.53-5.63-5.45-3.51,.09-5.78,2.41-5.68,5.99,.1,3.28,2.08,5.33,5.72,5.56Zm52.74,97.64c.38,3.52,2.65,5.29,5.89,5.24,3.34-.05,5.5-2.19,5.45-5.61-.06-3.37-2.07-5.56-5.54-5.51-3.6,.06-5.61,2.17-5.8,5.88Zm-61.92-80.02c.31,3.52,2.35,5.31,5.67,5.56,3.32,.25,6.16-2.79,5.93-6.25-.23-3.58-2.56-5.22-5.82-5.21-3.7,.01-5.38,2.47-5.78,5.9Zm232.31,297.11c3.34-.58,5.67-2.44,5.57-6.06-.09-3.44-2.53-5.41-5.74-5.35-3.48,.07-5.7,2.32-5.6,5.99,.1,3.47,2.26,5.14,5.77,5.42Zm-129.49-74.28c3.08-.61,5.5-2.13,5.61-5.57,.1-3.37-1.79-5.65-5.21-5.73-3.56-.09-5.86,2.03-5.93,5.63-.07,3.42,2.21,5.14,5.54,5.67Zm91.34,6.66c2.94-.02,5.35-1.48,5.88-4.77,.6-3.7-1.69-5.88-5.08-6.32-3.27-.43-5.69,1.4-6.24,4.68-.61,3.71,1.64,5.61,5.43,6.42Zm53.97,169.53c-3.52,.32-6.04,2.19-6.39,5.9-.34,3.64,2.1,5.29,5.43,5.32,3.88,.04,6.01-2.39,6.29-6.01,.27-3.37-2.12-4.78-5.34-5.22Zm-212.08-306.99c3.16-.34,5.26-2.24,5.14-5.66-.13-3.6-2.39-5.75-6.05-5.55-3.13,.18-5.16,2.26-5.16,5.41,0,3.58,2.04,5.69,6.07,5.79Zm129.47,113.73c.39,3.47,2.29,5.51,5.67,5.5,3.36,0,5.56-1.99,5.56-5.42,0-3.5-1.98-5.99-5.59-6.03-3.69-.03-5.29,2.57-5.64,5.95Zm-167.55-275.41c-3.72,.29-5.63,2.43-6.05,5.83-.38,3.06,2.55,6.01,5.75,5.72,3.47-.32,5.73-2.41,5.71-5.95-.01-3.36-2.24-5.12-5.41-5.59Zm181.93,327.34c-.17-3.73-2.13-5.85-5.45-5.85-3.44,0-5.9,2.08-6.07,5.68-.17,3.49,1.97,5.47,5.4,5.49,3.55,.02,5.69-1.91,6.12-5.32Zm-148.13-270.73c-.23-3.51-2.17-5.53-5.47-5.63-3.58-.1-5.76,2.03-5.86,5.65-.1,3.52,2.15,5.43,5.42,5.51,3.53,.09,5.67-1.88,5.92-5.53Zm158.81,360.15c3.85-.07,6.89-2.9,6.49-6.02-.43-3.32-2.48-5.23-5.9-5.04-3.53,.19-5.66,2.15-5.73,5.81-.07,3.64,2.12,5.11,5.14,5.25Zm27.32-21.72c3.4-.37,5.89-1.92,5.86-5.68-.02-3.43-2.07-5.47-5.53-5.36-3.42,.11-6.05,1.81-6.02,5.55,.02,3.41,2.28,5.13,5.69,5.49Zm-139.14-133.21c-.04-3.49-2.51-6.06-5.46-6.1-3.29-.05-6.14,2.89-5.94,6.26,.21,3.48,2.26,5.37,5.64,5.3,3.64-.07,5.42-2.38,5.77-5.46Zm155.53,214.19c-.16-3.57-1.7-5.86-5.21-5.91-3.58-.05-5.8,2.03-5.92,5.6-.13,3.72,2.2,5.72,5.75,5.65,3.32-.07,5.25-2.08,5.39-5.35Zm-89.45-141.78c-3.61,.37-5.64,2.57-5.66,6.04-.01,3.35,2.16,5.61,5.52,5.52,3.47-.09,5.86-2.27,5.7-5.93-.14-3.24-2-5.39-5.57-5.63Zm50.52,95.95c.3,3.59,2.51,5.43,5.74,5.4,3.2-.03,5.7-1.88,5.7-5.36,0-3.32-2.03-5.66-5.43-5.63-3.38,.03-5.8,1.84-6.02,5.59Zm-90.57-175.32c-.35-3.55-2.04-5.96-5.77-5.92-3.38,.03-5.5,2.03-5.52,5.5-.01,3.47,2.12,5.46,5.47,5.61,3.39,.15,5.41-1.73,5.82-5.18Zm-55.63-146.03c3.35-.03,5.62-1.71,5.76-5.14,.13-3.29-1.73-5.71-5.18-5.86-3.57-.16-5.94,1.87-6.12,5.5-.18,3.54,2.06,5.22,5.55,5.51Zm33.41,50.8c-3.09,.33-5.73,1.54-5.93,5.05-.2,3.59,1.87,5.82,5.47,5.99,3.61,.17,5.87-1.86,5.98-5.46,.1-3.46-2.2-5.11-5.52-5.59Zm-65.58-141.11c-3.22,.4-5.68,1.81-5.65,5.4,.03,3.55,1.92,5.87,5.68,5.84,3.7-.03,5.82-2.25,5.67-5.83-.13-3.28-2.21-5.25-5.7-5.41Zm78.29,204.29c3.63-.24,6.1-1.95,6.26-5.56,.15-3.39-1.94-5.48-5.36-5.58-3.54-.1-5.95,1.67-6.09,5.4-.13,3.47,1.98,5.24,5.2,5.74Zm-68.38-137.18c-.37-3.42-2.4-5.42-5.72-5.31-3.51,.12-5.81,2.36-5.67,5.96,.13,3.48,2.63,5.2,5.94,5.02,3.31-.18,5.32-2.11,5.44-5.67Zm7.12,38.71c-.28-3.45-2.16-5.59-5.47-5.66-3.55-.07-5.78,1.99-5.71,5.7,.07,3.66,2.26,5.71,5.84,5.61,3.43-.09,4.99-2.46,5.35-5.66Zm78.21,78.98c.46,3.5,2.64,5.52,6.14,5.28,3.2-.22,5.5-2.24,5.26-5.71-.24-3.55-2.55-5.67-6.11-5.46-3.31,.19-5.13,2.36-5.3,5.9Zm48.28,150.94c-3.26,.3-5.54,1.99-5.63,5.41-.08,3.35,1.87,5.61,5.32,5.69,3.34,.08,5.69-1.79,5.73-5.26,.04-3.31-1.93-5.36-5.42-5.85Zm64.39-61.22c-.28-3.39-2.08-5.71-5.7-5.68-3.38,.03-5.37,2.2-5.3,5.57,.08,3.69,2.53,5.49,6,5.48,3.21-.01,4.92-1.96,5.01-5.38Zm-155.87-179.38c-3.05,.48-5.53,1.84-5.69,5.39-.16,3.48,1.84,5.6,5.23,5.78,3.39,.17,5.63-1.82,5.85-5.2,.23-3.46-1.98-5.27-5.39-5.97Zm-67.41-85.5c-.26-3.15-1.77-5.19-5.06-5.39-3.25-.21-6.18,2.88-5.93,6.25,.23,3.16,1.92,5.24,5.24,5.08,3.59-.17,5.46-2.37,5.75-5.94Zm146.34,282.25c-.12-3.65-2.19-5.82-5.67-5.94-3.28-.11-5.5,1.83-5.62,5.35-.13,3.77,2.08,5.8,5.59,5.92,3.33,.11,5.4-1.79,5.7-5.34Zm-79.6-70.5c.14,3.68,2.03,5.67,5.4,5.75,3.37,.08,5.39-1.92,5.75-5.28,.34-3.17-2.45-6.18-5.59-5.91-3.3,.29-5.13,2.34-5.56,5.44Zm112.79-9.94c-3.71,.29-5.75,2.19-5.65,5.6,.11,3.58,2.22,5.69,5.94,5.53,3.57-.16,5.21-2.52,5.14-5.8-.08-3.46-2.36-5.07-5.43-5.33Zm25.88,217.61c-3.07,.4-5.6,1.74-5.82,5.21-.22,3.5,1.96,5.44,5.29,5.6,3.47,.17,6.15-1.47,6.18-5.22,.03-3.35-2.22-5.16-5.66-5.6Zm-54.98-237.36c-3.53,.46-5.72,2.36-5.58,6.02,.14,3.34,2.08,5.41,5.59,5.34,3.74-.07,5.63-2.39,5.63-5.9,0-3.47-2.35-5.07-5.64-5.46Zm33.13,133.7c-.35-3.59-2.48-5.44-5.79-5.3-3.36,.14-5.34,2.45-5.38,5.73-.04,3.55,2.44,5.32,5.71,5.15,3.24-.17,5.27-2.21,5.47-5.58Zm-54.42-152.24c3.37-.51,5.57-2.36,5.37-6.07-.19-3.49-2.43-5.29-5.81-5.08-3.36,.21-5.34,2.35-5.28,5.75,.06,3.45,2.13,5.22,5.72,5.4Zm-118.63-88.25c-3.52,.37-5.39,2.47-5.33,5.77,.06,3.35,2.11,5.47,5.59,5.36,3.66-.12,5.65-2.39,5.56-5.98-.09-3.58-2.58-4.91-5.82-5.15Zm105.39,146.84c.4,3.27,2.04,5.54,5.5,5.57,3.44,.03,5.52-2.27,5.66-5.45,.15-3.39-2.29-5.31-5.55-5.5-3.54-.21-5.17,2.04-5.61,5.38Zm-20.19-110.74c-.05-3.46-2.27-5.27-5.49-5.37-3.3-.1-5.57,1.79-5.6,5.34-.03,3.47,2,5.59,5.37,5.61,3.31,.02,5.34-1.99,5.71-5.59Zm-20.36,39.81c-.37-3.37-1.91-5.62-5.49-5.52-3.51,.09-5.32,2.4-5.4,5.63-.08,3.41,2.04,5.45,5.47,5.43,3.49-.03,5.1-2.29,5.43-5.54Zm10.92,139.94c.43,3.18,2.36,5.3,5.67,5.24,3.18-.06,5.59-1.84,5.53-5.43-.06-3.69-2.36-5.78-5.85-5.66-3.23,.11-5.28,2.15-5.35,5.85Zm-24.37-117.14c3.1-.16,5.07-2.08,5-5.5-.06-3.4-2.13-5.38-5.6-5.39-3.54,0-5.42,2.08-5.4,5.5,.02,3.49,2.1,5.24,5.99,5.39Zm135.01,63.5c-.35-3.03-1.95-5.26-5.45-5.24-3.3,.02-5.6,1.73-5.75,5.22-.16,3.75,2.13,5.73,5.65,5.79,3.42,.06,5.19-2.13,5.56-5.77Zm-113.94,21.77c-.33-3.22-2.19-5.31-5.59-5.18-3.21,.13-5.56,1.93-5.49,5.46,.06,3.31,1.9,5.67,5.31,5.64,3.46-.03,5.66-2,5.76-5.92Zm40.23,49.47c-.43-3.46-2.24-5.48-5.73-5.31-3.42,.16-5.45,2.29-5.33,5.64,.13,3.33,2.27,5.33,5.71,5.23,3.49-.1,5.1-2.29,5.34-5.56Zm-43.67,17.35c-.44-3.21-2.09-5.4-5.55-5.44-3.43-.04-5.48,2.07-5.66,5.34-.19,3.48,2.14,5.38,5.41,5.48,3.37,.1,5.21-2.05,5.8-5.38Zm-65.04-370.5c-.38-3.09-2.15-5.36-5.53-5.38-3.36-.02-5.44,2.08-5.43,5.54,0,3.81,2.45,5.6,5.95,5.54,3.27-.06,4.78-2.29,5.01-5.71Zm102.69,380.37c3.45-.17,5.54-1.83,5.72-5.29,.18-3.46-1.72-5.56-5.06-5.8-3.31-.24-5.62,1.51-5.9,4.94-.3,3.65,1.75,5.63,5.24,6.15Zm-14.61-18.88c-.34-3.23-2.3-5.15-5.67-5.08-3.41,.07-5.38,2.2-5.38,5.59,0,3.51,2.24,5.36,5.59,5.28,3.37-.08,5.23-2.14,5.46-5.78Zm36.98-62.49c-.13-3.74-1.82-5.91-5.29-5.97-3.62-.06-5.84,2-5.75,5.67,.08,3.3,1.94,5.49,5.49,5.42,3.42-.07,5.25-2.04,5.55-5.12Zm-80.92-110.89c-.37-3.27-2.43-5.07-5.81-4.89-3.44,.18-5.28,2.36-5.13,5.79,.15,3.51,2.27,5.31,5.73,5.11,3.49-.2,5.1-2.38,5.21-6.01Zm16.46,161.51c-.25-3.53-2.21-5.45-5.58-5.4-3.29,.05-5.57,1.79-5.5,5.37,.06,3.48,2.17,5.32,5.56,5.37,3.48,.05,5.26-1.95,5.53-5.34Zm-1.83-116.24c-.26-3.37-1.85-5.7-5.4-5.62-3.26,.07-5.6,1.73-5.72,5.35-.11,3.62,2.07,5.5,5.37,5.63,3.4,.14,5.33-1.94,5.74-5.36Zm-20.58-77.99c-.41-3.11-2.07-5.31-5.51-5.32-3.34-.02-5.52,1.86-5.68,5.29-.15,3.36,1.53,5.65,5.07,5.74,3.58,.09,5.61-1.92,6.12-5.7Zm172.82,316.65c3.22-.25,5.54-1.97,5.5-5.72-.03-3.33-2.25-5.18-5.37-5-3.37,.19-5.94,2.14-5.95,5.84,0,3.36,2.23,4.82,5.82,4.88Zm-219.14-80.18c3.29-.39,5.43-2.08,5.42-5.54,0-3.52-2.25-5.35-5.57-5.25-3.27,.1-5.37,2.05-5.45,5.51-.09,3.71,2.34,4.94,5.6,5.28Zm106.93-207.02c-.15-3.15-1.73-5.41-5.2-5.59-3.41-.17-5.59,1.71-5.77,5.15-.2,3.81,2.25,5.64,5.72,5.75,3.22,.1,5.03-1.8,5.24-5.31Zm132.07,290.82c3.13-.39,5.28-2.08,5.1-5.64-.16-3.22-2.17-5.01-5.35-5.16-3.2-.15-5.83,2.78-5.57,6.02,.28,3.41,2.4,4.72,5.82,4.78Zm-129.53-150.48c-.21-3.4-1.94-5.47-5.42-5.62-3.28-.14-5.19,1.65-5.49,4.91-.3,3.25,2.4,6.09,5.62,6,3.34-.1,4.91-2.08,5.29-5.28Zm102.01,53.88c-.27-3.74-2.02-5.88-5.58-5.65-3.37,.22-5.39,2.27-5.28,5.77,.1,3.27,1.97,5.08,5.3,5.06,3.57-.02,5.24-2.08,5.56-5.18Zm-74.14,21.52c2.95-.64,5.45-1.99,5.25-5.64-.19-3.47-2.24-5.36-5.74-5.1-3.44,.25-5.29,2.33-5.14,5.79,.15,3.35,2.31,4.75,5.64,4.95Zm64.68,82.53c-2.97,.37-5.41,1.8-5.43,5.33-.02,3.53,2.44,5.25,5.66,5.28,3.06,.03,5.33-1.72,5.39-4.98,.07-3.39-1.94-5.28-5.62-5.63Zm-148.35-158.23c.35,3.13,2.05,5.14,5.32,5.08,3.4-.07,5.59-2.05,5.49-5.52-.08-3.16-2.08-5.23-5.31-5.2-3.4,.04-5.31,2.08-5.51,5.64Zm-35.12,47.04c.4,3.21,2.6,5.02,5.83,4.92,3.03-.1,5.22-1.94,5.14-5.27-.08-3.42-2.04-5.44-5.51-5.4-3.44,.04-5.31,1.97-5.46,5.75Zm33.52-5.23c-.27-3.48-2.17-5.53-5.59-5.51-3.21,.02-5.13,1.99-5.19,5.26-.07,3.66,2.43,5.35,5.59,5.46,3.17,.11,5.02-1.92,5.19-5.21Zm-21.79-29.59c.3,3.51,2.36,5.28,5.7,5.22,3.2-.06,5.06-2.14,5.17-5.25,.12-3.47-2.03-5.49-5.36-5.51-3.39-.02-5.14,2.21-5.5,5.54Zm-15.68,21.75c3.16-.29,5.19-2.14,5.09-5.59-.09-3.25-2.23-5.2-5.37-5.01-3.19,.19-5.55,2.05-5.43,5.62,.11,3.33,2.24,4.82,5.72,4.98Zm27.17-266.26c-.25-3.23-1.83-5.47-5.04-5.57-3.38-.11-5.53,1.92-5.55,5.4-.03,3.49,2.14,5.51,5.48,5.51,3.25,0,4.78-2.3,5.11-5.34Zm-88.69-177.69c-1.06,8.82-2.99,9.67-10.3,5.18-.27-.17-.52-.39-.79-.56-.88-.55-1.83-.88-2.6,.06-.94,1.14-.35,2.19,.61,2.91,3,2.28,6.12,4.24,10.2,3.56,2.54-.43,4.11-1.98,4.81-4.25,.71-2.29,.97-4.69-1.93-6.88Zm-28.22-3.58c2.9-.11,4.85-1.61,5.88-4.25,1.28-3.28-.43-5.57-2.72-7.6-.86-.77-1.82-1.45-3.03-.98-.35,.13-.73,.75-.72,1.13,.05,1.53,1.39,1.61,2.44,1.81,1.76,.34,2.6,1.29,2.21,3.04-.38,1.69-1.35,2.94-3.22,3.13-1.59,.16-2.69-.88-3.92-1.64-1.27-.79-2.71-2.7-4.1-.85-1.38,1.84,.34,3.25,1.79,4.32,1.59,1.17,3.35,1.92,5.39,1.89Zm93.07-51.59c-3.4,6.11-6.61,7.22-10.76,4.34-.93-.64-1.7-1.52-2.66-2.11-.88-.54-1.91-1.69-2.93-.38-.8,1.03-.42,2.31,.45,3.09,3.2,2.89,6.81,5.2,11.33,4.03,3.96-1.03,5.75-3.76,4.58-8.97Zm-47.12-24.4c-1.89,.17-2.02,1.47-1.62,2.8,.67,2.2,2.34,3.53,4.53,3.97,3.19,.65,4.56-1.87,6.17-3.86,1.45-1.79,1.17-3.62-.11-5.35-.69-.92-1.58-1.76-2.85-1.49-.51,.11-1.18,.68-1.31,1.16-.35,1.27,.32,2.16,1.52,2.64,1.05,.42,2.44,.76,1.3,2.29-.77,1.04-1.93,1.21-3,.38-1.42-1.1-2.83-2.16-4.63-2.54Zm78.68,475.12c2.57-.23,4.71-1.16,4.7-4.27,0-2.64-1.43-4.35-4.16-4.33-2.96,.02-5.07,1.66-5.23,4.63-.16,2.84,2.15,3.66,4.69,3.97Zm9.56-423.34c-.63,.97-.89,1.2-.93,1.47-1.22,7.49-3.13,8.56-10.02,5.52-1-.44-1.95-.61-2.52,.41-.81,1.46,.13,2.51,1.3,3.17,3.46,1.97,7.11,2.61,10.36-.16,3.07-2.62,3.97-6,1.81-10.41Zm-153.96,666.86c-.38-2.64-1.96-4.31-4.77-4.21-2.53,.1-4.32,1.57-4.18,4.3,.14,2.63,1.93,4.16,4.45,4.12,2.4-.04,4.3-1.23,4.5-4.21ZM443.56,120.36q-4.02,7.6-11.97,2.62c-.14-.08-.24-.21-.38-.3-.69-.46-1.5-.85-2.22-.31-.92,.69-.7,1.72-.31,2.64,1.08,2.49,7.85,5.3,10.54,4.39,3.9-1.31,5.39-4.41,4.33-9.05Zm-47.47-25.09c-.36-1.91-1.36-2.31-2.4-1.28-1.46,1.45-2.4,.91-3.6-.26-.88-.85-2.01-2.05-3.3-.85-1.26,1.17-.82,2.75-.02,4.01,1.32,2.07,3.03,3.79,5.53,4.41,1.13,.28,3.08-.25,2.65-1.01-1.33-2.34-1.04-3.9,1.14-5.02Zm4.35,601.88c2.49-.4,4.36-1.71,4.39-4.29,.04-2.69-2.02-4.11-4.45-4.01-2.48,.1-4.2,1.8-4.13,4.43,.07,2.48,1.93,3.48,4.19,3.87Zm-179.84,59.68c2.83-.14,4.37-1.77,4.66-4.23,.31-2.63-1.72-3.78-3.91-4.04-2.37-.28-4.2,.96-4.37,3.48-.16,2.5,.99,4.36,3.62,4.79Zm168.7-108.32c-.61-2.32-2.23-3.44-4.57-3.3-2.63,.16-4.15,1.82-4.18,4.39-.03,2.5,1.63,3.88,4.05,3.73,2.79-.17,4.09-2.15,4.7-4.82Zm-49.98,78.82c-2.52-.06-4.04,1.3-4.13,3.67-.1,2.65,1.6,4.16,4.2,4.17,2.43,.01,3.91-1.47,3.87-3.92-.04-2.41-1.49-3.76-3.94-3.92Zm-124.83-33.56c2.41-.09,4.14-1.27,4.23-3.7,.1-2.74-1.95-4.06-4.36-4.17-2.42-.1-3.95,1.56-3.96,3.95,0,2.48,1.76,3.61,4.09,3.91Zm346.94,146.88c-8.72-1.67-17.45-3.34-26.45-5.07,4.29,4.4,12.07,6,26.45,5.07Zm-274.25-53.5c1.87-.46,3.83-1.31,3.81-3.88-.02-2.67-1.77-4.12-4.34-4.16-2.5-.04-3.85,1.56-3.79,4,.06,2.45,1.61,3.7,4.32,4.03Zm77.56,16.22c1.79-.61,3.87-1.28,3.69-3.69-.19-2.61-1.94-4.11-4.61-3.88-2.13,.19-3.79,1.43-3.56,3.78,.24,2.4,2.02,3.5,4.47,3.79Zm-34.19-4.08c-.3-2.26-1.89-3.64-4.41-3.73-2.21-.08-3.77,1.26-3.85,3.43-.1,2.58,1.52,4.23,4.09,4.4,2.43,.15,3.85-1.25,4.18-4.09ZM357.13,46.96c-.12-.4-.19-.88-.39-1.29-1-1.97-5.36-2.68-5.04-1.6,1.41,4.65-1.84,1.99-3.21,2.37-.91,.26-.99,1.18-.78,2.02,.07,.3,.26,.59,.46,.85,1.33,1.73,3.15,2.23,5.19,1.83,2.21-.42,2.97-2.29,3.77-4.19Zm47.04,677.39c-.19-2.49-1.54-3.85-4.03-3.82-2.57,.02-3.8,1.61-3.82,4.03-.02,2.56,1.54,3.87,3.97,3.86,2.54-.01,3.67-1.65,3.88-4.07Zm-52.04-5.55c2.26-.23,3.83-1.6,3.77-4.03-.06-2.19-1.59-3.63-3.82-3.64-2.38-.02-4.21,1.25-4.2,3.77,.01,2.39,1.47,3.87,4.26,3.9Zm-121.37,11.96c-.17-2.44-1.38-4.01-3.89-4.06-2.15-.04-3.83,1.01-4.04,3.33-.22,2.51,1.24,3.99,3.63,4.29,2.54,.32,3.87-1.14,4.3-3.56Zm132.36-33.82c-2.69,.1-4.15,1.36-4.11,3.9,.03,2.58,1.79,3.81,4.1,3.83,2.36,.02,4.11-1.31,3.98-3.87-.12-2.41-1.73-3.68-3.97-3.86Zm-76.91,23.68c-.16-2.27-1.64-3.61-4.01-3.66-2.21-.05-3.7,1.3-3.86,3.52-.17,2.45,1.17,4.1,3.67,4.16,2.36,.06,3.94-1.21,4.2-4.03Zm-31.47-8.14c-.21-2.49-1.71-3.79-4.03-3.95-2.34-.16-4.23,.83-4.22,3.44,.01,2.35,1.46,3.86,3.9,4.02,2.45,.16,3.85-1.16,4.35-3.51Zm6.13,48.25c-.35-2.61-2.09-3.67-4.36-3.49-2.03,.16-3.72,1.34-3.68,3.68,.04,2.5,1.59,3.85,4.03,3.72,2.33-.13,3.8-1.48,4.02-3.9Zm98.98-12.99c-.23-2.29-1.62-3.5-3.79-3.55-2.35-.06-4.1,.95-4.07,3.63,.03,2.33,1.55,3.56,3.68,3.66,2.4,.11,3.85-1.28,4.18-3.73Zm-95.24-29c-2.29,.37-4.06,1.36-3.98,3.99,.08,2.57,1.72,3.81,4.15,3.72,2.18-.08,3.68-1.26,3.75-3.62,.07-2.61-1.55-3.71-3.93-4.09Zm3.87,69.19c-1.94,.65-3.96,1.55-3.57,4.19,.35,2.34,2.05,3.67,4.46,3.46,2.23-.19,3.49-1.63,3.45-3.88-.05-2.63-1.86-3.49-4.34-3.77Zm25.45-55.16c-1.99,.39-3.36,1.58-3.24,3.92,.13,2.5,1.56,3.94,4.09,3.77,2.23-.15,3.73-1.64,3.66-3.81-.09-2.44-1.95-3.57-4.5-3.88Zm-41.69,40.06c-2.24,.14-4.05,1.12-4.15,3.62-.1,2.5,1.58,3.82,3.93,3.91,2.51,.1,3.82-1.41,3.9-3.86,.08-2.39-1.44-3.37-3.68-3.68Zm55.82,.93c-2.18,.26-3.66,1.24-3.58,3.66,.08,2.6,1.62,3.71,4.06,3.71,2.35,0,3.64-1.44,3.61-3.62-.03-2.46-1.62-3.7-4.09-3.74ZM382.5,169.06c-3.13,6.75-3.79,6.96-10.87,3.7-.75-.34-1.41-.8-2.17-.11-.56,.5-.55,1.09-.29,1.73,.87,2.09,7.32,4,10.17,2.79,3.49-1.48,4.29-4.2,3.16-8.11Zm-86.79,599.41c-.24-2.47-1.77-3.84-4.12-3.76-2.06,.07-3.73,1.23-3.72,3.61,.02,2.26,1.42,3.66,3.57,3.81,2.38,.16,3.93-1.12,4.26-3.66Zm83.51-89.97c-.34-2.17-1.46-3.63-3.73-3.69-2.4-.06-4.11,1.07-4.1,3.66,.01,2.23,1.44,3.67,3.61,3.76,2.38,.1,3.84-1.32,4.23-3.73Zm-47.68,41.88c2.15-.16,3.47-1.36,3.43-3.69-.04-2.31-1.52-3.57-3.68-3.76-2.29-.2-3.87,1.17-3.9,3.36-.04,2.37,1.57,3.78,4.15,4.09Zm-32.79,1.28c1.93-.52,3.8-1.5,3.66-4.03-.13-2.24-1.86-3.37-3.94-3.43-2.13-.06-3.73,.99-3.76,3.4-.04,2.5,1.35,3.78,4.05,4.07Zm173.33-43.05c-.28-2.31-1.75-3.51-3.92-3.42-2.12,.08-3.81,1.31-3.74,3.64,.07,2.48,1.69,3.87,4.15,3.69,2.2-.16,3.45-1.58,3.51-3.9Zm-124.44,129.95c-.25-2.22-1.66-3.35-3.87-3.38-2.16-.02-3.97,.82-3.92,3.28,.05,2.46,1.58,3.78,4.1,3.79,2.37,0,3.51-1.31,3.7-3.68Zm3.99-17.45c-.53-2.36-2.04-3.62-4.49-3.4-2.21,.2-3.69,1.49-3.51,3.83,.19,2.57,2.04,3.66,4.39,3.5,2.2-.15,3.46-1.59,3.61-3.93Zm28.19-13.98c2.11-.32,3.93-1.15,4.05-3.47,.14-2.58-1.61-3.89-3.97-3.9-2.18-.01-3.73,1.35-3.73,3.64,0,2.24,1.43,3.47,3.64,3.73Zm-72.41-12.6c2.22-.28,3.62-1.49,3.69-3.74,.09-2.7-1.9-3.71-4.13-3.77-1.94-.05-3.38,1.14-3.42,3.31-.04,2.54,1.49,3.74,3.85,4.2Zm116.9-53.3c-.24-2.44-1.72-3.84-4.07-3.96-1.93-.1-3.54,1.02-3.74,3.06-.25,2.53,1.41,3.99,3.7,4.24,2.18,.24,3.61-1.09,4.11-3.34Zm-39.66,.37c-.26-2.07-1.71-3.29-3.84-3.4-2.27-.12-3.73,1.32-3.87,3.53-.14,2.21,1.09,3.91,3.4,3.9,2.27,0,4.01-1.2,4.31-4.03Zm-64.74,12.08c-.16-2.28-1.35-3.67-3.63-3.74-2.2-.07-3.84,1.03-4.01,3.33-.18,2.55,1.43,3.92,3.83,4.03,2.34,.1,3.37-1.53,3.81-3.62Zm24.51,43.38c-2.26,.11-4,1.09-3.99,3.67,0,2.26,1.51,3.5,3.69,3.59,2.48,.11,4-1.38,4.11-3.71,.11-2.26-1.5-3.36-3.82-3.55Zm18.72,10.97c-.3-2.1-1.65-3.38-3.82-3.42-2.41-.05-4.02,1.25-4,3.79,.02,2.09,1.49,3.28,3.43,3.32,2.27,.05,4.02-.99,4.39-3.7Zm101.06-76.83c2.5-.07,3.73-1.57,3.85-3.69,.13-2.32-1.5-3.66-3.66-3.72-2.4-.07-4.11,1.23-3.98,3.86,.11,2.32,1.71,3.34,3.8,3.56Zm-225.74,62.79c-.46-2.31-1.98-3.54-4.4-3.29-2.26,.23-3.53,1.8-3.27,3.99,.26,2.17,1.87,3.41,4.1,3.19,2.12-.21,3.58-1.35,3.57-3.88Zm104.71-64.83c-2.09,.13-3.69,1.1-3.77,3.46-.08,2.67,1.63,3.72,4.07,3.68,2.33-.03,3.73-1.41,3.68-3.63-.05-2.24-1.59-3.42-3.98-3.51Zm-11.57,61.88c-.39-2.55-2-3.57-4.39-3.55-2.36,.02-3.71,1.4-3.61,3.61,.11,2.45,1.78,3.71,4.25,3.58,2.27-.11,3.43-1.49,3.75-3.65Zm94.05-25.15c-.08-2.35-1.32-3.85-3.49-4.03-2.44-.21-4.21,1.22-4.16,3.69,.04,2.09,1.43,3.61,3.76,3.7,2.34,.09,3.59-1.15,3.89-3.36Zm-213.33-4.47c-.34-2.52-2.02-3.55-4.33-3.41-2.23,.14-3.55,1.57-3.34,3.83,.23,2.43,1.88,3.73,4.27,3.53,2.21-.18,3.28-1.73,3.41-3.95Zm50.88,17.7c2.22-.19,3.75-1.26,3.7-3.6-.05-2.25-1.45-3.54-3.72-3.6-2.53-.07-4.05,1.31-3.95,3.8,.1,2.28,1.8,3.25,3.97,3.4Zm180.87-29.37c-1.91,.3-3.42,1.37-3.35,3.69,.06,2.25,1.39,3.63,3.68,3.46,2.28-.17,4.12-1.32,3.93-3.9-.16-2.25-1.8-3.24-4.25-3.24Zm-216.07-.83c1.89-.17,3.46-1.22,3.53-3.54,.07-2.34-1.35-3.6-3.67-3.58-2.59,.03-3.9,1.57-3.79,4.05,.1,2.1,1.47,3.14,3.93,3.07ZM292.05,129.81c2.31-.39,4.12-1.66,5.3-3.74,.86-1.51,.86-3.13-.08-4.63-.53-.84-1.32-1.52-2.41-1.29-1.12,.23-1.01,1.18-.73,1.92,1.1,2.9-.8,3.27-2.88,3.65-1.09,.2-2.44,.47-2.2,2.03,.23,1.55,1.51,1.95,3,2.06Zm149.17,642.61c-.42-1.72-1.44-3.28-3.84-3.06-2.24,.2-3.6,1.59-3.5,3.85,.1,2.26,1.64,3.66,3.82,3.51,2.13-.14,3.46-1.59,3.52-4.3Zm-166.98-5.3c2.17-.32,3.74-1.39,3.88-3.67,.14-2.35-1.35-3.64-3.55-3.8-2.33-.18-3.75,1.2-3.79,3.47-.04,2.17,1.19,3.63,3.46,4Zm40.41-20.92c-.16-2.42-1.67-3.55-3.81-3.59-2.14-.04-3.92,1.08-3.92,3.4,0,2.46,1.72,3.83,4.11,3.82,2.23-.01,3.57-1.3,3.62-3.63Zm48.22,69.47c-.37-2.12-1.34-3.61-3.8-3.51-2.28,.09-3.77,1.21-3.8,3.54-.03,2.37,1.57,3.51,3.77,3.58,2.32,.08,3.52-1.32,3.84-3.61Zm-35.64-32.04c2.17-.4,3.85-1.27,3.76-3.73-.08-2.36-1.61-3.56-3.8-3.6-2.27-.04-3.79,1.39-3.74,3.62,.05,2.19,1.69,3.36,3.77,3.72Zm-82.81-34.17c.11-2.73-1.43-3.93-3.54-4.05-2.17-.12-3.78,1.13-3.84,3.48-.06,2.31,1.39,3.66,3.59,3.78,2.26,.13,3.63-1.13,3.79-3.22Zm139.31,.08c2.04-.49,3.71-1.25,3.77-3.71,.05-2.46-1.4-3.55-3.58-3.6-2.27-.06-3.67,1.32-3.73,3.56-.06,2.26,1.35,3.48,3.55,3.75Zm98.22-98.92c-1.8,.57-3.52,1.5-3.41,3.87,.1,2.04,1.45,3.35,3.48,3.32,2.24-.04,3.67-1.44,3.63-3.72-.03-2.09-1.56-3.03-3.7-3.47Zm-38.1,144.73c-.23-2.21-1.39-3.59-3.67-3.59s-3.6,1.46-3.71,3.59c-.12,2.31,1.38,3.48,3.63,3.49,2.26,0,3.52-1.22,3.74-3.49Zm-6.54-106.97c-2.23,.25-3.9,1.26-3.92,3.55-.01,2.25,1.47,3.49,3.74,3.52,2.33,.03,3.69-1.34,3.76-3.53,.07-2.26-1.34-3.49-3.59-3.54Zm-189.1,37.36c-.39-1.8-1.53-3.22-3.8-3.31-2.27-.1-3.84,1.01-3.89,3.37-.05,2.28,1.35,3.64,3.62,3.72,2.26,.09,3.6-1.16,4.07-3.78Zm152.41,35.45c2.16-.36,3.82-1.34,3.82-3.63,0-2.37-1.67-3.43-3.85-3.24-2.11,.19-3.61,1.4-3.48,3.76,.12,2.17,1.67,2.89,3.51,3.11Zm52.27-109.32c.37,2.09,1.41,3.59,3.7,3.63,2.22,.04,3.73-1.14,3.83-3.39,.1-2.24-1.27-3.59-3.52-3.67-2.26-.08-3.42,1.37-4.01,3.43Zm11.82,71.58c-2.14,.06-3.62,.98-3.76,3.07-.14,2.2,.97,3.75,3.31,3.93,2.21,.16,3.93-.77,3.93-3.18,0-2.17-1.36-3.52-3.49-3.82Zm-42.34-58.58c-.2-2.27-1.37-3.64-3.64-3.8-2.37-.17-3.72,1.27-3.83,3.44-.11,2.22,1.29,3.7,3.53,3.76,2.19,.07,3.62-1.13,3.93-3.41Zm65.41,66.83c.36-3.53-.93-4.61-2.97-4.71-2.17-.11-3.8,.76-3.97,3.24-.13,2.04,.58,3.63,2.79,3.8,2.44,.19,3.99-1.02,4.15-2.33Zm-63.35,58.58c-.41-2.15-1.62-3.49-3.89-3.51-2.33-.02-3.71,1.41-3.72,3.56,0,2.17,1.41,3.55,3.75,3.49,2.25-.06,3.52-1.3,3.86-3.54Zm-23.43-5.06c-.4-2.19-1.67-3.47-3.99-3.25-2.33,.22-3.47,1.87-3.32,4.01,.14,2.02,1.61,3.13,3.69,3.01,2.29-.12,3.5-1.42,3.61-3.78Zm-1.77,23.34c-.04-2.23-1.12-3.6-3.15-3.72-2.18-.13-3.74,.95-3.84,3.36-.09,2.13,1.14,3.47,3.11,3.61,2.18,.16,3.59-1.11,3.89-3.25Zm-26.96,14.3c2.16-.26,3.8-1.06,3.79-3.53-.01-2.38-1.52-3.56-3.68-3.63-2.21-.07-3.71,1.14-3.78,3.48-.07,2.44,1.66,3.25,3.67,3.67Zm-167.01-149.86c-2.15,.21-3.22,1.45-3.27,3.48-.06,2.41,1.43,3.51,3.65,3.47,2.02-.03,3.36-1.14,3.33-3.29-.04-2.36-1.69-3.25-3.7-3.66Zm240.8,72.85c.05-2.35-1.12-3.54-3.13-3.68-2.27-.16-3.7,1.11-3.84,3.36-.13,2,.92,3.48,3.05,3.52,2.18,.04,3.55-1.19,3.92-3.19Zm11.37,13.62c-.31-2.03-1.58-3.15-3.58-3.15-2.2,0-3.82,1.13-3.72,3.5,.09,2.02,1.57,3.25,3.53,3.33,2.33,.1,3.37-1.51,3.77-3.67Zm-246.44-55.91c-.27-2.25-1.67-3.41-3.91-3.29-2.08,.11-3.21,1.39-3.07,3.54,.15,2.36,1.55,3.5,3.83,3.39,2.15-.11,3.06-1.52,3.15-3.64Zm65.43,32.72c2-.12,3.53-1.03,3.58-3.15,.05-2.35-1.59-3.52-3.76-3.56-2.09-.04-3.38,1.32-3.33,3.37,.05,2.05,1.45,3.13,3.52,3.33Zm-78.96-55.93c-.25-2.19-1.82-3.17-3.99-3.01-2.1,.16-3.15,1.67-3.03,3.7,.12,2.05,1.43,3.38,3.47,3.3,2.18-.09,3.6-1.34,3.54-3.98Zm279.63,89.61c-.29-2.18-1.43-3.57-3.75-3.54-2.08,.03-3.32,1.3-3.4,3.32-.1,2.37,1.34,3.57,3.63,3.47,1.95-.08,3.33-1.06,3.52-3.26Zm-57.69,44.99c1.95-.44,3.75-1.21,3.67-3.62-.07-2.07-1.39-3.17-3.47-3.17-2.28,0-3.73,1.27-3.76,3.48-.03,2.09,1.64,2.92,3.56,3.31Zm87.02-122.45c1.9-.2,3.44-1.11,3.52-3.21,.09-2.38-1.53-3.58-3.72-3.53-2.03,.05-3.36,1.48-3.37,3.46-.01,2.06,1.4,3.15,3.57,3.27Zm-86.33-9.61c-2.18,.33-3.53,1.52-3.44,3.83,.08,2.23,1.68,3.02,3.62,3.02,2,0,3.37-.91,3.46-3.15,.1-2.51-1.54-3.3-3.63-3.71Zm.74,76.37c-2.3,.18-3.53,1.49-3.42,3.73,.1,2.02,1.45,3.27,3.44,3.25,2.15-.02,3.65-1.21,3.66-3.54,0-2.35-1.43-3.38-3.68-3.44Zm49.25-9.61c2.02-.28,3.27-1.42,3.39-3.47,.13-2.11-.95-3.47-3.13-3.47-2.26,0-3.78,1.24-3.77,3.54,0,2.09,1.53,3.07,3.51,3.39Zm42-20.43c-.34-1.83-1.6-2.85-3.64-2.74-2.06,.11-3.33,1.34-3.33,3.38,0,2.03,1.21,3.41,3.32,3.29,2.14-.12,3.55-1.33,3.65-3.94Zm-61.66-21.8c1.94-.23,3.58-.96,3.58-3.2,0-2.28-1.42-3.75-3.64-3.74-2.04,0-3.25,1.5-3.3,3.53-.05,2.14,1.3,3.19,3.36,3.41Zm-257.1,3.52c2.01-.23,3.47-1.17,3.47-3.3,0-2.21-1.22-3.69-3.56-3.77-1.93-.07-3.06,1.11-3.16,2.95-.12,2.2,.98,3.67,3.25,4.12Zm246.03,106.19c-.12-2.19-1.4-3.34-3.36-3.42-2.25-.09-3.64,1.23-3.67,3.5-.03,2.1,1.43,3.32,3.33,3.37,2.14,.06,3.57-1.18,3.7-3.46Zm-250.35-125.16c-2.15,.25-3.37,1.37-3.19,3.48,.17,1.95,1.33,3.48,3.35,3.41,2.2-.08,3.47-1.65,3.39-3.87-.08-2.2-1.72-2.84-3.55-3.02Zm133.97,15.67c-.26-2.3-1.73-3.32-3.92-3.18-1.75,.11-3.08,1.04-3.02,3.01,.06,2.26,1.33,3.63,3.61,3.55,1.97-.07,3.25-1.17,3.33-3.37Zm-31.78,43.91c-.17-1.86-1.32-3.11-3.37-3.02-2.06,.09-3.86,1.02-3.87,3.4-.01,2.25,1.45,3.6,3.65,3.59,2.28,0,3.35-1.56,3.59-3.97Zm174.31,60c-2.13,.24-3.41,1.44-3.53,3.4-.12,2.1,1.26,3.25,3.3,3.3,2.31,.07,3.71-1.22,3.69-3.49-.02-2.12-1.65-2.93-3.47-3.22Zm55.78-102.93c-.3-1.99-1.4-3.31-3.46-3.17-1.94,.13-3.4,1.41-3.36,3.38,.04,2.16,1.47,3.6,3.73,3.43,2.03-.16,2.95-1.65,3.09-3.64Zm-62.99,85.28c.3,2.16,1.59,3.32,3.6,3.23,2.12-.09,3.8-1.06,3.6-3.59-.17-2.09-1.55-3.3-3.52-3.26-2.18,.04-3.54,1.37-3.69,3.62Zm-258.92-130.09c-.37-1.67-1.52-2.83-3.62-2.67-2.05,.16-3.36,1.27-3.12,3.45,.22,2,1.45,3.32,3.55,3.13,2-.18,3.15-1.45,3.19-3.91Zm257.39,110.4c-2.16-.03-3.61,.93-3.82,2.97-.24,2.29,1.07,3.69,3.37,3.76,2.07,.06,3.31-1.11,3.43-3.23,.12-2.12-.96-3.3-2.98-3.5Zm54.63-104.32c-.31-2.17-1.53-3.66-3.72-3.6-1.91,.05-3.33,1.3-3.25,3.42,.07,2.04,1.35,3.33,3.36,3.34,1.93,.01,3.28-1.07,3.61-3.16Zm-7.87,38.2c.04-2.33-1.12-3.59-3.15-3.65-2.19-.06-3.72,1.12-3.7,3.49,.01,2.13,1.35,3.26,3.39,3.23,2.01-.03,3.28-1.13,3.46-3.08Zm-308.94-67.85c0-2.2-.94-3.56-3.07-3.7-2.02-.14-3.52,.76-3.67,2.92-.14,2.1,1.11,3.31,3.15,3.55,2.09,.24,3.39-.68,3.59-2.76Zm328.39,135.67c1.99-.34,3.58-1.21,3.64-3.32,.07-2.03-1.12-3.43-3.23-3.51-2.04-.08-3.48,.97-3.53,3.15-.04,2.05,1.2,3.23,3.12,3.69Zm1.89-729.79c-1.07,.1-1.93,.6-1.68,1.76,.53,2.55-.04,5.92,3.19,6.9,1.52,.46,2.24-1.49,2.32-3.02,.13-2.76-1.43-4.43-3.82-5.64Zm-44.02,26.75c-2.59-.82-2.3-4.99-5.31-5.2-1.64-.12-1.61,2.18-1.41,3.59,.36,2.48,1.61,4.27,4.45,4.06,1.19-.09,2.13-.72,2.27-2.45Zm3.31,682.96c-.19-2.07-1.48-3.23-3.43-3.37-2.05-.15-3.46,.97-3.54,3.08-.08,2.13,1.44,3.31,3.33,3.44,1.97,.14,3.28-1.08,3.65-3.15Zm21.68,43.73c-1.88,.37-3.09,1.56-3.04,3.59,.05,1.88,1.31,2.97,3.15,2.95,2.03-.02,3.36-1.17,3.44-3.27,.08-2.24-1.48-2.99-3.55-3.28Zm-17.77-108.69c2.03-.18,3.47-1.12,3.53-3.23,.07-2.07-1.14-3.37-3.23-3.41-1.99-.03-3.44,.96-3.52,3.13-.08,2.15,1.29,3.13,3.22,3.5Zm-294.84-41.82c-2.04,.06-3.22,1.12-3.29,2.97-.07,1.96,.92,3.61,3,3.78,2.03,.17,3.45-1.07,3.47-3.18,.02-2.05-1.29-3.21-3.18-3.57Zm-9.94,6.9c-2.12,.16-3.37,1.32-3.22,3.42,.14,2,1.41,3.35,3.52,3.2,1.84-.13,2.87-1.41,2.96-3.26,.11-2.21-1.16-3.21-3.26-3.37Zm298.47,48.3c-1.94,.38-3.55,1.24-3.48,3.34,.07,2.15,1.3,3.64,3.66,3.5,2.08-.12,3.15-1.43,3.08-3.5-.08-2.06-1.27-3.16-3.25-3.35Zm51.95,12.61c2.1-.19,3.13-1.47,3.06-3.5-.07-2.12-1.43-3.24-3.48-3.06-1.95,.17-3.39,1.33-3.22,3.44,.16,2.03,1.57,3.02,3.64,3.11Zm-55.99,72.78c1.79-.2,3.07-1.09,3.11-2.99,.04-2.06-1.22-3.36-3.21-3.5-2.04-.14-3.45,.96-3.37,3.13,.07,2.07,1.48,3.06,3.47,3.35Zm30.49-.69c1.86-.19,3.34-1.06,3.31-3.21-.03-2.05-1.39-3.25-3.37-3.35-2.17-.12-3.18,1.43-3.31,3.33-.14,2.13,1.15,3.17,3.36,3.23ZM281.75,100.44c-.31-1.92-1.54-3.15-3.39-3.51-2.18-.42-2.76,1.29-2.94,2.94-.23,2.13,1.09,3.43,3.04,3.58,1.82,.14,2.84-1.21,3.29-3.01Zm212.25,650.58c2.17-.28,3.2-1.6,3.09-3.63-.1-1.86-1.35-3.07-3.16-2.98-1.92,.09-3.4,1.14-3.28,3.38,.11,2.09,1.23,3.24,3.35,3.24Zm36.71,3.15c-.42-1.92-1.48-3.24-3.57-3.1-1.86,.13-2.88,1.45-2.9,3.22-.02,1.85,1.21,3.05,2.99,3.08,1.95,.03,3.27-1.07,3.48-3.2Zm-16.35-5.62c-.2-1.89-1.1-3.37-3.18-3.4-1.74-.02-3.09,.94-3.19,2.85-.11,2.1,1.11,3.35,3.13,3.43,1.75,.07,3-.9,3.25-2.88Zm-25.07,27.62c-1.62,.19-3.02,.94-3.18,2.81-.17,1.99,.76,3.55,2.93,3.55,1.94,0,3.42-1.07,3.44-3.2,.02-1.91-1.36-2.72-3.19-3.16Zm-257.29-77.14c-1.89,.05-3.3,.81-3.42,2.74-.12,2.13,1.34,3.28,3.27,3.45,1.79,.16,3.27-.78,3.35-2.69,.07-2.03-1.23-3.21-3.2-3.5Zm276.4,64.06c-1.99,.43-3.35,1.39-3.1,3.59,.21,1.91,1.45,2.83,3.31,2.67,2.03-.17,3.35-1.27,3.04-3.45-.25-1.77-1.4-2.81-3.25-2.82ZM214.84,455.78c-.35-1.74-1.32-3.15-3.17-3.03-1.66,.12-3.16,1.2-3.03,3.15,.12,1.79,1.33,3.11,3.15,3.07,1.8-.04,2.87-1.29,3.04-3.2Zm311.11,235.03c-.09-1.86-1.1-3.01-2.92-3.12-1.79-.11-3.11,.8-3.24,2.72-.14,2.12,1.07,3.34,3.1,3.38,1.83,.04,2.88-1.11,3.05-2.98ZM188.6,501.5c-.37-1.61-1.38-2.85-3.24-2.83-1.81,.02-3.21,1.15-3.19,2.98,.02,1.74,1.19,3.14,3.11,3.03,1.72-.1,3-1.11,3.32-3.18Zm.92,126.31c1.73-.31,3.21-.93,3.14-2.98-.06-2.11-1.43-3.29-3.4-3.31-1.91-.02-2.86,1.38-2.8,3.22,.07,1.87,1.22,2.86,3.05,3.07Zm-1.09-16.21c-.28-1.82-1.45-2.89-3.21-2.85-1.79,.04-3.03,1.22-3.02,3.07,0,1.86,1.2,3.01,3.07,2.91,1.8-.1,2.81-1.32,3.16-3.13ZM352.13,60.54c.74,4.31,2.42,6.49,5.67,6.78,2.58,.23,4.29-1.25,5.56-5.39-4.97,4.9-7.48,1.05-11.23-1.39Zm209.2,16.79c-.51,7.12-1.78,7.82-8.95,5.19,1.62,3.91,4.07,4.89,7,3.65,3.49-1.47,4.41-4.25,1.94-8.85Zm-31.53,660.99c1.51-.24,2.88-.96,2.93-2.96,.06-2.24-1.31-3.24-3.36-3.23-1.95,0-2.99,1.23-2.92,3.11,.07,1.85,1.17,2.93,3.35,3.08Zm-7.09,57.59c1.84-.18,3.08-1.1,3.1-3.01,.02-2.09-1.21-3.33-3.29-3.33-1.97,0-2.85,1.34-2.78,3.19,.07,1.83,1.08,2.95,2.97,3.16Zm-338.75-164.46c-.11-1.84-1.23-2.8-3.08-2.83-1.82-.03-2.57,1.18-2.53,2.81,.04,1.73,.66,3.28,2.7,3.29,1.94,0,2.73-1.37,2.91-3.27ZM508.33,92.33c-1.93,.81-3.55-2.51-4.85-.2-.86,1.53,.74,3.07,2.31,3.62,1.9,.66,3.7-.28,4.41-1.94,.74-1.72,.58-3.78-.9-5.32-.24-.25-.96-.28-1.29-.1-.25,.14-.35,.77-.33,1.17,.06,.91,1.16,1.57,.64,2.76ZM228.29,437.17c1.9-.04,2.99-.92,3.12-2.61,.14-1.89-.87-3.15-2.78-3.3-1.71-.13-2.82,.87-2.89,2.58-.08,1.81,.71,3.13,2.56,3.32Zm57.02-321.47c-.02-1.54-.87-2.58-2.62-2.41-1.82,.17-3.59,.83-3.47,3.08,.11,1.85,1.57,2.79,3.3,2.74,1.89-.05,2.68-1.42,2.79-3.41Zm209.13,646.56c-1.83,.29-3.11,1.14-2.94,3.17,.15,1.76,.93,3.21,2.95,3.21,2.19,0,3.24-1.36,3.19-3.45-.05-2-1.4-2.77-3.2-2.93ZM252.9,403.08c-1.62,.21-2.79,1.03-2.83,2.7-.06,2.02,1.35,2.85,3.14,2.74,1.61-.1,2.7-1.15,2.58-2.85-.12-1.65-1.25-2.48-2.89-2.59Zm-29.17,41.34c-.16-1.89-1.27-2.99-3.12-2.97-1.57,.02-2.86,.85-2.74,2.69,.12,1.82,1.07,3.15,3.03,3.04,1.55-.08,2.74-.93,2.82-2.77Zm80.2-304.75c4.16,2.19,6.21,.8,7.63-2.16,1.29-2.68,.8-3.58-2.44-4.98q.53,4.87-5.19,7.13Zm-122,511.74c1.58-.37,2.79-1.25,2.58-2.96-.22-1.76-1.34-3.07-3.28-2.76-1.62,.25-2.55,1.48-2.31,3.16,.23,1.64,1.33,2.5,3.02,2.57Zm4.5-54.49c-1.83,.16-2.86,1.21-2.82,3.1,.03,1.66,.91,2.76,2.66,2.76,1.95,0,2.97-1.19,2.97-3.04,0-1.69-1.1-2.56-2.81-2.83Zm112.59-31.45c-1.68,.08-2.91,.91-2.95,2.54-.04,1.72,.86,3.22,2.83,3.13,1.55-.07,2.67-1.09,2.67-2.81,0-1.67-.9-2.64-2.55-2.86ZM462.25,46.83c-.2-1.54-.79-2.83-2.55-2.88-1.84-.05-2.45,1.3-2.52,2.83-.07,1.61,.64,2.85,2.43,2.88,1.82,.03,2.32-1.35,2.64-2.83Zm-15.39-19.42c-.14-1.69-.94-2.73-2.73-2.66-1.81,.07-2.53,1.16-2.38,2.89,.14,1.62,.84,2.89,2.62,2.79,1.75-.09,2.32-1.47,2.49-3.03ZM236.55,426.72c1.34-.4,2.71-.95,2.68-2.76-.04-2.04-1.38-2.83-3.21-2.66-1.63,.16-2.64,1.21-2.52,2.92,.13,1.72,1.24,2.49,3.05,2.49ZM375.52,66.45c-1.82,.56-2.21,2.87-4.28,2.89-.9,.01-2.73-.22-2.32,1.49,.38,1.58,2.05,2.07,3.5,1.52,2.6-.98,4.28-2.65,3.09-5.9Zm-205.24,475.52c-.12-1.6-.92-2.67-2.72-2.49-1.43,.14-2.35,.98-2.35,2.53,0,1.7,.87,2.88,2.53,2.93,1.74,.05,2.46-1.23,2.54-2.97Zm7.42-29.52c.22,1.2,.71,2.61,2.52,2.49,1.6-.1,2.58-1.13,2.49-2.87-.07-1.48-.93-2.39-2.34-2.54-1.79-.19-2.52,.95-2.68,2.91ZM570.97,93.49c-1.03,1.7-1.2,3.43-2.81,4.21-1.13,.55-3.42,1.03-2.04,2.77,1.16,1.46,2.98,.14,4.14-.94,1.57-1.46,2.64-3.18,.71-6.04ZM296.77,484.16c-.2-1.44-.89-2.69-2.62-2.66-1.71,.04-2.62,1.26-2.51,2.86,.11,1.6,1.24,2.63,2.89,2.52,1.44-.1,2.2-1.12,2.24-2.73Zm-104.56,2.69c-1.43,.24-2.43,1-2.42,2.51,.01,1.69,.99,2.76,2.72,2.65,1.55-.1,2.14-1.28,2.08-2.73-.06-1.48-.77-2.41-2.38-2.43ZM466.31,63.12c-.59-1.75-2.21-2.42-3.73-2.4-1.96,.02-1.09,1.99-1.21,3.01-.19,1.62,1.1,2.18,2.55,2,1.42-.17,2.27-1.04,2.39-2.61ZM158.85,572.64c-.28-1.39-.87-2.47-2.5-2.34-1.46,.12-2.5,.96-2.38,2.45,.12,1.55,.99,2.81,2.79,2.65,1.55-.15,2-1.38,2.1-2.76Zm37.86-91.15c1.38-.27,2.41-1.05,2.42-2.49,.01-1.73-1.2-2.65-2.8-2.54-1.39,.09-2.29,1.09-2.15,2.62,.14,1.47,1.07,2.23,2.52,2.41Zm105.04,104.77c1.65-.1,2.55-1.04,2.39-2.51-.16-1.49-.9-2.85-2.79-2.73-1.37,.08-2.04,1.03-2.05,2.27-.02,1.63,.75,2.77,2.45,2.97Zm-6.19-125.31c-.19-1.38-.78-2.46-2.31-2.49-1.45-.03-2.42,.74-2.43,2.27-.01,1.44,.72,2.44,2.23,2.51,1.51,.07,2.24-.91,2.52-2.29Zm-2.79-14.67c-1.53,.19-2.42,1.02-2.4,2.48,.02,1.45,.96,2.41,2.36,2.48,1.55,.08,2.18-1.02,2.19-2.46,.01-1.47-.69-2.36-2.15-2.5ZM528.62,109.06c-1.13,.53-2.29,1.28-2.28,2.67,0,1.65,1.45,1.95,2.78,1.98,1.11,.03,2.5,.03,2.41-1.59-.09-1.6-1.32-2.44-2.91-3.07Zm-161.51-52.31c1.06-.48,1.93-1.25,1.82-2.75-.11-1.49-1.05-2.4-2.42-2.43-1.41-.03-2.4,.87-2.33,2.4,.07,1.63,1.04,2.55,2.93,2.78Zm-71.29,450.54c1.51-.26,2.11-1.25,1.92-2.73-.16-1.28-.98-2.09-2.24-2.04-1.44,.06-2.5,.95-2.32,2.46,.16,1.35,1.05,2.3,2.65,2.31Zm-123.38,27.29c1.41-.39,2.51-1.2,2.37-2.94-.12-1.52-1.02-2.25-2.58-2.07-1.53,.18-2.21,1.16-2.19,2.6,.02,1.45,.65,2.42,2.4,2.41Zm3.81-9.01c1.33-.23,2.32-.97,2.43-2.45,.11-1.54-.78-2.45-2.29-2.5-1.46-.04-2.5,.67-2.51,2.28-.01,1.5,.82,2.35,2.38,2.67Zm119.46-53.13c-.25-1.47-1.02-2.42-2.61-2.22-1.46,.19-2.37,1.08-2.26,2.64,.11,1.55,1.04,2.36,2.59,2.24,1.56-.13,2.2-1.17,2.28-2.66ZM517.21,106.14c-1.39-1.26-2.77-2.93-4.53-3.92-.84-.47-1.45,1.1-1.21,2.05,.54,2.19,1.58,3.99,4.31,3.63,.83-.11,1.57-.43,1.43-1.77ZM243.43,418.96c1.47-.13,2.38-.94,2.42-2.41,.04-1.47-.88-2.48-2.31-2.52-1.42-.04-2.39,.85-2.41,2.37-.02,1.49,.83,2.33,2.3,2.55ZM449.86,37.71c-.16-1.46-.92-2.57-2.42-2.42-1.65,.17-1.78,1.69-1.69,2.98,.09,1.27,.37,2.8,2.17,2.41,1.39-.3,1.97-1.53,1.94-2.97Zm-151.44,487.27c-.28-1.44-1.01-2.38-2.6-2.29-1.35,.07-2.08,.82-2.05,2.17,.04,1.44,.68,2.6,2.24,2.62,1.53,.02,2.23-1.07,2.41-2.5ZM494.02,88.1c-1.95-1.08-3.19-2.13-4.49-2.87-2.91-1.65-3.14,.45-1.97,2.24,1.34,2.05,3.52,2.51,6.46,.62Zm-88.76-5.79c-1.47,.24-2.19,1.13-2.07,2.61,.11,1.25,.85,2.1,2.12,2.09,1.48-.02,2.34-1.02,2.37-2.42,.04-1.48-.89-2.26-2.42-2.28Zm-138.06,309.96c-1.51,.15-2.56,.92-2.43,2.45,.13,1.4,1.09,2.39,2.62,2.32,1.29-.06,2.09-.91,2.14-2.2,.07-1.56-.91-2.31-2.34-2.56Z"/>
  <path d="M668.3,643.21c-.7-14.58-3.49-30.2-8.22-45.45-1.08-3.48-.98-5.41,3-6.87,5.16-1.9,8.62-6.28,11.77-10.63,11.46-15.8,20.74-32.93,30.37-49.85,19.65-34.51,44.6-64.52,76.29-88.68,6.08-4.63,12.63-8.54,20.08-10.71,2.43-.71,4.52-1.01,3.46,2.66-3.89,13.49-3.46,27.3-2.97,41.09,1.01,28.58,5.08,56.89,7.86,85.3,4.31,44.05,6.03,88.07,.85,132.17-.78,6.6-.92,13.27-1.42,19.91-.09,1.19,.47,2.91-1.15,3.35-1.24,.34-1.88-1.09-2.59-1.91-4.22-4.93-8.25-10.01-12.88-14.59-15.09-14.94-33.14-24.27-53.88-28.4-7.14-1.42-14.28-1.45-20.65,2.83-2.11,1.42-3.21,.25-4.59-.93-5.81-4.95-11.67-9.82-18.5-13.38-7.4-3.86-15.2-5.75-23.5-4.5-2.66,.4-3.55-.01-3.36-2.72,.17-2.42,.04-4.87,.04-8.69Zm105.97-17.79c-1.76,.27-3.04,1.07-3.03,3.02,0,1.64,.96,2.81,2.55,2.93,1.75,.14,3.16-.72,3.26-2.68,.09-1.85-1.02-2.88-2.78-3.28Zm-2.52-20.14c1.56-.35,2.62-1.15,2.6-2.92-.02-2.08-1.26-2.86-3.13-2.73-1.8,.13-2.51,1.37-2.34,3,.16,1.61,1.09,2.63,2.87,2.65Zm-1.2-18.78c-1.73,.36-2.76,1.33-2.74,3.02,.02,2.04,1.31,2.87,3.23,2.68,1.75-.18,2.62-1.25,2.37-3.01-.23-1.66-1.31-2.51-2.87-2.69Zm-5.98-33.34c1.6-.08,2.71-.88,2.83-2.55,.13-1.91-.91-3.07-2.83-2.97-1.57,.08-2.73,.95-2.65,2.73,.07,1.61,.85,2.68,2.65,2.79Zm4.47,21.16c-1.72,.08-2.7,.95-2.77,2.69-.07,1.76,.96,2.78,2.59,2.91,1.73,.14,2.7-.86,2.67-2.65-.03-1.64-.65-2.82-2.5-2.95Zm-42.04,17.03c-1.6,.33-2.66,1.15-2.55,2.94,.1,1.64,.87,2.9,2.6,2.91,1.78,0,2.42-1.38,2.52-2.97,.11-1.79-.92-2.62-2.57-2.88Zm39.91-24.84c1.67-.27,2.72-1.09,2.65-2.87-.06-1.48-.85-2.5-2.34-2.58-1.69-.1-2.79,.89-2.89,2.57-.1,1.71,.97,2.62,2.58,2.89Zm8.62,48.66c-.09-1.73-.94-2.79-2.67-2.74-1.65,.05-2.7,.97-2.67,2.73,.03,1.57,.54,2.95,2.36,3.02,1.96,.07,2.8-1.22,2.98-3.01Zm-49.62,13.06c-.14-1.62-.9-2.84-2.63-2.82-1.47,.02-2.33,1.06-2.37,2.53-.05,1.77,1.04,2.7,2.67,2.77,1.54,.06,2.26-.97,2.33-2.48Zm-1.41-13.87c-1.39,.22-2.26,1.17-2.1,2.87,.16,1.67,1.17,2.63,2.83,2.54,1.69-.1,2.53-1.17,2.39-2.89-.13-1.73-1.16-2.5-3.12-2.52Zm38.05-77.95c-1.36,.12-2.4,.9-2.52,2.29-.14,1.67,.83,2.69,2.58,2.62,1.51-.06,2.34-1.07,2.37-2.47,.02-1.43-.84-2.33-2.43-2.44Zm-34.97,43.27c-1.55,.16-2.45,1.03-2.52,2.45-.08,1.72,.97,2.73,2.65,2.64,1.37-.07,2.45-.93,2.53-2.4,.1-1.81-1.21-2.41-2.67-2.69Zm6.49-44.47c-.13-1.46-.93-2.43-2.41-2.35-1.42,.08-2.27,1.03-2.27,2.54,0,1.52,.81,2.46,2.32,2.39,1.47-.07,2.14-1.17,2.36-2.58Zm42.18,119.31c-.33-1.17-.91-2.36-2.52-2.2-1.48,.15-2.27,1.2-2.3,2.67-.04,1.57,.78,2.46,2.39,2.31,1.51-.14,2.22-1.15,2.44-2.77Zm-52.5-15.04c-.07-1.49-.77-2.56-2.33-2.47-1.45,.08-2.4,1.01-2.25,2.58,.12,1.23,.82,2.12,2.15,2.22,1.63,.13,2.32-.82,2.43-2.33Zm5.27-66.77c1.46,0,2.43-.61,2.57-2.15,.13-1.45-.48-2.52-1.98-2.73-1.7-.23-2.79,.67-2.88,2.35-.08,1.44,.83,2.31,2.3,2.53Zm-.72,32.76c-.01-1.53-.77-2.46-2.23-2.59-1.45-.12-2.48,.57-2.53,2.15-.05,1.45,.65,2.44,2.18,2.58,1.53,.14,2.32-.73,2.59-2.14Zm32.99-93.88c-.35-1.33-.91-2.5-2.49-2.45-1.57,.05-2.24,1.06-2.13,2.55,.09,1.25,.79,2.13,2.08,2.17,1.48,.04,2.33-.82,2.54-2.27Zm.32,15.11c-1.54,.24-2.29,1.24-2.18,2.69,.08,1.18,.69,2.22,2.07,2.29,1.65,.09,2.38-1.09,2.44-2.44,.06-1.4-.73-2.44-2.33-2.55Zm-29.14,32.38c-.16-1.06-.52-2.1-2-2.08-1.56,.02-2.44,.97-2.47,2.42-.03,1.2,.65,2.23,2.02,2.27,1.6,.05,2.21-1.05,2.46-2.61Zm-.07-31.64c1.51-.39,2.11-1.42,1.92-2.89-.16-1.3-1-2.11-2.28-2.02-1.43,.1-2.54,.93-2.23,2.52,.25,1.27,.95,2.43,2.59,2.39Z"/>
  <path d="M513.86,212.81c.03-9.94,8.24-18.51,17.59-18.35,9.03,.15,15.75,7.32,15.79,16.86,.04,10.08-7.63,18.2-17.07,18.07-8.94-.13-16.33-7.64-16.31-16.58Zm21.5-10.93c-3.5-.11-6.6,2.96-6.82,6.75-.24,4.24,2.42,7.38,6.38,7.53,3.87,.14,7.18-2.96,7.29-6.82,.1-3.69-3.25-7.33-6.84-7.45Z"/>
  <path d="M608.55,193.23c-.19,8.6-6.92,15.37-15.03,15.11-7.92-.25-14.13-6.75-13.86-14.5,.3-8.52,7.36-15.56,15.56-15.5,7.58,.05,13.5,6.67,13.32,14.89Zm-4.69-2.06c-.44-3.53-2.15-5.93-5.91-5.73-3.34,.18-5.42,2.17-5.33,5.68,.09,3.69,2.3,5.85,5.85,5.74,3.27-.1,5.27-2.2,5.39-5.68Z"/>
</svg>