<?xml version="1.0" encoding="UTF-8"?>
<svg id="Layer_1" data-name="Layer 1" xmlns="http://www.w3.org/2000/svg" viewBox="0 0 864 864">
  <path d="M380.38,861.05c-5.65-8.32-13.81-14.18-20.71-21.27-2.09-2.15-3.24-1.48-5.01,.31-8.07,8.15-16.39,16.03-26.36,23.92,2.09-5.79,3.78-10.5,4.51-15.44,.38-2.57,1-5.4-1.9-7.01-3.05-1.69-6.44-1.55-9.68-.8-2,.46-1.01,2.29-.83,3.54,.84,5.86,3.5,11.2,4.96,16.91-3.49-4.51-6.46-9.26-8.12-14.76-1.66-5.51-1.43-11.23-2.24-17.08-4.19,11.24-12.13,19.63-20.13,28.8-2.96-8.23-9.08-13.64-13.54-20.23-6.76-9.99-6.63-18.67,.47-28.45,4.93-6.78,11.62-11.46,18.77-15.57,1.48-.85,3.31-1.19,4.4-3.15-9.43-4.99-18.39-10.66-26.29-17.86-16.53-15.06-28.56-32.7-29.41-55.77-1.03-28.12,11.56-48.96,36.26-62.21,4.8-2.58,6.98-5.65,8.07-10.89,3.89-18.72,13.47-35.01,23.06-51.23,13.66-23.09,29.38-44.94,41.95-68.69,17.64-33.32,28.65-68.72,32.64-106.25,.63-5.9,.45-11.81-.15-17.74-.39-3.92-1.88-5.53-5.86-6.4-22.47-4.92-43.4-13.56-63.21-25.43-46.55-27.9-57.03-80.33-50.21-117.52,2.63-14.34,7.33-28,14.65-40.6,2.24-3.85,1.36-5.85-1.43-8.84-27.42-29.43-43.45-64.02-43.53-104.54-.04-24.4,6.71-47.54,20.82-67.96,2.07-2.99,4.38-8.08,8-6.95,2.56,.8,1.89,6.5,1.92,10.12,.35,47.98,17.41,89.74,47.21,126.75,.55,.68,1.11,1.34,1.68,2.01,7.91,9.36,7.85,9.25,18.64,3.64,2.85-1.48,3.33-2.66,1.74-5.5-7.58-13.53-12.61-27.96-14.04-43.45-3.08-33.35,5.62-63.49,25.42-90.4,3.36-4.57,7.56-8.52,14.43-11.49-12.77,23.05-11.55,46.08-6.21,69.5,5.31,23.32,16.47,43.49,31.58,61.69-.21-8.24-3.4-15.35-7.94-23.14,5.32,2.68,7.91,6.63,11.7,10.23,.55-4.51-.13-8.51-.44-12.86,3.1,1.31,2.81,4.95,5.7,6.57,1.67-8.94,2.11-17.93,5.45-26.41,2.04,10.87,4.2,21.65,7.4,32.43,3.55-11,7.59-21.67,14.04-31.34-1.75,12.43-3.49,24.87-5.24,37.3,.35,.13,.71,.26,1.06,.39,3.61-5.61,7.23-11.21,10.84-16.82-.9,7.06-.56,13.95-.23,20.69,1.56,.63,1.92-.39,2.37-1.01,24.52-33.45,42.6-69.82,49.94-110.98,.95-5.3,1.12-10.74,1.7-16.11,.36-3.29,.72-6.59,1.3-9.84,.27-1.49,.66-3.56,2.28-3.84,1.9-.33,2.19,1.86,2.9,3.17,18.93,35.25,19.66,71.92,8.45,109.5-3.59,12.04-7.9,23.82-13.62,35.02-1.74,3.41-.85,4.41,2.5,5.23,11.89,2.92,23.3,7.2,34.04,13.1,2.42,1.33,3.8,.61,5.4-1.06,29.74-31.1,54.48-65.26,65.82-107.63,1.39-5.2,2.64-10.53,6.07-14.9,.91-1.16,1.86-3.04,3.61-2.32,1.53,.63,.71,2.47,.61,3.78-.23,2.8-.25,5.56,.58,8.29,9.38,30.83,5.89,61-4.75,90.76-7.68,21.49-17.3,41.9-33.79,58.28-2.05,2.04-.66,3.52,.16,5.07,11.08,20.85,16.56,43.32,17.8,66.65,2.43,45.82-15.83,81.22-55.37,105.01-16.59,9.98-34.65,16.3-53.83,19.15-3.85,.57-5.06,1.76-4.77,5.9,4.13,59.71,23.49,114.29,54.74,165.01,12.99,21.08,24.71,42.86,32.56,66.49,.1,.29,.46,.5,1.39,1.48-5.23-41.14-23.74-75.9-44.88-109.49,.44-.4,.69-.81,.88-.78,26.52,3.59,49.34-6.51,71.01-19.81,40.47-24.84,69.4-59.54,88.43-103.09,4.28-9.81,4.88-16.9-3.09-24.07-.51-.46-.9-1.07-1.25-1.67-1.14-1.91-1.98-4.13,.15-5.61,2.23-1.55,4.35-.34,5.86,1.67,2.57,3.41,3.51,7.5,4.73,12.28,1.95-3.99,3.44-7.53,6.06-10.32,2.22-2.37,4.87-3.99,7.67-1.31,2.81,2.69,.83,5.22-1.38,7.09-2.38,2.01-4.94,3.9-7.68,5.37-3.28,1.76-4.04,3.02-1.43,6.48,17.96,23.78,35.55,47.84,53.45,71.66,22,29.27,42.73,59.4,63.08,89.82,9.69,14.49,19.39,28.96,27.95,44.16,1.5,2.66,2.79,5.44,3.54,8.62-4.48-3.18-8.89-6.48-13.46-9.52-11.81-7.84-24.71-12.75-38.86-14.28-28.36-3.06-48.75,9.75-63.79,32.53-9.32,14.12-12.52,30.51-15.62,46.79-.71,3.73-1.41,4.64-5.14,2.98-5.59-2.48-10.64,.09-15.15,3.21-11.18,7.74-19.05,18.25-24.75,30.48-1.21,2.6-2.4,5.2-4.09,7.74-.95-11.29-3.09-22.16-7.44-32.47-9.92-23.54-26.67-39.31-52.15-44.51-9.25-1.89-18.45-1.2-26.55,4.57-1.66,1.18-3.56,2.23-4.13,4.52,1.43,1.31,2.66,0,3.8-.33,22.64-6.66,43.44,.75,56.62,20.32,20.53,30.47,22.34,85.31-20.05,117.1-3.73,2.8-7.58,5.43-11.73,8.39,5.84,2.81,11.3,5.36,16.67,8.08,2.09,1.06,3.63,.38,5.26-.82,3.92-2.9,7.82-5.83,11.82-8.64,2.89-2.03,4.86-2.06,4.55,2.39-.18,2.63,.2,5.26,1.46,7.62,1.28,2.39,3.02,4.42,6.02,4.33,2.72-.09,4.35-1.9,5.54-4.2,1.13-2.19,1.73-4.51,2.21-6.93,.53-2.69,.29-5.6,2.22-8.44,4.24,3.45,8.56,6.66,12.51,10.26,3.28,2.99,5.38,1.89,7.54-1.19,2.77-3.94,3.98-8.48,5.4-12.96,1.47-4.65,2.98-9.28,4.41-13.94,1-3.24,2.52-3.19,4.69-.98,2.44,2.49,4.88,5,7.54,7.24,1.69,1.43,2.98,4.64,5.92,2.92,3.08-1.8,4.49-4.68,3.57-8.47-1.55-6.43-2.94-12.91-4.39-19.37-.11-.48-.1-.99-.24-2.51,5.46,2.47,10.51,4.51,15.3,7.03,2.92,1.53,4.15,1.03,5.42-1.96,3.14-7.4,3.81-15.18,4.01-23.02,.08-3.32,.69-4.74,4.04-2.75,.45,.26,.95,.43,1.43,.64,11.17,4.89,10.46,6.2,10.67-7.15,.07-4.53,.01-9.07,.16-13.6,.04-1.25-.77-3.11,.97-3.63,1.55-.46,2.32,1.28,3.19,2.27,2.76,3.14,5.52,6.29,8.06,9.61,2.12,2.78,3.42,2.86,4.94-.52,3.59-7.98,6.13-16.29,8.44-24.7,.22-.81,.51-1.6,1.01-3.16,4.32,7.09,4.46,14.63,6.51,23.33,8-11.63,15.3-22.35,27.51-30.05-7.52,13.83-12.53,27.54-18.87,40.63-1.72,3.55-1.43,4.85,2.4,6.24,10.17,3.67,18.71,9.95,26.15,17.75,.96,1,1.81,2.12,2.63,3.24,.26,.34,.27,.86,.52,1.71-5.65-2.41-11.12-3.26-17.8-1.74,6.92,5.61,12.02,11.49,14.61,19.24-2.77,.92-5.52-3.93-7.75,.53-.87-.5-1.8-.92-2.6-1.51-8.45-6.24-17.56-11.36-27.03-15.8-8.45-3.97-12.28-3.08-18.36,3.97-7.55,8.76-13.14,18.89-18.99,28.76-23.39,39.47-58.94,58.31-103.6,62.22-13.4,1.17-26.8,1.68-40.2,.32-2.76-.28-4.16,.87-5.42,3.01-3.27,5.52-6.68,10.97-10.03,16.45-.35-4.95,3.32-8.66,4.08-13.26,.37-2.22,2.19-5.11-1.17-6.31-3.01-1.07-5.86-.06-7.64,2.88-2.11,3.48,.1,14.52,3.42,16.83,.29,.2,.98-.19,1.48-.3-.11,1.34-.22,2.67-.37,4.56-10.22-8.21-16.61-18.43-20.44-30.59-.73,10.77-2.78,20.75-10.38,29.73,1.95-5.15,3.69-9.46,5.18-13.86,.64-1.88,2.01-4.43-.04-5.81-2.49-1.68-5.63-1.62-8.55-.44-2.5,1.02-3.2,3.04-2.95,5.51,.6,5.97,1.14,11.97,4.86,17.2-9.23-7.01-18.03-14.32-25.29-23.21-2.41-2.95-3.69-2.87-6.35-.39-5,4.66-9.08,10.03-13.22,15.39-.74-2.05,.59-3.68,1.17-5.43,1.1-3.3,2.31-6.64,1.96-10.12-.37-3.71-2.37-6.89-6.34-7-3.06-.08-5.07,2.53-4.96,5.64,.22,6.4,4.25,11.39,6.86,16.9,.07,.15,.97-.08,1.48-.14-.57,1.25-1.15,2.5-1.46,3.18-14.97-16.11-17.88-33.47-3.18-52.35-36.91,6.21-73.04,5.64-110.78-1.07,15.65,20.31,15.88,39.58,.4,58.51,2.26-6.76,6.1-12.94,7.56-19.99,.56-2.72,1.29-5.71-2.08-7.28-3.36-1.56-6.13-.32-8.35,2.31-3.08,3.65-3.52,7.9-2.21,12.31,1.14,3.83,2.56,7.57,3.86,11.35Zm74.7-170.62c-3.66-5.17-4.97-11.13-6.73-16.89-4.59-15.06-1.58-23.4,11.24-32.31,16.43-11.41,31.27-24.42,42.54-41.23,3.8-5.67,4.47-10.95,2.6-17.58-8.67-30.67-16.41-61.59-23.25-92.72-3.74-17.01-7.45-34.03-11.36-51-1.35-5.87-3.98-11.2-9.15-14.78-10.6-7.35-24.14-3.56-30.69,9.19-4.45,8.66-8.19,17.71-11.75,26.78-14.14,36.01-27.17,72.41-36.58,109.97-8,31.94-.14,50.37,27.7,67.62,4.29,2.66,8.59,5.33,12.71,8.25,13.52,9.56,17.8,26.84,10.6,42.31-4.15-14.92-7.18-20.55-14.28-25.74,5.15,9.58,5.8,19.56,8.59,29.37-6.51-3.02-10.29-8.6-15.54-13.19-1.12,10.32-.14,19.77,3.79,29.08-9.64-7.51-20.9-12.73-27.63-23.77v9.37c-2.38,.62-3.25-3.9-4.95-1.2-1.21,1.92,.75,3.89,3.04,4.45,1.26,.31,2.29,.45,2.41,2.09,.38,4.89,.87,9.78,1.31,14.67-2.73-3.64-4.63-7.49-6.21-11.46-3.82-9.61-4.9-19.93-7.56-29.85-.95-3.53-1.63-7.31-4.64-9.75-4.56-3.71-9.11-7.38-12.46-13.08-.75,1.67-1.27,2.41-1.42,3.22-.55,2.91-1.25,5.82-1.42,8.76-1.57,27.67,6.23,53.04,19.56,76.89,6.3,11.27,14.88,20.63,26.06,27.31,32.67,19.54,74.69,14.67,103.37-12.66,29.9-28.5,38.92-64.53,35.78-104.49-.44-5.61-.99-11.28-3.19-17.54-3.14,9.67-9.14,16.44-15.28,23.09-4.32,4.68-7.56,9.92-9.8,15.89-5.11,13.62-11.3,26.9-12.56,42.91-8.58-12.28-12.96-24.73-14.87-38.29-6.11,10.67-5.58,21.84-3.88,33.23-13.02-14.16-21.43-29.43-12.58-49.31-8.98,9.09-16.48,18.52-13.54,32.4Zm-5.36-442.49c.45,12.39,4.3,24.52,12.85,34.81,13.54,16.29,31.03,22.94,51.72,18.6,19.42-4.07,31.77-16.81,35.73-36.02,4.65-22.55-2.38-42.05-19.62-57.43-10.4-9.28-22.75-14.44-36.87-13.1-24.67,2.33-44.28,26.01-43.82,53.15Zm-92.66,55.2c23.15,.07,40.75-9.23,48.96-24.69,9.4-17.7,9.82-35.8-.55-53.3-17.82-30.07-59.02-31.04-80.78-1.79-12.68,17.05-16.07,35.92-6.59,55.55,8.55,17.71,24.4,23.73,38.96,24.24Zm182.16,15.39c5.29,.91,4.21,4.39,3.36,7.87-3.42,14.1-12.18,23.97-24.49,31.07-16.71,9.64-34.84,14.86-53.87,17.13-28.03,3.34-55.68,1.88-82.46-7.78-19.18-6.92-34.29-18.39-41.11-38.62-.59-1.74-1.09-3.7-3.24-5.08,.23,4.49,1.77,8.33,3.25,12.08,6.99,17.65,20.63,28.61,37.5,35.82,32.06,13.69,65.44,15.53,99.45,9.87,17.59-2.93,33.95-9.22,48.26-20.05,11.09-8.4,19.06-18.96,19.64-33.51,.14-3.63,.48-6.06,4.93-5.74q-5.6-9.46-11.23-3.06Zm-115.79-130.33c3.8,.08,6.7-2.99,6.66-7.06-.03-4.01-3.2-7.77-6.74-7.99-3.65-.22-6.89,3.31-6.9,7.51,0,4.04,3.16,7.46,6.98,7.54Zm-128.15,667.41c3.33-5.97,4.87-11.31,4.07-17.11-.42-3.05-2.52-4.47-5.67-3.79-3.2,.69-5.08,2.48-3.91,5.93,1.58,4.68,3.4,9.28,5.51,14.97Zm109.15-527.82c-.13-4.47-3.25-7.69-6.73-7.21-3.94,.54-6.17,3.18-6.45,7.07-.24,3.39,3.42,6.8,6.87,6.41,4-.45,6.16-2.9,6.31-6.27Zm64.82-1.65c-.43-2.74-1.84-5.73-5.95-5.67-4,.06-6.6,2.5-6.76,6.5-.16,3.85,2.28,6.11,6.06,6.52,3.56,.38,6.59-2.72,6.65-7.35Zm-37.58-120.59c-.35-3.62-.86-7.43-5.48-7.37-3.79,.05-5.21,3.15-5.13,6.56,.09,3.71,1.47,7.13,5.74,7.35,4.32,.21,4.49-3.42,4.86-6.53Zm-154-24.75c12.11-6.37,24.22-12.74,36.33-19.09,1.57-.82,1.31-1.7,.32-2.84-1.09-1.25-1.99-2.41-3.82-.95-10.49,8.37-22.22,14.87-32.83,22.89Zm-13.51-22.74c.42,.3,.62,.52,.7,.48,11.8-5.42,23.58-10.87,35.39-16.26,1.6-.73,1.41-1.61,.77-2.87-.76-1.5-1.6-2.11-3.25-1.13-11.15,6.6-22.32,13.15-33.61,19.79Zm200.23-37.34c9.25,3.59,18.5,7.2,27.76,10.77,2.72,1.05,2.65-1.32,3.2-2.8,.65-1.74,.45-3.11-1.8-3.3-9.81-.84-19.35-3.28-29.17-4.67Zm-212.94,13.9c12.97-2.29,25.12-6.62,37.72-9.22,1.5-.31,3.31-.43,2.53-2.89-.8-2.54-2.33-1.93-4.08-1.2-3.37,1.4-6.76,2.78-10.2,4.02-8.64,3.14-17.32,6.2-25.98,9.29Zm334.67,38.92c-11.49-1.61-21.23-7.27-31.83-10.36,8.09,4.87,16.52,8.97,24.59,13.69,4.31,2.52,6.18,1.63,7.23-3.33Zm-112.4-72.33c8.84,1.73,17.68,3.45,26.51,5.19,2.09,.41,2.76-.74,3.07-2.53,.34-2-.73-2.43-2.38-2.4-9.04,.2-18.05-.54-27.21-.26Zm90.49,44.86c9.18,4.43,18.37,8.84,27.54,13.31,2.05,1,3.27,.54,3.82-1.68,.39-1.55,.95-3.03-1.56-3.39-10.3-1.48-19.91-5.34-29.8-8.24ZM251.94,108.82c.05,.29,.09,.59,.14,.88,9.63-1.07,19.27-2.14,28.9-3.19,1.42-.16,2.39-.7,1.97-2.3-.44-1.64-1.7-2.13-3.25-1.78-9.26,2.11-18.51,4.26-27.77,6.4Zm324.92,23.71c7.31,2.68,14.62,5.37,21.93,8.06,2.19,.81,3.27-.01,3.5-2.27,.13-1.25,1.21-3.06-1.32-2.83-8.32,.79-15.99-2.43-24.12-2.96Zm12.36-34.51c-.02,.24-.03,.48-.05,.72,6.04,1.1,12.06,2.28,18.11,3.27,3.13,.52,2.46-2.15,2.79-3.82,.38-1.96-.78-2.35-2.45-2.16-6.13,.68-12.27,1.33-18.4,1.99Zm-241.29,90.82c-2.7,.6-4.74,2.04-4.59,5.22,.13,2.81,1.63,4.6,4.63,4.5,3.25-.11,4.63-2.26,4.69-5.17,.06-2.9-1.66-4.43-4.74-4.55Zm135.77-104.7c-.05,.25-.1,.49-.15,.74,6.71,.93,13.42,1.86,20.13,2.78,1.61,.22,3.23,.41,3.3-2,.04-1.48,.15-2.86-2.02-2.73-7.09,.43-14.18,.81-21.27,1.21Zm-5.29,604.56c-.3-3.04-.72-5.98-3.68-7.62-1.08-.6-2.04,.03-2.64,.97-1.77,2.75-.62,5.31,.66,7.83,.87,1.7,1.84,4.02,3.9,3.62,2.31-.45,1.34-3.12,1.78-4.79ZM587.64,116.95c-.03,.24-.07,.49-.1,.73,5.29,1.46,10.59,2.9,15.87,4.37,2.66,.74,3.64-.26,3.98-2.97,.44-3.42-1.81-2.09-3.21-2.1-5.52-.06-11.04-.02-16.55-.02Zm-82.01,61.73c-2.95,.5-4.65,2.34-4.63,5.31,.02,2.72,1.99,3.99,4.51,4.07,2.94,.1,4.55-1.58,4.58-4.48,.03-2.84-1.54-4.48-4.46-4.9Zm-165.36,21.82c-.05-2.68-1.22-4.76-4.04-5.03-2.81-.27-4.63,1.48-4.84,4.23-.21,2.83,1.57,4.6,4.31,4.75,2.47,.14,4.23-1.19,4.56-3.95Zm152.44-22.08c-2.61,.39-4.29,2.06-4.32,4.77-.03,2.92,2.09,4.26,4.76,4.35,2.79,.09,4.01-1.82,4.01-4.33,0-2.7-1.27-4.58-4.45-4.79Zm-132.26-72.3c-2.59,.27-3.47,1.99-3.26,4.3,.25,2.79,1.51,5.18,4.59,5.29,2.84,.1,3.73-2.08,3.6-4.6-.16-3.03-1.89-4.65-4.93-5Zm-31.5,219.59c2.82-1.55,4.27-2.47,5.82-3.17,1.56-.7,3.22-1.17,4.82-1.76,1.3-.48,2.15-1.04,.99-2.61-3.24-4.39-6.76-4.11-8.99,.83-.77,1.7-1.38,3.48-2.64,6.7Zm10.6-260.05c-2.97,.81-4.1,2.99-4.07,5.86,.03,2.4,1.29,4.28,3.78,4.01,3.18-.34,4.03-3.02,4.09-5.78,.06-2.4-1.16-3.92-3.8-4.09Zm-84.02,22.85c-.06,.42-.12,.83-.18,1.25,6.38,0,12.76,0,19.14,0,1.43,0,2.93-.08,2.87-2.07-.06-1.98-1.42-2.02-2.94-1.8-6.3,.89-12.6,1.76-18.89,2.63Zm407.32,703.39c-3.17-2.91-6.14-4.24-9.13-5.48-1.19-.5-2.77-1.45-3.75,.14-.96,1.56-.08,3.06,1.14,4.15,3.22,2.9,6.89,2.49,11.75,1.19Zm-115.58-615.59c.54-.55,1.07-1.09,1.61-1.64,5.82,6.91,11.65,13.82,17.47,20.73-5.05-7.76-11.91-13.58-19.08-19.09Zm142.11,595.28c1.35-.1,2.6,.14,3.09-.99,.55-1.29-.8-1.67-1.52-2.29-.79-.67-1.63-1.28-2.49-1.86-1.98-1.36-3.83-3.05-6.43-2.93-.29,.01-.85,1.15-.74,1.64,.73,3.15,2.97,4.95,5.88,5.99,.8,.29,1.68,.35,2.2,.45ZM491.77,69.13c-.06,.29-.13,.59-.19,.88,4.61,.23,9.22,.46,13.83,.67,2.44,.11,2.92-1.42,2.63-3.38-.35-2.38-1.97-1.25-3.17-1-4.37,.91-8.73,1.88-13.1,2.82Zm-234.79-18.4c-2.16,1.25-3.44,2.96-3.46,5.45-.02,2.32,1.26,3.72,3.48,3.65,2.18-.07,3.55-1.58,3.55-3.77,0-2.43-1.44-4.14-3.57-5.33Zm236.58,2.49c.09,.32,.19,.65,.28,.97,3.57-.37,7.14-.76,10.71-1.11,2.68-.26,2.25-2.18,1.96-3.83-.49-2.81-2.03-1.35-3.36-.69-3.19,1.57-6.4,3.11-9.59,4.66Zm206.87,690.99c2.6,5.96,6.75,7.59,12.31,4.78-3.81-2.69-7.32-5.17-12.31-4.78Zm-82.55,49.95c4.94,1.09,8.75,1.42,11.62-2.42,.66-.88,1.18-1.92,.71-2.87-.61-1.22-1.84-.66-2.72-.26-3.08,1.4-6.4,2.41-9.6,5.55ZM368.29,123.62c-1.95,.07-3.02,1.22-3.02,3.28,0,2.61,1.33,4.4,3.95,4.6,2.05,.16,3.26-1.36,3.27-3.29,0-2.52-1.29-4.26-4.19-4.59Zm132.12,567.84c-.25-2.18-1.26-3.7-3.6-3.54-2.15,.15-2.84,1.73-2.66,3.69,.21,2.23,1.12,4.43,3.55,4.27,2.2-.14,2.48-2.52,2.71-4.42ZM597.89,80.23c.11,.38,.21,.76,.32,1.13,3.25,0,6.5,0,9.75,0,2.79,0,2.19-2.12,2.16-3.69-.03-2.48-1.66-1.56-2.87-1.11-3.14,1.18-6.25,2.44-9.37,3.67Zm-253.59-29.48c-2.61,.42-3.47,2.26-3.52,4.49-.04,1.81,1.03,2.96,2.94,2.89,2.16-.09,3.78-1.13,3.84-3.42,.06-2.1-.98-3.65-3.26-3.96Zm7.64-8.19c.05-2.06-.74-3.34-2.63-3.41-2.51-.09-3.85,1.44-4.09,3.81-.21,2.05,.83,3.52,2.91,3.5,2.49-.03,3.57-1.79,3.82-3.9Zm-102.95,51.13c-2.82,.31-2.85,2.45-2.83,4.54,0,1.58,.2,3.5,2.29,3.21,2.24-.32,3.46-2.2,3.62-4.41,.14-1.97-.94-3.2-3.08-3.34Zm243.55-56.25c3.24-.43,5.61-.77,7.99-1.04,1.36-.15,2.4-.6,2.31-2.16-.07-1.19,.09-2.81-.59-3.46-1.1-1.05-2.16,.4-3.04,1.1-2,1.58-4.52,2.52-6.68,5.57Zm243.43,689.89c-2.9-3.88-6.51-5.2-11.3-6.29,2.76,4.73,5.36,7.86,11.3,6.29ZM268.17,55.63c-1.87,4.52-1.95,7.93,.57,11.07,.36,.45,1.15,.83,1.71,.8,.88-.05,.89-.99,.71-1.58-.97-3.14-.42-6.75-2.99-10.29Zm64.28,64.32c.42,1.87,1.08,3.88,3.37,3.9,1.78,.02,2.62-1.55,2.5-3.31-.13-2-1.32-3.21-3.33-3.25-1.59-.03-2.56,.88-2.54,2.66Zm2.11-20.99c-2.23,.1-2.83,1.61-2.67,3.51,.16,1.85,1,3.48,3.14,3.28,2-.18,2.91-1.87,2.92-3.67,.02-2.01-1.33-3.03-3.39-3.12Zm-84.7-17.79c-2.59,.32-2.7,2.28-2.69,4.23,.01,1.39,.12,3.1,1.99,3.02,2.5-.11,3.48-2.04,3.64-4.26,.13-1.9-1.21-2.69-2.94-2.99Zm203.79,582.29c-1.76,.39-3.38,1.15-3.34,3.24,.03,1.92,.65,4.3,2.86,4.13,2.11-.16,2.32-2.69,2.58-4.54,.22-1.5-.16-2.77-2.1-2.83ZM250.18,71.95c.45,.95-.8,3.23,1.52,2.83,2.26-.4,3.65-2.46,4.05-4.78,.28-1.66-.86-2.68-2.4-2.69-3.09-.03-2.37,2.75-3.16,4.64Zm175.18,90.11c-.24-1.77-1.45-2.48-3.21-2.42-1.91,.07-3.51,.81-3.43,2.95,.08,2.28,1.95,2.57,3.75,2.48,1.74-.09,2.9-.95,2.89-3.01ZM265.67,28.89c-1.75,.17-2.33,1.41-2.44,2.87-.12,1.54,.54,2.81,2.21,2.97,1.61,.15,2.66-.76,2.73-2.41,.08-1.74-.75-2.97-2.5-3.42Zm91.46,68.85c1.24-.53,2.17-1.44,2.07-3.04-.12-1.98-1.11-3.27-3.21-3.28-1.75,0-2.44,1.15-2.24,2.75,.23,1.86,1.17,3.19,3.38,3.56Zm417.49,603.65c2.36-2.96,5.57-5.39,6.39-10.95-3.64,3.81-6.66,6.36-6.39,10.95ZM338.62,85.14c0-1.54-.67-2.7-2.33-2.82-1.85-.14-2.93,.91-3.1,2.74-.15,1.64,.66,2.74,2.31,2.85,1.81,.12,2.91-.85,3.12-2.77Zm69.06,607.13c.09-1.84-.86-2.91-2.61-3.08-1.38-.13-2.34,.71-2.32,2.1,.03,1.88,.99,3.34,2.98,3.47,1.51,.1,1.77-1.27,1.95-2.49ZM605.46,63.13c1.54-.08,2.77-.69,2.81-2.39,.03-1.34-.74-2.34-2.19-2.43-1.64-.1-2.69,.8-2.84,2.39-.13,1.43,.84,2.18,2.22,2.43Zm-348.76,11.39c3.25,.65,6.52,1.17,9.66-.32-3.26-1.58-6.47-1.28-9.66,.32Z"/>
  <path d="M207.75,389.04c2.44-.97,3.09-3.16,4.53-4.61,1.59-1.6,3.05-3.4,4.86-4.69,2.03-1.45,4.69-2.56,6.46,.11,1.75,2.64-.07,4.7-2.38,5.94-3.95,2.13-8.02,4.03-12.7,6.36,3.06,1.57,3.14,4.17,3.57,6.7,7.43,43.49,28.9,78.82,63.09,106.29,17.7,14.22,37.92,21.94,61.21,18.75,1.89-.26,3.76-.72,5.63-1.12,1.67-.36,3.32-.78,6.12-1.44-1.7,2.85-2.86,4.86-4.07,6.84-17,27.8-33.64,55.8-47.09,85.56-4.02,8.89-7.53,17.99-10.1,27.43-.43,1.6-.38,3.55-3.18,2.83-8.54-2.21-14.86,2.41-20.67,7.51-10.45,9.19-15.74,21.5-19.82,34.44-.62,1.95-1.2,3.91-1.99,6.51-2.95-4.07-5.33-7.8-8.14-11.17-10.16-12.21-21.83-13.35-34.22-3.34-11.55,9.34-19.04,21.61-24.8,35.07-2.39,5.58-4.75,11.18-7.18,16.9-1.9-1.11-1.05-2.64-1.13-3.84-1.52-21.1,.35-42.15,1.07-63.22,.56-16.13-.6-32.08-7.19-47.14-15.22-34.81-44.38-50.57-81.91-44.49-16.27,2.64-31.98,6.95-46.72,14.47-.88,.45-1.72,1.31-3.29,.39,5.2-9.09,11.58-17.29,18.29-25.23,23.3-27.58,48.48-53.43,73.56-79.36,27.51-28.43,54.9-56.98,82.51-85.31,3.07-3.15,3.41-5.4,.63-8.66-2.02-2.37-3.88-5.01-4.41-8.2-.42-2.54-.14-5.14,2.75-6.05,2.89-.91,4.54,.94,5.62,3.4,1.72,3.92,1.51,8.07,1.08,12.4Z"/>
  <path d="M456.86,608.94c-10.25,4.53-20.27,6.61-30.91,1.64,5.52-4.89,22.12-5.77,30.91-1.64Z"/>
  <path d="M420.94,569.12c6.84-3.71,20.15-3.19,28.74,1.11-8.83,4.95-23.56,4.84-28.74-1.11Z"/>
  <path d="M457.34,531.35c-5.44,5.88-13.85,6.06-23.67,.49,4.27-2.54,17.8-2.82,23.67-.49Z"/>
  <path d="M449.63,497.96c-8.22,3.54-14.78,3.14-21.18-1.37,7.44-2.08,13.91-1.93,21.18,1.37Z"/>
  <path d="M444.41,730.75c.7-2.53,1.14-5.78,4.68-5.66,2.8,.1,4.93,2.37,4.81,5.19-.13,2.84-2.42,4.55-5.28,4.79-2.81,.23-3.92-1.64-4.21-4.33Z"/>
  <path d="M485.77,590.57c-.59,3.24-2.91,4.97-6.42,5.26-1.81,.15-3-.45-2.88-2.65,.18-3.12,3.79-7.93,5.95-7.71,1.78,.18,3.4,2.46,3.34,5.09Z"/>
  <path d="M397.96,551.7c1.33-2.78,.86-7.07,5.65-6.79,2.04,.12,3.54,1.44,3.52,3.77-.02,2.7-4.6,6.8-7.17,6.57-2.5-.23-1.67-2.12-2-3.55Z"/>
  <path d="M471.79,565.77c-1.47-.29-3.88,.35-3.11-2.19,.99-3.27,2.4-6.79,6.38-7.28,2.51-.31,3.54,1.94,3.51,4.18-.06,4.55-3.62,4.76-6.78,5.28Z"/>
  <path d="M440.64,647.31c-2.8-.9-4.96-2.31-4.75-5.11,.23-3.08,3.11-3.36,5.48-3.75,2.19-.36,3.46,.97,3.27,2.97-.25,2.62-1.36,4.94-4,5.88Z"/>
  <path d="M518.67,698.77c2.26,.57,3.35,2.03,3.51,4.07,.14,1.83-4.57,6.95-5.96,6.46-2.09-.75-1.01-2.67-.93-4,.17-2.61-.09-5.66,3.38-6.53Z"/>
  <path d="M438.59,430.92c2.24,.23,3.73,1.38,3.5,3.35-.4,3.38-3.11,5.01-6.06,5.6-2,.39-2.55-1.64-2.37-3.25,.33-3.04,1.98-5.1,4.94-5.7Z"/>
  <path d="M460.24,444.3c.12,1.38-.57,2.11-1.84,1.65-2.98-1.07-6.04-2.34-6.18-6.13-.08-2.16,1.44-4.03,3.57-3.53,4.06,.96,3.82,4.85,4.46,8.01Z"/>
  <path d="M467.38,763.1c-1.75-.25-4.09-.13-3.65-2.2,.65-3.05,3.21-5.03,6.19-5.68,2.03-.44,3.28,1.33,3.14,3.27-.25,3.55-2.95,4.33-5.69,4.61Z"/>
  <path d="M480.65,527.72c-.16,2.08-1.28,3.78-4.2,3.5-2.3-.22-4.24-1.3-4.06-3.81,.21-2.9,2.51-4.07,5.14-4.1,2.38-.02,3.25,1.64,3.12,4.41Z"/>
  <path d="M402.31,598.25c-2.77-.34-4.13-1.76-3.97-4.21,.14-2.07,1.21-3.81,3.54-3.77,2.4,.04,3.97,1.6,4.1,3.94,.13,2.51-1.7,3.57-3.67,4.04Z"/>
  <path d="M424.53,758.83c2.54,.65,4.52,2.21,5.11,4.94,.32,1.48-.54,2.88-2.34,2.48-2.67-.6-5.63-1.3-6.04-4.63-.21-1.75,1.35-2.61,3.27-2.79Z"/>
  <path d="M397.72,734.99c-.11,2.15-1.02,3.56-3.13,3.4-2.71-.21-3.77-2.17-3.81-4.63-.03-1.77,.42-3.9,2.58-3.7,2.69,.26,3.77,2.62,4.37,4.93Z"/>
  <path d="M498.66,729.67c2.56,.12,4.14,1.3,4.16,3.76,.02,2.15-1.3,3.61-3.5,3.69-2.69,.1-4.17-1.52-4.25-4.1-.08-2.4,1.67-3.14,3.6-3.35Z"/>
  <path d="M531.85,660.99c-.42,1.62-.22,4.19-3.24,3.99-1.89-.12-4.19-.74-4.35-2.94-.19-2.64,1.94-3.91,4.35-4.3,2.14-.35,3.29,.69,3.24,3.25Z"/>
  <path d="M460.24,468.53c-.08,1.56,.03,3.67-2,3.64-2.4-.04-4.32-1.73-4.66-4.17-.3-2.14,1.13-3.75,3.34-3.87,3.02-.16,2.89,2.4,3.31,4.4Z"/>
  <path d="M402.9,713.86c.05,1.51-.65,2.19-1.91,1.79-2.71-.86-5.31-2.18-5.93-5.19-.28-1.36,1.17-2.73,2.73-2.39,3.06,.67,4.38,3.12,5.11,5.78Z"/>
  <path d="M418.15,523.6c-.23,2.17-1.45,3.31-3.36,3.51-2.36,.25-3.55-1.23-3.82-3.35-.28-2.15,.93-3.25,3.06-3.21,2.12,.04,3.63,.96,4.13,3.05Z"/>
  <path d="M473.06,481.22c-.62,2.65-2.45,4.01-5.04,4.44-1.18,.19-2.22-.46-2.07-1.67,.32-2.55,1.71-4.57,4.29-5.19,1.56-.37,2.49,.82,2.81,2.41Z"/>
  <path d="M426.76,467.71c-1.99-.88-1.93-2.96-2.23-4.7-.26-1.53,.63-2.81,2.31-2.65,2.41,.24,2.82,2.05,2.71,4.14-.09,1.78-.86,2.89-2.8,3.22Z"/>
  <path d="M486.4,234.44c6.9-4.63,19.07-2.47,26.45,6.78,6.92,8.66,9.21,18.7,6.51,29.51-2.31,9.27-7.73,16.09-17.54,18.01-9.58,1.87-17.5-1.7-23.67-9-8.04-9.51-9.16-25.38-2.68-35.81,.58-.94,1.01-3.9,3.04-1.19,2.62,3.5,5.8,4.88,9.24,1.75,3.43-3.11,1.52-6.28-1.04-9.08-.21-.23-.22-.64-.32-.97Z"/>
  <path d="M351.09,239.93c1.15,3.91,2.64,6.79,6.74,6.69,2.09-.05,3.8-.87,4.63-2.82,1.72-4.05-1.17-6.4-4.04-9.16,7.43-3.27,13.94-1.78,19.94,2.19,13.35,8.84,17.33,29.51,8.47,42.85-5.58,8.4-15.72,11.74-25.28,8.34-18.18-6.47-24.48-33.54-10.46-48.1Z"/>
</svg>