<?xml version="1.0" encoding="UTF-8"?>
<svg id="Layer_1" data-name="Layer 1" xmlns="http://www.w3.org/2000/svg" viewBox="0 0 864 864">
  <path d="M550.53,402.83c4.14,2.98,6.31,7.59,9.3,11.49,4.58,5.98,8.94,12.15,13.31,18.29,2.94,4.12,2.88,4.18-2.25,5.53-10,2.63-20.19,3.35-31.66,2.52,4.52,2.5,8.36,2.6,12.13,2.54,7.6-.11,15.04-1.39,22.1-4.23,2.41-.97,3.66-.64,5.21,1.48,20.42,28.05,40.39,56.39,57.42,86.68,9.56,16.99,17.31,34.81,23.95,53.13,.85,2.35,1.83,4.35-2.16,5.14-18.82,3.7-37.7,4.72-56.72,2.08-5.95-.83-11.63-2.78-18.61-4.95,4.95,4.63,9.93,6.21,14.96,7.44,15.21,3.71,30.54,3.04,45.87,.75,5.22-.78,10.45-1.64,15.45-3.4,2.51-.89,3.46-.07,4.18,2.31,6.64,21.76,10.9,43.88,11.07,66.72,.02,2.88-.98,3.9-3.55,4.67-25.14,7.51-49.85,8.66-73.71-4.51-.08-.05-.26,.07-.39,.11,4.24,5.7,14.37,10.71,25.12,12.29,16.81,2.46,33.09,.64,48.71-6.26,2.02-.89,3.87-2.31,3.77,1.87-.74,28.34-7.31,54.95-23.05,78.86-9.98,15.16-21.45,29.14-34.25,42.03-1.13,1.14-2.03,1.98-3.85,1.11-7.08-3.36-14.34-6.36-21.33-9.9-4.52-2.29-8.99-4.92-11.62-9.61-2.87-1.15-.77-3.08-.41-4.37,1.93-7.06,4.13-14.04,6.24-21.04-8.01,7.18-16.34,13.44-26.17,17.59,8.6-1.38,15.9-5.27,22.54-10.94-7.35,17.52-11.64,35.79-16.07,54.04,3.81-10.32,7.3-20.74,10.71-31.19,.59-1.81,1.38-3.31,3.17-4.13-1.65,3.09,1.1,4.43,2.64,5.95,5.69,5.61,12.75,9.05,20.11,11.89,3.22,1.24,6.53,2.22,10.49,3.55-13.02,13.7-28.55,22.8-46.7,30.46,9.92,2.09,17.69,5.71,22.43,13.23,3.99,6.33,10.52,11.93,8.14,21.39-7.06-5.24-12.34-12.55-21.43-15.97,2.7,6.5,4.35,12.53,4.11,18.92-.05,1.16,.48,2.73-.62,3.4-1.46,.89-2.43-.71-3.43-1.46-5.17-3.88-10.28-7.83-16.03-12.23,.94,5.63,3.12,10.28,3.3,15.34-16.14-2.6-32.24-1.17-48.29-1.33-3.6-.04-5.77-.7-6.06-4.61-.2-2.7-1.74-3.34-4.37-3.05-5.61,.63-11.26,.91-16.9,1.34-.59,.05-1.34-.03-1.74,.29-5.71,4.63-12.5,1.72-18.7,2.79-2.6,.45-2.95-1.54-3.92-2.92-8.18-11.53-18.86-18.03-33.46-16.62-4.74,.46-9.05,2.12-13.92,5.35,4.46-.71,7.66-2.16,11.13-2.55,15.95-1.8,27.22,5.84,36.28,17.83,1.26,1.66,4.43,3.04,3.3,5.23-.82,1.58-3.9,.39-5.96,.47-13.36,.53-26.51-1.37-39.52-4.08-8.04-1.68-15.71-1.99-24.01-.6-31.14,5.19-61.73,1.4-91.44-8.76-52.52-17.97-95.61-49.03-125.22-96.3-22.04-35.17-24.92-72.91-6.26-110.9,7.09-14.44,17.77-26.51,28.97-38,16.45-16.87,34.1-32.44,52.43-47.2,17.25-13.88,27.43-31.36,29.09-53.61,.6-7.97,1.4-15.93,2.23-23.88,.28-2.65-.73-4.05-3.09-5.24-11.96-6.02-24.94-8.98-37.67-12.67-17.4-5.04-35.22-8.14-53.2-10.59,5.63-.35,11.28-.59,16.9-1.06,7.45-.63,10.67-5.93,8-13-2.15-5.7-6.33-9.83-10.78-13.74-8.99-7.87-18.93-14.46-28.6-21.42-.85-.61-1.64-1.29-2.27-2.31,5.53,2.43,10.62,5.75,16.24,7.99,5.31,2.12,10.43,4.79,16.38,4.74,13.03-.1,19.52-10.87,13.63-22.51-1.21-2.39-3.15-4.44-3.5-7.25,1.86,.93,2.73,2.75,3.87,4.32,7.33,10.13,14.31,20.54,23.52,29.14,1.22,1.14,2.25,2.63,5.25,3.26-10.56-9.71-17.83-20.64-25.85-30.98-2.14-2.76-3.95-6.05-7.46-7.56-11.68-11.53-22.46-23.9-33.63-35.91-5.62-6.04-11.38-11.95-16.48-18.58,7.1,5.87,14.24,11.7,21.3,17.62,11.92,9.99,24.01,19.74,37.22,28.01,3.33,2.09,6.72,4.07,10.51,5.21,8.15,2.45,13.6-.69,15.46-9.01,1.93-8.63,.44-17.17-1.34-25.58-2.83-13.43-6.07-26.77-9.14-40.14-.16-.7-.26-1.42,.08-2.26,3.76,10.38,7.49,20.77,11.31,31.13,2.51,6.81,5.35,13.48,9.88,19.24,1.39,1.77,2.95,3.45,4.67,4.89,7.08,5.93,13.44,4.55,17.46-3.84,2.62-5.47,4.38-11.26,5.08-17.29,2.02-17.48,1.16-34.95-.47-52.41-.29-3.13-.76-6.25-.95-9.41,3.08,12.13,5.05,24.47,6.8,36.85,2.15,15.21,3.13,30.66,9.15,45.1,2.81,6.75,6.28,13.03,11.45,18.29,8.56,8.7,19.32,9.32,28.81,1.58,3.5-2.85,6.93-5.8,10.9-8.38-2.64,3.77-5.3,7.52-7.92,11.3-5.71,8.21-10.9,16.69-13.51,26.47-.58,2.17-1,4.42-1.19,6.67-.98,11.6,6.05,18.69,17.68,17.94,7.33-.47,13.6-3.71,19.7-7.42,1.24-.75,2.47-1.53,4.18-1.7-4.07,3.62-8.13,7.25-12.22,10.86-16.77,14.79-34.28,28.63-53.19,40.6-2.82,1.78-3.72,3.54-2.98,6.92,8.07,36.73-.56,69.75-21.75,100.32-11.94,17.23-24.91,33.81-35.76,51.72-19.01,31.38-23.24,65.29-9.25,99.38,11.18,27.25,33,43.14,62.72,47.22,5.42,.74,10.8,.96,16.25,.27-9.18-.26-18.35-.76-27.12-3.67-30.64-10.17-49.37-30.9-54.68-62.96-2.11-12.77-3.65-25.67-1.42-38.67,.2,9.79-.05,19.59,1.14,29.36,3.45,28.21,15.79,50.66,41.07,65.08,10.46,5.97,21.87,8.6,33.66,9.59,9.17,.77,18.37,.57,27.46-1.63,3.37-.81,4.02-1.63,2.53-4.97-7.95-17.93-11.68-36.61-10.49-56.36,2.78-46.39,41.22-84.49,87.53-86.16,4.64-.17,9.27,.85,13.97,.18,11.64-1.65,21.03-7.32,28.56-16.07,21.88-25.45,34.3-55.08,38.52-88.27,4.8-37.74-2.97-73.88-13.92-109.6-13.83-45.12-32.95-88.09-53.65-130.39-3.85-7.86-7.88-15.63-11.41-23.63-1.79-4.06-4.42-5.97-8.69-6.75-6.96-1.27-13.83-3.07-20.74-4.67-18.42-4.28-32.23-14.99-43.06-30.22-10.26-14.42-18.62-29.97-27.8-45.03-13.42-22.03-26.87-44.05-41.75-65.15-1.85-2.62-3.99-5.05-6.57-6.82-11.52-7.89-19.02-19.65-28.45-29.65,50.77,20.64,92.31,53.87,128.62,95.43,2.22-10.6,6.81-19.12,13.09-26.75,1-1.21,1.15-2.2,.22-3.59-14.55-21.84-24.93-46.18-40.62-67.39-8.42-11.38-17.53-21.85-29.03-30.24,5.96,1.68,11.19,4.85,16.55,7.73,24.9,13.41,47.26,30.17,66.53,50.94,1.63,1.76,2.66,1.98,4.82,.56,9.99-6.57,23.7-4.21,31.48,5.33-1.84,0-2.79-1.33-4-2.01-8.18-4.67-16.49-3.92-24.88-.74-2.36,.9-2.73,2.2-.52,3.79,.12,.09,.25,.19,.32,.32,4.91,7.88,10.85,12,20.56,7.31,3.99-1.92,8.91-1.39,13.43-1.22,3.77,.13,5.11-.66,3.49-4.78-5.42-13.77-9.3-28.03-13.06-42.32-5.42-20.57-8.51-41.55-10.66-62.96,3.52,5.54,7.13,11.02,10.53,16.62,14.58,23.97,29.23,47.9,41.27,73.3,2.13,4.5,4.36,8.96,6.27,13.54,1.23,2.94,3.13,3.75,5.99,2.87,3.2-.98,2.37-3.64,1.91-5.64-1.21-5.32-2.19-10.64-1.93-16.12,.21-4.42,1.16-8.6,4.3-12.1-2.75,9.05-3.16,18.12-.99,27.72,2.59-1.27,3.48-3.61,4.89-5.37,16.55-20.58,49.37-20.3,65.56,.59,3.96,5.11,6.64,10.85,7.59,17.21,.47,3.18,1.72,3.24,4.16,2.23,24.47-10.16,47.32-22.74,65-43.15,1.83-2.11,3.36-4.61,7.18-6.53-8.04,17.72-22.4,27.12-36.98,36.33,15.28-7.11,29.46-15.55,37.5-31.35,2.6-5.12,3.22-5.4,7.71-1.58,8.16,6.95,14.18,15.63,19.17,25,8.98,16.86,14.23,34.83,15.51,53.95,.21,3.1-.62,5.41-2.71,7.72-26.55,29.29-58.4,51.2-94.04,67.9-45.4,21.27-93.31,30.26-143.25,29.44-4.53-.07-9.06-.05-13.58-.24-4.35-.19-8.69-.6-13.01-.43,49.52,8.09,97.83,2.88,144.74-14.58,46.76-17.4,88.33-42.85,121.42-81.99-.43,10.38-4.63,18.27-10.49,25.5-9.85,12.15-22.11,21.45-35.51,29.13-38.43,22.06-79.22,37.64-123.35,43.68-9.72,1.33-19.47,2.45-29.28,2.73-3.41,.1-3.94,1.18-3.12,4.28,4.64,17.51,10.59,34.59,16.52,51.68,3.02,8.7,2.66,9.33-6.73,9.56-2.67,.06-5.37,.24-8.32-.85,2.87,3.11,8.51,4.1,13.72,1.7,3.8-1.74,5.01-.85,6.44,2.75,2.84,7.13,6.16,14.08,10.06,20.74,.9,1.53,2.62,3.1,1.51,5.33-4.35,3.24-9.52,4.51-14.6,6.04,5.55,1.22,10.07-1.09,14.37-4.07,.68-.47,.5-1.33,.15-2.05,3.27,2.03,4.43,5.62,6.22,8.68,7.36,12.62,16.13,24.23,25.01,35.78,1.66,2.16,3.18,4.35,3.96,6.98-3.72-.28-6.88,1.81-10.41,2.45-5.82,1.06-11.7,.77-17.48,1.61,9.75,2.04,19.13,1.44,27.78-4.14Zm10.69,314.1c-5.91,7.52-12.55,13.94-23.55,14.99,10.06,1.86,19.79-5.93,24.15-13.39,.41-.7,.45-1.46-.73-1.5,4.43-2.25,6.33-6.06,6.81-10.92-2.21,6.4-7.51,7.95-13.23,8.79-4.34,.64-8.71,.61-13.07,.39-4.56-.23-9.12-.6-13.68-.9,1.35,.89,2.77,1.29,4.2,1.63,9.64,2.3,19.34,2.5,29.1,.91ZM446.44,113.67c-18.33-.05-32.45,5.51-41.35,15.3-7.43,8.17-12.61,17.73-11.22,29.07,1.86,15.2,15.68,28.42,30.96,30.88,22.23,3.57,46.23-10.37,53.91-31.53,3.68-10.14,2.88-19.82-3.84-28.69-8.15-10.75-19.36-14.79-28.46-15.03Zm39.7,9.02c.21,4.91,1.35,10.94,4.97,16.22,9.37,13.68,28.81,18.37,45.9,11.11,23.92-10.16,30.26-36.75,12.99-54.47-9.94-10.2-26.8-13.6-40.22-8.12-14.32,5.85-23.7,19.3-23.64,35.26Zm4.68,222.22c-.38,2.82,.6,3.87,1.15,5.06,11.35,24.81,23.05,49.47,32.88,74.93,13.79,35.73,25.95,72.03,37.78,108.45,16.07,49.44,26.11,100,30.18,151.79,.13,1.61,.02,3.24,.02,4.86-5.83-20.87-13.79-40.72-22.33-60.35-.71-1.64-1.64-3.23-2.71-4.66-3.18-4.25-6.84-4.91-11.57-2.25,7.35-.23,9.44,1.01,12.37,7.95,6.21,14.73,11.87,29.68,16.58,44.96,5.06,16.43,10.48,32.84,7.23,50.51,1.87-4.1,2.34-8.43,2.3-12.78-.12-12.81-.75-25.6-1.69-38.39-2.58-35.12-7.66-69.8-16.07-104.03-10.78-43.89-26.57-86.1-42.31-128.34-9.22-24.73-20.58-48.54-31.75-72.42-3.82-8.17-7.75-16.28-12.05-25.3Zm-25.89,332.22c-.19,.72-.3,.9-.25,.97,1.09,1.62,2.26,3.19,3.29,4.85,13.97,22.41,16.36,45.34,2.69,68.76-6.52,11.17-15.72,20.23-24.76,29.29-12.31,12.34-20.98,26.57-24.74,43.76,1.47-1.21,1.86-2.98,2.66-4.5,3.99-7.58,6.67-15.78,11.8-22.84,8.49-11.66,19.28-21.17,28.91-31.74,12.74-13.99,19.31-30.07,17.85-49.07-1.15-15.01-5.91-28.53-17.46-39.48Zm-55.9-46.88c-1.72-.09-2.19-.23-2.59-.12-29.5,8.3-51.88,25.33-64.3,53.83-12.28,28.18-10.12,56.49,.73,84.58,1.62,4.2,2.97,8.6,6.14,12.15-13.42-29.07-16.16-58.93-5.83-89.31,10.7-31.46,33.16-50.99,65.84-61.13Zm108.95,19.55c-.44,.94-.94,1.86-1.3,2.83-9.67,25.87-18.35,52.06-23.32,79.27-2.9,15.89-5.66,31.93-2.5,47.89-.97-45.17,16.76-86.64,27.11-130Zm-129.93,28.05c-.05-4.74-3.08-7.56-8.15-7.56-5.94,0-11.17,5.55-11.15,11.85,.02,4.8,3.58,7.89,9.03,7.83,5.5-.06,10.33-5.76,10.26-12.12Zm19.02-7.88c6.15,0,10.72-3.95,10.69-9.26-.02-4.95-4.56-9.02-10-8.97-5.65,.05-10.05,4.51-9.97,10.11,.07,5.18,3.42,8.12,9.28,8.12Zm117.63,158.07c.26,.1,.51,.21,.77,.31,.51-1,1.07-1.99,1.52-3.02,8.89-20.45,17.18-41.15,24.81-62.1,2.04-5.6,2.6-12.25,11.43-12.86-2.67-1.32-4.13,.79-6.08-.44,1.96-5.39,3.95-10.85,5.95-16.32-1.91,2.16-2.77,4.77-4.25,6.97-2.65,3.92-1.76,10.17-7.74,11.89-.5,.14-.5,.24-.08,.42,4.11,1.8,.48,4.06-.07,5.53-4.28,11.43-9.09,22.65-13.42,34.06-4.47,11.78-8.57,23.69-12.83,35.54Zm12.11-622.35c-1.89-.56-3.33,.37-4.85,.91-23.74,8.49-48.01,12.88-73.3,9.58-8.33-1.09-8.34-1.02-6.08-8.76,.05-.19-.19-.46-.49-1.11-1.93,2.9-5.12,5.36-4.02,8.8,1,3.14,4.9,3.02,7.77,3.63,2.64,.56,5.37,.8,8.08,.99,9.21,.64,18.39,.4,27.53-.93,15.74-2.29,30.81-6.91,45.36-13.1Zm31.65,323.32c16.67,12.87,51.27,14.09,69.35,1.98-24.14,6.31-46.91,6.56-69.35-1.98Zm-127.36,129.03c2.44,.03,4.77-.39,6.88-1.71,3.28-2.06,4.54-6.17,2.53-8.86-2.47-3.3-6.11-3.6-9.77-3.05-3.63,.55-7.07,1.74-8.33,5.79-1.37,4.41,2.44,7.82,8.69,7.83Zm54.73,190.83c-2.04-10.69-5.34-14.96-14-18.7-4.01-1.73-8.21-3.02-12.16-4.87-8.59-4.02-26.66,1.06-34.14,6.53,20.17-6.44,34.45,1.12,44.78,18.38-4.11-13.99-14.03-20.83-28.79-22.86,16.35-5.65,35.05,3.54,44.31,21.52Zm-285.51-103.32c.03-5.29-4.26-11.22-8.02-11.09-3.18,.11-5.86,3.16-5.95,6.79-.15,5.49,3.88,10.94,8.05,10.9,3.41-.03,5.9-2.82,5.93-6.6Zm339.97-81.46c.16,.53,.24,1.1,.5,1.58,8.71,16.01,17.23,32.14,30.06,45.43,2.6,2.69,5.39,5.31,5.31,9.56,.72-3.72,.39-7.05-2.3-9.99-2.44-2.65-4.66-5.51-6.87-8.37-9.52-12.25-17.31-25.68-26.69-38.22Zm-137.85,27.56c5.6-.05,9.95-2.85,9.92-6.03-.03-3-3.39-5-8.4-5-5,0-7.74,2.25-7.64,6.24,.11,4.59,3.44,4.61,6.12,4.79Zm-120.69-128.43c11.41-21.47,19.19-43.7,15.25-68.48-.37,23.89-5.37,46.75-15.25,68.48Zm236.78,35.2c-11.56,.75-22.58,8.75-26.7,18.52-4.33,10.28-3.83,22.58,1.14,28.35-5.99-24.28,5.59-40.78,25.56-46.87Zm123.1,136.78c-20.07,2.59-38.38,.87-53.85-14.17,5.26,14.63,34.29,21.64,53.85,14.17Zm-415.58-132.5c-.19-2.26-.84-4.65-4.38-4.49-3,.13-6.7,3.91-6.74,6.88-.05,3.17,2.6,5.92,5.64,5.87,2.9-.05,5.52-3.76,5.48-8.26Zm365.02-126.5c-7.18,2.84-14.42,5.67-21.92,7.74-7.5,2.07-15.23,2.79-23,3.17,10.19,4.3,32.21-1.06,44.92-10.91Zm-416.13,232.61c.15,2.44,.49,5.72,4.68,6.08,2.69,.23,5.11-3.38,5.1-7.35-.01-3.18-1.08-5.79-4.8-5.65-3.74,.14-5.04,2.67-4.98,6.92ZM623.69,125.13c-2.05-.05-3.85-.22-4.58,1.77-1.79,4.91-2.71,9.91-.45,14.91,1.47,3.24,4,3.93,7.03,2.07,1.39-.85,2.79-1.86,3.84-3.09,2.74-3.19,6.36-6.87,4.49-11.05-1.7-3.8-6.73-3.91-10.34-4.61ZM218.88,771.98c-.39-3.24-1.41-6.08-5.3-6.01-3.56,.06-4.97,2.6-4.91,5.77,.06,3.29,2.09,5.46,5.32,5.57,3.28,.11,4.61-2.27,4.89-5.32Zm74.71-368.51c.52-27.37,.69-54.73-.09-82.1-1.4,27.37-.9,54.73,.09,82.1Zm-72.05,219.58c-.04-1.89-.45-3.9-3.32-3.95-3.01-.05-6.68,3.86-6.9,7.21-.19,2.92,1.48,4.09,4.06,4.18,3.12,.11,6.06-3.37,6.16-7.45Zm43.99-246.48c-4.11-17.17-10.21-33.65-16.2-50.16,4.06,17.17,10.26,33.64,16.2,50.16Zm-47.79,268.07c-.39-3.05-1.95-5.18-5.45-5.2-2.7-.02-4.35,1.46-4.25,4.18,.11,3.09,1.31,5.78,4.83,6.04,3.16,.23,4.5-1.9,4.87-5.02Zm340.68,207.95c-4.46-17.29-15.83-24.62-29.78-16.84,16.46-5.41,22.38,6.22,29.78,16.84Zm-364.46-184.35c.01,1.71,1.59,3.22,4.16,3.15,3.9-.12,5.25-3.02,5.74-6.34,.41-2.8-1.65-3.67-3.84-3.92-2.82-.32-5.99,3-6.06,7.11Zm168.93-240.19c-8.19,3.07-30.78,20.12-34.61,26.07,11.18-9.16,23.47-16.85,34.61-26.07Zm78.74,244.4c-.28-2.43-1.77-4.36-4.84-4.19-2.69,.15-4.52,1.76-4.46,4.65,.07,3.28,2.14,4.92,5.23,4.89,2.97-.03,4.1-2.06,4.07-5.35Zm-242.39,14.93c-.08-2.23-.86-4.09-3.3-3.92-3.23,.23-5.12,2.34-5.43,5.52-.26,2.63,1.39,3.83,3.87,3.71,3.34-.15,4.49-2.44,4.86-5.31Zm274.32-24.54c-2.67,.41-4.48,1.98-4.42,4.69,.05,2.29,1.74,3.96,4.1,3.91,2.59-.05,4.6-1.32,4.6-4.34,0-2.77-1.74-3.91-4.28-4.26Zm128.97,82.72c10.87,7.47,22.6,12.08,36.19,9.76-13.02,.28-24.62-4.51-36.19-9.76ZM318.84,415.62c6.49-11.42,14.26-21.97,21.97-32.56-9.42,9.44-16.94,20.17-21.97,32.56Zm-71.8,170.17c-.01-2.33-1.44-3.5-3.38-3.45-2.57,.06-4.03,1.85-4.31,4.34-.21,1.83,.48,3.42,2.66,3.26,2.57-.19,4.57-1.37,5.04-4.14Zm-20.03,164.37c-2.19,.29-3.64,1.4-3.64,3.71,0,2.48,1.92,3.4,3.89,3.37,1.86-.03,3.36-1.22,3.34-3.42-.02-2.34-1.34-3.47-3.6-3.65Zm-9.46-73.24c-2.22,.34-3.12,1.8-2.99,3.78,.13,2,.75,4.04,3.33,3.84,2.46-.19,3-2.11,2.91-4.21-.08-2.07-1.13-3.3-3.26-3.4ZM359.04,186.12c-.05-1.94-.72-3.41-2.8-3.44-2.37-.04-3.55,1.47-3.68,3.69-.1,1.79,.49,3.45,2.67,3.39,2.26-.06,3.48-1.5,3.81-3.64Zm1.03-26.3c-2.35,.09-3.15,1.73-3.33,3.58-.2,2.13,1.1,3.49,3.22,3.41,2.22-.08,2.9-1.83,2.99-3.78,.09-2-.96-3.03-2.88-3.2Zm-121.95,267.43c-9.2-3.38-18.39-6.76-27.59-10.14,8.81,4.44,17.86,8.21,27.59,10.14Zm-27.6,271.25c-1.99,.2-2.8,1.44-2.66,3.37,.15,2.07,1.18,3.45,3.39,3.38,2.01-.06,2.99-1.3,2.74-3.29-.24-1.97-1.15-3.4-3.47-3.46Zm2.29,19.29c-2.02,.15-3.7,.82-3.6,3.14,.09,1.97,1.09,3.5,3.37,3.41,2.13-.08,3.37-1.36,3.38-3.44,0-1.93-1.24-2.95-3.14-3.1ZM271.33,85.96c-.14-1.64-.97-2.82-2.72-2.84-2.04-.03-3.42,1.12-3.61,3.19-.19,1.96,.95,3.13,2.89,3.16,2.2,.04,2.99-1.56,3.44-3.5Zm-14.69,483.92c-1.72,.59-3.25,1.78-3.51,3.9-.23,1.84,1.06,2.79,2.79,2.66,2.02-.15,3.34-1.42,3.54-3.43,.17-1.68-.7-2.85-2.82-3.13Zm303.45,163.52c-6.64,1.58-13.27,3.26-20.17,3.07,7.18,2.11,13.7-.28,20.17-3.07Zm-5.38,95.23c6.94,1.67,11.8,6.68,17.04,11.1-3.93-6.38-9.08-10.87-17.04-11.1Zm-65.62-532.83c-5.58,1.72-10.66,3.68-16.72,1.58,3.93,4.13,11.19,3.29,16.72-1.58ZM280.73,90.33c-1.55,.49-2.82,1.49-2.91,3.33-.09,1.76,.93,2.86,2.74,2.71,1.94-.16,2.86-1.49,2.8-3.35-.04-1.5-.9-2.45-2.63-2.69Zm319.95,610.57c-1.63,.35-3.37,.72-3.31,2.87,.05,1.68,1.12,2.85,2.83,2.85,1.83,0,3.14-1.1,3.34-2.96,.2-1.91-1.26-2.46-2.86-2.76Zm-72.35-323.29c-5.4,2.14-10.93,3.5-16.67,4.01,5.68,1.78,10.72,.57,16.67-4.01Zm123.29-294.94c1.98,.8,1.64,3.49,4.11,4.58-.58-3.95-2.69-6.63-4.95-10.29-.84,3.53-1.47,6.22-2.35,9.93,2.05-1.65,1.71-3.6,3.19-4.22Zm-64.85,752.97c-4.87-3.89-11.8-5.7-16.93-4.69,5.56,1.54,10.79,2.99,16.93,4.69ZM308.54,111.85c-.11-1.24-.3-2.77-2.1-2.66-1.93,.13-3.43,1.27-3.67,3.29-.19,1.64,.67,3.09,2.47,3.02,2.02-.07,3.19-1.41,3.29-3.65Zm22.72,40.95c-.06-1.79-.98-2.85-2.75-2.9-2.01-.05-3.02,1.14-3.05,3.08-.02,1.59,.88,2.59,2.44,2.65,1.87,.07,3.13-.83,3.36-2.83Zm145.94,681.56c5.91,2.13,9.47,6.8,13.28,12.68-2.03-7.81-6.81-12.22-13.28-12.68ZM387.36,107.17c-.22-1.73-1.16-2.82-2.94-2.78-1.86,.05-2.63,1.37-2.68,3.03-.05,1.84,1.05,2.84,2.86,2.64,1.6-.18,2.9-.92,2.76-2.89Zm-32.55-43.17c.03-1.55-.56-2.73-2.25-2.78-1.96-.06-3.12,1.06-3.22,3.02-.08,1.65,.95,2.51,2.52,2.54,1.8,.04,2.73-1.02,2.94-2.78Zm240.02,568.87c-1.44,.19-2.78,.66-2.79,2.34,0,1.66,.84,3,2.69,2.89,1.46-.09,2.53-1.1,2.59-2.63,.07-1.59-.92-2.43-2.49-2.6ZM438.84,42.16c-.05-1.31-.51-2.51-1.9-2.58-1.91-.09-2.98,1.29-3.25,3-.22,1.4,.81,2.17,2.17,2.21,1.74,.04,2.71-.93,2.98-2.62Zm155.79,580.11c1.62-.4,2.55-1.48,2.46-3.15-.09-1.6-1.26-2.35-2.76-2.22-1.42,.12-2.62,.84-2.56,2.49,.06,1.72,1.15,2.6,2.86,2.87Zm-12.69-61.07c-1.65,.21-2.49,1.21-2.29,2.74,.18,1.36,.87,2.69,2.56,2.52,1.41-.14,2.6-.89,2.6-2.53,0-1.86-1.26-2.53-2.87-2.73Zm7.76,203.6c-.06-1.56-.88-2.5-2.47-2.43-1.64,.07-2.9,.94-2.92,2.7,0,1.52,1.06,2.46,2.55,2.54,1.83,.1,2.55-1.16,2.84-2.81Zm-30.63,55.66c-5.85,.73-11.54,2.09-16.51,5.58,5.53-1.74,10.89-4.01,16.51-5.58Zm-333.89-160.46c.07-1.61-.66-2.65-2.3-2.7-1.61-.05-2.54,.86-2.48,2.52,.06,1.52,.83,2.69,2.39,2.81,1.73,.14,2.28-1.12,2.39-2.64ZM457.58,67.67c-.11-1.19-.58-2.17-1.8-2.23-1.8-.09-2.74,1.01-2.83,2.73-.06,1.21,.67,2.06,1.9,1.97,1.47-.1,2.39-1.05,2.73-2.47Zm-131.38,55.64c-1.53,.33-2.33,1.41-2.4,3.07-.06,1.24,.55,1.93,1.82,1.96,1.82,.04,2.69-.99,2.8-2.69,.09-1.4-.64-2.18-2.22-2.34Zm18.51,46.9c-.01-.43-.76-1.38-2.39-1.3-1.67,.08-2.2,1.23-2.2,2.72,0,1.45,.85,2.2,2.19,2.22,1.57,.02,2.42-.87,2.4-3.64Zm234.04,380.14c1.53,.09,2.35-.64,2.52-2.01,.2-1.58-.46-2.63-2.15-2.69-1.29-.05-2.43,.36-2.5,1.89-.06,1.5,.61,2.56,2.13,2.81ZM464.9,89.52c-1.59,.14-2.01,1.22-1.96,2.53,.05,1.21,.16,2.63,1.83,2.58,1.43-.04,2.07-1.1,2.07-2.47,0-1.33-.54-2.32-1.94-2.64Zm-18.19-13.61c-.03-1.32-.59-2.33-2.04-2.33-1.29,0-2.31,.68-2.54,2.04-.22,1.34,.36,2.41,1.76,2.59,1.6,.21,2.39-.85,2.81-2.3Zm-8.32-19.54c1.43-.3,1.99-1.36,1.89-2.65-.1-1.28-.77-2.39-2.29-2.23-1.41,.15-2.1,1.13-1.95,2.54,.14,1.35,.94,2.16,2.34,2.34Zm153.72,547.3c2.13,.05,2.98-.85,3.06-2.12,.08-1.39-.93-2.18-2.3-2.15-1.44,.03-2.13,1.01-2.09,2.37,.03,1.2,.76,1.88,1.33,1.91ZM339.04,135.12c-.09-1.2-.64-2.09-1.87-2.11-1.38-.02-2.22,.86-2.31,2.21-.08,1.18,.53,2.05,1.8,2.09,1.46,.05,2.02-1,2.38-2.19Zm250.8,620.38c.94-.22,1.98-.49,1.96-1.84-.02-1.54-.79-2.55-2.4-2.52-1.18,.03-1.87,.81-1.86,2.03,0,1.43,.89,2.08,2.3,2.33Z"/>
  <path d="M681.39,820.28c3.54,5.62,7.24,11.16,7.92,18.03,.16,1.63,.68,3.25-.05,5.85-8.07-7.3-19.5-9.05-25.45-19.02-3.08-5.15-7.66-6.38-14.21-4.37,7.96,.81,12.78,4.39,16.31,9.87,3.61,5.59,2.89,12.06,3.49,18.7-3.62-2.76-7.25-5.52-11.38-8.67,.16,4.05,.92,7.27,.35,10.6-.45,2.6-1.49,3.23-3.92,2.81-8.12-1.41-15.66-4.56-23.01-8.02-3.94-1.85-4.59-.31-4.95,2.88-.14,1.2-.16,2.44-.49,3.58-.43,1.5,.37,3.93-1.52,4.31-1.6,.32-2.6-1.82-3.58-3.07-4.11-5.26-7.31-11.08-9.87-17.23-4.01-9.62-7.25-19.5-10.27-29.47-.98-3.24-.6-5.27,2.41-7.61,23.83-18.56,43.71-40.63,58.31-67.22,11.43-20.81,16.19-43.32,17.29-66.86,2.16-45.82-10.06-87.9-31.58-127.94-19.01-35.37-43.02-67.28-66.61-99.54-18.16-24.84-37.54-48.81-54.29-74.67-13.62-21.02-23.41-43.85-31.45-67.49-.28-.84-.84-1.63-.32-2.78,5.1,11.13,10,22.18,15.19,33.1,14.59,30.68,33.45,58.62,54.61,85.11,25.7,32.16,52.04,63.85,73.8,98.97,19.12,30.86,34.23,63.39,42.56,98.9,11.14,47.5,6.39,93.76-10.4,139.18-8.24,22.28-18.75,43.47-29.93,64.38-.99,1.86-1.92,3.76-2.84,5.65-.1,.2,.06,.53,.16,1.23,4.81-1.87,9.47-3.82,14.23-5.49,7.43-2.61,15.07-4.44,22.99-4.57,15.82-.25,26.96,10.6,27.57,27.29-7.16-5.78-12.96-12.7-21.17-16.36,5.22-1.67,9.25,2.25,14.63,3.47-4.39-3.93-8.97-4.93-13.82-5.08-1.32-.04-2.22,.26-.68,1.55Zm-51.26,13.92c3.84-.56,7.61-1.53,11.54-1.28,4.06,.25,7.58,1.56,10.36,4.72,2.54,2.88,2.83,6.85,4.92,9.93-.46-6.08-.98-12.22-7.21-15.49-6.92-3.63-13.36-1.22-19.61,2.12Zm48.91-11.81c-4.53-5.13-9.42-6.55-14.47-4.2,5.51-.03,10.07,1.74,14.47,4.2Z"/>
  <path d="M181.81,602.82c2.32,1.36,4.84,2.46,6.91,4.13,3.09,2.5,5.07,1.2,7.72-.91,6.43-5.1,10.54-10.5,5.16-18.72-2.15-3.29,.14-7.2-1.76-11.14,4.29,2.12,3.23,7.9,7.83,9.13,4.18,1.11,7.91-.07,12.46-1.75-7.62,8.09-14.62,15.52-21.62,22.94-1.55,1.64-3.17,3.22-4.65,4.91-4.97,5.7-4.94,5.71-8.73-1.07-1.3-2.33-2.66-4.62-3.99-6.93,.22-.2,.45-.4,.67-.59Z"/>
  <path d="M222.59,558.48c4.88,2.3,8.22,6.35,12.55,8.98,1.97,1.2,.21,1.95-.42,2.73-2.94,3.63-5.93,7.22-9.68,10.17,1.99-7.93-2.46-14.54-2.45-21.87Z"/>
  <path d="M263.34,530.68c.11,4.01,4.84,5.18,4.35,8.72-.21,1.54-1.49,3.21-3.89,3.9-.52-3.8-1.1-7.46-1.48-11.13-.18-1.8,.57-2.78,2.69-2.24,2.78,.71,5.61,.4,8.48-.09-1.44,4.77-2.54,6.11-3.91,4.94-1.83-1.58-3.67-3.02-6.24-4.09Z"/>
  <path d="M273.65,505.49c3.12-1.1,6.23-2.82,7.79-1.47,1.53,1.32-.53,4.39-1.07,6.68-.31,1.3-.36,2.69-1.46,3.88-2.77-2.52-.18-7.61-5.27-9.09Z"/>
  <path d="M171.02,625.36h11.48c-3.32,7.58-3.7,7.6-11.48,0Z"/>
  <path d="M243.62,547.64c3.99,1.61,5.44,5.02,7.64,7.51,1.39,1.57-1.2,2.56-2.39,3.48-1.37,1.06-2.05,.44-2.45-1.1-.82-3.15-1.77-6.27-2.8-9.89Z"/>
  <path d="M250.5,550.53c3.73-.68,7.19-1.83,10.94-4.38-3.66,7.65-6.29,8.56-10.94,4.38Z"/>
  <path d="M283.32,493.9c-1.66-3.03-2.86-5.2-4.12-7.5q6.19-.96,4.12,7.5Z"/>
  <path d="M403.6,165.36c-4.71,.03-8.76-3.55-8.86-7.83-.11-4.48,4.93-9.44,9.72-9.58,4.66-.13,8.7,3.82,8.68,8.49-.02,4.71-4.48,8.88-9.54,8.92Z"/>
  <path d="M497.88,134.55c-5.15-.17-9.46-4.18-9.22-8.58,.22-3.93,4.81-7.81,9.12-7.72,4.9,.1,8.94,4.23,8.8,9.01-.13,4.17-4.04,7.45-8.7,7.3Zm3.56-11.72c-.22-.91-1.03-1.57-2.16-1.53-1.34,.05-2.33,.85-2.19,2.28,.14,1.46,1.3,1.94,2.61,1.76,1.19-.16,1.76-1,1.74-2.5Z"/>
  <path d="M619.02,134.11c.72-2.53-1-6.5,3.59-6.85,3.89-.3,9.64,2.97,9.73,5.08,.14,3.08-5.94,10.35-8.77,9.92-4.6-.7-4.14-4.73-4.55-8.15Z"/>
</svg>