<?xml version="1.0" encoding="UTF-8"?>
<svg id="Layer_1" data-name="Layer 1" xmlns="http://www.w3.org/2000/svg" viewBox="0 0 864 864">
  <path d="M415.17,76.85c2.58-7.02,7.62-12.34,12.53-18.83,1.26,6.47,2.77,12.01,8.4,14.99,2.02,1.07,4.06,1.12,7.35-.31-7.45-2.33-10.54-7.36-12.93-13.12-.8-1.93-.98-3.44,.34-5.17,4.08-5.34,8.63-10.22,13.95-15.05,1.98,6.23,5.17,11.04,11.4,12.84,2.34,.68,4.9,1.19,7.61-1.63-8.19-1.61-13.31-6.55-15.89-13.75-.46-1.29,2.34-2.96,4.22-4.52,1.48,4.92,4.08,8.4,8.64,10.06,2.6,.95,5.16,1.16,8.28-1.32-5.65-.81-9.87-3.14-13.35-6.89-1.84-1.99-2.21-3.3,.28-5.14,5.66-4.18,11.32-8.32,17.81-11.12,1.33-.57,2.91-1.85,4.35-.6,1.32,1.15,.8,2.95,.53,4.45-1.89,10.43-6.33,19.89-11.29,29.11-5.03,9.34-10.27,18.57-15.35,27.89-1.19,2.18-2.36,4.44-3.04,6.81-1.52,5.34,2.49,10.47,7.99,10.6,1.43,.03,2.3-.78,3.15-1.73,15.47-17.28,36.3-23.33,58.38-28.09-4.23,11.88-1.64,21.58,7.41,29.99,.93-2.12-.48-3.04-1.1-4.13-4.19-7.35-5.62-15.14-4.02-23.47,.27-1.39,.28-2.8,2.14-3.14,8.09-1.48,16.22-2.51,24.62-3.03-4.29,13.4-2.06,23.09,6.42,28.08,.4-1.83-.97-2.9-1.59-4.11-3.12-6.04-3.98-12.36-3.14-19.08,.5-3.99,2.38-5.82,6.42-5.58,2.64,.16,6.14-.94,7.7,.37,1.71,1.43-1.17,4.25-1.61,6.61-.77,4.15-1.95,8.24-.54,12.46,.74,2.22,1.49,4.48,5.03,5.11-2.64-6.61-2.68-13.07-1.19-19.52,.74-3.21,2.05-5.95,6.29-4.87-2.46,9.21-1.28,14.82,4.14,19.28,.65-2.36-.51-4.31-.9-6.36-.53-2.75-1.11-5.51-1.32-8.3-.33-4.41,3.53-6.62,7.59-4.58,1.53,.77,.64,1.79,.57,2.78-.34,4.65,.95,8.4,6.09,10.9-1.07-3.62-2.05-6.53-2.76-9.5-.52-2.2-.26-4.38,2.85-3.68,1.97,.44,6.03-1.87,5.05,3.35-.3,1.61-.57,3.41,1.01,5.23,.94-1.37,.25-2.73,.42-3.93,.2-1.42-.66-3.44,1.64-3.76,1.68-.24,3.58-.24,4.78,1.26,1.32,1.64,.56,3.35-.59,4.69-4.8,5.59-11.2,8.91-17.75,11.86-22.92,10.3-46.52,18.9-69.84,28.2-4.49,1.79-9.06,3.42-13.1,6.17-1.02,.7-2.1,1.41-2.89,2.34-.88,1.04-1.99,2.31-1.4,3.76,.71,1.73,2.47,.96,3.73,.83,3.18-.33,6.3-.85,5.83,4.11,2.61-1.13-.41-4.28,2.33-4.68,3.69-.53,7.42-.84,11.14-.98,1.03-.04,.9,1.47,1.2,2.31,.85,2.39,2.03,4.45,4.7,5.46,.69-1.95-.73-2.83-1.34-3.95-2.35-4.3-2.1-4.59,2.65-5.32,3.04-.47,3,.74,2.52,3.01-1.46,6.86,.87,12.94,4.24,18.71,1.18,2.01,2.78,3.68,6.1,4.23-1.47-2.34-2.6-4.09-3.68-5.87-1.88-3.1-3.08-6.47-3.95-9.98-2.34-9.47-1.48-10.8,8.05-12.7,5.96-1.18,11.91-2.45,17.86-3.64,2.4-.48,4.68-.77,5.37,2.6,.24,1.2,1.21,2.55,2.67,1.77,1.11-.59,.76-2.05,.06-2.92-1.91-2.39-.67-3.17,1.62-3.65,1.53-.32,3.02-.79,4.53-1.16,3.85-.93,7.5-1.79,8.57,3.88,.35,1.83,1.98,3.38,4.57,4.01-.37-3.57-2.78-5.84-3.87-9.03,3.08-.87,6.07-1.17,9.11-.49,1.08,.24,2.22,.99,2.09,2.2-.18,1.74-1.14,.79-1.91,.3-.08-.05-.58,.27-.64,.49-2.72,10.19-12.08,13.81-19.54,18.85-15.82,10.7-33.02,18.86-51.27,24.73-2.8,.9-5.63,2.02-8.09,3.6-6.16,3.97-6.24,10.57-.42,14.99,.5,.38,1.01,.73,1.53,1.08,6.64,4.35,6.62,4.3-.13,8.31-2.81,1.67-5.6,3.42-8.18,5.42-3.82,2.97-4.02,6.75-1.84,10.86,2.17,4.08,5.85,6.8,9.09,9.85-.62,1.77-2.05,1.43-3.16,1.66-2.14,.43-4.32,.68-6.45,1.15-17.36,3.81-21.41,16.4-9.78,29.87,2.02,2.33,6.65,3.72,5.65,6.97-.73,2.36-4.73,3.7-7.26,5.52-1.65,1.18-3.32,2.34-4.91,3.6-10.76,8.46-11.59,18.35-2.43,28.48q5.18,5.72-.61,10.86c-3.05,2.69-5.96,5.5-8.41,8.77-5.12,6.86-4.09,12.08,3.32,16.62q6.49,3.98,.41,8.85c-9.91,7.93-9.48,13.73,1.79,19.45,3.27,1.66,3.28,2.92,1.12,5.41-2.55,2.95-5.1,5.95-7.18,9.22-4.54,7.13-3.06,13.95,3.93,18.65,2.31,1.55,4.82,3.06,7.46,3.82,3.96,1.14,3.13,2.82,1.28,5.16-2.42,3.06-4.84,6.13-7.08,9.31-8.64,12.28-5.99,24.41,6.79,32.28,2.75,1.69,7.49,2.02,7.91,5.07,.39,2.8-3.62,5.08-5.5,7.73-.63,.89-1.33,1.74-1.95,2.64-8.66,12.63-6.03,21.34,8.14,27.13,1.25,.51,2.84,.45,3.66,1.97-.93,2.04-2.81,3.27-4.47,4.62-3.24,2.64-4.14,5.82-2.49,9.58,7.33,16.72,17.02,31.87,30.48,45.26,3.33-9.03,6.37-17.63,9.66-26.13,14.31-36.99,28.87-73.88,50.53-107.39,25.34-39.21,58.22-71.14,95.94-98.27,10.98-7.9,21.24-7.81,32.63-.39,11.6,7.56,20.43,17.88,28.03,29.21,26.77,39.87,40.47,84.03,42.96,131.86,1.3,24.97,.07,49.62-7.67,73.62-5.44,16.87-13.24,32.68-22.11,47.94-5.38,9.27-8.98,9.24-14.97,.29-8.03-12.01-11.54-25.83-15.2-39.57-1.08-4.07-1.91-8.22-3.28-12.19-1.64-4.75-5.97-5.39-8.79-1.22-2.61,3.86-4.6,8.14-6.9,12.22-8.98,15.94-20.1,30.08-34.73,41.26-1.12,.85-2.27,1.66-3.44,2.44-13.2,8.71-22.9,6.62-31.72-6.7-3.83-5.79-6.05-12.3-8.69-18.62-.72-1.73-1.59-3.39-2.3-5.12-1.57-3.82-4.07-4.03-6.93-1.61-5.37,4.53-10.65,9.16-15.9,13.83-6.3,5.6-12.34,11.52-18.87,16.83-3.49,2.83-3.11,4.73-.57,7.87,17.16,21.27,27.7,45.44,31.05,72.64,.4,3.25,.52,6.53,.85,9.79,.17,1.68,.15,3.58,2.35,4.09,2.14,.5,4.01,.02,5.51-1.68,1.84-2.08,2.47-4.65,3.02-7.26,1.48-7.04,1.58-14.19,2.37-22.09,3.91,4.15,7.79,8.32,11.74,12.43,1.08,1.12,2.27,2.16,3.52,3.08,4.16,3.07,6.41,2.77,9.37-1.43,3.77-5.36,4.81-11.78,6.6-17.9,.43-1.47,.83-2.96,1.26-4.5,2.31,.57,3.07,2.41,4.12,3.88,1.44,2.02,3.01,3.77,5.73,3.11,2.55-.62,3.1-2.95,3.44-5.1,.58-3.69,.98-7.42,1.32-11.15,.14-1.54,.47-2.27,2.26-2.79,10.4-2.99,11.62-4.81,11.35-15.51-.05-2.17,0-4.34,0-6.5,6.98,1.52,7.25,1.29,7.08-6.13-.04-1.72-.1-3.43-.16-5.15-.07-1.88,.59-3.04,2.71-2.74,3.88,.56,5.29-1.84,5.98-5.03,.73-3.33,1.39-6.68,2.34-11.27,3.03,7.55,4.47,14.29,5.21,21.17,4.76,44.77-7.28,85.6-30.98,122.93-23.12,36.44-55.7,62.84-94,82.3-7.58,3.85-15.44,7.16-23.7,10.97,4.72,2.3,8.95,4.18,13.01,6.38,5.97,3.22,11.38,7.19,14.86,13.21,4.65,8.06,2.92,14.29-5.11,18.83-1.08,.61-2.22,1.15-3.37,1.61q-5.98,2.43-8.1-3.67c-1.35-3.87-3.26-7.43-6.18-10.37-.88-.89-1.87-1.98-3.21-1.3-1.13,.57-.76,1.92-.7,2.98,.24,4.41,1.32,8.65,2.96,12.71,.94,2.31,.72,3.58-2.09,3.49-.16,0-.31,.03-.47,.04-4.83,.29-10.29,2.11-14.31,.45-4.41-1.82-1.6-8.41-3.6-12.49-1.25-2.54-.75-7.4-3.75-7.21-3.23,.21-2.8,4.93-3.3,7.82-.56,3.21-.56,6.53-.6,9.8-.02,2.03-.84,2.82-2.8,2.72-1.87-.1-3.75-.06-5.62-.16-3.12-.17-6.78,.56-9.2-.84-3.22-1.86,.48-5.39-.13-8.3-.57-2.73-.48-5.6-1.43-8.27-.36-1-.65-2.23-1.95-2.38-1.35-.15-1.8,1.04-2.32,1.97-2.03,3.59-3.12,7.53-3.49,11.57-.37,3.99-2.2,4.62-5.54,3.31-1.74-.68-3.58-1.09-5.33-1.77-10.65-4.13-12.7-8.44-8.99-19.22-2.52-.95-4.89,.19-7.15,.68-17.47,3.74-35.32,4.18-52.96,6.36-22.35,2.76-43.62-3.98-65.4-6.08-11.15-1.08-22.24-2.82-33.29-4.26-.58,.78-.04,1.22,.26,1.71,5.59,9.35,3.83,15.19-6.01,19.86-.56,.27-1.12,.55-1.7,.78q-9.84,3.97-12.99-5.94c-.75-2.37-1.65-4.7-2.62-7-.41-.96-.97-2.14-2.3-1.99-1.28,.14-1.62,1.37-1.98,2.38-1.5,4.25-1.83,8.64-.35,12.87,1.27,3.61-.1,4.34-3.29,4.29-3.74-.06-7.5,0-11.24,.24-2.79,.18-3.9-.67-3.8-3.63,.15-4.52,0-9.08-1.35-13.46-.43-1.39-.62-3.46-2.6-3.41-1.67,.04-1.84,1.9-2.25,3.18-1.46,4.63-2.51,9.36-2.78,14.21-.13,2.4-1.07,3.31-3.47,3.11-4.82-.41-9.65-.72-14.48-.96-2.39-.12-2.39-1.13-1.64-3,1.58-3.93,2.38-8.08,2.92-12.26,.17-1.31,.89-3.15-.55-3.87-1.66-.83-2.82,.92-3.85,1.97-3.13,3.21-4.99,7.21-5.98,11.49-.78,3.38-2.45,3.87-5.27,2.58-.71-.32-1.47-.53-2.2-.81-13.12-5.11-15.19-14.08-5.39-24.38,8.22-8.64,18.81-13.17,30.02-16.46,2.52-.74,5.07-1.36,7.74-2.08-1.09-2.17-2.86-2.92-4.37-3.95-19.22-13.18-35.05-29.7-46.77-49.76-15.17-25.97-17.38-54.4-13.37-83.49,4.21-30.56,17.92-57.25,35.18-82.33,.97-1.41,1.92-2.85,2.91-4.25q4.27-6.05-2.58-9.36c-4.66-2.25-9.56-3.88-14.56-5.08-13.63-3.28-25.56-9.82-36.46-18.46-2.44-1.94-4.98-3.78-7.58-5.49-3.95-2.6-6.16-1.49-6.45,3.15-.1,1.55-.07,3.13,.09,4.68,1.9,18.58,.53,37.12-.43,55.68-.2,3.9-.67,7.81-.47,11.69,.23,4.44-1.56,4.17-4.59,2.66-9.75-4.88-18.26-11.35-25.5-19.51-25.18-28.38-43.28-60.71-52.99-97.41-10.91-41.24-13.52-82.8-2.33-124.5,2.67-9.95,6.03-19.69,10.76-28.9,7.45-14.52,15.46-18.75,31.78-17.22,16.21,1.52,31.57,6.22,46.23,12.96,57.29,26.37,107.36,62.73,149.89,109.37,.63,.69,1.22,1.42,1.82,2.14,6.39,7.68,6.28,7.62,11.24-1.39,15.12-27.49,25.77-56.45,28.91-87.87,3.1-31.07-1.32-60.98-13.97-89.63-1.29-2.93-3.25-3.11-5.89-3.25-42.63-2.28-82.83-12.98-119.6-35.13-10.64-6.4-20.02-14.42-27.55-24.39-14.73-19.52-16.97-40.81-8.14-63.27,10.27-26.1,29.6-43.92,53.58-57.29,6.69-3.73,13.56-7.12,20.82-9.53,3.41-1.13,4.18-2.94,3.75-6.21-1.29-9.9-2.84-19.78-2.66-29.81,.22-12.25,1.8-24.25,6.48-35.68,.65-1.6,.88-3.67,2.98-4.34l-.09-.12c2.49,5.95,8.18,10.15,13.75,9,3.63-.75,3.81,.72,4.24,3.33,2.34,14.45,4.24,29,8.82,42.99,.87,2.67,.78,6.3,4.76,6.62,4.22,.35,9.24-3.26,10.39-7.24,2.12-7.25,2.17-14.78,2.8-22.22,.76-9.05,2.22-17.93,5.18-27.14,5.04,5.64,9.68,11.88,18.27,6.99-5.92-.67-10.01-4.56-14.72-7.53-2.89-1.82-2.52-3.16-1.51-5.38,.77-1.69,1.52-3.39,2.51-5.58,1.94,2.47,3.02,5.08,5.49,6.45,1.92,1.07,3.84,2.2,6.09,2.2,1.81,0,4.42,.29,4.68-1.92,.22-1.9-2.31-1.4-3.69-1.72-4.08-.95-6.92-4.13-10.61-5.77-1.42-.64-.67-1.65-.28-2.29,1.19-1.93,1.79-4.35,4.13-5.44,1.78,1.99,3.03,4.65,6.11,4.99,1.39,.15,3.35,.04,2.74-1.9-.81-2.58-4.1-2.79-5.81-4.88-1-1.21-1.76,1.62-3.1,1.88,1.68-2.55,3.17-6.45,6.29-6.11,3.72,.4,3.11,4.9,3.68,7.72,2.78,13.76,3.21,27.81,4.72,41.73,.8,7.41,1.16,14.91,3.74,22.05,1.41,3.92,3.76,5.69,7.81,4.2,2.57-.95,4.29-.08,6.27,1.55,4.14,3.41,8.73,6.09,14.36,5.96,3.73-.08,6.96-1.27,9.53-6-9.35,4.41-16.35,.55-23.31-3.67-.99-.6-2.08-.85-1.22-2.3,2.5-4.23,3.1-9.47,6.87-13.05,3.49,8.03,13.07,13.04,19.58,9.62-6.13-2.1-11.17-5.35-15.86-9.16-1.26-1.03-2.5-1.05-3.86-.33,3.37-6.38,7.12-12.46,13.27-16.62,.5,4.65,3.46,7.86,8.03,8.71,3.91,.72,6.4-.42,8-3.67-6.31,.83-8.36,.16-12.76-4.37-.88-.91-1.55-2.01-3.05-1.22,2.73-4.7,7.13-7.62,11.48-11.24,1.11,3.77,2.15,7.06,5.75,8.37,1.35,.49,3.09,.75,3.9-.52,1.21-1.9-1.09-2.09-1.98-2.93-.45-.42-1.07-.65-1.53-1.06-1.75-1.52-3.31-3.8-1.95-5.64,1.92-2.59,5.3-2.46,8.16-1.45,2.73,.96,1.85,3.33,1.07,5.16-3.33,7.87-6.79,15.69-10.21,23.52-1.87,4.28-3.69,8.58-4.73,13.16-.21,.91-.46,1.81-.59,2.74-.8,5.59,.92,9.23,5.04,10.82,5.27,2.04,4.83-3.5,7.17-5.36,.61,7.62,6.06,10.98,12.26,13.14,6.98,2.42,13.55,.94,19.99-3.77-1.02-.17-1.35-.33-1.58-.25-11.02,4.04-20.21,1.79-27.3-7.86-.83-1.13-1.83-2.27-3.48-1.13Zm57.93,598.84l.02-.02c1.96-10.22-.46-14-10.17-16.03-.79-.16-1.85,.27-2.44-.94,12.99-7.5,23.53-17.44,30.53-30.77,7.79-14.83,10.96-36.98,5.94-41.51-1.13,35.61-20.19,59.65-49.87,76.88,1.6,1.06,2.43-.81,3.8,.37-1.56,2.34-3.15,4.82-2.4,7.95,1.79,7.57,16.12,13.73,22.5,9.15,3.69-2.65,7.67-3.97,11.77-5.36,25.07-8.54,40.6-28.58,42.49-54.95,.2-2.73,.5-5.56-.68-8.67-.74,.81-1.08,1.01-1.13,1.26-.2,1.07-.32,2.15-.46,3.23-1.94,14.58-7.07,27.78-17.27,38.63-9.1,9.68-19.49,17.43-32.65,20.78Zm-103.09-511.85c-1.93,1.36-3.16,2.3-4.46,3.13-7.73,4.93-18.63,4.65-25.58-.62-6.51-4.94-9.06-14.41-6.3-23.36,3.8-12.32,15.39-18.91,28.3-16.22,2.2,.46,4.32,1.7,6.74,1.22-3.68-21.79-28.05-32.1-46.29-19.81-14.8,9.98-21.27,29.62-15.24,46.27,6.03,16.63,24.78,28.61,42.01,26.83,10.91-1.13,17.96-6.81,20.81-17.45Zm72.59-12.5c.26-19.51-15.22-36.03-34.03-36.32-19.7-.31-35.82,15.93-36.17,36.42-.35,21.09,14.34,37.21,34.1,37.42,20.08,.22,35.82-16.15,36.1-37.52Zm-187.73,426.56c9.47-11.95,18.93-23.91,28.42-35.85,.94-1.18,.85-2.26-.05-3.37-4.31-5.35-8.47-10.9-14.1-14.92-5.62-4.02-10.7-1.67-11.12,5.17-1,16.27-.27,32.66-3.15,48.98Zm430.53-253.22c-.5,3.06,1.24,5.59,1.98,8.32,4.15,15.22,7.1,30.7,10.53,46.08,7.94,35.58,14.24,71.35,12.53,108.04-.61,13.1-1.35,26.19-1.88,39.29-.07,1.77-.84,4.87,1.75,4.97,2.75,.11,3.99-2.38,3.95-5.31-.04-3.12,.2-6.24,.41-9.35,1.82-26.27,.96-52.47-2.87-78.49-4.78-32.44-12.1-64.4-20.29-96.14-1.53-5.93-2.6-12.11-6.11-17.41Zm-401.95,269.64c-1.73-.01-1.92,.98-2.24,1.85-7.42,20.1-5.44,45.66,13.64,62.79,8.89,7.98,19.89,12.15,29.99,17.9,5.25,2.99,11.17,.09,13.23-5.06,1.79-4.47,.19-10.65-3.66-14.11-4.48-4.04-10.48-4.99-15.16-2.42-4.31,2.37-5.85,6.17-5.06,12.43,.02,.19-.32,.42-.49,.63-9.11-4.97-18.86-14.28-24.34-23.38-9.59-15.92-9.81-33.05-5.91-50.62Zm136.58,74.36c-2.06-1.79-4.45-2.35-6.98-2.16-3.4,.25-6.12,1.8-6.86,5.29-.76,3.62,.29,6.86,3.63,8.89,4.13,2.51,10.35,1.38,13-2.64,3.08-4.69,4.01-9.97,1.37-15.09-2.63-5.08-7.5-6.68-12.99-6.71-2.13-.01-3.93,1.23-6.04,2.03-.16-1.3-.2-2.07-.37-2.82-1.13-5.12-4.89-8.25-10.25-8.55-5.19-.29-9.87,2.58-11.4,7.18-1.39,4.15-.29,7.71,3.12,10.42,4.26,3.38,9.8,3.49,14.13-.38,2.68-2.4,5.3-3.26,8.8-3.37,5.97-.18,9.19,1.72,10.83,7.91Zm-40.73,24.77c-3.11-2.54-2.93-5.4-2.77-8.15,.28-4.85-.03-9.65-.8-14.42-.27-1.66-.76-3.34-1.48-4.86-.7-1.48-2.06-2.48-3.83-1.85-1.85,.65-1.31,2.27-1.04,3.58,.82,3.97,1.71,7.95,1.65,12.01-.04,2.75-2.01,5.25-1.33,8.16,1.98,8.47,8.5,12.42,15.81,15.13,5.82,2.16,10.79-.69,14.74-4.71,4.08-4.15,5.42-9.44,3.6-15.1-1.38-4.28-5.69-6.9-10.63-6.99-5.78-.1-10.37,3-12.86,8.4-1.22,2.65-.54,5.45-1.06,8.8Zm-12.85-104.39c-6.6-.05-12.14,4.3-12.28,9.64-.13,4.94,4.67,9.31,11.19,9.6,2.55,.11,3.6,.62,4.43,3.24,1.6,5.04,7.71,7.94,12.89,6.74,4.84-1.11,8.5-5.74,8.29-10.48-.22-5.05-2.97-7.43-9.83-8.2-1.46-.16-1.99-.51-2.47-2-1.91-5.96-5.72-8.49-12.22-8.54Zm37.8-104.53c-3.11,.56-6.65,2.22-9.19-.63-3.96-4.44-7.79-4.13-12.41-1.35-2.83,1.71-5.63,2.11-8.1-1.34-2.56-3.58-6.75-4.93-10.9-5.89-4.13-.96-9.31,2.37-10.18,6.3-.76,3.45,1.72,6.05,6.93,7.03,1.51,.28,3.26,.6,4.62,.12,4.68-1.65,9.69-.74,14.08-1.47,6.71-1.12,12.34,.22,18.63,.8,7.14,.66,14.32,.56,21.33,2.76,1.43,.45,3.09,.05,4.57-.6,2-.88,3.34-2.25,3.66-4.48,.41-2.91,.4-5.91-2.47-7.48-3.6-1.97-7.33-.87-9.84,1.89-2.57,2.85-4.56,3.54-7.56,.94-1.18-1.02-3.06-1.5-4.3-.24-1.42,1.44,1.54,1.97,1.12,3.64Zm-24.09,320.42c-1.01,.93-1.94,1.69-2.75,2.56-3.41,3.7-3.63,8.11-.65,11.85,2.77,3.46,7.01,4.59,10.39,2.76,3.91-2.12,5.79-6.65,3.83-11.25-1.18-2.76,.27-3.5,1.81-4.83,5.97-5.15,7.58-10.04,4.93-15.54-2.53-5.26-7.18-7.69-12.73-8.32-8.52-.97-13.87,5.95-11.22,14.12,1.16,3.56,3.45,6.2,6.37,8.66Zm18.56-399.7c-1.44,.85-2.29,.01-3.25-.9-2.77-2.63-6.22-4.16-9.78-5.28-4.89-1.55-10.4,1.13-11.51,5.3-1.14,4.3,1.8,8.27,7.05,9.87,4.04,1.23,7.97,.68,11.2-1.56,6.76-4.69,13.01-5.97,20.39-.86,3.91,2.71,9.03,2.5,13.07-1.02,2.58-2.25,3.45-5.25,2.02-8.46-1.36-3.06-4.21-3.46-7.15-3.05-2.95,.41-5.94,1.05-8.23,3.04-3.91,3.38-7.6,2.81-11.41-.03-1.4-1.04-3.24-2.3-4.52-.54-1.5,2.06,2.29,1.41,2.1,3.5Zm43.73,365.08c5.72,0,11.14-2.44,14.86-6.71,2.99-3.43,4.07-7.35,2.48-11.7-1.58-4.32-4.85-6.79-9.37-7.45-5.88-.86-11.1,.88-15.67,4.55-4.73,3.8-6.85,9.53-5.32,13.97,1.49,4.31,6.87,7.35,13.01,7.34Zm-63.4-23.91c.21-7.23-6.08-14.8-14.2-17.03-3.94-1.08-7.76-1.06-10.83,2.14-3.01,3.14-3.35,7.02-2.16,10.9,2.1,6.85,6.81,11.43,13.55,13.7,7.58,2.55,13.41-1.71,13.64-9.71Zm.89-287.2c-.11,2.16,4.12,2.29,2.45,4.7-1.13,1.62-3.51,1.81-5.61,1.74-2.01-.06-2.54-1.3-2.8-3.04-.65-4.44-3.94-5.75-7.76-5.82-3.28-.06-5.02,2.27-5.86,5.16-.92,3.2,1.48,4.34,3.73,5.6,2.63,1.48,5.66-.79,7.66,.19,6.3,3.08,11.2-.18,16.25-2.69,2.38-1.18,3.96-.9,5.89,.63,2.34,1.85,5.47,4.22,8.02,2.67,4.86-2.96,8.38-.79,12.47,1.23,3.6,1.78,7.11,1.02,9.54-2.38,1.47-2.06,2.61-4.42,.66-6.88-1.91-2.41-4.27-3.57-7.4-2.37-2.22,.85-4.51,1.78-5.6,3.96-1.53,3.04-3.08,2.32-4.97,.53-1.39-1.32-2.73-3-4.98-1.71,.07,1.78,3.26,2,1.66,3.89-1.22,1.44-3.16,1.1-4.82,.47-1.52-.58-2.44-1.9-3.34-3.18-.82-1.17-1.85-2.73-3.32-1.86-3.2,1.91-5.77,1.02-8.52-.86-.89-.61-2.29-1.04-3.37,.04Zm-53.31,282.45c-7.2-.05-13.19,5.19-13.36,11.7-.18,6.91,6.45,13.08,14.23,13.23,7.49,.15,13.65-5.26,13.55-11.89-.1-7.08-6.64-12.98-14.43-13.03Zm28.55,20.18c-6.24-.1-11.51,4.59-11.64,10.36-.15,6.86,7.56,14.26,15.15,14.53,6.46,.23,12.45-5.25,12.42-11.38-.03-6.86-7.71-13.38-15.93-13.51Zm100.73-44.76c.03-6.57-6.27-12.5-13.23-12.45-8.01,.06-14.36,5.79-14.36,12.96,0,7.41,5.54,13.19,12.79,13.34,7.73,.16,14.76-6.42,14.79-13.85Zm-63.49-6.04c-5.15,.02-10.38,2.63-13.31,6.66-4.22,5.8-2.73,12.45,3.68,15.7,5.71,2.9,11.2,1.95,16.3-1.62,4.76-3.34,7.1-8.92,5.73-13.3-1.36-4.35-6.54-7.47-12.4-7.44Zm41.33,108.53c7.32,.11,13.44-6.04,11.78-12.97-1.02-4.26-.4-7.61,.97-11.47,1.92-5.43-.9-10.46-5.69-11.38-4.63-.89-9.85,2.86-10.13,8.07-.17,3.15-1.56,4.58-3.81,6.23-4.32,3.18-5.72,8.47-3.97,13.36,1.81,5.07,5.82,8.08,10.84,8.16Zm-16.28-424.68c4.32,.02,7.71-.84,8.57-4.57,.86-3.73-2.09-5.68-5.21-6.6-3.52-1.04-8.01-1.55-9.21,2.63-1.27,4.39-3.43,3.47-5.58,2.04-3.24-2.16-5.75-2.17-8.66,.51-2.64,2.44-5.63,2.39-8.33-.23-1.72-1.67-3.8-2.66-6.11-3.24-3.17-.8-5.82-.04-6.67,3.26-.87,3.42,1.32,5.59,4.45,5.82,5.98,.44,12.12,.83,17.72-1.96,2.44-1.21,4.56-1.34,7.12-.58,4.16,1.24,8.43,2.1,11.91,2.93Zm72.8,343.7c-.08-7.15-6.26-12.74-14.01-12.66-7.09,.07-13.03,5.35-12.93,11.5,.1,6.27,7.5,12.66,14.59,12.59,6.85-.06,12.41-5.21,12.35-11.42Zm-62.29-89.12c2.35-.05,4.74,.02,6.58-1.81,1.11-1.1,2.5-2.43,1.79-4.01-.86-1.9-2.5-.3-3.68-.06-3.75,.78-7.42,1.42-10.69-1.35-1.1-.93-2.11-2.06-1.58-3.62,.46-1.38,1.85-1.49,3.11-1.66,2.47-.33,5.02-.37,7.38-1.08,4.33-1.29,5.86-4.21,5.02-8.67-.84-4.5-5.14-7.41-10.67-7.13-4.05,.2-7.52,2.14-7.36,6.27,.15,3.9-.29,6.88-2.45,10.31-2.07,3.29-.15,7,3,9.41,2.78,2.14,5.98,3.35,9.55,3.38Zm-3.9,122.52c-.1-6.29-5.4-11.12-12.13-11.04-7.83,.09-14.08,6.87-13.98,15.18,.07,6.36,5.01,10.98,11.6,10.86,7.54-.14,14.63-7.47,14.51-15.01Zm-127.48-83.06c-29.16-10.96-47.81-29.98-47.89-63.22-11.28,25.42,16.6,61.81,47.89,63.22Zm55.47-51.02c7.54,0,14.43-6.11,14.59-12.95,.13-5.48-5.58-10.32-12.18-10.31-7.6,0-14.5,6.51-14.4,13.57,.08,5.68,5.03,9.68,11.98,9.68Zm-22.8,100.74c6.39,0,10.95-4.6,10.85-10.93-.11-7.01-7.11-13.82-14.03-13.64-5.96,.15-11.36,5.96-11.27,12.12,.1,6.62,6.88,12.46,14.45,12.45Zm143.62-22.29c5.93-.04,10.72-4.85,10.66-10.71-.07-6.99-6.03-12.36-13.71-12.35-6.97,0-12.46,4.79-12.3,10.72,.16,6.19,7.87,12.39,15.35,12.34Zm-73.43-77.71c7.65-.1,14.06-6.37,13.85-13.55-.17-5.71-5.92-10.64-12.21-10.47-7.09,.19-13.61,6.41-13.56,12.94,.05,6.49,5.09,11.17,11.91,11.09Zm-33.62,47.61c.07-8.24-8.29-15.54-17.02-14.87-6.58,.5-10.19,6.02-8.04,12.26,2.1,6.08,9.15,11.28,15.66,11.55,6.02,.25,9.35-2.91,9.4-8.94Zm50.26,66.14c6.28,.16,11.07-4.34,11.27-10.58,.2-6.42-5.43-12.08-12.18-12.26-6.75-.17-13.37,5.2-13.6,11.01-.23,5.93,6.77,11.63,14.51,11.82Zm-58.58-28.25c6.54,.01,12.01-5.31,12.04-11.71,.03-6.1-5.57-11.22-12.4-11.35-6.77-.13-12.88,5.24-13.02,11.43-.13,6.07,6.25,11.62,13.38,11.63Zm41.07-302.32c1.13,1.71,2.82,2.27,4.24,3.17,.66,.42,1.75,1.03,1.2,1.62-2.13,2.29-5.01,3.05-8.07,3.08-2.65,.03-3.75-1.09-3.88-3.97-.18-3.93-4.87-6.67-9.5-6.05-3.8,.51-7.76,4.43-7.39,7.32,.38,2.99,5.23,5.57,9.52,5.04,.77-.1,1.56-.24,2.28-.51,.94-.36,1.77-.42,2.67,.11,5.9,3.48,11.52,1.91,16.63-1.53,2.52-1.69,4.67-2.16,7.31-1.01,2.66,1.16,5.42,1.56,8.24,.86,3.14-.78,4.91-2.69,4.35-6.11-.57-3.44-2.79-4.66-6.09-4.23-2.37,.3-4.65,1.04-6.37,2.68-1.74,1.65-3.07,1.81-5.25,.56-2.93-1.68-6.25-2.63-9.88-1.02Zm-81.57,212.34c-.04,6.38,4.93,11.85,10.76,11.82,6.38-.03,11.67-5.18,11.76-11.48,.1-6.48-5.33-12.13-11.65-12.14-5.83,0-10.82,5.41-10.86,11.79Zm78.36-255.45c2.14-.61,4.25-.85,5.98-1.79,2.81-1.52,5.29-1.73,8.42-.66,3.33,1.13,7.01,1.36,10.56,1.68,3.94,.36,6.79-2.11,7.02-5.86,.19-3.01-.46-5.65-3.8-6.69-3.61-1.12-8.21,.64-9.92,4.3-1.96,4.18-4.09,4.54-7.42,1.45-2.04-1.9-4.03-1.69-4.69,0-1.54,3.91-6.95,4.91-9.25,1.45-1.96-2.96-4.59-3.64-7.64-3.38-3.38,.29-6.33,1.57-5.83,5.71,.48,4,3.52,5.18,6.9,4.31,3.29-.84,6.36-2.44,9.67-.52Zm72.6,256.85c.06-6.6-5.46-12.62-11.73-12.81-5.97-.18-11.63,5.06-11.82,10.93-.19,6.1,6.72,12.52,13.36,12.42,5.83-.09,10.13-4.54,10.19-10.54Zm-122.66-30.71c-.07-6.81-5.46-12.58-11.82-12.67-5.89-.08-10.9,5.01-10.94,11.11-.04,6.46,6.11,12.02,13.11,11.86,5.88-.14,9.72-4.23,9.65-10.29Zm106.51-3.85c-.03-6.34-4.27-10.56-10.55-10.51-6.48,.05-12.84,5.28-12.85,10.55,0,5.52,6.47,11.43,12.64,11.53,6.13,.1,10.78-4.9,10.75-11.56Zm-27.14,103.01c.09-6.43-5.2-11.39-11.81-11.07-6.34,.31-12.4,7.01-11.64,12.86,.26,2,1.05,4.04,3.2,3.96,2.9-.1,.91-2.62,1.35-4,.18-.58,.02-1.26,.18-1.85,.91-3.38,3.28-5.25,6.6-5.78,2.76-.44,5.03,.81,6.11,3.3,1.37,3.15,.64,6.13-1.97,8.47-2.57,2.3-5.55,2.62-8.72,1.43-1.51-.57-3.25-1.27-4.06,.58-.67,1.53,1.17,2.37,2.11,3.26,1.93,1.82,4.4,2.22,6.96,1.93,6.48-.72,11.59-6.46,11.68-13.09ZM230.47,175.78c.03,6.27,3.86,11.3,8.67,11.41,5.35,.12,10.6-6.09,10.68-12.64,.08-6.4-3.84-10.73-9.69-10.68-5.75,.05-9.7,4.91-9.67,11.91Zm144.33,262.54c-.23,2.48,3.97,2.96,2.14,5.09-1.13,1.32-3.72,1.72-5.4-.36-.57-.7-.73-2.56-2.16-.86-.98,1.17-1.47,2.5,.14,3.6,2.26,1.55,4.75,1.43,7.19,.61,1.83-.62,3.56-1.32,5.22,.29,3.48,3.37,7.32,2.96,11.2,.93,2.58-1.34,4.9-1.71,7.24,.49,.76,.72,1.87,1.41,2.87,1.47,5.36,.32,10.7-.15,16.12,.74,3.31,.54,6.77-4.52,6-7.55-1.02-4.02-4.18-4.08-7.48-3.64-2.51,.34-4.91,1.18-6.99,2.54-1.34,.87-6.18-.63-2.99,4.1,.84,1.25-1.74,1.44-2.65,1.07-2.72-1.1-5.34-2.47-7.94-3.86-3.42-1.82-3.37-1.86-4.95,.96-.2,.37-.68,.68-1.09,.81-3.04,.99-6,1.92-8.34-1.53-1.91-2.81-4.87-4.04-8.13-4.92Zm-48.38,248.65c-5.96,.08-10.71,5.51-10.54,12.04,.16,6,4.33,10.17,10.05,10.04,5.83-.13,11.38-5.75,11.41-11.57,.03-5.76-5-10.61-10.93-10.52Zm18.54-128.56c5.72,.05,10.05-4.04,10-9.43-.06-6.35-5.72-12.16-11.82-12.16-5.52,0-10.24,4.51-10.4,9.91-.17,5.93,5.79,11.63,12.22,11.68Zm85.96-58.82c-19.61,7.21-39.48,8.69-59.79,4.32-6.7-1.44-13.33-3.13-19.79-5.47-1.03-.37-2.64-1.41-3.23,.26-.55,1.56,1.34,1.77,2.32,2.37,.66,.4,1.41,.65,2.14,.93,18.05,7,36.56,10.16,55.84,6.49,8.07-1.54,15.9-3.8,22.51-8.9ZM196.83,174.68c-.03,7.25,3.39,10.89,7.97,9.27,5.02-1.77,10.18-9.37,9.97-14.73-.12-3.18-1.26-5.82-4.33-7.16-3.03-1.32-5.78-.57-8.26,1.46-3.78,3.1-5.15,7.27-5.35,11.15Zm140.49,412.63c5.1,.33,9.07-3.21,9.33-8.3,.3-6.05-4.64-11.84-10.49-12.28-5.3-.4-10.28,3.79-10.65,8.96-.4,5.52,5.38,11.2,11.82,11.62Zm103.62-3.35c5.56-.07,8.95-3.28,8.99-8.54,.05-6.13-5.65-12.24-11.27-12.08-5.77,.16-10.45,5-10.24,10.6,.21,5.64,5.78,10.11,12.52,10.03Zm-84.61,64.29c-5.89,0-11.14,4.88-11.21,10.4-.06,5.35,5.01,10.1,10.81,10.13,5.83,.02,11.39-5.41,11.24-10.99-.14-5.16-5.12-9.54-10.85-9.54Zm85.19-102.44c-.12-6.26-5.61-12.3-11.18-12.3-5.53,0-10.37,4.42-10.28,9.39,.09,5.52,7.11,11.75,13.19,11.7,4.89-.04,8.37-3.73,8.27-8.78Zm-43.5,36.2c.06-6.61-5.26-12.68-11.12-12.67-5.12,0-9.14,3.7-9.25,8.52-.14,6.11,6.04,12.39,12.18,12.37,4.82-.02,8.15-3.35,8.2-8.21Zm13.9-14.57c-5.83,.08-10.92,4.51-10.79,9.39,.14,5.15,7.26,10.57,13.6,10.36,4.45-.15,7.88-3.9,7.93-8.69,.06-6.11-4.82-11.14-10.74-11.06Zm-39.36,4.11c-.09-5.82-4.22-9.43-10.58-9.22-5.75,.19-10.35,4.39-10.29,9.4,.06,5.75,4.76,10.25,10.6,10.17,6.13-.08,10.36-4.35,10.27-10.35Zm56.46,117.62c-.25,5.81,2.85,9.53,8.18,9.8,6.35,.33,11.32-3.97,11.7-10.12,.33-5.28-4.38-10.22-9.85-10.34-5.56-.12-9.76,4.34-10.03,10.65Zm-69.79-165.08c-.08-5.98-4.86-10.77-10.7-10.74-5.28,.03-9.32,3.95-9.33,9.06-.01,5.88,5.55,11.36,11.49,11.31,5.18-.05,8.62-3.92,8.55-9.62Zm112.69,266.6c-6.47,.12-13.37,7.6-13.35,14.47,.01,5.31,4.62,9.57,10.11,9.34,7.64-.32,14.24-6.6,14.15-13.45-.08-5.91-4.89-10.47-10.91-10.36Zm-85.75-261.98c.1-5.89-4.3-10.9-9.76-11.11-4.97-.19-9.69,3.95-9.86,8.66-.18,4.92,5.96,10.06,12.07,10.1,4.58,.04,7.47-2.89,7.55-7.65Zm-35.04,285.35c6.04,.08,11.09-4.54,11.19-10.22,.11-6.18-5.49-11.22-12.45-11.2-6.28,.02-11.46,4.21-11.43,9.25,.04,5.71,6.69,12.09,12.68,12.17Zm24.6-252.82c4.76,.03,7.59-2.7,7.64-7.41,.07-5.78-4.8-11.25-10.15-11.39-4.59-.12-8.88,3.84-8.99,8.3-.14,5.49,5.3,10.45,11.5,10.5Zm-.38,67.95c-5.45,.11-10.03,5.21-9.87,10.99,.13,4.96,3.86,8.46,8.81,8.29,5.67-.2,10.33-4.77,10.25-10.08-.07-5.26-4.1-9.3-9.2-9.19Zm25.18,130.6c0-5.06-4.12-9.21-9.14-9.19-5.09,.02-9.16,4.84-9.2,10.91-.04,5.18,3.31,9.15,7.8,9.24,5.39,.1,10.54-5.25,10.54-10.95Zm-9.01-208.46c-.07,5.31,3.57,8.73,9.34,8.78,5.27,.04,9.47-3.83,9.56-8.84,.1-5.25-4.51-9.9-9.79-9.88-4.97,.02-9.04,4.46-9.11,9.94Zm85.73,225.4c6.36-.05,11.1-4.19,11-9.59-.1-5.51-5.5-9.91-12.07-9.83-6.22,.07-11.27,4.41-11.16,9.59,.12,5.22,5.92,9.89,12.23,9.84Zm-74.88-241.06c5.35,.01,9.67-3.55,9.74-8.03,.08-4.88-5.19-9.51-10.81-9.49-4.82,.02-9.05,4.04-9.21,8.75-.15,4.45,4.9,8.75,10.28,8.77Zm-5.76,64.81c-.1,5.08,2.78,8.51,7.2,8.58,5.19,.07,9.89-4.46,10.08-9.73,.18-5.03-2.94-8.63-7.65-8.82-5.17-.21-9.52,4.3-9.63,9.98Zm57.22,238.37c6.47,.12,11.87-4.41,11.9-9.96,.03-5.46-4.43-9.75-10.27-9.9-5.84-.15-10.76,4.71-10.72,10.59,.04,5.2,3.94,9.18,9.09,9.27Zm-24.26-315.34c4.66,.11,7.92-2.84,7.96-7.2,.04-4.7-4.06-9.26-8.5-9.45-5.09-.22-10.23,3.8-10.33,8.07-.11,4.61,4.73,8.43,10.87,8.58Zm-24.1,278.15c-4.96,.1-10.63,6.91-10.42,12.53,.18,4.94,4.68,9.27,9.46,9.11,5.35-.18,10.33-6.29,10.25-12.57-.07-5.21-4.12-9.17-9.28-9.07ZM271.85,148.67c.03-1.33-.38-2.52-1.37-3.36-2.77-2.34-5.82-1.95-8.7-.4-3.14,1.69-6.36,3.54-6.5,7.74-.03,.79,.59,1.81,1.22,2.39,2.96,2.74,6.31,2.09,9.57,.71,3.13-1.32,5.7-3.22,5.77-7.08Zm89.38,671.4c-5.49,.12-9.68,4.19-9.7,9.4-.01,4.38,3.69,7.92,8.19,7.83,5.46-.1,11.18-5.35,11.09-10.19-.07-3.89-4.52-7.16-9.58-7.05ZM443.47,206.72c.25-3.66-.1-4.19-2-4.89-1.66-.61-2.37,.11-2.61,1.57-1.51,9.09-5.96,16.61-12.29,23.13-1.18,1.22-.68,2.15,.22,3.21,1.09,1.28,2.02,1.03,3.12,0,6.94-6.6,11.96-14.28,13.57-23.02Zm-21.58,621.25c-5.07,.11-9.63,5.4-9.41,10.92,.15,3.74,2.95,6.38,6.7,6.32,5.35-.09,10.7-5.03,10.7-9.89,0-4.28-3.44-7.45-7.98-7.35ZM306.19,78.6c-8.99,8.45-14.04,9.25-24.18,4.45-1.26-.6-2.48-1.29-3.74-1.9-.97-.46-2.18-1.15-2.97-.08-.79,1.08,.33,1.99,.99,2.8,4.57,5.62,16.26,8.22,22.7,4.91,3.74-1.92,6.99-4.42,7.21-10.18Zm-4.12-26.41c-4.42,2.99-8.17,3.63-12.08,2.99-5-.82-8.7-3.88-12.22-7.23-.76-.72-1.7-1.8-2.78-1.05-1.09,.76-.37,1.99,.07,2.96,3.1,6.69,13.55,11.5,20.58,9.4,2.82-.84,5.56-1.94,6.43-7.07Zm24.45,17.17c.52,6.22,6.26,11.31,13.9,13.14,6.44,1.54,11.62,.06,14.62-4.71-11.62,4.31-20.05-1.59-28.52-8.44Zm170.35,40.26c-2.07-5.1-4.01-9.93-4.95-15.13-.95-5.28-.7-10.61-.94-16.4-6.93,8.26-3.13,28.09,5.89,31.54Zm-142.04,149.92c-.48,3.07,.94,4.15,3.99,3.51,2.59-.54,5.18-1.1,7.79-1.47,3.41-.47,2.45-2.95,2.45-5,0-2.73-1.82-2.33-3.6-2.04-2.61,.42-5.22,.91-7.85,1.14-2.47,.22-3.26,1.45-2.79,3.85Zm-53.87-192.32c-8.79,2.67-15.67-.51-22.42-4.27-.68-.38-1.4-.76-2.14-.91-.71-.15-1.79-.31-2.17,.07-.83,.84-.07,1.79,.61,2.35,5.51,4.5,11.29,8.44,18.91,7.81,2.89-.24,5.33-1.28,7.21-5.05Zm155.93,727.99c4.41-.14,9.11-5.49,8.96-10.22-.13-3.95-2.63-6.36-6.49-6.24-4.65,.14-8.57,4.83-8.33,9.97,.18,3.81,2.69,6.59,5.86,6.5ZM509.14,70.03c-4.69,6.87,.54,26.05,7.99,30.65-3.55-10.08-6.19-19.89-7.99-30.65Zm-155.82-22.48c-10.12,.62-16.36-5.51-22.31-13-.51,6.37,3.7,11.93,10.43,14.6,4.05,1.6,8.16,2.6,11.88-1.6Zm142.48,79.52c-2.03,10.77,11.01,25.18,20.75,22.94-9.14-5.74-17.17-11.98-20.75-22.94Zm124.74,342.21c.1-2.83-.81-5.02-3.94-5.35-2.9-.31-5.91,3.72-5.92,7.79-.01,2.81,.95,5.01,4.18,5.07,2.9,.06,5.62-3.66,5.68-7.51ZM456.21,62.02c-10.25-.36-13.83-7.24-16.73-14.99-2.85,4.22-1.93,8.78,2.21,13.1,4.57,4.77,8.74,5.55,14.52,1.88Zm-81.23,193.9c-.71,3.49,.97,4.14,4.21,2.9,2.03-.77,4.1-1.48,6.21-1.97,3.8-.88,2.78-3.48,2.19-5.85-.83-3.3-2.94-1.08-4.44-.8-1.82,.33-3.54,1.21-5.36,1.56-2.24,.43-3.34,1.49-2.81,4.16ZM299.74,37.66c-7,2.64-12.68,2.99-17.91-1.07-.97-.75-2.07-1.37-3.19-1.89-.48-.22-1.3-.24-1.7,.03-.78,.53-.51,1.48-.09,2.09,2.68,3.88,6.28,6.51,11.02,7.05,4.58,.52,8.53-.76,11.88-6.21Zm-4.84,217.06c.15-1.24-.88-1.55-2.03-1.7-6.06-.79-11.86-2.67-17.71-4.33-.89-.25-1.96-.85-2.52,.19-.77,1.42,.66,1.88,1.53,2.34,5.52,2.96,11.37,5.06,17.39,6.77,3.07,.87,2.96-1.16,3.33-3.26Zm6.57-.09c-1.76-.43-2.81,.4-3.16,2.57-.34,2.13,.79,2.76,2.5,3.11,2.75,.56,5.48,1.19,8.23,1.73,2.17,.42,3.82,.42,4.2-2.64,.38-3.1-.86-3.78-3.52-3.89-2.64-.11-5.27-.55-8.26-.88Zm25.53-201.46c-.3,6.33,3.44,8.98,7.09,11.34,3.77,2.45,7.93,4.01,12.59,.78q-10.25-3.51-19.68-12.12Zm15.82,211.11c2.92-.29,6.21,.94,5.97-4.17-.29-6.27-4.59-2.77-7.08-3.35-3.59-.83-4.38,1.26-4.34,4.54,.07,4.94,3.6,2.37,5.45,2.98Zm80.3-29.06c-.74-1.41-.61-4.4-3.77-2.5-2.92,1.75-5.69,3.75-8.55,5.6-2.24,1.46-.7,2.96-.06,4.41,.86,1.93,2.15,1.29,3.37,.42,2.52-1.8,5.02-3.62,7.5-5.48,.73-.55,1.51-1.13,1.51-2.44Zm-98.55,21.31c-2.53,.45-6.2-1.49-5.99,3.5,.25,5.91,4.96,3.03,7.67,3.87,3.19,1,3.84-1.14,4.03-3.88,.37-5.33-3.74-2.58-5.71-3.5Zm81.15-9.47c-.9-1.29-.38-3.75-2.76-4.19-1.65-.3-9.47,4.34-9.04,5.2,.77,1.55,.16,3.99,2.56,4.52,1.74,.38,9.15-4.01,9.24-5.54Zm-6.88-186.3c2.1-.02,3.62,0,4.4-1.39,.5-.9-.38-1.4-1.16-1.54-5.04-.89-9.11-3.73-13.28-6.41-.85-.55-1.92-1.42-2.85-.16-.82,1.11-.04,2.13,.68,2.89,3.52,3.68,7.67,6.21,12.2,6.61Zm68.22,41.06c1.83,10,11.75,17.14,20.23,14.12-9.23-1.66-14.22-8.13-20.23-14.12Zm140.52,393.97c-.06-2.54-.83-4.81-3.57-4.55-3.39,.33-4.31,3.14-4.4,6.14-.07,2.4,.68,4.73,3.47,4.42,3.31-.36,4.28-3.14,4.51-6.02Zm78.66-1.65c-.09-2.6-.84-4.78-3.55-4.76-3.01,.02-4.25,2.21-4.21,5.03,.04,2.47,.68,4.94,3.72,4.81,3.08-.13,3.81-2.66,4.04-5.08ZM441.64,198.05c4.8,2.63,8.92,3.21,13.17,1.24,1.61-.75,2.89-2.01,2.02-4.08-.9-2.15-2.7-2.02-4.29-1.17-3.16,1.7-6.56,2.7-10.9,4.01Zm-10.56,467.52c-.51,2.9,.63,4.08,3.53,3.97,3.03-.12,4.52-1.18,4.38-4.48-.12-2.77-1.12-3.75-3.92-3.8-3.31-.06-4.63,1.16-4,4.32Zm242.44-146.69c.21,1.98,.29,4.23,2.98,3.83,2.99-.46,4.51-2.66,4.58-5.62,.05-2.09-1-3.9-3.23-3.8-3.41,.15-3.93,2.96-4.33,5.59Zm-283.72,322.72c-.59-2.71-2.54-5.26-.41-7.92,.95-1.19,2.54-.88,3.93-.46,4.22,1.28,5.32,4.64,5.58,8.75,2-4.47,1.06-7.62-3.04-9.73-2.66-1.37-5.91-2.61-8.07,.26-2.51,3.35-1.23,6.65,2.01,9.11Zm196.83-405.48c-.5-2.16-2.51-3.43-3.9-3.28-2.95,.33-3.69,3.45-4.37,5.75-.6,2.03,1.91,3.8,3.26,3.65,3.19-.35,3.19-4.05,5.01-6.13Zm10.51,35.74c.03-3.13-.64-5.24-2.89-5.04-3.23,.3-4,3.08-4.04,5.89-.03,2.03,.71,4.09,3.1,3.71,2.9-.46,3.74-2.93,3.82-4.56Zm31-50.93c-.06-1.9-.13-4.08-2.6-4.15-2.89-.08-3.89,2.21-4.1,4.66-.18,2.14,.47,4.38,2.97,4.39,2.93,.02,3.61-2.39,3.72-4.9Zm-384.18,31.26c-.33-2-1.33-3.97-3.92-4.01-2.5-.04-3.46,1.89-3.36,4.1,.11,2.4,1.48,4.28,3.95,4.37,2.48,.09,3.3-1.85,3.33-4.45Zm429.69,1.23c-.14-2.12-.81-3.91-3.19-3.89-2.65,.03-3.94,1.82-3.93,4.3,.01,2.16,.8,4.22,3.43,4.13,2.76-.1,3.42-2.29,3.69-4.55ZM541.58,85.94c-1.41-7.38-.94-13.65,.06-20.19-5.13,5.74-5.43,14.42-.06,20.19Zm-312.88,58.05c2.39-.69,4.65-1.81,4.76-4.77,.08-2.23-1.67-2.83-3.56-2.56-2.59,.37-5,1.35-4.96,4.46,.03,2.02,1.72,2.75,3.76,2.87Zm437.61,334.19c.1,1.6,.63,3.54,2.95,3.62,2.79,.09,4.2-1.83,4.39-4.43,.17-2.34-1.06-4.04-3.49-3.98-2.6,.06-3.69,1.93-3.85,4.79Zm-427.18,45.1c-.22-2.13-.91-4.49-3.7-4.75-2.34-.22-3.07,1.7-3,3.75,.09,2.44,.71,4.79,3.61,5.05,2.47,.22,2.9-1.75,3.08-4.05ZM463.96,134.32c-.24-2.06-1.4-3.61-3.77-3.67-2.34-.06-3.81,1.28-3.84,3.68-.03,2.34,1.3,3.9,3.63,3.95,2.28,.04,3.68-1.35,3.97-3.96Zm23.86,53.95c2.27-.31,3.46-1.73,3.24-4.07-.22-2.27-1.6-3.73-3.95-3.66-2.32,.07-3.75,1.42-3.67,3.83,.09,2.63,1.77,3.74,4.38,3.91Zm107.44,230.05c1.99-1.69,3.79-3.82,4.15-6.31,.25-1.71-2.5-2.79-3.72-2.55-2.43,.47-3.32,3.17-3.79,5.26-.39,1.71,1.53,2.77,3.37,3.61Zm-322.23,70.76c.08-2.7-1.03-4.41-3.62-4.67-2.31-.23-3.41,1.23-3.51,3.38-.12,2.49,.99,4.31,3.59,4.54,2.24,.19,3.31-1.28,3.54-3.25Zm294.84-23.47c.42-.12,1.05-.11,1.27-.4,1.66-2.23,3.37-4.54,3.58-7.39,.09-1.2-1.5-1.54-2.52-1.59-3.03-.16-2.74,2.89-4.01,4.44-.38,.47-.57,1.1-.82,1.67-1.06,2.5,.62,2.93,2.5,3.27ZM347.91,144.88c-.05-2.26-1.26-3.5-3.39-3.6-2.28-.1-3.9,1.05-4.12,3.41-.23,2.42,1.19,3.83,3.52,3.86,2.3,.02,3.56-1.48,3.99-3.67Zm272.19,238.03c1.97-1.65,4.26-3.28,4.62-6,.2-1.5-1.67-3.35-2.99-2.95-2.55,.78-4.13,3.31-4.92,5.7-.48,1.43,1.72,2.29,3.3,3.25Zm43.18,135.76c-.18-1.94-.84-3.53-3-3.51-2.52,.02-4.03,1.51-4.36,3.98-.26,1.9,.35,3.57,2.55,3.65,2.76,.11,4.13-1.72,4.81-4.13Zm-55.18-62.43c2.26-.88,3.92-2.37,3.93-5.03,0-1.93-1.05-3.47-3.08-3.29-2.57,.23-3.57,2.21-3.64,4.6-.05,1.84,.53,3.35,2.79,3.71Zm-381.31,38.45c-1.82,.32-2.93,1.47-2.96,3.39-.04,2.36,1,4.38,3.43,4.77,2.04,.33,3.05-1.37,3.11-3.2,.08-2.37-1.13-4.06-3.58-4.95Zm34.34-18.26c2.22-.2,3.38-1.35,3.53-3.58,.15-2.22-.79-3.7-2.98-3.98-2.19-.28-3.62,.86-3.77,3.11-.15,2.29,.94,3.85,3.22,4.45Zm345.74-75.47c-.81-1.94-2.43-3.73-3.73-3.29-2.17,.74-3.25,3.34-3.6,5.51-.24,1.49,1.85,2.9,3.23,2.64,2.47-.48,2.69-3.33,4.1-4.86Zm75.33,62.58c.12,2.11,.75,3.99,3.16,3.78,2.24-.19,2.93-2.11,2.93-4.11,0-2.01-.68-4-2.97-3.99-2.64,.01-2.91,2.3-3.12,4.32Zm-66.3-74.77c-.65-1.72-2.25-2.99-3.44-2.8-2.44,.39-3.8,2.73-4.2,4.93-.29,1.6,1.28,3.83,2.93,3.32,2.34-.73,3.34-3.42,4.71-5.45Zm-429.06,18.76c-1.72,.13-2.87,1.08-2.89,2.88-.03,2.43,1.13,4.22,3.66,4.61,1.99,.3,2.79-1.01,2.88-2.79,.13-2.52-1.04-4.11-3.65-4.71Zm74.17,47.48c-.06-2.16-.92-3.8-3.16-3.84-2.58-.04-3.32,1.98-3.37,4.1-.04,1.85,.91,3.44,2.9,3.54,2.5,.13,3.41-1.64,3.63-3.81Zm-155.35-16.31c.21-2.02,.67-3.79-2.07-3.85-2.74-.06-3.47,1.4-3.22,3.78,.17,1.63-.97,3.88,2.2,4,3.31,.13,3.21-2.01,3.09-3.92ZM468.03,22.89c-1.07-.23-1.43,.28-1.53,.92-.32,1.94,.76,3.23,2.17,4.31,1.75,1.34,3.63,2.61,5.92,2.04,1.05-.26,1.05-1.8,.37-2.34-2.28-1.82-4.75-3.4-6.94-4.92Zm160.05,425.25c2.32-.33,3.72-1.61,3.87-3.9,.14-2.06-1.06-3.2-3.1-3.13-2.32,.08-3.74,1.38-3.82,3.75-.07,2.01,1.07,3.1,3.04,3.29Zm114.61,10.08c-.09-2.44-.85-4.29-3.44-4.18-2.13,.09-2.7,1.8-2.68,3.64,.02,2.25,1,4.11,3.34,4.27,2.58,.17,2.65-2.03,2.78-3.73Zm-122.55,37.29c-1.84,.55-3.2,1.71-3.02,3.89,.15,1.84,1.14,3.44,3.21,3.15,2.01-.29,3.26-1.84,3.29-3.91,.03-2.06-1.38-2.94-3.48-3.13Zm52,40.55c.07-2.43-.96-3.73-2.97-3.65-2.15,.08-3.3,1.65-3.42,3.69-.11,1.81,.53,3.62,2.69,3.56,2.3-.07,3.42-1.76,3.7-3.6Zm-76.74-90.26c-2.04,.47-3.21,1.93-3.28,4.17-.06,1.78,.41,3.75,2.5,3.76,2.34,0,3.35-1.89,3.55-4.09,.18-1.91-.48-3.31-2.77-3.84Zm-10.05,47c-.19-1.97-.88-3.76-3.22-3.74-2.08,.01-2.91,1.61-2.9,3.51,.01,2.04,.78,3.83,3.13,3.8,2.05-.03,2.82-1.62,2.99-3.57Zm70,45.7c-.15-1.6-1.13-2.89-3.23-2.61-2.15,.29-3.24,1.89-3.16,3.94,.07,1.92,1.32,3.25,3.34,3.04,2.2-.24,3.06-1.85,3.05-4.36ZM473.33,152.22c-.1-2.02-1.21-3.22-3.13-3.32-2.15-.11-3.59,1.14-3.63,3.27-.04,2.2,1.46,3.34,3.59,3.29,1.99-.05,2.97-1.33,3.17-3.25ZM243.8,506.67c-.29-2.29-1.69-3.42-3.81-3.32-1.82,.08-2.81,1.38-2.62,3.2,.22,2.05,1.35,3.69,3.52,3.66,2.05-.02,2.78-1.69,2.91-3.54Zm343.99-85.23c-1.63,1.05-2.5,2.94-2.46,4.53,.05,2.02,2.17,3.07,4.01,2.95,2.04-.14,2.51-2.39,2.5-3.88-.02-2.09-2.21-2.62-4.04-3.6Zm129.29-36.83c-.11-2.29-1.08-4.07-3.51-4.1-1.92-.03-2.5,1.62-2.4,3.32,.12,2.22,.98,4.08,3.5,4.08,1.97,0,2.46-1.57,2.41-3.3Zm-200.8-253.21c-.28,.38-.95,.87-.92,1.32,.25,3.62,.88,7.22,3.64,9.81,1.14,1.07,2.94,.71,4.3-.25,.64-.45,.35-1.14,.03-1.67-.34-.56-.83-.93-1.36-.16-2.63,3.82-2.42,.03-2.77-1.15-.57-1.93-.78-3.97-1.16-5.95-.17-.89-.21-1.92-1.75-1.94Zm-252.04,366.42c-1.95,.09-2.74,1.36-2.89,3.04-.21,2.33,.8,4.01,3.22,4.32,1.92,.25,2.85-.97,2.87-2.82,.03-2.26-.92-3.88-3.2-4.54Zm-158.65-46.97c-.64-1.31,1.22-4.04-2.21-3.91-2.6,.1-2.76,1.83-2.8,3.87-.04,2.15,.35,3.63,2.92,3.71,3.04,.09,1.9-2.08,2.09-3.66Zm90.69-21.98c1.87-.39,2.7-1.6,2.54-3.34-.18-1.99-1.07-3.76-3.29-3.83-1.86-.05-2.68,1.38-2.52,3.17,.17,2.05,1.36,3.36,3.28,4ZM564.35,130.03c-.56-5.27-1.45-8.95-5.36-12.27-.41,5.3,1.22,8.65,5.36,12.27ZM221.46,517.96c-.02-1.02-1.17-2.21-3.04-2.41-1.87-.2-2.89,1-2.78,2.83,.12,2,1,3.75,3.25,3.76,1.83,.02,2.59-1.41,2.58-4.19Zm413.42-160.29c.5,1.55,1.76,3.09,2.85,2.66,1.94-.78,3.45-2.69,3.87-4.81,.21-1.08-1.07-2.54-2.4-2.22-2.22,.53-3.3,2.52-4.31,4.37ZM107.74,473.86c-.56-1.26,.59-3.83-2.37-3.94-1.72-.07-3.21,.4-2.84,2.59,.31,1.82-.22,4.36,2.95,4.23,1.67-.07,2.64-.77,2.26-2.87Zm643.6,18.7c-1.65,.28-2.61,1.31-2.48,3.13,.14,2.04,1.04,3.71,3.31,3.61,1.91-.08,2.38-1.68,2.28-3.37-.11-1.87-.81-3.27-3.11-3.37Zm-531.72-38.81c-.18-1.67-.95-3.17-3.03-3.26-1.64-.07-2.65,1.03-2.66,2.64-.02,2.13,1.07,3.71,3.3,3.74,1.65,.03,2.35-1.3,2.39-3.12Zm428.87-57.52c-1.57,.25-2.67,1.16-2.74,3.02-.06,1.63,.05,3.34,2.19,3.43,2.04,.09,3.19-1.22,3.38-3.15,.18-1.8-.81-2.92-2.83-3.3Zm-542.25,30.26c.29-1.63-.5-2.46-2.57-2.43-3.04,.05-2.21,2.37-2.55,4.01-.4,1.94,.77,2.4,2.38,2.53,3.03,.25,2.52-1.98,2.74-4.12Zm9.63-58.55c2.31-.6,2.62-2.78,3.02-4.59,.42-1.9-1.42-1.6-2.51-1.7-2.59-.25-2.96,1.63-3.17,3.55-.21,1.87,1.25,2.21,2.67,2.74Zm534.77-22.21c-.37-1.45-1.54-2.71-2.47-2.5-2.18,.48-3.38,2.54-4.04,4.48-.35,1.01,1.18,2.69,2.19,2.32,1.95-.72,3.51-2.3,4.32-4.3ZM101.46,462.01c.41,1.04-.82,3.53,2.25,3.63,1.65,.05,2.68-.47,2.5-2.36-.17-1.73,.56-3.88-2.35-4.1-1.78-.13-2.63,.51-2.4,2.83Zm626.25-15.21c1.94-.4,2.6-1.68,2.42-3.41-.21-1.95-1.35-3.21-3.34-3.05-1.67,.13-2.31,1.55-2.13,3.05,.22,1.77,1.04,3.23,3.05,3.42Zm-521.61-7.28c-.23-1.85-1.11-3.26-3.13-3.27-1.78,0-2.92,1.17-2.81,2.93,.11,1.63,1.12,2.88,2.91,3.04,1.86,.16,2.81-.88,3.04-2.71Zm-101.67-25.76c-2.46-.34-2.54,1.27-2.68,2.87-.2,2.23,.91,2.91,3,2.99,2.26,.09,2.36-1.21,2.52-2.88,.22-2.34-1.04-2.96-2.84-2.98Zm565.56,88.37c-.3-1.68-1.23-2.9-3.07-2.82-1.93,.08-2.61,1.57-2.59,3.26,.03,1.81,1.02,3.04,2.92,2.84,1.75-.19,2.71-1.38,2.74-3.28ZM473.66,86.97c-3.07,3.92-2.62,6.91,1.76,11.61-.64-4.2-1.17-7.69-1.76-11.61Zm-20.75,30.28c-1.7,.14-2.96,1.01-2.98,2.78-.02,1.87,1.05,3.28,3.03,3.31,1.82,.03,2.72-1.3,2.79-3,.08-1.84-1.17-2.67-2.85-3.09Zm112.38,355.35c.02-1.61-1.06-2.27-2.09-2.15-2.76,.32-2.76,3.01-3.51,4.88-.56,1.39,.89,2.12,1.88,1.94,2.56-.46,2.6-3.12,3.72-4.68Zm-324.22-33.77c-.17-1.7-.93-3.08-2.77-3.07-1.77,0-2.88,1.19-2.8,3.01,.07,1.66,.86,3.15,2.73,3.12,1.75-.03,2.73-1.24,2.85-3.06Zm-27.25,42.39c-.45-1.26-1-2.76-2.9-2.8-1.93-.03-2.74,1.24-2.68,3.01,.05,1.53,.86,2.71,2.49,2.82,1.84,.13,2.79-.98,3.09-3.03Zm15.69,.61c-.25-1.48-.98-2.8-2.78-3.03-1.74-.22-2.52,.94-2.69,2.49-.19,1.76,.55,3.21,2.32,3.47,1.82,.27,2.78-.99,3.15-2.93Zm426.94,215.39c.07-1.64-.75-2.72-2.36-2.79-1.9-.08-2.73,1.28-2.8,2.99-.06,1.56,.76,2.87,2.34,2.92,1.88,.07,2.5-1.49,2.82-3.13ZM215.72,468.02c-.42-1.86-1.57-3.28-3.62-3.47-1.55-.15-2.13,1.13-2.04,2.47,.14,2.08,1.28,3.56,3.42,3.64,1.38,.05,2.09-1.11,2.24-2.64Zm417.2-101.87c-.91-1.19-2.14-2.39-3.38-2.03-1.54,.45-2.95,1.92-2.8,3.72,.1,1.13,1.26,2.49,2.53,2.31,2.03-.29,2.54-2.36,3.64-4ZM108.18,406.27c.15-1.27-.32-2.53-2.37-2.65-2.64-.15-2.21,1.95-2.57,3.47-.53,2.24,.98,2.56,2.6,2.71,2.39,.23,2.18-1.53,2.33-3.53Zm568.04,252.3c-1.75,.26-2.43,1.37-2.35,2.96,.1,1.84,1.14,2.94,3.01,2.79,1.6-.13,2.57-1.21,2.42-2.85-.16-1.79-1.35-2.71-3.07-2.89Zm-47.31-177.9c-.07-1.67-.85-2.76-2.46-2.82-1.86-.07-2.75,1.2-2.88,2.89-.12,1.58,.65,2.73,2.34,2.7,1.75-.03,2.74-1.11,3-2.78Zm53.43-165.81c-3.46,.64-5.52,2.49-7.71,4.06-.76,.55-.78,1.33-.2,2.02,.55,.65,1.44,.98,2.05,.34,1.83-1.89,4.7-2.84,5.86-6.43ZM111.25,494.38c-.86-1.02,.67-3.57-1.9-3.81-1.39-.13-2.93,.47-2.61,2.39,.25,1.56-.04,3.72,2.38,3.86,1.29,.08,2.48-.47,2.13-2.44Zm467.24-46.27c-.83-1.2-2.04-2.34-3.38-2.03-1.87,.43-2.32,2.48-2.41,4.08-.07,1.3,1.31,2.3,2.62,1.89,1.73-.54,2.34-2.33,3.16-3.94Zm96.98-19.18c1.76-.2,2.28-1.44,2.35-2.91,.09-1.8-.85-3.06-2.63-3.12-1.65-.05-2.42,1.23-2.37,2.79,.06,1.69,.86,2.9,2.64,3.23Zm-494.27-6.78c-1.7,.06-2.64,.95-2.56,2.61,.08,1.69,.93,3.03,2.76,3.17,1.78,.14,2.41-1.16,2.51-2.67,.13-1.87-.97-2.8-2.71-3.11Zm-55.3,121.85c-1.26-1.33-.23-4.39-3.15-4.87-.98-.16-1.92,.56-1.64,1.71,.45,1.91,.62,4.15,2.95,4.89,1.05,.33,1.79-.24,1.85-1.73Zm-17.31-160.86c-1.73,1.06-1.64,3-1.76,4.75-.11,1.64,1.18,2.22,2.47,1.97,2.53-.5,1.87-2.9,2.13-4.53,.25-1.59-1.38-1.74-2.84-2.18Zm451.01,101.74c.3-1.69-1.03-2.07-1.91-2.07-3.03,0-2.36,3.02-3.36,4.64-.74,1.19,.4,2.25,1.53,2.1,2.64-.36,2.39-3.25,3.74-4.67Zm172.59-11.32c1.48-.36,2.75-.98,2.6-2.73-.16-1.83-1.41-2.72-3.16-2.71-1.45,.01-2.35,.94-2.28,2.37,.09,1.71,1,2.88,2.83,3.07ZM114.39,375.79c-.08-1.71-.91-2.88-2.48-2.8-1.93,.1-2.29,1.79-2.26,3.37,.03,1.59,1.28,2.74,2.58,2.75,2.06,.03,1.74-2.06,2.16-3.32Zm613.22,134.97c-1.45,.4-2.4,1.41-2.32,2.99,.08,1.73,1.01,3.11,2.9,2.94,1.67-.15,2.24-1.55,2.12-3.11-.12-1.57-.92-2.61-2.7-2.82Zm-439.52-24.49c-1.81,.06-2.54,1.24-2.66,2.73-.11,1.47,.39,2.9,2.11,3.13,1.66,.22,2.68-.78,2.87-2.38,.21-1.75-.6-2.97-2.32-3.47ZM547.38,116.71c-3.14,3.87-2.86,7.45,.83,12.16,.09-4.32-1.36-8.16-.83-12.16Zm223.28,359.43c-.67-1.31,1.01-4.25-1.71-3.84-2.16,.33-.99,3.17-1.07,4.87-.06,1.32-.75,3.85,1.63,3.43,2.28-.41,.64-2.92,1.15-4.47Zm-88.49,196.08c.02-1.56-.66-2.61-2.12-2.65-1.7-.05-3.16,.71-3.1,2.66,.05,1.54,1.1,2.68,2.69,2.69,1.68,0,2.31-1.3,2.53-2.7Zm-80.51-151.39c1.5-.43,2.86-1.19,2.86-3.02,0-1.72-1.14-2.51-2.77-2.17-1.61,.34-2.88,1.25-2.72,3.15,.13,1.45,1.09,2.11,2.62,2.05Zm146.66-99.06c-1.26,.27-2.14,1.03-2.2,2.46-.08,1.8,.87,3.05,2.56,3.34,1.53,.27,2.21-.88,2.23-2.29,.03-1.73-.77-2.95-2.6-3.52Zm-53.58,238.61c.18-.74,.53-1.56-.25-2.12-.57-.41-1.26-.17-1.61,.38-1.35,2.14-1.98,4.52-1.84,7.04,.04,.65,.79,1.19,1.36,.89,2.15-1.12,1.47-3.5,2.15-5.29,.11-.29,.13-.6,.19-.91Zm-449.09-121.99c-1.56,.18-2.65,.91-2.55,2.61,.09,1.52,.97,2.76,2.51,2.84,1.77,.09,2.89-1.02,2.78-2.89-.1-1.61-1.12-2.44-2.73-2.56Zm-55.16-80.09c-.09-1.7-1.13-2.45-2.7-2.47-1.62-.02-2.68,.78-2.5,2.52,.18,1.72,1.22,2.9,2.99,2.86,1.73-.04,2.21-1.37,2.21-2.91Zm64.57,26.43c-1.58,.2-2.68,.98-2.6,2.65,.08,1.6,1.15,2.52,2.73,2.52,1.61,0,2.63-.86,2.55-2.57-.08-1.63-1.13-2.42-2.68-2.6Zm411.26,217.72c-1.45,.14-2.57,.87-2.59,2.52-.02,1.72,.82,3.08,2.7,3,1.78-.08,2.71-1.4,2.75-3.1,.04-1.74-1.22-2.29-2.87-2.42ZM175.36,398.17c-.11-1.67-1.13-2.61-2.65-2.73-1.62-.13-2.72,.87-2.72,2.51,0,1.53,.91,2.76,2.52,2.83,1.62,.07,2.42-1.15,2.85-2.61Zm-66.2,86.09c-.71-.72,.77-3.18-1.93-3.03-1.41,.07-3.02,.42-2.57,2.39,.3,1.34-.15,3.41,2.13,3.53,1.63,.08,2.68-.66,2.37-2.89Zm181.21,16.63c-1.51,.17-2.21,1.1-2.1,2.52,.11,1.51,.84,2.82,2.5,2.83,1.69,.01,2.46-1.28,2.37-2.82-.1-1.58-1.1-2.5-2.76-2.53Zm119.51-143.93c-.14-1.39-.99-2.53-2.52-2.65-1.68-.13-2.5,1.02-2.42,2.66,.08,1.55,.9,2.74,2.48,2.86,1.73,.14,2.37-1.1,2.47-2.87Zm232.77,354.97c-.33-1.54-1.13-2.73-2.79-2.54-1.58,.18-2.45,1.47-2.34,2.99,.09,1.36,1.11,2.22,2.54,2.23,1.73,0,2.39-1.14,2.59-2.68Zm-29.73-282.94c-.05-1.47-.59-2.63-2.11-2.58-1.86,.07-2.66,1.44-2.72,3.14-.05,1.36,.53,2.51,2.11,2.47,1.93-.05,2.54-1.44,2.72-3.03Zm153.29,10.51c-3.79,3.06-1.86,5.7-.25,8.29,.32,.51,.9,.91,1.57,.52,.58-.34,.73-.85,.54-1.55-.6-2.22-1.14-4.45-1.86-7.26Zm-492.81,26.14c1.15-.05,2.01-.96,2.03-2.33,.03-1.75-.89-3.08-2.8-3-1.42,.06-2.24,1.2-2.16,2.58,.09,1.49,.77,2.7,2.92,2.74Zm374.65,220.37c-.29-1.56-1.11-2.6-2.8-2.38-1.63,.22-2.39,1.35-2.22,2.95,.17,1.55,1.03,2.69,2.71,2.43,1.56-.24,2.24-1.46,2.31-3ZM477.45,170.23c-.13-1.64-.93-2.83-2.8-2.88-1.43-.04-2.42,.7-2.33,2.21,.1,1.69,1,2.97,2.79,3.09,1.46,.1,2.18-.9,2.34-2.42ZM119.41,529.04c-1.31,.32-2.09,.98-1.6,2.33,.58,1.58,1.01,3.54,3.01,3.79,1.65,.21,1.56-1.3,1.22-2.31-.49-1.49-.35-3.56-2.63-3.81Zm86-127.24c1.6,.02,2.56-.81,2.48-2.2-.1-1.75-1.43-2.72-3.09-2.92-1.25-.15-2.08,.69-2.08,1.94,0,1.79,1.14,2.74,2.69,3.17Zm17.86,34.02c-1.53,.11-2.31,1.02-2.38,2.36-.08,1.57,.83,2.68,2.4,2.83,1.69,.16,2.54-.93,2.54-2.53,0-1.64-1.1-2.4-2.56-2.67Zm440.75,255.49c1.59-.33,2.48-1.3,2.47-2.91,0-1.66-.92-2.7-2.59-2.6-1.62,.1-2.49,1.2-2.46,2.83,.04,1.62,.89,2.58,2.57,2.68Zm-434.73-146c-1.42,.08-2.39,.73-2.48,2.19-.09,1.66,.41,3.22,2.29,3.4,1.66,.16,2.45-1.11,2.51-2.66,.06-1.57-.75-2.6-2.32-2.94Zm-83.05-2.29c-1.44-.93,.81-4.48-2.83-4.52-1.06-.01-1.82,.76-1.38,1.87,.73,1.83,1.06,4.14,3.09,4.94,1.27,.5,1.23-.91,1.12-2.29Zm-19.88-124.35c-.67-1.24,1-3.98-1.59-3.86-1.76,.09-.78,2.57-.92,3.97-.12,1.24-.64,3.33,1.28,3.31,2.07-.02,.96-2.11,1.23-3.42Zm119.48,52.51c1.55-.05,2.54-.8,2.54-2.25,0-1.88-1.36-2.77-3.06-2.88-1.16-.07-2.2,.57-2.2,1.91,0,1.79,1.13,2.78,2.72,3.22Zm-34.93-59.79c.08,1.38,.53,2.68,2.35,2.59,1.38-.07,2.29-.99,2.43-2.35,.16-1.58-.68-2.74-2.25-2.96-1.8-.25-2.33,1.06-2.52,2.71Zm14.34,120.22c-1.53,.18-2.24,1.14-2.11,2.54,.14,1.56,1.1,2.57,2.71,2.65,1.24,.06,2.14-.56,2.1-1.92-.06-1.74-.95-2.89-2.7-3.28Zm415.83-112.59c-1.77,.19-2.77,1.21-2.86,2.99-.08,1.4,.55,2.52,2.08,2.5,1.81-.02,2.8-1.17,2.94-2.94,.11-1.46-.67-2.29-2.15-2.55Zm-506.57-19.94c-2.47,3.59-1.16,6.59-.36,9.55,.07,.26,.76,.54,1.14,.5,.81-.07,.81-.84,.73-1.39-.42-2.67-.92-5.32-1.51-8.66Zm-15.3,124.05c-.82-.84,.09-3.35-2.38-3.41-1.27-.03-2.5,.77-2.17,2.32,.33,1.52,.3,3.58,2.75,3.5,1.23-.04,2.04-.59,1.81-2.41Zm620.42-34.47c1.5,.04,2.29-.92,2.54-2.17,.34-1.67-.74-2.64-2.23-2.88-1.43-.24-2.38,.72-2.55,2.05-.21,1.57,.75,2.55,2.24,3Zm-87.44,181.92c2.94-.99,4.42-2.97,6.05-4.7,.54-.57,.89-1.32,.13-2.02-.55-.52-1.23-.43-1.63,.09-1.52,1.96-3.95,3.32-4.55,6.64Zm-341.32-174.54c1.42-.09,2.29-.85,2.36-2.25,.09-1.75-.7-3.04-2.55-3.12-1.54-.06-1.99,1.17-2.09,2.48-.12,1.62,.66,2.59,2.27,2.89Zm351.19-166.48c-1.44,.53-2.81,1.28-3.02,3-.14,1.13,.55,2.42,1.62,2.46,1.92,.07,2.89-1.69,3.4-3.18,.27-.79-.73-1.95-2-2.28Zm-490.63,84.4c-.04-1.45-.62-2.6-2.27-2.8-1.4-.17-2.41,.49-2.58,1.93-.19,1.58,.58,2.67,2.2,2.87,1.38,.17,2.31-.51,2.66-2Zm581.65,30.86c-1.45,.03-2.29,.73-2.34,2.2-.06,1.75,.77,3.05,2.48,3.3,1.42,.21,2.24-.86,2.32-2.23,.1-1.71-.65-2.93-2.46-3.27ZM109.27,397.24c.35-1.99-.54-2.78-2.25-2.8-1.78-.02-1.78,1.39-1.95,2.6-.25,1.69,.52,2.68,2.21,2.88,2.33,.27,1.66-1.67,2-2.67Zm120.69,29.51c-.07-1.31-.55-2.6-2.29-2.59-1.62,0-2.49,1.07-2.44,2.67,.05,1.58,.94,2.59,2.58,2.55,1.45-.04,2.11-1.02,2.15-2.62Zm-83.07,26.59c-.82-1.5-.03-4.19-2.77-4.68-.87-.16-1.47,.6-1.27,1.5,.42,1.92,.34,4.24,2.9,4.8,.93,.2,1.38-.48,1.14-1.62Zm532.38-50.47c-1.71,.41-2.05,1.75-1.87,3.19,.18,1.47,.95,2.72,2.7,2.47,1.69-.24,2.25-1.53,1.95-3.07-.28-1.44-1.06-2.55-2.78-2.59Zm53.27,137.86c1.43-.22,2.31-.94,2.22-2.42-.11-1.81-1.09-2.82-2.95-2.66-1.49,.13-2.12,1.17-1.91,2.55,.22,1.46,.99,2.54,2.64,2.53ZM200.67,476.61c-.08-1.6-.88-2.59-2.47-2.77-1.46-.17-2.39,.54-2.45,2.04-.07,1.6,.81,2.63,2.39,2.82,1.46,.18,2.22-.72,2.54-2.08Zm-12.44-37.76c.94-.23,2.12-.43,2.07-1.84-.06-1.52-.89-2.67-2.46-2.86-1.4-.17-2.47,.55-2.43,2.06,.05,1.6,1.13,2.42,2.82,2.64Zm449.89-40.14c-.19-1.2-.72-2.33-2.23-2.2-1.31,.11-2.24,.96-2.33,2.38-.09,1.34,.36,2.58,1.87,2.56,1.5-.02,2.42-1.07,2.7-2.74Zm-401.84,134.85c-1.32,.06-2.36,.64-2.38,2.18-.02,1.37,.65,2.53,2.05,2.72,1.69,.24,2.68-.85,2.72-2.45,.03-1.38-.81-2.3-2.38-2.45Zm-108.88,21.56c1.17-.29,2.24-.91,1.91-2.15-.38-1.38-.73-3.16-2.75-3.19-1.07-.02-1.84,.61-1.43,1.74,.47,1.34,.33,3.17,2.28,3.6Zm165.29-81.52c-.07-1.6-.89-2.65-2.48-2.72-1.4-.06-2.31,.81-2.26,2.29,.05,1.54,.85,2.69,2.46,2.77,1.46,.07,2.13-.96,2.28-2.34Zm446.81,46.35c-.06-1.39-.81-2.5-2.41-2.6-1.26-.08-2,.98-2.01,2.07-.01,1.48,.8,2.68,2.44,2.78,1.3,.07,1.83-.87,1.98-2.25Zm-627.82-13.6c1.67-.12,2.12-1.09,1.82-2.55-.27-1.31-.19-3.01-2.31-2.63-1.28,.23-2.49,.74-1.95,2.42,.4,1.25,.56,2.84,2.45,2.76ZM536.31,95.28c-1.19-4.07-1.57-7.23-3.84-10.8-.55,4.56,.38,7.53,3.84,10.8Zm121.16,615.3c-.35-1.03-.85-2.19-2.35-2.22-1.5-.03-2.3,1.01-2.3,2.35,0,1.5,.76,2.81,2.48,2.71,1.45-.08,1.95-1.31,2.17-2.84ZM100.91,486.38c-.29-1.41-.49-2.96-2.36-2.94-1.62,.02-2.03,1.26-1.89,2.61,.16,1.54,1,2.69,2.66,2.67,1.46-.02,1.53-1.26,1.59-2.35Zm590.7-52.61c-1.61,.24-2.45,1.27-2.45,2.8,0,1.38,.9,2.39,2.27,2.44,1.72,.06,2.37-1.2,2.37-2.74,0-1.38-.72-2.29-2.18-2.5Zm-145.7-302.57c-.28,4.67,1.03,6.46,4.86,6.75-1.46-2.37-2.34-5.01-4.86-6.75ZM180,510.34c-.23-1.42-.93-2.54-2.52-2.73-1.05-.13-1.79,.46-1.9,1.52-.15,1.57,.54,2.76,2.13,3.01,1.16,.19,2.04-.45,2.28-1.8Zm-65.84,4.75c1.2,0,2.04-.5,1.74-1.65-.35-1.37,.27-3.45-1.88-3.77-1.05-.15-2.29,.45-2.18,1.85,.11,1.57,.61,3.05,2.32,3.57Zm466.2-.96c-.11-1.24-.53-2.47-2.03-2.49-1.61-.03-2.57,1.06-2.49,2.64,.07,1.33,.99,2.3,2.38,2.33,1.5,.04,2.1-.99,2.14-2.47Zm-195.39-155.23c-.09-1.27-.55-2.46-1.93-2.7-1.5-.26-2.19,.82-2.35,2.15-.17,1.36,.36,2.45,1.82,2.68,1.54,.25,2.13-.81,2.46-2.13Zm-182.3,92.37c-.03-1.66-.92-2.67-2.49-2.83-1.39-.14-2.45,.5-2.41,2.11,.04,1.58,.83,2.74,2.44,2.91,1.44,.15,2.28-.73,2.46-2.18Zm74.79,25.8c-.29-1.33-.97-2.34-2.43-2.37-1.54-.02-2.27,.91-2.09,2.41,.16,1.34,.83,2.45,2.32,2.43,1.46-.02,2.18-1,2.2-2.47Zm-147.18-122.97c-2.65-1.33-5.09-1.25-7.74-.95,2.36,4.56,2.11,4.23,7.74,.95Zm547.87,195.81c-.18-1.12-.45-2.5-2.09-2.32-1.54,.17-2.41,1.34-2.41,2.94,0,1.2,.52,2.16,1.84,2.23,1.81,.1,2.27-1.26,2.65-2.85Zm17.17,61.66c2.81-3.46,3.31-6.78,3.78-11.36-2.48,3.91-3.61,7.02-3.78,11.36Zm-480.68-103.01c1.32-.17,2.06-.86,1.91-2.13-.16-1.33-1-2.28-2.36-2.35-1.16-.06-2.17,.61-2.11,1.87,.07,1.54,1.11,2.38,2.56,2.61Zm513.47-10.18c-.12-1.6-1.13-2.46-2.68-2.51-1.27-.04-1.94,.84-1.95,2.09-.01,1.42,.76,2.4,2.15,2.57,1.42,.18,2.32-.58,2.49-2.15Zm-162,24.19c-.25-1.25-.64-2.62-2.19-2.44-1.44,.17-1.77,1.61-1.83,2.84-.07,1.35,.43,2.56,2.09,2.31,1.42-.21,1.99-1.29,1.94-2.71Zm-420.09,29.4c.46,2.65-.83,5.94,2.61,8.29,.47-3.45-.31-6.04-2.61-8.29Zm508.49,15.35c-.1-1.47-.87-2.37-2.35-2.33-1.41,.03-2.45,.82-2.28,2.34,.14,1.29,.86,2.42,2.37,2.44,1.55,.02,2.12-1.06,2.26-2.44Zm33.29,59.72c-3.53,2.05-5.55,5.26-6.12,9.42,2.04-3.14,4.08-6.28,6.12-9.42ZM167.79,429.1c1.4-.29,2.16-1.15,1.9-2.6-.26-1.45-1.34-2.04-2.71-1.83-1.2,.18-1.93,.99-1.73,2.27,.22,1.37,1.06,2.15,2.54,2.16Zm-18.44-71.05c-.49-1.97-2.37-1.58-3.7-1.99-.81-.25-2.41-1.13-2.33,.82,.06,1.51,1.31,2.42,2.83,2.57,1.24,.13,2.47-.05,3.2-1.41Zm550.91,109.28c-1.51,.05-2.2,.94-2.25,2.34-.04,1.29,.21,2.6,1.81,2.67,1.44,.07,2.22-.9,2.31-2.31,.09-1.35-.37-2.4-1.88-2.7Zm17.82-112.83c-.17-1.26-.53-2.62-1.93-2.76-1.54-.16-2.1,1.12-2,2.46,.09,1.28,.67,2.5,2.15,2.52,1.31,.02,1.75-1.01,1.78-2.22Zm-128.2,156.9c1.24-.16,2.18-1.01,2.31-2.3,.12-1.2-.86-1.97-2.02-2.08-1.44-.13-2.36,.66-2.37,2.14,0,1.19,.68,1.98,2.08,2.24Zm112.09-177.07c-.3-1.37-1.16-2.51-2.69-2.57-1.46-.06-1.59,1.32-1.47,2.36,.16,1.39,.6,2.9,2.46,2.7,1.22-.13,1.74-1.13,1.7-2.49Zm-446.98,108.31c1.21-.23,2.07-.89,1.94-2.16-.15-1.6-1.17-2.52-2.81-2.36-1.29,.12-1.89,1.06-1.68,2.29,.23,1.36,1.16,2.1,2.55,2.24Zm-153.31-67.21c-1.46,.09-2.36,.86-2.33,2.33,.02,1.45,.94,2.29,2.37,2.3,1.3,.01,2-.91,2.03-2.09,.04-1.33-.48-2.43-2.07-2.53Zm136.34,114.41c1.42,.06,2.09-.62,2.14-1.91,.06-1.6-.61-2.73-2.31-2.83-1.22-.08-2.11,.61-2.17,1.88-.07,1.62,.93,2.49,2.34,2.86Zm-67.36,92.81c1.22-.1,1.96-.76,2-2,.05-1.4-.66-2.38-2.06-2.54-1.46-.16-2.4,.76-2.32,2.15,.07,1.28,.97,2.18,2.38,2.39Zm-35.75-47.98c-.36-1.15-.93-2.37-2.54-2.58-1.12-.15-1.71,.57-1.81,1.59-.15,1.53,.38,2.78,2.06,3.04,1.24,.19,1.97-.57,2.3-2.05Zm37.4-166.6c-2.68-3.07-4.91-4.55-8.66-4.71,2.21,2.89,4.26,4.64,8.66,4.71Zm481.07,111.48c-1.22,.48-2.16,1.38-1.93,3.02,.14,.98,.72,1.75,1.82,1.67,1.66-.12,2.47-1.2,2.41-2.76-.05-1.16-.72-2-2.3-1.93Zm33.82,204.29c-2.39,1.14-2.91,3.37-3.27,5.62-.1,.65,.7,1.23,1.28,.91,2.18-1.19,2.33-3.44,2.6-5.58,.03-.22-.3-.48-.61-.95ZM94.6,465.31c1.11-.07,1.84-.61,1.91-1.69,.1-1.57-.62-2.8-2.2-3.09-1-.18-1.82,.51-1.88,1.62-.08,1.57,.71,2.63,2.18,3.16Zm657.84,46.57c-.96,.19-1.93,.7-2.02,1.98-.1,1.39,.53,2.47,2.03,2.66,1.36,.17,2.01-.74,2.15-1.93,.16-1.4-.41-2.42-2.17-2.71Zm-593.82,39.44c.17-1.39-.45-2.32-1.84-2.63-1.19-.26-2.21,.16-2.48,1.38-.36,1.6,.48,2.65,2.06,2.94,1.22,.22,2.03-.37,2.26-1.69Zm236.64-203.77c-.18-1.29-.71-2.44-2.1-2.61-1.49-.19-2.22,.82-2.31,2.2-.07,1.18,.46,2.09,1.75,2.24,1.38,.17,2.36-.36,2.66-1.83Z"/>
  <path d="M281.47,20.82c.13-1.78,1.06-3.16,2.09-4.57,1.56-2.12,2.99-2.85,5.17-.66,1.43,1.44,3.5,1.92,5.46,2.44,1.18,.31,2.53,.47,2.91,1.95,.53,2.06,2.01,4.54,.51,6.16-1.41,1.52-3.76,.1-5.57-.7-2.57-1.14-4.86-2.72-6.87-4.7-1.25-1.23-2.5-1.95-3.79-.05,0,0,.09,.13,.09,.13Z"/>
  <path d="M296.15,14.91c-3.07-1.23-6.46-1.5-6.91-4.89-.17-1.3,2.36-3.43,3.68-2.96,3.39,1.2,2.56,4.68,3.23,7.85Z"/>
  <path d="M412.84,180.29c-13.16-.06-22.75-9.97-22.64-23.39,.11-13.76,10.8-24.98,23.82-24.99,13.16-.01,23.82,10.75,23.63,23.85-.2,13.84-11.08,24.6-24.8,24.53Zm-6.04-29.03c-.22-2.09-1.4-3.35-3.6-3.39-2.34-.04-3.41,1.53-3.47,3.57-.07,2.21,1.38,3.46,3.55,3.44,2.18-.02,3.4-1.3,3.52-3.61Z"/>
  <path d="M473.1,675.7c-7.67,2.99-12.74,2.04-17.61-3.04-2.66-2.78-1.95-4.97,.8-6.95,3.96-2.85,11.85,.2,13.18,4.88,.69,2.43-2.28,2.78-2.25,5.09,1.97,0,3.93,0,5.89,0,0,0-.02,.02-.02,.02Z"/>
  <path d="M324.38,659c4.98,.05,9.31,4.34,9.11,8.73-.13,2.92-1.61,4.71-4.7,4.64-4.44-.1-10.29-5.06-9.89-8.5,.39-3.34,2.8-4.62,5.47-4.87Z"/>
  <path d="M393.93,651.95c2.71,.34,5.28,1.31,5.26,4.28-.02,3.25-2.5,5.02-5.62,5.03-3.19,.01-5.51-1.9-5.4-5.16,.11-3.37,3.09-3.81,5.76-4.15Z"/>
  <path d="M419.16,673.02c-.87,1.99-2.18,3.47-4.48,3.35-1.81-.09-3.51-.9-3.24-3.05,.3-2.38,2.32-2.65,4.25-2.47,1.44,.13,3.2,.02,3.48,2.17Z"/>
  <path d="M392.24,693.36c-3.48-.5-7.17,.16-7.66-4.26-.35-3.2,1.2-5.45,3.98-6.73,3.19-1.47,6.51-1.56,9.12,1.07,2.54,2.56,2.07,5.74,.59,8.7-3.53,7.07-9.87,9.21-14.57,5.03q5.24-.47,8.54-3.81Z"/>
  <path d="M367.13,603.34c-3.3-.27-6.88-.79-7.17-4.6-.27-3.53,3.1-4.45,5.97-4.41,3.33,.05,7.34,.88,7.69,4.65,.36,3.84-3.68,3.81-6.49,4.36Z"/>
  <path d="M380.96,604.91c2.62,.01,4.59,.56,4.5,3.25-.12,3.41-2.37,5-5.52,4.98-2.56-.02-4.91-1.63-4.81-4.13,.15-3.52,3.46-3.73,5.83-4.1Z"/>
  <path d="M363.02,485.17c-2.54-.42-5.55-.48-5.74-4-.11-2.13,1.84-2.61,3.63-2.68,2.46-.09,7.98,3.28,7.41,4.53-1,2.17-3.34,1.76-5.3,2.14Z"/>
  <path d="M419.57,486.92c-1.61-.63-4.61-.32-4.38-2.73,.19-2.09,2.79-3.16,5.09-3.13,1.78,.02,3.54,.73,3.47,2.89-.08,2.42-2.14,2.66-4.17,2.98Z"/>
  <path d="M393.65,795.91c-.04,3.15-3.93,7.19-6.91,7.17-3.17-.02-8.97-6.75-8.85-10.39,.12-3.61,2.19-5.39,5.7-5.36,5.18,.05,10.11,4.33,10.06,8.57Z"/>
  <path d="M389.01,814.02c-.56,2.75-1.19,5.72-5.15,5.73-3.31,0-6.57-3.44-6.49-6.7,.07-2.84,3.34-5.89,6.29-5.66,3.86,.31,5.17,2.9,5.35,6.63Z"/>
  <path d="M384.65,410.44c-.65-.05-1.13-.04-1.58-.13-2.15-.46-4.34-.97-5.32-3.24-.63-1.47,.08-2.68,1.3-3.64,1.99-1.55,4.03-1.3,6.11-.26,.42,.21,.87,.36,1.24,.64,1.68,1.25,5.06,1.83,4.49,4.05-.65,2.53-4,2.3-6.25,2.59Z"/>
  <path d="M413.23,407.92c2.29-2.92,4.88-4.17,7.77-4.88,1.46-.35,2.91-.07,3.5,1.47,.58,1.5-.23,2.78-1.47,3.57-3.07,1.95-6.2,1.25-9.8-.17Z"/>
  <path d="M442.1,765.11c-3.62-.33-6.39-1.09-7.57-4.06-1.1-2.78,.88-4.79,2.58-6.53,3.02-3.09,6.65-5.24,11.17-4.85,2.7,.23,5.25,1.19,6.24,4.12,1.02,3.02-.12,5.53-2.35,7.53-3.05,2.73-6.82,3.54-10.07,3.8Z"/>
  <path d="M360.86,734.23c5.49-.05,13,7.03,12.95,12.05-.03,3.15-1.31,5.46-5.08,5.1-5.14-.49-11.31-6.73-11.7-11.84-.24-3.09,.78-5.19,3.82-5.31Z"/>
  <path d="M370.1,462.35c-.75,1.95-2.16,3.07-4.23,3.08-1.84,0-3.66-.62-3.59-2.79,.06-2.06,1.4-3.56,3.66-3.41,1.93,.13,3.66,.87,4.16,3.12Z"/>
  <path d="M418.19,466.58c-1.89-.34-3.98-.46-3.73-2.77,.24-2.26,2.17-3.36,4.29-3.61,1.77-.21,3.11,.84,3.18,2.64,.1,2.54-1.8,3.32-3.74,3.75Z"/>
  <path d="M328.36,761.24c-4.99,.02-9.68-3.68-9.69-7.65-.01-3.33,3.49-6.55,7.2-6.63,4.52-.09,9.57,3.98,9.73,7.84,.13,3.33-3.34,6.42-7.24,6.44Z"/>
  <path d="M365.56,776.36c-.63,3.24-2.87,5.02-6.45,4.9-4.89-.16-10.56-5.46-9.95-9.31,.57-3.59,3.14-4.75,6.46-4.55,5.36,.33,10.26,4.61,9.94,8.95Z"/>
  <path d="M441.81,725.8c-4.24,.08-8.58-4.09-8.56-8.22,.02-3.92,3.98-7.39,8.61-7.54,4.67-.15,8.67,3.12,8.78,7.17,.11,4.2-4.32,8.51-8.83,8.59Z"/>
  <path d="M391.92,716.39c3.31,.14,6.44,.92,7.54,4.39,1.12,3.55-1.72,5.29-4.12,7.07-.12,.09-.27,.16-.4,.24-3.73,2.04-7.44,2.26-10.98-.35-1.9-1.39-2.28-3.55-1.38-5.47,1.81-3.84,5.09-5.73,9.35-5.87Z"/>
  <path d="M434.21,815.71c-4.18,.09-8.25-3.64-8.45-7.75-.2-4.08,3.6-8.23,7.72-8.44,4.28-.22,8.03,3.33,8.21,7.77,.19,4.57-3.15,8.33-7.47,8.42Z"/>
  <path d="M444.13,792.21c-.81,1.73-.08,5.75-3.18,5.1-2.74-.57-7.47,.15-7.98-4.49-.36-3.26,3.44-6.89,6.38-6.79,2.66,.09,4.75,2.65,4.78,6.18Z"/>
  <path d="M475.67,731.38c4.86-.11,9.22,3.37,9.21,7.35-.01,3.23-2.92,5.81-6.59,5.84-4.29,.04-9.28-4-9.37-7.59-.08-3.11,2.82-5.51,6.75-5.6Z"/>
  <path d="M421.08,633.23c.13-1.86,1.06-2.98,.81-4.44-.46-2.66,1.28-3.67,3.52-3.74,2.5-.08,4.59,.86,5.22,3.58,.49,2.12-.86,3.21-2.66,3.6-2.1,.46-4.25,.63-6.88,1Z"/>
  <path d="M409.51,781.8c-3.91,0-6.56-2.55-6.62-6.32-.06-4.65,4.25-9.38,8.6-9.45,3.82-.06,7.29,2.96,7.33,6.37,.05,4.59-4.72,9.41-9.32,9.4Z"/>
  <path d="M351.6,632.61c-2.8-.48-6.1-.92-6.16-5.13-.06-3.8,4.34-7.46,8.71-7.49,4.08-.03,6.96,2.22,6.84,5.35-.13,3.53-4.77,7.25-9.39,7.27Z"/>
  <path d="M329.77,733.37c-4.49,.08-9.82-4.19-9.61-7.71,.21-3.53,2.29-5.79,5.87-6.14,3.68-.35,8.41,4.42,8.53,8.48,.1,3.45-1.9,5.05-4.79,5.36Z"/>
  <path d="M469.7,698.59c4.36,.03,8.45,3.39,8.39,7.04-.06,3.74-2.53,5.12-5.82,5.2-3.99,.1-9.12-4.03-9.2-7.18-.07-2.79,2.94-5.09,6.63-5.07Z"/>
  <path d="M399.6,633.3c-4.04,.05-6.82-2.37-6.88-6-.07-4.02,3.6-7.34,8.05-7.3,4.07,.04,7.03,2.53,7.01,5.92-.01,3.77-3.96,7.33-8.19,7.38Z"/>
  <path d="M356.53,689.81c-3.92,.09-9.86-4.38-10.9-8.22-.81-2.96,.89-4.94,4.24-4.96,4.1-.03,9.38,3.95,10.53,7.92,.89,3.1-.63,5.18-3.87,5.25Z"/>
  <path d="M421.64,742.19c-.49,3.29-2.46,5.03-6.03,4.81-4.14-.25-8.44-3.81-8.31-6.85,.12-2.89,4.08-5.63,7.7-5.33,3.69,.3,6.84,3.7,6.64,7.37Z"/>
  <path d="M357.44,718.95c-3.65,.06-7.88-3.57-7.81-6.69,.07-2.83,3.51-5.79,6.84-5.88,3.66-.11,7.41,3.11,7.41,6.36,0,3.1-3.18,6.16-6.45,6.21Z"/>
  <path d="M383.01,429.05c-2.36-.4-5.51,.02-5.54-3-.02-2.55,2.52-3.78,5.11-3.53,2.48,.24,5.5,.79,5.43,3.84-.07,2.87-3.13,2.25-5,2.7Z"/>
  <path d="M419.05,427.57c-1.33-.57-3.9,.14-3.45-2.06,.47-2.29,3.01-2.9,5.23-3.11,1.55-.15,3.02,.47,2.83,2.24-.3,2.69-2.7,2.52-4.61,2.93Z"/>
  <path d="M333.89,634.31c.07,3.46-2.41,6.27-5.56,6.29-3.06,.02-6.11-3.2-6-6.55,.11-3.27,1.47-5.84,5.03-6.26,3.3-.39,6.45,2.93,6.53,6.52Z"/>
  <path d="M383.81,371.06c1.75,.28,3.93,.46,3.88,2.9-.04,1.89-1.93,2.28-3.49,2.27-1.71-.01-3.57-.3-3.65-2.61-.07-2.1,1.53-2.39,3.26-2.56Z"/>
  <path d="M420.75,373.7c-1.45-.16-2.85-.69-2.83-2.39,.02-1.67,1.32-2.35,2.9-2.28,1.63,.07,2.69,.95,2.6,2.6-.08,1.48-1.26,1.99-2.68,2.07Z"/>
  <path d="M457.97,640.76c-3.51,.11-7.97-3.7-8.16-6.95-.17-2.91,2.81-5.82,5.97-5.84,3.61-.01,7.17,3.86,7.15,7.77-.01,2.85-2.07,4.93-4.96,5.01Z"/>
  <path d="M340.05,605.38c-.08,2.46-1.59,4.11-4.55,4.31-3.86,.26-7.76-2.99-7.68-6.55,.08-3.25,1.87-5.23,5.15-5.51,3.49-.3,6.97,3.36,7.08,7.75Z"/>
  <path d="M441.08,595.96c3.15,.32,5.35,1.37,5.29,4.85-.06,3.69-2.43,6.43-5.5,6.32-3.13-.11-7.38-3.95-6.87-6.55,.77-3.91,4.21-4.05,7.08-4.62Z"/>
  <path d="M239.52,182.11c-2.63-.22-4.08-1.62-3.98-3.89,.14-3.19,1.68-5.81,5.12-6.12,2.5-.22,4.09,1.56,4.04,4.07-.07,3.4-2.19,5.23-5.18,5.94Z"/>
  <path d="M418.3,441.69c1.71,.41,4.27,.07,4.04,2.68-.21,2.32-2.49,3.09-4.58,3.04-2.03-.05-4.47-.64-4.26-3.2,.22-2.67,2.91-2.14,4.8-2.52Z"/>
  <path d="M331.6,697.5c-.14,3.53-3.18,6.4-6.19,6.04-3.29-.39-4.43-2.76-4.19-5.64,.27-3.2,1.94-5.86,5.48-5.76,3.29,.1,4.63,2.65,4.9,5.35Z"/>
  <path d="M345.32,552.74c-3.68-.22-7.66-4.06-7.25-7.14,.34-2.58,2.08-3.72,4.54-3.67,3.52,.07,7.12,4.11,6.81,7.53-.23,2.49-1.68,3.5-4.1,3.28Z"/>
  <path d="M206.39,175.46c-.45,2.04-1.28,4.07-3.74,3.96-2.32-.1-3.06-2.05-2.71-4.07,.4-2.29,1.69-4.25,4.32-3.97,2.2,.24,2.19,2.26,2.13,4.08Z"/>
  <path d="M335.14,572.12c3.4,.09,6.24,3.18,6.01,6.23-.16,2.25-1.43,3.34-3.65,3.38-3.04,.05-6.81-3.35-6.62-6.07,.2-2.84,2.25-3.41,4.26-3.54Z"/>
  <path d="M440.46,578.73c-3.38-.27-6.86-3.44-6.57-6.18,.3-2.85,2.24-3.98,4.9-3.88,3.14,.12,6.13,3.66,5.81,6.74-.26,2.51-1.73,3.5-4.14,3.32Z"/>
  <path d="M361.85,658.01c-.64,3.18-2.5,5.3-5.59,5.52-3.09,.22-5.68-1.3-5.85-4.7-.17-3.37,2.26-5.08,5.32-5.41,3.27-.35,5.18,1.6,6.13,4.58Z"/>
  <path d="M429.89,538.75c3.51,.17,6.54,3.81,6.4,7.25-.09,2.37-1.45,3.28-3.66,3.2-3.26-.11-7.55-4.16-7.12-6.87,.41-2.61,2.42-3.37,4.38-3.58Z"/>
  <path d="M392.92,581.19c.07,1.96-.54,3.3-2.81,3.37-2.99,.09-7.31-3.9-7.19-6.75,.1-2.26,1.46-3.32,3.6-3.41,3.02-.13,6.35,3.45,6.4,6.79Z"/>
  <path d="M410.92,572.42c3.69,.33,5.86,2.04,6.23,5.5,.26,2.44-1.04,4.03-3.53,3.87-3.43-.21-6.1-2.11-6.73-5.46-.54-2.84,2.2-3.29,4.04-3.91Z"/>
  <path d="M361.76,567.6c2.98,.13,5.61,.89,5.64,4.27,.03,2.91-2.12,4.49-4.85,4.59-2.91,.1-5.23-1.27-5.42-4.47-.18-3.13,1.92-4.27,4.63-4.39Z"/>
  <path d="M443.39,688.17c-.91,3.02-1.95,5.76-5.38,5.77-2.91,.01-4.75-1.93-4.5-4.77,.27-3,1.51-6,5.28-5.84,2.89,.13,4.03,2.43,4.59,4.83Z"/>
  <path d="M348.48,518.03c3.27,.67,5.58,2.52,5.68,6.12,.07,2.41-1.25,4.15-3.93,4.2-2.66,.05-6.23-3.77-6.2-6.55,.03-2.85,1.95-3.55,4.45-3.77Z"/>
  <path d="M479.25,801.39c-.04,4.66-5.88,10-10.71,9.82-3.6-.14-6.1-3.02-6-6.92,.13-4.91,5.25-9.99,10-9.92,3.53,.06,6.73,3.41,6.7,7.01Z"/>
  <path d="M377.71,531.02c-2.63-.72-5.29-1.85-5.42-5.22-.08-2.24,1.75-3.19,3.83-3.1,3.21,.15,4.64,2.31,4.92,5.19,.19,2.02-1,3.15-3.34,3.13Z"/>
  <path d="M358.27,803.42c0,3.56-3.59,6.85-7.49,6.89-3.76,.03-8.58-4.43-8.55-7.92,.03-3.18,3.63-6,7.7-6.04,4.58-.05,8.35,3.14,8.34,7.08Z"/>
  <path d="M375.21,555.81c-2.78-.39-5.06-1.92-5.71-4.94-.44-2.08,1.19-3.13,3.09-3.1,3.28,.05,5.04,2.03,5.49,5.15,.27,1.86-.65,2.93-2.87,2.89Z"/>
  <path d="M379.17,638.19c-.39,2.8-1.89,4.77-4.71,5-2.44,.2-3.72-1.6-3.79-3.85-.08-2.6,1.18-4.65,3.97-4.87,2.47-.19,4.12,1.14,4.53,3.72Z"/>
  <path d="M387.14,761.2c.37-2.63,.71-5.47,4.33-5.39,2.27,.05,4.02,1.56,3.81,3.84-.26,2.92-1.81,5.49-5.06,5.79-2.81,.26-2.99-2.07-3.09-4.25Z"/>
  <path d="M400.62,546.21c2.69,.32,4.54,1.54,4.48,4.39-.06,2.49-1.42,4.08-4.08,4.06-2.46-.02-4.32-1.11-4.43-3.74-.12-2.67,1.37-4.3,4.03-4.71Z"/>
  <path d="M475.98,761.45c4.69-.07,8.42,2.4,8.5,5.63,.08,3.03-3.35,5.81-7.28,5.89-3.91,.08-8.13-3.1-8.27-6.23-.13-2.96,2.9-5.23,7.05-5.29Z"/>
  <path d="M402.5,530.44c-2.35-.3-4.89-.81-5.07-4.03-.13-2.39,1.72-3.26,3.71-3.2,2.82,.09,5.42,1.19,5.59,4.37,.13,2.33-2.02,2.79-4.23,2.86Z"/>
  <path d="M404.47,603.96c-2.14-.26-3.01-1.72-2.94-3.57,.1-2.46,.86-4.78,3.94-4.76,1.97,.01,3.32,1.19,3.06,3.28-.29,2.43-1.37,4.46-4.07,5.05Z"/>
  <path d="M454,835.4c-3.2-.36-5.44-2.02-5.5-5.86-.06-3.94,2.78-6.93,6.57-6.94,3.28,0,6.87,3.38,6.84,6.45-.03,2.97-4.02,6.32-7.91,6.36Z"/>
  <path d="M428.12,511.2c2.79,.33,4.25,2.03,4.4,4.64,.12,2.02-1.55,2.64-3.21,2.56-2.45-.12-4.99-.92-5.29-3.65-.28-2.48,1.99-3.2,4.1-3.54Z"/>
  <path d="M406.72,805.54c3.02,.77,4.79,3.08,4.55,6.6-.29,4.28-4.42,8.12-7.86,7.62-3.22-.46-5.46-3.68-5.03-7.21,.49-3.96,4.38-7.48,8.34-7.02Z"/>
  <path d="M359.08,834.03c-2.21-.06-3.99-1.18-4.16-4.1-.19-3.39,2.91-6.68,6.44-6.65,2.75,.03,5.55,.49,5.67,4.1,.1,2.98-4.1,6.56-7.96,6.65Z"/>
  <path d="M419.12,842.49c-1.99,.02-3.54-1.19-3.7-3.81-.19-3.17,3.55-7.79,6.27-7.63,2.62,.15,4.35,1.64,4.68,4.31,.39,3.14-3.29,6.97-7.26,7.14Z"/>
  <path d="M463.24,784.78c-.04,4.04-3.33,7.89-6.39,7.77-3.15-.12-3.66-2.37-3.61-4.87,.07-3.68,2.96-6.68,6.32-6.73,2.94-.05,3.6,1.83,3.68,3.83Z"/>
</svg>