<?xml version="1.0" encoding="UTF-8"?>
<svg id="Layer_1" data-name="Layer 1" xmlns="http://www.w3.org/2000/svg" viewBox="0 0 864 864">
  <path d="M795.09,599.13c-4.12,.46-7.55,2.55-10.88,4.74-3.53,2.32-4.33,1.09-4.11-2.57,.27-4.46,.42-8.94,.31-13.41-.06-2.28,.55-5.24-1.99-6.5-2.61-1.29-4.86,.57-6.97,2.05-5.31,3.72-9.61,8.39-13.02,13.88-.49,.8-.88,1.91-2,1.74-1.14-.17-1.2-1.34-1.39-2.27-.7-3.44-1.12-6.96-2.15-10.3-.93-3.02-2.2-6.28-6.16-6.46-4.13-.19-5.3,3.19-6.31,6.16-4.26,12.46-5.4,25.26-3.18,38.26,.79,4.64,2.52,9.04,6.63,11.79,3.76,2.52,7.85,1.46,12.22-.25-1.15,6.91-3.12,12.92-6,18.58-11.28,22.18-30.14,35.29-53.14,42.5-36.88,11.58-72.35,5.41-106.52-10.72-35.37-16.69-63.79-42.07-88.35-72.09-6.06-7.41-5.97-7.49,.48-14.46,14.46-15.63,33.38-15.73,48.15-.25,3.21,3.36,5.99,7.04,8.46,10.99,5.37,8.57,9.05,17.94,12.93,27.21,.55,1.32,1.08,3.16,2.56,3.2,1.69,.04,1.7-2.02,2.24-3.27,4.3-9.95,7.48-20.41,13.73-29.45,9.95-14.42,22.45-16.09,35.59-4.52,2.97,2.62,5.4,5.86,8.03,8.86,1.37,1.56,2.61,3.23,3.98,4.79,2.39,2.72,4.35,2.5,5.39-1.09,1.47-5.06,2.75-10.17,4.15-15.25,2.63-9.54,4.93-19.22,9.72-27.97,4.47-8.17,9.78-10.68,19.01-9.5,4.83,.61,9.3,2.37,13.47,4.75,6.66,3.79,13.16,7.85,19.77,11.72,5.44,3.18,6.89,2.55,7.65-3.71,.92-7.61,1.47-15.26,2.26-22.88,.89-8.59,1.95-17.17,5.61-25.12,4.08-8.87,10.12-12.39,19.84-11.88,4.51,.24,8.8,1.5,13.09,2.75,6.91,2.02,8.38,.99,7.59-6.32-.81-7.45-2.3-14.81-3.37-22.23-2.56-17.8,3.29-27.88,20.12-34.36,4.3-1.66,8.8-2.83,13.24-4.11,2.59-.75,3.33-1.89,1.01-3.76-1.86-1.49-3.77-2.98-5.86-4.11-17.84-9.66-37.02-15.48-56.74-19.87-52.31-11.64-101.94-4.58-148.6,21.73-44.35,25.01-80.25,59.77-112.18,98.93-6.77,8.31-7.44,8.55-12.26-1.38-11.53-23.77-15.96-48.95-14.29-75.33,1.01-16.01,6.46-30.1,16.2-42.74,6.45-8.37,13.33-16.34,21.07-23.53,16.14-14.99,33.51-28.62,48.73-44.66,19.19-20.21,34.68-42.51,42.54-69.59,6.56-22.62,7.24-45.65,4.7-68.84-.63-5.72-.37-10.82,2.23-16.17,6.82-14.07,13.72-28.12,19.63-42.62,4.22-10.36,8.69-20.68,9.4-32.01,.56-9-4.7-12.33-12.8-8.24-3.39,1.71-6.47,4.09-9.55,6.35-14.25,10.42-26.33,23.23-38.75,35.64-2.39,2.39-3.76,2.39-6.16,.17-5.65-5.22-12.12-9.4-18.81-13.14-2.63-1.47-3.54-3.17-3.14-6.15,2.95-22.17,4.66-44.46,6.35-66.75,1.38-18.16,2.48-36.33,1.45-54.56-.23-4.02-.83-7.96-2.17-11.73-1.01-2.84-2.08-5.96-5.6-6.58-3.46-.61-5.67,1.69-7.58,4.13-1.28,1.63-2.4,3.39-3.46,5.17-20.02,33.43-39.02,67.43-56.68,102.17-1.59,3.12-3.02,6.44-5.92,8.95-1.39-2.08-.92-4.05-.9-5.89,.1-14.38,1.13-28.72,2.16-43.06,1.37-19.13,2.44-38.26,1.5-57.44-.22-4.48-.9-8.92-2.95-12.99-2.47-4.88-6.4-5.58-10.46-1.84-3.56,3.28-6.12,7.37-8.47,11.55-9.75,17.42-19.15,35.03-27.49,53.17-7.93,17.24-16.83,34.08-22.23,52.39-.65,2.22-2.26,2.42-4.03,2.63-7.15,.82-14.27,2-21.12,4.13-4.16,1.3-5.69-.04-6.99-3.73-4.29-12.19-8.65-24.37-13.31-36.42-7.49-19.36-12.79-39.49-21.08-58.56-2.05-4.71-4.33-9.29-8.17-12.84-4.17-3.85-7.75-3.62-11.57,.62-2.65,2.95-3.93,6.53-4.64,10.35-1.49,8.04-1.79,16.19-1.94,24.32-.56,31.37,2.02,62.54,6.58,93.56,.53,3.63-.02,5.88-3.53,7.75-4.2,2.23-8.16,5.04-11.88,8.03-3.26,2.63-4.66,1.97-6.79-1.5-13.01-21.23-24.5-43.39-38.67-63.91-7.07-10.24-13.3-21.1-21.54-30.49-4.61-5.24-9.67-4.08-11.8,2.57-1.64,5.15-1.37,10.52-.21,15.65,8.48,37.62,13.48,76.17,29.63,111.74,1.23,2.71,.08,3.75-2.25,4.56-7.39,2.58-14.91,4.74-22.56,6.38-21.78,4.65-40.4-1.24-55.99-17.02-1.24-1.25-2.62-2.4-3.62-3.82-2.22-3.17-4.25-2.68-7.02-.51-8.74,6.85-14.52,15.54-17.47,26.23-4.55,16.51-.46,31.65,7.47,46.04,13.68,24.84,34.62,41.82,59.58,54.36,30.65,15.4,63.5,24.04,96.7,31.63,19.44,4.44,39.22,7.57,58.08,14.28,20.95,7.45,26.74,17.32,23.2,39.17-4.27,26.38-11.37,52.06-19.96,77.33-4.83,14.21-10.06,28.27-17.04,41.61-3.52,6.73-3.45,6.66-7.75,.69-3.83-5.31-7.49-10.8-11.88-15.63-59.03-64.92-131.5-87.74-217.1-68.74-9.92,2.2-19.51,5.66-29.21,10.71,5.44,3.11,10.5,5.4,15.16,8.43,7.56,4.91,11,11.64,10.68,20.57-.24,6.68-2.52,12.8-4.57,19.01-1.96,5.91-4.2,11.73-5.85,17.72-2.01,7.27-.2,9.17,7.12,8.12,4.74-.67,9.46-1.55,14.2-2.16,8.23-1.06,16.48-2.28,24.78-.45,8.56,1.9,12.82,7.1,13.04,15.84,.12,4.67-.67,9.21-1.64,13.75-3.33,15.59-6.63,31.19-10.06,47.38,3.86-.09,6.35-1.62,8.99-2.63,12.82-4.87,25.43-10.44,39.13-12.52,10.16-1.54,17.85,2.41,22.59,11.51,1.32,2.53,2.41,5.25,3.15,8,2.97,11.1,5.84,22.23,8.56,33.39,.76,3.14,1.79,3.35,3.91,1.17,4.68-4.81,9.41-9.56,14.07-14.39,7.59-7.87,15.77-14.96,25.77-19.63,11.6-5.42,23.28-6.23,35.11-.52,3.1,1.5,4.09,3.11,2.97,6.71-3.94,12.64-7.83,25.32-11.11,38.15-11.55,45.16-3.7,86.74,23.92,124.38,9.2,12.54,21.57,21.7,34.24,30.41,2.86,1.96,4.34,4.17,4.59,7.77,.46,6.84,1.26,13.68,2.37,20.45,.78,4.73,.55,7.99-5.29,8.82-3.44,.49-6.5,2.57-9.28,4.79-8.3,6.65-11.79,16.67-8.85,25.45,.62,1.85,1.15,3.58,3.75,3.53,18.84-.36,37.7,.71,56.51-1.05,5.52-.52,9.02-3.73,10.75-8.91,2.03-6.11,2.7-12.46,3.28-18.83,.47-5.16-.92-13.09,3.28-16.84,2.42-2.16,5.69-3.09,8.89-3.61,7.32-1.2,16.68-1.44,23.92,.47,2.92,.77,4.27,1.73,8.18,1.64,4.25-.1,8.49-.21,12.74-.4,16.27-.74,32.5-2.37,48.55-5.11,2.99-.51,4.89-.09,5.08,3.59,.16,3.17,.79,6.34,1.49,9.45,.84,3.76-.18,4.67-4.11,4.08-14.63-2.2-27.43,2.27-38.65,11.61-3.14,2.61-5.34,5.92-6.24,9.98-1,4.52,.54,8.69,2.6,12.39,1.67,2.99,5.28,1.37,7.97,1.34,18.37-.19,36.74-.56,55.1-.97,4.63-.1,9.25-.59,13.73-1.88,4.78-1.37,8.21-4.3,9.6-9.16,.92-3.21,1.66-6.5,2.14-9.8,1.55-10.77,1.84-21.64,2.2-32.49,.12-3.62,1.48-5.22,5.13-6.01,48.37-10.51,93.47-29.08,135.27-55.59,17.09-10.84,32.61-23.65,45.5-39.33,17.07-20.75,24.48-44.88,23.76-71.58-.1-3.93,.55-5.29,4.65-3.36,5.09,2.39,10.39,2.8,15.74,.28,11.71-5.51,18.35-15.07,21.53-27.21,1.39-5.3-1.31-7.92-6.75-7.31Zm-50.92,4.5c-1.61-.7-3.43-1.88-3.13-4.09,.18-1.29,.47-3.61,1.99-3.26,2.38,.54,1.4,3.45,2.27,4.93,0,1.21-.36,2.75-1.13,2.42Zm3.71-11.98c-1.73,.13-2.55-1.03-2.58-2.62-.03-1.43,.8-2.38,2.26-2.45,1.56-.07,2.18,.93,2.26,2.37-.02,1.36-.38,2.59-1.94,2.71Zm-60.97-141.15c.1-1.26,.87-2.02,2.18-2.07,1.55-.05,2.24,.89,2.5,2.08-.22,1.69-1.04,2.55-2.53,2.51-1.57-.04-2.26-1.05-2.14-2.53Zm-14.2-14.02c.2-1.48,1.23-2.26,2.71-2.06,1.42,.19,2.4,1.09,2.19,2.6-.21,1.46-1.42,1.97-2.59,2.21-1.58-.41-2.51-1.23-2.3-2.75Zm-12.22,14.85c1.54-.03,2.32,1.04,2.42,2.41,.12,1.53-.97,2.37-2.35,2.41-1.45,.05-2.31-.86-2.42-2.45,.1-1.4,.84-2.34,2.35-2.38Zm-99.59,95.67c1.46-.27,2.36,.46,2.74,1.77,.1,1.43-.73,2.14-1.84,2.41-1.51,.37-2.4-.56-2.68-1.91-.27-1.3,.58-2.06,1.78-2.28Zm-13.12-6.24c1.43-.17,2.38,.48,2.64,1.87-.04,1.56-.79,2.5-2.2,2.68-1.42,.18-2.51-.53-2.62-2-.1-1.4,.74-2.38,2.18-2.55Zm16.31-354.48c-.03-2.41,1.36-3.97,3.76-4.09,2.53-.13,3.84,1.44,3.69,3.91-.14,2.38-1.7,3.63-3.96,4.07-2.25-.35-3.46-1.73-3.49-3.88Zm7.31,55.86c-.14,1.43-1.18,2.32-2.55,2.22-1.58-.11-2.57-1.18-2.42-2.85,.13-1.44,1.16-2.12,2.58-2.25,1.56,.31,2.54,1.23,2.38,2.89Zm1.51-43.09c-1.87-.02-2.94-1.24-2.78-3.08,.16-1.86,1.53-2.79,3.29-2.67,1.57,.11,2.54,1.15,2.67,2.85-.36,1.7-1.35,2.92-3.17,2.9Zm24.61-36.14c-1.59,.05-2.61-.98-2.57-2.68,.03-1.67,1.1-2.62,2.63-2.76,1.58-.14,2.05,1.11,2.29,2.45-.21,1.44-.62,2.93-2.34,2.98Zm3.57-37.8c.28-1.8,1.2-3.38,3.3-3.28,1.87,.09,2.62,1.45,2.64,3.26-.28,2.04-1.52,3.04-3.52,2.84-1.56-.16-2.68-1.14-2.42-2.82Zm-1.29,8.41c1.88,.43,3.23,1.55,3.03,3.58-.21,2.1-1.57,3.63-3.79,3.47-2.08-.15-2.93-1.94-2.83-3.79,.1-2.01,1.63-2.95,3.59-3.26Zm-8.17-4.5c.25-2.05,1.74-2.96,3.71-2.87,1.66,.08,2.5,1.14,2.63,2.69-.75,1.93-1.52,3.88-3.86,3.65-1.81-.18-2.68-1.71-2.47-3.46Zm-3,12.49c1.46-.08,2.4,.72,2.29,2.27-.09,1.37-.81,2.43-2.27,2.56-1.58,.14-2.18-.9-2.27-2.32,.05-1.47,.8-2.43,2.25-2.51Zm-.18,31.21c-.15,1.58-1.17,2.67-2.82,2.61-1.69-.06-2.55-1.24-2.47-2.86,.08-1.66,1.16-2.49,2.85-2.61,1.57,.28,2.59,1.18,2.43,2.86Zm-6.21-17.18c1.38,.17,2.43,.87,2.54,2.29,.13,1.75-1.05,2.54-2.65,2.54-1.46,0-2.39-.89-2.32-2.37,.07-1.4,1.02-2.21,2.43-2.46Zm-.65,23.66c1.98-.1,2.89,1.2,2.85,2.98-.04,1.95-1.09,3.23-3.18,3.38-1.89-.14-2.97-1.25-2.93-3.03,.03-1.97,1.25-3.22,3.27-3.33Zm-9.14-32c.17-1.87,1.07-3.27,3.17-3.47,1.69,.04,2.76,.92,2.77,2.57,0,2.2-1.25,3.55-3.48,3.63-1.74,.06-2.61-1.08-2.46-2.73Zm2,25.37c-.25,1.91-1.28,3.13-3.09,3.09-2.04-.05-3.22-1.32-3-3.43,.2-1.87,1.49-2.75,3.3-2.71,2,.04,2.68,1.37,2.78,3.06Zm-7.47-14.65c2.23,.02,2.98,1.49,3.18,3.48-.19,1.8-1.1,3.02-3.02,2.96-2.16-.06-3.06-1.54-3.13-3.5-.06-1.94,1.04-2.96,2.97-2.94Zm-5.92,15.48c1.95-.15,2.77,1.17,3.09,2.87-.14,2.03-1.12,3.32-3.16,3.52-2.05,.2-3.5-.79-3.58-2.86-.09-2.31,1.54-3.37,3.65-3.53Zm-8.11,25.1c1.71,.06,2.7,.89,2.76,2.3,.06,1.42-.96,2.38-2.34,2.54-1.55,.18-2.32-.85-2.43-2.28-.11-1.52,.84-2.26,2.01-2.56Zm-7.33,15.75c1.41-.12,2.47,.65,2.58,2.06,.11,1.44-.91,2.19-2.24,2.48-1.47-.16-2.32-1.03-2.37-2.4-.05-1.23,.82-2.04,2.02-2.14Zm-6.52-34.91c2.04-.14,3.01,1.37,3.55,2.87-.14,2.33-1.26,3.61-3.2,3.83-2.02,.23-3.4-.93-3.64-2.91-.27-2.29,1.11-3.64,3.28-3.79Zm-3.67,60.81c.02,1.88-1.18,2.89-3.04,2.85-1.96-.05-2.82-1.24-2.65-3.13,.16-1.74,1.35-2.36,2.97-2.4,1.63,.16,2.71,1.06,2.72,2.68Zm-6-36.73c1.64,.01,2.54,1.04,2.74,2.73-.1,1.79-1.12,2.94-2.89,3.08-1.93,.15-2.93-1.17-2.92-2.93,.02-1.82,1.24-2.9,3.06-2.88Zm-390.66,36.08c-4.37-.04-8.53-5.51-8.44-11.09,.07-3.96,2.9-7.35,6.1-7.28,3.8,.08,9.67,7.23,9.67,11.78,0,3.69-3.27,6.63-7.33,6.59Zm32.13-.02c-4.48,.03-8.02-2.87-7.91-6.49,.11-3.67,4.61-8.28,8.02-8.23,3.87,.06,7.77,4.56,7.73,8.89-.03,3.51-3.11,5.79-7.84,5.82ZM88.94,504.49c-1.52-.25-2.74-1.15-2.7-2.83,.04-1.81,1.38-2.37,2.99-2.28,1.72,.09,2.41,1.27,2.76,2.63-.4,1.77-1.34,2.75-3.05,2.48Zm8.31-63.67c-1.88,.06-2.96-1.04-2.89-2.94,.06-1.56,.82-2.77,2.55-2.85,2.02-.09,2.66,1.3,2.89,2.89,0,1.82-.91,2.85-2.55,2.9Zm94.63,120.96c-1.48,.18-2.15-.98-2.43-2.13,.07-1.65,.78-2.57,2.25-2.72,1.46-.15,2.52,.52,2.67,1.99,.18,1.71-1.01,2.67-2.5,2.86Zm8.83-15.39c-1.63,0-2.73-.92-2.56-2.7,.14-1.53,1.24-2.17,2.66-2.14,1.5,.04,2.22,1.03,2.43,2.43-.23,1.46-1.12,2.4-2.52,2.41Zm4.56-21.51c-1.29,.02-2.11-.71-2.21-1.97-.12-1.46,.62-2.44,2.13-2.55,1.49-.1,2.29,.78,2.55,2.21-.19,1.45-.99,2.28-2.47,2.3Zm17.17,58.16c-1.63-.16-2.57-1.18-2.32-2.89,.22-1.45,1.26-2.14,2.67-2.11,1.67,.04,2.56,.96,2.64,2.64-.36,1.62-1.37,2.52-3,2.36Zm14.51-32.01c-1.72-.08-2.66-1.07-2.73-2.66-.07-1.68,.98-2.64,2.61-2.68,1.64-.04,2.7,.95,2.75,2.57,.05,1.67-1.11,2.46-2.63,2.77Zm42.21,19.53c-1.53-.04-2.41-.89-2.6-2.26-.24-1.7,.72-2.68,2.37-2.82,1.47-.13,2.47,.72,2.59,2.13,.14,1.6-.81,2.6-2.36,2.95Zm16.21-44.55c-.16,1.43-1.16,2.29-2.56,2.2-1.39-.09-2.37-1-2.14-2.5,.21-1.34,1.15-2.17,2.67-2.25,1.4,.23,2.2,1.09,2.03,2.56Zm3.22,132.38c-1.4-.03-2.44-.93-2.37-2.39,.09-1.83,1.28-2.9,3.11-2.74,1.39,.13,2.16,1.15,2.19,2.59-.31,1.64-1.34,2.57-2.92,2.54Zm216.56,16.63c.17-1.47,1.09-2.31,2.59-2.16,1.48,.15,2.25,1.08,2.06,2.61-.19,1.5-1.28,2.05-2.45,2.32-1.6-.39-2.37-1.29-2.2-2.76Zm-7.05,22.07c1.97-.06,3.44,1.09,3.48,3.11,.04,2.19-1.48,3.34-3.43,3.81-2.33-.15-3.88-1.34-3.87-3.47,.01-2.16,1.71-3.38,3.82-3.45Zm-13.99-63.84c1.43,.21,2.08,1.23,2.17,2.62-.38,1.37-1.11,2.33-2.65,2.04-1.39-.26-2.27-1.25-2.15-2.64,.12-1.43,1.16-2.23,2.62-2.02Zm-41.15-50.16c-2.2,.16-3.6-1.09-3.67-3.35-.06-2.21,1.19-3.45,3.41-3.75,2.19,.09,3.58,1.24,3.7,3.42,.12,2.25-1.34,3.53-3.44,3.68Zm5.52,20.82c-.23,3.16-1.97,5.29-5.25,5.57-2.41,.2-3.92-1.44-3.88-3.85,.05-3.29,1.84-5.42,5.2-5.66,2.48-.18,3.77,1.32,3.92,3.94Zm-5.94-33.54c-.98,.97-2,2.15-3.64,1.75-.37-.09-.91-.64-.91-.97,.05-3.25,.64-6.43,1.67-9.5,.13-.39,1.07-.51,1.84-.85,1.2,1.42,2.88,2.62,3.39,4.2,.68,2.08-.88,3.9-2.35,5.36Zm-2.08,58.79c-.63,2.88-2.12,5.26-5.28,5.21-2.42-.04-3.56-2.2-3.29-4.47,.32-2.72,1.79-4.93,4.87-4.94,2.53,0,3.48,1.85,3.7,4.2Zm-4.14,59.42c1.83-.38,2.5,.93,2.5,2.53,0,2.2-1.29,3.38-3.29,3.9-1.63-.21-2.78-1.09-2.77-2.68,0-2.2,1.62-3.35,3.56-3.75Zm4.37,45.05c-.24,1.9-1.24,2.99-3.12,2.92-1.81-.06-3.05-1.05-2.99-2.95,.06-1.87,1.37-2.91,3.11-2.92,1.8-.01,2.84,1.15,3.01,2.95Zm-2.9-59.81c-.07-3.2,2.12-5.03,5.16-5.11,2.73-.07,4.29,1.75,4.59,4.63-.29,2.75-1.56,4.85-4.63,4.96-2.94,.11-5.04-1.48-5.11-4.48Zm9.64,28.59c2.91,0,4.32,2,4.3,4.7-.03,2.64-1.91,3.83-4.28,4.3-2.57-.39-4.28-1.68-4.3-4.33-.02-2.75,1.4-4.67,4.28-4.67Zm.19-15.28c.15-1.61,.88-2.75,2.61-2.76,1.6-.01,2.19,1.17,2.24,2.52,.06,1.63-.7,2.77-2.51,2.7-1.53-.05-2.18-1.06-2.34-2.46Zm-.41,31.03c.19-2.24,1.67-3.28,3.81-3.48,2.02,.23,3.34,1.24,3.3,3.34-.05,2.39-1.32,4.02-3.8,3.93-2.19-.08-3.51-1.5-3.31-3.8Zm4.08,8.4c1.65,.08,2.69,1.05,2.72,2.72,.02,1.49-.96,2.26-2.42,2.42-1.63-.12-2.84-.97-2.98-2.56-.15-1.69,.97-2.66,2.68-2.58Zm3.01,14.05c1.55-.04,2.4,.79,2.57,2.22,.17,1.46-.52,2.48-2.05,2.62-1.54,.14-2.36-.87-2.6-2.21-.27-1.53,.72-2.29,2.08-2.62Zm.76-40.12c.13-2,1.59-3.01,3.58-3.01,2.34,0,3.32,1.44,3.59,3.63-.45,2.06-1.73,3.47-3.89,3.28-2.14-.18-3.42-1.76-3.28-3.91Zm9,21.88c1.59,.3,2.77,1.11,2.67,2.8-.11,1.83-1.32,2.83-3.16,2.81-1.73-.02-2.62-1.14-2.58-2.75,.05-1.86,1.23-2.79,3.06-2.86Zm.21-100.3c2.25-.31,3.77,.92,3.83,3.19,.08,2.85-1.44,4.76-4.3,5.54-2.2-.27-3.38-1.62-3.51-3.76-.16-2.77,1.2-4.6,3.98-4.98Zm-6.03-7.98c-.11-1.4,.61-2.39,2.18-2.6,1.59,.09,2.69,1,2.81,2.55,.11,1.37-.85,2.39-2.25,2.56-1.76,.21-2.62-.94-2.74-2.51Zm6.67,73.58c1.49-.19,2.29,.78,2.52,2.22,0,1.68-.84,2.81-2.46,2.94-1.43,.12-2.37-.9-2.54-2.3-.22-1.76,.95-2.67,2.48-2.87Zm-.58,13.64c.17-1.98,1.44-3.11,3.46-3.24,2.35,.53,3.68,1.93,3.57,4.36-.09,2.11-1.42,3.33-3.43,3.1-2.29-.26-3.82-1.73-3.6-4.22Zm8.32,32.73c2.46,.05,3.7,1.43,3.83,3.52,.13,2.09-1.27,3.17-3.3,3.16-2.22-.01-3.66-1.26-3.73-3.45-.07-2.07,1.39-3.01,3.2-3.23Zm2.82-67.02c-2.42,.2-3.95-1.25-3.93-3.68,.02-2.17,1.5-3.55,3.62-3.63,2.17-.08,3.44,1.28,3.74,3.39-.11,2.3-1.31,3.75-3.43,3.93Zm5.26,12.45c1.72-.11,2.64,.8,2.95,2.23-.09,1.71-1.01,2.6-2.39,2.73-1.66,.15-2.76-.77-2.85-2.48-.08-1.51,.78-2.37,2.29-2.47Zm1.37,13.16c1.39,0,2.23,.99,2.3,2.5-.35,1.36-1.22,2.16-2.67,2.11-1.32-.05-1.97-.94-1.98-2.17,0-1.49,.97-2.43,2.34-2.43Zm.89,63.47c1.45,.04,2.32,.87,2.54,2.2-.07,1.66-.97,2.52-2.38,2.62-1.7,.12-2.71-.78-2.65-2.57,.05-1.56,1.02-2.29,2.49-2.25Zm-5.39-155.02c3.03-.04,4.83,1.95,4.81,4.84-.02,2.82-1.86,4.61-4.67,5.19-3.17-.3-4.62-2.29-4.76-5.09-.15-3.02,1.61-4.9,4.62-4.94Zm-7.92,41.08c.18-1.62,1.27-2.63,2.88-2.57,1.79,.06,2.89,1.1,2.88,3-.34,1.8-1.24,3.02-3.17,2.84-1.87-.17-2.79-1.42-2.59-3.27Zm-4.74-54.91c2.83-.28,4.5,1.43,4.43,4.32-.09,3.11-1.96,4.85-5,5.56-2.48-.37-3.96-1.84-4.1-4.37-.18-3.22,1.63-5.2,4.68-5.5Zm-6.69-15.58c.18-1.35,1.03-2.21,2.55-2.32,1.47,.18,2.09,1.14,1.93,2.56-.15,1.39-1.01,2.34-2.44,2.29-1.48-.05-2.22-1.09-2.03-2.53Zm.64,91.65c2.87,.03,4.05,2.08,4.54,4.66-.65,2.8-2.2,4.6-5.25,4.46-2.67-.12-4.14-1.83-4.09-4.34,.05-2.91,1.77-4.82,4.8-4.79Zm-9.72-30.61c-2.41,.1-3.9-1.59-3.87-3.93,.03-2.86,1.56-4.86,4.62-5.02,2.59-.14,3.54,1.67,3.96,3.97-.33,2.79-1.73,4.86-4.71,4.99Zm-12.52-192.48c-.56,2.94-2.32,5.54-5.68,5.4-3.05-.13-4.08-2.57-4.2-5.3,.82-3.12,2.27-5.6,5.77-5.34,2.99,.22,4.69,2.28,4.12,5.25Zm-44.48,69.86c-.47-.95-.84-1.96-1.28-3.01q-5.87,7.05-9.3,1.45c-2.3,.8-2.68,4.37-5.26,4.26-2.68-.11-2.21-3.48-3.76-4.9-.22,.06-.4,.06-.51,.15-1.67,1.31-2.44,4.66-4.94,3.77-2.3-.83-2.66-3.81-2.71-6.24-.07-2.95,1.53-5.34,3.76-6.87,1.56-1.08,2.39,1.06,3.13,2.15,1.15,1.7,1.91,2.09,3.54,.31,4.2-4.6,4.37-4.5,7.69,1.85,1.97-2.04,2.68-5.43,5.51-5.29,2.36,.12,1.69,3.46,3.45,5.2,.34,.16,.63-.52,1.13-.83,1.43-.88,1.82-4.35,4.11-2.62,2.08,1.57,3.52,4.27,2.47,7.23-.47,1.32-1.42,2.48-2.2,3.68-1.75,2.68-3.39,2.64-4.81-.28Zm.77,24.61c.01,3.09-.9,6.31-4.43,6.14-3.3-.16-3.49-3.56-3.7-6.25,.22-2.78,.34-6.44,3.49-6.51,3.44-.08,4.63,3.36,4.64,6.62Zm-8.83-1.06c-.38,2.57-.34,6.14-3.59,6.35-3.46,.22-3.78-3.36-3.89-6.02-.13-2.92,.47-6.62,3.78-6.7,3.09-.08,3.38,3.57,3.71,6.38Zm-8.65-2.8c-.07,1.14-.03,1.79-.17,2.4-.57,2.6-.76,6.03-4.08,6.14-3.17,.1-3.59-3.15-3.76-5.62-.24-3.54,.89-7.3,4.49-7.94,3.32-.6,3,3.19,3.52,5.03Zm-10.78,2.58c-.55,2.21-1.29,5.5-3.9,5.27-2.97-.27-1.89-3.78-2.51-5.65,.26-2.99,.51-5.73,2.95-7.52,.83-.61,1.9-.64,2.61,.18,2,2.34,1.5,5.14,.85,7.71Zm21.49-385.21c-1.9,.04-2.94-1.17-2.79-3.02,.13-1.61,1.27-2.56,2.91-2.5,1.68,.06,2.42,1.23,2.64,2.77-.26,1.61-1.14,2.71-2.76,2.75Zm4.74,13.03c-.04,1.47-.91,2.36-2.33,2.5-1.47,.15-2.54-.69-2.64-2.1-.11-1.67,1.04-2.51,2.65-2.71,1.55,0,2.37,.77,2.32,2.31Zm-6.71,12.01c-.31,1.8-1.4,2.85-3.23,2.81-1.86-.05-3.02-1.15-2.82-3.05,.19-1.88,1.59-2.71,3.37-2.6,1.63,.11,2.52,1.17,2.68,2.84Zm-4.16,152.56c2.38,.19,2.78,1.06,1.5,2.99-2.75,4.13-5.54,8.25-9.43,11.4-3.5,2.84-6.11,2.21-7.96-1.86-1.6-3.51-2.12-7.34-2.92-11.08-.61-2.84,.65-3.45,3.95-2.82,4.37,.41,9.61,.97,14.87,1.38Zm43.78,83.7c-.08-3.06,1.66-4.84,4.54-5.07,3.02-.24,4.67,1.52,4.94,4.7-.17,2.94-1.56,5.16-4.81,5.23-3.02,.07-4.59-1.87-4.67-4.86Zm1.9,59.08c.43-.04,.85-.08,1.28-.12,2.03,5.24,3.67,10.58,2.59,16.38-.28,1.49-.65,3.32-2.73,3.37-1.88,.05-2.69-1.45-3.39-2.9-1.44-3.02-1.49-6.08-.33-9.22,.92-2.48,1.72-5,2.58-7.51Zm-2.17-138.67c-2.65,5.01-6.02,9.43-10.7,12.7-3.13,2.19-5.71,1.51-7.41-1.98-1.64-3.35-2.11-7-2.64-10.64-.31-2.15,.79-2.89,2.73-2.88,2.72,0,5.43,0,8.15,0v-.2c2.56,0,5.11,.04,7.67-.01,2.24-.05,3.55,.47,2.21,3.01Zm-10.73,121.32c-3.63-.02-6.74-3.45-6.66-7.33,.08-3.71,3.42-7.07,7.01-7.04,3.77,.03,6.97,3.23,7.01,7.02,.04,3.72-3.63,7.38-7.36,7.36Zm7.22,29.63c-.03,1.42-.75,2.96-2.48,2.96-1.67,0-1.83-1.64-1.88-2.82-.13-3.21-.83-6.52,1.01-10.1,2.12,3.35,3.42,6.46,3.35,9.96Zm-10.9,3.92c-.91,1.89-2.55,2.31-4.28,.69-2.7-2.52-4.32-12.08-2.66-16.12,2.16,1.34,1.4,4.49,3.63,5.82,2.05-1.39,1.25-4.2,3.57-6.56,2.45,5.95,2.17,11.13-.25,16.18Zm-1.62-80.73c4.08-.02,7.33,3.39,7.37,7.76,.04,4.57-3.6,8.4-7.98,8.38-3.96-.01-7.39-3.59-7.48-7.8-.09-4.44,3.67-8.32,8.09-8.34Zm-12.16-66.22c-1.21,1.14-2.68,1.11-3.88,.08-1.18-1.01-2.36-2.15-3.14-3.47-1.27-2.14-3.37-4.67-2.26-6.91,1.24-2.51,4.36,.07,5.87-.72,.84,0,1.01-.04,1.16,0,2.55,.72,6.97-1.38,7.4,1.8,.45,3.29-2.43,6.66-5.14,9.21Zm-.12,130.99c3.13,2.99,3.73,11.22,.92,14.45-1.73,1.99-3.3,1.71-4.5-.43-1.63-2.91-1.38-6.13-1.04-9.3,.04-.41,.64-1.12,.65-1.11,5.73,3.21,1.36-3.74,3.98-3.61Zm-4.06-17c-3.58,.08-7.27-3.04-7.26-6.15,.01-3.32,4.42-6.79,8.59-6.7,3.95,.09,5.45,2.62,5.93,5.61,.02,4.02-3.36,7.15-7.26,7.24Zm-18.62-1.07c-3.16,.15-5.26-1.65-5.08-4.92,.19-3.5,2.52-5.53,5.91-5.66,3.17-.12,4.21,2.31,4.63,5.15-.37,3.19-2.17,5.28-5.46,5.43Zm.46,26.61c-.58,1.41-1.28,3.21-3.28,2.69-1.69-.44-1.54-2.19-1.56-3.59-.03-1.91,.2-3.78,1.79-5.14,1.1,2.08,2.38,2.3,4.03-.55,.63,3.16-.27,4.88-.97,6.59Zm5.9-8.32c2.37,2.25,.53,5.35,2.38,7.28,2.84-1.63,2.6-5.29,5.12-7.75,1.78,6.45-.31,11.38-3.96,15.77-1.67,2-3.53,1.37-4.39-.95-1.77-4.75-1.53-9.44,.84-14.35Zm12.03-58.01c-.01,4.59-3.44,8.23-7.65,8.13-3.98-.1-7.41-3.55-7.32-7.37,.09-4.12,4-7.89,8.16-7.87,3.88,.01,6.82,3.09,6.81,7.12Zm-26.13-9.36c3.64,0,6.57,2.96,6.62,6.68,.04,3.87-3.7,7.5-7.73,7.5-3.73,0-6.72-2.99-6.63-6.62,.1-3.94,3.79-7.55,7.74-7.55Zm29.82,131.53c.28-2.44,.24-5.75,3.49-5.86,2.99-.1,3.69,2.95,4.29,5.44,.18,.76,.2,1.56,.32,2.5-.27,1.26-.44,2.68-.91,4.01-.43,1.22-1.31,2.21-2.73,2.33-1.5,.13-2.26-.92-2.85-2.08-1.02-1.99-1.86-4.09-1.61-6.35Zm5.33-26.99c-.08-2.76,1.54-5.55,3.97-5.55,2.65,0,2.74,3.29,3.17,5.69-.81,2.39-.7,6.29-3.73,6.26-2.98-.03-3.34-3.73-3.41-6.39Zm6.62,22.64c3.27-.1,2.66,3.6,3.22,6-.21,1.07-.35,2.18-.66,3.24-.42,1.42-1.15,2.83-2.84,2.76-1.57-.06-1.8-1.63-2.11-2.82-.28-1.06-.36-2.2-.38-3.3-.03-2.45,.27-5.8,2.76-5.87Zm2.01-21.08c-.17-3.85,.76-9.47,4.31-9.52,4.17-.05,3.45,5.82,4.5,9.24-.63,3.34-.54,8.08-4.32,8.15-3.73,.08-4.34-4.62-4.49-7.87Zm6.66,19.07c2.03,.12,4.12,4.31,3.92,8.27-.65,2.28-.2,6.34-3.57,6.55-3.83,.23-3.94-3.88-4.41-6.74-.62-3.77,1.78-8.22,4.05-8.08Zm3.88-18.69c-.07-3.29,1.26-7.84,3.91-7.75,3.02,.1,2.79,4.88,3.45,7.83-.6,2.8-.47,6.83-3.88,6.77-3.4-.06-3.42-4.05-3.48-6.85Zm1.95,21.87c.48-1.65,.97-3.65,3.04-3.75,2.35-.11,3.14,1.9,3.46,3.81,.28,1.68,.47,3.5,.12,5.13-.43,2-.35,5.13-3.22,5-2.45-.11-3.07-2.82-3.5-5.02-.15-.77-.13-1.57-.2-2.54,.08-.76,.05-1.73,.31-2.63Zm5.63-20.84c.13-2.69,.9-5.67,3.31-5.88,2.66-.24,2.77,3,2.85,5.07,.1,2.51-.13,6.02-2.94,6.23-2.77,.21-2.67-3.31-3.22-5.42Zm2.77,20.92c.23-2.18,.2-5.01,3.12-4.94,2.68,.06,3.08,2.71,3.3,4.97,.04,.47,0,.94,0,2.03-.3,1.78,.23,5.52-2.63,5.6-2.98,.09-3.26-3.65-3.76-6.25-.09-.46-.09-.95-.04-1.41Zm7.29-104.61c-1.52,.05-2.28-1.02-2.34-2.48-.07-1.89,1.24-2.52,2.79-2.54,1.45-.02,2.35,.84,2.43,2.48-.18,1.64-1.33,2.47-2.88,2.53Zm3.83-31.55c-1.38-.2-2.14-1.29-1.93-2.69,.17-1.17,1.06-1.97,2.27-1.9,1.43,.08,2.11,1.09,2.3,2.35-.42,1.43-1.21,2.43-2.64,2.23Zm-5.58-57.24c-4.24-1.33-6.68-4.76-8.55-8.54-.61-1.24,.73-1.68,1.61-1.73,7.16-.42,13.8-3.41,20.87-4.22-.78,4.07-2.4,7.81-4.73,11.21-2.23,3.26-5.47,4.46-9.21,3.29Zm22.32,31.74c-1.71-.02-2.54-.82-2.61-2.26-.06-1.25,.66-2.05,1.9-2.22,1.48-.21,2.44,.57,2.64,1.97,.21,1.5-.83,2.18-1.93,2.51Zm1.15-16.73c-1.52-.04-2.35-.78-2.49-1.97-.15-1.27,.7-2.09,1.92-2.22,1.29-.13,2.09,.67,2.24,1.91,.16,1.33-.77,1.92-1.67,2.28Zm5.76-22.25c-1.4,4.65-4.84,5.6-8.16,2.07-2.66-2.83-4.73-6.2-7.06-9.35,5.38-2.88,10.77-5.75,16.15-8.63,.55,5.35,.62,10.7-.94,15.9Zm6.97,24.35c-1.37-.32-2.13-1.36-1.85-2.77,.27-1.37,1.22-2.22,2.7-1.85,1.36,.34,2,1.36,1.92,2.78-.44,1.37-1.32,2.17-2.77,1.83Zm8.3-36c-1.52,3.64-4.16,4.24-7.22,1.86-2.46-1.91-4.69-4.09-7.02-6.16,4.25-4.26,8.53-8.48,12.74-12.78,1.56-1.59,2.52-1.87,3.04,.73,1.12,5.62,.66,11.09-1.54,16.35Zm22.98-175.96c-1.33-.04-2.05-.76-2.1-2.05-.06-1.38,.39-2.54,1.96-2.72,1.54-.17,2.4,.66,2.43,2.18,.02,1.49-.96,2.23-2.29,2.59Zm-3.51-40.07c.22-1.69,1.05-3.06,3-3.1,1.86-.04,2.29,1.34,2.56,2.62-.34,1.97-1.19,3.29-3.09,3.27-1.66-.02-2.7-1.04-2.47-2.79Zm16.24,87.56c.07,2.58-1.6,3.97-4.04,4.52-2.29-.47-3.9-1.67-3.79-4.12,.11-2.42,1.8-3.68,4.09-3.82,2.25-.13,3.68,1.24,3.74,3.42Zm-2.77-70.36c-.1,1.35-.82,2.31-2.29,2.45-1.72-.38-2.22-1.64-2.17-3.14,.04-1.22,.75-2.11,2.04-2.07,1.68,.05,2.54,1.1,2.41,2.75Zm-1.86-12.6c-1.81,.1-2.44-1.21-2.37-2.83,.08-1.82,.94-3.04,2.92-2.96,1.71,.07,2.53,1.09,2.54,2.74-.2,1.9-1.35,2.96-3.09,3.05Zm.74-10.18c-2.09,.02-3.29-1.26-3.47-3.23-.2-2.22,.87-3.73,3.21-3.88,2.34-.14,3.43,1.3,3.81,3.48-.16,2.19-1.23,3.6-3.55,3.63Zm1.53-10.45c-1.63-.24-2.48-1.25-2.59-2.83-.13-1.75,.87-2.66,2.53-2.62,1.61,.03,2.64,.91,2.62,2.64-.02,1.66-.96,2.55-2.56,2.81Zm3.62-47.87c-.11,1.36-.67,2.73-2.49,2.46-1.93-.29-2.25-2-2.28-3.63-.03-1.43,.59-2.5,2.24-2.36,1.99,.17,2.59,1.52,2.53,3.52Zm-9.7-24.24c1.87,2.83,6.88-2.45,7.52,2.97,.21,1.75-1.39,3.72-2.79,3.03-2.32-1.14-5.55-1.21-6.74-3.98-.44-1.04,.73-1.95,2.01-2.02Zm-1.38,49.45c1.82-.12,2.5,1.07,2.63,2.69-.13,1.62-.82,2.81-2.58,2.86-1.77,.05-2.65-1.05-2.65-2.69,0-1.62,.92-2.75,2.6-2.86Zm-3.58,26.07c1.9-.12,2.43,1.13,2.6,2.71-.16,1.61-.85,2.84-2.62,2.78-1.84-.05-2.31-1.49-2.32-3.02-.01-1.49,.82-2.37,2.34-2.47Zm-4.39-59.54c1.69-.02,2.37,1.25,2.62,2.74-.04,1.68-.83,2.74-2.5,2.83-1.62,.08-2.7-.68-2.77-2.44-.07-1.84,.75-3.1,2.66-3.13Zm-4.58,74.16c-1.68-.02-2.63-1.07-2.63-2.7,0-2.1,1.28-3.23,3.29-3.14,1.67,.08,2.33,1.37,2.45,2.93-.3,1.78-1.24,2.93-3.11,2.91Zm2.77,48.08c-.11,1.3-.51,2.58-2.01,2.65-1.23,.06-1.92-1-2.02-2.16-.13-1.41,.57-2.51,2.01-2.61,1.28-.09,1.87,.89,2.02,2.12Zm-1.44-58.58c-1.75,.07-2.6-1.12-2.51-2.74,.09-1.73,.98-3.06,2.89-3.14,1.79-.08,2.42,1.15,2.6,2.61-.34,1.82-1.08,3.2-2.97,3.27Zm-1.98-32.71c1.7-.06,2.56,1.04,2.8,2.69-.24,1.67-.79,3.22-2.75,3.34-1.89,.11-3.05-1-3-2.91,.04-1.8,1.06-3.06,2.95-3.12Zm-1.3,53.94c1.67,.06,2.79,.9,3.08,2.46,.32,1.72-.77,2.73-2.35,2.95-1.68,.24-2.78-.77-2.98-2.37-.21-1.59,.59-2.73,2.25-3.05Zm-1.44,15.06c-.04,1.48-.73,2.52-2.15,2.67-1.59,.17-2.18-.99-2.22-2.39-.04-1.23,.51-2.13,1.83-2.3,1.54-.2,2.32,.59,2.54,2.02Zm-3.52-44.26c1.79-.04,2.4,1.29,2.42,2.81,.02,1.61-1.01,2.51-2.38,2.94-1.78-.2-2.68-1.18-2.81-2.76-.16-1.93,.94-2.95,2.77-2.99Zm-2.16,9.81c1.95-.04,2.8,1.19,2.97,2.8-.25,2.06-1.22,3.2-3.11,3.2-1.93,0-2.98-1.18-2.94-3.03,.04-1.85,1.23-2.94,3.08-2.98Zm-15.1,50.88c1.86,.33,2.72,1.53,2.63,3.32-.07,1.42-.98,2.4-2.44,2.38-1.84-.03-2.95-1.07-2.89-2.99,.05-1.67,1.03-2.55,2.7-2.71Zm-2.74-35.18c-1.69,.13-2.71-.75-2.79-2.49-.07-1.52,.89-2.25,2.03-2.65,1.87,.09,2.91,.99,3.03,2.61,.1,1.46-.81,2.42-2.27,2.53Zm4.65,.06c-.04-1.52,1.06-2.17,2.5-2.35,1.7,.21,2.47,1.35,2.46,2.91,0,1.44-.89,2.4-2.41,2.32-1.73-.1-2.51-1.33-2.55-2.88Zm.39,51.09c.17-1.46,1.08-2.19,2.57-2.2,1.53,.26,2.12,1.29,1.89,2.7-.24,1.49-1.33,2.08-2.76,1.87-1.31-.19-1.85-1.13-1.71-2.37Zm3.67-22.37c-1.53-.06-2.07-1.23-2.05-2.61,.02-1.27,.73-2.09,2.02-2.08,1.47,0,2.21,.93,2.38,2.37-.12,1.44-.89,2.38-2.35,2.32Zm1.01-11.66c-.15-1.5,.6-2.38,2.11-2.51,1.49-.13,2.32,.68,2.71,2.1-.12,1.36-.78,2.34-2.25,2.49-1.48,.15-2.42-.57-2.57-2.07Zm5.95,20.34c1.52-.01,2.29,.99,2.26,2.45-.03,1.68-1.03,2.54-2.66,2.7-1.42-.29-2.36-1.1-2.35-2.55,0-1.71,1.13-2.58,2.74-2.6Zm-.44-30.6c-1.97-.27-3.26-1.5-3.11-3.53,.15-2.01,1.79-2.48,3.49-2.38,2.09,.12,3,1.46,3.2,3.22-.56,2.03-1.76,2.93-3.58,2.69Zm-4.78-34.16c1.79-.19,2.58,.8,2.7,2.47-.06,1.66-.89,2.77-2.52,2.89-1.66,.12-2.66-.82-2.71-2.54-.04-1.7,.89-2.64,2.53-2.82Zm-1.7,9.52c1.97-.17,2.78,1.07,3.08,2.82-.24,1.76-1.11,3.04-2.99,3-1.85-.04-2.85-1.23-2.78-3.09,.06-1.65,1.09-2.6,2.69-2.73Zm-5.95-12.53c1.83-.24,2.42,1.05,2.67,2.28-.06,1.92-.78,3.16-2.43,3.3-1.68,.14-2.65-.94-2.69-2.59-.03-1.6,.81-2.77,2.45-2.98Zm-3.9,9.74c1.78-.23,2.48,.92,2.69,2.3-.1,1.99-.92,3.3-2.77,3.35-1.68,.05-2.52-1.11-2.46-2.76,.06-1.6,.94-2.68,2.53-2.88Zm-2.41,53.96c-.17,1.42-1.25,2.09-2.76,2.12-1.38-.26-2.14-1.19-2.13-2.6,0-1.52,1.08-2.34,2.44-2.32,1.64,.03,2.65,1.12,2.45,2.8Zm.11,14.73c-.21,1.43-.96,2.41-2.47,2.32-1.45-.09-2.36-1.07-2.31-2.51,.06-1.42,.98-2.38,2.47-2.33,1.51,.05,2.17,1.09,2.31,2.52Zm-5.77-39.39c.13-1.2,.77-2.17,2.05-2.15,1.51,.02,2.19,1.13,2.21,2.52,.02,1.48-.79,2.31-2.41,2.33-1.44-.27-2.01-1.26-1.85-2.7Zm-4.62-7.05c1.53-.18,2.33,.95,2.4,2.3,.09,1.58-.79,2.79-2.41,2.95-1.47,.14-2.25-.85-2.41-2.29,.04-1.62,.81-2.77,2.42-2.96Zm1.85,26.58c.08,1.62-.69,2.84-2.36,3.02-1.7,.18-2.71-.8-2.76-2.51-.05-1.74,1.09-2.51,2.63-2.85,1.48,.08,2.42,.85,2.49,2.33Zm-5.79-13.05c1.58,.07,2.71,1.06,2.65,2.71-.06,1.61-1.24,2.42-2.74,2.74-1.68-.38-2.39-1.52-2.31-3.09,.07-1.43,.95-2.42,2.4-2.36Zm-8.83,7.72c.29-2.22,1.74-3.24,3.91-3.37,2.1,.26,3.18,1.54,3.04,3.53-.17,2.46-1.78,3.7-4.19,3.5-2.08-.18-3.03-1.61-2.76-3.66Zm61.98,77.97c6.08,23.64-5.47,54.19-25.6,67.78-6.51,4.4-14.1,3.38-21.08,4.41-19.64-.18-38.09-3.66-53.63-16.29-18.06-14.67-24.35-34.08-20.48-56.46,3.9-22.6,18.43-36.88,39.65-43.81,32.56-10.64,72.74,11.69,81.15,44.37Zm-103.42-100.5c3.66,.14,5.27,2.45,5.77,6.03-.26,3.4-2.41,5.45-5.78,5.57-3.47,.12-5.63-2.05-5.97-5.54-.32-3.19,2.69-6.18,5.97-6.05Zm-1.63-13.19c2.27-.17,3.33,1.43,3.88,3.37-.16,2.27-1.38,3.72-3.45,4.02-2.25,.33-3.7-1.16-3.95-3.22-.29-2.38,1.12-3.99,3.52-4.17Zm5.62,61.42c-.18,1.56-.88,2.77-2.57,2.94-1.94,.2-3.09-.87-3.1-2.76-.01-1.67,1.14-2.66,2.74-2.76,1.66-.1,2.63,.91,2.94,2.58Zm31.23-105.04c2.61,.28,3.78,1.76,3.64,4.18-.14,2.45-1.66,3.91-4.03,3.73-2.24-.18-3.95-1.63-3.71-4.1,.23-2.3,1.81-3.61,4.09-3.8Zm-3.65-23.17c-1.25,.16-1.71-1.28-1.57-2.46,.25-2.13,.89-4.24,3.37-4.53,1.34-.15,1.46,1.38,1.72,2.61-.73,1.77-1.1,4.07-3.52,4.38Zm2.15,78.2c-1.68-.14-2.49-1.52-2.37-3.07,.14-1.79,1.34-2.93,3.2-2.86,1.78,.06,2.4,1.31,2.31,3.02-.42,1.61-1.19,3.08-3.14,2.92Zm1.12,8.6c-.6,2.67-2.16,4.53-5.11,4.47-2.39-.05-3.78-1.6-3.75-4,.04-3.01,1.94-4.76,4.73-4.89,2.58-.12,3.82,1.82,4.14,4.42Zm-3.8-23.63c-2.74-.15-3.92-2.2-3.76-4.62,.18-2.76,1.78-5.05,4.74-5.03,2.86,.02,3.96,2.25,3.98,5.13-.46,2.68-1.85,4.69-4.96,4.52Zm-3,9.6c-.42,2.23-1.14,4.27-3.54,4.54-2.33,.26-4.05-1.09-4.2-3.46-.16-2.5,1.27-4.21,3.87-4.38,2.28-.15,3.27,1.46,3.87,3.31Zm-13.03,19.84c-2.78,.07-4.47-1.9-4.22-4.67,.27-3.05,2.26-5.04,5.4-4.86,2.64,.15,4.21,1.97,4.52,4.81-.69,2.98-2.83,4.65-5.71,4.72Zm2.66,18.02c-.39,2.2-1.59,3.49-3.85,3.5-2.3,0-3.64-1.34-3.6-3.55,.05-2.22,1.61-3.5,3.75-3.53,2.24-.03,3.36,1.48,3.69,3.59Zm2.05-50.8c-2.04-.03-3.13-1.56-3.04-3.55,.11-2.39,1.5-3.91,3.95-3.8,1.98,.09,3.17,1.33,3.1,3.69-.32,2.13-1.63,3.68-4.01,3.65Zm-1.24-14.66c-2.12-.03-3.72-1.22-3.68-3.44,.04-2.28,1.39-3.85,3.84-3.91,2.42-.05,3.1,1.68,3.4,3.54-.31,2.26-1.27,3.83-3.56,3.8Zm-3.18,27.98c-.36,2.45-1.62,4.27-4.2,4.3-2.71,.03-3.97-1.99-3.88-4.42,.09-2.41,1.59-4.38,4.12-4.38,2.6,0,3.72,2.01,3.95,4.5Zm22.52-55.89c-1.58,.05-2.21-.94-2.25-2.38-.04-1.45,.65-2.47,2.12-2.59,1.61-.13,2.07,1.06,2.23,2.23-.05,1.57-.5,2.68-2.1,2.74Zm2.08-21.12c-.44,1.61-.2,4.01-2.58,4.26-1.45,.15-1.61-1.62-1.7-2.87-.13-1.83,.85-3.03,2.49-3.49,1.57-.44,1.73,.8,1.8,2.1Zm-9.85-13.17c1.22-1.23,2.87-1.24,3.72,.06,1.35,2.09,6.3-.14,5.27,3.89-1.27,4.93-4.35-1.9-6.31,.49-1.59,.38-2.93,.14-3.6-1.46-.5-1.18,.13-2.19,.93-2.99Zm1.12,28.71c1.55,.12,1.95,1.34,1.99,2.76-.15,1.54-.86,2.69-2.59,2.65-1.51-.03-2.28-1.12-2.27-2.49,.02-1.76,.89-3.08,2.87-2.92Zm.31,27.87c2.23,.05,3.46,1.58,3.34,3.79-.14,2.62-1.88,3.83-4.22,4.2-2.12-.43-3.85-1.17-3.69-3.62,.18-2.79,1.79-4.42,4.58-4.36Zm-7.35-30.47c1.85,.09,2.91,1.26,2.82,3.08-.07,1.55-1,2.6-2.71,2.74-1.83-.25-2.85-1.39-2.79-3.17,.05-1.54,.95-2.74,2.68-2.66Zm-.08,14.29c2.34,.28,3.47,1.63,3.43,3.82-.04,2.3-1.48,3.42-3.69,3.45-2.02,.02-3.41-1.1-3.45-3.12-.04-2.38,1.49-3.66,3.7-4.14Zm-6.28-14.76c1.51-.04,2.14,1.08,2.35,2.53-.05,1.41-.88,2.3-2.28,2.45-1.51,.16-2.33-.76-2.49-2.21-.19-1.76,.76-2.73,2.42-2.77Zm-3.79,13.82c1.66-.01,2.71,.96,2.63,2.61-.09,1.92-1.26,3.11-3.21,3.45-1.74-.47-2.74-1.63-2.65-3.37,.1-1.89,1.49-2.67,3.22-2.68Zm-2.03,30.88c-.19,2.76-1.71,4.55-4.41,4.63-2.31,.07-3.88-1.57-4-3.89-.14-2.69,1.22-4.64,4.08-4.83,2.7-.17,3.92,1.58,4.32,4.08Zm-6.16-31.64c1.82,0,2.95,1,3.14,2.91-.35,1.75-1.27,3-3.14,3.04-1.91,.04-2.93-1.09-2.97-2.99-.04-1.97,1.11-2.97,2.97-2.96Zm-1.96,12.14c2.46,0,3.78,1.69,3.8,3.99,.02,2.77-1.7,4.25-4.34,4.62-2.43-.34-3.98-1.63-3.86-4.03,.13-2.62,1.52-4.58,4.4-4.57Zm-7.49,14.29c2.3,.05,3.47,1.53,3.21,3.78-.29,2.45-1.79,3.94-4.2,4.34-2.24-.39-3.65-1.67-3.6-3.82,.07-2.79,1.8-4.36,4.59-4.3Zm-8.87,16.7c2.41,.01,3.7,1.5,3.89,3.93-.44,2.51-1.82,4.06-4.48,3.88-2.14-.15-3.68-1.43-3.62-3.63,.07-2.52,1.58-4.19,4.22-4.18Zm-2.9,13.09c2.87,.25,4.99,1.82,5.28,5.22,.26,3.06-2.75,6.32-5.87,6.3-3.34-.03-5.34-1.9-5.64-5.22-.29-3.16,2.68-6.22,6.23-6.29Zm-19.37,38.14c.23-1.57,1.25-2.44,2.9-2.45,1.56,.26,2.71,1.01,2.41,2.75-.27,1.52-1.34,2.49-2.96,2.44-1.69-.05-2.59-1.05-2.35-2.74Zm-5.03-9.23c.22-1.37,1.22-2.13,2.81-2.03,1.37,.19,2.12,1.06,2.06,2.53-.07,1.53-1.11,2.3-2.47,2.27-1.64-.03-2.67-1.07-2.4-2.76Zm-3.66,6.18c1.85-.16,2.91,.98,3.34,2.77-.17,1.79-1.14,2.94-2.95,3.14-1.91,.21-3.07-.77-3.17-2.68-.1-1.87,.96-3.07,2.78-3.22Zm-23.71-4.03c-.27,1.7-1.25,2.7-2.89,2.54-1.33-.14-2.4-1.05-2.32-2.53,.09-1.74,1.35-2.41,2.94-2.38,1.51,.03,2.27,.91,2.27,2.37Zm-3.14-16.26c-2.08,.09-3.14-1.32-3.18-3.28-.04-1.9,1.16-2.85,3.01-2.83,1.9,.03,2.75,1.23,2.97,3.03,.03,1.88-1.03,3.01-2.79,3.08Zm-2.66-18.75c3.01-.06,4.92,1.76,4.97,4.67,.06,3.03-1.69,5.37-4.9,5.29-2.84-.07-4.55-2.02-4.73-5.07,.14-2.93,1.59-4.83,4.66-4.89Zm-4.98-10.68c2.12,.06,2.75,1.84,2.83,3.75-.03,1.7-.31,3.46-2.39,3.45-2.04-.01-3.08-1.6-3.2-3.52-.12-1.9,.53-3.74,2.76-3.68Zm-28.31,28.26c-2.06-.15-3.66-1.39-3.41-3.7,.24-2.16,1.29-4.01,3.88-3.87,2.23,.12,3.25,1.63,3.49,3.76-.41,2.24-1.48,3.99-3.97,3.81Zm1.02,19.63c-.09,1.4-.97,2.29-2.52,2.33-1.41-.36-2.22-1.27-2.06-2.73,.16-1.53,1.23-2.15,2.7-1.95,1.32,.18,1.95,1.18,1.88,2.35Zm-3.6-97.46c-.77-.72-1.47-1.13-1.82-1.74-.94-1.64-1.77-3.39-.67-5.29,.3-.52,.9-1.04,1.57-.67,1.83,1.03,1.18,3.05,1.67,4.61,.27,.86,.43,1.85-.74,3.1Zm.8,57.29c-.03-1.42,.85-2.49,2.33-2.38,2.2,.17,2.68,1.91,2.7,3.74,.02,1.5-.44,2.8-2.28,3.07-2.08-.73-2.7-2.47-2.74-4.42Zm6.01,45.79c1.5-.12,2.19,1,2.52,2.34-.28,1.37-.94,2.43-2.46,2.43-1.29,0-2.04-.86-2.14-2.1-.11-1.45,.62-2.55,2.08-2.66Zm3.4-49.38c2.08-.28,2.89,1.16,2.86,2.94-.02,1.41-.32,2.91-2.16,3.28-1.72-.2-2.42-1.35-2.57-2.91-.14-1.51-.01-3.05,1.86-3.31Zm-1.53,16.71c0-1.81,.93-3.01,2.83-3.09,1.83-.08,3.09,.83,3.13,2.73,.05,2.03-1.17,3.14-3.13,3.43-2.01-.06-2.82-1.3-2.83-3.07Zm8.82-26.22c-2.72,.13-3.91-1.92-4.06-4.32-.14-2.31,1.05-4.17,3.54-4.13,2.53,.05,3.25,2.11,3.47,4.2,0,2.2-.63,4.14-2.95,4.25Zm-.22,14.82c-1.89-.29-2.17-2.09-2.3-3.7-.1-1.16,.21-2.2,1.62-2.44,2.03,.52,2.06,2.25,2.22,3.77,.11,1.08-.04,2.59-1.54,2.36Zm-1.57,17.75c2.58-.03,3.73,1.43,3.97,3.9-.19,2.13-1.31,3.65-3.55,3.7-2.33,.05-4.07-1.16-4.18-3.67-.11-2.44,1.17-3.9,3.76-3.93Zm1.68,22.23c1.54-.07,2.37,.98,2.39,2.38,.02,1.42-.91,2.44-2.35,2.5-1.51,.07-2.2-1-2.42-2.4,.16-1.44,.91-2.42,2.38-2.49Zm1.06-29.61c.07-2.34,1.46-3.96,3.94-3.81,2.24,.14,3.16,1.82,3.37,3.73-.53,2.37-1.36,4.29-4.01,4.04-2.25-.21-3.36-1.88-3.3-3.97Zm5.74-12.38c-1.66,.05-2.2-1.62-2.29-3.12-.09-1.54,.43-3.07,2.09-3.27,2.27-.26,1.55,1.85,2,2.77-.23,1.63,.11,3.56-1.81,3.62Zm3.68,39.51c1.44-.1,2.31,.71,2.64,2.1-.19,1.4-.91,2.44-2.33,2.49-1.46,.04-2.29-.97-2.3-2.4-.01-1.23,.72-2.1,1.99-2.19Zm-2.56-61.19c1.94-.09,3.26,1.29,3.42,3.27,.18,2.12-.78,3.65-2.93,4.18-2.2-.08-3.28-1.42-3.39-3.31-.11-1.99,.5-4.03,2.9-4.14Zm-2.09-5.28c-.23,1.76-1.18,3.01-3.12,2.72-1.71-.26-2.96-1.38-2.9-3.18,.06-1.96,1.31-3.1,3.31-3.31,2,.49,2.99,1.74,2.72,3.77Zm-12.55-41.52c2.43,3.75,2.73,4.8,2.79,8.77-3.07-2-3.52-3.26-2.79-8.77Zm-.96,21.47c.42-4.59,5.19-1.55,6.72-3.91,1.84,.28,2.44,1.47,2.12,2.76-.83,3.37-4.44,2.61-6.65,3.94-1.26,.76-2.33-1.28-2.19-2.79Zm-.19,10.09c.15-1.26,1.13-1.88,2.34-1.83,1.58,.06,2,1.24,2.16,2.52-.23,1.23-.82,2.26-2.1,2.15-1.58-.14-2.6-1.15-2.4-2.84Zm.77,8.82c1.55-.17,2.38,.57,2.51,2.11,0,1.42-.49,2.59-2.02,2.75-1.5,.16-2.36-.76-2.51-2.23-.15-1.48,.47-2.46,2.03-2.64Zm-5.06-38.17c2.51,.56,1.96,3.24,2.41,5.12,.22,.9,.55,2.75-1.2,2.31-2.26-.56-1.94-2.99-2.46-4.54,.1-1.31,.07-3.15,1.26-2.89Zm.28,45.9c3.03-.07,4.84,1.81,4.82,4.72-.02,3.03-2.47,4.14-4.85,4.87-2.85-.49-4.7-1.81-4.66-4.69,.04-2.97,1.69-4.83,4.69-4.9Zm-5.3-57.25c1.08,.49,.95,1.54,1.13,2.08-.07,2.02-5.72,6.14-7.29,5.63-1.18-.38-1.85-1.26-1.92-2.47-.11-1.73,6.47-5.97,8.08-5.24Zm-7.91,14.71c2.2,.39,1.4,2.81,1.93,4.29-.27,.98,.57,2.76-1.34,2.39-1.84-.36-2.18-2.22-2.26-3.82-.06-1.22,.09-3.14,1.66-2.87Zm-.86,40.34c0-2.5,1.55-4.17,4.06-4.38,2.4-.2,3.83,1.11,4,3.89-.11,2.49-1.47,4.24-4.27,4.38-2.52,.12-3.78-1.61-3.79-3.88Zm1.69,25.5c-.15-2.24,1.21-3.42,3.21-4.05,2.32,.23,3.3,1.81,3.4,3.82,.09,2.05-.8,3.89-3.12,3.93-2.22,.03-3.34-1.59-3.48-3.7Zm-26.11,52.09c3.2-.25,4.67,1.96,4.83,4.7,.19,3.14-1.74,4.92-4.92,5.39-2.74-.4-4.82-1.68-4.83-4.77-.02-3.17,1.81-5.07,4.92-5.31Zm-6.09-3.2c-.34,3-2.3,4.73-5.33,4.72-2.71,0-4.54-1.85-4.5-4.56,.05-2.86,1.94-4.85,4.81-4.94,2.81-.09,4.82,1.4,5.02,4.78Zm-5.35-11.59c-.67,2.38-2.09,4.1-4.68,3.87-2.24-.19-4-1.51-3.64-4.09,.35-2.47,1.89-4.08,4.55-3.94,2.5,.13,3.5,1.84,3.76,4.16Zm-8.59-15.6c2.08-.04,3.3,1,3.35,3.13,.05,2.15-1.26,3.08-3.04,3.32-2.34-.18-3.27-1.44-3.25-3.47,.02-1.9,1.05-2.94,2.95-2.97Zm-8.61-7.32c1.68,.12,2.72,1,2.73,2.65,0,1.7-.7,3.15-2.65,3.28-1.91,.12-2.96-1.01-3.01-2.85-.06-1.92,1.28-2.7,2.93-3.08Zm.15,11.67c2.32,.12,3.81,1.38,3.91,3.78,.1,2.48-1.38,3.82-3.81,3.84-2.35,.02-4.05-1.07-4.06-3.61,0-2.42,1.51-3.68,3.96-4.01Zm-.59,12.87c3.08-.09,4.52,1.78,4.74,4.79-.26,2.95-1.94,4.67-4.88,4.63-2.91-.04-4.87-1.74-4.8-4.74,.07-2.95,2.05-4.6,4.95-4.68Zm-10.04-42.4c.21-1.7,1.47-2.28,2.79-2.51,1.95,.46,3.16,1.48,3.09,3.3-.08,1.93-1.49,2.81-3.28,2.55-1.75-.26-2.84-1.44-2.6-3.35Zm.39,30.14c-2.03-.04-3.22-1.39-3.34-3.38-.11-1.95,1.15-3,2.97-3,2.01,0,3.27,1.1,3.32,3.26-.2,1.8-1.04,3.16-2.96,3.12Zm1.57,11.28c-.44,2.17-1.61,3.96-4,3.91-2.53-.06-4.24-1.72-4.05-4.33,.17-2.27,1.7-3.86,4.15-3.73,2.39,.13,3.64,1.71,3.91,4.15Zm-2.41-30.22c1.38,.03,2.42,.83,2.62,2.29,.2,1.53-.6,2.37-2.09,2.57-1.62-.12-2.84-.87-2.95-2.53-.1-1.5,.99-2.36,2.42-2.33Zm-5.26-28.96c2.02,.14,3.2,1.09,3.16,2.99-.04,2.06-1.35,3.26-3.34,3.33-1.88,.06-2.98-1.19-3.06-2.99-.09-2.21,1.58-2.89,3.24-3.32Zm-3.93,11.1c.13-1.47,1.17-2.25,2.53-2.19,1.45,.06,2.11,1.12,2.17,2.56-.29,1.39-1.09,2.22-2.57,2.12-1.49-.1-2.25-1.02-2.13-2.49Zm-.68,28.97c-1.61-.18-2.62-1.13-2.7-2.72-.08-1.63,.86-2.75,2.53-2.8,1.71-.06,2.59,1.16,2.75,2.68,.19,1.73-1.02,2.49-2.59,2.85Zm2.37-17.18c.05,1.67-.97,2.73-2.6,2.82-1.55,.08-2.27-1.07-2.3-2.47-.03-1.44,.7-2.41,2.28-2.48,1.42,.04,2.57,.56,2.61,2.13Zm-8.7-25.33c.03,1.78-.91,2.92-2.55,3.45-1.27,.03-1.74-.74-1.78-1.77-.06-1.77,.69-3.08,2.55-3.37,1.15-.18,1.76,.63,1.78,1.69Zm-5.66-14.43c.18-1.88,1.47-2.62,3.26-2.74,1.76,.23,2.35,1.38,2.07,2.98-.29,1.68-1.22,3.02-3.11,2.81-1.64-.18-2.37-1.46-2.22-3.05Zm3.97,38.12c-1.89-.11-2.89-1.27-2.69-3.15,.16-1.58,1.17-2.71,2.8-2.66,1.96,.05,2.5,1.61,2.79,3.24-.35,1.59-1.2,2.67-2.9,2.57Zm4.01-13.19c-.15,1.72-1.09,2.93-3.03,2.98-1.73-.25-2.48-1.44-2.4-2.98,.08-1.77,1.15-3.03,3.02-2.94,1.67,.08,2.55,1.34,2.41,2.93Zm-2.24-14.26c.2-1.83,1.4-2.81,3.27-2.76,1.71,.05,2.73,1.04,2.65,2.71-.09,1.97-1.2,3.22-3.33,3.37-1.85-.31-2.78-1.49-2.58-3.32Zm6.16,58.87c-2.01-.02-3.17-1.32-2.98-3.37,.16-1.83,1.41-2.81,3.2-2.71,1.83,.1,2.71,1.31,2.84,2.95-.29,1.92-1.29,3.15-3.06,3.13Zm2.44,20.35c-.22-3.16,1.88-4.48,4.69-5.01,2.89,.4,4.78,1.82,4.71,4.95-.07,2.81-1.78,4.57-4.44,4.74-3.01,.19-4.76-1.76-4.96-4.68Zm7.93,23.02c-.02-2.76,1.68-4.45,4.46-4.51,2.74-.05,4.37,1.49,4.77,4.04-.09,3.03-1.59,4.81-4.29,4.96-2.9,.17-4.92-1.44-4.94-4.5Zm1.44,109.55c-2.02,1.26-4,2.66-6.18,3.58-6.75,2.88-9.69,.85-9.53-6.79,.02-.25,.04-.89,.13-1.52,.9-6.73,1.72-7.12,7.48-3.71,2.6,1.54,5.27,2.98,7.96,4.36,2.58,1.33,2.38,2.68,.14,4.08Zm19.09,8.71c-3.23,2.4-6.69,4.31-10.13,4.8-3.22,.13-4.98-1.02-5.57-3.54-.4-1.69-.69-3.46-.7-5.19-.05-6.56,.65-6.9,6.45-3.79,3.09,1.65,6.29,3.1,9.45,4.61,1.69,.81,2.26,1.8,.5,3.11Zm-4.24-117.27c-3.05-.38-5.25-2.23-5.11-5.85,.14-3.61,2.57-5.52,6-5.46,3.17,.06,5.47,1.83,5.73,5.26,.24,3.1-2.88,6.03-6.63,6.04Zm5.86-13.55c.12-2.81,2.08-4.33,4.76-4.26,2.51,.06,4.11,1.68,4.2,4.27,.11,2.97-1.85,4.13-4.52,4.57-2.59-.43-4.57-1.69-4.45-4.57Zm16.69,139.97c-2.23,2.41-4.7,6.14-8.14,4.81-4.31-1.66-3.4-6.7-4.07-10.47-.68-3.34,.63-4.14,3.62-3.02,2.24,.84,4.52,1.55,6.78,2.33,5.44,1.88,5.61,2.26,1.8,6.36Zm26.34,4.51c-2.67,3.19-5.46,6.25-8.94,8.59-3.28,2.21-6.05,1.53-8.17-1.7-2.42-3.69-3.36-7.88-3.93-12.16-.34-2.26,.7-2.99,2.75-2.45,5.85,1.56,11.68,3.2,17.55,4.72,2.31,.6,1.85,1.69,.75,3.01Zm20.37,5.42c-1.88,2.79-3.92,5.47-6.56,7.58-2.87,2.29-5.38,1.8-6.92-1.62-1.32-2.93-1.83-6.1-2.07-9.29-.2-2.18,.43-3.47,2.95-2.88,3.73,.87,7.45,1.79,11.21,2.54,2.59,.52,2.69,1.76,1.4,3.67Zm26.36,4.98c-3.37,4.24-6.79,8.43-11.46,11.36-3.47,2.18-6.45,1.49-8.61-1.87-2.83-4.42-3.72-9.41-3.75-14.59,0-1.52,.55-2.46,.86-2.42,8.24,1.67,15.09,3.05,21.94,4.47,1.99,.41,2.23,1.52,1.02,3.05Zm-57.95-68.48c-10.86-10.54-15.78-23.75-16.08-42.53-.71-26.7,30.66-62.03,73.1-49.48,12.67,3.75,24.15,9.39,32.73,19.71,15.35,18.47,15.28,39.07,7.78,60.51-2.23,6.38-5.79,12.1-9.88,17.44-6.69,8.74-14.94,14.4-26.52,14.99-23.21,1.19-44.1-4.11-61.14-20.65Zm76.29,81.99c-2.83,.01-8.06-8.29-8.62-12.94-.21-1.73-.11-1.8,2.48-1.7,4.96,.75,10.13,1.54,15.31,2.3,2.19,.32,2.72,1.36,1.5,3.23-.09,.13-.16,.27-.26,.4-2.8,3.72-4.72,8.68-10.4,8.71Zm9.17,107.32c2.41,.24,3.4,1.8,3.35,3.92-.05,2.4-1.51,4.02-3.9,3.97-2.01-.04-2.98-1.68-3-3.67-.03-2.4,1.05-3.94,3.55-4.22Zm2.37,35.55c-.44,.65-1.1,1.33-1.91,.76-.4-.28-.77-1.27-.58-1.64,1.24-2.35,1-5.42,3.42-7.67,.89,3.3,.77,6.03-.93,8.54Zm-6.44-5.14c.4-1.12,.83-2.36,2.42-2.98,.78,1.66,.35,2.89,.06,4.09-.39,1.62-.13,3.56-1.87,4.6-.24,.15-.99-.09-1.16-.36-1.19-1.89-.05-3.63,.56-5.35Zm.83,24.37c2.63-.2,1.77,2.84,3.01,4.49,.49-.38,.92-.8,1.42-1.08,1.4-.76,2.06-3.71,4.02-2.32,2.11,1.5,2.74,4.16,2.16,6.85-.1,.44-.43,.85-.72,1.22-1.34,1.72-2.32,4.28-4.7,4.34-2.74,.06-1.81-3.27-3.4-4.91-2.09,.82-3.1,4.5-4.88,3.26-2.3-1.59-1.26-4.95-.8-7.57,.39-2.18,1.74-4.12,3.88-4.29Zm3.23,31.79c-.16,3.14-.48,6.16-3.05,8.28-.96,.8-2.21,.76-2.97-.29-1.89-2.6-2.06-5.58-1.51-8.64,.14-.78,.26-1.62,.64-2.28,.85-1.48,1.61-3.4,3.7-3.23,2.15,.17,2.43,2.23,2.93,3.87,.23,.74,.18,1.57,.25,2.28Zm-11.32-32.16c.6-.69,1.28-1.57,2.35-1.21,1.02,.34,1.18,1.39,1.31,2.34,.63,4.84-1.93,7.88-6.01,10.72-.84-4.64-.52-8.5,2.36-11.85Zm-2.75,26.28c2.22-2.05,4.11-1.62,4.76,1.51,.53,2.58,.02,5.1-1.37,7.34-1.05,1.68-1.87,4.34-4.38,3.6-2.16-.64-1.42-3.23-1.67-4.44-.09-3.42,.58-6.08,2.66-8.01Zm-37.38,49.19c2.07,.04,3.44,1.45,3.56,3.79-.34,2.29-1.66,3.74-4.06,3.75-2.32,.01-3.43-1.52-3.43-3.71,0-2.51,1.64-3.89,3.93-3.84Zm-3.05,114.04c2.46,.17,4.01,1.49,4.08,3.83,.09,2.77-1.62,4.49-4.34,4.6-2.29,.09-3.98-1.22-4.07-3.68-.11-2.9,1.93-4.07,4.33-4.75Zm.68-21.35c1.55-.3,2.22,.8,2.7,1.71,.07,1.92-.91,2.66-2.29,2.79-1.23,.12-2.15-.65-2.41-1.84-.34-1.54,.62-2.4,2-2.66Zm-.38,50.01c-1.92-.19-3.57-.96-3.63-3.01-.08-2.64,1.83-3.94,4.19-4.24,1.97-.25,3.46,.84,3.53,2.91,.09,2.67-1.71,3.84-4.09,4.33Zm-2.76-74.93c-3.64-.22-5.87-2.18-6.04-6.04-.19-4.37,3.2-8.36,7.25-8.53,3.52-.15,6.32,2.59,6.39,6.25,.08,4.14-3.8,8.56-7.6,8.33Zm12.37-49.32c-.25,2.58-2,4.38-4.73,4.48-2.42,.09-3.95-1.35-3.87-3.82,.1-3.05,2.32-4.22,4.64-4.88,2.77,.38,4.18,1.94,3.96,4.22Zm7.23,87.24c-1.64-.06-2.49-.83-2.6-2.28-.13-1.78,.95-2.6,2.55-2.58,1.48,.02,2.18,1.09,2.18,2.49,0,1.45-.83,2.26-2.13,2.37Zm.81-23.1c-1.26,.05-2.13-.59-2.19-1.92-.08-1.52,.79-2.36,2.26-2.4,1.23-.03,2.06,.62,2.26,1.91-.07,1.5-.86,2.34-2.33,2.4Zm-1.39-15.14c-3.2-.17-5.24-2.07-5.44-5.64-.24-4.21,4.04-8.79,7.97-8.58,3.61,.2,5.47,2.34,5.56,5.9,.1,4.12-3.8,8.27-8.09,8.32Zm10.1-57.12c-2.08,.18-3.25-1.07-3.29-3.13-.04-2.03,1.1-3.35,3.1-3.47,2.06-.12,3.05,1.31,3.47,3.08-.16,2.14-1.36,3.35-3.28,3.52Zm3.77,11c2.45-.17,3.79,1.24,4,3.9-.41,2.93-2.29,4.79-5.27,4.94-2.38,.12-3.87-1.69-3.7-4.03,.2-2.87,2.1-4.61,4.98-4.81Zm-2.7,107.26c-1.98-.19-3.31-1.29-3.12-3.31,.2-2.08,1.71-3.46,3.77-3.58,2.08-.12,3.17,1.29,3.04,3.32-.14,2.17-1.44,3.39-3.69,3.57Zm2.48-66.08c0-4.37,4.17-8.6,8.19-8.39,3.49,.18,5.07,2.27,5.32,5.22-.07,4.66-4.1,9.07-8.1,9.04-3.81-.03-5.41-2.32-5.41-5.87Zm9.23,45.03c.14-1.95,1.3-2.87,3.19-2.64,1.7,.21,2.35,1.42,2.33,3.09-.24,1.88-1.42,2.82-3.25,2.62-1.69-.19-2.39-1.45-2.27-3.08Zm2.63,37.64c-1.91-.15-3.31-1.08-3.29-3.17,.02-2.05,1.45-3.17,3.36-3.3,2.02-.14,3.39,1.04,3.39,3.08,0,2.04-1.52,2.96-3.46,3.38Zm.84-55.08c-1.85,.09-3.02-.99-3.11-2.77-.11-2.08,1.27-3.19,3.22-3.2,1.83-.01,2.73,1.24,2.9,2.99-.16,1.88-1.23,2.89-3.01,2.98Zm3.1-93.71c-.66,1.18-1.56,2.22-2.96,2.08-1.85-.18-1.61-1.72-1.36-2.96,.53-2.61-.99-3.8-3.56-5.1,.52,1.99,.99,3.7-.5,4.97-1.29,1.1-2.53,3.2-4.34,2.14-1.58-.93,.31-2.51,.47-3.83,.66-5.52-1.69-10.33-3.86-15.13-.57-1.27-1.67-.66-2.1,.36-.79,1.9-1.49,3.86-2.09,5.83-.24,.78-.01,1.71,1.08,1.7,1.74-.02,3.56-.61,3.58,2.3,.02,2.74,.44,5.45-1.96,7.52-.9,.77-1.88,1.4-3.02,.83-1.26-.62-1.29-1.9-.68-2.89,2.37-3.82-1.77-5.99-2.26-9.11-.26-1.67-1.78-.97-2.52-.06-.83,1.02-3.35,1.55-1.41,3.65,.54,.58,1.33,.96,1.74,1.61,1.04,1.62,1.08,3.31-.24,4.85-.94,1.1-2.18,1.37-3.46,.78-1.69-.78-2.09-2.32-1.89-4.03,.09-.78,.57-1.53,.58-2.3,.05-2.58-1.76-3.84-3.88-3.83-2.16,.02-2.26,1.76-1.55,3.54,.65,1.63,.11,3.05-1.62,3.26-1.9,.23-2.24-1.5-2.38-2.94-.35-3.51,1.3-6.17,4.58-6.89,2.63-.58,3.8-1.79,4.35-4.17,.18-.76,.61-1.48,1.01-2.16,1.31-2.2,2.61-4.97,5.48-4.7,2.58,.25,1.37,3.59,2.84,5.25,2.65-.14,3.61-4.49,6.67-3.33,2.86,1.09,2.38,4.65,4.2,6.96,.45-.28,1.05-.5,1.44-.91,5.06-5.41,5.16-5.48,8.75,.69,1.33,2.3,2.02,1.69,3.32,.11,4.24-5.13,4.28-5.09,7.05,.4,2.91-.16,3.21-6.34,6.79-3.56,1.94,1.51,2.32,5.04,3.66,8.27,1.92-2.31,3.47-4.24,5.1-6.09,.81-.93,1.61-2.23,3.1-1.74,1.24,.41,1.2,1.75,1.43,2.83,.4,1.86,.82,3.72,1.3,5.85,2.88-.72,3.66-3.46,5.45-5.08,1.03-.93,1.67-2.77,3.27-2.41,1.69,.38,1.3,2.35,1.72,3.65,.34,1.06,.58,2.15,.94,3.55,2.36-.73,3.22-2.99,4.79-4.37,2.35-2.06,4.13-3.29,4.92,1.19,.26,1.48,.46,3.19,2.08,4.57,2.27-2.43,4.48-4.88,6.79-7.23,.73-.74,1.57-1.87,2.81-1.23,.96,.49,.65,1.7,.78,2.62,.26,1.88,.51,3.77,.78,5.78,1.86-.46,2.23-2.25,3.23-3.35,4.16-4.53,4.73-4.54,7.84,.53,.41,.67,.8,1.35,1.36,2.28,2.29-1.43,2.51-4.09,4.07-5.75,1.07-1.14,1.68-3.06,3.43-3.09,2.2-.03,1.64,2.37,2.46,3.59,.25,.38,.53,.74,.84,1.16,2.04-.66,2.93-2.51,4.08-3.92,2.75-3.4,5.11-2.84,7.88,0,5.77,5.92,6.46,11.95,1.73,17.41-.79,.92-1.6,2.42-3.06,1.61-1.16-.65-.45-2-.25-3.07,.33-1.77,1.08-3.32,2.2-4.72,.47-.59,1.08-1.18,.53-2.09-1.14-1.88-2.28-4.97-2.16-6.04-1.33,.67-.82,1.95-1.19,2.81-.89,2.03-2.04,2.76-3.09,.28-1.58-3.71-2.95-1.87-3.95,.14-1.71,3.42-3.17,4.74-4.93,.1-.33-.86-.49-2.05-1.75-1.91-1.23,.14-1.77,1.2-2.25,2.25-.85,1.83-.38,4.94-4.44,3.18-1.72-.74-3.28,1.95-2.13,3.91,2.5,4.25-1.49,5.23-3.4,7.02-1.18,1.11-2.13-.23-1.75-1.52,.73-2.48-.73-4.27-1.85-6.69,1.48-.48,2.86-.59,3.74-1.31,1.14-.94,1.44-2.49,.8-3.95-.24-.54-.77-1.27-1.24-1.33-1.57-.18-2.29,1.16-2.68,2.29-.98,2.84-4.37,4.75-2.61,8.79,.68,1.55-1.73,3.97-3.96,3.93-2.55-.05-.46-2.25-.94-3.35-1.32-3.03-1.9-5.89,.47-8.81,.59-.73,.34-2.43-.74-2.98-1.28-.65-1.98,.7-2.59,1.53-1.22,1.66-2.12,3.57-3.44,5.13-.88,1.04-2.19,2.19-3.73,1.57-1.29-.52-1.4-2.02-1.58-3.3-.21-1.55,.11-3.24-1.15-4.64-2.31,.57-2.87,2.74-3.83,4.46-.43,.76-.73,1.71,.83,2.09,3.49,.86,3.17,2.53,.68,4.41-.72,.54-.86,1.26-.88,2.1-.03,1.3,1.02,3.03-1.07,3.62-1,.29-1.85-.47-2.42-1.26-.94-1.3-2.05-2.85-.96-4.36,3.38-4.67-2.75-7.1-2.6-11.14,.04-.95-2.01,.69-2.56,1.55-.92,1.44-4.36,3.13-1.07,4.79,3.77,1.9,1.9,6.5,5.01,8.47,.51,.32,.01,1.47-.99,1.7-1.92,.44-6.23-2.57-6.44-4.59-.1-.93,.36-2.54-.01-2.74-4.1-2.14-4.32-6.19-5.22-9.94-.15-.62-.59-1.38-1.27-1.11-1.74,.69-2.4,2.48-3.46,3.85-.81,1.04-.67,2.04,.45,2.87,1.54,1.14,3.23,2.16,4.49,3.55,1.68,1.85,1.64,4.13,.28,6.18-.88,1.33-2.32,1.74-3.8,.96-1.71-.9-2.57-2.19-2-4.31,.97-3.58-1.21-4.76-5.19-5.74,2.15,3.25,2.8,5.82-.2,7.75-1.61,1.04-3.15,1.35-3.21-1.3-.03-1.37-.31-2.48-1.27-3.46-.97-.98-2.2-1.77-3.39-1.08-1.37,.79-1.08,2.32-.11,3.28,1.46,1.46,1.91,2.92-.28,3.61-1.9,.6-4.18-.05-4.29-2.48-.13-2.75-1.04-4.57-4.19-5.73,1.1,1.99,.78,3.65-.12,5.24Zm60.01,65.93c.18-3.21,1.9-5.6,5.19-5.76,2.52-.12,4.19,1.77,3.86,4.38-.39,3.15-2.63,4.88-5.48,5.78-2.54-.48-3.69-2.09-3.57-4.4Zm4.51,79.34c.12,2.18-1.4,3.32-3.4,3.87-1.88-.15-2.9-1.31-3-3.02-.12-2.06,1.32-3.18,3.16-3.46,1.83-.28,3.14,.84,3.24,2.61Zm3.37-128.63c-2.14-.29-3.52-1.46-3.53-3.69,0-2.21,1.31-3.69,3.49-3.72,2.18-.04,3.57,1.48,3.63,3.61,.06,2.2-1.48,3.35-3.59,3.81Zm1.82,20.47c.46-3.06,2.49-5.2,5.76-5.38,2.58-.15,3.86,1.63,3.58,3.98-.38,3.19-2.48,4.98-5.4,5.46-2.79-.23-4.29-1.73-3.94-4.06Zm5.46,21.42c2.72-.03,4.06,1.38,4.11,3.75,.08,3.07-1.52,5.27-4.59,5.65-2.63,.33-4.24-1.36-4.18-3.98,.08-3,1.62-5.04,4.65-5.43Zm-30.94-40.76c-2.05,.06-3.19-1.48-3.2-3.35,0-2.1,1.22-3.55,3.51-3.57,2.14-.02,2.98,1.38,3.24,3.34-.19,2.15-1.42,3.53-3.55,3.59Zm8.07,14.11c2.74-.24,3.88,1.59,4.21,4-.67,3.4-2.43,5.72-5.88,5.98-2.67,.21-4.25-1.58-4.08-4.13,.23-3.38,2.32-5.55,5.75-5.86Zm-4.7,28.09c3.28,.19,4.64,2.35,4.87,4.9,.14,4.12-3.07,7.93-6.54,8.04-3.48,.11-5.31-1.74-5.34-5.24-.03-3.79,3.63-7.9,7.02-7.71Zm-4.89,44c2.06-.03,3.08,1.43,3.19,3.38,.12,2.1-1.16,3.11-3.08,3.46-2.06-.08-3.34-1.13-3.45-3.14-.13-2.23,1.11-3.66,3.34-3.69Zm2.39,14.49c3.15-.09,6.21,3.09,6.32,6.54,.11,3.62-2.86,6.87-6.39,6.99-3.6,.12-6.42-2.53-6.5-6.1-.08-3.83,3.02-7.33,6.57-7.43Zm1.24,59.38c.23-2.26,1.79-3.29,3.94-3.14,2.02,.13,3.19,1.46,3.14,3.43-.06,2.26-1.68,3.19-3.75,3.52-2.07-.45-3.56-1.5-3.33-3.81Zm5.6-18.98c.09-1.48,1.03-2.28,2.51-2.34,1.77-.07,2.55,.97,2.78,2.48-.33,1.7-1.15,2.83-2.86,2.76-1.74-.07-2.52-1.26-2.42-2.9Zm.28-152.16c-3.31,.12-4.33-2.51-4.75-6.98,3.37,3.3,5.64,3.5,7.37,.02,.32-.63,1.29-1.04,2.11-.52,.76,.49,.82,1.34,.62,2.14-.7,2.86-2.39,5.23-5.35,5.34Zm-25.7,66.45c-3.76-.21-5.19-2.64-5.2-5.53,.07-4.82,3.71-8.82,7.4-8.52,3.69,.31,5.23,2.82,5.34,6.21,.12,4-3.77,8.05-7.53,7.84Zm2.67,32.33c-.41,3.08-2.07,5.12-5.17,5.21-2.77,.08-4.43-1.77-4.42-4.51,.02-3.16,1.94-4.99,5.05-5.14,2.92-.14,4.12,1.85,4.53,4.44Zm-5.13-68.75c.21-3.2,2.17-5.32,5.36-5.8,2.39-.36,4.15,.85,4.17,3.41,.03,3.62-2.34,5.31-5.35,6.13-2.63-.08-4.34-1.23-4.17-3.74Zm-5.76-23.3c-.1,2-1.34,3.34-3.36,3.3-2.08-.04-3.1-1.54-3.08-3.52,.02-2.09,1.38-3.06,3.12-3.34,2.32,.28,3.42,1.52,3.32,3.55Zm-6.79,18.92c-.4,3.34-2.37,5.23-5.49,5.6-2.35,.28-4.07-1.08-3.99-3.59,.11-3.32,2.25-5.17,5.39-5.57,2.47-.32,3.72,1.23,4.09,3.56Zm-7.37,139.8c-1.97,.07-3.43-1.13-3.26-3.19,.15-1.94,1.54-3.11,3.57-3.06,1.8,.05,2.93,1.02,3.08,2.96-.29,1.93-1.46,3.22-3.39,3.29Zm-1.38-105.24c-.2-3.99,3.6-7.85,7.39-7.77,2.99,.06,4.97,2.34,5,5.72,.03,3.97-3.15,7.68-6.83,7.74-3.77,.06-5.39-2.3-5.56-5.7Zm13.32,111.62c-.17,1.39-1.02,2.35-2.46,2.39-1.66,.05-2.68-.94-2.71-2.58-.03-1.71,1.11-2.45,2.69-2.56,1.67,.2,2.69,.99,2.48,2.75Zm.98-9.58c-2.38,.1-3.94-1.32-3.99-3.7-.05-2.39,1.48-3.77,3.84-3.91,2.51-.16,3.62,1.41,4.01,3.31-.12,2.85-1.55,4.21-3.86,4.31Zm4.13-32.96c-3.76,.13-6.45-2.58-6.51-6.56-.06-4.12,3.02-7.46,6.92-7.5,3.52-.04,6.21,2.64,6.32,6.29,.12,4.03-3.01,7.64-6.73,7.77Zm6.31,54.15c-1.49-.01-2.37-.84-2.56-2.21-.21-1.63,.63-2.78,2.26-2.96,1.6-.17,2.78,.71,2.87,2.36,.09,1.65-1.06,2.47-2.57,2.81Zm4.42,33.88c-1.56-.09-2.46-1.01-2.5-2.38-.05-1.52,1.08-2.23,2.51-2.16,1.21,.06,2.1,.79,2.17,2.07,.09,1.5-.75,2.31-2.17,2.47Zm6.04-17.05c-1.71,.09-2.68-1.02-2.73-2.59-.05-1.49,1.17-2.22,2.51-2.3,1.48-.09,2.26,.87,2.42,2.35-.06,1.41-.68,2.46-2.2,2.54Zm3.16-58.94c-1.84-.02-3.02-1.24-2.83-3.04,.24-2.25,1.59-3.85,4.06-3.67,1.86,.14,2.61,1.52,2.57,3.44-.31,2.09-1.64,3.29-3.79,3.27Zm5.79,47.97c-2.09-.25-3.46-1.7-3.22-3.93,.23-2.18,1.76-3.4,3.9-3.31,2.14,.09,3.44,1.37,3.51,3.6-.5,2.32-1.74,3.93-4.19,3.63Zm4.34,19.01c-.08-2.31,1.37-3.55,3.49-3.59,2.1-.04,3.64,1.15,3.66,3.43,.02,2.21-1.2,3.48-3.55,3.59-2.11-.13-3.52-1.16-3.6-3.44Zm9.27,22.07c-2.61-.11-4.47-1.81-4.25-4.63,.18-2.29,1.84-3.8,4.14-3.71,2.52,.11,3.86,1.82,4.02,4.39-.33,2.29-1.6,4.04-3.91,3.94Zm2.34-61.31c-1.8,0-2.97-1.2-2.87-3.03,.1-1.79,1.29-2.85,3.12-2.86,1.91,0,2.74,1.19,2.95,2.71-.34,2.07-1.44,3.19-3.2,3.18Zm5-45.11c-3.51,.03-6.36-2.81-6.22-6.41,.15-3.86,2.32-6.24,6.08-6.73,3.2-.42,6.16,2.89,6.17,6.45,0,3.6-2.76,6.66-6.04,6.69Zm6.76,88.97c-1.51,.12-2.39-.73-2.42-2.25-.03-1.51,.8-2.36,2.31-2.42,1.47-.06,2.37,.66,2.54,2.13-.2,1.48-.99,2.43-2.42,2.54Zm.27-73.48c-1.93-.07-3.34-1.4-3.15-3.43,.18-1.9,1.51-3.21,3.55-3.12,1.86,.09,2.65,1.48,2.96,3.07-.36,2.04-1.32,3.57-3.36,3.49Zm6.69-38.4c-.28,2.88-2.3,4.31-5.06,4.77-2.64-.62-4.34-2.17-4.21-4.92,.16-3.19,2.24-4.92,5.31-4.75,2.78,.16,4.21,2.2,3.95,4.9Zm-1.78-107.63c.35-3.17,1.14-6.33,4.77-7.25,1.93-.49,2.15,1.44,2.07,2.89-.19,3.37-1.38,6.37-4.84,7.37-2.13,.62-1.75-1.59-2-3Zm2.65,153.16c.21-1.79,1.38-2.79,3.23-2.68,1.83,.11,2.99,1.23,2.91,3.02-.08,1.89-1.21,3.16-3.34,3.29-1.85-.47-3.04-1.59-2.8-3.63Zm3.38,23.08c.16-2.42,1.96-3.54,4.22-3.54,2.47,0,3.61,1.54,3.72,3.98-.31,2.39-1.76,3.67-4.13,3.47-2.23-.19-3.99-1.42-3.82-3.91Zm4.21,11.98c.2-2.1,1.71-3.26,4.02-3.27,1.98,.32,3.55,1.25,3.35,3.61-.18,2.14-1.53,3.56-3.68,3.54-2.34-.02-3.92-1.45-3.7-3.88Zm.14,11.27c-.08-2.44,1.28-3.9,3.68-4,2.37-.09,3.81,1.21,4.09,3.75-.13,2.31-1.41,3.79-3.78,3.9-2.37,.11-3.92-1.16-4-3.65Zm3.14,11.98c-.04-1.98,1.05-3.2,3.02-3.36,2.11,.04,3.48,.89,3.49,3.03,0,2.02-1.18,3.25-3.16,3.39-2.06,.14-3.3-1.03-3.34-3.06Zm1.97,9.74c0-1.67,1.15-2.47,2.75-2.57,1.74-.12,2.54,.89,2.8,2.51-.08,1.58-.83,2.67-2.5,2.78-1.85,.12-3.04-.83-3.05-2.71Zm5.48,17.24c-2.2,.12-3.77-.94-3.81-3.25-.05-2.71,1.82-3.95,4.24-4.2,2.23-.23,3.53,1.03,3.88,3.29-.32,2.53-1.74,4.01-4.31,4.15Zm6.47-38.84c-1.64,.1-2.64-1.03-2.73-2.63-.1-1.66,.97-2.54,2.53-2.93,1.69,.09,2.57,1.16,2.68,2.7,.12,1.63-.89,2.77-2.48,2.87Zm5.69,28.91c-2.05,.01-3.32-1.26-3.16-3.29,.14-1.81,1.59-2.72,3.32-2.72,1.86,0,2.84,1.12,2.9,2.93-.25,1.87-1.23,3.07-3.06,3.09Zm2.47-9.67c-1.91,0-3.41-1.17-3.58-3.14-.2-2.2,1.04-3.54,3.31-3.79,2.14,.14,3.73,.9,3.78,3.34,.04,2.34-1.31,3.6-3.5,3.59Zm2.26-32.71c-1.79,.16-3.06-.8-3.19-2.7-.11-1.66,.86-2.74,2.46-2.93,1.89-.23,2.89,.89,3.25,2.67-.11,1.63-.91,2.82-2.52,2.96Zm2.51,7.73c-.26-1.76,.75-2.59,2.36-2.85,1.74,.05,2.63,1.03,2.69,2.66,.06,1.43-.68,2.47-2.15,2.62-1.69,.17-2.66-.83-2.9-2.43Zm5.86,41.27c-2.21-.07-3.62-1.47-3.54-3.7,.08-2.41,1.6-3.7,4.04-3.92,2.28,.24,3.43,1.65,3.44,3.82,.01,2.5-1.48,3.88-3.93,3.8Zm1.22-18.19c-1.6-.31-2.59-1.25-2.54-2.87,.05-1.79,1.11-3.03,2.9-3.06,1.83-.03,2.9,1.15,2.76,3.03-.14,1.83-1.37,2.69-3.12,2.89Zm1.88-34.81c-2-.12-3.22-1.3-3.01-3.41,.17-1.68,1.33-2.47,2.96-2.35,1.87,.14,2.7,1.36,2.84,3.11-.28,1.62-1.12,2.75-2.79,2.64Zm5.19,44.99c-1.77-.24-2.87-1.4-2.93-3.23-.06-1.95,1.14-3.03,2.96-2.94,2.02,.1,3.01,1.52,3.21,3.49-.32,1.84-1.33,2.95-3.25,2.68Zm4.87-13c-1.86,.07-2.98-1.2-3.12-2.94-.15-1.8,.83-3.06,2.77-3.15,1.93-.09,2.9,1,3.07,2.87,.03,1.86-.82,3.15-2.71,3.22Zm1.1-49.24c-.13-1.92,.95-3.11,2.79-3.17,1.77-.06,3.13,.94,3.19,2.85,.06,1.85-1.1,2.89-2.96,3.28-1.81-.1-2.9-1.1-3.02-2.96Zm7.46,13.14c-1.49-.02-2.41-.76-2.48-2.24-.07-1.48,.85-2.41,2.24-2.52,1.46-.11,2.4,.87,2.49,2.26,.1,1.44-.84,2.27-2.26,2.5Zm4.99-24.39c-1.8,.04-3-1.19-3.11-3.01-.13-2.12,1.2-3.15,3.19-3.48,1.76,.27,3.05,1.12,3.08,3.03,.04,2.06-1.14,3.42-3.17,3.46Zm-.29-31.1c-2.38,.05-4.07-1.39-4.1-3.76-.03-2.36,1.71-3.81,3.96-4.07,2.41-.28,3.8,1.21,4.4,3.52-.43,2.42-1.62,4.25-4.26,4.31Zm7.42,52.85c-1.79-.24-2.86-1.44-2.71-3.23,.16-1.97,1.42-3.2,3.47-2.95,1.73,.21,2.73,1.38,2.77,3.21-.47,1.86-1.39,3.25-3.53,2.97Zm18.42-81.39c1.45-.13,2.52,.54,2.65,2.06,.14,1.67-.85,2.61-2.4,2.99-1.43-.13-2.52-.78-2.7-2.22-.21-1.71,.79-2.69,2.45-2.84Zm-6.73,105.84c-2.04,.11-3.33-1.21-3.37-3.21-.05-2.07,1.41-3.25,3.34-3.31,1.79-.06,2.84,1.2,3.19,3.05-.18,1.89-1.12,3.36-3.15,3.47Zm3.37-84.66c-.15-1.86,1.13-2.76,2.62-3.2,2.02,.14,3.18,1.12,3.22,2.93,.03,1.56-.93,2.71-2.56,2.85-1.8,.15-3.12-.73-3.28-2.59Zm3.42,71.06c-1.58-.17-2.51-1.34-2.47-2.93,.05-1.68,1.2-2.57,2.8-2.46,1.62,.11,2.44,1.22,2.48,2.88-.3,1.54-1.15,2.68-2.81,2.51Zm1.8-13.21c-1.86-.13-2.75-1.46-2.64-3.23,.11-1.85,1.4-2.8,3.15-2.78,1.78,.02,2.86,1.04,2.98,2.95-.46,1.83-1.43,3.21-3.49,3.07Zm4.52-34.17c-1.46-.05-2.21-1.09-2.32-2.47-.12-1.47,.7-2.49,2.08-2.64,1.62-.18,2.56,.86,2.9,2.45-.25,1.52-.93,2.72-2.66,2.66Zm24.22-23.1c1.55,.08,2.5,1.16,2.65,2.82-.18,1.57-.98,2.69-2.66,2.66-1.68-.03-2.5-1.17-2.53-2.78-.04-1.68,.89-2.78,2.54-2.69Zm-12.59,7.37c1.66-.12,2.51,.96,2.78,2.48-.06,1.49-.75,2.42-2.23,2.54-1.6,.12-2.78-.54-2.98-2.24-.19-1.71,.84-2.66,2.42-2.78Zm-.46,26.54c1.71-.02,2.65,1.04,2.64,2.64,0,1.59-.98,2.57-2.68,2.67-1.62-.17-2.64-1.12-2.66-2.7-.01-1.62,1.04-2.59,2.7-2.61Zm-5.83,53.27c0-2.22,1.47-3.44,3.6-3.55,2.26-.12,3.41,1.22,3.67,3.37-.25,2.22-1.51,3.58-3.64,3.62-2.14,.05-3.63-1.2-3.63-3.45Zm5.9,15.47c-1.53,.02-2.38-1.02-2.49-2.38-.14-1.73,1.05-2.5,2.57-2.78,1.53,.17,2.45,1.02,2.53,2.44,.09,1.7-.89,2.7-2.61,2.72Zm.42-33.69c-1.85,.14-3.13-.81-3.22-2.72-.09-1.92,1.17-3,2.96-3.03,1.68-.03,2.46,1.22,2.74,2.83-.09,1.58-.77,2.8-2.49,2.93Zm5.14-45.07c-2.18-.02-3.33-1.04-3.41-2.81-.08-1.83,1.15-2.89,2.92-2.97,1.64-.07,2.6,1.03,2.8,2.57,.24,1.89-.91,2.82-2.32,3.2Zm5.07,55.81c-1.51-.14-2.24-1.06-2.23-2.48,.02-1.59,1.13-2.11,2.52-2.07,1.31,.04,1.95,.88,1.97,2.13,.02,1.48-.78,2.29-2.26,2.41Zm.11-32.23c-1.95-.06-3.11-1.46-3.21-3.41-.12-2.25,1.21-3.4,3.18-3.79,2.26,.23,3.14,1.52,3.22,3.48,.09,2.21-.87,3.79-3.19,3.72Zm3.12-15.35c-1.93,.09-3.42-.86-3.49-2.99-.08-2.33,1.52-3.44,3.56-3.61,2.15-.18,2.89,1.48,3.31,3.08-.26,2.21-1.44,3.43-3.38,3.52Zm1.66-17.18c-1.95-.02-3.21-1.33-3.26-3.3-.05-1.89,1.39-2.64,3.1-3.08,1.82,.37,3.11,1.43,3.12,3.41,.01,1.82-1.21,2.99-2.96,2.97Zm9.41,65.63c-1.91-.04-2.85-1.24-2.71-3.09,.12-1.62,1.11-2.52,2.67-2.57,1.84,.22,2.66,1.33,2.63,2.9-.04,1.55-.84,2.8-2.58,2.77Zm2.89-71.73c-1.64-.09-2.65-1.19-2.67-2.81-.02-1.94,1.22-2.89,3.08-2.81,1.63,.07,2.61,1,2.71,2.76-.28,1.76-1.19,2.97-3.11,2.86Zm27.74,22.18c-.11,1.4-1.03,2.38-2.54,2.24-1.73-.16-2.4-1.37-2.27-3.01,.12-1.46,.89-2.32,2.45-2.28,1.68,.33,2.48,1.47,2.36,3.05Zm-3.78-12.92c1.68,.02,2.55,1.18,2.51,2.84-.05,1.86-.98,2.95-2.92,2.98-1.72-.14-2.66-1.06-2.55-2.77,.12-1.8,1.08-3.07,2.96-3.05Zm-2.35,20.32c1.52,.19,2.81,.8,2.73,2.58-.07,1.6-1.11,2.75-2.71,2.71-1.63-.04-2.5-1.27-2.49-2.9,0-1.53,1.02-2.2,2.47-2.4Zm2.81,27.13c-.07,1.95-1.11,3.37-3.22,3.32-2.09-.05-3.03-1.4-3.08-3.44,.29-1.9,1.21-3.38,3.28-3.36,2.09,.03,3.09,1.52,3.02,3.48Zm-3.88-14.92c1.95-.19,2.69,1.22,2.96,2.6-.04,2.44-1.19,3.61-3.19,3.68-1.67,.06-2.63-1.11-2.71-2.68-.11-1.98,.94-3.41,2.94-3.6Zm-7.5-11.21c1.42-.13,2.35,.61,2.5,2.14-.23,1.33-.89,2.35-2.34,2.46-1.45,.1-2.41-.68-2.46-2.15-.04-1.46,.92-2.32,2.29-2.44Zm2.53,20.66c-.1,1.56-.92,2.71-2.58,2.76-1.43,.04-2.37-.93-2.44-2.4-.08-1.74,1.03-2.68,2.61-2.82,1.54-.13,2.23,.94,2.41,2.47Zm-5.65-10.12c.15-1.7,1.15-3.06,2.99-3.09,1.8-.04,2.25,1.4,2.38,2.89-.28,1.7-.83,3.17-2.9,3.04-1.7-.11-2.61-1.23-2.47-2.84Zm.58,19.84c.1-1.69,1.14-2.54,2.77-2.53,1.42,0,2.41,.73,2.4,2.28-.01,1.83-.98,2.88-2.8,3.12-1.75-.18-2.46-1.24-2.37-2.87Zm3.07,10.39c.21-1.64,.97-3.13,2.91-3.09,1.77,.03,3.06,1.02,2.97,2.92-.1,1.92-1.14,3.2-3.21,3.37-1.85-.3-2.92-1.31-2.67-3.2Zm5.22,18.43c-1.72,.1-2.6-1-2.63-2.62-.03-2.03,1.18-3.09,2.69-3.45,2.19,.02,2.98,1.21,3.04,2.71,.09,2.01-1.08,3.25-3.11,3.37Zm4.39-19.62c-1.45-.14-2.22-1.1-2.13-2.59,.1-1.64,.99-2.77,2.64-2.7,1.67,.07,2.29,1.4,2.51,2.73-.38,1.83-1.37,2.73-3.02,2.57Zm3.08,8.25c-1.3-.12-1.94-1.04-1.91-2.22,.04-1.66,1.17-2.53,2.72-2.59,1.61-.06,2.04,1.1,2.04,2.49-.21,1.7-1.19,2.47-2.85,2.32Zm2.58-64.98c.15-1.6,1.04-2.7,2.76-2.68,1.58,.02,2.15,1.11,2.25,2.53-.3,1.58-1.08,2.69-2.82,2.65-1.56-.04-2.33-1.01-2.19-2.5Zm3.81,11.01c-1.68-.11-2.48-1.28-2.36-2.9,.14-1.79,1.14-3.03,3.02-2.84,1.56,.16,2.36,1.37,2.49,2.98-.35,1.72-1.3,2.88-3.16,2.76Zm26.66,42.19c-4.07,.63-3.63-4.34-3.95-7.26-1.4-12.8-.1-25.42,2.96-37.89,.35-1.43,.37-3.23,2.68-3.68,.78,2.85-.84,5.27-1.27,7.78-1.92,11.06-.33,21.89,1.5,32.75,.52,3.06,1.68,7.74-1.91,8.3Zm21.91-50.92c5.9,12.12,8.93,24.37,17,34-8.26-2.07-18.66-22.33-17-34Zm23.24,2.48c-.17-.75-.07-1.68,1.04-1.73,1.1-.05,1.84,.67,2.1,1.61,1.77,6.35,4.74,12.26,6.72,18.59-5.86-4.78-8.27-11.41-9.86-18.47Zm17.68-8.56c-.19-.95-.48-1.98,.74-2.39,1.09-.37,1.85,.44,2.37,1.22,3.11,4.69,7.05,8.46,12.21,11.06-6.29,1.56-14.14-3.87-15.31-9.88Zm51.69-84.94c-1.53-.04-1.45-1.37-1.59-2.34-.24-1.62-.04-3.29,1.97-3.59,1.41-.21,1.74,1.03,1.83,2.17,.12,1.71-.47,3.04-2.2,3.76Zm5.81-9.27c-1.36-.14-2.46-.9-2.28-2.43,.2-1.64,1.07-3.17,2.87-3.14,1.76,.02,1.82,1.81,2.22,2.82-.23,1.97-1.11,2.94-2.81,2.76Zm10.8-12.93c1.29,.14,2.91,.36,3.47,2.02-.27,2.42-2.43,1.63-3.73,2.18-1.19,.5-2.31,.09-2.31-1.44,0-1.65,.87-2.94,2.57-2.76Zm-1.27,10.57c-1.31-.22-3.65,.12-3.22-2.35,.29-1.62,1.31-2.97,3.21-1.61,1.5,2.02,3.7-4.73,4.43,.38,.3,2.11-1.78,4.02-4.42,3.57Zm3.49,24.32c-.8-.02-1.93-.64-1.8-1.55,.42-2.94,1.1-5.85,1.89-8.71,.2-.73,1.32-.86,2.11-.64,1.39,.39,1.79,1.67,1.14,2.62-1.74,2.53,3.3,7.56-3.35,8.27Zm6.37-15.45c-1.58,.01-3.47-.25-3.46-2.3,.01-2.31,2.09-2.96,3.92-3.37,1.75-.39,2.52,.82,2.83,2.42-.27,1.9-1.23,3.23-3.29,3.24Zm13.2-.62c-.12,1.3-.92,2.8-2.31,2.36-1.56-.49-2.99-1.87-3.31-3.61-.25-1.36,.79-2.28,2.25-2.69,1.2,1.22,3.61,1.5,3.37,3.94Zm1.91-5.42c-2.56-.13-2.65-2.38-2.94-4.16-.22-1.35,.66-2.86,1.97-2.73,2.46,.23,2.2,3.04,3.49,4.02-.27,1.95-1.12,2.95-2.52,2.88Z"/>
  <path d="M496.43,230.63c.06,17.72-12.91,31.62-29.61,31.77-16,.14-28.61-13.26-28.55-30.33,.06-17.44,13.75-31.55,30.59-31.55,15.41,0,27.52,13.23,27.57,30.11Zm-22.3-5.76c5.77-.06,10.47-4.93,10.45-10.84-.01-5.62-4.73-10.34-10.37-10.4-5.47-.06-10.58,5.25-10.52,10.92,.06,5.58,4.92,10.38,10.44,10.33Z"/>
  <path d="M352.92,200.84c10.43,6.53,13.93,16.64,13.73,28.17-.23,13.32-7.86,23.79-19.25,27.59-10.42,3.48-22.42,.08-29.54-8.36-11-13.04-9.25-34.34,4.09-45.27,8.17-6.69,17.4-9.2,27.61-4.49-.63-.05-1.26-.13-1.9-.15-5.16-.14-9.46,2.77-10.29,7.25-.81,4.39,.94,7.81,4.81,9.97,3.73,2.08,8.42,1.02,11.17-2.32,3.17-3.86,3.02-8.2-.43-12.41Z"/>
  <path d="M375,559.7c-.33,2.24-1.37,3.6-3.39,3.58-2.08-.01-2.48-1.81-2.52-3.38-.06-2.21,1.24-4.78,2.99-4.79,2.16-.01,2,3.1,2.92,4.59Z"/>
  <path d="M352.89,552.28c1.18,2.11,2.26,4.01,2.26,6.24,0,1.32-.73,2.87-2.32,2.07-1.5-.75-4.1-1.11-3.56-3.7,.38-1.84,1.63-3.35,3.61-4.62Z"/>
  <path d="M363.22,554.3c2.3,3.06,1.73,5.82,.54,8.64-5.36-2.49-5.42-3.18-.54-8.64Z"/>
  <path d="M328.25,555.84c.09-2.98,1.08-4.99,2.97-6.62,3.03,4.22,2.75,4.93-2.97,6.62Z"/>
  <path d="M133.45,228.39c-.09-1.73,.22-3.25,2.3-3.49,2.64-.31,6.75,4.16,6.97,7.46,.15,2.29-.81,3.7-3.12,3.93-2.83,.29-6-3.85-6.15-7.9Z"/>
  <path d="M170.25,236.15c-2.44-.38-4.5-1.38-4.23-4.17,.24-2.53,2.02-3.98,4.64-3.75,2.72,.24,4.48,1.83,4.43,4.65-.06,3.17-2.61,3.08-4.84,3.27Z"/>
</svg>