<?xml version="1.0" encoding="UTF-8"?>
<svg id="Layer_1" data-name="Layer 1" xmlns="http://www.w3.org/2000/svg" viewBox="0 0 864 864">
  <path d="M316.94,115.48c1.92-13.09,1.55-25.49,11.16-36.21-1.92,12.73-.99,23.69,5.91,33.48-.39-7.79-.7-15.5,.94-23.17,3.14-14.68,14.44-26.04,28.71-28.72,1.4-.26,3.08-1.14,4.16,.19,1.1,1.35-.17,2.8-.75,4.07-5.33,11.54-6.25,23.51-3.51,35.82,.56,2.49,1.13,5.04,3.62,8.17,.46-22.79,15.16-35.18,30.82-47.76,.8,2.93-.37,4.79-.81,6.74-3.4,15.35-2.43,30.08,5.88,43.89,2.02,3.37,3.88,3.81,6.85,1.07,3.33-3.07,5.84-8.72,9.89-8.8,3.92-.08,7.9,4.01,11.89,6.19,18.07,9.87,36.61,18.63,56.67,23.78,.47,.12,1.21,.1,1.38,.4,3.89,6.63,8.3,1.5,11.99,.1,3.85-1.46,5.41-.82,7.68,2.57,11.3,16.89,24.79,31.92,40.53,44.8,2.58,2.11,2.86,3.34,.55,5.59-3.27,3.18-6.15,6.79-9.58,9.75-2.29,1.98-2.49,3.61-1.46,6.28,6.62,17.16,11.01,34.84,11.19,53.32,.37,38.44-10.23,72.7-40.61,98.15-18.63,15.6-41.43,22.24-65.15,25.77-1.09,.16-2.17,.34-4.22,.66,8.7,7.1,18.19,9.54,28.47,10.41-5.19,6.35-16.78,6.81-35.16,1.79,.82,2.91,1.82,4.22,5.46,6.46,2.6,1.59,5.34,2.95,8.52,4.7-6.91,3.79-13.81,3.48-21.92,2.86,7.73,7.57,16.17,10.41,25.08,12.67-10.18,4.02-19.99,2.84-30.5-2.38,2.35,9.43,9.82,12.3,16.62,15.9-4.1,2.68-9.49,2.95-15.26,.84-1.22-.45-2.38-1.06-3.58-1.56-1.12-.47-2.39-1.72-3.31,.11-.94,1.88,.6,2.61,1.91,3.29,5.3,2.77,11.03,3.87,16.94,4.33,1.73,.13,3.6-.3,5.58,1.38-8.88,6.99-18.34,8.6-29.19,4.55,.37,4.48,4.03,5.75,6.47,8.02,1.58,1.47,5.59,1.81,4.78,3.81-1.13,2.8-4.31,4.67-7.81,4.99-2.65,.24-5.19-.29-7.73-.91-1.18-.29-2.46-1.47-3.61-.18-1.23,1.38-.25,2.88,.37,4.1,2.89,5.63,7.48,9.35,13.45,11.38,1.99,.68,4.01,1.27,6.11,1.93-4.82,4.8-12.73,5.05-20.32,.76-.99-.56-1.91-1.26-2.85-1.89-4.71-3.17-4.82-3.04-6.84,2.23-.88,2.31-.31,3.14,1.91,3.86,4.44,1.43,8.9,2.9,13.45,6.15-6.11,1.83-11.82,1.04-17.25,2.12-1.69,.33-3.78-.06-4.28,2.36-.54,2.62,1.78,2.79,3.24,3.51,4.72,2.35,9.73,4.22,14.38,8.76-6.15,.4-11.25,.95-16.29,1.93-4.18,.81-3.99,3.35-3.45,6.54,.52,3.08,1.5,4.36,5.1,3.8,6.19-.96,12.55-1.39,19.03,3.43-7.53,1.23-13.9,2.89-20.82,5.39,5.91,7.68,13.43,11.7,22.44,12.47,25.09,2.15,45.92-7.23,63.5-24.58,8.97-8.85,15.95-19.38,23.52-29.37,40.07-52.84,93.04-84.44,157.98-96.73,24.96-4.73,50.05-6.91,75.42-5.9,9.59,.38,19.07,1.64,28.95,3.44-1.04,2.38-2.95,2.67-4.39,3.39-13.89,6.87-26.32,15.63-36.4,27.53-12.47,14.73-18.31,31.4-14.74,50.72,.53,2.87-.55,3.2-2.87,3.54-33.92,4.93-56.72,32.14-55.46,66.6,.18,4.95-1.32,5.28-5.38,4.58-7.61-1.32-15.27-1.16-22.82,.76-7.63,1.94-13.31,6.6-17.97,12.77-1.75,2.32-1.53,4.06,.03,6.53,19.98,31.75,30.8,66.08,28.13,103.92-3.82,54.15-26.11,99.65-66.45,135.69-42.47,37.94-92.68,53.77-149.43,48.76-7.65-.68-15.21-1.87-22.65-3.75-1.82-.46-3.47-.67-5.05,.69-12.13,10.45-27.09,12.14-42.12,13.3-7.57,.58-15.21,.86-22.94,.21,.46-3.57,2.16-5.94,3.86-8.33,.8-1.12,2.37-2.54,.86-3.8-1.74-1.46-2.93,.46-3.97,1.58-2.02,2.2-3.25,4.88-3.97,7.76-.32,1.28-.23,2.82-2.16,2.48-2.37-.42-5.17,.27-6.99-1.4-.96-.88,.53-2.68,1.27-3.92,2.46-4.11,5.89-7.36,9.48-10.47,.94-.81,2.77-1.63,1.85-2.96-.97-1.39-2.7-.45-3.96,.32-4.88,2.96-8.54,6.99-10.75,12.3-.35,.85-.8,1.65-1.35,2.79-2.37-8.52,.33-13.09,16.35-28.29-19.52-19.64-32.36-42.61-34.82-71.09-1.75,5.87-.49,15.5,3.64,27.73,3.01,8.93,7.15,17.37,11.72,25.7-23.44-17.41-42.83-38.57-59.94-63.01,7.87-.34,15.11,.71,22.22-1.1-7.36-.54-14.61-1.64-21.87-2.61-1.66-.22-3.17-.36-4.22-1.95-9.97-15.16-18.12-31.16-23.47-49.84,10.58,4.22,20.36,8.08,31.13,7.38-7.78-2.73-15.63-5.19-23.46-7.63-6.75-2.1-9.93-5.71-10.81-12.9-1.39-11.36-1.82-22.75-2.6-34.13-.28-4.09,1.25-4.05,4.38-2.95,18.14,6.4,36.8,9.88,56.08,9.84,2.27,0,4.54,0,6.86-.92-6.8-.65-13.62-1.18-20.4-1.99-14.79-1.76-29.16-5.3-43.18-10.36-2.39-.86-3.81-1.78-3.7-4.75,.43-11.59,1.74-23.06,4.07-35.34,21.33,13.9,43.48,24.67,69.25,27.42-.79-1.85-2.04-1.5-2.95-1.69-23.02-4.74-43.68-14.94-63.44-27.29-2.11-1.32-2.41-2.9-1.89-4.93,3.49-13.75,7.19-27.42,12.59-40.58,1.42-3.45,2.29-3.24,4.72-.69,15.44,16.2,33.43,28.53,55,35.18,2.15,.66,4.32,1.23,6.69,1.34-5.91-2.61-11.85-5.1-17.61-7.97-16.5-8.22-31.28-18.74-43.85-32.32-1.75-1.89-2.07-3.26-1.08-5.52,4.98-11.37,10.92-22.23,17.01-33.02,2.01-3.57,3.13-2.69,5.37-.1,14.07,16.33,30.83,28.97,51.22,36.46,1.48,.54,2.92,1.52,5.61,.8-8.95-3.87-16.93-7.96-24.39-13-11.14-7.51-21.44-15.91-30.29-26.1-2.78-3.21-3.45-5.56-.71-9.24,5.27-7.05,10.37-14.21,16.06-20.95,2.35-2.78,3.71-2.93,6.47-.33,13.24,12.47,28.38,21.84,46.03,26.75,1.98,.55,3.95,1.54,6.86,.76-14.57-4.56-27.25-11.49-39.04-20.04-4.48-3.24-8.53-7.06-12.89-10.48-2.12-1.66-2.42-2.95-.39-5.03,5.46-5.61,10.81-11.32,16.02-17.16,2.44-2.74,3.98-2.57,6.55,.08,13.06,13.43,28.38,23.36,46.34,29.03,.62,.19,1.25,.37,1.89,.45,.26,.03,.55-.2,1.44-.55-8.12-3.25-15.53-6.91-22.59-11.27-9.35-5.77-17.79-12.64-25.67-20.26-2.18-2.11-2.54-3.43-.19-5.87,5.41-5.64,10.76-11.42,15.46-17.65,2.83-3.76,4.65-3.04,7.58-.57,9.36,7.87,20.15,13.2,31.73,16.95,1.8,.58,3.57,1.69,6.44,.91-4.78-2.13-9-3.89-13.12-5.86-8.41-4.03-16.24-9-23.71-14.58-2.98-2.23-3.97-3.85-1.26-7.31,3.5-4.46,6.31-9.5,9.11-14.46,1.57-2.77,2.81-3.07,5.59-1.32,16.49,10.4,34.71,16.35,53.69,20.2,.89,.18,1.86,.02,2.85-.25-9.4-3.2-18.99-5.7-28.19-9.41-9.55-3.85-18.76-8.32-27.69-13.45-2.79-1.6-3.14-2.99-1.76-5.77,1.66-3.34,2.53-7.06,4.12-10.44,1.87-4.01,.2-4.9-3.53-5.46-20.65-3.1-41.14-7.07-61.22-12.86-24.22-6.97-47.88-15.43-68.49-30.42-16.18-11.77-27.59-26.77-28.63-47.78-.57-11.49,2.29-22.31,6.68-32.79,5.73-13.66,12.42-26.93,15.69-41.56,1.07-4.81,.92-8.23-3.41-11.33-3.41-2.44-6.08-5.89-9.22-8.73-1.93-1.74-1.71-2.95-.01-4.78,14.36-15.44,27.66-31.71,38.06-50.14,1.22-2.16,2.39-1.62,3.93-1.02,3.34,1.29,6.7,2.55,10.01,3.92,2.5,1.03,3.72,.57,3.34-2.38-.15-1.13,.01-2.3-.17-3.42-.51-3.05,.44-4.53,3.69-5.53,19.51-5.98,38.49-13.35,56.7-22.6,3.49-1.77,6.09-2.64,8.04,2.04,1.02,2.45,3.2,4.42,5.69,7.71Zm146.46,615.51c.77,7.82-2.62,13.18-6.23,18.43,6.2,2.23,10.34,1.03,13.75-4.3,3.43-5.35,7.79-10.1,13.18-14.93,.07,8.2-2.95,14.42-6.89,20.42,8.14,1.44,8.32,1.27,11.06-5.41,1.32-3.22,1.97-6.78,4.57-10.06,1.78,3.63,1.79,7.03,1.96,10.33,.17,3.23,1.73,3.39,4.18,2.51,1.88-.68,2.61-2.23,3.43-3.88,4.23-8.45,8.54-16.87,12.9-25.25,.51-.98,.58-2.68,2.6-2.38,2.13,8.43,.28,16.77-.99,25.34,11.91-2.08,6.88-12.56,10.09-19.12,2.9,3,3.12,6.82,4.19,10.55,5.71-2.75,9.65-6.11,9.04-13.04-.4-4.5-.07-9.07-.07-13.85,3.84,1.86,5.29,5.41,6.81,8.99,.66,1.56,.31,4.41,2.09,4.46,2.28,.06,3.77-2.42,4.94-4.3,1.02-1.64,.92-3.74,.83-5.73-.53-10.59-1.13-21.16-2.3-31.7-.19-1.75-.87-3.65,.18-5.93,7.34,8.24,10.52,18.13,14.82,28.04,3.9-5.49,5.61-10.7,4.95-16.74,5.11,2.94,6.32,2.22,6.31-3.48,0-1.79-.19-3.58-.43-5.36-.28-2.13-1.03-4.23-.57-6.74,3.35,1.61,3.61,5.26,6.1,7.1q6.3-15.04,6.09-25.23c3.32,1.13,3.44,1.15,3.93-1.96,2.5-15.81,2.2-31.45-3.3-47.71,0,2.53,.03,4.1,0,5.66-.03,1.32,1.47,3.23-.57,3.79-1.47,.4-2.32-1.44-3.16-2.63-2.77-3.89-6.18-7.17-9.97-10.01-7.75-5.81-15.27-5.43-21.85,1.59-10.8,11.52-13.48,25.62-12.13,40.85,.21,2.36,1.49,4.86-.58,7.67-.95-1.9-1.66-3.32-2.38-4.75-4.22-8.32-10.14-15.14-18.11-20.07-13.01-8.04-28.82-2.6-34.09,11.7-1.19,3.23-1.82,6.58-2.15,10.01-.13,1.38,.66,3.33-.77,4.04-1.7,.85-2.33-1.32-3.32-2.21-5.41-4.86-11.51-8.57-18.28-11.13-16.26-6.14-30.86-1.71-40.9,12.41-2.26,3.19-4.46,6.45-6.32,9.88-3.67,6.75-9.34,10.63-16.58,12.68-9.45,2.68-18.99,3.98-29.73,2.18,3.47,4,7.27,4.65,11.08,5.23,13.1,1.99,23.76-3.29,34.05-12.29-.7,9.66-3.61,17.12-9.81,23.2-.92,.91-2.4,1.79-1.82,3.14,.8,1.86,2.57,.77,3.89,.52,7.25-1.39,13.76-4.55,20.43-9.46-.82,11.54-6.37,19.1-15.32,23.72-4.74,2.45-2.23,4.68-1.44,7.38,1.14,3.9,3.32,2.2,5.62,1.25,7.46-3.07,14.8-6.38,22.19-11.49-1.12,11.19-7,17.5-15.79,21.71-1.01,.49-3.3,.31-2.74,1.96,1.07,3.14,3.71,5.33,6.21,7.4,2.07,1.72,3.58-.43,5.15-1.39,6.12-3.7,10.84-8.99,15.85-15.18,1.4,8.87-.94,15.45-5.79,21.43-1.05,1.3-4.19,2.33-2.51,4.38,1.43,1.74,4.29,2.51,6.78,1.81,1.66-.46,3.17-1.61,4.66-2.57,4.64-2.98,8-7.5,13-11.51Zm-23.43-539c-35.92-.86-57,29.65-57.03,57.09-.04,32.22,26.59,57.92,59.77,57.85,30.32-.06,53.93-25.19,53.82-57.26-.11-32.21-25.15-57.74-56.56-57.68Zm-135.38,25.63c-1.46-2.62-3.43-3.83-5.26-5.14-22.81-16.35-55.55-6.34-66.29,20.25-9.31,23.04-.25,51.42,21.12,65.42,11.97,7.84,24.8,9.99,37.96,3.27,14.33-7.31,20.62-20.36,24.01-35.19-1,1.59-1.66,3.39-2.32,5.19-7.22,19.94-29.41,24.12-42.93,7.7-11.2-13.6-12.18-29.21-5.85-45.13,7.07-17.8,21.28-23.62,39.56-16.38Zm-11.64,120.71c.21,.2,.42,.41,.63,.61,.58-.2,1.34-.23,1.72-.63,2.67-2.76,3.81-1.42,5.45,1.35,6.02,10.15,15.14,16.71,26.33,19.76,29.17,7.95,58.43,6.4,87.5-.68,14.72-3.58,26.79-11.55,35.86-23.86,.39-.52,1.05-.98,.83-1.59-1.63-4.41-3.33-8.8-7.49-12.72-.11,1.53-.31,2.06-.14,2.42,1.18,2.5,2.4,4.98,3.69,7.43,.69,1.32,1.01,2.07-.17,3.72-8.84,12.33-21.12,19.2-35.49,22.56-24.57,5.73-49.43,6.5-74.29,2.43-17.09-2.8-30.95-10.75-37.97-28.08-2.26,2.54-4.37,4.91-6.48,7.28Zm20.45-100.91c-.05-6.67-6.35-14.62-13.52-17.06-6.13-2.09-10.92,1.48-10.59,7.9,.35,6.76,7.23,15.18,13.8,16.88,5.69,1.47,10.35-2.02,10.31-7.72Zm229.38,257.67c-1.53-.17-3.08-.18-3.8,1.46-1.24,2.8,.42,5.28,1.35,7.71,.5,1.31,2.19,1.94,3.78,1.72,1.45-.2,2.66-1.18,2.39-2.6-.73-3.86,1.5-2.84,3.52-2.37,21.65,4.98,42.94,10.99,62.75,21.39,5.63,2.95,11.2,5.99,16.53,9.48,1.42,.93,3.47,2.31,4.45-.28,.83-2.18-1.41-1.97-2.71-2.35-.61-.18-1.26-.39-1.77-.75-17.57-12.31-37.15-20.17-57.54-26.32-9.52-2.87-19.02-5.77-28.92-7.07Zm-288.15,191.88c18.15-26.07,43.79-34.36,74.43-33.14-26.97-8.91-65.46,7.46-74.43,33.14Zm38.82-36.18c5.94-34.43,22.19-61.62,55.52-78.06-34.28,8.9-55.24,47.82-55.52,78.06Zm113.49-32.02c-7.22,17.34-17.11,33.03-29.55,47.13,14.93-12.56,25.03-28.12,29.55-47.13Zm-42.36,210.82c-13.15,2.1-26.29,3.79-39.62,1.93-.85-.12-1.8,.29-1.74,1.23,.07,1.1,1.12,1.52,2.11,1.7,13.59,2.51,26.63,.55,39.25-4.85ZM432.29,121.29c-.23,.47-.45,.94-.68,1.41,11.29,7.36,23.52,12.35,37.19,13.74-12.17-5.05-24.34-10.1-36.51-15.15Zm78.26,660.31c.92-8.22-1.53-15.88-3.63-23.58-.3-1.11-1.18-2.04-2.55-1.64-1.15,.34-1.2,1.47-1.14,2.42,.52,8.16,2.81,15.78,7.32,22.79Zm-143.11-99.78c6.56,8.74,24.18,11.33,31.1,4.72-10.71,.25-20.78-.13-31.1-4.72Zm184.14,78.72c-2.6-7.78-8.21-13.45-13.08-19.61-.52-.66-1.48-.61-2.19,.03-.88,.8-.74,1.77-.3,2.68,3.46,7.16,8.63,12.8,15.57,16.89Zm-67.01,24.19c2.71-7.23,3.27-14.63,1.92-22.18-.12-.67-.8-1.59-1.4-1.76-1.16-.33-1.78,.77-1.98,1.68-1.62,7.52-1.15,14.93,1.46,22.27Zm47.35-9.4c-1.5-8.06-5.14-15.11-9.58-21.8-.54-.81-1.42-1.42-2.5-.87-.84,.43-1.05,1.31-.74,2.09,2.96,7.66,7.01,14.64,12.82,20.58Zm-70.01,7.59c4.14-6.55,5.6-13.93,7.07-21.3,.2-.99-.13-2.22-1.25-2.3-1.44-.1-2.3,1.08-2.82,2.31-2.83,6.78-4.24,13.79-3,21.29Zm-14.58-11.04c.25,1.33-.68,3.03,1.01,3.51,1.56,.44,2.09-1.26,2.78-2.26,2.68-3.92,4.33-8.33,5.86-12.78,.41-1.2,.88-2.64-.68-3.42-1.43-.72-2.49,.1-3.27,1.26-2.83,4.22-4.73,8.83-5.69,13.69Zm127.15-40.46c-.31-3.15-11.42-12.01-14.1-11.77-1.77,.16-2.11,1.2-1.69,2.71,.6,2.18,11.43,10.02,13.87,10.03,1.02,0,1.99-.09,1.93-.96Zm-6.99,12.14c-2.89-6.12-7.59-10.43-13.08-13.95-.81-.52-1.9-.86-2.68,.06-.75,.88-.35,1.88,.31,2.64,4.28,4.87,9.19,8.92,15.45,11.25Zm-29.92-556.94c-6.92-8.54-14.75-16.21-21.27-25.02,4.36,10.67,11.08,19.35,21.27,25.02Zm57.41,520.45c-.2-.37-.33-.88-.65-1.2-3.98-3.95-9-5.63-14.37-6.5-.93-.15-1.57,.53-1.78,1.34-.26,1.03,.18,2.11,1.08,2.5,4.31,1.87,8.42,4.23,13.05,5.28,1.19,.27,2.27,.12,2.67-1.42Zm-117.99-165.43c-2.86,.16-4.7,1.55-4.73,4.47-.04,3.24,1.92,5.32,5.02,5.5,2.71,.15,4.67-1.59,4.77-4.47,.11-3.32-2-4.91-5.06-5.5Zm-192.88,174.43c4.47-3.15,8.95-6.29,13.42-9.46,1.23-.87,3.71-1.34,2.75-3.28-1.09-2.2-3.38-1.37-5.15-.41-5.29,2.88-8.89,7.32-11.02,13.15Zm238.86-225.85c-.2-3.21-1.91-4.99-4.96-4.99-2.94,0-4.55,2.1-4.57,4.75-.03,2.94,1.72,4.9,4.94,4.78,2.89-.11,4.43-1.71,4.59-4.53Zm83.66,186.44c1.28-.1,2.53,.12,3.23-1.04,.51-.84,.06-1.59-.66-2.06-3.69-2.42-7.62-4.31-12.01-5.05-1.03-.17-1.95,.18-2.32,1.28-.41,1.22-.11,2.34,1.01,2.95,3.43,1.86,6.96,3.5,10.74,3.92Zm-19.54-252.45c-2.29,.38-4.65,1.16-4.64,4.58,0,2.97,1.62,4.53,4.47,4.55,3.1,.02,4.86-1.88,4.9-4.83,.04-2.57-1.57-4.12-4.73-4.3Zm-97.11,141.08c2.79-.29,4.18-2.17,4.08-4.86-.1-2.68-1.62-4.67-4.58-4.49-2.8,.16-4.5,2.01-4.33,4.77,.17,2.64,1.77,4.43,4.83,4.58Zm4.49-44.67c-.31-2.79-1.71-4.65-4.63-4.66-2.42-.01-4.07,1.34-4.07,3.9,0,2.8,1.49,4.73,4.34,4.98,2.84,.25,4.01-1.64,4.36-4.22Zm30.88-12.82c-2.62,.19-4.35,1.36-4.46,4.17-.11,2.61,1.03,4.71,3.71,4.84,3.14,.15,4.72-2.16,4.87-5.02,.13-2.56-1.83-3.59-4.12-3.98Zm-93.07,253.05c3.65-1.49,5.78-4.75,7.96-7.92,.62-.9,1.36-2.02,.35-3.08-1.14-1.2-2.5-.64-3.5,.17-2.67,2.15-4.64,4.93-6.3,7.91-.75,1.35-.51,2.5,1.49,2.93Zm38.49-192.03c-.1-2.79-1.21-4.6-3.97-4.69-2.59-.08-4.38,1.26-4.54,3.92-.17,2.68,1.54,4.26,4.05,4.49,2.63,.24,4.15-1.28,4.47-3.72Zm38.13-61.34c-.31-2.69-1.67-4.29-4.39-4.1-2.37,.17-3.95,1.65-3.89,4.06,.06,2.76,1.76,4.6,4.52,4.65,2.93,.06,3.44-2.35,3.76-4.61Zm-251.62,194.29c3.79-3.05,6.7-5.34,9.54-7.7,.97-.81,2.26-1.78,1.32-3.24-.97-1.5-2.53-1.21-3.93-.57-4.41,2.01-6.44,5.55-6.93,11.52Zm93.71-311.25c15.87,4.13,31.6,2.19,47.29-1.28-15.72,2.27-31.46,3.8-47.29,1.28Zm290.25,21.67c1.82-.26,3.61-1.06,3.72-3.45,.13-2.75-1.46-4.26-4.17-4.33-2.3-.06-3.73,1.22-3.76,3.56-.03,2.52,1.5,3.81,4.2,4.22Zm-54.06,70.93c.02,2.86,1.51,4.5,4.08,4.67,2.53,.17,3.87-1.57,3.94-3.97,.07-2.46-1.31-4.04-3.79-4.18-2.42-.14-4.02,1.01-4.23,3.49Zm-19.29-49.51c-2.45,.21-3.72,1.77-3.7,4.13,.02,2.46,1.59,3.97,4.02,3.84,2.76-.15,3.8-2.17,3.71-4.71-.09-2.44-1.76-3.22-4.03-3.26Zm-197.12-95.04c8.23-.19,13.76-4.77,18.17-11.14-5.66,4.36-11.91,7.72-18.17,11.14Zm161.66,128.8c2.42-.01,3.65-1.57,3.77-3.65,.13-2.29-1.41-3.55-3.69-3.58-2.35-.04-3.69,1.28-3.74,3.57-.04,2.33,1.34,3.53,3.66,3.66Zm60.9,103.95c-3.46,7.1-4.39,14.53-3.06,22.28,1.02-7.43,2.04-14.85,3.06-22.28Zm25.24-155.42c.06,2.13,.99,3.54,3.1,3.8,2.52,.31,3.56-1.28,3.73-3.47,.17-2.2-1.16-3.39-3.22-3.44-2.03-.05-3.35,1.06-3.61,3.12Zm40.5,9.99c-.04-2-1.1-3.5-3.38-3.68-2.04-.16-3.48,1.08-3.7,3.05-.24,2.24,1.02,3.72,3.32,3.9,2.07,.16,3.31-.96,3.75-3.28Zm-102.7,47.31c-.29-2.41-1.58-3.61-3.92-3.43-2.12,.16-3.26,1.38-3.07,3.54,.18,2,1.26,3.44,3.35,3.49,2.35,.06,3.41-1.49,3.64-3.6Zm32.03-28.46c-1.94,.15-3.18,1.07-2.95,3.35,.18,1.8,.89,3.22,2.95,2.96,1.82-.23,3.62-1.02,3.64-3.18,.02-2.09-1.42-3.1-3.63-3.13Zm102.44-47.36c-.24-1.89-1.12-3.35-3.3-3.26-1.87,.08-2.93,1.39-2.99,3.16-.07,2.09,1.15,3.29,3.27,3.26,1.92-.03,2.82-1.25,3.02-3.16Zm-73.86,62.24c-1.87,.12-3.1,1-3.12,2.99-.02,2.12,1.15,3.4,3.26,3.47,1.89,.06,3.14-1.09,3.24-2.95,.12-2.19-1.46-3.08-3.38-3.51Zm-76.51,84.98c.05-2.25-.93-3.48-2.79-3.7-2.29-.27-3.26,1.23-3.34,3.26-.07,1.92,1.01,3.11,2.96,3.1,1.86,0,3.04-1,3.17-2.66Zm128.36-71.38c.1-1.94-.71-3.23-2.59-3.5-1.74-.25-3.3,.29-3.56,2.29-.26,1.99,.6,3.57,2.72,3.79,1.77,.18,3.03-.8,3.42-2.59Zm-159.5,81.41c1.89-.43,3.32-1.36,3.03-3.55-.26-1.99-1.48-3.19-3.59-3.03-1.89,.14-2.9,1.28-2.77,3.18,.14,2.01,1.22,3.22,3.33,3.4Zm164.37-146.57c-.2-1.67-1.15-2.64-2.85-2.67-1.69-.03-2.9,.86-2.79,2.61,.11,1.73,1,3.23,3.02,3.07,1.63-.13,2.5-1.32,2.61-3.01Zm13.7,11.59c-.26-1.86-1.45-2.74-3.31-2.58-1.74,.14-2.56,1.25-2.37,2.97,.21,1.9,1.43,2.94,3.27,2.77,1.68-.15,2.4-1.43,2.42-3.16Zm-308.38-32.38c-7.96-.79-16.04-.03-24.1-.73,7.93,2.38,15.98,1.29,24.1,.73Zm180.53,137.14c-.15-1.71-.72-3.24-2.64-3.46-1.85-.21-3.17,.73-3.08,2.73,.08,1.71,.91,3.12,2.86,3.26,1.72,.13,2.66-.82,2.86-2.52Zm-122.39,63.36c-1.62,.37-2.71,1.23-2.53,2.99,.2,1.94,1.46,2.81,3.34,2.66,1.54-.12,2.33-1.24,2.31-2.63-.03-1.91-1.32-2.8-3.12-3.02Zm9.53,21.01c-1.56,.25-2.89,.91-2.75,2.73,.14,1.86,1.35,3.05,3.23,2.89,1.63-.14,2.6-1.33,2.47-3.06-.14-1.73-1.19-2.57-2.95-2.56Zm103.46-30.98c1.92-.17,2.69-1.35,2.61-2.96-.09-1.86-1.22-3-3.13-2.97-1.79,.02-2.59,1.25-2.51,2.89,.09,1.89,1.33,2.8,3.03,3.03Zm-40.95-9.71c-1.58,.37-2.84,1.14-2.52,2.9,.31,1.73,1.5,2.83,3.4,2.66,1.51-.14,2.25-1.17,2.2-2.63-.07-1.92-1.26-2.8-3.07-2.93Zm-58.89,6.86c-1.28,.33-2.6,.91-2.53,2.73,.06,1.61,.89,2.79,2.64,2.87,1.59,.07,3.09-.63,3.1-2.31,.01-1.68-1.06-2.99-3.21-3.28Zm191-105.95c1.6-.25,2.43-1.31,2.36-2.99-.07-1.67-.94-2.74-2.73-2.74-2.1,0-2.91,1.3-2.73,3.16,.16,1.64,1.23,2.56,3.1,2.57ZM380.92,98.05c-1.4,5.3,.2,9.78,3.65,13.75-1.22-4.58-2.43-9.17-3.65-13.75Zm159.85,427.87c-.03-1.84-1.22-2.71-2.68-3.02-1.68-.35-2.93,.59-3.08,2.26-.14,1.61,.84,2.8,2.53,2.94,1.58,.13,2.81-.54,3.23-2.18Zm31.04,41.05c-.25-1.57-1.02-2.75-2.75-2.7-1.48,.04-2.33,1.02-2.27,2.52,.07,1.56,.76,2.94,2.46,3,1.69,.06,2.53-1.11,2.55-2.82Zm54.57-131.65c-.12-1.46-.85-2.44-2.35-2.54-1.58-.11-2.98,.45-3.08,2.24-.09,1.59,.74,2.8,2.51,2.89,1.77,.1,2.53-1.06,2.92-2.6Zm-96.91,133.87c-.34-1.55-1.5-2.28-3.09-2.2-1.47,.08-2.34,1.04-2.3,2.54,.05,1.67,1,2.73,2.7,2.71,1.78-.02,2.34-1.4,2.68-3.05Zm7.57-86.75c-.28-1.37-.98-2.55-2.75-2.56-1.85-.01-2.51,1.19-2.51,2.82,0,1.51,.88,2.45,2.36,2.47,1.62,.03,2.75-.75,2.9-2.73Zm62.23-21.44c-1.5,.11-2.83,.66-2.89,2.44-.06,1.87,.94,3.06,2.9,3.01,1.69-.04,2.67-1.1,2.74-2.74,.08-1.73-.99-2.58-2.74-2.72Zm-14.54,74.75c-.23-1.62-1.21-2.6-2.9-2.53-1.44,.06-2.51,.85-2.37,2.45,.14,1.64,1.05,2.78,2.82,2.64,1.4-.11,2.39-.91,2.46-2.56Zm-1.47-71.76c-.35-1.55-1.05-2.7-2.84-2.68-1.51,.01-2.44,.8-2.56,2.27-.15,1.7,.79,2.8,2.45,2.9,1.63,.1,2.64-.87,2.95-2.49Zm-28.63-8.39c-.18-1.54-1.08-2.27-2.58-2.22-1.54,.05-2.42,1.01-2.35,2.45,.08,1.61,1.01,2.75,2.8,2.53,1.53-.19,2.01-1.38,2.13-2.76Zm-77.58,166.59c1.39-.16,2.71-.62,2.59-2.27-.15-1.98-1.76-2.69-3.45-2.75-1.54-.05-2.38,1.06-2.24,2.57,.16,1.79,1.47,2.37,3.1,2.45Zm15.8-81.13c-.15-1.34-.35-2.75-2.05-2.8-1.65-.05-2.91,.86-2.9,2.58,0,1.63,1.13,2.7,2.78,2.79,1.72,.1,2.09-1.18,2.18-2.57Zm69.72-2.38c-1.18,.35-2.28,1.03-2.18,2.58,.09,1.5,.96,2.37,2.56,2.17,1.47-.18,2.41-1.04,2.37-2.54-.04-1.54-1.05-2.25-2.75-2.22Zm53.38-32.29c-.16-1.51-1.13-2.28-2.62-2.15-1.81,.15-2.45,1.45-2.37,3.09,.07,1.36,.96,2.05,2.28,1.97,1.71-.11,2.65-1.07,2.71-2.9ZM345.75,114.35c-1.13-4.13-2.79-8.1-3.62-12.32-.91,4.74,.66,8.74,3.62,12.32Zm260.49,308.87c-.05-1.92-.9-2.76-2.38-2.76-1.52,0-2.35,.94-2.29,2.43,.06,1.45,.86,2.36,2.4,2.37,1.58,0,2.24-.94,2.28-2.03Zm-130.19,160.91c-.27-1.62-1.21-2.6-2.89-2.65-1.56-.05-2.45,.83-2.39,2.37,.07,1.64,.94,2.78,2.72,2.71,1.45-.06,2.35-.92,2.56-2.43Zm189.02-142.77c-1.5,.21-2.38,1.04-2.31,2.59,.05,1.36,1.03,2.03,2.24,2.15,1.5,.14,2.6-.62,2.57-2.19-.03-1.46-1.05-2.28-2.5-2.54Zm-59.33,.22c1.35-.28,2.49-.9,2.23-2.51-.23-1.39-1.2-2.3-2.71-2.12-1.24,.15-2.09,.99-2.04,2.26,.06,1.47,.99,2.28,2.52,2.37Zm-134.83,165.23c-.05-1.48-.7-2.54-2.28-2.47-1.46,.06-2.41,.99-2.33,2.49,.07,1.22,.84,2.08,2.13,2.22,1.6,.17,2.33-.73,2.48-2.24ZM372.87,98.18c-2.28,5.79-2.17,9.69,.26,14.58-.63-4.91-.81-9.21-.26-14.58Zm-21.48,5.53c1.21,6.44,2.53,8.52,7.12,10.93-3.23-3.6-5.19-7.22-7.12-10.93Zm171.57,434.67c-.03-1.34-.72-2.17-2.05-2.22-1.46-.05-2.59,.58-2.49,2.24,.08,1.19,.69,2.22,2.05,2.31,1.59,.1,2.32-.84,2.48-2.33Z"/>
  <path d="M223.09,837.46c-7.82,2.4-11.82,8.35-14.81,15.38-1.71-8.47,1.6-15.23,7.6-20.59,3.11-2.78,2.44-3.59-.43-5.86-20.64-16.29-40.87-33.06-56.39-54.61-10.49-14.58-18.71-30.29-21.03-48.4-4.3-33.64,20.24-64.15,53.98-67.43,11.2-1.09,11.54-1.12,12.5,9.97,3.24,37.44,19.68,69.2,41.75,98.62,16.06,21.4,35.06,39.86,56.25,56.13,6.05,4.65,5.91,4.67,2.34,11.19-5.75,10.5-15.31,15.68-26.19,19.01-16.56,5.07-33.61,6.14-50.8,6.15-3.51,0-3.76-1.28-2.66-4.08,1.47-3.74,4.08-6.63,6.7-9.54,.75-.83,2.03-1.7,1.19-2.85-.93-1.26-2.46-.72-3.55,0-4.48,2.97-7.71,7.15-7.06,12.55,.49,4.13-1.37,3.82-3.91,3.59-2.37-.22-5.65,.93-6.85-1.22-1.25-2.24,1.67-4.24,2.76-6.34,2.24-4.34,6.47-7.17,8.62-11.66Zm48.96-6.72c-10.67-.3-21.38-.25-31.99-2.04-.97-.16-2.16-.3-2.34,.98-.16,1.15,.93,1.52,1.89,1.83,10.85,3.45,21.64,3.14,32.44-.77Z"/>
  <path d="M110.14,478.39c12.7-13.12,18.59-27.57,17.48-44.71-1.1-17-9.51-30.01-22.81-41.52,8.61-.24,15.93,1,23.06,2.91,43.17,11.57,78.13,35.13,103.65,72.05,7.18,10.38,11.57,22.2,15.54,34.14,1.19,3.57-1.36,5.9-2.83,8.41-7.24,12.4-14,25.03-19.44,38.33-5.43,13.28-10.3,26.75-13.45,40.79-.35,1.54-.32,3.77-1.91,4.28-1.78,.57-2.48-1.72-3.55-2.79-6.46-6.42-13.97-7.92-22.49-5.16-4.05,1.31-7.79,3.29-11.53,5.3-1.51,.81-3.24,2.85-4.75,1.78-1.72-1.23-.41-3.66-.11-5.47,.62-3.74,.6-7.45,.45-11.2-.62-15.06-12.37-29.58-25.72-31.06-4.38-.49-2.01-2.45-.8-4.07,7.65-10.17,10.76-21.47,8.24-34.04-3.23-16.1-13.86-25.63-30.19-27.31-2.4-.25-4.82-.36-8.82-.66Zm44.18-23.26c-.16-1.45-.87-2.46-2.44-2.44-1.67,.02-2.8,.87-2.8,2.65,0,1.54,.97,2.39,2.45,2.46,1.76,.08,2.66-.92,2.79-2.67Zm-2.22-36.2c-.13-1.53-1.02-2.47-2.5-2.33-1.63,.16-2.63,1.29-2.54,2.98,.08,1.45,.97,2.5,2.5,2.34,1.66-.17,2.52-1.29,2.55-3Zm11.86,87.81c1.36-.35,2.41-1.1,2.45-2.6,.04-1.54-.96-2.43-2.43-2.49-1.58-.06-2.34,.95-2.33,2.48,0,1.5,.73,2.44,2.31,2.61Zm66.06-.98c1.51-.22,2.3-1.09,2.22-2.63-.09-1.58-1.02-2.36-2.54-2.2-1.47,.15-2.37,1.04-2.26,2.6,.12,1.53,1.04,2.28,2.58,2.23Zm-50.8-.41c1.53-.08,2.62-.73,2.73-2.25,.13-1.65-.64-2.89-2.46-2.85-1.47,.04-2.39,1.01-2.41,2.5-.02,1.4,.54,2.51,2.13,2.6Zm1.78-52.65c.15,1.47,.87,2.5,2.43,2.36,1.7-.15,2.58-1.36,2.45-2.98-.12-1.53-1.29-2.16-2.74-2.03-1.55,.14-2.17,1.16-2.14,2.64Z"/>
  <path d="M489.8,78.28c-9.3-5.17-17.74-9.27-25.36-14.74-5.43-3.89-10.79-7.85-15.77-12.33-1.78-1.6-2.53-3.11-2.12-5.46,2.05-11.7,3.86-23.45,6.06-35.12,.79-4.2,1.2-9.67,6.42-10.53,5.27-.86,7.98,3.91,10.13,7.85,9.68,17.74,15.14,36.98,19.43,56.6,2.58,11.81,3.89,23.77,4.27,35.85,.09,2.74-.47,3.39-3.26,2.63-18.28-4.99-35.81-11.95-53.02-19.79-2.33-1.06-3.31-1.91-1.72-4.62,4.04-6.91,7.07-14.3,9.21-22.01,.94-3.38,1.87-3.9,4.69-1.45,9.9,8.57,20.77,15.71,32.85,20.88,2.19,.94,4.31,2.14,8.18,2.25Z"/>
  <path d="M223.97,133.91c-.45,.81-.93,1.66-1.39,2.52-9.85,18.22-23.53,33.5-37.26,48.75-1.54,1.7-2.44,1.84-4.24,.09-9.27-9.01-17.33-18.95-24.27-29.86-1.68-2.63-1.74-3.98,1.3-5.54,15.27-7.78,27.53-19,36.85-33.36,1.3-2,2.01-2.38,3.93-.75,7.33,6.21,14.77,12.3,23.54,16.45,.75,.35,1.49,.66,1.55,1.7Z"/>
  <path d="M256.71,93.92q-13.18,1.05-10.74-11.82c2.16-11.24,5.5-22.13,9.6-32.81,1.02-2.66,2.31-3.78,5.29-3.77,9.95,0,19.89-.59,29.75-2.04,3.18-.47,4.74-.01,4.78,3.74,.17,13.25,1.37,26.4,5.62,39.06,1.08,3.23-1.01,3.07-2.95,3.35-13.73,1.96-27.53,3.23-41.35,4.3Z"/>
  <path d="M601.09,66.48c.35,15.61-2.22,30.82-6.14,45.88-.77,2.96-2.03,3.02-4.46,2.26-12.82-4-22.73-11.76-30.23-22.82-1.21-1.78-.71-2.77,.38-4.24,10.4-14.08,19.08-29.15,26.03-45.23,1.03-2.38,2.49-4.57,3.85-6.79,1.02-1.67,2.22-3.81,4.3-3.55,2.39,.3,2.91,2.86,3.43,4.9,1.65,6.5,2.48,13.13,2.82,19.81,.17,3.25,.03,6.52,.03,9.78Z"/>
  <path d="M533.19,117.31c1.61,.22,2.07,1.34,2.69,2.27,9.44,14.28,21.58,25.53,37.11,32.92,2.68,1.27,3.19,2.52,1.39,5.14-5.45,7.92-11.28,15.52-17.4,22.92-1.53,1.85-2.61,2.32-4.66,.45-14.94-13.63-28.83-28.18-40.46-44.82-2.37-3.4-2.28-5.03,1.73-6.69,6.03-2.5,11.37-6.29,16.6-10.18,1.02-.76,2.12-1.42,3.01-2.01Z"/>
  <path d="M135.4,84.86c-.03-17.74,2.38-31.83,6.72-45.59,.89-2.83,1.26-7.13,4.77-7.18,3.49-.05,4.05,4.28,5.07,7.03,4.07,10.99,7.15,22.36,12.89,32.68,2.92,5.27,5.99,10.46,9.2,15.56,1.21,1.93,1.48,3.12-.25,5-8.47,9.2-18.91,14.76-30.96,17.61-3.27,.77-4.69-.24-5.25-3.58-1.38-8.22-2.11-16.48-2.18-21.54Z"/>
  <path d="M576.76,151.33c-.64-.3-1.54-.68-2.4-1.14-14.32-7.64-26.49-17.67-35.54-31.35-2.06-3.12-2.09-4.96,.84-7.69,5.36-4.97,10.18-10.53,15.11-15.95,1.67-1.83,2.71-2.36,4.37,.09,7.58,11.26,17.99,18.69,31.11,22.2,2.13,.57,2.55,1.57,1.95,3.5-3.19,10.15-7.75,19.68-12.84,28.99-.5,.91-1.17,1.57-2.6,1.35Z"/>
  <path d="M492.78,118.52c-.13,2.93-.21,5.87-.42,8.79-.41,5.66-.6,5.81-6.05,4-17.99-5.97-35.26-13.6-51.83-22.79-3.56-1.97-7.04-4.09-10.58-6.12-2-1.15-2.82-2.21-.93-4.46,2.28-2.73,4.37-5.75,5.94-8.94,1.91-3.89,3.97-4.41,7.89-2.54,16.95,8.1,34.52,14.56,52.81,18.94,2.81,.67,3.67,2.08,3.47,4.81-.21,2.75-.05,5.54-.05,8.31-.08,0-.17,0-.25,0Z"/>
  <path d="M139.8,115.91c-.58-2.14,.9-2.46,2.4-2.81,12.98-3,24.53-8.59,33.57-18.66,1.58-1.75,2.41-1.16,3.74,.44,4.15,5,8.43,9.91,12.85,14.67,1.56,1.67,1.47,2.86,.35,4.64-9.23,14.7-21.81,25.7-37.05,33.8-1.2,.64-2.32,1.27-3.24-.46-5.39-10.08-9.78-20.55-12.62-31.63Z"/>
  <path d="M301.76,91.62c3.02,1.41,3,5.09,4.54,7.7,1.38,2.35-1.1,2.56-2.4,3.2-18.26,9.09-37.16,16.61-56.53,23.03-4.29,1.42-5.32,.29-5.23-3.9,.16-6.85,.33-13.68,.92-20.51,.22-2.5,.93-3.75,3.76-3.83,17.95-.54,35.76-2.58,53.49-5.38,.32-.05,.64-.13,1.44-.3Z"/>
  <path d="M295.56,23.53c0,4.39-.06,8.79,.02,13.18,.04,2.34-.73,3.48-3.27,3.77-10.03,1.18-20.08,1.99-30.17,2.42-3.42,.15-3.9-.79-2.48-3.8,5.23-11.05,10.47-22.08,19.01-31.07,2-2.1,4.28-4.05,6.74-5.58,5.5-3.42,8.93-1.84,10.07,4.5,.98,5.49,.39,11.04,.07,16.57Z"/>
  <path d="M458.05,250.38c-.09,7.76-1.49,15.22-5.06,22.2-9.87,19.33-32.53,21.26-45.45,3.84-12.63-17.02-8.55-45.26,8.34-57.7,11.67-8.6,26.01-6.12,34.2,5.91,5.43,7.98,7.84,15.76,7.96,25.75Zm-6.19-13.41c-.09-8.06-9.77-17.43-17.73-17.18-4.09,.13-6.4,2.59-6.51,6.91-.19,7.25,5.85,15.37,13.42,18.05,6.64,2.35,10.9-.72,10.82-7.78Z"/>
</svg>