<?xml version="1.0" encoding="UTF-8"?>
<svg id="Layer_1" data-name="Layer 1" xmlns="http://www.w3.org/2000/svg" viewBox="0 0 864 864">
  <path d="M508.66,301.01c12.51-3.76,24.42-9,36.07-14.89,27.88-14.1,50.27-34,65.33-61.61,14.36-26.32,10.51-55.03-10.23-75.75-9.31-9.31-20.62-15.85-32.18-21.96-1.81-.96-3.14-.39-4.76,.34-3.8,1.71-7.68,3.31-13.37,1.67,3.35-.84,5.44-1.24,7.44-1.89,2.13-.69,5.62-.49,5.84-2.83,.24-2.46-2.33-4.48-4.78-5.71-.1-.05-.2-.08-.31-.12-.74-5.46-1.83-6.05-6.62-3.77-4.62,2.2-9.29,2.74-14.01,.37,4.61-.52,9.33-.18,13.55-2.55,1.4-.78,4.3-1.02,2.3-3.72-1.38-1.87-1.06-5.87-5.59-4.24-4.53,1.63-9.34,2.34-14.22,1.23,5.17-2.01,10.83-1.36,16.06-3.26-.59-3.34-2.77-5.92-3.85-8.97-.66-1.87-1.69-1.62-3.21-.95-3.73,1.65-7.78,2.06-11.78,2.59-1.2,.16-2.9,.38-2.99-1.25-.08-1.48,1.59-1,2.58-1.12,3.08-.38,6.15-.81,9.24-1.07,3.91-.33,4.83-1.67,2.99-5.51-3.18-6.61-2.93-6.71-10.13-4.99-1.51,.36-3.03,.8-4.57,.86-1.78,.06-3.93,1.28-5.55-1.39,4.67-.88,9.05-1.66,13.4-2.58,.9-.19,2.3,.07,2.48-1.52,.45-3.96-3.62-7.38-7.53-6.55-3.42,.73-6.91,2.44-11.3-.08,4.57-.95,8.28-1.69,11.98-2.49,1.03-.22,2.23-.32,2.58-1.62,.92-3.39-3.36-7.6-6.84-6.78-2.41,.57-4.82,1.18-7.26,1.6-2.23,.38-4.46,.33-7.02-1.94,4.58-.5,8.34-.79,12.07-1.36,6.37-.97,6.44-1.34,3.91-7.2-.79-1.82-1.62-2.36-3.48-1.86-3.18,.85-6.44,.98-9.7,.52-2.02-.29-4.02-.67-4.52-3.7,4.57,1.16,9.03,1.35,13.49,1.13,.98-.05,2.23,.28,2.73-1.14,1.08-3.06-1.95-7.53-5.18-7.48-3.15,.05-6.2-.28-9.02-1.8-.98-.53-2.15-1.28-1.59-2.47,.79-1.66,1.79-.13,2.63,.23,2.59,1.13,5.26,1.88,8.09,1.97,1.22,.04,2.53,.16,3.06-1.42,1-2.96-1.48-7.02-4.55-7.76-2.75-.66-5.93-.74-7.3-3.98,2.91,.66,5.58,1.82,8.46,2.22,1.62,.23,2.86-.03,2.58-2.1-.86-6.29-1.3-12.67-3.67-18.66-.69-1.75-1.55-3.65-3.72-3.7-2.19-.06-3.07,1.88-3.91,3.53-4.71,9.33-8.29,19.04-9.87,29.43-3.59,23.61,.87,46.32,7.74,68.75,1.37,4.48,3.02,8.87,4.54,13.28-5.28-.32-7.24-3.78-8.94-7.78-4.2-9.88-9.87-18.98-15.51-28.07-1.26-2.03-2.33-5.84-5.41-4.57-2.47,1.02-1.07,4.44-.84,6.8,.49,4.94,1.92,9.81,1.35,15.74-6.92-9.13-13.42-17.41-21.74-23.98-1.5-1.19-3.13-3.45-5.18-2.07-1.83,1.24-.85,3.74-.5,5.63,.75,4.1,1.83,8.15,2.59,12.25,.37,1.99,1.81,4.81-.96,5.69-2.43,.77-2.94-2.2-3.79-3.91-3.76-7.53-8.38-14.5-13.43-21.2-.96-1.27-2.04-2.69-3.78-2.03-1.54,.58-1.34,2.28-1.31,3.67,.14,6.36,.33,12.71,.43,19.07,.02,1.55,.97,3.6-1.61,4.17-2.29,.5-3.56-.31-4.61-2.6-2.79-6.09-6.73-11.5-11-16.65-.9-1.09-1.8-2.38-3.43-1.83-1.7,.57-1.54,2.18-1.41,3.56,.44,4.79,1,9.56,1.42,14.35,.13,1.44,.83,3.41-1.1,4.03-1.85,.59-2.61-1.28-3.45-2.53-3.39-5.01-6.63-10.12-10.13-15.05-1.87-2.64-4.1-5.04-6.28-7.45-.71-.79-1.81-1.4-2.93-.7-.9,.57-.81,1.65-.68,2.54,.39,2.76,.76,5.53,1.38,8.25,1.6,7,3.33,13.98,5.01,20.96-4.31-4.14-7.93-8.56-11.67-12.86-1.07-1.23-2.33-3.15-4.16-2.33-2.01,.9-1.5,3.15-1.18,4.94,.84,4.8,1.78,9.58,2.7,14.46-2.62,.18-2.99-1.85-3.88-3.13-4.09-5.85-7.89-11.91-13-16.96-1.18-1.16-2.71-2.65-4.43-1.64-1.53,.9-.83,2.78-.59,4.3,1.19,7.67,2.89,15.23,5.26,22.62,.81,2.53,.76,4.34-2.15,5.57-7.93,3.35-14.78,8.45-21.45,13.8-1.07,.86-2.08,2.39-3.56,1.51-2.2-1.3-3.34-.03-4.72,1.26-6.48,6.02-12.99,12-19.52,17.97-1.25,1.14-2.34,2.65-4.49,2.81,.46-2.91,2.2-4.53,3.89-6.09,4.67-4.31,9.36-8.62,14.2-12.74,6.68-5.67,6.59-5.4-.46-10.85-2.96-2.28-4.55-1.71-6.99,.59-4.61,4.37-9.55,8.4-14.45,12.45-1.32,1.09-2.59,2.77-4.82,2.02,.05-2.1,1.67-2.98,2.92-4.04,3.79-3.21,7.61-6.38,11.5-9.46,6.62-5.25,6.53-5.11,1.1-11.4-1.86-2.16-3.05-2.29-5.28-.6-5.56,4.22-11.3,8.2-17.02,12.2-.88,.62-1.75,1.97-3.24,.84,.29-2.05,1.7-3.26,3.22-4.35,3.66-2.61,7.3-5.26,11.04-7.76,7.27-4.85,7.16-4.71,2.13-11.57-1.83-2.49-2.98-2.23-5.1-.52-3.99,3.2-8.18,6.15-12.39,9.07-1.27,.88-3.12,2.79-4.35,.89-.95-1.46,1.35-2.44,2.58-3.28,3.7-2.55,7.26-5.4,11.22-7.47,4.51-2.35,4.22-4.68,1.74-8.52-2.03-3.14-3.29-3.98-6.6-1.55-3.72,2.74-7.96,4.79-12.09,6.92-1.45,.75-3.21,1.93-5.53-.12,5.15-2.75,9.89-5.27,14.63-7.81,7.27-3.9,5.86-2.75,3.15-9.05-1.71-3.96-3.08-3.12-5.47-.78-3.89,3.82-8.25,7.06-13.37,9.12-.87,.35-1.98,.63-2.47-.4-.57-1.2,.67-1.57,1.43-1.94,5.05-2.48,9.58-5.72,14-9.15,1.77-1.37,3.47-2.45,1.86-5.23-1.88-3.23-3.47-.61-4.95,.05-3.81,1.69-7.32,4.15-11.62,4.55-1.15,.11-2.81,.56-3.05-1.15-.2-1.45,1.37-1.44,2.36-1.6,4.37-.68,8.19-2.82,12.22-4.41,2.23-.88,3.66-1.84,1.94-4.29-1.26-1.79-.81-5.85-5.15-3.66-3.46,1.75-7.2,2.86-11.11,3.23-1.08,.1-2.47,.4-2.79-.92-.43-1.77,1.35-1.28,2.2-1.53,1.93-.57,3.92-.95,5.89-1.39,8.17-1.82,7.87-1.71,5.11-9.33-1.44-3.98-3.14-4.38-6.78-3.03-2.59,.96-5.66,2.71-8.55,.04,.37-.42,.54-.79,.77-.85,1.2-.3,2.41-.57,3.63-.76,8.16-1.28,8.24-1.3,5.82-8.87-1.6-5-2.37-10.32-5.34-14.81-.89-1.34-1.69-3.16-3.88-2.77-2,.35-2.62,2.04-3.23,3.63-1.5,3.94-2.14,8.07-2.6,12.25-1.44,12.9-.59,25.71,1.25,38.5,5.2,36.17,17.9,68.93,43.55,95.78,2.4,2.52,2.2,4.24,.22,7.03-15.43,21.74-15.77,47.06-.93,69.19,11.44,17.06,27.85,28.04,46.06,36.61,17.48,8.23,36.08,13.2,54.63,18.3,2.72,.75,4.65,1.36,4.07,5.14-4.33,28.05-9.34,56-17.26,83.25-10.18,35-23.9,68.78-39.7,101.57-21.31,44.22-39.05,89.36-45.91,138.41-5.29,37.76-3.04,75.12,2.83,112.56,1.55,.46,3.63-2.18,4.77,.56,.64,1.54-.15,2.96-1.81,3.09-3.01,.25-2.68,2.35-2.14,4,.6,1.82-1.57,5.25,2.92,5.19,2.01-.03,1.94,2.38,.84,2.99-3.88,2.13-2.63,4.44-.75,6.96,.73,.98,1.01,1.97,.16,2.93-1.46,1.66-.78,3.57-.66,5.36,.94,13.6,1.95,27.19,2.92,40.79,.97,13.61,1.56,27.25,3.72,40.74,.3,1.89,.38,4.49,3,4.59,2.22,.08,2.75-2.24,3.36-3.94,.89-2.48,1.58-5.02,2.34-7.54,.62-2.03,.98-5.48,2.8-5.28,2.38,.25,1.92,3.68,2.32,5.84,.53,2.9,.82,5.84,1.38,8.73,.23,1.19,.82,2.45,2.28,2.64,1.59,.21,2.14-1.08,2.55-2.24,1.05-2.91,1.72-5.99,3.02-8.78,2.04-4.37,.93-5.8-3.74-4.86-.79,.16-1.91,.32-2.39-1.18,8.34-2.52,16.95-1.91,25.44-2.42-3.17,.97-6.35,1.95-9.52,2.92,1.06,3.23,2.02,6.49,3.2,9.68,.88,2.36,.98,6.1,4.13,6.01,3.62-.1,3.19-4.08,3.71-6.58,3.09-15.04,5.07-30.25,6.3-45.54,.26-3.23,1.18-4.76,4.56-4.91,4.02-.17,8.02-.84,12.04-1.17,32.9-2.72,64.26-10.35,92.27-28.75,.84-.55,1.81-1.68,2.87-1.04,1.27,.76,.58,2.26,.56,3.42-.48,22.56,1.67,44.91,5.31,67.13,.87,5.32,1.88,10.7,4.36,15.62,.77,1.53,1.25,3.39,3.38,3.34,1.92-.04,2.41-1.79,2.96-3.19,.8-2.02,1.42-4.1,2.06-6.18q2.12-6.89-4.62-9.47c-.41-.16-.82-.32-.41-1.05,2.22,.22,4.51,.43,6.8,.69,2.31,.26,4.63,.9,6.91,.78,4.64-.23,6.14,2.16,6.72,6.32,.56,3.97,1.77,7.86,2.8,11.76,.32,1.19,.91,2.41,2.5,2.32,1.33-.08,1.78-1.13,2.11-2.17,1.03-3.25,2.04-6.51,2.99-9.79,1.8-6.25,1.78-6.24-4.47-6.18-.89,0-1.87,.34-2.94-.71,6.75-.69,13.24-1.35,20.1-2.06-2.16,2.71-6.71,.19-7.2,3.37-.4,2.65,1.35,5.63,2.17,8.46,.21,.74,.41,1.51,.75,2.2,1.12,2.36,.59,6.67,3.88,6.51,3.56-.17,3.24-4.51,3.73-7.18,2.43-13.25,3.34-26.69,4.42-40.11,.43-5.38,.11-10.86,1.97-16.09,4.32-12.12,8.39-24.34,12.85-36.41,17.02-46.06,26.49-93.1,21.02-142.58-4.7-42.52-15.24-83.18-35.5-121.02-13.9-25.97-27.91-51.83-38.93-79.26-15.07-37.53-18.75-75.54-7.78-114.72,.83-2.96,2.23-4.41,5.04-5.26Zm-190.77,360.15c1.47,.22,2.15,1.21,2.09,2.54-.06,1.42-1.05,2.22-2.45,2.14-1.45-.08-2.12-1.1-2.05-2.5,.08-1.46,1-2.12,2.4-2.19Zm-1.81,73.81c-1.79,.13-3.04-.71-3.08-2.64-.04-1.87,1.06-2.8,2.78-2.91,2.03,0,2.97,.98,2.92,2.87-.04,1.69-1.06,2.57-2.62,2.68Zm.13-14.89c-1.69,0-2.54-1.06-2.55-2.65,0-1.52,.66-2.77,2.37-2.86,1.8-.1,2.89,.83,3.15,2.71-.14,1.79-1.15,2.79-2.97,2.79Zm.85-13.68c-1.75,.04-2.6-.92-2.66-2.49-.06-1.53,.76-2.72,2.31-2.9,1.67-.19,2.47,1.01,2.59,2.52,.13,1.58-.73,2.55-2.24,2.86Zm.69-14.03c-1.71,.22-2.71-.73-2.7-2.36,0-1.38,.93-2.27,2.35-2.39,1.52-.12,2.22,.8,2.49,2.15-.11,1.39-.7,2.42-2.15,2.6Zm.6-13.21c-1.53,.06-2.35-.92-2.45-2.25-.12-1.57,.78-2.73,2.38-2.91,1.51-.17,2.21,.83,2.34,2.28-.1,1.48-.41,2.82-2.28,2.89Zm1.63-27.3c-1.61,.07-2.59-.84-2.59-2.5,0-1.65,1-2.56,2.6-2.47,1.43,.08,2.08,1.09,2.11,2.49-.05,1.4-.68,2.41-2.12,2.47Zm1.08-13.65c-1.46,.06-2.36-.74-2.47-2.18-.13-1.66,.78-2.61,2.42-2.75,1.51-.13,2.26,.71,2.46,2.27-.05,1.47-.7,2.58-2.42,2.65Zm2.21-14.9c-1.51,.21-2.48-.57-2.46-2.04,.02-1.52,.94-2.55,2.41-2.9,1.58,.11,2.41,.94,2.31,2.39-.09,1.32-.82,2.35-2.26,2.55Zm5.55-29.05c-1.11-.24-2.02-.82-1.89-2.09,.14-1.32,.91-2.28,2.38-2.2,1.23,.07,2.01,.92,1.93,2.08-.1,1.3-.9,2.21-2.42,2.2Zm28.92-86.41c-1.42-.19-2.15-1.06-2-2.5,.12-1.19,.89-2.02,2.1-2.1,1.48-.09,2.36,.84,2.31,2.25-.05,1.34-.84,2.28-2.41,2.34Zm10.71-22.53c-1.56-.05-2.02-1.24-2.06-2.55-.04-1.68,.9-2.59,2.56-2.54,1.5,.05,2.14,.99,2.08,2.45-.19,1.55-.86,2.7-2.58,2.64Zm165.3-247.49c-3.24-3.12-4.18-7.91-1.4-13.16-.17,7.78,1.35,13.28,9.42,13.88-3.41,1.92-5.61,1.6-8.02-.72Zm23.68-119.34c-2.37,4.08-8.33,6.23-14.08,3.89,5.75-.64,9.98-2.12,14.08-3.89Zm-42.5,35.47c7.13-10.36,17.23-14.93,29.67-13.68,12.59,1.26,20.37,9.04,25.19,20.12,2.61,6,3.95,12.38,3.89,18.99-.09,21.87-14.95,36.06-36.8,35.12-15.19-.66-28.75-14.66-29.92-31.03-.77-10.73,1.89-20.65,7.98-29.5Zm-21.87-27.98c1.41,3.31,2.45,5.49,3.26,7.75,.35,.98,.49,2.37-.8,2.8-1.49,.5-1.73-.9-1.91-1.9-.42-2.39-1.51-4.72-.56-8.66Zm-12.62,103.55c.5-3.12,1.66-5.98,4.2-7.95,2.31-1.79,4.37-.75,6,1.23,1.66,2.01,.42,3.43-1.24,4.54-2.27,1.51-4.28,3.53-7.9,4.05-.78,.2-1.29-.5-1.07-1.87Zm-23.48-127.72c1.46,2.82,2.92,5.64,4.38,8.46,.37,.72,.64,1.57-.22,2.02-1.06,.55-1.82-.23-2.13-1.12-1.03-2.97-1.94-5.99-2.9-8.98,.29-.12,.58-.24,.88-.37Zm-2.85,18.82c2.43,1.15,2.24,3.53,2.92,6.09-3.08-.79-3.84-2.59-3.92-4.85-.02-.63,.47-1.49,1-1.24Zm-3.88,109.29c.36-2.4,1.05-5.1,4.28-5.17,2.19-.05,7.29,5.15,7.24,7.17-.05,2.02-.99,3.21-3.22,2.9-4.65-.04-8.69-2.29-8.3-4.89Zm-5.85-104.25c-2.34-2.99-2.77-5.55-2.82-9.16,2.36,2.85,3.87,5.05,2.82,9.16Zm-23.74-36.37c1.01,3.02,2.05,6.03,3.01,9.07,.11,.36-.2,.84-.5,1.98-2.56-3.67-2.91-7.33-2.51-11.04Zm-28.33,25.56c.33,.95,.54,1.99-.4,2.45-1.27,.61-1.47-.66-1.68-1.48-.85-3.22-2.66-6.21-2.59-10.52,2.25,3.6,3.59,6.51,4.67,9.56Zm-25-19.67c4.93,9.55,9.79,19.2,11.86,29.94-5.45-9.36-9.15-19.41-11.86-29.94Zm-25.45,93.86c-1.62-19.15,11.69-35.87,31.04-38.86,15.64-2.42,29.37,1.91,39.05,14.35,20.45,26.27-.23,52-21.38,56.53-3.65,.78-7.35,1.09-11.08,1.17-18.18,.38-36.13-15.47-37.63-33.19Zm58.32,444.01c.47,.05,.95,.08,1.42,.08,4.39,.06,8.65-1.4,12.79-2.84,.67,.68,.46,1.88-.19,2.57s-1.62,.98-2.54,1.21c-5.75,1.45-11.82,1.59-17.63,.41-1.22-.25-2.47-.57-3.47-1.31-1.26-.92-2-2.4-2.52-3.87-1.36-3.85-1.5-8.01-1.62-12.1-.58-18.61-1.16-37.22-1.74-55.84-.27-8.53-1.8-18.86,.19-27.19,1.14,2.2,.59,6.67,.7,9.35,.15,3.52,.29,7.03,.44,10.55,.3,7.27,.61,14.53,.91,21.8,.6,14.3,1.2,28.6,1.81,42.89,.12,2.94,.28,5.99,1.71,8.56,1.91,3.42,5.81,5.3,9.75,5.71Zm31.98-240.24c1.75,.05,2.68,1.18,2.79,2.73-.25,1.98-1.19,3.05-2.99,3.06-1.86,0-2.76-1.06-2.65-2.91,.1-1.77,1.06-2.93,2.85-2.88Zm-2.77-9.57c0-1.52,.76-2.59,1.97-3.1,1.46,.08,1.89,.84,1.89,1.87,0,1.49-.48,2.9-2.03,3.26-1.43,.33-1.82-.9-1.82-2.03Zm8.74-13.56c1.7,.25,3.19,.98,3.08,3.1-.11,2.3-1.71,3.17-3.77,3.01-1.93-.15-3.15-1.4-2.99-3.35,.16-1.98,1.63-2.79,3.68-2.77Zm-.32-13.02c1.42-.15,1.83,.83,1.84,2.03,.01,1.69-.85,2.84-2.05,3.6-1.81-.05-1.79-1.28-1.93-2.29-.22-1.67,.1-3.14,2.14-3.35Zm40.55,335.36c-1.88-.13-3.29-1.3-3.06-3.33,.24-2.16,1.56-3.85,3.89-3.83,2.17,.02,3.21,1.54,3.26,3.72-.35,2.34-1.77,3.6-4.09,3.44Zm.42,43.02c-.02,2.03-1.08,3.28-3.07,3.32-1.67,.03-3.17-.76-3.11-2.68,.06-2.06,1.19-3.46,3.41-3.63,1.93,.11,2.8,1.15,2.78,3Zm-21.22-83.62c.13-2.93,1.91-4.79,5.28-4.87,2.63,.28,4.61,1.59,4.54,4.6-.07,3.31-2.17,5.14-5.35,5.13-2.93-.01-4.59-2.09-4.48-4.86Zm5.66,49.61c1.22,.17,1.67,1.23,1.64,2.34-.63,1.44-1.3,2.82-3,2.55-1.18-.19-1.8-1.26-1.53-2.47,.32-1.49,1.22-2.65,2.89-2.42Zm-31.84,18.8c-2.29,.04-3.93-1.2-3.8-3.7,.12-2.36,1.59-3.72,3.98-3.6,2.06,.1,3.5,1.16,3.67,3.4-.24,2.38-1.53,3.87-3.86,3.91Zm.68,28.37c-.08,2.19-1.46,3.24-3.36,3.47-1.91-.15-3.26-.85-3.26-2.74,0-2.4,1.46-3.66,3.8-3.65,1.79,0,2.89,1.09,2.83,2.92Zm-15.24-36.52c1.88,.12,3.14,1.17,3.18,3.23-.38,2.09-1.5,3.44-3.69,3.45-2.23,0-3.49-1.16-3.26-3.47,.22-2.2,1.63-3.34,3.76-3.2Zm-3.8,32.1c2.04,.03,3.53,1.12,3.46,3.56-.23,2.59-1.83,3.83-4.33,3.79-2.1-.04-3.66-1.02-3.46-3.42,.22-2.57,1.87-3.97,4.33-3.93Zm3.08-12.58c.02-2.03,1.11-3.27,3.13-3.21,2.16,.07,3.46,1.44,3.39,3.6-.07,2.02-1.46,2.93-3.45,2.94-1.99-.22-3.09-1.3-3.07-3.33Zm4.72-78.87c-1.88-.02-3.44-.81-3.46-2.83-.03-2.51,1.84-3.35,4.02-3.31,1.89,.03,3.13,1.04,3.24,3.24-.28,2.11-1.73,2.92-3.8,2.9Zm-.72-53.24c1.91,.03,2.71,1.07,2.78,2.58,.08,1.85-1.12,2.77-2.84,2.87-1.51,.09-2.18-1.07-2.33-2.32-.21-1.82,.93-2.74,2.39-3.12Zm3.09-13.16c.01-3.13,1.97-4.74,5.09-4.75,2.78,0,4.42,1.45,4.35,4.26-.07,2.95-1.74,4.5-4.77,4.46-2.62-.07-4.69-1.1-4.68-3.97Zm13.32-152.86c-.14,2.89-2.08,4.28-4.6,4.16-2.87,.02-4.72-.85-4.72-3.6,0-3.06,2.08-4.36,4.77-4.51,2.61-.15,4.68,1.11,4.54,3.96Zm-3.61-22.06c-1.79,.07-3.03-.92-3.15-2.61-.13-1.93,1.04-3.1,3.08-3.15,1.74-.05,2.41,1,2.53,2.56-.16,1.58-.4,3.13-2.46,3.2Zm42.25-33.58c-1.29,.01-1.93-.82-1.96-2.05-.04-1.77,.77-3,2.62-3.1,1.46-.08,2.16,.89,2.29,2.29-.22,1.76-1.12,2.84-2.95,2.86Zm3.7,6.1c1.08-.27,1.69,.58,1.71,1.62,.05,1.81-.57,3.29-2.18,4.08-1.47,.18-1.7-.8-1.78-1.71-.16-1.81,.23-3.48,2.25-3.99Zm-5.2,23.76c2.08-.07,3.68,1.04,3.7,3.21,.02,2.95-2.36,3.56-4.6,4.07-2.07-.25-3.89-1.03-3.79-3.26,.12-2.71,2.16-3.93,4.69-4.02Zm-25.79,186.17c-3.54-.16-5.46-1.96-5.41-5.25,.05-2.94,2.2-4.56,4.88-4.58,3.02-.02,5.53,1.42,5.44,4.96-.08,3.13-2.05,4.65-4.92,4.86Zm3.6,77.66c.03,2.95-1.83,4.4-4.9,4.7-2.46-.1-4.27-1.3-4.34-4.12-.07-2.75,1.13-5.01,4.1-5.21,3.01-.2,5.1,1.42,5.14,4.63Zm-4.92-241.29c2.63,.31,4.57,1.48,4.43,4.33-.15,3.15-2.66,3.98-5.22,4.09-2.29,.1-3.88-1.26-3.84-3.67,.05-2.91,1.81-4.43,4.62-4.75Zm-2.08-17.85c-1.81-.17-2.99-.96-3.02-2.88-.05-2.56,1.73-3.06,3.73-3.07,1.52,0,2.83,.64,2.75,2.43-.09,2.15-1.25,3.42-3.46,3.51Zm12.77,81.89c-2.65-.44-5.88-.42-5.64-4.12,.27-4.25,3.98-4.12,7-4.38,2.84-.24,5.95,.58,5.71,3.86-.28,3.82-4.14,3.94-7.07,4.64Zm4.91,18.36c2.95,1.5,3.03,3.69,.25,5.45-2.38,1.51-5.02,2.46-7.86,1.9-1.8-.35-3.66-1.12-3.99-3.3-.36-2.34,1.42-3.26,3.14-3.94,1.4-.55,2.94-.76,4.44-1.13,1.39,.34,2.84,.42,4.02,1.02Zm-3.17-71.38c-2.85-.02-5.17-.61-5.19-3.67-.01-3.44,2.31-4.9,5.47-5.03,2.65-.11,4.69,.97,4.6,3.94-.1,3.17-2.15,4.59-4.88,4.76Zm.36,18.98c2.4,.06,4.94,.61,4.99,3.53,.06,3.64-3.05,4.3-5.88,4.54-2.64,.23-5.38-.47-5.29-3.7,.1-3.59,3.22-4.05,6.18-4.38Zm-4.16-10.22c.03,3.12-2.22,4.12-4.96,4.58-2.45-.05-4.22-1.24-4.18-3.82,.04-2.93,2.07-4.42,4.85-4.55,2.5-.12,4.26,1.15,4.29,3.79Zm-.42,25.51c-.04,3.87-3.28,4.2-5.82,4.66-2.78-.07-5.17-.33-5.65-3.27-.38-2.31,3.4-4.94,6.82-4.77,2.22,.11,4.67,.64,4.65,3.38Zm7.4,2.85c.32-3.75,3.77-3.83,6.29-4.5,2.73,.22,5.36,.97,5.17,3.76-.26,3.85-3.57,4.53-6.79,4.57-2.55,.03-4.91-.94-4.66-3.82Zm9.45-26.53c-.19,3.39-2.93,4.52-5.93,4.55-2.95,.03-5.47-1.37-5.25-4.53,.23-3.43,3.28-4.03,6.09-4.27,2.82,.22,5.27,1.16,5.1,4.25Zm-8.54-28.15c.21-2.45,2.11-3.72,4.48-3.84,2.5-.13,4,1.22,4.47,3.7-.59,2.6-2.21,4.29-4.78,4.14-2.18-.13-4.4-1.28-4.16-4Zm-1.1-48.03c.06-1.98,1.12-3.2,3.11-3.19,1.89,.01,3.08,1.1,3.35,2.95-.38,2.27-1.74,3.3-3.83,3.26-1.87-.04-2.68-1.24-2.63-3.03Zm1.18,34.96c-.3,2.27-1.95,3.49-4.33,3.61-2.27,.11-4.13-1.01-4.03-3.42,.12-2.78,2.3-3.88,4.85-3.9,2.12-.01,3.47,1.1,3.52,3.7Zm-5.33-12.5c-.13,2.14-1.25,3.47-3.53,3.38-2.03-.08-3.18-1.22-2.96-3.28,.24-2.24,1.91-2.97,3.9-3.18,1.99,.09,2.69,1.34,2.59,3.08Zm-3.76,19.67c2.31-.25,3.84,.76,4.09,3.17-.08,2.81-1.53,4.39-4.19,4.63-2.28,.21-4-.85-4.09-3.28-.11-2.73,1.58-4.24,4.19-4.52Zm-11.44,41.67c2.55-.16,4.91,.55,4.76,3.66-.15,3.16-2.86,3.63-5.03,4.16-2.6-.21-5.14-.77-5.2-3.33-.06-3.19,2.62-4.32,5.47-4.49Zm.83,29.38c-.25,3.26-3.1,3.27-5.41,3.56-2.3-.11-4.58-.77-4.49-3.14,.13-3.42,3.2-3.76,5.81-3.78,2.06-.01,4.28,.82,4.08,3.36Zm-2.33,13.26c1.72-2.55,4.25-3.41,7.2-3.34,1.92-.06,3.71,.42,5.11,1.77,1.6,1.55,1.82,3.28-.2,4.64-1.13,.76-2.45,1.34-3.76,1.72-2.81,.79-5.51,.52-7.82-1.49-1.07-.93-1.34-2.08-.52-3.3Zm4.04,22.94c3-1.22,6.1-1.23,8.84,.74,1.2,.87,1.64,2.3,.86,3.74-1.71,3.16-4.87,3.46-7.55,3.87-2.82,.03-5.42-.15-6.1-2.88-.74-2.97,1.6-4.51,3.94-5.46Zm-1.59,17.25c-.08,3.74-3.61,4.25-6.6,4.14-2.81-.1-6.21-.85-6.27-4.19-.07-4.09,3.93-3.43,6.34-4.13,3.02,.54,6.6,.57,6.52,4.18Zm-6.81,26.32c2.27,0,3.21,1.44,3.46,3.54-.18,2.13-1.34,3.33-3.53,3.34-2.11,.01-3.62-.95-3.65-3.2-.03-2.37,1.33-3.68,3.73-3.68Zm-2.44,31.63c2.02-.05,3.71,.93,3.92,3.1,.25,2.47-1.45,3.49-3.63,3.88-2.19-.03-3.62-.99-3.57-3.27,.04-2.04,1.03-3.65,3.28-3.71Zm.89,21.08c4.45,.21,7.88,3.23,7.89,6.94,0,3.93-3.38,6.86-7.82,6.77-4.24-.08-7.66-3.3-7.59-7.15,.07-3.77,3.49-6.75,7.52-6.56Zm12.6-62.56c-2.94-.56-6.41-.97-6.05-4.91,.33-3.61,3.72-3.8,6.5-3.63,2.89,.19,6.56,.51,6.31,4.49-.24,3.82-3.82,3.77-6.77,4.05Zm10.99,11.23c2.6,.24,4.29,1.62,4.04,4.51-.23,2.69-1.77,4.1-4.16,4.24-3.29-.34-4.75-2.24-4.63-4.97,.12-2.74,2.1-4.02,4.75-3.77Zm.64-22.63c-2.89-.1-5.78-.17-6.15-3.7-.36-3.44,2.28-4.42,4.99-4.98,3.14-.64,6.18-.44,8.74,1.82,1.1,.97,1.14,2.32,.44,3.4-1.92,2.95-5.1,3.16-8.02,3.47Zm6.01-17.59c-.64-2.97,1.8-3.96,3.93-4.93,.97-.44,2.04-.76,3.09-.94,2.97-.49,6.5-1.03,7.27,2.77,.73,3.63-2.54,4.86-5.49,5.67-1.04,.28-2.14,.32-3.26,.48-2.28-.22-4.91-.13-5.54-3.05Zm10.21-26.59c-1.82,2.68-4.65,3.33-7.74,3.48-2.19-.31-4.96-.16-5.41-3.11-.4-2.62,1.97-3.67,3.96-4.45,2.97-1.17,6.03-1.45,8.75,.74,1.1,.89,1.21,2.23,.45,3.34Zm-2.87-11.51c.43-3.84,3.82-4.88,7.17-5.11,2.44-.17,5.13,.58,4.88,3.52-.34,4.05-3.98,4.47-6.81,5.08-2.76-.14-5.59-.42-5.24-3.48Zm5.03-22.2c-2.75-.26-5.24-.79-4.78-3.66,.53-3.33,3.53-4.05,6.42-4.11,2.17-.04,4.3,.87,4.1,3.39-.29,3.61-3.44,3.84-5.74,4.38Zm-2.25-26.09c-3.06-.21-5.52-1.41-5.46-4.55,.07-3.47,2.64-4.99,5.93-4.99,3.07,0,5.68,1.11,5.56,4.66-.13,3.73-3.18,4.42-6.03,4.88Zm-7.73-41.63c-1.92-.04-3.17-1.35-3.08-3.36,.09-2.09,1.64-2.97,3.48-3.01,2.05-.04,2.98,1.33,3.14,3.24-.39,1.99-1.67,3.16-3.53,3.12Zm-.05-12.16c-1.67,.1-3.11-.64-3.14-2.58-.03-2.26,1.42-3.4,3.51-3.37,1.68,.02,2.84,1.04,3.02,2.9-.19,2.04-1.57,2.95-3.39,3.06Zm.21-36.2c-1.68,.15-3.13-.74-3.12-2.67,.01-2.46,1.32-4.15,3.8-4.54,2.13-.34,3.04,1.04,3.41,2.7-.18,2.81-1.64,4.3-4.08,4.52Zm-2.34,9.19c-.75,2.79-2.83,3.71-5.29,3.62-1.89-.07-3.27-1.16-2.84-3.38,.47-2.43,1.9-3.9,4.52-3.72,2.13,.15,3.4,1.28,3.61,3.47Zm-7.61,22.83c-.37,2.4-2.16,2.91-4.06,3.05-1.98,.14-3.35-.82-3.28-2.93,.08-2.34,1.74-3.16,3.81-3,1.76,.13,3.3,.82,3.53,2.89Zm-7.01-7.49c-1.73-.04-3.05-.69-3.12-2.58-.07-2.24,1.23-3.32,3.42-3.31,1.77,0,3,.81,2.88,2.72-.12,1.88-1.17,3.07-3.18,3.17Zm-3.89-12.58c-2.23-.03-4.05-.87-3.91-3.47,.15-2.63,1.62-4.22,4.34-4.42,2.34,.3,3.78,1.49,3.67,3.91-.12,2.5-1.49,4.02-4.1,3.98Zm-3.28,29.26c1.94-.03,2.49,1.4,2.86,2.78-.17,2.01-1.18,2.93-2.97,2.96-1.87,.03-2.89-.93-2.74-2.79,.13-1.68,.99-2.92,2.85-2.94Zm-2.72,22.85c1.95-.07,3.14,1.25,3.14,3.26,0,2.43-1.48,3.55-3.34,3.86-2.63-.12-3.97-1.37-3.89-3.5,.09-2.38,1.93-3.54,4.09-3.61Zm-3.76,27.38c2.35,0,4.08,.94,4.19,3.34,.13,2.76-1.56,4.19-4.27,4.3-2.4,.09-3.87-1.2-3.89-3.53-.02-2.49,1.54-3.86,3.97-4.11Zm-5.42,16.16c-.09,3.15-2.79,3.88-5.23,4.14-1.87,.2-3.97-.57-3.94-2.9,.04-3,2.29-4.08,4.73-4.4,2.44,.01,4.51,.57,4.43,3.17Zm-4.93,14.34c.42-3.62,3.73-4.11,6.69-4.2,2.22-.07,4.77,.59,4.54,3.34-.31,3.61-3.5,4.18-6.44,4.64-2.38-.35-5.14-.8-4.79-3.78Zm11.02,37.08c1.61,.53,3.29,1.37,3.36,3.36,.08,2.17-1.84,2.66-3.42,3.14-1.45,.44-3,.56-4.7,.85-1.21-.2-2.61-.27-3.9-.69-1.33-.42-2.64-1.2-2.51-2.88,.11-1.41,.65-2.7,2.15-3.28,2.95-1.14,5.98-1.51,9.01-.51Zm-9.72,13.96c-.05,2.82-2.27,3.42-4.56,3.38-2.06-.04-4.33-.45-4.16-3.16,.19-2.8,2.64-2.98,4.76-3.27,1.96,.27,3.99,.64,3.95,3.05Zm-4.95,9.86c1.95,.07,3.15,1.07,3.21,3.27-.38,2.38-2.22,3.04-4.33,3.09-1.79,.04-3.05-1.04-2.9-2.83,.19-2.26,1.64-3.62,4.02-3.54Zm-3.03,16.57c.24-3.13,2.79-4.53,5.89-4.63,2.47,.23,5.01,.8,4.74,3.81-.3,3.29-3.2,3.77-5.9,3.81-2.16,.03-4.95-.11-4.73-2.99Zm8.77,113.05c2.5,.06,4.04,1.54,4.07,4.12,.03,2.65-1.73,3.73-3.72,4.1-3.09-.05-4.38-1.69-4.4-4.13-.01-2.48,1.44-4.15,4.05-4.09Zm4.82,25.49c-1.96,.06-3.41-1.16-3.33-3.12,.09-2.11,1.15-3.94,3.66-4.04,2.29-.09,3.36,1.24,3.53,3.25-.08,2.67-1.61,3.84-3.87,3.91Zm.2-39.96c.02-3.02,1.89-4.45,4.75-4.59,3.06-.14,4.53,1.54,4.71,4.19-.1,3.34-1.87,4.92-4.71,4.94-2.83,.02-4.76-1.49-4.74-4.54Zm7.79,53.03c.15-1.58,.94-2.91,2.77-3.21,1.38,.2,2.3,.94,2.27,2.38-.04,1.66-.8,3.11-2.53,3.34-1.63,.22-2.66-.89-2.51-2.51Zm4.86-14.04c-.11-2.02,.87-3.31,2.98-3.3,1.55,.01,2.66,.85,2.77,2.53,.15,2.16-1.21,3.01-3.14,3.38-1.62-.06-2.53-1.02-2.61-2.61Zm4.75,24.5c2.32-.08,3.25,1.34,3.58,3.42-.36,2.21-1.52,3.85-3.88,3.73-1.86-.1-3.77-.85-3.53-3.35,.21-2.25,1.41-3.71,3.83-3.8Zm3.41-108.71c-.14-2.79,1.55-4.67,4.45-4.82,2.8-.14,4.88,1.3,5.11,4.14,.24,3.06-2.11,4.07-4.2,4.55-3.06-.13-5.22-1.1-5.35-3.87Zm11.5,29.73c-4.36,.11-7.84-2.9-7.81-6.76,.02-3.66,3.31-6.61,7.4-6.67,4.53-.06,7.53,2.37,7.67,6.21,.15,4.2-2.77,7.1-7.26,7.22Zm3.69-41.62c-2.89,.06-4.64-1.41-4.77-4.42-.15-3.57,2.1-5,5.18-5.08,2.72-.08,4.12,1.67,4.3,4.36-.21,3-1.48,5.08-4.72,5.14Zm1.15-33.8c-2.88-.59-6.94-.41-6.92-4.43,.03-4.23,4.23-4.45,7.37-4.59,2.87-.13,6.48,.13,6.38,4.23-.1,4.04-3.56,4.45-6.83,4.8Zm9.71,9.86c2.2-.03,3.51,1.21,3.47,3.44-.04,2.49-1.35,4.01-3.97,4.31-2.43-.14-3.54-1.71-3.65-3.92-.14-2.77,1.71-3.8,4.15-3.83Zm-2.18,36.92c.1-2.64,1.92-4.16,4.6-4.15,2.42,.01,4.09,1.15,4.43,3.71-.4,2.78-1.98,4.26-4.67,4.18-2.35-.06-4.45-1.07-4.35-3.75Zm5.99-17.58c.13-2.41,1.63-4.02,4.11-4.16,2.38-.13,3.77,1.22,3.8,3.63,.04,2.64-1.15,4.39-3.93,4.7-2.56-.26-4.13-1.6-3.98-4.16Zm12.97,34.02c4.33,.04,6.87,2.42,6.87,6.43,0,4.07-3.15,6.95-7.64,6.98-4.06,.03-6.86-2.59-6.91-6.48-.05-3.99,3.25-6.97,7.68-6.93Zm5.68-14.82c-1.91,.06-3.41-.69-3.5-2.81-.09-2.1,.92-3.69,3.13-3.84,2.07-.14,3.51,.93,3.84,3-.11,2.34-1.26,3.58-3.47,3.65Zm-1.41-16.05c-2.27-.1-3.8-1.57-3.59-3.94,.2-2.33,1.89-3.51,4.17-3.41,2.17,.1,3.34,1.37,3.27,3.25-.19,2.77-1.52,4.2-3.85,4.1Zm-7.5-32.56c-2.48-.74-5.74-.81-5.55-4.35,.21-4,3.62-4.58,6.75-4.68,2.75-.09,5.6,.73,5.53,4.12-.08,4.19-3.89,4.02-6.73,4.91Zm-5.43-17.56c-1.64,2.89-4.48,3.52-7.3,3.85-2.56-.11-5.09-.43-5.7-3.16-.62-2.78,1.63-4.18,3.79-5.1,2.77-1.18,5.73-1.63,8.38,.28,1.36,.97,1.74,2.54,.83,4.13Zm-7.29-25.24c-2.46-.06-5.27-.14-5.33-3.67-.05-3.03,4-5.63,8.87-5.6,2.09,.15,4.84,.13,4.96,3.61,.1,2.87-4.25,5.77-8.5,5.66Zm.02-39.24c-.07-3.29,2.99-3.73,5.45-4.33,2.36,.28,4.73,.84,4.59,3.56-.15,2.97-2.7,3.92-5.26,4.04-2.27,.1-4.74-.82-4.79-3.28Zm7.61-25.48c-.36,3.06-2.64,4.35-5.58,4.47-2.17-.29-4.29-.99-4.1-3.52,.25-3.36,2.62-4.78,5.82-4.62,2.22,.11,4.15,1.21,3.87,3.68Zm-8.34-25.14c-1.97,.08-3.22-1.24-3.23-3.14,0-2.43,1.71-3.5,3.94-3.54,1.7-.03,2.91,.82,3.02,2.62-.33,2.3-1.36,3.97-3.73,4.07Zm.97-99.14c-1.56,.12-2.1-.98-2.24-2.32,.23-1.5,.82-2.78,2.49-2.89,1.56-.11,2.17,1,2.17,2.38,0,1.58-.78,2.71-2.42,2.84Zm-2.12,6.41c1.67,0,2.37,1.13,2.48,2.75-.17,1.83-1.43,2.65-3.07,2.73-1.49,.07-2.22-1.05-2.13-2.41,.11-1.61,.79-3.06,2.72-3.06Zm-.59,11.66c1.58,.2,1.33,1.43,1.27,2.42-.1,1.72-.45,3.52-2.57,3.68-1.65,.12-1.87-1.35-1.73-2.58,.2-1.8,1.17-3.09,3.04-3.52Zm-1.39,16.18c-.08,2.55-1.98,3.48-4.25,3.72-1.8,.19-3-1.02-3.06-2.74-.1-2.57,1.59-4,3.97-4.18,1.84-.14,3.23,.87,3.34,3.2Zm-6.37-33.28c-1.5,.05-2.31-.86-2.29-2.29,.03-1.66,.66-3.13,2.56-3.25,1.66-.11,2.43,1.04,2.68,2.61-.26,1.7-1.11,2.87-2.95,2.94Zm-2.2,7.66c-.15,2.11-1.27,3.47-3.38,3.73-1.78,.22-3.08-.62-3.06-2.57,.02-2.11,1.1-3.59,3.28-3.79,1.74-.16,2.97,.68,3.16,2.63Zm-8.65-7.24c-1.61,.12-2.59-.75-2.7-2.41-.13-1.92,.67-3.22,2.55-3.69,2.08,0,2.69,1.34,2.77,2.99,.09,1.76-.79,2.97-2.62,3.11Zm-1.55,18.87c-.42,2.06-1.2,3.82-3.36,3.96-1.89,.12-2.73-1.42-2.63-3.07,.13-2.22,1.37-3.81,3.79-3.71,1.7,.07,2.17,1.43,2.2,2.82Zm-5.07-8.06c-1.91-.05-2.84-1.07-2.67-2.95,.17-1.95,1.28-3.21,3.27-3.18,1.81,.03,2.72,1.23,2.72,3.14-.27,1.84-1.23,3.04-3.32,2.98Zm-4.35-11.08c-1.64-.03-2.47-1.04-2.71-2.65,.3-1.6,.99-3.02,2.89-2.93,1.55,.07,2.51,1.13,2.61,2.73,.12,1.92-.92,2.88-2.78,2.86Zm-1.23,18.37c-.09,2.16-1.63,3.12-3.65,3.46-1.8-.33-2.66-1.54-2.53-3.23,.15-1.95,1.56-2.97,3.39-3.1,1.89-.13,2.86,1.16,2.79,2.87Zm-5.08-8.39c-1.55-.13-1.95-1.34-1.92-2.66,.04-1.61,.85-2.69,2.56-2.52,1.43,.15,2.03,1.22,2.01,2.71-.28,1.39-.89,2.62-2.64,2.47Zm-.05,44.96c.03,2.03-.89,3.46-3.15,3.54-1.72,.06-3.09-.83-3.1-2.65,0-2.09,1.33-3.39,3.38-3.69,1.94-.28,2.79,.83,2.86,2.8Zm-11.34,35.84c-.39,2.15-1.61,3.35-3.77,3.24-2.17-.11-2.84-1.67-2.66-3.51,.19-1.89,1.36-3.11,3.37-2.99,1.98,.11,2.97,1.33,3.06,3.27Zm-5.84,23.46c1.87,.03,2.56,1.33,2.79,2.61-.27,2.31-1.26,3.49-3.27,3.52-2,.03-3.18-1-3.17-3.04,.02-2.37,1.61-3.12,3.65-3.09Zm-.41,39.22c1.89,.01,3.45,.79,3.5,2.89,.07,2.69-1.99,3.14-4,3.38-2.14-.09-4.01-.73-3.86-3.1,.16-2.47,2.16-3.18,4.36-3.17Zm.43,13.07c2.44-.24,4.94,.72,4.94,3.61,0,3.13-2.77,3.65-5.22,4.19-2.4-.32-5.06-.67-5.02-3.68,.04-3.09,2.86-3.88,5.3-4.12Zm-3.54,18.46c0,1.72-1.19,2.24-2.42,2.42-1.28,.19-2.63-.17-2.85-1.7-.25-1.78,1-2.47,2.55-2.56,1.37-.09,2.39,.49,2.72,1.84Zm-2.55,53.1c2.3-.11,3.24,1.36,3.56,3.11-.16,2.25-1.04,3.63-3.09,3.7-2.43,.09-3.8-1.35-3.82-3.68-.02-2.01,1.44-3.03,3.35-3.13Zm-2.64,117.77c2.24-.21,3.96,1.06,4,3.41,.03,2.17-1.18,3.73-3.45,3.9-2.26-.02-3.72-.78-3.83-3.13-.11-2.34,.99-3.97,3.27-4.18Zm-20.14,72.11c1.84-.17,2.85,.82,3.06,2.61,.01,2.06-1.12,3.21-3.01,3.41-1.84,.2-2.98-1.04-3.1-2.69-.14-1.93,1.09-3.15,3.05-3.33Zm-15.99-310.53c.12-1.85,1.56-2.58,3.19-2.76,1.45-.16,2.5,.71,2.42,2.13-.09,1.65-1.38,2.24-2.84,2.25-1.14-.33-2.9,.39-2.77-1.63Zm-2.59,345.24c-1.93-.07-3.38-.88-3.32-2.93,.06-2.05,1.34-3.35,3.46-3.55,1.91-.18,3.44,.48,3.52,2.59,.08,2.36-1.45,3.51-3.65,3.89Zm.58-14.38c-1.93,.1-3.21-1.18-3.12-3.17,.1-2.24,1.76-3.01,3.69-3.21,1.85,.13,2.96,.92,2.9,2.85-.07,2.24-1.47,3.43-3.48,3.52Zm15.59,15.99c-1.9-.06-3.18-1.09-2.98-3.22,.23-2.47,1.88-3.4,4.1-3.32,1.95,.07,2.98,1.31,3.19,3.33-.57,2.16-2.11,3.28-4.31,3.21Zm2.72-13.92c-2.32-.27-3.71-1.33-3.54-3.57,.17-2.27,1.49-3.7,3.9-3.6,2.1,.09,3.49,1.09,3.4,3.43-.1,2.53-1.95,3.2-3.76,3.74Zm14.32,12.69c-1.82,.02-2.78-.9-2.8-2.52-.03-1.96,1.04-3.25,3.05-3.37,1.77-.11,3.14,.69,3.03,2.64-.12,1.97-1.62,2.83-3.28,3.25Zm-.32-26.35c-2.29,.19-3.33-1.45-3.21-3.51,.14-2.53,1.78-3.86,4.27-3.78,1.98,.06,3.58,.86,3.64,3.51-.27,2.59-2.32,3.58-4.7,3.78Zm7.5,14.22c-1.9,.08-3.46-.76-3.35-2.84,.12-2.13,1.24-3.91,3.68-3.86,2.13,.04,3.29,1.37,3.4,3.63-.14,2.26-1.75,2.99-3.73,3.08Zm3.69-78.41c.07-2.04,1.38-2.98,3.36-3.16,1.92,.19,3.17,1.16,3.11,3.23-.06,1.93-1.06,3.32-3.08,3.38-2.22,.07-3.48-1.19-3.39-3.45Zm4.14,63.94c-2.02-.17-2.79-1.68-2.61-3.6,.16-1.84,1.37-2.58,2.85-2.7,2.11,.4,3.35,1.33,3.17,3.41-.18,2.04-1.53,3.04-3.41,2.88Zm4.51,26.32c-1.8,.03-3.1-.9-3.05-2.7,.07-2.36,1.73-3.57,3.97-3.62,1.84-.05,2.75,1.13,2.69,2.98-.17,2.24-1.46,3.3-3.62,3.34Zm2.7-12.23c-1.88-.28-3.18-1.26-2.84-3.37,.29-1.86,1.45-3.17,3.49-3.02,2.01,.15,3.05,1.42,2.91,3.46-.15,2.11-1.52,2.89-3.55,2.93Zm.91-43.26c-1.89-.13-3.2-1.21-3.09-3.25,.13-2.35,1.61-3.63,3.88-3.62,2.18,.01,3.19,1.48,3.39,3.48-.42,2.43-1.89,3.55-4.18,3.39Zm5.42,12.25c.1-2.17,1.66-3.3,3.73-3.42,2.08-.11,3.24,1.19,3.16,3.16-.08,1.98-.89,3.66-4.04,3.64-1.43-.12-2.95-1.13-2.85-3.38Zm1.91,15.49c-.16-1.76,.85-2.81,2.65-3.09,1.47,.07,2.83,.55,2.95,2.19,.15,1.94-1.06,3.17-2.94,3.39-1.66,.19-2.53-1.02-2.66-2.49Zm7.33,17.11c-1.57,.12-2.74-.73-2.67-2.44,.08-1.86,1.05-3.28,2.98-3.59,1.82-.3,2.89,.69,3.2,2.51-.09,2.25-1.45,3.37-3.51,3.53Zm2.64-47.72c-.04-2.73,1.66-3.94,4.07-4.06,2.13-.11,2.87,1.44,3.02,3.22-.21,2.34-1.01,4.11-3.55,4.18-2.18,.06-3.51-1.03-3.54-3.34Zm7.84,34.24c-2.02,0-3.16-1.12-3.13-3.19,.03-2.25,1.38-3.28,3.41-3.54,2.13,.1,3.22,1.17,3.16,3.23-.06,2.18-1.2,3.5-3.44,3.5Zm.91-14.14c-1.7-.21-3.02-.9-2.93-2.87,.1-2.42,1.41-3.72,3.88-3.58,1.88,.11,2.77,1.29,2.7,3.1-.08,2.29-1.47,3.26-3.65,3.35Zm3.8-61.6c-1.93,0-3.27-1-3.28-3.12,0-1.83,1.11-2.96,2.82-3.12,2.14-.19,2.95,1.3,3.21,3.03-.02,1.99-.92,3.2-2.76,3.21Zm7.8-25.18c2.91-.27,4.53,1.4,4.93,4.24-.16,2.83-1.4,4.87-4.32,5.04-2.85,.17-4.72-1.54-4.93-4.35-.21-2.86,1.52-4.67,4.32-4.93Zm-3.36,51.2c.12-2.56,1.76-3.87,4.26-3.87,2.35,0,3.65,1.32,3.88,3.58-.32,2.51-1.44,4.25-4.07,4.23-2.48-.01-4.19-1.25-4.06-3.94Zm3.99,50.18c-1.26,.13-2.02-.78-1.97-2.03,.06-1.76,1-2.94,2.82-3.03,1.49-.07,2.13,.97,2.35,2.41-.23,1.83-1.62,2.49-3.2,2.65Zm4.93-11.98c-2.29,.04-4.04-1.2-3.92-3.62,.12-2.49,2.06-3.9,4.36-4.09,2.08-.17,3.4,1.17,3.61,3.07-.37,2.72-1.4,4.59-4.05,4.64Zm4-104.2c.07-2.95,1.63-5.13,4.64-5.3,3.01-.17,4.84,1.58,4.95,4.78,.1,3.28-1.83,4.86-4.79,4.87-2.64,0-4.88-1.19-4.81-4.35Zm9.02,82.27c-.19,1.93-1.3,3.23-3.24,3.27-1.58,.03-2.01-1.37-1.79-2.65,.28-1.67,1.35-2.72,3.1-2.77,1.38,.13,2.06,.86,1.93,2.15Zm2.8-40.96c-2.15-.1-3.4-1.57-3.16-3.68,.28-2.4,1.87-3.95,4.35-3.73,2.01,.18,3.18,1.62,3.34,3.57-.53,2.63-2.1,3.95-4.54,3.84Zm1.05-16.61c-2.46-.21-4.69-.86-4.59-3.91,.08-2.61,1.5-4.45,4.28-4.4,2.69,.05,4.91,1.32,4.98,4.3,.07,2.91-2.16,3.73-4.67,4.01Zm7.62-19.33c-2.72-.47-4.42-1.86-4.2-4.66,.2-2.48,1.81-4,4.3-3.96,2.66,.05,4.42,1.6,4.38,4.36-.04,2.8-2.01,3.93-4.48,4.26Zm55.12,111.3c-1.2,.04-2.16-.43-2.14-1.81,.03-1.65,1.05-2.57,2.61-2.6,1.27-.02,1.81,.97,1.96,2.15-.18,1.43-1.01,2.22-2.43,2.26Zm11.37-48.95c-2.25,.07-4.41-.74-4.4-3.54,0-2.66,1.54-4.2,4.23-4.48,2.45,.21,4.17,1.29,4.19,3.92,.02,2.57-1.61,4.03-4.01,4.1Zm2.75-16.63c-2.18-.05-3.86-1.17-3.96-3.58-.12-2.76,1.44-4.41,4.11-4.45,2.34-.04,4.09,1.14,4.2,3.68-.1,2.95-1.66,4.41-4.35,4.35Zm2.36-19.29c-2.26-.22-3.69-1.43-3.66-3.83,.03-2.32,1.27-3.84,3.7-3.85,2.35,0,3.79,1.19,3.72,3.71-.06,2.37-1.3,3.69-3.75,3.97Zm-.09-20.44c-2.27-.26-3.61-1.77-3.37-4.13,.22-2.22,1.51-3.88,3.86-3.76,2.43,.12,3.15,2.07,3.37,4.22-.45,2.13-1.33,3.96-3.86,3.67Zm.29-19.52c-2.29,.18-3.89-.81-4.01-3.32-.11-2.15,.96-3.53,3.14-3.75,2.4-.25,3.67,1.08,4.17,3.41-.26,1.92-1.12,3.49-3.3,3.66Zm-1.16-17.55c-1.94-.11-3.31-1.17-3.29-3.18,.03-2.35,1.41-3.76,3.82-3.7,2.13,.05,2.77,1.64,3.04,3.43-.32,2.09-1.24,3.59-3.58,3.46Zm2.98-20.06c-.36,2.2-1.68,3.28-3.83,3.27-2.21-.01-3.68-1.13-3.41-3.4,.23-1.98,1.49-3.43,3.74-3.4,2.27,.03,3.24,1.46,3.51,3.54Zm-3.46-17.67c0,2.42-1.52,3.62-3.82,3.67-2.18,.05-3.54-1.23-3.56-3.36-.03-2.36,1.5-3.53,3.8-3.74,2.06,.25,3.57,1.2,3.58,3.43Zm-9.47-14.96c.21-1.43,1.3-2,2.67-1.89,1.46,.11,2.11,1.03,2.13,2.44-.2,1.44-1.08,2.29-2.45,2.18-1.53-.12-2.6-1.04-2.35-2.73Zm1.01,154.56c2.45,.16,4.2,1.45,4.16,4.02-.04,2.8-2.04,3.91-4.42,4.2-2.75-.33-4-1.8-3.87-4.38,.12-2.6,1.5-4,4.13-3.84Zm-1.17,22.73c.04,1.94-1.31,2.94-3.12,3.3-1.98-.25-3.14-1.32-3.06-3.3,.07-1.71,1.05-2.88,2.86-2.94,1.96-.06,3.28,.98,3.32,2.94Zm-6.42-210.77c1.27,0,2.05,.69,2.05,1.94,0,1.58-.89,2.62-2.47,2.74-1.47,.11-2.16-.86-2.36-2.16,.24-1.68,1.15-2.53,2.77-2.53Zm-50.79-13.21c.69-.11,2.11,5.6,2.33,7.36,3.78,31.27,7.55,62.53,11.33,93.8,.28,2.3,.73,4.89,2.66,6.17,1.26,.84,2.88,.89,4.39,.73,5.35-.57,10.37-3.67,13.28-8.2,4.07-6.34,3.81-14.43,3.4-21.96-1.45-26.69-2.91-53.38-4.36-80.06,3.66,30.15,5.78,60.49,6.34,90.86,.05,2.87,.08,5.81-.87,8.51-1.09,3.1-3.4,5.63-5.97,7.68-2.97,2.36-6.37,4.19-9.98,5.36-2.19,.71-4.68,1.16-6.71,.09-2.84-1.5-3.56-5.17-3.95-8.36-2.33-18.91-4.65-37.82-6.98-56.73-1.18-9.57-2.36-19.14-3.53-28.71-.56-4.56-1.7-9.41-1.72-14.01-.01-1.77,.14-2.49,.38-2.53Zm-1.61,45.95c-.4,1.68-1.23,3.04-3.09,2.95-1.74-.08-2.29-1.5-2.18-3.01,.11-1.59,1.18-2.58,2.76-2.6,1.66-.02,2.49,1.03,2.51,2.66Zm-1.08-33.69c-.21,1.56-.15,3.55-2.53,3.78-1.89-.48-2.94-1.7-2.98-3.61-.04-2.04,1.2-3.2,3.11-3.31,2.08-.12,2.62,1.49,2.4,3.13Zm-10.87-10.26c-2.17,.19-4.48-.34-4.77-3.18-.26-2.54,3.2-5.18,6.88-5.2,1.82,.29,4.53,.22,4.39,3.19-.18,3.84-3.33,4.91-6.5,5.19Zm.44-25.86c-2.26-.35-5.28-.16-5.09-3.34,.2-3.29,3.34-3.72,5.95-3.84,2.29-.11,4.69,1.03,4.63,3.46-.08,3.12-3.05,3.34-5.49,3.72Zm5.19-14.53c-.29,2.12-1.71,3.19-3.75,3.36-1.76,.15-3.24-.74-3.17-2.58,.09-2.49,2.04-3.29,4.24-3.33,1.57-.03,2.69,.68,2.69,2.56Zm-31.99-217.67c-17.73-.51-34.86-3.11-50.56-12.06-5.15-2.93-9.9-6.4-14.52-10.05-2.4-1.89-4.35-2.56-6.42,.5-1.09,1.6-2.64,3.01-5.26,2.81,5.28-4.56,8.96-9.99,9.92-17.18,1.54,1.66,1.45,3.48,.81,4.83-1.8,3.8,.32,5.37,3.08,7.36,12.32,8.9,25.17,16.54,40.48,18.98,13.07,2.08,26.18,3.28,39.35,.89,17.48-3.17,30.9-13.05,42.63-25.75,1.15-1.25,2.3-2.5,4-4.34-.3,3.29-1.92,5.07-3.43,6.82-15.83,18.32-35.57,27.9-60.08,27.2Z"/>
  <path d="M267.28,367.3c8.28,6.2,17.3,11.34,25.18,18.13,16.4,14.11,29.04,31.35,41.35,48.89,9.08,12.95,18.2,25.88,25.87,39.75,2.81,5.08,2.65,5.51-2.93,6.22-26.71,3.36-44.47,18.94-56.77,41.81-6.88,12.8-11.28,26.5-13.92,40.77-.23,1.21-.54,2.41-.87,3.6-.07,.25-.41,.41-.71,.7-1.99-1.5-2.42-3.87-3.27-5.96-7.27-17.92-18.76-32.73-33.45-45.14-6.63-5.61-14.31-9.26-22.78-11.14-12.06-2.67-22.59,1.73-32.75,7.48-3.91,2.22-7.65,4.74-11.53,7-1.23,.72-2.34,2.6-3.99,1.51-1.25-.83-.74-2.59-.76-3.94-.12-9.58-2.14-18.76-5.75-27.59-8.51-20.81-29.99-26.77-48.12-13.49-1.83,1.34-3.77,4.79-5.85,3.15-1.79-1.41,.51-4.61,1.35-6.83,4.95-13.03,11.13-25.6,14.09-39.35,2.62-12.19,4.48-24.44,2.3-36.87-2.53-14.45-11.38-24.16-24.15-30.51-3.61-1.8-3.75-2.98-.36-4.94,1.75-1,3.36-2.24,5.11-3.24,2.68-1.55,5.31-3.87,8.18-4.26,3.84-.52,2.87,4.72,5.42,6.27,.51,.31,.94,.76,1.76,1.44,.61-3.09-1.43-4.81-2.49-6.75-1.24-2.29-1.16-3.76,1.49-4.61,.15-.05,.28-.14,.42-.2,2.98-1.31,6.11-3.94,8.89-3.61,3.54,.41,2.25,5.32,3.85,7.92,.23,.38,.4,.79,.95,1.87,1.25-3.09,.38-5.11-.41-6.87-1.72-3.83-.56-5.81,3.43-6.45,.3-.05,.59-.2,.88-.31q6.9-2.59,7.71,4.81c.08,.77,.2,1.55,.44,2.27,.27,.82,.4,2,1.72,1.66,.88-.23,1.08-1.12,1.01-1.89-.2-2.16-.36-4.34-.84-6.45-.56-2.42-.12-3.93,2.62-4.2,.76-.07,1.51-.36,2.26-.53,7.09-1.6,7.06-1.59,7.52,5.52,.09,1.38-.49,3.77,1.77,3.43,1.71-.25,.61-2.34,.58-3.62-.04-1.39-.15-2.79-.37-4.17-.35-2.27,.42-3.5,2.82-3.74,3.23-.32,7.2-2.11,9.48-.83,2.67,1.5-.57,5.4-.25,8.31,.1,.89-.29,1.86,.72,2.81,2.68-1.28,1.9-3.94,1.95-5.96,.12-4.42,1.5-6.62,6.51-6.58,7.53,.06,7.53-.29,6.15,7.12-.25,1.34-.82,2.71,.54,4.34,1.65-2.82,1.17-5.95,2.06-8.69,.41-1.26,.5-2.95,2.42-2.92,2.61,.04,5.36-.71,7.75,.66,1.02,.58,.13,2.03-.09,3.02-.72,3.17-1.93,6.24-1.9,9.55,0,.85-.42,2.07,.94,2.2,1.12,.11,1.5-.85,1.67-1.83,.55-3.21,1.18-6.41,1.64-9.63,.42-2.95,1.8-4.1,4.76-3.13,.87,.28,1.84,.26,2.76,.36,3.83,.41,6.01,1.47,3.9,6.09-1.05,2.31-3.59,6.34-.55,7.55,2,.8,1.74-4.17,2.53-6.49,1.07-3.11,1.06-6.38,6.08-4.24,3.04,1.3,3.8,2.42,2.43,5.35-1.04,2.24-1.69,4.66-2.5,7.01-.53,1.52,.25,2.47,1.58,2.83,1.82,.5,1.41-1.17,1.66-2.05,.46-1.64,.79-3.32,1.17-4.98,1.45-6.33,1.63-6.54,7.42-4.12,8.39,3.5,6.86,2.12,3.44,9.03-1.08,2.19-1.56,5.17-5.02,5.87,2.61,2.06,5.66,2.64,8.38,3.88,1.24-.22,2.28,.19,3.19,1.01,4.05,2.51,7.95,5.28,12.42,7.05l-.14-.15Zm-42.95,19.74c-29.74,8.17-55.58,22.87-75.93,46.51,21.09-22.36,46.88-37,75.93-46.51Zm55.98,74.77c-13.26,20.57-17.04,42.86-11.28,66.74-4.39-23.59-.43-45.76,11.28-66.74Zm-54.42-24.72c8.49-10.92,16.98-21.83,25.47-32.75-9.77,9.88-18.3,20.71-25.47,32.75Zm-19.98,57.75c-1.69,.14-2.66,1.06-2.55,2.67,.1,1.54,1.09,2.63,2.72,2.52,1.53-.1,2.58-1.04,2.54-2.71-.05-1.71-1.22-2.32-2.71-2.48Zm123.3-29.86c-.2-1.59-.92-2.7-2.62-2.54-1.58,.15-2.43,1.21-2.41,2.79,.02,1.62,.85,2.6,2.55,2.47,1.63-.13,2.34-1.22,2.48-2.72Zm-32.46-5.99c-1.52,.37-2.52,1.28-2.31,2.89,.2,1.55,1.27,2.46,2.88,2.26,1.42-.17,2.11-1.27,2.08-2.59-.04-1.6-1.06-2.44-2.65-2.56Zm44.27,18.8c-.15-1.41-.89-2.35-2.33-2.35-1.55,0-2.72,.79-2.82,2.43-.11,1.66,.96,2.67,2.54,2.59,1.47-.08,2.58-.95,2.61-2.67Zm-167.17-108.76c-1.48,.25-2.58,.97-2.4,2.71,.14,1.4,.99,2.28,2.46,2.23,1.68-.05,2.59-1.01,2.43-2.69-.13-1.37-.9-2.27-2.49-2.26Zm81.13,103.04c-.42-.98-.83-2.36-2.52-2.38-1.41-.02-2.29,.88-2.32,2.27-.04,1.54,.69,2.67,2.39,2.68,1.41,0,2.2-.82,2.45-2.57Zm35.18,51.99c1.45-.23,2.26-1.03,2.19-2.51-.07-1.55-1.15-2.15-2.49-2.18-1.18-.03-2.18,.58-2.2,1.89-.03,1.62,.94,2.53,2.5,2.8Zm16.82-45.15c-.17-1.43-.97-2.34-2.4-2.34-1.59,0-2.08,1.13-2,2.54,.07,1.24,.68,2.11,2,2.09,1.42-.02,2.31-.77,2.4-2.28Zm-122.78-19.07c-.28-1.27-1.03-2.16-2.45-2.21-1.29-.04-1.98,.74-2.07,1.97-.11,1.45,.65,2.38,2.07,2.51,1.47,.13,2.19-.82,2.45-2.28Zm120.86-14.28c1.47-.18,2.17-1.07,2.11-2.49-.05-1.24-.83-2-2.02-2.13-1.57-.17-2.27,.92-2.35,2.23-.08,1.42,.83,2.22,2.26,2.39Zm-64.86,28.51c-.24-1.26-.9-2.26-2.38-2.05-1.33,.19-2.23,1.04-1.94,2.52,.27,1.37,1.25,2.06,2.64,1.87,1.24-.17,1.72-1.07,1.68-2.35Zm-11.4,22.49c1.14-.22,1.87-1,1.9-2.16,.03-1.23-.77-2.1-2-1.97-1.23,.13-2.47,.72-2.2,2.32,.19,1.12,.92,1.9,2.3,1.82Zm-80.94-98.64c-.3-1.12-.95-2.1-2.4-2.02-1.44,.07-2.14,1.07-2.16,2.44-.02,1.46,.92,2.31,2.27,2.27,1.43-.04,1.92-1.26,2.28-2.69Z"/>
  <path d="M628.33,496.94c.35,1.81,.54,3.67,1.1,5.42,.77,2.41,.04,4.06-1.73,5.76-7.33,7.05-13.52,14.93-17.07,24.62-.4,1.09-.62,2.75-2.1,2.73-1.39-.02-1.74-1.63-2.28-2.69-6.27-12.31-12.94-24.38-21.23-35.47-6-8.03-13.2-14.74-21.91-19.85-6.21-3.65-13.19-3.89-19.91-4.97,8.03-17.71,16.58-34.88,27.73-50.61,15.43-21.76,32.5-42.05,55.07-56.77,38.72-25.25,79.46-28.42,121.76-9.73,7.41,3.27,14.14,7.77,19.35,14.18,1.42,1.74,2.33,3.15-.82,4.45-19.24,7.93-26.73,23.27-26.87,43.17-.13,19.18,3.94,37.85,6.86,56.67,.21,1.37,.67,2.7,.09,4.12-1.91,.49-2.71-1.2-3.81-2.1-2.41-1.96-4.78-3.95-7.54-5.42-10.6-5.66-17.84-4.72-26.65,3.42-9.75,9.02-15.74,20.23-19.14,32.93-1.72,6.43-1.63,6.46-7.06,2.15-5.51-4.38-11.66-7.6-18.21-10.14-10.42-4.04-20.06-2.34-29.23,3.59-1.26,.82-2.2,2.25-3.92,2.29-1.69-2.29-.13-5.64-2.56-7.65,.97-1.79,.47-3.64,.16-5.44-1.54-8.84-3.5-17.59-6.39-26.1-1.24-3.66-2.58-7.28-3.98-10.88-1.4-3.57-2.94-7.09-4.42-10.63-.35,.13-.71,.27-1.06,.4,7.66,16.83,12.26,34.54,15.77,52.56Zm79.78-73.3c-10.07-11.6-46.61-30.92-59.04-31.77,10.15,4.43,20.52,8.88,30.81,13.48,10.35,4.63,19.36,11.36,28.23,18.29Zm-131.81,16.87c-.14-1.64-1.05-2.58-2.67-2.47-1.65,.11-2.35,1.37-2.41,2.86-.05,1.37,.74,2.42,2.15,2.51,1.91,.12,2.61-1.24,2.92-2.89Zm73.73-25.3c-.34,.34-.69,.69-1.03,1.03,3.36,3.07,6.72,6.13,10.21,9.32-3.16-3.56-6.17-6.96-9.18-10.36Z"/>
  <path d="M306.55,714.76c1.14,8.5,2.29,16.75,3.35,25.01,2.41,18.75,4.62,37.52,5.05,56.46,.08,3.49-.75,4.6-4.36,4.31-58.74-4.71-105.01-30.59-136.23-81.14-4.65-7.53-8.85-12.73-18.17-13.34-5.57-.37-10.43-3.81-14.32-8.05-15.19-16.58-29.89-33.62-45.56-49.76-.29-.3-.38-.78-.74-1.56,2.87-.49,5.31,.16,7.72,1.11,3.91,1.54,7.88,2.84,12.08,3.29,7.2,.78,11.91-1.67,15.31-8.07,3.08-5.78,3.86-12.03,3.62-18.48-.27-7.47-1.45-14.79-3.31-22.03-.49-1.91-1.13-3.85-.4-6.18,3.16,1.56,3.97,4.67,5.21,7.3,4.62,9.82,8.96,19.78,15.15,28.76,2.82,4.1,5.87,8.02,9.79,11.14,5.94,4.74,10.18,4.18,14.99-2.07,5.71-7.43,9.85-15.76,13.32-24.41,2.93-7.31,5.6-14.73,8.77-23.12,1.21,3.56,.35,6.01,.15,8.45-.64,7.74-1.2,15.43,1.83,22.92,5.33,13.15,20.71,16.64,31.28,7.08,4.69-4.24,7.71-9.61,10.86-15.03,.46,3.76-1.29,7.01-2.46,10.33-3.67,10.42-9.3,19.94-13.85,29.95-4.62,10.17-8.83,20.5-11.29,31.44-1.51,6.72-.63,13.21,2.07,19.5,1.3,3.03,2.84,3.37,4.91,.57,2.86-3.86,5.84-7.64,8.82-11.41,.92-1.16,1.61-2.67,3.67-3.02,1.02,8.73-.96,17.64,2.12,26.55-5.26-.79-9.63-3.75-14.49-5.07,21.23,11.72,43.98,14.86,67.82,11.65-16.68,.21-33.32-.03-50.22-5.47,6.47-6.21,12.86-11.54,18.65-17.5,1.99-2.05,2.49,.77,2.69,2.02,.74,4.59,1.41,9.2,1.78,13.82,.33,4.15,2.45,5.22,6.36,5.46,3.97,.24,5.95-.85,6.86-4.78,1.15-4.98,2.76-9.85,4.24-14.74,.3-.98,.16-2.45,1.35-2.75,1.48-.38,2.02,1.14,2.81,2.04,4.33,4.87,8.7,9.69,12.93,14.63,2.23,2.6,3.82,2.44,5.63-.44,1.11-1.77,1.67-4.04,4.18-5.36Zm-21.52,73.07c-34.54-6.2-62.92-23.49-87.54-47.72,23.75,25.99,52.15,43.41,87.54,47.72Z"/>
  <path d="M534.2,459.52c-2.27-7.91-1.52-15.45,1.91-22.33,17.36-34.78,41.53-64.22,71.31-89.06,12.45-10.39,26.55-18.29,41.25-25.06,1.56-.72,4.41-3.3,5.18-.02,.6,2.55,1.69,6.58-3.02,8.05-4.28,1.33-8.44,3.11-12.54,4.95-19.4,8.68-34.28,23.16-48.91,38.03-23.76,24.15-40.25,52.97-54.23,83.45-.31,.67-.63,1.33-.94,2Z"/>
  <path d="M365.19,464.98c-6.19-8.1-10.18-16.66-14.92-24.76-11.75-20.08-22.99-40.48-39.15-57.57-19.65-20.79-41.89-37.77-69.19-47.42-4.41-1.56-8.86-2.79-13.48-3.48-.9-.13-2.06,0-2.49-.94-.59-1.27,.75-1.86,1.37-2.64,2.78-3.46,6.1-4.57,10.65-3.49,13.84,3.27,25.98,10.02,37.71,17.7,19.04,12.47,33.26,29.7,46.49,47.79,15.32,20.93,29,42.92,41.21,65.82,1.32,2.47,3.62,4.82,1.8,9Z"/>
  <path d="M661.31,340.78c.64-9.64,.64-9.7,9.86-9.83,4.94-.07,9.88,.11,14.83,.14,2.65,.02,2.91,1.09,2.24,3.52-1.15,4.21-3.26,6.51-7.93,6.51-4.97,0-9.81,1.33-14.52,2.78-3.74,1.15-5.78,1.15-4.48-3.11Z"/>
  <path d="M640.98,352.59c.24-4.42,.5-8.21,.61-12.01,.05-1.52,.88-2.3,2.1-2.71,4.39-1.48,8.81-2.87,13.21-4.31,1.74-.57,2.34,.06,1.94,1.79-.03,.15-.08,.31-.07,.46,.29,6.76-1.3,12.01-9.24,13.26-2.76,.43-5.32,2.14-8.56,3.52Z"/>
  <path d="M638.76,340.4c-.27,2-.85,3.57-.6,5,1.3,7.52-2.97,11.14-9.03,13.87-2.23,1-3.47,1.33-3.32-1.72,0-.15,0-.31-.02-.46-.79-10.44,1.1-12.96,12.97-16.69Z"/>
  <path d="M689.63,340.12q1.98-8.71,10.06-7.01c5.31,1.1,10.66,2.02,15.79,3.87,.93,.33,2.58,.27,2.23,1.74-.2,.85-1.38,1.68-2.31,2.07-.94,.39-2.13,.39-3.18,.29-7.4-.73-14.81-1.28-22.58-.95Z"/>
  <path d="M586.1,396.59c-6.91-11.7,2.05-16.39,8.5-22.34,3.45,6.84,3.14,9.41-1.52,14.53-2.35,2.57-4.64,5.19-6.98,7.81Z"/>
  <path d="M611.63,370.64c-.1-1.31,.04-2.44-.3-3.41-2.87-8.27,2.75-11.98,8.31-15.81,2.2-1.51,2.24-.34,2.73,1.53,2.44,9.35-3.22,13.83-10.74,17.68Z"/>
  <path d="M267.43,367.45c-.29-.49-.48-1.09-.88-1.45-1.79-1.61-5.65-1.96-5.46-4.38,.27-3.55,2.19-6.98,3.44-10.44,.35-.96,1.17-.96,1.88-.54,2.66,1.55,5.29,3.15,7.91,4.78,.36,.22,.72,.69,.79,1.09,.35,2.13-5.64,10.31-7.82,10.79,0,0,.15,.16,.15,.16Z"/>
  <path d="M287.81,365.56c-1.84,2.95-3.56,5.86-5.45,8.64-.68,1-1.74,.23-2.47-.21-1.85-1.09-3.6-2.36-5.45-3.46-1.9-1.13-2.01-2.51-.89-4.23,.42-.64,.68-1.39,1.13-2.01,1.45-1.99,1.59-6.21,4.04-5.82,3.29,.52,5.98,3.55,8.6,5.94,.29,.27,.35,.8,.48,1.15Z"/>
  <path d="M290.34,367.5c1.41,0,10.31,8.22,9.81,8.97-1.68,2.52-3.45,5.09-5.69,7.06-1.4,1.23-2.54-1.1-3.83-1.76-.4-.21-.73-.56-1.09-.85-5.1-3.99-5.12-8.42-.03-12.79,.32-.27,.67-.51,.84-.64Z"/>
  <path d="M255.01,360.4c-.91-.82-1.95-1.23-3.19-1.01-.43-1.91-4.18-1.76-3.04-4.47,1.42-3.38,2.56-7.26,5.05-9.66,1.8-1.73,4.44,1.63,6.78,2.51,1.25,.47,2.5,1.64,1.78,3.26-1.37,3.08-2.9,6.09-4.49,9.07-.69,1.3-1.89,.46-2.89,.3Z"/>
  <path d="M608.11,361.37c1.71,11.64,.23,15.09-8.16,19.62-2.65-11.54-2.16-12.75,8.16-19.62Z"/>
  <path d="M303.11,378.8c.78-.05,6.7,5.86,6.78,6.76,.06,.78-5.18,7.38-5.95,7.48-1.06,.15-7.12-5.46-7.33-6.78-.14-.89,5.54-7.4,6.51-7.47Z"/>
  <path d="M580.41,389.72c3.44,9.91,2.81,12.16-5,18.85q-2.85-9.82,5-18.85Z"/>
  <path d="M326.11,405.29c-1.71,2.03-2.97,4.38-4.93,5.56-1.53,.92-1.95-1.81-3.04-2.73-.81-.69-1.53-1.52-2.22-2.34-2.05-2.43-.11-7.91,3.01-8.54,.28-.06,.74-.1,.86,.05,2.1,2.61,4.16,5.25,6.32,8Z"/>
  <path d="M560.39,429.93c-3.8-7.79-3.38-9.96,2.98-16.27,5.24,6.53,1.25,11.33-2.98,16.27Z"/>
  <path d="M311.72,401.09c-2.15-1.64-5.21-3.3-4.91-5.34,.41-2.8,2.82-5.33,5.13-7.35,.57-.5,5.69,4.86,5.33,5.85-1.02,2.84-3.74,4.34-5.55,6.85Z"/>
  <path d="M751.36,352.52c-9.08-4.29-18.62-7.08-28.35-9.35-1.03-.24-2.9,.09-2.33-1.95,.44-1.55,1.68-2.22,3.27-1.65,9.54,3.43,19,7.04,27.4,12.95Z"/>
  <path d="M568.61,418.41c-2.43-5.65-5.19-11.22,1.74-15.46q4.36,8.38-1.74,15.46Z"/>
  <path d="M555.38,426.29c4.38,7.26,4.29,8.55-1.03,15.25-4.09-7.3-3.9-10.08,1.03-15.25Z"/>
  <path d="M329.6,421.18c-1.59-.06-5.84-6.14-5.49-7.46,.55-2.14,1.72-3.96,4.04-4.53,.72-.17,5.21,6.81,4.76,7.57-1,1.67-2.33,3.14-3.31,4.42Z"/>
  <path d="M548.33,452.22c-3.97-6.81-3.89-8.15,.71-13.77,2.79,4.71,4.39,9.4-.71,13.77Z"/>
  <path d="M339.59,427.5c-.32,1.88-1.71,2.77-2.93,3.51-1.18,.71-2.03-.64-2.44-1.5-1.05-2.25-4.48-3.92-1.78-7.2,1.58-1.91,2.85-2.82,4.31,.03,.91,1.77,1.92,3.5,2.84,5.16Z"/>
  <path d="M543.33,448.56c2.25,3.79,4.95,7.07,1.98,11.53-1.33,2-1.85,1.65-3.18-.02-3.41-4.26-.94-7.65,1.21-11.51Z"/>
  <path d="M538.35,459c1.43,2.43,2.6,4.24,3.59,6.15,1.11,2.15,.23,4.26-1.51,5.24-1.85,1.04-2.41-1.33-3.26-2.44-2.32-3.02-.94-5.72,1.19-8.96Z"/>
  <path d="M344.4,436.05c.19,1.85-1.12,2.65-2.22,2.56-2.34-.2-3.17-2.36-3.57-4.23-.36-1.69,1.45-3.51,2.54-3.26,2.27,.52,2.37,3.24,3.24,4.94Z"/>
  <path d="M349.51,445.62c.12,1.52-.47,2.94-1.61,2.39-2.27-1.09-3.51-3.41-4.13-5.79-.34-1.3,1.05-2.91,2.06-2.4,2.27,1.15,3.1,3.65,3.67,5.8Z"/>
  <path d="M354.23,453.91c.06,1.05-.12,2.44-1.05,2.24-1.94-.42-2.59-2.33-3.05-4.07-.3-1.15,.43-2.59,1.38-2.39,2.08,.43,2.2,2.61,2.71,4.22Z"/>
  <path d="M363.14,469.94c-.05,.99-.26,2.02-.81,1.71-1.84-1.08-2.27-3.27-3.29-5-.09-.16,.86-1.28,1.06-1.21,2.25,.8,2.11,3.18,3.04,4.5Z"/>
  <path d="M396.78,195.79c-.06,10.45-8.59,18.65-19.28,18.52-9.39-.11-15.48-6.03-15.39-14.96,.11-11.48,8.62-20.47,19.26-20.34,9.22,.11,15.48,6.92,15.42,16.78Zm-14.8-14.01c6.34,4.79,7.98,10.2,5.87,16.64-2.05,6.25-6.71,10.01-13.51,12.56,9.77,1.6,18.18-5.08,19.19-14.18,.84-7.55-3.94-14.55-11.55-15.02Zm-16.05,17.7c.43,3.01,1.78,5.59,5.09,5.44,3.11-.14,4.26-2.75,4.24-5.64-.02-3-1.41-5.27-4.63-5.11-3,.14-4.56,2.23-4.71,5.31Z"/>
  <path d="M535.05,201.17c-9.71-.07-15.44-5.31-15.44-14.11,0-9.76,8.44-17.94,18.29-17.74,8.68,.17,16.06,6.99,16.1,14.85,.04,9.54-8.36,17.08-18.95,17Zm3.06-2.93c7.33-1.46,12.06-6.25,12.55-12.71,.47-6.13-2.37-9.84-10.15-12.32,4.4,2.77,3.17,5.17,.56,7.95-1.65,1.76-1.51,4.35,.66,5.7,3.84,2.39,2.5,4.67,.34,7.12-1.28,1.46-2.65,2.84-3.97,4.25Z"/>
  <path d="M460.32,233.28c-2.4-.91-4.22-1.54-5.99-2.29-.81-.34-1.88-.78-1.34-1.97,.42-.93,1.39-1.31,2.31-.79,1.9,1.06,4.15,1.84,5.02,5.05Z"/>
  <path d="M482.6,230.31c.17-2.84,1.34-4.23,2.62-5.51,.63-.62,1.51-1.32,2.34-.36,.78,.9,.15,1.76-.54,2.36-1.25,1.1-2.61,2.08-4.42,3.51Z"/>
</svg>