<?xml version="1.0" encoding="UTF-8"?>
<svg id="Layer_1" data-name="Layer 1" xmlns="http://www.w3.org/2000/svg" viewBox="0 0 864 864">
  <path d="M183.43,814.02c-9.83,.97-18.03,4.4-25.81,9.01-7.13,4.23-13.25,9.74-19.42,15.19-1.07,.94-2.19,2.54-3.82,1.64-1.36-.75-.73-2.45-.68-3.72,.41-10.22,5.65-17.84,13.46-23.79,12.58-9.58,27.34-13.93,42.57-16.93,6.61-1.3,13.28-2.25,20.01-2.72,4.83-.34,5.03-.65,2.53-4.92-8.36-14.22-18.36-27.32-27.92-40.72-6.52-9.14-13.27-18.22-17.26-28.81-8.29-21.99-4.57-42.1,10.69-59.87,3.19-3.71,5.16-7.42,5.62-12.27,.67-7.15,1.83-14.25,2.69-21.38,.22-1.85,.96-4.31-1.05-5.3-2.32-1.15-3.78,1.21-5.18,2.63-4.84,4.9-9.51,9.96-14.37,14.84-1.51,1.51-2.99,3.28-5.84,3.79,3.8-12.68,9.92-23.92,16.83-36.12-12.48,4.05-15.86,14.67-21.2,23.7-2.41-12.52-.49-24.19,5.16-35.19,5.72-11.14,14.84-18.22,26.99-21.24,2.24-.56,3.69-1.04,3.78-3.88,1.44-43.18,16.96-81.31,41.8-116.08,13.82-19.34,23.38-40.33,25.05-64.4,.49-7.11,.49-7.09-6.08-9.25-43.33-14.28-81.13-37.37-112.37-70.8-21.37-22.86-32.71-49.64-29.99-81.27,2.17-25.32,14.22-44.38,37.8-55.28,1.84-.85,3.07-1.83,3.81-3.94,10.18-28.92,30.38-48.6,57.69-61.35,4.7-2.19,6.25-4.62,6.7-9.8,3.21-36.62,19.4-66.44,48.27-89.27,3.05-2.41,6.51-4.3,10.19-5.62,2.05-.73,4.61-1.78,6.13,.51,1.43,2.15-.12,4.3-1.44,6.14-.6,.84-1.38,1.59-2.19,2.24-1.42,1.13-1.97,2.09-.16,3.44,2.32,1.74,3.01,4.2,1.79,6.79-1.4,2.97-3.02,6.27-6.93,6.15-2.6-.08-3.32,1.41-4.24,3.12-.66,1.24-.8,2.1,.91,2.68,3.79,1.28,5.03,4.29,4.09,7.86-1.04,3.92-3.62,6.45-8.06,6.52-1.19,.02-3.06-1.06-3.4,.91-.4,2.32-.22,4.74-.17,7.12,0,.18,1,.54,1.5,.48,3.39-.4,5.48,1.23,6.48,4.27,1.07,3.28,.16,6.2-2.13,8.71-.4,.44-.77,1.08-1.28,1.23-5.96,1.79-4.43,5.85-3.16,9.94,1.46,4.71,2.84,9.46,4.11,14.23,.55,2.04,1.51,2.93,3.74,2.92,13.22-.09,26.28,1.63,39.23,4.1,2.1,.4,3.14,.42,3.81-2.07,7.55-28.04,24.43-49.96,45.48-69.16,8.24-7.52,17.01-14.18,27.39-18.48,2.63-1.09,5.34-2.02,8.21-2.19,1.75-.1,3.82-.55,4.8,1.47,.83,1.71,.58,3.75-.57,5.13-2.24,2.69-4.15,4.75-2.66,9.03,1.19,3.42-4.71,7.97-9.13,7.99-1.56,0-3.36-.98-4.37,1.08-1.06,2.16,1.24,2.37,2.09,3.34,4.09,4.71,1.26,12.08-5.38,13.37-2.26,.44-4.67,.07-7.84,.07,1.97,2.49,4.76,3.72,3.8,6.79-.79,2.52-2.22,4.47-4.3,6.11-2.22,1.74-2.42,4.73-3.88,6.98-.39,.6-.06,1.2,.64,1.34,4.31,.83,5.1,3.89,4.35,7.45-.81,3.82-3.41,6.83-7.24,7.02-3.83,.19-4.29,2.1-4.55,4.97-.72,8.07-1.05,16.12-.08,24.2,.32,2.63,1.19,4.24,3.96,5.12,12.03,3.79,23.34,9.27,34.32,15.44,1.53,.86,2.87,1.97,4.92,.78,20.2-11.68,37.69-26.2,47.93-47.73,9.2-19.34,14.98-39.71,16.28-61.21,.33-5.51,2.57-9.01,5.99-9.34,3.23-.31,6.91,3.26,6.68,8.63-.34,7.92,4.45,14.15,5.62,21.46,.14,.89,.38,1.61,1.51,1.9,5.47,1.44,6.42,4.85,2.45,9.07-1.26,1.34-2.45,2.44-2.28,4.54,.19,2.35-.47,5.02,3.51,4.3,1.33-.24,2.05,.96,2.56,2.12,2.23,5,.04,12.19-4.69,14.92-3.54,2.04-2.68,5.99-4.06,8.96-1.04,2.24-2.12,4.39,2.23,4.85,3.1,.33,3.59,3.75,3.72,6.47,.25,5.26-3.85,10.44-9.11,11.07-2.47,.3-3.24,1.53-3.97,3.44-6.82,17.85-16.29,33.99-30.52,47.01-1.79,1.64-1.89,2.71-.34,4.71,6.88,8.91,6.72,8.77,17.09,4.4,28.64-12.06,50.37-31.8,66.06-58.47,1.18-2,1.89-5.9,4.66-5.01,2.09,.67,.8,4.33,.59,6.62-3.61,39.6-20.95,71.94-51.88,96.87-3.13,2.52-3.68,4.31-2.38,8.01,7.95,22.6,10.9,45.65,5.06,69.28-8.89,35.97-30.89,62.22-61.28,82.13-11.09,7.26-23.06,12.66-35.87,16.17-1.77,.48-3.21,1.1-3.95,3.15-5.63,15.53-13.7,29.9-21.22,44.54-8.85,17.23-14.33,35.45-15.79,54.85-1.41,18.8,4.25,35.02,17,48.94,15.2,16.6,32.1,31.39,48.56,46.66,11.31,10.48,22.58,21.01,33.11,32.29,2.37,2.54,4.07,3.77,7.14,.88,2.62-2.47,6.2-3.53,9.65-4.6,2.71-.84,3.62,.07,3.18,2.8-.85,5.24-2.89,10-5.79,14.63,4.32-1.76,8.29-4.05,12.83-4.8,2.06-.34,4.38-1.18,5.93,.63,1.69,1.97-.06,3.95-.88,5.79-1.64,3.71-3.62,7.25-6.41,10.23-1.29,1.38-1.82,2.39-.45,4.17,2.65,3.42,5,7.08,7.51,10.62,.55,.78,1.34,2.27,2.21,.58,2.07-4.02,5.12-7.63,6.03-12.66-3.66,1.56-6.41,4.05-10.1,4.54,1.68-4.4,8.33-9.66,12.85-10.46,3.05-.53,2.96,1.17,2.41,3.13-1.72,6.11-4.28,11.84-8.27,16.81-1.62,2.02-1.88,3.5-.46,5.9,12.44,21.09,20.87,43.7,24.88,67.88,.48,2.9,1.43,4.39,4.56,4.98,11.39,2.14,11.37,2.27,14.6-8.89,.32-1.12,1.07-2.19,.47-3.63-5.71,3.42-10.4,8.43-17.74,11.18,1.82-3.41,3.75-5.56,6.05-7.25,4.34-3.18,8.83-6.17,13.29-9.18,1.09-.74,2.5-1.93,3.65-1.11,1.39,1,.51,2.8,.16,4.17-1.24,4.8-3.07,9.41-5.56,13.68-1.37,2.35-.9,3.11,1.67,3.29,7.92,.57,15.82,1.02,23.78,.74,4.02-.14,4.91-1.72,4.82-5.45-.14-5.92,.9-11.7,4.81-17.63,.99,6.62,.18,12.17-.97,17.67-1.02,4.91-1.1,4.93,4,3.81,17.61-3.85,33.38-11.57,46.87-23.47,26.61-23.49,47.92-50.94,61.47-84.04,4.85-11.85,6.46-24.58,10.18-36.73,.26-.86,.46-1.74,.74-2.59,3.41-10.36,4.58-11.07,14.68-8.96-7.32-5.2-13.18-4.78-19.69,1.64-.97,.95-1.36,1-2.52,.43-18.85-9.32-36.81-5.7-50.64,10.18-1.94,2.23-3.7,4.62-6.31,7.89,.44-7.01,.77-13,1.21-18.99,.33-4.47-.49-9.69,1.57-13.17,2.15-3.63,8.09-2.91,12.18-4.64,3.1-1.31,6.27-2.47,9.3-4.22-5.66-.81-11.23-.67-16.72,.38-3.62,.69-5.06,.13-4.65-4.1,2.35-24.73,4.33-49.5,7.94-74.11,.5-3.42,1.63-4.35,5.1-3.99,10.87,1.13,21.78,1.64,33.02-.38-1.21-1.47-2.69-1.45-4.02-1.66-9.46-1.5-18.91-3.08-28.39-4.38-2.67-.37-3.54-1.06-3.09-3.9,2.82-17.83,9.04-34.36,18.36-49.8,1.88-3.12,2.76-1.99,4.13,.24,3.47,5.63,7.91,10.44,13.1,15.62,.47-3-.63-4.95-1.45-6.81-2.28-5.2-4.61-10.4-7.3-15.4-1.35-2.51-1.2-4,.69-6.21,18.8-21.89,40.87-39.9,65.12-55.35,4.75-3.03,9.26-6.51,15.46-8.71-2.78,5.47-5.35,10.25-7.68,15.14-17.38,36.31-20.29,74.05-10.98,112.96,.97,4.07,1.89,8.19,3.33,12.11,1.29,3.53,.75,5.11-3.03,6.57-9.5,3.67-18.32,8.81-27.13,13.91-.48,.28-.84,.78-2.13,1.99,10.76-2.76,19.86-6.79,29.13-10.33,5.84-2.23,5.69-2.26,8.1,3.27,3.1,7.13,6.31,14.22,9.7,21.22,1.03,2.13,.81,3.43-.8,5.08-2.78,2.84-5.6,5.71-6.97,10.03,3.26-1.93,6.61-3.72,9.74-5.84,1.69-1.15,2.47-.97,3.41,.77,2.28,4.21,4.71,8.34,7.09,12.49,.79,1.38,1.59,2.56-.75,3.37-17.75,6.12-27.69,19.51-33.78,36.46-.49,1.36-.57,2.97-1.73,3.79-21.09-34.74-36.09-71.73-41.08-112.35-.42-3.42-.17-5.82,3.55-7.99,9.55-5.57,18.66-11.92,27.88-18.04,1.45-.96,3.12-1.8,4.25-4.19-14.68,3.53-24.7,13.42-35.84,22.94-.13-12.22,.98-23.58,2.3-34.98-3.39,7.26-4.84,15.03-6.02,22.86-3.75,24.82,2.01,48.42,8.75,72.02,6.84,23.96,20.5,44.08,34.54,64.06,.32,.46,.85,.77,1.4,1.27,2.76-4.28,3.3-9.42,6.23-13.57,2.03,1.45,2.17,3.68,2.84,5.57,7.64,21.33,7.5,42.69,1.01,64.36-11.6,38.73-28.9,74.49-54.9,105.6-27.06,32.37-62.09,52.54-102.13,64.53-39.1,11.71-78.97,16.8-119.76,13.32-2.37-.2-3.58,.5-4.47,2.59-.82,1.91-2.23,3.59-2.97,5.52-3.81,9.97-12.06,13.97-21.58,16.3-7.61,1.86-15.38,2.22-23.18,2.32-2.86,.04-3.61-.98-3.36-3.69,.3-3.12,.29-6.28,.19-9.42-.06-2.03,.22-4.8-2.11-5.46-2.58-.73-3.79,1.95-4.98,3.75-2.06,3.13-3.9,6.47-4.76,10.12-.81,3.43-2.64,4.17-5.81,3.62-3.39-.58-6.83-.98-10.26-1.14-2.88-.13-3.43-1.43-3.15-4.04,.88-8.02,2.08-15.95,5.41-24.07-9.9,.97-17.61,5.11-24.44,11.17-4.02,3.57-7.6,7.7-12.47,10.2-3.74,1.92-8.44,4.82-11.71,2.44-3-2.18-.76-7.32,.1-11,2.25-9.65,8.34-16.76,16.04-22.59,17.6-13.33,37.77-19.64,60.14-21.59-2.58-2.64-5.58-3.85-8.35-5.37-19.29-10.62-40.28-16.77-61.19-23.12-12.03-3.66-24.24-6.66-36.41-9.79-3.46-.89-4.96-.07-6.31,3.26-8.4,20.73-14.1,42.29-19.84,63.83-1.26,4.71-3.8,7.52-8.13,9.29-14.59,5.96-29.91,6.98-45.41,6.97-2.32,0-2.71-1.17-2.51-3.14,.32-3.13,.68-6.27,.66-9.4-.01-2.27,.56-5.39-2.24-6.2-2.45-.71-3.82,1.89-5.15,3.64-2.47,3.23-4.5,6.77-5.74,10.62-.86,2.69-2.22,3.4-4.92,3.08-5.05-.61-10.13-1.02-15.22-1.21-3.28-.12-3.94-1.54-3.65-4.56,1-10.59,3.15-16.35,10.49-26.15Zm154.34-179.36c1.34,10.33-.38,20.25-.39,30.26,6.06-10.9,9.52-22.52,10.44-34.87,.17-2.29,1.32-5.6-.87-6.62-2.35-1.1-4.51,1.67-6.34,3.33-6.91,6.25-12.7,13.51-18.28,20.94-.99,1.32-1.72,3.09-4.17,3.21,.12-.99,.19-1.7,.31-2.4,1.99-11.88,6.3-23.06,10.33-34.33,.37-1.02,1.38-2.25,.12-3.29-1.1-.91-2.3-.18-3.37,.28-1.54,.66-2.79,1.74-3.81,3.06-2.6,3.34-4.1,7.2-5.07,11.88-2.37-3.28-3.15-6.64-4.53-9.71-.53-1.17,.3-1.91,.87-2.8,8.08-12.62,14.88-25.94,21.28-39.46,2.19-4.64,4.62-9.2,6-14.89-1.09,.7-1.69,.91-2.03,1.34-2.35,2.91-4.82,5.74-6.91,8.83-8.85,13.03-15.48,27.15-20.47,42.22-20.64-47.11-26.09-94.88-6.67-144.11-22.09,3.15-43-1.45-64.48-8.14,2.19-1.09,3.48-.55,4.74-.4,19.17,2.3,38.24,5.34,57.47,7.21,2.4,.23,3.5-.15,4.45-2.28,2.49-5.6,5.44-11.01,7.71-16.7,6.55-16.43,10.54-33.36,9.17-51.23-.18-2.37-.08-4.63-3.7-4.88-16.01-1.1-31.73-4.14-47.36-7.69-6-1.36-6.02-1.27-6.82,4.61-.28,2.08-.53,4.16-.87,6.22-3.46,20.8-12.47,39.23-24.28,56.43-10.47,15.26-18.86,31.56-24.89,49.08-7.92,22.98-9.79,46.78-9.83,70.82-.07,41.84,10.84,80.18,37.25,113.27,13.63,17.08,29.94,30.96,50.5,39.2,6.19,2.48,12.64,3.7,19.34,2.98,5.41-.59,8.03-2.57,9.46-7.19-7.1,4.07-14.27,4.22-21.59,1.27,7.16-.75,14.22-1.75,21.13-3.83,2.43-.73,3.8-1.93,4.61-4.26,2.25-6.42,3.25-13.03,3.65-19.79,.72-12.16-1.92-23.8-5.05-35.4-.49-1.81-1.4-3.59,.12-5.52,4.35-5.5,8.57-11.11,12.84-16.67Zm10.54-338.25c6.95-.12,13.7-1.23,20.32-3.29,26.05-8.09,44.64-37.5,39.72-62.92-5.99-30.93-44.15-49.65-73.43-36.03-23.07,10.73-36.53,37.57-32.5,64.81,3.04,20.58,15.44,33.35,35.62,36.53,3.39,.53,6.85,.61,10.27,.9Zm-97.58-121.63c.17-8.16-1.88-15.72-6.58-22.41-10.05-14.3-29.05-17.61-46.19-8.16-19.34,10.65-29.78,36.27-24.02,58.94,4.07,16.03,13.9,23.18,30.43,22.15,24.35-1.52,46.16-25.29,46.37-50.52Zm46.27,117.29c-1.8,2.48-3.27,4.71-4.93,6.79-8.88,11.16-18.64,21.18-33.31,24.41-10.35,2.28-20.82,2.58-31.23,.79-35.89-6.14-65.44-23.68-89.75-50.47-6.34-6.99-11.79-14.67-17.14-22.47,.53,2.07,1.29,3.98,2.25,5.79,15.82,29.86,38.53,52.9,69.1,67.43,21.59,10.27,44.44,14.08,68.15,8.37,19.45-4.69,34.46-21.28,36.85-40.64Zm98.41,498.83c-2.22-4.5-4.6-8.94-6.64-13.53-9.36-21.04-8.81-41.65,5.15-60.34,13.11-17.55,25.69-20.99,43.73-16.41,3.33,.85,6.56,2.09,9.88,2.95,1.07,.28,2.15,1.47,3.48,.44-29.66-16.63-55.09-11.35-72.29,13.41-17.19,24.74-5.55,59.5,16.68,73.47Zm1.04-606.75c-4.44-20.86-30.8-30.52-47.07-17.91-2.23,1.73-5.36,3.82-4.26,6.74,1.17,3.11,4.48,.27,6.81,.62,.28,.04,.59-.07,.89-.13,14.62-2.54,28.31-.74,40.41,8.59,.81,.63,1.72,1.12,3.22,2.09ZM172.48,703.03c36.64,17.38,72.76,35.76,107.07,57.59,.34-.65,.68-1.29,1.02-1.94-31.76-26.67-69.78-41.43-108.08-55.65Zm204.16-64.16c-3.37-2.41-5.44-5.31-8.55-6.79-3.01-1.44-5.14-1.44-6.39,2.6-3.5,11.34-8.61,21.95-15.74,31.51-.99,1.33-1.86,2.74-2.79,4.12,11.11-9.22,19.89-19.84,22.19-34.76,5.52,8.67,6.27,18.55,7.87,28.58,7.66-14.84,11.59-37.86,4.35-48.11-.35,7.39,.11,14.82-.95,22.84Zm277.29,126.47c-.12-.44-.26-1.49-.67-2.43-2.2-5.05-12.09-9.95-17.53-8.73-4.32,.96-6.67,4.94-5.12,9.31,2.04,5.77,6.36,9.43,12.19,10.9,5.07,1.28,11.08-3.53,11.13-9.05Zm-55.12,12.1c-8.3,.1-11.5,5.03-8.46,11.76,1.38,3.05,3.36,5.69,6.19,7.53,4.62,3.01,10.61,1.67,13.87-3,2.94-4.23,1.98-9.09-2.58-12.57-2.91-2.22-6.15-3.66-9.02-3.72Zm69.2-47.88c-8.28,.09-10.53,3.72-7.01,10.06,2.39,4.32,5.69,8.01,10.99,8.08,5.66,.08,9.02-4.1,12.12-8.17,1.35-1.78,.48-3.41-1.22-4.55-4.79-3.24-10.09-5.05-14.87-5.42ZM206.09,122.4c1.88-.15,2.57-.15,3.24-.27,13.65-2.43,26.14,.19,37.43,8.39,3.26,2.37,6.7,4.52,10.12,6.66,1.3,.81,2.93,1.3,4.12-.04,1.22-1.37,.36-2.85-.53-4.08-.88-1.2-1.84-2.38-2.93-3.39-7.5-6.91-16.53-10.76-26.43-12.44-8.46-1.44-16.56-.03-25.03,5.17Zm118.49,236c11.57,10.31,25.25,11.68,39.85,9.02,12.78-2.33,26.48-12.19,27.73-23.3-6.53,9.81-14.86,16.04-25.99,18.52-11.53,2.58-22.55,.86-33.5-2.8-2.59-.87-5.09-2.32-8.09-1.45Zm384.23,317.68c3.83-.03,5.31-2.79,6.63-5.73,.75-1.68,1.48-3.57-.36-4.87-4.2-2.97-8.79-5.24-14.09-4.67-2.59,.28-5.02,1.54-4.48,4.93,.72,4.5,7.86,10.43,12.31,10.34ZM220.06,284.28c.28,2.56,.51,4.64,2.75,5.28,2.21,.64,3.71-.9,4.83-2.48,4.38-6.23,6.3-13.4,7.48-20.78,.44-2.75-1.35-2.76-2.96-1.55-6.71,5.06-10.45,11.96-12.1,19.53Zm493.64,353.09c-6.15,.07-9.25,2.58-8.56,6.34,1.02,5.54,9.57,8.8,14,5.31,2.49-1.97,4.25-4.72,3.67-7.72-.49-2.55-3.6-2.76-5.89-3.35-1.29-.34-2.64-.47-3.23-.57Zm-20.31,50.76c-4.21,.09-6.33,2.37-4.96,5,2.06,3.95,5.63,6.22,10,6.69,4.26,.46,7.92-1.3,10.6-4.61,.93-1.15,1.97-3.26-.55-3.89-5.19-1.3-10.48-2.24-15.09-3.2Zm-2.42,32.38c3.33,.3,5.39-.74,7.03-2.69,1.31-1.55,1.43-3.2-.58-4.04-5.38-2.25-10.86-4.27-16.69-4.98-1.45-.18-3.22-.09-3.9,1.56-.63,1.53,.28,2.94,1.27,4.08,3.58,4.11,8.47,5.4,12.86,6.07Zm-493.82-95.59c-2.17,7.91-6.03,14.69-8.74,22.56,5.16-2.39,9.73-3.6,14.54-3.84,1.27-.06,3.1,.1,2.08-2.11-2.57-5.57-5.25-11.08-7.88-16.62Zm366.32,164.98c-3.43-.07-5.85,2.31-5.9,5.83-.07,4.22,2.98,7.65,6.93,7.78,3.61,.12,7.17-2.66,7.38-5.77,.22-3.33-4.53-7.76-8.4-7.84ZM296.66,167.9c-.02-3.75-3.13-6.9-6.82-6.9-3.72,0-6.88,3.14-6.89,6.84-.01,3.8,3.06,6.9,6.8,6.86,3.75-.04,6.92-3.16,6.91-6.81Zm-106.89,77.99c-6.03,4.78-10.97,10.35-13.66,17.62-.67,1.82-.99,4,1.1,5.2,2.17,1.25,3.73-.29,4.88-1.88,4.5-6.22,6.9-13.25,7.69-20.94Zm215.82,356.96c-3.66,.1-6.83,3.36-6.8,6.99,.03,3.82,3.47,6.92,7.46,6.73,3.61-.17,6.28-3.14,6.22-6.89-.06-3.79-3.21-6.92-6.88-6.83Zm-79.27-462.51c.08-3.81-2.85-6.95-6.59-7.07-3.87-.12-7.28,3.13-7.25,6.92,.02,3.46,2.94,6.3,6.66,6.48,3.92,.19,7.11-2.62,7.18-6.33Zm325.63,574.69c0-3.55-3.26-7.34-6.4-7.44-3.46-.11-6.89,3.6-6.84,7.4,.05,3.82,3,6.69,6.85,6.68,3.48,0,6.39-3.03,6.39-6.64ZM309.79,152.42c.04-3.64-2.82-6.6-6.44-6.67-3.85-.07-7.28,3.25-7.25,7.03,.02,3.48,3.09,6.4,6.75,6.43,3.72,.03,6.9-3.08,6.94-6.79Zm236.63,607.08c.06-3.84-2.53-6.75-6.1-6.85-3.76-.1-7.22,3.15-7.35,6.93-.12,3.59,2.73,6.43,6.49,6.47,3.88,.04,6.9-2.81,6.96-6.55Zm88.13-27.26c-.1-3.62-3.46-6.58-7.22-6.36-3.46,.2-6.31,3.13-6.21,6.38,.11,3.26,3.97,6.66,7.35,6.47,3.42-.19,6.16-3.12,6.07-6.49Zm-180.01-68.41c.05-3.42-2.79-6.47-6.09-6.54-3.38-.07-6.6,3.15-6.58,6.6,.01,3.48,2.77,6.44,6.09,6.53,3.42,.1,6.53-3.02,6.58-6.59Zm218.33,2.37c-2.98,0-5.92,2.95-6.01,6.04-.1,3.56,3.07,6.52,7.04,6.47,3.56-.05,5.53-1.97,5.67-5.48,.14-3.51-3.33-7.02-6.7-7.03Zm9.6-6.5c3.48,.1,6.38-2.67,6.4-6.11,.02-3.5-2.77-6.43-6.23-6.28-3.68,.17-5.76,2.31-6.13,5.92-.35,3.48,2.41,6.37,5.96,6.47Zm-14.55,39.72c-.04-3.83-3.82-7.61-7.3-7.43-3.44,.17-5.11,2.19-5.11,5.54,0,3.62,3.3,6.94,6.93,6.86,3.33-.07,5.22-1.87,5.48-4.97Zm-52.01,44.63c.01-3.39-2.56-6.33-5.6-6.42-3.45-.1-6.27,2.76-6.1,6.29,.18,3.67,2.17,5.86,5.82,6.17,3.13,.27,5.87-2.69,5.88-6.05ZM343.11,125.03c-.06-3.26-2.79-6.03-6-6.08-3.55-.06-6.19,2.7-5.98,6.35,.21,3.64,2.36,5.36,5.84,5.48,3.46,.12,6.2-2.52,6.14-5.74Zm-27.99-11.35c-3.59-.12-7.01,2.9-6.83,5.99,.19,3.36,2,5.52,5.52,5.82,3.43,.29,6.27-2.36,6.33-5.96,.06-3.57-1.97-5.37-5.02-5.86Zm-15.35,20.54c-.12-3.58-3.05-6.42-6.12-6.27-3.22,.15-5.75,3-5.6,6.31,.14,3.27,3,5.94,6.24,5.61,3.53-.37,5.06-2.71,5.48-5.65Zm-17.59,46.29c-3.7-.02-6.54,2.6-6.67,5.75-.13,3.1,2.73,6.08,5.85,6.09,3.14,.01,5.99-2.82,5.88-6.07-.11-3.47-1.95-5.48-5.06-5.77Zm280.92,578.99c.21,3.08,2.39,4.78,5.75,5.01,3.24,.22,6.11-2.62,6.11-5.75,0-3.36-2.66-6-5.93-5.9-3.17,.1-5.91,2.92-5.92,6.64Zm-140.64-137.86c-3.31,.29-5.28,2.2-5.49,5.65-.2,3.31,2.52,6.05,5.82,5.9,3.47-.15,5.5-2.03,5.64-5.56,.13-3.3-2.6-6.03-5.97-5.98Zm15.4,30.25c2.83-.24,4.57-2.23,4.72-5.48,.15-3.22-2.88-6.11-6.03-5.88-3.37,.25-5.13,2.21-5.2,5.56-.07,3.53,2.43,5.91,6.52,5.8Zm-47.87-66.06c-3.26,.31-5.25,2.14-5.33,5.41-.08,3.39,2.13,5.29,5.31,5.39,3.28,.1,5.36-1.8,5.28-5.25-.08-3.25-1.82-5.24-5.27-5.54Zm77.96,98.02c-.34-3.22-2.08-5.17-5.22-5.11-3.32,.07-5.29,2.13-5.24,5.49,.05,3.19,2.01,5.03,5.16,5.01,3.41-.03,5.05-2.15,5.31-5.38Zm219.51-72.83c.39,2.83,1.54,5.06,4.73,4.88,3.25-.19,5.35-2.06,5.21-5.45-.12-2.92-2-4.7-4.96-4.63-3.21,.08-4.66,2.2-4.98,5.2Zm-212.33,23.33c-4.42,1.44-7.89,2.71-11.59,3.08-1.49,.15-2.3,.7-1.09,2.24,1.64,2.08,2.81,5.54,5.14,5.79,2.31,.26,3.08-3.43,4.47-5.4,1.08-1.54,1.81-3.32,3.07-5.7Zm217.58-.69c-.39-2.8-1.82-4.76-4.84-4.71-2.82,.04-4.34,1.83-4.29,4.61,.05,3.02,1.89,4.67,4.8,4.71,2.85,.03,4.22-1.76,4.33-4.61Zm-95.96,119.1c-.26-2.71-1.74-4.46-4.53-4.4-2.93,.06-4.74,1.84-4.68,4.82,.06,2.75,1.81,4.48,4.54,4.47,2.94-.02,4.54-1.83,4.67-4.89Zm119.78-126.52c2.7-.31,4.95-1.49,4.66-4.06-.41-3.74-3.91-3.5-6.61-3.65-1.9-.1-4.42,.41-4.04,2.94,.48,3.18,3.25,4.31,5.99,4.77Zm-255.08-4.12c-2.65,1.22-5.09,2.48-7.62,3.48-2.35,.93-2.46,1.78-.76,3.7,4.43,5.01,4.4,5.12,6.71-1.05,.7-1.86,2.02-3.61,1.67-6.13ZM275.13,200.98c-.15-2.35-1.58-3.76-3.93-3.93-2.46-.18-4.15,1.3-4.18,3.65-.03,2.39,1.24,4.4,4.06,4.35,2.44-.04,3.77-1.51,4.05-4.07Zm209.07-114.69c-.12-1.62-.76-2.95-2.61-2.82-2.03,.14-3.22,1.37-3.11,3.5,.09,1.78,1.23,2.65,2.92,2.59,2-.07,2.76-1.38,2.8-3.27Zm-227.15-46.3c-1.62,.29-2.83,1.23-2.75,2.93,.08,1.6,1.11,2.8,2.89,2.82,1.82,.02,2.78-1.04,2.67-2.82-.1-1.65-.97-2.77-2.82-2.93Zm109.55,20.25c-.18-.98-.14-2.52-2.01-2.54-1.88-.02-3.14,1.03-3.27,2.91-.1,1.52,.88,2.46,2.44,2.57,1.83,.13,2.74-.81,2.83-2.94Zm2.26-12.34c1.67-.19,2.79-1.13,2.83-2.84,.04-1.53-.94-2.53-2.51-2.61-1.8-.09-2.84,.85-2.79,2.7,.04,1.52,.82,2.52,2.47,2.75Zm338.04,492.99c-.29-1.07-.64-2.44-2.36-2.42-1.57,.02-2.5,1.07-2.44,2.58,.06,1.51,1.13,2.49,2.61,2.52,1.4,.03,1.96-1.1,2.19-2.68Zm5.67-13.46c-1.51,.09-2.7,.69-2.65,2.36,.05,1.46,.89,2.61,2.47,2.65,1.49,.04,2.62-.7,2.64-2.37,.02-1.6-.94-2.4-2.46-2.64Zm-32.4,18.66c-.26-1.49-1.2-2.31-2.7-2.28-1.71,.04-2.19,1.21-2.06,2.7,.11,1.41,1.06,2.13,2.34,2.1,1.49-.03,2.42-.88,2.43-2.53Zm-20.13-20.78c1.44-.03,2.37-.77,2.54-2.03,.21-1.6-.92-2.4-2.34-2.57-1.34-.16-2.32,.66-2.43,1.96-.12,1.5,.79,2.41,2.23,2.64Zm12.67,38.42c-1.44,.05-2.36,.78-2.31,2.18,.05,1.3,.82,2.25,2.28,2.23,1.21-.02,1.98-.63,2.02-1.9,.04-1.38-.63-2.25-2-2.51Zm-27.49-27.64c-.17-1.32-.76-2.34-2.21-2.34-1.55,0-2.62,.79-2.5,2.47,.09,1.38,.99,2.19,2.39,2.13,1.37-.06,2.19-.84,2.33-2.25Zm22.27-17.69c1.12-.34,1.96-1.05,1.9-2.46-.05-1.22-.83-1.9-1.99-1.98-1.4-.09-2.34,.64-2.32,2.06,.01,1.34,.94,2.09,2.41,2.38Z"/>
  <path d="M481.09,565.51c3.61-24.62,5.73-49.05-.62-73.84-4.46,2.59-7.19,4.67-6.38,10.52,3.14,22.72,4.32,45.59,2.01,68.51-.34,3.36-.55,6.78-2.09,10.44-.93-2.42-1.56-4.4-2.43-6.26-3.89-8.29-11.2-9.87-18.29-4-3.34,2.77-5.63,6.43-8.32,9.85,2.26-12.45,5.06-24.69,6.33-37.18,1.03-10.14,1.54-20.3-.3-30.42-.23-1.29,.27-3.63-2.04-3.11-1.83,.41-4.47,.68-4.5,3.54-.02,2.09,.25,4.18,.43,6.27,1.84,20.54,.36,40.97-2.26,61.34-.15,1.13-.59,2.23-.92,3.42-1.83-.85-1.81-2.52-2.3-3.85-.46-1.26-.68-2.6-1.06-3.89-3.6-12.47-9.69-14.43-20.15-5.97,1.2-7.2,2.46-13.93,3.42-20.71,.73-5.18,1.18-10.4,1.53-15.62,.08-1.25,1.27-3.71-1.7-3.47-2.23,.18-4.98-.14-4.8,3.69,.28,5.83,.27,11.67,.3,17.51,.04,7.3,0,14.61-1.49,21.86-2.03,.33-2.74-1.28-3.67-2.24-10.34-10.64-21.46-20.42-32.83-29.93-12.73-10.66-21.81-23.72-25.36-40.24-.54-2.5-.39-3.89,2.75-4.02,10.67-.43,20.56-3.84,29.96-8.65,13.73-7.02,26.93-14.88,39.46-23.97,20.54-14.9,42.8-26.59,68.02-31.1,35.99-6.43,67.43,3.95,94.68,27.77,5.81,5.08,10.25,11.29,12.97,18.61,.68,1.83,1.23,3.69,1.22,5.67,0,1.13-.32,2.12-1.37,2.62-1.26,.6-2.31,.14-3.15-.92-1.12-1.4-2.21-2.83-3.38-4.19-6.63-7.71-14.61-12.87-25.15-10.38-10.54,2.49-15.93,10.51-18.88,20.37-1.33,4.47-1.3,9.12-1.81,13.99-1.49-3.79-2.88-7.63-4.48-11.37-8.53-19.93-19.76-37.93-37.17-51.44-1.54-1.19-3.09-3.71-5.53-.69-2.21,2.73-.63,4.05,1.25,5.84,20.21,19.18,36.15,41.4,47.32,66.98,.36,.82,.8,1.62,1.06,2.47,.34,1.12-.05,2.11-1.02,2.74-1.05,.68-1.6-.28-2.21-.88-2.18-2.19-4.82-3.54-7.8-4.18-8.58-1.83-14.6,1.1-18.36,9.07-1.19,2.53-1.99,5.24-3.44,9.14-.02-14.61-1.99-27.64-5.54-40.44-3.22-11.61-7.86-22.6-14.24-32.82-.83-1.32-1.36-4.34-4.11-2.53-2.3,1.51-3.86,3.02-1.91,6.5,16.32,29.04,23.19,60.7,25.16,93.63,.14,2.27,.59,4.7-.9,7.24-2.08-2.08-2.66-4.6-3.72-6.82-4.91-10.25-13.81-12.28-22.69-5.08-3.71,3-6.73,6.68-9.51,10.63Zm-84.12-65.54c-.47-2.89-1.66-5.23-4.8-4.97-3.1,.26-4.73,2.61-4.77,5.58-.03,2.57,1.13,4.86,4.18,4.76,3.33-.12,5.03-2.21,5.38-5.37Zm-29.66,7.47c.18,2.82,1.34,4.81,4.23,4.89,3.24,.1,4.93-2,5.2-4.97,.26-2.81-1.48-4.59-4.21-4.73-3.21-.16-4.75,1.91-5.22,4.8Zm38.42-16.53c.08,2.78,1.13,5,3.99,5.05,3.06,.05,4.96-1.94,5.12-5.01,.13-2.66-1.24-4.78-4.03-4.94-3.23-.18-4.68,2.02-5.08,4.9Zm26.63-7.55c-.2-2.98-2.02-4.58-4.92-4.45-3.09,.15-4.28,2.49-4.29,5.25,0,2.73,1.55,4.69,4.35,4.58,3.06-.13,4.76-2.1,4.86-5.37Zm-31.79,34.41c.18,2.8,1.31,4.69,4.04,4.57,3.21-.14,4.75-2.39,4.74-5.38-.01-2.45-1.4-4.46-4.07-4.36-3.2,.13-4.51,2.41-4.72,5.17Zm18.12-6.61c.07,2.68,1.05,4.65,3.82,4.63,2.93-.02,4.72-1.81,4.82-4.75,.08-2.52-1.3-4.48-3.9-4.54-2.95-.07-4.49,1.87-4.74,4.66Zm-30.71,10.63c-.43-2.69-1.79-4.69-4.54-4.63-2.61,.06-4.42,1.64-4.41,4.52,.01,2.83,1.69,4.53,4.37,4.56,2.73,.03,4.11-1.92,4.58-4.46Zm54.38-45.56c.14,2.51,1.14,4.5,3.82,4.67,2.59,.16,4.34-1.35,4.32-4.01-.02-2.57-1.22-4.77-4.09-4.98-2.86-.2-3.7,1.93-4.04,4.31Zm-2.7,29.59c2.22-.38,3.87-1.53,4.07-3.93,.2-2.37-.94-4.24-3.35-4.41-2.37-.17-3.82,1.42-4.02,3.82-.2,2.36,.79,4,3.3,4.52Zm26.54-35.61c-.39-2.03-1.11-3.86-3.53-3.84-2.54,.02-3.72,1.7-3.72,4.06,0,2.27,1.31,3.64,3.64,3.5,2.22-.13,3.46-1.45,3.61-3.72Zm-12.63,20.56c-2.1,.36-3.19,1.8-3.08,4,.1,1.99,1.11,3.42,3.36,3.29,2.1-.11,3.29-1.36,3.36-3.42,.07-2.26-1.14-3.57-3.64-3.88Zm-59.25,44.13c-.27-1.34-1.04-2.55-2.75-2.66-2.01-.13-2.98,1.22-3.08,2.99-.1,1.64,.78,2.91,2.6,2.86,1.8-.05,3.04-.97,3.24-3.19Zm92.99-85.04c-.15-1.68-1-2.93-2.71-2.91-1.59,.02-2.9,1.02-2.82,2.77,.08,1.66,1.2,2.67,2.95,2.61,1.53-.05,2.42-.91,2.57-2.47Zm-14.84,36.91c-.21-1.67-1.13-2.8-2.88-2.74-1.48,.05-2.54,.94-2.54,2.57,0,1.82,1.06,2.77,2.81,2.76,1.57-.01,2.39-1.02,2.61-2.59Zm7.06-22.29c-.21-1.75-1.24-2.74-2.93-2.77-1.6-.03-2.44,.97-2.36,2.57,.09,1.71,.97,2.91,2.74,2.82,1.48-.07,2.34-1.13,2.55-2.63Zm-10.05-10.93c-.16-1.48-.84-2.61-2.41-2.71-1.52-.1-2.55,.75-2.7,2.33-.14,1.58,.61,2.59,2.25,2.66,1.54,.06,2.49-.77,2.86-2.28Zm-33.03,16.16c-.09-1.57-.91-2.52-2.49-2.53-1.53,0-2.62,.76-2.53,2.42,.08,1.45,.85,2.62,2.45,2.64,1.58,.02,2.36-1.02,2.57-2.53Zm17.25-9.43c.06-1.5-.44-2.66-2.03-2.95-1.57-.29-2.6,.51-2.88,2.04-.28,1.54,.49,2.59,2.02,2.87,1.52,.28,2.59-.31,2.88-1.96Z"/>
  <path d="M521.43,429.16c-20.33-1.68-40.03,.89-58.96,8.58-14.63,5.94-28.08,14.05-41.16,22.8-16.44,10.98-33,21.75-51.42,29.23-5.36,2.18-10.83,4.09-17.36,3.94,1.55-2.39,3.6-3.04,5.41-3.83,26.59-11.51,51.3-26.46,75.95-41.51,17.65-10.78,36.05-19.49,56.96-21.76,9.68-1.05,24.36-.11,30.59,2.55Z"/>
  <path d="M226.63,641.62c29.16,8.58,56.23,4.69,81.74-14.32-12.25,19.34-51.52,35.09-81.74,14.32Z"/>
  <path d="M296.44,581.74c-16.55,16.39-69.28,21.05-85.26,7.91,29.05,4.31,56.93,2.07,85.26-7.91Z"/>
  <path d="M287.22,540.42c-25.27,12.28-50.33,8.99-75.21-1.56,12.44,1.1,24.73,3.63,37.26,4.19,12.76,.57,25.29-1.46,37.94-2.63Z"/>
  <path d="M320.29,673.13c-9.94,19.93-44.84,32.24-64.69,11.14,24.35,11.96,45.59,6.43,64.69-11.14Z"/>
  <path d="M292.55,501.43c-24.56,5.76-47.71-.22-70.58-8.45,23.52,2.8,46.88,7.08,70.58,8.45Z"/>
  <path d="M262.41,417.82c18.11,3.58,36.14,7.59,55.57,10.63-13.1,3.36-41.18-2.65-55.57-10.63Z"/>
  <path d="M378.34,254.24c0,18.05-14.7,33.51-31.84,33.49-17.95-.02-32.09-13.98-32.15-31.75-.07-18.92,14.47-34.15,32.61-34.13,17.69,.01,31.39,14.14,31.39,32.39Z"/>
  <path d="M206.97,219.67c-11.8-.06-20.96-9.62-20.89-21.8,.08-13.6,11.66-25.06,25.34-25.07,12.34,0,21.73,9.28,21.72,21.47-.02,13.56-12.28,25.47-26.17,25.4Z"/>
</svg>