<?xml version="1.0" encoding="UTF-8"?>
<svg id="Layer_1" data-name="Layer 1" xmlns="http://www.w3.org/2000/svg" viewBox="0 0 864 864">
  <path d="M723.56,438.85c-5.95-5.35-12.21-10.36-18.48-15.35-2.56-2.04-4.6-4.69-1.52-7.37,4.52-3.94,7.51-9.2,11.5-13.6,1.12-1.24,2.94-2.45,.77-4.76-1.25-1.32,.22-3.09,1.94-2.94,2.69,.24,3.21-.69,2.4-2.96-.88-2.47-.63-3.7,2.57-4.06,2.38-.26,3.98-2.12,1.17-4.52-.97-.83-2.47-1.65-1.81-3.24,.53-1.28,1.99-1.08,3.17-1.17,1.22-.09,2.56-.16,2.74-1.7,.21-1.82-1.11-2.12-2.58-2.31-.94-.12-2.36,.09-2.53-1.28-.17-1.41,1.35-1.37,2.17-1.86,.75-.45,1.62-.75,2.47-1.01,1.77-.53,1.52-2.09,1.58-3.31,.05-1.07-.62-1.95-1.96-1.97-1.19-.01-2.56,.06-2.7-1.61-.14-1.68,.97-2.44,2.43-2.65,1.86-.28,2.49-1.25,2.25-3.09-.23-1.81-1.21-2.16-2.8-1.89-1.6,.27-2.8-.7-3.03-2.04-.23-1.33,1.37-1.8,2.35-2.32,1.07-.56,2.81-.15,2.2-2.38-.44-1.63-1.15-1.94-2.82-1.87-2.65,.1-3.09-1.3-1.45-3.36,2.16-2.71,1.57-4.35-1.84-5.24-1.94-.5-3.98-1.18-1.62-3.89,1.1-1.27,.42-3.05-.6-4.39-.95-1.26-2-1.66-3.33-.36-.55,.53-1.37,.56-2.03-.03-1.13-1.02-.11-1.86,.23-2.78,1.02-2.78-.81-5.92-3.37-5.27-3.65,.92-3.88-.31-2.81-3.2,.54-1.46-.55-2.22-1.59-2.82-1.06-.62-2.17-1.1-3.08,.36-.62,1-1.5,2.39-2.73,1.43-1.19-.93-.06-2.1,.65-3.08,1.14-1.58,.93-3.09-.55-4.35-1.05-.89-2.11-1.74-3.43-.23-.77,.88-1.72,1.93-3.06,1.11-1.77-1.08-.37-2.35,0-3.51,.38-1.21-.13-2.04-1.05-2.67-.88-.6-1.7-.38-2.32,.47-.84,1.13-1.3,3.26-3.11,2.52-2.08-.84-.47-2.9-.66-4.4-.07-.59-.16-1.2-.07-1.77,.17-1.09-.28-1.69-1.28-1.99-1.68-.51-1.37,.78-1.76,1.71-.6,1.43-1.16,3.08-3.02,3.45-1.23-1.02-.57-2.27-.68-3.39-.13-1.3,.12-2.8-1.4-3.53-1.78-.85-2.38,.89-3.22,1.71-1.78,1.74-2.98,2.75-3.66-.79-.5-2.58-2.37-5.1-4.64-5.32-2.05-.19-.85,2.85-1.37,4.39-.26,.77-.53,1.42-1.47,1.34-1.05-.09-1.84-.9-1.61-1.77,1.72-6.4-2.96-7.47-7.26-8.78-1.38-.42-3.08-1.04-4.21,.32-.94,1.12-.12,2.51,.18,3.8,1.24,5.34,4.01,10.17,4.94,15.62,2.55,15.02,5.77,29.87,10.84,44.29,4.75,13.5,9.01,27.18,15.04,40.2,3.18,6.87,6.33,13.75,9.86,21.42-10.1-6.44-19.49-12.25-28.71-18.33-22.5-14.83-47.34-25.16-71.23-37.31-1-.51-2.75-.85-2.57,.08,.53,2.71-2.36,5.28-.1,7.93,.84,.99,2.19,1.87,2.06,3.3-.18,1.94-2.91,.09-3.38,1.86,.48,1.71,2.44,1.92,3.04,3.28,.65,1.48,2.45,3.15,.14,4.65-3.25,2.12-1.57,3.38,.58,4.86,3.18,2.2,3.28,4.39,.42,6.6-.68,.53-1.87,.73-1.65,1.83,.28,1.38,1.54,1.2,2.56,1.1,2.12-.21,2.93,1.23,3.5,2.81,.68,1.87,.46,3.57-1.55,4.55-1.1,.54-1.67,1.2-1.06,2.45,.67,1.36,1.73,1.45,3.02,1.05,1.32-.4,2.85-1.72,3.83,.37,.79,1.69,.1,3.16-1.12,4.46-.65,.7-1.89,1.33-.99,2.57,.69,.94,1.73,.85,2.84,.76,3.55-.28,4.66,1.38,3.11,4.61-.38,.78-1.25,1.4-.35,2.28,.67,.65,1.37,.21,2.02-.17,1.57-.92,2.84-.41,3.98,.82,1.23,1.33,.66,2.42-.42,3.46-.71,.68-1.13,1.42-.34,2.31,.85,.96,1.8,.65,2.86,.3,3.87-1.27,5.16-.31,4.49,3.6-.43,2.51,.73,3.97,2.68,2.96,5.07-2.64,5.85-.15,5.57,4.02-.14,2.02,1.4,2.43,2.61,3.19,.84,.53,1.65,.59,2.3-.38,.72-1.08,.59-3.3,2.96-2.2,1.64,.76,2.67,1.89,2.55,3.8-.07,1.15,.25,2.05,1.48,2.43,1.43,.44,1.99-.29,2.76-1.46,1.9-2.94,3.83-1.3,5.09,.61,.55,.83-.08,2.32,1.77,2.38,1.78,.06,2.22-1.02,2.71-2.37,.4-1.11,.99-2.34,2.5-2.11,1.5,.22,1.76,1.53,1.79,2.74,.07,2.39,1.81,2.46,3.43,2.5,1.7,.04,3.36-.2,3.21-2.63-.07-1.15,.36-2.08,1.73-2.12,1.01-.03,1.74,.46,1.98,1.44,.4,1.63,1.08,2.79,3.06,2.33,1.83-.43,1.38-2.1,1.71-3.27,.3-1.08-.23-2.55,1.47-2.8,1.4-.21,1.69,.98,2.04,1.95,.58,1.57,1.19,2.68,3.22,1.57,1.7-.93,2.56-1.86,1.54-3.83-1.55-2.98-.02-4.64,2.73-5.81,.26,.55,.65,1.06,.74,1.62,.72,4.33,2.44,3.67,4.71,1.04,1.93-2.25,3.95-4.42,5.94-6.62,3.3-3.63,3.78-3.6,5.96,.83,3.54,7.2,6.33,14.71,9.13,22.22,4.85,12.98,9.25,26.08,11.85,39.72,.9,4.71-5.04,13.61-9.65,14.38-1.99,.33-2.47,.86-.98,2.41,1.33,1.39,2.41,2.95,4.05,4.13,7.12,5.11,11.02,11.94,10.34,20.91-.31,4.14-.7,8.29-1.35,12.39-1.62,10.3-1.67,12.41-12.63,7.9-.67-.27-1.48-.59-2.1,.03-.71,.71-.05,1.35,.28,1.98,1.95,3.67,3.78,7.41,5.68,11.08,3.39,6.55-.95,17.61-5.99,21.29-2.95,2.15-6.09,2.72-9.71,1.75-5.78-1.56-6.31-.9-4.56,4.94,1.07,3.57,2.11,7.15,3.32,10.67,2.63,7.67,.69,14.11-5.02,19.62-5.94,5.74-10.98,6.78-16.42,3.88-2.51-1.33-4.64-5.57-7.01-4.04-2.14,1.38,.01,5.54,0,8.48-.04,15.05-1.65,20.01-17.2,24.09-5,1.31-7.36-.21-8.07-5.31-.72-5.16-1.01-10.37-1.51-15.56-.11-1.14,.12-2.66-1.33-2.96-1.21-.25-1.66,1.16-2.12,2-2.61,4.84-6.19,9-9.23,13.54-5.05,7.56-10.29,9.63-18.81,7.4-7.81-2.04-9.44-4.76-7.79-12.55,1.2-5.67,3.38-11.15,3.48-17.04,.07-4.09-2.36-5.38-6.13-3.33-1.58,.86-2.89,1.98-4.18,3.28-4.31,4.34-7.92,9.36-12.85,13.07-3.86,2.91-7.18,2.75-12.37-.19-3.94-2.23-5.43-5.18-4.18-9.6,4.89-17.25,6.3-35.08,8.66-52.74,.2-1.5,1.15-3.61-.5-4.52-1.99-1.1-3.19,1.04-4.25,2.28-3.88,4.51-7.66,9.11-11.36,13.77-6.23,7.85-12.58,15.61-20.97,21.27-7.52,5.08-16.05,.98-17.28-7.91-.23-1.68-.13-3.23,.06-4.85,1.29-10.93,4.24-21.59,5.2-32.57,.21-2.38,1.01-5.55-.7-6.79-2.2-1.59-4.18,1.33-5.97,2.65-8.99,6.64-18.1,13.03-28.01,18.33-6.98,3.73-12.35,1.81-17.83-2.59-3.75-3.01-4.92-6.56-2.93-10.99,4.5-9.99,7.01-20.59,9.4-31.19,1.25-5.53,3.41-10.96,3.34-16.97-2.36,.33-3.1,1.94-4.17,3.07-8.71,9.16-18.79,16.42-30.18,21.87-4.88,2.33-9.7,2.37-13.71-1.54-3.83-3.74-2.39-8.21-.85-12.55,3.77-10.65,8.06-21.16,9.07-32.58,.18-2.01,1.33-4.82-.8-5.78-2.15-.96-3.39,1.84-4.76,3.29-5.86,6.21-12.32,11.73-19.22,16.7-5.71,4.12-9.74,4.26-13.57-.12-7-8-8.81-13.86,.24-21.49,1.48-1.25,2.84-2.64,4.27-3.95,5.82-5.35,11.7-10.63,17.43-16.07,1.57-1.49,3.92-3.53,2.75-5.63-1.08-1.94-3.89-.58-5.76-.08-5.2,1.39-10.46,2.28-15.83,2.52-2.08,.09-4.16,.1-6.24,.01-5.33-.23-9.5-2.44-11.48-7.59-1.59-4.12,.35-8.28,5.41-12.16,7.04-5.4,15.18-8.88,22.94-13.01,1.73-.92,4.38-1.33,4.27-4.01-.11-2.56-2.64-2.94-4.42-3.84-7.84-3.95-15.91-7.48-22.52-13.49-3.6-3.28-4.19-7.08-1.47-11.12,1.71-2.53,4.08-4.21,6.95-5.38,9.18-3.75,19.07-4.75,28.47-7.62,2.92-.89,7.17-1.39,7.41-4.62,.29-3.84-4.16-4.45-7.13-5.54-4.63-1.7-9.24-3.45-13.19-6.46-4.24-3.24-5.97-7.76-5.4-13.01,.59-5.35,4.02-8.08,9.09-9.05,1.46-.28,2.91-.66,4.37-.91,7.8-1.33,15.6-2.59,23.39-3.98,2.02-.36,4.35-.67,5.27-2.87,.98-2.34-1.68-2.86-2.68-4.04-4.8-5.66-9.97-11.01-14.83-16.62-4.75-5.48-3.03-12.42,4.86-13.25,9.93-1.04,19.79-2.7,29.69-4.06,2.66-.37,5.12-.85,7.42-2.6,2.81-2.13,2.41-3.96,0-5.51-8.62-5.53-15.47-12.94-22.4-20.32-5.81-6.19-4.14-13.45,3.93-16.32,9-3.2,18.09-6.07,27.41-8.17,2.73-.62,5.93-1.7,6.55-4.06,.62-2.36-2.55-4-4.49-5.52-5.5-4.28-11.18-8.33-16.6-12.71-6.58-5.33-7.09-15-1.4-21.33,3.47-3.86,8.22-5.89,12.4-8.74,8.01-5.45,16.97-9.49,24.24-16.04,1.37-1.23,3.53-2.62,2.76-4.72-.73-2-3.17-1.87-5.09-2.14-6.65-.96-13.38-.76-20.05-1.8-13.75-2.15-19.8-15.86-11.42-26.81,5.89-7.7,12.06-15.21,18.42-22.53,11.25-12.93,22.33-25.99,31.88-40.26,.99-1.48,3.1-3.21,1.29-5.11-1.5-1.58-3.75-1.27-5.84-.52-10.82,3.91-21.26,8.71-31.03,14.74-10.27,6.33-20.21,13.22-30.26,19.91-3.58,2.39-7.26,2.69-10.92,.51-10.23-6.07-12.13-13.12-6.35-23.51,8.54-15.38,18.03-30.26,25-46.48,3.47-8.07,7.02-16.09,7.17-25.15,.07-3.88-2.02-4.13-4.85-3.54-1.48,.31-2.61,1.34-3.82,2.24-9.69,7.2-16.56,16.98-23.87,26.31-8.42,10.75-16.43,21.82-24.65,32.73-2.38,3.16-4.98,5.47-9.59,4.66-9.24-1.62-13.57-7.73-11.12-16.77,2.23-8.19,4.48-16.39,7.14-24.44,3.64-11.02,5.16-22.33,5.43-33.86,.04-1.55,.29-3.34-1.73-4.16-1.85-.75-2.9,.17-4.28,1.31-4.26,3.5-6.81,8.25-9.75,12.7-11.04,16.66-20.52,34.23-29.67,51.97-1.41,2.74-3.25,3.93-6.4,3.47-4.57-.68-9.17-1.13-13.78-1.54-3.32-.29-4.59-1.55-4.06-5.18,1.44-9.72,2.86-19.46,3.56-29.25,.7-9.8,2.34-19.59,1.29-29.47-.22-2.04-.15-4.41-2.56-5.26-2.77-.97-3.49,1.49-4.62,3.18-6.64,9.89-11.51,20.73-16.88,31.31-5.39,10.63-8.7,22.07-13.09,33.09-1.32,3.32-3.4,4.52-6.56,5.01-13.14,2.05-25.92,5.54-38.44,9.95-19.63,6.92-39.67,11.82-60.39,14.21-14.95,1.73-29.37-.67-43.88-3.66-8.46-1.75-17.27-2.29-25.16-5.97-4.37-2.04-8.01-1.72-11.83,.42-2.33,1.31-4.62,2.76-6.72,4.41-11.2,8.83-15.98,21.57-20.97,34.27-5.92,15.07-2.84,29.39,2.97,43.52,1.63,3.97,4.08,7.6,6.09,11.42,5.54,10.55,11.24,21.05,19.81,29.49,14.86,14.65,33.44,23.13,52.52,30.62,14.55,5.71,29.65,9.72,44.72,13.77,15.54,4.17,31.24,7.67,47.12,10.27,20.78,3.4,41.57,2.51,62.32-.35,17.96-2.47,33.86-10.12,48.69-20.18,3.82-2.59,5.83-2.1,7.02,2.38,.38,1.42,.73,2.91,.72,4.37-.08,8.64,2.59,17.44-2.11,25.82-1.1,1.96-1.27,3.33-4.12,4.6-2,.89-3.92,1.11-5.25-.73-1.78-2.46-3-2.1-5.34-.41-2.38,1.73-5.14,1.12-6.3-2.24-.33-.94-.33-2.02-1.59-2.77-1.6,2.51-2.57,5.63-6.7,5.36-4.52-.29-2.92-4.32-4.58-6.93-1.43,4.3-3.43,7.18-8.62,5.66,1.77,2.16,3.5,2.74,5.22,1.76,1.88-1.06,3.22-.85,4.71,.58,.6,.58,1.84,1.28,2.37,1.03,5.51-2.57,10.99,.78,16.44-.08,.87-.14,1.68-.69,2.51,0,3.5,2.94,7.09,1.89,10.72,.07-1.74,10.59-1.88,10.81-7.5,12.12-3.15,.74-5.39-.44-6.68-3.6-1.79,1.91-2.44,4.72-5.63,4.11-2.81-.53-3.04-3.26-4.36-5.05-4.51,3.98-6.2,3.61-9.92-2.13-2.4,3.49-5.84,4.66-10.03,4.08,.69,1.77,2.26,2.39,3.05,1.96,4.63-2.48,8.9-.4,13.36,.43,1.59,.3,3.11,.07,4.41,1.39,1.79,1.81,4.07,1.68,6.29,1.01,1.27-.38,2.39-1.09,3.85-.51,3.5,1.39,6.91,1.08,10.53-1.36-.46,6.44-3,11.58-5.53,16.68-1.16,2.35-3.52,1.92-5.57,1.26-1.52-.49-2.51-1.51-2.17-3.39,.16-.87,1.49-2.04-.08-2.66-1.45-.58-2.06,.78-2.66,1.8-1.12,1.91-2.94,2.05-4.71,1.58-2.06-.54-2.09-2.17-1.55-3.96,.13-.44-.24-1.04-.54-2.17-2.69,2.93-4.9,5.95-9.19,4.53-3.32-1.1-.68-3.93-1.86-5.86-2.5,.88-3.62,4.11-6.96,3.33-4.6-1.08,.51-5.31-2.58-6.79-1.3,1.92-2.59,3.82-3.96,5.86,.59,.27,.97,.43,1.34,.62,3.19,1.62,8.27,.59,9.83,2.31,5.1,5.61,12.56,.05,17.35,4.77,.1,.09,.54-.2,.83-.26,3.97-.73,6.4,3.93,10.47,3.1,.1-.02,1.02,1.89,.72,2.36-1.82,2.8-2.28,6.41-5.35,8.5-4.48,3.05-10.73,1.03-11.83-4.06-.43-2.01-1.55-1.46-2.54-.78-1.08,.75-1.86,1.96-2.97,2.62-1.43,.86-3.07,1.25-4.65,.17-1.49-1.02-.86-2.32-.5-3.62,.25-.87,.44-2.06-.4-2.46-1.15-.56-1.8,.57-2.44,1.42-1.72,2.3-3.95,2.56-6.35,1.27-2.36-1.27-2.61-3.36-2.08-5.79,.28-1.3,1.65-2.67,.21-4.04-1.03-.07-1.37,.61-1.69,1.28-1.13,2.35-2.86,4.18-5.04,5.57-1.06,.67-2.4,1.03-3.4,.36-1.42-.94,0-2.12,.22-3.17,.37-1.85,2.26-3.15,1.94-5.88-1.24,1.83-2.36,3.16-3.13,4.67-5.63,11.1-12.92,21.09-20.83,30.62-30.63,36.88-61.37,73.66-90.83,111.48-12.56,16.12-23.13,33.6-31.57,52.25-11.27,24.9-17.51,51.13-20.47,78.26-2.89,26.49-.72,52.5,5.42,78.39,6.24,26.31,16.48,50.76,31.72,73.12,1.29,1.89,2,4.17,2.45,6.58,4.06,21.79,6.67,43.85,12.67,65.27,3.24,11.56,6.26,23.19,9.41,34.87-2.25,.59-4.26-.1-6.3-.38-7.23-1.01-14.45-2.1-21.7-2.93-4.42-.5-4.55-.24-5.83,3.49,5.84,.93,11.73,1.86,17.63,2.79-8.66,.04-17.2-.11-26.09,4.2,5.42,1.4,10.24,.53,15.21,1.21-5.07,1.6-10.36,.62-15.69,4.02,11.89,1.96,22.78,1.76,33.68,.51,6.51-.75,13.21-3.23,19.42-2.28,6.3,.96,8.34-1.76,10.57-6.05,4.57-8.78,7.56-18.12,9.57-27.76,2.16-10.37,5.23-20.56,6.22-31.41,9.38,4.65,18.92,9.17,29.33,11.42,2.03,.44,4.02,1.46,5.81-.47,1.5,3.4,4.86,3.47,7.75,4.11,26.85,5.99,54.02,9.61,81.51,10.79,2.19,.09,3.24,.61,3.48,2.93,.81,8,1.71,16,2.74,23.98,.48,3.7-1.09,4.4-4.28,3.66-4.79-1.12-9.59-2.26-14.43-3.14-3.96-.72-7.98-1.12-11.98-1.52-.79-.08-1.76,.32-2.44,.79-.63,.44-.18,1.21,.38,1.42,3.96,1.52-.98,1.86-.21,3.19,1.15,.31,2.51,.67,4.25,1.14-1.46,1.23-3.46,.67-4.2,2.42,1.81,.04,3.45,.47,5.05,1.56-2.61,.73-5.34,.58-7.77,3.24,3.41,.37,6.15,.66,10.12,1.09-4.49,1.43-7.85,2.5-12.05,3.84,9.54,.84,18.13,.5,26.73-.28,6.22-.57,12.79-2.19,18.62-.84,5.8,1.35,8.26-1.04,11.16-4.57,5.55-6.75,9.25-14.6,13.35-22.22,3.71-6.9,7.18-13.92,10.25-21.15,.07,.81-.21,1.47-.45,2.14q-1.67,4.83,3.6,5.2c11.9,.87,23.81,1.37,35.74,1.41,15.43,.06,30.85,0,46.31-1.83,1.15,9.09,2.37,18.25,4.71,27.2,.71,2.72-.72,2.26-2.33,2-6.78-1.07-13.57-2.1-20.35-3.19-1.48-.24-2.94-.56-4.43-.11-1.08,.33-1.91,.98-1.95,2.17-.04,1.45,1.14,1.5,2.18,1.68,2.14,.37,4.27,.78,6.8,1.25-1.34,1.33-2.5,.93-3.63,1.02-3.38,.27-6.84-.17-10.12,1.2-1.42,.59-3.63,.61-3.64,2.37,0,1.98,2.51,.85,3.67,1.81-1.98,.95-4.33,.99-6.15,2.89,3.21,1.66,6.68,.45,9.83,1.67-2.53,.03-4.71,1.1-8.12,2.19,16.08,.78,30.9-.59,45.71-2.05,1.52-.15,2.71-.6,4.09,.54,1.87,1.54,3.58,1.19,4.62-1.18,5.62-12.81,13.18-24.7,17.91-37.93,.72-2.01,.88-3.41,4.31-2.9,7.2,1.08,14.54-.54,21.82-1.11,19.92-1.54,39.14-5.87,57.49-13.91,11.88-5.21,23.61-10.59,34.48-17.84,31.62-21.1,57.33-47.52,73.46-82.26,10.21-21.98,18.47-44.7,24.14-68.42,4.56-19.08,7.27-38.32,8.23-57.77,1.6-32.47-4.03-63.62-18.06-93.24-4.99-10.52-11.08-20.55-18.3-29.7-4.94-6.26-10.5-11.87-16.38-17.16ZM464.11,197.52c.33-17.74,2.04-35.6-4.56-52.75,7.78,17.03,5.94,34.91,4.56,52.75Zm.59-175.52c-2.21,3.89-3.89,6.8-6.95,8.6,1.23-3.32,2.74-6.37,6.95-8.6Zm-49.22,246.83c-1.46,.17-2.15-.78-2.22-2.16-.07-1.36,.52-2.37,1.93-2.52,1.43-.15,2.14,.75,2.34,2.08-.21,1.27-.64,2.44-2.05,2.6Zm19.11-56.21c.04,2.53-1.62,3.97-4.12,4.49-2.46-.35-4.18-1.66-4.19-4.25,0-2.52,1.48-4.28,4.06-4.36,2.58-.08,4.21,1.6,4.25,4.13Zm1.65,11.19c1.88,.37,3,1.41,2.81,3.33-.16,1.64-1.23,2.74-2.91,2.71-1.87-.04-2.98-1.27-3-3.1-.01-1.96,1.36-2.75,3.09-2.93Zm-2.13,71.9c-.23-.17-.45-.34-.68-.52,2.35-4.72,4.7-9.44,7.05-14.15l.68,.32c-2.35,4.78-4.7,9.57-7.05,14.35Zm11.08-53.54c-1.16,.11-1.94-.68-1.97-1.84-.03-1.3,.65-2.28,2.03-2.34,1.16-.05,1.79,.77,2.05,1.87-.01,1.41-.85,2.19-2.11,2.31Zm5.78-25.19c-1.51-.16-2.45-1.2-2.26-2.73,.15-1.23,.98-2.19,2.36-2.23,1.68-.06,2.19,1.16,2.55,2.3-.37,1.63-.98,2.84-2.64,2.66Zm-.55-58.93c2.9-.1,4.15,1.88,4.45,4.39-.12,3.01-1.59,4.75-4.36,4.94-2.88,.2-4.53-1.56-4.64-4.32-.11-2.95,1.55-4.91,4.54-5.02Zm-8.07,35.77c2.88,.19,4.61,1.67,4.67,4.47,.06,2.77-1.55,4.56-4.35,4.7-2.87,.14-4.54-1.72-4.64-4.38-.1-2.73,1.7-4.3,4.32-4.78Zm4.83-149.56c-1.45,4.5-4.94,7.38-8.56,10.08,2.02-4.09,5.12-7.23,8.56-10.08Zm-4.7,29.48c.37,.26,.74,.52,1.11,.78-2.01,2.6-4.02,5.21-6.04,7.81-.06-4.07,3.2-5.79,4.93-8.59Zm-5.16-5.69c-2.21,2.7-4.42,5.39-6.63,8.09,.02-4.53,3.38-6.32,6.63-8.09Zm-11.14,35.47c2.22,2.6,4.44,5.2,6.67,7.81-2.47-2.35-4.93-4.7-7.4-7.05,.24-.25,.49-.5,.73-.76Zm2.22,137.19c2-.15,3,1,3.19,2.67-.06,2.18-.94,3.46-2.93,3.5-1.91,.04-3.17-1.09-3.27-2.97-.11-1.93,1.12-3.07,3.02-3.21Zm-4.93,48.52c1.44-.11,2.03,.9,2.34,2.12-.11,1.18-.68,1.98-1.9,2.03-1.36,.05-2.32-.63-2.31-2.05,.01-1.1,.68-2.01,1.86-2.1Zm-3.93-177.32c-3.29-.85-5.78-2.82-7.57-5.77,3.63,.47,5.73,2.94,7.57,5.77Zm-10.78,11.38c.35-2.87,2.38-4.12,5.06-3.88,2.62,.23,3.75,2.11,3.97,4.61-.69,2.59-2.14,4.49-4.97,4.16-2.65-.31-4.42-1.97-4.06-4.89Zm.54,179.59c2.94,.04,4.43,2.21,4.39,5.09-.04,2.97-1.86,4.74-4.72,4.79-2.92,.04-4.57-1.73-4.71-4.76,.36-3.01,1.95-5.16,5.04-5.11Zm-5.83,24.45c1.81,.31,2.96,1.32,2.85,3.29-.11,1.95-1.39,3.04-3.23,2.91-1.63-.12-2.78-1.36-2.73-3.02,.05-1.79,1.04-3.07,3.11-3.18Zm-9.68,22.16c.23-1.72,1.33-2.79,3.05-2.57,1.75,.22,2.4,1.58,2.29,3.37-.26,1.7-1.36,2.65-3.07,2.45-1.79-.21-2.49-1.53-2.26-3.25ZM116.28,191.04c-2.03,.44-3.26-.3-2.27-2.67,.11-.27,.25-.54,.35-.81,2.42-6.65,2.67-6.76,8.24-2.78,1.38,.99,3.23,1.42,4.32,3.49-3.66,.97-7.12,2-10.64,2.77Zm21.88,12.48c-1.89,.11-4.6,1.92-5.54-.59-.92-2.47,.68-5.19,1.62-7.68,.36-.96,1.21-.53,1.86-.1,.5,.33,1.01,.64,1.48,1.01,2.53,2.05,5.79,3.06,8.69,6.21-3.19,.48-5.64,1.02-8.11,1.15Zm24.12,10.7c-3.11,2.76-6.24,5.48-9.32,8.27-1.18,1.07-1.92,.63-2.23-.62-1.31-5.23-1.04-10.54-.71-15.85,.04-.63,.5-1.05,1.55-.78,3.54,2.16,7.36,4.41,11.09,6.82,1.06,.68,.32,1.55-.38,2.17Zm11.22-85.38c-3.17,6.2-7.49,11.2-14.58,12.89-6.13,1.46-11.09-.75-15.13-5.43-2.95-3.42-3.46-9.08-.17-13.62-.68,7.19,.79,12.22,6.43,15.24,5.21,2.79,10.08,2.13,14.24-2.07,2.4-2.42,4.75-4.89,6.13-8.06,.47-1.08,.84-1.95,2.2-1.47,1.31,.46,1.41,1.45,.87,2.52Zm16.78,107.65c-1.66,1.51-2.23,1.21-2.86-.95-2.47-8.4-1.55-9.56,6.68-7.81,.99,.21,1.98,.42,2.98,.63l.9,1.42c-2.57,2.23-5.18,4.41-7.7,6.7Zm204.49,353.41c-.22,2.83-1.67,4.21-4.32,4.13-2.44-.08-3.86-1.49-3.86-3.92,0-2.6,1.53-4.2,4.1-4.27,2.68-.07,3.91,1.66,4.08,4.06Zm-8.25-15.1c-1.57,0-2.51-1.08-2.54-2.57-.03-1.77,1.08-2.82,2.84-2.69,1.55,.11,2.24,1.28,2.38,2.73-.24,1.6-1.17,2.53-2.68,2.53Zm2.56-83.74c-2.85-7.14-4.61-14.51-4.91-22.24,1.63,7.41,3.27,14.82,4.91,22.24Zm-1-158.75c2.06,.04,2.52,1.72,2.76,3.14-.22,2-1.01,3.18-2.86,3.02-1.84-.15-3.14-1.18-3.08-3.13,.06-1.89,1.34-3.07,3.19-3.03Zm-154.48-95.06c-1.27,1.53-2.41,1.27-3.51-.35-1.72-2.54-3.56-4.99-5.83-8.15,3.24,0,5.71,.06,8.17-.02,2.35-.07,4.69-.29,7.38-.47-1.55,3.66-3.95,6.28-6.21,8.99Zm22.9-1.59c-2.27,3.69-4.53,3.37-6.35-.47q-3.28-6.93,4.25-8.51c2.01-.43,3.98-1.02,7.14-1.85-1.93,4.21-3.15,7.73-5.05,10.83Zm21.92-8.75c-.85,1.44-2.17,.5-3.06-.22-1.48-1.2-2.83-2.57-4.61-4.21,2.24-1.58,4.24-2.22,6.29-2.54,1.11-.17,2.86-1.82,3.35,.29,.54,2.37-.76,4.67-1.96,6.69Zm16.32-4.46c-2.51,.34-8.61-3.5-7.93-4.63,2.03-3.37,6.12-3.18,9.35-4.32,2.54-.89,.89,1.71,1.52,2.83-1.17,1.89,1.12,5.56-2.94,6.12Zm5.32-15.26c2.98-3.61,6.32-6.95,7.95-11.55-.58,5.27-3.71,8.8-7.95,11.55Zm5.69-.56c1.55-2.32,2.98-4.47,4.82-7.24,1.41,6.8,1.08,7.26-4.82,7.24Zm-13.08-53.5c-11.11,3.46-27.6-4.72-29.87-14.82-2.91-12.88,4.67-26.34,17.18-30.42,4.43-1.45,8.98-2.04,13.66-1.73,11.1,.76,18.02,8.32,17.72,19.47-.37,13.87-7.21,23.93-18.69,27.5Zm64.88,14.58c-7.4,8.74-16.88,10.28-29.71,4.84-1.51-.64-2.98-1.39-4.42-2.16-8.73-4.7-10.89-9.68-8.89-19.49,2.8-13.74,10.79-22.62,24.25-26.54,4.72-1.37,9.51-1.1,14.14,.15,8.83,2.38,14.05,9.74,13.86,18.98-.54,9.04-3.31,17.24-9.23,24.22Zm21.95-63.99c-3.56-.24-5.16-2.11-5-4.97,.16-2.73,1.77-4.92,4.77-4.87,3.17,.05,4.89,2.12,4.68,5.26-.19,2.87-1.85,4.59-4.45,4.58Zm-3.01,446.28c-.24,2.37-1.31,4.14-3.76,4.29-2.68,.15-4.15-1.47-4.19-4.11-.04-2.49,1.41-3.89,3.86-3.97,2.52-.08,3.69,1.51,4.09,3.8Zm-5.32-150.34c1.87,.05,2.93,1.19,2.95,3.28-.22,1.78-1.37,2.92-3.2,2.84-1.94-.09-2.78-1.6-2.67-3.41,.1-1.71,1.25-2.76,2.92-2.71Zm-.15,116.74c2.2-.04,3.53,1.32,3.87,3.58-.12,2.45-1.46,3.94-3.84,4.1-2.3,.15-3.64-1.35-3.73-3.55-.11-2.42,1.22-4.07,3.7-4.12Zm-4.72,78.51c2.73-.22,5.65,2.73,5.38,5.42-.3,3.04-2.14,5.08-5.2,5.13-3.33,.06-5.08-2.05-5.31-5.33,.28-3.2,2.07-4.98,5.13-5.22Zm2.97,32.83c-.24,3.07-2.27,4.98-5.45,4.64-3.15-.33-4.58-2.49-4.43-5.77,.51-2.78,2.19-4.51,5.19-4.28,3.19,.24,4.93,2.33,4.69,5.41Zm-9.59-51.59c-2.55-.07-4.14-1.82-4.1-4.34,.04-2.48,1.62-4.31,4.18-4.29,2.76,.02,4.15,1.9,4.37,4.56-.34,2.69-1.95,4.14-4.45,4.07Zm-4.62-90.04c.17-1.84,1.18-3.17,3.15-2.99,1.66,.15,2.6,1.32,2.53,3.59-.15,1.43-1.21,2.51-3.16,2.39-1.78-.11-2.68-1.24-2.52-2.99Zm-81.57-104.78c9.75-12.39,19.73-24.6,29.48-36.99,5.43-6.89,10.96-13.74,15.1-21.53,1.18-2.23,2.39-2.33,4.89-2.25,3.81,.13,6.63,.39,9.96,3.1,2.67,2.18,7.46,3.58,10.79,3.82,4.97,.36,9.24,1.74,13.74,3.28,1.81,.62,4.02,.5,6.23-.21-2.68,3.59-3.88,7.74-6.18,11.3-1.65,2.55-4.11,1.85-6.43,1.65-2.09-.18-2.97-1.23-3.15-3.49-.26-3.25-2.2-1.16-3.46-.68-4.45,1.71-6.69,.37-6.89-4.6-3.08,2.34-5.9,3.75-4.69-2.81-3.48,2.55-3.94,8.77-9.31,6.63-4.19-1.67-.22-5.2-1-8.43-3.05,3.14-4.6,7.85-9.81,6.76,.09,.62,.13,.89,.17,1.17,5.74-2.1,10.44,5.19,16.72,1.7,1.38-.77,5.15,.43,7.8,.99,5.74,1.21,10.7,4.61,16.58,5.17,1.63,.16,3.64-.11,.89,2.57-2.67,2.61-2.59,7.27-6.46,9.7-2.56,1.61-4.94,2.61-7.37,1.22-2.96-1.71,.27-3.91,.23-5.93,0-.42,0-.85,0-1.53-2.53-.1-2.79,2.02-3.47,3.4-.89,1.81-2.15,2.92-4.13,2.88-2.41-.05-4.22-.78-3.02-3.84,.5-1.29,1.75-2.52,.62-4.12-1.89,.16-2.16,1.88-2.96,3.04-.95,1.38-1.97,2.64-3.75,2.96-1.37,.24-2.78,.31-3.81-.73-1.15-1.16,.16-2.17,.5-3.22,.39-1.2,1.77-2.13,.96-3.84-1.91,.15-2.47,1.93-3.42,3.06-1.22,1.45-2.65,2.46-4.41,2.87-3.05,.71-4.81-1.24-3.99-4.27,.3-1.1,1.21-2.13,.27-3.57-3.4,2.05-4.77,7.35-10.12,6.11,.23,.54,.33,.78,.43,1.02,5.51-2.38,9.95,3.83,15.43,1.92,.96-.34,1.61,.53,2.29,1.1,.68,.56,1.7,1.65,2.1,1.47,5.32-2.41,9.56,3.16,14.68,1.9,.68-.17,1.76-.27,2.12,.1,2.66,2.77,5.85,2.31,10.16,.99-4.13,7.31-7.62,13.66-11.28,19.92-2.2,3.77-4.34,7.54-5.52,11.77-.42,1.49-7.5,4.21-10.03,3.99-4-.36-2.54-3.54-2.83-5.7-1.82-.25-2.08,1.26-2.84,2.03-2.19,2.22-4.47,1.84-6.96,.61-2.43-1.2-2.44-3.08-1.84-5.28,.25-.92,1.31-2.1,0-2.77-1.38-.7-2.14,.63-2.79,1.6-1.33,1.96-3.16,3.2-5.4,3.73-3.94,.93-5.82-.94-5.22-4.95,.16-1.07,1.09-2.55-.45-3.12-1.17-.43-1.69,.95-2.17,1.84-.9,1.68-2.29,2.63-4.05,3.29-1.62,.61-3.22,1.12-4.62-.11-1.38-1.21-.3-2.75-.26-4.19,.03-1.31,2.17-2.92,.08-3.85-1.51-.67-1.97,1.42-2.87,2.31-.53,.52-1.04,1.07-1.5,1.66-1.46,1.91-3.94,3.39-5.55,2.07-1.95-1.59,.74-3.42,1.77-4.73Zm63.7,103.28c-2.57-.05-3.97-1.69-4.37-4.21,.49-2.6,1.9-4.58,4.58-4.69,2.78-.12,4.4,1.68,4.32,4.52-.08,2.81-1.73,4.45-4.53,4.39Zm5.34,78.79c-.21,1.78-1.05,2.88-2.88,2.74-1.53-.12-2.46-1.08-2.45-2.62,.01-1.69,.93-2.88,2.68-2.92,1.82-.05,2.54,1.21,2.65,2.81Zm-1.82,27.19c2.55,.41,4.15,1.88,4.24,4.39,.1,2.63-1.59,4.2-4.13,4.23-2.54,.02-4.21-1.58-4.24-4.17-.03-2.59,1.75-3.89,4.13-4.45Zm2.88-52.79c-.04-2.4,1.37-3.95,3.81-3.91,2.4,.04,3.59,1.7,4,3.99-.36,2.31-1.67,3.89-4.02,3.92-2.45,.04-3.75-1.67-3.79-4Zm5.09-22.06c-2.48,.14-3.9-1.58-4.04-3.89-.17-2.63,1.46-4.06,4.03-4.48,2.34,.29,3.94,1.44,4.01,3.94,.08,2.65-1.43,4.29-4,4.43Zm-3.84-61.39c-.08-2.4,1.2-3.97,3.75-4.03,2.53-.05,3.75,1.41,3.97,3.95-.18,2.29-1.43,3.95-3.81,4.04-2.45,.09-3.83-1.6-3.91-3.96Zm-185.31,174.77c-.79-7.54-.95-15.13-.71-23.01,3.03,.84,5.37,3.1,8.84,2.5,3.39-.59,5.29-2.35,6.62-5.2,7.34,5.81,15.72,6.53,23.51,1.74,1.66-1.02,1.96,0,2.86,.63,4.18,2.94,9.53,4.16,13.51,2,4.4-2.38,7.2-3.64,12.52-1.73,3.65,1.31,8.53-.15,11.97,3.4,.19,.19,.58,.16,.83,.31,1.77,1.04,4.51-.91,5.7,1.85,.9,2.09-.39,4.04-.43,6.1-.09,4.5-.42,9.02-.99,13.49-.66,5.2-7.53,9.04-12.25,7.13-2.69-1.09-3.78-3.16-4.05-5.89-.1-.97,.18-2.42-1.27-2.47-1.41-.05-1.29,1.41-1.47,2.37-.72,3.93-2.82,6.06-7.03,5.83-3.79-.21-5.75-1.94-5.72-5.89,0-1.17,.9-3.28-.91-3.4-2.23-.14-1.23,2.18-1.58,3.46-.56,2.05-.07,4.7-2.88,5.54-2.76,.82-5.5-1.18-6.04-4.42-.34-2,.1-4.13-1-6.21-2.3,.89-1.86,2.6-2.08,3.99-.58,3.64-2.28,6.17-6.29,6.3-5.34,.18-9.04-2.31-9.73-6.49-.15-.88-.1-1.79-.23-2.67-.1-.73-.25-1.63-1.17-1.66-1.11-.05-1.44,.85-1.53,1.79-.1,1.04-.08,2.09-.21,3.13-.39,2.99-2.19,4.61-5.15,4.44-2.72-.16-5.54-.6-5.54-4.39,0-.59-.15-1.19-.18-1.78-.04-.9,0-2.1-.98-2.28-1.45-.26-1.44,1.21-1.7,2.13-.67,2.46-.09,6.67-3.42,6.28-3.18-.37-1.57-4.49-1.83-6.92Zm6,36.5c-1.71-7.68-3.54-15.33-4.7-23.12-.25-1.71-.09-3.17,1.64-3.57,1.9-.44,2.93-3.37,5.8-1.36,3.11,2.17,6.84,2.36,9.89-.51,1.67-1.57,2.46-.45,3.66,.45,5.09,3.81,9.84,3.95,15.1,.31,1.11-.77,1.58-.99,2.41,.2,1.21,1.75,3.5,2.81,5.07,2.26,4.82-1.68,9.83,1.1,13.94-.12,5.51-1.63,9.81-.65,14.75,1.1,2.55,.91,5.53-.32,7.98-2.03,.64-.45,1.69-.31,2.55-.45,.08,.55,.33,1.14,.2,1.64-1.86,7.37-1.83,14.94-2.58,22.43-.42,4.19-4.25,7.35-8.45,7.24-2.6-.38-4.43-1.5-4.86-4.4-.19-1.31,.77-3.55-1.3-3.73-1.84-.16-1.77,2.09-2.17,3.41-1.54,5.07-7.5,6.68-11.24,3.05-1.18-1.15-1.49-2.55-1.69-4.01-.17-1.24,.71-3.25-1.04-3.4-1.97-.16-1.59,2.1-1.98,3.44-1.14,3.95-3.54,5.53-7.25,4.76-3.53-.73-4.71-3.29-5.14-6.47-.16-1.2,.55-3.14-1.54-3-1.81,.12-1.57,1.96-1.44,3.23,.45,4.26-1.78,6.12-5.66,6.29-3.41,.15-5.89-2.56-6.16-6.34-.02-.3,.05-.6,.02-.89-.12-1.22,.66-3.19-1.16-3.27-1.52-.06-1.47,1.97-1.76,3.2-1.5,6.34-4.36,8.5-9.33,7.13-1.92-.53-3.08-1.46-3.53-3.47Zm8.84,29.43c-2.51-7.75-5.93-15.22-7.18-23.84,4.41,1.3,8.38,1.11,11.45-2.46,1.17-1.36,1.6-.16,2.38,.47,4.51,3.68,7.03,3.79,11.95,.22,1.23-.89,1.65-.82,2.87,.07,4.47,3.27,7.93,3.27,12.26,.2,1.09-.77,1.49-1.3,2.79-.04,3.94,3.81,7.67,4.01,12.43,1.05,.99-.61,1.77-1.84,3.09-.81,4.37,3.42,8.89,2.54,13.49,.62,.53-.22,1.15-.24,2.1-.43-1.7,8.47,.35,16.62,.74,24.84,.09,1.8,.62,3.13-1.56,3.7-1.95,.51-3.16-.47-3.93-2.09-.64-1.36-.95-2.77-.68-4.34,.18-1.03,.81-2.79-.91-2.87-1.34-.06-1.48,1.59-1.63,2.8-.1,.73-.2,1.48-.45,2.18-.9,2.55-2.73,3.95-5.43,3.76-2.55-.18-3.97-1.81-4.39-4.3-.29-1.72-.54-3.44-.86-5.51-2.21,.91-2.07,2.37-2.15,3.65-.15,2.59-.06,5.26-3.71,5.49-3.78,.23-5.13-2.37-6.17-5.3-.41-1.16,.67-3.22-1.16-3.39-2.11-.19-1.75,2.14-1.97,3.39-.67,3.7-2.64,5.7-6.39,5.24-3.85-.47-5.48-3.11-5.72-6.82-.09-1.33,.82-3.54-1.27-3.65-2.1-.12-1.29,2.26-1.75,3.54-.35,.98-.45,2.04-.8,3.02-.65,1.85-1.85,3.11-3.99,2.86-2.09-.24-2.39-1.97-2.73-3.59-.29-1.39,.58-2.97-.86-4.49-2.44,1.62-1.43,4.63-2.75,6.64-.98,1.49-1.72,2.73-3.68,2.61-1.65-.1-2.92-.84-3.43-2.41Zm2.65,6.8c-.21-.54-.29-1.52,.39-1.46,3.15,.27,5.29-4.94,9.07-1.52,.93,.84,2.99,.64,3.8-.28,2.69-3.03,4.71-1.59,7.39,.14,2.92,1.88,6.4,1.64,9.26-.52,1.61-1.22,2.4-1.82,4.27-.06,3.56,3.35,8.33-.55,11.77,.92,4.63,1.98,8.13,2.39,11.62-1.87,1.37,3.02,3.72,3.97,6.63,3.77,2.21-.15,3.12,.69,3.13,3.04,.01,2.17,.75,4.32,1.02,6.5,.62,5.01-1.18,7.32-6.44,8.43-4.03,.85-6.49-.85-7.98-5.62-.26-.83-.09-2.04-1.24-2.03-1.35,0-1.42,1.35-1.58,2.33-.35,2.13-.89,4.16-3.19,4.93-3.1,1.04-5.18-.8-5.59-4.62-.12-1.07,.52-2.79-1.04-3.07-1.74-.31-1.61,1.53-1.72,2.54-.41,3.88-2.74,5.05-6.2,4.55-3.31-.47-5.53-2.05-5.17-5.85,.11-1.14,.42-2.34-.52-3.43-2.15,.42-2.07,2.4-2.38,3.8-.72,3.17-2.45,4.57-5.69,4.24-3.39-.34-4.68-2.19-4.23-5.47,.02-.17-.35-.39-.6-.65-1.46,.4-2.03,1.73-2.45,2.88-1.45,4.01-4.27,2.51-5.89,.93-3.46-3.38-4.79-8.14-6.48-12.58Zm7.47,16.01c3.65-.84,6.35,.22,9.14,.57,5.91,.74,11.86,.56,17.82,1.99,3.14,.75,6.97-2.15,10.35,.85,.49,.44,2.05,.41,2.57-.03,3.92-3.41,7.35-1.03,11.1,.42,2.56,.99,5.21-.11,7.65-1.49,1.62-.91,2.94-1.43,3.41,1.71,.8,5.35,1.91,10.71,4.06,15.78,1.13,2.67-.37,4.15-2.87,4.08-3.53-.1-6.33-1.55-6.87-5.59-.14-1.08,.28-2.74-1.49-2.69-1.25,.04-1.26,1.39-1.46,2.43-.36,1.9,.17,4.41-3.08,4.45-3.29,.04-5.88-.75-6.89-4.32-.33-1.18-.21-3.04-2.08-2.91-1.64,.12-1.24,1.77-1.42,2.87-.57,3.44-3.42,4.02-6.01,4.3-2.75,.3-5.01-.78-5.14-4.18-.04-1.14-.86-2.01-1.89-2.26-.81-.2-1.07,.82-1.47,1.41-3.38,5.04-8.65,5.94-13.2,1.52-5.35-5.2-8.46-12.02-12.22-18.91Zm29.39,39.74c1.22,1.54,2.11,3.09,3.75,3.91,.89,.45,.77,1.21,.37,1.9-.63,1.09-1.43,.33-1.8-.12-1.95-2.39-5.57-3.62-5.27-7.6,.14-1.79-1.86-2.62-2.68-3.04-4.85-2.51-5.79-8.03-9.45-11.41,4.27,.1,8.26,2.16,11.86-1.19,.52-.49,1.06,.23,1.49,.62,4.03,3.63,8.27,2.92,12.25,.16,1.79-1.24,2.7-.26,3.91,.48,2.8,1.72,5.68,2.57,8.86,.97,.92-.46,2.13-1.1,2.97-.39,3.48,2.94,7.16,3.1,11.17,1.32,1.62-.72,2.04,.44,2.32,1.73,.65,3.03,1.29,6.01,3.35,8.58,.67,.84,1.76,2.61,.3,4.05-1.13,1.11-2.51,1.77-4.06,1.43-2.77-.61-5.63-1.3-7.7-3.34-1.82-1.79-2.89-1.81-3.84,.63-1.21,3.08-3.4,4.91-6.82,4.67-3.59-.26-7.15-.65-8.22-5.14-.4-1.67-1.93-1.77-2.59-.46-2.48,4.9-6.04,4.46-10.18,2.25Zm20.77,17.56c-4.57-2.89-9.06-5.88-12.11-10.53-.7-1.06-2.04-2.1-.38-3.38,1.18-.9,2.42-1.91,3.99-.74,6.37,4.76,12.34,4.42,17.81-1.47,1.36-1.47,2.29-.55,3.38,.32,2.89,2.31,6.26,2.98,9.66,1.77,2.65-.94,3.23,.14,4.02,2.29,.9,2.46,2.31,4.73,3.58,7.04,2.43,4.41,2.09,5.11-2.88,5.66-.59,.07-1.18,.13-1.77,.19-.9-.1-1.79-.13-2.67-.29-5.29-.97-10.45-4.21-15.89,.39-1.46,1.24-4.66,.07-6.74-1.25Zm7,4.96c3.66-1.43,5.96-3.67,10.1-1.98,4.47,1.83,9.65,2.55,14.08-.9,1.36-1.06,2.11-.56,2.9,.52,2,2.69,6.19,5.26,4.99,8.32-.89,2.27-5.59,.74-8.61,.58-2.63-.14-6.23-2.11-6.31,2.92-5.46-3.14-11.43-5.38-17.16-9.47Zm44.84,22.11c-9.11-4.22-18.27-8.36-27.42-12.51,3.36-1.1,6.53,1.4,9.81,.67,7.38-1.66,12.11,1.8,16.11,7.51,1.25,1.78,2.7,3.96,5.31,4.39h0c-1.28,.6-2.47,.57-3.81-.06Zm4.48-336.05c-1.46,2.74-3.16,5.35-4.66,8.07-.84,1.52-2.04,2.39-3.65,3.06-1.62,.68-3.24,1.24-4.65,.17-1.81-1.36-.27-2.92,.21-4.38,.12-.38,.06-.82,.09-1.42-2.01-.26-2.58,1.36-3.45,2.37-1.99,2.34-4.43,2.6-6.78,1.08-2.36-1.53-1.05-3.67-.14-5.55,.32-.67,.71-1.31,1.08-1.95,.39-.67,.78-1.44-.08-1.92-.76-.43-1.44,.16-1.92,.73-.67,.8-1.36,1.62-1.84,2.54-1.6,3.06-3.95,3.23-6.81,2.02-3.64-1.53-.83-3.68-.52-5.54,.14-.84,.72-1.6,.31-2.55-2.24-.25-2.74,1.69-3.71,2.8-.77,.88-1.25,2.02-2.38,2.58-2.39,1.17-4.99,3.2-7.44,1.04-2.11-1.86,.38-4.05,.82-6.09,.15-.69,.86-1.24,.33-2.34-1.83,.13-2.33,1.8-3.25,2.98-1.18,1.51-2.1,3.24-3.98,4.15-1.77,.86-3.49,1.1-4.94-.29-1.41-1.36-.17-2.74,.38-4.08,.72-1.77,2.38-3.1,2.42-5.53-1.78-.07-2.45,1.39-3.39,2.33-.84,.85-1.52,1.86-2.42,2.64-2.33,2-5.31,4.21-7.99,2.28-2.52-1.82,.2-4.52,1.06-6.75,.2-.52,.41-1.04,.91-2.31-2.91,1.51-5.11,2.45-6.87,4.65-1.78,2.23-4.47,3.2-7.62,1.9,.94,2.86,3.06,3.15,5.33,2.09,2.25-1.05,3.76-1.01,5.21,1.25,1.62,2.53,4.22,1.88,6.42,1.08,1.98-.72,3.05-1.5,4.34,1.31,1.18,2.58,4.19,3.15,6.99,1.65,1.74-.93,2.91-1.16,4.54,.69,1.98,2.24,4.9,2,7.41,.52,1.93-1.13,3.39-1.41,5,.56,2.4,2.94,7.31,.22,8.8,2.37,2.34,3.39,4.81,4.04,8.26,3.57,.98-.14,1.79,.09,2.49,.68,3.07,2.61,6.37,2.62,10.48,.21-2.74,6.4-5.2,11.91-8.41,17.05-.8,1.28-1.93,2.54-3.4,2.72-2.97,.35-3.16-1.41-2.33-3.69,.36-.99,.69-2.26-.5-2.75-1.38-.58-1.61,.86-2.08,1.73-.42,.79-.82,1.59-1.29,2.35-1.22,1.99-3.08,1.65-4.71,.95-1.71-.73-1.7-2.18-.88-3.76,.59-1.14,1.43-2.3,.9-3.81-1.73-.18-2.4,1.23-2.88,2.27-1.55,3.39-3.86,4.06-7.24,2.86-3.72-1.32-1.5-3.83-1.46-5.93,0-.27-.18-.54-.64-1.79-2.73,4.04-6.26,6.45-10.4,3.55-3.51-2.45,1.67-5.16,.42-8.18-1.8,.27-2.48,1.77-3.31,3.09-1.08,1.7-2.47,3-4.53,3.33-1.56,.25-2.98-.14-4.1-1.3-1.23-1.27-.38-2.44,.16-3.68,.55-1.25,1.83-2.41,.82-4.14-3.46,1.13-4.1,7.53-9.24,5.09-3.63-1.72,.4-4.47-.54-6.73-2.18,.33-2.38,2.56-3.7,3.62-1.76,1.4-3.77,2.11-5.79,.99-2.28-1.26-.18-2.84,.09-4.26,.15-.82,1.06-1.8-.01-2.37-1.24-.65-1.87,.45-2.32,1.42-1.51,3.2-4.29,4.35-7.71,4.64,.97,1.6,2.47,1.36,3.57,.98,1.82-.63,3.12-.38,4.33,1.09,.34,.42,1.14,.9,1.53,.76,5.23-1.77,9.36,3.38,14.47,2.24,.87-.19,1.27,.47,1.77,1.06,.56,.67,1.29,1.68,1.95,1.69,5.93,.08,11.15,3.14,16.88,3.82,1.86,.22,3.44,.2,4.76,1.68,.47,.53,1.27,1.22,1.85,1.15,5.47-.64,9.78,4.04,15.34,3.15,2.72-.44,4.72,2.46,8.04,1.92-2.81,6.97-5.48,13.41-8,19.9-2.03,5.23-3.98,10.49-5.75,15.81-.99,2.98-3.34,3.71-5.87,3.9-3.78,.28-4.33-.8-4.17-7.55-2.63,2.05-3.8,6.51-8.23,4.49-3.09-1.41-.3-3.98-1-5.83-2.19-.03-2.21,2.06-3.43,2.8-1.43,.87-2.83,1.79-4.52,.62-1.48-1.02-1.63-2.34-.94-3.92,.29-.67,.32-1.45,.49-2.18,.2-.81,.88-1.75-.44-2.19-1.08-.36-1.62,.4-2.07,1.23-.43,.79-.94,1.54-1.3,2.35-1.03,2.33-2.76,2.39-4.83,1.64-2.06-.75-1.93-2.13-1.54-3.94,.3-1.38,1.34-2.76,.43-4.53-2,.5-2.14,2.62-3.29,3.78-.88,.89-1.91,1.77-3.11,1-1.07-.68-.52-1.9-.17-2.87,.54-1.5,1.63-2.91,.64-4.66-2.3,.01-2.32,2.05-2.97,3.4-1.38,2.91-3.4,4.75-6.7,3.47-3.22-1.25-1.77-3.95-1.31-6.18,.21-1,.8-1.93-.02-2.97-2.45,.32-1.98,2.73-2.95,4.05-1.24,1.68-2.21,3.51-4.44,4.15-3.07,.88-4.59-.27-4.32-3.41,.14-1.62,.33-3.23,.47-4.85,.01-.12-.13-.26-.23-.44-2.42-.08-2.16,2.08-2.67,3.43-.58,1.55-.96,3.13-2.32,4.24-1.13,.92-2.44,1.31-3.76,.81-1.57-.58-1.54-2-1.33-3.41,.19-1.27,1-2.93-.77-3.46-1.37-.41-1.98,1.12-2.4,2.21-.89,2.25-3.04,3.12-4.95,4.65,1.95,1.75,3.49-1.53,4.77-.35,1.35,1.24,3.02,3.22,4.33,2.73,4.61-1.73,9.1,.07,13.52-.38,2.28-.23,4.14-1.56,6.08,.68,.51,.59,1.89,1.15,2.42,.87,3.98-2.06,7.44,2.57,11.38,.73,1.02-.47,1.52,.69,2.02,1.38,.74,1.02,1.76,1.89,2.92,1.92,3.57,.09,6.65,2.54,9.7,2.84,4.75,.47,8.52,4.06,13.59,3.22,2.05-.34,3.68,2.76,6.33,2.71,1.76-.03,3.53,.3,5.84-.59-4.25,11.36-6.42,22.74-8.34,34.17-.4,2.38-2.13,4.17-3.8,5.74-1.75,1.64-4.19,1.78-6.32,.93-1.94-.77-1.4-2.69-1.1-4.32,.14-.74,.26-1.59-.69-1.84-1.11-.29-1.59,.58-1.92,1.43-1.08,2.81-2.61,4.6-6.07,3.62-3.82-1.08-3.45-3.92-3.14-6.78,.11-1.07,.44-2.31-.97-2.5-1.04-.14-1.2,1.11-1.54,1.89-3.14,7.23-8.64,8.76-15.32,4.25-1.82-1.23-2.9-2.78-2.89-5.2,0-1.52,.72-3.28-.81-4.93-1.9,.96-1.78,2.88-2.16,4.46-.67,2.75-2.11,4.85-5.14,4.47-3.03-.37-4.79-2.07-4.06-5.62,.22-1.07,.85-3.18-.68-3.51-2.08-.45-1.88,1.82-2.29,3.12-.64,2.07-1.41,4.42-3.92,4.07-2.54-.35-2.2-2.69-1.93-4.71,.12-.9,.6-2.36-.89-2.55-1.25-.16-1.51,1.18-1.93,2.11-.55,1.21-1.07,2.45-1.74,3.6-1.37,2.37-3.52,2.66-5.81,1.7-2.18-.91-2.61-2.67-1.71-4.82,.46-1.11,1.09-2.72-.11-3.26-1.68-.75-2.21,1.13-2.67,2.28-1.48,3.79-4.5,5.25-8.34,5.5,.22,.57,.32,1.06,.43,1.07,4.61,.13,9.2,.18,13.56,2.12,1.26,.56,2.7-.14,3.77-.99,1.55-1.23,2.88-1,4.81-.54,4.51,1.07,9.49-.02,13.6,3.01,5.01-4.6,8.66,.74,12.72,1.98,4.31,1.32,8.29,2.28,12.44-.15,.47-.27,1.44-.55,1.61-.34,4.04,4.83,10.21,1.42,14.98,3.91,2.3,1.2,5.55,1.22,8.16-2.51-.56,7.42-1.51,13.62-3.26,19.71-.66,2.3-1.53,4.38-4.39,4.09-2.8-.28-5.35-1.27-5.94-4.46-.4-2.14-.45-4.34-.72-7.09-3.65,2.24-2.07,9.02-8.12,8.14-5.49-.8-4.9-5.44-6.42-9.56-1.75,7.91-5.15,12.57-14.11,10.53-5.72-1.3-4.72-5.43-5.87-9.6-2.2,7.41-6.97,10.13-14.15,9.81-7.37-.33-11.32-3.57-10.26-11.87-2.98,1.93-2.74,4.15-3.23,6.1-1.4,5.53-5.66,7.49-10.92,5.38-2.36-.95-2.91-2.44-2.97-4.77-.34-12.58,2.28-24.78,4.4-37.05,.3-1.76,.57-3.53,.97-5.26,.72-3.08,.61-5.28,5.92-4.5,4.3,.63,9.89,2.61,13.22,1.2,5.27-2.23,9.93,1.95,14.86-.68,1.64-.87,4.52,1.54,7.27,1.89,7.05,.91,14.3,.84,21.14,3.65,2.87,1.18,5.99,1.39,8.86,3.3,4.07,2.72,15.46,.19,17.68-3.27-1.72-.79-2.65,.93-3.99,1.24-2.58,.58-4.99,1.11-4.52-2.93,.11-.93,.1-1.94-.99-2.19-1.42-.33-1.59,.92-2.01,1.87-.9,2.05-1.6,4.28-4.74,3.5-3.22-.8-2.65-3.01-2.35-5.28,.12-.94,.7-2.37-.75-2.65-1.29-.25-1.48,1.21-1.93,2.09-.93,1.81-2.04,3.73-4.39,2.64-2.23-1.03-.55-2.81-.2-4.27,.19-.82,1.05-1.87,.08-2.43-1.34-.79-1.69,.63-2.19,1.49-.3,.51-.54,1.07-.9,1.55-1,1.33-2.01,2.74-4.01,2.08-2.06-.68-2.14-2.22-1.66-3.99,.27-1.01,.71-2.3-.53-2.75-1.27-.46-1.65,1.01-2.14,1.82-.69,1.16-1.24,2.4-2.52,3.05-1.19,.61-2.43,1.49-3.75,.53-1.29-.94-.46-2.13-.11-3.25,.27-.85,.55-1.73,.58-2.61,.02-.48-.34-1.2-.74-1.44-.85-.49-1.38,.21-1.69,.9-.31,.67-.41,1.44-.72,2.11-.87,1.94-1.76,4.19-4.51,3.05-2.62-1.08-.86-2.97-.44-4.55,.19-.72,.42-1.43,.64-2.14,.23-.73,.42-1.62-.37-1.97-1.09-.48-1.57,.45-1.94,1.28-.85,1.91-1.65,3.83-3.26,5.29-1.21,1.1-2.46,1.76-4.02,.87-1.44-.82-1.21-2.17-1.12-3.56,.11-1.69,1.44-3.24,.73-5.13-2.24,.3-2.56,2.1-3.09,3.53-1.33,3.64-3.59,5.87-7.69,5.16-4.29-.75-4.08-4.02-3.8-7.27,.05-.55-.11-1.13-.19-1.92-2.73,.74-2.33,3.03-2.75,4.71-.72,2.95-2.3,4.35-5.45,3.91-2.67-.38-3.69-1-2.93-4.32,5.59-24.37,16.33-46.46,29.19-67.66,11.79-19.43,26.53-36.63,40.68-54.31,10.09-12.6,20.63-24.83,30.49-37.61,1.33-1.72,1.63-1.19,3.53-.47,4.69,1.78,9.88,2.89,14.88,2.95,2.33,.03,4.3-.99,5.9,1.4,.15,.23,.48,.35,.73,.5,3.51,2.08,7.34-.93,10.16,0,2.76,.9,4.53,5.13,8.51,4.43,2.7-.48,4.73,.34,7.08,1.57,3.85,2.02,7.71,1.53,11.2-1.74-2.3,3.31-4.39,6.81-7,9.86-1.38,1.61-3.08,2.97-4.29,4.78-1.7,2.53-4.39,3.65-7.17,4.11-3.85,.63-5.04-.96-4.08-4.76,.25-.97,1.01-2.26,.19-2.9-1.15-.9-2.26,.13-3,1.08-1.84,2.35-4.37,3.52-7.08,4.48-1.98,.7-3.87,.83-5.41-.76-1.61-1.66-.94-3.65-.26-5.46,.65-1.73,1.55-3.36,2.51-5.37-2.57-.04-3.17,1.65-4.18,2.8-1.17,1.33-2.03,2.98-3.81,3.69-1.54,.61-3.11,1.43-4.62,.12-1.58-1.37-.33-2.67,.29-3.98,.5-1.05,1.03-2.13,.5-3.38-2.31-.05-2.74,1.89-3.48,3.15-1.76,2.99-4.29,3.97-7.17,2.47-3.12-1.63-.6-3.77,.12-5.69,.19-.5,.12-1.09,.33-3.33-4.91,5.25-8.82,10.2-16.41,7.6,.83,1.11,1.07,1.71,1.32,1.71,5.93,.17,11.76,.69,17.56,2.21,1.59,.42,3.5-.77,5.13,1.02,1.04,1.14,2.9,1.05,4.28,.68,2.83-.76,4.28-.09,5.66,2.73,1.48,3.02,6.14,3.33,10.53,1.22,1.91-.92,3.13-2.14,4.79,.83,1.58,2.83,7.7,2.54,12.51-.57-3.07,5.96-6.05,10.77-8.07,15.95-1.98,5.06-6.32,6.15-10.5,7.57-2.03,.69-4.54,.43-3.53-2.96,.73-2.46-.27-2.35-1.91-1.54-1.06,.52-2.02,1.26-3.09,1.75-1.29,.6-2.66,.68-3.74-.44-1.01-1.05-.46-2.18-.03-3.33,.5-1.34,1.54-2.58,.91-4.45-3.65,1.05-4.5,7.65-9.69,5.12-6.11-2.98,1.49-6.98-.75-10.63-1.92,1.11-2.86,2.99-3.87,4.68-.98,1.63-2.39,2.69-3.91,3.57-1.49,.86-3.18,.7-4.68-.28-1.78-1.17-.79-2.58-.33-3.96,.46-1.38,.88-2.77,1.36-4.28-2.05-.17-2.68,1.39-3.4,2.51-1.01,1.6-2.43,2.66-3.99,3.49-1.62,.86-3.57,1.31-5.02-.15-1.36-1.37,.22-2.71,.72-3.96,.59-1.49,1.51-2.85,1.98-4.66-3.84,2.08-5.79,7.19-11.01,6.49,.07,.71,.06,1.22,.12,1.23,3.44,.44,6.65,3.25,9.33,3.31,4.31,.09,7.86,2.24,11.53,2.5,4.24,.3,7.96,.2,11.99,2.32,2.32,1.22,5.23,1.43,7.95,2.85,3.48,1.8,8,1.9,12.01,3.18,2.54,.81,5.26-.51,7.83-2.34-4.87,9.22-9.71,18.45-14.62,27.64Zm25.2,144.05c2.24-.06,3.66,1.38,3.76,3.62,.1,2.26-1.31,3.51-3.37,3.92-2.39-.22-3.82-1.42-3.88-3.68-.06-2.23,1.2-3.81,3.48-3.86Zm-4.6-123.73c.02-1.88,1.04-3.49,3.16-3.61,2.31-.12,3.44,1.3,3.72,3.48-.09,2.1-1.25,3.44-3.2,3.59-2.24,.17-3.69-1.23-3.67-3.46Zm-3.59,24.23c.13,1.78-.95,2.68-2.66,3.02-1.53-.06-2.44-.92-2.53-2.46-.09-1.72,.78-2.93,2.54-3,1.51-.06,2.53,.9,2.64,2.44Zm-12.73,231.2c-1.67-.19-2.65-.89-2.7-2.24-.06-1.63,1.04-2.36,2.58-2.44,1.52-.08,2.21,1.01,2.36,2.19,.21,1.72-1.28,2.06-2.23,2.49Zm.26-100.59c-2.28,.14-3.63-1.39-3.59-3.62,.03-2.04,1.43-3.14,3.48-3.43,2.01,.27,3.26,1.41,3.33,3.47,.07,2.11-1.25,3.46-3.21,3.58Zm10.9-64.09c2.67,.01,4.45,1.86,4.41,4.56-.04,2.68-1.7,4.29-4.5,4.46-2.74-.47-4.25-2.05-4.16-4.83,.09-2.64,1.82-4.19,4.25-4.18Zm.04,124.15c2.27-.09,3.43,1.38,3.83,3.47-.24,2.22-1.24,3.77-3.56,3.84-2.23,.06-3.73-1.13-3.72-3.45,.01-2.15,1.14-3.77,3.45-3.85Zm-.79,80.59c-1.9-.11-3.41-1.27-3.28-3.39,.13-2.09,1.64-3.14,3.62-3.01,1.91,.12,2.67,1.55,2.78,3.43-.28,1.73-1.26,3.08-3.12,2.97Zm4.97-36.77c-1.8-.01-3.02-1.15-3.03-3.1,0-1.72,.99-2.79,2.66-2.96,1.96-.2,2.97,.92,3.23,2.67-.12,1.96-.93,3.4-2.87,3.39Zm.55-68.76c-2.23,0-3.59-1.41-3.61-3.65-.02-2.43,1.43-3.97,3.8-4.01,2.23-.04,3.37,1.53,3.67,3.87-.21,2.22-1.39,3.81-3.86,3.8Zm3.9-32.04c.07-2.22,1.56-3.67,3.77-3.61,2.42,.06,3.67,1.69,3.91,4.13-.28,2.39-1.6,3.87-4.08,3.74-2.53-.13-3.68-1.94-3.6-4.26Zm6.74-92.3c.14-1.92,1.45-2.9,3.28-2.8,1.7,.09,2.68,1.36,2.66,2.98-.02,1.86-1.21,2.9-3.2,3.08-1.72-.33-2.88-1.34-2.74-3.26Zm-3.4,170.7c-.16-2.66,1.28-4.26,3.93-4.41,2.49-.14,3.78,1.34,4.15,3.71-.17,2.59-1.41,4.31-4.05,4.48-2.51,.16-3.89-1.37-4.03-3.78Zm6.97,42.35c-2.61,0-4.16-1.6-4.22-4.18-.07-2.84,1.68-4.52,4.41-4.45,2.55,.07,3.88,1.88,4.06,4.54-.27,2.45-1.61,4.09-4.24,4.08Zm.65-254.57c-2.78,.07-4.57-1.73-4.74-4.39-.18-2.9,1.64-4.98,4.49-5.16,2.9-.18,4.61,1.73,5.06,4.75-.36,2.78-1.84,4.73-4.82,4.8Zm2.26-45.6c-2.61-.01-4.25-1.62-4.25-4.21,0-2.81,1.79-4.55,4.52-4.48,2.57,.07,3.84,1.97,4.08,4.45-.32,2.65-1.74,4.25-4.35,4.24Zm7.04,194.88c-1.84-.29-3.12-1.27-3-3.2,.12-2,1.33-3.4,3.43-3.34,1.84,.06,3.1,1.24,3.01,3.17-.09,2.05-1.36,3.2-3.44,3.37Zm1.73-31.37c-.1-2.05,.97-3.47,3.05-3.65,2.11-.18,3.26,1.04,3.42,3.12-.01,2.18-1.16,3.46-3.21,3.46-1.75,0-3.16-.99-3.25-2.94Zm9.86,90.88c-2.79-.38-4.94-1.81-4.98-4.75-.04-2.81,1.57-4.92,4.68-4.92,2.77,0,4.57,1.72,4.78,4.41,.23,2.94-1.52,4.69-4.48,5.27Zm2.37-32.93c-3.14-.1-4.56-2.31-4.53-5.04,.03-2.72,1.97-4.33,4.72-4.32,3.03,.02,4.46,1.95,4.84,4.87-.41,2.9-2.04,4.58-5.04,4.49Zm9.22,61.02c-3.01-.14-4.87-1.51-4.98-4.27-.11-2.9,1.6-4.76,4.53-4.93,2.6-.15,4.24,1.53,4.43,3.98,.21,2.83-1.29,4.72-3.98,5.22Zm1.74-90.25c-2.71-.06-4.43-1.85-4.3-4.71,.12-2.64,1.82-4.18,4.39-4.06,2.58,.12,3.85,1.97,4.23,4.3-.35,2.7-1.76,4.52-4.32,4.46Zm12.52,66.23c-1.15,.13-2.07-.51-2.08-1.8,0-1.4,.86-2.23,2.2-2.35,1.2-.11,1.94,.58,2.11,1.74-.02,1.55-.97,2.28-2.23,2.42Zm-2.47-18.99c-2.73-.09-4.48-1.85-4.48-4.62,0-2.98,1.84-4.77,4.81-4.75,2.81,.02,4.23,1.83,4.48,4.24-.26,3.33-1.77,5.24-4.81,5.13Zm5.86-29.3c-2.29-.13-3.96-1.55-3.77-4.03,.18-2.35,1.74-3.77,4.17-3.65,2.26,.11,3.31,1.64,3.57,3.76-.34,2.35-1.5,4.05-3.97,3.92Zm4.3-314.61c.09-2.77,1.9-4.45,4.69-4.29,2.56,.14,3.96,1.81,4.04,4.43-.39,2.81-2.04,4.49-4.75,4.39-2.58-.1-4.06-2.04-3.98-4.53Zm5.76,288.05c-2.1-.15-3.33-1.37-3.22-3.51,.11-2.13,1.53-3.08,3.47-3.33,2.11,.38,3.41,1.59,3.29,3.65-.12,2.01-1.34,3.35-3.54,3.2Zm-.45-27.08c-.16-3.38,2.09-5,5.01-5.44,3.27,.18,5.08,1.74,5.15,4.72,.07,3.05-1.44,5.31-4.67,5.4-2.98,.08-5.34-1.5-5.49-4.68Zm12.2,61.63c-2.71-.04-4.55-1.63-4.46-4.49,.09-2.83,1.84-4.36,4.67-4.2,2.64,.15,3.87,1.86,4.09,4.09-.38,2.84-1.68,4.65-4.3,4.61Zm18.81-84.59c2.52,.2,3.93,1.84,4,4.55-.33,2.47-1.74,4.18-4.31,4.1-2.78-.09-4.31-1.95-4.13-4.74,.17-2.61,1.86-4.11,4.44-3.91Zm-2.32,28.37c2.81,.12,4.12,1.96,4.3,4.68-.48,2.73-2.19,4.36-4.84,4.24-2.69-.13-4.3-1.93-4.14-4.75,.15-2.85,1.96-4.29,4.69-4.17Zm-4.18,80.07c-2.05-.45-3.64-1.56-3.67-3.76-.03-2.41,1.54-3.94,3.87-3.89,2.34,.06,3.84,1.66,3.66,4.08-.16,2.17-1.74,3.26-3.87,3.56Zm9.2-37.36c-2.56,.1-4.34-1.35-4.4-4.03-.05-2.59,1.46-4.11,4.01-4.46,2.75,.24,4.15,1.73,4.19,4.37,.04,2.5-1.41,4.03-3.8,4.12Zm48.57,7.94c.07,2.47-1.5,3.74-3.78,4.28-2.23-.31-3.64-1.59-3.74-3.78-.11-2.45,1.36-4.05,3.77-4.12,2.19-.06,3.69,1.34,3.75,3.62Zm1.16-129.35c-1.23,6.42-4.5,11.96-7.95,17.36,2.65-5.79,5.3-11.57,7.95-17.36Zm-29.1,82.97c2.37,.29,3.66,1.6,3.61,3.85-.05,2.33-1.62,3.6-3.81,3.45-1.92-.13-3.28-1.38-3.28-3.55,0-2.34,1.35-3.47,3.48-3.75Zm-10.59-74.26c4.01,1.87,6.05,5.13,6.77,9.34-2.26-3.11-4.51-6.23-6.77-9.34Zm3.66,127.63c.18-2.94,1.96-4.72,4.89-4.74,2.98-.02,4.8,1.81,4.73,4.77-.07,3.1-2,4.81-5.21,5.1-2.72-.59-4.59-2.07-4.41-5.12Zm6.8,34.75c-2.54,.1-4.27-1.58-4.42-4.09-.16-2.76,1.53-4.35,4.24-4.78,2.64,.19,4.21,1.54,4.37,4.16,.18,2.88-1.46,4.6-4.19,4.71Zm4.61-55.39c-2.91-.09-4.82-1.91-4.75-4.85,.07-2.86,1.92-4.84,4.84-4.78,2.88,.05,4.47,2,4.8,4.89-.39,2.89-1.87,4.83-4.89,4.74Zm16.65-66.8c-3.09-2.93-5.49-4.93-6.62-8.09,2.61,1.84,5.51,3.47,6.62,8.09Zm-5.63,124.72c-.03-2.26,1.44-3.44,3.61-3.83,2.19,.3,3.63,1.38,3.56,3.74-.06,2.21-1.2,3.83-3.5,3.79-2.16-.04-3.64-1.46-3.68-3.7Zm7.75,41.68c-2.36-.1-3.54-1.43-3.56-3.7-.02-2.08,1.09-3.45,3.2-3.57,2.3-.13,3.74,1.17,3.84,3.43,.11,2.25-1.16,3.6-3.49,3.84Zm4.22-60.36c-1.7,.07-2.18-1.34-2.09-2.79,.07-1.13,.69-1.94,1.92-2.05,1.31,.33,2.18,1.2,2.31,2.45,.14,1.4-.93,2.34-2.14,2.39Zm38.73-44.47c2.5,.02,4.07,1.66,4.08,4.31,0,2.65-1.65,3.92-4.03,4.5-2.45-.44-4.25-1.6-4.34-4.25-.09-2.83,1.56-4.58,4.29-4.57Zm-21.55-38.89c2.11,1.07,3.76,2.53,4.16,5.37-.75-.16-1.22-.13-1.49-.34-1.56-1.24-3.73-2.01-3.74-4.5,0-.19,.84-.64,1.07-.52Zm2.4,50.38c2.13,.37,3.35,1.58,3.25,3.65-.11,2.24-1.43,3.65-3.76,3.47-2.01-.16-3.35-1.43-3.23-3.54,.13-2.26,1.62-3.36,3.74-3.58Zm-16.56-20.57c0-2.58,1.43-4.35,3.99-4.37,2.75-.02,4.32,1.77,4.37,4.55,.04,2.59-1.34,4.1-4.01,4.46-2.59-.45-4.35-1.8-4.35-4.64Zm7.02,83.49c-2.85-.01-4.47-1.68-4.45-4.47,.02-2.85,1.93-4.4,4.6-4.39,2.53,.01,4.02,1.65,4.26,4.27-.34,2.62-1.46,4.6-4.42,4.58Zm4.52-39.36c.02-2.79,1.81-4.18,4.29-4.57,2.84,.63,4.44,2.09,4.18,4.97-.24,2.66-1.87,4.01-4.43,3.93-2.65-.08-4.05-1.8-4.04-4.33Zm5.76,40.71c.07-2.08,1.33-3.35,3.42-3.28,2.09,.07,3.26,1.42,3.22,3.5-.04,2.13-1.43,3.12-3.39,3.4-2.01-.41-3.31-1.53-3.25-3.63Zm4.05,32.63c-1.91-.1-3.05-1.03-3.14-3.02-.1-2.22,1.14-3.43,3.21-3.43,1.9,0,3.03,1.26,2.98,3.19-.05,1.87-1.11,3.02-3.05,3.26Zm15.05-48.51c-3.1-.07-4.68-2.14-5.05-5.09,.25-3.26,2.13-5.13,5.11-5.18,2.98-.05,5.09,1.71,5.12,4.94,.03,3.34-1.8,5.4-5.17,5.32Zm6.1-26.33c-2.24,.03-3.67-1.22-3.65-3.59,.02-2.13,1.32-3.19,3.45-3.45,2.14,.21,3.64,1.29,3.6,3.63-.03,2.08-1.36,3.37-3.4,3.4Zm1.49-98.13c-.28-.06-.55-.12-.83-.18,1.36-5.96,2.72-11.92,4.08-17.88,.26,.09,.52,.18,.78,.27-1.34,5.93-2.69,11.86-4.03,17.79Zm14.45,62.17c0-2.85,1.86-4.4,4.57-4.35,2.76,.05,4.2,1.86,4.49,4.62-.48,2.46-1.9,4.19-4.45,4.13-2.61-.06-4.62-1.5-4.61-4.39Zm6.32,63.73c-1.44-.14-2.19-.99-2.17-2.36,.02-1.34,.72-2.33,2.18-2.3,1.44,.03,2.09,1.07,2.18,2.38,.09,1.47-.85,2.11-2.18,2.28Zm1.79-30.86c-2.09-.32-3.57-1.37-3.53-3.7,.04-2.24,1.25-3.69,3.56-3.67,2.2,.02,3.66,1.18,3.6,3.57-.05,2.27-1.34,3.49-3.63,3.8Zm8.75-48.27c3.29,.95,5.28,3.2,6.59,6.15-2.66-1.56-5.09-3.37-6.59-6.15Zm7.72,93.66c-1.85,.05-3.14-1.09-3.23-3.02-.09-2.16,1.22-3.46,3.28-3.42,1.85,.04,2.81,1.45,3.13,3-.24,2.17-1.34,3.39-3.19,3.44Zm7.03-25.46c-2.15,.04-3.67-1.26-3.66-3.62,.01-2.24,1.23-3.56,3.53-3.89,2.12,.31,3.62,1.32,3.62,3.69,0,2.28-1.3,3.78-3.49,3.82Zm68.07-45.07c3.07-.19,6.17-.04,9.26,.18-6.78,.99-13.57,1.14-20.39,.25,3.64-1.46,7.42-.2,11.13-.43Zm-31.4-25.55c.32,.1,.64,.21,.96,.31-1.41,4.24-2.82,8.48-4.24,12.71-.3-.1-.61-.19-.91-.29,1.4-4.24,2.79-8.49,4.19-12.73Zm-15.38,14.33c10.2,5.02,20.93,8.35,32.16,10.08,1.21,.19,2.71-.13,3.17,1.52-12.86-2.22-25.61-4.72-37.07-11.56,.62-.99,1.22-.29,1.74-.03Zm-2.4,59.47c1.91-.1,3.13,1.09,3.19,2.98,.06,1.87-1.14,2.95-2.76,3.4-2.08-.17-3.28-1.18-3.34-3.08-.07-1.89,1.01-3.19,2.91-3.29Zm-.08,32.02c-2.16,.02-3.62-1.28-3.73-3.57-.12-2.56,1.47-3.88,3.78-3.99,2.24-.11,3.4,1.42,3.8,3.3-.18,2.67-1.44,4.24-3.86,4.27Zm13.49,27.75c-2.32-.06-3.73-1.65-3.73-4.12,0-2.54,1.59-3.64,3.76-4.05,2.5,.29,3.99,1.62,4.09,4,.12,2.7-1.6,4.24-4.12,4.17Zm5.22-31.97c-.08-2.3,1.22-3.65,3.43-3.8,2.26-.16,3.7,1,3.68,3.38-.02,2.18-1.18,3.56-3.41,3.99-2.16-.23-3.62-1.25-3.7-3.57Zm5.52,49.27c-1.7-.1-2.75-1.21-2.72-2.95,.03-1.77,1.18-2.8,2.88-2.8,1.81,0,2.51,1.32,2.71,3.04-.24,1.61-1.07,2.81-2.86,2.71Zm9.24-25.44c-2.22-.17-3.48-1.61-3.31-3.96,.16-2.14,1.5-3.33,3.52-3.28,2.23,.06,3.38,1.59,3.78,3.51-.49,2.4-1.71,3.9-3.99,3.73Zm15.23-25.11c-2.16,.14-3.79-1.07-3.76-3.43,.03-2,1.2-3.28,3.35-3.5,2.05,.14,3.32,1.27,3.5,3.31,.19,2.13-1.12,3.5-3.09,3.63Zm7.55,47.46c-3.04,.09-5.2-1.78-5.15-4.91,.06-3.3,2.44-5.14,5.54-5.22,2.96-.07,4.4,2.04,4.68,4.94-.37,3.02-2.03,5.1-5.07,5.19Zm4.35-24.56c-2.26,.07-3.43-1.46-3.75-3.53,.31-2.33,1.44-3.8,3.79-3.67,2.14,.12,3.12,1.62,3.16,3.63,.04,2.11-1.16,3.5-3.2,3.57Zm9.24-25.43c-2.07-.13-3.6-1.5-3.57-3.75,.04-2.36,1.33-3.97,3.8-3.96,2.44,.02,3.64,1.6,3.9,4.01-.48,2.21-1.74,3.86-4.13,3.7Zm14.85,25.04c-2.88,.06-4.84-1.66-4.83-4.69,0-2.79,1.82-4.48,4.53-4.49,2.7-.01,4.42,1.53,4.53,4.43-.02,2.83-1.48,4.68-4.23,4.74Zm12.87-32.92c-1.35-.32-1.85-1.42-1.68-2.71,.19-1.42,1.12-2.07,2.5-1.71,1.28,.34,1.86,1.31,1.82,2.6-.46,1.3-1.26,2.14-2.64,1.81Zm5.62-23.99c.02-2.37,1.48-3.9,3.87-3.97,2.56-.07,4.09,1.33,4.36,3.78-.11,2.86-1.6,4.33-4.15,4.38-2.66,.05-4.1-1.63-4.08-4.19Zm7.14,38.91c-2.29-.47-3.82-1.7-3.7-4.2,.12-2.49,1.71-3.8,4.08-3.74,2.5,.06,3.76,1.86,3.73,4.13-.03,2.43-1.73,3.6-4.11,3.8Zm3.55-64.21c-2.39,.1-3.53-1.44-3.51-3.62,.03-2.37,1.35-4.03,3.84-3.89,2.21,.13,3.33,1.67,3.37,4.11-.19,2.08-1.51,3.3-3.71,3.39Zm20.83-91.49c-1.37,6.17-4.06,11.79-7.47,17.11,2.49-5.7,4.98-11.4,7.47-17.11Zm-12.57,105.8c.06-2.33,1.45-4.08,3.86-4.15,2.36-.07,3.95,1.27,3.97,3.86,.02,2.71-1.55,4.04-4.07,4.46-2.55-.23-3.82-1.79-3.76-4.16Zm6.89,25.5c-1.69-.14-2.75-1.22-2.72-2.94,.02-1.8,1.22-2.69,2.93-2.6,1.72,.09,2.62,1.2,2.75,2.89-.22,1.77-1.18,2.79-2.95,2.65Zm3.58-62.89c-2.57-.26-4.06-1.93-4.04-4.37,.02-2.4,1.44-4.44,4.09-4.36,2.46,.08,4.19,1.68,4.12,4.33-.07,2.5-1.39,4.15-4.17,4.4Zm1.7-26.59c1.07-4.11,2.53-8.06,5.2-11.51-.89,4.19-2.57,8.07-5.2,11.51Zm13.74-111.59c1.27,13.88,.42,27.59-3.44,41.06,2.29-13.6,3.97-27.24,3.44-41.06Zm.87,177.3c-1.83-.06-3-1.26-3.08-3.16-.1-2.13,1.14-3.48,3.14-3.56,2.08-.08,3.08,1.45,3.36,3.48-.18,2.07-1.35,3.31-3.42,3.23Zm2.23-24.3c-2.35,.08-3.99-1.42-4.08-3.84-.1-2.65,1.69-3.94,4.13-4.54,2.34,.3,3.88,1.58,3.98,3.99,.11,2.65-1.47,4.31-4.02,4.39Zm-.4-24.91c-2.65-.22-4.54-1.9-4.43-4.59,.12-2.79,1.92-4.73,4.93-4.49,2.73,.21,4.12,2.01,4.12,4.63-.4,2.85-1.73,4.69-4.62,4.45Zm19.49-57.13c2.31,.11,3.74,1.54,3.72,3.95-.28,2.87-1.72,4.56-4.55,4.41-2.55-.14-3.48-2.11-3.42-4.34,.06-2.59,1.7-4.15,4.26-4.02Zm-5.26,34.39c.13-2.69,1.87-4.22,4.42-4.49,2.89,.26,4.16,1.9,4.18,4.44,.02,2.9-1.84,4.47-4.5,4.4-2.47-.06-4.22-1.75-4.09-4.35Zm7.3,27.97c-1.86,.21-2.71-1.09-2.73-2.72-.02-1.53,1.02-2.46,2.56-2.45,1.53,.01,2.38,.98,2.61,2.45-.05,1.63-1.01,2.55-2.44,2.71Zm2.51-70.12c-2.42,.04-4.06-1.43-4.08-3.86-.02-2.38,1.59-3.98,3.93-4.09,2.44-.11,3.74,1.51,4.02,3.7-.09,2.71-1.43,4.2-3.87,4.24Zm7.13,28.5c-1.84-.03-3.17-.8-2.91-2.93,.21-1.69,1.31-2.52,3-2.64,1.92,.33,2.71,1.6,2.65,3.42-.05,1.73-1.34,2.16-2.75,2.14Zm2.9-55.59c-.27,2.35-1.45,3.97-3.88,3.99-2.2,.02-3.57-1.33-3.64-3.59-.07-2.37,1.12-4.08,3.53-4.24,2.5-.17,3.58,1.59,3.99,3.84Zm-3.09-27.41c-.02,2.66-1.48,4.1-4.17,4.27-2.63-.3-4.18-1.89-4.2-4.4-.02-2.76,1.62-4.55,4.5-4.43,2.74,.11,3.88,2.02,3.87,4.56Z"/>
  <path d="M381.16,265.66c1.59,4.25-.14,6.19-3.9,6.43-2.06,.13-4.2-.04-6.22-.46-2.01-.42-4.18,.22-5.72,.01-5.43-.72-11.26,0-16.37-2.93,3.35,.31,6.65,1.44,9.38-1.59,.58-.64,1.24-.34,1.93,.22,4.35,3.56,4.47,3.52,8.53-1.71,1.31,2.38,2.84,4.49,5.91,4,2.64-.42,5.26-.88,6.46-3.96Z"/>
  <path d="M380.97,249.66c.16,1.51,.3,2.64,.41,3.77,.51,5.49-1.82,7.62-7.23,6.13-2.04-.56-3.63-.68-5.37,.52-1.27,.87-2.94,1.29-4.27,.75-2.79-1.13-4.86-.4-7.27,1.18-1.89,1.24-4.22,.87-6.28-1.95,4.1,1.34,7.1,.96,8.99-2.42,.72-1.29,1.5-1.24,2.46-.41,2.49,2.18,4.84,1.71,7.16-.31,.69-.6,1.52-.76,2.48-.69,6.86,.48,6.86,.46,8.92-6.58Z"/>
  <path d="M347.22,265.24c-2.92,4.34-6.05,5.16-10.54,2.74,4.06,1.18,7.29-.82,10.54-2.74Z"/>
  <path d="M232.79,504.73c.89,1.31-.11,1.96-.27,2.78-.33,1.75-2.44,3.82-.02,5.18,2.3,1.29,5.08,2.08,7.47-.26,.75-.73,1.41-1.54,2.13-2.3,.94-.98,2.15-2.24,3.38-1.7,1.74,.76,.42,2.3,.11,3.49-.78,3.01,1.66,3.44,3.47,4.07,1.96,.68,4.21,1.27,5.18-1.61,.55-1.64,.75-3.47,2.77-4.52,1.38,2.72-1.79,6.16,1.26,8.26,2.03,1.39,4.3,.6,6.47-.19-1.92,3.65-5.17,4.52-8.38,1.78-1.55-1.32-2.75-1.45-4.64-1.37-3.69,.16-6.41-2.58-9.51-3.9-2.33-.99-6.42,2.65-9.73,.33-2.67-1.87-5.35-2.45-8.49-2.11-1.47,.16-3.05-.3-4.12-1.44-1.3-1.38-2.59-1.86-4.29-.79-.35,.22-.93,.39-1.29,.26-5.18-1.85-10.73-2.09-15.91-3.7-1.47-.46-2.63-1.61-4.33-.91-2.35,.96-4.76,.03-5.2-1.93-.57-2.57,.95-5.24,2.94-7.1,.81-.76,1.61,.19,1.36,1.33-.19,.87-.48,1.73-.8,2.56-.57,1.44-.49,2.73,1.1,3.33,1.41,.53,2.12-.58,2.84-1.58,1.33-1.82,1.62-4.49,4.15-5.47,.93,1.52,.47,2.83-.23,3.95-1.15,1.84-1.06,3.75,.7,4.67,2.05,1.08,4.41,.8,5.98-1.35,1.25-1.71,1.68-4.06,3.67-5.34,1.71,1.51,.33,2.72,.08,3.83-.43,1.86-1.71,3.74,.78,5.05,2.48,1.3,4.64,.56,6.4-1.39,1.23-1.35,1.88-3.26,3.64-4.06,1.1,1.13,.54,1.89,.15,2.7-.84,1.78-1.91,3.69,.64,4.96,2.22,1.1,4.3,.8,6.14-1.02,1.47-1.45,2.1-3.84,4.38-4.51Z"/>
  <path d="M293.49,451.88c-1.56,3.03-3.85,4.77-7.17,5.1-3.41,.34-5.94-.47-6.67-4.24-.03-.14-.18-.38-.2-.37-4.27,1.48-8.02-2.41-12.02-1.42-4.25,1.06-8.1,2.03-11.24-2.04-.55-.71-1.14-.75-1.94-.58-3.51,.76-6.25-.24-9.53-2.04-2.22-1.22-6.19-1.38-9.38-1.56-2.07-.11-4.61,.46-5.4-1.53-.83-2.09,1.11-3.77,3.01-4.95,1.45,1.47-1.31,2.56-.1,4.18,2.6-.6,2.96-3.38,4.49-4.96,.6-.62,.97-1.77,2.04-1.26,1.19,.57,.27,1.5,.07,2.29-.43,1.72-2.5,3.83,.12,5.03,2.02,.93,3.87-.5,5.29-2.27,1.21-1.5,2.76-2.61,4.78-2.35,.63,1.13-.22,1.56-.45,2.21-.56,1.59-3.25,3.17-.54,4.89,2.32,1.47,4.58,.79,6.33-1.35,1.65-2.02,2.77-4.59,5.94-5.6-.06,2.27-1,3.9-1.99,5.45-1.79,2.83-.33,4.18,2.2,4.92,2.8,.81,5.14,0,7.37-2,1.69-1.53,2.49-4.05,4.86-4.86,.92,1.11,.15,1.9-.03,2.72-.34,1.54-2.57,3.19,.06,4.56,2.03,1.06,4.14,.68,5.83-.81,1.42-1.24,2.23-3.2,4.39-3.69,.95,1.64-.3,2.82-.81,4.09-.63,1.59-1.28,3.2,.17,4.56,1.45,1.35,3.31,1.31,5.04,.56,1.87-.8,3.65-1.79,5.48-2.7Z"/>
  <path d="M286.07,370.04c4.77-.42,7.33-4.46,11.11-6.49,.8,1.83-.87,2.54-1.22,3.72-.31,1.06-1.67,1.97-.54,3.22,1.11,1.22,2.55,1.53,4.1,1.09,2.6-.73,4.33-2.49,5.67-4.77,.51-.88,1.31-1.97,2.47-1.46,1.54,.68,.33,1.83,0,2.64-.74,1.76-2.28,3.57,.2,5.02,2.37,1.39,4.28,.1,5.94-1.58,.87-.88,1.17-2.53,3.24-2.07-.1,.56-.14,1.12-.31,1.63-.6,1.84-2.69,3.95,.23,5.34,2.45,1.17,4.7-.08,6.33-2.04,1.09-1.31,1.54-3.24,3.54-3.4,2.24,2.14-4.25,5.78,1.49,7.19,3.05,.75,5.46-1.01,8.1-1.9-.87,3.86-4.42,5.58-9.08,4.14-3.11-.96-5.95-3.06-9.5-1.58-.57,.24-1.79,.02-2.11-.43-2.95-4.04-8.57-1.86-11.8-5.19-.93-.96-1.97-.1-2.92,.19-1.93,.58-3.87,.73-5.63-.36-2.81-1.73-5.72-3-9.31-2.92Z"/>
  <path d="M335.67,162.83c-6.77-.27-11.18-4.75-10.83-10.98,.35-6.1,5.22-11.14,10.63-10.99,5.89,.17,11.44,5.64,11.24,11.08-.24,6.48-4.96,11.14-11.05,10.89Z"/>
  <path d="M270.78,131.58c-.05-6.09,4.12-11.17,9.24-11.26,6.23-.12,11.71,5.35,11.69,11.68-.01,5.15-5.17,10.44-10.27,10.54-5.79,.11-10.62-4.84-10.66-10.96Z"/>
</svg>