<?xml version="1.0" encoding="UTF-8"?>
<svg id="Layer_1" data-name="Layer 1" xmlns="http://www.w3.org/2000/svg" viewBox="0 0 864 864">
  <path d="M88.43,604.51c-.57-1.31-1.14-2.62-1.96-4.52,6,1.53,5.22-1.11,3.37-4.5-1.39-2.54-2.65-5.14-4.22-8.19,6.5,1.6,11.74,5.02,17.37,7.7-3.87-4.23-8.45-8.48-14-8.84-6.31-.41-8.4-4.79-12.29-8.55,2.45-.98,4.45-.4,6.4-.09,33.3,5.37,50.59,23.23,55.98,57.35,2.25,14.27,1.89,28.81,4.75,43,4.23,20.97,14.31,38.38,32.72,49.71,22.68,13.97,53.55,9.51,75.24-9.95,6.2-5.56,11.38-11.94,15.49-19.23,14-24.86,27.94-49.77,45.01-72.73,1.72-2.32,1.78-3.64-.95-5.26-23.8-14.11-47.65-15.56-71.63-.57-10.57,6.6-19.65,14.82-26.75,25.14-.62,.9-1.36,1.7-2.8,3.48,.5-9.88,.38-18.68-.91-27.4-.83-5.61-1.63-11.24-2.82-16.78-4.31-20.08-22.8-30.04-41.95-22.69-9.86,3.78-18.08,10.06-25.7,17.2-.67,.63-1.08,1.63-2.53,1.58,3.84-14.14,6.32-28.45,7.24-43.02,.65-10.25,.24-20.38-2.14-30.44-2.14-9.02-7.7-13.77-16.75-15.16-17.48-2.67-33.36,2.46-48.84,9.67-2.48,1.16-4.88,2.51-7.85,3.36,2.06-2.52,4.12-5.04,6.19-7.55,12.6-15.3,24.34-31.17,33.16-49.04,4.64-9.39,6.14-19,3.52-29.24-2.32-9.07-8.05-14.55-17.02-16.8-8.62-2.17-17.37-1.9-26.12-1.34-3.99,.26-7.97,.62-13.34,1.04,4.22-3.63,7.72-5.82,11.39-7.74,30.65-16.04,63.42-20.08,97.33-16.5,50.87,5.36,89.45,31.06,118.42,72.43,15.48,22.11,27.41,46.27,40.54,69.74,6.1,10.91,14.03,20.24,24.81,26.86,5.55,3.41,5.72,3.42,8.38-2.41,8.74-19.21,15.61-39.11,21.42-59.39,7.51-26.19,12.97-52.88,19.44-79.32,1.13-4.6-1.04-4.73-4.25-5.03-22.99-2.1-45.11-7.34-65.33-18.96-32.87-18.89-50.16-47.69-54.07-85.07-2.04-19.47-.69-38.87,.36-58.3,.58-10.68,.66-21.39,1.06-32.09,.11-3.02-.81-4.86-3.65-6.55-24.44-14.51-45.13-32.97-57.73-58.9-17.4-35.79-18.44-72.35-3.14-109.2,1.81-4.36,4.34-8.37,7.84-11.62,4.28-3.97,7.88-3.59,10.6,1.54,3.11,5.86,5.93,11.9,8.46,18.03,8.77,21.26,21.21,40.06,37.46,56.31,10.33,10.33,22.35,18.14,35.76,23.92,3.68,1.58,6.24,1.48,9.25-1.78,6.62-7.14,14.07-13.46,22.35-18.66,2.63-1.65,3.28-3.39,2.91-6.36-1.79-14.48-3.14-29.02-3.86-43.6-.39-7.95-.4-15.89,1.38-23.71,.39-1.73,.9-3.47,1.67-5.06,3.74-7.77,12.06-9,17.77-2.57,4.34,4.88,7.48,10.59,10.45,16.36,5.79,11.24,11.39,22.58,16.2,34.27,1.44,3.49,2.76,4.75,6.7,3,4.71-2.09,9.76-3.56,14.81-4.66,3.78-.82,4.44-2.43,3.95-6.02-1.13-8.35-1.87-16.75-2.54-25.15-.27-3.38-.17-6.82,.15-10.2,.54-5.86,1.99-11.55,8.46-13.48,6.49-1.94,10.94,2.08,14.46,6.69,7.77,10.16,12.18,22.08,16.91,33.81,3.76,9.32,3.7,9.3,13.85,9.21,6.65-.06,13.33-.3,19.9,.85,3.59,.63,4.45-.57,4.18-4.03-1.2-15.04-3.18-29.98-5.24-44.92-1-7.23-1.83-14.49-.54-21.8,.89-5.04,2.73-9.52,8.01-11.25,5.28-1.73,9.55,.68,13.1,4.35,7.22,7.48,11.63,16.72,15.81,26.06,8.48,18.99,14.78,38.75,20.41,58.72,.93,3.29,2.5,5.26,5.83,6.32,15.11,4.83,28.97,12.15,41.66,21.64,2.2,1.65,3.44,1.86,4.5-1.16,11.52-32.96,13.63-65.53-3.6-97.42-1.73-3.21-4.7-6.73-1.96-10.3,2.72-3.54,6.99-1.69,10.46-.83,23.69,5.88,41.13,20.14,52.99,41.12,15.25,26.96,17.78,55.78,11.41,85.74-2.8,13.17-6.02,26.23-10.2,39.02-1.19,3.64-.91,6.73,.43,10.25,14.12,37,21.75,75.28,22.2,114.92,.2,17.46-1.58,34.65-8.89,50.85-5.36,11.88-13.43,21.09-24.8,27.79-39.99,23.58-83.28,37.2-129,43.76-1.12,.16-2.25,.33-3.37,.51-10.56,1.72-10.69,1.7-11.94,12.57-2.88,25.09-4.07,50.07,3.73,74.69,5.87,18.52,16.77,33.85,29.21,48.33,1.84,2.15,3.73,1.35,5.69,.48,8.04-3.54,14.42-9.23,20.23-15.65,10.18-11.26,17.63-24.44,25.88-37.04,13.06-19.95,25.83-40.12,42.21-57.59,31.05-33.12,69.44-48.27,114.71-46.25,19.16,.86,37.6,4.77,54.94,13.15,6.65,3.21,12.85,7.14,17.51,13.55-5.9-.47-11.79-.96-17.69-1.4-10.05-.75-20.11-1.09-29.99,1.45-12.35,3.18-19,11.29-20.87,23.95-2.03,13.73,.52,26.32,7.19,38.41,7.55,13.69,16.16,26.58,26.48,38.33,3.19,3.64,6.3,7.35,9.24,11.35-7.86-3.64-15.63-7.32-23.83-9.94-10.63-3.4-21.35-5.12-32.56-3.16-8.01,1.4-13.08,5.86-16.1,13.16-5.49,13.27-5.83,27.13-4.78,41.15,1.05,13.94,4.41,27.44,8.46,41.9-5.82-6.14-10.74-11.64-16-16.78-7-6.84-14.83-12.47-23.96-16.33-14.22-6.01-31.71,2.19-36.26,15.91-4.85,14.64-8.72,34.12-8.82,54.07-1.8-.24-1.93-1.94-2.61-3.03-7.51-12.16-16.57-22.88-29.03-30.21-12.98-7.65-25.48-5.88-35.54,5.43-3.68,4.15-5,9.89-3.52,15.45,5.68,21.29,10.99,42.71,17.66,63.69,6.9,21.73,.48,39.81-12.67,56.63-7.24,9.26-16.19,16.76-25.62,23.73-4.55,3.36-5.11,6.07-2.83,11.27,2.94,6.7,8.72,10.3,14.93,13.27,8.25,3.94,16.03,8.5,22.59,14.96,3.15,3.11,5.84,6.54,7.46,10.69,1.76,4.51,1,5.67-3.69,5.45-3.07-.14-6.15-.49-9.19-.93-2.69-.4-5.46-1.44-6.51,2.45-.1,.36-.7,.68-1.13,.83-2.45,.84-13.7-3.7-15.11-6.16-2.59-4.52-6.11-8.09-10.61-10.79,3.11,6.6,6.59,12.89,8.26,20.05,.94,4.03-.31,5.24-3.96,5.61-15.21,1.54-29.72-.06-42.5-9.37,0,2.3,.19,4.56-.04,6.78-.65,6.51-3.47,8.26-9.51,5.88-7.67-3.02-13.67-8.55-20.19-13.38-6.34-4.7-8.06-10.4-7.33-18.07,1.17-12.28,3.21-24.43,4.84-36.63,.35-2.65,.45-4.02-3.01-3.02-26.47,7.61-53.03,14.9-79.82,21.34-.57,.14-1.09,.46-1.48,1.57,2.22,0,4.44-.11,6.65,.02,17.9,1.01,30.79,10.06,39.54,25.25,3.33,5.78,2.6,6.65-4.01,6.93-1.62,.07-3.24,.09-4.86,.22-6.89,.54-13.44,.98-16.15-7.82-.98-3.19-4.06-5.66-8.42-7.64,4.52,6.32,7.89,12.09,9.71,18.66,.87,3.15,.2,4.29-3.29,4.11-5.51-.29-10.99-.66-16.44-1.57-2.23-.37-3.24-1.29-3.6-3.67-.88-5.87-3.58-10.9-8.04-15,2.58,7.68,4.83,15.26,4.49,23.55-.21,5.18-2.37,6.12-6.83,6.05-10.26-.16-19.37-3.43-27.73-9.19-1.48-1.02-2.78-3.2-5.04-1.69-1.91,1.28-2.44,3.34-2.4,5.56,.02,.81-.05,1.63,.04,2.43,.46,4.14-1.62,4.65-5.03,3.76-10.08-2.62-18.96-7.36-26.74-14.32-4.03-3.61-6.03-7.93-6.05-13.25-.02-4.54-.24-9.1,.08-13.62,.24-3.45-1.09-4.05-4.17-3.8-14.38,1.16-28.78,2.18-43.18,3.16-28.62,1.95-56.74-.13-83.61-11.19-43.65-17.96-68.11-51.17-76.44-96.95-3.36-18.47,.61-36.47,4.41-54.41,.91-4.28,2.17-8.48,3.11-12.75,.92-4.14,3.59-8.52-1.98-11.82-1.52-.9-1.66-3.42-1.96-5.36-1.28-8.32-2.55-16.64-3.82-24.97,8.91,3.23,15.9,9.46,23.29,15.13-3.84-6.44-8.68-11.82-15.39-15.08-2.39-1.16-5.25-2.9-7.79,.11Zm228.28-314.03c-.21,32.38,15,54.69,40.54,62.52,21.07,6.46,41.16,3.11,60.81-6.37,11.38-5.49,18.8-12.8,18.1-26.21-.03-.64,.2-1.28,.25-1.93,1.88-28.82-5.05-54.8-25.74-75.79-24.69-25.04-64.35-20.12-82.55,9.93-7.74,12.78-11.25,26.79-11.39,37.85Zm324-21.86c-.13-1.94-.22-5.34-.61-8.72-2.11-18.19-9.47-33.43-26.02-42.6-13.12-7.27-27.45-9.58-42.33-7.3-11.7,1.8-20.64,8.1-27.19,17.85-4.56,6.79-7.65,14.25-9.65,22.15-5.17,20.42-3.04,40.6,.51,61.12,2.61,15.1,10.81,21.77,24.73,24.61,23.5,4.79,45.01,1.92,62.54-15.75,13.59-13.7,17.63-31.24,18.03-51.38Zm-219.75,303.33h.44c0,5.02,.15,10.04-.05,15.05-.14,3.55,1.22,5.53,4.54,6.95,25.77,11.03,52.18,13.06,79.35,6.27,3.33-.83,4.55-2.38,4.84-5.94,1.11-13.36-3.29-25.53-7.26-37.86-.99-3.06-2.08-3.75-5.43-2.96-24.44,5.81-48.97,7.11-73.43,.09-2.66-.76-3.06,.09-3.03,2.36,.07,5.34,.02,10.69,.02,16.03Zm87.11,33.95c-1.51,.27-2.28,.36-3.03,.56-25.49,6.63-50.7,5.64-75.63-2.78-7.61-2.57-7.63-2.65-7.12,5.57,.37,6-.82,12.9,1.77,17.74,2.79,5.21,9.55,7.97,15.09,11.04,5.54,3.07,9.17,7.57,11.04,13.59,1.35,4.33,2.9,8.61,3.25,13.18,.17,2.24,.97,3.96,2.88,5.3,16.29,11.4,33.99,18.87,54.17,18.98,9.76,.05,8.67,1.17,10.25-8.45,.45-2.72,1.04-5.42,1.31-8.16,.6-6.15,1.41-12.31,.65-19.55-3.73,5.74-6.06,11.14-10.47,15.11-3.28,2.95-6.69,4.73-10.93,2.28-1.78-1.03-2.48-.45-3.33,1.13-2.01,3.72-5.36,4.55-9.15,3.48-4.19-1.18-5.77-4.3-5.75-8.5,.02-4.22,1.2-8.24,2.37-12.76-2.46,1.75-2.78,4.13-3.87,6.02-1.36,2.33-2.98,4.24-5.73,4.87-5.68,1.3-10.43-2.84-9.88-9.32,.94-11.18,6.32-19.93,15.87-25.92,4.11-2.58,8.6-4.58,12.59-7.32,5.75-3.94,10.52-8.87,13.64-16.08Zm-102.05,74c2.1,8.23,3.49,16.21,10.72,22.11,26.79,21.84,57.02,27.01,90.08,19.67,1.71-.38,2.84-1.2,3.52-2.91,2.58-6.48,4.56-13.14,6.47-19.84,.78-2.73-.08-3.33-2.71-3.27-3.71,.09-7.46,0-11.16-.42-17.5-1.94-33.7-7.7-48.71-16.9-1.07-.65-2.85-2.66-3.56-.58-1.98,5.81-5.18,8.74-11.52,6.82-.11-.03-.28,.14-.42,.21-7.96,3.51-9.15,3.01-13.06-4.98-1.8-3.68-2.89-7.76-5.8-11.17-3.56,12.77-4.16,13.26-13.86,11.26Zm98.09,49.95c-.8-.22-1.11-.4-1.4-.37-1.13,.1-2.26,.22-3.38,.41-28.86,4.96-55.28-1.74-79.97-16.74q-6.22-3.78-6.8,3.45c-.01,.13-.45,.23-.73,.36-4.1-9.89-9.37-19.09-16.34-27.26,.26,1.47,.82,2.77,1.45,4.04,3.74,7.55,7.73,15.03,9.65,23.28,1.64,7.05,4.51,14.12,.31,21.45-1.87,3.27-.83,6.07,2.61,8.56,16.84,12.22,35.73,18.71,56.24,20.94,.94,.1,2.11,.24,2.85-.2,7.22-4.23,13.09-10.05,18.99-15.95-9.56,1.34-18.92,2.07-28.3,1.36-15.48-1.17-30.45-4.32-43.97-12.5-2.3-1.39-4.17-3.41-2.49-5.91,1.64-2.43,3.48,.32,4.8,1.11,22.58,13.57,46.9,15.79,72.29,11.41,1.66-.29,3.14-.84,4.2-2.19,3.67-4.7,7.36-9.39,10.01-15.26Zm-40.48-175.98c11.26,.18,22.28-1.57,33.26-3.89,2.81-.59,3.36-1.59,2.48-4.27-2.34-7.07-4.59-14.19-6.53-21.38-.77-2.87-2.28-2.98-4.59-2.56-21.01,3.77-41.95,3.46-62.76-1.4-2.87-.67-3.84-.04-3.88,2.81-.08,6.16-.14,12.33-.51,18.48-.19,3.16,1.09,4.49,3.94,5.59,12.44,4.82,25.34,6.67,38.58,6.62Zm1.35-34.76c7.3,0,14.58-.39,21.8-1.52,1.78-.28,4.15-.18,3.38-3.34-2-8.19-3.41-16.5-4.33-24.88-.28-2.52-1.53-2.65-3.63-2.44-18.53,1.85-36.91,1.5-54.85-4.19-3.06-.97-3.66,.41-3.81,2.92-.41,6.79-.64,13.61-1.39,20.36-.47,4.25,1.41,6.06,5.07,7.38,12.23,4.42,24.89,5.73,37.76,5.7Zm2.73-36.34c4.55,.02,9.07-.32,13.59-.85,2.8-.33,3.88-1.33,3.67-4.33-.52-7.62,0-15.24,1.2-22.78,.62-3.89-.38-4.7-4.27-3.98-16.69,3.11-33.25,2.56-49.37-3.19-2.91-1.04-3.63-.1-4.03,2.48-.98,6.24-1.98,12.48-3.22,18.67-.62,3.1,.36,4.66,3.22,5.95,12.49,5.67,25.65,7.81,39.23,8.02Zm-3.6,288.46c-4.91-1.01-8.35-1.6-11.74-2.42-17.07-4.12-33.69-9.32-47.62-20.66-2.09-1.7-2.45,.05-3.04,1.26-1.78,3.63-3.28,7.41-5.25,10.93-1.51,2.7-.86,4.14,1.49,5.95,10.81,8.34,23.09,12.4,36.46,14.68,11.63,1.98,19.44-4.63,29.7-9.74Zm-.04-323.5c7.77,.04,14.21-.51,20.54-1.98,2.73-.63,5.89-7.3,4.66-10.44-1.17-2.98-3.95-1.22-5.84-.99-13.47,1.64-26.47-.33-39.11-4.91-9.68-3.51-9.5-3.6-12.52,6.56-.95,3.2-.18,4.63,2.8,5.83,9.88,4.01,20.07,6.16,29.47,5.93Zm-193.76,46.12c-13.97,.48-27.35,3.44-40.31,8.26-20.28,7.55-38.86,17.79-53.3,34.39-5.58,6.41-9.16,13.28-9.67,18.35,27.05-33.02,61.75-52.8,103.28-61Zm267.68,161.96c24.01-17.48,21.69-57.75-.64-88.54,14.25,29.38,18.93,58.8,.64,88.54Zm-55.66-482.39c6.33,0,11.39-4.19,11.45-9.48,.07-5.67-5.57-10.5-12.29-10.54-5.96-.04-11.1,4.17-11.23,9.19-.14,5.67,5.62,10.84,12.07,10.84Zm-12.39-59.35c-5.9,.12-10.99,4.68-10.78,9.65,.22,5.21,6.02,9.77,12.14,9.54,5.67-.21,10.5-4.59,10.44-9.46-.07-5.45-5.43-9.86-11.8-9.73Zm140.34,485.74c1.22,.03,1.49-.79,1.87-1.48,3.95-7.15,4.38-14.89,3.29-22.69-2.75-19.63-11.39-36.64-23.72-51.93-.36-.45-.74-1.12-1.66-.6,15.31,23.3,22.39,48.8,20.22,76.69ZM451.42,186.24c5.35-.04,9.71-4.3,9.65-9.42-.07-5.31-4.9-9.58-10.78-9.52-5.47,.05-9.82,4.24-9.67,9.33,.15,5.21,5.15,9.66,10.81,9.62Zm-17.49,597.94c-14.29-2.7-27.98-6.28-39.61-15.28-1.34-1.04-2.42-.96-3.12,.52-.75,1.57-3.04,2.99-.95,5.05,1.49,1.47,3.01,2.95,4.72,4.13,7.2,5.01,15.46,7.1,23.92,8.82,5.64,1.14,10.26-1.11,15.04-3.24Zm240.01-232.86c-2.68-20.13-42.73-48.4-66.11-46.84,26.78,9.12,49.17,23.76,66.11,46.84Zm-237.76-184.06c7.13,12.29,30.46,21.49,49.11,18.94,14.14-1.93,25.33-8.58,32.03-21.49-26.26,26.28-53.45,21.41-81.14,2.54Zm3.9-231.52c5.5-.06,10.42-4.37,10.21-8.96-.21-4.53-5.33-8.54-10.78-8.44-5.53,.11-10,4.02-9.84,8.62,.17,4.83,4.92,8.84,10.4,8.78Zm-169.04,73.49c14.83,.93,24.41-5.9,31.59-17.11,7.26-11.33,9.7-29.29,4.92-36.01-2.97,31.65-9.48,41.28-36.5,53.12Zm215.05-18.91c.09-5.1-4.28-9.36-9.67-9.43-4.99-.06-9.54,3.85-9.64,8.27-.11,4.95,4.4,9.32,9.74,9.42,5.13,.1,9.49-3.66,9.57-8.26Zm-27.6-33.33c5.17-.06,9.37-3.53,9.46-7.82,.1-4.94-4.79-9.14-10.61-9.1-5.24,.03-9.03,3.45-8.99,8.11,.04,5.11,4.39,8.88,10.15,8.82Zm-32.62,10.25c4.64-.12,8.38-3.82,8.37-8.29-.01-4.94-4.77-9.13-10.09-8.89-4.79,.22-8.71,3.93-8.57,8.1,.16,4.57,5.41,9.21,10.29,9.08Zm-44.92-26.93c5.44-.02,9.78-3.64,9.69-8.09-.08-4.21-4.38-7.71-9.52-7.75-5.32-.04-9.52,3.23-9.62,7.51-.1,4.54,4.21,8.34,9.44,8.33Zm-87.82,381.23c-18.76,7.09-49.64,42.25-44.38,64.5,6.96-26.37,21.48-47.54,44.38-64.5Zm54.58,78.25c10.17-16.45,19.79-33.3,27.73-51.05-15,13.84-22.92,31.55-27.73,51.05Zm101.8-174.58c-.03,.42-.06,.84-.09,1.26,3.04,1.03,6.05,2.16,9.13,3.07,9.62,2.85,19.4,2.69,29.27,1.65,3.4-.36,2.84-2.92,3.32-4.96,.43-1.85-.68-2.19-2.21-2.08-13.12,.89-26.24,1.66-39.42,1.06Zm-56.52-278.33c-4.32-.08-7.37,2.58-7.54,6.56-.2,4.77,4.73,9.81,9.57,9.78,4.34-.02,7.8-3.04,7.93-6.92,.15-4.56-4.89-9.34-9.95-9.43Zm24.41,2.18c5.29-.05,9.01-3.24,8.86-7.58-.15-4.43-4.22-7.7-9.53-7.66-5.06,.04-9.15,3.5-8.99,7.6,.17,4.24,4.53,7.69,9.66,7.64Zm102.41,18.17c-.11-3.74-4.5-6.97-9.2-6.77-4.18,.18-7.61,3.51-7.59,7.35,.02,4.05,4.17,7.58,8.67,7.38,4.66-.2,8.26-3.73,8.13-7.97Zm-243.95-26.44c-4.54,17.83-7.43,35.84-25.77,45.35,16.05,2.5,29.16-24.88,25.77-45.35Zm246.48,7.37c2.53,0,5.93-.45,6.88-4.33,.9-3.65-1.89-5.58-4.6-7.19-2.76-1.64-5.81-1.9-8.94-1.45-2.27,.33-3.95,1.5-4.7,3.69-.78,2.26,.19,4.11,1.72,5.73,2.38,2.51,5.39,3.48,9.64,3.56Zm-89.58,50.8c4.26,.08,7.83-3.09,7.8-6.92-.04-4.23-4.18-8.2-8.57-8.24-3.95-.03-7.31,3-7.48,6.74-.2,4.31,3.75,8.33,8.26,8.41Zm111.7-84.25c-4.77-.02-8.58,2.99-8.55,6.78,.03,3.86,3.82,6.85,8.57,6.76,4.63-.08,8.2-2.9,8.32-6.55,.12-3.89-3.56-6.98-8.34-7Zm-84.98,89.24c-.04-4.27-3.87-7.85-8.32-7.78-4.01,.06-7.4,3.25-7.37,6.91,.03,4.11,4.03,8.08,8.19,8.13,4.19,.04,7.54-3.21,7.5-7.26Zm-56.84-75.21c4.67,.07,7.87-2.58,8.02-6.64,.16-4.18-3.24-7.34-7.92-7.35-4.45-.01-8,2.9-8.13,6.69-.15,4.07,3.33,7.23,8.03,7.3Zm-4.87,665.9c-5.97-2.57-11.24-4.61-15.93-7.76-1.41-.95-2.32-.73-3.2,.58-1.99,2.95-3.91,5.94-4.91,9.4-.64,2.2-.21,3.49,2.53,2.85,6.89-1.62,13.97-2.46,21.51-5.06ZM495.47,140.47c4.66-.07,7.72-2.6,7.55-6.26-.16-3.64-4.17-6.75-8.65-6.7-3.99,.04-7.7,3.18-7.71,6.52-.01,3.53,4.06,6.51,8.81,6.43ZM184.89,776.9c4.23,.02,7.06-2.49,7.02-6.25-.04-4.22-3.71-7.68-8.26-7.78-4.05-.09-6.96,2.55-6.94,6.31,.02,4.41,3.49,7.69,8.17,7.71ZM509.86,194.01c.04-4.15-3.47-7.53-7.81-7.52-3.98,.01-6.9,2.79-6.88,6.54,.02,3.96,3.35,7.39,7.33,7.55,4.24,.17,7.33-2.58,7.37-6.57Zm-94.11,595.54c-5.5-1.06-10.16-2.29-14.71-3.92-4.56-1.64-9.03-3.46-12.9-6.46-1.29-1-2.3-.76-3.31,.43-1.46,1.72-.35,2.93,.72,4.19,6.38,7.49,20.31,10.36,30.2,5.76ZM237.92,164.35c10.58,.39,26.13-23.87,27.33-41.47-7.47,15.39-14.72,29.83-27.33,41.47Zm261.97,52.19c-.05-3.94-4.03-7.6-8.08-7.44-3.6,.15-6.46,3.1-6.39,6.58,.08,3.88,3.68,7.18,7.74,7.11,3.74-.07,6.78-2.89,6.73-6.24Zm145.18-71.39c-8.79,.66-17.11-.71-25.05-4.56-7.9-3.83-13.85-10.24-21.55-16.44,13.6,20.15,33.19,28.81,46.61,21Zm-116.41,652.97c-13.25,1.98-26.65,2.56-39.93,4.17,13.86,4.08,27.26,3.61,39.93-4.17Zm-41.64-527.02c3.87,.1,7.14-2.51,7.11-5.66-.03-3.39-3.63-6.64-7.51-6.79-3.86-.15-6.96,2.36-7.03,5.69-.07,3.48,3.42,6.65,7.43,6.76Zm-63.29-159.26c3.81,.18,7-2.29,7.19-5.58,.2-3.55-3.23-6.98-7.07-7.05-3.71-.08-6.72,2.54-6.86,5.97-.14,3.65,2.72,6.48,6.74,6.67Zm49.89,108.23c3.55,.09,6.95-2.88,6.71-6.21-.27-3.73-2.46-5.9-6.25-6.17-3.88-.27-6.82,2.3-6.9,5.89-.08,3.65,2.64,6.38,6.44,6.48ZM106.46,740.54c3.44,.06,6.36-2.66,6.37-5.93,0-3.48-2.95-6.6-6.49-6.5-3.57,.1-5.67,2.18-6.04,5.71-.36,3.47,2.69,6.66,6.16,6.72Zm101.44,43.05c4.01-.08,6.18-2.06,6.45-5.85,.25-3.5-2.65-6.62-6.1-6.83-3.39-.21-6.35,2.79-6.19,6.52,.16,3.74,2.13,5.91,5.83,6.16ZM473.42,263.48c.07-3.74-2.91-6.74-6.55-6.75-3.6,0-5.84,1.79-6.17,5.45-.33,3.65,2.91,6.87,6.71,6.7,3.59-.16,5.61-2.14,6.02-5.4Zm-7.61-158.32c2.42-.27,5.63-.22,6.06-4.15,.33-3.1-3.59-5.89-8.09-5.89-3.12,0-5.96,.81-6.34,4.48-.3,2.85,3.68,5.48,8.38,5.57ZM254.34,749.39c-3.65,.06-6.61,3.07-6.27,6.3,.37,3.54,2.6,5.44,6.11,5.53,3.5,.1,6.48-2.76,6.18-5.94-.36-3.76-2.7-5.62-6.02-5.88Zm-119.56-.64c4.01,.01,6.6-2.54,6.4-6.07-.22-3.85-2.51-5.79-6.22-5.99-3.46-.19-6.16,2.58-5.97,6.07,.2,3.85,2.51,5.69,5.79,5.99Zm132.81-30.63c-3.09,.37-5.51,1.92-5.58,5.39-.07,3.62,1.68,6.36,5.64,6.63,3.7,.25,5.96-1.85,6.04-5.46,.08-3.72-2.13-5.95-6.1-6.55Zm-26.33,21.08c.41,3.62,2.05,6.16,6.03,6.21,3.64,.04,5.83-1.89,5.87-5.59,.04-3.78-1.93-6.12-5.84-6.27-3.79-.15-5.41,2.25-6.05,5.66Zm-106.25-25.83c-.49-3.45-2.42-5.74-5.95-5.69-3.64,.05-5.58,2.52-5.35,6.04,.21,3.19,2.11,5.46,5.56,5.45,3.64,0,5.48-2.18,5.74-5.8Zm147.7-25c.5,3.42,2.61,5.39,5.85,5.34,3.45-.06,5.95-2.2,5.86-5.8-.09-3.55-2.51-5.64-6.07-5.57-3.71,.07-5.31,2.57-5.64,6.04Zm125.17-505.24c2.83,.06,5.31-2.24,5.47-5.08,.18-3.08-2.93-6.45-6.09-6.36-3.21,.09-5.11,1.93-5.41,5.11-.3,3.21,2.71,6.26,6.03,6.33Zm104.86,51.58c3.16-.31,5.45-2.06,5.43-5.42-.02-3.56-2.33-5.62-5.94-5.6-3.34,.02-5.6,1.71-5.6,5.27,0,3.77,2.49,5.29,6.11,5.76Zm-51.75-7.03c-3.21,.07-5.13,1.97-5.14,5.09-.01,3.48,2.62,5.95,6.25,5.78,3.19-.15,5.12-1.84,5.29-5.07,.17-3.14-2.98-5.88-6.4-5.81Zm33.75-125.39c-3.34,.3-6.04,1.66-6.1,5.12-.06,3.58,2.45,5.61,5.95,5.69,3.34,.07,5.66-1.78,5.68-5.26,.03-3.51-2.5-4.96-5.53-5.55ZM160.01,746.76c3.3-.33,5.42-2.08,5.3-5.54-.12-3.46-1.99-5.9-5.68-5.82-3.32,.07-5.44,2.08-5.41,5.52,.03,3.59,2.12,5.54,5.79,5.84Zm-33.39-59.89c-3.36,.32-5.34,2.11-5.21,5.64,.13,3.4,1.95,5.54,5.48,5.46,3.46-.07,5.39-2.09,5.34-5.58-.05-3.51-2.15-5.2-5.61-5.52Zm-22.06,7.81c.29,3.47,2.02,5.64,5.48,5.55,3.17-.08,5.06-2.08,5-5.34-.06-3.34-2.01-5.67-5.25-5.86-3.58-.2-4.8,2.58-5.23,5.65ZM355.88,128.64c3.43-.21,5.7-1.85,5.76-5.26,.05-3.22-2.1-5.04-5.23-5.06-3.11-.02-5.26,1.75-5.37,4.96-.1,3.14,1.66,5.05,4.84,5.36Zm-84.82,609.96c-2.79,.32-4.94,1.62-5.06,4.69-.13,3.32,1.61,5.67,5.03,5.87,3.1,.18,5.29-1.51,5.41-4.82,.12-3.49-2.06-5.14-5.38-5.74ZM519.57,206.22c2.97-.08,5.43-1.2,5.81-4.49,.38-3.28-1.67-5.24-4.7-5.71-3.23-.49-5.32,1.35-5.79,4.48-.5,3.33,1.49,5.04,4.68,5.72Zm28.41-51.6c1.53-.15,3.12-.09,3.73-1.78,.5-1.39-.28-2.55-1.18-3.47-2.52-2.57-5.62-3.7-9.21-3.29-1.31,.15-2.58,.66-3.04,2.04-.56,1.67,.48,2.79,1.69,3.65,2.42,1.7,5.12,2.69,8.01,2.85Zm18.91-29.27c-2.43,.05-4.94,.14-5.36,2.67-.47,2.81,2.03,3.79,4.24,4.41,2.97,.84,6.04,1.57,8.8-.59,1.08-.84,.92-2.1,.21-3.06-2.01-2.75-5.01-3.28-7.89-3.43ZM289.85,718.89c-2.95,.39-4.98,1.98-4.81,5.29,.17,3.24,2.19,4.98,5.39,4.82,2.99-.15,4.75-2.08,4.74-5.02,0-3.2-1.85-4.98-5.33-5.08Zm111.09,22.61c2.36-12.92-3.26-23.85-8.43-34.9,3.72,11.41,6.07,23.16,8.43,34.9Zm-241.49,17.6c-2.88,.34-4.86,1.76-4.96,4.81-.11,3.17,1.61,5.38,4.77,5.46,3.04,.07,5.19-1.71,5.27-5,.08-3.32-1.99-4.82-5.08-5.27Zm-35.44-4.47c-2.92,.3-4.82,1.9-4.83,4.93,0,3.09,1.58,5.37,4.93,5.4,3.26,.03,5.06-2.03,5.21-5.17,.16-3.47-2.23-4.69-5.32-5.15Zm103.75-9.4c-3.36,.02-5.19,1.68-5.39,4.66-.21,3.2,1.56,5.4,4.77,5.6,3.12,.19,5.35-1.45,5.4-4.85,.05-3.27-1.86-4.99-4.78-5.4ZM657.61,119.29c-13.53-.4-26.77-3.07-40.09-4.92,13.25,2.74,26.07,9.01,40.09,4.92ZM140.49,725.27c.24,3.05,1.81,5.18,5.11,5.11,2.75-.06,4.61-1.81,4.56-4.65-.05-3.16-1.91-5.26-5.14-5.24-2.74,.02-4.42,1.73-4.53,4.78Zm61.87,76.12c2.86-.3,4.61-1.79,4.68-4.6,.07-3.05-1.71-4.81-4.71-4.92-3.05-.11-4.93,1.52-4.83,4.65,.1,3.01,2.02,4.53,4.87,4.87Zm-20.42-4.38c-2.84,.34-4.83,1.81-4.97,4.85-.14,3.12,1.79,4.82,4.76,4.95,2.87,.12,4.63-1.71,4.74-4.44,.12-2.84-1.28-4.95-4.53-5.36Zm46.79-14.94c-.11-3.19-1.92-4.95-4.8-5.07-2.92-.12-4.98,1.54-4.99,4.66,0,2.96,1.61,4.92,4.72,4.96,2.99,.04,4.78-1.56,5.07-4.55ZM476.51,248.61c2.75-.24,4.7-1.56,4.68-4.45-.01-3.18-2.36-4.55-5.14-4.56-2.82,0-5.16,1.39-4.92,4.64,.23,3.07,2.45,4.29,5.38,4.36Zm-180.44,453.74c-2.72,.34-4.81,1.77-4.8,4.83,0,3.07,2.2,4.69,5.05,4.84,2.82,.15,4.57-1.49,4.59-4.43,.02-3.03-1.63-4.75-4.84-5.24ZM489.5,243.6c.45,2.93,2.16,4.52,5.1,4.74,3.02,.23,5.18-1.07,5.26-4.18,.07-2.81-2.06-4.33-4.66-4.56-2.81-.25-4.97,.93-5.7,4Zm-87.56,395.1c-7.27-9.26-15.48-17.77-20.3-28.72,2.45,12.61,10.05,21.63,20.3,28.72Zm126.01-465.46c-2.61,.23-5.14,.99-5.34,3.9-.23,3.31,2.53,4.32,5.2,4.51,2.56,.19,5.17-.75,5.29-3.71,.14-3.15-2.46-4.19-5.15-4.7ZM143.41,786.46c3.43-.07,4.89-1.92,4.9-4.62,0-3.09-1.99-4.67-5.04-4.57-2.63,.09-4.26,1.53-4.21,4.26,.06,3.01,1.63,4.77,4.35,4.92Zm133.36-88.04c-3.03,.23-4.82,1.64-4.73,4.57,.09,2.98,1.66,4.91,4.84,4.79,2.77-.11,4.68-1.57,4.61-4.51-.07-3.01-1.85-4.67-4.72-4.86Zm-68.51,52.95c-.02-2.93-1.57-4.59-4.33-4.91-2.86-.33-4.77,1.08-4.92,4.02-.14,2.73,1.19,4.78,4.14,4.95,2.75,.15,4.59-1.21,5.1-4.05Zm-65.24,18.55c2.95-.14,4.69-1.57,4.89-4.44,.22-3.13-1.8-4.37-4.54-4.44-2.61-.07-4.37,1.3-4.53,4.02-.16,2.9,1.44,4.47,4.17,4.87Zm16.88,20.66c-2.56,.43-4.33,1.71-4.32,4.42,.01,2.9,1.81,4.64,4.58,4.57,2.44-.07,4.29-1.54,4.27-4.33-.02-2.96-1.79-4.32-4.53-4.65Zm99.93-8.41c2.58-.31,4.23-1.7,4.2-4.33-.03-2.79-1.58-4.49-4.52-4.45-2.67,.04-4.28,1.55-4.26,4.16,.02,2.81,1.85,4.26,4.58,4.62Zm-148.42-66.89c-.34-2.58-1.68-4.53-4.53-4.55-2.58-.03-4.32,1.7-4.42,4.2-.12,2.79,1.67,4.5,4.49,4.61,2.7,.1,4.02-1.6,4.47-4.26ZM517,118.88c2.67-.27,4.48-1.53,4.42-4.26-.06-2.82-1.87-4.51-4.63-4.65-2.67-.14-4.34,1.35-4.3,4.11,.04,2.89,1.96,4.23,4.51,4.81Zm-72.88-16.9c2.39-.5,4.34-1.65,4.28-4.33-.07-2.87-2.01-4.3-4.78-4.19-2.58,.1-4.31,1.74-4.35,4.23-.04,2.93,2.22,3.95,4.85,4.29Zm-15.68-14.27c-2.41,.35-4.47,1.26-4.51,4.08-.04,2.95,1.83,4.43,4.61,4.5,2.7,.07,4.29-1.57,4.32-4.19,.03-2.73-2-3.83-4.42-4.39ZM222.51,799.85c-2.55,.33-4.42,1.62-4.54,4.23-.11,2.55,1.37,4.46,4.02,4.61,2.8,.15,4.69-1.39,4.74-4.34,.05-2.71-1.71-4.02-4.22-4.5ZM373.6,157.14c-2.6,.37-4.36,1.64-4.11,4.38,.27,2.92,2.44,4.04,5.07,3.93,2.32-.09,4.02-1.41,3.83-3.96-.21-2.85-2.19-4.05-4.79-4.35ZM175.88,745.36c-3.01,.07-4.23,1.79-4.16,4.37,.07,2.52,1.32,4.44,4.11,4.33,2.6-.11,4.12-1.76,4.14-4.39,.02-2.74-1.74-3.95-4.1-4.3Zm68.21,32.16c-.34-2.37-1.69-3.99-4.36-4.1-2.76-.11-4.25,1.48-4.34,4.11-.09,2.69,1.51,4.26,4.16,4.32,2.66,.06,4.11-1.52,4.53-4.33ZM505.77,99.63c1.85-.2,4.75,.34,4.88-2.42,.16-3.2-2.88-3.99-5.46-4.38-2.16-.33-4.74,.06-4.76,2.76-.02,2.94,2.58,3.75,5.33,4.03ZM133.85,672.39c-.46-2.39-1.65-4.03-4.17-3.9-2.37,.12-4.04,1.46-3.97,3.95,.08,2.57,1.43,4.27,4.3,4.02,2.48-.21,3.65-1.74,3.84-4.07Zm111.72,122.15c-.35-2.4-1.7-3.87-4.18-3.79-2.47,.07-3.98,1.54-3.83,4.04,.15,2.42,1.82,3.89,4.17,3.92,2.51,.02,3.65-1.74,3.84-4.16Zm-138.59-124.53c-.34-2.38-1.84-3.75-4.17-3.77-2.48-.03-3.86,1.62-3.79,4.01,.07,2.44,1.72,3.87,4.08,3.82,2.37-.05,3.78-1.5,3.89-4.06ZM379.35,111.32c-.42-2.51-2.05-3.58-4.45-3.47-2.17,.1-4.03,1.24-3.93,3.45,.1,2.37,1.98,3.69,4.41,3.52,2.07-.15,3.72-1.09,3.97-3.5Zm59.54,108.59c-1.85,.54-3.58,1.45-3.28,3.89,.3,2.44,2.15,3.65,4.4,3.78,2.03,.11,3.51-1.25,3.45-3.28-.07-2.6-1.77-4.03-4.57-4.38Zm72.67,39.63c-.32-2.38-1.71-3.71-4.13-3.74-2.14-.03-3.97,.85-3.9,3.23,.07,2.37,1.75,3.74,4.08,3.92,2.28,.17,3.5-1.2,3.95-3.41Zm-210.89,418.11c-.44-1.95-1.41-3.75-3.98-3.68-2.37,.06-3.39,1.73-3.34,3.88,.05,2.19,1.24,3.67,3.58,3.65,2.24-.02,3.51-1.28,3.74-3.85ZM534.84,100.66c-.51-2.17-1.93-3.31-4.1-3.46-2.1-.14-4.16,.37-4.39,2.77-.23,2.46,1.76,3.24,3.85,3.4,2.11,.16,3.82-.53,4.64-2.72ZM121.96,653.1c-2.2,.37-3.68,1.48-3.59,3.84,.09,2.32,1.55,3.66,3.79,3.51,1.94-.13,3.24-1.45,3.32-3.54,.09-2.39-1.31-3.49-3.52-3.8Zm243.88,142.88c-6.11,1.36-11.78,1.12-17.9,1.25,6.06,3.74,12.78,3.3,17.9-1.25ZM107.23,651.76c-1.7,.3-3.3,.97-3.39,3.15-.09,2.26,1.2,3.73,3.39,3.81,2.25,.08,3.53-1.4,3.55-3.63,.02-2.16-1.46-3.01-3.56-3.33ZM483.7,281.22c-.33-2.24-1.84-3.2-3.97-3.16-1.78,.03-3.13,.98-3.14,2.89-.01,2.34,1.55,3.44,3.7,3.49,2,.05,3.29-.99,3.42-3.22Zm-86.27-185.57c-2.06,.28-4.11,.88-3.99,3.28,.09,1.82,1.87,2.44,3.59,2.42,2.13-.02,3.93-.83,3.87-3.23-.05-2.04-1.92-2.23-3.48-2.47Zm-37.36,46.9c1.93-.08,3.24-.92,3.27-2.83,.03-1.79-1-3.08-2.85-3.23-1.76-.14-3.22,.69-3.43,2.56-.25,2.13,1.2,3.1,3.01,3.51Zm-48.9,522.85c-.15-1.77-1-3.09-2.82-3.24-1.91-.15-2.9,1.1-2.98,2.93-.07,1.65,.92,2.81,2.47,2.99,1.8,.21,2.94-.86,3.34-2.68Zm-183.73-24.7c-.16-1.73-1.11-2.76-2.77-2.76-1.89,0-3.09,1.15-2.92,3.05,.14,1.63,1.37,2.52,3.03,2.46,1.71-.06,2.6-1.06,2.66-2.74ZM459.32,285.26c.24,1.65,1.29,2.58,2.87,2.78,1.78,.23,2.78-.77,2.89-2.48,.12-1.79-1.05-2.73-2.67-2.8-1.58-.07-2.79,.72-3.09,2.5Zm42.26,375.15c1.36-3.53,2.25-6.78,2.37-11.04-3.14,3.59-5.09,6.6-2.37,11.04Zm-402.22,28.31c1.43-.07,2.53-.69,2.73-2.15,.24-1.75-.79-2.76-2.46-2.8-1.44-.04-2.39,.85-2.49,2.35-.11,1.55,.82,2.29,2.22,2.6ZM451.48,255.47c1.47-.12,2.51-.81,2.43-2.36-.07-1.43-.98-2.37-2.45-2.47-1.46-.11-2.62,.62-2.69,2.09-.08,1.68,1.09,2.53,2.71,2.74Zm50.4,22.9c-1.54-.02-2.43,.84-2.6,2.25-.18,1.5,.65,2.48,2.17,2.56,1.45,.08,2.53-.68,2.67-2.16,.15-1.51-.86-2.28-2.24-2.65Zm-196.89,398.37c-1.18,.23-2.18,.78-2.24,2.08-.06,1.28,.76,2.14,2.03,2.16,1.41,.02,2.5-.76,2.48-2.27-.02-1.31-1.07-1.82-2.27-1.97Z"/>
  <path d="M336.27,302.33c.72-19.33,8.06-34.52,23.91-44.97,17.11-11.28,39.15-8.6,53.36,6.18,21.99,22.87,16.72,62.42-10.79,78.19-14.52,8.32-29.75,8.79-44.51,.36-15.48-8.85-21.11-23.35-21.97-39.76Zm54.85-40.93c-8.71-.04-15.7,6.73-15.65,15.18,.05,8.15,7.59,14.96,16.61,14.98,8.7,.03,15.59-6.38,15.66-14.57,.08-8.36-7.58-15.54-16.62-15.59Zm19.64,37.93c4.27,.09,8.08-3.04,7.91-6.48-.19-3.88-2.63-5.66-6.33-5.83-4.05-.18-7.63,2.81-7.57,6.44,.07,4.01,2.77,5.45,5.99,5.87Z"/>
  <path d="M533.97,277.28c-.11-13.38,3.39-23.74,9.78-33.02,15.44-22.41,45.7-25.2,65.16-6.2,18.34,17.91,19.24,50.12,1.92,68.97-12.86,14-32.62,18.47-50.33,11.39-16.82-6.72-26.59-22.61-26.52-41.15Zm22.38-21.43c.06,8.73,8.07,16.31,17.27,16.31,8.98,0,16.16-6.79,16.22-15.35,.06-8.83-8.18-16.65-17.53-16.63-8.65,.01-16,7.24-15.95,15.67Zm-2.51,18.88c2.76-.16,4.79-1.17,4.65-4.01-.19-3.62-2.6-5.5-6.02-5.78-2.79-.23-4.93,1.14-4.71,4.18,.26,3.65,2.97,5.08,6.08,5.61Z"/>
</svg>