<?xml version="1.0" encoding="UTF-8"?>
<svg id="Layer_1" data-name="Layer 1" xmlns="http://www.w3.org/2000/svg" viewBox="0 0 864 864">
  <path d="M303.01,820.22c-.3,5.44-.83,9.99-.7,14.51,.11,4-1.78,5.53-5.3,6.55-8.65,2.51-17.42,4.35-26.36,5.23-9.99,.99-20.01,1.72-30.03,2.37-3.63,.23-7.32,.15-10.93-.25-6.28-.7-9.28-3.63-9.1-9.81,.13-4.75-1.55-4.94-5.25-3.73-2.28,.74-4.76,1-7.17,1.22-3.06,.28-4.29-1.07-3.04-4.12,1.33-3.25,2.81-6.44,4.98-9.2,1.95-2.48,1.03-3.37-1.6-3.77-1.2-.18-2.39-.47-3.56-.78-2.16-.56-5.29-.44-5.88-2.65-.52-1.91,2.38-3.21,3.71-4.82,1.84-2.21,4.6-2.86,7.23-3.63,12.7-3.73,25.68-4.77,38.85-4.01,7.87,.45,7.77,.47,5.2-6.76-12.88-36.25-25.5-72.55-34.99-109.93-16.48-64.88-8.02-126.04,24.72-184.15,20.59-36.56,45.37-70.25,70.64-103.61,4.5-5.94,8.71-12.1,13.22-18.03,2.19-2.89,1.33-3.72-1.89-4.09-14.06-1.61-28.15-3.01-42.13-5.11-32.13-4.83-63.72-11.85-93.46-25.45-13.66-6.24-26.17-14.27-36.76-25.06-22.34-22.77-27.97-49.9-19.87-80.02,5.36-19.93,16.54-37.15,28.13-53.98,16.14-23.42,34.42-44.92,56.97-62.5,20.88-16.29,44.5-26.72,70.28-32.32,4.09-.89,6.36-2.43,8.01-6.56,8.42-21.06,17.48-41.83,31.36-60.07,5.75-7.56,12.06-14.49,19.9-19.94,2.52-1.75,5.18-3.21,8.05-4.24,4.55-1.63,7.12-.09,7.57,4.73,.52,5.47,.13,10.95-.51,16.4-2.6,21.98-7.27,43.49-14.63,64.38-1.22,3.46-.48,4.66,3.14,5.25,10.05,1.64,20.07,3.52,30.05,5.58,3.16,.65,4.49-.17,5.74-3.13,6.61-15.69,13.36-31.35,21.91-46.12,12.23-21.15,29.26-37.17,51.41-47.63,4.57-2.16,6.86-.69,6.99,4.43,.08,3.23-.67,6.34-1.29,9.48-6.17,31.3-16.3,61.39-27.79,91.07-2.37,6.11-2.28,6.05,3.27,9.7,4.58,3.01,9.18,6,13.46,9.41,3.13,2.49,4.75,2.56,6.83-1.28,18.75-34.51,46.34-60.34,79.77-80.25,10.07-6,20.94-10.46,32-14.37,.57-.2,1.14-.46,1.73-.57,2.81-.56,6-1.83,8.11,.87,2.12,2.71,.28,5.56-1.21,8.01-13.35,21.97-26.84,43.85-40.13,65.86-11.01,18.23-21.96,36.49-32.39,55.06-1.7,3.02-1.39,4.7,1.18,6.88,3.23,2.74,6.14,5.9,8.99,9.06,1.81,2,3.06,2.42,5.63,.68,24.08-16.26,48.3-32.32,74.32-45.4,3.93-1.98,8.01-3.69,12.15-5.19,2.45-.88,5.29-2.5,7.66,.02,2.13,2.27,.8,4.93,.06,7.35-5.29,17.42-12.9,33.78-22.35,49.32-10.84,17.85-22.77,34.91-36.62,50.58-1.36,1.54-2.4,3.1-2.6,5.17-3.93,40.43-25.13,71.64-52.98,99.33-18.02,17.92-37.96,33.79-55.62,52.11-17.41,18.06-32.39,37.74-39.71,62.07-12.69,42.19-6.75,82.42,14.26,120.74,12.16,22.19,28.55,41.21,45.13,60.08,13.88,15.79,28.2,31.15,44.89,44.05,16.72,12.92,34.81,22.96,56.44,24.76,3.63,.3,7.31,.49,10.94,.28,13.86-.8,24.54-6.83,30.43-19.78,7.32-16.11,10.75-33.01,7.97-50.65-2.45-15.57-6.13-18.45-21.66-18.87-11.85-.32-23.21,2.74-34.7,4.96-9.25,1.79-18.44,4.1-27.94,4.15-6.79,.03-8.48-1.65-8.04-8.43,.6-9.36,3.59-18.19,6.79-26.89,3.19-8.7,6.94-17.21,11.49-25.32,2.8-5.01,2.75-5.29-2.29-7.86-13.27-6.79-26.57-13.53-39.84-20.32-8.69-4.45-8.83-6.52-.74-11.81,7.26-4.75,14.52-9.57,22.96-11.99,3.23-.93,1.97-2.88,1.45-4.59-4.08-13.4-7.68-26.92-10.14-40.7-.68-3.78-2.57-8.46,.88-11.2,3.63-2.89,6.96,1.36,10.28,2.76,8.27,3.48,16.42,7.24,24.63,10.85,1.85,.81,3.46,1.64,4.26-1.59,8.32-33.67,28.63-59.66,53.32-82.82,6.66-6.25,13.26-12.56,20.4-18.26,1.79-1.43,3.68-3.08,6.15-1.88,2.35,1.15,1.97,3.61,1.96,5.68-.13,16.14,.07,32.26,3.54,48.14q2.68,12.27,14.73,10.05c12.87-2.32,25.47-6.02,38.45-7.75,4.01-.54,8.55-1.94,11.34,2.25,2.68,4.02-.79,7.24-2.71,10.3-7.44,11.85-16.21,22.82-23.1,35.04-4.34,7.7-8.35,15.56-11.03,24-3.68,11.62-.64,16.45,11.47,17.4,11.22,.88,22.48,1.13,33.72,1.75,4.41,.24,8.79,.9,12.94,2.52,5.46,2.13,6.41,4.97,3.13,9.8-9.93,14.63-23.05,26.25-36.17,37.84-5.24,4.63-10.67,9.07-16.22,13.32-2.96,2.27-3.31,3.43,.23,5.58,14.01,8.5,26.54,18.79,36.96,31.56,7.64,9.36,6.88,12.49-4.67,16.16-14.64,4.65-29.53,8.46-44.51,11.83-3.39,.76-4.27,1.9-3.59,5.44,4.89,25.43,4.88,50.88-1.33,76.07-8.74,35.46-29.6,62.98-57.67,85.39-32.37,25.85-69.84,38.05-110.84,40.56-14,.86-27.98,.94-41.96-.08-1.91-.14-4.37-.86-2.92,2.76,.85,2.12-.91,2.5-2.39,2.99-18.94,6.36-38.27,11.03-58.11,13.51-13.93,1.74-27.87,2.67-41.87,.9-3.81-.48-7.49-1.35-10.3-4.31-1.41-1.48-2.98-3.25-2.59-5.14,1.08-5.28-2.39-5.81-6.03-6.85-3.63-1.04-7.13-2.61-10.63-4.08-3.73-1.56-4.73-4.55-2.62-7.75,2.02-3.06,.89-4.3-1.58-6.07-3.41-2.44-6.46-5.38-10.28-8.63Zm25.69-355.11c2.16,3.25,5.94,3.2,9.08,4.45,2.97,1.19,3.31-.04,2.83-2.71-1.37-7.63-4.27-15.02-3.41-23.49-5.98,3.65-10.39,8.19-14.92,12.59q-4.64,4.51,1.39,7.09c1.68,.69,3.35,1.37,5.03,2.06Zm9.78,26.88c-.82,2.6-.11,3.79,2.86,4.13,8.79,.99,17.6,1.25,26.4,.59,3.74-.28,7.61-.5,11.3-2.56-5.12,.98-5.71-1.6-5.42-5.62,.22-3.03,.45-6.22-.83-9.9-2.14,4.26-2.48,8.19-2.76,12.08-.19,2.56-.93,3.84-3.83,3.59-6.2-.53-12.43-.85-18.65-1.1-2.47-.1-3.06-1.33-3.01-3.48,.08-3.67,.02-7.34,.02-11-2.96,3.08-2.97,6.74-3.4,10.25-.23,1.86-.46,3.35-2.8,3.18-6.49-2.7-13.57-3.06-20.23-5.13-2.38-.74-3.06-1.58-2.93-4.02,.25-4.77,.07-9.56,.07-14.35-2.45,3.8-3.31,8.05-3.96,12.28-.46,3.02-1.53,3.31-4.16,2.39-7.34-2.54-14.28-5.96-21.3-9.22-2.05-.95-2.54-2.28-2.27-4.33,.56-4.4,1-8.81,1.59-14.14-4.81,4.8-4.32,11.56-9.37,15.36,17.21,13.91,37.1,20.96,58.62,24.21,2.88,.43,3.09-1.69,4.07-3.2ZM467.32,225.6c.18-20.34-9.39-38.03-27.12-51.1-9.49-7-19.74-10.59-31.57-9.06-10.44,1.35-20.04,4.88-28.61,11.08-25.21,18.22-35.47,52.66-24.84,82.85,6.01,17.07,17.94,27.17,35.6,30.26,39.04,6.82,76.19-24.36,76.53-64.03Zm-133.99-30.85c-1.54-14.98-6.78-28.22-18.17-38.56-8.79-7.98-18.87-10.09-30.08-6.24-17.59,6.04-30.99,17.22-39.88,33.55-4.35,7.99-6.57,16.67-6.51,25.84,.11,17.03,7.51,29.71,23.27,36.5,18.46,7.95,36.89,8.57,54.44-2.87,4.24-2.76,7.36-6.64,9.52-11.18-2.81,1.96-5.23,4.28-7.92,6.25-13.22,9.67-28.23,6.59-36.7-7.44-9.81-16.25-6.59-38.41,7.6-52.44,12.8-12.65,29.94-10.4,39.23,5.09,2.19,3.65,3.41,7.71,5.2,11.51Zm-51.56,562.33c1.32,.28,2.63,.66,3.97,.82,14.26,1.7,28.55,1.98,42.8,.08,34.23-4.55,64.55-17.06,87.88-43.63,4.85-5.52,4.79-5.32-1.26-9.69-2.74-1.97-4.3-1.95-6.72,.63-15.78,16.76-34.38,29.37-56,37.49-22.78,8.56-45.92,15.16-70.67,14.29Zm-32.16-52.98c2.75,6.68,5.45,12.7,9.1,18.29,.74,1.13,1.72,1.63,3.03,1.65,13.99,.18,27.93-.23,41.77-2.55,1.99-.33,2.49-1.15,2.09-3.07-.9-4.31-1.74-8.63-2.37-12.98-.41-2.84-1.76-3.17-4.37-2.84-6.17,.78-12.39,1.16-18.59,1.71-9.99,.88-19.98,.14-30.67-.21Zm132.36,83.09c3.4,9.44,6.87,18.25,15.82,24.8-.88-2.47-1.43-4.01-1.97-5.54-3.12-8.72-6.32-17.41-9.34-26.17-2.05-5.97-1.95-6.04-7.41-3.17-13.57,7.13-27.84,12.12-43.09,14.02-5.61,.7-11.26,1.03-17.04,1.53,4.02,8.88,4.02,8.92,12.87,8.75,17.81-.35,34.57-4.49,50.16-14.22Zm-138.38-217.29c.74-6.52,1.45-13.01,2.56-19.46,.57-3.31,1.98-4.24,5.27-3.45,5.02,1.21,10.12,2.13,15.22,2.95,2.62,.42,3.79,1.56,4.37,4.26,1.37,6.43,2.13,13.05,4.91,19.98,0-6.92,.16-12.98-.07-19.03-.11-2.78,.39-3.9,3.42-3.39,3.29,.56,6.65,.83,9.99,.98,3.21,.14,4.75,1.4,5.3,4.78,1.24,7.58,2.98,15.07,4.52,22.6,1.44-6.29,1-12.49,.87-18.68-.16-7.77-1.84-7.45,7.07-6.75,10.46,.82,10.39,.92,12.99,11.29,1.34,5.33,2.28,10.81,4.95,15.79-.18-7.64-.75-15.19-1.52-22.73-.25-2.5,.22-3.6,3.03-3.49,4.71,.17,9.44,.12,14.14-.14,2.71-.15,3.63,.94,4.29,3.42,1.82,6.91,3.96,13.73,6.02,20.57,.26,.86,.05,2.22,1.81,2.14-.33-7.49-1.31-14.87-2.11-22.27-.41-3.86-1.63-5.11-5.65-5.31-30.71-1.53-61.3-4.32-91.73-8.82-4.44-.66-8.88-1.34-13.5-2.04,1.41,9.38,1.03,18.27,3.85,26.79Zm105.72,136.03c-3.9-3.31-7.37-6.19-10.77-9.16-.94-.82-1.86-.86-2.94-.59-9.59,2.42-19.27,4.34-29.1,5.46-1.93,.22-2.57,1.07-2.14,3.04,1.01,4.6,1.88,9.23,2.75,13.86,.28,1.48,.97,2.14,2.51,1.77,13.61-3.29,26.52-8.46,39.69-14.38Zm-125.07-48.26c1.23,4.81,3.07,8.95,4.86,13.12,1.1,2.58,2.79,3.48,5.62,3.46,8.98-.06,17.9-.74,26.8-1.9,9.3-1.21,9.18-1.06,6.9-9.93-.67-2.62-1.79-3.27-4.32-3.27-7.9,0-15.8-.21-23.69-.49-5.27-.19-10.53-.63-16.17-.99Zm16.56-46.36c7.76-.12,15.49-.31,23.07-2.14,1.1-.27,2.59-.23,2.84-1.74,.34-2.14-6.08-8.69-8.36-8.58-9.27,.43-18.48-.17-27.68-1.38-10.42-1.37-10.36-1.31-10.14,9.34,.05,2.29,.65,3.26,3.03,3.37,5.75,.26,11.49,.74,17.24,1.13Zm335.82,144.49c3.32,1.72,6.41,3.47,8.95,.07,1.71-2.28,1.7-4.89-.42-7.09-3.16-3.28-6.24-1.8-9.41,.79-1.02-2.91-1.78-5.52-2.83-8.01-1.12-2.65-2.33-5.31-3.86-7.73-1.37-2.16-3.12-4.14-6.26-6.22,13.2,31.89,11.89,63.35,4.95,95.11,9.32-21.2,11.56-43.29,8.89-66.92Zm31-339.64c-19.06,27.57-24.05,83.92-9.62,104.99-5.91-35.55-2.43-70.19,9.62-104.99Zm-228.04,299.22c.93-4.36,1.78-7.43,2.19-10.57,.33-2.5,2.35-5.81,.44-7.33-2.02-1.61-4.63,1.27-6.71,2.48-2.89,1.68-4.39,1.2-6.29-1.45-7.34-10.24-11.77-21.63-13.54-34-2.85-19.86,1.37-38.69,8.9-56.97,.67-1.62,1.29-3.26,1.94-4.89-4.29,5.8-7.1,12.19-9.49,18.75-5.06,13.88-7.86,28.09-5.49,42.95,3.19,20.01,16.13,34.58,28.05,51.04Zm-72.85-59.89c-9.74,1.61-19.4,2.61-29.13,3.02-9.49,.4-10.11,1.45-6.3,10.43,.58,1.36,1.17,1.93,2.66,1.72,12.81-1.82,25.33-4.94,37.68-8.74,.74-.23,2.21-.76,1.29-1.74-1.78-1.9-3.13-4.58-6.2-4.68ZM183.01,231.51c-9.77,14.36-10.39,29.67-9.86,45.27,1.3-8.28,3.32-16.32,7.45-23.71,1.57-2.81,3.33-5.48,6.05-7.3,2.25-1.51,4.59-1.64,6.72,.2,2.21,1.9,2.22,4.22,.81,6.57-1.04,1.72-2.27,3.34-3.81,5.58,5.7-.49,9.46-2.68,11.27-7.37,1.39-3.61,1.2-7.37-1.89-10.12-5.5-4.9-10.99-2.12-16.44,.75-.58-3.06,1.46-5.81-.29-9.85Zm420.59,312.72c.97-12.08,6.22-21.44,12.37-30.39,6.04-8.8,12.96-16.91,20.68-24.27,7.67-7.31,15.56-14.39,24.07-22.23-4.09,1.11-6.77,2.84-9.35,4.64-13.43,9.37-25.35,20.37-35.33,33.39-6.87,8.96-11.34,19.03-13.48,30.1-.79,4.06-.78,8.14,.52,12.19,.81-2.14,3.71-2.94,3.33-5.84-.84,.72-1.5,1.28-2.81,2.41Zm-312.46-186.4c4.68,2.45,15.52,5.07,24.04,5.58,40.23,2.41,74-12.12,102.9-39.34,3.34-3.14,3.27-3.75,.93-7.14-35.27,37.37-77.5,52.43-127.87,40.91Zm53.99,482.66c-.02,2.9,.26,5.75,1.43,8.45,1.01,2.33,2.41,4.39,5.16,4.56,2.47,.16,4.32-1.29,5.59-3.33,4.49-7.19,5.46-14.73,1.65-22.48-2.75-5.59-7.34-5.67-10.61-.3-2.43,3.99-3.21,8.46-3.22,13.09Zm340.26-313.16c-26.88,7.68-52.63,17.66-72.38,38.82,24.56-12.06,46.52-29,72.38-38.82Zm-247.98,149.09c-.06-2.5-2.5-2.63-4.03-3.59-1.71-1.07-1.99,.71-2.49,1.67-4.17,7.96-8.94,15.51-14.71,22.44-4.37,5.24-4.73,3.88,1.34,7.93,.5,.34,1.1,.55,1.58,.91,2.23,1.66,3.54,.99,5.01-1.3,4.96-7.71,9-15.83,12.06-24.46,.41-1.14,.79-2.3,1.24-3.59Zm169.66-171.95c3.94-13.81,8.85-26.93,18.88-37.73,10-10.75,21.92-18.25,35.58-23.31-28.56,3.32-58.28,33.03-54.46,61.04ZM477.04,124.19c-1.79,.76-1.7,3.01-2.48,4.63-.87,1.79-.11,2.78,1.64,3.45,9.54,3.65,18.61,8.27,27.32,13.59,1.93,1.18,3.01,.83,3.87-1.1,.74-1.65,2.89-3.24,.19-5.01-9.19-6.02-18.93-10.96-29.12-15.05-.28-.11-.57-.21-1.43-.52Zm-103.44,300.56c2.15-10.71,4.17-20.65,6.13-30.6,.26-1.34,1.56-3.26-.7-3.81-2.52-.61-2.28,1.73-2.62,3.27-1.84,8.13-3.76,16.24-5.46,24.4-.51,2.46-1.57,3.37-4.02,2.91-4.92-.92-9.86-1.7-14.77-2.64-1.86-.36-3.33-.3-3.89,1.88-.59,2.28,1.12,2.43,2.58,2.82,7.8,2.07,15.73,3.26,23.8,3.42,1.59,.03,3.6,.75,3.63-1.97,.01-.98,.65-2.38-.59-2.85-2.49-.96-1.96,2.14-4.08,3.18Zm212.63,123.82c-6.02-6.61-10.02-14.74-16.44-20.93-7.96-7.68-17.58-11.34-28.77-11.19,17.87,6.81,29.63,22.09,45.22,32.12Zm-266.15-146.96c-1.07,2.07-3.79,3.93-1.09,6.24,7.39,6.3,16.08,10.23,25.22,13.24,1.44,.47,2.34-.28,2.84-1.55,.4-1.02,.72-2.38-.69-2.63-4.01-.72-2.68-3.33-2.07-5.54,2.19-7.91,5.38-15.46,8.52-23.02,.41-.99,1.66-1.99,.39-3.21-1.21-.19-1.62,.71-2.03,1.5-3.43,6.59-7.11,13.07-9.7,20.06-3.09,8.36-2.99,8.4-11.42,4.81-1.26-.53-2.45-1.23-3.72-1.72-3.67-1.41-6.49-3.4-6.25-8.17Zm85.21,365.18c1-.82,1.65-1.21,2.11-1.76,5.26-6.34,9.5-13.39,13.97-20.28,1.6-2.46-1.01-3.01-2.15-4.18-1.59-1.63-2.51-.58-3.56,.8-4.22,5.6-9,10.7-14.12,15.49-.97,.91-3.31,1.66-2.11,3.44,1.58,2.34,3.8,4.26,5.86,6.49Zm-161.33,58.85c-.16-.83-.26-2.06-.65-3.19-.78-2.31-1.67-4.83-4.38-5.31-2.91-.52-4.83,1.53-6.22,3.75-2.9,4.61-2.82,9.52-.54,14.28,1.79,3.74,5.4,4.05,8,.86,2.36-2.89,3.51-6.3,3.78-10.39Zm300.94-236.25c11.12-3.13,22.34-4.71,33.81-3.92,11.38,.78,21.8,4.69,32.57,11.17-10.76-15.44-42.36-20.36-66.39-7.25Zm25.1-393.59c-.28-.5-.54-1.04-.87-1.55-5.52-8.7-11.06-17.39-16.56-26.11-1.02-1.61-2.05-2.64-3.93-1.1-1.29,1.05-2.95,1.81-1.36,3.93,6.36,8.51,11.88,17.58,17.45,26.61,.57,.93,1.17,2.48,2.73,1.26,1.02-.8,2.43-1.36,2.55-3.04Zm-254.82-113.04c0,.06-.01,.13-.02,.19-2.11-.15-4.23-.47-6.34-.41-2.63,.08-2.31,2.35-2.56,4.06-.33,2.15,1.25,2.03,2.61,2.01,10.31-.12,20.6,.08,30.81,1.72,2.19,.35,3.11-.9,3.46-2.68,.46-2.33-1.55-1.81-2.69-1.95-8.42-1.03-16.85-1.97-25.27-2.94Zm198.48,45.56c-.57-1.91-2.35-2.57-3.81-3.49-8.34-5.21-16.71-10.37-25.07-15.55-1.73-1.07-3.37-3.09-4.91,.37-1.15,2.59-2.01,4.35,1.68,5.88,9.36,3.88,18.5,8.27,27.76,12.4,1.27,.57,2.58,1.79,4.35,.39Zm-134.08,424.85l-.1-.52c-2.25,.2-4.5,.34-6.74,.6q-8.48,1-4.85,8.53c3.3,6.82,6.63,13.64,9.94,20.45,.73-8.5-1.22-16.4-3.16-24.27-.62-2.52-.66-4.08,2.46-4.18,.82-.03,1.63-.4,2.45-.61Zm151.61-372.34c-.61,.53-1.55,1.1-2.14,1.92-.81,1.13,.16,1.97,.87,2.72,7.52,7.91,14.07,16.65,21.05,25.02,.69,.82,1.1,3.08,2.88,1.71,1.47-1.13,1.47-2.59,.12-4.29-6.6-8.28-12.67-17-19.78-24.88-.78-.87-1.23-2.15-3-2.19Zm84.43,530.8c-.48,.32-1.14,.51-1.37,.94-.66,1.19,.25,1.99,.98,2.75,7.61,7.96,13.77,16.98,19.51,26.33,.69,1.13,1.1,3.73,3.32,2.38,1.76-1.07,1.72-3.01,.64-4.85-5.57-9.48-11.87-18.38-20.28-25.6-.8-.68-1.72-1.22-2.79-1.96ZM404.75,74.04c-2.34-.1-2.04,1.89-2.58,3.14-1.06,2.47,.97,2.76,2.48,3.28,10.13,3.53,20.51,6.42,30.07,11.45,.89,.47,1.67,.71,2.44-.1,.77-.8,1.25-1.82,.99-2.89-.33-1.31-1.53-1.42-2.59-1.14-1.68,.45-2.83-.47-4.2-1.13-8.31-4.03-16.66-7.96-25.01-11.92-.55-.26-1.1-.49-1.61-.71Zm-90.14,378.66c-.12-8.35-2.53-15.76-2.97-23.39-.09-1.51-.17-3.15-2.06-3.64-1.7-.43-2.94,.48-3.95,1.68-2.23,2.67-4.35,5.44-6.61,8.09-1.57,1.84-1.45,3.16,.3,4.98,4.41,4.59,9.59,8.14,15.28,12.28ZM432.93,103.8c-.02-1.51-1.09-2.1-2.25-2.52-9.95-3.66-19.9-7.3-29.86-10.92-1.08-.39-2.32-1.18-3.06,.52-.72,1.66,.11,2.59,1.57,3.15,10.04,3.84,20.08,7.68,30.13,11.51,1.78,.68,2.92,.04,3.48-1.74Zm184.85,467.07c9.33-1.18,51.43-23.2,57.2-29.76-19.46,10.31-39.17,18.44-57.2,29.76Zm65.3,37.83c-17.48-5.78-34.86-6.29-51.94,1.67,17.19-3.43,34.48-3.85,51.94-1.67Zm-354.99-67.52c-3.98-4.76-7.74-9.25-11.47-13.76-1.3-1.57-2.08-.37-2.84,.53-2.64,3.12-5.27,6.25-7.82,9.44-.65,.81-2.25,1.82-.65,2.94,1.25,.88,2.87,2.04,4.39,.13,1.13-1.42,2.48-2.7,3.44-4.22,2.13-3.41,3.69-3.05,6.01,.05,1.96,2.63,3.62,6.63,8.95,4.89Zm320.42-13.96c-15.39,5.22-28,14.64-39.18,26.19-.76,.79-1.59,2.01-.64,2.77,1.47,1.19,2.34-.55,3.23-1.37,11.22-10.49,23.11-20.07,36.59-27.59ZM315.73,67.28c-2.75-.58-3.84,.36-4.04,2.41-.22,2.29,1.59,1.74,2.8,1.85,8.45,.76,16.79,2.19,25.12,3.74,1.1,.2,2.51,1.19,3.09-.53,.63-1.87-.96-2.25-2.28-2.63-8.3-2.39-16.71-4.24-24.7-4.82Zm34.21,402.77c8.87,.7,16.78-.81,24.74-1.65,2.04-.21,2.77-.94,1.48-2.88-3.28-4.93-6.94-9.53-11.2-13.65-.96-.93-1.68-1.16-2.59-.05-4.56,5.58-9.18,11.11-12.43,18.22Zm207.53,21.57c10.56,5.68,16.14,14.34,18.76,25.13,1.18,4.86,2.23,9.75,3.5,14.59,.31,1.2,.1,2.94,1.99,3.45-1.55-24.64-10.05-40.09-24.25-43.17Zm-214.07,34.67c-3.72,3.55-5.57,7.97-8.49,11.6-1.22,1.51-1.19,2.59,.63,3.6,1.82,1.01,2.72,.32,3.48-1.34,.76-1.64,1.64-3.23,2.56-4.79,1.09-1.85,2.11-2.34,3.41,0,1.1,1.96,2.55,3.74,3.96,5.51,.82,1.03,2.16,1.48,3.24,.73,1.29-.89,.03-1.96-.45-2.71-2.68-4.18-5.47-8.29-8.35-12.6Zm92.86,184.66c-1.89,3.41-3.02,7.78-5.85,10.01-4.43,3.5-6.21,8.53-9.47,12.63-1.91,2.4,.65,3.48,2.03,4.62,2.2,1.81,2.37-.68,3.03-1.73,4.92-7.85,7.46-16.7,10.25-25.53Zm-66.93-176.66c2.75,2.8,1,9.2,8.01,7.77-1.84-4.58-3.59-8.93-5.34-13.28-.72-1.79-1.59-2.01-2.82-.36-2.44,3.29-4.99,6.5-7.39,9.82-.61,.84-2.12,1.87-.62,3.03,1.25,.96,2.57,.56,3.54-.76,1.51-2.07,3.05-4.12,4.61-6.23Zm192.5,18.76c10.26,2.6,19.76,5.57,29.24,8.62-4.91-7.98-18.61-11.95-29.24-8.62Zm-39.01,238.66c-3.64,.05-5.97,2.7-5.72,6.13,.24,3.3,1.93,5.49,5.44,5.3,3.29-.17,5.45-2.09,5.3-5.51-.14-3.33-1.85-5.67-5.01-5.91Zm-221.69-252.2c-3.47-5.73-6.91-11.47-10.44-17.16-.7-1.13-1.53-.55-2.07,.34-.79,1.29-1.75,2.53-2.24,3.92-.84,2.37,1.06,3.91,2.17,5.64,.44,.69,1.28,1.29,1.72,.35,1.23-2.66,1.91-.63,2.69,.22,2.31,2.51,3.81,5.83,8.18,6.68Zm311.3,243.18c-.14-3.96-2.87-6.79-5.84-6.49-3.29,.33-4.7,2.48-4.65,5.63,.05,3.02,3.11,6.26,5.8,5.84,3.09-.48,4.66-2.56,4.69-4.98Zm24.23-109.62c8.36,3.42,15.62,8.22,22,14.41,.63,.61,1.34,1.55,2.3,1,1.15-.66,.8-1.92,.39-2.84-.48-1.09-1.12-2.21-1.97-3.01-6.4-5.97-13.97-9.27-22.72-9.55Zm-106.5,71.2c-.32-3.08-1.66-5.54-5.19-5.49-3.41,.04-5.17,2.29-5.18,5.59-.01,3.15,1.87,5.21,4.94,5.36,3.41,.17,5.13-1.99,5.42-5.46Zm-9.9-28.63c-.21-3.33-1.88-5.43-5.04-5.6-2.99-.17-5.04,1.69-5.11,4.68-.07,3.32,1.97,5.54,5.3,5.72,3.13,.17,4.51-2.02,4.85-4.79Zm-117.61-12.36c-1.03-5.32-2.99-9.7-4.7-14.17-.78-2.03-1.81-2.94-3.48-1.08-1.29,1.45-5.84,1.54-2.87,5.01,3.12,3.63,6.35,7.28,11.05,10.23Zm173-135.39c4.7,1.32,9.46,2.04,13.91,3.92,4.61,1.96,9.13,4.09,13.06,7.29,.59,.48,1.14,1.1,1.88,.26,.9-1.04,.55-1.82-.42-2.66-3.72-3.26-8.11-5.26-12.69-6.91-5.08-1.83-10.25-3.24-15.74-1.89Zm-171.85,200.35c-.12-1.31-6.74-7.03-7.47-6.64-1.81,.95-4,1.72-4.57,3.95-.29,1.16,6.22,6.59,7.36,6.14,1.92-.75,3.58-2.01,4.68-3.46Zm266.6-150.85c-12.39-1.22-24.91-.95-37.34,.69,.04,.64,.07,1.27,.11,1.91,12.41-.87,24.82-1.74,37.23-2.6Zm-390.65-84.99c-1.93-4.25-3.83-8.52-5.82-12.74-.41-.88-1-2.3-2.31-1.07-3.47,3.28-6.02,7.12-7.89,12.27,3.45-.74,4.31-2.91,5.62-4.45,2.13-2.53,3.58-3.36,5.32,.4,1.04,2.25,2.1,4.71,5.08,5.6Zm254.29,233.95c2.5-.35,4.83-1.42,4.83-4.32,0-2.77-1.49-5.13-4.7-5.03-3.1,.1-5.24,1.89-5.21,5.14,.03,3,2.23,4.04,5.08,4.21Zm-68.13-101.6c-.1-2.34-.94-4.58-3.91-4.89-3-.32-4.99,1.23-5.37,4.26-.4,3.12,1.34,4.9,4.32,5.22,2.98,.32,4.33-1.6,4.96-4.58Zm-214.33-153.17c-3.91,4.61-.04,15.23,6.64,18.09-1.51-6.44-4.03-11.97-6.64-18.09Zm248.71,272.47c2.71-.52,4.56-1.9,4.44-4.8-.12-2.77-1.82-4.66-4.57-4.56-2.82,.1-4.96,1.87-4.66,4.92,.25,2.58,2,4.29,4.79,4.44Zm-19.45-37.14c-.39-2.94-1.99-4.8-5.05-4.73-2.87,.07-4.44,1.87-4.37,4.75,.08,2.95,2.08,4.37,4.74,4.51,2.9,.15,4.36-1.68,4.68-4.53Zm98.67-152.53c-.11,.35-.22,.7-.32,1.05,7.64,2.66,15.26,5.35,22.92,7.95,1.15,.39,2.85,1.47,3.51-.38,.62-1.74-1.19-2.35-2.42-2.67-7.88-2.05-15.79-3.98-23.69-5.95Zm-52.24-369.08c-.38-2.48-.62-5.29-4.15-5.36-2.79-.06-4.16,1.73-4.12,4.38,.04,2.91,1.43,5.08,4.51,5.3,2.74,.2,3.52-1.85,3.76-4.31Zm-133.05,225.57c3.21-8.81,6.07-17.75,10.61-26.01,.41-.74,1.08-1.65-.13-2.31-1.2-.65-2.1-.12-2.59,.99-3.89,8.74-6.76,17.78-7.89,27.33Zm151.76,278.53c-.15-2.65-1.41-4.42-4.06-4.58-2.78-.17-4.74,1.44-5.04,4.13-.32,2.88,1.74,4.48,4.36,4.77,2.96,.32,4.24-1.7,4.74-4.31Zm-4.95,57.27c-.4-2.88-2.07-4.71-5.03-4.64-2.24,.05-4.25,1.3-4.05,3.89,.25,3.1,2.28,4.84,5.4,4.96,2.76,.1,3.5-1.81,3.67-4.2ZM474.4,180.92c-1.3-2.42-1.97-6.04-4.44-6.52-2.39-.46-4.22,3-4.86,5.1-.59,1.95,1.53,4.54,3.73,4.93,2.26,.4,4.03-1.58,5.57-3.51Zm87.11,334.4c2.36-.2,4.26-.93,4.21-3.68-.06-3.22-2.31-4.49-5.05-4.62-2.44-.11-4.02,1.56-3.95,3.97,.08,2.89,2.18,4.03,4.79,4.33Zm-132.79,140.36c-.42-2.7-2.02-4.07-4.69-3.82-2.51,.23-4.51,1.61-4.33,4.3,.18,2.78,2.13,4.31,4.98,4.15,2.8-.16,3.75-2.15,4.04-4.63Zm-10.1-343.91c5.51,5.53,12.62,7.47,20.18,8.35-5.92-4.55-12.87-6.75-20.18-8.35Zm60.19,409.27c-.32-2.59-1.35-4.44-4.23-4.36-2.54,.07-4.57,1.19-4.69,3.89-.12,2.66,1.71,4.25,4.23,4.38,2.55,.13,4.2-1.36,4.69-3.91Zm133.33,38c-.42-2.4-1.83-3.86-4.31-3.78-2.77,.09-4.82,1.66-4.76,4.47,.06,2.67,2.31,3.89,4.78,3.78,2.56-.12,4.1-1.73,4.29-4.46Zm-95.94,68.57c-.59-2.59-2.04-4.6-4.79-4.48-2.28,.1-3.95,1.94-3.82,4.27,.15,2.65,1.93,4.48,4.72,4.45,2.53-.02,3.48-1.97,3.89-4.24Zm-35.51-635.9c-1.7-1.82-.83-5.82-4.22-6-1.6-.08-4.98,1.23-4.45,3.39,.55,2.26,1.42,5.64,4.43,6.13,1.74,.28,3.68-1.07,4.24-3.52Zm37.33,51.34c-.7-2.08-.8-4.97-4.04-4.91-2.41,.05-3.85,1.83-3.66,4.25,.21,2.61,.95,5.29,4.3,5.32,2.85,.02,3.02-2.37,3.4-4.66Zm-48.9,497.23c-.18-2.74-1.78-4.05-4.13-3.97-2.44,.09-4.37,1.36-4.39,4.14-.03,2.67,1.89,3.67,4.15,3.77,2.67,.11,4.08-1.5,4.38-3.94Zm53.08-529.7c-.13-2.32-.81-4.37-3.56-4.36-2.54,0-3.95,1.73-3.9,4.13,.06,2.57,1.63,4.36,4.28,4.39,2.57,.03,3.05-2.05,3.18-4.16Zm70.08,586c-.52-2.26-2.08-3.33-4.52-3.13-2.19,.18-3.96,1.38-3.92,3.54,.06,2.76,2.42,3.7,4.79,3.65,2.21-.05,3.41-1.62,3.65-4.06ZM484,203.14c-1.03-1.21,.8-4.59-2.49-4.5-1.54,.04-4.75,.03-4.34,2.7,.31,2,.36,5.32,3.51,5.53,1.72,.12,3.62-.89,3.33-3.73Zm182.14,387.81c-2.12,.44-3.69,1.6-3.58,3.9,.13,2.5,1.9,3.78,4.28,3.7,2.4-.08,3.42-1.84,3.29-4.04-.14-2.33-1.78-3.32-4-3.57Zm-226.75,61.01c-.92,6.09-3.78,11.98-2.23,18.34,3.32-5.84,3.15-12.05,2.23-18.34Zm46.09,20.37c-2.04,.48-3.85,1.53-3.77,3.8,.09,2.48,1.9,3.66,4.35,3.53,2.34-.12,3.68-1.56,3.49-3.83-.19-2.24-1.81-3.33-4.06-3.5Zm37.78,98.31c-2.07,.12-3.96,.78-3.97,2.98-.02,2.79,2.31,3.82,4.63,4.08,1.82,.2,3.29-.99,3.3-2.97,.01-2.54-1.72-3.68-3.96-4.09Zm127.03-192.04c-10.56,.56-22.38,5.49-26.03,11.16,8.63-5.44,17.36-8.29,26.03-11.16Zm-104.72,170.13c-.47-2.12-1.89-3.4-4.1-3.33-2.17,.07-3.98,1.34-3.92,3.59,.05,2.24,1.95,3.4,4.08,3.48,2.31,.09,3.51-1.41,3.95-3.74Zm-139.67-120.99c-2.31,.4-4.36,1.28-4.32,3.84,.03,2.11,1.8,3.08,3.78,3.08,2.18,0,3.95-1.02,3.84-3.43-.09-1.88-1.09-3.44-3.3-3.49Zm236.98,35.64c4.79,2.05,9.72,3.62,13.55,7.35,.86,.84,2.07,2.57,3.37,1.02,1.37-1.64-.37-2.79-1.55-3.61-4.6-3.19-9.83-4.53-15.36-4.77ZM191.49,202.55c-.33-2.2-2.17-3.19-4.36-3.25-2.03-.06-3.51,1.31-3.33,3.41,.2,2.49,2.36,3.46,4.43,3.71,2.24,.27,3.02-1.5,3.26-3.87Zm454.49,389.42c-6.65,.27-12.69,2.26-17.96,6.41-.82,.65-1.82,1.42-.73,2.59,.93,.99,1.63,.02,2.3-.49,4.93-3.85,10.42-6.61,16.39-8.5ZM206.24,165.22c-2.08,.25-3.18,1.56-3.09,3.35,.12,2.35,1.95,3.26,4.09,3.35,2.1,.08,3.14-1.33,2.95-3.16-.22-2.2-1.88-3.28-3.96-3.54Zm45.67-23.23c-1.74,.47-3.32,1.24-2.65,2.77,1.07,2.46,2.77,4.82,5.58,5.49,1.17,.28,2.42-1.01,1.87-2.41-.98-2.48-2.24-4.89-4.79-5.85Zm156.08,454.43c-1.64,.56-3.72,1.24-3.71,3.58,0,2.13,1.8,3.11,3.78,3.06,1.94-.05,3.72-1.03,3.8-3.14,.08-2.11-1.57-3.09-3.87-3.5ZM200.44,183.57c1.84-.49,2.79-1.95,2.65-3.95-.15-2.08-1.54-3.41-3.59-3.39-2.36,.02-2.87,1.94-2.9,3.86-.03,2.3,1.61,3.04,3.84,3.48Zm347.92,594.69c2.04-.19,3.7-.93,3.73-3.16,.03-2.2-1.55-3.21-3.57-3.22-2.01,0-3.68,1.11-3.77,3.14-.09,2.16,1.74,2.92,3.61,3.24Zm51.05-33.11c2.01-.32,3.52-1.38,3.5-3.46-.02-1.87-1.45-3.01-3.3-3.07-2.03-.07-3.7,.98-3.76,3.09-.06,2.09,1.57,3.09,3.55,3.45ZM428.62,118.4c-.38-2.01-1.92-2.95-3.87-2.89-1.93,.06-3.78,1.01-3.59,3.26,.19,2.19,2.16,2.77,4.07,2.77,1.87,0,3.17-.91,3.38-3.13Zm-37.16-9.79c-2.2,.15-3.68,1.49-3.52,3.4,.18,2.14,2.12,3.22,4.24,3.28,2.15,.06,2.89-1.54,2.79-3.32-.13-2.04-1.5-3.17-3.51-3.37Zm-154.34,28.82c-1.64,.16-3.01,.78-3.04,2.64-.05,2.21,1.23,3.93,3.29,4.22,2.01,.29,2.68-1.6,2.92-3.31,.34-2.36-1.23-3.13-3.16-3.55Zm293.69,583.66c-1.85,.4-3.65,1.11-3.58,3.36,.06,1.92,1.63,3.02,3.39,3.06,2.1,.06,3.46-1.4,3.54-3.42,.07-1.99-1.4-2.86-3.35-3Zm58.52,46.11c-1.61,.61-3.29,1.45-3.06,3.68,.19,1.86,1.63,3.05,3.37,3.11,2.19,.08,3.24-1.54,3.09-3.58-.13-1.81-1.24-3.01-3.39-3.21ZM504.44,103.26c-1.82,.14-3.58,.64-3.67,2.67-.12,2.61,2.06,3.18,4.06,3.23,1.75,.04,3.47-.84,3.4-2.87-.07-2.21-1.86-2.88-3.8-3.03Zm34.37,697.12c-1.64,.39-3.69,.75-3.35,2.86,.34,2.14,2.37,3.05,4.43,3.06,1.66,0,3.01-.98,2.79-2.81-.26-2.1-1.94-2.87-3.87-3.11Zm76.71-58.38c-1.96,.35-3.44,1.29-3.51,3.44-.06,2.05,1.42,3.02,3.18,3.06,2.05,.05,3.41-1.24,3.48-3.34,.07-2.01-1.37-2.82-3.15-3.16ZM194.33,193.75c2.03,.02,3.31-1.14,3.49-3.2,.21-2.34-1.75-2.54-3.36-2.68-2.02-.17-3.67,.53-3.58,2.93,.08,1.99,1.4,2.86,3.45,2.95Zm49.02-36.08c1.6-.24,2.36-1.2,2.05-2.55-.47-2.08-1.24-4.42-3.41-4.98-1.41-.37-3.01,1.51-2.96,2.86,.09,2.53,2.49,3.52,4.32,4.67Zm-27.99-3.88c-1.23,.24-2.79,.53-2.63,2.26,.18,2.05,.48,4.57,3.2,4.67,1.8,.06,2.78-1.8,2.97-3.44,.27-2.29-1.57-2.95-3.53-3.49Zm179.23-25.33c-.35-1.86-1.46-3.08-3.36-3.04-1.87,.04-3.27,1.24-3.29,3.11-.02,1.73,1.39,2.73,3.06,2.76,1.81,.03,3.22-.81,3.6-2.83Zm227.44,640.62c-.22-1.9-1.36-2.84-3.06-2.62-1.93,.25-3.44,1.33-3.25,3.57,.17,1.97,1.76,3.04,3.4,2.97,2.23-.09,2.4-2.3,2.91-3.93Zm23.58-305.7c-1.47,.22-3.21,.69-3.34,2.7-.14,2.24,1.63,3.16,3.52,3.27,2.01,.11,2.9-1.31,2.98-3.2,.08-1.98-1.3-2.49-3.17-2.77Zm-12.72,14.62c2.19-.07,3.35-1.35,3.51-3.38,.14-1.78-.87-2.94-2.72-2.82-1.99,.13-3.51,1.12-3.6,3.32-.07,1.81,1.06,2.71,2.8,2.88ZM223.94,166.63c-1.59,.27-2.4,1.49-2.45,3.07-.07,1.91,1.26,3.21,2.93,3.47,1.87,.29,3.27-1.22,3.26-2.9,0-1.93-1.67-3.02-3.74-3.65Zm307.36-78.98c-.18-1.92-1.33-3.1-3.18-3.14-1.82-.03-3.39,1.04-3.34,2.95,.06,1.92,1.77,2.7,3.52,2.87,1.84,.18,2.74-.92,3-2.68Zm-114.07,298.74c-1.32,3.89,.85,5.56,3.11,7.13,1.25,.86,2.27,.16,3.14-.78,1.15-1.23,.08-1.86-.75-2.47-1.66-1.23-3.38-2.39-5.5-3.88Zm101.24,375.4c-.18-1.96-1.24-3.24-3.1-3.41-1.68-.15-3.05,.82-3.11,2.6-.07,2.09,1.18,3.45,3.3,3.58,1.82,.11,2.69-1.09,2.91-2.76Zm66.22,25.65c1.95-.16,3.24-1.26,3.37-3.08,.16-2.07-1.37-2.91-3.25-2.85-1.94,.05-3.16,1.21-3.1,3.15,.05,1.73,1.3,2.6,2.98,2.78Zm-173.71-387.57c1.26,2.37,1.26,5.39,3.89,5.39,1.69,0,4.07-2.95,3.38-4.03-1.39-2.18-4.39-1.07-7.28-1.36Zm230.96,97.92c1.79-.45,2.97-1.5,2.88-3.45-.07-1.73-1.12-2.89-2.85-2.89-2.05,0-2.93,1.45-2.83,3.31,.09,1.62,.96,2.82,2.8,3.03ZM235.98,163.53c-.76-1.62-1.32-3.96-3.51-4.57-1.34-.37-2.63,1.31-2.58,2.61,.09,2.39,2.1,3.64,4.09,4.34,1.14,.4,1.76-.86,2.01-2.38Zm217.2,537.92c-.4-1.89-1.66-2.78-3.52-2.76-1.54,.01-2.7,.82-2.7,2.43,0,2.33,1.76,2.99,3.69,3.04,1.66,.04,2.26-1.21,2.52-2.7Zm101.18,84.94c-1.24,.23-2.59,.78-2.57,2.39,.04,2.26,1.74,2.99,3.7,2.96,1.5-.02,2.7-.91,2.55-2.49-.18-1.92-1.69-2.65-3.68-2.85Zm-59.39-85.92c-1.71,.33-2.7,1.46-2.74,3.11-.04,1.8,1.25,2.78,2.92,2.77,1.75-.02,2.76-1.24,2.69-2.97-.07-1.69-1.09-2.73-2.87-2.91Zm127.08-210.23c-.37-1.71-1.46-2.64-3.12-2.65-1.67-.02-2.97,.83-3.04,2.62-.06,1.71,.95,2.88,2.7,2.96,1.92,.08,2.92-1.2,3.46-2.92Zm-147.87,275.21c-1.5-.08-2.36,.86-2.45,2.09-.19,2.54,1.6,3.71,3.75,4.2,1.33,.31,1.83-.7,1.8-1.9-.06-2.14-.98-3.7-3.09-4.39ZM344.47,115.25c1.36-.22,2.77-.85,2.65-2.77-.1-1.58-1.22-2.46-2.82-2.32-1.63,.15-3.15,.87-3.03,2.73,.09,1.51,1.35,2.28,3.2,2.35Zm90.54,251.92c-1.15,1.06-4.22-.32-4.15,2.58,.03,1.37,.91,3.95,2.66,3.44,1.87-.54,3.01-2.82,3.5-4.9,.34-1.47-.91-1.14-2.01-1.12Zm70.84-161.91c-.53-1.53-1.6-2.34-3.1-2-1.39,.32-3.27,.63-2.98,2.64,.2,1.4,.85,3.3,2.64,3.03,1.81-.27,2.96-1.85,3.44-3.67Zm-200.45-80.57c1.48-.47,2.85-1.07,2.71-3.04-.11-1.58-.89-2.71-2.56-2.51-1.73,.21-3.32,.87-2.99,3.17,.23,1.59,1.14,2.4,2.83,2.39Zm246.8-55.51c-.16-1.98-1.41-3-3.24-3.08-1.45-.06-2.77,.6-2.63,2.37,.16,1.96,1.69,2.89,3.35,3.21,1.72,.34,2.32-.98,2.53-2.5Zm44.15,687.55c-.54-1.62-1.62-2.73-3.55-2.57-1.49,.12-2.66,.93-2.55,2.54,.15,2.21,1.84,3.01,3.76,2.94,1.54-.05,2.27-1.23,2.34-2.91ZM461.96,167.38c-1.09,1.79-2.26,3.46-3.16,5.27-.66,1.33,.39,2.03,1.51,2.13,2.2,.19,3.43-1.27,3.71-3.16,.21-1.4-.21-2.97-2.06-4.24Zm30.61,4.15c-1.67,.33-3.27,1.04-3.17,3.01,.09,1.57,1.29,2.87,3,2.6,1.68-.26,3.09-1.43,3.03-3.31-.05-1.54-1.3-2.21-2.86-2.3Zm-227.69-30.71c-.9-1.53-1.26-3.84-3.43-4.27-1.37-.27-2.03,1.29-1.9,2.54,.2,1.86,1.08,3.65,2.93,4.19,1.37,.4,1.99-1.01,2.4-2.46Zm311.04,457.67c-1.67,.41-2.89,1.29-2.71,3.08,.16,1.54,1.36,2.33,2.86,2.31,1.88-.03,2.67-1.26,2.53-2.99-.13-1.56-1.15-2.34-2.68-2.39Zm-89.16-438.19c-1.49,.48-3.06,1.16-3.17,2.84-.09,1.42,.95,2.71,2.56,2.49,1.51-.21,3.12-1.03,3.24-2.73,.1-1.46-1.01-2.46-2.63-2.6Zm-172.48,655.89c1.69,1.42,2.79,3.8,4.91,2.71,1.99-1.03,2.61-3.42,2.46-6.11-2.53,1.16-4.75,2.19-7.37,3.4Zm214.95-1.24c-1.61,.41-2.45,1.46-2.32,2.94,.15,1.82,1.28,3.11,3.15,3.22,1.87,.1,2.09-1.39,1.98-2.81-.13-1.78-.86-3.15-2.81-3.36Zm-136.28-273.46c.32-2.02-1.27-2.43-3.04-2.51-.92-.04-2.39-.44-2.05,1.34,.33,1.73,.64,3.65,3.07,3.72,1.53,.05,2.17-.73,2.02-2.55ZM540.73,79.94c-.31-1.66-1.24-2.77-2.95-2.84-1.32-.06-2.36,.69-2.48,2.07-.16,1.8,1.03,2.79,2.62,3.04,1.57,.24,2.43-.82,2.81-2.26Zm-100.45,532.34c.19-1.26-.46-1.92-1.51-1.71-2.03,.41-4.53,.65-5.19,2.88-.29,.96,1.65,2.28,2.98,2.27,2.09-.01,2.86-1.92,3.72-3.44Zm175.33-88.77c-1.62,.41-2.59,1.43-2.68,3.12-.08,1.5,.52,2.8,2.19,2.79,1.91,0,3.08-1.18,2.97-3.15-.08-1.43-.85-2.53-2.48-2.76Zm-110.15-299.09c-.89-1.42-2.31-2.48-4.11-2.83-1.41-.27-2.45,.73-2.47,2.03-.03,2.49,2.21,2.51,3.87,2.92,1.39,.35,2.29-.39,2.71-2.13Zm-5.51-35.54c-.34-1.54-1.01-2.93-2.9-2.83-1.45,.08-2.88,.83-2.74,2.45,.15,1.67,1.03,3.39,3.11,3.15,1.31-.15,2.6-.95,2.53-2.77Zm23.16-81.9c-1.39,.27-2.46,1.05-2.57,2.58-.12,1.85,1.12,2.68,2.77,2.82,1.57,.13,2.75-.69,2.67-2.28-.09-1.57-1.12-2.72-2.87-3.13Zm-61.95,653.76c-1.54,.05-2.43,.87-2.47,2.23-.06,2.01,1.24,3.08,3.11,3.2,1.49,.1,2.23-1.06,2.11-2.39-.14-1.62-1.04-2.82-2.75-3.05Zm172.69-47.29c-1.41,.04-2.35,.67-2.45,2.12-.12,1.75,.77,2.97,2.44,3.33,1.65,.36,2.7-.6,2.7-2.22,0-1.68-1.03-2.77-2.69-3.23Zm-214.13-128.88c-.19-1.5-1.16-2.09-2.48-2.03-1.69,.08-3.6,.52-3.86,2.36-.17,1.26,1.16,2.44,2.71,2.39,1.77-.06,3.09-.93,3.63-2.72Zm133.36,178.94c1.24-.17,2.41-.64,2.38-2.08-.04-1.8-1.45-2.48-3.01-2.68-1.29-.16-2.58,.32-2.69,1.71-.18,2.16,1.82,2.35,3.32,3.05Zm-72.68-61.82c-.47-1.65-1.29-3.04-3.29-3.12-1.29-.05-2.01,.78-1.98,1.96,.06,2.02,1.62,2.82,3.28,3.14,1.25,.24,1.86-.72,1.98-1.99Zm144.78,51.94c-.14-1.71-.99-2.88-2.8-2.79-1.61,.08-2.35,1.31-2.28,2.81,.08,1.52,1.06,2.49,2.6,2.58,1.72,.1,2.3-1.07,2.47-2.6Zm-193.73-116.32c1.44-.26,2.73-.73,2.77-2.43,.03-1.46-.93-2.18-2.32-2.18-1.45,0-2.83,.47-2.98,2.11-.16,1.66,1.04,2.33,2.54,2.49Zm60.95,95.15c-.06-1.5-.87-2.48-2.19-2.55-1.79-.09-2.78,1.16-2.97,2.82-.17,1.43,.78,2.36,2.14,2.41,1.77,.07,2.74-1.04,3.02-2.68Zm-47.5-108.7c1.37-.38,3.28-.45,3.48-2.15,.18-1.49-1.37-2.33-2.77-2.23-1.51,.11-3.06,.98-3.29,2.52-.22,1.49,1.36,1.64,2.58,1.86ZM537.09,65.02c1.66-.03,2.72-.84,2.73-2.43,0-1.34-.95-2.24-2.33-2.34-1.53-.12-2.76,.52-2.88,2.19-.12,1.66,.97,2.41,2.48,2.58Zm-78.46,647.18c-.22-1.39-.62-2.73-2.38-2.65-1.35,.06-2.32,.91-2.25,2.3,.09,1.61,.91,3,2.71,2.98,1.48-.02,1.77-1.36,1.91-2.63ZM186.63,214.98c-.49-1.02-1-2.48-2.73-2.2-1.75,.29-1.79,1.87-1.78,3.23,0,1.32,.4,2.56,2.12,2.11,1.4-.36,2.46-1.21,2.39-3.14Zm309.9,473.09c.47,1.29,1.32,2.5,3.08,2.55,1.47,.04,2.25-.82,2.1-2.3-.17-1.75-1.28-2.79-2.97-2.87-1.43-.07-2.11,.95-2.21,2.62Zm156.16-201.38c1.35-.35,2.35-1.15,2.23-2.79-.1-1.34-.93-2.35-2.28-2.4-1.58-.06-2.57,1.05-2.69,2.53-.13,1.64,1.13,2.31,2.74,2.66Zm-78.93,36.8c-.14-1.5-.95-2.45-2.28-2.34-1.81,.14-2.46,1.52-2.27,3.19,.14,1.24,.76,2.58,2.12,2.37,1.62-.24,2.21-1.77,2.43-3.22Zm-152.24,72.41c1.53-.72,3.75-.99,3.79-3.19,.02-1.25-1.67-1.29-2.61-.99-1.46,.47-3.68,.32-3.91,2.33-.15,1.25,1.26,1.91,2.73,1.85Zm71.68,219.69c-1.15,.49-2.25,1.34-2.08,2.85,.16,1.46,1.22,2.47,2.76,2.31,1.34-.14,2.07-1.23,1.96-2.55-.12-1.4-.69-2.59-2.64-2.61Zm155.15-118.51c-.35-1.6-1.12-2.87-2.88-3.01-1.43-.12-2.35,.74-2.32,2.14,.03,1.74,1.25,2.74,2.84,3,1.46,.24,2.1-.83,2.36-2.13ZM476.92,149.08c.27,1.38,1.21,2.11,2.29,1.84,1.59-.4,3.41-1.15,3.43-3.09,.01-1.42-1.4-1.95-2.71-1.56-1.44,.43-2.89,1.04-3.01,2.81Zm129.21-9.23c-.15-1.38-.8-2.3-2.3-2.16-1.48,.14-2.75,.81-2.45,2.53,.25,1.41,1.24,2.5,2.85,2.28,1.4-.19,1.89-1.32,1.91-2.65Zm-188.1-6.88c1.28-.29,2.44-.85,2.2-2.34-.24-1.5-1.45-2.31-2.91-2.36-1.09-.03-2.26,.52-2.23,1.77,.04,1.74,1.37,2.53,2.94,2.93Zm-97.61-11.26c-.26-1.15,.39-3.04-1.81-2.76-1.04,.13-2.76,.23-2.67,1.78,.1,1.66,1.04,3.37,2.81,3.63,1.71,.25,1.33-1.57,1.67-2.64Zm177.78,681.11c-.08-1.28-.54-2.47-2.02-2.49-1.59-.02-2.52,1.08-2.57,2.6-.04,1.41,.96,2.3,2.29,2.28,1.33-.02,2.17-.93,2.29-2.39ZM378.89,142.69c1.43-.28,2.52-1.03,2.26-2.7-.22-1.41-1.37-1.99-2.66-1.83-1.47,.18-2.62,1.08-2.37,2.69,.2,1.36,1.38,1.84,2.78,1.83Zm151.74-72.69c-.27-1.31-.97-2.29-2.36-2.34-1.68-.06-2.5,1.06-2.42,2.6,.08,1.36,1.01,2.2,2.44,2.11,1.41-.09,2.05-1.09,2.34-2.37Zm-142.05,459.92c-1.52-.1-2.2,.57-2.16,1.87,.06,1.85,1.37,2.25,2.85,2.09,1.1-.12,2.83,.08,2.62-1.7-.22-1.86-1.97-2.05-3.31-2.26Zm45.47,73.35c-.76-1.03-1.77-1.1-2.79-.66-1.54,.66-3.95,.46-3.98,2.83-.01,1.25,1.55,1.36,2.56,1,1.64-.59,3.46-1.08,4.21-3.17Zm-22.21-29.31c-.45-.97-.7-2.37-1.94-2.19-1.58,.23-2.65,1.4-2.49,3.15,.09,.98,.28,2.41,1.67,2.15,1.54-.29,2.45-1.55,2.76-3.11Zm227.41,116.06c-.3-1.45-1.29-2.07-2.64-1.96-1.28,.1-2.49,.67-2.42,2.19,.08,1.68,1.29,2.35,2.84,2.21,1.39-.13,2.12-1.04,2.22-2.44Zm-129.76,11.56c1.53,.03,2.19-.87,2.36-2.22,.21-1.62-.46-2.71-2.17-2.74-1.32-.03-2.41,.58-2.48,2.07-.08,1.58,.8,2.52,2.29,2.89ZM295,115.66c5.27-.28,10.31-1.91,15.58-1.97-5.37-.61-10.54,.38-15.58,1.97Zm158.58,49.23c-1.4,.47-2.3,1.47-2.19,2.94,.1,1.33,1.2,2.15,2.46,2.11,1.65-.05,2.24-1.37,2.14-2.8-.09-1.34-1.12-1.98-2.41-2.24Zm35.36,522.72c-1.44,.02-2.18,.76-2.16,1.97,.03,1.53,.91,2.61,2.45,2.8,1.32,.16,1.94-.83,1.92-2-.02-1.49-.64-2.65-2.21-2.77Zm16.13-504.97c1.4-.41,2.44-1.25,2.18-2.86-.21-1.34-1.18-2.08-2.6-1.85-1.37,.22-2.14,1.11-2,2.51,.13,1.36,.94,2.14,2.42,2.19Zm149.06,536.65c-.39-1.43-1.22-2.38-2.82-2.36-1.24,.02-1.99,.74-1.97,1.97,.03,1.56,.95,2.58,2.48,2.67,1.41,.09,2.1-.91,2.3-2.28Zm-75.84-533.91c1.39-.1,2.36-.8,2.6-2.07,.27-1.42-.7-2.21-1.98-2.44-1.45-.26-2.24,.56-2.35,1.96-.1,1.29,.25,2.35,1.73,2.55Zm53.34,334.67c-.2-1.42-1.04-2.16-2.45-2.01-1.45,.15-2.09,1.17-1.95,2.53,.14,1.29,.75,2.36,2.33,2.08,1.39-.25,1.94-1.28,2.07-2.59Zm-151.13,299.47c-.35-1.44-1.04-2.58-2.71-2.41-1.2,.13-1.83,1.03-1.72,2.22,.13,1.47,.82,2.68,2.44,2.7,1.54,.02,1.83-1.26,1.99-2.52ZM202.52,189.74c-1.49,.1-2.37,.75-2.34,2.26,.03,1.54,1.04,2.14,2.4,2.14,1.32,0,2.61-.6,2.66-1.96,.06-1.64-1.45-2.08-2.72-2.45Zm361.13,382.67c-.17-1.28-.82-2.4-2.16-2.37-1.26,.03-2.16,1.05-2.18,2.39-.03,1.38,.88,2.29,2.19,2.34,1.42,.06,2.05-.98,2.15-2.36ZM322.17,98.53c-1.64,.4-1.37,1.9-1.41,3.19-.03,1.26,.07,2.49,1.9,2.24,1.91-.26,1.87-1.63,1.75-3.02-.11-1.27-.4-2.41-2.24-2.4Zm25.44-53.72c-1.27,.31-2.12,1.14-1.9,2.49,.21,1.27,1.16,2.11,2.54,1.88,1.13-.18,1.88-1.02,1.75-2.19-.15-1.28-.9-2.15-2.39-2.18Zm317.63,513.38c-.29-1.3-1-2.22-2.46-2.08-1.19,.12-1.98,.92-2.01,2.1-.04,1.41,.9,2.36,2.22,2.4,1.38,.03,2.08-1.03,2.25-2.42Zm19.4,64.67c1.31-.29,2.35-1.03,2.16-2.43-.17-1.29-1.15-2.16-2.58-2.03-1.23,.11-1.97,.94-1.89,2.14,.08,1.32,.83,2.25,2.31,2.33Zm-57.81,81.41c-.22-1.37-1.07-2.11-2.42-2.14-1.11-.02-2.18,.36-2.13,1.72,.06,1.57,1.1,2.43,2.62,2.45,1.21,.01,1.85-.8,1.93-2.03Zm27.44,5.31c-.07-1.23-.77-1.94-1.95-2.01-1.32-.08-2.39,.52-2.56,1.92-.18,1.47,.8,2.28,2.12,2.29,1.29,0,2.21-.78,2.38-2.19ZM447.9,23.36c-.24-1.17-.87-2.09-2.09-1.86-1.4,.25-2.43,1.25-2.62,2.71-.19,1.46,.9,1.77,2.04,1.59,1.38-.22,2.6-.75,2.68-2.44Zm52.33,228.11c-.19-1.53-1.01-2.25-2.46-2.05-1.09,.15-2.21,.65-2.08,1.91,.14,1.39,1.43,1.87,2.66,2,1.32,.14,1.86-.72,1.89-1.86Zm2.05,540.32c-1.3-.02-2.12,.6-2.18,1.81-.07,1.62,1.02,2.43,2.49,2.64,1.05,.15,1.75-.47,1.85-1.49,.14-1.59-.81-2.47-2.16-2.95ZM271.65,133.47c.4,.95,.48,2.62,2.24,2.64,1.06,.01,1.28-1.14,1.25-2.09-.04-1.24-.13-2.62-1.63-2.86-1.32-.22-1.85,.75-1.86,2.32Zm241.47-52.47c1.41-.06,2.16-.89,2.32-2.19,.15-1.23-.62-1.94-1.75-2.15-1.41-.26-2.33,.44-2.52,1.81-.2,1.41,.69,2.15,1.96,2.53Zm-24.9,746.68c-1.29,.34-2.03,1.18-2.14,2.5-.11,1.26,.5,2.02,1.8,1.92,1.47-.11,2.63-.77,2.45-2.47-.12-1.13-.93-1.79-2.11-1.95Z"/>
  <path d="M208.59,601.64c-1.35,13.05-1.09,25.94-.12,38.81,.8,10.6,1.28,21.27,4.32,31.58,.25,.85,.59,2.11,.18,2.64-3.58,4.69-5.45,10.34-8.65,15.97-2.37-4.55-2.43-8.84-3.06-12.97-.67-4.34-1.25-4.85-5-2.41-3.81,2.48-7.41,5.32-10.93,8.21-2.49,2.04-3.59,1.47-4.29-1.47-.6-2.54-1.04-5.11-.8-7.68,.37-4-1.39-3.97-4.24-2.61-3.3,1.57-6.34,3.51-9.01,6.13-2.76-20.53,22.77-67.48,41.6-76.18Z"/>
  <path d="M323.66,463.05c-1.93-1.45-2.4-2.79-.16-4.56,3.2-2.53,6.64-7.83,9.17-7.38,3.53,.62,2.15,6.81,3.61,10.39,.7,1.73,2.23,4.13,.88,5.46-1.32,1.3-3.61-.43-5.46-.87-1.03-.24-2.01-.65-3.02-.98-1.68-.69-3.35-1.37-5.03-2.06Z"/>
  <path d="M446.98,232.74c-.21,10.57-2.73,20.47-9.01,29.15-7.64,10.56-18.28,14.78-31,13.68-12.45-1.08-19.93-8.67-24.54-19.72-7.56-18.12-3.58-38.36,9.96-50.29,20-17.63,47.34-8.81,53.43,17.24,.76,3.26,1.34,6.56,1.16,9.95Z"/>
  <path d="M305.95,431.25c2.57,5.25,3.48,10.85,4.71,16.9-3.79-2.3-6.25-5.35-9.04-8-1.61-1.53-.78-3.03,.32-4.41,1.19-1.5,1.86-3.48,4.02-4.48Z"/>
  <path d="M352.38,469.5c3.81-5.36,6.91-9.74,10.06-14.09,.95-1.32,2.01-1.04,3,.05,2.53,2.8,5.11,5.55,7.57,8.41,.99,1.14,1.52,2.53-.71,2.94-6.16,1.11-12.32,2.29-19.91,2.7Z"/>
</svg>