<?xml version="1.0" encoding="UTF-8"?>
<svg id="Layer_1" data-name="Layer 1" xmlns="http://www.w3.org/2000/svg" viewBox="0 0 864 864">
  <path d="M532.49,837.11c-1.94,7.9-3.05,14.73-6.01,20.95-1.04,2.19-1.42,5.41-4.68,5.44-2.98,.03-4.3-2.66-5.5-4.85-2.59-4.73-4.9-9.62-7.35-14.49-1.89,1-1.85,2.81-2.47,4.21-1.17,2.65-2.44,5.22-4.36,7.43-6.22,7.18-12.05,6.66-16.64-1.55-4.32-7.72-5.43-16.36-6.94-24.88-.75-4.26-1.68-8.49-2.45-12.75-.66-3.63-2.23-5.11-6.42-5.03-26.32,.46-52.61-.23-78.74-3.82-11.28-1.55-22.5-3.54-33.52-6.42-3.96-1.04-4.66-.4-4.15,3.87,1.99,16.59-3.16,31.64-11.08,45.92-.84,1.51-2.14,2.81-3.43,3.99-3.67,3.35-7.92,2.8-10.51-1.44-2.95-4.85-4.15-10.38-5.69-15.77-.25-.87,.02-2-1.46-2.53-2.23,7.49-5.14,14.71-9.34,21.3-2.21,3.47-4.46,8.06-9.24,7.2-5-.9-5.01-6.3-5.59-10.2-.83-5.64-.73-11.42-1.03-17.36-2.4,.32-2.52,2.15-3.19,3.43-2.45,4.69-4.66,9.53-8.47,13.34-3.76,3.77-6.9,2.98-8.35-2.18-1.2-4.26-.79-8.59,.11-12.86,2.74-12.95,4.61-25.89,.79-39.01-.83-2.84-1.83-5.42-3.86-7.59-29.65-31.58-37.65-69.68-33.43-111.41,4.03-39.9,17.64-76.68,36.91-111.49,15.45-27.89,31.22-55.61,47.26-83.18,15.46-26.58,21.89-54.83,17.9-85.42-1.31-10.01-2.04-20.08-4.7-29.9-1.02-3.74-2.79-5.75-6.52-7.22-35.32-13.91-64.46-36.1-87.09-66.57-12.51-16.83-19.5-35.79-18.11-57.02,1.58-24.11,13.65-43.06,31.11-58.86,21.77-19.71,47.81-31.08,76.32-36.37,52.34-9.71,104.69-9.75,156.49,3.52,23.08,5.92,45.15,14.78,63.74,30.39,20.62,17.32,32.46,38.86,29.51,66.5-2.14,20.05-11.45,37.17-23.87,52.75-21.89,27.44-48.5,48.83-80.82,62.82-3.58,1.55-5.11,3.88-6.35,7.58-3.45,10.32-8.05,20.26-11.52,30.57-9.6,28.47-6.14,56.29,5.03,83.56,9.48,23.15,24.62,42.66,40.13,61.92,13.4,16.65,29.18,31.11,43.3,47.09,18.57,21.02,34.83,43.61,45.32,69.86,6.56,16.41,10.88,33.26,7.56,51.15-.52,2.81,1.19,3.24,3.14,3.75,12.6,3.26,23.13,.04,31.4-10.11,6.61-8.1,10.6-17.49,13.33-27.49,5.39-19.79,10.21-39.77,17.68-58.91,12.91-33.08,38.09-47.69,73.27-42.89,7.97,1.09,15.96,1.54,23.93-.06,7.26-1.46,12.51-5.45,15.51-12.33,.72-1.66,1.11-4.3,3.58-3.84,2.47,.46,2.42,3.1,2.66,5.11,1.33,11.14-4.33,19.98-15.27,23.74-7.92,2.72-16.21,3.78-24.42,5.23-7.27,1.29-14.42,3.09-21.26,5.96-10.85,4.55-14.84,11.34-12.57,22.85,3.01,15.24,6.7,30.37,8.56,45.82,4.46,37.08-3.63,69.84-33.26,95.01-13.23,11.24-29.04,16.1-45.88,17.97-22.87,2.54-45.11-.43-66.59-8.69-1.93-.74-2.78-.56-3.81,1.15-4.34,7.21-9.95,13.39-16.33,18.82-1.97,1.68-1.5,3.2-1.02,5.08,2.7,10.58,5.31,21.17,4.73,32.23-.49,9.24-2.15,18.2-7.55,25.97-4.38,6.31-7.58,6.02-10.83-.98-2.55-5.5-4.73-11.17-7.6-18.02Zm-60.94-527.24c-.8,.77-1.7,1.45-2.39,2.31-11.19,13.95-24.99,24.7-40.48,33.5-26.98,15.33-53.99,13.29-80.91,.18-12.2-5.94-20.37-16.32-28-27.14-3.64-5.15-7.39-10.22-11.09-15.33-1.02,2.47,.1,3.99,1.15,5.49,2.67,3.8,5.33,7.61,8.07,11.36,8.04,11.04,16.15,22.11,28.72,28.49,27.74,14.08,55.37,15.57,82.86-.98,16.49-9.92,31.34-21.59,42.49-37.51,3.89-3.74,6.6-8.27,8.53-13.34-2.98,4.32-5.96,8.65-8.94,12.97Zm-160.77-10.07c.38-1.21,.68-2.45,1.17-3.61,.57-1.35,1.52-2.81-.19-3.79-1.85-1.07-2.5,.86-3.25,1.91-3,4.22-7.27,6.09-12.16,6.95-1.08,.19-2.95-.84-2.9,1.32,.04,1.73,1.63,2.21,3.1,2.49,1.63,.31,3.14-.42,4.7-.64,3.77-.54,5.98-4.1,9.64-4.76,6.43,8.48,13.53,16.32,23.2,21.11,23.98,11.88,49.38,13.38,75.04,8.09,27.37-5.64,48.19-22.26,66.14-42.87,.05-.06-.25-.42-.82-1.34-1.22,1.52-2.23,2.98-3.45,4.25-10.41,10.81-22.08,20.01-35.35,27.07-24.88,13.25-51.25,13.54-78.23,9-15.43-2.6-28.21-9.96-39.54-20.43-2.06-1.9-3.54-5.01-7.11-4.75Zm6.02,370.65c-.29,9.32-.03,16.7,.96,24.02,4.8,35.53,18.2,66.88,44.44,92.13,9.95,9.58,21.45,15.58,35.16,17.25,4.93,.6,9.87,1.21,14.82,1.56,37.68,2.63,68.63-8.68,88.39-42.95,18.55-32.17,24.58-65.79,11.55-101.52-6.3-17.27-15.21-33.24-25.32-48.5-14.63-22.06-28.94-44.27-40.5-68.16-13.82-28.54-25.11-57.93-30.73-89.27-4.28-23.87-4.52-47.84-1.29-71.86,.28-2.09,1.1-4.16-2.57-3.91-8.17,.55-16.36,.47-24.52-.03-2.39-.15-3.09,.47-2.7,2.92,5.16,32.05-.9,62.79-10.48,93.25-10.97,34.9-25.01,68.65-37.49,102.98-11.05,30.39-20.78,61.08-19.72,92.09ZM464.79,219.4c.34,2.41,.53,5.47,1.24,8.4,5.03,20.85,28.71,37.99,52.26,22.38,16.92-11.22,22.86-35.72,12.83-53.33-11.05-19.41-34.48-24.34-50.88-10.55-10.02,8.42-14.62,19.55-15.45,33.09Zm-99.82-4.7c.01-4.25-1.7-11.49-5.36-18.25-9.07-16.81-28.94-23.22-44.69-14.15-13.23,7.62-19.67,19.59-19.65,34.59,.02,15.45,7.32,27.32,20.49,35.24,5.55,3.34,11.82,4.73,18.48,3.56,17.95-3.16,30.55-18.51,30.73-40.99Zm128.51,81.12c1.59-.06,3.47,.16,3.85-1.93,.46-2.53-1.62-2.75-3.35-3.04-5.72-.97-9.39-4.47-11.83-9.48-1.19-2.44-2.21-4.95-3.33-7.42-.62-1.37-.83-3.6-3-2.87-1.94,.66-1.39,2.76-1.03,4.22,1.67,6.82,4.88,12.84,10.29,17.42,2.34,1.99,5.26,3,8.4,3.1Zm-198.92,297.92c-.1-3.65-3.36-6.26-7.71-6.18-4.08,.08-6.59,2.71-6.4,6.73,.17,3.72,3.65,7.35,6.99,7.28,3.42-.08,7.23-4.26,7.13-7.82Zm274.51,80.06c-.07-3.22-4.21-6.48-8.28-6.21-4.45,.29-5.09,3.72-5.24,7.19-.17,3.94,2.32,6.32,6.13,6.18,4.23-.16,7.46-3.29,7.38-7.16Zm7.73-11.22c4.34,.09,8.51-3.81,8.45-7.55-.05-3.13-2.14-4.58-4.92-4.92-3.39-.41-8.15,3.99-8.19,7.44-.04,3.41,2.06,4.79,4.66,5.03Zm-246.55,181.33c.09,5.18,2.03,8.25,4.99,8.02,2.91-.23,6.63-4.96,6.53-8.46-.11-3.59-2.25-5.05-5.62-4.96-3.57,.09-6.35,1.11-5.89,5.41Zm222.54-192.25c4.12,.16,9.35-3.88,9.23-6.94-.13-3.48-2.62-4.93-5.75-5.15-3.4-.23-7.14,3.41-7.2,6.95-.05,2.86,1.18,4.88,3.72,5.13Zm22.94,63.13c-.3,4.59,1.46,7.11,4.99,7.11,3.56,0,5.75-2.64,6.21-6.16,.43-3.3-2.76-6.86-6.02-6.7-4.14,.2-5,3.28-5.18,5.75Zm-21.35-101.6c-4.04,.12-7.25,3.71-6.98,7.48,.23,3.25,2.16,4.93,5.35,4.89,3.25-.04,6.85-4.25,6.63-7.62-.21-3.36-2.29-4.68-5-4.74Zm-274.91,1.15c-.13-3.85-3.09-6.81-6.49-6.73-3.51,.08-4.6,2.36-4.6,5.41,0,4.38,2.51,7.48,5.88,7.18,3.75-.33,4.97-2.92,5.21-5.86Zm287.17,82.45c-2.89,.23-6.27-.09-6.19,4.13,.07,4.14,3.26,5.14,6.62,5.33,3.48,.2,6.96-2.66,6.59-5.48-.55-4.24-4.24-3.44-7.02-3.99Zm-21.94,28.45c3.69,.04,7.58-3.07,7.46-5.92-.16-3.83-3.32-4.46-6.13-4.53-3.31-.08-5.83,1.52-5.9,5.36-.06,3.37,1.94,4.77,4.56,5.09Zm-253.05-46.51c-.25,2.67,1.17,3.82,3.64,3.96,3.3,.19,7.16-3.95,7.14-7.68-.02-2.89-1.71-4.48-4.41-4.71-3.01-.26-6.29,4.24-6.36,8.43Zm294.48,23.96c.19,3.06,1.99,4.82,5.09,5.05,2.87,.21,6.24-3.51,6.2-6.74-.04-3.52-2.57-4.71-5.43-4.69-3.81,.04-5.55,2.58-5.86,6.37Zm-42.7-33.66c-3.56,.35-5.81,2.39-5.88,6.07-.06,2.94,1.76,4.7,4.87,4.62,3.2-.08,7.61-3.92,7.22-6.51-.5-3.33-3.18-3.99-6.2-4.17Zm-244.07-120.03c.42,3.02,1.47,5.82,4.99,5.96,3.45,.14,5.87-1.84,6.06-5.41,.21-3.81-2.39-5.29-5.81-5.53-3.45-.24-4.79,1.88-5.24,4.97Zm-8.84,230.09c2.91,.1,4.92-1.58,4.79-4.83-.17-4.59-3.84-4.92-7.28-5.1-2.81-.15-4.61,1.17-4.7,4.17-.1,3.52,2.67,5.85,7.19,5.77Zm22.15-190.74c3.36-.17,5.22-1.92,5.18-5.15-.05-3.81-2.64-5.29-6.07-5.37-3.27-.08-5.34,1.76-5.14,4.99,.22,3.49,2.55,5.35,6.03,5.53Zm278.33,85.18c-.17-2.27-1.05-4.37-4.12-4.46-3.18-.1-6.34,3.51-6.43,7.04-.07,2.88,1.11,4.55,4.09,4.71,3.27,.17,6.38-3.18,6.46-7.28Zm-329.52,7.77c3.83,.03,7.91-3.2,7.81-6.17-.1-2.98-2.08-4.12-4.84-4.12-3.77,0-7.43,3.04-7.4,6.08,.02,3.18,2.14,3.96,4.44,4.21Zm61.65-119.98c-.18-2.93-1.59-5.2-4.95-4.86-4.08,.42-4.74,3.86-4.85,7.1-.09,2.7,1.37,4.58,4.39,4.45,4.14-.17,5.23-2.97,5.4-6.69Zm236.7,174.49c2.63-.44,5.83-1.76,5.46-5.34-.44-4.27-4.55-3.56-7.6-3.77-2.61-.18-4.85,.41-4.96,3.68-.11,3.18,2.73,5.54,7.1,5.44Zm-243.59-130.78c-.2-3.46-2.35-5.24-5.83-5.46-3.06-.19-4.83,1.4-5.04,4.48-.21,3.12,2.85,6.19,6.11,6.08,3.07-.1,4.6-1.86,4.77-5.1Zm-14.73,244.61c-.06,3.52,1.36,6.75,3.07,6.93,2.22,.24,6.24-5.07,6.13-8.27-.1-2.78-1.55-4.61-4.43-4.52-3.63,.12-4.75,2.62-4.77,5.86Zm203.97-244.12c-.03,2.74,1.05,4.66,3.98,4.97,2.78,.29,6.57-3.5,6.44-6.52-.11-2.58-1.61-4.11-4.19-4.38-3.07-.32-6.1,2.63-6.24,5.93Zm-220.83,33.13c-3.06,.78-5.51,2.18-5.27,5.73,.2,3.02,1.75,5.32,5.08,5.06,3.56-.27,5.43-2.78,5.33-6.15-.09-2.96-2.44-4.2-5.15-4.65Zm241.81-56.23c-.42-2.26-1.69-4.18-4.51-4.34-2.47-.14-6.49,4.32-6.31,6.89,.19,2.78,2.14,3.78,4.58,3.85,3.08,.09,6.32-3.16,6.24-6.4Zm-220.38,172.55c.22,3.81,2.97,5.09,6.12,5.37,3.38,.3,4.39-2.34,4.29-5.04-.13-3.43-2.71-5.05-5.77-5.21-3-.16-4.59,1.76-4.64,4.87Zm18.93-229.85c-2.99,.09-5.95,3.92-5.81,7.31,.11,2.62,1.43,4.18,4.13,4.24,2.57,.06,6.09-4.03,6.02-7.02-.07-2.89-1.84-4.22-4.35-4.53Zm-17.9,125.69c.05-2.57-1-4.32-3.72-4.58-3.01-.28-5.87,3.4-5.93,7.35-.03,2.53,1.14,3.86,3.64,3.98,2.98,.15,5.92-3.18,6-6.75Zm242.71-16.37c-.44-2.44-2.06-4.09-4.88-3.8-3.42,.35-5.62,2.31-5.68,5.94-.04,2.66,1.58,4.18,4.16,4.37,2.6,.19,6.48-3.68,6.41-6.5Zm-3.82,64.27c2.54-.69,5.82-1.18,5.79-4.89-.03-3.63-3.4-4.02-6-4.13-2.87-.12-5.56,1.15-5.51,4.63,.05,3.3,2.77,3.89,5.71,4.39Zm-274.26,1.21c-.26,2.51,.85,4.01,3.37,4.27,2.79,.3,6.02-3.2,6.33-6.66,.23-2.56-1.01-3.96-3.42-4.28-2.85-.37-6,3.06-6.27,6.66Zm-1.67-61.72c.14-3.43-1.37-5.43-4.38-5.34-3.49,.1-4.74,2.75-4.92,5.9-.18,3.09,.99,5.67,4.34,5.58,3.81-.11,4.45-3.43,4.97-6.13Zm64.45-119.11c2.92-.23,5.28-1.36,5.45-4.7,.19-3.65-2.54-4.46-5.37-4.66-2.86-.21-5.16,.86-5.17,4.15-.01,3.18,1.83,4.92,5.1,5.21Zm-58.32,233.02c3.27-.66,5.34-2.7,5.6-6.09,.23-2.97-1.93-4.66-4.49-4.38-3.11,.35-5.85,2.18-5.82,5.84,.02,2.71,1.83,4.28,4.72,4.63Zm-6.31-21.17c3.12-.47,5.87-1.84,6.04-5.42,.13-2.78-1.94-4.21-4.68-4.31-3.13-.11-6.75,3.05-6.49,5.69,.3,2.93,2.33,3.89,5.13,4.04Zm318.64,7c-.15-2.9-2.28-3.98-4.57-3.89-3.29,.13-6,1.89-6.22,5.48-.18,3.01,2.42,3.98,4.88,4.29,2.63,.33,5.97-3.19,5.91-5.88Zm-293.92-35.48c.27,2.74,1.65,4.62,4.58,4.35,3.48-.33,4.78-3.01,4.98-6.1,.19-2.89-1.63-4.66-4.38-4.66-4.04,0-4.63,3.23-5.19,6.41Zm4.39-84.61c-3.4,.48-4.11,2.86-3.87,5.62,.23,2.51,.35,5.63,4.09,5.18,3.34-.41,4.96-2.94,4.86-6.13-.1-3.03-2.28-4.35-5.08-4.67Zm-22.72,50.77c.06,3.42,1.22,5.96,4.71,6.24,2.97,.23,4.87-1.59,5.01-4.52,.16-3.17-1.88-5.01-4.86-5.44-2.81-.4-4.42,1.16-4.86,3.72Zm-18.16-11.35c.13,2.68,.73,5.64,4.11,5.75,3.13,.1,4.66-2.33,4.75-5.43,.09-3.1-1.15-5.42-4.49-5.55-3.26-.13-4.25,2.2-4.37,5.23Zm31.13,93.58c-3.08,.1-4.64,1.55-4.37,4.51,.3,3.26,2.18,5.47,5.44,5.52,2.71,.04,4.41-1.83,4.22-4.7-.22-3.29-1.95-5.28-5.3-5.34Zm-34.85-52.19c.04,2.72,.92,4.99,3.72,4.75,3.53-.31,5.21-3.18,5.55-6.34,.29-2.66-1.85-4.08-4.3-4.14-3.89-.09-4.31,3.1-4.98,5.73Zm230.88-134.6c.11-3.05-1.38-5.21-4.49-5.55-2.76-.31-5.18,.88-5.34,4.06-.14,2.98,1.22,5.29,4.49,5.71,3.02,.39,4.82-1.05,5.33-4.21Zm-189.78,167.01c-.27-3.14-1.88-5.51-5.13-5.77-2.59-.2-4.2,1.87-3.95,4.34,.31,2.99,1.24,6.4,4.94,6.53,2.7,.1,3.82-2.42,4.13-5.1Zm269.44-97.87c.19,2.61,.95,5.25,3.96,5.01,3.62-.29,4.69-3.55,5.09-6.62,.33-2.49-1.29-3.98-3.74-3.96-3.54,.03-5.04,2.29-5.31,5.57Zm-251.54,97.25c-.07-2.66-.83-4.89-3.69-4.8-3.6,.11-4.71,3.01-5.04,5.99-.27,2.4,.52,4.75,3.4,4.82,4.04,.11,4.67-3.13,5.33-6.02Zm146.66-199.46c.21,2.63,1.71,5.14,5.02,5.23,2.87,.08,3.97-2.34,3.86-4.97-.13-3-1.52-5.31-4.78-5.45-2.98-.14-4.16,1.81-4.1,5.2Zm12.41,21.37c-.4-2.91-1.77-5.1-4.8-5.05-2.79,.04-5.01,1.73-5.1,4.69-.1,3.14,2.28,4.42,5.06,4.57,2.85,.16,4.31-1.62,4.84-4.21Zm-139.89-7.21c2.87-.12,5.26-1.3,5.34-4.64,.07-2.93-2.1-4.15-4.76-4.21-2.92-.07-5.04,1.38-5.23,4.4-.18,2.85,1.6,4.33,4.65,4.46Zm-33.31,29.62c2.52-.38,4.24-1.62,4.18-4.34-.06-3.08-2-4.76-4.87-4.88-2.82-.12-4.59,1.62-4.45,4.49,.15,3.04,2.29,4.36,5.14,4.73Zm241.1,79.67c-.23-2.62-1.89-3.68-4.2-3.66-3.23,.02-5.04,1.86-5.13,5.05-.07,2.57,1.34,4.55,3.97,4.35,3.25-.24,4.9-2.6,5.36-5.73Zm17.54,92.36c-2.52,.06-4.42,.81-4.3,3.82,.12,3,1.74,4.82,4.65,5.06,2.92,.24,4.55-1.74,4.66-4.34,.13-3.13-2.17-4.31-5.01-4.55Zm-55.31-148.3c2.8-.6,5.21-2.15,5.23-5.19,.02-2.51-2.28-3.92-4.69-3.79-2.77,.15-4.9,1.66-4.86,4.81,.03,2.63,1.54,4.05,4.31,4.17Zm.09-39.15c-.3-3.49-2.64-4.9-5.72-5.16-2.38-.2-4.16,1.08-3.9,3.61,.29,2.92,2.07,5,5.14,5.33,2.6,.28,4.18-1.06,4.48-3.78Zm-20-14.67c-.38-3.04-2.03-4.68-5.06-4.56-2.53,.1-3.7,1.77-3.57,4.12,.15,2.84,1.54,4.97,4.68,4.84,2.61-.11,3.83-1.91,3.95-4.4Zm46.26,97.84c2.62-.43,4.63-1.68,4.69-4.8,.05-2.81-1.76-4.03-4.24-4-3.3,.05-4.77,2.15-4.72,5.29,.04,2.62,1.75,3.48,4.28,3.51Zm-15.1-68.37c2.55-.33,4.09-1.96,4.03-4.39-.07-2.78-2.17-4.25-4.8-4.22-2.29,.03-3.91,1.43-3.76,3.95,.16,2.73,1.74,4.29,4.53,4.66Zm-63.23-56.96c-.16,2.69,1.05,4.42,3.74,4.64,2.59,.22,4.46-1.15,4.74-3.74,.34-3.11-2.12-4.18-4.54-4.58-2.57-.43-3.78,1.22-3.94,3.68Zm41.15,58.98c-.32-2.33-1.3-4.13-3.82-4.08-2.48,.05-4.27,1.46-4.45,4.04-.19,2.63,1.32,4.34,3.95,4.27,2.52-.07,3.86-1.86,4.33-4.23Zm28.36,49.34c2.28-.63,4.28-1.75,4.19-4.43-.08-2.3-1.41-3.99-3.97-3.83-2.53,.16-4.24,1.53-4.2,4.24,.03,2.46,1.58,3.67,3.98,4.01Zm7.08-21.37c2.58-.23,4.09-1.77,4.24-4.24,.16-2.69-1.6-4.18-4.11-4.12-2.41,.06-4.3,1.51-4.34,4.1-.04,2.58,1.67,3.93,4.22,4.26Zm22.19,242.57c-.16-2.31-1.45-3.48-3.72-3.39-3.02,.12-4.16,2.17-4.11,4.8,.04,2.08,1.2,3.89,3.55,3.56,2.64-.37,4.08-2.26,4.28-4.97Zm-51.35,.42c-2.56,.26-4.77,1.15-4.92,4.12-.1,2.03,1.36,3.44,3.3,3.32,2.75-.17,4.91-1.72,5.22-4.66,.25-2.41-1.72-2.67-3.6-2.78Zm41.2-228.05c-.55-2.27-2.05-3.72-4.33-3.71-2.73,.01-3.97,1.92-3.82,4.48,.12,2.22,1.64,3.62,3.79,3.52,2.46-.12,4.07-1.63,4.37-4.29Zm-12.67,231.09c-.06-2.07-.91-3.63-2.99-3.7-2.27-.08-4.11,1.12-4.37,3.52-.25,2.28,.99,4.48,3.2,4.61,2.53,.15,3.54-2.25,4.16-4.44Zm92.81-95.8c-.89,.2-1.88,.51-2.18,1.84-.55,2.48,4.37,7.37,6.74,6.64,.39-.12,.84-.47,1.02-.84,.66-1.38-3.73-7.58-5.58-7.65Zm-335.57,85.16c-2.5,1.12-3.53,3.29-3.64,5.96-.05,1.18-.29,3.05,1.58,2.67,3.3-.67,3-4.04,3.92-6.39,.41-1.05-.28-2.14-1.86-2.24Zm361.16-103.92c-2.57-2.09-4.92-4.14-7.76-3.48-1.66,.39-3.49,2.4-2.49,6.46,2.36-7.18,6.56-1.33,10.25-2.98Zm24.2,1.94c-1.15-1.3-1.34-4.15-4.24-4.44-.93-.09-1.77,.97-1.4,2.02,.77,2.17,2.36,3.72,4.51,4.48,.97,.34,1.26-.58,1.13-2.06ZM419.19,158.78c.94-2.43,3.18-4.32,1.72-7.06-.48-.9-1.86-1.12-2.43-.27-1.51,2.22-1.66,4.66-.23,7.06,.05,.09,.25,.08,.94,.28Zm215.22,583.68c-.7,.32-1.9,.39-1.66,1.68,.4,2.14,2.18,3.02,4.02,3.61,1.07,.34,2.21-.35,2.11-1.29-.25-2.4-2.3-3.17-4.48-4Zm24.55-14.59c-2.59-3.45-4.35-5.87-8.38-6.13,1.5,3.79,4.3,4.77,8.38,6.13Zm-1.94,26.67c-2.68-1.99-5.17-2.82-7.64-3.61-.84-.27-2.01-.42-2.34,.79-.33,1.2,.74,1.68,1.61,1.94,2.46,.72,4.92,1.81,8.37,.89ZM393.84,151.26c-1.57-.01-2.03,.9-1.92,2.14,.15,1.72,.28,3.76,2.46,3.96,1.22,.11,1.49-1.39,1.52-2.53,.05-1.64-.13-3.18-2.06-3.58Zm222.36,595.78c-.05-1.7-1-2.58-2.62-2.67-1.21-.07-2.25,.47-2.25,1.82,0,1.84,1.19,2.88,2.93,3.01,1.34,.1,1.82-.95,1.94-2.16ZM413.57,219.83c-1.55,.16-2.25,1.18-2.29,2.54-.04,1.46,.31,3.11,2.11,3.13,1.55,.02,1.78-1.6,1.99-2.82,.24-1.41-.34-2.45-1.81-2.85Zm14.94,4.28c0-1.31-.21-2.53-1.66-2.53-1.94,0-2.18,1.59-2.25,3.06-.05,1.06-.3,2.62,1.21,2.67,2.01,.06,2.44-1.67,2.71-3.2Zm12.26-64.23c1.28-2.18,3.12-4.06,1.67-6.8-.32-.6-1.23-.69-1.63-.17-1.65,2.16-2.09,4.44-.05,6.96Zm-7.07,55.84c1.41-.89,1.64-2.29,1.61-3.75-.02-1.43-.93-1.98-2.23-1.85-1.75,.18-2.03,1.38-1.6,2.78,.36,1.18,.65,2.53,2.21,2.82Zm233.59,492.97c-.02-1.02,.11-2.35-1.27-2.05-1.88,.4-2.79,2.03-3.21,3.8-.27,1.13,.4,1.95,1.51,1.88,2.26-.12,2.59-1.98,2.98-3.63Zm-4.87,37.77c-.72-3.01-2.55-4.47-5.09-5.19-.28-.08-1.07,.46-1.05,.65,.27,2.69,2.59,3.36,4.51,4.38,.34,.18,.83,.09,1.63,.16Zm9.28-26.95c1.48-.1,1.26-1.21,1.26-2.08,0-1.59-.1-3.34-2.07-3.67-1.36-.23-1.9,.94-1.79,2.14,.16,1.68,1.28,2.76,2.6,3.6Zm-12.46-18.44c0-1.26-.54-2.13-1.83-2.3-1.58-.2-2.37,.8-2.47,2.17-.1,1.33,.5,2.61,2.02,2.66,1.53,.05,2-1.24,2.28-2.54ZM414.02,239.19c.49-2.32,4.09-3.09,2.9-5.96-.29-.7-1.5-.39-2.16,.03-2.35,1.5-1.77,3.65-.73,5.93Z"/>
  <path d="M547.75,580.48c-1.31-.89-2.01-1.24-2.55-1.76-17.76-17.16-35.52-34.32-49.04-55.25-1.5-2.33-1.76-3.65,1.15-5.17,31.72-16.55,57.3-40.03,78.62-68.65,17.81-23.91,34.1-48.94,53.08-71.98,1.09-1.32,1.81-2.53,1.21-4.33-2.1-6.23-4.02-12.53-7.89-17.97-3.17-4.46-6.48-4.61-10.15-.54-.43,.48-.82,.99-1.29,1.43-1.48,1.37-2.62,4.15-4.77,3.41-2.19-.75,.43-3.48-.75-5.16-.25-.03-.58-.16-.82-.07-1.98,.72-3.51,4.71-5.86,1.77-1.96-2.44,1.38-4.09,2.67-5.93,.52-.75,1.34-1.3,2.3-2.19-2.18-.87-4.07-1.59-5.93-2.37-1.34-.56-1.95-1.6-1.83-3.05,.11-1.36,1.14-1.85,2.21-2.24,4.29-1.6,8.58-1.49,12.53,.79,2.1,1.21,3.94,1.51,6.32,1.07,7.81-1.46,11.92,.79,15.42,8.08,2.63,5.47,4.2,11.3,5.28,17.24,1.96-.04,2.76-1.44,3.78-2.33,14.65-12.87,30.92-14.52,48.94-8.11,19.53,6.95,36.47,17.94,51.85,31.51,36.78,32.44,61.41,72.29,72.63,120.2,.77,3.27,1.61,6.57,1.2,9.97-.33,2.8-1.65,3.65-4.18,1.86-2.68-1.9-4.49-4.56-6.48-7.06-5.59-7.04-11.45-13.8-18.33-19.66-16.69-14.21-35.97-19.08-57.4-16.17-13.58,1.85-26.58,5.68-39.04,11.49-13.77,6.42-24.12,16.26-30.81,29.84-5.88,11.93-11.38,24.04-17.25,35.98-5.28,10.75-6.68,10.91-15.9,3.1-10.75-9.11-22.56-16.42-36.18-20.38-17.79-5.16-29.59,.55-36.6,17.7-3.16,7.72-5.53,15.69-6.12,24.95Zm95.54-175.57c.32-.15,.64-.31,.96-.46-2.02-5.12-3.99-10.27-6.09-15.36-.57-1.38-1.76-2.59-3.38-1.81-2.1,1.01-.63,2.43,.04,3.55,2.79,4.72,5.65,9.39,8.48,14.08Zm68.22-22.22c.07-1.93-4.25-6.42-6.25-6.55-1.33-.08-1.81,.75-1.58,1.78,.73,3.3,2.65,5.92,5.74,7.19,1.59,.66,1.96-1.09,2.09-2.42Zm2.11,74.09c-.04-2.06-.08-4.06-2.49-4.02-2.16,.03-2.8,1.86-2.84,3.7-.05,2.05,.11,5.05,2.17,5.14,2.45,.11,2.32-3.17,3.16-4.82Zm-60.8-32.03c-.4-2.31,.11-5.24-3.33-5.86-1.37-.25-2.8,.34-2.48,1.97,.52,2.67,1.96,5.15,4.41,6.29,1.41,.66,1.13-1.36,1.41-2.4Zm13.19-38.07c1.2,.18,1.93-.52,1.78-1.25-.6-2.89-2.04-5.38-4.81-6.65-1.32-.61-2.2,.62-2.1,1.79,.28,3.25,2.9,4.65,5.13,6.11Zm30.14-2.4c1.54,.02,2.05-.66,1.58-1.79-.87-2.13-1.34-4.82-4.27-5.03-1.39-.1-2.4,1.16-2.11,2.57,.53,2.65,2.61,3.75,4.8,4.25Zm-22.33,72.62c-.37-1.75-.26-3.92-2.73-4.32-1.69-.27-2.37,.9-1.99,2.32,.53,1.97,.08,4.87,2.82,5.27,1.65,.24,1.8-1.78,1.9-3.27Zm28.77-3.34c1.43-1.28,1.61-2.73,1.91-4.07,.34-1.52-.18-2.83-1.6-3.58-.84-.44-1.87-.69-2.64,.05-1.1,1.05-.5,2.41-.19,3.56,.4,1.48,.86,3.02,2.52,4.04Zm-51.28-69.2c1.57-2.51,.68-4.68,.25-6.77-.24-1.19-.68-2.7-2.48-2-1.38,.54-1.78,1.75-1.3,3.13,.67,1.94,1.56,3.76,3.52,5.64Zm-47.08,83.32c1.14-2.94-.35-5.09-1.3-7.28-.41-.93-1.35-1.39-2.36-.97-1.04,.43-1.17,1.45-.89,2.38,.73,2.41,1.87,4.55,4.55,5.86Zm5.63-7.18c.89-2.29,1.7-4.34,2.47-6.41,.4-1.06,.8-2.34-.51-2.94-1.59-.73-2.35,.59-2.83,1.77-1.03,2.55-.4,4.97,.88,7.57Zm16.8-49.87c-1.17-3.12-1.94-5.3-2.8-7.45-.43-1.07-1.08-2.09-2.49-1.39-1.27,.64-1.29,1.73-.6,2.81,1.33,2.06,2.49,4.3,5.88,6.03Zm73.63,12.08c-.1-3.83,.74-6.59-1.95-8.45-.68-.47-1.75-.03-2.05,.73-1.29,3.3,1.24,4.86,4,7.73Zm-80.85,44.72c1.94-.7,3.71-1.77,4.27-3.91,.28-1.1-.5-2.44-1.67-2.46-2.67-.05-2.77,2.57-3.7,4.23-.51,.92-.21,1.85,1.1,2.14Zm89.11-54.97c-.28-1.8-1.19-3.26-3.11-3.73-1.41-.34-2.23,.71-2.16,1.89,.13,2.18,1.68,3.42,3.69,3.82,1.21,.24,1.51-.85,1.57-1.97Zm-57.77-13.08c.13-2.62,.21-4.64-.59-6.58-.37-.9-1-1.76-2.15-1.47-1.15,.29-1.32,1.38-1.19,2.33,.32,2.3,1.6,4.01,3.93,5.73Zm77.33-.27c1.88-.54,2.23-2.1,2.18-3.7-.04-1.05-.41-2.45-1.81-2.32-1.9,.18-2.44,1.74-2.51,3.41-.05,1.43,.62,2.39,2.15,2.6Zm-84.45,32.63c-1.23-2.9-1.49-5.57-4.39-6.68-.27-.1-1.08,.34-1.1,.58-.27,2.98,2.03,4.3,3.93,5.86,.1,.08,.3,.05,1.57,.24Zm63.21-4.02c.49,1.16,.76,3.3,2.25,3.04,1.83-.31,1.85-2.71,2.39-4.31,.36-1.08-.17-1.94-1.4-1.85-1.77,.13-2.9,1.12-3.24,3.12Zm-126.06,46.97c-.15-1.48-.11-3.17-1.94-3.4-1.72-.21-2.13,1.14-1.88,2.52,.27,1.49,.26,3.55,2.26,3.68,1.76,.11,1.39-1.7,1.56-2.8Zm89.45-82.56c-1.46,.2-1.88,1.21-1.73,2.41,.19,1.53,.95,2.75,2.69,2.85,1.19,.07,1.77-.66,1.7-1.78-.1-1.73-.86-3.03-2.66-3.48Zm74.41,67.1c.17-1.39,.3-2.99-1.25-3.26-1.46-.25-2.16,1.09-2.28,2.5-.13,1.55,.28,3.25,1.81,3.49,1.85,.29,1.16-1.83,1.72-2.73Zm-126.6,39.58c-.1-1.24,.06-2.83-1.8-2.6-1.54,.19-1.75,1.67-1.66,2.93,.08,1.17-.02,2.93,1.61,2.9,1.86-.04,1.64-1.9,1.85-3.22Zm-24.52-24.79c.57,.8-.14,2.85,1.56,2.81,1.93-.04,2.11-2.14,2.37-3.61,.26-1.44-.6-2.49-2.2-2.35-1.79,.16-1.56,1.66-1.73,3.14Zm54.32,3.78c0-1.34-.2-2.58-1.66-2.51-1.86,.09-2.21,1.59-2.14,3.12,.06,1.25,.15,2.93,1.87,2.68,1.66-.25,1.71-2.04,1.93-3.28Zm91.57-49.35c-.09-1.4-.53-2.64-2.03-2.78-1.73-.16-1.96,1.24-2.01,2.54-.06,1.29,.08,2.88,1.55,3.02,1.62,.15,2.36-1.24,2.49-2.78Zm1.38-20.9c.75-2.26,3.29-3.68,1.24-6.05-.66-.76-1.88-.93-2.44,.02-1.09,1.87-1.16,3.81,1.2,6.03Zm-63.66-45.19c-1.38,.29-1.6,1.34-1.52,2.49,.09,1.34,.54,2.62,2.11,2.53,1.53-.08,2.01-1.32,1.9-2.7-.12-1.47-1.1-2.14-2.49-2.32Zm4.64,12.87c-1.67,.3-2.32,1.44-2.36,3-.02,1.03,.43,1.99,1.54,1.94,1.62-.07,2.51-1.13,2.61-2.76,.07-1.24-.33-2.15-1.79-2.18Zm-71.49,58.53c.01,3.08,.61,5.99,2.52,9.63,.87-4.42-.04-7.24-2.52-9.63Zm65.54,33.92c1.1-2.65,2.35-4.31,.9-6.53-.48-.74-1.44-1-2-.23-1.51,2.06-.16,3.87,1.1,6.76Z"/>
  <path d="M192.96,376.76c1.58-.39,3.08-.89,4.61-1.09,1.79-.23,3.18,.55,3.63,2.4,.46,1.89-.42,3.06-2.26,3.6-.92,.27-1.84,.58-2.72,.95-2.04,.86-2.6,2.03-.36,3.26,2.41,1.32,3.87,3.31,4.76,5.8,.48,1.34,1.25,2.85-.23,3.95-1.2,.89-2.45,.19-3.55-.55-10.97-7.35-12.34-3.7-17.13,7.51-.62,1.46-.44,2.76,.59,4.02,17.85,21.95,30.26,47.64,47.98,69.67,9.46,11.77,19.55,22.93,31.23,32.6,10.2,8.43,21.65,14.31,34.5,17.32,3.63,.85,3.9,2.07,2.22,5.05-7.09,12.56-15.31,24.45-21.86,37.32-5.52,10.85-11.14,21.65-16.75,32.46-.55,1.07-.69,2.75-2.37,2.62-1.59-.12-1.72-1.73-2.1-2.88-2.25-6.85-4.18-13.79-7.23-20.36-8.36-17.99-23.88-23.46-41.86-14.81-10.66,5.13-18.72,13.38-26.7,21.74-9.69,10.15-8.98,8.73-13.79-2.5-5.36-12.5-10.1-25.37-19.46-35.71-18.54-20.48-46.04-22.89-67.79-5.79-8.75,6.88-16.28,14.96-22.77,24.01-.99,1.38-1.85,3.6-3.85,3.11-2.48-.6-1.79-3.22-1.72-4.93,.66-16.47,4.16-32.45,9.55-47.94,13.8-39.67,36.03-73.55,69.7-99.31,7.27-5.56,14.97-10.51,23.58-13.82,5.6-2.16,11.35-3.63,17.39-2.16,2.75,.67,3.09-.52,3.32-2.89,.64-6.7,3.32-12.1,10.56-13.76,1.88-.43,2.08-1.54,2.24-3.07,.35-3.45,1.59-6.57,4.17-8.97,1.47-1.37,3.19-3.56,5.3-1.97,2.01,1.52-1.54,2.78-.82,5.11Zm-5.42,71.97c.27-2.6,.62-4.59,.63-6.59,.01-1.74-1.27-2.59-2.87-2.46-1.54,.13-1.38,1.49-1.3,2.6,.18,2.41,.85,4.58,3.54,6.45Zm-19.89-25.24c.33,1.26-.66,3.68,1.1,3.53,2.23-.19,2.37-2.97,2.96-4.86,.49-1.55-.29-2.54-1.84-2.52-2.73,.04-1.93,2.29-2.22,3.85Zm-15.92,47.39c2.21-1.89,3.02-3.94,3.82-5.97,.5-1.28-.1-2.25-1.32-2.61-1.12-.34-1.77,.46-2.1,1.46-.7,2.13-1.11,4.3-.41,7.13Zm-17.52-42.72c-.21-1.52,.47-3.58-1.74-3.86-1.64-.21-2.03,1.47-1.86,2.68,.25,1.78,0,4.57,2.02,4.83,2.07,.26,.99-2.42,1.58-3.65Zm45.29,26.87c2.39-1.75,2.44-3.98,1.65-6.39-.29-.88-1.21-1.33-1.87-.72-1.81,1.69-.67,3.88-.66,5.87,0,.37,.51,.74,.87,1.24Zm-6.82-19.37c2.38-2.12,3.48-4.21,2.87-6.86-.16-.69-1.47-1.15-2.04-.55-1.93,2.04-1.68,4.44-.83,7.41Zm-73.8,27.56c1.51-1.85,3.53-3.18,2.24-5.74-.42-.83-1.66-1.39-2.38-.51-1.54,1.87-1.54,3.92,.15,6.25Zm86.41,5.62c1.11-1.75,2.09-2.98,2.71-4.37,.64-1.45,.36-2.89-1.47-3.24-1.84-.35-2.1,1-1.9,2.35,.22,1.51-.65,3.07,.67,5.27Zm-75.57,9.59c.23,.9-.35,2.69,1.1,2.61,2-.11,2.59-2.14,2.94-3.83,.26-1.27-.51-2.28-1.88-2.1-1.79,.23-2.1,1.7-2.15,3.32Zm8.93,29.57c.87-2.82,1.52-5.03-.22-7.15-.14-.18-1.13-.03-1.21,.16-.88,2.31-1.27,4.61,1.43,6.98Zm8.37-59.2c-1.62,.36-2.27,1.61-2.47,3.04-.2,1.38,.49,2.79,1.86,2.78,1.86-.01,1.62-1.91,1.82-3.19,.16-1.05,.3-2.25-1.21-2.63Zm30.33-26.41c-.18-1.48-1.2-2.19-2.55-2.42-1.6-.27-1.88,.88-1.9,2.07-.03,1.33,.11,2.66,1.91,2.72,1.59,.06,2.27-.92,2.54-2.37Zm-63.28,49.75c1.77-1.26,2.2-2.74,2.17-4.37-.03-1.31-.38-3-1.75-3.01-2-.02-1.09,1.89-1.09,2.97,0,1.37-.4,2.84,.67,4.42Z"/>
  <path d="M378.36,1.48c1.42,7.52,2.5,15.12,4.32,22.53,8.19,33.28,16.59,66.52,24.9,99.77,1.54,6.14,1.52,6.09-4.44,6.59-16.45,1.37-32.9,2.72-49.33,4.24-7.34,.68-7.39,.67-5.95-6.55,7.8-39.13,17.28-77.86,27.21-116.48,.86-3.35,1.45-6.76,2.16-10.14,.37,.01,.74,.03,1.11,.04Zm-.78,18.95c-4.95,17.3-9.91,34.61-14.86,51.91,1.43-1.05,1.88-2.39,2.32-3.73,3.56-10.95,5.9-22.27,10.19-32.99,.63-1.56,.74-3.84,3.05-3.73,2.41,.12,2.17,2.5,2.53,4.08,5.05,22.5,10.42,44.91,16.66,67.11,1.55,5.52,2.59,11.23,.31,16.98-.76,1.91-.79,4.11-.04,6.15,.6,1.65,1.83,2.69,3.63,2.58,1.87-.12,2.13-1.61,2.27-3.12,.25-2.73,.22-5.46-.41-8.13-7.57-32.41-15.13-64.83-25.65-97.11Zm-2.22,66.72c.2,11.51-.54,23.08,2.07,34.43,.03-11.53,.48-23.08-2.07-34.43Zm.21-31.08c0,5.65-.02,9.94,.03,14.22,0,.55,.24,1.3,.64,1.61,.6,.47,1.15-.09,1.57-.6,2.11-2.56,1.37-11.31-2.24-15.23Zm-13.49,46.38c.47,5.86,.94,11.71,1.41,17.57,.5-.06,1.01-.11,1.51-.17,.31-5.94-.34-11.78-2.92-17.4Z"/>
  <path d="M246.27,22.3c1.9,2.99,3.41,5.37,4.93,7.74,22.58,35.34,45.13,70.7,67.77,106,1.79,2.79,1.69,3.8-1.79,4.71-15.21,3.99-29.96,9.29-43.9,16.65-2.23,1.18-3.83,1.62-4.32-1.65-6.62-44.18-17.02-87.7-23.26-131.94-.02-.14,.1-.3,.56-1.51Zm10.03,49.59c.2-.02,.39-.05,.59-.07,0-4.26-.05-8.52,.02-12.77,.03-1.56-.08-3.33,1.95-3.95,2.07-.64,3.39,.46,4.43,2.01,2.48,3.73,5.11,7.39,7.33,11.28,12.56,22.06,27.67,42.69,37.31,66.41,.73,1.8,2.43,4.04,4.83,2.66,2.15-1.24,1.67-3.55,.53-5.53-.24-.42-.53-.8-.78-1.21-18.97-29.89-37.93-59.78-56.93-89.65-.76-1.19-1.19-2.97-3.54-2.97,1.44,11.42,2.85,22.61,4.27,33.8Zm30.21,69.26c.53-.16,1.05-.31,1.58-.47-1.11-7.03-3.56-13.66-6.67-20.08-.35-.73-1.05-1.29-1.94-1.03-1.26,.38-1.14,1.45-.79,2.34,2.57,6.42,5.2,12.83,7.82,19.24Zm-19.36-44.64c.74,6.14,3.41,11.54,5.81,17.02,.3,.69,.79,1.57,1.78,1.1,1.05-.49,1.07-1.63,.81-2.49-1.74-5.76-4.86-10.8-8.39-15.63Zm13.92,3.07c-1.87-7.47-5.87-13.92-10-20.29,2.69,7.08,4.43,14.61,10,20.29Zm7.54,11.29c1.49,7.56,7.72,18.79,10.8,19.77-2.68-6.81-5.97-12.93-10.8-19.77Z"/>
  <path d="M494.72,0c-1.71,12.52-3.35,24.37-4.94,36.22-4.29,31.9-9.07,63.72-15.1,95.34-.83,4.38-1.62,6.48-6.98,5.52-13.42-2.39-27.11-2.24-40.69-3.21-3.2-.23-4.48-.48-2.57-3.97,22.98-41.98,42.73-85.66,67.15-126.88,.55-.92,.76-2.12,3.13-3.03Zm-59.89,117.57c.52,.23,1.05,.45,1.57,.68,3.88-7.84,7.73-15.69,11.65-23.51,9.25-18.47,17.94-37.24,29.55-54.42,1.17-1.73,2.01-5.12,4.49-4.2,2.61,.97,1.43,4.33,1.1,6.5-2.6,17.42-4.36,35.04-9.63,51.93-3.59,11.51-2.14,23.55-4.57,35.15-.29,1.4-.01,3.24,1.74,3.49,2.08,.3,1.85-1.73,2.17-3.02,.35-1.4,.6-2.82,.87-4.23,6.05-32.14,9.83-64.6,13.43-97.08,.54-4.91,1.47-9.78,2.22-14.67-19.58,33.93-37.93,68.23-54.59,103.39Zm34.7-40.28c-4.08,8.92-8.31,17.78-9.74,27.6,5.96-8.25,9.56-17.33,9.74-27.6Zm-11.64,45.69c5.59-1.31,9.48-8.71,9.29-16.45-3.38,5.99-6.34,11.22-9.29,16.45Z"/>
  <path d="M534.5,160.08c-10.18-4.98-19.6-11.43-30.49-15.07-9.08-3.04-8.85-3.18-2.93-10.64,23.2-29.23,46.99-58.01,68.07-88.87,1.86-2.72,3.58-5.52,6.4-7.86-1.92,7.34-3.65,14.73-5.8,22-9.35,31.64-17.37,63.63-25.21,95.66-.11,.47-.25,.93-.37,1.39-2.09,7.96-3.02,8.27-9.83,3.23,1.97,.15,3.28-.5,4.01-2.55,1.79-4.96,4.16-9.73,5.62-14.78,7.78-26.88,13.22-54.38,21.56-81.11,.24-.77,.74-1.6-.43-2.95-2.07,4.92-7.82,7.56-5.85,13.87,.23,.74-.53,1.8-.83,2.71-6.01,18.42-9.78,37.41-14.57,56.14-2.05,8.02-2.76,16.53-9.26,22.72-2.09,1.99-1.09,4.06-.1,6.12Zm23.37-89.7c-.49-.44-.99-.89-1.48-1.33-16.05,20.73-32.11,41.46-48.16,62.19,.43,.33,.87,.67,1.3,1,16.11-20.62,32.23-41.24,48.34-61.86Zm-19.54,52.54c-5.05,7.81-9.63,15.83-13.16,24.44-.39,.95-.25,2.08,.91,2.34,1.31,.29,1.98-.83,2.47-1.82,2.71-5.41,5.43-10.81,8.01-16.28,1.25-2.66,2.62-5.37,1.77-8.67Zm-22.33,10.15c5.76-1.54,13.38-11.29,14.25-17.82-5.4,5.57-9.88,11.03-14.25,17.82Z"/>
  <path d="M478.4,648.57c-9.21,7.04-18.62,10.64-28.19,13.73-32.37,10.47-65.36,12.03-98.8,6.38-2.69-.45-5.38-.89-8.04-1.44-1.29-.27-3.63,.1-3.33-1.78,.37-2.35,2.66-1.02,3.98-.78,6.63,1.23,13.3,2.03,20,2.7,38.96,3.92,76.36-1.7,111.95-18.33,.28-.13,.61-.13,2.44-.49Z"/>
  <path d="M355.66,732.68c45.57,18.53,90.28,20.08,134.93-4.4-2.34,3.91-5.19,5.56-8.02,7.09-22.25,12.01-46.16,15.62-71.13,14.24-18.85-1.05-36.4-6.99-53.83-13.53-.56-.21-1.06-.68-1.5-1.12-.18-.18-.14-.59-.46-2.27Z"/>
  <path d="M451.76,596.3c-9.93,8.46-21.91,12.95-34.21,16.56-20.97,6.17-42.14,7.88-63.45,1.59-1.54-.46-4.5-.31-4.04-2.32,.49-2.13,2.97-.57,4.45-.18,28.65,7.51,55.88,1.81,82.54-8.88,5-2.01,9.81-4.5,14.71-6.77Z"/>
  <path d="M431.85,548.69c-8.23,6.14-17.91,7.95-27.8,8.7-13.22,1.01-26.26-.59-39.12-3.64-1.39-.33-4.02,.1-3.64-2.03,.38-2.15,2.71-.83,4.07-.6,14.42,2.43,28.84,4.56,43.52,2.57,7.77-1.06,15.32-3.04,22.97-5Z"/>
  <path d="M389.98,515.5c-4.2-.02-7.9,.07-11.48-1.03-.9-.28-1.97-.58-1.74-1.86,.2-1.09,1.13-.89,1.91-.79,12.55,1.63,24.55-1.14,36.51-4.43,1.12-.31,2.73-1.61,3.43-.1,.83,1.79-1.22,2.4-2.41,2.91-8.52,3.68-17.57,4.8-26.22,5.31Z"/>
  <path d="M397.99,480.99c-.16,0-.33,.02-.48,0-1.9-.37-5.17,.84-5.36-1.55-.24-3.15,3.13-1.62,4.86-1.82,3.68-.44,7.24-1.21,10.75-2.34,1.15-.37,2.57-1.31,3.21,.53,.52,1.47-.57,2.37-1.78,2.98-3.52,1.8-7.38,1.91-11.21,2.2Z"/>
  <path d="M399.53,444.2c-2.15-.13-3.91-.22-5.66-.35-1.18-.09-2.34-.38-2.29-1.87,.06-1.73,1.38-2.06,2.74-1.88,3.52,.46,7.01,.63,10.48-.34,1.26-.35,2.31-.1,2.63,1.27,.37,1.6-.65,2.44-2.06,2.64-2.06,.29-4.14,.38-5.83,.52Z"/>
  <path d="M385.7,576.9c.01,1.47-.93,1.92-2.17,1.86-1.43-.07-3.05-.12-3.17-2.07-.09-1.41,.98-1.87,2.21-1.92,1.54-.06,2.88,.26,3.14,2.13Z"/>
  <path d="M405.66,645.67c-.29,1.6-1.45,1.55-2.58,1.4-1.29-.18-2.69-.56-2.79-2.09-.09-1.44,1.14-1.78,2.34-1.7,1.53,.1,2.78,.68,3.04,2.38Z"/>
  <path d="M521.21,216.25c.48,12.87-6.93,21.36-18.98,21.76-13.31,.44-22.1-7.14-22.56-19.46-.45-12.24,7.27-21.17,18.84-21.58,9.97-.36,23.18,5.28,22.7,19.28Zm-9.18,.57c3.77-.11,7.33-3.42,6.95-6.45-.46-3.7-2.94-5.54-6.59-5.61-3.84-.07-6.55,2.66-6.3,6.27,.27,3.91,2.84,5.43,5.94,5.79Z"/>
  <path d="M334.99,238.01c-13.5-.17-21.48-8.02-21.39-21.07,.08-12.46,8.11-20.44,20.48-20.35,12.98,.09,22.29,8.8,22.16,20.73-.14,12.85-8.35,20.84-21.24,20.69Zm17.56-27.37c-.03-3.09-2.6-5.42-6.01-5.45-3.69-.03-6.62,2.59-6.69,5.99-.07,3.33,2.56,5.76,6.2,5.72,3.47-.03,6.53-2.98,6.5-6.26Z"/>
</svg>