<?xml version="1.0" encoding="UTF-8"?>
<svg id="Layer_1" data-name="Layer 1" xmlns="http://www.w3.org/2000/svg" viewBox="0 0 864 864">
  <path d="M604.51,772.09c5.13,1.91,9.45,3.24,13.53,5.09,17.44,7.95,26.83,24.95,23.38,42.82-1.15,5.93-2.73,11.97-10.01,14.04-2.45,.7-3.01,4.01-4.67,5.95-9.24,10.75-8.09,10.82-14.68-1.97-.59-1.14-.97-2.39-1.42-3.6-.61-1.66-.94-3.47-3.49-3.11-2.3,.32-3.24,1.37-3.45,3.74-.38,4.52-1.88,8.8-3.4,13.07-1.08,3.02-2.62,3.66-5.43,2.04-5.55-3.22-10.19-7.31-13.43-12.93-1.49-2.59-8.04-4.34-10.56-2.99-1.72,.92-.69,2.26-.47,3.38,1.1,5.66,2.28,11.3,3.65,18.03-10.51-5.09-19.85-9.95-26.51-18.59-2.78-3.61-5.89-6.65-9.64-9.33-15.28-10.86-18.22-26.42-16.1-43.82,.74-6.06,2.65-11.85,3.98-17.82-2.15-.69-2.9,.84-3.8,1.78-16.06,16.57-34.76,29.22-56.18,37.78-2.73,1.09-4.1,2.62-4.23,5.63-.46,10.24-5.75,18.01-13.38,24.22-3.07,2.49-5.63,5.14-7.57,8.57-2.49,4.4-6.27,7.75-9.75,11.34-1.94,2-3.15,1.61-4.33-.7-2.06-4.03-4.03-8.1-5.15-12.5-.61-2.41-1.91-2.97-4.22-2.52-4.43,.86-8.87,1.73-13.36,2.16-2.85,.27-3.84,1.52-4.12,4.17-.57,5.38-3.01,10.15-5.21,15-1.66,3.66-3.54,3.68-6.64,1.52-5.81-4.05-10.82-8.81-13.82-15.23-1.75-3.74-4.05-5.01-8.13-5-7.55,.02-7.46-.25-7.96,7.25-.18,2.65,1.07,6.72-1.18,7.6-2.58,1.01-4.69-2.65-6.78-4.53-3.84-3.45-7.58-7.04-10.41-11.41-1.03-1.6-2.45-2.5-4.13-3.17-9.87-3.96-19.09-8.74-24.4-18.7-1.4-2.63-3.81-1.05-5.66-.68-19.41,3.84-38.84,3.95-58.18-.06-42.06-8.71-73.77-32.71-97.82-67.49-18.72-27.07-31.26-56.71-35-89.66-1.63-14.38-1.03-28.68,3.31-42.64,1.65-5.28,4.16-10.1,7.63-14.46,2.45-3.08,4.88-2.85,7.24-.22,2.44,2.73,4.61,5.69,7.24,8.97,6.98-27,11.56-53.51-2.06-79.44-6.67-12.71-15.85-22.85-30.88-25.61-11.98-2.2-23.05,.53-33.44,6.57-7.4,4.3-14.27,9.32-20.8,15.66-1.58-4.15-.84-7.75-.19-11.26,1.21-6.49,4.62-11.96,8.4-17.26,14.91-20.91,27.34-43.03,32.3-68.61,3.28-16.88,3.33-33.7-2.35-50.16-6.95-20.15-20.64-30.28-41.85-31.4-1.9-.1-5,.96-5.4-1.5-.33-2.07,2.68-2.84,4.57-3.61,8.46-3.46,17.18-1.94,25.82-1.11,42.86,4.14,83.7,16.72,124.33,30.09,13,4.28,26.26,8.01,38.13,15.14,1.97,1.18,3.16,.96,4.42-.82,1.22-1.71,2.57-3.31,3.91-4.93,1.09-1.32,1.53-2.31,.34-4.15-2.34-3.6-.99-7.26,1.44-10.28,2.46-3.06,5.51-5.93,9.85-4.85,3.92,.98,5.89,4.21,6.85,8.06,1.65,6.64,.08,10.64-5.74,13.49-1.43,.7-1.69,1.71-2.16,2.89-3.5,8.86-2.53,15.77,4.4,23.76,24.9,28.73,45.15,60.79,63.35,94.15,7.42,13.6,15.66,26.71,24.66,39.33,.81,1.14,1.38,3.8,3.75,1.17,17.31-19.15,35.13-37.92,46.94-61.26,23.9-47.21,24.82-95.49,7.42-144.97-4.44-12.63-9.86-21.15-24.63-24.11-16.95-3.4-32.33-12.21-44.5-25.11-20.67-21.91-27.29-48.35-23.92-77.76,.15-1.28,.46-2.55,.54-3.83,.21-3.34,3.16-7.14,1.2-9.63-1.63-2.07-5.85-2.08-8.91-3.06-27.78-8.89-48.49-26.72-62.75-51.68-16.47-28.81-27.26-59.79-31.62-92.83-1-7.53-1.16-15.13,.46-22.64,1.19-5.52,3.76-10.24,8.27-13.82,3.34-2.65,5.69-2.73,8.77,1.08,28.01,34.68,61.06,62.88,103.26,79.06,13.85,5.31,28.06,9.41,42.52,12.66,.34-.4,.68-.79,1.02-1.19-2.42-2.04-5.07-3.87-7.24-6.15-22.52-23.74-37.56-51.38-43.37-83.79-.77-4.28-1.82-8.51-2.78-12.75-.93-4.12,.94-5.99,4.89-6.52,5.23-.7,9.86,1.04,14.41,3.22,16.58,7.94,31.04,19.02,45.09,30.67,18.78,15.57,35.51,33.33,53.14,50.13,5.25,5,10.73,9.74,17.47,13.68-.34-4.32-2.43-7.56-4.06-10.88-12.19-24.73-25.71-48.79-36.87-74.04-1.11-2.5-2.36-4.99-3.02-7.62-1.13-4.47,.1-5.55,4.65-4.6,15.18,3.18,29.24,9.2,42.19,17.59,22.5,14.57,41.75,32.43,54.84,56.22,1,1.82,2.33,2.52,4.16,2.77,9.61,1.31,19.1,3.1,28,7.19,2.65,1.22,2.93-.78,3.43-2.5,2.11-7.24,2.55-14.63,1.53-22.05-1.91-13.94-5.14-27.56-10.71-40.55-.75-1.74-1.9-3.81-.42-5.46,1.75-1.96,3.96-.53,5.82,.25,3.59,1.51,6.77,3.77,9.72,6.29,25.07,21.51,40.59,48.44,45.89,81.13,.99,6.13,.69,12.24-1.17,18.2-.93,2.97-.67,5.45,1.2,8.13,6.37,9.12,12.4,18.48,18.72,27.64,12.35,17.91,29.58,15.34,42.57,7.85,5.85-3.38,11.14-7.72,16.95-11.19,11.99-7.16,18.28-4.62,21.11,9.04,3.76,18.15,1.32,36.11-4.51,53.41-13.65,40.53-39.85,71.1-76.28,92.99-35.41,21.27-74.46,28.03-115.11,28-6.93,0-6.82-1.19-5.82,6.29,4.4,32.98,13.41,64.69,26.52,95.22,16.27,37.9,33.97,75.2,47.79,114.61,2.18-1.46,2.54-3.6,3.27-5.34,16.13-38.8,35.5-75.94,57.14-111.92,8.82-14.66,18.26-28.94,28.9-42.33,5.07-6.38,2.1-13.29,2.92-19.93,.05-.38-.68-.95-1.16-1.29-5.79-4.12-6.48-6.47-3.68-12.79,2.41-5.45,6.52-8.36,10.09-7.15,4.46,1.51,7.02,8.14,5.26,13.61-.53,1.63-1.76,2.93-1.4,4.98,1.46,8.25,2.62,8.7,9.99,4.97,37.06-18.77,76-31.21,117.67-34.03,5.84-.4,11.78-.6,17.24,1.57,.09,1.45-.47,1.72-1.13,1.85-17.46,3.48-28.63,14.35-34.55,30.59-9.34,25.62-12.84,51.87-6.9,78.9,3.19,14.51,11.09,26.31,20.88,37.07,1.85,2.03,3.77,4.04,4.8,6.63,.86,2.17,1.19,4.5-.68,6.33-2.05,2-4.15,.95-6.15-.32-1.63-1.04-3.28-2.06-4.93-3.07-24.25-14.96-53.87-5.61-64.79,20.69-7.84,18.88-8.28,38.6-5.65,58.55,.84,6.37,1.75,12.73,2.64,19.22-2.88,.14-3.25-1.98-4.1-3.31-5.22-8.15-10.14-16.48-15.49-24.54-12.44-18.76-29.91-20.96-47.02-6.17-13.93,12.04-19.46,28.05-21.72,45.63-.59,4.6-.9,9.26-2.64,14.16-2.79-1.33-3.81-3.73-5.05-5.81-5.29-8.86-10.42-17.83-16.63-26.1-2.72-3.63-5.77-6.95-9.33-9.78-5.95-4.73-12.44-4.52-19.25-2.3-3.07,1-1.67,3.04-1.29,4.71,3.4,14.8,6.03,29.71,7.16,44.86,.51,6.91,.86,13.85,1.07,20.78,.08,2.49,.52,3.87,3.43,3.91,28.35,.38,53.8,27.31,44.65,64.46-4.56,18.51-14.11,34.15-27.21,47.77-1.76,1.83-3.84,3.36-6.08,5.3Zm-436.76-152.38c-6.94,.78-13.26,1.6-19.6,2.18-4.65,.43-9.35,.86-13.72-1.58-2.39-1.34-2.78,.54-3.01,2.15-.58,4.19-.62,8.43,.52,12.5,7.99,28.44,22.47,52.99,44.31,73.02,14.84,13.61,32.35,21,52.49,21.72,13.19,.47,25.99-2.12,38.57-5.92,6.74-2.03,6.58-1.96,5.83-8.75-3.28-29.72,.78-58.19,14.61-85.01,8.1-15.72,18.47-29.88,29.32-43.73,2.07-2.64,1.93-3.76-1.47-4.21-3.2-.43-6.4-.85-9.56-1.51-7.45-1.55-13.58,.67-18.95,5.93-4.88,4.77-9.02,10.1-12.74,15.77-10.01,15.26-18.53,31.37-26.89,47.57-1.1,2.14-1.7,4.76-4.52,6.46-.82-4.8-1.57-9.07-2.28-13.33-3.52-21.13-11.1-40.45-26.08-56.19-13.64-14.33-31.22-14.87-46.13-1.86-8.83,7.71-15.17,17.54-22.45,26.57-2.22,2.75-.76,4.12,2.12,4.48,2.07,.26,4.2,.13,6.28,.34,4.41,.44,8.87,.72,13.33,3.41ZM468.45,222.41c.09-29.62-24.93-53.25-56.58-53.45-30.43-.19-55.03,22.58-55.21,51.11-.19,31.44,25.73,57.08,57.82,57.18,29.96,.09,53.88-24.21,53.96-54.83Zm33.27-23.84c.23,12.53,5.66,26.43,16.81,38,18.07,18.75,46.31,22.17,66.04,7.98,17.99-12.93,26.28-36.78,20.63-59.38-5.28-21.14-21.84-35.51-44.55-38.66-32.96-4.57-59.17,17.03-58.93,52.06Zm-3.85,398.88c.61,4.09-.5,7.33-1.65,10.57-.52,1.47-1.61,2.95,.34,4.26,9.53,6.43,19.15,12.57,31.14,13.29,3.57,.22,5.33-.8,5.4-4.71,.15-7.41,.77-14.8,1.02-22.21,.23-7.09,.12-7.04-6.64-8.03-2.38-.35-4.75-.93-7.05-1.63-11.41-3.48-21.39-9.7-30.9-16.68-2.73-2.01-4.4-2.07-6.95,.24-7.52,6.77-16.11,11.24-26.61,10.74-1.89-.09-2.84,.53-3.44,2.47-2.09,6.77-4.22,13.54-6.73,20.15-1.21,3.19-.04,4.27,2.65,5.28,7.96,2.97,16.12,4.42,24.63,3.96,11.21-.61,20.14-4.4,23.41-16.35,.1-.35,.59-.6,1.38-1.34Zm16.9,65.5c1.83-.34,4.67-.84,7.51-1.4,2.09-.41,3.37-1.63,3.98-3.73,2.04-6.97,3.38-14.09,4.58-21.24,.27-1.58,.15-2.76-1.86-3.19-12.75-2.74-23.53-9.41-33.76-17.14-1.43-1.08-2.61-1.63-4.23-.25-6.97,5.96-15.51,8.48-24.19,10.33-4.26,.91-3.13,2.29-1.34,4.5,7.85,9.73,16.73,18.35,27.45,24.87,6.37,3.88,13.15,6.85,21.86,7.23Zm-21.26-117.36c1.66,1.23,1.29,2.38,1.18,3.49-.53,5.38-2.12,10.46-4.95,15.02-1.62,2.61-1.07,3.82,1.52,5.12,5.9,2.95,11.58,6.38,17.54,9.2,6.44,3.05,13.15,5.16,20.53,4.21,3.56-.46,5.11-1.7,4.61-5.53-.72-5.42-.91-10.92-1.5-16.36-.75-6.98-.84-6.89-7.91-7.75-2.38-.29-4.73-.94-7.04-1.63-8.9-2.65-16.83-7.31-24.49-12.37-2.38-1.57-3.81-1.81-6.28-.21-7.56,4.93-15.9,7.79-25.04,7.6-2.79-.06-4.09,.69-4.25,3.67-.2,3.85-.71,7.71-1.39,11.51-.41,2.31,.22,3.49,2.36,4.5,9.69,4.57,20.65,2.03,27.33-6.42,3.32-4.19,5.28-9.13,7.79-14.06Zm-157.52,14.45c-2.26-10.98-6.1-21.35-10.67-31.43-15.04-33.19-35.06-63.4-56.19-92.92-2.43-3.4-5.28-6.51-8.07-9.62-1.15-1.29-2.81-2.88-4.57-1.58-1.67,1.23-.18,2.93,.46,4.34,.4,.88,.86,1.73,1.33,2.58,9.64,17.19,17.28,35.3,24.33,53.66,10.4,27.07,19.68,54.54,28.65,82.11,.77,2.37,1.41,4.87,4.1,7.51-5.71-40.85-21.64-77.32-36.51-114.17,22.26,31.36,40.63,64.89,57.14,99.53Zm165.56-44.3c1.09,1.61,.33,3.09-.13,4.57-1.34,4.38-3.42,8.41-6.53,11.73-1.87,2-1.81,2.95,.58,4.21,5.42,2.85,10.72,5.96,16.58,7.83,4.61,1.47,9.29,2.62,14.24,2,3.11-.39,4.5-1.55,3.85-4.99-1.15-6.01-2.1-12.06-2.81-18.14-.35-2.96-1.62-3.68-4.39-3.56-4.89,.22-9.48-1.2-14.09-2.86-7.98-2.88-14.09-8.34-20.22-13.78-1.85-1.64-3.26-1.97-5.47-.79-5.18,2.79-10.79,4.29-16.7,4.2-2.29-.04-3.05,.77-3.32,2.96-.75,6.07-1.68,12.13-2.68,18.16-.45,2.72,.34,3.94,3.15,4.76,12.88,3.74,25.97-1.06,34.76-12.97,.89-1.2,1.21-3.05,3.19-3.34Zm1.57,191.28c2.83,.48,4.92-.73,6.39-3.54,4.94-9.44,9.09-19.18,12.09-29.41,.7-2.39,.23-3.08-2.19-3.22-6.79-.38-13.45-1.59-19.62-4.6-4.62-2.25-9.21-6.72-13.66-6.54-4.69,.19-9.02,5.14-13.84,7.26-3.44,1.51-4.18,3.19-2.99,6.52,3.92,10.99,9.84,20.6,18.9,28.1,4.22,3.5,9.08,5.45,14.92,5.43Zm-38.05,7.2c.81,2.18,1.39,4.38,2.41,6.35,3.79,7.32,10.43,10.23,18.15,11.02,5.58,.57,7.16-4.65,10.17-7.71,1.23-1.25,2.03-2.91,3.16-4.27,1.88-2.27,1.7-3.7-1.17-5.07-17.32-8.27-27.32-22.49-32.18-40.62-.75-2.79-1.81-3.29-4.31-2.65-4.7,1.21-9.51,2.05-14.34,1.6-3.52-.33-4.61,.32-3.53,4.02,2.12,7.29,3.17,14.81,3.24,22.41,.03,2.69,1.2,4.01,3.51,5.07,8.09,3.75,16.19,3.57,24.43,.63,1.52-.54,3.65-2.23,4.66-.17,.87,1.77-1.44,2.95-2.79,4.01-3.34,2.61-7.4,3.8-11.4,5.38Zm-68.03,114.03c-.15-3.76-.23-7.79-1.14-11.74-1.84-7.97-6.24-11.05-13.86-9.65-8.02,1.47-15.87,9.69-14.06,15.85,3.59,12.16,9.71,23.08,18.68,32.24,2.31,2.35,3.67,1.58,4.93-1.11,3.75-8.04,5.14-16.55,5.45-25.58Zm46.91-101.81c3.1-1.08,5.78-1.87,7.89,.83,1.42,1.82,1.83,3.95,.3,5.78-1.98,2.38-4.92,3.91-7.71,2.38-3-1.65-3.06,0-3.66,1.95-1.34,4.3-2.56,8.66-4.26,12.81-1.34,3.27-.92,4.37,2.85,4.53,14.82,.65,27.94-3.74,39.58-12.77,4.21-3.27,4.17-3.55-.66-5.71-8.7-3.89-14.77-9.7-15.08-19.9-.03-1.06-.18-2.09-1.39-2.08-5.13,.05-10.44-1.58-15.18-.63-2.21,.44-1.35,6.73-2.5,10.23-.19,.58-.09,1.25-.17,2.57Zm12.63-374.35c3.44,7.25,5.77,14.08,7.75,21.04,1.51,5.32,4.15,6.91,9.66,6.06,2.14-.33,3.94-1.33,5.69-2.5,.77-.52,1.58-1.43,2.54-.6,1.05,.91,.58,2.06,.01,3.07-1.87,3.31-5.08,4.69-8.38,6.13-2.46,1.08-6.3-1.15-7.28,1.72-.84,2.45,.49,5.65,.88,8.52,.11,.8,.32,1.58,.44,2.38,1.14,7.55,4.85,10.22,12.46,8.52,2.2-.49,3.74-.27,5.79,.8,3.66,1.91,7.56,3.65,11.96,3.15,2.74-.31,4.11-1.22,2.9-4.33-1.75-4.5-3.04-9.17-4.81-13.65-4.77-12.08-10.75-23.41-20.76-32.13-5.18-4.52-10.82-7.96-18.85-8.16Zm-6.07,275.8c-2.48-.15-3.96-.09-5.37-.36-4.18-.81-6.01,.37-6.16,5.07-.19,6.26-1.15,12.52-2.18,18.71-.48,2.88-.03,4.55,2.79,5.65,13.45,5.24,27.01,5.36,40.72,1.15,3.14-.96,2.97-2.18,.69-4.11-6.44-5.43-12.09-11.64-16.79-18.61-3.61-5.36-7.23-10.07-13.7-7.49Zm-94.45,196.73c.29-5.76-.09-11.22-1.43-16.54-1.7-6.81-6.43-9-12.85-6.19-8.9,3.9-11.11,9.13-7.78,18.2,3.46,9.42,7.96,18.26,14.65,25.84,2.14,2.43,3.81,3.39,4.86-1.08,1.6-6.77,2.7-13.54,2.54-20.23Zm88.08-5.59c-.33-4.61,.28-9.8-4.78-12.31-5.45-2.7-10.68-1-15.46,2.23-2.19,1.48-3.99,3.32-3.8,6.29,.7,10.7,2.79,21.06,7.88,30.6,2.3,4.31,3.55,4.33,6.48,.53,6.19-8.05,9.04-17.29,9.68-27.34Zm206.27-399.72c-.47,.83-.96,1.65-1.4,2.49-11.41,21.69-23.43,43.03-36.07,64.02-7.98,13.26-16.16,26.43-21.34,41.12-4.02,11.4-6.46,23.13-5.99,35.35,.85-1.55,1.33-3.19,1.7-4.85,4.44-19.85,12.38-38.21,22.87-55.63,11.3-18.77,22.93-37.39,31.58-57.62,3.46-8.09,7.15-16.11,8.65-24.87Zm-48.84,399.73c-.18-3.5-.34-6.72-1.35-9.83-1.76-5.42-6.07-7.67-12.3-6.45-5.57,1.09-11.68,7.08-10.81,11.34,2.25,11.11,6.86,21.09,15.38,28.95,2.23,2.06,3.41,1.51,4.56-1.16,3.18-7.4,4-15.22,4.52-22.85Zm-56.87-530.08c-3.95,1.75-7.76,3.94-11.86,5.19-28.12,8.61-55.31,7.8-80.68-8.8-2.22-1.45-2.88-1.02-3.67,1.21-1.81,5.11,.11,10.37,5.36,13.64,4.16,2.59,8.81,4.01,13.59,4.81,12,2,24.11,2.24,36.15,.85,15.28-1.76,29.41-6.77,41.12-16.9Zm-36.97,167.16c1.01,1.38,2.31,1.62,3.54,1.85,2.98,.56,4.8,.04,3.59-3.71-.98-3.06-1.63-6.22-2.37-9.35-.44-1.86-1.37-2.59-3.42-2.33-4.78,.61-9.29-.45-13.39-2.99-1.12-.69-1.92-.76-3.02,.04-3.92,2.86-8.63,3.18-13.2,4.07-4.04,.79-9.53-2.3-11.73,.94-2.12,3.13-1.09,8.4-1.44,12.73-.01,.16,.01,.33-.03,.48-.97,3.76,1.13,5.11,4.35,5.99,8.61,2.35,16.48,.22,24.33-3.24,4.05-1.79,5.14-3.24,1.73-6.97-2.47-2.71-4.94-5.99-4.37-11.22,4.29,3.68,5.82,8.59,10.47,10.57,.43-2.93-.43-6.4,3.33-7.32,2.25-.55,3.6,1.19,4.29,3.1,1.11,3.08,1.17,5.96-2.66,7.36Zm58.51,382.53c-.12-9.2-2.99-23.06-5.95-29.09-2.45-4.99-6.96-6.24-12.66-3.51-6.52,3.13-9.07,7.9-6.56,12.8,4.45,8.68,10.23,16.4,17.55,22.87,1.96,1.73,4.18,4.95,6.69,3.74,2.14-1.03,.5-4.73,.94-6.82Zm-97.27-414.85c1.08,2.76-2.63,6.74,.85,9.43,2.94,2.27,6.77,3.06,10.56,2.76,6.73-.53,13.45-2.07,20.08,.74,.95,.4,2.24,.1,3.35-.03,5.25-.63,5.62-1.2,4.21-6.43-.67-2.49-1.54-4.93-2.04-7.45-.77-3.83-2.04-6.48-6.86-5.61-1.71,.31-3.85-.55-5.52-1.41-5.43-2.82-10.2-5.18-17.13-2.64-6.95,2.55-7.42,1.28-7.51,9.13,0,.32,0,.64,0,1.5Zm-348.72,60c.35,.46,.7,.92,1.06,1.38,11.21-7.77,22.36-15.62,33.64-23.28,19.05-12.93,38.19-25.73,57.26-38.63,2.13-1.44,4.15-3.07,6.06-4.79,1.88-1.7,3.55-3.63,5.31-5.46-.39-.49-.78-.97-1.17-1.46-35.19,22.46-72.17,42.37-102.16,72.24Zm111.57,91.27c.39-1.04,.82-2.06,1.16-3.11,8.77-26.96,12.74-54.81,15.44-82.91,1.6-16.67,3.9-33.28,3.85-50.06,0-2.74,.1-5.59-2.02-8.4-7.39,48.44-9.19,96.98-18.43,144.48Zm379.8,242.57c-.07,6.57,2.15,14.05,5.94,21.1,1.05,1.96,2.43,3.96,4.62,1.26,6.87-8.47,11.1-18,10.91-29.12-.05-2.98-1.52-5.09-4.41-6.28-8.5-3.5-17.44,2.48-17.07,13.04ZM227.34,530.64c2.24-2.26,2.37-4.07,2.81-5.73,3.6-13.77,5.11-27.86,5.71-42.02,.74-17.52,3-34.99,2.07-52.57-.13-2.5,.21-5.34-2.93-7.69-4.93,35.93-3.76,71.62-7.66,108.02Zm-121.3-121.11c.16,.79,.33,1.58,.49,2.37,32.36-2.16,63.87-8.89,95.04-17.45-.17-.93-.34-1.86-.51-2.8-32.09,3.68-63.41,11.58-95.02,17.87Zm111.37,27.79c-14.7,5.13-53.57,58.88-58.14,79.64,19.5-26.73,37.41-53.43,58.14-79.64Zm299.22,75.06c8.3-.03,8.77-.62,7.39-6.94-.45-2.05-1.16-4.1-1.21-6.16-.12-5-2.28-7.13-7.4-6.64-1.99,.19-4.52-.16-6.06-1.29-8.25-6.02-13.3-1.8-17.74,5.05-.26,.4-.67,.69-1.02,1.02-.94,.89-.68,1.67,.24,2.37,8.24,6.34,16.65,12.32,25.82,12.57Zm-294.22-56.55c-15.83,10.65-50.25,70.17-50.81,88.12,16.68-30.18,33.51-59.23,50.81-88.12Zm242.54,28.63s.09,0,.13,.01c-.1,1.12-.21,2.24-.3,3.36-.49,6.09,.08,6.93,6.16,7.77,8.16,1.12,15.17-1.86,21.56-6.58,5.54-4.1,5.14-3.59,1.02-8.05-2.68-2.9-4.22-7.94-7.33-9.06-3.15-1.13-7.63,1.32-11.49,2.35-2.91,.77-6.92-1.21-8.6,1.28-1.49,2.22-.85,5.88-1.15,8.91Zm167.74,89.68c-5.79-31.02-7.81-62.05-.22-93.12-13.82,19.86-13.81,75.01,.22,93.12ZM108.17,467.57c20.51-3.67,72.6-32.27,79.84-43.84-10.17,3.78-75.84,39.84-79.84,43.84Zm403.69,17.73c8.64-.05,8.84-.26,7.78-6.41-.49-2.86-1-5.72-1.66-8.54-.39-1.67-.06-4.58-1.73-4.71-5.16-.4-9.17-3.52-13.85-4.91-.27-.08-.75,.54-1.14,.82-2.9,2.04-5.79,4.09-8.72,6.09-1.26,.86-2.54,1.6-1.3,3.4,5.56,8.03,12.44,13.92,20.61,14.27Zm181.72-61.69c11.18,22.76,26.26,41.67,49.87,52.3-16.62-17.43-33.25-34.87-49.87-52.3Zm-1.43,86.62c-.25-1.73-.43-3.48-.77-5.2-4.21-21.65-8.42-43.31-12.72-64.94-.37-1.86,.09-5.25-2.46-4.93-2.01,.26-1.26,3.59-1.13,5.51,1.04,15.79,3.89,31.3,7.87,46.59,2.09,8.03,4.02,16.13,9.22,22.96ZM104.91,455.63c20.18-.76,57.39-22.98,69.92-39.98-22.87,15.19-46.06,28.04-69.92,39.98Zm549.82,26.17c2.42-5.17,4.34-10.1,7.19-14.55,.39-.61,.59-1.27,.35-2.21-1.62-6.31-5.84-11.18-8.64-17.59-3.4,5.82-6.25,10.85-9.27,15.78-.92,1.51-.78,2.59,.3,3.85,3.77,4.41,6.89,9.28,10.06,14.72Zm49.27-65.69c14.47,17.9,31.11,33.01,53.34,40.74-17.52-13.9-34.18-28.91-53.34-40.74Zm67.63-6.4c-21.1-10.14-43.41-13.93-66.56-13.34,21.57,7.59,44.19,9.86,66.56,13.34Zm-414.09,208.84c0,6.74,4.15,11.92,9.42,11.76,4.95-.15,8.76-5.15,8.71-11.4-.05-5.79-3.71-9.87-8.88-9.89-5.33-.02-9.25,4.02-9.26,9.53Zm-108.16-28.95c5.46-20.54,9.78-41.31,12.26-62.43-9.94,19.64-11.93,40.87-12.26,62.43Zm45.43-431.98c.07,4.48,3.18,7.34,6.13,5.29,6.33-4.38,10.28-10.61,11.36-18.28,.47-3.32-2.71-5.44-5.66-4.29-5.08,1.98-11.92,11.97-11.84,17.28ZM147.73,490.51c15.86-8.73,30.4-18.88,38.42-35.98-12.58,12.24-27.36,22.09-38.42,35.98ZM311.18,167.41c.04,3.39,2.85,5.71,5.27,3.9,5.44-4.06,9.97-9.09,11.39-16.04,.59-2.88-1.2-4.22-3.99-3.78-4.24,.67-12.72,11.46-12.67,15.92Zm-44.46-29.35c0,6.11,2.78,9.05,5.46,6.82,4.77-3.97,7.92-9.2,8.75-15.49,.23-1.75-.51-3.49-2.29-4.44-1.74-.93-3.12-.01-4.39,.97-4.36,3.37-7.34,7.55-7.53,12.14Zm424.47,310.42c1.87,17.28,5.87,34.06,13.44,49.85-2.29-17.18-4.81-34.29-13.44-49.85Zm-24.92,47.9c-1.97,8.35,7.1,32.52,14.31,39.29-2.07-14.05-6.22-26.96-14.31-39.29Zm-251.44-11.92c-4.23,.14-7.7,4.37-7.41,9.05,.23,3.89,3.17,6.61,6.94,6.41,4.08-.21,7.7-4.26,7.55-8.45-.14-3.88-3.42-7.14-7.08-7.02Zm-87.72,190.54c-.04-4.66-3.28-8.28-7.5-8.37-3.87-.08-6.56,2.85-6.61,7.23-.06,4.49,3.4,8.36,7.49,8.37,3.89,.02,6.65-3.01,6.62-7.24ZM438.89,122.28c2.55,3.95,4.7,7.33,6.9,10.67,2.12,3.22,5.25,4.03,8.85,3.54,1.55-.21,2.7-.95,2.95-2.68,.52-3.6-1.11-6.29-3.8-8.34-4.32-3.3-9.28-3.91-14.9-3.19Zm-173.54,389.01c1.84-3.91,4.09-6.4,6.49-8.77,1.09-1.08,1.8-2.07,.64-3.71-2.32-3.28-4.41-6.71-6.62-10.07-.49-.74-.84-1.86-2.14-1.06-1.82,1.12-4.46,10.02-3.26,12.03,1.98,3.34,3.32,6.94,4.9,11.58Zm-65.47-2.39c-2.99,4.1-5.54,7.38-7.85,10.82-1.33,1.98,.3,9.74,2.15,11.29,.32,.26,1.05,.58,1.15,.47,2.88-3.2,5.78-6.37,9.34-8.86,.16-.11-.06-.9-.22-1.33-1.37-3.75-2.76-7.48-4.58-12.4Zm221.55-33.22c3.7,0,7.08-3.81,7.2-8.14,.1-3.64-2.63-6.8-5.91-6.85-3.71-.05-7.03,3.82-7.05,8.22-.02,4.14,2.21,6.76,5.76,6.77Zm-45.08,112.38c.04-3.88-2.47-6.78-5.95-6.88-3.66-.1-6.46,3.06-6.62,7.46-.15,4.19,2.4,7.17,6.13,7.13,3.51-.03,6.4-3.49,6.45-7.71Zm-53.73,58.83c.01,4.42,2.43,7.47,5.85,7.37,3.38-.09,6.28-3.75,6.24-7.87-.04-3.83-3.06-7.22-6.35-7.12-3.26,.11-5.75,3.41-5.74,7.62Zm-41.04-113.94c-3.33,11.84-2.6,23.7-.11,35.58,2.89-11.84,3.86-23.69,.11-35.58ZM468.7,117.49c5.15,1.48,8.19,5.02,12.16,7.05,1.97,1.01,4.57,3.39,6.36,.57,1.68-2.66,.45-5.64-1.9-7.81-4.33-4.02-10.62-4.14-16.62,.19Zm-188.46,53.83c.23,2.79,1.69,5.36,5.28,5.76,3.22,.36,6.66-3.72,6.58-7.57-.07-3.56-1.88-5.78-5.56-5.91-3.46-.12-6.37,3.3-6.31,7.72Zm385.45,32.39c.03-2.63-1.08-4.31-3.88-4.48-3.69-.23-7.94,4.65-8.14,9.29-.12,2.86,1.11,4.67,4.08,4.83,3.37,.19,7.81-5.28,7.94-9.64ZM282.61,89.46c-3.95-.03-8.15,4.71-8.25,8.96-.07,2.79,1.06,4.73,4.07,4.82,3.26,.1,8.63-5.83,8.47-9.31-.13-2.88-1.84-4.27-4.29-4.47Zm278.33-23.53c-2.68,.35-5.6,1.16-5.79,5.15-.18,3.69,3.28,6.64,7.53,6.29,3.29-.27,6.02-1.59,6.17-5.44,.13-3.33-3.38-6.09-7.91-6Zm-314.28,26.64c-.04-2.73-1.45-4.18-4.15-4.24-3.62-.08-8.14,5.32-7.97,9.56,.11,2.64,1.16,4.81,4.14,5.01,3.25,.22,8.03-6.1,7.98-10.33Zm3.8,27.52c0,2.36,.05,4.48,2.18,5.3,2.02,.78,3.21-.96,4.33-2.27,2.1-2.42,4.06-4.98,4.97-8.12,.5-1.71,.82-3.59-1.01-4.77-1.79-1.15-3.66-.99-5.36,.32-3.22,2.51-4.75,5.92-5.11,9.53Zm68.7,513.39c.09-3.51-1.78-5.93-4.7-6.08-3.37-.17-6.14,3.22-6.18,7.69-.03,3.2,1.01,5.76,4.63,6.11,3.18,.31,6.15-3.48,6.25-7.72ZM267.55,76.53c-3.71-.08-8.32,4.65-8.28,8.61,.03,2.76,1.41,4.68,4.27,4.85,2.87,.17,7.89-5.8,8.05-9.25,.14-2.84-1.35-4.1-4.05-4.2Zm126.21,484.46c-.03-3.11-2.1-5.83-4.52-5.95-3.1-.15-6.45,4.58-6.39,8.98,.04,2.96,1.29,5.06,4.38,5.32,3.07,.25,6.57-4.4,6.53-8.35Zm7.85-27.5c-.12-3.46-1.42-6.58-5.25-6.74-3.95-.17-5.33,3.06-5.52,6.52-.2,3.59,1.27,6.7,5.12,6.8,3.81,.1,5.36-2.9,5.65-6.58Zm-105.78,178.4c.26,3.14,.07,6.55,4.01,7.36,2.76,.57,5.76-3.93,5.61-8.25-.11-3.11-1.14-6.14-4.75-6.04-4.23,.12-4.55,3.75-4.87,6.93ZM582.67,64.27c0-4.11-2.87-7.97-5.64-7.7-3.18,.31-4.78,2.46-4.82,5.55-.04,3.57,3.08,7.07,6.05,6.89,3.17-.19,4.32-2.3,4.4-4.73Zm-276.21,114.55c-.35-2.73-1.86-5.16-5.24-5.27-3.68-.12-5.47,2.3-5.53,5.81-.05,3.16,1.12,5.72,4.72,6.05,3.07,.28,6.04-2.85,6.06-6.58Zm436.54,205.28c7.79,.77,15.33-.49,22.79-2.35,1.35-.34,3.23-.75,2.9-2.6-.33-1.8-2.22-1.64-3.62-1.53-7.76,.62-15.16,2.55-22.07,6.48ZM304.98,118.68c-.11,2.8,1.38,4.68,3.67,4.63,2.77-.06,7.21-5.17,7.47-8.53,.21-2.73-1.32-3.82-3.73-3.86-3.17-.06-7.27,4.32-7.4,7.76Zm99.32-52.23c-.06-2.03-1.87-2.88-4.18-2.89-3.29,0-7.59,3.97-7.61,7.05-.01,2.65,1.33,4.29,4.12,4.28,3.12-.01,7.62-4.62,7.66-8.44Zm-76.91,53.26c-2.94-.05-7.23,4.8-7.29,8.12-.04,2.31,.67,4.22,3.42,4.22,2.65,0,6.67-5.03,6.89-8.42,.15-2.31-.93-3.61-3.03-3.92Zm93.24,9.62c2.34,3.28,2.69,6.81,2.35,10.57-.19,2.09,.89,3.79,3.3,3.98,2.36,.18,3.5-1.24,4.02-3.34,1.27-5.1-3.82-11.24-9.67-11.2Zm222.02,392.84c.59-8.77,.63-17.4-3.29-26.36-2.23,7.33-.74,19.26,3.29,26.36Zm-242.8,28.67c-.03,2.21,.81,4.37,3.77,4.75,2.47,.32,6.18-3.74,6.42-6.83,.2-2.62-.87-4.34-3.61-4.73-3.03-.42-6.1,2.58-6.58,6.81Zm-63.83-416.63c.24,2.01,.12,4.61,3.51,4.25,2.23-.23,6.66-6.38,6.7-8.92,.03-1.89-.78-3.35-2.69-3.31-4.32,.09-5.72,3.56-7.22,6.79-.13,.29-.16,.62-.3,1.18Zm47.2,458.11c.27,1.9,.72,4.22,3.72,4.22,2.34,0,5.89-5.1,5.89-8.07,0-2.7-1.6-3.73-3.98-3.77-3.07-.05-5.76,3.46-5.63,7.62Zm-181.38-41.74c-.08-2.8-3.87-7.84-4.81-7.04-1.86,1.6-5.14,2.2-4.89,5.72,.2,2.75,3.78,7.22,5.85,6.83,3.25-.62,2.65-3.94,3.85-5.51Zm112.31,187.91c-.14-3.06-1.31-5.26-4.49-5.25-3,.01-4,2.25-4.13,4.9-.16,3.33,.93,6.91,4.23,7.11,3.98,.24,3.36-4.22,4.39-6.76Zm-14.4-78.09c.18,3.14,1.32,5.6,4.44,5.57,3.21-.03,4.84-2.48,4.91-5.53,.06-2.91-1.59-5.19-4.54-5.29-3.38-.12-4.46,2.55-4.81,5.25ZM550.31,127.66c.46-3.83-.46-6.76-2.73-9.18-2.7-2.87-7.45-2.77-9.23,.16-.9,1.48-1.87,3.79,.83,4.14,4.11,.53,7.43,2.57,11.13,4.88Zm39.65-13.75c2.88-.28,5.02-1.49,5.26-4.62,.27-3.43-1.92-5.09-4.93-5.39-3-.3-5.03,1.43-5.21,4.46-.19,3.23,1.73,5.02,4.88,5.55Zm-201.48-61.25c-3.68,.13-7.61,3.89-7.34,7.04,.18,2.09,1.39,3.24,3.46,3.29,2.8,.07,7.74-5.26,7.44-8-.24-2.16-1.85-2.36-3.56-2.33Zm34.48,460.24c.38,2.72,1.31,5.37,4.54,5.11,3.46-.27,4.59-3.23,4.85-6.24,.26-2.99-1.6-4.55-4.42-4.43-3.33,.14-4.52,2.58-4.97,5.56ZM562.26,83.53c-3-.13-4.98,1.1-5.29,3.9-.4,3.56,1.94,5.32,5.1,5.69,2.63,.31,4.8-.87,5.07-3.83,.32-3.57-1.88-5.14-4.87-5.75Zm-319.43-19.3c3.05,.08,6.67-3.6,6.87-6.65,.15-2.23-.61-3.76-3.07-3.92-3-.19-6.92,3.69-6.88,6.79,.03,2.24,1.11,3.57,3.08,3.79Zm16.49,3.23c-.01-1.96-1.78-2.66-3.84-2.77-2.96-.16-6.94,3.82-7.09,6.88-.11,2.21,.99,3.29,3.12,3.43,2.81,.19,7.62-4.11,7.81-7.54Zm-19.21,691.34c-.14-2.85-.88-5.31-4.26-5.23-3.31,.08-4.72,2.36-4.89,5.39-.17,2.94,1.08,5.09,4.29,5.14,3.47,.06,4.52-2.39,4.86-5.3ZM299.85,105.34c.05-2.5-1.01-3.76-3.22-3.85-2.99-.12-6.31,3.43-6.17,6.76,.09,2.25,.94,4.14,3.53,4.33,2.47,.18,5.8-4.04,5.86-7.24Zm-86.92,639.22c-.17-2.38-.77-4.69-3.64-4.68-3.36,.01-5.28,2.25-5.61,5.43-.32,3.06,1.67,5.07,4.52,5.01,3.27-.07,4.19-2.92,4.74-5.76ZM499.82,92.66c3.11-.05,7.33-4.81,7.47-7.82,.1-2.36-1.19-3.18-3.28-3.12-2.97,.09-6.68,4.16-6.66,7.31,.01,1.95,.62,3.49,2.48,3.64Zm74.83,1.16c-2.66,.19-4.42,1.77-4.47,4.54-.06,3.02,1.89,4.89,4.82,5,2.99,.12,5.07-1.69,4.97-4.72-.09-2.93-2.15-4.54-5.32-4.83Zm-183.35,5.19c2.84-.08,5.61-.84,5.85-3.9,.27-3.33-2.57-4.18-5.33-4.08-2.72,.1-6.04,.32-6.1,3.96-.06,3.37,3.07,3.58,5.58,4.02Zm-22-53.59c.41,2.45,1.18,4.75,4.13,4.23,3.35-.58,5.44-3.01,5.5-6.35,.04-2.34-1.93-3.67-4.33-3.5-3.42,.24-5.05,2.35-5.3,5.61Zm-136.29,28.82c-.14-1.43-1.39-2.43-3.42-2.46-2.86-.05-6.63,3.88-6.38,6.68,.19,2.22,1.46,3.55,3.7,3.56,2.63,.01,6.28-4.33,6.09-7.78Zm22.25,397.11c-.46,6.37-.04,12.26,.5,18.74,6.8-8.54,6.72-11.1-.5-18.74Zm-26.37,275.73c-.41-2.37-1.28-4.08-3.8-3.54-3.31,.7-5.56,2.69-5.53,6.25,.02,2.17,1.53,3.79,3.77,3.46,3.48-.52,4.86-3.26,5.56-6.18Zm124.34-130.72c-.13-2.9-1.55-4.99-4.55-5.08-2.87-.08-4.27,1.99-4.26,4.73,.01,2.72,1.44,4.73,4.24,4.88,2.84,.15,4.3-1.68,4.58-4.53ZM481.94,65.99c-.51-3.01-2.59-4.56-5.55-4.71-2.47-.13-3.88,1.58-3.87,3.92,.02,2.84,1.55,5.07,4.51,5.24,2.63,.15,4.39-1.5,4.91-4.45Zm-102.24,22.65c2.39-.12,4.34-.96,4.1-3.27-.36-3.46-3.17-4.53-6.23-4.65-2.25-.09-4.5,.73-4.08,3.41,.53,3.39,3.5,4.14,6.21,4.52Zm56.01,330.41c2.55-.63,4.07-2.58,4.27-5.31,.19-2.57-1.36-4.48-3.93-4.4-3.14,.1-4.11,2.73-4.26,5.4-.12,2.31,1.12,3.9,3.92,4.31ZM561.66,51.58c-3.13,.04-6.76,2.76-6.7,5.12,.06,2.51,1.88,3.4,3.92,3.2,3.24-.31,5.96-1.78,6.29-5.44,.2-2.27-1.49-2.95-3.51-2.88Zm-290.29,102.02c-2.5,.1-4.95,3.39-4.71,6.41,.17,2.18,1.2,4.08,3.54,3.61,3.19-.64,4.79-3.12,4.82-6.37,.02-2.32-1.35-3.51-3.65-3.65Zm93.32-120.77c-.04-2.5-1.31-3.47-3.36-3.57-2.51-.12-6.22,3.44-6.09,5.89,.12,2.24,1.59,3.14,3.61,2.87,3.16-.43,5.25-2.2,5.83-5.18ZM196.99,758.21c.16,2.61,1.47,4.21,4.16,4.22,2.98,.01,4.36-1.94,4.33-4.62-.02-2.72-1.61-4.61-4.48-4.54-3.01,.07-3.93,2.25-4.02,4.94Zm462.52-323.53c-1.86,6.61,.69,11.15,1.89,15.87,.44,1.75,1.89,2.1,3.37,.87,.91-.76,2.58-.81,1.21-3.07-2.37-3.91-3.98-8.28-6.47-13.67ZM467.27,49.86c-.19-2.75-1.75-4.09-4.11-3.95-2.76,.16-5.05,1.64-5.45,4.55-.31,2.25,1.41,3.83,3.51,3.73,2.78-.14,5.29-1.3,6.06-4.32ZM118.33,378.34c-.34-2.55-1.33-4.56-4.17-4.41-2.74,.15-4.55,1.81-4.65,4.59-.1,2.64,1.49,4.25,4.16,4.29,2.93,.04,4.22-1.87,4.66-4.47ZM592.03,77.5c-.49-2.32-.8-5.25-4.1-5.37-2.63-.09-3.97,1.96-3.99,4.47-.02,3.01,1.69,4.83,4.72,4.89,2.33,.04,3.35-1.53,3.37-3.99Zm-240.02-16.26c2.2-.56,3.71-2.03,3.58-4.34-.16-2.98-2.08-4.6-5.13-4.44-2.24,.11-3.64,1.39-3.45,3.71,.24,2.89,1.95,4.58,4.99,5.07Zm-115.18-18.45c-2.8,.46-4.6,2.23-4.57,5.08,.02,2.4,1.94,3.71,4.26,3.52,2.68-.23,4.43-1.91,4.4-4.71-.02-2.43-1.55-3.7-4.1-3.89Zm-16.49,719.88c-.18-2.24-.89-4.27-3.59-4.21-3.1,.07-4.01,2.38-4.06,5-.04,2.16,1.03,4.02,3.3,4.02,2.86,0,4.26-1.93,4.36-4.82ZM454.17,35.27c-.25-2.75-1.7-4.43-4.24-4.6-2.51-.17-3.83,1.55-3.93,3.94-.1,2.3,.86,4.35,3.38,4.45,2.46,.1,4.15-1.43,4.79-3.79Zm141.1,60.14c.16-3.41-.68-5.23-3.36-5.28-2.82-.05-4.68,1.53-4.78,4.35-.09,2.45,1.74,3.88,3.98,4.1,2.77,.26,4.03-1.54,4.16-3.17Zm-347.37,49.96c2.07-.55,3.86-1.67,3.79-4.11-.07-2.41-1.32-4.44-3.97-4.57-2.91-.14-3.79,2.13-3.8,4.48-.01,2.33,1.48,3.75,3.98,4.2Zm120.91-73.69c-.49-2.97-2.76-4.05-5.35-4.56-2.05-.4-3.58,.61-3.6,2.76-.04,3.07,1.98,4.58,4.81,4.92,2.18,.26,3.67-.74,4.14-3.12Zm71.61,407.77c-.05-2.2-.54-3.91-2.88-3.81-3.1,.13-4.46,2.33-4.79,5.04-.23,1.86,.59,3.72,2.84,3.58,2.96-.19,4.27-2.37,4.84-4.8Zm-249.33,259.1c.36,1.77,1.47,3.38,3.43,3,2.66-.51,4.52-2.38,4.69-5.28,.13-2.23-1.4-3.24-3.37-3.03-2.92,.31-4.36,2.29-4.75,5.31ZM346.81,25.14c2.45-.46,4.21-1.77,4.38-4.33,.17-2.64-1.76-3.77-4.01-3.67-2.5,.11-4.14,1.68-4.07,4.37,.06,2.28,1.55,3.35,3.7,3.64Zm95.32,424.09c-.35-1.88-1.12-3.57-3.25-3.53-2.88,.05-4.26,1.94-4.44,4.69-.14,2.12,1.07,3.55,3.05,3.59,2.96,.06,3.91-2.29,4.64-4.74Zm204.81,100.25c-.8-1.39-1.83-3.08-3.85-3.26-2.87-.25-3.95,2.16-4.31,4.29-.37,2.15,1.41,3.83,3.45,3.76,2.43-.09,3.8-2.11,4.71-4.79Zm-230.4-10.39c2.67-.52,3.93-2.35,4.14-4.98,.14-1.8-.57-3.28-2.55-3.3-2.93-.03-4.18,2.11-4.57,4.58-.31,1.95,.83,3.31,2.97,3.71Zm12.16-105.09c2.73-.34,4-1.94,4.06-4.49,.05-2.38-1.43-3.51-3.61-3.44-2.5,.08-3.61,1.83-3.68,4.13-.07,2.18,1,3.59,3.24,3.8Zm56.47-346.67c2.29-.42,4.39-1.08,4.47-3.99,.05-1.92-.91-3.09-2.87-2.99-2.79,.14-5.22,1.42-5.51,4.29-.22,2.17,2.2,2.28,3.91,2.69Zm96.29-2.33c-.22-2.38-1.58-3.73-4.01-3.63-2.2,.09-3.61,1.49-3.6,3.65,.02,2.47,1.77,3.63,4.1,3.66,2.32,.03,3.39-1.38,3.51-3.68ZM224.66,51.62c-.18-1.97-1.33-3.36-3.6-3.33-2.39,.03-3.27,1.82-3.4,3.86-.15,2.37,1.38,3.49,3.57,3.52,2.44,.03,3.18-1.69,3.44-4.05Zm-4.18-14.63c-1.76,.65-4.25,.99-4.33,3.92-.04,1.6,.99,2.91,2.75,2.61,2.24-.38,4.61-1.26,5.11-3.74,.39-1.96-1.36-2.64-3.53-2.79Zm-40.82,694.81c.11,2.1,1.11,3.99,3.31,3.87,2.12-.11,3.05-2.23,3.33-4.2,.3-2.12-.84-3.43-3.01-3.39-2.26,.04-3.49,1.37-3.63,3.72ZM241.28,118.55c-2.47,.6-3.24,2.43-3.19,4.65,.03,1.66,.51,3.34,2.67,3.12,2.38-.24,3.76-1.72,3.56-4.17-.14-1.81-.84-3.41-3.04-3.6Zm93.86-83.62c1.81-.75,3.53-1.77,3.38-4.02-.16-2.4-2.11-3.11-4.11-3.01-2.15,.11-2.96,1.68-2.73,3.69,.23,1.97,1.35,3.15,3.46,3.34Zm55.95,101.86c.34,2.57,.55,5.08,1.04,7.53,.21,1.06,.98,2.1,2.35,1.97,1.3-.12,1.82-1.08,2.16-2.23,1.02-3.56-.97-6.32-5.55-7.27Zm117.28-30.25c1.4-1.1,2.01-2.45,2.16-3.85,.23-2.14-.9-3.65-2.92-4.35-1.42-.49-2.98-.5-3.88,.88-1.32,2.01,.87,2.65,1.76,3.77,.87,1.11,1.78,2.19,2.89,3.55Zm-98.4-28.12c-2.08,.26-3.61,1.47-3.72,3.92-.09,1.9,.93,3.18,2.92,2.82,2.13-.39,4.02-1.53,4.2-3.95,.15-1.98-1.25-2.76-3.39-2.79Zm-54.1,518.65c-.41-2.14-1.57-3.55-3.84-3.39-2.32,.16-3.24,1.84-3.15,3.96,.09,2.03,1.27,3.27,3.39,3.1,2.18-.17,3.39-1.47,3.6-3.68Zm-184.14,126.7c2.52-.4,3.98-2.28,4.69-4.62,.54-1.76-.77-2.75-2.4-2.66-2.83,.14-4.16,2.08-4.56,4.66-.22,1.45,.51,2.43,2.27,2.62ZM737.88,426.68c.15-1.88-1.64-2.68-3.04-2.62-1.97,.08-3.5,1.55-3.45,3.76,.04,1.71,.88,3.15,2.9,3.04,2.35-.13,3.11-1.9,3.59-4.18ZM224.05,62.42c-.28-1.85-1.37-2.9-3.2-2.85-2.03,.06-3.24,1.18-3.18,3.33,.06,1.98,1.31,2.86,3.11,2.8,2.01-.06,3.21-1.16,3.27-3.29Zm122.15-17.39c-.31-2.39-2.02-3.13-4.06-3.34-1.59-.17-2.95,.31-3.08,2.2-.14,2.12,1.09,3.38,3.04,3.68,1.92,.29,3.44-.51,4.1-2.54Zm-16.78,556.72c-2.13,.48-3.39,1.8-3.47,3.98-.06,1.74,.98,2.75,2.72,2.51,2.15-.3,3.47-1.8,3.59-3.87,.1-1.64-1.19-2.49-2.84-2.63Zm-111.51-131.89c-3.08,4.62-5.81,9.31-6.84,14.75,3.65-4.32,6.59-8.96,6.84-14.75ZM557.47,41.35c0-1.92-.87-3.05-2.56-3.01-1.99,.04-3.32,1.27-3.47,3.29-.14,1.98,1.23,2.96,2.98,3.04,2.29,.1,2.86-1.62,3.05-3.32ZM122.81,496.19c2.03-1.02,4.9-1.52,5.46-4.47,.25-1.33-1.25-1.81-2.42-1.51-2.42,.64-4.49,1.92-5.13,4.52-.31,1.26,.74,1.58,2.09,1.45Zm542.5-56.28c-.09-4.8-.7-9.49-2.77-13.86-1.24,5.1,0,9.65,2.77,13.86Zm-315.49,198.82c-.18-1.72-.93-3.14-2.87-3.06-1.87,.07-2.69,1.49-2.8,3.24-.11,1.77,.47,3.24,2.49,3.31,2.26,.08,2.8-1.66,3.17-3.49Zm-91.6-486.3c2-.41,2.72-1.86,2.81-3.76,.08-1.77-.92-2.77-2.57-2.65-2.15,.16-2.78,1.95-2.9,3.74-.11,1.64,.83,2.64,2.66,2.67Zm-108.03,549.96c1.96-.04,2.85-1.26,2.87-3.04,.02-1.95-.89-3.5-3.03-3.48-2.03,.01-2.5,1.59-2.52,3.32-.02,1.8,.63,3.07,2.68,3.2ZM553.31,27.01c-.03-1.91-1.03-2.63-2.72-2.6-2.22,.03-3.04,1.37-3.03,3.37,0,1.73,.97,2.61,2.68,2.57,2.21-.06,2.9-1.54,3.08-3.34ZM190.31,751.69c.02-1.54-.69-2.74-2.13-2.65-2.5,.16-2.76,2.2-2.76,4.19,0,1.37,.48,2.76,2.03,2.66,2.57-.16,2.42-2.48,2.85-4.2Zm223.45-228.33c-.35-1.79-1.33-3.07-3.23-2.93-1.66,.12-2.53,1.39-2.52,3.02,.01,1.79,1.1,2.59,2.84,2.49,1.61-.1,2.77-.78,2.91-2.58ZM232.14,107.96c-.18-1.99-1.51-2.97-3.44-3.17-1.51-.16-2.51,.59-2.42,2.21,.12,2.05,1.42,3.21,3.36,3.42,1.53,.16,2.28-.88,2.5-2.45ZM438.56,26.64c1.57-.11,2.92-.64,2.9-2.44-.02-1.84-1.14-3.04-3-2.98-1.79,.06-3.04,1.17-2.91,3.06,.12,1.67,1.36,2.39,3,2.37Zm319.41,407.6c.9-2.87-.72-3.94-2.34-4.36-2.09-.54-3.12,2.16-2.94,2.87,.43,1.74,1.91,3.6,3.73,3.95,2.35,.44,1.47-1.79,1.56-2.46Zm-637.6,6.21c-.11-.73-.61-1.11-1.27-1.18-1.2-.13-6.09,4.58-5.97,5.78,.04,.38,.38,.9,.72,1.04,1.28,.53,6.66-4.18,6.52-5.64ZM230.64,34.07c-.22-1.67-1.13-2.73-2.83-2.58-1.62,.14-2.56,1.26-2.62,2.91-.06,1.66,.64,2.86,2.46,2.83,1.97-.04,2.66-1.46,2.99-3.16Zm75.48,644.36c-.4-1.56-1.18-2.71-2.9-2.73-1.81-.02-2.58,1.1-2.51,2.77,.07,1.64,.86,2.72,2.69,2.59,1.64-.12,2.67-.9,2.71-2.62Zm409.43-206.93c-1.27,.25-2.73,.48-2.35,2.21,.41,1.86,1.79,2.92,3.74,2.98,1.13,.03,2.74-.37,2.39-1.54-.5-1.68-1.48-3.52-3.78-3.65ZM403.16,132.68c2.83,1.31,3.74,4.14,5.54,6.44,1.45-5.18-.13-7-5.54-6.44ZM177.31,740.32c-1.48,.54-2.46,1.7-2.54,3.44-.07,1.6,.7,3.04,2.42,2.78,2.04-.31,1.73-2.36,1.89-3.85,.12-1.11,.02-2.28-1.77-2.37Zm-5.84-6.5c-.25-1.06-.79-2.34-2.27-2.26-1.65,.1-2.32,1.51-2.37,3.02-.04,1.18,.52,2.22,1.89,2.23,1.74,.01,2.4-1.21,2.75-2.99Zm581.78-253.62c1.39-.21,1.94-1.1,1.85-2.34-.1-1.37-.68-2.5-2.31-2.4-1.35,.08-1.95,1.01-1.86,2.26,.09,1.41,.87,2.32,2.32,2.48Zm-32.15,18.24c-.47-1.31-.99-2.76-2.84-2.58-1.4,.14-1.64,1.22-1.64,2.49,0,1.52,.53,2.58,2.12,2.64,1.58,.06,2.27-.96,2.36-2.56Z"/>
  <path d="M420.41,183.81c8.17,2.36,13.73,6.78,17.54,12.9,8.64,13.87,9.44,28.35,.87,42.51-10.08,16.66-31.76,19.12-45.75,5.6-16.23-15.68-12.8-46.57,6.45-58.22,3.64-2.2,7.53-3.53,13.3-3.66-4.36,2.04-7.2,4.06-8.22,7.56-1.05,3.62-.33,7.05,2.01,10.04,3.63,4.63,9.83,5.54,14.13,2.14,5.68-4.5,5.76-10.87-.33-18.86Z"/>
  <path d="M570.34,161.92c11.75,6.37,19.28,24.03,16.57,38.87-1.56,8.53-5.27,15.87-12.17,21.33-12.09,9.58-28.95,7.63-39.39-4.49-14.29-16.58-10.3-44.41,8.04-56.06,4.43-2.82,9.21-4.4,15.83-4.18-3.95,2.33-7.09,4.01-8.67,7.33-1.6,3.34-1.34,6.59,.41,9.72,2.35,4.21,8,6.16,12.62,4.48,5.83-2.12,7.95-7.47,6.77-17Z"/>
  <path d="M528.29,607.31c.14,2.55-.28,4.75-1.52,6.69-1.54,2.41-3.9,3.36-6.64,2.79-2.65-.55-4.13-2.42-4.26-5.13-.19-4.07,.56-7.97,2.64-11.54,1-1.71,2.27-3.33,4.43-3.24,2.45,.1,3.4,2.16,4.24,4.09,.91,2.08,1.26,4.3,1.12,6.33Z"/>
  <path d="M464.94,599.63c.06,3.37-.66,5.92-3.36,7.44-1.86,1.05-3.7,.76-5.4-.48-2.6-1.89-2.85-4.6-2.18-7.34,.85-3.46,1.11-8.36,5.83-8.12,5.07,.26,4.36,5.4,5.11,8.5Z"/>
  <path d="M522.47,647.46c0,1.79-.12,3.55-1,5.16-1.37,2.5-3.54,3.08-6.16,2.58-2.4-.46-3.53-1.91-3.69-4.36-.24-3.79,.38-7.4,1.95-10.83,.76-1.65,1.79-3.17,3.92-3.03,2.08,.14,3.02,1.71,3.72,3.37,.96,2.25,1.31,4.64,1.26,7.09Z"/>
  <path d="M527.29,569.76c-.02,4.7-2.39,7.57-6.23,7.55-3.66-.01-5.81-2.62-5.88-7.33-.04-2.91,.36-5.79,1.4-8.54,.74-1.97,1.5-4.21,4.09-4.12,2.45,.08,4.13,1.65,5.02,3.94,1.05,2.73,1.62,5.56,1.61,8.49Z"/>
  <path d="M461.04,556.68c.76-2.83,.46-7.44,5.26-7.3,4.18,.12,4.99,3.88,4.87,7.5-.13,3.93-2.56,6.31-5.92,5.98-3.1-.31-4.47-2.15-4.21-6.19Z"/>
  <path d="M514.41,533.56c.03-.48,.03-.97,.1-1.44,.5-3.14,.44-7.27,4.43-7.56,4.01-.3,4.84,3.68,5.36,6.84,.6,3.7,.92,7.64-3.74,9.23-4.05,1.38-6.3-1.28-6.15-7.07Z"/>
  <path d="M474.52,520.27c-.16,2.57-.02,4.74-1.58,6.41-1.42,1.52-3.11,2.18-5.22,1.51-2.16-.68-3.17-2.17-3.06-4.34,.15-3.06,.52-6.11,1.75-8.95,.71-1.65,1.68-3.3,3.75-3.28,2.43,.02,3.14,2.01,3.63,3.89,.44,1.7,.55,3.49,.73,4.76Z"/>
  <path d="M510.15,684.96c-.15,4.4-1.33,7.88-4.05,10.64-2.48,2.52-5.53,2.78-8.36,.83-2.74-1.88-1.82-4.57-.59-6.95,1.25-2.43,2.6-4.84,4.18-7.07,1.44-2.04,2.89-4.79,6.08-3.59,3.02,1.14,2.48,4.17,2.74,6.13Z"/>
  <path d="M463.26,691.4c.2,3.7-.87,6.12-4.13,5.93-4.45-.26-4.97-3.96-5.17-7.41-.18-3.16,.77-6.34,4.52-6.02,4.8,.41,4.14,4.9,4.78,7.5Z"/>
  <path d="M490.25,720.18c-.13,3.48-1.36,5.99-4.94,6.25-3.39,.25-4.61-2.06-4.4-4.98,.24-3.3,.11-7.52,4.84-7.51,3.7,0,3.96,3.59,4.5,6.24Z"/>
  <path d="M451.91,744.99c-1.73,.03-2.98-.25-3.53-1.66-.45-1.15-.17-2.42,.84-3.01,2.62-1.53,5.3-2.97,8.08-4.18,1.15-.5,2.59-.24,3.45,.99,1.03,1.47-.1,2.45-1.01,3.27-2.38,2.14-4.71,4.42-7.84,4.59Z"/>
  <path d="M479.22,398.2c0,2.77-.83,4.92-3.73,4.77-3.5-.18-3.83-3.02-3.65-5.69,.18-2.6-.28-6.81,2.85-6.77,4.23,.06,3.73,4.77,4.52,7.69Z"/>
  <path d="M491.4,395.65c2.89,.48,3.82,2.61,4.19,5.09,.35,2.31-.88,3.86-3.07,3.96-3.14,.14-3.9-2.26-4.03-4.82-.11-2.06,.52-3.78,2.91-4.23Z"/>
  <path d="M491.65,390.78c.09,2.27-.97,3.41-2.85,3.36-3.57-.08-4.29-2.92-4.76-5.64-.27-1.58,.65-3.18,2.33-2.95,3.01,.41,4.56,2.67,5.28,5.23Z"/>
  <path d="M462.75,361.69c.27-1.62,.17-3.74,2.45-3.46,2.76,.34,3.35,2.82,3.49,5.09,.11,1.79-.44,3.98-2.77,3.63-2.79-.42-2.81-3.11-3.17-5.27Z"/>
  <path d="M468.61,375.18c-2.24-.44-3.04-2.11-3.26-4.13-.14-1.31,.08-2.89,1.76-2.8,2.26,.12,3.96,1.33,4.01,3.89,.03,1.61-.75,2.73-2.51,3.04Z"/>
  <path d="M443.5,644.52c.18-3.68,.52-7.2,2.01-10.48,.76-1.69,1.92-3.07,3.98-2.94,1.83,.12,2.82,1.5,3.41,3.04,1.5,3.93,2.13,8.06,2.37,12.25,.22,3.78-1.26,6.21-5.34,6.53-4.09,.32-5.88-1.85-6.22-5.65-.09-.96-.15-1.92-.21-2.75Z"/>
  <path d="M481.46,455.92c-.3,3.22-1.09,5.76-4.76,5.6-3.34-.15-4.4-2.39-4.06-5.26,.35-3,.8-6.74,4.74-6.63,3.74,.1,3.52,3.84,4.08,6.29Z"/>
  <path d="M481.81,425.89c0,3.53-1.39,5.23-4.38,5.14-3.17-.09-4.67-1.98-4.49-5.06,.19-3.15,.94-7.06,4.41-7.02,4.05,.04,3.5,4.63,4.46,6.93Z"/>
  <path d="M501.17,425.4c.1,2.58-.63,3.94-2.7,3.76-3.15-.28-4.97-2.23-5.21-5.3-.17-2.16,1.51-3.43,3.38-3.21,2.94,.34,4.08,2.73,4.53,4.75Z"/>
  <path d="M510.82,503.28c.63-2.78,.1-7.15,4.15-6.82,3.88,.31,4.36,4.49,4.63,7.94,.26,3.31-1.05,5.39-4.54,5.29-4.2-.13-3.74-3.58-4.24-6.4Z"/>
  <path d="M479.89,486.55c-.26,1.12-.4,2.93-1.1,4.49-1.31,2.89-3.86,3.78-6.8,2.96-3.02-.84-3.1-3.3-2.59-5.83,.28-1.4,.61-2.84,1.21-4.13,1.14-2.43,2.17-5.46,5.68-4.7,3.41,.74,3.29,3.86,3.6,7.21Z"/>
  <path d="M506.67,473.76c.16-2.89,.08-5.8,2.96-6.42,3.07-.66,3.78,2.37,4.79,4.46,.54,1.13,.83,2.44,.96,3.7,.3,2.88-.57,5.31-3.8,5.6-2.93,.26-4.22-1.85-4.68-4.46-.19-1.1-.17-2.23-.22-2.88Z"/>
</svg>