<?xml version="1.0" encoding="UTF-8"?>
<svg id="Layer_1" data-name="Layer 1" xmlns="http://www.w3.org/2000/svg" viewBox="0 0 864 864">
  <path d="M821.38,410.24c-1.72-6.23-3.46-12.47-5.5-18.61-14.74-44.47-36.87-84.71-68.67-119.34-14.98-16.31-31.63-30.74-52.57-38.75-46.45-17.78-91.34-13.24-134.39,11.13-22.24,12.59-37.6,30.93-45.29,55.49-1.98,6.32-4.34,12.53-6.26,18.87-7.02,23.11-13.62,46.35-23.72,68.38-13.08,28.53-31.52,52.44-59.31,68.14-12.85,7.26-26.38,12.81-41.04,15.38-4.23,.74-7.17-.15-9.42-4.05-2.62-4.55-5.02-9.09-5.95-14.33-2.53-14.24-.23-27.99,4.14-41.51,6.67-20.59,17.32-39.23,28.49-57.59,14.73-24.2,28.37-48.93,36.23-76.35,6.2-21.65,9.47-43.57,2.55-65.73-1.09-3.48-.54-5.33,2.41-7.37,14.22-9.87,24.55-23.17,32.18-38.49,17.63-35.39,29.11-72.61,32.14-112.18,.61-8.01,1.18-16.12-.67-24.07-2.34-10.03-8.82-12.04-16.47-5.28-4.54,4.01-8.12,8.83-11.59,13.73-9.58,13.53-18.89,27.26-29.36,40.14-14.77,18.17-31.83,33.76-51.86,45.97-5.51,3.36-11.22,6.36-18.69,7.2,.76-1.97,1.28-3.27,1.76-4.58,2.97-8.16,5.83-16.35,7.85-24.8,.34-1.42,1.21-3.27-.65-4.28-1.52-.82-2.65,.52-3.73,1.38-10.56,8.31-21.56,16.36-29.71,27.04-5.66,7.43-10.87,8.92-19.11,5-3.93-1.87-4.26-3.16-2.8-6.8,9.26-23,17.73-46.28,24.08-70.28,3.67-13.9,7.11-27.9,6.71-42.42-.3-10.92-5.92-13.99-15.63-8.87-6.82,3.6-12.17,9.01-17.29,14.61-14.92,16.32-28.42,33.88-43.59,49.99-13.12,13.94-26.69,27.36-42.26,38.61-.86,.62-1.67,1.9-2.79,1.45-1.56-.63-.75-2.22-.64-3.35,.59-5.97,1.3-11.93,1.97-17.89,.64-5.65,1.31-11.29,1.93-16.93,.13-1.14-.08-2.32-1.22-2.86-1.29-.61-2.03,.45-2.75,1.26-.63,.71-1.19,1.48-1.73,2.25-10.82,15.59-21.06,31.52-27.45,49.56-.63,1.78-1.42,2.87-3.51,3.2-16.65,2.65-32.41,8.17-47.72,15.06-2.37,1.07-4.74,1.41-7.34,1.36-14.79-.29-25.72,7.55-30.25,21.68-.62,1.95-1.85,3.23-3.21,4.55-11.47,11.07-20.93,23.52-27.53,38.17-8.01,17.8-6.23,34.35,5.13,50.04,3.71,5.13,7.72,10.02,12.4,14.3,33.8,30.97,74.27,46.42,119.33,51.04,18.57,1.9,37.22,1.89,55.85,1.71,3.8-.04,4.69,1.2,3.87,4.65-1.25,5.28-3.51,10.11-6.08,14.84-8.91,16.4-21.78,29.78-33.54,44-30.31,36.67-52.67,77.41-63.48,124.05-.56,2.43-1.91,3.34-3.86,4.21-10.82,4.81-21.78,9.3-33,13.08-32.24,10.87-64.91,19.85-99.08,22.16-3.06,.21-6.72,.33-7.49,4.41-.73,3.82,2.21,5.71,4.88,7.38,7.08,4.42,15.08,6.35,23.11,8.13,.6,.13,1.57,.38,1.8,.11,3.58-4.32,8.31-1.44,12.41-1.8,5.27-.46,6.21,1.01,6.28,6.35,.1,8.17,.15,8.23,8.33,7.42,1.76-.17,3.56-.64,4.24,1.72,1.23,4.24,2.45,8.48,3.64,12.73,.26,.93,.34,1.99-.67,2.51-1.16,.61-2.12,.09-2.82-.95-1.55-2.27-2.28-4.91-2.73-7.52-.57-3.36-2.1-4.28-5.47-3.97-5.32,.48-7.82-1.97-8.29-7.34-.14-1.57-.05-3.16-.02-4.74,.02-1.17-.08-2.42-1.48-2.56-4.06-.38-8.33-1.33-12.11,.45-6.85,3.22-13.47,6.92-20.13,10.53-2.63,1.43-5.19,3.05-7.12,5.42-1.12,1.37-2.18,2.84-1.29,4.72,.83,1.75,2.6,1.72,4.13,1.64,5.2-.27,10.39-.75,15.59-1.04,4.78-.27,9.55-1.2,15.19-.6-4.14,4.27-7.82,7.94-10.34,12.5-1.07,1.92-2.4,4.13-.84,6.19,1.47,1.94,3.8,1.05,5.75,.57,6.47-1.61,12.45-4.52,18.52-7.16,1.57-.68,3.04-1.68,4.94-1.05,7.49,2.48,15.08,1.2,22.52,.02,21.09-3.35,41.86-8.05,61.66-16.3,3.08-1.28,4.27-.96,4.72,2.72,.76,6.25,1.95,12.48,3.4,18.62,7.85,33.31,26.73,59.95,50.92,83.26,2.62,2.53,3.48,4.5,2.23,8.1-3.02,8.63-3.6,17.54-1.8,26.6,2.57,12.92,7.18,25.17,11.82,37.43,6.15,16.23,12.57,32.37,17.01,49.2,.83,3.14,.2,4.52-2.88,5.52-5.55,1.8-11.02,3.87-16.44,6.04-12.92,5.18-25.48,11.13-36.8,19.34-5.42,3.93-10.24,8.53-12.42,15.14-1.55,4.7-.4,6.15,4.48,6.02,4.42-.11,8.85-.47,13.26-.31,2.72,.1,3.91-.84,4.63-3.4,1.41-5.02,3.61-9.76,6-14.4,.86-1.67,1.72-3.72,3.9-3.7,2.4,.02,2.65,2.39,3.28,4.1,.71,1.92,1.17,3.93,1.77,5.89q3.67,11.86,15.99,11.04c.16-.01,.32-.03,.47-.02,2.14,.16,2.93-.79,3.25-2.97,.62-4.36,1.61-8.68,2.59-12.98,.45-1.99,1.06-4.21,3.49-4.61,2.71-.45,3.92,1.77,4.99,3.64,2.29,3.98,4.12,8.2,5.06,12.71,.58,2.79,1.9,3.72,4.84,3.64,7.9-.21,7.9-.05,9.07-7.92,.19-1.25,.23-2.55,.63-3.73,.99-2.92-.25-7.7,4.14-8.01,4.23-.3,4.81,4.29,6.26,7.31,1.74,3.64,.99,9.32,4.53,10.88,3.31,1.47,8.03-.02,12.09-.53,14.41-1.78,28.81-3.63,42.85-7.6,6.44-1.82,10.22-5.73,11.6-12.32,1.17-5.59,1.86-11.22,2.06-16.9,.68-19.91-.56-39.77-1.51-59.64-.15-3.18,.33-4.04,3.77-3.21,20.93,5.07,42.18,7.95,63.7,8.85,1.64,.07,3,.14,3.86,1.95,6.58,13.82,14.63,26.9,20.49,41.09,1.19,2.88,.71,4.38-2.03,5.99-10.22,5.99-20.16,12.44-29.14,20.24-4.8,4.17-9.26,8.64-11.75,14.64-3.29,7.93-1.25,10.8,7.28,10.94,2.89,.05,3.4-1.03,3.36-3.57-.08-4.59,.37-9.17,2.17-13.47,.82-1.96,2.08-3.71,4.41-3.8,2.17-.09,3.31,1.6,4.27,3.28,2.38,4.19,3.14,8.9,4.23,13.5,.46,1.95-.09,5.08,3.48,4.21,3.32-.8,8.28,2.26,9.42-4.11,1-5.58,2.14-11.18,4.46-16.42,1.96-4.42,4.55-4.8,7.81-1.17,2.03,2.27,3.18,5.05,4.33,7.83,1.61,3.87,.99,9.73,4.42,11.42,3.52,1.73,8.62,.24,13.04,.15,.47,0,.95-.12,1.42-.09,2.6,.18,3.67-.98,3.67-3.6,0-4.3,.82-8.51,2.4-12.5,.89-2.25,1.28-5.29,4.45-5.52,2.78-.2,3.93,2.29,5.28,4.2,2.67,3.77,4.57,7.96,5.91,12.34,.85,2.79,2.31,3.61,5.18,3.34,12.59-1.18,25.03-3.25,37.39-5.9,6.91-1.48,10.75-5.54,11.76-12.43,1.64-11.19,1.39-22.34-.78-33.44-.66-3.39-2.97-8.5-1.62-9.78,2.32-2.21,6.7,.31,10.23,.59,8.22,.64,16.44,1.34,24.65,2.08,3.87,.35,7.52-1.15,11.43-.97,24.03,1.15,47.42-3.79,70.62-8.9,10.89-2.4,21.21-7.73,31.53-12.31,7.98-3.54,14.06-10,20.77-15.43,4.78-3.87,9.37-8.06,12.45-13.52,.75-1.33,1.58-2.66,2.25-4.13,.86-1.64,1.62-3.33,2.27-5.07,.9-2.46,1.54-5,2.12-7.55,9.19-9.55,15.47-21.27,19.87-34.41,6.35-18.93,4.68-38.03,1.27-57.13-1.29-7.25-1.08-13.22,2.74-20.59,10.93-21.08,9.23-43.31,.73-65.09-1.51-3.88-3.12-3.85-5.5-.41-3.33,4.8-6.33,9.87-10.65,13.87-3.87,3.59-6.44,3.03-8.91-1.64-1.87-3.53-2.74-7.39-3.5-11.27-2.34-11.93-4.48-23.9-6.98-35.79-.58-2.75-.12-6.89-3.49-7.65-3.05-.69-4.48,3.01-6.19,5.13-14.33,17.85-26.09,37.19-33.88,58.83-.38,1.07-.08,3.93-2.75,2.43-3.6-2.03-4.37,.77-5.49,2.97-8.26,16.16-5.64,30.78,6.25,44.12,6.54,7.34,13.44,14.32,21.65,19.73,4.31,2.84,4.96,5.7,2.87,10.23-2.41,5.23-5.29,10.02-9.34,14.13-8.52,8.66-18.83,14.21-30.34,17.74-22.18,6.82-44.22,4.55-65.71-2.43-68.84-22.34-121.07-65.76-159.15-126.84-1.58-2.53-1.22-4.17,.52-6.23,7.06-8.37,14.7-16.12,23.84-22.21,35.31-23.53,78.11-9.17,92.09,30.85,.16,.45,.3,.91,.52,1.32,.65,1.19,.82,3.03,2.6,2.95,1.4-.07,1.86-1.58,2.39-2.7,2.57-5.42,4.93-10.94,7.67-16.28,10.75-20.95,25.89-38.1,45.52-51.07,12.65-8.36,26.7-11.15,41.67-8.18,13.18,2.61,21.57,11.14,27.39,22.72,.54,1.07,1.14,2.78,2.55,2.31,1.82-.61,.88-2.44,.69-3.73-2.47-16.85-2.55-33.84,.11-50.52,5.16-32.32,28.96-55.34,61.57-62.12,15.94-3.31,29.69,.13,42.02,10.33,2.31,1.91,4.44,4.03,6.69,6.01,.91,.79,1.73,2.28,3.11,1.68,1.78-.77,.94-2.56,.61-3.76ZM122.98,257.74c-6.92-4.08-13.86-8.17-19.13-14.43-.79-.94-1.41-2.09-1.87-3.24-.56-1.39-1.72-3.18,.2-4.19,2.37-1.24,2.3,1.3,2.95,2.49,3.66,6.72,4.03,6.86,11.2,3.76,1.3-.56,2.61-1.11,3.94-1.59,3.89-1.4,4.76-.74,4.62,4.28-.84,3.22-1.28,7.22,.21,11.26,.8,2.17-.34,2.71-2.12,1.66Zm25.89,12.89c-5.09-2.04-10.18-4.06-15.21-6.24-2.07-.9-2.32-2.31-.46-3.92,3.21-2.76,6.3-5.66,9.55-8.37,1.38-1.15,3.38-2.26,3.63,.81,.44,5.42,1.97,10.44,4.48,15.21,.14,.27,.22,.59,.33,.92,.13,1.82-.82,2.2-2.33,1.6Zm23.53,10.55c-4.23-1.63-8.39-3.45-12.54-5.29-1.46-.65-2.31-1.85-1.18-3.38,2.6-3.54,5.65-6.69,9-9.54,.34-.29,.84-.39,1.13-.51,1.77-.22,1.84,.91,1.99,2.05,.65,4.97,1.51,9.88,3.79,14.45,1.18,2.37-.27,2.96-2.18,2.23Zm3.1-100.35c-5.97-14.2-13.8-19.64-23.16-16.25-9.62,3.49-12.69,11.77-9.07,24.45-17.4-3.19-24.69-19.68-15.37-34.78,7.02-11.37,20.27-16.33,34.29-12.62,7.12,1.88,13.56,5.13,18.6,10.7,5.8,6.39,6.41,12.52,1.82,19.8-1.99,3.15-4.02,6.31-7.1,8.71Zm27.54,105.9c-.88,1.59-2.84,.37-4.92,.62-3.3-.51-7.19-1.11-11.07-1.72-2.82-.44-3.6-1.63-1.59-4.04,2.52-3.03,4.84-6.22,7.43-9.18,2.05-2.34,3.88-2.71,4.63,1.14,.67,3.42,1.94,6.62,3.67,9.66,.67,1.18,2.62,2.13,1.86,3.51Zm348.15,461.29c-2.59-6.97-3.71-14.3-5.35-21.5-.23-1.02,.07-1.88,1.28-2.12,1.34,.25,1.62,1.36,1.89,2.43,1.71,6.7,3.41,13.41,5.08,20.12,.25,1.01,.88,2.29-.62,2.81-1.41,.49-1.88-.67-2.28-1.74Zm6.96,17.5c-1.16,.47-1.84-.31-2.15-1.22-.86-2.52-1.6-5.08-2.03-6.49-.39-2.03-.17-2.75,.69-3.07,1.1-.41,1.89,.18,2.2,1.15,.81,2.53,1.54,5.1,2.21,7.67,.2,.78-.08,1.61-.91,1.95Zm9.22,27.37c-.91-.29-.8-1.25-.91-1.99-.7-4.63,.56-9.03,1.76-13.4,.75-2.71,3.2-1.02,4.39-1.45,5.98,.25,6.03,.32,3.22,5.01-2.09,3.49-4.21,6.98-6.36,10.43-.46,.75-.93,1.79-2.1,1.4Zm32.62-11.21c-.72,3.21-.83,6.55-1.27,9.83-1.11,8.26,.31,6.37-8.81,6.52-4.67-.52-10.77-1.22-16.87-1.87-2.62-.28-3.44-1.13-1.54-3.49,3.37-4.19,6.08-8.81,8.44-13.63,.85-1.75,1.87-2.58,4.01-2.35,4.22,.45,8.49,.74,12.73,.72,3.33-.02,4.01,1.17,3.31,4.28Zm37.42,14.81c-9.11,.39-18.2,1.06-27.3,1.62-.17-.36-.34-.72-.51-1.07,6.79-4.38,11.18-10.55,13.75-18.03,.27-.79,.65-1.52,1.53-1.6,4.55-.41,9.1-.83,13.67-1.11,1.97-.12,1.65,1.47,1.56,2.7-.31,4.58-.29,9.15,.35,13.69,.35,2.51-.18,3.69-3.05,3.81Zm-.26-53.56c-.14-2.43,1.48-4.28,3.92-4.32,2.12-.03,3.72,1.41,4.14,3.81-.25,2.39-1.84,3.46-4.07,3.59-2.11,.12-3.87-.97-4-3.08Zm35.21,47.48c-5.85,1.29-11.72,2.5-17.59,3.73-.28,.06-.6-.1-1.67-.32,5.85-6.58,11.1-12.81,13.19-21.08,.63-2.51,3.7-1.95,5.73-2.46,8.37-2.1,8.38-2.06,8.86,6.59,.04,.79,.1,1.58,.15,2.36q.52,9.13-8.67,11.18Zm-5.11-49.34c.25-3.39,3.15-4.98,6.29-5.13,2.4-.11,4.67,.8,4.87,3.47,.05,3.2-3.33,6.55-6.2,6.27-2.72-.27-5.17-1.76-4.96-4.61Zm41.86,37.33c-2.98,1.3-5.96,2.57-9.82,4.23,2.84-7.26,3.52-14.07,6.06-20.96,1.77,4.76,3.55,9.51,5.29,14.28,.52,1.41-.49,1.99-1.53,2.45Zm-8.4-43.61c.28-2.56,2.1-4.22,4.85-4.26,1.93-.02,3.33,.84,3.53,2.93-.76,2.63-2.5,4.22-5.03,4.48-1.98,.2-3.55-1.28-3.35-3.15Zm15.6,37.79c-.51,.95-.91,2.31-2.09,2.37-1.58,.08-1.71-1.6-2.22-2.65-5.58-11.66-5.11-12.52,9.23-16.55-1.61,5.82-2.11,11.63-4.92,16.83Zm8.31-52.81c-1.84,.04-3.02-1.03-3.03-2.88-.01-1.92,1.38-2.65,3.14-2.92,1.79,.52,3.17,1.53,3.02,3.58-.13,1.79-1.68,2.18-3.12,2.21Zm6.74,44.27c.4-4.19,1.79-7.97,3.87-11.91,.52,4.74,4.1,10.04-3.87,11.91Zm7.4-84.81c1.24-1.27,2.54-.69,3.82,.15,6.61,4.3,8.79,18.93,3.61,24.84-1.47,1.67-3.39,3.49-5.6,1.42-2.09-1.97-.12-3.13,1.44-4.37,2.26-1.8,1.48-4.64,1.98-6.38,.13-5.11-1.06-9.05-4.5-12.11-1.11-.99-2.17-2.1-.75-3.55Zm12.93-14.27c-1.86,.33-4.21-.68-4.01-2.94,.33-3.61,3.53-4.99,6.51-5.89,2.03-.61,3.09,.96,3.31,2.75-.33,3.76-2.72,5.53-5.8,6.08Zm-11.36,89.92c-2.36-2.84-1.57-8.43,1.47-10.3,4.41-2.72,8.37-5.77,11.92-9.12-.36,1.39-.76,2.77-1.25,4.13-.01,.03-.03,.06-.04,.1-2.39,5.91-5.39,10.42-9.13,14.42-.75,.8-1.68,2.33-2.98,.77Zm-16.3-115.66c-1.32-.86-2.69-1.69-3.85-2.73-10.12-9.08-16.95-20.28-21-33.18-.81-2.57-2.44-5.94,.29-7.89,2.71-1.94,4.8,1.3,6.98,2.58,2.8,1.65,5.41,3.62,8.55,5.76,1.73-15.95,6.91-30.04,14.27-43.37,.99-1.79,1.55-4.88,4.51-3.59,2.34,1.02,1.22,3.36,.88,5.44-1.15,6.95-.57,13.87,1.66,20.55,1.47,4.41,2.95,4.87,6.98,2.49,1.65-.98,3.19-2.28,5.16-.93,1.87,1.29,1.71,3.15,1.31,5.11-.39,1.9,.11,3.77,.6,5.6,1.5,5.57,4.85,8.26,9.26,7.46,5.34-.97,9.24-6.01,8.66-11.26-.1-.93-.53-1.82-.66-2.75-.27-1.94,.26-3.65,2.45-3.82,2.13-.16,3.14,1.3,3.04,3.34-.26,5.36-.34,10.74-.99,16.05-1.34,10.84-3.59,21.49-8.62,31.31-1.06,2.07-2.12,5.88-4.84,4.69-3.43-1.49-.34-4.37,.52-6.42,3.71-8.75,6.55-17.71,7.8-27.73-10.6,3.23-16.01,1.83-19.79-4.91-.54-.96-1.11-1.97-1.31-3.03-.77-4.1-.54-8.46-7.39-6.18-3.1,1.03-5.23-2.82-6.5-5.84-1.68-3.97-1.73-8.3-2.74-13.36-3.68,6.2-5.27,12.38-7.06,18.43-1.75,5.9-3.47,11.91-.29,17.96,.46,.88,.51,1.88-.22,2.66-.94,1.02-2.11,.64-3.01,.02-3.25-2.23-6.41-4.58-9.63-6.85-2.01-1.42-4.05-2.8-7.15-4.95,4.58,12.7,11.11,22.5,19.72,30.99,1.68,1.66,3.4,3.3,5.04,5,.82,.86,1.2,1.87,.31,2.96-.86,1.05-1.89,1.07-2.94,.39Zm-21.19,51.8c7.58-4.27,14.7-9.15,20.89-15.29,6.37-6.31,10.03-13.66,8.16-22.91-.27-1.34-.45-2.7,1.05-3.18,1.83-.58,2.59,.91,2.86,2.32,.41,2.16,.53,4.37,.67,5.6,.22,7.94-2.45,13.86-6.94,19.01-6.92,7.94-15.34,13.95-24.65,18.75-1.72,.89-4.12,2.55-5.44,.14-1.66-3.02,1.68-3.49,3.39-4.45Zm-10.45,27.94c3.49-.03,3.69-2.46,3.72-4.84,.04-3.38-1.04-6.51-2.67-9.46-.78-1.4-.88-2.75,.74-3.65,1.6-.88,2.78,0,3.62,1.24,2.41,3.53,2.83,7.63,3.17,11.26-.09,6.81-2.57,10.44-7.21,11.17-2.12,.34-4.06-.12-4.64-2.22-.68-2.45,1.21-3.48,3.29-3.5Zm-3.05,46.92c2.37,.66,1.31,2.7,1.05,3.95-1.17,5.75-1.39,11.88-6.33,17.88-1.41-6.77-1.55-12.42-1.88-18.03-.1-1.68,5.06-4.39,7.16-3.81Zm-33.05-65.17c5.81-.15,11.64,.02,17.37-1.24,3.06-.67,6.09-1.51,9.14-2.26,2-.49,4.17-.39,4.69,1.82,.53,2.25-1.83,2.64-3.4,3.07-6.98,1.9-14,3.66-21.34,3.21-2.2,0-4.4,.04-6.6-.01-1.58-.03-3.52,0-3.6-2.1-.1-2.45,2.08-2.44,3.75-2.48Zm-3.79,74.48c.71,.53-.02,1.75-.35,2.63-1.89,5.02-4.79,9.44-8.47,14.71-1.25-5.82-.65-10.48-.5-15.12,.07-2.02,1.65-2.14,3.04-2.05,2.13,.14,4.28-1.68,6.29-.17Zm-14.29-47.46c4.17-2.08,4.77-6.33,5.6-10.33,.19-.9-.09-1.89-.02-2.82,.12-1.67,.64-3.27,2.55-3.46,2.07-.21,2.58,1.38,2.78,3.06,.15,1.25,.27,2.51,.44,4.05-.84,5.62-2.35,11.16-7.8,14.66-2.32,1.49-5.19,2.25-6.76-.2-1.8-2.82,.99-3.83,3.22-4.94Zm-35.46-34.52c.87-1.97,2.64-1.12,4.12-.6,7.76,2.75,15.71,4.54,23.94,5.11,1.72,.12,3.6,.5,3.77,2.77,.12,1.55-1.28,2.25-3.98,2.15-8.63-1-17.1-2.72-25.23-5.85-1.59-.61-3.64-1.28-2.61-3.59Zm.49,86.67c1.23-4.11,5.58-2.19,8.13-1.7,3.19,.61,.43,3.05-.15,4.29-2.23,4.77-4.84,9.35-9.65,13.16-.22-5.78,.23-10.95,1.67-15.75Zm-5.76-77.44c2.84,.28,2.22,3.32,2.79,5.33-.63,4.86-2.35,9.16-6.37,12.16-1.84,1.37-4.14,2-6.09,.33-1.81-1.55-1.24-3.19,.94-3.84,4.81-1.42,5.48-5.49,6.43-9.47,.41-1.7-1.12-4.85,2.31-4.51Zm-35.38-28.5c.96-1.54,2.49-1.07,3.76-.31,8.37,5,17.09,9.31,25.82,13.63,.97,.48,1.96,1.04,2.22,2.39-.71,2.23-2.41,2.15-4.11,1.38-3.72-1.68-7.41-3.43-11.02-5.32-5.01-2.61-9.97-5.32-14.9-8.08-1.35-.76-2.94-1.79-1.76-3.69Zm-4.98,31.14c3.6,.88,4.32-1.52,5.18-3.76,.54-1.41,.7-3.44,2.9-2.92,2.11,.5,2.23,2.45,2.08,4.21-.42,4.84-4.93,8.52-9.79,8.23-2.37-.14-4.15-1.14-4.18-3.54-.03-2.88,2.27-2.35,3.81-2.23Zm-36.11-62.95c2.37-2.29,3.88,.37,5.32,1.9,6.65,7.06,14.57,12.55,22.4,18.16,2.2,1.58,5.11,2.82,1.8,6.03-1.12,1.09-.13,2.41-.18,3.62-.23,5.39-1.62,10.32-5.89,13.96-1.95,1.66-4.48,2.58-6.22,.1-1.7-2.42,.66-3.41,2.45-4.55,4.74-3.01,4.76-8.17,5.65-13.26,.23-2.36-1.69-3.53-3.54-4.8-7.02-4.84-14-9.74-20.14-15.72-1.55-1.51-3.96-3.21-1.66-5.44Zm-49.79,110.72c.06-2.27,1.87-3.72,4.19-3.64,2.17,.08,3.95,1.08,4.32,3.62-.65,2.27-2.27,3.47-4.52,3.29-1.91-.16-4.05-1.03-3.99-3.27Zm2.63,27.66c-.19,1.73-1.33,2.8-3.19,2.66-2.15-.16-3.47-1.32-3.47-3.56,0-2,1.03-3.17,3.16-3.26,2.03,.64,3.77,1.67,3.5,4.15Zm2.68-3.9c.3-1.63,1.09-2.93,2.99-3.02,1.67,.54,2.89,1.58,2.83,3.34-.08,2.2-1.76,2.86-3.64,2.68-1.66-.16-2.49-1.33-2.18-2.99Zm3.96-76.73c-4.41,4.23-8.4,4.48-11.09,.79-.7-.97-.98-1.96-.55-3.08,.26-.66,.78-.93,1.94-.74,.3,.15,1.05,.41,1.69,.85,1.96,1.33,3.12,.7,3.93-1.36,.64-1.61,1.37-3.36,3.5-3.3,1.34,.04,2.25,1.04,2.81,2.25,1.13,2.43-.94,3.36-2.23,4.6Zm-9.78-17.28c-2.08-.16-3.69-.89-3.67-3,.03-2.4,1.65-3.67,3.97-3.75,1.88-.06,3.54,.68,3.46,2.9-.08,2.37-1.58,3.61-3.77,3.85Zm2.95-26.62c-.17,2.49-1.84,4.03-4.36,3.91-2.4-.11-4.26-1.41-4.15-4.08,.11-2.67,2.32-2.93,4.22-3.22,2.23,.32,4.48,.63,4.29,3.39Zm-4.36,58.46c.48-1.13,1.02-2.47,2.65-2.12,1.77,.38,1.94,1.8,1.8,3.64-.56,3.53-1.65,6.86-6.19,7.97-4.21,1.03-5.61-2.57-8.06-4.38-1.1-.82-.89-2.33,.13-3.35,1.07-1.07,2.51-1,3.31,.1,4.01,5.54,4.98,1.41,6.36-1.86Zm-11.84,34.72c1.95-.08,2.48,1.5,2.96,2.82-.08,1.89-1.04,2.82-2.64,2.82-1.8,0-2.97-1.08-2.93-2.9,.03-1.54,1.01-2.68,2.61-2.75Zm-4.89-21.13c-1.67-.01-3.17-.91-2.99-2.8,.18-2,1.42-3.57,3.58-3.65,1.77-.07,2.81,1.12,3,2.99-.31,2.03-1.39,3.48-3.59,3.47Zm5.67-27.19c-1.55-.01-2.79-1.03-2.53-2.76,.29-1.99,1.85-2.95,3.71-3,1.48-.04,2.16,1.09,2.22,2.48-.21,2.12-1.44,3.3-3.4,3.28Zm-2.5-18.22c-2.95,.6-5.86,1.29-7.95,3.75-.77,.91-1.77,1.51-2.82,.46-1.14-1.15-.68-2.42,.31-3.33,2.78-2.54,6.3-3.42,9.65-4.11,1.36,0,2.6,.03,2.69,1.51,.07,1.13-.89,1.52-1.88,1.72Zm-8.54,31.03c-.09,1.42-.68,2.14-1.54,2.61-.98,.53-1.85,.17-2.49-.64-1.63-2.09-2.35-4.75-4.28-6.7-.69-.7-.18-1.81,.54-2.53,.71-.7,1.65-1.27,2.5-.54,2.55,2.18,3.41,5.5,5.26,7.8Zm5.4-145.54c-.58,.87-1.06,1.88-1.8,2.65-3.18,3.3-6.78,6.1-10.67,8.5-1.84,1.13-3.96,1.75-5.41-.5-1.52-2.37,.33-3.72,1.98-5.02,2.94-2.31,7.93-3.91,8.26-7.13,.37-3.7-3.92-6.78-6.27-10.07-1.74-2.43-3.66-4.72-5.49-7.09-.99-1.28-1.2-2.62,.11-3.77,1.31-1.14,2.77-.9,3.73,.39,5.05,6.82,10.01,13.71,14.98,20.59,.26,.36,.36,.85,.59,1.44Zm-21.64,144.65c.12,1.47,1.43,4.06-1.31,4.08-2.58,.01-2.02-2.65-2.09-3.85,.26-5.75,1.59-10.55,4.34-14.91,.77-1.22,1.91-2.55,3.44-1.61,1.97,1.21,.23,2.44-.49,3.48-2.71,3.85-4.27,8-3.89,12.81Zm6.68,29.6c.8,1.55,1.81,3.33-.18,4.61-2.31,1.49-3.48-.53-4.49-2.06-2.71-4.11-4.7-8.56-5.64-13.19,.06-2.15,.67-3.72,2.76-4.09,2.17-.38,2.65,1.27,2.97,2.86,.86,4.22,2.61,8.08,4.57,11.88Zm-6.59-133.86c-2.55-.46-5.58-.83-5.69-3.91-.11-3.43,2.78-4.72,5.81-4.87,2.61-.13,5.44,.46,5.59,3.7,.16,3.61-2.87,4.41-5.71,5.09Zm-38.19-71.9c.97-1.26,2.55-1.94,3.75-1.13,7.15,4.85,13.11,.66,19.29-2.23,2.19-1.02,4.65-4.53,6.8-1.13,2.1,3.32-1.73,4.91-3.88,6.3-5.32,3.43-11.03,6.05-18.3,6.22-2.54-.04-5.44-.97-7.53-3.71-1.07-1.4-1.26-2.87-.14-4.32Zm-5.97-15.28c-2.7-.2-5-1.16-4.97-4.02,.03-2.7,1.9-3.79,4.6-2.87,3.16,1.07,4.17-1.13,5.14-3.37,.98-2.25,2.44-3.98,5.02-2.57,2.63,1.44,1.7,3.75,.57,5.72-2.32,4.04-5.81,6.44-10.36,7.11Zm32.67,55.25c.23-3.17,2.85-3.36,5.28-3.18,2.3,.17,4.64,.99,4.57,3.69-.08,3-2.71,3.39-4.87,3.78-2.48-.78-5.21-1.17-4.98-4.29Zm-37.62-96.97c2.29-2.85,4.22,1.25,5.83,2.59,17.04,14.1,33.6,28.75,47.37,46.2,2.92,3.71,5.4,7.77,8.06,11.68,.43,.64,.75,1.36,1.01,1.84-.25,1.48-1.06,2.04-2.05,1.5-.92-.51-1.72-1.38-2.32-2.26-14.77-21.83-34.27-39.09-54.07-56.07-1.75-1.5-5.63-3.23-3.83-5.46Zm-5.63,9.32c1.36-1.61,2.76-4.05,5.34-2.52,2.83,1.67,1.3,4.16,.32,6.23-2.64,5.55-6.81,9.31-12.9,10.47-1.97-.03-3.67-.5-4.28-2.42-.69-2.15,.77-3.3,2.54-3.8,4.31-1.23,6.37-4.86,8.98-7.96Zm-27.63-17.53c-1.12-.17-2.42-.19-3.58-.6-1.68-.59-3.23-1.6-2.96-3.71,.25-1.9,1.49-3.44,3.39-3.35,5.93,.27,10.53-2.57,15.04-5.82,1.95-1.4,3.94-1.27,5.44,.61,1.52,1.9,.38,3.59-1,4.98-4.48,4.49-9.88,7.11-16.34,7.89Zm53.05-133.99c-1.44,1.04-3.06,1.59-4.84,1.75-4.9-.57-8.58-3.06-10.99-7.27-.98-1.7-1.17-3.71,.8-5.06,1.94-1.33,3.35,0,4.43,1.36,2.11,2.63,4.16,4.63,7.97,2.91,1.76-.79,3.37,.3,4.07,2.22,.64,1.74-.02,3.06-1.45,4.09Zm9.33-30.84c-2.19,1.66-4.65,2.62-7.26,2.51-3.22,.17-5.78-.82-7.73-3.15-1.38-1.65-1.48-3.5-.14-5.19,1.42-1.81,3.43-1.94,4.98-.48,2.43,2.29,4.86,2.4,7.77,1.22,1.4-.57,3.28-1.16,4.19,.7,.93,1.89-.37,3.31-1.8,4.4Zm7.27-23.86c-2.35,1.81-5.12,2.27-8,2.54-3.42-.23-6.37-1.51-8.62-4.18-1.22-1.45-1.69-3.08-.2-4.65,1.32-1.4,2.95-1.29,4.21-.1,3.08,2.91,6.27,3.88,10.21,1.63,1.25-.72,2.87-.5,3.64,1.1,.73,1.53-.01,2.72-1.24,3.66Zm3.97-20.13c-1.83,2.07-4.38,2.21-6.93,2.22-3.06-.01-5.9-.82-8.38-2.61-1.29-.93-2.45-2.17-1.73-3.96,.77-1.92,2.6-2.55,4.28-1.95,3.84,1.39,7.57,2.6,11.78,2.58,2.43-.02,2.4,2.1,.98,3.72ZM488.41,35.36c.66-.56,1.62-.48,2.16,.09,3.48,3.78,6.9,7.62,10.32,11.46,.19,.21,.19,.58,.29,.93-.25,1.86-1.32,2.52-2.88,1.41-4.12-2.93-7.5-6.61-10.18-10.89-.6-.96-.7-2.15,.3-3Zm-9.51,15.79c.81-1.1,1.97-1.01,2.91-.21,6.23,5.31,12.42,10.67,18.6,16.04,.32,.28,.4,.83,.69,1.47-.27,.43-.47,1.11-.92,1.41-1.16,.76-2.14-.02-2.97-.72-3.13-2.64-6.21-5.35-9.31-8.03-2.74-2.37-5.51-4.71-8.22-7.12-.83-.73-1.67-1.66-.8-2.84Zm-11.32,13.65c.38-.78,.99-1.19,2.19-1.21,.66,.46,1.59,1.03,2.42,1.72,6.77,5.64,13.53,11.3,20.29,16.95,1.09,.91,2.5,1.88,1.57,3.48-1.04,1.81-2.48,.83-3.58-.07-7.41-6.1-14.79-12.24-22.17-18.39-.75-.63-1.24-1.43-.73-2.48Zm-10.29,15.83c.35-.44,.94-.7,1.53-1.11,.99,.78,1.88,1.4,2.67,2.13,8.05,7.49,15.85,15.26,25.06,21.39,1.1,.73,2.78,1.69,1.81,3.31-1.08,1.81-2.78,.95-4.11,.07-9.89-6.56-18.21-14.91-26.52-23.27-.67-.68-1.17-1.58-.44-2.51Zm-11.75,18.18c1.23-1.56,2.66-.59,3.67,.4,3.04,2.98,6.05,6,8.92,9.15,4.93,5.38,10.17,10.36,16.52,14.07,1.2,.7,2.54,1.35,2.86,3.26-.84,2.23-2.45,1.58-4.04,.72-4.76-2.56-9.08-5.75-12.86-9.6-4.76-4.84-9.37-9.82-14.01-14.77-.84-.89-2.12-1.89-1.06-3.23Zm-13.5,13.54c.23-.45,.95-.66,1.25-.86,2.05,.29,2.96,1.66,3.99,2.81,7.92,8.73,15.04,18.19,23.79,26.18,1.97,1.8,4.01,3.54,5.98,5.34,1.02,.93,1.61,2.05,.55,3.28-1.04,1.2-2.3,.87-3.36,.02-1.71-1.38-3.39-2.81-4.97-4.33-9.34-8.94-17.29-19.13-25.88-28.75-.91-1.02-2.15-2.07-1.34-3.69Zm-15.71,17.32c1.55-1.52,2.59,.11,3.46,1.07,11.12,12.22,21.41,25.18,32.98,37.01,.53,.54,.8,1.32,1.27,2.13-.24,.56-.33,1.33-.75,1.6-.89,.59-1.81,.19-2.53-.51-2.57-2.55-5.28-4.98-7.66-7.7-8.71-9.95-17.31-19.99-25.95-30-.92-1.07-2.26-2.18-.83-3.6Zm-15.77,7.22c.31-.49,.9-.8,1.23-1.08,1.9,.18,2.59,1.57,3.45,2.62,5.03,6.08,10.07,12.16,14.98,18.34,7.3,9.19,15.36,17.59,24.75,24.67,1.33,1,3.32,2.24,1.69,4.13-1.34,1.56-2.96,.03-4.14-.88-10.21-7.85-18.84-17.26-26.91-27.22-4.67-5.76-9.33-11.54-13.96-17.33-.73-.92-2.05-1.77-1.1-3.24Zm-24.8,4.05c.69-1.31,1.74-1.09,2.83-.58,4.32,2,8.3,4.49,11.72,7.87,5.76,5.69,10.55,12.15,15.08,18.81,7.09,10.44,14.04,20.98,20.12,32.06,.67,1.23,1.25,2.51,1.68,3.39-.06,1.54-.6,2.35-1.56,2.64-1.73,.52-2.06-.97-2.59-2.07-6.47-13.24-14.96-25.22-23.27-37.3-2.68-3.89-5.67-7.59-8.71-11.21-3.88-4.63-8.32-8.63-13.93-11.15-1.02-.46-2.13-.98-1.37-2.44Zm-6.36,207.66c1.75-1.89,3.79-1.37,5.36,.35,3.04,3.31,6.47,3.42,10.3,1.69,1.89-.85,3.97-.94,4.94,1.12,1.07,2.26-.98,3.38-2.57,4.36-2.04,1.25-4.26,2.02-6.7,1.98-3.93,.01-7.44-1.16-10.4-3.79-1.83-1.63-2.88-3.59-.93-5.7Zm2.1,26.78c2.07-1.24,4.06-.57,5.19,1.61,1.18,2.28-.48,3.54-2.1,4.58-2.43,1.56-5.1,2.47-8.03,2.47-4.22,.03-7.64-1.72-10.37-4.83-1.37-1.55-1.94-3.38-.27-5.08,1.6-1.64,3.56-1.56,5.02,.05,3.25,3.57,6.64,3.53,10.56,1.2Zm-19.03-233.24c.15-.95,1.08-1.49,1.71-1.21,4.06,1.78,5.91-1.46,8.32-3.47,.71-.59,1.51-1.28,2.5-.61,.32,.21,.41,.76,.75,1.46-1.93,2.21-3.63,4.72-5.89,6.58-2.01,1.66-4.11-.47-6.14-1-.73-.19-1.4-.79-1.25-1.74Zm-6.99,258.28c2.33-2.13,4.15-.73,5.48,1.18,2.87,4.13,6.12,3.65,9.71,1.2,1.04-.71,2.08-1.41,3.1-2.14,1.71-1.24,3.42-1.62,5.08,.03,1.6,1.58,1.43,3.35,.44,5.17-2.67,4.88-7.03,6.92-12.03,7.39-5.38-.25-9.32-2.64-12.35-6.51-1.68-2.15-1.5-4.41,.58-6.31Zm-6.65,32.48c1.16-1.41,2.79-1.77,4.17-.6,4.33,3.7,8.12,1.6,12.01-.77,1.95-1.19,4.11-3.08,6.13-.23,2.17,3.06-.51,4.6-2.41,6.06-3.06,2.34-6.58,3.62-10.92,3.55-3.11,.29-6.05-.94-8.52-3.41-1.41-1.41-1.79-2.98-.45-4.6Zm7.34-415.82c1.28,.18,1.49,1.08,1.65,2.04,.53,3.02,1.93,5.59,4.05,7.8,.92,.96,1.55,2.13,.36,3.28-1.19,1.15-2.31,.43-3.3-.44-3-2.65-4.14-6.21-4.64-9.99-.17-1.27,.35-2.5,1.88-2.69Zm-12.66,12.51c1.01,.07,1.55,.63,1.94,1.34,2.45,4.47,5.55,8.42,9.3,11.88,.87,.8,2.05,1.96,.85,3.23-1.12,1.19-2.32,.28-3.37-.44-4.73-3.23-7.52-8-10.13-12.9-.86-1.61-.26-2.71,1.41-3.12Zm-10.92,15.33c2.2-1.63,3.15,1,4.18,2.42,4.14,5.71,7.91,11.72,13.99,15.71,.61,.4,1.05,1.07,1.46,1.51-.37,2.11-1.44,2.59-3.1,1.89-2.67-1.12-4.85-2.98-6.64-5.15-3.09-3.75-5.98-7.66-8.83-11.59-1.02-1.4-3.21-3.19-1.06-4.79Zm-13.45,13.33c1.74-1.24,2.85,.34,3.84,1.58,4.63,5.77,9.14,11.65,15.17,16.09,1.76,1.3,3.63,2.47,5.47,3.67,.92,.6,1.94,1.09,2.08,2.42-.56,1.93-1.83,2.52-3.54,1.44-2.65-1.68-5.32-3.37-7.76-5.34-5.68-4.56-10.17-10.27-14.75-15.87-.97-1.19-2.38-2.65-.49-4Zm-10.75,14.79c1.43-.94,2.35,.37,3.13,1.29,3.34,3.98,6.47,8.14,9.94,12.01,4.13,4.59,8.82,8.55,14.56,11.08,1.15,.51,2.32,.98,2.74,2.28-.21,2.18-1.69,2.22-3.1,1.82-2.75-.78-5.25-2.15-7.55-3.82-7.9-5.7-14.08-13.02-19.49-21.02-.75-1.11-2.01-2.45-.21-3.63Zm24.66,275.2c-9.87-2.15-19.42-5.18-28.73-9.08-2.86-1.2-3.71-2.38-2.74-5.51,2.28-7.35,2.09-7.32,9.52-6.11,4.19,.68,8.46,.85,12.64,1.55,9.32,1.56,13.91,6.79,13.89,15.93,.6,3.53-1.05,3.99-4.59,3.22Zm-39.52-256.27c1.1-1.65,2.44-.66,3.65,.19,10.81,7.61,21.04,16.19,33.89,20.45,.81,.27,1.44,1.1,2.1,1.63-.39,2.26-1.83,2.11-3.25,1.77-4.5-1.07-8.59-3.16-12.58-5.37-7.88-4.38-14.92-10.02-22.2-15.29-1.09-.79-2.72-1.7-1.6-3.38Zm-38.44,23.97c23.78-.74,47.16,2.39,70.29,7.61,1.55,.35,4.1,.47,3.54,2.83-.5,2.08-2.65,1.01-4.08,.7-24.22-5.34-48.6-9.24-73.52-8.53-.56,.02-1.29,.12-1.6-1.18,1.39-1.51,3.49-1.36,5.37-1.42Zm-17.44,169.86c-1.51,2.31-5.01,.91-7.59,1.36-.46,.08-.94,.01-1.99,.01-1.98-.39-5.56,1.36-6.91-1-1.51-2.64,1.47-5.16,2.89-7.51,4.62-7.61,4.68-7.58,9.35-.49,.35,.53,.85,1.03,.98,1.61,.52,2.42,5.09,3.24,3.28,6.03Zm21.59-3.43c-3.65,.92-7.34,1.69-11.39,2.61-1.53,.16-2.24-.75-1.83-2.55,.17-.76,.39-1.56,.8-2.2,1.82-2.84,.38-8.62,3.74-8.78,4-.19,6.09,5.21,9.37,7.8,1.31,1.03,1.36,2.61-.7,3.13Zm16.82-7.14c-2.24,.72-4.47,1.54-6.58,2.58-3.37,1.66-4.31,.49-3.72-2.51,.24-3.16,.44-5.98,.66-8.8,.07-.94,.11-1.93,1.14-2.39,1.26-.56,1.99,.23,2.83,1.03,2.05,1.94,4.12,3.86,6.3,5.66,2.34,1.93,2.8,3.35-.64,4.45Zm7.88-94.38c-11.92-3.4-23.95,.57-30.22,9.98-6.02,9.04-3.97,21.04,5.68,32.99-.12,1.67-1.42,.91-2.05,.75-14.58-3.78-26.31-11.27-30.57-26.53-4.24-15.2,.15-28.65,11.85-38.96,11.66-10.27,25.71-10.36,39.8-6.3,19.67,5.67,30.4,21.72,28.27,41.37-.54,4.95-2.22,9.49-5.71,14.11-.63-17.11-5.02-24-17.04-27.42Zm.07,186.81c5.32-7.65,10.09-15.67,13.8-24.24,.87-2,1.8-2.11,3.6-1.31,10.56,4.68,21.5,8.26,32.81,10.66,1.94,.41,2.57,1.26,2.1,3.29-1.64,7.13-4.46,13.79-7.68,20.32-.85,1.71-2.05,2.14-3.8,2.07-2.36-.1-4.74-.02-7.1-.02-11.03-.02-21.62-2.33-32-5.89-2.78-.95-3.83-1.86-1.73-4.88Zm-26.2,33.97c6.73-8.35,13.44-16.72,20.08-25.15,1.27-1.62,2.62-1.44,4.18-.8,12.44,5.12,25.44,7.26,38.82,7.28,3.54,0,4.18,1.04,2.28,4.04-6,9.47-12.6,18.51-19.08,27.65-1.88,2.65-4.33,2.05-6.79,2.05-13.94-.37-26.31-5.95-38.69-11.58-2.08-.94-2.1-1.86-.79-3.49Zm-24.45,40.02c5.3-10.94,11.25-21.49,18.27-31.43,1.63-2.3,2.98-1.88,5.11-.89,10.7,4.98,21.3,10.23,33.21,11.99,2.65,.39,6.55-1.1,7.62,1.58,.63,1.59-2.22,4.52-3.44,6.89-2.89,5.6-5.99,11.1-8.5,16.87-1.42,3.27-3.44,4.56-6.79,4.61-3.15,.05-6.29,.37-9.44,.58-12.08,.37-23.31-3.47-34.62-6.89-2.09-.63-2.35-1.38-1.42-3.29Zm-14.58,35.31c3.33-8.34,6.55-16.73,9.74-25.12,.83-2.18,1.88-2.91,4.26-2.02,15.27,5.7,31.02,8.3,47.34,6.99,.27-.02,.56,.24,1.16,.52-2.07,7.03-4.54,14.02-5.65,21.35-.23,1.51-1.34,2.02-2.55,2.46-17.16,6.29-34.4,7.32-51.84,1.08-2.93-1.05-3.59-2.43-2.46-5.25Zm-10.34,40.02c1.84-9.45,4.08-18.79,6.62-28.08,.71-2.6,1.73-2.72,4-1.84,16.51,6.37,33.28,6.31,50.21,1.84q5.15-1.36,4.82,4.12c-.15,2.52-.3,5.04-.44,7.56,0,1.42-.3,2.92,.05,4.25,1.58,5.97-1.64,8.46-6.53,10.94-18.18,9.24-37.06,9.04-56.37,5.23-2.47-.49-2.82-1.7-2.36-4.03Zm-3.58,37.85l-.16-.02c.75-8.64,1.57-17.28,2.2-25.93,.19-2.59,1.1-3.09,3.57-2.57,21.11,4.45,41.73,3.4,61.45-6.11,2.6-1.25,3.08-.43,3.4,2.11,.93,7.51,2.27,14.97,4.4,22.25,.83,2.85,.44,4.98-1.91,7.14-3.83,3.51-7.64,7.17-10.79,11.27-4.55,5.94-10.59,7.91-17.62,8.45-14.38,1.1-28.28-1.2-42.01-5.24-2.17-.64-2.62-1.82-2.55-3.78,.1-2.52,.02-5.05,.02-7.57Zm9.14,60.13c-4.54-13.03-7.4-26.42-8.84-40.13-.36-3.45,0-4.85,4.17-3.72,7.45,2.02,15.08,3.45,22.79,4.24,7.56,.77,15.11,.63,22.87-.48-13.16,12.75-20.27,30.32-34.96,41.6-4.34,3.34-4.23,3.63-6.03-1.51Zm5.99,14.19c-1.6-2.98-1.6-4.9,1.04-7.24,3.66-3.24,7.07-6.79,10.29-10.47,2.03-2.32,3.59-3.32,5.48,.5,10.41-19.87,26.25-33.75,41.83-47.82,12.3-11.11,25.16-21.62,35.81-34.43,.85-1.02,1.82-2.71,3.41-1.3,1.57,1.4-.07,2.6-.87,3.6-9.89,12.45-22.08,22.52-34,32.88-12.52,10.89-24.82,22.01-34.95,35.26-1.53,2-2.93,4.12-4.26,6.26-3.03,4.91-2.84,5.28,3.2,6.27-3.48,2.96-6.9,5.67-10.06,8.65-1.53,1.44-3.59,3.21-2.12,5.68,1.31,2.19,3.66,1.38,5.63,.99,5.52-1.08,11.03-2.25,17.02-3.48-.9,3.72-3.03,6.47-3.09,9.81-.02,1.12-.11,2.49,1.22,2.75,1.09,.21,1.39-1.03,1.7-1.91,2.46-7.03,6.83-12.78,12.19-17.8,1.88-1.76,2.11-3.31,.48-5.25-.71-.84-1.28-1.8-1.92-2.7q-4.05-5.69-9.88-1.42c-1.25,.92-2.58,2.44-4.07,.82-1.68-1.83-.14-3.23,1.3-4.24,1.8-1.26,3.7-2.42,5.66-3.4,3.35-1.68,6.02-.91,8.05,2.37,2.15,3.49,4.18,7.09,7.18,9.96,1.92,1.84,.31,2.6-.93,3.61-9.02,7.3-14.95,16.58-17.65,27.88-.46,1.94-1.49,4.24,.61,5.68,2.21,1.51,3.84-.55,5.38-1.74,6.13-4.73,12.16-9.57,18.27-14.32,.81-.63,1.67-1.82,2.86-1.13,1.16,.67,.64,2,.5,3.02-.5,3.61-.94,7.22-.47,10.85,.5,3.86,2.24,4.76,5.4,2.46,5.23-3.8,10.23-7.92,15.33-11.91,.99-.78,1.89-1.76,2.99-2.29,5.03-2.42,5.05-2.38,1.65-6.88q-5.84-7.71-13.2-1.45c-.12,.1-.23,.22-.37,.29-1.85,1.04-3.22,4.99-5.51,2.71-2.68-2.68,1.26-4.17,2.78-5.78,2.27-2.41,4.84-4.53,7.32-6.73,2.34-2.08,4.44-2.03,6.35,.68,2.27,3.22,4.76,6.3,6.98,9.56,1.29,1.89,2.36,1.98,4.14,.59,23.15-17.99,45.05-37.2,61.6-61.78,1.16-1.72,2.35-5.46,4.77-3.7,2.01,1.46-.76,4.26-2,6.06-14.47,20.98-32.24,38.89-52.13,54.65-11.19,8.87-20.42,19.76-31.2,29.02-9.72,8.34-19.47,16.6-30.66,22.96-7.31,4.16-7.4,4.16-13.25-1.61-13.75-13.58-26.58-27.88-35.83-45.05Zm37.25,93.44c-.19-3.18,.43-5.15,2.54-5.55,2.21-.42,2.72,1.53,3.05,3.34,.83,4.62,2.93,8.56,6.36,11.81,1.22,1.16,2.96,2.41,1.2,4.28-1.5,1.61-3.28,.78-4.69-.28-4.87-3.7-7.29-8.87-8.46-13.6Zm8.13,25.62c-.04-1.33,.26-2.58,1.57-3.15,1.59-.7,2.75,.14,3.48,1.49,.74,1.37,1.14,2.94,1.97,4.25,1.44,2.25,2.37,5.16,6.36,3.61,1.95-.76,4.26,.54,4.41,3.03,.19,3.29-2.51,3.43-4.5,3.66-6.25,.06-13.11-6.8-13.29-12.88Zm6.28-20.89c.03-2.05,1.18-3.74,3.44-3.68,2.16,.06,3.24,1.63,3.59,3.59-.29,2.35-1.61,3.51-3.79,3.42-2-.08-3.27-1.4-3.24-3.34Zm26.3,59.29c-1.94-.64-3.39-1.83-3.31-3.95,.08-1.96,1.44-3.18,3.42-3.01,1.95,.17,3,1.6,2.99,3.52,0,1.95-1.13,3.12-3.1,3.44Zm6.08,2.17c1.67,.08,2.39,1.26,2.34,2.97-.32,1.6-1.11,3.06-2.93,3.05-1.87,0-2.72-1.42-2.54-3.21,.18-1.78,1.32-2.9,3.13-2.82Zm-9.73-17.75c-1.71,.1-3.31-.71-3.17-2.66,.16-2.09,1.6-3.41,3.78-3.46,1.77-.04,3.03,.76,3.14,2.72-.05,2.5-1.76,3.29-3.75,3.41Zm-5.85-30.25c-2.18-.05-4.19-1.09-4.09-3.64,.09-2.19,1.74-3.37,3.9-3.25,2.17,.13,3.38,1.51,3.65,3.74-.25,2-1.56,3.19-3.46,3.15Zm-2,8.83c-.45,2.2-1.69,3.23-3.64,3.17-1.75-.06-3.77-.47-3.74-2.6,.02-2.08,1.74-3.24,3.8-3.36,2.03-.12,2.96,1.29,3.58,2.8Zm-11.49,22.33c.29-1.37,.97-2.31,2.5-2.35,1.51,.16,2.13,1.26,2.53,2.5,1.35,4.22,2.52,8.37,7.32,10.36,2.13,.88,1.53,3.28,.33,4.94-1.33,1.84-3.22,1.84-5.07,.84-3.25-1.75-8.34-12.78-7.6-16.29Zm7.49,64.48c-2.3-.49-4.68-1.07-4.51-3.9,.17-2.88,1.67-5.21,4.94-5.14,2.5,.05,4.9,1.22,4.79,4.08-.11,3.01-2.29,4.61-5.22,4.96Zm2.21-36.03c.25-1.38,1.03-2.24,2.43-2.32,1.58,.07,2.22,1.18,2.8,2.3,1.86,3.62,3.5,7.36,7.54,9.27,.9,.43,1.69,1.63,1.11,2.81-.6,1.21-1.85,1.67-3.17,1.62-3.87-.12-11.41-9.77-10.71-13.68Zm12.8,26.74c-1.45,.35-1.89-1.39-2.34-2.5-.94-2.31-1.82-4.66-2.5-7.05-.31-1.07,.09-2.24,1.39-2.6,1.02-.28,1.86,.25,2.41,1.07,1.49,2.26,2.27,4.77,2.52,7.3-.19,1.52,.14,3.38-1.47,3.77Zm-1.26-23.78c-.17-1.57,.22-3.18,2.4-3.58,2.53,.68,4.28,2.5,5.12,4.92,.56,1.61-.77,2.98-2.35,2.64-2.21-.47-4.85-1.02-5.16-3.97Zm8.65,21.51c-1.89-.18-3.51-.56-3.27-2.68,.28-2.52,1.94-3.93,4.42-3.83,1.55,.06,3.31,.82,3.12,2.76-.25,2.5-1.98,3.72-4.27,3.75Zm-8.67-115.89c-9.17-6.97-18.02-14.32-26.75-21.83-2.23-1.92-2.26-2.88,.5-4.19,16.04-7.62,29.07-19.37,42-31.17,7.57-6.91,14.88-14.1,22.14-21.33,2.22-2.21,3.35-2,5.63,.13,7.6,7.12,5.58,16.56,6.86,24.48-.94,21.19-6.29,39.65-22.82,53.27-12.86,10.6-14.41,10.62-27.56,.64Zm59.76,33.53c-14.07-5.96-27.76-12.65-41.35-21.15,29.11-15.84,38.34-41.63,37.52-72.87,2.04,.64,2.84,2.03,3.72,3.19,6.83,9.11,14.16,17.8,21.91,26.11,2.69,2.89,3.44,5.9,3.63,9.72,1.03,20.87-6.84,38.17-20.67,53.21-1.26,1.37-2.3,2.83-4.76,1.79Zm52.58,16.33c-14.79-3.85-29.63-7.58-44.9-13.17,16.66-15.36,23.66-34.25,24.11-55.82,1.91-.02,2.34,1.38,3.13,2.2,5.57,5.81,10.47,12.47,16.74,17.36,15.79,12.32,14.22,28.03,9.94,44.45-1.78,6.82-2.13,6.77-9.03,4.97Zm13.11,2.56c-1.28-.22-2.59-.37-1.74-2.32,4.63-10.7,5-21.86,3.51-33.39,11.69,10.63,18.04,24.59,25.82,38.62-9.9-.41-18.77-1.42-27.59-2.91Zm24.24-30.08c-.65-2.14-.71-4.23,1.81-5.05,2.53-.82,2.66,1.35,3.14,2.98,.78,2.63,2.6,4.34,5.19,4.97,2.88,.7,3.49,2.28,2.44,4.83,2.15-.76,4.47-1.34,5.31,1.52,.61,2.07-1.16,3.24-2.95,3.28-2.9,.06-4.12-1.68-3.67-4.55-6.19-.13-9.63-2.56-11.27-7.96Zm6.28,24.65c-.02-1.38,.4-2.58,1.73-3.05,1.49-.53,2.39,.51,2.97,1.68,1.4,2.83,2.95,5.58,5.09,7.92,1.4,1.54,3.12,3.25,5.26,1.84,2.35-1.55,4.02-1.26,4.69,1.25,.65,2.44-1.15,3.7-3.4,4.2-.92,.21-1.85,.36-2.43,.48-5.2-.12-13.85-9.25-13.93-14.31Zm13.35,26.84c-.39-1.34-.32-2.54,.92-3.33,1.25-.8,2.45-.43,3.38,.61,1.68,1.87,3.15,3.94,4.96,5.66,1.91,1.82,3.52,4.43,7.11,2.54,1.84-.97,2.85,.76,2.72,2.61-.21,2.91-2.09,4-4.28,4.05-4.82-.33-13.53-7.74-14.82-12.14Zm21.01,30.52c1.62,2.03,3.28,4.03,4.82,6.12,.54,.73,.87,1.67,.12,2.57-.7,.83-1.66,.96-2.55,.7-3.42-.99-5.79-3.26-6.34-6.75-.48-3.08,1.8-3,3.96-2.65Zm1.4,20.66c-1.99,.07-3.98-.62-4.1-2.88-.13-2.44,1.79-3.53,3.99-3.69,1.98-.14,3.69,.53,4.19,2.79-.42,2.32-1.77,3.7-4.08,3.78Zm4.07-21.5c-1.74,.58-3.69,.51-5.55,.73,.01,.01,.02,.03,.03,.04-3.46-2.17-6.55-4.76-8.78-8.22-1.19-1.83-1.85-3.83,.49-5.32,2.46-1.57,3.25,.58,4.3,2.1,2.22,3.24,3.72,7.79,9.28,4.73,.98-.54,2.21,.34,2.36,1.64,.21,1.84-.27,3.68-2.13,4.3Zm-.14-9.66c-2.02-.06-3.1-1.51-3.17-3.38-.07-1.86,1.33-2.88,3.02-2.89,1.84-.01,2.65,1.39,2.85,3.11-.18,1.68-.7,3.22-2.7,3.16Zm6.2-81.5c.11-2.05,1.56-3.47,3.69-3.45,1.82,.02,3.24,.99,3.51,2.98-.41,2.15-1.53,3.53-3.76,3.44-1.84-.07-3.55-.88-3.44-2.97Zm5.91,81.27c-2.2-.32-4.88-.67-4.95-3.31-.06-2.53,1.93-4.23,4.69-4.22,2.49,0,5.08,.69,5.21,3.56,.13,2.94-2.51,3.57-4.95,3.97Zm4.05-63.88c-1.74-.2-2.78-1.46-2.63-3.28,.15-1.79,1.26-2.98,3.08-2.77,1.73,.2,2.61,1.51,2.7,3.28-.36,1.74-1.31,2.98-3.15,2.77Zm3.1-27.57c-1,1.03-2.31,.97-3.33-.16-1.03-1.14-.66-2.34,.06-3.47,1.36-2.13,3.25-3.38,5.83-3.46,2.07-.01,3.58,1.15,4.94,2.47,1.1,1.07,2.5,2.29,1.36,4.04-1.06,1.62-2.64,1.43-4.2,.64-1.54-.77-2.99-1.79-4.67-.06Zm14.2,21.53c-.12,.47-.09,.89-.28,1.06-3.45,3.04-6.52-1.32-10.05-.61-1.35,.27-1.62-2.46-.68-3.88,1.79-2.69,4.26-3.01,6.92-1.31,1.86,1.18,3.55,2.58,4.09,4.75Zm-13.2-74.84c.29-3.22,2.97-4.3,5.92-4.11,3.24,.21,4.91,2.37,4.7,5.4-.21,2.95-2.62,3.61-5.42,3.55-2.38-.79-5.51-1.36-5.2-4.84Zm-7,33.56c1.04-2.06,3.02-2.91,5.21-2.09,3.03,1.13,5.28,3.28,6.72,6.17-.72,3.13-2.84,2.95-4.73,1.9-1.92-1.07-3.51-1.92-5.98-1.83-3.05,.11-2.03-2.54-1.22-4.15Zm-3.07-10.3c-.09,2.15-1.52,3.27-3.77,3.38-1.91-.16-3.23-1.17-3.08-3.21,.15-1.98,1.16-3.62,3.44-3.67,2.27-.05,3.5,1.35,3.41,3.5Zm-32.44-56.49c1.38,2.79,3.71,3.11,6.41,2.52,7.82-1.7,13.34-6.82,18.6-12.39,1.42-1.5,.25-2.66-.42-3.78-2.95-4.87-6.5-9.3-10.27-13.56-.73-.82-1.5-1.63-2.15-2.51-.97-1.31-1.11-2.62,.38-3.69,1.33-.96,2.42-.33,3.29,.71,4.97,5.92,10.18,11.64,13.99,18.44,1.75,3.13,.73,6.55-.83,8.68-6.08,8.29-14.2,13.74-23.86,14.94-5.33-.14-8.9-1.83-10.71-6.09-.84-1.98-.77-4.17,1.36-5.47,2.44-1.49,3.35,.43,4.21,2.19Zm115.46-194.94c.06,5.18,.06,10.37,.02,15.55,0,1.11-.28,2.32-1.77,2.29-1.49-.03-1.66-1.24-1.69-2.36-.05-2.67-.02-5.34-.02-8.01,.06,0,.13,0,.19,0,0-2.51-.05-5.02,.02-7.53,.03-.92,.18-2,1.4-2.11,1.53-.14,1.83,1.05,1.84,2.17Zm-10.58-79.53c-.09-1.51-.42-4.18,2.05-3.8,2.6,.39,1.33,2.96,1.38,4.89-.89,1.39,1.38,4.85-1.62,4.67-3.15-.19-1.68-3.69-1.8-5.76Zm.13,12.12c-.07-1.01,.42-1.87,1.56-1.96,1.36-.1,1.98,.8,2.12,1.99,.16,1.39,.18,2.8,.3,4.74,.04,.4,.18,1.33,.2,2.26,.02,1-.32,1.93-1.46,2.03-1.07,.09-1.84-.64-1.97-1.63-.34-2.46-.57-4.95-.74-7.43Zm1.67,23.02c-.45-1.95-.35-4.03-.41-6.05-.02-.81,.33-1.57,1.22-1.77,1.18-.27,1.83,.59,1.99,1.49,.35,1.99,.47,4.02,.68,6-.56,1.92,2.02,5.19-1.29,5.51-3.18,.31-1.76-3.31-2.19-5.17Zm3.88,32.16c-.42-4.06-.82-8.12-1.23-12.18l.18-.02c-.08-.94-.25-1.88-.22-2.81,.04-1.24,.7-2.11,2.02-2.14,1.28-.03,1.48,.99,1.5,1.95,.1,5.04,.75,10.02,1.58,14.99,.22,1.32,.19,2.65-1.62,2.71-1.64,.06-2.07-1.16-2.21-2.5Zm4.79,48.6c-.91,.31-1.5-.3-1.9-.98-.48-.8-.86-1.67-1.2-2.55-.81-2.11-1.67-4.94,1.13-5.49,2.36-.47,1.82,2.65,2.29,4.3,.26,.9,.4,1.84,.59,2.69,0,.87,.01,1.71-.91,2.02Zm63.78-205.97c4.3-.81,8.61-1.51,12.93-2.21,1.1-.18,2.38-.28,2.68,1.14,.3,1.43-1.02,1.92-2.01,2.13-4.27,.92-8.58,1.68-12.72,2.46-1.19-.09-2.52,.43-2.94-1.02-.48-1.68,.82-2.26,2.06-2.5Zm-50.29,10.92c12.59-4.68,25.57-7.7,38.9-9.25,1.45-.17,3.21-.77,4.16,1.22-.5,2.37-2.57,1.98-4.14,2.13-10.08,.95-19.83,3.38-29.4,6.57-2.68,.89-5.28,2.03-7.94,2.99-1.5,.54-3.37,1.11-4.18-.69-1-2.22,1.22-2.46,2.59-2.97Zm38.77,32.86c1.78,0,2.25,1.34,2.45,2.82-.27,1.35-.96,2.36-2.45,2.31-1.59-.05-2.7-.95-2.71-2.57,0-1.64,1.11-2.55,2.71-2.56Zm-33.87,103.67c-1.83,.19-1.93-1.71-2.14-3.07-.91-6.03-1.77-12.07-2.65-18.1-.21-1.46-.34-3.11,1.52-3.36,2.07-.28,1.93,1.66,2.12,2.95,.88,6.04,1.68,12.09,2.42,17.45,.05,2.04,.71,3.93-1.27,4.13Zm1.81,10.47c.02,2.67,0,5.34,0,8.01,.06,0,.12,0,.19,0,0,2.36,.01,4.71,0,7.07,0,1.13-.14,2.39-1.54,2.51-1.44,.13-1.8-1.08-1.82-2.22-.07-5.18-.12-10.37-.1-15.55,0-1.21,.63-2.18,2.03-2,1.25,.15,1.23,1.24,1.24,2.18Zm-7.71-47.21c-.58-3.89-1.1-7.8-1.67-11.69-.16-1.09-.63-2.33,.84-2.78,1.68-.51,2.3,.78,2.51,2.06,.66,4.04,1.19,8.11,1.7,11.67,.05,1.62,.18,3-1.19,3.22-1.67,.27-2-1.21-2.18-2.47Zm-8.15-38.9c-.24-.8-.2-1.58,.69-1.99,1.02-.47,2.01-.14,2.44,.75,2.53,5.12,3.28,10.79,4.89,15.76,0,1.31-.4,1.98-1.24,2.2-1.17,.32-1.77-.49-2.07-1.42-1.6-5.09-3.16-10.19-4.72-15.3Zm9.12,174.73c-.52,4.36-1.01,8.56-1.53,12.76-.14,1.12-.44,2.47-1.75,2.44-1.92-.05-1.44-1.77-1.34-2.89,.37-4.21,.85-8.41,1.36-12.61,.17-1.43-.45-3.83,1.73-3.71,2.62,.14,1.19,2.67,1.53,4.01Zm3.25-21.38c-.07,.78-.15,1.55-.23,2.33-.07,0-.14,0-.21,0,0,1.4,.05,2.8-.01,4.2-.06,1.29-.78,2.15-2.09,1.88-1.21-.24-1.86-1.24-1.45-2.49,.65-1.97,.7-3.97,.67-6.01-.02-1.33-.4-3.21,1.7-3.14,1.96,.06,1.76,1.79,1.64,3.22Zm3.93-35.26c-.26,5.18-.53,10.36-.88,15.53-.07,1.04-.2,2.45-1.66,2.39-1.42-.06-1.56-1.39-1.51-2.5,.1-2.51,.31-5.02,.47-7.53h.18c0-2.68-.06-5.35,.03-8.01,.04-1.13,.5-2.3,1.87-2.3,1.54,0,1.57,1.3,1.52,2.41Zm19.08-121.19c-1.1,1.56-2.57,.74-3.74-.1-4.6-3.3-9.67-5.97-13.78-9.91-1.91-1.83-3.24-4.07-.74-6.52,.43-.42,1.05-.63,1.65-.97,.42,.35,1.01,.59,1.06,.91,1.07,7.13,7.81,8.38,12.32,11.93,.49,.39,1.09,.62,1.62,.97,1.35,.88,2.92,1.84,1.61,3.7Zm10.58,14.54c-2.35-2.31-4.7-4.62-7.04-6.94-.74-.74-1.02-1.6-.41-2.54,.45-.69,1.12-1.08,1.99-1.03,1.88,.02,9.31,7.89,9.06,9.7-.07,.5-.56,1.13-1.02,1.36-.92,.47-1.84,.17-2.58-.55Zm9.03,12.64c-2.07-1.66-3.99-3.49-5.95-5.27-.65-.59-.71-1.4-.42-2.16,.34-.9,1.17-.84,1.96-.84,2.92-.02,7.5,4.63,7.24,7.51-.49,1.62-1.68,1.69-2.83,.77Zm12.72,24c-.86,.33-1.57-.03-1.98-.77-2.06-3.7-3.5-7.66-4.65-11.72-.21-.76,.11-1.56,.95-1.94,.88-.39,1.64-.02,1.95,.73,1.63,3.89,3.16,7.81,4.48,11.09,.27,1.53,.12,2.25-.76,2.59Zm-1.09-37.37c-1.18-3.63-3.11-6.88-5.11-10.1-.94-1.52-1.12-3.27,.61-4.1,1.61-.78,1.95,1.21,2.53,2.13,2.24,3.59,4.81,7.01,6.17,10.5,.04,1.83-.49,2.79-1.69,3.12-1.28,.35-2.11-.34-2.5-1.55Zm5.97,54.31c-1.72-2.31-2.65-4.99-3.26-7.77-.18-.83,.24-1.54,1.1-1.85,.89-.32,1.62,.04,1.94,.83,1.03,2.47,1.96,4.99,3.03,7.74-.19,.39-.31,1.07-.72,1.4-.7,.56-1.61,.32-2.1-.34Zm.81-48.96c.71-.52,1.65-.49,2.09,.22,1.72,2.78,3.32,5.63,5.06,8.63-.35,.53-.57,1.17-1.02,1.43-.74,.45-1.6,.21-2.05-.52-1.55-2.53-3.04-5.1-4.5-7.68-.42-.74-.31-1.56,.42-2.08Zm8.04,66.17c-1.13,.54-1.76-.13-2.18-1.06-1.2-2.71-2.42-5.42-3.54-8.16-.48-1.19-.75-2.57,.9-3.12,1.4-.47,1.91,.68,2.34,1.7,1.23,2.86,2.43,5.73,3.42,8.05,.05,1.46-.13,2.2-.94,2.59Zm7.14,19.59c-1.53,.44-1.74-.95-2.06-1.95-.96-2.96-1.97-5.92-2.74-8.94-.3-1.17-.15-2.57,1.59-2.67,.95,.21,1.37,.87,1.62,1.63,.98,2.96,1.93,5.93,2.88,8.91,.43,1.36,.22,2.6-1.28,3.03Zm5.36-46.35c-1.31,.61-2.13-.37-2.61-1.34-2.53-5.02-5.01-10.06-7.41-15.15-.59-1.26-.19-2.41,1.09-2.96,1.47,.26,1.97,1.34,2.43,2.27,2.34,4.77,4.6,9.57,6.85,14.38,.45,.96,1.11,2.11-.35,2.79Zm9.21,28.69c-1.14,.3-1.79-.54-2.08-1.43-1.63-5.05-3.23-10.12-4.73-15.21-.33-1.11,.04-2.19,1.34-2.37,1.08,.05,1.6,.64,1.83,1.41,1.51,5.09,3,10.19,4.44,15.3,.24,.87,.48,1.96-.79,2.29Zm4.6,19.23c-.81-2.7-1.49-5.44-2.25-8.15-.37-1.3,0-2.08,1.11-2.32,1.15,.18,1.71,.74,1.97,1.5,.9,2.67,1.77,5.35,2.57,8.05,.28,.95,.13,1.93-.94,2.36-1.36,.54-2.12-.31-2.46-1.43Zm4.91,16.36c-3.2-1.54-2.21-5.15-3.13-7.13-.14-1.81-.01-3.55,1.26-3.06,3.64,1.4,2.14,5.39,3.39,8.07,.46,.99-.29,2.71-1.53,2.11Zm4.46-165.16c-.48,2.25-2.96,1.1-4.53,.88-15.91-2.26-31.76-2-47.58,.89-4.66,.85-9.28,1.8-13.75,3.44-1.34,.49-3.36,1.69-4.08-.45-.68-2.04,1.56-2.46,2.94-2.95,12.53-4.4,25.57-5.37,38.7-5.69,.79-.02,1.58,0,3.53,0,6.28-.28,13.66,.33,21,1.48,1.52,.24,4.28-.06,3.75,2.4Zm29.49,13.82c-.59,.66-1.34,.81-2.12,.37-3.57-2.01-7.15-4-10.68-6.07-.86-.5-1.23-1.43-.92-2.46,.26-.87,.89-1.24,2.09-1.16,3.53,2.43,8.14,3.56,11.5,6.81,.74,.72,.92,1.66,.14,2.52Zm22.03,16.24c-1.44,1.74-2.56,.17-3.42-.8-2.85-3.21-6.34-5.62-9.78-8.1-.92-.66-1.79-1.41-1.42-2.7,.23-.81,.85-1.28,2.1-1.32,.79,.51,1.85,1.15,2.85,1.86,3.2,2.28,6.41,4.54,9.54,6.9,1.63,1.23,1.18,2.89,.13,4.16Zm2.1-14.03c-.41-.48-.8-.97-1.18-1.48-17.4-23.79-40.69-37.55-69.95-41.28-2.62-.33-5.38-.46-7.74-1.9-.9-.56-1.92-1.31-1.48-2.64,.38-1.17,1.45-1.56,2.71-1.93,4.97,3.36,10.91,3.69,16.59,4.67,26.38,4.53,46.17,19.1,61.8,40.13,.66,.88,1.28,1.8,1.83,2.75,.48,.83,.92,1.81-.16,2.48-.99,.61-1.78-.04-2.43-.79Zm12.67,30.56c-1.75,1.29-2.57-.17-3.26-1.39-1.63-2.91-4.04-5.18-6.16-7.7-.85-1.01-1.53-2.11-.64-3.37,.41-.59,1.16-.93,1.87-1.47,.61,.45,1.21,.71,1.56,1.17,2.3,2.97,4.59,5.95,6.78,9.01,.84,1.18,1.37,2.64-.15,3.76Zm12.88,23.97c-1.33,.51-2.08-.4-2.47-1.5-1.65-4.73-3.27-9.46-5.92-13.76-.7-1.14-.36-2.16,.59-2.89,1.21-.93,2.2-.07,2.72,.86,2.62,4.62,4.7,9.5,6.31,14.08,.18,1.65-.03,2.75-1.23,3.21Zm17.69,17.06c-1.13,.64-1.74-.19-2.17-1.06-1.41-2.83-3.05-5.47-5.6-7.47-.91-.71-1.59-1.82-.79-2.87,.91-1.2,2.37-1.05,3.35-.12,2.78,2.62,4.65,5.88,5.96,9.19,.11,1.08,0,1.9-.75,2.33Z"/>
  <path d="M468.15,862.53c-5.13,1.49-5.55-.86-4.15-4.98,1.01-2.96,1.61-6.06,2.54-9.06,.74-2.39,1.98-2.78,3.29-.38,2.13,3.9,3.15,8.19,4.3,12.44,.41,1.53-.39,1.97-1.71,1.97-1.41,0-2.83,0-4.26,0Z"/>
  <path d="M505.84,846.11c3.5,4.38,5.02,8.97,6.87,14.22-3.08,.17-5.81,.3-8.53,.46-1.82,.11-2.15-.95-1.84-2.4,.83-3.95,.87-8.12,3.5-12.28Z"/>
  <path d="M438.74,863.92c-2.5,.38-3.5-.66-3.47-3.12,.03-3.32,.12-6.62,1.06-9.82,.21-.7,.33-1.64,1.36-1.68,.99-.04,1.25,.85,1.55,1.52,1.52,3.51,1.99,7.26,2.52,11.01,.4,2.85-1.72,1.88-3.01,2.1Z"/>
  <path d="M233.57,849.2c1.26,4.21,2.18,7.53,3.26,10.78,.59,1.77,.39,2.68-1.71,2.57-1.41-.07-2.84-.1-4.24,.05-3.11,.35-3.49-.96-2.34-3.47,1.41-3.09,2.38-6.4,5.03-9.93Z"/>
  <path d="M266.09,848.22c2.29,2.92,3.16,5.58,3.94,8.27,1.5,5.16,1.36,5.18-3.83,5.26-2.55,.04-3.4-.73-2.91-3.2,.66-3.3,1-6.69,2.79-10.34Z"/>
  <path d="M293.98,848.33c3.05,3.91,3.24,7.38,4.04,10.59,.59,2.36-1.4,1.9-2.65,2.05-1.34,.15-3.1,.63-2.86-1.71,.33-3.22,.85-6.41,1.47-10.93Z"/>
  <path d="M360.99,260c-.48,9.61-2.67,18.87-9.47,26.39-12.41,13.72-33.6,11.62-43.17-4.21-9.62-15.91-4.06-39.09,11.72-48.9,18.31-11.38,38.58-.3,40.71,22.25,.13,1.41,.13,2.83,.2,4.47Z"/>
  <path d="M142.27,257.66c1.1,2.64,1.86,4.48,2.79,6.7-2.82,.03-5.65-.6-6.5-2.62-.78-1.85,2.42-2.17,3.72-4.08Z"/>
  <path d="M190.8,282.27c.77-2.17,1.45-4.05,3.66-3.9,.56,.04,1.69,2.42,1.35,3.15-1.08,2.29-3.03,.69-5.01,.74Z"/>
</svg>