<?xml version="1.0" encoding="UTF-8"?>
<svg id="Layer_1" data-name="Layer 1" xmlns="http://www.w3.org/2000/svg" viewBox="0 0 864 864">
  <path d="M796.16,580.2c-4.38-2.8-7.96-4.96-11.4-7.33-7.32-5.06-12.39-11.92-15.48-20.22-.63-1.69-.94-3.54-1.11-5.35-.2-2.04-.03-4.13,2.18-5.21,2.16-1.06,3.99-.07,5.55,1.28,4.46,3.85,8.16,8.43,11.97,12.91,3.38,3.98,6.14,8.54,10.53,11.94,2.93-13.52,8.86-25.17,16.86-35.79,1.71-2.27,3.65-5.54,6.98-4.23,3.51,1.37,2.82,5.27,2.63,8.25-.65,10.11-4.23,19.29-9.56,27.83-.56,.9-1.08,1.83-2.24,3.79,4.27-1.32,7.53-2.37,10.81-3.32,1.93-.56,3.88-1.16,5.86-1.43,2.39-.33,5-.48,6.17,2.29,1.06,2.49-.71,4.31-2.35,5.69-4.5,3.77-9.2,7.3-13.78,10.97-1.23,.99-3.4,1.82-2.85,3.59,.62,2.03,2.86,.96,4.34,.89,6.05-.28,12.08-.8,18.12-1.1,1.77-.09,3.93-.3,4.63,1.97,.63,2.05-.83,3.46-2.17,4.73-3.68,3.48-8.3,5.4-12.81,7.4-5.75,2.55-8.21,6.22-8.34,12.99-.63,30.94-4.32,61.25-15.7,90.6-15.09,38.92-40.78,68.3-75.33,90.74-18.65,12.11-37.58,23.71-58.26,32.07-28.53,11.53-58.58,15.05-88.99,15.77-38.92,.93-77.85,.19-116.74-1.78-.53-.03-1.07,.09-1.62,.15,2.9,11.81-.65,16.62-12.93,16.04-20.94-.99-41.85-.88-62.76,.16-22.38,1.11-44.62,3.71-66.9,5.99-6.21,.64-12.43,1.3-18.66,1.51-14.19,.47-19.08-7-12.99-19.67-2.17-.27-4.35-.36-6.44-.85-3.55-.83-6.82-2.63-7.6-6.33-.82-3.87,1.21-7.14,4.37-9.48,3.94-2.92,8.39-3.66,13.06-2.29,2.5,.73,3.86,.84,4.5-2.41,.97-4.93,4.66-6.72,9.48-6.33,4.66,.37,8.91,2.15,13.1,4.01,8.06,3.56,16.05,7.26,24.08,10.87,3.31,1.49,6.73,2.61,10.65,3.21-.73-3.63-3.18-5.46-5-7.65-10.66-12.79-20.07-26.33-24.37-42.68-7.61-28.92,2.32-52.85,22.35-73.16,13.73-13.92,30.1-24.58,47.01-34.33,1.42-.82,2.83-1.66,4.06-2.85-8.69,2.68-16.61,7.02-24.27,11.79-16.16,10.06-30.84,21.76-41.96,37.55-19.32,27.45-19.01,55.26-2.2,83.6,.7,1.18,2.06,2.09,1.81,4.32-15.24-9.95-28.1-21.95-39.07-36.04-11.15-14.32-19.32-30.29-26.08-47.03-1-2.49-2.15-4.15-4.96-5.19-5.28-1.96-7.54-6.77-8.7-11.95-1.85-8.28-.9-16.47,1.67-24.43,.99-3.06,1-4.43-2.75-4.03-5.22,.55-8.3-2.06-9.54-7.05,16.59-5.69,32.34-13.32,48.4-20.2,3.47-1.48,3.23-3.94,3.11-6.7-1.28-29.53-2.51-59.07-3.85-88.6-.51-11.19-1.21-22.37-1.9-33.54-.09-1.49,.63-3.29-1.47-4.72-1.06,1.98-.64,3.93-.56,5.78,1.63,38.52,3.16,77.05,5.08,115.56,.29,5.84-1.29,8.72-6.85,10.86-12.31,4.75-24.3,10.35-36.46,15.49-6.07,2.57-11.08-.62-11.56-7.34-.49-6.77,2.18-12.58,7.58-16.25,6.74-4.57,7.3-10.06,6.71-17.69-2.37-30.26-1.35-60.52,1.85-90.73,4.21-39.67,13.5-78.47,19.86-117.77,2.81-17.39,5.9-34.76,6.29-52.44,.1-4.57,.36-9.2-1.32-13.62-1.47-3.86-3.95-4.82-7.13-1.99-2.18,1.94-4.14,4.17-5.92,6.49-18.61,24.3-33.48,50.85-47.18,78.12-19.92,39.66-36.41,80.6-46.17,124.02-9.55,42.47-11.63,85.14-1,127.67,12.01,48.07,36.41,89.03,72.83,122.76,3.96,3.67,8.48,7.1,8.15,13.61-.39,7.56-3.55,11.64-11.16,12.52-18.6,2.16-37.23,3.97-55.83,6.09-26.99,3.08-53.83,7.44-80.92,9.61-3.65,.29-7.34,.46-10.99,.28-2.98-.15-5.95-1.04-7.24-4.17-1.4-3.4-.44-6.61,1.91-9.2,2.17-2.39,4.75-4.41,7.38-6.8-4.21-1.78-8.32-2.95-11.76-5.45-4.72-3.41-4.91-7.3-.8-11.51,5.48-5.62,12.01-5.42,18.88-3.64,1.86,.48,3.66,1.71,5.04-1.14,3.6-7.45,10.05-8.41,17.3-6.96,12.5,2.51,24.2,7.38,35.84,12.37,5.05,2.17,10.04,4.54,14.91,7.1,3.42,1.79,4.74,1.52,4.84-2.78,.27-10.9-2.31-21.04-6.72-30.92-6.65-14.9-14.35-29.36-19.29-45-2.95-9.35-4.6-18.88-4.75-28.68-.06-3.88-.13-7.98,1.7-11.35,6.54-12.05-1.4-21.97-3.68-34.24-3.18,3.65-3.22,6.81-4.07,9.59-2.42,7.89-6.22,11.65-11.11,10.83-4.73-.79-7.21-5.03-7.08-13.32,.32-19.87,5.65-38.79,11.5-57.57,14.16-45.52,34.43-88.51,54.16-131.76,22.63-49.62,47.08-98.29,73.93-145.76,1.33-2.35,2.75-4.66,4.68-7.9-6.65,.41-12.4,.77-18.15,1.12-46.79,2.91-92.87-.57-137.47-16.08-28.22-9.82-53.43-24.32-71.75-48.8-1.61-2.15-4.65-4.51-3.73-6.88,.85-2.18,4.62-1.04,7.09-1.41,10.57-1.58,21.02-3.67,30.58-8.63,3.26-1.69,4.89-.66,7.47,1.49,26.25,21.95,54.21,40.97,88.35,48.52,13.19,2.91,26.54,3.67,39.87,.49,19.47-4.64,33.15-16.61,42.66-33.8,.71-1.28,1.97-2.73,.36-5.08-1.66,2.45-3.17,4.64-4.64,6.85-16.11,24.12-38.98,32.61-67.12,29.29-28.03-3.3-51.89-16.33-74.82-31.62-7.79-5.19-16.56-9.61-22.2-16.99-4.62-6.04-7.73-4.71-13.1-2.01-10.75,5.4-22.67,7.16-34.35,9.59-2.47,.51-3.26-.61-4.2-2.33-18.66-34.09-17.2-67.81,1.93-101.15,1.83-3.19,4.23-6.02,7.34-8.11,6.16-4.13,13.63-3.16,16.34,3.42,4.1,9.94,11.27,13.3,21.27,14.88,14.47,2.29,28.82,5.59,42.77,10.29,1.98,.67,3.5,1.27,4.61-1.7,5.36-14.33,12.88-27.58,20.89-40.55,2.6-4.21,3.78-8.44,3.26-13.5-.94-9.19,.08-18.35,2.13-27.34,.53-2.33,.97-5.8,4.31-5.47,2.94,.3,3.29,3.22,3.73,5.93,.56,3.46,2.99,6.75-.2,10.2-.65,.7-.42,2.2,.73,2.87,.39,.23,1.16,.26,1.52,.02,1.28-.85,.91-2.27,.89-3.5-.18-11.29,1.67-22.27,5.15-32.99,.11-.35,.2-.71,.35-1.04,1.29-2.76,1.92-6.83,5.68-6.53,3.94,.31,4.25,4.52,5.14,7.62,.55,1.91,.74,3.92,2.02,6.11,.78-2.07,1.62-4.13,2.34-6.22,7.68-22.38,20.11-41.94,35.45-59.76,3.49-4.05,7.45-7.66,12.21-10.18,7.02-3.73,11.43-1,11.53,6.98,.06,4.55-1.64,8.59-3.76,12.51-12.41,22.84-21.71,46.92-28.44,72-.14,.53-.31,1.06-.45,1.59-1.94,7.41-1.91,6.31,5.85,6.53,10.65,.3,15.5-5.19,20.51-13.55,16.98-28.27,37.85-53.23,65.73-71.63,5.37-3.54,11-6.63,16.79-9.41,3.54-1.7,7.05-2.55,10.09,.77,3.23,3.53,.63,6.73-1.3,9.41-9.77,13.55-19.81,26.93-28.07,41.48-4.89,8.61-9.57,17.36-13.77,26.32-3.13,6.68-4.27,14.18-8.09,20.29,.98,1.36,1.69,.9,2.31,.59,35.61-17.79,71.61-34.85,105.24-56.37,14.19-9.08,26.42-20.36,38.44-31.98,5.01-4.85,10.05-9.73,15.91-13.55,2.97-1.94,6.5-4.85,10-1.92,3.35,2.8,1.79,6.87,.4,10.26-8.14,19.78-18.89,38.15-31.16,55.6-17.25,24.56-37.18,46.78-61.17,67.53,7.92-1.41,13.92-3.74,19.96-5.82,28.68-9.89,53.84-25.73,76.9-45.22,9.67-8.17,19.36-16.34,29.81-23.54,3.79-2.61,7.71-4.95,11.9-6.88,3.26-1.51,6.68-3.1,9.7-.21,2.89,2.76,1.3,6.28,.12,9.29-4.93,12.58-12.08,23.8-20.69,34.23-20.17,24.42-44.63,44.04-69.72,62.98-6.39,4.83-12.82,9.62-18.9,15.42,4.24-.24,8.48-.45,12.72-.71,32.82-1.98,65.72-1.24,98.56-2.43,4.95-.18,9.9-.57,14.85-.72,3.99-.12,8.25-.84,10.37,4.07,2.14,4.96-.85,8.08-3.94,11.02-16.29,15.52-35.61,24.98-57.78,28.7-16.18,2.72-32.58,2.26-48.88,3.28-10.29,.64-20.5,1.67-30.26,5.23-1.8,.66-4.36,1.03-4.48,3.37-.1,1.92,2.03,2.89,3.53,3.93,4.15,2.88,8.84,4.38,13.75,5.36,23.58,4.69,45.93,12.71,66.79,24.76,4.36,2.52,8.24,5.54,11.12,9.68,4.61,6.63,2.76,13.48-4.6,16.76-5.44,2.43-11.19,2.07-16.77,.73-13.02-3.12-25.96-6.59-38.97-9.77-7.16-1.75-14.43-2.87-21.82-1.58-1.68,.29-4.13-.07-4.6,2.02-.38,1.68,1.66,2.71,2.91,3.67,9.17,7.07,17.89,14.65,26,22.94,3.22,3.29,6.33,6.68,8.71,10.62,1.96,3.25,3.34,6.74,.66,10.26-2.57,3.37-6.17,3.73-9.97,2.72-9.78-2.61-19.41-6.07-28.23-10.79-13.06-7-25.19-8.27-38.66-.98-7.97,4.31-17.21,6.24-25.79,9.48-3.24,1.22-6.24,3.09-9.35,4.66-4.31,2.18-3.53,4.43-.04,6.6,4.59,2.84,9.83,3.98,14.89,5.58,6.47,2.05,12.96,4.05,19.39,6.19,1.47,.49,3.61,.98,3.46,2.95-.13,1.74-2.3,1.57-3.58,1.92-10.45,2.82-20.97,5.37-31.39,8.3-2.79,.78-7.08,.6-7.44,4.44-.37,3.85,3.85,4.47,6.48,5.77,5.46,2.71,11.45,3.84,17.4,5,3.06,.59,6.08,1.38,9.11,2.13,1.06,.26,2.25,.6,2.37,1.92,.12,1.33-1.05,1.84-2,2.34-5.7,3.03-11.87,4.86-17.97,6.84-4.54,1.47-9.14,2.74-13.66,4.24-2.11,.7-4.23,1.63-4.16,4.43,.07,2.58,1.74,3.83,3.93,4.75,6.48,2.74,13.52,3.32,20.21,5.28,3.17,.93,6.39,1.66,9.53,2.68,1.87,.61,4.57,1.13,4.5,3.42-.08,2.53-2.92,2.24-4.8,2.67-8.04,1.87-16.1,3.64-24.12,5.57-2.31,.56-4.54,1.46-6.76,2.32-1.01,.39-2.14,.86-2.81,1.65-2.13,2.52,3.21,15.74,6.54,15.93,6.96,.4,13.94,.42,20.91,.68,1.55,.06,3.89-.73,4.41,1.1,.62,2.19-1.94,2.8-3.4,3.62-6.08,3.41-12.19,6.79-18.42,9.92-3.03,1.52-3.56,3.07-1.67,5.95,3.32,5.06,6.49,10.23,9.44,15.51,1.22,2.18,2.9,2.64,4.98,2.6,5.32-.12,10.63-.44,15.95-.46,5.18-.02,6.09,1.37,3.77,5.89-1.58,3.09-3.39,6.12-5.48,8.89-2.94,3.9-3.75,7.49-.96,12.01,2.82,4.57,6.52,6.85,11.74,6.69,6.12-.19,11.87-2.16,17.7-3.79,2.15-.6,5.05-2.7,6.53-.54,1.36,1.99-1.28,4.29-2.53,6.24-2.77,4.33-5.8,8.49-8.62,12.78-3.06,4.65,.23,11.36,5.84,11.63,6.05,.29,12.11,.26,18.17,.24,3.74-.01,4.76,1.59,2.93,4.74-1.93,3.33-3.93,6.66-6.29,9.68-1.99,2.56-1.39,3.81,1,5.66,9.03,7.01,8.85,7.06,13.43-3.31,15-33.93,30.32-67.76,52.22-97.94,38.44-52.99,88.33-90.53,150.95-110.8,48.67-15.75,98.3-20.29,148.96-13.84,18.36,2.34,35.8,7.9,52.24,16.46,2.04,1.06,3.97,2.34,7.09,4.21-9.92,.77-18.45,1.49-26.77,3.55-14.93,3.69-28.58,9.77-38.24,22.29-10.35,13.41-10.73,26.91-1.87,41.51,1.11,1.83,2.25,3.64,3.76,6.09-8.83-1.17-16.62-.62-24.25,1.75-21.12,6.55-29.35,29.05-17.6,47.8,4.38,7,10.65,12.07,16.66,17.44,3.9,3.49,7.66,7.15,11.31,11.36-21.43-1.76-40.79,3.36-57.74,15.94-16.83,12.49-29.38,27.83-28.14,50.97-19-5.92-36.29-1.05-53.3,6.03-4.77,1.99-9.33,4.51-13.02,8.11-3.67,3.58-6.3,3.48-10.47,.16-23.4-18.64-50.14-27.07-80.07-24.52-12.44,1.06-24.11,4.65-34.45,11.94-6.03,4.25-10.2,9.88-13.18,16.59-1.77,3.97-.31,5.11,3.41,4.44,5.95-1.08,11.86-2.38,17.8-3.54,1.92-.37,4.2-1.43,5.54,.71,1.15,1.83-.45,3.52-1.45,4.97-3.75,5.44-7.51,10.87-11.49,16.14-1.67,2.22-1.51,3.68-.31,6.26,3.96,8.45,9.91,11.36,18.92,8.83,4.57-1.28,9.34-1.87,14.03-2.73,1.39-.25,3.17-1.24,4.13,.14,1.16,1.68-.56,3.11-1.49,4.32-4.25,5.52-8.53,11.04-13.03,16.36-2.09,2.47-2.21,4.09-.36,7.07,4.71,7.6,11.13,10.77,19.87,9.99,5.84-.52,11.7-.86,17.56-1.23,6.25-.39,7.34,1.21,4.43,6.89-2.76,5.39-5.61,10.74-8.69,15.95-1.93,3.28-1.08,4.81,2.3,6.11,5.06,1.95,10.08,1.96,15.1,.35,6.11-1.96,12.12-4.22,18.2-6.29,1.69-.58,3.55-1.58,5.2-.07,1.82,1.66,1.2,3.88,.39,5.64-2.85,6.15-5.75,12.31-9.06,18.22-1.78,3.19-.97,4.81,1.73,6.72,12.65,8.92,24.41,7.86,37.49-3.4,1.83-1.57,3.46-5.26,5.96-3.78,2.19,1.29,.35,4.71-.1,7.16-1.44,7.76-2.78,15.54-4.43,23.25-.73,3.42,.35,4.98,3.62,5.97,11.24,3.41,21.08,1.3,29.29-7.18,3.05-3.15,5.66-6.74,8.46-10.14,.91-1.09,1.59-2.77,3.38-2.22,1.46,.45,1.34,2.04,1.57,3.28,1.06,5.79,1.97,11.63,1.65,17.51-.23,4.21,1.42,4.93,5.12,4.22,9.02-1.73,17.99-3.57,26.81-6.21,3.43-1.03,4.72-2.86,4.88-6.23,.17-3.66,.69-7.31,1.12-10.95,.15-1.27,.32-2.69,1.85-3.04,1.49-.34,2.36,.83,3.14,1.82,.68,.85,1.17,1.86,1.72,2.81,4.59,7.79,4.64,7.88,12.41,3.55,26.37-14.7,45.96-36.05,61.19-61.86,13.54-22.94,22.75-47.61,30.61-72.89,1.15-3.69,.38-5.49-3.72-5.71-3.84-.21-7.67-.78-11.49-1.34-1.8-.26-3.78-.67-4.29-2.84-.52-2.21,1.17-3.3,2.65-4.39,4.95-3.65,11.03-4.83,17.45-7.74ZM261.57,233.71c16.07,.49,30.66,.31,43.48-8.21,18.9-12.56,22.97-40.63,9.22-60.85-18.1-26.6-55.19-28.19-78.11-3.5-13.23,14.25-21.6,31.28-28.91,48.97-.55,1.34-1.53,2.8,.14,3.93,9.67,6.55,19.54,12.74,31.26,16.41-.18-3.55-.38-6.44-.47-9.34-.32-11.02,1.74-21.57,6.81-31.38,4.3-8.31,10.48-14.59,20.1-16.5,11.94-2.37,19.8,3.6,20.62,15.75,.99,14.61-5.33,26.28-15.13,36.41-2.49,2.57-5.27,4.87-9.01,8.29Zm-117.41-48.93c.95-2.51,1.63-4.4,2.38-6.26,4.8-11.87,10.67-22.99,21.53-30.6,4.34-3.04,9.01-5.03,14.41-4.28,3.32,.46,6.2,1.69,6.32,6.52-3.64-3.81-7.1-4.55-10.44-1.02-2.46,2.6-3.56,6.17-1.02,8.96,3.49,3.83,7.2,1.5,11.04-1.99-3.9,17.96-17.31,26.45-30.7,35.12,8.71,5.64,8.63,5.57,14.82-1.51,8.38-9.6,15.08-20.33,21.22-31.41,3.73-6.73,7.15-13.75,7.01-21.76-.15-8.37-3.82-14.97-11.21-18.92-6.56-3.5-11.76,.99-16.54,4.37-15.74,11.13-26.14,26.44-33.65,44.01-3.18,7.44-.52,12.94,4.84,18.77ZM487.53,783.35c4.95-1,8.24-4.78,10.76-9.39,.96-1.76,1.62-3.77,.13-5.67-1.54-1.96-3.73-2.34-5.94-1.85-5.12,1.13-8.94,4.12-11.12,8.89-1.95,4.26,.89,8.18,6.18,8.02Zm41.55-304.65c5.2-.18,9.87-1.46,14.01-4.49,2.13-1.56,1.99-2.82-.36-3.93-4.84-2.29-9.9-2.76-14.97-1.22-3.54,1.08-9.16,2.15-8.59,5.95,.53,3.5,6.23,3.37,9.91,3.69Zm55.48,307c5.03-.37,8.7-2.9,11.21-7.01,1.64-2.69,.76-4.93-2.26-6.11-4.66-1.83-8.62,.04-12.28,2.64-2.24,1.6-4.57,3.65-3.47,6.8,1.06,3.03,4.19,3.13,6.8,3.68ZM281.66,185.31c-.06-4.09-2.48-6.69-6.26-6.74-4.47-.06-8.62,4.22-8.6,8.87,.02,3.83,3.19,6.9,7.02,6.78,4.26-.13,7.91-4.28,7.84-8.91Zm342.09,594.02c1.14-.34,3.03-.58,4.59-1.43,3.29-1.8,6.93-4.23,5.53-8.42-1.47-4.43-5.89-3.47-9.49-2.87-1.58,.26-3.17,.98-4.55,1.83-2.37,1.45-4.89,3.1-3.75,6.5,1.09,3.27,3.91,4.1,7.68,4.39Zm-18.94-358.15c5.01-.39,9.51-1.67,13.1-5.17,.77-.75,.66-1.75-.23-2.35-4.36-2.92-9.19-3.73-14.13-2.19-3.37,1.05-8.61,2.21-8.04,6.03,.56,3.8,5.97,2.98,9.3,3.68Zm-188.98,201.51c-.24-3.72-2.19-7.29-6.13-9.48-1.91-1.06-3.97-.56-5.42,1.19-3.23,3.91-.69,7.52,.74,11.17,.13,.33,.35,.64,.56,.94,1.48,2.07,2.89,4.62,5.95,3.76,3.22-.91,4.38-3.57,4.29-7.57Zm166.05,203.19c4.96-.02,11-5.46,11.1-9.64,.08-3.35-2.23-3.81-4.81-3.85-5.55-.08-12,4.51-11.95,8.59,.05,3.98,3.11,4.45,5.65,4.9Zm-56.29-332.47c-6.26-4.44-15.72-4.37-21.57,.01-3.43,2.57-2.09,3.95,.97,5.23,5.97,2.5,15.49,.11,20.6-5.24ZM337.33,138.04c0-3.86-2.5-6.72-5.76-6.59-3.6,.14-7.79,5.22-7.63,9.38,.14,3.56,1.87,5.91,5.59,6.17,3.89,.27,7.8-4.33,7.8-8.96Zm149.86,384.13c5.29-.06,9.04-2.11,12.06-5.59,.76-.88,.21-1.77-.58-2.32-3.88-2.65-8.12-3.39-12.53-1.75-3.2,1.18-7.74,2.57-6.97,6.43,.68,3.42,5.43,2.76,8.03,3.24ZM314.28,112.06c-.09-3.26-2.49-5.53-5.62-5.33-3.98,.26-8.8,5.42-8.51,9.36,.27,3.61,2.32,5.68,6.05,5.62,3.72-.05,8.19-5.49,8.07-9.66Zm365.35,342.42c2.8,.04,5.43-.66,8.01-1.61,2.34-.87,2.99-1.99,.63-3.63-3.48-2.43-7.19-4.46-11.56-4.32-3.25,.1-7.78,.2-8.38,3.61-.71,4.05,4.09,4.26,7,5.35,1.33,.5,2.86,.43,4.3,.61Zm-91.93-14.12c4.78,.04,8.59-1.08,12.12-3.19,2.55-1.52,2.38-3.02-.14-4.29-4.11-2.06-8.44-2.39-12.76-.87-3.02,1.06-7.78,2.13-7.21,5.41,.54,3.17,5.4,2.71,7.99,2.94Zm-105.14,292.16c.02,3.27,2.63,6.06,5.73,6.1,3.39,.04,7.92-4.73,7.93-8.47,.02-3.57-2.13-5.33-5.42-5.59-3.75-.29-8.27,4.22-8.25,7.96ZM348.33,166.37c-.35-2.59-1.31-5.28-5.19-5.16-3.31,.1-7.97,4.86-7.73,8.19,.25,3.5,1.64,6.58,5.81,6.7,3.47,.1,7.22-4.94,7.1-9.73Zm300.41,658.93c5.68-.06,11.91-4.87,11.6-8.68-.26-3.11-2.63-3.1-4.86-3.08-5.23,.05-12.14,4.58-11.97,7.89,.19,3.58,3.1,3.49,5.23,3.87Zm-88.07-397.15c5.42,0,10.02-1.55,14.28-4.16,.72-.44,1.67-1.2,1.73-1.87,.11-1.3-1.29-1.55-2.26-1.84-5.06-1.49-10.09-1.45-14.88,.93-2.19,1.09-5.73,2.09-5.15,4.8,.6,2.79,4.25,1.77,6.28,2.15Zm-198.78,155.41c.12-4.91-.85-8.51-4.48-10.86-1.28-.83-2.5-.35-3.42,.72-2.77,3.23-3.12,7.01-1.84,10.84,.98,2.93,2.29,6.46,6.23,5.66,3.57-.73,3.31-4.32,3.51-6.37Zm91.98,105.67c-.14-4.13-3.64-7.28-7.44-6.86-3.72,.41-6.36,2.64-6.11,6.4,.28,4.19,3.43,6.51,7.48,6.52,3.91,0,5.54-2.91,6.08-6.06Zm201.53,110.25c3.72,.05,9.34-4.42,10.21-8.12,.43-1.81,.11-3.38-1.76-4.08-4.47-1.69-7.77,.49-10.76,3.48-.52,.52-1.02,1.07-1.41,1.68-.88,1.4-1.84,2.87-.9,4.59,.98,1.77,2.66,2.42,4.61,2.46Zm-179.88-245.03c-4.05-.16-9.35,.97-9.35,4.55,0,4.09,5.59,3.9,9.31,4.29,.36,.04,.75,.03,1.08-.08,3.16-1.02,9.03-.7,8.73-3.6-.39-3.73-5.51-5.14-9.77-5.16Zm-.51-13.85c3.42-.42,9.62,.41,9.55-3.82-.06-3.83-6.18-4.64-10.51-4.63-.91,0-1.85,.08-2.71,.32-2.82,.8-6.55,1.75-6.43,4.83,.09,2.29,3.92,2.59,6.41,3.01,1.07,.18,2.18,.17,3.69,.28Zm72.42,274.74c4.18,.05,10.14-5.07,10.34-8.7,.18-3.29-2.23-3.32-4.43-3.39-4.66-.15-10.81,4.14-10.83,7.6-.02,3.31,2.39,4.16,4.92,4.49Zm64.8-437.02c-4.04,.39-7.7,1.86-10.71,4.73-.67,.63-.28,1.46,.36,1.85,3.43,2.1,7.15,2.54,11.06,1.77,.18-.04,.35-.1,.53-.15,2.97-.82,7.84-1.65,7.52-4.19-.45-3.6-5.23-3.6-8.76-4.01Zm-101.71,151c4.84,.03,10.75-2.29,10.82-4.01,.08-2.2-6.24-5.25-10.35-4.72-3.46,.45-8.43,1.37-8.37,4.73,.06,3.77,5.12,3.55,7.91,3.99Zm27.47,233.15c3.88-.75,7.21-2.68,7.37-6.83,.15-3.72-3.47-4.31-6.38-4.52-3.94-.28-8.07,3.08-7.73,6.12,.44,3.88,3.47,4.71,6.74,5.22Zm-86.68-139.34c-.47-3.44-1.32-7.03-5.75-7.14-3.97-.1-5.2,3.21-5.25,6.38-.06,3.62,1.37,7.31,5.46,7.61,4.11,.3,5.2-3.17,5.54-6.86Zm83.53-169.68c4.3-.19,8.03-1.44,10.85-4.65,.95-1.08,.31-2.16-.75-2.7-4.05-2.06-8.2-1.86-12.04,.35-2.03,1.17-5.98,1.71-5.18,4.57,.77,2.75,4.53,2.3,7.12,2.43Zm116.59,46.49c1.05-.05,2.94,.44,3.69-.83,.99-1.67-.71-3.05-1.67-4.25-2.57-3.19-5.75-5.59-9.96-6.15-1.67-.22-3.38-.06-4.42,1.47-1.23,1.79,.2,3.1,1.17,4.33,2.74,3.48,6.33,5.38,11.2,5.42ZM365.04,194.06c.17-4.25-3.66-9.11-6.97-9.11-3.33,0-4.26,2.36-4.43,5.14-.24,3.95,3.53,8.72,6.84,8.64,3.26-.08,4.21-2.37,4.56-4.67Zm170.29,319.69c2.94-.88,8.31,.28,8.71-3.13,.4-3.37-4.72-4.13-8-4.94-3.59-.89-6.83,.1-9.71,2.32-.81,.63-.98,1.61-.21,2.37,2.47,2.44,5.63,3.15,9.21,3.39Zm124.31-75.62c.65-.07,2.14-.05,3.52-.45,1.28-.37,3.26-.13,3.52-1.9,.24-1.62-1.44-2.39-2.55-3.23-3.35-2.53-7.09-3.57-11.28-2.62-2,.45-4.56,1.04-4.81,2.99-.33,2.53,2.46,3.16,4.42,4.03,2.04,.91,4.19,1.15,7.19,1.18Zm-28.77,371.54c3.66-.43,6.34-2.08,6.53-6.01,.2-4.01-2.57-5.45-6-5.37-3.86,.09-6.97,2.21-7.05,6.13-.07,3.69,3.31,4.75,6.52,5.25Zm34.29-438.72c7.52,2.64,14.05,2.89,20.68,1.44,.96-.21,2.32-.5,2.46-1.8,.14-1.31-1.06-1.79-2.04-2.18-6.97-2.74-13.72-3.05-21.1,2.54Zm-39.9,103.98c.33-.02-.59-.03-1.48,.11-1.73,.28-4.03,.06-4.32,2.38-.23,1.85,1.74,2.55,3.07,3.42,3.55,2.3,7.47,2.64,11.53,2.01,1.46-.23,3.08-.79,3.52-2.22,.52-1.7-1.28-2.38-2.37-3.17-2.58-1.87-5.52-2.68-9.95-2.52Zm-61.67,301.11c4.74,.09,9.79-3.33,9.47-6.27-.34-3.11-2.94-3.47-5.3-3.42-4,.08-7.95,1.25-8.83,5.6-.67,3.32,2.52,3.8,4.67,4.1Zm87.16,3.52c4.01,.13,9.38-3.84,9.21-6.72-.18-3.1-2.54-3.7-5.05-3.83-3.92-.21-9.12,3.59-8.88,6.59,.23,2.96,2.46,3.77,4.72,3.96Zm7.21-303.12c2.57-.29,6.85-.09,7.29-2.81,.48-2.93-3.7-3.93-6.38-4.91-3.66-1.35-7.19-.84-10.36,1.48-.85,.62-.93,1.58-.17,2.36,2.54,2.61,5.69,3.82,9.62,3.88Zm-25.44-15.69c3.6-.92,10.21-.15,10.11-3.63-.12-4.13-6.24-4.47-10.51-4.12-2.9,.23-6.95,.87-6.86,3.99,.09,3.21,4.41,2.87,7.26,3.77Zm-200.04,187.16c-.56-3.4-1.52-6.89-5.81-7.24-3.43-.28-4.67,2.25-4.79,5.33-.16,4.08,2.78,8.06,5.95,7.83,3.45-.25,4.3-2.82,4.65-5.92Zm147.61,108.65c3.74-.06,6.03-2.19,6.22-5.23,.26-4.06-3.33-4.83-6.46-4.98-2.94-.14-6.49,.38-6.59,4.08-.11,4.21,3.55,5.39,6.82,6.14Zm118.48,48.35c3.87-.4,7.17-1.85,7.69-6.28,.36-3.05-1.89-4.15-4.54-4.27-3.42-.16-8.62,3.95-8.37,6.69,.27,3,2.57,3.67,5.23,3.86Zm-170.13-78.63c-3.35,.41-5.95,1.97-5.67,5.47,.32,4.02,3.84,5.33,7.18,5.39,3.11,.06,5.07-2.26,4.9-5.45-.21-3.88-3.15-4.96-6.41-5.41ZM49.99,160.14c-4.54,2.58-6.39,6.65-7.24,11.25-.73,3.98-.11,7.82,3.43,10.28,1.67,1.16,3.11-.19,2.37-1.97-2.57-6.16-1.37-11.38,3.14-16.08,.68-.71,.83-1.7,.1-2.47-.45-.47-1.18-.67-1.81-1.01ZM617.01,503.85c-.55,.04-1.49,0-2.36,.21-1.73,.42-4.04,.64-4.2,2.75-.13,1.78,1.99,2.4,3.44,3.12,3.94,1.97,8.03,2.09,12.24,.97,2.75-.73,2.83-1.97,.84-3.64-2.76-2.3-6-3.39-9.95-3.41Zm3.16-13.77c-5.27-4.23-10.27-5.52-15.92-3.87-1.36,.4-3.16,.7-3.34,2.33-.19,1.7,1.62,2.29,2.87,2.83,5.36,2.33,10.58,1.62,16.4-1.29Zm-199.35,117.84c.63,3.13,1.6,6.65,6.02,6.63,3.14-.01,4.37-2.62,4.11-5.35-.34-3.62-1.99-7-6.09-7.11-2.93-.07-4.15,2.5-4.05,5.83Zm-48.22-14.08c.75,3.41,1.49,7.48,6.05,8.33,2.73,.51,3.64-1.92,3.76-4.3,.21-3.91-3.58-9.46-6.3-9.16-2.7,.3-3.45,2.31-3.51,5.14Zm80.9,129.4c-.27-2.98-1.41-6.02-5.09-6.47-3.48-.42-4.92,2.39-4.98,5.31-.07,3.54,1.44,6.8,5.38,7.13,3.48,.29,4.45-2.58,4.69-5.97Zm174.49-323.83c3.79-.08,7.21-1.16,9.95-3.84,.61-.59-.05-1.4-.65-1.8-3.25-2.17-6.77-2.64-10.46-1.4-2.4,.8-6.13,1.63-5.78,4.09,.41,2.88,4.24,2.68,6.94,2.95Zm91.18,6.99c4.59,.07,6.06-.76,5.11-2.87-1.84-4.08-7.63-6.8-11.97-5.59-1.41,.39-3,.78-3.44,2.32-.5,1.73,1.04,2.55,2.17,3.41,2.39,1.82,5.12,2.7,8.13,2.74Zm-82.2,17.26c3.09-.61,7.78-.49,7.76-4.15-.01-3.06-4.62-3.62-7.71-3.64-3.23-.03-7.77,.25-7.72,4.11,.05,3.54,4.59,3.2,7.67,3.68Zm-21.18,105.54c-1.97,.34-4.6,.18-4.95,2.53-.41,2.79,2.3,3.9,4.37,4.91,2.93,1.44,6.06,2.9,9.31,1.02,1.04-.6,.56-2,.02-2.97-1.9-3.45-4.79-5.36-8.75-5.49Zm11.52-95.43c-2.65,.76-7.42-.34-7.53,3.31-.1,3.19,4.43,3.78,7.53,3.93,3.1,.14,7.96-.29,8.04-2.88,.11-3.58-4.63-3.73-8.04-4.36Zm-62.57,23.79c3.5-.4,6.96-.87,9.41-3.66,.72-.83-.21-1.68-.95-2.18-3.07-2.1-6.43-2.51-9.82-1.11-2.12,.87-5.45,1.87-5.05,4.22,.48,2.75,4.01,2.34,6.41,2.74Zm127.2-50.63c-2.14,.47-5.26,.52-4.41,2.99,1.37,3.98,5.41,5.11,9.36,5.27,2.07,.09,5.76,.09,5.63-1.77-.21-3.12-3.72-4.43-6.61-5.49-1.35-.49-2.79-.72-3.97-1.01Zm-202.94,276.78c-3.32,.93-5.4,2.92-5.28,6.57,.1,2.85,1.42,5.36,4.49,4.92,3.67-.53,5.42-3.54,5.45-7.13,.02-2.81-1.93-4.11-4.66-4.35Zm59.58-197.55c-3.19,.53-7.92,.51-7.74,4.21,.14,2.97,4.86,3.2,7.98,2.94,3.05-.26,7.95-.55,7.88-3.4-.1-3.57-4.97-3.16-8.12-3.75Zm51.92-25.14c3.45-.43,9.04-1.08,8.85-3.55-.29-3.82-5.41-3.78-9-3.54-2.86,.19-7.05,.73-6.96,3.77,.09,3.21,4.45,2.61,7.11,3.32Zm129.72-86.29c-4.02-4.25-9.75-5.59-14.52-3.54-1,.43-2.29,.75-2.44,1.97-.21,1.58,1.27,2.13,2.36,2.64,5.02,2.34,9.84,1.8,14.61-1.07Zm-490.05-116.27c10.66,2.27,18.72,7.31,27.99,11.95-3.65-7.77-19.43-14.68-27.99-11.95Zm289.56,176.15c3.89-.22,7.41-1.6,10.72-3.56,.91-.54,2.1-1.1,1.67-2.44-.36-1.12-1.48-1.51-2.59-1.65-4.36-.57-8.29,.48-11.69,3.29-.96,.8-2.27,1.67-1.86,3.06,.56,1.88,2.4,1.06,3.75,1.3Zm172.4-69.53c3.29-.2,6.3-.75,8.6-3.14,.56-.58,.34-1.39-.26-1.92-2.51-2.22-5.5-2.74-8.64-2-2.6,.61-6.32,1.25-6.02,4.3,.26,2.58,4.01,2.35,6.32,2.75Zm-306.41,282.13c-.64-2.79-1.56-6.07-5.72-6.17-2.85-.07-3.47,2.22-3.3,4.58,.25,3.54,1.69,6.58,5.6,6.77,2.61,.13,3.41-2.24,3.42-5.18Zm144.92-106.13c-4.13-4.21-8.53-4.99-13.4-3.85-1.39,.33-3.15,.93-3.34,2.43-.21,1.69,1.65,2.2,2.94,2.72,4.49,1.79,8.8,1.15,13.8-1.3Zm152.72,244.3c-.54-2.81-2.48-3.89-4.82-3.57-3.15,.43-6.29,1.53-6.59,5.41-.22,2.79,1.97,3.99,4.29,3.95,3.75-.05,5.78-2.65,7.13-5.79Zm-235.44-138.79c-.33-2.67-1.05-5.02-4.09-5-3.41,.03-4.81,2.48-4.77,5.46,.03,2.58,.84,5.52,4.03,5.5,3.63-.02,4.5-3.04,4.82-5.96Zm117.82-256.52c-6.14-1.4-10.9-.9-15.45,1.46-.96,.5-2.13,1.09-2.02,2.34,.13,1.62,1.66,1.81,2.87,1.98,5.53,.8,9.84-1.65,14.6-5.78Zm22.56,2.52c-3.97-.14-6.6,.89-8.82,2.95-.81,.76-.65,1.63,.16,2.31,2.49,2.08,5.39,1.69,8.28,1.29,.18-.02,.38-.03,.53-.11,2.08-1.09,6.04-.88,5.52-3.88-.41-2.39-4.05-2.43-5.67-2.56Zm-236.75,161.54c.39,3.15,1.13,6.67,4.94,7.46,2.86,.6,3.64-2.16,3.58-4.4-.1-3.45-1.28-6.9-4.95-7.72-2.76-.62-3.44,2.03-3.57,4.66Zm118.18-58.94c-3.45,.31-6.52,1.24-8.75,3.92-.72,.86-.27,1.82,.58,2.29,3.19,1.81,6.31,1.03,9.32-.53,1.71-.89,4.63-1.53,4.27-3.53-.44-2.41-3.47-1.78-5.41-2.15Zm218.56-63.36c-4.06-4.34-8.25-5.53-13.21-3.85-1.04,.35-2.02,1.06-2.2,2.2-.21,1.31,1.03,1.8,1.91,2.28,4.35,2.4,8.62,1.9,13.5-.63Zm-92.76,360.73c-4.23,.11-8.42,3.52-8.21,6.36,.18,2.5,1.92,2.84,3.89,2.78,3.13-.09,7.88-4.38,7.6-6.86-.25-2.29-1.99-2.27-3.28-2.28Zm-27.46-305.38c-2.2,.6-6.38-.3-6.37,2.93,.01,2.47,4.08,3.18,6.87,3.06,2.98-.12,7.98,.45,7.95-2.61-.03-3.55-5-2.89-8.46-3.38Zm141.98,281.9c-.1-2.88-1.58-4.16-4.16-4.06-3.28,.13-5.65,1.68-5.81,5.15-.12,2.52,1.5,4.1,4.08,4.02,3.34-.1,5.15-2.16,5.89-5.12Zm-67.57-372.28c-3.45-.04-6.24,.66-8.42,2.92-.58,.6-.48,1.46,.19,1.9,2.58,1.75,5.49,2.03,8.42,1.31,2.23-.55,5.65-1.03,5.39-3.6-.25-2.54-3.66-2.3-5.58-2.53Zm-121.13,405.78c3.21-.41,6.25-1.43,6.8-5.11,.43-2.88-2.06-3.16-4.09-2.95-3.1,.31-6.62,.83-7.27,4.53-.52,2.95,2.32,3.14,4.56,3.53Zm145.63-307.68c.64-.91,3.59,.95,2.72-2.27-.68-2.52-7.52-6.71-9.85-6.18-1.23,.28-2.13,1.03-1.66,2.31,1.43,3.88,4.61,5.45,8.79,6.14Zm-16.05-133.62c-4.76-2.54-8.75-2.28-12.73-1.55-1.56,.29-3.78,.89-3.66,2.69,.14,2.15,2.53,2.39,4.31,2.56,4.19,.42,7.73-1.33,12.08-3.71Zm-187.75,308.56c.06-2.76-.68-5.1-3.53-5.42-2.87-.32-4.24,1.7-4.34,4.39-.09,2.69,.52,5.49,3.7,5.66,2.78,.15,3.84-2.25,4.16-4.63Zm197.94-156.09c1.45-.11,2.88,.07,3.06-1.72,.22-2.15-4.99-6.59-7.87-6.59-1.57,0-4,.12-3.34,2.31,1.17,3.83,4.64,5.26,8.14,6Zm-78.14,.56c2.23-.42,5.81-.29,5.73-2.82-.1-3.08-3.69-3.46-6.41-3.46-2.51,0-6.26,.31-6.09,3.04,.18,2.9,3.99,3.02,6.77,3.24Zm-84.45-71.36c-8.69-.28-13.61,2.33-15.41,7.8,6.02-.38,10.73-2.94,15.41-7.8Zm-14.28,42.36c2.1-.57,5.98-.69,6.02-3.62,.05-3.03-3.88-2.22-6.13-2.47-2.28-.25-5.38-.08-5.41,3.04-.03,2.71,2.78,2.84,5.52,3.05Zm-20.03,234.28c2.71-.66,4.23-2.35,4.16-5.08-.06-2.54-1.98-3.48-4.15-3.4-2.7,.1-4.65,1.55-4.45,4.47,.17,2.53,2.01,3.75,4.45,4.01Zm289.15,22.98c-2.88,.29-5.58,1.32-5.87,4.5-.22,2.38,2.1,3.39,4.17,3.27,2.93-.17,5.29-1.62,5.5-4.9,.16-2.52-1.93-2.65-3.8-2.86Zm-65.78-347.16c1.78-.81,5.72,.05,5.4-2.67-.36-3.08-4.34-3.19-7.17-3.38-2.11-.14-5.58,0-5.42,2.15,.26,3.44,4.12,3.24,7.19,3.89ZM269.89,122.48c3.17,.22,9.06-4.78,9.13-7.01,.04-1.52-.94-1.74-2.09-1.84-2.73-.24-8.22,4.38-8.3,6.94-.04,1.45,.79,1.87,1.26,1.91Zm386.04,419.01c-1.26-2.64-2.79-5.09-6.06-5.53-1.7-.23-3.83,.21-3.64,2.21,.33,3.57,3.15,5.06,6.43,5.45,1.44,.17,2.94-.1,3.26-2.13Zm40.69,223.55c-2.42,.24-4.55,1.3-4.81,4.04-.21,2.17,1.49,3.28,3.52,3.23,2.86-.08,4.97-1.74,5.3-4.51,.29-2.43-2.06-2.48-4.01-2.76Zm16.68-15.79c-3.51,.04-5.18,2.09-5.6,5.01-.32,2.19,1.61,2.69,3.29,2.57,2.71-.2,4.95-1.38,5.43-4.37,.4-2.48-1.33-3.05-3.12-3.22Zm69.99-43.7c2.96-.56,5.16-2.33,5.71-5.46,.33-1.86-1.39-2.33-2.91-2.29-3,.09-5.27,1.33-5.76,4.55-.3,1.98,.86,2.98,2.97,3.2ZM346.19,206.18c-.48-2.29-1.91-3.96-4.62-4.07-2.11-.08-3.54,1.03-3.27,3.27,.27,2.23,1.22,4.29,3.84,4.51,2.3,.2,3.71-1.03,4.05-3.71Zm337.09,190.82c-2.79-2.57-5.51-3.75-8.67-3.7-1.56,.03-3.71-.15-4.09,1.78-.32,1.61,1.62,2.2,2.84,2.87,3.16,1.73,6.22,1.22,9.93-.95Zm5.4,78.56c1.38-.36,3.73-.05,3.16-2.03-.94-3.23-3.81-4.64-7.09-4.9-1.27-.1-3.18,.39-2.82,1.72,.87,3.26,3.48,4.86,6.76,5.21Zm-171.46,348.8c2.4-.5,5.25-.8,5.45-4.11,.13-2.16-1.85-2.47-3.54-2.42-2.74,.09-5.32,1.05-5.67,4.02-.23,1.97,2.01,2.21,3.77,2.5Zm116.97-456.54c-3.8-2.29-7.2-1.43-10.56,.3-.96,.49-2.13,1.1-1.96,2.35,.2,1.4,1.58,1.33,2.63,1.33,3.72,.02,7.17-.71,9.89-3.98Zm-57.38,103.92c-2.57-2.35-5.3-2.25-7.97-1.59-1.72,.42-4.18,1.28-3.9,3.22,.3,2.09,2.85,1.87,4.61,1.65,2.52-.31,5.06-.78,7.26-3.28Zm-185.98,108.52c-1.97,.39-2.98,1.56-2.62,3.45,.44,2.3,1.04,4.83,3.85,5.25,1.98,.3,2.93-1.1,2.79-3.05-.19-2.7-1.13-4.89-4.02-5.65Zm-4.16,43.91c-.44-2.15-1.4-3.88-3.93-3.63-2.24,.22-3.12,1.88-2.84,3.92,.3,2.11,1.34,3.98,3.86,3.76,2.28-.2,2.71-2.11,2.91-4.05Zm186.88-122.11c-1.14-.47-2.27-1.15-3.48-1.37-2.81-.52-5.45,.11-7.74,1.87-.68,.52-.78,1.38-.08,1.83,2.52,1.63,5.26,1.29,7.9,.43,1.32-.43,2.84-.89,3.39-2.76Zm169.43,268.78c.06-1.97-.73-3.36-2.76-3.31-2.64,.06-4.58,1.44-4.88,4.19-.23,2.07,1.39,2.92,3.16,2.9,2.42-.02,4.16-1.16,4.48-3.78Zm-68.55-351.27c-2.59-2.95-5.52-4.62-9.48-3.05-1.28,.5-1.55,1.68-.46,2.53,3.05,2.35,6.29,3.45,9.94,.52ZM226.06,152.45c2.82-.62,4.15-2.63,4.34-5.44,.12-1.71-.82-3.05-2.64-2.52-2.61,.76-4.43,2.71-4.75,5.44-.2,1.69,1.22,2.49,3.05,2.52Zm506.48,601.8c2.57-.1,3.96-1.71,4.31-4.1,.32-2.21-1.3-2.8-3.13-2.82-2.58-.03-4.3,1.15-4.37,3.83-.05,1.92,1.14,3,3.19,3.09Zm-68.26-369.91c2.1-.47,5.58-.06,5.57-2.24,0-2.66-3.41-2.55-5.68-2.62-1.98-.06-4.68,.06-4.62,2.57,.07,2.64,2.92,1.95,4.72,2.3Zm-12.2-8.18c-3.68-2.29-7.11-1.72-10.44,.69-.63,.46-.97,1.41-.23,1.77,3.6,1.75,6.98,1.09,10.08-1.3,.25-.19,.32-.61,.59-1.16Zm78.78-20.72c2.14-.18,4.74-.58,4.92-3.1,.15-2.06-2.22-2.7-4.1-2.52-2.19,.2-4.69,.82-4.71,3.49-.02,1.99,2.15,2.03,3.9,2.13Zm-227.28,110.21c3.94,1.44,6.72,.32,9.35-1.39,.85-.55,2.12-1.15,1.74-2.45-.4-1.35-1.78-1.05-2.77-.96-3.16,.3-5.93,1.43-8.32,4.8Zm182.1,293.72c-.32-2.1-1.86-2.52-3.61-2.36-2.3,.21-3.81,1.54-3.66,3.9,.13,1.9,1.55,2.95,3.47,2.54,2.08-.45,3.61-1.68,3.8-4.08ZM242.29,126.28c-.09-1.35-.75-2.46-2-2.1-2.78,.8-4.82,2.62-5.4,5.6-.25,1.3,.56,2.2,1.9,1.95,3.04-.57,4.59-2.75,5.5-5.45Zm506.42,251.87c2.01-.81,5.42-.23,5.99-3.13,.34-1.72-2.43-1.61-3.91-1.57-2.39,.06-5.17,.53-5.71,3.12-.35,1.69,2.01,1.41,3.64,1.58Zm-236.79,168.95c-3.19-2.53-6.24-1.9-9.26-1.42-1.11,.18-2.4,.37-2.24,1.82,.15,1.32,1.42,1.56,2.54,1.58,2.91,.07,5.9,.53,8.96-1.99Zm-45.16-31c-6.67,.4-8.53,1.66-10.68,7,4.57-.75,7.98-2.55,10.68-7Zm117.95-132.35c1.96-.72,5.31-.53,5.86-3.21,.36-1.78-2.49-1.45-3.95-1.31-2.2,.21-5.22-.21-5.63,2.83-.22,1.65,1.9,1.74,3.72,1.69Zm217.2,296.23c-.33-1.49-1.44-1.98-2.79-1.61-2.17,.58-5.15,.51-5.4,3.52-.15,1.78,1.88,1.9,3.34,1.81,2.35-.14,4.15-1.12,4.86-3.72Zm-67.74-289.27c-2.66-2.55-5.1-4.34-8.55-3.12-.85,.3-1.49,1.36-.61,2.2,2.54,2.42,5.33,3.87,9.16,.92Zm72.76,230.74c-.05-1.25-.49-2.17-1.58-1.81-2.7,.87-4.9,2.47-5.25,5.53-.15,1.33,.97,1.87,2.21,1.5,2.69-.8,4.12-2.74,4.62-5.21Zm-166.28-69.48c-.75-2.61-2.61-4.09-5.42-4.26-1.11-.07-2.46,.37-2.09,1.76,.77,2.92,3.06,4.4,5.9,4.85,1.43,.23,1.68-1,1.62-2.35ZM203.67,190.98c-.1-1.13-.58-2.13-1.63-1.81-2.67,.83-4.1,2.94-4.59,5.61-.18,.99,.52,1.93,1.59,1.65,2.8-.73,4-2.94,4.62-5.45Zm441.68,333.09c-2.11-2.46-4.42-4.12-7.84-3.45-.97,.19-1.75,1.03-1.11,1.97,1.9,2.84,4.86,2.71,7.8,2.41,.28-.03,.52-.4,1.15-.93Zm-70.84-118.63c-.95-.54-1.38-.92-1.87-1.03-2.62-.62-5.1-.23-7.27,1.4-.67,.5-.67,1.43,.09,1.81,2.57,1.26,4.99,.26,7.34-.79,.46-.21,.82-.66,1.7-1.39ZM256.1,127.03c.05-1.14-.17-2.34-1.26-2.01-2.93,.86-4.79,3.02-5.64,5.92-.28,.94,.41,1.89,1.52,1.51,2.71-.93,4.43-2.92,5.38-5.42Zm174.9,628.42c-.08-1.44-.67-2.53-2.29-2.3-1.71,.24-3.15,1.06-3.14,3.08,0,1.66,.95,2.95,2.63,2.73,1.76-.23,2.67-1.69,2.8-3.51Zm374.92-102.92c.07-1.42-.3-2.29-1.46-2.09-2.4,.42-3.89,2-4.26,4.36-.23,1.43,.88,1.87,2.13,1.59,2.22-.5,3.36-2.01,3.59-3.86Zm-54.36,74.56c1.67-.22,3.4-.48,3.62-2.61,.18-1.8-.86-2.75-2.62-2.71-1.9,.05-3.11,1.17-3.38,2.99-.24,1.62,.9,2.23,2.38,2.32Zm-76.89-366.34c2.82,1.46,5.47,1.45,8.03-.43,.54-.4,.83-1.36-.16-1.74-2.55-.97-5-.61-7.28,.86-.23,.15-.28,.59-.59,1.31Zm-338.1,252.68c-1.13,.29-2.24,.91-2.3,2.36-.08,1.76,.81,3.29,2.54,3.61,1.83,.33,1.71-1.42,1.81-2.58,.13-1.46,.02-2.91-2.04-3.39Z"/>
  <path d="M186.81,580.15c12.62,10.46,21.88,11.58,44.59,5.91,.68,11.31-3.31,19.83-11.06,23.06-2.21,.92-4.54,2.86-7.19,.2-1.2-1.21-1.96-.34-1.77,1.42,.08,.69-1.08,.66-1.82,.67-2.72,.03-4.47-1.29-5.4-3.78-2.83,4.41-4.21-.54-6.24-1.06-.68-.18-1.38-1.23-1.59-2.01-.27-1,.49-2.54-.58-3.05-1.77-.84-.36,2.02-1.58,1.77-2.2-.45-2.59-2.87-4.06-4.15,3.26-3.13-1.24-3.2-1.96-4.71-2.06-4.39-1.3-8.9-1.34-14.24Z"/>
  <path d="M192.93,704.25c11.45,7.81,22.58,7.09,33.96,3.36,2.51-.82,4.63-2.24,6.64-3.81,2.95-2.32,4.28-.5,4.22,1.99-.12,4.65-.54,9.03-3,13.64-1.32,2.46-2.35,5.21-4.42,7.44-3.12,3.36-9.8,4.41-14.15,2.59-2.03-.85-4.16,.92-6.9-.03-6.39-2.22-10.06-6.18-11.93-12.41-1.15-3.83-2.61-7.57-4.42-12.76Z"/>
  <path d="M284.13,788.73c4.97,6.88,4.14,17.69-1.78,23.22-4.97,4.63-16.81,4.59-23.01-.13-4.54-3.45-7.93-7.83-10.57-13.01,18.62,2.19,22.32,1.12,35.36-10.08Z"/>
  <path d="M218.48,460.27c5.04,10.87,13.46,15.38,25.12,13.81,5.29-.71,5.24,1.07,3.75,4.89-2.1,5.36-4.49,11.01-10.75,11.85-4.68,.63-9.98,1.94-14.33-2.47-4.35-4.42-7.04-9.26-6.21-15.53,.5-3.74,1.41-7.42,2.41-12.55Z"/>
  <path d="M240.4,407.52c1.84,9.14,8.21,10.46,14.62,10.78,5.53,.27,4.78,2.49,2.79,5.85-2.44,4.13-4.96,7.93-10.58,8.17-6.88,.28-11.53-3.77-11.42-10.63,.07-4.65,1.73-8.86,4.58-14.17Z"/>
  <path d="M260.66,373.7c3.63,4.24,9.61,6.71,7.25,13.95-1.6,4.92-4,6.59-8.69,5.44-2.51-.62-3.03-1.97-3.18-4.21-.39-5.63,2.52-10.13,4.62-15.18Z"/>
</svg>