<?xml version="1.0" encoding="UTF-8"?>
<svg id="Layer_1" data-name="Layer 1" xmlns="http://www.w3.org/2000/svg" viewBox="0 0 864 864">
  <path d="M741.2,587.23c8.89-8.74,14.47-19.4,21.59-29.6,3.26,5.01,3.78,10.22,4.35,15.36,.49,4.38,.33,8.8-.58,13.13-.53,2.49,.15,3.37,2.73,2.7,4.21-1.1,8.45-2.08,13.16-3.23-3.82,13.63-12.68,22.86-24.06,31.22,10.92,3.21,21.09,3.77,32.51,4.06-6.95,7.32-12.76,14.72-20.78,18.66-8.92,4.38-11.36,10.56-12.15,19.87-1.26,14.97-5.93,29.33-11.29,43.41-7.81,20.52-22.04,35.6-39.64,47.97-18.75,13.19-39.83,21.77-60.71,30.74-7.65,3.29-15.08,7.11-22.75,10.36-3.34,1.41-4.71,3.62-5.45,6.98-3.24,14.68-8.16,28.8-13.64,42.81-5.79,14.8-16.03,21.8-31.87,22.23-23.56,.63-46.96-1.38-70.4-2.92-6.12-.4-9.58-4.82-12.25-9.76-4.92-9.09-6.7-19.11-8.21-29.17-.74-4.94-1.04-9.95-1.69-14.91-.29-2.22,.45-3.08,2.65-2.96,5.45,.32,10.91,.41,16.36-.1,3.16-.3,2.4,2.05,2.48,3.66,.65,12.31,2.51,24.41,6.07,36.23,.43,1.43,.67,2.92,2.43,4.92-5.88-29.26-6.5-58.1-9.06-86.81-2.09,1.49-1.68,3.47-1.61,5.27,.37,9.85,.84,19.69,1.23,29.54,.05,1.24,.82,3.1-1.07,3.46-2.35,.45-4.93,.84-7.19,.3-1.78-.43-.67-2.64-.48-4.02,1.01-7.51,2.23-14.99,3.18-22.51,.56-4.44-.74-5.67-6.07-5.97-4.21-.24-2.34,3.26-2.4,4.91-.31,8.34-.55,16.66-2.22,24.88-.45,2.21-.9,3.98-3.87,4-2.66,.02-3.79-.47-3.54-3.46,.8-9.52,.67-19.07,.55-28.63-.08-6.27-4.57-3.69-7.41-4.12-3.98-.6-2.38,2.63-2.38,4.31-.02,9.1,.2,18.19,.23,27.29,0,2.01,1.05,5.13-2.92,4.51-2.77-.43-6.64,1.95-7.31-3.85-1.09-9.32-3.32-18.49-4.67-27.78-.62-4.26-3.03-3.35-5.81-3.19-3.6,.2-2.66,2.27-2.33,4.38,1.34,8.38,2.72,16.76,3.82,25.17,.17,1.34,2.04,4.02-1.14,4.31-2.52,.23-5.35,.61-6.16-3.48-1.39-6.97-3.42-13.82-5.19-20.71-.18-.71-.42-1.41-1.35-2.17-.82,4.75-1.52,9.53-2.48,14.25-4.21,20.67-11.03,40.31-23.01,57.9-2.31,3.4-5.04,6.44-7.92,9.37-5.24,5.33-11.28,8.38-19.07,7.82-6.79-.49-13.65-.11-20.45-.53-10.54-.64-17.32-6.44-20.94-16.76-4.53,6.06-9.91,10.48-16.75,12.93-2.74,.98-5.52,1.7-8.43,1.66-10.01-.12-20.02-.16-30.02-.47-7.55-.24-12.71-4.33-16.07-10.91-4.5-8.8-6.03-18.45-7.31-28.03-5.38-40.32-4.95-80.72-1.2-121.15,.21-2.23,.42-4.47,.63-6.7,1.33-.36,1.59,.84,2.05,1.45,15.23,19.96,35.2,33.09,58.92,40.65,3.88,1.23,5.03,2.91,4.91,6.95-.94,32.15,2.26,63.87,10.57,95.01,.42,1.58,.97,3.13,2.42,4.57-.76-5.78-1.35-11.59-2.3-17.34-5.59-33.89-8.68-67.96-7.6-102.33,.12-3.82-1.16-4.2-4.43-3.61-7.01,1.25-14.1,1.99-21.11,3.24-4.19,.75-5.71-2.41-8.82-5,10.54-.93,20.15-2.51,29.66-4.82,4.02-.98,6.42-2.49,6.68-7.02,.21-3.58,1.32-7.1,2.08-10.91-2.33-.52-4.2,.65-6.15,1.18-13.49,3.62-27.24,5.8-41.03,7.92-5.64,.87-9.27-.46-11.8-5.6,7.68-.62,15.32-.99,22.9-1.89,12.44-1.47,24.3-5,35.5-10.72,1.95-1,3.07-2.21,3.49-4.34,.4-2.08,1.11-4.09,1.66-6.14q1.28-4.69-3.32-3.48c-24.63,6.5-49.59,10.02-75.13,8.27-3.19-.22-7.69-4.82-7.59-7.97,.08-2.39,2.05-1.29,3.09-1.28,10.32,.06,20.6-.46,30.86-1.67,19.05-2.24,37.52-6.93,55.63-13.12,1.12-.38,2.45-.65,3-1.88,3.39-7.54,6.74-15.1,10.36-23.22-10.17,2.04-19.59,4.19-29.1,5.79-25,4.23-50.11,7.37-75.56,5.3-8.79-.71-8.78-.8-11.53-10.13,4.85,.9,9.52,2.05,14.26,2.61,25.3,3.01,49.84-1.54,74.16-7.82,7.18-1.85,14.19-4.35,21.31-6.43,2.31-.67,2.98-1.75,2.69-4.24-1.53-13.04-1.44-13.02-14.37-10.64-32.79,6.03-65.9,7.6-99.18,7.16-4.03-.05-4.26-2.17-4.69-4.97-1.25-8.17-1.3-7.98,6.79-7.21,35.1,3.34,69.62,.25,103.51-9.64,2.74-.8,3.88-1.96,2.65-4.79-.48-1.1-.83-2.31-.95-3.5-.35-3.54-2.35-3.81-5.38-3.37-24.79,3.53-49.57,3.35-74.25-1.03-10-1.78-19.81-4.37-29.45-7.65-3.89-1.33-5.97-3.01-5.08-7.33,.27-1.3,.04-2.7,.04-4.03,1.39-.86,2.43,.02,3.43,.49,24.13,11.22,49.63,12.86,75.65,10.93,9.08-.67,18.08-1.91,27.07-3.32,2.98-.47,3.61-1.49,2.66-4.45-3.55-11.08-3.43-10.93-15.06-10.33-30.96,1.59-60.19-5.07-87.96-18.7-2.81-1.38-2.22-3.14-1.82-5.19,1.47-7.61,1.45-7.54,8.26-4.27,27.06,12.96,55.58,18.68,85.55,17.37,3.92-.17,5-1.26,3.71-5.12-1.53-4.57-1.21-10.56-4.13-13.64-2.79-2.96-8.88-1.63-13.51-2.24-22.99-3.02-45.21-8.5-65.93-19.4-4.34-2.28-5.64-4.3-3.75-8.97,2.09-5.17,1.77-5.4,6.49-2.33,21.48,13.99,45.13,19.44,70.54,18.26,3.46-.16,4.74-.88,3.99-4.75-2.2-11.25-2.02-11.35-13.37-13.21-19.66-3.21-38.04-9.9-55.36-19.74-3.17-1.8-3.74-3.39-2.35-6.68,3.12-7.39,2.97-7.48,9.75-3.05,16.4,10.72,34.29,17.24,53.8,19.39,3.41,.38,4.68-.16,4.03-3.89-.83-4.77,.28-10.55-2.08-14.18-2.3-3.54-8.58-2.25-13.01-3.63-14.41-4.52-27.1-12.01-38.6-21.65-1.86-1.56-.52-9.38,1.79-10.26,1.59-.61,2.42,1,3.4,1.79,12.3,9.9,26.38,15.89,41.67,19.41,3.76,.87,4.81,.13,5.14-3.91,.5-6.16-1.04-9.68-7.25-12.3-10.78-4.54-20.3-11.44-29.15-19.15-2.67-2.32-2.43-6.65,.47-8.53,1.82-1.18,2.41,.69,3.21,1.52,8.17,8.45,17.98,14.23,28.89,18.43,3.52,1.35,4.18,.48,4.62-2.99,.85-6.71,.66-11.99-7-15.26-6.49-2.77-11.53-8.24-16.98-12.85-3.32-2.81-.59-4.9,.7-6.46,1.78-2.15,2.62,.74,3.53,1.69,5.26,5.52,10.89,10.55,17.77,14,1.45,.73,3.11,2.06,3.56-.94,1.64-10.89,4-21.64,6.99-32.92-16.92,7.13-33.63,12.47-50.91,15.71-46.76,8.75-92.72,6.97-136.94-12.14-22.84-9.87-42.98-23.34-57.21-44.71-19.86-29.81-17.54-71.12,5.96-98.07,6.09-6.98,13.5-8.86,22.07-7.6,3.25,.47,4.67-.31,6.05-3.42,6.92-15.65,15.23-30.4,29.39-40.85,2.09-1.54,1.89-3.66,2.06-5.7,.5-5.92,1.42-11.76,3.75-17.25,4.37-10.29,12.18-11.58,19.66-3.37,.1,.11,.19,.24,.3,.34,2.38,2.04,2.97,6.54,6.11,6.72,2.88,.16,5.86-2.15,8.84-3.25,5.68-2.1,11.4-4.12,17.1-6.18,1.54-.56,2.93-.84,2.95-3.24,.23-30.76,8.91-59.46,21.7-87.08,8.84-19.1,20.12-36.64,34.75-51.9,.73-.77,1.48-1.52,2.27-2.23,2.94-2.64,6.13-4.9,10.17-2.6,3.83,2.17,3.72,6,3.07,9.69-3.44,19.55-7.15,39.06-9.04,58.85-1.99,20.84-3.3,41.71-3.2,62.66,.01,2.58,.72,3.43,3.41,4.03,7.09,1.58,11.9-.18,15.56-6.86,3.12-5.69,7.82-10.43,13.14-14.32,4.13-3.02,6.72-2.83,10.53,.62,5.71,5.17,7.83,12,8.62,20.56,2.4-3.71,4.22-6.56,6.07-9.39,25.16-38.31,54.42-72.83,91.97-99.72,6.17-4.42,12.57-8.46,19.49-11.63,6.32-2.9,10.72-2.9,13.42,.47,3.62,4.53,2.01,9.07-.44,13.55-21.08,38.54-36.16,79.34-45.77,122.18-1.18,5.28-2.64,10.52-3.05,16.65,4.45-3.31,8.39-6.33,12.42-9.21,31.32-22.37,64.93-40.7,99.86-56.71,2.48-1.14,5.06-2.05,7.83-2.22,6.77-.42,10.79,4.92,8.45,11.34-.51,1.4-1.3,2.76-2.2,3.95-25.29,33.7-49.32,68.38-77.74,99.64-7.25,7.97-14.42,16.03-22.89,22.73-3.12,2.47-2.15,5.43-1.97,8.26,.18,2.88,3.02,1.93,4.7,2.29,5.33,1.14,10.8,1.75,15.78,4.14,8.54,4.09,9.42,12.01,1.94,17.92-4.54,3.59-9.95,5.21-15.6,5.64-3.58,.27-4.78,1.71-5.84,5.22-1.99,6.58-1.69,11.89,3.06,17.38,3.83,4.43,5.96,10.13,7.66,15.86,2.8,9.46-.02,16.94-7.56,22.95-6.52,5.2-14.2,8.02-21.9,10.83-2.85,1.04-6.44,7.22-5.89,10.04,.31,1.58,1.57,1.07,2.51,1.21,2.69,.42,5.48,.46,8.06,1.21,4.97,1.44,6.28,4.99,3.69,9.53-2.82,4.96-7.32,8.01-12.36,10.33-2.75,1.27-5.55,2.45-8.43,3.37-4.07,1.3-4.09,4.94-4.8,8.05-.36,1.56,1.47,1.09,2.37,1.19,3.2,.35,6.27,1.14,9.09,2.71,7.32,4.09,7.95,11.34,1.38,16.58-3.99,3.19-8.81,4.63-13.61,6.09-1.88,.57-3.77,1.15-5.63,1.78-2.74,.92-1.65,3.28-1.66,5.04-.02,2.21,1.91,1.42,3.11,1.43,4.09,.04,8.2-.33,12.26-.02,10.42,.79,14.22,8.15,8.9,17.24-3.7,6.32-9.5,10.6-15.55,14.39-2.99,1.87-3.93,3.59-2.39,6.92,1.58,3.42,2.72,7.07,3.89,10.67,.91,2.8,1.74,3.99,4.79,1.72,3.62-2.7,7.68-4.85,11.73-6.9,3.41-1.73,7.22-3.13,10.72-.35,3.32,2.64,3.55,6.5,3,10.41-1.13,8.11-4.64,15.32-8.52,22.38-.51,.93-1.2,1.79-1.54,2.77-.71,2.02,.62,3.53,1.72,4.91,1.54,1.92,2.72-.15,3.82-.77,2.84-1.58,5.7-2.45,8.53-.43,2.99,2.13,3.27,5.26,2.39,8.58-.31,1.17-.68,2.33-1.1,3.46-2.65,7.27-2.56,7.16,2.97,12.35,1.88,1.76,2.56,1.14,3.68-.57,2.91-4.43,5.81-8.91,9.69-12.58,2.17-2.05,4.42-4.74,7.81-3.66,3.47,1.1,4.26,4.42,4.77,7.67,.07,.44,.26,.86,.5,1.63,2.09-1.79,2.35-4.24,3.04-6.39,13.06-40.99,30.34-80.15,50.99-117.87,37.59-68.65,88.9-124.57,154.69-167.11,30.1-19.47,61.54-36.42,94.67-50.17,2.18-.9,4.33-2.05,7.61-2.18-2.76,3.98-4.99,7.52-7.54,10.81-25.15,32.41-35.05,69.91-37.48,110.13-3.27,54.1,5.24,106.67,19.6,158.54,2.63,9.49,5.55,18.9,8.62,28.25,1.26,3.82,.99,5.29-3.61,5.18-9.87-.23-19.69,.42-29.21,3.49-21.3,6.88-34.53,22.17-43.68,41.74-5.24,11.21-8.4,23.05-10.38,35.21-.54,3.29-1.71,3.84-4.76,3.07-6.49-1.63-13.12-2.24-19.84-1.74-13.87,1.03-24.05,7.72-30.48,19.92-1.64,3.1-2.36,2.95-4.39,.42-12.65-15.69-24.65-31.96-39.74-45.51-10.43-9.37-21.38-17.84-35.19-21.91-14.89-4.4-29.46-1.56-44.05,1.3-8.35,1.64-16.39,4.32-24.11,7.95-2.62,1.23-4.16,2.62-3.63,5.81,.36,2.22,.04,4.54,.14,6.81,.05,1.29-.37,2.97,1.31,3.52,1.37,.44,2.15-.87,2.98-1.7,3.76-3.78,7.86-7.13,12.41-9.91,2.59-1.58,5.28-2.99,8.43-3.13,5.62-.26,7.85,2.48,6.35,7.93-1.22,4.41-3.47,8.39-5.37,12.52-.99,2.16-1.95,4.35-2.34,7.15,2.32-1.46,4.62-2.93,6.96-4.36,1.03-.63,2.08-1.29,3.2-1.72,2.68-1.04,5.63-2.5,8.09-.1,2.31,2.25,1.08,5.15,.12,7.69-.85,2.26-1.83,4.51-3.06,6.58-1.49,2.51-.62,3.6,1.75,4.83,4.75,2.47,9.27,4.56,13.74-.42,.48-.54,1.26-.84,1.95-1.15,2.8-1.26,5.75-2.67,8.56-.44,2.71,2.15,3.12,5.61,1.87,8.34-2.43,5.33,.76,6.48,4.47,8.87,7.2,4.64,13.6,5.09,20.49-.31,2.06-1.62,4.88-2.5,7.49-3.14,5.8-1.41,8.3,1.52,6.62,7.38-1.12,3.91-3.35,7.16-6.27,9.85-1.73,1.59-1.68,2.32,.3,3.63,6.98,4.64,7.09,4.71,13.9,.06,1.12-.77,2.28-1.5,3.49-2.13,2.74-1.43,5.69-2.91,8.45-.48,2.67,2.35,1.74,5.55,1.06,8.52-.14,.59-.43,1.14-.57,1.73-.54,2.18-3.55,4.05-2.5,5.91,1.15,2.02,3.98,3.08,6.07,4.55,.25,.17,.53,.3,.77,.49,5.82,4.78,11.37,6.7,18.02,.72,2.95-2.66,7.8-4.68,11.63-1.01,3.59,3.43,1.43,7.7,0,11.48-2.83,7.42-2.6,7,3.68,12.05,6.21,4.99,11.76,6.87,17.85,.26,.58-.63,1.56-.91,2.38-1.3,2.67-1.27,5.45-2.26,8.19-.39,3.03,2.06,2.67,5.25,2.18,8.26-.31,1.92-1.16,3.76-1.63,5.66-.41,1.63-2.32,3.66-.24,4.87,2.07,1.21,4.61,2.48,7.24,.74,3.28-2.17,6.57-4.36,9.93-6.41,8.83-5.38,14.48-2.96,17.21,7.05,.57,2.08-.68,5.34,2.83,5.97,3.78,.68,7.61,.93,10.78-1.89,2.6-2.32,4.91-4.95,7.89-6.84,3.64-2.3,7.4-2.78,11.12-.41,1.7,1.08,3.18,2.1,4.37-.27,1.26-2.48,5.65-3.64,2.85-7.89-8.03-12.21-12.73-25.69-15.13-40.1-4.02-24.13,1.04-46.66,11.28-68.41,1.25-2.66,2.31-1.52,3.65-.36,8.06,6.98,11.22,16.3,12.59,26.46,.2,1.5,.36,3.01,.57,4.51,.04,.28,.24,.54,.67,1.48ZM292.72,323.15c22.59-1.45,41.9-14.94,54.19-38.34,14.76-28.11,3.06-57.67-26.64-68.96-24.98-9.49-55.99,.98-72.56,24.55-8.08,11.5-12.97,24.13-11.34,38.34,2.97,25.9,24.64,44.16,56.35,44.41Zm-123.04-109.97c-.64-9.13-1.26-15.31-3.81-21.09-1.44-3.27-3.22-6.33-7.4-6.44-3.93-.11-5.41,2.96-6.86,5.77-5,9.74-8.6,20.04-11.62,30.52-1.96,6.78,.99,9.56,7.87,7.7,4.86-1.31,9.18-3.9,13.71-6,5.81-2.69,8.63-6.92,8.12-10.46Zm287.06,396.42c-7.74,.03-13.84,5.68-13.74,12.72,.1,6.68,6.01,11.95,13.41,11.97,7.45,.02,12.99-5.31,12.85-12.34-.14-6.88-5.71-12.37-12.52-12.35Zm35.88,16.68c-6.92,.11-12.81,6.12-12.61,12.86,.19,6.15,5.93,11.38,12.46,11.34,6.73-.04,12.68-5.89,12.57-12.36-.11-6.58-5.75-11.94-12.42-11.83Zm113.21-251c6.2-.07,10.93-4.54,10.97-10.37,.05-6.13-4.71-10.84-10.98-10.87-6.37-.03-11.46,4.86-11.47,11,0,5.98,4.85,10.31,11.48,10.23Zm70.26,315.21c-5.97-.1-10.9,4.45-11.08,10.23-.18,6.11,4.53,10.93,10.75,10.99,6.07,.06,10.74-4.46,10.74-10.4,0-6.05-4.49-10.72-10.42-10.81Zm-172.76-86.3c.03-5.92-4.97-10.73-11.18-10.74-5.76-.02-10.39,4.9-10.33,10.99,.05,5.89,4.49,10.17,10.52,10.13,6.03-.03,10.96-4.69,10.99-10.38Zm67.62-200.05c6.14,.1,11.43-4.47,11.48-9.91,.05-5.24-5.06-9.98-10.87-10.08-6.09-.11-11.2,4.37-11.41,10-.2,5.3,4.77,9.9,10.79,9.99Zm-55.1,227.78c-.04,5.96,4.38,10.46,10.26,10.43,5.73-.02,10.14-4.42,10.09-10.07-.05-5.73-4.53-10.64-9.68-10.61-5.81,.03-10.63,4.66-10.67,10.24Zm118.62-223.31c-.17,5.06,4.06,9.45,9.38,9.73,5.39,.29,10.17-3.92,10.45-9.2,.27-5.07-3.95-9.66-9.17-9.96-5.67-.33-10.48,3.92-10.67,9.43ZM241.95,188.36c5.97,.06,11.29-4.67,11.38-10.11,.08-4.78-3.12-8.07-7.87-8.09-6.12-.02-12.41,5.62-12.36,11.08,.04,4.26,3.53,7.07,8.84,7.12Zm297.01,463.77c-5.56-.05-9.53,3.32-9.58,8.12-.05,5.31,5.25,9.91,11.47,9.97,4.88,.04,8.87-3.82,8.78-8.49-.1-5.32-4.8-9.54-10.68-9.6Zm-95.61-104.36c-5.5-.05-10.17,4.45-10.27,9.92-.09,4.82,3.9,8.77,8.97,8.86,5.2,.1,10.13-4.43,10.31-9.47,.18-4.99-3.96-9.27-9.01-9.31Zm203.07,184.62c5.84,.07,10.94-4.18,11-9.16,.05-4.94-3.73-8.61-9-8.73-5.75-.13-11.1,4.57-11.06,9.74,.03,4.63,3.88,8.09,9.07,8.15ZM134.98,345.13c12.46-.59,23.81-4.04,32.97-13.04,4.47-4.39,7.42-9.57,7.88-15.92,.1-1.36,.72-3.5-1.4-3.72-1.91-.19-1.6,1.92-1.76,3.12-.76,5.87-3.8,10.47-7.91,14.46-11.76,11.42-30.55,14.64-46.08,7.98-1.39-.6-3.25-2.31-4.23,.06-.9,2.17,1.5,2.67,2.88,3.26,5.61,2.41,11.42,4.06,17.66,3.79Zm473.24,338.12c-.06-5.23-4.12-9.21-9.22-9.05-5.12,.17-9.25,4.66-9.09,9.89,.15,4.89,4.19,8.81,9.09,8.82,5.22,0,9.28-4.26,9.22-9.66Zm-57.37-236.79c.09-5.2-3.84-9.4-8.92-9.52-5.03-.12-9.34,4.08-9.35,9.12-.01,4.92,3.82,8.72,8.99,8.92,5.05,.2,9.19-3.6,9.28-8.51Zm102,239c-.07-5.2-4.25-9.41-9.18-9.25-4.92,.16-8.92,4.59-8.79,9.74,.13,4.85,4.23,8.66,9.29,8.64,4.89-.02,8.75-4.08,8.68-9.12Zm-62.03-263.19c-5.15-.05-9.17,3.7-9.24,8.61-.07,5.3,3.79,9.19,9.13,9.2,5.04,0,9.06-3.93,9.02-8.85-.04-5.04-3.89-8.92-8.92-8.96Zm-12.69,55.6c-.01-5.02-3.93-8.83-9.02-8.78-4.83,.05-9.08,4.21-9.14,8.93-.05,4.73,4.19,8.79,9.17,8.76,4.97-.02,8.99-4.02,8.98-8.92Zm154.62,113.79c-4.76,.1-9.16,4.89-8.92,9.71,.23,4.76,4.32,8.66,8.93,8.51,4.77-.15,8.81-4.53,8.63-9.36-.18-4.76-4.26-8.96-8.63-8.87Zm-205.71,262.47c.39,1.4-.96,3.62,.95,4.35,1.41,.54,2.55-1.33,3.61-2.32,2.2-2.07,4.16-4.39,6.35-6.47,5.03-4.78,4.41-10.17,1.83-15.78-.69-1.5-1.34-3.5-3.09-3.64-2-.16-2.97,1.9-3.86,3.41-3.69,6.25-5.18,13.17-5.79,20.44Zm46.95-213.45c.05-4.77-3.73-8.77-8.45-8.94-4.78-.17-8.95,3.85-9.12,8.8-.17,4.85,3.94,8.91,8.94,8.84,4.86-.07,8.58-3.82,8.63-8.7Zm-154.64-108.84c-.08-4.51-3.96-8.28-8.47-8.23-4.97,.05-9.3,4.49-9.1,9.34,.18,4.36,3.84,7.63,8.5,7.59,5.1-.04,9.15-3.93,9.07-8.69Zm113.76-54.41c.12-4.72-3.75-8.56-8.66-8.58-4.63-.02-8.45,3.58-8.65,8.17-.22,4.79,3.54,8.72,8.41,8.79,4.89,.07,8.79-3.59,8.9-8.38Zm123.21,14.3c4.66,0,8.54-3.67,8.59-8.13,.04-4.54-4.05-8.61-8.73-8.67-4.66-.07-8.26,3.49-8.36,8.25-.1,4.93,3.49,8.55,8.5,8.56Zm-377.39,362.87c11.01-7.65,13.29-15.57,7.65-24.6-.77-1.23-1.36-2.98-3.16-2.87-1.77,.11-2.27,1.84-2.86,3.18-3.36,7.67-2.26,15.59-1.63,24.29Zm195.59-272.03c.1-4.67-3.29-8.18-7.88-8.16-4.6,.02-8.63,3.89-8.59,8.26,.04,4.38,3.78,7.99,8.26,7.96,4.36-.02,8.12-3.72,8.21-8.06ZM233.45,205.32c.06-4.36-3.55-7.89-8.1-7.94-4.5-.05-8.53,3.76-8.59,8.11-.05,4.06,3.51,7.49,7.91,7.6,4.83,.12,8.72-3.31,8.78-7.77Zm368.3,450.85c.06-4.41-3.18-7.96-7.41-8.13-4.48-.18-8.26,3.59-8.33,8.3-.06,4.3,3.38,7.85,7.63,7.86,4.4,.02,8.05-3.59,8.11-8.03Zm-164.53-61.86c4.06,.09,7.63-3.22,7.84-7.26,.21-4.2-3.31-8.09-7.43-8.2-4.12-.1-7.9,3.48-8.06,7.64-.17,4.38,3.1,7.72,7.65,7.82Zm-58.39-193.39c.04-4.36-3.35-7.7-7.77-7.67-4.08,.03-7.48,3.34-7.64,7.44-.17,4.19,3.4,7.67,7.83,7.61,4.23-.05,7.54-3.27,7.58-7.39Zm-19.5,451.96c.29,1.44-.45,3.23,.9,4.54,.21,.2,1.11-.13,1.58-.39,7.23-4.02,10.66-13.06,7.69-20.36-.61-1.49-1.01-3.64-2.97-3.57-1.76,.06-2.54,1.96-3.26,3.46-2.46,5.11-3.58,10.55-3.95,16.32ZM230.63,164c2.65-.09,5.78-1.39,7.6-4.76,.95-1.78,1.05-3.82-.35-5.55-2.55-3.15-6.03-2.98-9.55-2.53-.15,.02-.3,.05-.44,.08-4.31,1.09-7.06,4.15-6.64,7.38,.42,3.23,3.81,5.43,9.39,5.38Zm-27.19,23.73c-4.68-.28-9.57,3.86-9.7,8.21-.11,3.59,2.31,5.99,6.27,6.2,4.87,.27,9.43-3.31,9.62-7.55,.18-3.88-2.3-6.63-6.19-6.86Zm203.41,72.63c.03-4.13-3.18-7.28-7.52-7.37-4.31-.09-7.74,3.04-7.74,7.07,0,4.04,3.44,7.48,7.5,7.5,4.24,.02,7.73-3.22,7.76-7.19Zm4.87,307.4c3.95,.05,7.67-3.44,7.81-7.33,.15-4.08-3.16-7.52-7.34-7.61-4.12-.09-7.52,3.3-7.45,7.45,.06,4.07,3.21,7.45,6.99,7.49Zm-94.65-401.37c-4.28,0-7.55,3.45-7.49,7.9,.06,4,3.12,6.92,7.3,6.98,4.28,.05,7.47-3.07,7.46-7.31-.01-4.34-3.12-7.57-7.27-7.57Zm313.38,290.57c.09-4.01-3.32-7.28-7.65-7.31-3.83-.03-7.17,3.06-7.21,6.67-.04,4.07,3.33,7.25,7.68,7.26,4.06,0,7.09-2.79,7.18-6.62Zm-231.67,51.85c.08-3.97-2.89-7.19-6.59-7.15-3.86,.04-7.19,3.39-7.23,7.27-.04,3.82,3.08,6.92,6.91,6.87,3.75-.05,6.84-3.17,6.92-6.99Zm226.58,156.84c-.11-3.87-3.22-6.87-7.05-6.8-4.03,.08-7.06,3.4-6.83,7.48,.21,3.7,3.09,6.27,7.02,6.24,3.88-.02,6.97-3.14,6.86-6.93ZM409.55,223.29c-.01-3.78-3.09-6.79-6.94-6.79-3.98,0-6.89,2.92-6.78,6.81,.1,3.79,3.26,6.74,7.09,6.64,3.62-.09,6.64-3.13,6.63-6.66Zm175.1,295.85c3.79,.03,6.81-2.73,6.95-6.32,.15-3.82-2.89-7.01-6.69-7.04-3.82-.03-6.88,3-6.91,6.86-.03,3.73,2.79,6.47,6.65,6.5ZM201.06,215.97c-3.91,.1-7.43,3.62-7.22,7.22,.2,3.36,3.15,5.85,6.86,5.78,3.97-.07,7.13-3.05,7.15-6.72,.02-3.74-2.85-6.39-6.79-6.29Zm189.73,85.26c.06-3.81-2.72-6.85-6.3-6.89-3.5-.04-6.6,3-6.74,6.61-.14,3.54,2.51,6.32,6.15,6.46,3.89,.15,6.83-2.49,6.89-6.18Zm-5.75,177.4c-3.54,.01-6.35,3.02-6.33,6.79,.02,3.52,2.73,6.1,6.39,6.09,3.61-.02,6.32-2.64,6.37-6.17,.06-3.67-2.87-6.71-6.43-6.7Zm-4.23-273.08c3.52,.03,6.32-2.71,6.33-6.21,.02-3.87-2.71-6.85-6.27-6.82-3.46,.02-6.56,3.23-6.51,6.75,.04,3.29,3.08,6.26,6.45,6.28Zm-6.3,222.92c-.05-3.59-2.83-6.34-6.37-6.31-3.77,.03-6.75,3.03-6.59,6.64,.15,3.38,3.11,6.09,6.7,6.11,3.44,.02,6.31-2.92,6.26-6.44Zm300.44,16.57c.1-3.44-2.63-6.36-6.1-6.52-3.71-.17-6.66,2.63-6.71,6.36-.04,3.5,2.64,6.39,6.1,6.57,3.61,.19,6.59-2.67,6.71-6.42Zm-301.62,28.24c3.49-.11,6.19-2.92,6.2-6.45,.01-3.69-2.98-6.64-6.6-6.51-3.59,.13-6.33,3.21-6.17,6.96,.15,3.49,3.01,6.11,6.57,6Zm338.28,222.92c-.08-3.46-3-6.13-6.56-6-3.56,.13-6.24,2.86-6.24,6.38,0,3.61,2.64,6,6.49,5.87,3.7-.12,6.39-2.79,6.31-6.25Zm-9.17-263.37c3.46-.05,6.06-2.59,6.11-5.94,.05-3.7-2.93-6.63-6.61-6.48-3.34,.14-5.89,2.84-5.84,6.2,.05,3.6,2.78,6.28,6.34,6.22Zm-302.76-87.26c-.02-3.27-2.83-6.07-6.04-6.01-3.28,.06-6.38,3.13-6.42,6.37-.04,3.24,2.68,5.86,6.12,5.92,3.41,.05,6.35-2.86,6.33-6.28Zm288.66,50.51c-.14-4.02-3.25-6.88-6.95-6.67-3.57,.21-5.53,2.29-5.72,5.77-.19,3.68,3.32,6.74,7.19,6.43,3.61-.29,5.29-2.47,5.48-5.54Zm-133.13,224.95c-.09-3.43-3.12-6.4-6.42-6.3-3.16,.1-5.95,3.05-5.91,6.28,.04,3.54,2.81,6.16,6.47,6.12,3.45-.04,5.96-2.65,5.86-6.1Zm154.81-152.24c-.09-3.87-3.06-6.9-6.3-6.91-3.14,0-5.68,2.9-5.58,6.38,.1,3.6,2.89,6.25,6.44,6,3.64-.26,5.23-2.48,5.43-5.47Zm17.68,234.56c-4.06-.07-6.69,2.38-6.74,5.73-.05,3.59,2.27,6.17,5.66,6.29,3.63,.13,6.43-2.71,6.41-6.64-.02-3.86-2.6-5.05-5.33-5.38ZM385.05,364.08c-3.31,.09-5.88,2.95-5.7,6.35,.17,3.2,3.1,5.94,6.43,5.73,3.51-.22,5.62-2.14,5.69-5.78,.06-3.42-3.05-6.39-6.42-6.3Zm247.26,345.8c.1-3.06-2.17-5.6-5.17-5.79-3.52-.22-6.5,2.48-6.56,6-.06,3.75,2.13,5.53,5.57,5.8,3.13,.25,6.06-2.76,6.16-6.01Zm-8.07-214.73c-.12-3.86-2.83-6.59-6.13-6.25-3.52,.37-5.47,2.4-5.41,6.04,.06,3.57,2.69,6.17,6.07,5.92,3.67-.27,5.2-2.63,5.47-5.71ZM180.35,178.61c-4.33,.08-8.64,3.62-8.42,6.76,.22,3.24,2.53,4.28,5.38,4.32,4.08,.06,8.07-3.33,7.85-6.66-.21-3.24-2.4-4.28-4.81-4.42Zm255.93,88.22c3.7-.04,6.67-.95,6.97-5,.27-3.69-2.21-4.94-5.47-5.04-4.14-.13-8.5,2.69-8.1,5.51,.55,3.79,3.84,4.06,6.6,4.53Zm-94-118.13c.11,2.53,.08,4.86,3.46,3.81,4.16-1.29,8.96-10.08,7.78-14.13-.48-1.65-1.49-2.54-2.89-1.32-3.76,3.26-7.07,6.91-8.35,11.64Zm-121.22,34.73c3.95-.1,7.81-3.67,7.61-6.85-.22-3.34-2.68-4.17-5.41-4.25-3.6-.11-7.22,3.1-7.18,6.25,.04,3.45,2.27,4.66,4.99,4.85Zm-36.9-9.71c4.13-.1,7.55-3.08,7.51-6.34-.04-3.48-2.44-4.24-5.26-4.2-3.87,.06-7.15,3.02-7.13,6.21,.02,3.56,2.63,3.94,4.88,4.32Zm120.77-42.24c.16-2.11-.58-3.59-2.86-3.81-2.81-.27-7.68,4.43-8.07,7.65-.31,2.57,1.14,3.61,3.37,3.88,3.27,.4,7.23-3.69,7.57-7.73Zm57.36,25.85c-.05,2.21,.35,3.76,1.87,4.43,1.94,.86,3.13-.64,4.08-1.98,2.22-3.14,3.83-6.56,2.82-10.53-.31-1.24-1.61-1.3-2.65-.74-3.75,2.01-5.63,5.28-6.11,8.81Zm271,174.27c-.35-2.19-.58-5.08-3.77-4.9-3.44,.19-5.22,2.77-5.37,6.12-.12,2.73,.8,5.65,3.94,5.38,3.25-.28,5.04-2.95,5.2-6.6Zm-69.69,350.6c1.82-.13,3.99-.2,4.42-3.01,.46-3.04-2.1-6.15-5.49-6.51-2.67-.28-4.85,.54-5.37,3.49-.48,2.72,2.6,5.63,6.44,6.03Zm137.99,38.88c2.81-.27,5.24-1.39,5.32-4.72,.07-2.95-1.67-4.81-4.71-4.89-3.29-.08-5.61,1.55-5.77,4.93-.15,3.14,2.18,4.3,5.16,4.68ZM355.65,455.23c3.01-.13,4.69-1.87,4.82-4.82,.14-3.09-1.8-4.92-4.71-4.97-2.72-.04-5.16,1.19-5.21,4.45-.05,3.23,1.83,4.95,5.1,5.34Zm295.72-153.32c-.45-2.07-.96-4.39-3.99-4.36-2.75,.02-5.54,3.63-5.27,6.92,.16,1.98,.55,4.06,3.26,4.09,2.73,.03,6.07-3.59,6-6.64Zm21.43,19.45c-.29-3.1-1.55-5.8-4.89-6.09-2.57-.22-4.24,1.86-4.13,4.4,.14,3.19,1.67,6.27,4.99,6.7,2.85,.37,3.84-2.33,4.03-5.01Zm2.13,410.46c2.71-.41,5.11-1.45,5.11-4.89,0-3.19-2.02-4.56-4.96-4.53-2.89,.03-5.03,1.41-5.12,4.5-.09,3.03,1.8,4.57,4.97,4.93Zm-307.78-248.55c-.1-2.75-1.93-4.29-4.59-4.31-2.9-.03-4.81,1.73-4.91,4.77-.1,3.14,1.79,4.83,4.77,4.73,2.94-.1,4.6-1.94,4.73-5.2Zm332.08-196.91c-.13-2.85-1.22-4.97-4.23-4.81-2.84,.16-4.86,1.96-4.85,4.91,.01,2.66,1.59,4.65,4.45,4.69,3.08,.04,4.54-1.89,4.63-4.79Zm-79.15,258.08c2.45-.37,4.44-1.84,4.26-4.92-.16-2.8-2.14-4.42-4.84-4.32-2.94,.11-4.81,2.05-4.72,5,.08,2.81,1.98,4.23,5.3,4.24Zm33.28-20.74c-.5-2.52-1.74-4.62-4.59-4.59-2.62,.03-4.71,1.44-4.72,4.37-.01,2.98,1.7,4.83,4.73,4.85,2.87,.02,4.26-1.81,4.58-4.63Zm46.68-168.36c-.46-2.85-1.56-5.63-4.92-6.05-2.51-.31-4,1.75-3.93,4.04,.09,3.06,1.58,5.73,4.92,6.19,2.63,.37,3.67-1.6,3.94-4.18Zm-323.93,158.38c-.21-2.5-1.63-4.2-4.5-4.2-2.77,0-4.57,1.41-4.64,4.33-.08,3.09,1.61,4.8,4.65,4.79,2.89-.01,4.2-1.87,4.49-4.92Zm3.29-66.79c2.78,0,4.49-1.41,4.66-3.96,.19-2.94-1.47-5-4.49-4.97-2.59,.02-4.61,1.42-4.63,4.41-.02,2.99,1.97,4.1,4.46,4.52Zm34.22-121.93c-.02-2.99-1.44-4.82-4.26-4.98-2.77-.15-4.74,1.49-4.89,4.24-.15,2.73,1.54,4.6,4.35,4.79,2.81,.19,4.53-1.25,4.79-4.05Zm249.71,19.68c-.53-2.9-1.81-5.56-5.12-5.92-2.37-.25-3.52,1.71-3.27,3.92,.34,2.97,1.42,5.78,4.97,6.03,2.48,.17,3.27-1.7,3.42-4.03Zm-143.25,264.09c-2.41,.44-5.5,1.05-5.29,4.16,.18,2.7,3.03,3.35,5.63,3.34,2.63,0,4.57-1.06,4.55-3.83-.02-2.88-2.23-3.61-4.9-3.66Zm-131.24-64.96c2.4-.2,4.27-1.39,4.38-4.06,.11-2.57-1.3-4.42-4.02-4.44-2.56-.01-4.36,1.52-4.59,4.09-.24,2.7,1.44,4.11,4.23,4.41ZM230.73,104.09c.34,2.14,.44,5.03,3.27,5.01,2.53-.02,2.92-2.73,2.84-4.88-.08-2.42-.51-5.67-3.17-5.7-2.51-.03-2.47,3.28-2.94,5.57Zm15.67-.49c.22,2.54,.61,5.35,3.17,5.57,2.76,.24,2.85-2.63,2.8-4.7-.05-2.37-.11-5.65-2.87-5.86-2.78-.22-2.55,3.1-3.11,4.98Zm170.49,476.16c2.03-.34,4.1-.96,4.01-3.73-.09-2.68-2.07-3.63-4.36-3.53-2.23,.09-4.3,1.08-4.26,3.7,.04,2.68,2.14,3.33,4.62,3.56ZM245.42,128.88c.3,1.42,.12,3.76,2.31,3.59,3.28-.27,4.2-3.08,4.35-5.89,.1-1.87-.78-4.11-2.89-3.8-3.03,.45-3.46,3.34-3.77,6.11Zm123.57,253.55c-.11-2.39-1.22-3.85-3.6-3.9-2.43-.05-4.14,1.12-4.3,3.69-.14,2.33,1.04,3.79,3.48,3.8,2.42,0,4.01-1.15,4.42-3.59Zm53.73-77.98c-.24-2.2-1.36-3.75-3.61-3.88-2.33-.13-4.23,1.03-4.51,3.45-.3,2.6,1.96,3.15,3.86,3.42,2.14,.3,3.78-.64,4.26-2.99Zm-39.48-192.84c-.17-1.62-.88-3.19-2.74-2.61-2.38,.75-5.18,1.89-5.41,4.71-.19,2.28,2.26,2.54,4.06,2.44,2.67-.16,3.94-1.87,4.09-4.54Zm-227.97,162.24c-.1-2.13-.78-4.13-3.19-4.21-2.4-.08-3.36,1.88-3.43,4.01-.07,2.19,1.05,4.01,3.3,4.2,2.59,.22,3.12-1.88,3.31-4ZM397.25,93.69c-.16-1.58-.1-3.66-2.18-3.25-2.25,.45-3.25,2.62-3.38,4.85-.09,1.68,.33,3.99,2.19,3.88,3.18-.18,2.84-3.3,3.36-5.48Zm-30.13,41.99c3.21-1.1,5.17-3.22,6.56-5.97,.41-.82,.71-1.73,0-2.52-.88-.97-2.02-.72-2.87-.09-2.77,2.05-4.68,4.55-3.68,8.58Zm-138.34-12.19c-.41-2.08-.78-4.85-3.47-5.35-1.33-.24-2.05,2.06-1.95,3.58,.14,2.26,.52,4.86,3.2,5.29,1.86,.3,2.16-1.65,2.22-3.52ZM85.5,266.19c.38,1.38,.27,3.78,2.73,3.6,2.26-.17,3.08-2.23,3.07-4.38,0-1.75-.45-3.71-2.48-3.71-2.37,0-3.13,2-3.32,4.49Zm332.53-70.45c-.11-1.93-1.57-2.21-2.87-2.31-2.48-.2-4.66,.87-5.42,3.18-.68,2.08,1.46,2.42,2.87,2.45,2.42,.05,4.24-1.23,5.41-3.32Zm261.23,88.91c-.22-1.91-.73-4.03-3.27-3.86-1.89,.13-2.65,1.84-2.54,3.71,.13,2.15,.96,4.06,3.38,4,2.08-.06,2.46-1.89,2.43-3.85Zm7.95,21.09c-.02,2.37,.98,4.11,3.25,4.31,1.65,.15,2.19-1.46,2.11-2.92-.11-2.04-.64-4.22-2.98-4.48-1.9-.22-2.27,1.6-2.38,3.09ZM263.29,57.29c.17,1.45-.03,3.36,1.72,3.3,2.26-.08,3.21-2.1,3.46-4.13,.21-1.71-.89-3.24-2.5-3.16-2.29,.12-2.28,2.38-2.68,3.99Zm417.92,204.16c-1.79,.25-2.84,1.37-2.79,2.99,.06,2.04,1.45,3.25,3.48,3.34,1.83,.09,2.71-1.01,2.61-2.82-.11-2.11-1.32-3.2-3.3-3.51Zm-333.55,207.11c-2.12,.03-3.19,1.21-3.18,3.11,0,1.79,1.28,2.7,2.99,2.72,1.67,.02,3.01-.68,3.09-2.57,.09-1.99-1.02-3.05-2.9-3.26ZM242.65,67.43c-.27-1.67-.07-4.08-2.27-4.31-1.95-.2-2.42,1.97-2.58,3.63-.2,2.08,.82,3.72,2.93,3.82,1.78,.08,1.78-1.69,1.92-3.14Zm1.76,17.98c-.21-1.84-.38-4.15-2.57-4.14-1.87,.01-2.16,2.25-2.2,3.89-.05,1.81,.79,3.45,2.72,3.52,2.13,.09,1.91-1.85,2.06-3.28Zm-20.71,49.88c-.28-1.04-.55-2.51-2.29-2.44-2.2,.08-2.92,1.87-3.29,3.67-.31,1.55,.4,2.78,2.09,2.71,2.13-.1,2.94-1.76,3.48-3.93Zm38.04-28.86c-.44-1.66,.2-4.38-2.21-4.75-2.21-.34-2.12,2.2-2.2,3.7-.1,1.84,.44,3.89,2.62,4.17,2.12,.27,1.47-1.75,1.8-3.12Zm216.17,40c-.86-1.81-2.42-2.08-4.11-1.87-1.67,.21-3.62,.81-3.36,2.75,.24,1.85,2.22,2.27,3.94,1.99,1.63-.26,3.15-.9,3.53-2.88Zm-71.79-68.12c2.02-.84,3.24-2.43,3.58-4.68,.17-1.11,.06-2.38-1.4-2.28-2.32,.16-3.31,1.89-3.7,3.96-.23,1.22-.18,2.43,1.51,3Zm32.33,98.14c-.45-1.3-1.45-2.21-2.97-1.86-1.9,.44-3.29,1.71-3.22,3.79,.05,1.45,1.32,1.97,2.64,1.79,2-.27,3.25-1.43,3.55-3.72Zm292.51,507.31c1.88-.08,2.88-.98,2.83-2.83-.04-1.62-.99-2.65-2.54-2.55-1.89,.11-3.03,1.54-3.13,3.29-.1,1.8,1.53,1.94,2.83,2.09ZM265.1,81.97c-.15-1.54-.26-3.41-2.2-3.29-1.55,.09-2.53,1.57-2.46,3.25,.07,1.76,.83,3.48,2.76,3.44,1.98-.04,1.78-1.98,1.91-3.4Zm461.26,609.97c-.42-1.57-1.09-3.1-3.14-3.08-1.68,.01-2.33,1.26-2.35,2.73-.02,1.96,1.09,3.12,3.04,3.1,1.56-.02,2.43-1,2.44-2.74Zm-16.53-427.19c-.23-1.38-.94-2.61-2.72-2.73-1.8-.11-2.83,.88-2.83,2.66,0,1.68,.86,2.91,2.61,3.05,1.83,.15,2.6-1.1,2.95-2.98ZM407.57,57.94c-.03-1.13-.18-2.54-1.56-2.14-2.25,.66-2.99,2.81-3.36,4.89-.17,1,.29,2.44,1.62,2.13,2.43-.58,2.59-3,3.3-4.88Zm-170.39,63.13c-1.98,.69-1.38,2.42-1.38,3.77,0,1.36-.42,3.44,1.79,3.38,1.86-.05,2.16-1.8,2.12-3.37-.05-1.74-.54-3.25-2.53-3.78Zm-98.61,82.85c-.03-1.47-.48-2.91-2.15-2.81-2,.12-2.57,1.88-2.64,3.59-.05,1.29-.09,3.02,1.93,2.77,1.89-.24,2.65-1.74,2.86-3.55Zm285.71,5.09c1.72-.08,2.34-1.25,2.4-2.66,.07-1.69-.81-2.96-2.59-2.92-1.44,.03-2.52,1.01-2.54,2.57-.02,1.76,1.18,2.58,2.73,3.01ZM248.71,46.67c-.1-1.41-.34-2.89-2.17-2.71-1.61,.15-2.17,1.58-2.14,2.98,.02,1.34,.44,3.03,2.05,3.01,1.79-.02,2.29-1.62,2.27-3.27Zm219.23,126.18c-.09-1-.6-1.62-1.44-1.43-2.11,.48-3.34,1.98-3.64,4.06-.14,.93,.57,1.89,1.65,1.59,2.11-.59,2.88-2.42,3.43-4.21Zm15.73-39.9c.03-1.3-.85-1.56-1.76-1.46-1.68,.17-3.3,.71-3.72,2.59-.26,1.17,.59,2.18,1.69,2.13,1.98-.1,2.98-1.66,3.78-3.26Zm265.96,486.06c-.5-1.21-.77-2.9-2.71-2.82-1.76,.07-2.13,1.42-1.9,2.86,.21,1.32,.58,2.75,2.33,2.74,1.64,0,2.3-1.06,2.28-2.79ZM437.3,212.05c2.04-.71,2.81-2.46,3.22-4.41,.22-1.04-.35-1.9-1.43-1.74-2.52,.37-3.3,2.35-3.54,4.53-.1,.96,.51,1.69,1.75,1.62Zm-43.59-140.01c-1.8,.45-2.57,1.9-2.89,3.53-.25,1.28,.36,2.66,1.76,2.52,2-.19,2.2-2.14,2.48-3.72,.18-1.02,.2-2.14-1.35-2.33Zm360.54,591.15c1.75-.19,2.21-1.34,2.24-2.85,.03-1.58-.51-2.72-2.29-2.62-1.6,.09-2.44,1.08-2.39,2.69,.05,1.56,.98,2.44,2.44,2.78ZM400.95,113.56c-.12-1.45-.52-2.93-2.26-2.75-1.71,.17-1.81,1.78-1.81,3.16,0,1.23,.11,2.63,1.8,2.51,1.65-.12,2.12-1.47,2.27-2.92Zm-9.44,15.68c-1.77,.71-2.18,2.35-2.36,3.93-.13,1.15,.22,2.79,1.79,2.39,1.8-.46,2.02-2.41,2.15-4.02,.08-1-.16-2.1-1.58-2.3Zm359.9,546.87c1.38-.34,1.95-1.48,2.01-2.88,.05-1.25-.31-2.53-1.8-2.54-1.69-.02-2.09,1.46-2.24,2.78-.15,1.29,.45,2.27,2.04,2.64ZM263.69,37.19c-.2-1.12-.15-2.66-1.78-2.51-1.73,.16-2.28,1.68-2.43,3.23-.12,1.27,.12,2.48,1.76,2.44,2.01-.05,2.09-1.73,2.44-3.16Zm485.48,602.91c1.51-.1,2.18-1.14,2.09-2.7-.07-1.3-.58-2.44-2.09-2.46-1.59-.02-2.61,.93-2.65,2.48-.04,1.51,.78,2.56,2.65,2.68Zm-11.82,61c-.17-1.39-1.02-2.33-2.66-2.17-1.44,.14-2.08,1.19-2.02,2.54,.07,1.62,1.02,2.53,2.65,2.36,1.4-.15,2.08-1.1,2.03-2.73Zm-27.88-450.73c1.42,.03,2.28-.67,2.46-2.03,.21-1.6-.62-2.56-2.2-2.72-1.33-.13-2.37,.36-2.42,1.89-.05,1.5,.58,2.56,2.16,2.86ZM354.12,121.2c.25,.92-.67,2.74,1.27,2.56,1.64-.15,2.25-1.74,2.36-3.31,.07-1.08-.1-2.42-1.31-2.46-1.96-.07-2.12,1.66-2.32,3.22Zm19.34,375.72c-.13-1.34-.78-2.41-2.19-2.34-1.6,.07-2.39,1.26-2.2,2.8,.16,1.32,1.05,2.21,2.46,2.08,1.45-.13,1.96-1.17,1.93-2.54Zm37.93-403.33c1.07-.59,2.03-1.44,2.02-2.98-.01-1.33-.57-2.5-2.04-2.31-1.64,.21-1.9,1.69-1.85,3.08,.04,1.04,.24,2.11,1.88,2.21Zm76.46,56.44c1.42-.57,2.69-1.5,3.04-3.27,.2-1-.2-1.91-1.33-1.72-1.74,.29-2.8,1.6-3.32,3.2-.33,1.01,.35,1.63,1.6,1.79Zm-38.11,9.22c-.2-1.36-.96-2.36-2.25-2.37-1.3,0-2.17,.98-2.18,2.33,0,1.2,.79,1.89,1.98,1.93,1.31,.05,2.3-.44,2.45-1.89Zm4.43,34.33c1.55-.86,2.99-1.92,3.4-3.8,.18-.82-.51-1.49-1.32-1.36-2.02,.33-3,1.75-3.25,3.68-.1,.76,.11,1.47,1.17,1.48Zm22.16-33.88c-.09-1.18-.61-2.05-1.93-1.9-1.53,.18-2.48,1.25-2.52,2.71-.03,1.27,1.1,1.65,2.24,1.59,1.47-.07,2.01-1.08,2.21-2.41Z"/>
  <path d="M324.45,268.03c-1.3,12.02-6.9,24.41-18.93,33.13-16.83,12.21-37.68,4.21-42.4-16.04-4.31-18.51,8.41-41.29,26.54-47.52,18.35-6.31,35.67,7.56,34.8,30.43Zm-31.31-12.4c.06,5.73,4.47,9.96,10.22,9.79,6-.18,10.98-5.49,10.94-11.67-.04-5.96-4.49-10.47-10.28-10.42-5.83,.05-10.95,5.83-10.89,12.3Z"/>
</svg>