<?xml version="1.0" encoding="UTF-8"?>
<svg id="Layer_1" data-name="Layer 1" xmlns="http://www.w3.org/2000/svg" viewBox="0 0 864 864">
  <defs>
    <style>
      .cls-1 {
        fill: none;
      }
    </style>
  </defs>
  <path class="cls-1" d="M282.96,255.76c-3.5-.51-4.86,1.87-5.68,5.25,.12,2.86,1.31,5.29,4.9,5.75,3.38,.43,5.36-1.51,5.85-4.53,.6-3.69-1.48-5.95-5.07-6.47Z"/>
  <path class="cls-1" d="M294.82,243.13c-3.49,.13-5.62,2.55-5.45,6.27,.18,4.03,2.8,5.62,6.26,6.02,3.98-.37,5.91-2.55,5.62-6.21-.3-3.75-2.72-6.21-6.43-6.08Z"/>
  <path class="cls-1" d="M296.34,176.61c4.45-.02,8.12-3.74,8.2-8.32,.08-4.81-3.22-8.23-8.02-8.28-4.71-.06-8.03,3.3-8.09,8.2-.07,4.82,3.33,8.42,7.91,8.4Z"/>
  <path class="cls-1" d="M267.74,169c4.24,.02,7.39-3.32,7.28-7.73-.11-4.34-3.01-7.33-7.1-7.31-4.13,.02-7.48,3.5-7.45,7.74,.03,4.02,3.28,7.28,7.27,7.3Z"/>
  <path class="cls-1" d="M376.07,607.99c6.21-5.77,7.42-14.11,2.4-20.39,1.55,7.91,2.2,14.97-4.96,20.16-6.73,4.88-13.44,2.69-20.28,.27,6.93,6.54,15.96,6.34,22.83-.05Z"/>
  <path class="cls-1" d="M239.78,463.46c3.41-.18,5.49-2.08,5.66-5.42,.17-3.39-1.83-5.74-5.23-5.79-3.45-.05-6.02,1.84-6.01,5.64,0,3.45,2.11,5.26,5.58,5.58Z"/>
  <path class="cls-1" d="M357.07,279.71c8.07-28.22-7.23-57.12-34.58-65.32-34.93-10.47-69.59,11.49-74.64,47.6-4.25,30.36,15.43,62.05,51.93,61.36,28.68-.29,49.41-16.08,57.29-43.63Zm-76.88,34.6c-21.33-17.88-19.12-54.11,4.23-69.23,20.31-13.15,45.45,.34,47.94,25.73,.19,1.91,.22,3.83,.35,6.2-.41,14.65-6.1,27.31-17.58,37.18-11.38,9.78-23.45,9.75-34.93,.12Z"/>
  <path class="cls-1" d="M315.47,281.85c2.32-.25,3.49-1.61,3.67-3.72,.19-2.19-1.26-3.12-3.16-3.23-1.94-.11-3.37,.85-3.54,2.92-.18,2.2,1.01,3.51,3.03,4.03Z"/>
  <path class="cls-1" d="M320.61,292.46c-.18-3.72-4.03-6.92-8.35-6.96-5.27-.04-8.99,2.94-9.03,7.24-.04,4.34,3.72,7.59,8.77,7.56,4.79-.03,8.81-3.68,8.61-7.84Z"/>
  <path class="cls-1" d="M344.31,381.22c-2.15-.18-3.63,.82-3.65,3.25-.02,2.3,1.16,3.47,3.41,3.61,2.06,.12,3.21-.87,3.52-3.04-.25-1.88-1.03-3.62-3.28-3.81Z"/>
  <path class="cls-1" d="M349.85,603.96c.95,5.17-2.53,8.74-5.61,13.65,6.56-4.93,7.9-8.33,5.61-13.65Z"/>
  <path class="cls-1" d="M350.01,594.61c3.98-5.75,4.3-11.23,.69-16.32,1.76,5.94,.76,11.35-2.89,16.27-3.89,5.25-9.71,5.84-15.66,6.07,7.92,2.07,13.67,.03,17.86-6.02Z"/>
  <path class="cls-1" d="M355.84,568.32c-6.29,2.15-11.91,6-18.62,7.05,7.43,.78,13.03-3.12,18.62-7.05Z"/>
  <path class="cls-1" d="M331.4,649.55c5.19,8.52,13.5,9.64,19.31,3.13-6.88,4.2-12.9,2.02-19.31-3.13Z"/>
  <path class="cls-1" d="M186.75,560.44c3.66,.52,7.1-2.3,7.41-6.12-.21-3.62-1.96-6.36-6.05-6.98-3.58-.55-7.04,2.27-7.25,5.87-.23,4.12,1.82,6.65,5.89,7.24Z"/>
  <path class="cls-1" d="M333.54,393.3c-.02-1.78-1.01-2.88-2.82-3.24-1.9,.11-2.72,1.29-2.78,3.06-.06,1.79,.73,3.13,2.66,3.1,1.76-.02,2.96-1.03,2.94-2.93Z"/>
  <path class="cls-1" d="M357.2,369.65c-2.13,.3-3.37,1.71-3.2,3.97,.17,2.22,1.59,3.29,3.75,3.69,2.14-.72,3.66-2.13,3.41-4.49-.22-2.11-1.7-3.48-3.95-3.16Z"/>
  <path class="cls-1" d="M326.57,187.27c4.76-.07,8.07-3.58,7.96-8.45-.11-4.75-3.73-8.27-8.36-8.11-4.59,.16-7.84,3.89-7.64,8.78,.19,4.69,3.45,7.85,8.04,7.78Z"/>
  <path class="cls-1" d="M240.74,151.5c-3.94-.04-6.93,2.93-6.92,6.86,.01,4.38,3.01,7.37,7.16,7.15,3.86-.21,6.89-3.4,6.82-7.16-.08-3.86-3.11-6.81-7.05-6.85Z"/>
  <path class="cls-1" d="M248.6,639.15c-2.33-.06-3.57,1.36-3.59,3.56-.02,2.19,1.1,3.61,3.5,3.61,2.35,0,3.37-1.43,3.74-3.5-.22-2.26-1.4-3.6-3.65-3.66Z"/>
  <path class="cls-1" d="M250.12,562.3c-2.52-.07-3.7,1.56-3.6,3.96,.09,2.15,1.31,3.62,3.52,3.59,2.49-.03,3.49-1.77,3.74-4.03-.14-2.32-1.6-3.46-3.66-3.52Z"/>
  <path class="cls-1" d="M241.4,613.9c-2.03,.12-3.1,1.52-3.01,3.47,.08,1.75,1.24,2.85,3.03,2.88,2.08,.03,3.08-1.21,3.22-3.17-.06-2.16-1.2-3.3-3.24-3.18Z"/>
  <path class="cls-1" d="M244.41,531.56c2.86,1.13,5.37,4.36,9.64,1.67-3.63-2.23-6.56-2.63-9.64-1.67Z"/>
  <path class="cls-1" d="M242.47,588.61c-.36-3.57-2.31-5.86-5.9-6.03-3.94-.18-6.13,2.08-6.26,6.03-.14,4.21,2.65,6.06,6.24,6.07,3.55,0,5.52-2.44,5.92-6.07Z"/>
  <path class="cls-1" d="M272.99,558.01c13.14,11.33,11.25,20.26-6.12,28.98,.97,1.77,3.35-1.1,4.16,1.23,.7-1.93,2.58-2.68,3.99-3.87,3.21-2.71,6.2-5.57,7.73-9.62,3.01-7.99-1.57-15.84-9.76-16.72Z"/>
  <path class="cls-1" d="M275.23,614.2c8.83,8.84,3.66,16.56-1.62,24.33,5.96-4.09,8.79-9.78,8.15-16.81-.33-3.65-2.47-6.55-6.53-7.52Z"/>
  <path class="cls-1" d="M260.49,423.68c-3.65,.17-5.76,2.2-5.55,6.03,.21,3.83,2.61,5.37,5.94,5.61,3.96-.17,5.45-2.59,5.42-5.85-.03-3.59-1.96-5.97-5.81-5.79Z"/>
  <path class="cls-1" d="M268.75,614.5c6.59-1.48,11.18-5.12,12.65-11.9,1.51-6.94-3.75-14.1-10.31-14.34,4.61,2.88,8,6.85,8.38,12.34,.53,7.51-6.04,10.07-10.72,13.89Z"/>
  <path class="cls-1" d="M189.69,655.63c-2.91-.07-4.12,1.27-4.13,3.48-.01,2.4,1.27,3.95,3.83,3.97,2.26,.01,3.71-1.22,3.68-3.47-.03-2.37-1.4-3.83-3.38-3.97Z"/>
  <path class="cls-1" d="M188.28,580.38c-4-.29-7.2,2.62-7.23,6.39-.03,3.93,2.88,6.95,6.85,6.82,4.03-.13,6.3-2.34,6.69-6.41-.28-3.99-2.19-6.49-6.32-6.79Z"/>
  <path class="cls-1" d="M232.61,553.7c1.76-.02,3.34-1,3.52-3.09,.19-2.31-1.12-3.44-3.2-3.83-2.04,.13-3.42,1.06-3.53,3.09-.12,2.14,.91,3.85,3.21,3.83Z"/>
  <path class="cls-1" d="M211.56,630.78c-.42-4.12-2.92-6.25-6.89-6.1-3.93,.15-6.52,2.23-6.25,6.6,.26,4.2,2.88,6.34,6.79,6.27,4.03-.08,6.19-2.61,6.35-6.76Z"/>
  <path class="cls-1" d="M178.86,612.61c-2.75,.05-4.66,1.67-4.62,4.54,.04,2.59,1.75,4,4.35,4.28,2.74-.41,4.52-1.88,4.59-4.73,.07-2.78-1.79-4.14-4.32-4.1Z"/>
  <path class="cls-1" d="M204.69,514.79c4-.09,6.55-2.2,7.07-6.19,.48-3.68-2.78-7.1-6.56-7.27-3.54-.16-6.68,2.68-6.94,6.29-.28,3.96,2.58,7.26,6.43,7.18Z"/>
  <path class="cls-1" d="M225.42,468.32c-3.15-.2-4.86,1.62-4.9,4.65-.04,2.84,1.72,4.59,4.49,4.57,2.67-.02,4.43-1.62,4.77-4.37-.11-2.9-1.52-4.67-4.35-4.85Z"/>
  <path class="cls-1" d="M208.96,678.48c-1.98,.24-3.13,1.52-2.98,3.5,.15,1.93,1.29,3.24,3.4,2.99,1.98-.24,2.92-1.58,3.01-3.67-.29-1.86-1.31-3.08-3.42-2.82Z"/>
  <path class="cls-1" d="M218.6,531.77c-2.34,.03-3.36,1.64-3.34,3.82,.02,2.06,1.29,3.26,3.26,3.36,2.32,.12,3.38-1.4,3.75-3.49-.33-2.16-1.38-3.73-3.66-3.7Z"/>
  <path class="cls-1" d="M754.48,577.98c13.17-15.49,26.41-30.86,40.65-45.36-16.89,12.16-30.51,27.23-40.65,45.36Z"/>
  <path class="cls-1" d="M385.07,344.12c-2.72-.12-4.16,1.65-4.24,4.17-.08,2.57,1.31,4.31,4.06,4.31,2.85,0,3.67-2.08,4.1-4.63-.26-2.22-1.54-3.74-3.91-3.85Z"/>
  <path class="cls-1" d="M431.89,341.21c1.36-.24,2.11-1.12,1.99-2.52-.14-1.59-1.07-2.43-2.69-2.46-1.56,.37-2.41,1.35-2.21,2.93,.21,1.63,1.31,2.33,2.92,2.05Z"/>
  <path class="cls-1" d="M407.91,312.67c-.3-2.37-1.79-3.94-4.36-3.9-2.79,.04-4.47,1.6-4.39,4.58,.08,2.91,1.64,4.6,4.52,4.44,2.84-.16,4.17-2.07,4.23-5.12Z"/>
  <path class="cls-1" d="M138.45,812.48c5.53-4.65,11.62-7.96,18.19-10.25,6.47-2.26,13.06-4.18,19.6-6.24-17.85-1.2-35.65,6.89-37.8,16.5Z"/>
  <path class="cls-1" d="M406.64,281.88c2.57,.01,4.33-1.31,4.4-4.04,.07-2.69-1.52-4.06-4.11-4.33-2.72,.19-4.19,1.68-4.11,4.33,.07,2.32,1.3,4.03,3.82,4.04Z"/>
  <path class="cls-1" d="M246,100.94c4.04-.13,6.84-3,6.83-7,0-4.17-3.1-7.08-7.41-6.95-3.99,.12-6.88,3.07-6.86,7,.02,4.08,3.24,7.09,7.44,6.96Z"/>
  <path class="cls-1" d="M403.48,259.73c4.9,.2,8.68-3.36,8.75-8.24,.07-4.81-3.19-8.08-8.12-8.18-4.78-.09-8.33,3.22-8.51,7.93-.18,4.79,3.07,8.29,7.88,8.49Z"/>
  <path class="cls-1" d="M407.66,295.47c.03,1.92,1.36,2.62,3.09,2.62,1.74,0,3.03-.75,3.12-2.63,.1-2.05-1.11-3.08-3.08-3.32-1.97,.25-3.16,1.32-3.13,3.33Z"/>
  <path class="cls-1" d="M405.78,338.42c-2.46,.22-3.76,1.63-3.7,4.08,.06,2.47,1.52,3.88,3.95,3.88,2.35,0,4.01-1.16,3.99-3.76-.02-2.73-1.53-4.08-4.24-4.19Z"/>
  <path class="cls-1" d="M458.36,240.2c1.42-.32,2.95-.93,3.1-2.78,.14-1.82-.96-2.97-2.82-3.05-1.79-.08-3.12,.84-3.28,2.66-.15,1.82,.96,2.89,3,3.18Z"/>
  <path class="cls-1" d="M418.64,188.39c2.98-.36,4.75-2.05,4.95-5.06,.2-2.96-1.52-4.66-4.33-4.82-3.03-.17-5,1.45-5.23,4.58-.24,3.18,1.58,4.77,4.62,5.29Z"/>
  <path class="cls-1" d="M427.31,163.08c4.2,.24,8.08-3.33,8.33-7.67,.26-4.43-3.53-8.57-7.95-8.68-4.2-.11-8.23,3.62-8.35,7.72-.14,4.67,3.27,8.36,7.97,8.63Z"/>
  <path class="cls-1" d="M250.33,110.42c-1.79,.07-2.84,1.28-2.74,3.13,.1,1.82,1.09,2.9,3.01,2.81,1.9-.09,2.75-1.21,2.83-3-.3-1.81-1.3-3.02-3.1-2.95Z"/>
  <path class="cls-1" d="M390.96,330.09c.03,2.48,1.49,3.73,4.29,3.8,2.02-.22,3-1.66,2.93-3.84-.08-2.28-1.56-3.49-3.69-3.55-2.24-.05-3.56,1.33-3.53,3.59Z"/>
  <path class="cls-1" d="M437.99,248.6c2.61-.03,4.21-1.56,4.12-4.22-.08-2.36-1.53-3.7-4.13-3.87-2.41,.46-3.85,2-3.7,4.59,.12,2.15,1.53,3.53,3.7,3.5Z"/>
  <path class="cls-1" d="M316.28,112.83c1.62-.16,2.37-1.27,2.36-2.79-.17-1.67-.95-2.93-2.56-2.88-1.89,.07-2.62,1.58-2.58,3.31,.04,1.71,1.18,2.51,2.78,2.36Z"/>
  <path class="cls-1" d="M316.93,120.53c-.01,1.78,1.03,2.83,3.02,3.14,1.54-.22,2.79-1.01,2.73-2.92-.06-1.76-1.07-2.99-2.85-3.1-1.86-.12-2.89,1.07-2.9,2.87Z"/>
  <path class="cls-1" d="M147.2,245.46c1.99,1.06,4.03,.92,5.67-.82,1.53-1.62,2.22-3.53,1.1-5.66-1.3-2.49-3.5-3.2-6.11-2.59-.92,.22-1.77,.79-2.64,1.23-.2,.62-.38,1.24-.6,1.85-.99,2.79,.2,4.73,2.57,5.99Z"/>
  <path class="cls-1" d="M220.49,840.37c11.66-10.04,25.54-12.76,39.12-16.7-10.41-4.27-34.37,5.6-39.12,16.7Z"/>
  <path class="cls-1" d="M197.6,298.76c-1.86,1.1-2.95,3.97-1.01,5.35,4.03,2.86,1.54,5.14-.2,7.21-1.99,2.38-4.36,4.54-6.88,6.35-24.33,17.44-51.73,23.75-81.13,20.81-22.35-2.24-40.2-12.92-52.42-32.15-2.32-3.66-4.23-7.58-6.88-12.36,.36,1.69,.42,2.34,.63,2.94,9.05,25.52,27.53,40.21,53.63,45.02,31.73,5.85,60.32-2.98,86.56-20.75,5.53-3.74,10.24-8.35,12.99-14.65,.39-.88,1.22-1.66,2.02-2.26,1.6-1.21,2.65-2.52,.83-4.23-2.38-2.22-5.36-2.92-8.15-1.27Z"/>
  <path class="cls-1" d="M383.49,230.26c4.83,.02,8.73-3.67,8.78-8.33,.05-4.52-3.96-8.43-8.69-8.48-4.59-.05-8.53,3.98-8.45,8.66,.08,4.52,3.78,8.12,8.37,8.14Z"/>
  <path class="cls-1" d="M216.31,152.54c-3.75-.06-5.91,2.18-6.02,5.79-.11,3.57,1.71,5.93,5.57,6.14,3.99-.1,6.36-2.15,6.4-6.06,.04-3.69-2.26-5.81-5.94-5.87Z"/>
  <path class="cls-1" d="M301.12,595.41c-2.34-1.84-2.3-2.33-.45-4.48,6.2-7.2,4.04-15.21-4.81-18.79-2.38-.96-4.8-1.91-9.05-1.86,7.62,3.09,15.91,4.17,14.76,13.28-1.23,9.75-9.67,11.51-18.43,13.08,4.37,1.35,7.58,.17,10.81-1.19,1.51-.63,3.1-2.04,4.77-.37,7.66,7.63,8.31,18.79-1.53,24.2-4.08,2.25-8.33,2.02-13.83,1.31,7.77,3.86,17.1,1.31,21.35-4.93,3.99-5.86,2.55-15.41-3.6-20.24Z"/>
  <path class="cls-1" d="M433.8,444.91c1.65-1.01,3.42-1.87,5.21-2.59,6.28-2.54,12.83-4.15,19.48-5.3,8.78-1.52,17.59-2.85,26.38-4.27-32.89-2.61-63.96,3.77-93.43,18.5,16.75,4.57,32.53,10.92,47.29,19.59,.79-.71,1.58-1.41,2.37-2.11-3.16-2.92-6.32-5.84-9.32-8.92-5.1-5.24-4.18-11.1,2.01-14.9Z"/>
  <path class="cls-1" d="M345.78,476.54c7.26,.54,14.38,2.02,21.49,3.55,13.19,2.85,25.44,8.07,37.23,14.5,1.14,.62,2.58,2.24,3.81,.86,2.28-2.56,4.88-3.02,7.63-2.93,1.91-1.94,3.84-3.87,5.79-5.77-6.79-3.7-14.28-5.38-21.77-6.9-13.92-2.83-28-3.96-42.21-3.5-1.43,.05-3.43,.41-4.11-1.41-.71-1.89,.79-3.14,2.07-4.25,4.34-3.77,9.32-6.57,14.31-9.35,5.94-3.31,11.93-6.53,18.11-9.9-6.11-2.82-6.7-5.61-2.23-10.06,1.64-1.63,3.53-3.1,5.53-4.27,18.62-10.95,37.98-20.3,58.62-26.85,2.83-.9,5.62-2.22,8.66-1.99,16.32,1.21,32.52,3.14,48.1,8.47,1.45-1.01,2.9-2.01,4.36-3,.5-5.08,3.17-8.08,9.32-10.95,5.32-2.48,10.91-3.94,16.6-5.06,2.33-1.31,4.68-2.59,7.05-3.84-7.4-.12-14.52,.05-21.63,.58-21.17,1.59-41.99,5.04-62.06,12.24-3.15,1.13-4.38,.17-4.3-3.14,.08-3.56,1.7-6.48,4.09-9,3.52-3.72,7.77-6.44,12.18-8.98,8.11-4.68,16.78-8.09,25.43-11.5-12.45,2.44-24.41,6.23-36,11.17-27.75,11.83-52.8,28.29-77.39,45.49-16.21,11.34-30.45,24.64-40.65,41.87-1.66,2.81-1.2,3.7,1.98,3.94Z"/>
  <path class="cls-1" d="M701.9,588.88c3.24,3.31,6,1.25,8.9-.72,3.2-2.17,1.79-4.56,.76-7.63-1.94,8.17-3.89,9.67-9.66,8.35Z"/>
  <path class="cls-1" d="M747.18,594.81c13.36-9.6,27.24-18.2,41.88-25.59-16.51,4.37-30.34,13.15-41.88,25.59Z"/>
  <path class="cls-1" d="M346.13,840.59c12.35-7.32,26.1-9.25,39-13.81-16.08-1.46-34.81,5.18-39,13.81Z"/>
  <path class="cls-1" d="M37.77,242.01c-5.44-.06-9.93,5.22-9.7,11.43,.16,4.29,2.51,6.27,6.71,6.23,5.39-.07,10.23-5.04,10.25-10.52,.02-4.27-2.85-7.09-7.27-7.14Z"/>
  <path class="cls-1" d="M195.25,165.17c2.83-.07,4.28-1.94,4.36-4.87-.05-3.02-2.02-4.31-4.69-4.33-2.74-.02-3.96,1.95-3.99,4.48-.03,2.81,1.4,4.8,4.32,4.72Z"/>
  <path class="cls-1" d="M179.79,164.46c2.3-.25,3-2.02,3.09-4.02-.11-2.21-1.36-3.33-3.34-3.15-2.08,.19-3.64,1.42-3.43,3.73,.19,2.08,1.31,3.7,3.68,3.44Z"/>
  <path class="cls-1" d="M374.25,365.99c2.07-.14,3.04-1.45,3.01-3.92-.52-1.88-1.77-3.47-4.27-3.23-2.04,.2-2.99,1.8-2.97,3.7,.04,2.65,1.83,3.62,4.22,3.46Z"/>
  <path class="cls-1" d="M140.21,283.6c9.6,4.67,19.47,5.54,29.33,.24-7.95,2.39-14.91,.76-20.52-5.27-8.49-9.13-10.82-20-8.06-31.97,.74-3.21,1.08-6.79,4.16-8.99,3.89-8.76,10.46-14.58,20.11-14.87,15.02-.47,23.87,8.28,28.68,22.7,3.46-22.73-13.83-47.68-42.15-43.07-18.13,2.95-30.55,17.11-33.39,37.24-2.46,17.45,6.95,36.74,21.84,43.99Z"/>
  <path class="cls-1" d="M158.26,231.89c0,2.92,1.8,4.26,4.63,4.51,2.77-.26,4.44-1.75,4.41-4.62-.03-2.7-1.25-4.75-4.25-4.75-3.07,0-4.79,1.78-4.79,4.85Z"/>
  <path class="cls-1" d="M163.11,169.79c2.01,0,3.02-1.31,3.12-2.94,.02-2.3-.73-3.86-2.76-4.01-2.17-.17-3.62,1.09-3.72,3.32-.1,2.19,1.13,3.63,3.37,3.64Z"/>
  <path class="cls-1" d="M357.83,584.98c6.01,3.26,13.16,1.15,17.99-5.31,3.5-4.69,3.48-8.45-.08-12.22,1.83,11.6-3.2,16.52-17.91,17.53Z"/>
  <path class="cls-1" d="M354.29,206.05c4.93-.12,8.45-3.81,8.35-8.73-.1-4.8-3.91-8.22-8.95-8.03-4.64,.17-8.08,3.77-8.05,8.42,.03,4.93,3.7,8.47,8.65,8.34Z"/>
  <path class="cls-1" d="M626.35,754.84c1.99-3.33,1.29-6.51-1.83-9.4,2.22,11.07,.32,12.42-17.39,11.94,8.44,3.45,16.29,2.35,19.22-2.55Z"/>
  <path class="cls-1" d="M579.36,783.43c-3.09,4.41-8.03,5.31-13.91,6.56,7.66,1.02,13.7-1.43,16.14-6.66,2.05-4.4,4.21-9.16,0-13.77,1.51,5.06,.76,9.62-2.22,13.87Z"/>
  <path class="cls-1" d="M519.71,716.2c3.97-3.86,4.53-10.98,1.29-16.49,2.22,16.89-3.89,19.55-20.53,15.59,7.31,4.56,15.33,4.7,19.24,.9Z"/>
  <path class="cls-1" d="M564.12,768.66c6.14,2.48,11.92,1.6,15.64-2.38,4.01-4.29,4.76-8.85,2.22-13.55,.24,10.43-2.13,16.41-17.86,15.93Z"/>
  <path class="cls-1" d="M604.89,764.85c-2.92,9.3-10.47,8.14-18.53,7.61,10.26,5,19.15,1.08,18.53-7.61Z"/>
  <path class="cls-1" d="M534.08,726.42c4.73-1.85,7.03-5.67,6.4-10.92-3.84,10-7.07,11.48-16.71,7.02,2.62,4.16,6.21,5.5,10.31,3.9Z"/>
  <path class="cls-1" d="M564.61,747.07c4.27-5.85,3.95-12.88-1.62-18.67,5.12,13.18,1.87,21.85-10.8,21.94,4.61,2.37,9.19,1.16,12.42-3.27Z"/>
  <path class="cls-1" d="M512.39,746.67c-5.55,3.04-11.01,3.06-16.65,.2,4.72,4.74,9.47,5.29,16.15,2.15,7.64-3.59,12.07-9.51,11.48-16.23-2.04,6.49-5.54,10.9-10.97,13.88Z"/>
  <path class="cls-1" d="M524.51,745.64c6.18,4.5,15.7,2.43,21.32-4.04,5.17-5.96,5.2-11.8,.11-17.03,4.57,14.32-5.02,24.28-21.43,21.08Z"/>
  <path class="cls-1" d="M719.37,677.97c1.13-1.13,1.8-2.89,4.14-2.5,8.36,1.38,12.07-1.89,11.6-10.4,8.19,2.05,11.5-.02,10.43-6.42-1.19,3.12-2.15,6.48-6.1,6.31-3.48-.15-5.41-2.86-7.12-5.9-.63,1.78,.29,2.79,.71,3.88,1.37,3.59,.9,7-1.66,9.71-2.3,2.43-5.37,3.27-8.48,1.33-1.01-.63-1.59-.62-2.05,.29-2.24,4.47-6.49,4.66-11.31,4.62,4.19,2.97,7.09,1.84,9.85-.92Z"/>
  <path class="cls-1" d="M705.88,719.69c.63,3.92-.81,7.36-2.7,10.71,3.39-3.01,5.85-6.22,2.7-10.71Z"/>
  <path class="cls-1" d="M622.3,779.37c-2.97,1.76-6.17,1.85-9.6,1.28-3.52-.59-4.93-3.63-7.75-6.53,2.62,8.19,2.07,12.12-2.47,14.98-7.19,4.52-13.16,1.28-18.82-3.81,1.55,3.31,5.03,5.19,4.18,9.41-1.14,5.61-4.85,8.14-10.05,9.21-1.2,.25-3.27-.5-3.08,1.74,.31,3.69-2.32,5.52-5.74,7.93,3.88-.3,6.06-1.76,6.55-3.86,.79-3.42,3.1-4.18,5.82-5.04,3.67-1.16,7.08-3.43,7.51-7.26,.55-4.93,2.77-4.72,6.63-4.19,5.4,.73,10.66-2.86,11.97-7.99,.84-3.29,1.84-3.81,5.24-3.09,9.97,2.11,15.67-2.67,16.22-12.84,.05-.83,.25-1.65,.4-2.53,8.49,3.26,16.97,1.18,19.24-5.01,2.44-6.65,2.37-13.8-8.39-19.24,8.76,10.3,9.86,15.34,4.57,20.58-2.95,2.92-6.48,3.52-10.52,3.56-4.52,.04-6.89-2.79-9.89-6.87,3.57,11.49,2.94,16.63-2.01,19.58Z"/>
  <path class="cls-1" d="M699.82,715.26c1.81-2.51,.23-4.89-1.91-6.87,1.35,7.05-.26,9.26-8.24,12.09,4.43,.47,7.75-1.88,10.15-5.21Z"/>
  <path class="cls-1" d="M717.05,683.33c-3.3,4.93-6.48,8.82-12.4,8.49,5.54,2.11,10.81-1.33,12.4-8.49Z"/>
  <path class="cls-1" d="M695.62,744.34c-.03-2.73-1.57-4.96-4.28-6.31,2.2,4.45,3.94,8.7-.41,12.83-2.76,2.62-5.55,4.42-9.46,1.01,2.37,9.26,1,12.47-9.49,22.17,6.03-1.74,9.34-4.99,10.63-9.39,1.65-5.61,3.49-10.23,9.27-13.23,2.48-1.29,3.25-1.28,5.19,.04,2.42,1.65,5.06,3.08,8.17,1.11,2.82-1.78,3.85-4.39,3.84-7.5,0-1.36-.43-2.72-.66-4.08-.48,.85-.49,1.7-.48,2.54,.03,4.19-.96,8-5.87,8.28-4.87,.28-6.4-2.96-6.45-7.48Z"/>
  <path class="cls-1" d="M687.76,736.45c4.66-2.83,5.91-6.39,3.78-12.26-.15,1.84-.22,2.97-.35,4.09-.49,4.24-2.97,6.81-6.85,8.29-3.88,1.48-5.74-1.3-7.76-3.62-1.68-1.93-3.43-3.69-5.82-4.62,9.61,11.58,10.57,12.02,17,8.12Z"/>
  <path class="cls-1" d="M664.91,771.04c-4.58,3.24-8.81,1.58-15.58-6.68,2.21,7.25,5.51,10.04,11.04,10.03,4.23,0,8.39-3.51,9.61-8.08,1.3-4.86-.87-9.82-5.62-12.88,4.91,8.3,5.1,14.38,.55,17.61Z"/>
  <path class="cls-1" d="M679.89,741.03c-.9,6.43-4.09,10.51-9.88,12.49,7.47-.32,12.02-5.98,9.88-12.49Z"/>
  <path class="cls-1" d="M603.84,753.85c2.73-3.25,3.08-7.13-.38-11.98,2.09,10.66,.12,12.75-12.16,13.48,5.18,2,9.39,2.27,12.55-1.49Z"/>
  <path class="cls-1" d="M435,516.55c-1.37,2.81-.44,3.79,3.32,4.07,3.02,.23,6.03,.58,9.02,1.02-3.96-2.05-8.05-3.8-12.34-5.08Z"/>
  <path class="cls-1" d="M375.61,527.53c-3.63,2.26-7.17,4.72-10.46,7.44-2.51,2.07-3.65,1.48-4.75-1.22-1.86-4.57-3.75-9.14-6.4-13.32-5.38-8.46-12-14.75-20.78-17.16,1.61,16.17,7.16,31.4,18.97,45.04,2.61,3.01,5.61,5.71,8.55,8.41,2.1,1.93,3.68,1.63,5.32-1.06,7.84-12.91,16.52-24.99,25.86-36.42-5.58,2.19-11,5-16.3,8.3Z"/>
  <path class="cls-1" d="M403.98,583.2c-4.82,7.58-11.91,10.11-21.66,8.86,8.58,3.96,17.23,.2,21.66-8.86Z"/>
  <path class="cls-1" d="M540.29,534.33c-9.13-4.99-19.19-7.25-29.26-9.29-14.57-2.96-29.27-4.51-44.08-4.77,.2,1.74,.45,3.48,.75,5.24,17.49,3.85,33.75,10.79,49.41,19.33,1.53,.83,3.46,3.01,5.11,1.15,4.62-5.19,10.23-3.96,16-3.44,3.42,.31,9.04,2.25,9.86-.83,.83-3.1-4.47-5.56-7.8-7.38Z"/>
  <path class="cls-1" d="M499.6,486.68c29.71,8.1,57.15,20.38,82.15,38.51-2.52-2.56-4.97-5.18-7.56-7.65-6.8-6.47-13.91-12.65-20.45-19.38-6.84-7.03-5.6-14.89,2.69-19.99,2.21-1.36,4.58-2.51,6.99-3.48,8.42-3.41,17.21-5.57,26.13-7.11,11.78-2.04,23.6-3.83,35.4-5.73-44.13-3.51-85.82,5.06-125.35,24.83Z"/>
  <path class="cls-1" d="M400.8,612.7c-5.63,5.95-12.85,3.22-20.38,1.56,7.59,5.49,16.84,4.9,22.62-.83,4.93-4.9,4.56-12.87-1.45-20.88,1.62,6.82,5.03,14.01-.78,20.16Z"/>
  <path class="cls-1" d="M327.35,583.98c-4.82,7.82-11.73,9.63-20.13,9.07,8.49,3.67,18.38-.65,20.13-9.07Z"/>
  <path class="cls-1" d="M675.45,410.48c-28.41,2.14-56.33,6.76-83.27,16.42-4.23,1.52-5.87,.22-5.77-4.22,.1-4.77,2.28-8.69,5.49-12.08,4.72-4.99,10.43-8.64,16.34-12.04,1.84-1.06,3.7-2.05,5.58-3.02-2.52,.49-5.04,1.04-7.55,1.67-25.34,6.39-47.79,18.23-66.27,36.74-4.65,4.65-8.92,6.45-15.34,7.07-3.98,.39-7.76,1.19-11.36,2.33-7.75,5.18-15.43,10.46-23.07,15.81-1.97,1.38-3.92,2.79-5.85,4.22-.57,.66-1.14,1.33-1.69,2.01-9.33,11.48-14.37,23.91-15.82,37.08,1.33-.76,2.67-1.51,4.02-2.26,7.97-4.44,16.01-8.76,24.29-13.29-8.2-3.78-8.98-7.52-2.99-13.5,2.2-2.19,4.74-4.15,7.41-5.73,24.98-14.69,50.96-27.24,78.65-36.03,3.8-1.21,7.54-2.98,11.62-2.68,22.8,1.69,45.41,4.41,67.1,12.25,.96,.35,2.11,1.5,3.27,.24-.71-10.12,2.39-15.12,12.53-19.84,10.38-4.84,21.52-6.82,32.71-8.64,4.29-.7,8.81-.39,14.05-2.81-15.53-.77-29.8-.79-44.05,.28Z"/>
  <path class="cls-1" d="M428.62,591.98c-2.63,2.79-5.83,4.66-9.39,5.85-3.39,1.13-7.01,1.23-10.55,1.72,8.67,1.84,16.47-1.2,19.94-7.57Z"/>
  <path class="cls-1" d="M444.44,649.77c-3.23-2.84-5.38-6.05-3.73-10.98,1.31-3.89,2.2-8.13,.44-12.35-.67,1.95-.76,3.98-1.12,5.95-1.61,8.82-4.44,16.99-13.34,21.13-7.02,3.26-12.52,.51-14.11-7.04-.7-3.3-.71-6.74-1.04-10.12-.9,7.17-3.2,14.99,4.73,19.64,6.58,3.86,13.14,.62,22.05-9.94,5.51,8.36,11.55,10.34,18.62,6.1,7.91-4.75,12.29-14.68,10.11-24.23-.31,2.54-.34,5.15-.98,7.61-1.66,6.39-4.4,12.14-10.85,15.14-3.74,1.74-7.56,1.93-10.78-.9Z"/>
  <path class="cls-1" d="M476.69,655.74c5.34,1.07,9.39-.61,12.02-4.97-10.03,5.16-12.56,4.49-22.07-5.89,.68,5.45,4.69,9.78,10.05,10.86Z"/>
  <path class="cls-1" d="M457.44,615.06c-6,5.1-11.77,5.48-17.77,.63,5.28,6.97,14.01,6.76,17.77-.63Z"/>
  <path class="cls-1" d="M471.71,690.24c-5.22-2.34-8.72-8.28-8.64-14.35,.07-5.38,2.04-10.44,2.96-16.98-3.07,5.3-3.9,9.94-5.01,14.49-1.58,6.47-7.79,11.92-13.08,11.44-4.84-.44-7.57-4.76-7.98-12.92-.17-3.42-.03-6.85-.03-10.27-2.39,5.49-2.69,11.13-1.23,16.77,2.43,9.41,11.42,11.85,18.46,5.1,1.22-1.17,2.29-2.49,3.96-4.32,.53,1.53,.77,2.17,.97,2.81,2.43,7.77,7.78,12.22,14.92,12.4,7.03,.18,13.59-4.5,16.1-11.83,2.7-7.89,1.81-15.66-1.25-23.8-.9,2.25-.12,3.87,.06,5.53,.65,6.1,.97,12.16-1.77,17.93-3.75,7.89-11.35,11.19-18.43,8.01Z"/>
  <path class="cls-1" d="M418.4,683c5.56,3.66,11.41,3.18,17.76-1.47-13.12,4.42-22.64,.35-28-18.01-1.66,7.1,2,14.06,10.23,19.49Z"/>
  <path class="cls-1" d="M391.05,663.17c-6.29-.87-9.38-5.65-12.4-11.47-.11,6.81,2.92,11.43,8.13,13.44,6.96,2.68,15.05,.52,20.51-6-5.09,2.89-10.35,4.84-16.24,4.03Z"/>
  <path class="cls-1" d="M488.45,714.2c-8.8,3.66-15.75-.09-21.94-6.3,3.26,8.96,14.94,12.37,24.6,7.64,8.36-4.1,10.82-14.1,4.9-24.23,1.89,10,2.57,18.68-7.57,22.9Z"/>
  <path class="cls-1" d="M426.57,617.13c-2.32,.9-4.72,1.08-7.15,1.18-5.28,.22-5.9,.57-8.19,5.12-.09,.19,.16,.55,.57,1.81,1.05-6.25,5.09-5.36,9.05-5.33,4.49,.04,8.39-1.93,11.83-4.77,5.85-4.83,6.05-10.19-.4-16.96,4.65,10.33,2.69,15.68-5.71,18.94Z"/>
  <path class="cls-1" d="M661.96,750.39c2.71-4.63,1.85-8.86-1.93-12.96,2.66,11.51,1.6,13.74-7.37,15.96,4.72,1.03,7.38,.28,9.3-3Z"/>
  <path class="cls-1" d="M476.02,720.89c-2.89,6.22-6.12,12.07-13.39,14.22-7.42,2.19-12.75-1.65-18.52-7.36,3.39,7.76,9.44,11.37,16.16,10.62,8.26-.92,14.18-7.33,15.74-17.48Z"/>
  <path class="cls-1" d="M365.75,652.27c-8.36-.4-10.24-7.05-11.87-13.6,.06,11.13,4.33,16.46,12.53,16.19,8.02-.27,14.69-7.36,14.39-15.83-2.73,7.45-6.38,13.64-15.05,13.23Z"/>
  <path class="cls-1" d="M529.22,796.22c6.05,3.75,12.18,2.58,15.86-2.26,3.69-4.86,3.27-10.3-1.14-14.55,2.47,13.97-1.62,19.11-14.72,16.81Z"/>
  <path class="cls-1" d="M431.81,714.03c-8.66-.6-11.65-6.33-12.21-23.42-3.31,7.32-2.42,16.28,2.09,21,4.23,4.43,10.07,5.88,15.21,3.79,7.39-3,12.09-10.3,12.2-20.17-2.59,12.25-9.49,19.33-17.28,18.79Z"/>
  <path class="cls-1" d="M474.17,745.6c-2.93,4.87-6.89,8.9-10.45,13.25,5.18-3.15,8.86-7.43,10.45-13.25Z"/>
  <path class="cls-1" d="M524.48,769.93c4.58,4.92,11.92,5.39,17.58,1.12,6.25-4.72,7.32-11.11,2.67-18.93,1.47,17.58-4.72,22.75-20.25,17.82Z"/>
  <path class="cls-1" d="M530.26,778.23c3.1,10.92-5.15,15.61-12.24,21.31,11.04-2.54,17.98-15.12,12.24-21.31Z"/>
  <path class="cls-1" d="M521.28,763.29c-4.9,6.99-11.45,8.31-19.16,5.68,3.72,11.5,3.56,12.08-5.61,18.39,8.56-2.11,10.6-6.08,8.56-15.13,11.18-.96,13.55-2.2,16.2-8.95Z"/>
  <path class="cls-1" d="M475.19,764.49c5.33,4.58,10.83,4.56,15.72,.61,4.84-3.91,5.89-8.95,2.91-14,.48,13.61-8.37,16.8-18.63,13.39Z"/>
  <path class="cls-1" d="M490.35,741.21c6.3-3.52,9.25-10.23,6.88-15.66-1.92,15.23-11.62,19.01-26.79,9.3,5.85,8.38,12.86,10.3,19.91,6.36Z"/>
  <path class="cls-1" d="M328.14,609c2.61-6.98,1.55-11.21-4-15.27,7.19,10.52,1.97,22.2-11.3,26.01,7.27,.23,12.6-3.51,15.3-10.75Z"/>
  <path class="cls-1" d="M326.68,628.93c3.67-4.06,3.66-8.38,1.15-12.88-.58,4.28-.21,8.65-1.15,12.88Z"/>
  <path class="cls-1" d="M725.32,648.61c3.01-2.82,3.31-4.28,2.03-7.54-2.81,8.19-4.44,9.62-11.77,9.02,4.92,3.07,7.39,.72,9.74-1.48Z"/>
  <path class="cls-1" d="M328.13,653.02c-11.17,8.91-11.52,9-21.82,5.19,6.47,7.13,15.58,4.97,21.82-5.19Z"/>
  <path class="cls-1" d="M362.66,669.65c-8.69,1.77-14.07-2.61-18.17-10.11,2.35,5.85,2.49,10.72-3.73,13.82-6,2.99-12.22,1.84-19.03-4.14,4.06,12.14,19.32,9.27,23.94,1.91,1.86-2.97,2.72-2.67,5.28-1.07,5.77,3.62,14.45,2.4,19.39-2.23,2.94-2.75,3.45-4.94,2.09-9.81-.82,6.23-3.68,10.4-9.78,11.64Z"/>
  <path class="cls-1" d="M299.13,670.37c.92,9.4,6.83,15.78,14.08,16.37,6.07,.49,12.08-3.28,13.55-8.49-11.08,11.58-22.86,5.68-27.64-7.87Z"/>
  <path class="cls-1" d="M295.02,683.98c-4.26,3.38-9.38,5.04-15.38,8.2,7.37-.8,12.34-2.85,15.38-8.2Z"/>
  <path class="cls-1" d="M303.39,703.96c-5.04-.66-7.69-3.76-8.93-8.62-1.13,5.24,.04,9.02,5.17,10.66,6.22,1.99,12.55-.47,16.22-6.54-3.73,2.94-7.49,5.14-12.46,4.5Z"/>
  <path class="cls-1" d="M288.51,713.59c-.56,4.34-.39,7.82,3.73,9.69,3.87,1.76,8.2,.41,11.42-3.47-9.25,4.35-12.48,3.13-15.15-6.22Z"/>
  <path class="cls-1" d="M738.55,680.77c2.05-.91,3.89-1.12,6.31-.59,3.23,.71,6-1.01,7.08-4.6,1.05-3.47,1.38-6.6-3.64-8.87,2.67,4.19,3.81,7.82,.49,11.06-2.82,2.75-7.43-.55-10.24,3.01Z"/>
  <path class="cls-1" d="M745.61,690.08c2.29,4.12,2.68,7.9-.87,11.43-2.72,2.71-5.54,1.78-8.55,.07,.07,1.89-1.13,4.68,1.33,4.42,4.3-.45,8.32-2.15,10.61-6.55,2.06-3.95,1.06-6.89-2.53-9.38Z"/>
  <path class="cls-1" d="M725.7,713.23c1.96,2.34,3.6,4.33,5.28,6.3,2.75,3.22,5.21,2.86,8.26-1.62-6.63,4.28-8.31-4.37-13.54-4.67Z"/>
  <path class="cls-1" d="M727.65,719.15c1.36,3.48,2.19,6.9-.18,10.04-2.27,3.01-5.98,2.32-9.21,2.86,4,1.75,7.75,1.81,10.51-2,2.79-3.85,2.78-7.68-1.13-10.9Z"/>
  <path class="cls-1" d="M732.07,613.82c.21,5.47-2.58,7.6-6.47,8.8,5.98,.02,8.53-3.1,6.47-8.8Z"/>
  <path class="cls-1" d="M709.84,770.51c-4.01,1.59-7.54,.9-10.02-3.13,.73,3.15,2.3,5.46,5.76,5.47,4.32,.02,7.67-1.83,9.82-5.68,2-3.6,1.01-6.72-1.63-10.73,1.33,8.28,.14,12.46-3.93,14.06Z"/>
  <path class="cls-1" d="M743.29,615.6c1.61-2.42,2.41-4.78-.13-7.95,.84,5.92-1.18,9.23-7.15,9.9,3.32,1.14,5.57,.62,7.27-1.95Z"/>
  <path class="cls-1" d="M734.83,633.46c1.12-1.92,1.77-3.87-.45-5.93-1.26,7.01-1.99,7.79-9.63,9.9,5.17,.46,8.28-.88,10.08-3.97Z"/>
  <path class="cls-1" d="M682.13,774.16c2.48,8.18,.42,12.31-7.34,15.42,5.27,.53,8.41-2.22,10.01-6.92,1.34-3.95,.46-6.36-2.66-8.5Z"/>
  <path class="cls-1" d="M666.94,777.6c4.88,7.65,4.84,8.01-1.55,16.86,3.4-2.11,6.75-4.42,6.8-9.07,.04-3.54-2.02-6.39-5.26-7.78Z"/>
  <path class="cls-1" d="M635.19,783.71c1.67,5.17,1.06,7.77-3.05,11.55-5.16,4.75-13.05,5.86-19.81,2.5,3.79,6.12,.14,9.73-3.96,13.29,3.33-.87,5.88-2.59,6.42-5.97,.52-3.25,2.21-3.37,5.04-3.32,7.23,.14,13.26-2.6,16.93-9.18,1.8-3.23,1.98-6.47-1.57-8.88Z"/>
  <path class="cls-1" d="M644.1,787.78c5.87,.07,9.17-2.54,11.13-9.07-3.06,4.53-6.44,7.55-11.13,9.07Z"/>
  <path class="cls-1" d="M550.93,800.39c9.15-1.4,15.65-13.94,9.33-21.05,2.49,9.9-1.38,16.41-9.33,21.05Z"/>
  <path class="cls-1" d="M651.46,792.91c.72,8.05-5.8,8.95-11.5,11.25,5.34,.9,10.46-1.23,12.59-4.87,1.31-2.23,2.01-4.44-1.09-6.38Z"/>
  <path class="cls-1" d="M561.88,757.56c.05,10.41-6.38,14.75-16,16.79,10.93,1.18,18.56-7.05,16-16.79Z"/>
  <path class="cls-1" d="M687.67,774.01c9.43-3.62,12.09-8.39,9.78-16.99,.41,7.75-3.74,12.88-9.78,16.99Z"/>
  <path d="M861.23,402.5c-1.18-1.03-2.41-2.01-3.67-2.94-13.55-10-28.34-17.87-43.97-23.87-64.71-24.84-130.31-27.71-196.59-10.24-47.9-16.46-96.44-16.91-145.48-2.5-30.11,8.85-57.62,23.09-82.59,41.87-15.71,11.81-31.13,23.95-45.55,37.08,6.48-13.95,15.61-26.59,26.27-38.48,13.24-14.77,27.3-28.91,38.1-45.7,2.11-3.29,4.61-4.68,8.35-5.17,14.29-1.85,27.84-6.22,40.62-12.86,3.4-1.77,6.73-3.74,9.26-6.71,2.56-3,1.94-4.66-1.89-5.15-1.89-.24-3.83-.15-5.74-.19-11.49-.24-22.99-.01-34.46-1.23-3.19-.34-4.02-1.33-2.56-4.18,.47-.92,.81-1.93,1.15-2.91,11.75-33.9,9.81-66.27-11.89-95.86-20.13-27.45-47.08-46.7-77.33-61.5-34.7-16.98-71.78-21.51-109.89-20.1-16.22,.6-32.48,1.84-48.05,6.42-24.79,7.29-43.6,23.38-59.62,43.11-8.95,11.02-15.34,23.63-22.44,35.81-7.65,13.11-19.14,17.16-33.44,12.25-4.64-1.59-8.94-3.88-12.97-6.66-4.48-3.09-9.34-5.36-14.58-6.88-6.5-1.89-11.99-.31-16.71,4.44-7.4,7.46-11.2,16.83-13.4,26.75-6.43,29.08,2.16,55.36,17.22,79.59,13.7,22.04,35.2,34.75,58.88,43.93,28.42,11.02,58.15,16.88,88.1,21.75,34.53,5.61,69.19,8.18,104.08,3.52,8.14-1.09,16.08-3.09,24.1-4.82-12.48,5.85-25.78,8.25-39.31,9.76-2.04,.23-3.85,.25-5.3,2.45-14.3,21.64-29.84,42.45-42.99,64.88-16.34,27.87-31.25,56.42-40.34,87.55-9.99,34.22-11.97,68.9,.75,102.75,15.83,42.11,48.68,66.15,89.94,80.31,3.01,1.03,2.97-.53,3.06-2.78,.56-14.28,1.5-28.54,3.98-42.63,4.02-22.88,12.67-43.41,30.96-58.82,6.64-5.59,16.15-10.7,20.95-11.14-.27,.26-.48,.57-.77,.73-28.78,15.36-43.2,40.45-48.31,71.7-5.09,31.15-4.63,62.48-2.33,93.82,.25,3.39-.36,5.05-3.71,6.08-4.48,1.37-8.88,3.12-13.17,5.01-12.21,5.38-23.66,11.97-32.34,22.43-7.04,8.47-5.06,14.52,5.69,15.57,29.22,2.87,58.08,.81,86.31-7.86,7.76-2.38,12.66-7.37,15.81-14.74,6.11-14.27,9.01-29.26,10.58-44.56,.37-3.6,1.54-4.29,4.86-3.52,7.29,1.7,14.7,2.87,21.96,4.7,4.23,1.07,5.48-.36,5.95-4.35,1.33-11.21,4.84-21.76,10.95-31.3,4.58-7.16,10.25-13.25,18.99-17.17-27.11,25.01-34.13,54.35-23.59,88.63-1.62,.25-3.48,.5-5.32,.84-10.17,1.86-19.25,6.01-26.84,13.12-3.15,2.96-5.89,6.41-4.24,11,1.55,4.33,5.61,5.31,9.78,5.7,28.29,2.64,56.37,.52,84.4-3.47,6.3-.9,9.8-4.09,11.47-10.28,3.41-12.67,5.59-25.54,6.49-38.58,.36-5.19,1.72-5.66,6.43-3.99,41.51,14.79,84.15,23.43,128.41,23.01,5.21-.05,9.85-.71,13.86-4.52,3.66-3.47,7.22-6.76,6.59-12.43,3.55,8.35-3.04,11.65-8.59,16.01,6.34,.33,11.79-.81,17.25-1.5,29.68-3.72,57.87-11.83,83.7-27.5,4.59-2.79,7.66-6.96,12.21-9.88,11.54-7.41,19.7-18.44,26.27-30.51-.61,.3-1.22,.6-1.83,.9,3.41-5.1,2.66-10.43,.87-15.86,3.63,4.27,3.1,8.99,2.03,13.79,1.14-1.74,2.06-3.69,3.46-5.18,2.23-2.38,.66-6.33,2.69-8.02,5.04-4.18,5.21-10.29,7.47-15.58,1.18-2.76,.25-4.63-2.19-6.66,3.79,1.51,4.56-.4,5.28-3.06,2.28-8.45,3.58-17.06,4.31-25.73,1.27-15.16,.76-30.24-1.91-45.29-.79-4.42-4.58-4.79-6.92-6.94-1.29-1.18-2.06,2.12-3.45,3.02-1.88,1.21-3.65,2.33-6.77,.22,3.38-.32,5.5-.79,7.21-2.93,1.93-2.41,.15-4.74,.31-7.75,2.28,3.68,4.34,6.46,8.6,8.8-3.75-10.38-2.18-21.94-13.23-27.75-3.56,6.85-7.43,8.6-13.6,5.95,3.6-.69,7,.03,9.9-2.64,3.21-2.96,1.25-6.08,.88-10.32,2.03,2.34,3.54,3.61,4.44,5.21,1.94,3.46,3.62,3.19,6.85,1.09,12.66-8.24,26.28-14.32,41.4-16.53,8.46-1.24,16.99-1.58,25.52-1.96,5.54-.25,6.5-2.32,3.51-6.89-2.96-4.51-6.1-8.91-8.99-13.47-6.34-9.98-6.72-19.97,.57-29.67,2.08-2.77,4.56-5.25,6.9-7.82,1.49-1.63,4.15-2.95,3.32-5.46-.93-2.84-4.04-2.19-6.35-2.39-10.94-.95-12.14-2.05-12.95-12.37-2.06-.1-3.62,1.16-5.25,2.08-11.82,6.68-20.7,16.4-27.86,27.73-8.02,12.69-14.06,26.43-20.49,39.95-2.73,5.74-5.68,11.38-8.54,17.06,.48-8.54,.99-16.8,.82-25.1-.04-1.97,.42-4.46-2.76-4.66-4.36-.27-6.68-3.2-8.82-6.55-2.81-4.4-5.66-8.8-8.79-12.97-3.68-4.92-7.33-9.92-13.49-14.66,1.8,6.9,3.88,12.27,4.5,17.95,1.02,9.41-1.27,17.41-10.1,22.19-2.55,1.38-2.22,2.51-1.06,4.43,.64,1.06,2.26,1.68,1.75,3.56-5.95,.01-10.53-3.71-15.86-6.07-.68,5.9-.66,11.28,.06,16.63,1.92,14.18,10.02,22.11,24.22,23.83,1.9,.23,3.83,.55,5.73,.46,3.9-.18,5.06,1.13,4.41,5.23-3.79,23.86-10.44,46.84-20.22,68.95-12.89,29.17-50.2,61.67-91.86,54.24-30.75-5.49-58.36-16.07-79.45-40.04-4.55-5.16-8.46-10.89-12.86-16.61-.45,15.18-4.01,20.75-11.94,19.09,9.71-2.71,13.98-15.42,8.05-24.75-6.91-10.87-13.78-21.8-21.26-32.28-23.85-33.41-54.66-58.2-92.69-73.91-4.46-1.84-9.29-2.92-13.36-5.8,4.6-4.54,12.98-8.29,20.7-9.01,20.03-1.88,33.36,8.38,43.47,24.27,3.56,5.6,6.1,11.74,8.59,17.87,1.48,3.62,3.01,4.42,6.37,1.64,4.42-3.65,9.17-6.95,14.04-9.98,21.29-13.25,44.05-20.8,69.51-17.02,16.64,2.47,30.78,10.68,44.48,19.82,3.8,2.54,7.61,5.05,11.54,7.66,.71-2.02,.07-3.32-.24-4.66-7.69-32.57-3.13-62.75,18.35-89.19,14.55-17.91,32.91-30.42,56.31-32.71,8.62-.84,14.35-3.25,20.58-9.49,24.79-24.82,54.91-40.72,88.92-49.29,23.37-5.89,47.15-6.86,71.1-6.04,1.73,.06,4.24,.96,4.99-1.49,.59-1.91-1.38-3.01-2.67-4.14Zm-430.05-66.27c1.62,.03,2.55,.88,2.69,2.46,.13,1.4-.62,2.27-1.99,2.52-1.61,.28-2.71-.41-2.92-2.05-.2-1.58,.65-2.57,2.21-2.93Zm-46.29,16.36c-2.74,0-4.14-1.74-4.06-4.31,.08-2.52,1.52-4.29,4.24-4.17,2.37,.11,3.66,1.63,3.91,3.85-.43,2.54-1.25,4.62-4.1,4.63Zm14.28-39.25c-.08-2.99,1.6-4.54,4.39-4.58,2.57-.04,4.07,1.53,4.36,3.9-.06,3.05-1.39,4.96-4.23,5.12-2.88,.16-4.44-1.53-4.52-4.44Zm3.66-35.5c-.09-2.65,1.38-4.15,4.11-4.33,2.59,.27,4.18,1.64,4.11,4.33-.07,2.73-1.83,4.05-4.4,4.04-2.51-.01-3.74-1.72-3.82-4.04Zm3.21,68.53c-2.43,0-3.89-1.41-3.95-3.88-.06-2.45,1.24-3.85,3.7-4.08,2.72,.11,4.23,1.47,4.24,4.19,.02,2.6-1.64,3.76-3.99,3.76Zm7.84-50.91c-.09,1.87-1.39,2.63-3.12,2.63-1.73,0-3.06-.7-3.09-2.62-.03-2.01,1.16-3.08,3.13-3.33,1.97,.24,3.18,1.27,3.08,3.32Zm-9.76-52.15c4.93,.09,8.18,3.37,8.12,8.18-.07,4.89-3.84,8.44-8.75,8.24-4.81-.2-8.06-3.7-7.88-8.49,.18-4.7,3.73-8.02,8.51-7.93Zm-9.62,83.19c2.12,.05,3.6,1.27,3.69,3.55,.08,2.17-.9,3.62-2.93,3.84-2.8-.07-4.26-1.32-4.29-3.8-.03-2.25,1.29-3.64,3.53-3.59Zm-10.91-113.05c4.74,.05,8.74,3.96,8.69,8.48-.05,4.65-3.95,8.35-8.78,8.33-4.59-.02-8.29-3.63-8.37-8.14-.08-4.68,3.86-8.71,8.45-8.66Zm-10.58,145.38c2.5-.24,3.75,1.35,4.27,3.23,.04,2.47-.94,3.78-3.01,3.92-2.39,.17-4.18-.81-4.22-3.46-.03-1.89,.92-3.5,2.97-3.7ZM34.78,259.67c-4.2,.04-6.55-1.94-6.71-6.23-.23-6.22,4.26-11.49,9.7-11.43,4.41,.05,7.28,2.87,7.27,7.14-.02,5.49-4.86,10.45-10.25,10.52Zm160.14-103.69c2.68,.02,4.64,1.31,4.69,4.33-.08,2.93-1.54,4.8-4.36,4.87-2.93,.07-4.36-1.91-4.32-4.72,.03-2.53,1.25-4.5,3.99-4.48Zm-15.38,1.32c1.98-.18,3.24,.94,3.34,3.15-.09,2-.78,3.77-3.09,4.02-2.37,.26-3.49-1.36-3.68-3.44-.21-2.32,1.34-3.55,3.43-3.73Zm-16.07,5.55c2.03,.16,2.79,1.72,2.76,4.01-.09,1.63-1.1,2.95-3.12,2.94-2.24,0-3.46-1.45-3.37-3.64,.1-2.22,1.55-3.49,3.72-3.32Zm-45.09,76.77c2.84-20.13,15.26-34.29,33.39-37.24,28.32-4.61,45.61,20.34,42.15,43.07-4.81-14.43-13.66-23.17-28.68-22.7-9.65,.3-16.22,6.12-20.11,14.87-3.08,2.2-3.42,5.78-4.16,8.99-2.76,11.97-.43,22.84,8.06,31.97,5.61,6.03,12.56,7.67,20.52,5.27-9.86,5.3-19.74,4.43-29.33-.24-14.89-7.25-24.3-26.55-21.84-43.99Zm48.93-7.82c.03,2.87-1.64,4.36-4.41,4.62-2.83-.25-4.63-1.6-4.63-4.51,0-3.07,1.72-4.85,4.79-4.85,3.01,0,4.23,2.05,4.25,4.75Zm-22.07,5.83c.87-.44,1.71-1.01,2.64-1.23,2.61-.61,4.81,.1,6.11,2.59,1.11,2.13,.42,4.03-1.1,5.66-1.64,1.74-3.68,1.88-5.67,.82-2.37-1.26-3.56-3.2-2.57-5.99,.22-.61,.4-1.23,.6-1.85Zm59.67,66.64c-.8,.6-1.63,1.37-2.02,2.26-2.75,6.3-7.47,10.91-12.99,14.65-26.23,17.76-54.83,26.6-86.56,20.75-26.1-4.81-44.58-19.5-53.63-45.02-.21-.6-.27-1.25-.63-2.94,2.64,4.78,4.55,8.7,6.88,12.36,12.22,19.23,30.07,29.92,52.42,32.15,29.4,2.94,56.8-3.37,81.13-20.81,2.52-1.81,4.89-3.97,6.88-6.35,1.74-2.08,4.23-4.36,.2-7.21-1.94-1.38-.85-4.25,1.01-5.35,2.79-1.65,5.77-.95,8.15,1.27,1.82,1.7,.77,3.02-.83,4.23Zm10.95-139.79c-3.86-.21-5.68-2.57-5.57-6.14,.11-3.61,2.27-5.85,6.02-5.79,3.68,.06,5.98,2.18,5.94,5.87-.04,3.91-2.41,5.96-6.4,6.06Zm4.63,675.9c4.74-11.1,28.7-20.96,39.12-16.7-13.57,3.94-27.45,6.66-39.12,16.7Zm125.64,.22c4.19-8.64,22.92-15.28,39-13.81-12.89,4.57-26.65,6.5-39,13.81Zm449.01-307.96c-14.24,14.5-27.49,29.87-40.65,45.36,10.14-18.14,23.77-33.21,40.65-45.36Zm-6.07,36.6c-14.63,7.39-28.52,15.99-41.88,25.59,11.53-12.44,25.37-21.22,41.88-25.59Zm-78.25,18.94c-2.9,1.97-5.66,4.04-8.9,.72,5.78,1.32,7.72-.18,9.66-8.35,1.03,3.07,2.44,5.46-.76,7.63Zm-326.36-157.43c24.59-17.2,49.63-33.66,77.39-45.49,11.59-4.94,23.55-8.73,36-11.17-8.65,3.41-17.31,6.83-25.43,11.5-4.4,2.54-8.66,5.26-12.18,8.98-2.39,2.52-4.01,5.44-4.09,9-.07,3.31,1.15,4.27,4.3,3.14,20.08-7.2,40.89-10.64,62.06-12.24,7.11-.53,14.23-.7,21.63-.58-2.36,1.25-4.71,2.53-7.05,3.84-5.69,1.12-11.28,2.58-16.6,5.06-6.15,2.87-8.82,5.87-9.32,10.95-1.46,.99-2.91,1.99-4.36,3-15.58-5.34-31.78-7.26-48.1-8.47-3.04-.23-5.83,1.1-8.66,1.99-20.64,6.55-40,15.9-58.62,26.85-1.99,1.17-3.89,2.63-5.53,4.27-4.47,4.46-3.88,7.24,2.23,10.06-6.18,3.37-12.17,6.6-18.11,9.9-4.99,2.78-9.97,5.58-14.31,9.35-1.28,1.11-2.78,2.36-2.07,4.25,.68,1.81,2.68,1.45,4.11,1.41,14.21-.46,28.28,.67,42.21,3.5,7.49,1.52,14.97,3.2,21.77,6.9-1.95,1.91-3.88,3.83-5.79,5.77-2.75-.09-5.35,.37-7.63,2.93-1.23,1.38-2.67-.23-3.81-.86-11.79-6.43-24.04-11.65-37.23-14.5-7.11-1.54-14.23-3.01-21.49-3.55-3.18-.24-3.64-1.14-1.98-3.94,10.21-17.22,24.45-30.53,40.65-41.87Zm54.29,40.11c-14.76-8.67-30.54-15.03-47.29-19.59,29.47-14.73,60.54-21.12,93.43-18.5-8.8,1.41-17.6,2.75-26.38,4.27-6.65,1.15-13.2,2.76-19.48,5.3-1.79,.73-3.56,1.58-5.21,2.59-6.18,3.79-7.1,9.66-2.01,14.9,3,3.08,6.15,6.01,9.32,8.92-.79,.7-1.58,1.41-2.37,2.11Zm-63,96.61c3.56,3.77,3.58,7.53,.08,12.22-4.83,6.46-11.98,8.57-17.99,5.31,14.72-1.01,19.74-5.93,17.91-17.53Zm-2.23,40.31c7.15-5.19,6.51-12.25,4.96-20.16,5.02,6.28,3.81,14.62-2.4,20.39-6.88,6.39-15.9,6.58-22.83,.05,6.84,2.42,13.55,4.61,20.28-.27Zm-36.3-32.39c6.71-1.06,12.34-4.9,18.62-7.05-5.59,3.94-11.19,7.83-18.62,7.05Zm10.6,19.19c3.65-4.92,4.65-10.33,2.89-16.27,3.6,5.09,3.28,10.57-.69,16.32-4.19,6.05-9.94,8.09-17.86,6.02,5.95-.23,11.77-.82,15.66-6.07Zm-3.57,23.05c3.08-4.92,6.55-8.48,5.61-13.65,2.3,5.32,.96,8.73-5.61,13.65Zm6.47,35.07c-5.81,6.5-14.12,5.39-19.31-3.13,6.41,5.16,12.43,7.33,19.31,3.13Zm-22.77-259.56c.06-1.77,.89-2.95,2.78-3.06,1.81,.36,2.79,1.46,2.82,3.24,.02,1.9-1.18,2.9-2.94,2.93-1.94,.03-2.72-1.31-2.66-3.1Zm16.13-5.05c-2.26-.13-3.43-1.31-3.41-3.61,.02-2.42,1.51-3.42,3.65-3.25,2.25,.18,3.03,1.93,3.28,3.81-.31,2.17-1.47,3.17-3.52,3.04Zm13.68-10.77c-2.16-.39-3.58-1.46-3.75-3.69-.17-2.26,1.07-3.67,3.2-3.97,2.25-.32,3.73,1.05,3.95,3.16,.25,2.36-1.26,3.78-3.41,4.49Zm-4.06-188.03c5.04-.18,8.86,3.24,8.95,8.03,.1,4.93-3.42,8.61-8.35,8.73-4.96,.12-8.62-3.41-8.65-8.34-.03-4.65,3.42-8.25,8.05-8.42Zm-27.51-18.57c4.63-.16,8.25,3.36,8.36,8.11,.11,4.87-3.2,8.38-7.96,8.45-4.59,.07-7.85-3.08-8.04-7.78-.2-4.89,3.05-8.62,7.64-8.78Zm-29.66-10.71c4.8,.06,8.11,3.47,8.02,8.28-.08,4.57-3.75,8.3-8.2,8.32-4.59,.02-7.98-3.59-7.91-8.4,.07-4.9,3.38-8.26,8.09-8.2Zm-28.6-6.05c4.09-.02,6.99,2.97,7.1,7.31,.11,4.41-3.04,7.75-7.28,7.73-3.98-.02-7.23-3.29-7.27-7.3-.04-4.24,3.32-7.72,7.45-7.74Zm-26.94,11.56c-4.14,.23-7.14-2.77-7.16-7.15-.01-3.94,2.99-6.91,6.92-6.86,3.94,.04,6.97,2.99,7.05,6.85,.08,3.76-2.96,6.95-6.82,7.16Zm6.87,96.47c5.06-36.11,39.72-58.08,74.64-47.6,27.35,8.2,42.65,37.11,34.58,65.32-7.88,27.56-28.61,43.34-57.29,43.63-36.5,.69-56.18-30.99-51.93-61.36Zm-7.64,190.26c3.39,.05,5.4,2.4,5.23,5.79-.17,3.34-2.25,5.24-5.66,5.42-3.47-.32-5.58-2.13-5.58-5.58,0-3.8,2.57-5.69,6.01-5.64Zm-52.11,95.09c4.09,.63,5.85,3.36,6.05,6.98-.31,3.82-3.75,6.65-7.41,6.12-4.07-.58-6.13-3.11-5.89-7.24,.2-3.6,3.66-6.42,7.25-5.87Zm-9.51,74.11c-2.6-.29-4.31-1.69-4.35-4.28-.04-2.87,1.87-4.5,4.62-4.54,2.53-.04,4.39,1.32,4.32,4.1-.07,2.84-1.85,4.32-4.59,4.73Zm10.81,41.63c-2.56-.01-3.84-1.56-3.83-3.97,0-2.21,1.22-3.56,4.13-3.48,1.98,.14,3.35,1.6,3.38,3.97,.03,2.26-1.43,3.49-3.68,3.47Zm-1.49-69.49c-3.98,.13-6.88-2.9-6.85-6.82,.02-3.76,3.23-6.68,7.23-6.39,4.12,.3,6.03,2.8,6.32,6.79-.39,4.07-2.67,6.28-6.69,6.41Zm10.35-85.98c.26-3.6,3.4-6.45,6.94-6.29,3.79,.17,7.04,3.59,6.56,7.27-.52,3.99-3.07,6.1-7.07,6.19-3.85,.09-6.72-3.22-6.43-7.18Zm.16,123.67c-.27-4.37,2.32-6.45,6.25-6.6,3.97-.15,6.47,1.99,6.89,6.1-.15,4.16-2.32,6.69-6.35,6.76-3.91,.07-6.53-2.06-6.79-6.27Zm10.96,53.7c-2.1,.25-3.25-1.06-3.4-2.99-.15-1.98,1-3.26,2.98-3.5,2.11-.26,3.13,.96,3.42,2.82-.09,2.09-1.03,3.44-3.01,3.67Zm9.15-146.02c-1.97-.1-3.24-1.31-3.26-3.36-.02-2.18,1-3.8,3.34-3.82,2.28-.03,3.33,1.54,3.66,3.7-.37,2.09-1.43,3.61-3.75,3.49Zm6.49-61.41c-2.77,.02-4.54-1.73-4.49-4.57,.05-3.03,1.76-4.85,4.9-4.65,2.83,.18,4.24,1.95,4.35,4.85-.34,2.75-2.09,4.35-4.77,4.37Zm7.91,69.23c2.08,.39,3.39,1.52,3.2,3.83-.17,2.09-1.75,3.07-3.52,3.09-2.29,.02-3.32-1.69-3.21-3.83,.11-2.03,1.49-2.96,3.53-3.09Zm-2.62,41.83c.13-3.94,2.32-6.21,6.26-6.03,3.59,.17,5.54,2.45,5.9,6.03-.4,3.63-2.37,6.08-5.92,6.07-3.59,0-6.38-1.86-6.24-6.07Zm11.11,31.64c-1.79-.03-2.95-1.13-3.03-2.88-.09-1.95,.98-3.35,3.01-3.47,2.03-.12,3.18,1.02,3.24,3.18-.14,1.96-1.14,3.2-3.22,3.17Zm7.09,26.07c-2.4,0-3.52-1.42-3.5-3.61,.02-2.2,1.27-3.62,3.59-3.56,2.25,.06,3.43,1.41,3.65,3.66-.37,2.08-1.39,3.5-3.74,3.5Zm1.54-76.47c-2.21,.03-3.44-1.44-3.52-3.59-.1-2.4,1.08-4.03,3.6-3.96,2.06,.06,3.52,1.19,3.66,3.52-.24,2.27-1.25,4-3.74,4.03Zm-5.64-38.28c3.08-.96,6.01-.56,9.64,1.67-4.27,2.69-6.78-.55-9.64-1.67Zm16.46-96.25c-3.33-.24-5.74-1.79-5.94-5.61-.21-3.83,1.9-5.86,5.55-6.03,3.85-.18,5.78,2.2,5.81,5.79,.03,3.26-1.46,5.68-5.42,5.85Zm18.6,165.3c-.39-5.49-3.77-9.46-8.38-12.34,6.56,.24,11.81,7.4,10.31,14.34-1.47,6.78-6.06,10.42-12.65,11.9,4.68-3.83,11.26-6.39,10.72-13.89Zm-5.86,37.92c5.28-7.77,10.44-15.49,1.62-24.33,4.06,.97,6.2,3.87,6.53,7.52,.64,7.03-2.19,12.72-8.15,16.81Zm1.41-54.19c-1.41,1.19-3.29,1.94-3.99,3.87-.81-2.33-3.19,.54-4.16-1.23,17.37-8.72,19.25-17.64,6.12-28.98,8.19,.88,12.77,8.73,9.76,16.72-1.52,4.05-4.52,6.91-7.73,9.62Zm29.7,31.31c-4.24,6.24-13.58,8.79-21.35,4.93,5.5,.72,9.74,.94,13.83-1.31,9.84-5.41,9.19-16.57,1.53-24.2-1.67-1.66-3.26-.26-4.77,.37-3.23,1.35-6.44,2.54-10.81,1.19,8.75-1.57,17.2-3.33,18.43-13.08,1.15-9.11-7.14-10.18-14.76-13.28,4.24-.05,6.67,.9,9.05,1.86,8.85,3.59,11.01,11.6,4.81,18.79-1.85,2.15-1.9,2.64,.45,4.48,6.15,4.82,7.59,14.38,3.6,20.24Zm22.63-31.67c-1.75,8.42-11.64,12.75-20.13,9.07,8.4,.55,15.31-1.26,20.13-9.07Zm-14.51,35.76c13.27-3.82,18.49-15.49,11.3-26.01,5.55,4.06,6.6,8.29,4,15.27-2.7,7.24-8.02,10.98-15.3,10.75Zm13.85,9.19c.94-4.22,.57-8.59,1.15-12.88,2.5,4.5,2.51,8.81-1.15,12.88Zm1.45,24.08c-6.25,10.16-15.35,12.33-21.82,5.19,10.31,3.8,10.65,3.72,21.82-5.19Zm-33.11,30.96c-3.04,5.35-8.01,7.4-15.38,8.2,6-3.16,11.13-4.82,15.38-8.2Zm-2.78,39.3c-4.13-1.87-4.29-5.35-3.73-9.69,2.68,9.34,5.91,10.57,15.15,6.22-3.22,3.88-7.55,5.23-11.42,3.47Zm7.39-17.28c-5.13-1.64-6.3-5.41-5.17-10.66,1.24,4.86,3.89,7.96,8.93,8.62,4.97,.65,8.73-1.56,12.46-4.5-3.66,6.07-9.99,8.53-16.22,6.54Zm13.58-19.26c-7.25-.59-13.16-6.97-14.08-16.37,4.78,13.56,16.56,19.46,27.64,7.87-1.47,5.22-7.49,8.99-13.55,8.49Zm57.14-18.92c-4.94,4.63-13.62,5.84-19.39,2.23-2.55-1.6-3.41-1.89-5.28,1.07-4.62,7.36-19.89,10.22-23.94-1.91,6.81,5.98,13.03,7.13,19.03,4.14,6.22-3.1,6.08-7.96,3.73-13.82,4.09,7.5,9.48,11.89,18.17,10.11,6.1-1.24,8.96-5.41,9.78-11.64,1.36,4.88,.85,7.06-2.09,9.81Zm-3.94-12.96c-8.2,.27-12.47-5.06-12.53-16.19,1.63,6.55,3.51,13.2,11.87,13.6,8.67,.41,12.32-5.78,15.05-13.23,.3,8.47-6.37,15.56-14.39,15.83Zm70.48,60.54c-5.14,2.09-10.98,.63-15.21-3.79-4.51-4.72-5.4-13.68-2.09-21,.56,17.09,3.55,22.83,12.21,23.42,7.79,.54,14.7-6.54,17.28-18.79-.11,9.87-4.81,17.16-12.2,20.17Zm7.22,12.35c5.76,5.71,11.09,9.56,18.52,7.36,7.27-2.15,10.5-8,13.39-14.22-1.56,10.15-7.49,16.56-15.74,17.48-6.72,.75-12.78-2.86-16.16-10.62Zm53.12-2.2c2.36,5.42-.59,12.13-6.88,15.66-7.05,3.95-14.06,2.02-19.91-6.36,15.18,9.71,24.88,5.93,26.79-9.3Zm-33.52,33.3c3.56-4.35,7.52-8.38,10.45-13.25-1.59,5.82-5.27,10.09-10.45,13.25Zm27.2,6.25c-4.89,3.95-10.39,3.97-15.72-.61,10.26,3.41,19.11,.23,18.63-13.39,2.98,5.05,1.93,10.09-2.91,14Zm5.61,22.25c9.17-6.31,9.33-6.89,5.61-18.39,7.7,2.62,14.25,1.31,19.16-5.68-2.65,6.75-5.02,7.98-16.2,8.95,2.03,9.05,0,13.02-8.56,15.13Zm21.5,12.18c7.09-5.7,15.34-10.39,12.24-21.31,5.74,6.19-1.19,18.76-12.24,21.31Zm26.7-47.43c4.65,7.83,3.58,14.22-2.67,18.93-5.65,4.27-12.99,3.8-17.58-1.12,15.53,4.93,21.72-.24,20.25-17.82Zm.35,41.86c-3.67,4.84-9.8,6.01-15.86,2.26,13.1,2.3,17.19-2.84,14.72-16.81,4.41,4.25,4.83,9.69,1.14,14.55Zm.8-19.62c9.63-2.04,16.05-6.38,16-16.79,2.55,9.74-5.07,17.97-16,16.79Zm5.05,26.04c7.95-4.64,11.82-11.15,9.33-21.05,6.32,7.11-.18,19.65-9.33,21.05Zm85.84-7.8c-3.67,6.57-9.7,9.32-16.93,9.18-2.83-.06-4.52,.07-5.04,3.32-.54,3.38-3.08,5.1-6.42,5.97,4.1-3.56,7.75-7.17,3.96-13.29,6.76,3.36,14.65,2.25,19.81-2.5,4.11-3.78,4.72-6.39,3.05-11.55,3.56,2.41,3.37,5.65,1.57,8.88Zm15.78,6.71c-2.13,3.64-7.25,5.77-12.59,4.87,5.7-2.3,12.22-3.2,11.5-11.25,3.1,1.94,2.4,4.15,1.09,6.38Zm-8.45-11.52c4.69-1.52,8.06-4.53,11.13-9.07-1.96,6.53-5.26,9.13-11.13,9.07Zm21.29,6.69c6.39-8.85,6.43-9.2,1.55-16.86,3.23,1.39,5.3,4.25,5.26,7.78-.05,4.66-3.4,6.96-6.8,9.07Zm19.4-11.81c-1.6,4.7-4.74,7.46-10.01,6.92,7.76-3.11,9.82-7.24,7.34-15.42,3.13,2.14,4,4.55,2.66,8.5Zm2.87-8.64c6.04-4.1,10.18-9.23,9.78-16.99,2.31,8.6-.34,13.37-9.78,16.99Zm27.73-6.84c-2.15,3.85-5.49,5.7-9.82,5.68-3.46-.02-5.03-2.33-5.76-5.47,2.48,4.03,6,4.71,10.02,3.13,4.06-1.61,5.26-5.78,3.93-14.06,2.64,4.01,3.64,7.13,1.63,10.73Zm13.38-37.12c-2.76,3.81-6.51,3.75-10.51,2,3.23-.54,6.94,.15,9.21-2.86,2.37-3.14,1.54-6.56,.18-10.04,3.9,3.22,3.92,7.04,1.13,10.9Zm2.21-10.52c-1.68-1.96-3.32-3.96-5.28-6.3,5.22,.3,6.91,8.96,13.54,4.67-3.05,4.48-5.51,4.84-8.26,1.62Zm17.17-20.07c-2.29,4.4-6.31,6.1-10.61,6.55-2.46,.26-1.26-2.54-1.33-4.42,3,1.71,5.83,2.64,8.55-.07,3.54-3.53,3.15-7.31,.87-11.43,3.59,2.49,4.59,5.43,2.53,9.38Zm.64-21.7c3.33-3.24,2.19-6.87-.49-11.06,5.01,2.28,4.68,5.41,3.64,8.87-1.08,3.59-3.85,5.3-7.08,4.6-2.42-.53-4.26-.32-6.31,.59,2.81-3.55,7.42-.26,10.24-3.01Zm-5.63-70.11c2.53,3.17,1.74,5.53,.13,7.95-1.71,2.57-3.96,3.09-7.27,1.95,5.97-.67,7.99-3.98,7.15-9.9Zm-11.08,6.18c2.06,5.71-.48,8.82-6.47,8.8,3.89-1.2,6.67-3.34,6.47-8.8Zm2.31,13.71c2.22,2.06,1.56,4.01,.45,5.93-1.8,3.09-4.91,4.43-10.08,3.97,7.64-2.11,8.37-2.89,9.63-9.9Zm-7.04,13.54c1.27,3.26,.98,4.72-2.03,7.54-2.35,2.2-4.82,4.55-9.74,1.48,7.33,.6,8.96-.83,11.77-9.02Zm-6.51,33.21c.45-.91,1.04-.92,2.05-.29,3.11,1.95,6.18,1.1,8.48-1.33,2.57-2.71,3.03-6.11,1.66-9.71-.42-1.09-1.34-2.1-.71-3.88,1.71,3.04,3.65,5.75,7.12,5.9,3.95,.17,4.92-3.19,6.1-6.31,1.06,6.39-2.24,8.47-10.43,6.42,.47,8.51-3.23,11.79-11.6,10.4-2.35-.39-3.01,1.37-4.14,2.5-2.76,2.76-5.66,3.89-9.85,.92,4.82,.04,9.07-.14,11.31-4.62Zm-3.79,9.06c-1.59,7.16-6.86,10.6-12.4,8.49,5.93,.33,9.1-3.56,12.4-8.49Zm-11.17,36.36c3.15,4.49,.69,7.71-2.7,10.71,1.89-3.35,3.33-6.79,2.7-10.71Zm-3.81,32.12c4.91-.28,5.91-4.09,5.87-8.28,0-.84,0-1.68,.48-2.54,.23,1.36,.66,2.72,.66,4.08,0,3.11-1.03,5.72-3.84,7.5-3.1,1.96-5.74,.54-8.17-1.11-1.94-1.33-2.71-1.33-5.19-.04-5.78,3-7.62,7.62-9.27,13.23-1.3,4.4-4.61,7.65-10.63,9.39,10.49-9.7,11.86-12.91,9.49-22.17,3.9,3.4,6.69,1.61,9.46-1.01,4.35-4.13,2.61-8.38,.41-12.83,2.7,1.35,4.25,3.57,4.28,6.31,.05,4.52,1.58,7.75,6.45,7.48Zm-4.16-43.43c2.14,1.98,3.72,4.37,1.91,6.87-2.4,3.34-5.72,5.68-10.15,5.21,7.98-2.83,9.59-5.04,8.24-12.09Zm-21.33,24.56c2.02,2.31,3.88,5.1,7.76,3.62,3.88-1.48,6.36-4.05,6.85-8.29,.13-1.12,.19-2.25,.35-4.09,2.13,5.87,.88,9.44-3.78,12.26-6.43,3.9-7.39,3.46-17-8.12,2.39,.94,4.14,2.7,5.82,4.62Zm3.31,8.08c2.14,6.51-2.41,12.17-9.88,12.49,5.79-1.98,8.98-6.06,9.88-12.49Zm-9.91,25.29c-1.22,4.57-5.39,8.07-9.61,8.08-5.54,.01-8.84-2.78-11.04-10.03,6.77,8.26,11.01,9.92,15.58,6.68,4.55-3.22,4.36-9.31-.55-17.61,4.75,3.06,6.92,8.02,5.62,12.88Zm-9.95-28.89c3.78,4.09,4.65,8.32,1.93,12.96-1.92,3.28-4.58,4.03-9.3,3,8.96-2.22,10.03-4.44,7.37-15.96Zm-25.82,29.23c4.04-.04,7.57-.64,10.52-3.56,5.29-5.24,4.19-10.28-4.57-20.58,10.76,5.44,10.83,12.59,8.39,19.24-2.27,6.18-10.75,8.26-19.24,5.01-.14,.88-.35,1.7-.4,2.53-.55,10.17-6.25,14.94-16.22,12.84-3.41-.72-4.4-.2-5.24,3.09-1.31,5.12-6.58,8.72-11.97,7.99-3.86-.52-6.07-.74-6.63,4.19-.43,3.83-3.84,6.1-7.51,7.26-2.72,.86-5.02,1.62-5.82,5.04-.49,2.1-2.67,3.55-6.55,3.86,3.41-2.41,6.05-4.24,5.74-7.93-.19-2.24,1.88-1.49,3.08-1.74,5.19-1.08,8.91-3.6,10.05-9.21,.85-4.22-2.62-6.1-4.18-9.41,5.66,5.1,11.63,8.34,18.82,3.81,4.54-2.86,5.09-6.79,2.47-14.98,2.83,2.9,4.23,5.94,7.75,6.53,3.42,.57,6.63,.49,9.6-1.28,4.95-2.94,5.58-8.09,2.01-19.58,3.01,4.09,5.38,6.91,9.89,6.87Zm-9.68-21.22c3.11,2.88,3.81,6.06,1.83,9.4-2.92,4.9-10.78,6-19.22,2.55,17.71,.48,19.61-.87,17.39-11.94Zm-21.07-3.58c3.46,4.86,3.12,8.73,.38,11.98-3.16,3.77-7.37,3.5-12.55,1.49,12.28-.73,14.25-2.82,12.16-13.48Zm1.43,22.98c.63,8.69-8.27,12.61-18.53,7.61,8.05,.53,15.6,1.69,18.53-7.61Zm-23.31,18.48c-2.44,5.23-8.47,7.68-16.14,6.66,5.88-1.25,10.82-2.16,13.91-6.56,2.98-4.24,3.73-8.81,2.22-13.87,4.22,4.61,2.06,9.37,0,13.77Zm.41-30.61c2.53,4.7,1.78,9.27-2.22,13.55-3.72,3.98-9.5,4.86-15.64,2.38,15.73,.48,18.1-5.51,17.86-15.93Zm-18.99-24.33c5.57,5.78,5.89,12.82,1.62,18.67-3.24,4.43-7.81,5.64-12.42,3.27,12.67-.09,15.92-8.76,10.8-21.94Zm-17.06-3.84c5.1,5.23,5.06,11.07-.11,17.03-5.62,6.48-15.14,8.55-21.32,4.04,16.41,3.21,26-6.76,21.43-21.08Zm-5.46-9.06c.63,5.25-1.66,9.07-6.4,10.92-4.1,1.6-7.69,.25-10.31-3.9,9.64,4.46,12.86,2.98,16.71-7.02Zm-28.58,33.52c-6.68,3.14-11.43,2.59-16.15-2.15,5.64,2.86,11.1,2.84,16.65-.2,5.44-2.97,8.94-7.39,10.97-13.88,.59,6.72-3.84,12.64-11.48,16.23Zm9.11-49.32c3.24,5.51,2.68,12.63-1.29,16.49-3.91,3.8-11.92,3.66-19.24-.9,16.64,3.96,22.75,1.3,20.53-15.59Zm-29.89,15.82c-9.66,4.73-21.34,1.32-24.6-7.64,6.18,6.22,13.14,9.96,21.94,6.3,10.14-4.22,9.46-12.91,7.57-22.9,5.91,10.13,3.45,20.14-4.9,24.23Zm.79-51.22c-.18-1.66-.96-3.28-.06-5.53,3.07,8.13,3.95,15.9,1.25,23.8-2.51,7.33-9.07,12.01-16.1,11.83-7.14-.18-12.49-4.63-14.92-12.4-.2-.64-.44-1.27-.97-2.81-1.66,1.83-2.74,3.15-3.96,4.32-7.04,6.75-16.03,4.32-18.46-5.1-1.45-5.63-1.16-11.28,1.23-16.77,0,3.42-.14,6.85,.03,10.27,.4,8.17,3.14,12.48,7.98,12.92,5.29,.48,11.51-4.97,13.08-11.44,1.11-4.54,1.94-9.18,5.01-14.49-.92,6.53-2.89,11.6-2.96,16.98-.07,6.07,3.43,12.01,8.64,14.35,7.08,3.18,14.68-.12,18.43-8.01,2.74-5.76,2.42-11.83,1.77-17.93Zm-3.2-13.54c-2.63,4.37-6.68,6.04-12.02,4.97-5.36-1.08-9.38-5.41-10.05-10.86,9.51,10.38,12.04,11.05,22.07,5.89Zm-22.64-15.23c.64-2.45,.67-5.07,.98-7.61,2.18,9.55-2.2,19.48-10.11,24.23-7.07,4.24-13.11,2.26-18.62-6.1-8.91,10.56-15.47,13.8-22.05,9.94-7.93-4.65-5.63-12.47-4.73-19.64,.33,3.38,.34,6.82,1.04,10.12,1.59,7.55,7.08,10.3,14.11,7.04,8.91-4.13,11.74-12.3,13.34-21.13,.36-1.98,.46-4,1.12-5.95,1.76,4.22,.87,8.46-.44,12.35-1.65,4.92,.5,8.14,3.73,10.98,3.23,2.83,7.04,2.65,10.78,.9,6.44-3,9.18-8.75,10.85-15.14Zm-8.63-20.47c-3.76,7.39-12.49,7.6-17.77,.63,6,4.86,11.78,4.48,17.77-.63Zm-24.76,.09c-3.44,2.83-7.34,4.81-11.83,4.77-3.95-.04-8-.92-9.05,5.33-.41-1.26-.67-1.62-.57-1.81,2.29-4.55,2.91-4.9,8.19-5.12,2.42-.1,4.82-.28,7.15-1.18,8.4-3.25,10.36-8.61,5.71-18.94,6.45,6.77,6.26,12.13,.4,16.96Zm-13.45-17.33c3.56-1.19,6.76-3.06,9.39-5.85-3.47,6.37-11.27,9.41-19.94,7.57,3.53-.49,7.16-.59,10.55-1.72Zm-11.07,65.69c5.36,18.37,14.87,22.44,28,18.01-6.35,4.65-12.21,5.13-17.76,1.47-8.23-5.43-11.89-12.39-10.23-19.49Zm-21.38,1.62c-5.22-2.01-8.25-6.63-8.13-13.44,3.02,5.82,6.11,10.6,12.4,11.47,5.89,.81,11.16-1.14,16.24-4.03-5.45,6.53-13.55,8.69-20.51,6Zm16.25-51.71c-5.77,5.73-15.03,6.32-22.62,.83,7.52,1.66,14.75,4.4,20.38-1.56,5.81-6.15,2.4-13.33,.78-20.16,6.01,8.01,6.39,15.98,1.45,20.88Zm.94-30.23c-4.43,9.06-13.07,12.82-21.66,8.86,9.74,1.25,16.84-1.28,21.66-8.86Zm-37.92-27.54c-1.64,2.7-3.21,2.99-5.32,1.06-2.95-2.7-5.94-5.4-8.55-8.41-11.81-13.64-17.36-28.87-18.97-45.04,8.78,2.41,15.4,8.71,20.78,17.16,2.66,4.18,4.54,8.75,6.4,13.32,1.1,2.7,2.24,3.29,4.75,1.22,3.29-2.72,6.83-5.18,10.46-7.44,5.3-3.3,10.73-6.11,16.3-8.3-9.34,11.43-18.02,23.52-25.86,36.42Zm72.26-35.03c-3.76-.28-4.69-1.26-3.32-4.07,4.3,1.28,8.39,3.03,12.34,5.08-2.99-.43-6-.79-9.02-1.02Zm109.77,21.09c-.82,3.08-6.44,1.14-9.86,.83-5.77-.52-11.38-1.75-16,3.44-1.65,1.86-3.59-.31-5.11-1.15-15.66-8.54-31.92-15.48-49.41-19.33-.3-1.76-.55-3.5-.75-5.24,14.81,.26,29.51,1.81,44.08,4.77,10.07,2.04,20.13,4.3,29.26,9.29,3.32,1.82,8.62,4.27,7.8,7.38Zm41.47-74.13c-8.92,1.54-17.71,3.7-26.13,7.11-2.41,.98-4.78,2.13-6.99,3.48-8.3,5.09-9.53,12.96-2.69,19.99,6.54,6.72,13.65,12.9,20.45,19.38,2.6,2.47,5.05,5.1,7.56,7.65-25-18.14-52.44-30.42-82.15-38.51,39.54-19.77,81.23-28.33,125.35-24.83-11.8,1.9-23.62,3.69-35.4,5.73Zm115.9-54.58c-11.19,1.82-22.34,3.8-32.71,8.64-10.14,4.73-13.24,9.73-12.53,19.84-1.16,1.26-2.31,.11-3.27-.24-21.68-7.85-44.3-10.56-67.1-12.25-4.08-.3-7.82,1.47-11.62,2.68-27.69,8.79-53.67,21.34-78.65,36.03-2.67,1.57-5.22,3.54-7.41,5.73-5.99,5.98-5.21,9.72,2.99,13.5-8.29,4.53-16.32,8.85-24.29,13.29-1.34,.75-2.68,1.5-4.02,2.26,1.45-13.17,6.49-25.6,15.82-37.08,.56-.68,1.12-1.35,1.69-2.01,1.93-1.43,3.87-2.84,5.85-4.22,7.64-5.35,15.32-10.64,23.07-15.81,3.6-1.14,7.38-1.95,11.36-2.33,6.42-.63,10.69-2.42,15.34-7.07,18.48-18.5,40.93-30.35,66.27-36.74,2.51-.63,5.03-1.18,7.55-1.67-1.88,.97-3.74,1.97-5.58,3.02-5.91,3.41-11.62,7.06-16.34,12.04-3.21,3.39-5.38,7.31-5.49,12.08-.1,4.44,1.54,5.73,5.77,4.22,26.94-9.66,54.86-14.28,83.27-16.42,14.25-1.07,28.52-1.05,44.05-.28-5.24,2.42-9.76,2.11-14.05,2.81Z"/>
  <path d="M224.42,798.72c4.31-17.06,7.73-34.24,10.6-51.57,.46-2.81-.96-3.56-2.96-4.56-14.71-7.4-28.2-16.54-39.58-28.56-4.25-4.48-8.33-9.12-12.9-14.15-.4,1.66-.74,2.78-.92,3.92-3.91,24.87-4.35,49.9-2.94,74.96,.29,5.1-1.21,6.21-6.05,6.73-16.2,1.74-29.45,9.08-38.55,22.89-3.56,5.41-1.94,9.59,4.1,11.91,1.77,.68,3.66,1.22,5.54,1.43,18.91,2.14,37.8,2.24,56.76,.12,14.53-1.63,23.21-8.51,26.9-23.12Zm-67.78,3.51c-6.58,2.3-12.66,5.6-18.19,10.25,2.15-9.61,19.95-17.69,37.8-16.5-6.54,2.07-13.13,3.99-19.6,6.24Z"/>
  <path d="M371.26,180.4c17.55,12.46,33.65,26.46,45.62,44.65,4.17,6.34,4.26,6.36,8.24-.29,17.5-29.19,32.43-59.61,43.86-91.69,5.73-16.09,10.44-32.47,12.06-49.23-.32-3.04,1.19-6.6-1.74-8.05-3.34-1.65-5.26,1.83-7.19,3.86-4.21,4.4-8.21,9-12.25,13.57-26.8,30.32-54.56,59.6-88.57,82.14-2.84,1.88-3.03,2.92-.03,5.05Zm56.43-33.68c4.41,.11,8.2,4.25,7.95,8.68-.25,4.34-4.13,7.91-8.33,7.67-4.7-.27-8.11-3.96-7.97-8.63,.12-4.1,4.15-7.83,8.35-7.72Zm-8.44,31.79c2.81,.16,4.53,1.86,4.33,4.82-.2,3.01-1.97,4.7-4.95,5.06-3.04-.52-4.86-2.11-4.62-5.29,.24-3.13,2.21-4.75,5.23-4.58Z"/>
  <path d="M199.73,140.98c18.7-2.36,37.45-3.4,56.28-2.25,2.96,.18,3.43-1.29,4.1-3.44,10.99-35.17,14.24-71.22,12.36-107.85-.16-3.12-.61-6.25-1.85-9.18-.98-2.31-2.2-4.48-5.09-4.62-2.94-.14-4.33,1.88-5.28,4.25-1.76,4.36-3.58,8.7-5.13,13.13-11.02,31.52-24.95,61.59-43.95,89.18-4.6,6.68-9.07,13.46-13.87,20.6,1.18,.09,1.82,.25,2.43,.17Zm50.88-24.62c-1.93,.09-2.92-.99-3.01-2.81-.1-1.85,.95-3.06,2.74-3.13,1.8-.07,2.8,1.13,3.1,2.95-.08,1.78-.93,2.9-2.83,3Zm-5.19-29.37c4.31-.13,7.4,2.78,7.41,6.95,0,4-2.79,6.87-6.83,7-4.2,.13-7.41-2.87-7.44-6.96-.02-3.93,2.87-6.88,6.86-7Z"/>
  <path d="M318.46,151.67c2.64,1.04,3.5-.57,4.45-2.2,13.4-23.14,25.25-46.91,29.91-73.59,.9-5.16,1.28-10.43,.15-15.58-1.15-5.25-4.78-6.26-8.73-2.63-3.1,2.85-5.46,6.3-7.71,9.83-10.13,15.87-20.92,31.24-33.79,45.05-8.77,9.42-18.2,18.12-28.7,26.61,1.27,.6,1.7,.89,2.17,1,14.28,3.14,28.6,6.13,42.26,11.5Zm4.22-30.91c.06,1.91-1.19,2.69-2.73,2.92-1.99-.32-3.04-1.36-3.02-3.14,.01-1.8,1.04-2.99,2.9-2.87,1.78,.11,2.79,1.34,2.85,3.1Zm-6.6-13.59c1.61-.06,2.38,1.21,2.56,2.88,.01,1.52-.74,2.63-2.36,2.79-1.6,.16-2.74-.65-2.78-2.36-.04-1.72,.69-3.24,2.58-3.31Z"/>
  <path d="M434.95,286.32c12.9-13.31,23.97-27.97,32.61-44.42,2.83-5.4,5.45-10.91,6.8-16.88,.57-2.52,1.16-5.37-.95-7.43-2.32-2.26-5.02-.82-7.3,.25-13.22,6.2-26.36,12.56-39.55,18.81-1.93,.92-2.51,2.09-1.7,4.13,6.15,15.47,7.89,31.54,6.07,48.06,2.14,.05,3-1.46,4.03-2.52Zm23.69-51.95c1.86,.08,2.96,1.24,2.82,3.05-.14,1.85-1.67,2.46-3.1,2.78-2.04-.29-3.15-1.36-3-3.18,.15-1.82,1.49-2.73,3.28-2.66Zm-20.66,6.14c2.6,.17,4.05,1.51,4.13,3.87,.09,2.66-1.52,4.19-4.12,4.22-2.17,.03-3.58-1.35-3.7-3.5-.15-2.59,1.29-4.12,3.7-4.59Z"/>
  <path d="M335.22,154.35c-2.48,2.17-1.68,2.85,.86,4.15,6.49,3.33,12.86,6.9,19.09,10.7,2.46,1.5,3.9,1.22,5.76-.77,3.97-4.25,6.83-9.21,9.46-14.3,7.29-14.1,13.33-28.66,15.68-43.81-.05-2.77,.43-5.11-1.95-6.2-2.21-1.01-4.08,.2-5.66,1.63-1.41,1.28-2.76,2.67-3.89,4.2-11.86,15.91-24.33,31.29-39.35,44.4Z"/>
  <path d="M257,753.06c-5.57-1.98-11.1-4.12-16.5-6.53-3.05-1.36-3.59-.34-3.53,2.44,.1,4,.03,8.01,.03,12.02,.06,0,.12,0,.18,0,0,2.61-.13,5.23,.02,7.84,.96,16.39,.22,17.4,18.98,16.55,.17,0,.35-.05,.52-.04,3.02,.17,3.74-1.32,3.64-4.18-.27-7.83-.32-15.67-.25-23.51,.02-2.46-.71-3.73-3.1-4.58Z"/>
  <path d="M195.5,139.15c2.49-9.41,4.97-18.82,4.61-28.67-.08-2.13,.21-4.95-2.69-5.57-3.13-.67-4.23,1.92-5.03,4.22-4.05,11.62-8.1,23.23-14,35.12,5.4-1.05,9.79-1.94,14.19-2.74,1.47-.27,2.48-.67,2.92-2.37Z"/>
  <path d="M332.7,277.01c-.13-2.37-.16-4.29-.35-6.2-2.49-25.39-27.63-38.88-47.94-25.73-23.35,15.12-25.56,51.35-4.23,69.23,11.48,9.62,23.56,9.66,34.93-.12,11.48-9.87,17.17-22.53,17.58-37.18Zm-44.68-14.77c-.49,3.02-2.47,4.96-5.85,4.53-3.59-.45-4.78-2.89-4.9-5.75,.82-3.38,2.18-5.76,5.68-5.25,3.58,.52,5.67,2.78,5.07,6.47Zm7.61-6.82c-3.46-.4-6.08-1.99-6.26-6.02-.17-3.72,1.96-6.14,5.45-6.27,3.7-.14,6.13,2.33,6.43,6.08,.29,3.66-1.63,5.84-5.62,6.21Zm16.81,22.4c.17-2.07,1.6-3.03,3.54-2.92,1.9,.1,3.35,1.04,3.16,3.23-.19,2.11-1.35,3.47-3.67,3.72-2.02-.52-3.22-1.83-3.03-4.03Zm-9.2,14.93c.04-4.3,3.75-7.28,9.03-7.24,4.32,.03,8.17,3.24,8.35,6.96,.2,4.16-3.82,7.81-8.61,7.84-5.04,.03-8.81-3.22-8.77-7.56Z"/>
</svg>