<?xml version="1.0" encoding="UTF-8"?>
<svg id="Layer_1" data-name="Layer 1" xmlns="http://www.w3.org/2000/svg" viewBox="0 0 864 864">
  <path d="M343.37,10c6.39-3.5,13.22-5.61,20.52-5.62,3.64,0,7.63,.22,9.56,4.12,1.99,4.01,.93,7.56-2.04,10.95-12.44,14.21-15.33,31.41-15.12,49.53,.02,1.86,.94,2.73,2.54,3.17,2.25,.62,4.71,.84,6.72,1.9,8.47,4.5,13.69,.64,19.34-5.75,15.92-18.01,31.9-36.09,51.94-49.8,11.74-8.03,23.88-15.44,38.31-17.72,5.8-.92,11.67-1.08,17.45-.12,6.4,1.07,8.51,5.2,5.39,10.93-5.08,9.32-12.75,16.66-19.7,24.53-15.49,17.54-29.14,36.16-34.9,59.4-.8,3.22-1.11,6.56-1.78,9.81-.76,3.66,1.93,5.09,4.27,6.58,2.63,1.67,3.45-1.25,4.69-2.42,12.04-11.35,27.18-16.7,42.33-21.97,19.54-6.8,39.24-13.14,57.84-22.43,9.25-4.62,16.77-11.49,24.85-17.65,1.78-1.36,3.61-3.81,6.08-2.03,2.69,1.93,2.3,5.09,1.35,7.82-4.2,12.15-8.89,24.08-15.42,35.25-12.32,21.06-29.56,37.3-49.14,51.39-9.35,6.73-18.54,13.69-26.83,21.75-1.33,1.29-2.52,2.34-2.08,4.64,7.84,40.42-.51,78.87-14.31,116.65-12,32.87-28.29,63.72-44.33,94.7-12.2,23.56-25.01,46.85-32.71,72.44-3.33,11.07-5.83,22.27-5.56,33.93,.05,2.21-.11,4.95,1.61,6.04,1.87,1.18,3.42-1.4,5.09-2.37,20.53-11.91,42.6-19.85,65.58-25.4,29.22-7.05,57.33-1.02,85.17,7.5,15.55,4.76,29.76,12.39,43.79,20.63-3.22,4.53-7.98,6.91-12.51,8.17-14.02,3.92-21.99,13.33-26.31,26.46-8.68,26.42-12.46,53.53-11.49,81.35,.44,12.48,.49,24.97,2.04,37.42,1.76-8.79,1.13-17.71,1.31-26.57,.45-22.33-1.1-44.78,4.13-66.82,2.65-11.18,4.69-22.56,10.45-32.76,4.39-7.78,10.38-13.64,20.32-17.25-3.67,5.52-7.33,9.3-9.79,13.93-9.29,17.44-12.77,36.45-15.07,55.72-2.86,24.03-4.04,48.19-5.19,72.36-.34,7.22,.24,14.57-1.85,22.02-5.87-25.15-22.16-41.83-43.81-53.52-21.55-11.64-44.35-17.43-69.03-9.33,35.14-7.81,62.58,7.77,88.16,28.86-6.77-3.07-13.51-6.22-20.32-9.19-7.95-3.47-16.05-6.62-23.95-10.2-12.74-5.77-25.81-4.07-38.89-2.04-4.01,.62-1.94,2.84-.7,4.59,10.51,14.87,23.12,27.54,38.31,37.75,25.06,16.83,51.49,30.24,81.68,35.03,14.27,2.26,28.56,2.24,42.91,.78-14,4.61-28.59,5.12-43.24,6.1,.78,1.91,2.33,1.17,3.47,1.26,33.98,2.86,64.16-7.36,90.51-28.16,31.85-25.14,52.76-57.64,60.88-97.71,6.68-32.99-5.98-56.45-37.22-69.23-16.76-6.86-34.29-9.72-52.44-8.32-1.51,.12-3.4-.09-4.22,1.17-3.12,4.81-4.86,1.03-6.52-1.05-17.52-21.92-21.02-46.24-12.08-72.57,4.61-13.58,10.12-26.85,13.73-40.76,5.21-20.11,5.12-40.23,.43-60.41-.37-1.6-.79-3.36-.48-4.91,.44-2.25,1.19-4.8,3.76-5.48,3.03-.8,3.48,2.12,4.34,3.89,8.89,18.39,19.49,35.75,31.33,52.35,3.11,4.36,6.76,8.24,10.83,11.77,7.33,6.36,15.92,7.97,25.25,7.28,2.11-.16,4.23-.02,6.4-.02-3.17,8.27-8.34,11.23-16.73,9.57-9.6-1.89-17.05-7.28-23.42-14.45-9.83-11.08-16.63-24.17-24.42-36.61-3.91-6.25-7.51-12.58-8.67-20.06-.34-2.2-1-4.62-3.12-6.1-1.06-.74-2.2-.9-3.29-.23-1.31,.81-.9,1.87-.38,3.04,10.74,24.16,8.71,48.4,.11,72.54-4.42,12.4-10.19,24.36-12.32,37.48-2.38,14.62-2.67,29.26,1.56,43.64,1.76,5.98,4.09,11.75,10.44,14.51,.61,.26,1.22,.58,1.86,.69,.44,.07,.93-.18,1.79-.38-2.18-3.53-4.39-6.8-6.28-10.25-7.86-14.25-6.73-29.61-5.36-44.97,.78-8.71,2.36-17.44,6.5-25.04,4.42-8.11,6.92-16.78,9.85-25.35,4.42-12.96,3.77-26.28,2.25-39.64,2.11-.48,2.24,1.24,2.79,2.24,7.52,13.61,15.6,26.77,26.74,37.9,7.08,7.07,15.14,11.79,24.81,14.23,6.26,1.58,11.13,.13,15.16-4.82,.79-.97,1.33-2.37,3.19-2.67-2.88,19.26-.15,38.15,2.68,57.02,.67,4.46,3.75,8.46,2.16,13.47-.29,.91,2.42,2.77,4.31,4.78-1.68-8.89-3.03-17.12-4.8-25.26-6.02-27.69-1.19-54.22,7.28-80.7,12.24-38.3,39.38-63.41,72.09-83.92,2.56-1.6,5.39-2.64,8.45-2.93,2.07-.2,4.08-.25,4.96,2.21-26.88,8.87-56.98,54.71-54.95,83.3,1.4,19.72,10.94,33.41,29.88,38.88,3.97,1.15,8.29,1.42,11.8,3.9,1.63,1.15,3.52,2.7,3.04,4.79-.43,1.88-2.85,1.26-4.37,1.53-7.57,1.31-13.7,5.3-19.07,10.4-17.34,16.47-28.65,36.28-32.44,60.09-1.4,8.79-.19,17.33,3.3,25.49,20.57,48.02,20.14,96.45,2.19,144.93-15.34,41.43-38.55,77.63-73.04,105.96-20.45,16.79-43.32,29.39-67.81,39.18-38.5,15.4-78.31,24.44-119.93,24.3-14.35-.05-28.69-.72-42.94-2.6-3.77-.5-5.22,.11-5.09,4.5,.32,10.34-.22,20.69-2.12,30.9-.42,2.28-.92,4.63-1.9,6.71-2.72,5.82-7.07,7.25-12.72,4.17-7.14-3.88-12.75-9.69-18.34-15.43-3.17-3.26-5.07-3.43-8.01,.47-4.61,6.12-9.83,11.79-15,17.47-3.26,3.57-5.7,3.4-8.58-.53-3.85-5.27-6.76-11.11-9.45-17.05-.53-1.17-.51-2.96-1.99-3.21-1.62-.27-1.92,1.6-2.61,2.61-3.6,5.23-6.87,10.69-10.65,15.77-5.52,7.43-9.59,6.83-12.93-1.79-1.6-4.13-2.73-8.45-4.32-13.44-3.28,4.6-4.32,9.45-7.21,13.28-3.22,4.27-4.71,4.54-8.05,.47-5.35-6.5-9.43-13.75-12.26-21.69-2.11-5.92,.04-10.76,3.98-15.1,4.6-5.06,10.21-9.1,14.45-14.56,13.25-17.07,15.42-36.8,14.06-57.4-.14-2.13-.57-4.24-1.16-6.35-.13,9.6,.33,19.21-2.01,28.71-.52-7.58-1.15-15.15-1.52-22.74-.16-3.22-1.12-3.41-3.98-2.34-22.56,8.41-45.62,14.03-69.99,11.61-.23-.02-.5,.31-1.12,.72,1.91,2.24,4.48,3.38,6.83,4.78,19.37,11.5,40.67,15.6,62.83,15.94,4.64,.07,5.99,.81,4.91,5.74-2.63,12-2.97,12.33-15.09,10.05-15.27-2.88-30.47-5.97-44.92-11.89-2.87-1.18-3.03-.05-2.78,2.38,.85,8.5,.5,17-.08,25.51-.45,6.63-3.23,12.12-7.57,17.03-6.93,7.84-15.41,13.79-23.7,19.99-2.89,2.16-5.35,.95-7.6-1.14-5.29-4.93-9.46-10.73-13.43-17.99-2.3,4.91-4.32,9.13-6.26,13.38-4.08,8.96-5.16,9.13-11.52,1.8-3.77-4.34-6.66-9.45-11.75-13.86,.38,8.47-3.33,14.79-7.2,20.96-3.4,5.41-7.34,5.68-11.02,.56-6.56-9.12-11.88-18.89-14.27-30.06-.99-4.66,.09-8.48,3.06-12.07,3.75-4.53,7.84-8.71,12.71-11.99,2.7-1.82,3.93-4.15,4.76-7.24,3.97-14.82,7.35-29.83,12.55-44.3,.97-2.72,.02-4.38-1.46-6.3-20.68-26.99-32.65-57.63-37.69-91.07-4.36-28.96-.57-57.22,7.87-85.03,1.88-6.18,1.9-6.33-4.54-5.77-11.22,.99-20.74,6.05-29.25,13.08-13.57,11.23-25.78,23.66-33.54,40.58-3.07-4.96-3.68-9.89-4.09-14.76-1.47-17.4,3.24-33.74,9.21-49.76,4.77-12.82,10.09-25.44,14.88-38.25,7.57-20.22,3.66-39.69-5.88-57.95-4.84-9.26-13.72-14.86-24.76-15.74-.66-.05-1.34-.12-1.98-.27-.28-.07-.5-.38-.74-.59,12.34-13.1,32.52-17.49,50.32-10.61,23.06,8.91,38.78,26.02,51.24,46.64,4.33,7.17,7.43,14.9,9.79,22.78,1.8,.42,2.27-.88,2.88-1.74,20.86-29.18,47.81-51.97,76.27-73.29,22.73-17.03,45.01-34.65,64.18-55.8,9-9.93,17.17-20.47,22.46-32.95,2.56-6.04,4.2-12.28,4.69-18.85,.27-3.58,.12-5.33-4.63-4.46-15.95,2.93-32.13,4.12-48.32,3.88-35.14-.53-69.93-3.72-103.86-13.83-35.34-10.53-65.19-29.37-87.35-58.9-30.21-40.27-10.67-90.02,26.62-107.8,18.6-8.87,37.25-9.46,55.7,.9,7.54,4.23,14.95,8.8,24.01,9.44,9.22,.66,17.46-1.9,25.22-6.55,1.79-1.07,2.7-2.64,3.53-4.61,5.18-12.31,10.21-24.76,19.56-34.7,6.55-6.96,13.76-12.86,24.18-12.06,2.3,.18,4.55,.96,6.85,1.31,1.45,.22,3.41,.49,3.78-1.34,.35-1.73-1.45-2.6-2.9-2.85-4.48-.75-8.98-.62-13.42,.49-1.38,.35-2.76,.72-4.28,.74,5.5-4.5,11.7-7.62,18.54-9.29,3.85-.94,6.01-3.01,7.06-6.81,6.23-22.59,21.36-38.42,39.78-51.61,1.8-1.29,3.74-4.09,6.78-1.96-2.46,1.81-5.84,2.06-7.85,4.29,.47,1.99,5.3-.92,3.27,3.43,.42,.07,.94,.34,1.24,.18,4.65-2.36,9.26-4.77,13.89-7.17-2.72-.19-5.06,.53-7.44,1.1-1.65,.4-3.38,.63-3.27-1.99Zm-84.45,144.79c.61,.52,1.15,1.39,1.83,1.52,9.11,1.71,18.05,1.18,26.24-3.42,17.2-9.66,18.71-29.6,3.19-39.82-18.13-11.94-41-4.62-48.55,15.53-4.82,12.86,1.01,23.42,14.5,26.3,.93-.04,1.86-.07,2.79-.11Zm-102.18,413.32c1.27-.15,1.61-.29,1.89-.2,.96,.29,1.9,.63,2.83,1.01,28.11,11.74,57.46,14.12,87.48,11.75,3.21-.25,4.25-1.47,4.35-4.6,.17-5.5,.34-11.06,1.32-16.45,.86-4.72-1-5.41-5.06-5.86-17.57-1.93-35.22-3.63-52.31-8.42-9.67-2.71-19.22-6.12-26.53-13.41-3.27-3.26-4.51-2.67-5.99,1.23-7.75,20.42-12.66,41.45-13.49,63.32-.56,14.77-.39,14.65,14.11,18.35,18.45,4.71,37.26,5.84,56.13,5.39,10.29-.24,20.67-.76,30.81-3.15,2.1-.49,3.21-1.05,2.9-3.56-1.02-8.27-1.88-16.57-2.63-24.87-.18-1.96-.83-2.53-2.74-2.5-11.87,.16-23.63-1.25-35.4-2.56-16.63-1.85-33.06-4.63-48.88-10.27-3.03-1.08-6.32-1.88-8.8-5.22Zm45.17,92.14c22.06,.12,40.35-2.32,58.48-6.34,3.83-.85,4.94-1.91,3.47-5.91-2.17-5.92-4.1-12.03-5.17-18.23-.89-5.17-2.85-6.33-8.08-6.34-32.31,0-64.76,.84-96.09-9.32-2.75-.89-3.17-.03-2.88,2.52,1.43,12.81,4.4,25.26,8.6,37.42,.54,1.57,1.01,2.78,3.28,3.01,13.93,1.4,27.8,3.45,38.39,3.18Zm14.08,40.27c6.69-.61,13.71-.96,20.64-1.94,13.89-1.95,27.74-4.16,40.46-10.66,2.56-1.31,3.35-2.27,1.78-5.21-3.62-6.75-6.76-13.77-9.95-20.75-.98-2.14-1.71-3.43-4.68-3.05-18.89,2.41-37.9,3.14-56.91,3.63-13.05,.34-25.95-1.91-38.95-2.4-5.17-.19-5.68,.79-3.62,5.53,4.14,9.5,8.98,18.63,14.77,27.25,1.08,1.61,2.3,2.52,4.14,3.25,10.35,4.09,21.19,4.18,32.34,4.36Zm22.39-151.82c4.67,.05,9.31-.21,13.96-.78,3.07-.38,4.2-1.74,4.72-4.58,1.1-6.06,2.19-12.15,3.85-18.07,1.18-4.18-.16-4.72-4.02-5.13-24.79-2.66-48.65-8.19-68.63-24.41-1.81-1.47-2.56-1.27-3.86,.48-6.07,8.21-10.76,17.22-15.47,26.23-.64,1.22-1.11,2.2,.34,3.44,6.47,5.56,13.15,10.71,21.23,13.85,15.42,5.98,31.47,8.45,47.89,8.98Zm-29.72,178.48c-.05,1.68,1.09,2.32,1.85,3.1,8.3,8.48,17.2,16.28,26.88,23.17,1.41,1.01,2.83,1.4,4.56,1.62,10.85,1.36,21.63,.65,32.41-.69,15.76-1.95,30.23-7.84,44.43-14.58,.8-.38,1.84-.67,1.35-1.56-.58-1.05,.15-3.15-1.79-3.1-1.92,.05-2.48-1.51-3.45-2.43-5.81-5.53-11.05-11.6-15.75-18.1-1.67-2.3-3.03-3.07-6.13-1.97-27.18,9.67-54.97,16.1-84.36,14.53Zm41.05-212.78c3.67,0,7.33-.04,10.99,.02,2.12,.04,3.24-.79,3.98-2.89,2.39-6.75,4.96-13.44,7.62-20.08,1.02-2.56,.13-3.04-2.27-3.26-20.99-1.96-39.16-10.29-54.43-24.78-2.22-2.1-3.29-1.65-5.1,.32-6.9,7.48-13.5,15.19-19.73,23.24-2.19,2.83-1.79,4.25,.68,6.42,16.69,14.63,36.27,21.24,58.25,21.02Zm117.63-379.84c-1.41,0-3.93-.21-6.41,.03-18.36,1.76-33.52,8.86-41.86,26.37-4.77,10.03-2.38,18.44,6.71,24.95,7.09,5.08,14.81,9.06,23.2,11.55,19.78,5.87,39.44-1.11,50.96-18,12.17-17.83,4.53-39.38-15.58-43.68-5.22-1.11-10.57-1.47-17.02-1.23ZM184.54,699.54c4.73,7.64,10.29,13.2,14.99,19.41,3.13,4.13,7.16,5.52,12.03,5.95,10.07,.89,20.01-.31,29.85-2.02,14.6-2.55,29.31-4.99,42.65-12.03,9-4.75,8.94-4.86,3.26-13.5q-4.15-6.31-10.92-3.8c-1.4,.52-2.84,1-4.31,1.27-28.62,5.3-57.13,12.52-87.54,4.72Zm80.65-216.49q10.19,.03,13.96-7.58c.44-.9,.77-1.88,1.35-2.68,2.03-2.79,.94-3.88-1.87-5.44-14.11-7.87-28.86-14.77-40.99-25.77-1.53-1.39-2.54-1.07-3.83,.03-5.6,4.76-11.09,9.63-16.19,14.94-1.23,1.28-1.51,2.21-.05,3.71,13.48,13.88,29.65,21.9,47.62,22.79Zm-6.73-60.99c-1.1,.7-2.12,1.24-3.01,1.95-4.17,3.32-8.15,6.91-12.5,9.98-3.46,2.45-3.11,4.33-.37,7.02,11.25,10.99,24.99,17.5,39.66,22.42,2.14,.72,2.93-.28,3.8-1.95,2.71-5.16,5.49-10.29,8.39-15.34,1.05-1.83,1.12-2.67-1.15-3.56-11.86-4.68-22.53-11.47-32.78-18.96-.65-.47-1.28-.97-2.05-1.56Zm38.99,15.48c1.49,.21,2.16-.78,2.76-1.81,3.86-6.64,7.62-13.33,11.6-19.89,1.5-2.47,.01-2.81-1.73-3.25-8.1-2.04-15.1-6.21-21.47-11.46-1.83-1.51-2.92-1.36-4.65,.08-6.16,5.12-12.39,10.18-18.78,15.01-2.53,1.91-2.6,3.44-.62,5.64,8.81,9.79,21.02,12.37,32.89,15.68Zm450.32-125.95c.45,.2,.9,.39,1.35,.59-1.03,1.86-2,3.75-3.09,5.57-8.19,13.63-11.3,28.29-9.65,44.15,1.99,19.09,14.7,34.07,33.32,38.6,1.31,.32,2.57,.85,4.47,1.5-26.67,11.04-40.1,31.85-47.39,57.59,.73-1.02,1.13-2.25,1.61-3.46,9.26-23.74,25.11-41.38,48.31-52.22,.84-.39,2.18-.34,2-1.73-.15-1.17-1.35-1.4-2.25-1.73-4.07-1.48-8.33-2.55-12.23-4.39-18.13-8.55-28.38-31.13-24.07-53.59,4.65-24.24,16.77-44.03,36.52-59.01,1.49-1.13,2.9-2.38,4.35-3.57-52.82,29.83-79.92,97.59-70.64,155.54-4.65-46.6,7.04-88.12,37.39-123.84ZM119.03,249.98c14.14,12.64,29.96,22.51,48.6,27.52,11.44,3.08,22.88,6.05,34.57,7.94,31.4,5.06,62.78,6,93.96-1.44,17.58-4.2,33.88-11.19,47.11-24.06,10.12-9.85,14.02-22,13.34-35.84-.09-1.88-.11-4.93-2.54-4.56-2.26,.34-1.67,3.42-1.29,5.25,.53,2.5,.64,4.89,.25,7.41-1.7,10.94-7.38,19.55-15.64,26.57-14.92,12.69-32.76,19.05-51.55,23.06-35.06,7.48-69.95,6.01-104.65-2.49-19.05-4.67-37.68-10.28-53.01-23.47-2.72-2.34-6.08-3.95-9.15-5.89Zm210.46,135.61c-6.02-1.65-11.62-3.33-15.6-8.05-1.22-1.45-2.27-.72-3.36,.28-5.93,5.37-11.87,10.72-17.85,16.04-1.15,1.02-1.79,1.89-.55,3.3,5.99,6.76,13.15,11.17,22.44,11.49,1.15,.04,1.91-.3,2.46-1.27,4.12-7.19,8.87-14.03,12.46-21.79Zm70,284.15c-.04-6.02-6.17-11.61-12.78-11.64-5.5-.03-13.84,8.36-13.83,13.9,.01,6.53,6.73,12.82,13.66,12.79,5.84-.02,13-8.34,12.96-15.05Zm42.39,20.13c-6.23-.35-13.98,6.97-14.47,13.66-.43,5.93,5.52,12.07,12.04,12.42,7.04,.37,13.79-6.24,14.29-13.99,.43-6.76-4.37-11.67-11.85-12.09Zm-112.17-308.13c1.87,.52,2.89-.9,3.81-2.66,2.1-3.98,4.36-7.87,6.41-11.87,1.59-3.1,4.36-6.48,4-9.43-.32-2.64-5.54-2.13-7.97-4.1-2.9-2.35-4.18-.72-5.84,1.53-3.37,4.55-6.9,8.98-10.55,13.31-3.34,3.96-3.33,6.39,.55,9.61,2.64,2.19,5.73,3.36,9.59,3.6Zm13.71,218.5c5.65,.11,11.61-6.42,11.73-12.85,.11-6.03-5.4-11.84-11.23-11.83-5.48,.01-12.64,7.29-12.69,12.91-.05,5.6,6.22,11.66,12.19,11.77Zm-262.87-10.01c1.3-.35,1.18-1.27,1.2-2.06,.45-18.47,7.42-34.94,14.99-51.42,8.68-18.89,14.67-38.62,14.18-59.81-.49-21.13-8.59-33.01-28.21-40.87-2.47-.99-4.87-2.45-8.9-2.05,2.08,.92,3.1,1.37,4.13,1.81,1.23,.53,2.47,1.02,3.69,1.56,13.14,5.79,23.62,13.85,25.14,29.53,.29,2.98,.73,5.95,1,8.94,1.89,20.67-4.73,39.52-12.76,57.97-6.74,15.47-13.32,30.95-15.51,47.88-.38,2.96-.71,5.86,1.04,8.52Zm475.41,121.58c-5.53-.04-12.8,7.14-12.73,12.57,.08,5.85,5.02,11.27,10.42,11.44,6.1,.19,12.61-6.79,12.74-13.64,.11-5.8-4.44-10.32-10.43-10.36Zm-262.73-198.33c-5.2,.11-12.32,7.49-12.23,12.67,.08,4.86,6.41,10.37,11.78,10.27,5.76-.11,11.74-6.74,11.65-12.93-.07-5.06-5.74-10.13-11.2-10.01Zm207.51,195.18c-5.73-.04-11.67,5.23-11.56,10.26,.14,6.61,4.5,11.68,9.96,11.6,5.56-.08,11.9-6.81,11.99-12.7,.07-5.1-4.48-9.11-10.39-9.15Zm-115.56-82.88c.05,5.61,5.28,11.8,10.74,12.92,2.25,.46,3.89-.39,5.34-1.89,5.7-5.88,4.7-15.14-2.06-19.67-.74-.49-2.97-.84-1.27-2.21,2.14-1.72-.52-2.83-.06-4.19-2.05-.39-4.69,.85-4.66,1.98,.1,4.25-3.5,5.09-5.63,7.24-1.62,1.64-2.34,3.58-2.41,5.82Zm230.4,95c-.03-4.66-4.6-8.94-9.54-8.93-5.47,0-12.67,7.36-12.52,12.77,.14,4.7,5.06,9.19,10.08,9.19,6.03,0,12.02-6.5,11.98-13.03Zm-36.25-227.5c-7.99-5.07-16.91-7.85-25.73-10.75-21.52-7.09-43.51-11.73-66.33-9.96-28.39,2.19-55.34,10.12-81.38,21.39-3.07,1.33-5.97,2.99-8.51,5.19-.73,.63-1.82,1.33-1.12,2.43,.92,1.44,2.12,.56,2.99-.14,7.43-5.98,16.31-8.99,25.05-12.23,21.66-8.03,43.87-13.7,67.05-14.89,22.16-1.14,43.42,3.53,64.28,10.41,7.98,2.63,15.81,5.69,23.7,8.56Zm-154.99,353.95c-.11-3.34-.58-6.61-1.28-9.88-.69-3.23-2.83-4.46-5.79-4.15-4.95,.51-9.3,2.54-12.59,6.34-2.01,2.32-1.96,4.99,.29,7.11,3.89,3.67,8.36,6.56,13.39,8.44,3.13,1.17,5.2,.04,5.65-3.42,.19-1.47,.23-2.97,.33-4.46ZM548.65,73.04c-2.65-.87-3.73,.45-4.98,1.07-18.69,9.29-37.57,18.01-58.37,21.69-5.22,.92-10.36,2.52-15.4,4.22-2.47,.84-7.47,1.2-6.47,3.9,1.25,3.39,5.44,.82,8.43,.17,15.23-3.32,29.41-11.45,45.73-9.94,1.95,.18,4.99-1.17,4.42-3.08-1.62-5.43,2.8-5.48,5.43-6.92,6.78-3.73,13.7-7.2,21.23-11.11Zm110.36,632.66c-.12-5.32-4.8-9.32-10.93-9.33-5.08,0-9.9,4.58-9.76,9.29,.18,5.98,5.13,11.26,10.51,11.22,4.84-.04,10.28-6.03,10.17-11.18ZM405.67,62.46c2.3-.83,4.81-1.68,6.05-3.96,1.14-2.08-.01-3.63-1.99-4.91-2.03-1.32,.03-2.12,.83-2.79,5.23-4.34,9.94-9.38,16.59-11.82,1.59-.58,2.8-2.28,4.1-3.55,.68-.67,1.58-1.51,.93-2.58-.63-1.03-1.72-1.54-2.97-1.58-1.42-.05-2.57,.6-3.66,1.4-15.13,11-28.06,24.05-37.61,40.26-.52,.88-1.84,1.9-.04,2.82,1.33,.69,2.2-.02,2.86-1.13,1.11-1.86,1.8-4.3,3.42-5.45,3.58-2.56,3.13-12.22,11.49-6.71ZM233.32,829.51c-.04-3.79-3-5.57-8.98-5.41-5.31,.15-11.61,5.14-11.65,9.24-.03,3.41,8.2,11.6,11.44,11.4,4.17-.26,9.25-8.69,9.19-15.23ZM82.73,429.99c18.49-2.44,33.95,4.93,48.08,15.44,13.9,10.34,25.23,23.3,34.76,37.83-8.46-32.13-53.56-61.05-82.83-53.26Zm269.17,34.08c.1-6.18-3.54-9.98-9.71-10.1-4.72-.1-8.39,3.31-8.45,7.86-.08,5.81,5.2,11.96,10.41,12.14,4.15,.14,7.65-4.34,7.74-9.9Zm-26.28,29.46c.14-4.74-4.27-8.69-10.06-9.03-4.27-.25-8.85,3.89-9.07,8.2-.24,4.67,5.18,9.83,10.54,10.04,4.33,.17,8.44-4.25,8.59-9.22Zm-174.1,335.04c3.56,5.4,6.56,9.99,9.6,14.55,.65,.97,1.33,1.93,2.12,2.79,2.97,3.25,5.06,2.83,6.25-1.44,1.39-5,.15-9.91-.91-14.81-.75-3.48-2.61-4.22-6.16-3.87-3.66,.36-6.23,3.66-10.9,2.78Zm214.9,9.66c-2.48,.5-7.91,.12-9.06,2.15-1.73,3.06,2.01,6.84,3.72,10.19,.22,.44,.5,.88,.84,1.23,2.01,2.09,3.49,5.61,6.79,5.07,2.89-.48,2.97-4.09,3.92-6.45,.72-1.79,.94-3.85,1.08-5.8,.38-5.18-.89-6.42-7.28-6.39Zm-25.82,6.88c.74-4.13-1.72-6.28-5.95-5.57-3.66,.61-9.07-1.08-10.22,4.37-.96,4.58,6.01,12.79,10.03,12.86,3.51,.06,6.06-4.55,6.14-11.66Zm-23.23-5.49c.2-7.07,.2-7.05-6.36-6.61-1.32,.09-2.66,.04-3.99-.04-3.27-.21-4.18,1.62-3.56,4.38,1.1,4.94,3.13,9.51,6.64,13.2,2.52,2.66,4.69,2.17,5.82-1.44,1-3.18,1.59-6.44,1.45-9.49Zm376.38-189.76c-.06,3.8,3.78,7.83,7.57,7.93,3.68,.1,7.84-4.16,8.03-8.24,.19-4.21-4.07-8.98-7.92-8.84-3.77,.13-7.61,4.71-7.67,9.15Zm-392.12-68.44c-.03-5.21-3.1-8.92-7.39-8.94-4-.01-6.09,2.74-6.09,8,0,5.92,2.98,10.42,7.01,10.6,3.73,.17,6.5-3.97,6.47-9.67Zm70.25-184.86c-4.09-.06-6.74,2.58-6.97,6.9-.21,4.06,3.93,7.75,8.73,7.79,4.73,.04,8.35-2.94,8.29-6.82-.06-4.13-4.74-7.8-10.05-7.87Zm357.33,211.88c-.09-3.7-3.66-7.07-7.24-6.85-3.79,.24-8.39,5.58-8.18,9.51,.18,3.5,3.57,7.01,6.72,6.97,3.93-.05,8.81-5.45,8.71-9.63Zm-42.56,72.07c-.07-4.12-2.85-6.94-6.82-6.91-4.21,.03-8.13,4.06-8.19,8.42-.05,3.84,3.46,7.78,6.93,7.78,3.75,0,8.15-5.06,8.08-9.29Zm-491.4,156.76c-.06-1.39-.08-2.55-.17-3.71-.77-9.8-1.68-10.38-10.95-7.08-.6,.21-1.26,.43-1.88,.41-2.79-.09-2.21,1.27-1.18,2.73,2.3,3.26,4.59,6.52,6.99,9.7,1.46,1.94,2.86,4.94,5.66,4,2.77-.93,1.1-4.1,1.52-6.04Zm-105.58-264.04c8.61-7.91,16.94-16.04,27.64-21.15,10.75-5.13,22.13-5.13,33.69-3.97-16.17-9.77-50.37,4.4-61.34,25.12Zm315-196.34c1.19,.05,3.54-3.31,3.72-5.33,.27-3.05-5.04-7.48-9.26-7.58-3.31-.08-6.08,1.03-6.23,4.84-.2,5.24,3.6,7.74,11.77,8.07ZM192.99,202.58c-4.98-.31-8.97,2.66-12.1,7.14-1.13,1.62-1.71,3.46,.22,4.83,1.8,1.28,2.95-.05,4.11-1.43,5.94-7.03,7.91-7.11,14.04-.67,.71,.75,1.31,1.6,2.46,1.25,1.09-.33,1.31-1.34,1.52-2.35,1.05-4.89-3.08-8.73-10.25-8.77Zm158.7,131.79c-.04-1.74,.33-3.83-1.67-4.36-2.35-.63-2.52,1.77-3,3.18-1.59,4.64-4.3,8.6-7.13,12.53-2.65,3.68,1.12,3.96,2.89,5.15,1.91,1.28,3.63,2.16,4.79-1.23,1.72-5.04,3.45-10.05,4.11-15.27Zm385.47,251.5c-.09-4.32-3.15-8.26-6.42-8.25-3.12,0-6.23,3.4-6.08,6.64,.18,3.86,3.9,7.52,7.47,7.25,3.43-.26,4.93-2.35,5.03-5.64ZM407.24,207.21c-2.85-.06-5.67,.3-8.18,1.67-1.56,.85-4.43,1.35-3.13,4.06,1.07,2.24,3.44,2.47,5.65,1.52,2.96-1.27,5.93-2.12,9.17-1.35,2.45,.58,4.7,1.51,6.69,3.13,1.1,.9,2.65,1.15,3.66,.08,1.36-1.43-.29-2.34-1.11-3.23-3.43-3.71-7.67-5.71-12.75-5.88Zm-9.86-102.1c-7.17-5.91-15.8-6.91-24.67-6.25-3.03,.23-8.7-.35-8.33,3.03,.44,4.13,5.56,1.5,8.5,1.3,8.23-.56,16.51-2.63,24.51,1.91Zm12.71,116.53c-2.42-.14-4.71,.36-6.47,2.02-1.41,1.33-4.43,2.25-2.77,4.95,1.7,2.76,4.16,2.19,6.3,.23,2.44-2.24,5.09-1.98,7.83-.81,1.36,.58,2.65,1.36,4.05,1.85,.51,.18,1.41,0,1.8-.38,.53-.49,.16-1.22-.33-1.7-2.97-2.91-5.96-5.79-10.41-6.17Zm79.37-112.47c-2.55,1.15-6.54,1.29-6.35,5.39,.14,3.15,3.07,4.83,6.07,4.66,3.47-.19,7.11-2.27,7.31-5.56,.21-3.32-3.77-3.87-7.02-4.49Zm29.03-.23c3.42-.57,6.67-2.23,6.94-5.46,.21-2.57-2.8-4.53-5.67-4.31-3.19,.24-6.6,1.54-6.76,5.2-.13,3.02,2.82,4.09,5.5,4.57Zm109.92,375.87c10.96-.97,21.89-.66,32.71,1.38,10.82,2.03,20.9,6.62,31.42,9.67-20.41-9.45-41.43-15.5-64.13-11.04Zm-218.24-237.51c1.61-.14,3.44-.37,4.24-2.01,1-2.03-.94-2.93-2.14-3.94-1.52-1.28-3.07-2.6-4.8-3.52-1.75-.93-3.64-.57-4.99,1-1.55,1.79-.66,3.5,.66,4.89,1.87,1.98,4.14,3.34,7.03,3.58Zm94.06,423.82c11.7,9.7,24.44,17.23,40.28,17.61-14.24-3.95-27.96-9.07-40.28-17.61ZM444.41,20.39c-3.4,.25-6.32,2.07-8.98,4.37-.82,.71-1.19,1.47,.12,2.3,4.96,3.16,7.36,2.81,11.17-1.86,.9-1.11,2.45-2.13,1.58-3.79-.73-1.39-2.37-.78-3.89-1.02Zm87.96,96.89c14.43-11.86,26.84-25.45,36.4-41.51-10.82,15-23,28.79-36.4,41.51Zm-150,315.85c.43,.22,.86,.44,1.29,.66,6.98-13.76,14.81-27.08,20.15-41.66-7.15,13.67-14.3,27.34-21.44,41.01Zm-67.24,377.82c-8.65,5.01-14.43,11.18-17.08,20.07-.41,1.37-.48,2.95,1.27,3.19,1.92,.27,1.77-1.49,1.97-2.79,1-6.43,4.42-11.39,9.33-15.5,1.45-1.22,3.45-1.95,4.5-4.98ZM541.48,90.12c-2.6,.47-5.34,1.18-5.52,4.16-.17,2.84,2.28,4.05,4.76,3.93,2.68-.13,5.02-1.9,5.27-4.5,.25-2.58-2.32-3.24-4.51-3.59Zm79.86,373.82c-.1-3.44-2.04-6.85-3.96-6.7-2.57,.21-4.04,1.97-3.83,4.35,.26,2.96,1.67,5.56,5.12,5.74,2.09,.11,2.74-1.51,2.67-3.4ZM329.43,30.41c-1.13-1.58,.82-4.38-2.44-4.38-2.02,0-7.48,5.06-7.16,7.02,.34,2.08,2.98,2.75,4.13,2.55,2.73-.46,4.35-2.83,5.46-5.19Zm28.2-6.91c-.28-2.41-1.87-3.26-3.79-3.2-3.33,.1-4.98,2.28-5.33,5.37-.24,2.14,1.46,3.01,3.18,2.85,3.06-.28,4.85-2.37,5.93-5.02Zm98.22-9.34c5.11,.76,8.9-.51,12.55-2.29,1.11-.54,2.59-1.5,1.77-3.07-.71-1.36-2.31-1.21-3.62-.91-3.85,.9-6.78,3.39-10.7,6.27Zm-92.18-.2c2.28-.35,4.95-.23,5.04-3.57,.08-2.95-2.03-3.52-4.35-3.64-2.48-.13-4.29,.68-4.29,3.57,0,2.38,.96,3.84,3.6,3.64Zm90.72,26.91c1.81-.66,3.97-1.44,4.37-3.82,.39-2.36-1.68-3.21-3.47-3.25-2.44-.05-4.81,1.09-5.01,3.76-.15,2.06,2.01,2.72,4.11,3.3Zm238.83,371.7c-.13-1.81-.84-3.39-2.61-3.09-2.97,.51-3.46,3.36-4.05,5.7-.44,1.72,.77,3.04,2.55,2.79,3.06-.43,3.55-3.07,4.12-5.4ZM472.56,20.33c-2.06,.56-4.11,1.58-4.39,3.91-.22,1.86,1.51,2.98,3.26,2.95,2.22-.03,4.56-.99,4.83-3.34,.21-1.84-1.63-3.06-3.7-3.52Zm155.82,384.04c.47,1.33-.23,3.99,2.29,4,2.33,0,3.08-2.36,3.17-4.41,.08-1.77,.03-4.15-2.38-4.22-2.59-.07-2.91,2.23-3.08,4.63Zm13.84-34.63c-.35-1.73-.25-4.15-3.22-3.81-2.15,.25-3.19,1.64-2.86,3.89,.31,2.12,1.07,4.2,3.48,4.19,2.36-.02,2.66-2.1,2.61-4.27ZM491.95,9.01c-.76-1.67-2.12-2.8-4.12-2.58-2.07,.23-4.04,1.35-4,3.58,.04,2.12,2.11,2.86,3.98,2.69,1.99-.19,3.81-1.03,4.14-3.69Zm18.75,108.64c-1.88,.69-4.06,1.46-4.13,3.71-.07,2.15,1.96,3.21,3.82,2.9,1.81-.31,4.17-1.03,3.82-3.66-.23-1.72-1.55-2.87-3.52-2.95Zm173.59,292.45c.05-1.76,.2-3.69-2.03-3.95-2.62-.31-4.1,1.6-4.42,3.8-.3,2.04,.77,4.2,3.11,4.34,2.67,.16,2.57-2.53,3.34-4.18ZM427.03,47.02c-.58-2.22-2.07-3.16-4.1-2.93-2.32,.26-4.31,1.45-4.25,4.03,.04,1.97,1.75,2.8,3.61,2.48,2.14-.37,4.23-1.04,4.74-3.57Zm203.05,431.63c-.88-1.72-1.28-4.14-3.96-4.24-1.95-.07-3.01,1.28-2.96,3.18,.05,1.96,.86,3.62,3.12,3.66,1.65,.03,3.3-.33,3.8-2.6Zm-59.15-412.8c-.55-1.1-.77-2.87-2.55-2.34-2.4,.72-3.76,2.74-4.22,5.12-.31,1.64,.97,2.61,2.43,2.35,2.67-.46,3.51-2.77,4.33-5.14Zm63.65,380.49c-1.45,.53-2.25,1.57-1.83,3.02,.65,2.19,1.33,4.64,4.2,4.78,1.55,.08,1.76-1.37,1.51-2.52-.49-2.26-1.27-4.41-3.88-5.28Zm-127.36,105.92c-.86-2.65-3.43-2.44-5.27-3.18-1.05-.42-2.1,.57-1.79,1.68,.66,2.34,1.51,5.21,3.94,5.69,1.5,.3,1.97-2.65,3.12-4.2Zm-69.79-21.13c-1.89,0-3.1,1.11-3.06,2.64,.05,2.3,1.61,4.07,3.83,4.45,1.74,.3,2.49-1.42,2.57-2.95,.12-2.32-1.42-3.49-3.34-4.15Zm-6.86-32.91c-1.54,.25-2.75,1.11-2.62,2.55,.25,2.79,2.57,3.64,4.89,4.11,1.35,.27,2.42-.66,2.14-1.99-.5-2.37-1.83-4.21-4.41-4.66ZM338.4,38.6c-1.97,.35-3.56,1.36-3.95,3.27-.36,1.74,1.07,2.93,2.59,3,2.18,.1,3.89-1.4,4.23-3.42,.26-1.56-1.38-2.41-2.87-2.85Zm130.86,478.22c-1.57,.39-2.44,1.75-2.03,2.94,.72,2.14,.26,5.43,3.55,5.72,1.54,.13,1.97-1.65,1.6-3.03-.57-2.1-.08-4.86-3.12-5.63Zm-42.48-451.73c1.7-.63,3.69-1.32,3.45-3.45-.19-1.67-1.72-2.91-3.59-2.66-1.86,.25-3.68,1.25-3.5,3.37,.15,1.79,1.9,2.47,3.64,2.74Zm265.8,388.89c-.48-1.33-.92-3.07-2.61-2.24-1.79,.87-4.53,1.15-4.56,3.97-.02,1.52,1.13,2.56,2.69,2.17,2.08-.51,4.18-1.27,4.49-3.9ZM546.54,77.29c-1.36,.71-3.28,1.54-3.46,3.81-.14,1.64,1.27,2.33,2.7,2.16,2-.24,4.13-.94,4.32-3.28,.13-1.62-1.32-2.52-3.56-2.69Zm193.15,530.18l-.96-.68c-2.39,8.01-4.78,16.02-7.17,24.03,.3,.09,.6,.18,.9,.27,2.41-7.88,4.82-15.75,7.23-23.63Zm-349.37-196.49c-3.72,6.52-6.95,13.26-9.25,20.41,3.84-6.46,7.55-12.98,9.25-20.41Zm72.23,86.21c1.18-1.13,4.08,.47,3.7-2.22-.29-2.03-2.16-3.48-4.33-3.39-1.4,.06-3.35,1.17-3.1,2.56,.27,1.53,1.73,3.03,3.74,3.05Zm97.67-.73c1.87-.22,4.68,.4,4.65-2.23-.03-2.25-2.8-1.57-4.44-1.74-1.89-.2-4.14,.41-4.12,2.45,.03,2.36,2.56,1.01,3.91,1.52ZM490.17,127.29c-1.69,.36-3.07,1.4-3.14,3.2-.07,1.8,1.54,2.54,3.08,2.47,1.68-.08,3.49-.79,3.52-2.77,.04-1.93-1.51-2.75-3.47-2.9Zm-52.2-80.79c-1.36,.79-3.27,1.48-3.06,3.72,.14,1.51,1.54,2.22,2.92,2.07,1.84-.2,3.79-.89,3.59-3.19-.13-1.56-1.48-2.49-3.46-2.6Zm300.99,360.03c1.53-1.43,4.28-2.13,4.74-4.9,.18-1.06-1.19-1.54-2.24-1.25-2.31,.64-4.39,1.73-4.79,4.39-.17,1.12,.64,1.8,2.29,1.77Zm-302.52,145.51c-1.61,.14-2.64,.71-2.33,2.51,.36,2.05,1.01,4.15,3.24,4.51,1.25,.2,2.55-1.17,2.3-2.69-.31-1.91-.7-4.03-3.21-4.33Zm40.69-64.69c-1.47,.06-2.89,.66-2.69,1.81,.43,2.45,2.44,3.72,4.78,4.17,1.1,.21,1.95-.68,1.84-1.76-.26-2.42-2.04-3.51-3.93-4.22ZM411.51,76.95c1.7-.37,3.37-1.07,3.16-3.09-.17-1.62-1.62-2.47-3.26-2.39-1.84,.1-3.31,1.17-3.17,3.03,.12,1.57,1.62,2.33,3.27,2.44Zm5.78,429.3c-.58,1.41-3.51,.54-3.23,2.69,.22,1.73,2.29,3.21,3.92,3.31,1.09,.07,3.24-1.85,3.23-2.87,0-1.44-1.77-2.61-3.92-3.13Zm93.42,10.15c-1.41-1.7,.88-5.53-3.06-6.11-1.32-.19-2.15,.82-1.87,2.21,.48,2.41,1.09,4.91,3.67,5.89,1.25,.47,1.68-.56,1.26-1.98Zm-10.65,25.52c-.13-1.88-.47-3.9-2.58-4.29-1.41-.26-2.6,1.23-2.35,2.58,.38,2.05,1.07,4.57,3.44,4.9,1.45,.2,1.39-1.89,1.5-3.19Zm-2.97-28.25c-1.56,.4-2.19,1.8-1.98,3.01,.4,2.22,2.36,3.66,4.19,4.39,.88,.35,1.37-2.06,1.23-3.17-.26-1.94-.94-3.9-3.44-4.23Zm-380.25-44.75c2.61,3.81,5.55,5.43,8.86,6.43,.83,.25,2.1,.39,2.44-.9,.27-1-.64-1.48-1.37-1.77-3-1.19-6.03-2.3-9.93-3.77Zm342.44,40.62c-.67-.56,.54-3.09-2.09-2.41-1.29,.33-3.96-.55-3.19,2.3,.42,1.56,.67,3.95,2.9,4.01,2.03,.06,2.62-1.63,2.38-3.9Zm-352.26-61.68c3.08,2.9,5.97,3.58,8.79,4.31,.85,.22,2.14,.5,2.39-.94,.16-.95-.59-1.53-1.41-1.77-2.82-.81-5.57-2.08-9.77-1.6Zm629.98-36.55c-2,.34-3.26,1.45-3.51,3.5-.18,1.41,.24,2.94,1.74,3.02,2.15,.13,3.08-1.57,3.32-3.5,.16-1.27,.32-2.7-1.55-3.02Zm-255.51,169.2c.33,1.47-.44,4.01,2.22,3.95,2.2-.06,1.62-2.47,1.76-3.96,.16-1.68-.1-3.73-2.13-3.85-2.8-.16-1.28,2.35-1.85,3.86ZM332.58,57.88c-.19-1.76-1.2-2.9-2.81-2.99-1.82-.1-3.19,.96-3.41,2.86-.19,1.65,1.13,2.33,2.47,2.51,1.82,.24,3.16-.57,3.74-2.38Zm419.17,349.97c-.04-1.15-.31-2.39-1.78-2.43-2.1-.06-3.44,1.2-3.83,3.18-.33,1.66,.73,2.51,2.31,2.43,1.89-.09,3.02-1.18,3.3-3.18Zm-351.33,187.64c.47-1.87,.07-3.54-.51-5.27-.8-2.35-2.36-1.97-3.87-1.17-1.9,1.01-.52,2.2,.14,3.2,1.01,1.53,2.47,2.55,4.24,3.24Zm80.15-40.54c1.6-3.22,2.42-5.83,.39-8.4-.62-.79-1.5-.4-2.06,.33-2.35,3.03,.18,5.11,1.68,8.07Zm-80.66,21.85c-.05-1.87-.56-3.59-3.09-3.14-1.07,.19-3.28-.48-2.75,1.68,.47,1.92,2.24,3.37,4.16,3.88,1.29,.34,2-.84,1.68-2.42Zm72.43,3.72c-.44-1.49,.24-3.77-2.29-3.69-1.75,.05-2.64,1.48-2.46,3.11,.18,1.65,.95,3.43,2.86,3.46,1.57,.03,1.95-1.48,1.89-2.88Zm153.28-149.91c-1.39,.59-2.63,1.47-2.36,3.24,.24,1.63,1.39,2.72,3.04,2.73,1.83,.02,1.94-1.46,1.86-2.84-.09-1.58-.52-2.95-2.55-3.13Zm-161.05,97.61c-1-1.66,.38-4.69-2.71-5.18-1.56-.25-1.89,1.04-1.64,2.34,.37,1.98,.88,4.1,2.94,4.85,1.25,.46,1.46-.89,1.41-2.01Zm175.99-144.44c1.61-.15,1.69-1.37,1.64-2.52-.08-1.76-.79-3.42-2.64-3.66-1.73-.23-2.06,1.39-1.98,2.74,.11,1.82,1.14,3.02,2.98,3.44Zm-24.43,49.06c1.84-.34,2.62-1.57,2.78-3.16,.18-1.88-.93-2.72-2.69-2.77-1.77-.05-2.3,1.03-2.19,2.58,.11,1.51,.25,3.03,2.1,3.36Zm110.48-42.23c-1.58,0-2.66,.78-2.75,2.25-.12,1.82,.86,3.21,2.79,3.28,1.57,.06,2.25-1.31,2.44-2.61,.25-1.75-.82-2.68-2.48-2.92Zm-278.38,131.8c-1.38,.26-2.37,.96-2.19,2.29,.26,1.88,1.33,3.46,3.22,3.96,1.72,.46,1.86-1.02,1.73-2.16-.21-1.81-.79-3.5-2.76-4.1Zm247.17-115.64c1.68,.01,2-1.23,2.06-2.62,.06-1.57-.21-3.06-2.22-3.1-1.61-.03-2.36,1.09-2.42,2.52-.07,1.65,.81,2.77,2.59,3.2Zm-256.36,162.4c.79,1.18,.93,3.49,3.23,3.5,1.33,.01,2.62-1.03,2.34-2.63-.36-2.03-1.89-3.08-3.91-3.16-1.15-.05-1.8,.69-1.66,2.28Zm230.72-155.88c-.28-1.35-.91-2.55-2.55-2.37-1.91,.2-2.87,1.53-2.98,3.4-.07,1.28,.45,2.51,1.81,2.51,2.12,0,3.11-1.58,3.72-3.54ZM123.94,512.63c2.78,3.31,5.51,2.61,8.01,2.52,.44-.02,.86-.82,1.29-1.27-.46-.42-.9-1.17-1.38-1.2-2.29-.13-4.59-.06-7.92-.06Zm373.54,70.54c1.41-.51,1.71-1.67,1.32-2.8-.6-1.76-.84-4.15-3.5-3.98-1.32,.08-1.87,1.26-1.55,2.57,.51,2.04,1.85,3.39,3.72,4.21Zm-355.02-100.36c-2.29-1.95-4.43-3.84-7.58-3.09-.81,.19-.76,1.23-.32,1.66,1.99,1.99,4.43,2.75,7.23,2.26,.11-.02,.19-.23,.67-.83Zm534.83-49.96c-.05-1.06-.53-1.94-1.74-1.87-2.1,.12-3.42,1.46-3.74,3.42-.24,1.47,1,1.98,2.3,1.89,2.04-.14,2.72-1.64,3.18-3.43Zm-145.82,89.67c2.03-.34,1.6-1.94,1.65-3.15,.06-1.84-.65-3.4-2.72-3.45-1.4-.04-2.06,1.16-1.85,2.44,.31,1.8,.85,3.59,2.92,4.16Zm-43.46,.85c-1.83,.39-1.84,1.95-1.69,3.09,.27,2.03,1.98,3.04,3.8,3.14,1.35,.07,1.09-1.39,.87-2.27-.43-1.71-.82-3.55-2.98-3.96Zm160.61-108.44c-1.8,.54-2.77,2.06-3.16,3.85-.25,1.15,.66,1.85,1.81,1.6,1.87-.41,3.36-1.56,3.74-3.45,.28-1.42-.96-1.87-2.39-1.99Zm-155.79,140.13c-.45-1.35-.79-3.11-2.87-3.27-1.42-.11-2.19,.94-2.01,2.24,.23,1.66,.87,3.37,2.8,3.62,1.43,.19,1.85-1.1,2.08-2.59Zm-79.12,18.6c-1.01,.98-3.52-.11-3.34,2.03,.14,1.81,2.15,2.47,3.71,2.77,1.63,.31,2.43-1.38,2.34-2.49-.09-1.11-1.14-2.3-2.71-2.32Zm113.52,26.9c-.07-1.38-.28-2.87-1.96-2.9-1.66-.03-2.68,1.3-2.99,2.79-.33,1.57,.79,2.5,2.2,2.75,1.96,.35,2.52-1.04,2.76-2.64Zm-16.3-39.22c-1.22-.03-2.22,.61-1.96,1.69,.37,1.52-.3,3.73,1.4,4.41,1.31,.52,3.08-.14,2.99-2.24-.07-1.7-.56-3.27-2.44-3.86Zm220.02-199.94c-.21-1.26-.17-2.83-1.89-2.94-1.73-.11-2.74,1.02-2.72,2.72,.02,1.78,1.34,2.56,2.9,2.65,1.6,.09,1.54-1.32,1.72-2.43ZM129.24,523.98c1.4,1.46,3.13,1.87,4.8,2.18,1.78,.33,4.48,.43,4.63-1.41,.22-2.7-2.6-1.37-4.08-1.51-1.64-.15-3.48-.81-5.36,.74Zm354.82,18.53c1.52,.2,2.03-.59,2.02-1.72-.02-2.02-.91-3.64-2.91-4.18-1.36-.36-2.36,.56-2.22,1.95,.19,1.96,1.39,3.31,3.12,3.95Zm51.07,3.64c1.5-.06,2.16-.89,2.15-2.2-.02-1.93-.61-3.66-2.72-4.11-1.24-.27-1.72,.79-1.69,1.84,.06,1.82,.42,3.57,2.26,4.47Zm-8.46-59.71c-1.37,.14-1.95,1.05-1.79,2.05,.31,1.94,1.65,3.24,3.5,3.7,.81,.2,1.65-.67,1.36-1.59-.55-1.73-1.53-3.23-3.07-4.16Zm131.68-10.83c-.24-1.58-.92-3.01-2.84-3.3-1.4-.21-2.12,.62-2.18,1.97-.08,1.91,.81,3.12,2.76,3.32,1.28,.13,2.24-.32,2.26-1.99Zm-519.05-6.27c-2.85-3.33-5.57-4.29-9.38-3.99,2.39,2.91,4.85,4.41,9.38,3.99Zm393.66,150.7c-1.38,.04-2.35,.74-2.1,2.09,.34,1.82,1.84,2.6,3.58,2.76,1.1,.1,2.01-.44,1.83-1.68-.27-1.85-1.66-2.68-3.31-3.16Zm194.69-247.42c-.17-1.25,.03-2.86-2.03-2.55-1.5,.23-2.31,1.24-2.26,2.74,.06,1.69,1.08,3.01,2.69,2.93,1.71-.08,1.48-1.84,1.59-3.12Zm-314.03,149.21c-1.41,.16-2.15,1.04-2.07,2.31,.1,1.57,.92,2.94,2.54,3.27,1.73,.35,1.69-1.18,1.74-2.27,.08-1.6-.43-2.92-2.21-3.31Zm266.43-68.62c1.56-.65,3.32-1.29,3.48-3.48,.09-1.23-.69-1.79-1.85-1.67-2.01,.21-3.41,1.18-3.49,3.38-.04,1.09,.38,1.93,1.85,1.77Zm-167.8,32.86c-1.14-.02-2.25,.3-2.19,1.51,.1,2,1.28,3.44,3.29,3.81,1.18,.22,1.87-.73,1.82-1.83-.08-1.86-1.11-3.07-2.93-3.5Zm221.72-57.04c-1.78,.68-2.73,2.33-3.1,4.37-.17,.92,.39,1.93,1.24,1.77,2.35-.45,2.59-2.8,3.44-4.51,.48-.97-.21-1.5-1.58-1.63Zm-83.9,2.76c-.25-1.33-1.02-2.25-2.33-2.03-1.55,.26-2.7,1.33-2.76,3.01-.05,1.37,.85,2.17,2.22,1.9,1.53-.3,2.69-1.16,2.86-2.87Zm-20.93-10.55c.07-1.29-.59-1.97-1.72-2.03-1.72-.09-2.89,.87-3.15,2.5-.21,1.31,.7,2.25,2.01,2.29,1.82,.06,2.44-1.35,2.85-2.77Zm61.87,48.98c.01-1.25-.76-1.75-1.87-1.74-1.65,.01-2.89,.91-3.49,2.36-.5,1.19,.45,2.01,1.48,2.01,1.75,0,3.12-.9,3.88-2.62Zm50.52,100.22c.41,4.59,.82,9.18,1.23,13.77,.75-4.71,1.43-9.41-1.23-13.77Zm-197.6-44.55c-.62,.34-1.96,.37-1.49,1.74,.64,1.88,2.27,2.71,4.17,2.85,.92,.07,1.59-.56,1.47-1.52-.27-2.26-2.08-2.66-4.16-3.08Zm129.66-102.81c-.06-1.55-1-2.03-2.33-1.95-1.65,.09-2.3,1.25-2.42,2.66-.1,1.24,.31,2.46,1.89,2.26,1.66-.21,2.56-1.37,2.86-2.97Zm-149.83,117.02c-.44-1.45-1.06-2.81-2.9-2.71-1.12,.06-1.83,.85-1.76,1.94,.1,1.59,1,2.87,2.62,3.03,1.32,.13,2-.89,2.04-2.25Zm-72.94,3.82c-.21-1.4-.76-2.85-2.54-2.96-1.3-.08-2.19,.93-2.18,2.23,0,1.61,.75,2.98,2.52,3.14,1.42,.13,1.94-.99,2.2-2.41Zm67.68,8.58c-.27-1.27-.31-2.86-2.04-2.95-1.35-.07-2.12,1.05-2.14,2.29-.02,1.49,.9,2.47,2.44,2.59,1.31,.1,1.63-.84,1.74-1.93Zm-389.72-50.2c2.61,2.04,4.9,3.04,7.63,2.69,.3-.04,.81-1.03,.72-1.13-1.8-2.01-4.44-1.71-6.75-2.33-.24-.06-.57,.26-1.59,.77Zm553.78-61.12c1.93-.16,2.78-1.5,2.97-3.28,.13-1.2-.58-1.85-1.83-1.63-1.56,.28-2.89,1.02-3.22,2.65-.28,1.4,.62,2.11,2.08,2.26Zm-161.47,168.36c-1.47,.06-2.2,.85-2.16,2.2,.05,1.45,.8,2.59,2.31,2.74,1.25,.13,2.36-.57,2.43-1.9,.09-1.71-1.05-2.63-2.58-3.03Zm25.42-113.59c1.52,.12,1.72-.97,1.82-1.93,.16-1.68-.67-2.92-2.24-3.46-1.16-.4-2.07,.34-2.06,1.46,.02,1.75,.96,3.12,2.48,3.93Zm-434.64,21.83c-.68,.32-1.9,.43-1.69,1.72,.32,1.96,1.94,2.47,3.64,2.45,.95,0,2.15-.44,1.99-1.64-.27-2.07-2.18-2.07-3.95-2.54Zm375.27,44.54c-1.47,.23-2.2,1.21-2.09,2.69,.12,1.49,.59,3.31,2.34,3.08,1.61-.21,1.78-2.1,1.81-3.58,.03-1.27-.52-2.19-2.07-2.2Zm211.03-138.26c.01-1.48-.93-2.21-2.13-2.34-2.01-.23-2.42,1.36-2.67,2.87-.17,1.07,.16,2.16,1.45,2.05,1.57-.14,2.71-1.12,3.34-2.58Zm-247.82,73.87c-1.08-1.45-2.04-3.1-4.24-2.87-.99,.1-2.4,.43-1.97,1.58,.76,1.99,2.65,2.84,4.78,2.82,.84-.01,1.61-.41,1.42-1.53Zm-333.24,35.44c-.88,.02-1.99-.14-1.73,1.06,.43,2.01,2,2.86,3.95,3,1.02,.07,2.28-.18,1.99-1.44-.49-2.16-2.79-1.85-4.21-2.61Zm288.35-144.23c.34,.26,.68,.52,1.03,.78,2.05-3.93,4.09-7.85,6.14-11.78l-.89-.46c-2.09,3.82-4.18,7.64-6.27,11.46Zm62.33,162.23c-1.61,.31-2.23,1.37-2,2.83,.21,1.35,1.02,2.74,2.36,2.78,1.74,.06,1.62-1.68,1.72-2.92,.12-1.48-.42-2.55-2.07-2.7Z"/>
  <path d="M256.13,154.9c-6.12-4.29-7.51-8.39-5.25-15.8,1.86-6.11,4.72-11.76,8.51-16.89,5.34-7.25,14.19-9.12,21.74-4.71,7.4,4.32,9.98,13.08,6.28,21.32-6.03,13.43-16.08,19.06-28.48,15.97-.93,.04-1.86,.07-2.79,.11Zm17-36.74c-4.08,.09-7.81,3.52-7.58,6.89,.26,3.74,3.04,4.99,6.19,5.19,3.65,.23,6.96-3.11,6.73-6.48-.24-3.5-2.14-5.43-5.34-5.59Zm13.15,16.48c-.46-2.09-1.76-3.18-3.84-3.1-1.85,.07-3.27,1.05-3.33,2.96-.07,2.16,1.38,3.3,3.46,3.34,2.1,.04,3.32-1.14,3.7-3.2Z"/>
  <path d="M388.73,161.95c.02,21.21-23.23,39.13-40.37,32.48-10.98-4.26-15.29-13.2-11.66-24.38,2.12-6.5,4.32-12.98,8.4-18.61,7.22-9.97,20.14-13.92,30.53-9.36,9.27,4.07,12.59,11.77,13.1,19.87Zm-17.7-.47c5.45,.07,9.64-3.69,9.64-8.65,0-4.45-4.38-8.33-9.44-8.35-5.1-.02-9.01,3.47-9.02,8.05,0,4.98,3.83,8.88,8.82,8.95Zm7.72,14.08c1.72-.31,3.48-.82,3.53-2.79,.05-1.78-1.13-3.1-3.1-3.13-1.84-.02-3.34,.93-3.52,2.76-.19,1.94,1.34,2.8,3.08,3.16Z"/>
</svg>