<?xml version="1.0" encoding="UTF-8"?>
<svg id="Layer_1" data-name="Layer 1" xmlns="http://www.w3.org/2000/svg" viewBox="0 0 864 864">
  <path d="M483.5,408.18c-5.18,.56-9.14,6.34-8.26,12.08,.86,5.59,5.97,8.49,13.51,7.26-2.16,5.72-4.23,11.18-6.27,16.66-.55,1.47-1.55,2-3.04,1.75-3.64-.63-6.61-2.24-8.02-5.85-1.31-3.36,.61-5.5,3.01-7.54-2.65,.04-4.09,1.74-5.17,3.9-1.51,3.04-1.01,5.95,.9,8.59,1.8,2.49,4.34,4.03,7.43,3.75,3.34-.31,3.04,1.04,2.26,3.43-3.03,9.36-5.65,18.84-7.83,28.45-.27,1.19,.12,3.05-1.4,3.35-1.29,.25-2.13-1.29-3.02-2.21-.68-.7-1.28-1.48-2.54-2.95-.7,3.83,.36,6.23,3.1,7.16,2.54,.86,2.49,2.07,2.03,4.15-.81,3.62-1.37,7.3-2.04,11-2.96-.44-2.34-3.25-3.93-4.81-1.02,3.08-.95,5.56,2.15,6.96,2.48,1.12,1.64,3.03,1.45,4.82-.87,7.92-.88,7.88,6.93,5.79,23.24-6.23,43.16-18.8,62.16-32.94,17.65-13.14,34.81-26.94,52.48-40.05,15.82-11.75,33.29-18.77,53.53-15.64,16.33,2.52,29.79,10.87,41.88,21.57,18.94,16.75,30.83,38.11,39.15,61.63,6.19,17.49,11.08,35.34,14.3,53.63,.25,1.4,.35,2.82,.52,4.27-1.75,.17-2.12-1.19-2.86-1.95-17.05-17.51-38.45-25.64-62.22-27.22-26.57-1.76-49.26,7.09-66.3,28.29-8.43,10.49-12.63,23-16.41,35.66-1.43,4.8-2.7,9.64-4.31,15.43-2.27-5.77-2.46-10.95-3.54-15.92-3.12-14.39-7.72-28.08-16.51-40.24-10.77-14.88-25.65-21.67-43.32-23.09-16.43-1.33-31.91,2.85-46.65,9.76-3.36,1.58-4.92,1.88-5.15-2.38-.07-1.4-.64-2.78-1.59-4.05,1.02,5.31,2.09,10.62,3.05,15.95,.25,1.39,1.76,3.27-.3,4.12-2.07,.86-3.02-1.01-3.77-2.66-.17-.37-.49-.67-.77-1.04-1.61,5.3,.14,7.77,5.46,7.33,1.98-.16,1.7,1.11,2.01,2.05,1.49,4.38,3,8.76,4.33,13.2,.48,1.59,2.25,3.64-.46,4.83-2.06,.91-3.97,.43-5.2-1.72-.27-.47-.73-.84-1.24-1.4,.13,6.61,3.05,8.73,8.22,6.2,.25-.12,.61-.54,.66-.5,2.5,2.02,2.62,5.24,3.94,7.87,.72,1.44,.49,2.41-1.24,2.88-2.27,.62-4.31,.76-5.61-1.7-.52-.99-1.04-1.97-1.84-3.47-1.53,3.77-.36,6.53,2.1,8.34,3.37,2.49,5.83,.28,7.8-2.93,2.02,3.95,3.7,7.61,4.87,11.49-3.9,1.02-7.42,.7-9.93-3.41,.74,3.87,1.37,7.46,5.75,7.75,2.97,.2,3.83-1.95,4.06-4.46,6.39,12.47,12.44,25.12,19.7,37.12,3.52,5.82,7.32,11.46,11.09,17.13,1.5,2.26,3.39,4.33,.76,7.55,3.84-2.45,5.13,.34,6.73,2.34,9.97,12.46,20.64,24.26,33.13,34.28,4.97,3.99,10.54,7.12,16.07,10.27,2.39,1.36,2.56,2.32,0,3.72-4.33,2.36-5.42,2.09-10.95-3.45,.06,5.12,3.8,9.29,8.83,9.82,3.86,.41,6.03-1.67,7.3-7.28,8.64,3.38,17.48,5.92,26.71,6.96,39.32,4.42,69.11-10.6,89.89-43.99,7.07-11.36,12.12-23.45,11.47-37.17-.57-12.1-6.03-21.39-17.09-26.73-10.57-5.1-21.09-4.43-31.02,1.91-8.73,5.57-11.63,16.17-7.14,25.14,4.14,8.28,14.45,10.23,20.73,3.92,3.2-3.21,4.16-8.21,2.32-12.04-1.65-3.43-6.27-5.54-10.75-4.93-1.12,.15-2.15,.95-3.37,.42,3.75-2.53,9.13-2.3,13.16,.56,4.13,2.93,6.28,8.16,5.09,12.98-1.74,7.01-6.35,11.22-13.3,12.81-12.4,2.84-25.74-3.09-31.08-13.69-5.28-10.48-1.24-27.13,8.94-35.48,12.46-10.22,26.83-11.17,41.49-6.66,22.19,6.84,32.16,24.05,36.75,45.46,4.68,21.88-.64,42.17-9.35,62.02-13.52,30.83-35.72,53.46-65.62,69.95,1.23-4.33,4.41-7.84,1.86-11.98-.71-1.14-1.79-1.9-3.14-2.15-3.18-.59-9,4.56-9.38,8.28-.4,3.89,1.85,6.03,6.3,5.98,.11-1.44-1.18-1.88-1.95-2.6-1.44-1.33-2.04-2.87-1.26-4.67,.85-1.97,2.58-3.06,4.5-3.84,.63-.26,1.02,.09,1.42,.59,2.99,3.72,1.92,9.96-2.42,12.51-13.11,7.72-27.48,11.91-42.9,15.35,3.55-5.53,4.11-10.38-.57-14.89-2.09-2.02-4.15-3.42-7.48-1.72,1.44,1.48,3.71,.9,4.57,2.9-.46,1.42-2.32,.39-3.33,1.76,2.98,1.17,5.82,2.5,5.66,6.42-.16,3.89-3.01,5.11-6.97,7.36,4-5.73-.38-9.55-.8-13.93-.27-2.77-5.58-3.73-8.68-2.14-6.67,3.41-7.75,9.41-3.02,16.68-7.15,1.32-20.7,.86-26.09-1.02,3.17-3.51,5.15-7.22,1.62-11.55-1.66-2.04-3.1-2.91-5.76-.97-5.59,4.08-6.87,6.06-5.68,11.62-9.61-1.46-18.72-4.08-27.69-7.24-6.15-2.17-12.13-4.74-17.97-7.64-1.05-.52-2.41-1.89-3.25,.05-3.66,8.38-8.82,15.85-14.53,23.28,26.54,8.52,40.9,26.37,44.21,53.8-2.29-.34-3.81-1.6-5.37-2.69-4.03-2.83-7.93-5.83-12.3-8.15-11.43-6.08-18.53-3.48-23.22,8.54-.41,1.06-.78,2.13-1.35,3.68-2.6-4.11-4.75-7.96-7.65-11.28-5.63-6.47-11.51-7.79-19.45-4.46-4.73,1.98-8.71,5.15-12.88,8.01-2.03,1.39-4.12,2.68-6.14,4.08-2.36,1.63-3.93,1.87-5.57-1.28-10.43-20.07-27.11-19.27-43.53-9.07-1.71,1.06-3.27,2.35-4.97,3.59,.38-5.42,10.59-19.53,18.67-26.19,8.51-7.01,18.54-10.89,28.85-14.18-28.3,.36-43.23,16.72-50.15,43.19-2.09-2.6-1.61-4.75-1.5-6.72,1.2-20.36,19.05-38.72,40.66-42.06,7.22-1.12,14.42-.57,22.25,.13-1.95-4.99-3.91-9.46-4.6-14.31-.53-3.74-1.08-7.49-.7-11.24,.36-3.51-.59-4.2-4.01-3.07-14.84,4.92-30.14,6.98-45.76,6.51-7.35-.22-14.65-.98-22.25-2.95,1.66,4.96,3.23,9.26,4.52,13.64,1.61,5.49,1.95,11.14,.94,16.77-2.68,14.86-12.68,23-30.24,24.95-9.56,1.06-19.09,.32-28.64,.03-7.67-.24-15.34-.36-22.98,.71-6.47,.9-12.78,2.22-18.5,6.21-.29-2.37-.44-4.48-.81-6.56-1.52-8.62-5.89-11.89-14.75-10.52-8.15,1.27-16.19,3.2-24.34,4.43-4.18,.63-8.5,2.25-12.73,.05,3.7,.75,5.75-2.11,8.15-3.9,10.13-7.54,20.35-14.86,32.61-18.66,5.89-1.83,11.91-2.97,18.03-3.8-8.35-1.51-16.61-.67-24.8,.94-8.29,1.62-16.26,4.17-23.31,9.08,9.67-11.11,22.79-14.05,36.51-15.56,13.59-1.49,27.09-.16,40.56,1.58-21.28-6.53-43.15-7.81-62.15-.26-10.1,4.01-17.35,10.81-21.77,20.62-1.46,3.25-2.52,6.68-3.76,10.03-1.07-11.97,4.69-20.94,13.26-28.18,10.71-9.06,23.8-12.18,37.46-13.15,14.26-1.01,28.29,.33,42.28,5.01-.23-2.16-1.53-3.17-2.39-4.36-14.89-20.85-26.23-43.28-30.69-68.78-2.51-14.38-1.93-28.55,3.19-42.35,.95-2.55,.88-5.1,.77-7.7-1.09-24.44,1.15-48.55,6.88-72.35,.6-2.48,1.11-3.46,3.91-2.55,3.5,1.14,6.88,.91,9-2.93,2.08-3.77,1.58-7.56-1.84-11.14-1.05,1.34-.26,2.79-.35,4.07-.18,2.45-.96,4.58-3.12,5.88-1.65,1-3.74,1.58-5.33,.48-1.32-.92-.14-2.66,.18-4,4.68-19.63,11.32-38.56,20.23-56.68,.37-.76,.81-1.49,1.23-2.26q3.43,2.92,6.41,.07c-3.14-.94-5.91-2.06-3.71-6.15,1.23-2.28,2.08-4.26,4.84-1.62,.83,.79,2.02,1.16,3.23,1,.77-.1,1.35-.55,1.37-1.4,.02-.79-.7-.74-1.22-.93-5.11-1.84-5.19-1.89-2.45-6.62,3.78-6.5,7.71-12.91,11.56-19.37,1.08-1.81,2.07-3.66,2.9-5.93-2.54,4.23-4.32,2.51-6.69,0-11.67-12.31-21.96-25.78-32.89-38.7-10.03-11.85-20.76-22.97-33.41-32.09-.82-.59-1.62-1.23-2.49-1.72-.86-.48-1.93-1.12-2.63,.12-.54,.94-.32,2.01,.5,2.78,.74,.69,1.54,1.32,2.39,1.87,17.56,11.47,31.34,26.89,44.65,42.8,1.81,2.17,3.58,4.37,5.93,7.23-3.35-1.18-3.94-4.37-6.57-4.96,.16-.83-.35-1.37-.85-1.87-9.48-9.54-18.92-19.14-28.52-28.56-1.66-1.62-3.3-3.72-6.78-4.29,9.13,7.58,16.71,15.55,24.51,23.29,3.86,3.83,7.16,8.25,11.73,11.34,7.2,9.23,15.26,17.67,24.28,25.12,2.35,1.94,3.07,3.15,1.17,5.91-5.49,8-10.45,16.35-14.71,25.07-1.56,3.19-2.4,3.13-4.49,.53-6.41-7.95-14.3-13.49-24.87-14.22-12.76-.88-22.5,4.54-29.57,14.81-7.6,11.03-10.54,23.69-11.88,36.8-.25,2.44-.54,4.87-1.52,7.44-.32-1.39-.71-2.78-.94-4.19-5.16-30.61-30.32-46-56.03-45.52-16.48,.31-32.1,4.07-46.8,11.58-6.47,3.3-12.4,7.27-16.99,13.19,.99-9,2.83-17.72,5.1-26.33,6.3-23.87,13.94-47.25,27.77-68.01,13.73-20.61,31.09-37.08,55.1-45.09,23.74-7.91,44.67-3.15,62.7,14.56,11.49,11.29,21.35,24.03,32.61,35.51,9.25,9.43,19.11,18.09,30.21,25.36,3.97,2.6,5.93,1.52,8.36-1.86,4.3-5.99,9.04-11.67,13.48-17.56,1.69-2.24,3.18-2.93,5.51-.74,2.1,1.96,4.63,2.18,7.22,.65,3.02-1.79,3.91-3.62,3.55-7.56-1.72-.57-1.58,1.28-2.42,1.87-1.99,1.38-4.02,1.82-5.93,.06-2.24-2.06-.06-3.33,1.1-4.63,10.24-11.47,21.7-21.7,32.73-32.37,12.08-11.68,24.14-23.39,34.13-36.99,10.51-14.31,16.94-29.94,15.34-48.12-.49-5.53-1.7-10.86-4.28-15.83-4.28-8.24-10.7-11.7-19.7-9.58-13.23,3.11-26.31,6.91-39.5,10.24-50.7,12.78-99.42,8.05-145.66-17.04-28.38-15.4-50.17-37.06-62.36-67.48-3.58-8.94-5.51-18.27-5.94-27.9-.96-21.64,8.9-34.91,29.92-40.01,19.38-4.7,38.25-1.54,56.94,3.96,6.74,1.99,13.35,4.35,20.52,7.33-.75-3.58-1.43-6.36-1.91-9.17-4.01-23.76,.12-45.99,13.92-65.81,14.34-20.59,34.77-29.87,59.68-29.31,3.37,.08,4.6-.26,4.8-4.12,.42-8.23,5.28-13.99,12.29-18.9,.84,7.66-1.33,14.16-3.45,20.7-.44,1.36-2.18,3.12-.34,4.26,1.91,1.18,4.27,1.75,6.51,2.22,.92,.19,1.05-1.17,1.15-2.02,1.54-13.17,7.31-24.58,14.73-35.29,8.64-12.48,17.1-25.07,23.07-39.32,1.51,1.46,1.19,3.03,1.21,4.38,.6,31.27-1.72,62.25-10.39,92.43-1.8,6.26-1.92,12.04-.09,18.27,8.3-24.81,23.74-46.48,30.9-71.84,3.57,22.97-1.73,44.64-8.69,66.34,4.54-5.8,8.89-11.75,13.66-17.36,3.8-4.47,6.35-9.26,8.08-14.96,4.18-13.77,12.37-24.76,25.1-32,.83-.47,1.57-1.27,3.11-.94-2.39,4.37-4.69,8.63-7.05,12.85-5.24,9.37-9.12,19.38-13.68,29.06-1.16,2.46-.17,2.73,1.87,2.52,.29-.03,.58-.03,.87-.04,3.62-.09,7.98,1.67,10.57,.36,2.37-1.2,2.59-6.25,4.22-9.36,3.89-7.39,9.66-13.19,16.47-18.1-.96,4.37-2.32,8.58-5.29,11.93-2.21,2.5-3.89,4.84-4.09,8.47-.12,2.22-2,4.41-3.27,6.49-1.13,1.84-1.35,2.94,1.22,3.63,5.33,1.42,10.36,3.67,15.19,6.34,1.34,.74,2.5,1.34,3.83-.13,11.47-12.64,26.88-18.22,42.43-23.5,11.93-4.05,23.8-8.2,34.79-14.55,7.92-4.58,14.94-10.29,21.88-16.28-2.72,15.07-15.88,22.71-24.63,34.9,7.9-5.03,12.35-12.13,18.48-17.51-3.53,8.76-8.03,16.94-13.34,24.63-11.62,16.81-26.09,30.57-44.05,40.51-1.27,.7-2.54,1.4-3.85,1.99-6,2.69-5.91,2.64-3.46,8.98,1.62,4.18,2.99,8.45,4.33,12.73,.62,1.98,1.4,2.54,3.39,1.48,12.42-6.63,25.75-7.13,39.35-5.71,11.14,1.16,22.2,1.32,33.49-3.64-4.63,8.75-11.41,13.87-19.4,18.05,2.18,1.19,3.13-1.33,5.12-.57-7.57,7.62-16.48,12.87-25.68,17.68-5.42,2.83-11.18,4.85-17.26,5.6-3.3,.41-3.35,1.61-1.97,4.19,7.64,14.16,18.15,24.66,34.61,27.82,.38,.07,.71,.4,1.8,1.04-15.7,7.66-27.75,17.85-28.53,36.43-.75,17.68,9,30.17,21.61,41.7-3.94,.42-6.84-.87-9.82-1.69-6.18-1.71-9.75-.57-13.7,4.47-8.2,10.46-8.49,30.04-.61,41.89,.69,1.04,1.39,2.09,2.37,3.56-3.86-.57-6.93-1.77-9.51-3.89-2.1-1.72-3.17-1.45-4.65,.87-7.61,11.97-15.39,23.84-23.18,35.69-.72,1.09-1.09,3.78-3.03,2.31-1.17-.89-4.86-2.12-1.66-5.14,1.28-1.22,1.48-3.22,.35-4.83-.9-1.27-2.34-1.71-3.88-1.27-2.03,.57-3.36,1.9-3.14,4.09,.17,1.59-.11,2.08-1.81,2.53-5.5,1.44-8.64,6.11-8.27,11.67,.34,5.11,3.4,8.28,9.06,9.44,.4,.08,.78,.25,1.42,.46-2.63,5.09-5.23,10.07-7.78,15.09-.72,1.43-1.5,1.83-3.04,1.01-3.61-1.93-8.54-2.74-8.43-8.12,.11-5.5,4.61-6.75,9.69-7.8-3.76-2-6.5-1.14-8.76,1.07-3.54,3.46-5.33,7.54-3.24,12.54l.05-.09Zm10.96-119.3l-.13-.15c.85,2.97,2.97,3.31,5.32,2.18,1.7-.82,3.08-2.21,2.08-4.49-1.1-2.49-3.09-3.55-5.56-2.63-2.29,.86-3.36,2.65-1.71,5.09Zm80.04,176.49c7.82-4.03,15.27-8.8,23.65-11.7,.79-.28,1.82-.83,1.42-1.84-.43-1.09-1.46-.56-2.21-.2-8.11,3.8-16.13,7.75-23.12,13.46-4.43,2.1-7.98,5.35-11.88,8.15,.22,.3,.43,.59,.65,.89,3.83-2.91,7.66-5.83,11.49-8.74Zm-24.24-186.28c-1.29,1.89-2.19,3.91-.26,5.83,1.04,1.04,2.55,1.34,4.01,.6,1.57-.79,1.88-2.19,1.4-3.66-.84-2.55-2.96-2.86-5.27-2.65,1.5-1.31,3.16-2.48,4.46-3.97,1.12-1.28,.63-2.74-.62-3.83-.66-.58-1.85-1.2-2.12-.11-.7,2.73-3.41,2.04-4.83,3.48,.68-1.45,.69-2.83,.42-4.23-.33-1.68-1.61-1.91-2.99-1.77-1.55,.16-3.63,1.63-3.02,2.36,1.91,2.25,.73,5.39,2.62,7.34,1.78,1.84,4.08,.83,6.19,.62Zm-212.31-78.71c16.71-.53,32.13-9.62,41.47-28.11,10.3-20.39,5.16-45.7-12.01-61.02-15.31-13.66-37.97-14.69-56.78-2.58-17.61,11.34-27.98,33.61-24.65,52.97,3.93,22.86,23.31,38.47,51.98,38.74Zm166.4-17.4c-.3-28.13-22.58-50.87-49.49-50.53-27.63,.35-50.41,23.58-50.2,51.17,.21,26.98,22.92,47.35,52.39,47.02,26.55-.3,47.57-21.49,47.29-47.67Zm-201.68-83.23c2.01,.63,2.76-.49,3.61-1.08,7.59-5.28,16-8.68,24.9-10.91,17.82-4.46,33.49-.9,46.64,12.42,4.92,4.99,8.91,10.55,12.11,16.76-2.95-10.57-7.76-20.11-15.85-27.69-7.42-6.95-16.22-11.74-26.49-11.32-17.82,.72-31.58,10.44-44.92,21.83Zm128.86,20.09c2.39,.31,3.36-.96,4.49-1.69,5.36-3.46,10.94-6.54,16.93-8.73,14.8-5.42,28.75-3.83,41.45,5.77,11.08,8.38,16.67,20.47,21.46,32.98,1.34,3.5,2.4,7.13,3.38,10.75,.97,3.57,1.68,7.21,2.5,10.81,1.65-19.12-3.28-36.19-15.88-50.7-7.55-8.69-17.01-14.46-28.59-15.79-17.69-2.03-31.49,6.93-45.73,16.58Zm8.5,1.48c1.77-.8,3.53-1.63,5.32-2.4,21.41-9.17,39.75-3.95,53.24,15.08,5.89,8.31,10.24,17.45,14.54,26.62,1.55,3.31,3.06,6.64,4.59,9.96-.39-17.69-8.93-36.34-21.37-48.02-15.94-14.96-36.6-15.94-56.32-1.24Zm-2.78,737.39c9-5.03,23.67-38.12,20.84-47.26-4.95,13.64-14.3,24.86-19.5,38.25,2.15-14.41,10.3-26.04,18.38-38.82-15.51,7.75-25.38,27.13-19.72,47.83Zm-95.34-193.65q-1.82,2.9-8.33,.62c.87,1.99,2.47,2.66,3.8,3.62,.81,.58,2.36,.4,1.92,2.27-1.06,4.44-8.8,8.56-13.04,6.92-2.67-1.03-3.22-3.67-4.25-5.73-.67-1.33,1.7-1.92,2.66-2.88,2.44-2.44,4.45-4.96,2.38-9.19-1.48,4.65-4.04,7.73-8.5,8.79-4.34,1.03-8.32,.32-11.81-2.76,1.71,4.35,5.05,6.1,9.36,6.35,3.86,.22,5.47,2.24,4.75,6-.9,4.72-5.46,7.23-10.33,5.62-3.7-1.23-6.44-3.74-8.89-6.69-.82-.98-1.36-3.23-3.12-2.1-1.22,.78-.68,2.64-.25,4.05,1.83,6.04,8.64,11.38,14.44,11.33,6.32-.05,9.56-2.99,11.91-10.83,8.89,2.87,12.68,1.55,17.42-6.75,1.11-1.95,2.47-1.44,3.9-1.77,2.62-.59,5.35-1.17,4.96-4.55-3.27-.58-7.18,4.62-8.98-2.33Zm-56.17,155.03c1.92-3.13,4.7-5.4,7.69-7.34,3.03-1.96,6.28-3.57,10.24-5.78-20.48,4.13-31.42,16.01-28.48,32.89,11.52-9.48,23.03-18.95,35.11-28.9-9.04,2.02-16.93,4.99-24.56,9.13Zm74.6-264.93c-4.07,5.37-8.4,8.16-14.31,5.29-5.56-2.71-5.06-8.87-7.11-14.15-3.34,3.85-4.87,9.7-11.04,8.02-5.61-1.53-5.65-7.43-8.18-12.09-2.14,4.51-1.16,8.13,1.35,11.26,1.93,2.4,.81,3.66-1.07,4.83-2.82,1.77-5.08,.51-6.68-1.85-1.03-1.52-1.55-3.4-2.26-5.13-.33-.79-.51-1.79-1.61-1.7-1.11,.09-1.23,1.13-1.32,1.96-.41,3.87,.96,7.14,3.71,9.76,4.45,4.24,9.65,3.24,12.37-2.26,.31-.62,.65-1.22,1.01-1.92,2.26,1.6,4.05,3.87,7.07,2.79,2.44-.88,3.5-3.46,5.57-5.04,2.79,9.66,7.62,13.61,14.67,12.27,5.29-1.01,8.36-5.29,7.81-12.05Zm-57.74-447.56c13.87-8.35,28.28-14.89,44.92-13.32,17.26,1.64,29.46,11.15,38.22,27.26-2.98-14.2-15.49-27.37-29.89-30.8-20.89-4.98-38.17,2.97-53.25,16.86Zm428.62,432.03c-2.89-11.98-7.43-23.37-11.88-34.8-8.93-22.96-21.7-43.16-41.71-58.12-15.84-11.85-33.4-18.44-53.49-16.15-7.48,.85-14.21,3.72-19.48,9.34,3.5-1.61,6.68-3.83,10.33-5.15,19.74-7.16,37.85-2.2,54.5,8.59,18.86,12.21,32.77,29.15,42.74,49.28,.74,1.49,1.31,3.06,1.95,4.59-.19,.06-.37,.12-.56,.18-1.89-2.85-3.78-5.69-5.67-8.54-.32,.19-.63,.37-.95,.56,10.64,15.53,17.58,32.78,24.2,50.23Zm-476.87-124.43c-1.05-2.28-2.8-2.75-4.31-3.48-9.43-4.51-19.26-4.78-29.29-2.64-20.56,4.38-36.89,15.6-50.07,31.58-23.18,28.11-33.63,61.9-42.6,96.31,1.91-2.09,2.25-4.82,3.01-7.37,7.24-24.46,15.31-48.59,28.55-70.61,10.87-18.09,24.58-33.38,44.1-42.35,13.75-6.32,28.18-8.66,43.11-4.37,2.43,.7,4.73,1.83,7.5,2.93Zm142.91,298.8c-.75,1.65-1.15,2.56-1.57,3.46-3.94,8.6-10.39,9.86-16.95,3.06-3.5-3.63-6.56-7.68-9.89-11.48-.75-.86-.99-2.57-2.78-2.15-1.04,9.43,7.65,21.66,16.72,23.57,9.81,2.07,17.15-5.78,14.46-16.47Zm202.52-271.13c.71,3.36,1.68,6.69,2.1,10.09,3.49,28.17,2.59,56.28-1.07,84.38-2.95,22.57-8.88,44.5-13.62,66.69-.39,1.84-.91,3.64-.34,5.96,4.63-19.89,10.01-39.09,13.39-58.77,4.87-28.38,6.65-56.88,4.38-85.59-.61-7.73-.74-15.62-4.83-22.76Zm-253.23,189.05c-1.04,4.41-3.88,6.09-8.07,6.83-4.14,.74-5.32-1.81-6.77-5.09,.35,3.54-1.56,3.51-3.84,2.75,.77,2.29,4.1,2.9,2.38,5.79-1.61,2.71-3.9,4.31-6.99,4.48-5.29,.28-4.83-4.75-6.62-7.87-2.39,4.36,.53,10.06-4.43,13.33-4.7,3.1-8.9,2.43-13.45-2.21,4.17,9.01,13.09,9.71,18.47,2.45,.96-1.29,1.34-2.45,3.59-1.78,5.24,1.58,9.9-.71,11.85-5.86,.92-2.44,1.86-2.7,4.29-2.43,7.53,.85,11.57-3.49,9.59-10.4Zm49.26,110.01c-2.97,11.88,7.74,25.14,19.43,24.82,11.52-.32,18.54-13.28,12.24-23.92-.38,3.55-.57,6.55-1.03,9.5-1.28,8.18-8.65,12.19-16.18,8.82-5.59-2.5-9.02-7.01-11.43-12.48-.91-2.07-1.13-4.45-3.03-6.74Zm95.43,74.43c4.96,4.01,9.67,8.24,13.44,13.4,3.66,5.01,7.17,10.13,10.83,15.14,3.64,4.97,7.39,9.85,11.1,14.78-7.72-23.9-18.95-37.49-35.37-43.31Zm-13.93,2.55c3.88,12.46,5.14,25.51,8.7,38.76,5.36-21.35,2.2-37.82-8.42-43.89,4.8,8.74,7.78,17.69,8.59,27.3-2.61-7.52-4.56-15.29-8.86-22.16Zm-9.33-187.12c-1.51,3.61-.42,6.52,2.09,8.86,3.21,2.99,7.37,3.08,9.87-.25,1.74-2.33,3.27-2.92,5.99-2.2,2.26,.6,4.43-.44,5.45-2.6,.82-1.75,1.59-2.25,3.53-1.73,1.85,.49,3.32-.56,4.12-2.38,.76-1.74,.47-3.4-.41-4.98-.47-.83-1.59-1.44-1.92-.29-1.58,5.54-3.95,1.78-6.46,.31,.29,3.19-.97,5.14-3.78,6.05-2.62,.86-3.57-1.13-4.84-2.65-.54-.64-1.2-1.68-2.06-1.07-1.08,.75-1.67,2.09-1.01,3.42,1.43,2.87-.03,4.4-2.45,5.36-2.81,1.11-5.12,.21-6.66-2.35-.65-1.07-.99-2.33-1.47-3.51Zm205.25,101.52c-.86,1.64-2.35,2.87-.98,4.83,1.73,2.48,6.08,3.81,8.89,2.5,3.04-1.42,5.35-5.68,3.48-8.23-2.38-3.25-3.54-6.89-5.26-10.35-.19-.37-.54-.68-.86-.97-2-1.8-4.56-2.19-6.2-.27-2.06,2.4,1.22,2.75,2.33,3.89,.2,.2,.48,.32,.71,.49,2.14,1.59,1.67,2.65-.61,3.56-1.94,.78-3.62,.45-5.34-.56-1.74-1.01-2.03-2.96-2.83-5.24-1.53,5.76,.08,8.08,6.67,10.33Zm-353.86-129.48c.12,3.4,1.94,4.97,3.27,6.77,.78,1.05,1.56,1.91,.91,3.47-2.37,5.66-9.73,6.87-13.43,2.02-1.44-1.9-2.47-4.11-3.87-6.49-.51,.8-.98,1.22-1.06,1.71-.73,4.51,2.96,10.15,7.72,11.88,4.7,1.71,10.25,.06,12.44-4.27,1.23-2.42,2.04-3.14,4.7-1.87,2.62,1.25,5.49,.85,7.45-1.69,1.91-2.48,2.31-5.23,1.04-8.84-4.38,10.48-7.88,9.94-19.16-2.68Zm53.32-320.7c10.18,5.8,20.86,10.42,33.06,9.41,10.04-.83,18.47-8.55,19.65-17.81,.13-1.01,.74-2.3-1.01-3.08-2.48,9.98-8.92,15.61-18.97,17.04-3.88,.55-7.79,.31-11.67-.26-7.16-1.05-14.07-3.06-21.05-5.29Zm-118.55-67.58c-.7-7.57-2.5-14.8-8.2-20.25-4.53-4.34-10.1-5.81-16-3.2-5.47,2.42-7.49,7.25-7.66,13.03-.22,7.47,2.82,13.88,6.35,20.16-.31-2.12-1.02-4.12-1.57-6.16-1.47-5.47-2.62-10.96-1.38-16.67,1.25-5.74,5.14-8.61,11-8.02,5.4,.54,8.82,3.87,11.59,8.18,2.6,4.03,3.85,8.65,5.86,12.95Zm167,43.39c-.52,1.84,.27,3.25,.99,4.62,4.11,7.84,10.58,12.14,19.45,12.3,10.95,.2,20.05-4.74,28.62-10.91,1.29-.93,2.48-1.99,3.72-2.97,1.13-.9,2.27-1.78,3.41-2.66-.32-.32-.64-.65-.95-.97-7.27,5.91-15.37,10.1-24.4,12.59-10.84,2.98-22.57,1.47-29.79-11.19-.18-.31-.62-.48-1.06-.79Zm177.61,315.39c9.11-23.31,14.08-88.3,8.68-109.84,2.37,37.03-1.26,73.59-8.68,109.84ZM435.78,127.45c24.6-12.28,57.72-.82,71.48,34.2-4.22-16.48-13.2-29.4-29.23-36.16-14.25-6.01-28.63-5.99-42.25,1.96Zm187.65,417.35c29.68-19.41,59.98-16.85,90.93-2.71-24.17-14.99-63.66-21.03-90.93,2.71Zm-282.65,39.53c1.59,3.36-.45,7.38-4.79,9.83-2.75,1.55-5.45,1.62-8.25,.1-2.82-1.53-3.24-4.69-4.84-7.78-.42,5.44,2.43,9.54,7.14,11.12,4.75,1.59,10.41-.3,12.66-4.9,1.36-2.79,2.48-3.84,5.91-3.58,7.04,.53,12.22-6.42,10.13-14.21-1.39,4.58-3.55,7.55-6.95,9.74-3.86,2.48-7.3-1.07-10.99-.31Zm198.55-361.38c-.11-3.6-3.46-7.02-6.89-7.03-3.34-.01-6.67,3.59-6.65,7.2,.03,3.87,3.52,7.41,7.1,7.21,3.55-.2,6.55-3.64,6.43-7.37Zm150.06,493.73c.8-1.31,2.49-1.01,3.74-1.65,4.19-2.14,5.35-8.85,1.99-11.79-1.37-1.2-2.97-1.57-4.22-.17-1.87,2.1,.86,1.62,1.52,2.27,1.96,1.93,1.65,3.53-.67,4.76-2.12,1.12-4.15,.86-6.02-.71-.63-.53-1.38-1.23-2.19-.23-.72,.88-.91,2.21-.03,2.72,2.41,1.4,2.11,2.87,.87,4.89-1.19,1.94-.58,3.7,1.53,4.59,2.33,.97,4.86,.82,6.16-1.46,1.57-2.77-2.77-1.17-2.67-3.21Zm-338.83-184.99c1.23,4.83,.86,8.01-2.76,9.77-6.26,3.05-9.21-1.89-12.71-6.15-.09,5.33,2.71,9.81,6.59,11.3,3.59,1.37,8.75-.17,11.19-3.69,1.47-2.12,2.57-4.14,5.62-4.51,1.78-.22,3.52-1.65,3.78-4.31-5.89,3.81-7.01,3.64-11.72-2.41Zm-11.35,219.23c-1.16,3.71-.02,7,2.76,8.92,2.92,2.01,4.44,4.77,6.28,7.5,4.45,6.59,11.34,8.37,17.26,4.64,4.4-2.77,5.54-8.64,2.14-12.74-.02,5.18-1.2,9.56-6.7,10.81-5.76,1.32-9.78-1.78-12.99-6-3.15-4.15-8.16-7.11-8.76-13.13Zm171.65-416.7c-.03-3.62-2.54-6.41-5.71-6.34-3.05,.06-5.65,3.36-5.58,7.07,.07,3.61,2.67,6.51,5.7,6.36,3.15-.16,5.63-3.29,5.6-7.08Zm-146.8,146.96c-2.66,1-2.86,2.75-3.23,4.46-.9,4.23-5.35,5.87-8.93,3.33-1.74-1.23-2.52-3.11-3.36-4.96-.33-.72-.36-1.88-1.63-1.42-.77,.28-.92,1.07-.86,1.82,.32,3.71,2.04,6.7,5.26,8.49,2.99,1.67,6.29,1.72,8.92-.67,2.02-1.84,3.75-2.87,6.39-1.37,.65,.37,1.71,.19,2.54,.05,.84-.15,1.75-.55,1.84-1.57,.11-1.28-.96-1.19-1.78-1.24-4.21-.25-5.89-2.56-5.15-6.92Zm211.2,79.61c-5.88-19.03-38.99-34.48-61.6-29.58,24.88-.14,46.42,6.91,61.6,29.58Zm-96.66,89.68c-2.38,6.59,1.6,12.94,7.59,13.33,4.72,.31,9.01-4.75,7.79-9.21-.35-1.28-.82-2.76-2.36-2.72-1.86,.05-.82,1.78-1.14,2.74-.65,1.95-1.22,4-3.62,4.41-2.3,.4-3.9-.95-5.06-2.69-1.09-1.63-1.9-3.45-3.2-5.86Zm41.99-530.07c11.74-4.98,23.12-10.55,31.78-20.29-10.77,6.48-22.66,11.21-31.78,20.29Zm-12.54,109.32c-.31-3.44-1.93-5.6-5.34-5.94-2.99-.29-5.83,2.66-5.61,5.88,.24,3.46,2.41,5.26,5.73,5.25,3.33,0,4.75-2.28,5.22-5.19Zm-151.07,518.7c3.4,4.32,7.91,6.11,13.19,5.64,4.57-.41,8.35-4.7,8.07-8.68-.07-1.04-.15-2.11-1.44-2.3-1.08-.16-1.43,.72-1.78,1.54-1.9,4.47-5.68,5.26-9.98,5.12-2.74-.09-5.3-.97-8.06-1.31Zm98.55-176.95c-.25,4.81,2.15,8.3,5.67,8.74,3.41,.43,6.56-2.41,7.27-6.6,.37-2.2,.14-4.32-.8-6.36-.46-1-.5-2.76-1.84-2.56-1.76,.26-1.16,2.03-1.06,3.25,.25,2.85-.47,5.32-3.15,6.57-2.75,1.28-4.52-.61-6.08-3.04Zm53.17,116.56c-.24,6.3,2.69,10.81,6.82,11.55,3.22,.57,6.24-1.49,7.07-4.94,.88-3.64-.46-6.18-4.16-8.38,.09,3.35,1.79,6.58-2.01,7.78-4.39,1.39-5.51-2.42-7.73-6.01Zm-288.6-164.06c-17.35-13.05-61.19-11.87-77.56,2.17,25.91-11.47,51.51-15.42,77.56-2.17ZM520.84,247.57c.45,2.3,1.34,5.09,4.34,4.62,2.68-.42,6.92,.09,6.62-4.83-.2-3.25-1.67-5.56-5.17-5.83-2.98-.22-5.85,2.77-5.8,6.03Zm184.61,455.27c.28,2.19,.73,4.67,3.99,4.82,2.82,.13,6.53-3.32,6.34-6.04-.2-2.85-1.68-4.96-4.76-5.23-2.67-.24-5.49,2.99-5.57,6.45Zm-186.43-416.08c0-3.45-2.63-6.14-5.54-5.89-3.15,.27-5.16,2.06-5.18,5.3-.02,3.38,2.31,4.93,5.35,5.07,3.21,.15,5.09-1.65,5.38-4.48Zm-260.3,135.27c-4.44,7.67-5.35,48.92-1.68,65.78-.62-21.71-2.22-43.43,1.68-65.78Zm206.64,119.61c-1.41,3.1-1.99,6.73-5.87,6.96-5.2,.32-4.52-4.74-6.19-8.02-2.06,5.12-1.04,9.26,2.62,11.46,3.27,1.97,6.37,1.39,9.06-1.21,2.84-2.74,2.76-5.7,.37-9.19Zm-140.59,82.17c-2.28,5.06-4.48,8.7-9.3,9.07-5.12,.39-7.36-3.44-9.5-7.59-1.11,4.17-.22,6.87,2.67,8.98,3.37,2.46,9.25,2.6,12.64-.02,2.94-2.27,4.76-5.19,3.49-10.45Zm201.83-362.54c.06-3.44-1.54-5.37-4.12-5.44-2.78-.08-5.84,3.02-5.63,5.94,.21,2.99,2.09,4.92,4.95,4.98,3.73,.07,4.37-3.01,4.8-5.48Zm20-19.86c-.08-2.97-2.85-5.34-6.21-5.29-3.21,.04-5.92,2.7-5.85,5.76,.07,3.28,3.52,6.73,6.75,6.74,3.07,.01,5.42-3.17,5.31-7.21Zm130.68,518.02c3.14,.03,6.01-2.85,6.08-6.08,.07-3.34-2.74-6.71-5.54-6.65-2.74,.07-6.71,4.29-6.64,7.04,.08,2.85,3.09,5.66,6.09,5.68Zm-130.83-5c-.11,1.59,.64,2.55,1.36,3.41,1.88,2.26,4.21,3.62,7.25,2.61,2.04-.68,2.97-2.29,2.73-4.41-.38-3.32-2.6-5.07-5.59-5.89-1.55-.43-3.11-.39-2.29,2.07,1.47,4.38-1.64,2.18-3.46,2.21Zm-21.11-47.84c.29,2.85,1.53,4.4,3.19,5.64,3.21,2.4,7.02,1.96,8.68-.96,1.64-2.88,.24-7.45-2.76-9.02-.92-.48-1.96-1.03-2.85-.37-1.32,.97,0,1.72,.51,2.43,.82,1.16,1.31,2.29,.12,3.47-1.02,1.01-2.34,1.24-3.61,.78-1.02-.37-1.9-1.12-3.29-1.97Zm27.01-490.95c-3.02,.52-5.13,1.88-5,5.34,.12,3.33,1.99,5.22,5.19,5.02,3.11-.19,5.02-2.23,4.87-5.48-.14-3.04-2.06-4.58-5.06-4.88Zm-50.91,82.22c-2.55,.34-5.08,1.04-5.14,4.16-.06,3.45,2.26,5.32,5.46,5.61,3.07,.28,5.09-1.53,5.12-4.6,.04-3.35-2.45-4.63-5.45-5.17Zm105.49,463.58c.33,4.52,2.55,6.76,6.29,6.08,1.97-.36,3.83-1.06,5.93-.73,1.5,.23,2.36-.92,2.66-2.32,.2-.92-.12-2.06-1.05-2.07-2.5-.04-3.27-2.09-4.63-3.48-.91-.93-2.14-1.18-3.2-.69-1.19,.56,.11,1.43,.11,2.19,0,2.79-1.54,3.06-3.74,2.44-.93-.26-1.04-1.86-2.37-1.42Zm-54.86,21.7c2.23-.09,4.03-1.33,3.89-4.2-.16-3.21-2.14-5.27-5.3-5.06-2.46,.17-5.29,1.02-5.99,3.94-.55,2.26,3.67,5.31,7.4,5.31Zm30.46-7.42c.87,2.29-.02,2.89-2.16,2.03-1.43-.57-2.59-.46-3.25,.99-.71,1.56-.53,3.11,.76,4.36,1.16,1.12,2.48,1.61,3.78,.29,1.27-1.28,2.73-1.73,4.31-1.02,3.47,1.56,3.22-.81,3.11-2.89-.16-2.99-2.06-4.67-4.71-5.52-1.26-.4-2.83-.6-1.85,1.75Zm-18.55-54.81c-.09,1.38-.21,1.94-.15,2.47,.22,2.05-.21,3.72-2.34,4.54-2.11,.81-3.6-.23-4.93-1.67-.58-.63-1.02-1.39-1.62-2.01-.87-.89-1.53-.69-1.61,.57-.25,3.86,1.88,6.21,5.17,7.62,3.49,1.5,6.35,.16,8.13-2.83,1.84-3.1,.99-5.94-2.65-8.7Zm97.76,36.18c-2.47-.23-4.52,1.63-4.36,4.75,.16,3.14,2.78,4.62,5.78,4.82,3.1,.21,4.03-2.03,4.01-4.51-.02-2.81-.99-5.17-5.44-5.06Zm-156.66-401.14c-.31-3.04-2.07-4.62-4.88-4.51-3.19,.13-5.12,1.97-4.88,5.35,.21,2.99,1.85,5.05,4.97,4.82,3.3-.24,4.42-2.79,4.78-5.67Zm144.93,83.4c19.88,8.44,35.36,22.49,49.34,38.46-13.17-17.03-28.55-31.24-49.34-38.46Zm-192.85,78.41c-1.5,3.9-1.31,8.36-6.16,8.12-4.31-.21-4.55-3.92-4.99-7.73-2.27,4.36-1.79,8.23,1,10.28,3.15,2.32,6.44,1.71,9.22-.54,3.11-2.52,3.42-5.8,.94-10.14Zm41.07-417.29c10.55-8.81,22.9-14.62,35.01-20.84-12.89,4.92-26.56,8.55-35.01,20.84Zm-125.26,398.79c-4.39,8.63-7.28,12.65-17.77,5.26,1.01,5.01,5.88,8.34,10.68,7.3,5.43-1.18,8.43-6.5,7.09-12.56Zm96.57,88.1c-.72,1.82,.83,4.62-2.22,5.03-3.09,.41-3.03-2.66-4.21-4.77-1.18,5.1,.57,8.9,4.24,9.75,3.19,.74,5.41-.59,6.31-3.68,1-3.48-.78-5.35-4.11-6.33Zm-124.92-59.74c-.92-.71-1.53-.14-2.17,.11-5.98,2.3-7.84,1.3-9-4.9-.38-2.03-.68-4.07-1.07-6.47-2.91,3.87-2.96,7.27-.45,11.96,1.29,2.41,3,4.41,6,4.27,3.29-.15,5.6-1.81,6.7-4.98Zm188.93-348.08c-.2-3.07-1.66-5.14-4.76-5.11-2.72,.03-4.7,1.62-4.77,4.54-.07,3.1,1.93,4.95,4.79,5.06,2.73,.1,4.48-1.65,4.74-4.49Zm64.75,265.88c-15.34,8.77-29.63,19.03-43.5,29.93,14.56-9.89,29-19.95,43.5-29.93Zm25.27,345.91c4.39,.04,8.95-2.47,8.83-4.98-.14-2.86-2.06-4.33-4.85-4.41-3.59-.1-7.99,3.53-8.02,6.53-.02,3.05,2.33,2.68,4.03,2.86ZM546.43,98.06c-9.28,4.25-18.65,8.26-26.48,14.97,9.91-3.06,19.03-7.56,26.48-14.97Zm-62.72,516.39c-2.5,2.85-4.76,5.54-8.67,3.71-3.2-1.5-3.65-4.96-5.14-8.86-1.04,5.39-.58,9.23,3.14,11.96,2.76,2.02,5.72,1.64,8.57-.01,2.44-1.42,3.38-3.4,2.11-6.79Zm45.64-291.87c-2.65,.6-4.49,2.17-4.32,5.02,.15,2.56,1.24,5.02,4.4,4.76,2.85-.23,5-1.84,4.69-5.05-.25-2.67-1.76-4.52-4.78-4.73Zm-6.8-131.75c-.28-2.88-1.77-4.93-4.82-4.85-2.77,.07-4.5,1.99-4.58,4.75-.1,3.11,1.93,4.84,4.83,4.86,2.79,.02,4.36-1.83,4.58-4.76Zm-17.5,514.23c.5,3.58,2.22,5.56,4.4,6.94,2.63,1.67,5.55,1.81,7.78-.77,1.86-2.15,2.11-4.7,.27-7.09-.48-.62-1.39-1.27-2.09-1.27-1.2,0-.84,1.25-.91,2.01-.21,2.57-1.51,3.91-4.13,3.93-2.35,.02-3.36-1.93-5.32-3.75Zm-184.18-114.06c-7.98,.22-9.21-.66-10.99-9.05-.4-1.91-1.31-1.11-2.29-1.34-2.07-.49-1.79,.82-1.66,1.93,.41,3.54,1.52,6.72,4.53,9.01,4.22,3.2,7.1,3.09,10.41-.54Zm258.15,149.96c1.84,1.11,3.94,1.92,3.46,4.36-.46,2.34-2.12,2.12-4,1.96-1.27-.11-.91,1.25-.59,1.93,1.05,2.25,2.92,3.1,5.32,2.53,2.91-.7,4.53-3.79,3.65-6.78-1.02-3.46-3.86-5.04-7.84-3.99Zm40.79,12.97c.52,1.61,1.36,2.61,2.49,3.28,3.12,1.87,5.84,1.15,7.9-1.67,1.99-2.71,1.66-5.41-.83-7.68-.56-.51-1.59-.74-2.37-.68-.98,.06-.66,.92-.63,1.65,.2,5.25-1.03,6.26-6.56,5.1Zm92.93-81.31c1.11,3.35,1.03,7.64,5.86,7.85,2.79,.12,6.23-4.07,5.85-7.01-.5-3.9-3-5.61-8.12-5.53,4.18,1.41,5.57,3.61,5.17,6.83-.15,1.22-.68,2.25-2.05,2.41-3.65,.44-4.65-2.77-6.71-4.56Zm-213.64-3.93c-1.4,7.5-2.95,8.14-9.77,4.13,.3,3.83,2.48,5.6,5.66,6.22,3.02,.59,5.51-.64,6.88-3.34,1.44-2.86-.28-4.86-2.77-7.01Zm1.49-11.83c1.59,4.22,2.86,5.85,5.08,7.1,2.56,1.44,4.98,1.41,6.96-.96,1.86-2.23,1.28-4.55-.16-6.75-.46-.7-1.02-1.6-1.98-1.42-1.17,.23-.64,1.36-.78,2.13-.67,3.56-3.13,4.63-6.16,2.63-.79-.52-1.41-1.28-2.97-2.74Zm-119.16-184.6c-3.09-.03-5.95,1.65-8.94,.45-3.37-1.35-3.48-4.78-4.52-7.93-2.87,4.03-2.21,7.41,1.42,9.96,4,2.81,8.92,1.87,12.04-2.48Zm133.76-209.47c-.2-3.26-.39-5.4-3.26-5.29-2.79,.1-4.81,1.5-4.89,4.44-.07,2.47,1.41,4.28,3.99,4.14,2.5-.13,4.5-1.3,4.16-3.29Zm66.22,497.17c-.73,1.74,2.73,3.84-.72,5-.75,.25-1.99-1.52-2.28,.47-.15,1.03,.48,1.96,1.26,2.62,1.81,1.53,3.8,1.92,5.96,.7,1.79-1.02,2.29-2.65,1.66-4.42-.97-2.71-2.62-4.72-5.88-4.37Zm-45.74-502.42c-1.8,1.02-5.94-.37-5.28,3.21,.4,2.19,2.23,5.62,5.63,5.51,6.08-.19,.95-4.77,2.38-7.07,.85-1.36-1.3-1.64-2.73-1.65Zm-8.32,510.11c1.01,1.52,1.62,2.64,2.43,3.6,1.3,1.55,3.01,2.18,5,1.56,1.73-.54,2.42-1.95,2.55-3.62,.17-2.14-.4-4.01-2.47-5.05-1.34-.68-2.69-1.5-2.68,1.25,.01,2.94-1.91,3.3-4.83,2.26Zm112.98-17.39c1.42,5.51,1.05,6.03-3.56,4.91,.74,2.99,1.87,5.53,5.26,5.29,3.02-.21,3.89-2.62,3.8-5.34-.11-3.21-1.47-5.18-5.5-4.86Zm48.18-10.44c-1.55,3.78-.39,6.16,2.77,7.42,2.54,1.01,3.73-1.04,4.56-2.87,1.21-2.7-.04-4.72-2.34-6.24-.8-.53-1.61-.6-2.44-.13-.75,.43-.87,1.03-.49,1.81,.44,.91,2.07,2.09,.39,2.77-1.62,.65-1.81-1.34-2.45-2.76ZM525.4,198.27c-2.33,.18-3.79,1.62-3.82,4.13-.02,2.55,1.38,4.07,4.06,3.95,2.55-.11,4.14-1.55,4.12-4.08-.03-2.47-1.44-4.01-4.36-4Zm-177.79,315.32c.33,5.03,2.49,8.08,6.14,10.1,3.11,1.71,6.35,1.76,9.37-.33,1.77-1.23,2.85-2.85,2.29-5.63-6.48,6.93-9.32,6.26-17.79-4.14Zm242.75,242.39c1.35,2.26,3.1,3.56,5.64,2.9,2.44-.64,3.84-2.57,4.14-5,.31-2.56-1.22-4.3-3.33-5.54-.6-.35-1.3-.7-1.97-.1-.53,.48-.21,.99-.06,1.55,1.4,5,.86,5.78-4.42,6.18ZM408.82,49.45c-3.1,11.97-5.36,24.09-7,36.34,3.81-11.83,6.11-23.95,7-36.34Zm110.11,621.17c-.64,3.57-.44,6.75-3.94,7.68-3.8,1.01-5.08-1.97-6.77-4.53-.47,3.33,.63,5.76,3.45,7.15,2.35,1.16,4.87,1.31,6.82-.76,2.46-2.63,2.35-5.6,.44-9.54Zm18.84-582.94c-9.98,2.61-24.11,10.92-27.65,16.44,9.4-6.2,18.65-11.09,27.65-16.44Zm117.37,646.25c1.03,2.73,2.75,3.71,5.19,3.29,2.23-.39,3.43-2.02,4.14-3.99,.66-1.84-.1-3.44-1.4-4.68-1.26-1.2-2.67-1.67-2.84,.82-.22,3.15-2.1,4.43-5.09,4.56Zm-44.54,6.11c1.59,2.97,3.41,4.58,6.41,3.78,2.45-.65,4.03-2.42,3.99-5.01-.04-2.54-1.49-4.1-4.2-4.52,.13,5.35-.22,5.69-6.2,5.75Zm-18.03-.6c1.96,2.38,3.97,2.89,6.13,1.06,2.48-2.09,2.23-4.81,1.13-7.47-1.23-2.98-3.38-3.92-6.58-3.12,4.79,3.71,4.68,7.07-.68,9.54Zm16.14,36.28c5.19,1.91,9.53,3.67,6.35,9.72-.15,.29,.29,1.16,.68,1.41,1,.65,1.59-.22,2.06-.91,1.98-2.92,2-6.16,.15-8.9-1.97-2.93-5.02-3.44-9.24-1.33Zm-59.18-66.09c-.52,1.86-.19,3.06,.21,4.32,.57,1.79-.36,3.07-2.12,2.79-3.64-.59-1.84,1.42-1.34,2.62,.57,1.39,1.89,1.7,3.27,1.57,1.73-.16,3.26-.97,3.59-2.67,.67-3.38,.38-6.58-3.61-8.64Zm-228.45-141.27c-1.65,3.95-.55,6.51,3.35,8.46,3.78,1.89,8.02,1.13,9.65-1.71,.3-.52,.59-1.04,.14-1.54-.63-.7-1.29-.12-1.94,.08-6.56,2-8.06,1.33-11.19-5.29Zm57.46-124.43c-1.21,4.25-.48,7.82,3.43,10.03,3.49,1.97,6.75,1.52,10.68-2.42-8.22,2.19-12.16-.97-14.11-7.61Zm250.5,296.13c1.47,2.92,3.41,3.85,5.93,3.26,1.94-.45,3.34-1.69,3.7-3.76,.32-1.85-.25-3.49-1.81-4.55-1.17-.79-2.96-1.86-2.68,.97,.38,3.82-1.7,4.43-5.14,4.08ZM516.46,109.93c8.34-3.77,15.87-8.8,22.81-14.75-8.13,4.08-16.11,8.41-22.81,14.75Zm17.89,617.99c1.75-.13,3.38-.94,3.89-3.06,.51-2.12,.13-4.09-2.03-5.15-3.23-1.59-1.81,1.93-2.89,2.72-.34,.25-.66,.56-1.04,.75-.87,.46-2.71-.07-2.13,1.85,.55,1.83,1.97,2.76,4.19,2.89Zm-12.19-497.22c-.35-2.23-1.62-3.67-3.93-3.73-2.53-.07-4.11,1.28-4.03,3.9,.07,2.4,1.6,3.67,3.93,3.54,2.19-.12,3.73-1.29,4.03-3.71Zm-7.92,14.7c-.48-2.26-1.77-3.6-4.16-3.5-2.42,.11-3.7,1.51-3.53,3.92,.17,2.37,1.69,3.69,4,3.6,2.37-.1,3.44-1.75,3.68-4.02Zm5.46,90.63c-1.47,.29-2.74,.94-2.82,2.71-.07,1.51,4.55,5.59,6.1,5.43,1.64-.17,2.66-1.09,2.8-2.78,.1-1.22-4.62-5.38-6.09-5.36Zm-56.81,165.56c-7.18,3.32-7.43,3.16-9.67-5.66-2.22,4.29-1.33,9.39,1.93,10.98,2.83,1.39,5.84-.54,7.74-5.32ZM393.13,54.97c-5.35,8.86-7.05,18.82-7.96,28.98,2.65-9.63,5.29-19.26,7.96-28.98Zm142.26,630.27c-.21,2.88-.94,5.05-3.59,5.66-2.77,.64-4.12-1.63-6.26-3.87,.76,4.18,2.68,6.23,5.88,6.99,2.26,.53,4.46-.01,5.65-2.1,1.31-2.28,.35-4.36-1.69-6.67Zm-8.59,65.95c1.3,3.11,2.68,4.9,5.45,4.59,1.96-.22,3.09-1.64,3.33-3.51,.31-2.39-.31-4.42-3.38-5.73,.42,4.26-1.64,5.37-5.4,4.65Zm-23.22-475.36c-.39-2.13-1.41-3.73-3.87-3.74-2.45-.01-3.77,1.51-3.86,3.75-.1,2.55,1.79,3.45,4.01,3.42,2.08-.03,3.52-1.07,3.73-3.42Zm21.29-2.16c-2.32,.29-3.3,2.03-3.35,4.16-.06,2.14,1.3,3.67,3.46,3.52,2.44-.17,3.92-1.98,3.85-4.36-.06-2.11-1.66-3.2-3.95-3.32Zm-174.92,412.65c2.69,3.18,5.74,4.16,9.08,1.78,3.04-2.16,3.91-5.11,1.87-9.17-1.88,5.42-4.48,9.32-10.95,7.39Zm142.44-1.58c.43,3.84,2.25,5.36,4.66,6.19,1.87,.64,3.74,.27,5.15-1.25,1.31-1.41,1.27-3.19,.73-4.87-.37-1.14-1.55-2.33-2.31-.62-2.08,4.67-4.77,3.41-8.22,.54Zm160.34,64.02c1.11,4.32,3.66,5,7.09,4.18,2.16-.52,3.96-1.53,3.9-3.92-.06-2.47-1.68-3.65-4.23-3.76-.12,1.92,1.1,3.9-.8,5.04-2.14,1.29-3.61-1.06-5.96-1.54Zm-195.76-316.37c-2.27,.4-3.08,2-3.06,4.02,.02,2.12,.57,4.22,3.23,4.23,2.35,0,3.12-1.82,3.15-3.84,.03-2.23-.99-3.84-3.32-4.4Zm-196.17,85.52c19.12-10.59,20.3-10.9,36.02-9.63-11.16-4.53-28.33,.99-36.02,9.63Zm252.12-207.59c-2.21,.19-3.77,1.35-3.72,3.78,.05,2.34,1.9,3.25,3.88,3.2,2.23-.06,3.93-1.35,3.84-3.8-.08-2.28-1.72-3.15-3.99-3.18Zm-19.21,327.56c-.39,1.72,.24,3.12,1.27,4.33,1.88,2.21,4.24,3.43,6.75,1.32,2.52-2.11,1.57-4.67-.03-6.98-.5-.72-1.22-1.46-2.15-1.01-1.18,.57-.52,1.41,.01,2.09,.97,1.23,1.05,2.38-.31,3.34-1.41,1-2.4,0-3.42-.83-.77-.63-.77-1.92-2.11-2.26Zm77.3-481.79c-7.83,1.04-15.75,1.52-23.16,4.47,8.14,.57,15.74-1.54,23.16-4.47Zm-41.31,138.63c2.08-.23,3.71-.94,3.75-3.31,.04-2.22-1.18-3.56-3.36-3.59-2.31-.04-3.87,1.43-4.05,3.62-.19,2.34,1.75,2.97,3.65,3.28Zm44.9,463.23c-.1-1.47-.8-2.85-2.46-3.44-2.11-.75-1.9,1-2.11,2.18-.18,.99-.79,1.48-1.72,1.63-2.6,.44-1.18,1.78-.46,2.62,1.13,1.32,2.66,1.5,4.31,.88,1.71-.64,2.43-1.88,2.44-3.88ZM393,79.83c2.22-7.78,5.6-15.24,6.4-23.4-3.88,7.33-5.62,15.24-6.4,23.4Zm154.7,184.73c2.33-.28,3.47-1.73,3.58-3.78,.11-2.14-1.48-3.1-3.37-3.17-2.08-.08-3.93,1.01-4.08,3.09-.18,2.4,1.92,3.27,3.87,3.86ZM197.48,425.83c5.85-2.12,11.68-4.35,17.72-5.99,5.96-1.61,12-2.65,18.15-3.05-12.81-.38-24.7,2.94-35.86,9.04Zm270.33,39.52c-.21-2.09-.93-3.99-3.21-3.99-2.37,0-2.95,2.1-3.04,4.04-.08,1.94,.96,3.57,2.95,3.65,2.3,.1,3.12-1.68,3.3-3.71ZM402.91,56.42c-3,9.01-5.26,18.15-6.36,27.54,2.88-9.02,5.5-18.1,6.36-27.54Zm-100.56,555.61c-.06-1.63-.16-3.33-1.83-3.67-1.56-.32-1.47,1.38-1.81,2.39-.35,1.04-1.06,1.67-2.01,2.11-1.72,.79-1.32,2.07-.58,3.22,.96,1.49,2.36,1.58,3.72,.59,1.6-1.16,2.42-2.8,2.51-4.64Zm397.77,112.88c.35,1.59,2,2.69,1,3.89-1.62,1.96-3.74-.19-5.74,.23,1.09,2.55,2.69,4.2,5.62,3.72,2.2-.36,3.2-1.96,3.23-4.02,.03-2.38-1.25-3.73-4.12-3.82Zm-116.83,9.81c2.68,.04,4-.92,4.82-2.62,.46-.95,.71-2.05-.04-2.86-1.61-1.74-2.8,.23-4.17,.65-.27,.08-.56,.16-.81,.3-1.14,.65-3.79-.6-3.23,2.1,.39,1.89,2.31,2.37,3.41,2.43Zm-38.56-2.68c.08,2.03,2.18,4.83-2.03,4.44-.77-.07-.58,1.13-.29,1.76,.88,1.9,2.39,2.92,4.47,2.4,2.37-.59,2.52-2.47,1.97-4.43-.52-1.86-1.68-3.26-4.12-4.18Zm-25.2-435.16c-1.74,.38-3.14,1.39-3.2,3.39-.06,2.03,1.24,3.27,3.23,3.33,1.86,.06,3.54-.56,3.55-2.86,0-2.21-1.32-3.4-3.58-3.86Zm194.2,360.97c-.96,3.41,.18,5.26,2.58,6.28,1.64,.7,3.49,1,4.27-1.34,.78-2.33-.47-4.27-2.24-5.1-2.42-1.14-1.18,2.27-2.68,2.83-.56-.78-1.11-1.54-1.92-2.67Zm-208.01-339.76c-.38-1.99-1.46-3.39-3.7-3.26-2.05,.12-3.12,1.53-2.99,3.45,.13,1.91,1.36,3.23,3.39,3.13,1.9-.1,3.2-1.13,3.3-3.32Zm67.81,473.41c-.21-1.82-1.46-2.91-3.35-2.96-2.25-.06-3.39,1.48-3.4,3.54,0,1.79,1.29,2.87,3.05,2.94,2.18,.09,3.39-1.14,3.7-3.53Zm-273.72-158.65c.03-1.83-.09-3.53-2.34-3.38-1.59,.1-3.78-.11-3.49,2.58,.21,1.98,.36,4.33,3.1,4.33,2.23,0,2.54-1.91,2.74-3.53Zm104.02,144.38c-6.08,1.15-10.73-.9-14.24-5.84,.25,3.84,2.43,6.13,5.56,7.45,3,1.26,6.01,1.2,8.68-1.61Zm193.74-5.22c1.2,2.81,2.8,3.69,5.05,3.12,1.63-.41,2.93-1.37,2.87-3.25-.08-2.36-1.28-3.91-4.18-4.7,2.24,4.36-.14,5.04-3.75,4.83Zm-295.03-203.4c-.53,3.82,.23,5.95,3.65,6.25,3.62,.31,6.67-2.1,6.94-5.53-3.37,.88-6.71,5.3-10.59-.72Zm339.28,175.13c3.08,2.86,5.49,2.63,7.44,0,1.66-2.23,.77-4.36-1.25-5.96-.49-.39-1.41-.63-1.97-.45-.85,.27-.62,1.14-.29,1.8,1.83,3.66-.8,4.06-3.93,4.61Zm-253.71-305.99c-1.91,.61-3.46,1.71-3.57,3.83-.11,1.98,1.29,2.81,3.12,2.67,2.13-.16,2.99-1.64,2.96-3.56-.02-1.53-.64-2.82-2.51-2.94Zm-47.4,274.15c-.17,2.55-.56,5.4,2.03,5.8,2.58,.41,3.68-2.31,4.39-4.57,.26-.82,.3-1.82-.69-2.25-.88-.38-1.29,.42-1.59,1.03-1.28,2.65-2.56-.12-4.14-.01ZM378.54,77.15c1.88-7.89,5.16-15.32,7.74-22.98-4.77,6.59-7.99,16.28-7.74,22.98Zm156.71,262.49c-.14-2.24-1.69-2.86-3.51-3.01-1.75-.15-3.29,.44-3.31,2.44-.02,2.14,1.62,2.9,3.48,2.99,1.68,.08,3.16-.36,3.35-2.42Zm-8.93,381c-.33-1.78-1.14-4.22-2.7-3.77-1.66,.48-3.47,2.64-3.93,4.41-.36,1.4,1.91,2.15,3.57,2.15,1.85,0,2.9-.94,3.05-2.79Zm10.57-444.44c-.48-2.1-1.59-3.79-3.86-4.05-1.63-.18-2.84,.91-2.75,2.6,.12,2.26,2.02,3.09,3.84,3.52,1.38,.32,2.5-.45,2.77-2.07Zm-88.41,186.15c-.08-1.9-.79-3.46-2.87-3.61-1.87-.14-2.99,1.11-3.02,2.88-.04,2,.84,3.77,3.12,3.84,1.87,.06,2.72-1.28,2.77-3.11Zm97.21-166.77c-.05-1.77-.8-3.05-2.64-3.28-1.88-.24-3.03,.8-3.19,2.62-.17,1.94,.72,3.38,2.8,3.53,1.89,.13,2.8-1.06,3.03-2.86Zm-25.23,35.21c-.07-2.01-1.17-3.28-3.1-3.38-1.73-.09-3.06,.98-3.17,2.78-.12,1.98,1,3.29,3.05,3.32,1.71,.02,2.99-.8,3.22-2.72Zm-169.88,172.77c-5.3,.26-8.21-1.94-9.27-7.57-1.53,4.84-.6,7.49,2.41,9.18,2.11,1.19,4.27,1.14,6.87-1.61ZM421.36,92.98c0,5.73-2.22,11.16-2.24,16.86,2.55-5.38,4.04-10.91,2.24-16.86Zm-60.37,376.15c-.35-1.19-.86-1.94-1.73-2.16-.92-.23-1.31,.41-1.12,1.27,.37,1.67-.75,1.92-1.94,2.16-1.11,.23-1.82,.83-1.8,2.05,.02,1.18,.7,1.85,1.76,2.16,1.04,.3,2.03,.14,2.76-.71,1.25-1.44,.45-3.69,2.06-4.76Zm205.71-316.5c-6.53-.3-13.06-.54-19.05,2.83,6.26-1.59,12.85-.91,19.05-2.83Zm-116.42-64.82c3.45-5.7,6.99-11.38,9.08-17.78-4.28,5.28-6.84,11.44-9.08,17.78Zm7.62,385.12c-.19-1.49-.77-2.99-2.86-2.78-1.86,.19-2.17,1.79-2.12,3.27,.06,1.63,.45,3.38,2.6,3.29,2.15-.1,2.22-1.9,2.38-3.77Zm60.76-127.81c-.24-1.55-.9-2.88-2.61-2.91-1.83-.03-2.95,1.12-2.92,2.98,.02,1.59,.85,2.79,2.56,2.89,2.02,.13,2.67-1.28,2.97-2.97Zm-193.77,372.5c-7.43-1.38-5.34-7.71-6.49-12.64-2.57,7.66,.64,14.01,6.49,12.64Zm59.5,55.1c-5.27,1.15-9.63,2.14-15.34,.91,6.57,3.78,10.98,3.47,15.34-.91Zm318.27-85.8c.05,3.51,1.68,4.69,3.93,5.24,1.29,.31,2.21-.42,2.9-1.44,.62-.92,.76-1.93,.06-2.82-1.05-1.33-1.72,.2-2.53,.48-1.51,.52-2.76,.1-4.37-1.46Zm-152.63,12.85c-4.39,.19-6.94-1.12-6.25-6.63-2.52,4.05-1.65,6.56,.73,8.49,1.95,1.58,3.93,1.31,5.52-1.86Zm-214.08,31.9c-6.37,1.33-8.28-1.85-9.2-6.32-.95,3.31-.4,5.97,2.32,7.82,1.94,1.32,3.94,1.57,6.89-1.51Zm104.69-251.82c-.15-1.43-.73-2.68-2.57-2.6-1.76,.07-2.57,1.27-2.53,2.86,.04,1.71,.85,3.24,2.81,3.05,1.62-.16,2.28-1.55,2.29-3.3Zm86.59-170.73c-.25-1.53-.93-2.77-2.7-2.71-1.46,.05-2.39,.96-2.45,2.46-.06,1.6,.61,2.94,2.34,2.99,1.65,.05,2.51-1.13,2.8-2.74Zm-68.13,219.47c-1.17,3.51,.18,5.31,2.63,6.42,2.1,.96,4.09,.89,5.69-1.86-4.08,.77-6.31-1.36-8.32-4.57Zm262.48,136.72c3.77-1.47,4.68-3.47,4.51-5.87-.18-2.5-1.3-4.53-4.75-5.74,2.19,3.98,3.93,7.33,.25,11.62Zm-403.23,82.7c-5.08-.52-8.03-3.44-9.38-8.28-.03,7.01,3.69,10.3,9.38,8.28Zm169.01-446.65c-.27-1.29-.91-2.78-2.91-2.58-1.38,.14-2.42,1.08-2.3,2.62,.16,1.95,1.61,2.61,3.32,2.61,1.38,0,2.03-.88,1.89-2.65Zm134.14,470.41c1.73,.55,2.91,.93,4.04,1.3-.54,1.23-2.48,.19-2.58,2.35,1.95-.15,3.98,.45,5.2-1.72,.6-1.08-.08-1.94-.94-2.55-1.81-1.29-3.61-1.55-5.72,.63Zm-90.44-470.83c.95-.32,2.3-.8,2.18-2.41-.13-1.83-1.35-2.84-3.21-2.79-1.6,.05-2.34,1.04-2.15,2.59,.2,1.61,1.01,2.68,3.18,2.6ZM368.97,56.35c-4.03,3.17-6.05,7.28-6.05,12.34,2.02-4.11,4.04-8.22,6.05-12.34Zm197.71,164.66c1.69-.06,2.61-.97,2.66-2.68,.04-1.43-.48-2.7-2.09-2.72-1.69-.03-2.59,1.2-2.78,2.75-.18,1.5,.62,2.43,2.2,2.65Zm-129.46-119.23c-.27-.24-.55-.49-.82-.73-3.88,3.72-7.3,7.84-9.8,12.78,3.54-4.02,7.08-8.03,10.62-12.05Zm228.62,638.05c-1.76,.25-2.45,1.51-2.41,3.02,.04,1.5,1.13,2.29,2.63,2.14,1.67-.17,2.62-1.22,2.41-2.9-.18-1.39-1.09-2.28-2.63-2.26Zm-322.2-225.51c-4.24-.13-7.25-2.25-9.96-6.44,1.58,6.22,5.79,8.72,9.96,6.44Zm217.07,225.77c2.58,2.78,4.51,4.15,6.46,2.22,1.58-1.57,.98-3.59-1.76-6.16,.89,4.4-1.08,4.9-4.71,3.95Zm-55.38-393.21c-1.4,.24-2.53,.87-2.32,2.5,.18,1.37,.91,2.5,2.57,2.26,1.43-.21,2.49-1.09,2.46-2.56-.03-1.56-1.24-2.13-2.71-2.2Zm-121.88,413.73c-2.47,2.43-6.14,2.11-8.89,3.79,3.66,.34,7.28,.58,8.89-3.79Zm-61.72-.78c5.32,5.2,8.07,5.89,12.35,3.33-4.33,.05-7.99-.64-12.35-3.33Zm243.87-48.94c-3.15,.44-5.65,.2-7.5-3.37-.16,3.44,.98,5,2.9,5.85,1.78,.79,3.33,.23,4.61-2.48Zm-257.81-112.5c-.24,4.9,1.42,6.21,6.7,5.35-2.26-2-5.61-2.28-6.7-5.35Zm388.78,98.89c1.06,3,2.72,4.1,4.91,3.22,2.11-.85,2.1-2.7,.93-5.2-1.47,2.3-2.98,3.88-5.84,1.98Zm-389.22,7.04c.12,3.58,1.64,5.05,3.98,5.8,1.7,.54,2.23,.17,3.92-2.38-3.53,1.52-5.53-.53-7.9-3.42Zm338.13-266.33c-6.1-1.99-12.33-1.84-18.59-.89,6.2,.08,12.42-.3,18.59,.89Zm-111,340.5c-.26,3.59-.24,7.17-1.91,10.53,2.79-3.16,4.39-6.52,1.91-10.53Zm187.68-134.21c-.39,3.27-3.65,1.96-5.19,3.53,4.5,2.24,5.9,1.42,5.19-3.53Zm-151.46,129.44c-1.05-5.21-3.7-7.06-7.11-5,2.79,1.02,4.81,2.94,7.11,5Zm31.76-23.97c1.06,2.23,2.83,2.93,4.98,2.66,1.48-.19,2.45-1.22,2-2.73-.51-1.7-1.77-.59-2.39-.12-1.5,1.13-3.02-.18-4.59,.19Zm-58.84-546.39c-1.37,.24-2.39,.93-2.28,2.52,.09,1.31,.91,2.16,2.22,2.16,1.57,0,2.27-1.08,2.26-2.55,0-1.36-.75-2.1-2.2-2.12Zm-183.33,529.97c3.55,2.37,6.92,2.33,11.03-1.6-4.34,1.4-7.59,2.45-11.03,1.6Zm34.33-294.58c1.26-.2,1.63-1.05,1.48-2.18-.16-1.21-.66-2.37-2.02-2.41-1.5-.04-1.86,1.11-1.67,2.41,.18,1.26,.79,2.15,2.21,2.18Zm-69.66,95.81c.1,3.03,1.54,4.16,3.27,4.81,1.49,.56,2.78,.04,3.5-2.47-3.2,2.17-4.3-.73-6.77-2.34Zm233.79-369.45c-.03-.36-.07-.72-.1-1.08-3.21,.36-6.56-.24-9.53,1.93,3.21-.28,6.42-.57,9.63-.85Z"/>
  <path d="M483.45,408.27c2.51,4.83,7.29,3.62,11.71,4.31-.89,3.57-2.43,6.71-4.73,9.5-1.89,2.29-4.24,2.92-6.95,1.7-2.77-1.25-4.1-3.35-3.93-6.52,.19-3.55,3.04-5.83,3.94-9.04,.01-.02-.04,.07-.04,.07Z"/>
  <path d="M503.98,389.49c-3.65-.05-6.91-3.19-6.5-6.63,.42-3.49,2.68-5.29,6.2-5.36,3.17-.06,7.19,2.75,7.29,5,.13,3.07-3.83,7.02-6.99,6.98Z"/>
  <path d="M590.62,802.26c-1.17-.12-2.31,.38-2.83-.91-1.24-3.04-2.88-5.98-2.92-9.38-.02-2.14,.91-3.92,2.76-5.04,.96-.58,1.97-.44,2.53,.72,.41,.84,.38,1.61-.39,2.32-2.7,2.48-2.5,3.54,.92,4.93,.27,.11,.54,.22,.82,.28,2.5,.54,4.35,1.67,3.98,4.62-.42,3.39-3.37,1.69-4.87,2.47Z"/>
  <path d="M550.22,795.86c.05-1.63,1.36-3.04,1.95-2.54,1.97,1.69,6.38,.42,6.12,4.69-.12,2.04-1.39,3.77-3.55,3.61-3.56-.26-3.36-3.74-4.53-5.77Z"/>
  <path d="M352.03,176.62c-.18,8.56-6.28,14.8-14.41,14.74-9.66-.08-18.1-8.33-17.98-17.56,.11-8.79,6.54-15.24,15.08-15.13,9.77,.13,17.51,8.16,17.31,17.96Z"/>
  <path d="M474.4,203.75c-.04,9.91-6.31,16.79-15.36,16.88-9.46,.09-17.25-8.38-17.13-18.63,.11-9.66,6.7-16.61,15.72-16.57,9.53,.04,16.83,8.01,16.78,18.33Z"/>
  <path d="M678.68,737.13c-1.88,.08-3.12-.64-3.22-2.04-.14-2.04,1.81-2.42,3.26-2.76,1.56-.36,2.46,.71,2.43,2.23-.04,1.74-1.24,2.45-2.47,2.57Z"/>
  <path d="M545.06,242.64c.08,1.67-.71,2.72-2.45,2.78-2.28,.08-4.05-1.1-4.43-3.25-.35-1.94,1.41-2.65,3.08-2.77,2.2-.16,3.48,.98,3.81,3.24Z"/>
  <path d="M675.76,749.86c1.99,.52,3.92,1.07,3.94,3.73,.02,1.74-.71,2.75-2.49,2.77-2.67,.04-3.3-1.89-3.61-3.97-.23-1.55,.54-2.44,2.16-2.54Z"/>
  <path d="M627.31,786.54c-.22,1.68-1.39,2.41-2.85,2.79-1.42,.36-2.23-.3-2.29-1.72-.08-1.65,1.12-2.22,2.46-2.42,1.13-.17,2.34-.21,2.69,1.36Z"/>
  <path d="M494.46,288.88c.13-.84,.1-1.74,.41-2.51,.71-1.74,2.17-1.64,3.6-1.09,1.11,.43,2.06,1.17,1.75,2.56-.37,1.7-1.67,2.31-3.22,2.07-.93-.14-1.78-.78-2.66-1.19,0,0,.13,.15,.13,.15Z"/>
</svg>