<?xml version="1.0" encoding="UTF-8"?>
<svg id="Layer_1" data-name="Layer 1" xmlns="http://www.w3.org/2000/svg" viewBox="0 0 864 864">
  <path d="M656.54,95.69c-18.72-2.3-37.55-2.3-56.35-2.82-15.02-.42-29.88-2.02-44.57-5.32-4.58-1.03-6.87-3.22-8.2-7.75-4.34-14.71-6.9-29.78-9.62-44.82-1.56-8.61-3.66-17.07-7.41-24.99-3.08-6.52-5.83-7-11.1-2.19-5.94,5.43-10.43,12-14.32,18.97-6.59,11.79-11.77,24.19-15.52,37.16-.79,2.73-1.89,3.8-4.74,3.41-3.63-.49-7.32-.93-10.97-.86-3.12,.06-4.48-1.09-5.61-3.96-7.79-19.92-18.24-38.38-31.36-55.25-2.9-3.73-5.93-8.59-11.84-6.92-5.59,1.58-6.53,6.93-7.41,11.72-3.42,18.46-4.31,37.07-2.02,55.72,.46,3.76-.57,5.03-4.02,5.92-5.17,1.32-10.32,2.94-15.22,5.02-3.34,1.42-4.9,.79-6.87-2.21-13.02-19.78-30.44-34.55-51.95-44.41-3.39-1.56-7.49-3.96-10.81-1.22-3.44,2.84-2.02,7.41-1.13,11.25,4.17,18.15,11.43,35.14,19.69,51.75,1.82,3.66,5.81,7.7,5.13,10.75-.77,3.45-5.67,5.98-8.77,8.91-.22,.21-.46,.41-.65,.64-1.36,1.65-2.57,1.61-4.13,.06-10.04-9.94-21.75-17.83-32.92-26.37-6.7-5.13-13.84-9.62-21.78-12.56-6.01-2.23-9.53,.18-10.06,6.52-.23,2.79,.4,5.48,1.11,8.14,5.47,20.4,15.78,38.37,27.91,55.4,3,4.21,7.98,7.82,9.04,12.39,1.07,4.66-3.46,9.52-4.69,14.56-.67,2.76-2.35,3.59-4.82,3.92-9.41,1.27-18.64,3.46-27.84,5.74-8.31,2.06-16.66,3.99-24.88,6.34-5.97,1.71-7.25,5.86-3.55,10.83,1.62,2.19,3.65,4.12,5.7,5.93,12.96,11.48,27.74,20.01,43.74,26.48,3.45,1.4,6.46,3.08,8.53,6.52,5.07,8.45,5.28,8.48-3.35,13.99-10.57,6.74-21.29,13.24-31.9,19.93-1.45,.92-3.9,1.67-3.35,3.79,.46,1.76,2.82,1.4,4.42,1.59,8.05,.94,16.13,1.63,24.16,2.74,9.13,1.26,18.06,3.38,25.98,8.42,11.74,7.47,14.83,19.66,8.13,31.82-2.97,5.4-6.86,10.11-10.82,14.78-3.07,3.62-6.09,7.27-8.32,11.5-2.44,4.62-1.83,6.87,2.68,9.38,4.57,2.55,9.6,3.97,14.53,5.59,16.84,5.52,34.05,9.92,50.28,17.26,7.93,3.59,13.67,9.07,16.81,17.23,2.84,7.38,4.05,15.02,3.93,22.91-.18,11.8-5.47,20.5-15.92,25.91-4.74,2.45-9.7,4.49-14.57,6.71-4.17,1.9-8.49,3.51-12.12,6.42-5.77,4.62-5.51,8.67,.82,12.45,4.96,2.96,10.57,3.93,16.07,5.2,14.05,3.25,27.94,6.94,39.97,15.4,6.2,4.36,10.89,9.83,12.18,17.62,1.77,10.66-3.5,17.98-14.11,19.35-10.01,1.3-20.05,2.33-30.05,3.62-2.4,.31-4.83,.91-7.08,1.8-4.14,1.64-4.61,3.71-1.49,6.77,2.17,2.13,4.65,3.97,7.1,5.79,7.87,5.85,13.98,13.17,18.69,21.73,4.53,8.24,2.49,15.6-2.74,22.61-5.04,6.74-11.69,6.98-18.97,4.75-1.46-.45-2.93-.88-4.4-1.29-7.24-2.01-14.5-3.85-22.12-3.3-7.74,.56-9.94,3.47-7.52,10.78,2.2,6.67,4.98,13.15,7.34,19.77,6.32,17.74,1.41,29.76-14.85,39.36-7.74,4.57-14.83,4.58-22.54,.8-7.01-3.44-13.66-7.51-20.47-11.31-2.69-1.5-5.85-4.53-8.72-2.37-2.87,2.16-.97,6-.11,9.01,2.8,9.85,6.01,19.59,8.58,29.5,2.62,10.11-1.38,18.41-10.4,23.01-6.56,3.34-12.72,1.92-16.88-4.13-2.42-3.52-4.45-7.32-6.84-10.86-1.43-2.12-2.9-5.18-5.62-4.87-3.06,.35-2.74,3.99-3.44,6.33-2.41,8.06-4.62,16.2-8.92,23.51-2.43,4.12-5.57,4.85-9.72,2.79-6.22-3.08-10.07-10.13-9.38-17.03,.37-3.69,1.61-7.15,2.57-10.69,.45-1.66,2.14-3.55,.36-5.07-1.52-1.3-3.5-.32-5.23,.27-7.17,2.42-7.55,2.22-9.02-5.34-.29-1.49-.43-3.03-.51-4.55-.77-14.64,1.72-29.01,4.3-43.28,3.82-21.14,7.26-42.24,4.47-63.79-.37-2.88,1.33-2.89,3.24-3.08,9.7-.97,17.22-5.84,23.35-13.16,7-8.36,12.34-17.85,18.23-26.97,.37-.57,.97-1.26-.23-2.32-7.16,2.3-12.48,7.92-18.88,11.92,4.96-9.18,11.34-17.34,17.55-25.65-11.73,4.84-20.74,13.32-30.68,22.32,3.98-14.19,9.3-26.4,15.84-38.16-8.99,6.6-16.86,14.11-23.76,22.73,1.3-9.47,2.6-18.94,3.91-28.41-5.77,5.3-9.08,11.68-13.22,18.26-2.64-8.59-3.4-17.17-8.04-25.82-1.8,13.28-3.43,25.33-5.07,37.39-6.83-11.17-12.4-22.73-24.07-31.07,3.25,13.42,8.97,25.13,10.59,39-7.48-7.43-14.23-13.95-24.52-17.49,6.14,9.09,12.37,16.73,16.39,26.42-4.57-1.22-8.36-2.24-12.17-3.24-.87-.23-1.95-.78-2.59,0-.87,1.05,.14,2.04,.73,2.84,11.32,15.59,24.27,28.94,44.79,31.32,2.86,.33,3.49,1.34,3.11,4.1-1.2,8.5-2.97,16.84-5.35,25.09-4.3,14.94-12.06,28.4-18,42.64-7.81,18.72-14.6,37.78-16.26,58.08-3.25,39.71,12.75,71.15,43.25,95.67,17.38,13.97,37.31,23.27,58.56,29.74,3.21,.98,3.99,2.29,3.28,5.53-2.19,10-4.02,20.08-6.11,30.11-.56,2.66-.27,3.8,2.95,3.79,40.03,0,80.06-.06,120.09-.04,.61,0,1.28-.02,1.74-.42,.71-.61,.57-1.73,.36-2.64-1.45-6.38-2.9-12.76-4.35-19.14-.21-.92-.36-2.04,.36-2.66,.41-.35,1-.41,1.54-.45,15.74-1.23,31.54-1.54,47.33-1.58,15.14-.04,30.62,1.08,45.67-.28,2.91-.26,3.87,.23,3.12,3.36-1.55,6.54-2.58,13.21-4.22,19.73-.86,3.42,.04,4.15,3.36,4.13,17.9-.13,35.8-.15,53.7,.02,3.73,.04,4.34-.88,3.29-4.39-2.7-9.08-5.03-18.27-7.47-27.43-.43-1.61-1-3.22,1.55-3.93,6.6-1.86,13.15-3.93,20.38-6.12-2.06,12.54-3.86,24.46-6.06,36.31-.63,3.39,.46,3.83,3.33,3.8,11.32-.11,22.65-.23,33.96,.02,4.03,.09,4.87-1,4.14-4.89-2.8-14.88-5.23-29.82-7.96-44.71-.57-3.11-.09-5.42,2.1-7.87,6.06-6.77,10.69-14.51,14.37-22.82,12.66-28.6,17.57-58.82,18.15-89.79,1.09-58.13-13.83-112.6-39.18-164.43-20.27-41.45-48.28-77.57-79.17-111.5-17.5-19.23-35.84-37.69-53.61-56.67-12.59-13.45-22.83-28.35-26.62-46.85-3.57-17.43,3.93-34.9,18-42.09,1.99-1.02,3.92-1.46,6.15-1.16,8.04,1.05,16.08,2.04,24.14,2.93,35.04,3.86,69.95,3.77,104.48-4.31,38.14-8.93,72.4-25.28,100.06-53.7,13.82-14.2,24.96-30.15,29.93-49.74,8.87-35-11.3-64.55-47.04-68.94Zm-399.84,107.12c-2.58-.04-3.68-1.79-3.57-4.26,.12-2.67,1.68-4.32,4.26-4.31,2.62,0,4.03,1.73,4.22,4.47-.31,2.88-2.24,4.14-4.92,4.1Zm15.07,8.57c-2.44-.02-4.02-1.31-3.98-3.9,.04-2.34,1.44-3.62,3.76-3.59,2.45,.03,3.94,1.26,4.01,3.82-.18,2.4-1.52,3.68-3.79,3.66Zm5.03-10.01c-2.38-.15-4.13-1.36-4.26-3.93-.12-2.3,1.51-3.12,3.47-3.44,2.44,.36,4.06,1.67,4.25,4.11,.17,2.27-1.29,3.4-3.46,3.26Zm10.18,13.83c-2.23-.21-3.68-1.22-3.58-3.72,.08-2.26,1.49-3.26,3.54-3.33,2.1-.07,3.56,1.01,3.6,3.21,.04,2.24-1.02,3.76-3.55,3.83Zm3.61-12.42c-1.89-.06-3.25-1.09-3.07-3.17,.18-2.09,1.44-3.36,3.62-3.31,2.01,.05,2.94,1.33,3.12,3.21-.23,2.25-1.58,3.34-3.67,3.27Zm-4.79,69.16c-.2,2.13-1.67,3.32-3.75,3.14-1.8-.16-3.17-1.28-3.01-3.34,.17-2.09,1.53-3.17,3.35-3.56,2.22,.47,3.6,1.57,3.4,3.76Zm-3.94-178.57c-2.83-.09-5.11-1.26-5.5-4.39-.36-2.86,2.92-6,6.26-6.04,3.06-.03,4.83,1.52,5.09,4.65,.08,3.06-2.65,5.88-5.84,5.78Zm9.96,19.64c-2.78-.37-4.81-1.49-4.81-4.52,0-3.59,2.45-5.18,5.54-5.42,2.75-.21,4.77,1.46,4.73,4.36-.05,3.41-2.4,4.99-5.46,5.58Zm5.51-15.22c-.15-2.82,1.25-4.8,4.24-4.92,3.41-.14,4.19,2.44,4.73,4.99-.12,2.69-1.05,4.83-3.93,4.79-2.97-.03-4.89-1.83-5.05-4.87Zm6.66,31.13c-2.69,.2-4.97-.93-4.99-3.99-.02-2.79,1.82-4.51,4.57-4.73,2.79-.22,4.59,1.19,5.08,4.02-.18,2.99-1.99,4.49-4.66,4.7Zm3.54,123.99c1.64-.1,2.41,1,2.71,2.48-.2,1.64-1.18,2.49-2.71,2.6-1.47,.11-2.35-.76-2.33-2.19,.02-1.47,.65-2.78,2.33-2.89Zm-10.47,20.19c-1.98-.04-3.49-.69-3.53-2.77-.05-2.66,1.85-3.67,4.12-3.84,1.93-.14,3.95,.59,3.97,2.75,.03,2.79-2.31,3.53-4.56,3.86Zm11.23-3.49c-1.92-.25-4.17-.79-3.85-3.42,.27-2.21,2.17-2.62,4.24-2.53,1.95,.36,3.9,1.14,3.72,3.57-.17,2.39-2.31,2.61-4.11,2.37Zm5.49-152.98c-2.85-.19-4.94-1.25-5.33-4.18-.34-2.51,3.22-5.76,6.14-5.64,2.65,.1,4.47,1.56,4.55,4.21,.12,3.56-2.35,5.01-5.36,5.62Zm10.83,236.1c-2.6-.05-5.08-1.05-5.14-3.97-.06-3.12,2.5-4.12,4.78-4.52,3.05,.13,5.01,1.3,4.98,4.01-.03,2.72-1.71,4.54-4.62,4.48Zm55.65-6.98c.15-1.72,1.32-2.62,3.29-2.57,1.5,.2,2.77,1.02,2.68,2.82-.1,1.94-1.41,3.02-3.34,2.82-1.7-.17-2.79-1.33-2.63-3.07Zm-21.61-277.17c.3-2.68,2.26-3.96,4.85-3.72,2.4,.22,3.86,1.65,3.81,4.45-.48,2.53-2.23,3.76-4.84,3.48-2.37-.25-4.11-1.63-3.82-4.2Zm-7.12-20.82c3.16,.04,4.6,2.1,4.56,5.05-.04,2.6-1.51,4.44-4.22,4.29-2.78-.16-4.26-2.01-4.36-4.84,.19-2.54,1.17-4.53,4.03-4.49Zm-19.83-5.39c.32-2.89,1.63-5.36,4.9-5.33,2.68,.03,4.59,1.96,4.39,4.8-.19,2.74-1.58,5.03-4.72,5.17-2.98,.14-4.34-1.68-4.57-4.64Zm11.12,26.04c-2.84,.18-4.88-1.51-4.68-4.38,.22-3.19,2.42-5.39,5.64-5.6,2.82-.18,4.33,1.81,4.85,4.62-.58,3.19-2.58,5.15-5.81,5.35Zm8.81,247.54c1.97,.06,3.14,1.15,3.17,3.11,.04,2.06-.83,3.6-3.22,3.56-1.95-.04-3.24-1.04-3.31-3.05-.08-2.17,1.13-3.38,3.35-3.62Zm-7.83-15.9c1.66,.14,2.69,.69,2.59,2.22-.09,1.37-.91,2.27-2.34,2.24-1.43-.03-2.2-1.01-2.28-2.34-.08-1.52,.97-2.05,2.02-2.13Zm-14.58-25.33c-.12-2.04,.99-3.22,2.93-3.24,2.04-.02,2.83,1.43,2.93,3.31,.11,2.03-.92,3.07-2.88,3.35-1.93-.33-2.86-1.55-2.98-3.42Zm4.43,58.81c-1.8-.22-3.33-.95-3.11-3.03,.22-2.07,1.83-3.11,3.78-3.18,1.94-.07,3.16,1.14,3.05,3.09-.12,2.18-1.66,3.02-3.72,3.12Zm3.08-52.7c.1-1.34,1.02-1.78,2.18-1.79,1.42-.01,2.38,.69,2.25,2.19-.12,1.37-1.02,2.13-2.48,2.15-1.39-.27-2.06-1.12-1.95-2.55Zm.76,12.97c-.08-1.3,.46-2.48,1.94-2.47,1.8,0,1.96,1.48,2.07,2.79-.06,1.16-.25,2.41-1.54,2.38-1.51-.04-2.37-1.21-2.46-2.69Zm3.06,19.05c0-1.45,.88-2.25,2.24-2.42,1.69-.21,2.53,.72,2.73,2.33-.02,1.63-.88,2.61-2.48,2.67-1.68,.07-2.48-.98-2.49-2.59Zm6.01,46.85c-2.19-.1-3.91-1.28-3.77-3.73,.14-2.58,1.98-3.77,4.37-3.77,2.32,0,3.58,1.44,3.79,3.75-.37,2.56-1.95,3.87-4.38,3.75Zm5.63-23.38c-2.03-.12-2.76-1.61-2.7-3.46,.06-1.91,1.01-3.08,2.98-3.14,2.07,.17,3.02,1.38,3.04,3.26,.02,2.14-1.13,3.46-3.32,3.34Zm1.63-24.98c-1.64-.08-2.75-.87-2.75-2.49,0-1.73,.95-2.95,2.82-2.93,1.69,.01,2.43,1.11,2.39,2.71-.05,1.59-.85,2.55-2.45,2.71Zm-1.48-227.44c-2.63-.15-4.58-1.26-4.64-4.03-.08-3.36,2.23-4.98,5.22-5.17,2.54-.16,4.58,1.3,4.6,4.02,.03,3.23-2.03,4.89-5.18,5.18Zm5.99,240.63c-.11-1.36,.72-2.23,2.13-2.43,1.7-.05,2.44,1.03,2.65,2.48,.2,1.34-.39,2.46-1.83,2.61-1.84,.2-2.81-.99-2.95-2.66Zm3.09,10.87c.12-1.91,1.05-3.22,3.1-3.14,2.62,.11,3.62,1.82,3.7,4.2-.18,2.14-1.18,3.63-3.39,3.42-2.55-.24-3.55-2.04-3.4-4.48Zm.07,14.31c-.02-1.91,.86-3.17,3-3.37,2.59,.87,3.8,2.81,3.84,5.48,.03,2.04-1.12,3.23-3.16,2.88-2.67-.46-3.66-2.48-3.68-4.99Zm4.8,14.95c-1.57-.27-2.35-1.32-2.34-2.82,.01-1.43,.96-2.23,2.38-2.09,1.58,.15,2.45,1.24,2.4,2.76-.05,1.39-.99,2.11-2.44,2.16Zm1.26-39.27c-.07-1.66,1.1-2.37,2.66-2.34,1.49,.02,2.8,.57,2.81,2.24,.01,1.78-1.26,2.57-2.67,2.77-1.91-.14-2.74-1.21-2.8-2.67Zm3.61,23.5c.04-1.63,.78-2.93,3.12-2.77,2.38,.43,3.37,2.42,3.52,4.8,.12,1.88-.97,3.38-3.02,2.99-2.56-.5-3.68-2.51-3.61-5.01Zm6.93,20.41c-2.63-.14-3.57-2-3.72-4.34-.11-1.65,.4-3.34,2.31-3.23,2.51,.14,4.06,1.77,4.4,4.04-.09,2.25-.89,3.65-2.99,3.53Zm2.43-9.04c-.05-2.11,1.19-3.57,3.35-3.47,2.3,.11,3.33,1.81,3.63,3.93-.11,2.18-1.38,3.02-3.32,2.84-1.97-.18-3.61-1.1-3.66-3.31Zm7.12,19.55c-2.83-.26-4.19-2.33-4.26-5.08-.06-2.35,1.5-3.36,3.57-3.12,2.64,.29,3.84,2.19,4.13,4.55-.19,2.29-1.32,3.85-3.44,3.65Zm-27.44,85.4c-1.55,.05-2.59-.93-2.49-2.57,.14-2.27,1.39-3.6,3.76-3.64,1.64-.03,2.43,.89,2.62,2.36-.46,2.24-1.6,3.77-3.89,3.84Zm19.35,.48c-2.05-.09-3.76-.8-3.7-3.08,.05-1.84,1.35-3.11,3.23-3.23,2.12-.13,3.52,1.05,3.62,3.2,.09,2.02-1.25,2.94-3.15,3.11Zm-165.32,228.12c1.74-.16,1.75,1.26,1.94,2.25-.28,1.57-.49,3.04-2.31,3.05-1.57,0-2.01-1.1-1.97-2.46,.04-1.54,.72-2.69,2.34-2.84Zm-2.77,12.3c1.69-.18,2.5,.69,2.68,2.14-.1,1.88-.92,3.1-2.68,3.24-1.75,.14-2.32-1.12-2.35-2.64-.04-1.59,.73-2.57,2.36-2.74Zm-1.66,10.4c1.63-.02,3.01,.71,3.14,2.6,.13,1.9-1.1,2.66-2.81,2.98-1.94,.05-2.57-1.27-2.72-2.9-.15-1.65,.82-2.66,2.39-2.68Zm-7.98-20.87c.08,1.62-.9,2.56-2.47,2.63-1.38,.06-2.29-.65-2.25-2.18,.04-1.55,.7-2.58,2.37-2.73,1.38,.15,2.28,.91,2.35,2.28Zm-3.48-42.02c1.54,.09,2.56,.83,2.69,2.47-.15,1.54-1.17,2.17-2.5,2.01-1.47-.18-2.55-1.08-2.42-2.74,.1-1.28,1.03-1.81,2.23-1.74Zm-4.79,14.15c.1-1.59,1.01-2.6,2.54-2.65,1.81-.05,2.65,1.15,2.8,2.87-.32,1.65-1.12,2.96-2.92,2.91-1.88-.05-2.52-1.4-2.41-3.13Zm-1.61,17.36c2.49-.06,2.86,1.79,2.83,3.89-.22,1.95-.59,4.11-3.17,4.16-2.52,.04-3.36-1.93-3.26-4.08,.1-2.16,1.2-3.91,3.6-3.97Zm-5.9-21.94c1.51-.2,2.1,.78,2.25,2.12,0,1.37-.55,2.33-2,2.47-1.46,.14-2.27-.59-2.26-2.05,0-1.32,.63-2.35,2.01-2.54Zm-4.01,37.07c-1.72,.19-2.03-1.44-2.21-2.76-.02-1.78,.6-3.19,2.42-3.34,1.73-.13,2.33,1.14,2.24,2.71-.09,1.65-.79,3.2-2.45,3.39Zm.7-21.69c-.17-1.82,.9-2.75,2.71-3,1.73,.05,2.78,.92,2.75,2.76-.03,1.82-1.17,2.78-2.87,2.83-1.62,.05-2.45-1.11-2.59-2.59Zm4.24,24.75c.1-2.69,.66-5.02,3.7-4.91,2.61,.09,3.63,2.19,3.57,4.48-.07,2.48-1.39,4.68-4.01,4.77-2.75,.09-3.18-2.3-3.26-4.34Zm8.01,28.53c-1.46-.03-2.2-.88-2.39-2.21-.2-1.41,.41-2.42,1.85-2.56,1.58-.15,2.68,.64,2.7,2.29,.01,1.32-.79,2.22-2.16,2.48Zm4.94-12.88c-2.71-.15-2.58-2.6-2.64-4.52-.08-2.6,1.01-4.62,3.88-4.5,2.43,.1,3.11,2.07,3.19,4.26-.45,2.55-1.34,4.93-4.44,4.76Zm3.19,6.16c1.33,.04,2.18,.77,2.42,1.88-.11,1.66-.92,2.52-2.24,2.6-1.56,.09-2.53-.77-2.52-2.41,0-1.51,.99-2.1,2.34-2.06Zm.47,12.34c-1.81-.07-2.85-1.06-2.75-2.92,.09-1.69,1.35-2.43,2.79-2.46,1.85-.04,2.58,1.3,2.81,2.77-.29,1.81-1.24,2.67-2.85,2.6Zm7.13,12.91c-2.19,.18-3.59-1.09-3.66-3.21-.08-2.39,1.5-3.61,3.82-3.61,1.99,0,3.07,1.14,3.17,3.22-.05,2.12-1.21,3.42-3.33,3.59Zm3.63-11.57c-1.58-.21-2.95-.81-3.1-2.63-.13-1.56,.71-2.63,2.31-2.74,1.73-.12,2.91,.73,3.07,2.54,.14,1.57-.66,2.55-2.27,2.83Zm3.85-9.82c-1.97-.26-2.82-1.41-2.84-3.13-.01-1.6,.91-2.6,2.53-2.69,1.8-.1,3.03,.78,2.98,2.66-.05,1.69-1.1,2.77-2.66,3.16Zm7.24,19.56c-1.58-.08-2.47-.96-2.39-2.6,.07-1.65,1.2-2.31,2.64-2.52,1.78-.26,2.31,.91,2.61,2.23-.25,1.8-1,2.98-2.86,2.89Zm6.55,4.63c-1.45-.09-2.25-.95-2.22-2.29,.04-1.53,.91-2.55,2.57-2.43,1.47,.11,2.03,1.17,1.96,2.5-.07,1.4-.92,2.14-2.31,2.22Zm1.43-10.46c-1.38-.03-2.35-.85-2.33-2.28,.02-1.63,1.09-2.48,2.66-2.5,1.41-.02,2.26,.74,2.31,2.18-.19,1.62-1.01,2.64-2.64,2.6Zm94.36-65.16c.35-2.34,2.04-3.68,4.45-3.61,1.92,.06,2.97,1.25,3.09,3.25-.49,2.4-2.06,3.61-4.47,3.47-1.82-.1-3.37-1.09-3.07-3.11Zm3.49,10.58c2.51-.22,4.15,1.21,4.29,3.7,.17,2.96-1.86,4.25-4.26,4.87-2.73-.22-4.23-1.69-4.29-4.09-.06-2.67,1.67-4.25,4.25-4.48Zm-2.47,36.1c1.85-.08,2.88,1,3.08,2.64,.2,1.67-.6,2.96-2.47,3.1-1.98,.15-3.21-.87-3.32-2.83-.09-1.74,.91-2.78,2.71-2.9Zm-9.37-43.04c1.55,.16,2.49,1.04,2.23,2.65-.27,1.68-1.48,2.61-3.19,2.5-1.58-.1-2.56-1.15-2.35-2.69,.23-1.71,1.57-2.42,3.31-2.46Zm-5.34-10.94c1.81-.01,2.82,1.18,2.68,2.98-.13,1.71-1.19,2.73-2.91,2.99-1.8-.27-2.82-1.27-2.72-3.08,.1-1.77,1.21-2.88,2.94-2.89Zm-4.98,17.55c2.56-.08,4.52,1.35,4.47,4.1-.05,2.69-1.45,4.62-4.69,4.76-2.28-.36-4.25-1.48-4.33-4.22-.09-2.93,1.79-4.55,4.55-4.64Zm-2.94-8.27c.02,2.57-1.67,3.82-4.18,3.78-2.31-.03-3.81-1.23-3.84-3.61-.04-2.51,1.34-3.93,3.68-4.1,2.78,.08,4.32,1.45,4.34,3.93Zm-6.21-18.27c2.08-.36,3.09,1.05,3.15,2.99,.07,2.18-.75,3.86-3.05,4.37-1.98,.02-2.89-1.05-2.95-2.81-.07-2.11,.44-4.13,2.85-4.55Zm-5.69,40.4c.14-1.92,1.24-2.99,3.22-3.18,1.8,.22,2.58,1.4,2.57,3.1,0,2.05-1.27,2.97-3.2,2.99-1.91,.02-2.72-1.12-2.59-2.91Zm-6.94-42.25c-.16-1.48,.55-2.33,2.03-2.36,1.57-.03,2.56,.74,2.76,2.51,.06,1.31-.63,2.23-2.06,2.27-1.55,.04-2.55-.83-2.73-2.42Zm2.98,65.02c1.55,.02,2.53,.82,2.81,2.38,.01,1.65-.92,2.55-2.44,2.73-1.86,.22-2.88-.89-2.94-2.61-.05-1.57,.94-2.51,2.57-2.5Zm-4.59-16.42c1.79,.1,2.94,1.02,3.07,2.76,.13,1.77-.92,2.91-2.66,3.08-1.68,.17-3.09-.53-3.26-2.38-.19-1.97,1-3.06,2.85-3.46Zm-.37,24.77c.15,1.91-1.22,2.59-2.56,2.88-2.69,.09-3.47-1.53-3.69-3.47-.2-1.75,1.01-2.41,2.55-2.51,2.2-.15,3.53,.94,3.7,3.1Zm-9.12-15.57c2.49,.43,4.5,1.54,4.57,4.27,.07,2.93-1.94,4.49-4.64,4.59-2.59,.09-4.37-1.47-4.51-4.16-.16-3.05,1.98-4.16,4.58-4.7Zm-20.84-8.51c2.78-.09,2.97,2.23,2.96,4.18,0,2.02-.59,4.25-3.12,4.17-2.39-.07-3-2.15-3.15-4.17,.12-2.25,.89-4.1,3.31-4.18Zm-13.04,40.63c-1.18,.11-2.19-.34-2.3-1.62-.13-1.57,.75-2.6,2.33-2.82,1.41-.19,2.24,.58,2.61,1.65-.07,1.96-1.13,2.66-2.64,2.79Zm1.19-9.29c-1.93,.16-2.79-1.24-2.73-2.9,.11-2.65,1.82-4.09,4.34-4.45,2.07-.3,3.05,.91,3.32,2.89-.5,2.73-2.22,4.24-4.94,4.46Zm2.57-17.82c-1.5,.22-2.67-.63-2.85-2.23-.21-1.83,.86-2.83,2.58-3.06,1.54-.21,2.66,.33,2.86,2.04-.05,1.77-.92,3.01-2.58,3.26Zm2.25-23.15c-.18-1.48,.64-2.31,2.02-2.54,1.36-.22,1.95,.55,2.02,1.83-.03,1.34-.41,2.5-1.94,2.64-1.28,.12-1.95-.73-2.1-1.93Zm4.69,25.28c1.64-.08,2.56,.77,2.75,2.45-.37,1.49-.81,3.04-2.7,3.18-1.7,.13-2.46-1.01-2.58-2.56-.15-1.8,.62-2.98,2.54-3.07Zm.31,23.32c-1.37-.11-2.41-.85-2.28-2.31,.18-1.94,1.72-2.38,3.34-2.27,1.29,.09,2.33,.72,2.34,2.28-.46,1.75-1.69,2.43-3.41,2.29Zm5.51,7.66c-1.37-.08-2.11-1-2.15-2.38-.04-1.54,.91-2.08,2.29-2.07,1.47,.01,2.12,.86,2.18,2.26-.19,1.35-.9,2.27-2.31,2.19Zm-.15-16.25c-1.88-.26-2.92-1.51-2.86-3.42,.06-2.05,1.41-2.93,3.28-2.85,1.81,.09,3.17,.89,3.1,2.8-.44,2.14-1.16,3.8-3.52,3.46Zm1.1-16.39c.14-1.92,1.46-2.88,3.35-2.88,1.84,0,2.56,1.21,2.83,2.64-.51,2.03-1.62,3.17-3.51,3.14-1.77-.03-2.81-1.17-2.68-2.9Zm5.12,24.97c-1.39-.32-2.57-.99-2.31-2.7,.21-1.39,1.22-2.1,2.63-1.81,1.29,.26,2.22,1.06,2.19,2.49-.04,1.52-1.03,2.06-2.51,2.02Zm8.42-3.76c-1.69-.03-3.08-.78-3.1-2.67-.02-2.21,1.32-3.3,3.48-3.43,1.88,.1,3.44,.79,3.35,2.92-.09,2.19-1.63,3.21-3.73,3.18Zm8.64,105.5c-.39,2.66-.5,5.41-2.38,8.08-2.22-2.55-2.68-5.27-3.17-7.94-.21-1.13-.74-2.59,.59-3.33,1.37-.76,3.04-.6,4.43-.03,1.56,.64,.7,2.1,.54,3.22Zm1.38-99.39c-1.88,.06-3.4-.93-3.31-2.98,.1-2.38,1.88-3.42,4.04-3.6,2-.17,3.15,.89,3.25,3.05-.27,2.3-1.77,3.46-3.99,3.53Zm10.39,98.69c-.71,3.17-.84,8.65-3.42,8.56-3.48-.13-3.35-5.33-3.9-8.62-.59-3.48,2.25-2.21,3.91-2.45,1.62,.23,4.12-.7,3.41,2.52Zm.46-103.11c-1.87-.01-3.42-.84-3.38-2.9,.04-2.28,1.81-3.06,3.78-3.1,1.83-.03,3.27,.72,3.46,2.89-.43,2.06-1.78,3.11-3.86,3.1Zm4.69-26.88c.12-2.37,1.75-3.46,4-3.45,2.18,.01,3.21,1.41,3.53,3.5-.34,2.19-1.54,3.69-3.85,3.67-2.27-.02-3.79-1.33-3.67-3.72Zm7.22,131.62c-.49,2.35-.94,4.76-2.64,7.25-2-2.39-2.35-4.84-2.83-7.2-.28-1.38-1.53-3.27,.25-4.09,1.37-.63,3.46-.62,4.86-.02,1.86,.79,.64,2.71,.35,4.07Zm-2.5-116.02c-1.52-.04-2.73-.78-2.59-2.51,.17-2,1.52-2.93,3.43-2.89,1.7,.03,2.29,1.2,2.38,2.39-.39,2.12-1.5,3.05-3.23,3Zm4.26,5.93c.14-1.8,1.51-2.48,3.21-2.35,1.34,.1,2.36,.78,2.26,2.24-.11,1.74-1.17,2.67-3.03,2.69-1.48-.18-2.56-1.03-2.44-2.58Zm3.7-16.31c.08-2,1.5-3.04,3.4-2.9,1.94,.14,3.03,1.45,2.89,3.42-.13,1.82-1.37,2.59-3.12,2.67-1.89-.24-3.25-1.18-3.17-3.19Zm6.51,124.14c-.58,2.82-.97,5.71-2.91,8.82-2.44-2.91-2.74-6.01-3.44-8.9-.73-3.04,1.77-2.17,3.19-2.23,1.51-.05,3.77-.65,3.15,2.31Zm-2.3-137.07c-2.35-.01-4.11-1.29-4.07-3.9,.04-2.49,1.58-3.79,4.08-4.06,2.39,.11,4.11,1.29,4.26,3.75,.16,2.76-1.68,4.21-4.27,4.2Zm17,135.83c-1.34,4.43-2.69,8.85-4.42,14.53-2.69-9.37-4.96-17.38-7.29-25.36-.54-1.84-.05-2.6,1.89-2.27,.15,.03,.3,.04,.45,.05q13.08,.76,9.36,13.06Zm.44-133.17c-1.95,.06-3.34-.93-3.33-2.95,0-2.29,1.67-3.06,3.72-3.19,1.93,.2,3.22,1.13,3.07,3.21-.15,2.04-1.6,2.88-3.46,2.94Zm1.4-45.38c-1.75-.13-2.82-1.17-2.51-3.01,.3-1.76,1.66-2.48,3.31-2.4,1.65,.08,2.32,1.18,2.25,2.79-.28,1.71-1.26,2.75-3.04,2.62Zm46.61-64.48c.22-1.49,1.28-2.44,2.91-2.28,1.48,.15,2.65,.75,2.57,2.44-.29,1.89-1.34,2.88-3.13,2.66-1.53-.19-2.57-1.23-2.34-2.82Zm2.8,28.69c2.15,.24,3.97,1.18,3.95,3.56-.02,2.68-1.81,4.14-4.45,4.21-2.61,.07-4-1.43-3.85-4,.15-2.57,1.86-3.66,4.35-3.76Zm-.59,20.84c-.12,2.94-2.27,4.08-4.63,4.3-3.47-.4-5.2-2.21-5.05-5.22,.14-2.9,2.15-4.38,4.99-4.21,3.09,.18,4.81,2.14,4.69,5.14Zm-7.58-32.88c1.9-.03,3.2,.8,3.32,2.94-.08,2.11-1.3,3.41-3.32,3.6-2.14,.2-3.49-1.11-3.52-3.23-.03-2.17,1.4-3.28,3.52-3.31Zm-7.1-22.47c2.51-.02,3.74,1.59,3.98,3.73-.12,2.35-.94,3.99-3.23,3.75-2.26-.24-4.06-1.55-4.16-4.03-.08-2.13,1.35-3.42,3.41-3.44Zm-1.01,16.08c.17,3.28-1.96,5.19-5.08,5.25-2.99,.05-5.55-1.45-5.58-4.79-.03-3.3,2.51-4.55,4.95-5.11,3.5,.14,5.56,1.64,5.72,4.65Zm-9.06,17.39c-1.95-.05-3.58-1.08-3.33-3.41,.32-2.86,2.25-4.08,4.93-4.35,2.07,.31,3.47,1.34,3.29,3.55-.23,2.92-2.16,4.28-4.89,4.21Zm7.26,12.54c-.19,2.55-1.63,4.29-4.39,4.26-2.24-.03-3.98-1.14-3.74-3.58,.26-2.61,2.17-3.82,4.5-4.07,2.35,.14,3.79,1.2,3.63,3.4Zm-4.46,17.73c2.41,.01,3.89,1.38,4.01,3.97-.33,2.64-1.89,4.04-4.51,4.04-2.38,0-4.24-1.11-4.23-3.7,.02-2.92,1.99-4.33,4.73-4.32Zm1.44,16.94c1.74-.15,2.85,.73,3.18,2.34-.09,2.17-1.17,3.26-3.12,3.31-1.66,.04-3.11-.69-3.21-2.5-.11-2,1.3-2.99,3.15-3.15Zm-5.46-80.98c1.69-.22,2.44,.76,2.7,2.29-.12,1.6-.97,2.46-2.61,2.35-1.29-.09-2.36-.62-2.51-2.06-.18-1.71,.93-2.39,2.42-2.58Zm-10.43,7.3c.04-1.53,1.26-1.9,2.52-2.06,1.42,.03,2.44,.58,2.41,2.1-.03,1.39-.87,2.3-2.27,2.35-1.56,.05-2.7-.69-2.65-2.39Zm3.21,45.95c1.8,0,3.06,.53,3.06,2.27,0,1.95-1.16,3.13-3.11,3.28-1.57,.12-2.88-.73-2.89-2.28-.02-1.87,1.27-3,2.94-3.26Zm-6.93,27.94c.3-2.57,2.1-3.98,4.66-4.07,2.26-.08,3.74,.99,3.89,3.56-.54,2.64-2.25,4.18-4.98,4.2-2.26,.02-3.85-1.28-3.57-3.69Zm3.65,8.06c1.77-.04,2.81,.91,2.81,2.83-.26,2.03-1.68,2.73-3.5,2.74-1.66,0-3.13-.62-3.08-2.54,.06-2.3,1.81-2.99,3.77-3.03Zm-.53,23.12c-1.75-.19-3.28-.84-3.26-2.9,.01-1.78,1.31-2.71,2.97-2.71,1.83,0,3.25,.9,3.28,2.93,.02,1.83-1.23,2.59-2.99,2.69Zm6.9,148.43c-3.29-2.19-4.1-6-4.37-9.56-.29-3.72,3.17-1.34,4.65-2.37,1.42,.82,4.09-1.28,4.11,2.12,.02,3.61-3.22,10.58-4.38,9.81Zm4.68-156.19c-1.91-.17-2.98-1.41-2.84-3.38,.15-2.03,1.6-2.71,3.43-2.92,1.8,.33,3.23,1.19,3.09,3.2-.15,2.1-1.56,3.29-3.68,3.1Zm12.64,146.63c-.5,3.27-.08,8.68-3.56,8.83-2.95,.13-3.92-5.21-4.6-8.6-.73-3.63,2.4-2.01,4.04-2.59,1.46,.66,4.66-1.18,4.12,2.36Zm.1-175.03c-.2-2.03,1.21-3.08,3-3.27,1.7-.18,2.77,.89,3.23,2.57-.13,1.78-1.19,2.73-2.88,2.87-1.6,.13-3.17-.27-3.36-2.17Zm1.88,9.82c-.09-2.04,1.42-3.06,3.29-3,1.86,.06,3.08,1.2,3.3,3.21-.11,1.75-1.02,2.9-2.82,2.93-2.06,.04-3.68-.94-3.77-3.14Zm11.6,164.72c-.55,3.28-.65,8.67-3.84,8.78-3.07,.1-4.18-5.07-4.54-8.52-.41-3.91,3.05-1.41,4.42-2.41,1.54,.62,4.52-1.14,3.96,2.15Zm1.97-179.05c-1.84,0-3.21-.98-3.49-2.86-.3-2,.93-3.2,2.75-3.45,2.16-.3,3.26,1.08,3.68,2.78-.03,2.25-.92,3.53-2.93,3.53Zm-.05-48.85c-1.81-.23-3.08-1.41-2.9-3.43,.2-2.19,1.55-3.23,3.72-3.04,2.02,.18,2.81,1.53,2.99,3.26-.45,2.21-1.69,3.48-3.82,3.22Zm196.83,225.67c2.57-.34,3.3,1.01,2.7,3.42-.9,2.42,.03,7.22-2.95,6.92-2.76-.27-3.43-4.91-3.65-8.14-.21-3.19,2.35-1.99,3.9-2.2Zm-12.11-.21c2.18-.24,2.68,.96,2.05,2.91-.91,2.5-.16,7.26-3.01,7.07-2.67-.18-2.81-4.86-3.02-7.82-.22-3.11,2.4-1.98,3.98-2.16Zm-10.67,.25c2.23-.17,3.12,.79,2.54,3.06-.51,2.34-.1,6.91-1.91,6.64-3.16-.46-2.68-4.76-3.26-7.6-.42-2.07,1.25-2,2.63-2.11Zm-32.92,2.76c1.98-.85,4.19-.5,6.29-.19,1.1,.16,1.24,1.17,1.07,2.15-.54,3.08-1.07,6.16-1.76,10.11-3.25-3.1-4.49-6.18-5.74-9.25-.37-.92-1.12-2.28,.14-2.82Zm-9.15,.1c3.35-.46,4.95,.57,4.27,3.71-.5,2.31,.5,6.52-2.62,6.2-3.62-.38-4.17-4.92-4.78-8.11-.56-2.91,2.27-1.41,3.12-1.8Zm-11.84-.05c1.29,.63,4.33-1.19,3.66,2.18-.61,3.08-.42,8.2-3.64,8.28-2.97,.08-2.93-4.97-3.55-8.02-.69-3.4,2-2.03,3.52-2.44Zm-11.5-.16c1.05,.71,3.93-.89,3.23,2.07-.64,2.68-1.16,7.16-3.64,7.11-2.91-.05-2.74-4.42-3.12-7.13-.39-2.83,1.92-1.94,3.54-2.05ZM530.92,41.11c-.14,2.93-1.91,4.48-4.67,4.54-2.62,.06-4.37-1.44-4.39-4.23-.01-2.8,1.3-4.77,4.31-4.87,2.98-.11,4.38,1.71,4.75,4.56Zm-7.32,18.59c-2.63-.01-4.02-1.74-4.14-4.07,.03-3.04,1.42-4.8,4.07-4.71,2.49,.08,4.26,1.68,4.21,4.39-.04,2.59-1.49,4.41-4.15,4.4Zm1.31,10.57c.13,2.5-1.47,3.46-3.67,3.62-2.3-.19-3.95-1-3.76-3.61,.15-2.09,1.24-3.53,3.42-3.51,2.19,.02,3.89,1.07,4.01,3.5Zm-5.23-53.53c.24-.55,.53-1.11,.9-1.57,1.38-1.71,2.04-5.33,4.21-4.73,2.65,.74,.8,4.19,1.26,5.8,0,1.2,.12,1.84-.02,2.4-.38,1.46,.97,3.87-1.33,4.2-2.01,.29-4.29-.6-5.83-2.07-1.49-1.42,.24-2.73,.8-4.03Zm-6.11,18.23c2.87-.04,4.65,1.65,4.68,4.44,.03,2.91-1.62,4.94-4.7,5.01-2.85,.07-4.35-1.7-4.82-4.42,.46-2.82,1.68-4.99,4.84-5.03Zm-4.68,14.8c2.7,.34,4.63,1.58,4.71,4.27,.08,2.7-1.17,4.83-4.25,4.88-2.65,.04-4.38-1.37-4.57-4.09-.21-2.94,1.58-4.4,4.1-5.06Zm-4,16.02c2.3-.1,3.75,1.12,3.74,3.54,0,1.58-.33,3.09-2.51,2.98-1.74-.59-4.3-.13-4.47-2.88-.12-2.04,1.07-3.55,3.23-3.64Zm-54.71-12.46c1.18,3.62,2.09,7.34,3.33,11.83,.12,.66-.85,1.04-2.01,1.16-1.46,.16-3.15,.8-3.76-1.38-.95-3.38-1.88-6.77-2.81-10.15-.41-1.48,.09-2.39,1.67-2.56,1.35-.14,3.03-.59,3.58,1.1Zm-8.83-21.04c2.19,.06,5.55,5.03,5.34,7.81-.2,2.73-2.63,3.88-4.48,3.44-3.79-.91-3.38-4.79-3.87-7.71-.34-2.08,1.07-3.32,3-3.54Zm-16.21-17.73c.43-2.53,.65-5.12,1.35-7.58,.82-2.9,2.68-3.11,4.67-.99,2.52,2.69,4.08,5.99,5.6,9.31,.62,1.35,.35,2.33-1.1,2.89-.99,.38-1.97,.8-2.94,1.22-7.1,3.1-7.63,2.76-7.58-4.85Zm6.14,39.04c1.85-.36,2.88,.34,3.14,2.28,.48,3.48,1.03,6.95,1.6,10.42,.55,3.33-2.21,2.53-3.85,3.15-1.97,.74-2.81-.15-3.1-2.03-.48-3.17-.81-6.39-1.62-9.48-.95-3.63,.99-4.27,3.81-4.33Zm-6.03-12.46c-.27-2.21,.92-3.76,3.41-4.11,3.21,.5,4.41,2.94,4.79,5.76,.36,2.66-1.57,4.01-3.85,4.1-3.87,.16-4.02-3.11-4.35-5.74Zm-14.68,380.49c2.4,.07,3.46,1.59,3.52,3.99-.23,2.26-1.5,3.58-3.88,3.33-2.23-.23-3.65-1.62-3.61-3.93,.04-2.46,1.73-3.46,3.96-3.4Zm-5.86-13.82c-.13-2.86,1.37-5.05,4.13-5.04,3.46,0,4.72,2.8,5.17,5.75-.29,2.92-1.49,5.02-4.5,4.89-3.35-.14-4.66-2.54-4.8-5.6Zm6.2-24.35c.02-1.9,1.18-3.27,3.16-3.19,2.49,.11,3.69,1.85,4.17,4.17-.21,1.92-1.19,3.24-3.22,3.04-2.33-.22-4.13-1.41-4.1-4.03Zm1.94-9.64c-1.83,.2-2.98-.78-3.03-2.53-.06-1.69,.96-2.79,2.81-2.99,1.6,.19,2.92,.91,3.06,2.68,.14,1.87-1.17,2.66-2.84,2.84Zm-13.01-18.48c1.59,.17,3.05,.69,3.11,2.59,.06,1.83-1.2,2.74-2.88,2.87-1.56,.11-2.67-.75-2.83-2.33-.18-1.77,.78-2.84,2.59-3.13Zm-1.78,14.03c2.25-.13,3.63,1.26,3.96,3.67-.26,2.47-1.45,4.25-4.18,4.43-2.21,.14-3.4-1.19-3.49-3.32-.11-2.57,.89-4.62,3.71-4.78Zm-5.28,20.18c-.33-.89,.03-2.07,1.26-1.71,2.07,.59,2.87,2.49,3.58,4.17,.12,1.05-.26,1.83-1.13,1.68-2.24-.39-3.04-2.3-3.71-4.14Zm-.39,79.41c-2.07-.01-3.97-1.05-3.98-3.46-.01-2.52,1.64-3.72,4.12-3.88,2.15,.18,3.89,1.1,3.93,3.47,.05,2.56-1.73,3.88-4.08,3.87Zm3.32-26.99c-1.36-.09-2.33-.77-2.32-2.22,0-1.57,.92-2.54,2.5-2.61,1.65-.07,2.38,.98,2.55,2.52-.22,1.59-1.1,2.41-2.73,2.3Zm5.12-54.19c-.12-2.24,1.16-3.66,3.29-3.49,3,.23,4.5,2.28,4.81,5.1-.11,2.39-1.4,3.65-3.55,3.34-2.68-.38-4.4-2.1-4.55-4.95Zm6.87,79c-2.28-.09-4.39-1.02-4.42-3.65-.03-2.28,1.62-3.74,3.85-3.7,2.38,.05,3.89,1.53,4.16,4-.21,2.21-1.47,3.43-3.59,3.34Zm7.06-21.26c-2.13-.08-3.41-1.29-3.34-3.42,.06-1.79,1.38-2.54,3.07-2.67,2.01,.3,3.4,1.24,3.29,3.5-.09,1.87-1.3,2.65-3.02,2.59Zm39.72,53.64c3.5,.31,5.69,1.93,6.01,5.35,.32,3.32-2.25,6.16-5.46,6.06-3.65-.12-5.73-2.35-5.86-5.81-.13-3.45,2.25-5.1,5.31-5.6Zm-3.87-15.69c.34-3.48,1.91-5.81,5.32-5.99,3.34-.18,5.03,1.96,5.06,5.15,.03,3.28-1.42,5.78-5.01,5.78-3.16,0-4.87-2.06-5.37-4.95Zm2.91,63.44c-.11,2.02-1.53,2.76-3.35,2.88-1.64-.32-3.05-1.06-2.97-2.85,.1-2.11,1.49-3.32,3.62-3.09,1.64,.18,2.79,1.28,2.7,3.06Zm-1.36-22.21c-.2,2.23-1.2,3.84-3.58,3.97-1.89,.1-3.42-.88-3.34-2.88,.09-2.24,1.61-3.59,3.87-3.7,1.7-.09,2.92,.71,3.05,2.61Zm-6.37-52.49c-2.97,.1-4.18-1.99-4.56-4.52-.01-2.44,.86-4.15,3.35-4.11,2.74,.04,4.05,1.92,4.31,4.44,.23,2.22-.66,4.12-3.1,4.2Zm-15.07,93.84c-3.07-.31-5.36-1.78-5.41-5.36-.04-3.07,3.92-6.57,7.22-6.39,3.32,.18,5.51,1.77,5.5,5.39-.02,3.39-3.51,6.46-7.31,6.36Zm6.2,12.98c-.33,2.08-1.97,2.84-3.88,2.88-1.73,.04-2.93-1.04-2.8-2.86,.16-2.19,1.68-3.18,3.76-3.05,1.66,.11,2.86,.96,2.92,3.02Zm-1.53-33.83c-2.31,.28-4.29-.75-4.42-3.5-.12-2.5,3.9-6.32,6.49-6.18,2.25,.13,3.7,1.28,3.89,3.92-.51,3.25-2.6,5.34-5.96,5.75Zm-3.46-34.47c1.77-.18,2.95,1.04,2.84,2.83-.12,2.03-.84,3.88-3.07,4.44-2.15-.16-2.6-1.65-2.64-3.23-.04-1.97,.63-3.81,2.86-4.04Zm-2.79-12.94c.25-2.29,.16-5.6,3.3-5.73,3.65-.16,2.36,3.52,3.23,5.47-.32,2.24-.45,4.72-3.3,4.78-2.84,.06-3.48-2.32-3.24-4.51Zm9.79,25.13c-2.55-.12-3.33-2.51-3.1-4.78,.33-3.11,2.12-5.05,5.43-4.85,2.41,.15,3.4,1.72,3.13,4.56-.65,2.52-2,5.24-5.47,5.07Zm-.18-21.79c.1-1.55,.83-2.6,2.43-2.68,1.4-.08,2.27,.68,2.28,2.15,.02,1.61-.91,2.53-2.43,2.68-1.45,.14-2.16-.74-2.28-2.14Zm2.25-69.66c.03-2.16,1.62-3.07,3.62-3.37,1.91,.39,3.5,1.08,3.5,3.42,0,2.2-1.21,3.49-3.31,3.53-2.23,.03-3.85-1.2-3.81-3.58Zm3.11,56.59c-.1,2.51-.75,4.69-3.51,4.56-3.31-.17-4.04-2.87-4.16-5.59-.09-2.23,.41-4.73,3.14-4.71,3.55,.04,3.94,3.2,4.53,5.74Zm-7.09-29.54c-2.72-.09-4.05-1.85-4.1-4.48-.04-2.13,1.07-3.39,3.3-3.62,2.64,.49,3.84,2.31,3.84,4.82,0,1.8-1.01,3.36-3.04,3.29Zm-4.61-15.78c-2.51-.6-3.77-2.24-3.82-4.83-.05-2.08,1.19-3.17,3.09-3.05,2.65,.17,4.04,2.01,4.19,4.5,.14,2.17-1.29,3.22-3.46,3.37Zm-.71,26.33c2.46,0,3.43,1.73,3.52,3.94,.09,2.14-.92,3.47-3.23,3.67-2.36-.24-3.43-1.73-3.5-3.98-.06-2.14,.99-3.63,3.21-3.63Zm-.36,60c1.79-.05,2.88,.79,2.91,2.7,.04,2.57-4.27,7.22-6.74,7.28-1.68,.04-2.52-.75-2.57-2.46-.08-2.83,3.78-7.45,6.4-7.52Zm-8.59-102.26c-3.15-.6-5.89-1.82-5.95-5.62-.06-3.28,1.82-5.06,5.07-5.15,3.25-.09,6.23,2.94,6.05,6.09-.18,3.17-2.19,4.44-5.17,4.68Zm-1.86,55.99c-1.92-.42-3.3-1.45-3.32-3.64-.01-1.85,1.02-2.9,2.85-2.73,2.19,.2,3.16,1.74,3.13,3.79-.02,1.56-.93,2.52-2.67,2.59Zm-9.86,61.79c.23-2.19,1.73-3.14,3.77-3.14,1.7,0,2.87,.84,2.98,2.8-.48,2.17-1.89,3.42-4.13,3.36-1.76-.05-2.8-1.2-2.61-3.02Zm-8.65,40.49c.05-2.25,1.48-3.78,3.75-3.83,2.5-.05,3.83,1.54,4.12,3.97-.22,2.32-1.45,3.9-3.74,3.82-2.29-.08-4.19-1.35-4.13-3.97Zm3.51,34.85c-.11,3.1-2.02,4.59-5.05,4.81-2.74-.41-4.66-1.68-4.44-4.73,.22-3.05,2.16-4.75,5.11-4.79,2.95-.04,4.48,1.83,4.37,4.71Zm4.84-14.51c1.83-.25,2.76,.83,3.06,2.51-.42,1.9-.87,3.79-3.17,3.89-1.71,.08-2.87-.93-3.03-2.72-.19-2.23,1.09-3.4,3.14-3.68Zm-.97-44.3c-1.8,.11-2.48-.97-2.39-2.57,.1-1.69,1.25-2.31,2.82-2.37,1.52,.18,2.75,.83,2.51,2.55-.21,1.53-1.4,2.3-2.94,2.39Zm-5.81-25.66c.21-1.98,1.77-2.81,3.58-2.77,1.88,.04,3.28,1.15,3.17,3.12-.12,2.01-1.77,2.63-3.57,2.78-1.73-.39-3.4-.97-3.17-3.13Zm-4.93,12.27c.16-1.53,1.11-2.47,2.71-2.48,1.8-.01,2.63,1.12,3.04,2.49-.4,1.98-1.57,2.93-3.2,2.95-1.83,.03-2.73-1.18-2.55-2.97Zm-5.8-14.67c2.06-.01,3.92,.67,4.27,3.14-.46,2.76-2.56,3.44-4.71,3.46-1.84,.01-3.82-.75-3.67-3.14,.15-2.36,1.94-3.44,4.1-3.45Zm-11.38,8.64c-2.03-.17-3.17-1.12-3.21-2.88-.05-1.92,1.33-2.62,3.03-2.62,1.73,0,3,.74,2.97,2.68-.03,1.92-1.53,2.41-2.78,2.83Zm9.09,5.88c-1.52-.14-2.76-.95-2.44-2.62,.33-1.72,1.77-2.39,3.46-2.29,1.43,.08,2.15,.94,2.21,2.36-.43,1.69-1.42,2.72-3.23,2.56Zm4.97,10.11c-1.33-.05-2.27-.7-2.22-2.22,.05-1.49,.99-2.16,2.32-2.15,1.37,0,2.16,.85,2.24,2.25-.11,1.46-.97,2.17-2.34,2.12Zm3.02,44.23c1.93-.15,3.13,.97,3.31,3.11-.23,2.23-1.58,3.47-3.85,3.62-1.99,.14-3.34-.94-3.3-2.93,.05-2.29,1.63-3.64,3.83-3.81Zm-1.34,41.63c-1.48,0-2.19-1.01-2.09-2.43,.1-1.45,1.08-2.16,2.46-2.21,1.4-.06,2.37,.5,2.35,2.13-.21,1.57-1.13,2.52-2.71,2.52Zm6.21,19.53c-2.05-.1-3.53-1.28-3.46-3.4,.08-2.16,1.77-2.96,3.73-3.18,2.12,.2,3.49,1.27,3.38,3.44-.1,2.16-1.58,3.24-3.66,3.14Zm2.48-15.72c-2.35-.13-4.22-1.37-4.01-4,.18-2.34,1.61-4.13,4.14-4,2.38,.12,3.79,1.71,4.08,4.22-.29,2.46-1.69,3.92-4.2,3.78Zm7.93-11.79c-2.33-.13-4.19-1.19-4.11-3.82,.07-2.53,2.05-3.24,4.14-3.14,2.25,.11,3.52,1.51,3.57,3.93-.11,2.23-1.52,3.15-3.59,3.03Zm1.57-36.12c-2.6,.03-4.55-1.26-4.52-4.06,.02-2.85,1.72-4.57,4.64-4.58,2.83-.01,3.89,1.98,4.39,4.31-.27,2.86-1.88,4.3-4.51,4.33Zm.82-21.67c-3.1-.27-5.31-1.48-5.53-4.56-.25-3.53,2.23-4.7,5.22-4.96,3.2-.27,4.88,1.49,4.95,4.54,.07,3.14-2.02,4.47-4.63,4.97Zm2.79-27.83c.53-3.22,2.86-4.98,5.96-5.22,2.01-.15,3.3,1.23,3.36,2.66-.13,3.28-3.77,6.49-6.34,6.27-2.26-.19-3.31-1.69-2.98-3.71Zm3.1,61.34c.22-1.91,1.6-2.9,3.55-2.79,1.98,.11,3.01,1.25,3.14,3.19-.42,2.17-1.82,3.31-3.87,3.12-1.9-.17-3.05-1.6-2.83-3.51Zm4.77,21.23c-2.06,.01-3.42-1.23-3.39-3.38,.02-2.22,1.55-3.05,3.38-3.24,2.07,.22,3.33,1.13,3.32,3.13-.01,2.11-1.2,3.47-3.3,3.48Zm3.09-35.91c-2.32,.25-3.72-1.08-3.85-3.4-.14-2.32,1.08-3.8,3.41-3.9,2.42-.1,3.95,1.17,4.33,3.69-.15,2.41-1.84,3.38-3.89,3.6Zm6.26,12.79c-1.72-.32-3.42-.91-3.32-2.97,.09-1.78,1.26-3.14,3.21-3.11,1.83,.03,3.18,1.01,3.26,3,.09,2.1-1.39,2.78-3.15,3.08Zm6.34-25.73c-1.35,.11-2.33-.52-2.46-1.99-.13-1.45,.68-2.17,1.8-2.39,1.55,.12,2.68,.51,2.8,2,.11,1.45-.79,2.25-2.13,2.37Zm.33-24.21c.12-2.21,1.7-3.1,3.73-3.09,1.93,0,3.07,1.04,3.22,3-.51,2.04-1.78,3.34-3.82,3.25-1.77-.08-3.25-1.13-3.14-3.16Zm6.88,33.37c-1.73-.16-3.34-1.06-3.07-3.15,.24-1.93,1.87-2.68,3.62-2.73,1.88-.06,3.11,.9,3.33,2.8-.46,2.21-1.86,3.27-3.88,3.08Zm2.37-15.5c-2,.08-3.57-.94-3.75-3.07-.2-2.32,1.52-3.11,3.45-3.27,2.07-.17,3.41,.84,3.83,2.93-.24,2.15-1.52,3.33-3.53,3.41Zm4.56-46.22c.14-2.31,1.54-3.55,3.88-3.46,2.11,.08,3.26,1.3,3.55,3.44-.4,2.21-1.75,3.47-4.02,3.37-2.02-.09-3.54-1.09-3.41-3.35Zm4.69,34.03c-1.78-.24-3.12-1.22-2.93-3.28,.18-1.88,1.59-2.33,3.18-2.48,1.74,.39,3.3,1.16,3.2,3.15-.1,1.99-1.59,2.86-3.45,2.61Zm4.29-14.58c-1.79-.33-3.39-1.1-3.24-3.13,.16-2.1,1.66-3.2,3.79-3.01,1.92,.17,3.12,1.34,2.96,3.31-.16,2.02-1.72,2.67-3.52,2.84Zm3.8-27.54c-2,0-3.59-1.07-3.51-3.25,.08-2.18,1.73-3.03,3.74-3.06,1.96-.03,2.99,1.11,3.31,2.96-.22,2.16-1.49,3.35-3.53,3.35Zm-3.29-19.75c-.03-2.09,1.2-3.45,3.3-3.54,2.2-.09,3.75,.9,3.93,3.33-.06,2.47-1.56,3.59-3.76,3.57-2.03-.02-3.44-1.23-3.47-3.37Zm15.32,12.94c-1.92-.06-3.18-.98-3.18-2.99,0-1.85,1.3-2.54,3.05-2.66,1.76,.19,3.17,.92,3.08,3.01-.07,1.78-1.16,2.69-2.95,2.63Zm3.92-20.22c-.19,2.38-1.82,3.03-3.79,3.03-1.85,0-3.45-.89-3.5-2.83-.06-2.16,1.57-3.14,3.6-3.28,2.17-.15,3.41,.93,3.69,3.08Zm-7.98-10.66c.07-1.87,1.28-3.07,3.2-3.15,1.75-.08,2.71,1.02,3.18,2.59-.21,2.07-1.45,2.98-3.32,3.05-1.67,.06-3.13-.56-3.06-2.48Zm-1.2-17.73c.27-2.27,2.05-3.28,4.27-3.21,2.06,.06,3.69,1.03,3.48,3.29-.22,2.36-2.11,3.11-4.27,3.29-1.86-.41-3.76-1.05-3.48-3.37Zm2.4,68.76c-.4,2.22-1.71,3.1-3.6,3.09-1.75,0-2.99-.79-2.84-2.76,.17-2.16,1.37-3.4,3.61-3.19,1.78,.16,2.56,1.43,2.83,2.86Zm-10.06-97.22c.24-2.33,1.73-3.61,4.04-3.39,1.83,.17,3.04,1.31,3.14,3.34-.54,2.37-2.26,3.18-4.42,3.03-1.68-.12-2.95-1.1-2.76-2.98Zm2.93,11.17c2.24,.26,3.8,1.12,3.69,3.42-.11,2.35-1.63,3.58-3.92,3.59-2.1,0-3.62-1.09-3.59-3.3,.04-2.43,1.98-3.19,3.81-3.71Zm-1.93,26.51c1.95,0,3.5,.91,3.6,3.3-.38,2.16-1.75,3.55-3.94,3.57-1.98,.02-3.51-1.13-3.5-3.34,.01-2.42,1.66-3.54,3.84-3.53Zm-3.98-13.14c.06,2.09-1.29,3.43-3.34,3.58-2.42,.18-3.62-1.33-3.67-3.62-.04-2.07,1-3.42,3.26-3.64,2.27,.15,3.68,1.41,3.75,3.67Zm-6.88-13.87c-1.94-.08-3.2-1.09-3.42-2.99-.25-2.18,.95-3.53,3.11-3.66,2.05-.13,3.64,.8,3.75,3.06,.11,2.25-1.53,3.11-3.45,3.6Zm3.23-21.73c-.27,2.18-1.86,3.5-4.09,3.4-2-.09-3.56-1.29-3.45-3.41,.12-2.36,1.92-3.2,4.18-3.25,1.93,.21,3.65,.96,3.36,3.26Zm-12.02-14.74c.26-2.03,1.75-3.09,4.1-3.03,1.91,.18,3.3,1.28,3.13,3.46-.17,2.2-1.85,3.12-3.85,2.98-1.97-.13-3.66-1.15-3.37-3.41Zm-.27,38.05c-.06,2.31-1.36,3.59-3.36,3.73-2.07,.15-3.53-1.07-3.5-3.29,.03-2.04,1.16-3.55,3.3-3.68,2.2-.14,3.26,1.28,3.56,3.23Zm-1.68-48.78c-.33,1.81-1.36,3.11-3.27,3.21-1.9,.09-3.39-.89-3.26-2.94,.11-1.93,1.56-2.93,3.46-2.96,1.72-.02,2.93,.74,3.08,2.7Zm-7.21-11.05c1.58,.08,2.92,.89,3.11,2.77-.32,2.04-1.76,2.87-3.56,2.82-1.74-.05-2.87-1.2-2.74-3,.14-1.82,1.55-2.68,3.19-2.6Zm-1.79,16.63c2.78-.11,5.04,1.34,5.41,4.4,.32,2.69-2.97,5.58-6.34,5.56-2.64-.19-4.77-1.57-4.73-4.66,.04-3.45,2.51-5.18,5.66-5.3Zm-6.57-14.47c-.1,2.05-1.48,3.2-3.55,3.45-1.84-.25-3.26-1.1-3.15-3.12,.11-2.05,1.41-3.43,3.5-3.4,1.81,.02,3.29,1.09,3.19,3.07Zm-7.33-15.57c.97,.02,2.14,.37,2.23,1.87,.1,1.66-1,2.46-2.52,2.45-1.31,0-2.35-.7-2.35-2.16,0-1.43,.91-2.11,2.64-2.16Zm-1.38,25.91c.19,2.22-1.05,3.67-3.26,3.39-2.7-.34-4.45-2.07-4.39-4.96,.04-2.06,1.21-3.38,3.24-3.66,3.01,.57,4.19,2.6,4.41,5.23Zm-13.93-255.77c-.03-20.86,16.3-37.61,36.58-37.51,21.37,.11,38.4,17.51,38.41,39.23,0,20.4-16.74,37.64-36.68,37.76-20.77,.12-38.27-17.92-38.3-39.49Zm85.26,85.9c-10.89-.86-21-4.6-29.05-12.23-2.51-2.38-3.96-.5-6.78,.39,3.38-3.82,5.95-6.73,8.65-9.78,.34,.7,.64,1.04,.56,1.18q-3.17,5.88,2.81,9.85c19.1,12.7,44.06,11.68,64.13-2.7,7.38-5.29,13.94-11.43,19.29-18.82,2.04-2.82,3.97-5.5-1.53-6.57-.82-.16-1.67-.67-1.88-2.09,3.58,0,6.01,2.26,9.56,3.48-16.32,23.07-35.72,39.66-65.76,37.3Zm43.18-49.97c-19.56-.31-34.59-16.23-34.53-36.58,.06-19.13,14.82-34.04,33.61-33.92,19.28,.12,34.72,16.17,34.63,35.99-.09,19.35-15.18,34.8-33.7,34.51Zm102.78-57.8c-3.63,.14-3.8-3.83-4.22-6.61-.69-4.58,1.16-8.7,3.68-8.91,2.58-.21,4.69,3.58,4.64,8.85-.37,2.52-.29,6.51-4.1,6.67Z"/>
  <path d="M470.8,151.39c1.26,8.25-2.87,16.29-10.09,19.61-7.35,3.38-16.36,1.58-21.34-4.26-5.21-6.12-5.74-14.43-1.37-21.25,4.54-7.08,14.92-10.08,22.3-6.41,1.19,.59,2.71,.99,1.39,2.94-2.03,3-1.94,6.05,.46,8.82,2,2.32,3.73,2.36,8.65,.56Z"/>
  <path d="M560.77,148.28c.75,9.57-3.92,17.59-11.47,20.37-7.26,2.67-15.17,.36-19.64-5.73-4.36-5.94-4.38-14.56-.06-20.6,4.26-5.95,12.06-8.7,18.6-6.38,1.37,.49,4.28,.36,2.59,3.39-1.77,3.17-1.51,6.26,.91,8.88,2.68,2.9,5.79,1.87,9.08,.06Z"/>
</svg>