<?xml version="1.0" encoding="UTF-8"?>
<svg id="Layer_1" data-name="Layer 1" xmlns="http://www.w3.org/2000/svg" viewBox="0 0 864 864">
  <path d="M675.66,807.61c-7.75-4.04-12.48-10.48-15.65-18.42-6.85-17.17-9.13-35.32-11.83-53.39-.32-2.11,.36-4.05,1.35-6.02,2.46-4.91,4.72-9.93,6.86-14.99,1.76-4.15,4.36-8.36,4.58-12.65,.38-7.25-2.08-14.46-.98-22.5-1.75,.83-2.59,1.24-3.44,1.63-26.21,12.13-53.44,18.48-82.48,14.43-2.27-.32-4.8-.16-6.12-2.61-1.25,3.27-2.49,6.54-3.76,9.8-.81,2.07,.55,2.74,2.02,3.68,15.43,9.8,32.21,11.81,49.94,9.05,13.5-2.1,26.39-5.89,38.33-12.79-3.1,5.38-8.71,6.93-13.79,8.77-25.26,9.13-50.53,13.18-75.15-2.06-2.53-1.57-3.57-.97-4.57,1.58-2.78,7.08-5.94,14.01-9.75,20.6-1.12,1.94-.9,2.98,.95,4.36,6.57,4.88,13.6,8.96,21.51,10.93,20.9,5.2,41.79,7.49,62.06-2.72,.84-.42,1.77-1.21,2.52-.07,.66,1.01-.11,1.87-.8,2.53-1.79,1.71-4.04,2.61-6.34,3.44-11.7,4.23-23.86,4.09-36.01,3.58-16.14-.68-31.47-4.13-44.3-14.77-2.47-2.05-3.44-.84-4.71,1.21-5.54,9-11.82,17.41-20.22,24.01-1.66,1.31-3.2,3.03-5.68,3.15-.19-2.46,1.66-3.01,2.8-3.97,3.35-2.81,6.68-5.64,9.51-9,18.09-21.5,29.74-46.12,35.31-73.59,7.13-35.18,5.63-70.51,1.31-105.85-.27-2.2,.34-5.01-2.76-6.15-.85-.31-.88-1.49-.14-2.02,2.31-1.67,1.2-3.76,.88-5.75-3.42-21.12-10.43-41.02-20.58-59.83-1.3-2.4-2.11-5.13-5.72-4.97-1.06,.05-2.29-.76-2.06-2.18,.2-1.24,1.42-.99,2.34-1.18,4.07-.85,8.17,.64,12.35-.74,9.29-3.08,17.33-7.87,23.91-15.12,1.07-1.18,1.97-2.71,3.69-3.2,.49,1.33-.04,2-.5,2.63-5.88,8.1-13.8,13.43-22.94,17.3-3.04,1.28-7.93,.55-8.83,3.7-.89,3.12,2.69,6.32,3.83,9.67,1.04,3.06,2.74,3.69,5.86,3.08,11.83-2.32,22.28-7.62,32.17-14.24,10.36-6.93,10.28-6.8,.93-15.37-16.94-15.53-36.22-28.31-52.41-44.69-17.03-17.23-35.46-33.22-48.41-54.09-1.66-2.68-3.18-1.96-5.13-.69-3.9,2.53-8.12,4-12.84,3.61-1.71-.14-3.51-.78-3.17-2.83,.32-1.89,2.14-.8,3.22-.7,4.54,.43,8.64-.53,12.45-3.08,1.81-1.21,2.25-2.28,1.24-4.37-2.11-4.36-4.27-8.79-5.08-13.6-.6-3.58-1.94-4.03-5.09-2.65-4.5,1.97-9.3,2.79-14.24,2.01-2.02-.32-3.48-1.62-3.03-3.64,.49-2.21,2.38-.9,3.62-.65,4.05,.82,8,.47,12.02-.37,3.59-.75,5.23-2.32,4.87-6.28-.49-5.32-.36-10.71,.75-15.96,.74-3.48-.26-4.97-3.66-6.36-12.71-5.21-25.86-9.44-37.86-16.27-6.35-3.62-12.47-7.55-17.06-13.42-1.98-2.53-3.38-5.23-2.33-9.5,5.57,10.37,13.77,16.97,23.35,21.44,25.11,11.75,50.95,21.56,78.53,25.88,23.93,3.75,47.79,1.81,71.6-1.39,22.53-3.03,44.62-7.98,65.55-17.05,11.96-5.18,23.43-11.53,30.81-22.79,16.05-24.48,14.88-50.13,3.72-75.95-3.18-7.37-9.72-11.5-17.6-13.24-5.91-1.3-11.61,.05-17.24,1.56-8.64,2.32-17.35,3.92-26.33,3.85-9.85-.08-9.84-.04-11.76-9.74-.04-.19-.42-.32-.97-.71-.59,2.24-1.1,4.37-1.73,6.46-1.9,6.27-2.77,6.94-9.31,6.11-4.79-.61-9.48-1.73-14.37-1.81-2.08-.03-4.52-.43-6.77-2.47,14.59,.02,23.2-7.66,22.59-19.5-.56-10.95-9.73-19.58-19.64-18.49-11.91,1.3-16.87,12.58-13.54,30.8-8.43-7.82-9.96-22.69-3.34-32.96,3.64-5.64,8.56-9.58,15.08-11.54,6.52-1.96,12.61-1.23,18.9,3.29-6.41-11.46-19.89-25.99-30.95-32.93-3.26-2.04-3.3-3.46-1.32-6.33,2.98-4.32,4.46-9.29,5.09-14.52,1.23-10.22-.99-19.97-4-29.59-3.68-11.75-9.04-22.55-18.68-30.67-4.67-3.94-7.27-3.1-9.02,2.69-.28,.93-.47,1.88-.68,2.83-3.07,13.9-6.16,27.8-11.45,41.08-1.33,3.33-2.35,6.82-4.94,10.47-2.27-10.03-4.35-19.42-9-27.77-16.97-30.46-41.2-53.71-71.45-70.79-3.08-1.74-6.42-3.17-10.07-3.29-4.4-.15-7,3.24-5.49,7.37,.71,1.95,1.93,3.73,3.06,5.5,4.86,7.64,10.06,15.09,14.61,22.91,11.52,19.82,21.3,40.35,24.34,63.46,1.37,10.45,1.38,10.25-8.69,12.84-3.34,.86-4.22-.29-4.99-3.06-2.44-8.78-6.24-17.01-10.84-24.84-1.71-2.91-2.92-7.81-7.13-6.77-4.23,1.05-3.54,6.01-3.86,9.59-.91,10.35-.9,20.72,.88,30.98,.79,4.57-2.82,4.82-5.37,6.09-3.02,1.51-3.08-1.49-3.77-2.95-4.44-9.45-10.94-17.29-19.33-23.31-34.43-24.73-73.37-35.29-115.32-36.06-2.08-.04-4.23,.25-6.25,.76-2.44,.62-4.47,2-4.93,4.77-.44,2.66,1.12,4.27,3.2,5.46,2.39,1.37,4.82,2.65,7.24,3.96,13.97,7.54,27.53,15.6,40,25.59,21.78,17.46,36.54,40.41,51.2,63.51,.39,.62,.54,1.4,.96,2.54-5.23-.33-9.3-2.8-13.58-4.47-31.18-12.19-62.93-19.98-96.71-13.09-10.44,2.13-21.25,2.91-30.77,8.27-7.4,4.17-9.08,9.88-5.59,17.62,2.46,5.45,6.44,9.75,10.87,13.54,28.69,24.5,61.34,38.12,99.67,35.64,3.21-.21,3.58,.92,3.12,3.52-.63,3.51-1.5,7.26-.47,10.59,1.5,4.85-.89,6.99-4.3,9.4-5.01,3.54-9.91,7.32-14.11,11.84-3.93,4.23-3.09,7.09,2.5,8.66,2.47,.69,5.13,.71,7.64,1.31,3.94,.93,9.16-2.57,11.55,.88,2.13,3.08,1.46,8.11,2.01,12.28,.11,.8,.07,1.63,.22,2.42,.59,3.01-.53,4.41-3.68,4.69-4.37,.38-8.63,1.54-12.52,3.6-5.63,2.99-5.8,7.79-.45,11.24,4.7,3.03,10.05,5.33,15.46,5.24,6.33-.1,7.62,3.51,9.04,8.15,.74,2.41,.61,3.77-1.74,5.09-4.71,2.64-8.47,6.49-12,10.51-4.59,5.24-3.15,9.31,3.8,10.46,4.8,.8,9.76,.98,14.5-.05,3.09-.67,3.91,.48,4.75,2.93,1.41,4.13,2.88,8.26,4.75,12.2,1.43,3.01,.73,4.54-2.1,6.03-3.59,1.9-6.52,4.76-9.22,7.8-1.43,1.61-2.84,3.36-1.81,5.63,.95,2.08,3.21,2.16,5.06,2.24,3.22,.12,6.85,.71,9.6-.5,8.3-3.66,12.06,.81,15.66,7.13,1.47,2.58,2.18,3.89-1.02,5.5-3.16,1.59-5.96,3.91-8.23,6.71-.91,1.12-1.99,2.33-1.25,3.92,.71,1.52,2.27,1.75,3.74,1.77,4.91,.07,9.7-.67,14.2-2.67,2.19-.97,3.65-1.09,5.33,1.06,5.77,7.38,11.71,14.63,17.71,21.81,1.65,1.98,1.43,3.23-.44,4.8-2.37,1.98-4.32,4.37-5.9,7.04-1.01,1.71-2.06,3.51-.76,5.41,1.29,1.89,3.43,1.56,5.35,1.34,3.44-.4,6.54-1.77,9.38-3.73,1.01-.7,1.74-1.85,3.22-.39,3.37,3.3,3.39,6.02-.22,8.95-.88,.71-1.8,1.4-2.55,2.23-.9,1-2.63,1.99-1.13,3.59,1.17,1.25,2.71,.64,4.07,0,2.43-1.13,3.24-3.91,5.63-5.61,1.12,1.92,2.01,3.83,3.25,5.49,2.29,3.06,1.9,5.19-1.23,7.59-2.52,1.93-4.41,4.7-6.42,7.23-.86,1.08-2.04,2.42-1.1,3.92,.9,1.44,2.61,1.08,4.02,1.01,2.93-.16,5.77-.86,8.35-2.3,1.57-.87,2.97-2.15,4.07,.62,.9,2.28,1.73,4.14-1.46,5.39-3.62,1.41-7.02,3.29-9.87,6.05-2.51,2.43-2.07,4.17,1.1,5.35,3.37,1.25,6.93,1.91,10.47,1.81,3.81-.11,4.59,1.65,4.52,4.97-.12,5.5-.03,11-.91,16.46-1.02,6.31-1.06,6.37-6.69,3.5-.85-.43-2.04-.64-2.13-1.71-.12-1.42,1.39-1.56,2.24-2.22,1.71-1.32,4.35-1.24,5.54-3.54-4.66-1.44-14.89-.36-18.45,1.77-2.66,1.59-2.67,3.43-.68,5.49,2.07,2.15,5.2,2.76,7.36,4.58,3.08,2.59,9.51-.04,9.94,5.12,.32,3.89-2.17,8.01-3.42,12.02-.14,.46-.4,.89-.54,1.35-.53,1.78-1.37,2.05-3.2,1.35-4.07-1.58-8.3-1-12.45-.12-4.34,.92-5.28,3.11-2.96,6.98,1.93,3.21,4.37,6.04,7.27,8.42,2.21,1.82,2.61,3.7,1.17,6.26-3.1,5.5-6.17,11.02-8.92,16.69-1.56,3.22-3.31,3.13-6.05,1.65-3.97-2.15-7.91-4.47-12.47-5.25-4.21-.72-5.83,.89-4.95,5.08,.67,3.19,1.58,6.72,4,8.72,9.01,7.47,6.66,15.02,1.33,23.28-1.59,2.47-2.52,2.85-4.71,1.39-4.23-2.83-8.92-4.58-13.85-5.65-1.8-.39-4.14-1.35-5.35,.66-1.16,1.92,.47,3.63,1.71,5.14,3.74,4.53,8.29,8.19,12.89,11.75,1.9,1.47,2.21,2.69,1.06,4.77-1.87,3.4-3.7,6.85-5.13,10.45-1.35,3.4-2.52,4.39-5.56,1.39-3.93-3.88-8.6-6.9-13.77-8.94-2.5-.99-4.99-1.1-4.8,2.87,.3,6.04,9.91,19.17,15.68,21.46-3.01,7.39-7.44,13.92-12.2,20.25-1.77,2.36-3.11,3.27-5.85,.47-5.7-5.8-12.35-10.52-20.31-12.82-5.11-1.47-6.85,.37-5.3,5.42,2.36,7.71,6.09,14.69,12.2,20.08,2.52,2.22,2.05,3.44-.48,4.91-3.49,2.03-6.97,4.08-10.35,6.29-2.28,1.49-3.48,.97-4.92-1.3-5.37-8.49-11.38-16.52-18.1-24-1.26-1.4-2.45-3.53-4.69-2.57-1.96,.84-1.47,3.15-1.43,4.81,.2,10.03,.5,20.09,2.8,29.91,.62,2.67-.06,3.75-2.5,4.67-4.75,1.78-9.67,2.53-14.64,3.26-3.1,.45-4.26-.66-5.16-3.47-1.18-3.68-2.85-7.22-4.55-10.7-1.57-3.19-3.35-6.33-6.4-8.41-3.92-2.67-6.56-1.54-6.86,3.15-.25,3.86-.09,7.77,.11,11.64,.08,1.5-.28,3.59,1.48,4.31,2.15,.87,3.23-1.11,4.15-2.53,2.13-3.28,4-2.41,5.92,.1,.78,1.03,1.55,2.07,2.28,3.14,1.42,2.06,1.1,3.14-1.64,3.24-7.45,.27-14.86,.43-22.27-.81-2.67-.45-3.41-1.39-3.46-4-.16-8.11-3.26-15.14-8.79-21-3.46-3.67-6.04-3.17-8.14,1.32-1.03,2.19-1.94,4.46-2.65,6.77-.69,2.23-3.07,5.15-1.08,6.66,1.99,1.5,4.09-1.59,5.99-2.92,5.17-3.61,7.56-2.89,9.67,3.13,.43,1.21,.55,2.52,.89,3.77,1.01,3.71-.39,4.54-3.96,3.85-8.46-1.62-15.67-5.93-23.03-10.02-1.96-1.09-1.62-2.24-.79-3.97,1.63-3.36,2.91-6.88,2.34-10.75-.22-1.5-.67-2.99-2.37-3.29-1.45-.26-2.42,.77-3.05,1.97-1.2,2.29-2.57,4.53-3.42,6.96-1.17,3.34-2.24,3.43-4.79,.98-14.48-13.95-24.33-30.57-29.24-50.04-7.51-29.78-6.63-60.02-4.37-90.28,1.78-23.89,10.37-46.95,22.12-67.66,11.99-21.14,29.28-38.19,41.88-58.84,.99-1.62,1.96-3.34,2.09-5.23,.13-1.89-.85-4-2.67-4.54-1.44-.43-2.97,.19-4.3,.91-4.76,2.57-8.68,6.42-12.39,10.36-16.63,17.64-29.76,37.97-40.65,59.56-7.79,15.43-12.96,32.23-21.06,47.41-.18,.34-.43,.54-.7,.64-6.39,16.33-13.03,32.62-16.36,49.95-9.05,47.11-.71,90.75,28.44,129.14,26.82,35.32,62.27,59.64,103.86,74.62,37.77,13.61,77.03,18.19,117.04,16.77,3.37-.12,5.1,.4,5.71,4.31,1.99,12.79,8.97,22.32,20.25,28.67,13.07,7.36,27.2,11.07,42.1,12.05,1.77,.12,3.55,.2,5.32,.38,2.45,.25,.78,3.53,3.15,4.37,.12-7.24-1.37-13.8-4.28-20.03-1.57-3.37-3.52-6.55-5.17-9.89-.51-1.04-1.58-2.47,.16-3.35,1.32-.66,1.99,.62,2.7,1.47,3.67,4.43,6.18,9.43,7.7,14.99,1.51,5.51,2.32,11.14,2.78,17.23,2.65-2.39,2.89-6.31,6.79-6.48,4.88-.21,9.62-1.33,14.29-2.62,3.06-.85,4.29,.4,5.5,3.02,1.35,2.91,.75,6.14,1.72,9.42,3.94-4.9,5.2-9.61,2.4-15.06-2.14-4.16-3.76-8.6-5.97-12.73-2.43-4.56-5.35-8.86-7.88-13.37-.73-1.29-1.92-3.32-.07-4.31,1.6-.85,2.19,1.29,2.99,2.39,5.63,7.78,9.77,16.36,13.45,25.2,.55,1.33,.49,3.71,2.78,3.34,3.66-.6,3.87,2.11,4.54,4.34,.61,2.06,.97,4.19,1.52,6.68,3.51-2.61,4.36-5.83,4.43-9.28,.1-5.09-2.66-9.17-6.03-12.33-10.47-9.79-14.18-22.91-18.62-35.74-.93-2.68-.07-3.36,2.51-3.56,6.55-.51,13.04-1.54,19.41-3.74-2.47-.61-4.98-.69-7.46-1.03-5.63-.76-11.2-1.8-16.07-4.98-.92-.6-2.1-1.39-1.17-2.69,.71-.99,1.72-.28,2.62,.07,2.56,.99,5.07,2.19,7.72,2.85,13.18,3.28,26.42,2.53,39.42-.66,7.68-1.88,15.15-4.85,22.71-10.06-2.59-.13-4-.18-5.42-.27-10.99-.66-21.99-1.3-32.61-4.51-6.03-1.83-11.27-4.94-14.84-10.28-.89-1.33-2.45-3.18-.49-4.73,2.28-1.81,3.59,.38,4.67,1.83,2.86,3.84,6.15,7.42,10.63,8.97,22.27,7.69,44.35,11.66,64.68-5.28,3.98-3.31,8.14-6.4,12.28-9.5,.7-.52,1.24-2.04,2.74-.89-3.09,4.11-6.91,7.34-10.91,10.36-13.64,10.35-28.82,17.88-44.63,24.27-1.76,.71-4.22,.74-3.65,4.04,2.18,12.6,6.04,24.58,16.79,32.36,16.02,11.59,34.14,16.65,54.04,14.63,3.07-.31,3.49-1.65,2.31-4.17-2.35-5.03-5.52-9.48-9.13-13.67-1.29-1.5-3.01-2.91-2.66-6.47,12.84,8,19.52,18.22,17.12,34.33,2.79-3.52,3.23-6.24,3.09-8.97-.29-5.68,4.84-5.23,7.84-7.08,2.98-1.84,4.27,1.03,5.86,2.71,2.43,2.56,2.88,6.2,4.78,10,2.27-5.64,1.66-10.23,0-14.9-2.72-7.67-6.23-14.91-10.86-21.61-.8-1.15-1.99-2.77-.32-3.8,1.5-.92,2.61,.56,3.45,1.82,3.6,5.4,6.83,11.03,9.05,17.13,1.2,3.29,2.67,4.59,5.92,2.61,2.39-1.45,4.03-.6,5.78,1.42,2.98,3.46,4.08,7.31,2.93,12.69,7.42-10.95,6.78-19.55-1.37-28-2.61-2.7-5.54-5.03-8.85-6.76Zm-11.1-598.04c1.57-2.22,3.69-3.51,6.5-3.43,3.02-.11,5.15,1.55,6.95,3.68,1.12,1.33,.48,2.69-.32,3.98-1.05,1.71-2.67,2.68-4.45,1.88-2.75-1.24-5.3-2.81-8.37-3.38-1.55-.29-.98-1.78-.31-2.72Zm-64.42-29.78c1.8-.14,3.23,.79,3.34,2.68,.09,1.61-1.01,2.62-2.67,2.96-1.6-.13-2.76-.87-2.94-2.57-.18-1.64,.53-2.94,2.27-3.08Zm-36.73,117.19c28.88,.09,55.18-7.83,78.42-25.25,.71-.54,1.32-1.51,2.71-.82,.13,2.11-1.72,2.86-3.01,3.78-19.07,13.64-40.41,21.51-63.56,24.62-10.81,1.45-21.61,1.01-32.4-.52-16.55-2.35-30.21-10.13-41.46-22.24-2.27-2.45-4.22-3.04-7.09-1.51-1.1,.58-2.44,.81-3.7,.95-1.13,.13-1.68-.77-1.99-1.75-.23-.71,.03-1.51,.64-1.62,3.74-.69,5.07-4.37,7.87-6.2,1.9-1.24,3.83-2.02,5.74-.32,1.89,1.69,.59,3.12-.64,4.53-1.75,2.02,.34,2.75,1.39,3.79,15.79,15.71,35.1,22.48,57.08,22.55Zm-50.08-185.59c.67-1.18,1.91-1.22,3-.77,2.08,.87,4.09,1.9,6.13,2.86,.9,.43,1.9,.96,1.72,2.08-.27,1.64-1.77,.92-2.5,1.19-2.7-.28-5.13-.58-7.16-2.08-1.07-.79-2.01-1.84-1.19-3.28Zm-22.51,3.92c2.14,.82,5.65-1.03,5.75,2.03,.07,2.19-3.45,1.66-5.36,1.71-2.52,.07-6.97,2.2-7.21-.8-.32-4.02,4.58-1.7,6.81-2.94Zm-6.38,57.02c20.71-.08,43.63,20.19,41.89,40.07-.22,18.46-12.67,41.74-43.85,41.03-25.52-.58-41.36-17.07-40.83-42.92,.44-21.26,19.83-38.1,42.79-38.18Zm-36.1-31.37c.97-1.09,2.18-1.98,3.72-2.12,2.21-.2,5.05-.95,5.64,2.04,.54,2.77-2.39,2.6-4.1,2.93-3.75,.71-6.16,3.4-8.92,5.58-1.18,.93-1.94,2.44-4.17,2.9,2.36-4.33,4.87-7.99,7.84-11.33Zm-90.23,123.25c-.91,.86-3.2,.42-3.74-1.06-1.13-3.12,2.09-4.18,3.59-6.15,.74,2.6,2.26,5.19,.14,7.21Zm0,37.21c-.19-1.83,3.32-4.11,4.4-3.51,2.77,1.55,1.72,5.13,2.86,8.33-3.5-.91-6.89-1.41-7.25-4.82Zm13.82,38.12c-2.15-.4-5.19,.62-6.15-1.68-.83-1.97,1.87-3.45,3-5.15,.96-1.45,1.77-3.08,3.54-4,1.63,2.14,1.65,4.81,2.53,7.17,1.13,3.03,.37,4.28-2.91,3.66Zm7.23-151.76c-1.41-.02-2.86-.53-2.28-1.78,1.18-2.57,4.07-3.26,6.41-4.39,.95-.46,1.7,.96,1.45,1.89-.76,2.88-3.27,3.6-5.58,4.28Zm5.09,186.95c-1.45-2.43,1.7-4.2,3.25-6.87,1.63,2.8,2.94,5.05,4.55,7.81-3.29,.88-6.55,1.14-7.79-.94Zm22.52,26.51c-1.27-.41-3.49,.35-3.22-2.24,.16-1.5,.49-3.95,2.05-3.74,2.23,.3,3.4,2.83,3.84,4.88,.3,1.42-1.61,.88-2.68,1.09Zm3.35-252.53c-3.07,5.1-6.11,10.22-9.28,15.25-.84,1.33-2.06,2.5-3.91,2.69-1.26-.2-1.64-1.11-.88-2.02,4.49-5.33,7.09-11.88,11.35-17.35,.68-.87,1.57-1.93,2.79-1.12,1.05,.68,.43,1.74-.06,2.56Zm29.31,290.62c-.93,1.07-2.3,1.05-3.59,.84-1.36-.23-1.81-1.28-1.77-2.48,.06-1.88,.07-3.8,1.12-5.59,1.99,.83,2.74,2.72,3.9,4.17,.71,.89,1.24,2.03,.34,3.07Zm15.01,23.97c1.53,2.15,2.12,4.09,2.54,6.14-4.39-.39-4.58-.79-2.54-6.14Zm7.66,25.19c-.91,.94-3.56-.03-4.05-1.49-.81-2.42,1.51-3.39,3.55-5.22,.13,2.76,2.29,4.87,.51,6.71Zm-286.68,145.76c-1.72,.09-2.61-1.14-2.67-2.74-.05-1.46,.88-2.5,2.3-2.59,1.75-.11,2.4,1.25,2.78,2.51-.24,1.65-.99,2.74-2.42,2.82Zm30.55-135.08c1.86-.2,2.41,1.12,2.62,2.69-.08,1.72-.59,3.23-2.66,3.14-1.53-.07-2.81-.98-2.84-2.64-.03-1.8,1.06-3,2.88-3.19Zm-8.74,22.94c.23-1.68,1.31-2.58,3.05-2.35,1.7,.23,2.53,1.27,2.39,3.04-.43,1.79-1.74,2.15-3.33,1.96-1.55-.18-2.32-1.15-2.11-2.65Zm-2.93,20.71c1.93,.18,3.01,1.07,2.91,2.78-.11,1.84-1.38,2.95-3.15,2.98-1.72,.03-2.57-1.33-2.62-2.87-.07-1.98,1.34-2.71,2.86-2.89Zm-10.09,47.5c.18-1.56,1.11-2.65,2.82-2.59,1.58,.06,2.06,1.21,2.17,2.59-.19,1.68-1.16,2.57-2.82,2.51-1.52-.06-2.33-1.05-2.16-2.51Zm6.08,47c-1.81-.14-3.04-1.29-2.95-3.16,.09-1.81,1.33-3.02,3.13-3.05,1.75-.03,3.06,.86,3.18,2.86-.44,1.82-1.09,3.53-3.37,3.35Zm5.91,20.37c-1.7-.28-2.61-1.36-2.56-2.95,.05-1.83,1.13-2.96,3.06-2.91,1.76,.05,2.6,1.25,2.58,2.82-.03,1.88-1.35,2.74-3.08,3.03Zm9.06,21.37c.04-1.7,1.13-2.65,2.83-2.52,1.64,.12,2.59,1.09,2.59,2.82-.24,1.6-1.05,2.85-2.69,2.9-2.01,.06-2.77-1.43-2.73-3.19Zm7.33,39.82c-1.65,.23-2.79-.63-3.02-2.31-.24-1.75,.84-2.75,2.4-2.97,1.57-.22,2.79,.46,3.1,2.23-.18,1.54-.84,2.82-2.48,3.05Zm4.46-22.93c-1.93,.03-3.05-.98-3.06-2.92,0-1.6,1.11-2.23,2.54-2.31,1.86-.1,3.08,.72,3.42,2.67-.19,1.71-1.25,2.53-2.9,2.55Zm22.82,48.57c-1.94-.25-2.72-1.58-2.34-3.42,.36-1.74,1.73-2.18,3.29-1.91,1.69,.29,2.28,1.5,2.27,2.97-.5,1.73-1.6,2.57-3.22,2.36Zm8.14-29.82c-1.23,.16-2.31-.36-2.51-1.69-.23-1.58,.85-2.42,2.23-2.62,1.34-.19,1.95,.81,2.28,1.63,0,1.7-.74,2.51-1.99,2.68Zm15.59,18.43c-2.07,.17-3.48-.92-3.59-3.04-.12-2.38,1.43-3.42,3.69-3.75,1.93,.2,3.32,1.1,3.24,3.32-.08,2.08-1.33,3.31-3.35,3.47Zm27.74-7.25c.01-2.36,1.75-3.4,3.88-3.44,2.16-.05,3.86,.99,3.95,3.35,.09,2.52-1.61,3.67-3.88,4.14-2.44-.28-3.96-1.6-3.95-4.04Zm4.89,29.86c-2.08-.07-3.56-1.4-3.51-3.73,.05-2.45,1.34-3.92,3.84-3.89,2.24,.02,3.52,1.23,3.49,3.5-.26,2.42-1.34,4.21-3.82,4.12Zm42.28-56.88c1.61-.22,8.23,4.88,7.69,5.9-1.55,2.91-4.75,2.7-7.47,3.03-3.12,.38-2.45-2.15-2.65-4.12,.79-1.53-.74-4.37,2.43-4.81Zm-16.02,39.1c.15-2.43,1.82-3.7,4.25-3.5,2.31,.18,3.33,1.68,3.2,3.93-.14,2.48-1.55,3.71-3.99,3.92-2.51-.36-3.6-2.09-3.47-4.35Zm11.51,31.11c-3.33,.15-5.56-2.01-5.61-5.33-.05-3.46,2.02-5.61,5.58-6.13,3.51,.33,5.83,1.97,5.86,5.71,.03,3.77-2.48,5.61-5.82,5.76Zm4.88-39.16c-4.46-.1-8.08-3.66-8.11-7.97-.02-4.19,3.83-7.8,8.25-7.72,4.38,.07,8.13,3.76,8.09,7.94-.05,4.36-3.75,7.85-8.23,7.75Zm8.99,61c-1.28,.07-2.17-.69-2.32-1.99-.17-1.48,.54-2.58,2.06-2.75,1.53-.18,2.33,.81,2.66,2.2-.09,1.55-.92,2.46-2.41,2.54Zm22.72-92.44c3.17,.23,4.87,1.91,4.97,4.94,.09,2.73-1.61,4.26-4.17,4.4-3.02,.17-5.08-1.54-5.19-4.54-.11-2.75,1.71-4.37,4.39-4.8Zm.21,21.44c3.76,.1,6.63,3.21,6.45,6.97-.18,3.68-3.33,6.63-7.01,6.57-3.81-.06-6.79-3.05-6.75-6.76,.05-3.79,3.39-6.89,7.31-6.78Zm.64,59.35c-4.54,.08-8.17-3.45-8.06-7.84,.1-4.19,4.03-7.78,8.4-7.69,4.2,.09,7.49,3.57,7.48,7.93,0,4.18-3.45,7.53-7.82,7.6Zm8.51-94.57c-2.31,2.89-4.96,5.44-8.04,7.52-.98,.66-1.45-.19-1.75-.92-1.2-2.96-2.34-5.94-3.2-8.13-.41-3,.56-3.81,2.65-3.54,3.4,.45,6.45,1.83,9.47,3.34,.76,.38,1.58,.83,.87,1.73Zm12.15,8.51c-2.47-.47-4.72-1.35-4.93-4.29-.22-3.1,1.68-4.93,4.52-5.13,2.96-.21,4.92,1.62,4.97,4.63,.04,2.79-1.9,4.21-4.56,4.79Zm30.89-99.86c-1.7-3.16-1.04-4.78,2.84-4.43,1.54,.14,3.1,.02,4.64,.02,.34,2.1-.83,3.35-1.67,4.6-.82,1.22-.93,3.55-2.86,3.32-1.6-.19-2.2-2.12-2.95-3.52Zm-19.22,111.98c2.74,.17,3.04,2.36,3.11,4.14-.49,3.22-2.06,4.8-4.92,4.59-2.58-.19-4.28-1.7-3.99-4.39,.35-3.32,2.8-4.54,5.81-4.35Zm-8.77-52.82c-.43-1.32-1.45-3.06,.18-3.87,1.89-.93,4.26-.19,5.99,.61,1.85,.85,.03,2.52-.48,3.63-.98,2.14-2.27,4.12-3.43,6.19-.76-2.18-1.54-4.36-2.26-6.56Zm8.56,129.62c-1.53-.21-2.66-.92-2.61-2.41,.07-1.73,1.37-2.48,2.99-2.38,1.54,.09,2.27,1.21,2.17,2.62-.1,1.52-1.21,2.14-2.56,2.17Zm.74-24.92c-4-.03-6.83-3.06-6.77-7.24,.06-4.02,3.61-7.56,7.4-7.38,3.66,.18,7.07,3.78,7.01,7.38-.07,3.91-3.62,7.27-7.63,7.24Zm8.09-70.02c-3.44,.21-5.12-1.98-5.15-5.11-.03-2.95,1.72-4.94,4.82-4.94,3.06,0,4.64,1.91,5.09,4.87-.33,2.88-1.67,4.99-4.76,5.18Zm-.13-32.01c-3.61-.38-5.6-2.6-5.47-6.1,.13-3.55,2.37-5.65,6.05-5.55,3.77,.11,5.6,2.48,5.5,6.02-.1,3.66-2.42,5.44-6.09,5.62Zm13.14-25.42c-4.06-.01-7.2-3.01-7.2-6.87,0-3.44,3.33-6.66,6.9-6.69,3.63-.03,6.82,3.07,6.92,6.7,.1,3.67-2.99,6.87-6.63,6.86Zm111.12,81.99c-3.38-8.48-6.33-17.14-14.93-22.33,3.33-2.32,4.81,.81,6.86,.19-5.08-31.74-7.9-63.62-6.45-95.76,.73,.01,1.46,.03,2.19,.04,0,11.45-.36,22.92,.08,34.35,.74,18.91,2.58,37.73,5.55,56.43,.62,3.9,1.89,7.46,3.72,10.93,2.63,5,3.85,10.35,2.98,16.14Zm10.55-266.2c-2.37,6.74-7.48,10.43-13.73,12.61-3.83,1.34-7.97,2.93-11.8-.54,10.36-.27,18.73-4.33,25.52-12.08Zm-56.94-29.49c7.67-.06,13.55-4.44,20.11-7.54-4.19,5.38-9.45,9.13-16.15,10.64-1.42,.32-2.93,.8-4.16-.29-1.04-.92-1.6-2.79,.2-2.8Zm-41.24,140.02c-1.81-.55-2.26-2.97-2.94-4.71-.69-1.75,1.04-1.99,2.09-2.57,1.78-.98,3.56-1.95,5.97-3.28-.67,3.27-1.42,5.54-2.78,7.54-.74,1.09-.65,3.54-2.34,3.02Zm57.75,174.29c-.19,1.24-1.45,1.19-2.36,1-1.89-.4-3.83-.77-5.59-1.52-21.23-8.96-36.85-24.01-47.68-44.2-.37-.68-.87-1.4,0-2.62,1.86,2.74,3.62,5.35,5.41,7.93,9.62,13.91,21.48,25.35,36.56,33.26,3.74,1.96,7.65,3.46,11.75,4.44,.92,.22,2.1,.51,1.92,1.71Zm-2.43-24.8c-.37-.33-.62-1.38-.38-1.67,.7-.88,1.93-.79,2.63-.17,1.93,1.7,3.81,3.49,5.47,5.45,3.74,4.4,7.09,9.1,9.64,14.44-6.21-5.62-11.19-12.39-17.35-18.05Z"/>
  <path d="M657.91,632.12c.83,1.24,1.1,2.61,1.17,4.1,.53,11.93,1.21,23.85,1.14,35.8-.02,3.42-.63,5.25-4.42,6.71-12.05,4.63-24.01,9.46-36.6,12.42-15.1,3.55-30.36,3.71-45.69,1.68-1.89-.25-3.79-1.03-5.68,0,0,0,.16,.16,.16,.16-.23-5.74,1.97-11.07,2.86-16.63,2.61-16.31,3.97-32.7,3.87-49.21-.01-2.19,0-4.39,0-6.8,27.69,12.1,53.5,6.15,78.76-5.9,2.77-1.32,3.65-1.12,3.78,1.98,.21,5.28,2.05,10.47,.77,15.84-1.11,.65-2.26,1.24-3.33,1.95-16.66,10.96-35,17.03-54.79,19.05-7.69,.79-15.34,.25-23.71-.53,1.89,3.71,4.73,3.72,7.33,3.82,22.83,.95,44.31-3.93,63.97-15.68,3.82-2.28,8.48-4.04,10.41-8.77Zm-65.24,8.66c1.53-.25,2.84-.92,2.88-2.62,.03-1.52-1.13-2.22-2.56-2.17-1.39,.04-2.49,.69-2.56,2.24-.07,1.49,.75,2.35,2.24,2.55Z"/>
  <path d="M671.85,708.39c.33-10.82,.1-11.01-8.65-7.27,.59-8.48-1.24-16.46-1.2-24.63,.13-27.84-.32-55.7-6.79-82.95-4.9-20.64-11.97-40.61-21.74-59.5-1.33-2.58-1.11-3.36,1.37-4.55,13.46-6.5,25.76-2.78,33.57,10.52,7.01,11.93,9.91,25.26,11.94,38.69,4.96,32.74,6.12,65.64,3.07,98.66-1.02,10.99-5.09,20.78-11.57,31.03Zm5.73-13.69c1.95-4.85-.08-9.33-1.42-13.84-.37-1.24-.66-3.35-2.73-2.44-1.4,.61-1.08,2.28-.5,3.46,2.03,4.08,2.78,8.57,4.65,12.82Z"/>
  <path d="M647.41,574.58c3.52,10.82,6.59,21.33,8.41,32.2,.44,2.63-1.2,3.43-2.82,4.44-10.8,6.69-22.84,9.78-35.19,11.77-14.41,2.32-28.35,1.21-41.4-6.17-1.36-.77-1.91-1.33-1.97-2.7-.23-5.01-.5-10.02-.72-15.04-.07-1.68-.18-3.1,2.51-2.81,26.48,2.85,49.78-5.04,71.19-21.7Zm-47.82,34.47c-.11-1.6-.85-2.71-2.58-2.9-1.66-.18-2.89,.41-3.03,2.25-.15,1.87,.64,3.26,2.62,3.3,1.59,.04,2.68-.93,2.99-2.66Z"/>
  <path d="M589.27,594.04c-15.79,.09-15.99-.08-17.63-15.83-.3-2.89-1.61-6.44-.41-8.51,1.46-2.53,5.24-.28,8.03-.55,19.16-1.86,36.26-8.87,51.67-20.23,6.02-4.43,4.77-5.29,8.04,2.22,2.39,5.47,4.13,11.21,6.46,16.71,1.26,2.98,.34,4.66-1.96,6.57-13.58,11.31-36.01,19.51-54.2,19.61Z"/>
  <path d="M580.3,566.17c-9.43,.11-9.91-.33-11.44-8.41-.93-4.92-1.95-9.83-3.1-14.71-.49-2.06-.2-2.93,2.14-2.95,19.74-.13,36.11-8.94,51.36-20.37,2.76-2.07,4.01-2.17,5.64,1.08,3.11,6.2,6.5,12.26,9.17,18.68,.83,1.99,1.31,3.55-.78,5.05-16.26,11.75-33.88,20.08-53.01,21.61Z"/>
  <path d="M569.25,537.18c-3.84,.99-6.13-1.42-7.35-6.38-1.14-4.68-3.16-9.17-5.03-13.64-.99-2.36-1.29-3.57,1.89-4.34,15.02-3.63,28.43-10.56,40.22-20.56,1.64-1.39,2.78-1.86,4.36,.06,5.57,6.72,11.52,13.13,16.32,20.47,1.56,2.38,1.53,3.53-1.07,5.24-13.46,8.81-26.97,17.38-43.61,18.76-1.45,.12-2.9,.2-5.74,.4Z"/>
  <path d="M424.16,420.12c-3.24,2.81-6.06,4.32-9.12,5.3-1.64,.52-3.63,1.08-4.89-.65-1.13-1.54-.07-3.11,.78-4.45,1.63-2.58,3.47-5,6.23-7.15,1.91,2.61,2.52,6.43,7,6.95Z"/>
  <path d="M502.92,215.38c.11,13.8-10.22,24.39-23.96,24.54-12.94,.14-22.9-9.86-22.94-23.03-.03-13.61,10.26-24.14,23.67-24.21,13.21-.07,23.12,9.61,23.23,22.7Zm-14.49-9.28c.24,2.88,1.87,4.73,4.9,4.78,3.15,.05,5.42-1.67,5.5-4.9,.07-3.04-1.65-5.48-4.89-5.57-3.42-.09-5.24,2.1-5.52,5.69Z"/>
</svg>