<?xml version="1.0" encoding="UTF-8"?>
<svg id="Layer_1" data-name="Layer 1" xmlns="http://www.w3.org/2000/svg" viewBox="0 0 864 864">
  <path d="M622.75,661.43c7.37-2.66,12.99-7.93,18.91-12.73,1.74-1.41,1.13-3.41,.94-5.27-1.39-13.2-5.86-25.55-10.36-37.89-.27-.73-.7-1.42-.87-2.17-.4-1.73-2.4-3.66-.68-5.16,1.44-1.27,3.16,.6,4.64,1.28,12.78,5.85,26.47,8.51,40.08,11.37,3.66,.77,7.99-4.78,7.09-8.89-3.27-14.98-9.66-28.36-20.43-39.47-.44-.45-.9-.87-1.32-1.34-.82-.91-2.19-1.83-1.67-3.12,.7-1.76,2.46-.82,3.71-.69,14.31,1.45,28.62,2.95,42.93,4.51,5.48,.59,8.09-2.48,6.74-7.95-3.21-13.01-9.41-24.46-17.9-34.74-.2-.24-.44-.46-.61-.72-.91-1.39-3.13-2.68-2.29-4.26,1.11-2.08,3.45-.49,5.09-.17,9.22,1.8,18.29,4.19,27.13,7.39,2.49,.9,3.94,.98,4.71-2.12,7.3-29.32,14.6-58.62,13.22-89.23-.4-8.89-1.49-17.63-5.05-25.93-.19,9.34,0,18.64-1.07,27.93-1.94,17-9.9,30.4-23.44,40.64-1.07,.81-2.17,2.36-3.62,1.61-1.51-.78-.7-2.57-.55-3.85,1.38-11.81,1.99-23.68,2.69-35.55,.11-1.95,.02-3.91,.02-6.68-4.36,7.26-8.42,13.68-12.12,20.3-5.19,9.28-13.59,14.46-22.91,18.49-5.31,2.29-10.83,4.09-16.15,6.36-3.51,1.49-4.47,.77-3.8-3.02,2.22-12.56,6.55-24.11,15.24-33.74,1.11-1.23,2.57-2.31,2.98-4.49-3.23-.44-5.57,1.42-8.02,2.73-10.34,5.52-19.93,12.41-30.76,17.04-1.52,.65-3.34,2.37-4.69,1.17-1.62-1.44-.02-3.51,.58-5.2,4.62-12.87,14.58-20.78,25.83-27.39,5.74-3.37,11.62-6.49,17.81-9.09-5.15-.91-10.07,.12-14.69,1.66-19.6,6.53-38.89,4.28-58.13-1.43-1.28-.38-3.17-.32-3.38-2.01-.19-1.51,1.42-2.3,2.44-3.22,12.46-11.25,27.46-15.52,43.87-16.52,12.15-.74,24.41-.94,36.28-4.25,1.6-.45,3.32-.66,4.54-2.18-1.8-1.83-4.07-1.97-6.1-2.53-17.5-4.85-35.14-8.96-53.33-10.37-5.44-.42-10.83-1.54-16.22-2.49-1.29-.23-3.31,.16-3.66-1.44-.38-1.77,1.62-2.49,2.8-3.35,11.57-8.39,24.45-11.51,38.61-9.49,12.69,1.82,25.1,5.26,37.88,6.61,1.47,.15,2.94,.36,4.75-.33-4.12-2.98-8.22-5.98-12.37-8.93-12.87-9.15-26.11-17.83-36.97-29.52-5.8-6.25-10.28-13.36-14.4-20.76-1.92-3.45-.78-4.2,2.76-4.04,13.78,.61,26.82,4.46,39.62,9.11,35.98,13.07,64.05,36.44,87.07,66.62,25.14,32.96,38.28,70.67,45.09,110.99,2.98,17.59,4.99,35.25,4.47,53.2-1.42,48.66-16.14,93.28-39.43,135.61-13.21,24.01-28.29,46.39-48.09,65.56-8.74,8.46-15.54,18.75-23.82,27.74-25.84,28.06-58.59,43.76-94.65,53.55-32.55,8.84-65.68,10.4-99.13,7.13-4.82-.47-9.66-.85-14.47-1.38-2.68-.29-3.83,.56-4.25,3.44-1.01,6.96-2.53,13.84-3.73,20.77-.7,4.05-2.66,6.73-6.66,8.21-11.15,4.14-22.5,6.51-34.46,5.21-7.4-.8-13.76-3.81-19.49-8.49-2.7-2.21-2.91-3.8-.21-6.29,8.75-8.06,19.22-10.76,30.72-10.29,6.88,.28,7.01,.41,5.1-6.3-2.4-8.42-5.05-16.76-7.6-25.14-.67-2.2-1.22-3.65-4.44-2.65-2.83,.88-6.2,.14-9.32-.03-2.3-.13-3.48,.55-3.52,3.08-.04,2.65-.46,5.29-.69,7.94-.59,6.56-.59,6.72,6.22,7.09,4.96,.27,9.94,.05,15.85,.05-2,2.8-3.84,2.23-5.37,2.17-30.3-1.34-60.68-1.82-90.7-6.8-3.2-.53-4.44,.61-5.4,3.47-4.04,12-8.37,23.91-12.41,35.91-1.2,3.57-3.11,5.03-6.99,5.48-11.5,1.35-22.96,3.03-34.58,1.86-4.06-.41-8.05-1.12-11.81-2.82-4.8-2.16-5.01-3.09-1.77-7.06,7.39-9.05,17.71-11.21,28.53-12.01,8.36-.62,8.34-.47,7.15-8.63-.97-6.65-2-13.3-2.72-19.98-.41-3.83-1.87-5.66-5.98-6.02-7.2-.63-7.32-.94-9.21,6.26-1.86,7.09-4.38,14.04-5.12,21.38-.15,1.52-.94,1.65-2.13,1.82-13.15,1.93-26.23,4.31-39.47,5.5-6.42,.58-12.43-1.03-18.17-3.74-4.11-1.94-4.27-2.9-.5-5.64,6.29-4.56,13.16-7.99,21.12-8.16,4.43-.1,5.42-1.49,4.35-5.93-2.29-9.57-3.98-19.29-5.7-28.99-.48-2.72-1.63-4.49-4.03-5.84-23.49-13.2-44.68-29.39-62.9-49.28-31.58-34.46-52.87-74.32-61.31-120.47-10.42-56.98-10.52-113.58,8.93-169.02,14.51-41.35,38.21-76.82,69.36-107.45,12.83-12.61,25.7-25.18,38.44-37.87,4.72-4.7,7.89-10.47,10.26-16.67,1.9-4.97,1.66-5.53-3.73-6.07-15.72-1.56-31.43-3.22-47.21-4.12-25.14-1.43-50.33-2.4-74.97-8.36-17.58-4.25-33.86-11.06-47.4-23.48-18.6-17.07-24.57-37.46-16.45-61.63,5.64-16.8,12.97-32.86,21.31-48.47,2.55-4.77,2.83-4.69,6.12-.44,10.1,13.05,24.42,17.68,39.89,19.01,36.66,3.16,70.17-7.26,101.9-24.76,2.89-1.59,3.74-3.41,2.96-6.78-4.26-18.34-3.24-36.68,.9-54.89,2.71-11.9,9.09-22.06,15.95-31.98,.27,1.76,.94,3.33-1.09,4.77-2.07,1.47-1.79,1.66,.66,3.48,1.3,.97,.64,2.64,.62,3.97-.19,14.58,.75,29.07,3.45,43.43,1.7,9.07,5.41,17.22,10.75,24.75,2.13,3,4.16,4.28,8.1,3.58,9.64-1.71,9.68-1.46,7.97-10.79-4.97-27.27,2.26-51.73,17.21-74.37,7.54-11.43,16.9-21.16,28.52-29.82-.29,4.64-2.07,8.07-3.36,11.59-6,16.34-11.07,32.88-12.92,50.3-.89,8.39-.26,16.58,1.96,24.62,2.13,7.68,4.76,15.22,7.05,22.86,.73,2.45,2.02,3.39,4.66,3.53,11.16,.59,10.84,.61,13.52-10.07,9.06-36.2,28.84-65.14,59.53-86.51,5.9-4.11,11.91-8.07,17.88-12.08,.23-.16,.58-.14,1.72-.38-2.22,4.03-4.2,7.57-6.15,11.13-17.97,32.78-32.65,66.84-40.96,103.47-.91,4.02-.02,5.89,3.84,6.6,.46,.08,.95,.2,1.33,.44,4.49,2.83,6.26,.57,8.03-3.57,7.61-17.8,17.42-34.31,30.38-48.78,13.04-14.55,28.63-25.6,46.71-33.08,7.29-3.01,14.62-5.91,21.93-8.86,.22,.33,.44,.65,.66,.98-3.8,4.07-7.62,8.12-11.39,12.2-22.51,24.33-42.88,50.21-57.25,80.31-2.95,6.19-4.96,12.82-7.52,19.21-.71,1.77-.28,2.73,1.12,3.97,8.93,7.89,8.67,7.69,17.59-.48,22.45-20.58,46.83-38.39,76.54-46.86,26.11-7.44,51.98-5.95,76.78,6.05,2.3,1.11,6.01,2.1,5.8,4.6-.19,2.26-4.08,2.23-6.41,2.75-21.93,4.85-43.07,11.68-62.95,22.48-12.55,6.81-26.68,9.79-40.14,14.38-8,2.72-16,5.44-23.39,9.64-3.69,2.09-7.23,4.36-9.94,7.73-4.73,5.88-2.78,11.06,4.84,12.34,4.93,.83,9.92,1.33,14.89,1.95,20.81,2.6,41.58,5.35,61.22,13.36,5.38,2.19,10.44,4.97,15.42,7.93,3.58,2.13,4.67,6.82,8.77,8.53,.84,.35,1.67,1.66,.99,2.82-.67,1.15-1.98,.79-3,.65-10.23-1.4-20.45-2.81-30.66-4.33-18.1-2.69-36.14-5.77-54.35-7.67-6.15-.64-12.15-.11-18.13,1.43-3.76,.97-5.58,3.39-5.94,6.94-.33,3.26,2.84,3.44,4.75,4.26,14.97,6.51,29.3,14.05,42.24,24.15,20.08,15.67,28.78,37.18,32.16,61.52,.28,2.01,.56,4.03,.72,6.06,.08,1.04,.4,2.45-.94,2.83-1.35,.39-1.8-.97-2.25-1.91-3.78-7.97-8.72-15.18-14.34-21.94-18.51-22.22-40.6-39.33-68.66-47.86-6.08-1.85-10.12,.76-11.18,7.01-.36,2.14,1.3,3.07,2.35,4.31,9.76,11.56,16.71,24.51,19.7,39.43,2.45,12.23,1.1,24.29-1.79,36.26-1.3,5.38-2.67,10.75-4.08,16.4-2.22-1.42-2.22-3.25-2.7-4.81-5.36-17.66-10.79-35.29-17.46-52.52-1.82-4.69-4.11-9.12-6.74-13.38-1.25-2.03-2.29-2.84-3.83-.13-2.85,5.03-5.99,9.91-8.85,14.93-1.92,3.37-.72,7.04-.58,10.59,.71,18.3,1.39,36.59-3.81,54.48-.39,1.35-.86,2.68-1.38,3.98-.14,.36-.59,.59-1.39,1.35-4.07-15.46-5.3-30.72-4.36-46.23-2.06-.26-2.57,1.36-3.35,2.29-15.54,18.63-32.36,36.13-48.27,54.42-5.66,6.5-5.91,14.61-.86,21.73,.52,.73,1.46,1.27,1.04,2.73-4.64,.5-9-1.01-13.42-2.33-1.87-.56-3.68-2.98-5.52-1.6-2.68,2.02-5.72,4.27-6.49,7.74-1.51,6.77-2.48,13.7,1.99,19.88,1.88,2.59,.48,3.22-1.7,3.7-4.65,1.01-8.99-.08-13.24-1.88-4.47-1.88-9.91,1.34-9.74,6.23,.31,9.15,1.32,18.2,8.77,24.92,.75,.68,2.04,1.32,1.32,2.64-.64,1.17-1.96,.75-2.99,.69-5.96-.32-11.79-1.48-17.56-2.94-5.86-1.48-8.62,.87-7.72,6.99,.9,6.11,3.21,11.74,6.74,16.84,.59,.86,1.71,1.78,.96,2.9-.71,1.05-1.99,.55-3.04,.36-.92-.16-1.84-.37-2.75-.6-5.9-1.48-6.02-1.48-5.9,4.82,.09,4.53,.57,9.05,.86,13.58,.19,3.05,1.69,3.57,3.93,1.83,5.31-4.12,10.61-8.27,15.76-12.58,18.76-15.73,34.56-34.42,51.75-51.73,13.22-13.31,26.34-26.79,42.09-37.27,.78-.52,1.56-1.04,2.37-1.52,1.94-1.16,4.1-2.25,6.06-.49,2.07,1.86,.88,4.19-.2,6.02-5.41,9.18-10.46,18.51-14.37,28.45-5.52,14.01-9.78,28.37-12.4,43.21-.24,1.35-.29,2.74-.44,4.24,.68,0,1.23,.18,1.5-.02,22.22-16.37,46.01-30.15,70.27-43.24,25.71-13.88,48.73-31.73,71.17-50.31,1.57-1.3,3.13-2.61,4.82-3.74,4.18-2.8,6.12-2.07,7.33,2.83,1.21,4.9,1.08,9.95,1.33,14.94,1.26,24.68,3.44,49.38,.59,74.06-3.47,30.06-12.38,58.21-32.13,81.79-10.55,12.6-22.81,23.64-36.22,33.25-3.63,2.6-4.24,5.03-2.34,9.03,4.09,8.62,8.19,17.22,12.77,25.6,1.46,2.67,3.06,3.38,5.97,2.56,4.95-1.41,10.11-2.13,14.83-4.31,2.96-1.37,3.19-.1,2.72,2.45-1.33,7.24-3,14.4-5.31,21.37-.88,2.66-.63,4.64,1.07,6.91,5.22,6.93,11.41,12.85,18.05,18.36,2.01,1.67,3.38,1.87,5.51-.15,8.33-7.86,16.07-16.22,22.78-25.51,.58-.81,.75-2.41,2.21-1.88,1.27,.46,.87,1.81,.83,2.89-.47,11.84,1.36,23.35,4.54,34.73,1.13,4.06,3.24,5.9,7.45,6.14,8.13,.47,16.22,.91,24.37,.2,3.32-.29,4.94-1.53,6.09-4.56,6-15.79,9.04-32.16,10.15-48.95,.08-1.13-.55-2.77,1.12-3.19,1.29-.33,1.8,.97,2.34,1.9,8.67,14.69,22.31,23.3,37.15,30.48,1.82,.88,4.47,.91,4.93,3.7-13.32-3.89-24.53-11.33-34.46-20.79-3-2.86-5.57-6.17-8.93-9.93-1.52,17.59-4.66,34.06-11.33,49.53,1.29,1.06,2.4,.62,3.43,.44,14.56-2.48,28.51-6.86,41.71-13.51,3.31-1.67,6.89-2.99,9.51-5.83Zm-471.89-20.71c15.86-.26,36.02-3.45,55.86-8.96,3.14-.87,3.63-2.13,2.54-4.92-3.58-9.19-6.34-18.66-8.72-28.21-.83-3.33-2.47-3.38-5.03-2.76-22.19,5.4-44.6,8.11-67.42,5.31-3.8-.47-4.26,1.04-3.6,4.16,1.63,7.64,3.05,15.32,5.18,22.86,3.57,12.64,3.48,12.66,21.19,12.53Zm73.49-224.29c-.2-2.11-2-2.34-3.29-3.02-17.39-9.25-34.4-19.16-50.97-29.8-2.54-1.63-3.67-.51-4.86,1.37-6.45,10.17-12.63,20.49-18.05,31.27-1.19,2.37-.37,3.4,1.57,4.4,18.89,9.79,38,19.09,57.72,27.11,3.13,1.27,4.25,.36,5.24-2.7,2.88-8.94,6.64-17.54,11.24-25.75,.53-.95,.96-1.96,1.41-2.87Zm-79.45,183.92c16.94,.39,33.6-2.13,50.16-5.48,3.13-.63,3.97-1.82,3.31-5.08-1.56-7.64-3.02-15.35-3.77-23.1-.41-4.23-1.9-5.17-5.81-4.84-21.52,1.82-43.05,2.43-64.57,.02-3.09-.35-4.12,.43-3.89,3.72,.7,9.97,1.6,19.92,2.75,29.86,.43,3.71,2.24,4.86,5.43,4.89,5.46,.05,10.93,.01,16.39,.01Zm63.79-401.9c0,1.09,0,2.19,0,3.28,.03,11.71,5.82,18.78,17.38,20.74,11.67,1.98,21.99-.78,30.53-9.34,7.98-8,13.05-17.53,14.87-28.64,1.91-11.72-.27-22.57-10.51-29.63-10.67-7.35-22.37-6.74-33.91-1.38-.55,.26-1.6,.28-1.17,1.44,.63,1.72,.64,1.76,.14,2.17-13.04,10.74-17,25.29-17.33,41.36Zm-46.58,475.17c1.4,0,2.81,.03,4.21,0,18.52-.47,36.62-3.53,54.42-8.6,3.38-.96,4.61-2.06,2.76-5.75-3.77-7.53-7.23-15.23-10.42-23.02-1.35-3.29-2.81-4.14-6.26-3.13-22.78,6.64-46,10.11-69.79,8.91-2.75-.14-3.34,.75-2.42,3.21,1.75,4.68,3.13,9.5,5.14,14.06,8.18,18.65,2.86,15.17,22.35,14.33ZM328.34,240.8c18,.02,38.2-16.47,41.67-34.2,2.09-10.69,.23-20.22-8.85-27.38-13.34-10.53-29.99-9.43-42.37,2.28-7.63,7.22-13.99,15.13-17.77,24.97-2.71,7.06-3.23,14.05,1.5,20.55,6.36,8.75,14.8,13.71,25.82,13.78Zm-158.64,467.38c4.65-.64,8.84-1.13,13.01-1.79,18.43-2.94,36.39-7.62,53.81-14.38,3.3-1.28,3.94-2.6,1.93-5.76-3.69-5.8-7.13-11.78-10.28-17.89-1.6-3.09-3.29-3.3-6.34-2.35-6.11,1.9-12.33,3.51-18.58,4.89-16.89,3.7-34.04,4.82-51.28,4.72-3.83-.02-4.73,.74-2.7,4.43,4.85,8.78,10.16,17.24,15.92,25.43,1.25,1.77,2.53,3.23,4.51,2.71Zm30.95-230.81c1.62,.61,1.99-1.1,2.46-2.91,1.8-6.8,3.54-13.61,5.58-20.34,.76-2.52,.18-3.61-2.2-4.51-19.9-7.56-39.03-16.82-57.62-27.15-3.23-1.79-4.3-.87-5.5,1.94-4.09,9.64-7.87,19.39-11.17,29.35-1.13,3.4-.45,4.63,2.93,5.52,14.05,3.7,28.05,7.62,42.05,11.49,7.53,2.08,15.04,4.23,23.46,6.61Zm-53.94,51.68c-7.35,0-14.7,.24-22.03-.1-3.79-.17-5.4,.65-5.2,4.74,.32,6.71,.49,13.46,.16,20.16-.24,4.84,1.67,6.45,6.26,6.83,21.41,1.8,42.78,1.49,64.16-.36,2.96-.26,3.53-1.51,3.48-4.17-.17-7.97-.37-15.95-.03-23.91,.18-4.17-.87-5.56-5.15-5.09-13.83,1.51-27.72,2.3-41.64,1.9Zm109.69,182.64c-.25-.41-.54-.95-.9-1.44-4.18-5.65-8.43-11.25-12.54-16.96-1.24-1.73-2.44-1.37-4-.71-21.62,9.07-44.2,14.38-67.47,16.88-3.2,.34-2.85,1.29-1.31,3.34,7.42,9.9,15.42,19.27,24.23,27.96,1.44,1.42,2.68,1.69,4.56,.95,19.25-7.53,37.76-16.52,55.29-27.52,.91-.57,1.94-1.05,2.13-2.51Zm-66.03-357.72c-1.43,.25-2.09,1.42-2.84,2.34-5.41,6.67-10.55,13.58-16.23,20.01-3.08,3.49-1.79,5.4,1.32,7.19,16.79,9.64,33.63,19.19,50.41,28.87,2.31,1.33,3.49,.9,4.81-1.33,3.81-6.46,7.67-12.89,11.84-19.12,2.08-3.11,1.56-4.69-1.58-6.53-15.49-9.1-30.44-19.06-44.95-29.65-.88-.64-1.84-1.17-2.78-1.77Zm99.41-36.08c-.27-1.52-1.56-1.84-2.67-2.3-13.01-5.38-25.74-11.35-38-18.29-1.58-.9-2.75-1.03-4.02,.55-6.2,7.71-13.59,14.25-20.75,21.01-1.3,1.23-1.74,2.04,.1,3.13,13.71,8.13,27.14,16.76,41.57,23.64,2.11,1.01,3.65,.96,5.17-1.2,5.56-7.94,11.29-15.76,16.93-23.65,.63-.88,1.09-1.88,1.68-2.9Zm-68.43,4.4c-.6,.39-1.18,.65-1.61,1.06-6.15,6-12.28,12.03-18.41,18.04-1.88,1.84-.25,2.7,1.04,3.56,14.66,9.85,29.6,19.21,45.42,27.14,2.63,1.32,4.23,.91,5.8-1.55,4.04-6.31,8.13-12.6,12.44-18.73,1.69-2.4,1.07-3.3-1.27-4.47-13.99-6.99-27.31-15.13-40.49-23.53-.9-.58-1.91-1-2.93-1.53Zm-.56,440.46c.68-.28,1.12-.44,1.54-.64,17.2-8.27,33.71-17.67,48.87-29.33,1.81-1.39,1.31-2.32,.07-3.73-3.6-4.1-7.23-8.2-10.53-12.54-1.83-2.41-3.36-2.63-5.8-1.04-16.93,11.03-34.99,19.83-53.84,27.03-2.24,.86-3.18,1.7-.9,3.77,5.78,5.25,11.66,10.38,17.91,15.05,.84,.63,1.87,1,2.69,1.43Zm-37.48-252.26c2.03,0,4.09-.24,6.08,.05,4.2,.6,6.35-.75,6.62-5.26,.19-3.24,1.1-6.45,1.75-9.66,1.15-5.64,1.16-5.53-4.42-5.91-21.94-1.5-43.93-2.64-65.67-6.23-2.26-.37-3.12,.22-3.42,2.43-.71,5.25-1.47,10.51-2.43,15.72-.52,2.82,.74,3.57,3.19,3.84,19.39,2.16,38.82,3.84,58.3,5.02Zm415.33,292.04c-.18,0-.36,0-.54,0,0-4.22-.04-8.45,.02-12.67,.03-2.51-.41-3.91-3.49-2.81-14.19,5.05-28.82,8.39-43.64,10.89-2.76,.47-3.37,1.88-3.46,4.46-.22,6.41-.5,12.83-1.31,19.19-.47,3.68,.77,4.28,3.98,3.98,14.96-1.4,29.85-3.18,44.48-6.75,2.83-.69,4.29-1.82,4.03-5.04-.3-3.73-.07-7.5-.07-11.26Zm-291.55-35.96c-.12-2.68-.82-4.86-3.2-6.46-4.3-2.87-8.07-6.44-11.4-10.36-1.99-2.34-3.37-2.02-5.4-.39-12.8,10.25-25.96,20-40.43,27.81-2.41,1.3-2.02,2.31,.08,3.43,7.15,3.83,14.29,7.67,21.43,11.51,1.6,.86,3.09,1.01,4.84,.06,11.44-6.18,22.12-13.44,32.11-21.75,1.28-1.06,2.27-2.14,1.96-3.85Zm-162.29-238.64c13.28,.39,26.5-.65,39.73-1.61,9.91-.71,9.85-.51,10.02-10.52,.04-2.52-.53-3.66-3.28-3.75-22.15-.75-44.22-2.57-66.19-5.43-2.86-.37-4.02,.6-4.17,3.38-.24,4.36-.42,8.74-.99,13.06-.47,3.55,.89,4.91,4.28,4.88,6.87-.05,13.73-.01,20.6-.01Zm112.62-249.44c-2.34-.5-2.9,1.08-3.56,2.8-1.22,3.2-2.15,6.66-4.05,9.42-2.29,3.34-1.33,4.65,1.81,6.31,12.28,6.54,25.09,11.95,37.62,17.96,2.1,1.01,2.8,.04,3.68-1.33,4.39-6.85,8.24-13.98,11.52-21.44,1.5-3.42,.19-4.39-2.98-4.76-11.04-1.28-21.8-3.99-32.62-6.39-3.81-.85-7.62-1.71-11.42-2.57Zm-15.17,498.78c.83-.29,1.61-.45,2.29-.8,15.19-7.87,28.76-18.14,42.12-28.71,1.61-1.27,1.02-2.19-.18-3.37-3.36-3.26-6.75-6.52-9.88-9.99-1.74-1.93-2.97-1.51-4.71-.16-14.5,11.27-30.37,20.25-47.02,27.91-2.65,1.22-3.13,2.3-.44,4.02,5.12,3.29,10.19,6.67,15.3,9.97,.77,.49,1.68,.76,2.52,1.13Zm-57.92-289.98c4.21,.23,8.42,.41,12.63,.69,4.43,.29,2.9-3.62,3.93-5.65,.96-1.87,.13-3.11-2.05-3.7-21.81-5.97-43.61-12-65.4-18.09-2.33-.65-3.38-.2-3.9,2.28-1.03,4.88-2.16,9.75-3.61,14.53-1.03,3.42,.18,4.31,3.4,4.74,18.26,2.48,36.62,3.89,54.99,5.19Zm415.61,313.22c.13,0,.26,0,.39,0,0,4.68,0,9.37,0,14.05,0,1.67,.22,2.64,2.4,2.02,10.53-2.96,20.76-6.76,30.87-10.9,1.88-.77,1.93-2.01,1.4-3.77-2.29-7.62-4.56-15.24-6.61-22.92-.78-2.93-2.25-3.34-4.79-2.38-6.27,2.38-12.5,4.92-18.89,6.92-3.85,1.21-5.71,2.77-4.88,7.16,.59,3.17,.12,6.53,.12,9.81Zm-73.53,25.74c0-.13,0-.26,0-.39,4.84,0,9.69-.03,14.53,.01,2.22,.02,3.42-.73,3.67-3.16,.69-6.85,1.11-13.7,1.25-20.59,.04-2.21-.58-3.09-2.97-2.81-11.34,1.35-22.71,2.3-34.14,2.27-2.38,0-3.44,.8-3.1,3.34,.71,5.42,1.3,10.86,1.84,16.31,.3,3.03,1.8,4.31,4.87,4.36,4.69,.06,9.37,.42,14.05,.66Zm-169.2-36.2c-2.18,7.8-.51,15.84-1.99,23.62-.41,2.19,1.73,2.22,3.24,2.41,11.77,1.49,23.56,2.71,35.4,3.5,2.61,.17,3.81-.52,3.85-3.19,.05-4.06,.06-8.12,.35-12.17,.23-3.13-.95-4.25-4.07-4.83-10.58-1.95-21.1-4.25-31.62-6.55-1.82-.4-4.28-.13-5.17-2.8Zm307.36-230.3c9.78,12.98,17.37,26.35,19.83,42.23,.4-.13,.78-.14,.94-.33,9.01-10.71,15.31-23.18,22.68-34.96,1.13-1.8,.29-2.51-1.54-2.69-13.97-1.41-27.94-2.83-41.9-4.25Zm-31.39,41.5c5.14,14.99,10.45,28.8,11.89,44.48,11.26-10.58,21.31-20.92,30.87-32.67-14.71-2.92-28.61-5.84-42.77-11.81ZM249.49,376.09c-.15-1.74-1.57-1.97-2.62-2.48-14.97-7.21-28.81-16.3-42.61-25.47-6.26-4.16-6.18-4.06-11.23,1.67-1.76,2-1.41,2.97,.59,4.34,15.32,10.54,30.72,20.96,46.63,30.61,.87,.52,1.89,1.89,2.85,.92,2.76-2.78,4.56-6.28,6.39-9.6Zm408.35,415.63c-2.49-6.75-4.93-13.51-7.5-20.23-.49-1.27-1.82-.97-2.9-.69-5.29,1.38-10.57,2.81-15.88,4.16-1.4,.36-2.25,.73-1.72,2.49,2.4,7.93,4.72,15.88,7.03,23.84,.65,2.24,1.96,2.03,3.58,1.18,5.13-2.68,10.28-5.31,15.39-8.01,1.06-.56,2.41-1.04,1.98-2.74Zm-384.8,2.49c7.01,3.25,13.44,5.42,19.94,7.37,3.93,1.18,15.61-3.95,17.36-7.58,.31-.65,.31-1.53,.22-2.27-.89-6.75-1.83-13.49-2.87-21.16-11.02,9.07-21.95,16.92-34.64,23.64Zm409.01-21.22c-1.24-3.53-2.4-7.08-3.74-10.57-.75-1.95-2.17-1.12-3.5-.57-6.49,2.7-13.12,5.04-19.95,6.67-2.87,.68-2.99,1.93-2.03,4.3,2.17,5.35,4.28,10.73,6.13,16.19,.87,2.57,1.79,2.68,3.91,1.29,6.03-3.95,11.69-8.33,16.9-13.31,1.12-1.07,2.42-2.07,2.29-4.01Zm-339.6-165.81c8.43,.03,14.21-4.69,14.25-11.64,.05-7.4-5.74-14.47-11.92-14.55-7.07-.09-13.25,7.41-13.21,16.04,.03,6.34,4.08,10.12,10.88,10.15Zm179.63,36.21c-5.59,6.99-10.51,12.62-15.68,18.04-8.84,9.24-8.8,9.32,3.38,14.08,5.86,2.29,11.83,4.22,18.77,4.82-4-12.02-6.06-23.64-6.48-36.93Zm-122.67,166.83q-.06,9.33,9.21,10.12c.93,.08,1.86,.2,2.79,.27,14.17,1.13,15.09,.21,15.03-13.99-.01-2.77-.88-3.92-3.67-4.05-4.66-.23-9.31-.7-13.95-1.13q-9.35-.87-9.41,8.78Zm295.86-293.95c9.32,11.54,16.17,23.24,19.16,37.96,5.26-9.38,8.71-18.47,11.75-27.75,.68-2.09-.86-2.4-2.16-2.82-9.04-2.9-18.1-5.75-28.75-7.4Zm-281.63,48.74c-6.61-.06-13.08,6.27-13.1,12.82-.03,6.22,5.06,11.25,11.39,11.26,7.32,.01,13.39-5.71,13.54-12.77,.13-6.28-5.06-11.25-11.82-11.31Zm73.15,234.44c-.98,6.61-1.89,13.23-2.98,19.81-.4,2.4-.17,3.84,2.72,4.03,5.44,.35,10.87,.88,16.3,1.44,2.78,.29,3.57-.84,3.21-3.5-.72-5.4-1.36-10.82-1.81-16.25-.19-2.27-1.23-2.94-3.28-2.86-3.58,.13-7.18,.05-10.75,.28-2.28,.15-3.03-.94-3.41-2.95Zm-198.2-207.63c2.56-.08,6.36-1.75,9.15-5.2,3.75-4.63,2.34-9.8-3.13-12.12-2.64-1.12-5.43-1.48-8.24-1.39-1.96,.06-3.26-.2-3.47-2.58-.25-2.75-2.03-4.17-4.77-4.08-2.64,.08-4.41,1.55-5.09,4.06-.74,2.75,.12,5.08,2.87,6.1,1.71,.64,1.99,1.15,1.49,2.97-2.05,7.49,1.71,12.3,11.21,12.23Zm10.22-444.14c6.14-.07,10.62-4.16,10.53-9.61-.09-5.62-4.81-9.8-11.04-9.77-5.8,.03-10.15,4.34-10.16,10.06,0,5.51,4.43,9.39,10.67,9.32Zm82.07,448.28c6.36,.04,12.43-4.9,12.61-10.27,.15-4.52-4.36-8.51-9.81-8.66-5.62-.16-11.59,5.7-11.59,11.36,0,4.71,3.28,7.54,8.78,7.57Zm72.11-26.49c5.37,.05,10.34-4.36,10.46-9.27,.12-5.21-4.09-9.35-9.53-9.36-5.35-.01-9.56,4.01-9.69,9.25-.13,5.36,3.58,9.34,8.76,9.39Zm30.39-49.83c4.97,0,8.53-3.5,8.64-8.47,.11-5.01-6.17-11.21-11.27-11.13-4.27,.07-6.86,3.14-6.93,8.22-.1,6.87,3.7,11.39,9.56,11.38Zm-171.27,40.87c.14-4.52-2.59-7.54-6.93-7.63-5.47-.12-10.82,5.33-11,11.21-.14,4.48,2.71,7.91,6.66,8.02,5.49,.15,11.08-5.6,11.27-11.59Zm-30.63-134.36c-5.62,5.09-8.79,10.76-11.81,16.55-1.3,2.49-.26,3.28,1.98,3.85,5.7,1.45,11.41,2.77,18.27,3.17-6-6.9-7.69-14.69-8.45-23.58Zm153.48,93.7c.08-3.21-.95-5.55-4.63-5.65-4.95-.13-10.07,5.19-10.09,10.39-.01,4.51,2.27,7.27,6.04,7.29,5.59,.04,8.65-4.2,8.67-12.04Zm41.92,99.6c-5.31,1.25-10,2.37-14.7,3.45-1.45,.33-3.08,.55-1.78,2.6,3.35,5.29,6.78,10.52,10.69,16.58,3.09-7.94,4.71-14.86,5.79-22.62Zm-233.1-61.33c5.22,.06,9.73-3.59,9.83-7.94,.09-3.97-3.55-7.44-7.9-7.53-4.23-.09-8.81,4.3-8.95,8.57-.13,4.19,2.57,6.86,7.02,6.9Zm173-64.26c-4.97-.13-10.76,5.11-10.78,9.85-.02,3.91,2.31,5.58,5.95,5.67,5.55,.13,10.48-4.09,10.69-9.05,.16-3.64-2.32-6.38-5.86-6.47Zm42.06,45.62c5.04-.1,8.18-3.35,8.03-8.32-.13-4.18-3.61-8.42-6.78-8.25-4.34,.22-8.55,5.43-8.36,10.34,.15,4.11,2.67,6.31,7.11,6.23Zm225.55,233.94c3.72-3.95,7.12-7.33,10.24-10.96,2.47-2.88,.13-5.8-.99-8.22-1.18-2.57-3.24-.14-4.64,.57-9.2,4.68-9.18,4.73-6.14,14.51,.32,1.02,.74,2.01,1.53,4.1Zm-184.23-321.2c.01-4.07-2.67-6.81-6.67-6.82-4.27,0-7.29,3.06-7.32,7.43-.02,4.24,3.19,7.54,7.31,7.5,3.76-.03,6.66-3.56,6.68-8.12Zm-198.04,53.43c-3.31,.38-6.32,1.54-8.69,4.02-1.34,1.4-2.27,3-1.53,5.07,.72,1.99,2.3,2.9,4.25,3.22,3.42,.56,6.55-.42,9.26-2.39,2.12-1.54,4.6-3.4,3.44-6.49-1.07-2.85-3.97-3.17-6.73-3.43Zm90.04,28.77c.47,2.59,1.82,4.7,5.05,4.73,4.01,.05,9.59-5.86,9.11-9.72-.42-3.39-2.89-4.69-5.97-4.64-4.06,.06-8.37,5.11-8.19,9.63Zm66.86-25.68c.2-4.45-1.89-7.54-5.16-7.58-3.46-.04-7.31,3.95-7.46,7.76-.15,3.72,2.21,6.62,5.57,6.85,3.91,.27,6.84-2.66,7.04-7.03Zm-155.7-110.12c-3.15,3.49-5.57,5.9-7.66,8.58-1.65,2.12-5.19,4.17-3.99,6.8,1.27,2.77,5.2,3,8.31,3.38,1.23,.15,2.49,.09,3.73,.06,1.72-.05,2.2-.89,1.41-2.42-2.47-4.79-1.97-9.97-1.8-16.4Zm47.85,117.6c-.07-3.91-3.06-7.55-6.24-7.59-3.34-.04-6.33,3.55-6.03,7.56,.26,3.52,1.41,6.52,5.73,6.59,4.44,.07,6.61-2.13,6.53-6.56Zm-58.27,13.64c-.04-3.49-1.95-5.61-4.96-5.51-3.86,.13-7.21,4.1-7.19,8.43,.01,3.22,1.63,5.01,4.77,5.21,3.89,.24,7.43-3.76,7.38-8.13Zm-17.48,17.08c-3.48-.08-7.34,3.67-7.25,7.23,.08,3.36,2.17,5.11,5.32,5.43,3.45,.35,7.74-3.37,7.92-6.63,.16-2.88-2.89-5.96-5.99-6.04Zm9.03-43.03c4.79-.1,8.06-3.37,7.93-7.64-.09-3.09-1.81-4.53-4.74-4.55-3.87-.02-8.46,4.18-8.18,7.58,.25,3.07,1.94,4.84,5,4.61Zm175.89-16.09c.06,2.59,.99,5.1,4.6,5.37,3.52,.26,7.07-3.37,7.14-7.28,.06-3.34-1.61-5.35-5-5.56-3.61-.23-6.63,2.97-6.75,7.47Zm21.18-11.41c.31,2.96,1.28,5.67,5.14,5.77,3.54,.09,6.33-2.94,6.38-6.72,.05-3.67-2.3-6.56-5.3-6.5-2.86,.05-6.14,3.86-6.23,7.46Zm-43.24,13.12c-3.85,.08-7,3.05-7.02,6.62-.02,4.06,2.63,4.85,5.93,4.75,4.03-.13,6.85-2.66,6.8-6.16-.05-3.69-2.18-5.24-5.7-5.21Zm-104.76,83.88c-.17-3.12-2.48-4.93-6.01-5.09-3.8-.17-5.73,2.08-5.95,5.75-.23,3.76,2.21,6.34,5.88,6.42,3.34,.08,6.06-2.77,6.08-7.08Zm446.24-54.8c-.21-2.71-1.36-5.05-4.83-5.35-3.49-.3-7.52,3.29-7.53,6.77,0,3.21,1.93,4.79,4.93,5.03,3.89,.31,7.3-2.58,7.43-6.46Zm-406.81,33.36c.12,2.57,1.47,4.83,4.9,5,2.92,.14,6.83-4,6.83-7.28,0-3.38-2.1-5.11-5.33-5.23-3.1-.11-6.31,3.5-6.4,7.51Zm-27.04-8.88c-.05,2.86,1.47,4.33,4.23,4.49,3.41,.2,7.34-3.92,7.3-7.81-.03-3.07-1.62-5.01-4.88-5.05-3.29-.04-6.56,4.15-6.64,8.37Zm-14.39-5.64c3.95-.14,7.27-4.01,7.1-7.84-.14-3.14-2.13-4.29-5.01-4.24-3.62,.05-6.65,3.38-6.49,7.13,.13,3.11,1.65,4.92,4.4,4.95Zm126.26-65.09c-.03-2.77-2.19-4.79-5.16-4.81-3.29-.02-6.4,3.24-6.33,6.72,.06,3.32,1.88,5.21,5.11,5.47,2.95,.24,6.42-3.92,6.39-7.38Zm-68.91,29.08c-.01-1.64-1.34-3.09-3.99-3.11-3.29-.03-7.28,4.43-7.21,8.02,.05,2.64,1.04,4.61,4.03,4.71,3.39,.11,7.13-4.44,7.17-9.62Zm48.79-34.58c4.2-.15,8.21-3.79,8.04-6.88-.19-3.43-2.76-4.26-5.62-4.25-3.41,.01-6.99,3.58-6.58,6.6,.37,2.77,1.96,4.52,4.16,4.53Zm-70.19,63.24c.02,2.58,1.22,4.14,3.88,4.32,2.94,.19,7.1-4.49,7.21-8.05,.08-2.68-1.29-4.13-3.9-4.26-3.37-.17-7.18,4.15-7.2,8Zm32.56,24.27c-.06,2.02,1.67,3.74,4.78,3.75,3.9,.01,5.96-2.46,6.38-6.07,.38-3.25-1.3-5.42-4.66-5.7-3.07-.26-6.2,3.19-6.5,8.02Zm311.12,172.81c.05,2.19,1.03,4.16,3.92,4.47,3.03,.32,6.86-3.56,6.92-7.02,.06-2.96-1.38-4.76-4.47-4.83-3.17-.07-6.23,3.33-6.37,7.38Zm-230.29-196.61c-.3-3.12-1.94-4.96-5.01-5.21-3.1-.25-6.14,2.66-6.15,5.74-.01,3.79,2.31,5.35,5.7,5.27,3.61-.08,5.06-2.54,5.45-5.8Zm-155.43-156.16c-3.51,3.71-6.45,6.82-9.4,9.93-.92,.96-1.14,1.95,.27,2.53,3.61,1.49,7.25,2.92,11.65,2.83-2.22-4.89-2.6-9.61-2.52-15.29Zm102.56,172.91c.08,2.1,1.16,3.93,4.06,4.1,3.1,.18,6.92-4.17,6.74-7.64-.15-2.96-2.11-4.03-4.69-4.03-3.25,0-6.13,3.44-6.11,7.57Zm264.39,180.87c3.43-.31,5.86-1.92,5.97-5.44,.11-3.59-2.45-4.91-5.63-4.73-3.2,.18-6.01,1.44-5.96,5.21,.05,3.45,2.5,4.75,5.62,4.96Zm37.36-28.91c.34,3.4,2.19,5.33,5.46,5.08,3.31-.25,5.47-2.38,5.44-5.79-.03-3.33-2.22-5.14-5.46-4.94-3.37,.2-5.23,2.29-5.44,5.66Zm-414.25-209.8c-3.34,.11-6.26,3.22-6.02,6.22,.24,3.1,2.17,4.25,5.08,4.17,3.51-.1,6.26-2.66,6.02-5.75-.25-3.26-2.42-4.44-5.09-4.64Zm473.74,32.26c.32,3.24,1.7,5.33,4.99,5.17,3.72-.18,5.1-2.67,4.91-6.04-.16-2.95-1.56-5.25-4.84-5.08-3.7,.19-4.72,2.99-5.06,5.96Zm-465.84,28.53c.09,2.77,1.32,4.57,4.05,4.91,2.84,.36,6.22-3.05,6.31-6.26,.09-3.08-1.68-4.73-4.55-4.67-3.77,.07-5.24,2.75-5.81,6.02Zm372.86,186.84c-3.22,.5-5.56,2.08-5.77,5.61-.19,3.12,1.77,4.77,4.63,4.56,3.18-.24,5.82-2.03,6.02-5.47,.17-2.93-2.02-4.33-4.88-4.7Zm-425.63-220.46c4.37-.02,6.87-2.74,6.77-6.1-.09-2.98-1.85-4.1-4.53-4.19-3.19-.11-5.95,2.78-5.71,6.05,.2,2.75,1.75,4.22,3.47,4.24Zm447.64,186.26c-.36-2.52-1.46-4.44-4.38-4.45-3,0-6.04,3.26-5.82,6.18,.23,3,1.95,4.65,4.91,4.43,3.61-.26,4.96-2.79,5.29-6.15Zm-378.85-138.47c.14,2.22,1.27,4.12,4.12,4.23,2.59,.11,5.85-3.97,5.84-6.95-.01-2.82-1.82-3.84-4.2-3.99-2.75-.18-5.73,3.2-5.76,6.72Zm58.55-80.52c-3.2,0-6.23,3.06-6.2,6.3,.03,2.58,1.45,4.11,3.93,4.35,2.76,.27,6.19-3.87,6.14-7.11-.05-2.56-1.44-3.6-3.86-3.54Zm387.42-10.31c3.18,0,5.28-1.64,5.41-4.97,.14-3.42-2.33-4.51-5.27-4.56-3.06-.06-5.28,1.4-5.35,4.6-.06,3.12,1.87,4.8,5.2,4.93Zm-35.18,183.79c-.03-1.95-1.82-3.84-4.52-3.9-3.2-.07-5.19,2.17-5.24,5.39-.05,2.83,1.63,4.88,4.54,4.94,3.36,.07,5.02-2.06,5.22-6.44Zm44.47-109.42c-.47-2.74-1.45-5.4-4.84-5.1-2.97,.26-4.76,2.23-4.59,5.46,.17,3.25,2.18,4.91,5.18,4.87,3.11-.04,4.12-2.36,4.25-5.24Zm-436.6,18.7c-.11,2.63,1.19,4.11,3.77,4.33,2.7,.23,6.13-3.11,6.12-5.94,0-2.53-1.3-4.07-3.91-4.28-2.87-.23-5.85,2.72-5.97,5.89Zm426.16-125.43c-.29-2.98-1.91-4.79-4.75-4.81-3.02-.02-5.1,1.87-5.06,4.9,.04,2.9,1.71,5.06,4.96,4.95,3.15-.11,4.63-2.08,4.84-5.05Zm-20.86,1.46c-2.83,.32-5.13,1.43-5.29,4.67-.16,3.24,1.88,4.92,4.88,4.92,2.94,0,5.09-1.56,5.06-4.8-.03-2.86-1.66-4.52-4.65-4.79Zm-453.65,98.34c-.04-2.38,.05-5.2-3.32-4.9-3.42,.3-4.98,2.97-5.22,6.19-.2,2.74,1.18,4.56,4.08,4.48,3.66-.11,4.58-2.59,4.46-5.76Zm439.47,143.18c3-.31,4.92-2.04,4.91-5.4,0-2.83-1.85-4.35-4.49-4.38-3.29-.04-5.27,1.89-5.47,5.17-.19,3.17,1.91,4.34,5.04,4.61Zm.25-306.75c-.13-2.91-1.34-5.62-4.34-5.7-2.8-.08-4.8,2.21-5.01,5.2-.22,3.16,1.54,5.11,4.66,5.25,3.02,.13,4.44-1.82,4.68-4.75Zm-490.21,159.71c.11,2.51,1.21,4.13,3.93,4.14,2.76,0,5.76-3.36,5.65-6.29-.1-2.57-1.42-4.02-4.03-4.1-2.88-.08-5.64,3.07-5.55,6.25Zm451.11,205.63c-3.17,1.98-6.28,4.07-9.52,5.92-5.97,3.41-6.01,3.35-2.8,9.9,4.66-4.9,8.8-10.08,12.32-15.83Zm-247.18-301.17c.08-2.11-.82-4.22-3.85-4.11-3.42,.13-4.94,2.58-5.09,5.64-.14,2.94,1.73,4.87,4.63,4.67,3.14-.22,4.41-2.56,4.31-6.19Zm-143.04,34.26c.38,2.45,1.17,4.5,3.89,4.61,2.24,.09,5.55-4.32,5.3-6.95-.22-2.29-1.45-3.99-3.91-3.72-3.53,.39-4.81,3-5.29,6.06Zm454.57,66.44c.01-2.93-1.25-4.46-3.42-4.52-2.75-.07-5.86,3.24-5.84,6.22,.02,2.55,1.52,3.67,3.85,3.67,3.76,0,4.95-2.57,5.41-5.37Zm-385.95,23.96c-.54-2.47-1.74-4.27-4.57-4.3-3.15-.02-5.07,1.76-5.18,4.74-.09,2.59,1.55,4.37,4.35,4.41,3.15,.04,4.64-1.95,5.4-4.85Zm379.24,20.14c3.04-.26,4.93-1.88,5.01-5.03,.07-2.6-1.55-4.18-4.07-4.19-3.04-.01-5.04,1.76-5.33,4.82-.28,2.96,1.65,4.14,4.4,4.41Zm-1.67-188.93c-.23-2.74-1.69-4.72-4.95-4.7-2.6,.01-4.13,1.54-4.11,4.13,.01,3.22,2.06,4.89,5.05,5.04,2.61,.13,4-1.46,4.02-4.47Zm-440.26-63.53c0-3.36-1.06-5.47-3.92-5.44-2.91,.03-4.4,2.03-4.47,4.91-.06,2.68,1.13,4.7,3.97,4.72,2.98,.01,4.35-1.98,4.42-4.18Zm452.71,289.31c-.21-2.68-1.16-4.71-4.1-4.72-3.03,0-4.45,1.81-4.45,4.73,0,2.87,1.34,4.93,4.32,4.93,3.08,0,4.07-2.31,4.23-4.94Zm-19.06-199.89c-.18-2.68-1.35-4.65-4.16-4.64-2.67,.01-4.96,1.16-4.93,4.34,.02,2.94,1.68,4.57,4.66,4.62,2.88,.04,4.09-1.73,4.43-4.31Zm8.33,234.8c-.7-2.08-1.32-4.52-4.36-4.27-3.13,.26-4.59,2.39-4.54,5.37,.05,2.59,1.69,3.89,4.22,3.87,3.07-.03,4.2-2.08,4.68-4.97Zm11.95-162.33c-.37-2.59-1.76-4.27-4.35-3.85-2.7,.44-5.3,1.77-5.2,5.02,.09,2.86,2.36,3.91,4.95,3.71,2.91-.22,4.36-2.09,4.59-4.88Zm-10.93-27.4c-2.56,.58-4.65,1.84-4.66,4.85,0,2.6,1.56,4.05,4.18,3.96,2.95-.1,4.65-1.89,4.82-4.71,.16-2.71-1.87-3.68-4.33-4.1Zm-523.72,52.02c.02,1.59-.04,3.3,2.08,3.56,1.68,.21,6.24-5.26,6.24-7.4,0-1.66-.28-3.21-2.49-3.17-2.73,.04-5.71,3.63-5.84,7.02Zm229.09-61.59c.02-2.55-.66-4.71-3.5-4.58-2.85,.13-4.58,2.06-4.59,4.91,0,2.47,1.47,4.19,4.04,4.23,3.01,.05,3.81-2.15,4.05-4.56Zm13.74-32.59c2.63-.71,4.52-2.23,4.55-5.12,.03-2.29-1.16-4-3.71-3.78-2.68,.24-4.2,1.9-4.28,4.63-.07,2.32,.97,3.85,3.43,4.27Zm-56.38,53.55c-.33-2.37-1.9-3.31-3.93-3.04-2.95,.39-4.71,2.28-4.78,5.31-.04,2.03,1.34,3.19,3.28,3.07,3.25-.22,4.77-2.42,5.42-5.33Zm342.16,84.79c.04-2.58-1.01-4.26-3.47-4.29-3.08-.04-5.09,1.75-5.35,4.78-.21,2.43,1.58,3.77,3.85,3.79,2.84,.03,4.7-1.44,4.97-4.28Zm-48.83,121.85c2.4-.46,4.44-1.44,4.63-4.32,.17-2.67-1.21-4.28-3.86-4.19-2.85,.1-4.77,1.79-4.85,4.7-.07,2.43,1.73,3.48,4.08,3.8Zm68.19-185.51c2.36-.15,3.96-1.55,3.92-4.39-.04-2.62-1.56-4.1-4.12-4.01-2.72,.09-4.21,1.69-4.25,4.51-.04,2.77,1.42,3.93,4.46,3.88Zm-45.02-95.13c2.55-.07,4.19-1.27,4.13-3.95-.07-2.78-1.65-4.31-4.5-4.19-2.53,.1-4.08,1.4-4.2,4.04-.15,3.17,2.02,3.84,4.58,4.1Zm-446.98,397.36c2.79,1.32,5.68,1.7,8.59,2.02,.98,.11,2.09,.04,2.03-1.22-.12-2.27,.78-5.14-1.11-6.6-1.53-1.18-3.38,.84-4.78,1.93-1.53,1.19-3.66,1.68-4.73,3.87Zm100.82-209.04c-.17-2.55-1.38-3.98-3.82-3.83-2.83,.18-4.66,1.93-4.94,4.66-.26,2.52,1.59,3.55,3.88,3.51,2.86-.06,4.58-1.55,4.89-4.34Zm-49.7-146.22c-.19-1.83-.11-4.06-2.59-3.56-3.33,.67-4.54,3.43-4.86,6.53-.18,1.7,.5,3.44,2.42,3.16,3.39-.5,4.69-3.09,5.02-6.12Zm307.49,312.14c-.62-2.51-2.24-3.8-4.71-3.58-2.42,.21-4.17,1.65-4.01,4.21,.14,2.26,1.75,3.75,4.06,3.6,2.49-.16,4.37-1.45,4.66-4.23Zm-294.85-249.04c-.09-2.37-1.3-3.95-3.65-3.91-2.63,.05-4.26,1.66-4.42,4.38-.15,2.61,1.14,4.18,3.8,4.11,2.84-.08,3.9-2.07,4.27-4.59Zm411.4-91c-.54-1.86-1.36-3.74-3.92-3.65-2.69,.1-3.99,1.95-3.89,4.35,.09,2.17,1.43,3.99,3.85,3.93,2.6-.07,3.76-1.9,3.96-4.63Zm-429.86-111.84c-.07-2.74-1.46-4.09-3.8-4.03-2.43,.06-4.18,1.38-4.29,4-.09,2.32,1.04,3.95,3.54,3.98,2.75,.03,4.32-1.41,4.54-3.94Zm125.99,243.38c2.55-.71,4.02-2.44,4.17-4.96,.13-2.14-1.15-3.53-3.4-3.53-2.67,0-3.98,1.87-4.1,4.16-.11,2.06,.88,3.9,3.33,4.34Zm207.2,190.23c-.22-2.54-1.71-3.72-4.04-3.65-2.3,.07-4,1.31-3.85,3.76,.16,2.47,1.69,4,4.34,3.89,2.53-.11,3.46-1.75,3.55-4Zm97.39-134.68c2.31-.14,4.03-1.15,4.1-3.87,.06-2.42-1.17-3.79-3.63-3.85-2.59-.06-4.18,1.27-4.27,3.84-.08,2.32,1.15,3.79,3.8,3.88ZM341.05,342.69c-.08-2.32-1.03-4.02-3.58-3.84-2.2,.16-3.86,1.38-3.81,3.84,.05,2.49,1.33,4.25,3.96,4.16,2.45-.08,3.35-1.88,3.43-4.16Zm374.75-.85c-.23-2.79-1.67-4.29-4.25-4.22-2.58,.07-3.34,2.02-3.37,4.23-.03,2.36,1.09,3.98,3.59,3.97,2.64,0,3.92-1.59,4.02-3.99Zm10.35,13.48c-2.35,.13-3.75,1.28-3.82,3.77-.07,2.31,.88,4.19,3.25,4.42,2.66,.26,3.99-1.68,4.19-4.07,.19-2.36-1.17-3.78-3.62-4.12Zm-407.76,237.48c2.43-.29,3.55-1.77,3.61-4.07,.06-2.62-1.65-3.5-3.94-3.48-2.48,.03-3.72,1.56-3.68,3.87,.04,2.45,1.81,3.38,4.01,3.68Zm442.35,46.74c-.19-2.58-1.74-3.77-4.01-3.7-2.28,.07-3.93,1.55-3.92,3.83,.01,2.29,1.61,3.76,3.98,3.63,2.24-.13,3.66-1.5,3.95-3.76Zm7.39-40.28c-.1-2.41-1.62-3.39-3.65-3.36-2.74,.04-4.25,1.81-4.39,4.4-.11,2.04,1.38,3.02,3.32,3.03,2.73,.02,4.21-1.53,4.72-4.07Zm-267.86-163.5c2.38-.36,3.96-1.67,4.18-4.13,.17-1.93-.89-3.45-2.84-3.54-2.72-.11-4.26,1.65-4.48,4.25-.17,2.01,1.25,2.98,3.13,3.41Zm293,134.1c-.36-2.24-1.65-3.71-3.93-3.77-2.06-.05-3.68,1.11-3.7,3.3-.02,2.33,1.5,3.66,3.83,3.75,2.17,.08,3.39-1.15,3.81-3.28Zm-471.85-206.17c2.2-.33,3.37-1.74,3.5-4.07,.12-2.17-.76-3.91-3.02-3.86-2.27,.05-3.66,1.76-3.82,4.01-.15,2.1,.91,3.54,3.34,3.91Zm-52.13,109.4c-1.66-3.82-3.28-7.56-5-11.51-3.38,9.4-2.51,11.4,5,11.51Zm92.48-155.37c0-2.27-.94-3.72-3.29-3.68-2.43,.04-3.73,1.63-3.94,3.86-.21,2.23,1.08,3.55,3.34,3.6,2.52,.05,3.54-1.58,3.89-3.77Zm359.41,68.38c2.33-.22,3.51-1.57,3.42-3.71-.09-2.25-1.36-4-3.74-3.99-1.89,.01-3.12,1.36-3.07,3.41,.05,2.28,1.09,3.82,3.39,4.28Zm53.43,255.57c-.19-1.78-1.03-3.29-3.07-3.33-2.28-.04-3.96,1.16-4.06,3.59-.09,2.07,1.39,3.13,3.28,3.2,2.15,.08,3.44-1.18,3.85-3.46Zm-17.85-25.88c-2.21,.47-3.85,1.79-4.03,3.97-.18,2.1,1.54,2.98,3.44,2.87,2.24-.13,4-1.3,4-3.7,0-1.95-1.45-2.97-3.41-3.14Zm28.21-26.77c2.15-.19,3.66-1.16,3.67-3.44,0-2.27-1.52-3.47-3.61-3.46-2.02,.02-3.7,1.05-3.66,3.39,.03,2.24,1.5,3.27,3.6,3.51ZM376.8,292.92c2.1-.5,3.5-1.7,3.44-3.85-.06-1.99-1.37-3.18-3.4-3.01-2.29,.18-3.87,1.4-3.63,3.92,.19,2.07,1.83,2.69,3.59,2.95Zm-8.58,309.31c.1-2.08-1.01-2.85-2.91-2.66-2.12,.22-3.59,1.22-3.47,3.57,.09,1.87,1.31,2.81,3.11,2.79,2.39-.02,3.18-1.6,3.27-3.7Zm13.15-446.96c1.88-.06,3.14-1.15,3.31-3.05,.17-1.94-.9-3.24-2.97-3.33-2-.09-3.35,1.02-3.48,2.94-.13,1.89,1.01,3.15,3.14,3.45Zm349.44,561.39c2.05-.09,3.18-1.29,3.33-3.21,.14-1.81-.84-3.05-2.75-3.02-2.01,.02-3.16,1.23-3.31,3.22-.14,1.88,.79,2.93,2.73,3.02ZM332.25,457.82c-.22-1.8-1.18-2.82-3.03-2.85-1.98-.03-3.43,.91-3.6,2.86-.18,2.03,1.19,3.22,3.17,3.14,1.85-.08,3.15-1.17,3.46-3.15Zm108.94,116.73c-.14-1.69-1.1-2.8-2.63-2.7-1.99,.13-3.51,1.29-3.59,3.5-.06,1.81,1.06,3.05,2.82,2.94,2.14-.14,3.01-1.85,3.4-3.73Zm-140.61-90.16c1.81-.35,2.87-1.64,3.18-3.44,.33-1.88-.77-3.08-2.56-3.15-1.96-.08-3.22,1.11-3.28,3.14-.05,1.7,.68,3,2.66,3.45Zm181.49-47.16c-.13-1.74-.78-3.07-2.78-2.96-2.08,.12-2.92,1.56-3.09,3.43-.17,1.81,.69,3.17,2.53,3.21,2.3,.06,3.12-1.64,3.34-3.68Zm227.35-71.25c-.26-1.74-.99-3.02-2.94-2.97-2.09,.05-3.12,1.29-3.02,3.29,.08,1.75,1.07,2.93,2.92,2.97,2.2,.05,2.85-1.47,3.04-3.29Zm-28.3-44.42c1.5-.27,2.43-1.3,2.41-3.1-.02-2.13-1.39-3.12-3.26-3-1.81,.12-2.58,1.62-2.47,3.3,.11,1.76,1.2,2.74,3.32,2.8Zm-326.34,478.85l-.74-.32c-1.13,3.98-2.32,7.95-3.34,11.96-.26,1.03-.92,2.78,.93,2.99,1.85,.21,1.46-1.61,1.61-2.72,.55-3.96,1.03-7.94,1.54-11.91Zm31.32-533c1.88-.24,3.09-1.35,3.15-3.27,.05-1.83-1.14-2.8-2.96-2.72-1.76,.08-2.88,1.03-2.96,2.87-.08,1.83,.93,2.82,2.77,3.12Zm-124.41,299.14c-.33-1.34-.93-2.71-2.9-2.63-1.79,.07-2.93,1.02-2.95,2.86-.01,1.67,1.09,2.45,2.66,2.6,1.86,.18,2.9-.71,3.19-2.84Zm78.27-105.17c-2.23,.08-3.02,1.68-3.28,3.67-.18,1.37,.32,2.71,1.83,2.7,2.42-.01,3.5-1.84,3.81-3.95,.21-1.43-.75-2.26-2.35-2.42ZM246.99,135.47c.07-1.81-.64-3.18-2.56-3.13-1.72,.05-2.85,1.26-3,3.01-.15,1.83,.77,3,2.69,3.05,1.92,.04,2.77-1.11,2.87-2.93Zm-139.46,53.11c1.65-1.95,2.94-3.24,3.95-4.72,.75-1.11,.56-2.41-.4-3.44-.59-.63-1.4-.69-2.16-.42-1.25,.45-1.4,1.52-1.39,2.67,.02,1.68,0,3.35,0,5.91Zm190.91,501.65c-3.08,8.35-2.56,16.94-1.93,25.55-.3-8.58,.22-17.1,1.93-25.55Zm63.89-204.62c.02-1.5-.5-2.61-2.1-2.48-2.07,.17-2.86,1.73-3.04,3.56-.14,1.39,.51,2.69,2.02,2.53,1.96-.21,2.62-1.95,3.11-3.61Zm72.35-40.84c1.92-.23,3.03-1.29,3.05-3.3,.02-1.45-.77-2.35-2.22-2.36-1.94-.02-3.24,.97-3.35,2.98-.09,1.62,.85,2.53,2.53,2.68Zm-19.74-267.01c-.24-1.56-1.04-2.57-2.76-2.48-1.65,.09-2.59,.98-2.56,2.67,.04,1.86,.99,2.95,2.92,2.73,1.64-.18,2.38-1.28,2.39-2.92Zm-54.02-41.84c-1.54,.18-2.61,1.07-2.67,2.61-.07,1.63,1.05,2.55,2.66,2.47,1.64-.08,2.46-1.19,2.44-2.77-.02-1.48-1.01-2.12-2.43-2.3Zm.91,145.61c-.14-1.73-1.15-2.47-2.81-2.3-1.61,.16-2.66,1.08-2.51,2.73,.14,1.57,1.25,2.61,2.85,2.44,1.52-.16,2.5-1.17,2.47-2.86Zm42.73-117.5c-.22-1.23-.9-2.2-2.41-2.2-1.69,0-2.6,1.04-2.68,2.64-.08,1.7,.94,2.69,2.59,2.6,1.66-.09,2.37-1.3,2.49-3.05Zm-66.62-30.82c-.14-1.56-.95-2.66-2.54-2.68-1.56-.03-2.54,.93-2.62,2.57-.08,1.69,.86,2.56,2.47,2.62,1.64,.06,2.49-.9,2.69-2.5Zm361.89,196.1c-.13-1.48-.92-2.28-2.42-2.05-1.6,.24-2.41,1.29-2.32,2.9,.08,1.52,1.14,2.2,2.49,2.1,1.72-.12,2.16-1.47,2.26-2.96Zm-305.35-83.16c-.04-1.35-.71-2.29-2.18-2.34-1.39-.05-2.48,.75-2.64,2.08-.19,1.61,.83,2.65,2.47,2.66,1.39,0,2.25-.85,2.36-2.4Zm8.94-11.68c-.41-1.26-1.19-2.16-2.67-1.91-1.35,.23-2.33,1.03-2.02,2.55,.24,1.16,1.09,1.85,2.35,1.77,1.44-.09,2.23-.88,2.33-2.41Zm17.14-35.3c-.05-1.5-.76-2.33-2.28-2.37-1.46-.03-2.45,.72-2.58,2.12-.14,1.49,.87,2.25,2.29,2.34,1.46,.09,2.3-.7,2.57-2.09Zm-151.87-69.74c-.23-1.38-1.03-2.18-2.51-2.04-1.4,.13-2.35,.91-2.26,2.38,.09,1.47,1.1,2.15,2.53,2.08,1.46-.07,2.21-.9,2.24-2.42Zm436.57,262.53c-.21-1.42-.9-2.57-2.6-2.42-1.2,.11-1.89,1.04-1.77,2.25,.14,1.56,1.11,2.58,2.67,2.55,1.28-.02,1.68-1.1,1.7-2.39Zm-201.47,96.4c1.27-.12,2.21-.86,2.11-2.06-.11-1.36-.59-2.94-2.41-2.89-1.28,.04-1.75,1.17-1.83,2.34-.1,1.5,.76,2.28,2.13,2.6Zm-136.88,275.72c-.38-.13-.76-.25-1.13-.38-1.34,4.26-2.68,8.52-4.01,12.79,.27,.09,.54,.18,.8,.26,1.45-4.22,2.9-8.45,4.34-12.67Zm303.91-5.25c1.39-.23,2.26-1.08,2.09-2.53-.17-1.47-1.29-2.08-2.71-1.93-1.24,.13-2.11,.88-1.94,2.16,.18,1.32,.97,2.28,2.56,2.29ZM372.43,261.42c1,0,2.08-.46,2.24-1.99,.16-1.54-.75-2.28-2.17-2.35-1.38-.07-2.52,.54-2.65,1.98-.12,1.39,.69,2.3,2.58,2.36Zm-117.96,229.91c1.37-.13,1.89-.98,1.85-2.18-.05-1.4-.84-2.34-2.24-2.39-1.48-.05-2.25,.85-2.02,2.35,.21,1.34,1.02,2.16,2.4,2.22Zm64.57,63.1c-.49-.74-.98-1.79-2.34-1.55-1.29,.23-1.82,1.18-1.59,2.41,.19,1.01,.98,1.66,2,1.58,1.24-.09,1.91-.9,1.92-2.44ZM185.59,226.41c-.04,4.28,2.13,7.43,4.84,10.3-1.61-3.43-3.23-6.87-4.84-10.3Zm248.91,70.51c-1.4,2.99-1.18,5.58,1.86,8.37-.76-3.45-1.31-5.91-1.86-8.37Zm237.03,21.5c-.1-1.17-.56-2.13-1.88-2.12-1.41,.01-2.26,.95-2.4,2.27-.14,1.25,.64,2,1.9,2.04,1.45,.05,2.22-.77,2.39-2.19Zm-281.14-88.88c.02-1.3-.54-2.24-1.83-2.31-1.18-.07-2.16,.52-2.29,1.84-.14,1.31,.59,2.06,1.86,2.22,1.31,.16,2.06-.48,2.26-1.75Z"/>
  <path d="M251.47,181.65c-.4,10.75-5.22,18.56-13.99,23.86-6.99,4.22-13.2,1.98-16.28-5.53-4.76-11.64,3.48-29.44,15.45-33.38,5.13-1.69,10.5,.88,13.06,6.29,1.37,2.89,1.65,6,1.75,8.76Z"/>
  <path d="M343.91,201.38c-1.24,12.06-6.39,21.63-17.57,27-8.83,4.24-15.43,.53-17.07-9.13-.7-4.13,.14-8.1,1.56-11.96,2.25-6.14,5.95-11.32,10.63-15.82,4.14-3.98,8.94-6.98,14.74-4.57,6.21,2.58,7.01,8.65,7.72,14.48Z"/>
</svg>