<?xml version="1.0" encoding="UTF-8"?>
<svg id="Layer_1" data-name="Layer 1" xmlns="http://www.w3.org/2000/svg" viewBox="0 0 864 864">
  <path d="M717.7,689.71c5.16-4.87,9.47-9.17,14.06-13.16,1.93-1.67,4.43-4.27,7.11-1.8,2.41,2.22,.72,5.17-.49,7.54-1.71,3.37-4.49,5.95-7.04,8.7-5.54,5.97-11.03,11.98-15.85,18.81,3.59-2.62,7.16-5.25,10.76-7.85,5.24-3.79,10.41-7.79,16.66-9.75,3.77-1.18,8.09-2.95,11.02,1.61,2.49,3.87,1.46,8.6-3.24,12.09-7.91,5.87-16.22,11.2-24.3,16.86-2.02,1.42-4.37,2.56-6.06,5.65,4.35-1.29,8.05-2.37,11.73-3.5,4.4-1.35,8.82-2.62,13.43-2.92,4.81-.31,6.24,1.7,4.28,6.17-2.1,4.8-6.15,7.65-10.81,9.58-13.46,5.59-27.36,9.34-42.04,9.39-3.46,.01-5.56,1.17-7.39,4.14-12.53,20.34-29.72,34.94-53.07,41.19-5.98,1.6-8.97,5.05-11.55,10.09-2.85,5.56-3.12,5.3,2.79,7.19,13.61,4.36,22.2,14.09,27.58,26.82,2.52,5.98,.56,9.28-5.62,11.22-7.67,2.4-15.27,1.9-22.28-1.87-4-2.15-6.78-1.65-9.94,1.27-3.65,3.39-8.01,5.79-12.88,7.01-5.37,1.34-7.53-.07-8.74-5.45-.78-3.48-1.45-6.99-2.31-10.45-.23-.91-.71-2.13-1.99-1.93-1.18,.18-1.43,1.36-1.52,2.35-.41,4.23-.68,8.47-1.11,12.7-.3,2.92-1.3,5.62-3.03,8.03-3.85,5.33-9.54,6.03-14.56,1.81-2.67-2.25-4.47-5.12-5.84-8.26-1.09-2.49-1.92-5.09-2.92-7.62-.86-2.17-1.18-5.39-3.67-5.64-2.25-.23-2.97,2.94-4.05,4.75-7.34,12.35-18.47,17.04-32.33,16.1-7.95-.54-9.84-3.33-7.99-11.02,1.14-4.73,3.51-9.13,4.04-14.07-2.25-.72-2.9,1.1-3.91,1.99-4.07,3.61-7.98,7.4-12.07,10.99-1.39,1.22-3.01,2.28-4.7,3.02-3.62,1.59-7.51,3.06-11.15,.4-3.89-2.84-3.69-7.26-2.72-11.23,2.65-10.88,8-20.13,17.32-26.84,5.53-3.98,11.85-6.6,17.67-10.34-2.01-4.11-4.65-2.91-7.53-1.48-16.52,8.17-33.37,15.34-51.95,17.4-12.55,1.39-25.12,1.76-37.71,1.24-22.22-.92-44.46-1.91-66.05-8.03-4.9-1.39-9.66-3.25-14.52-4.79-1.39-.44-3.27-1.5-4.22,.08-1.16,1.92,1.22,2.43,2.25,3.29,6.95,5.79,13.3,12.18,19.04,19.16,8.54,10.39,6.34,17.37-6.57,21.25-5.67,1.71-11.04,1.21-16.27-1.62-4.82-2.61-9.12-5.92-13.26-9.47-.9-.77-1.98-1.6-3.2-.76-1.16,.79-.93,2.08-.68,3.26,.07,.33,.18,.65,.27,.98q2.11,7.8-5.55,10.16-16.42,5.07-27.55-8.07c-1.57-1.85-2.46-5.42-5.33-4.83-2.73,.56-2.45,4.16-3.26,6.45-1.46,4.16-2.49,8.47-3.69,12.72-.65,2.32-2.12,3.24-4.54,3.12-8.84-.42-17.68-.79-26.52-1.07-3.42-.11-4.43-1.94-4.09-4.99,.43-3.86,.88-7.72,1.49-13-5.12,5.76-10.45,9.12-16.68,11.13-11.39,3.68-21.77,1.43-31.67-4.76-2.35-1.47-2.45-3.04-1.79-5.56,4.99-19.04,17.9-28.95,36.66-32.36,5.82-1.06,5.77-1.15,3.25-6.71-10.98-24.21-17.39-49.31-15.25-76.18,2.24-28.17,18.91-49.2,44.19-55.49,3.67-.91,7.39-1.14,11.14-1.12,2.04,.01,3.53-.28,3.92-2.85,2.16-14.26,7.58-27.5,13.13-40.66,1.74-4.13,1.31-7.3-1.31-10.8-4.5-6.02-9.13-11.88-15.22-16.39-12.61-9.33-26.75-7.64-36.55,4.64-3.38,4.23-6.13,8.96-9.41,13.82-1.43-2.12-.73-4.33-.7-6.31,.14-8.96-.95-17.63-5.06-25.76-6.37-12.6-15.98-16.34-29.22-11.2-12.75,4.95-21,14.68-27.59,26.13-1.92,3.33-3.63,6.77-5.65,10.56-1.61-1.95-1.01-3.68-1-5.25,.04-9.01,.8-18.05-.84-26.99-.99-5.43-2.22-11.01-8.38-12.95-6.04-1.9-10.98,.98-15.33,4.8-6.29,5.53-9.94,12.83-13.26,20.35-.68,1.54-.77,4.35-3.21,3.87-1.8-.36-1.46-2.8-1.72-4.44-10.92-70.5,5.59-133.64,50.8-189.05,2.69-3.3,5.48-6.53,8.96-9.04,4.24-3.07,7.41-2.63,10.44,1.67,1.55,2.2,2.75,4.69,3.85,7.16,16.26,36.63,37.98,69.5,67.22,97.11,20.38,19.24,43.71,32.79,72.03,36.55,3.65,.48,5.41-.46,7.09-3.73,11.62-22.7,25.14-44.41,35.53-67.75,4.71-10.58,9.04-21.31,11.16-32.76,2.6-14.09-8.38-27.91-22.79-28.87-31.6-2.11-62.54-7.02-91.31-21.28-23.98-11.89-45.3-27.17-60.45-49.64-23.42-34.76-23.2-71.84-9.13-109.74,4.44-11.97,10.43-23.34,19.91-32.33,2.36-2.24,.83-3.51-.61-4.96-15.71-15.75-23.77-35.38-28.47-56.64-3.29-14.89-2.48-29.68,1.3-44.46,5.63-21.98,19.58-33.9,42.08-35.99,5.24-.49,10.44-1.46,15.74-.29,6.81,1.51,8.89,4.43,7.48,11.28-.51,2.49-1.25,4.96-2.22,7.31-2.51,6.08-1.73,11.99,.54,17.88,4.9,12.69,13.91,22.45,22.94,32.2,1.54,1.66,2.53,.97,3.81-.11,2.72-2.32,5.37-4.74,8.25-6.82,2.46-1.77,1.92-4.08,1.83-6.43-.75-20.29-.16-40.48,4.81-60.32,1.04-4.15,2.43-8.17,4.71-11.8,3.5-5.55,7.04-5.85,11.3-.94,3.59,4.14,6.06,9.01,8.56,13.85,4.22,8.15,8.43,16.3,12.82,24.36,.82,1.5,1.56,4.07,3.73,3.59,1.68-.37,1.48-2.81,1.82-4.42,3.94-18.97,7.09-38.11,12.11-56.86,.26-.98,.52-1.97,.84-2.94,1.09-3.36,1.59-7.5,5.8-8.24,4.01-.7,6.54,2.5,8.8,5.22,6.94,8.36,11.25,18.19,15.06,28.22,3.02,7.94,5.63,16.04,8.49,24.04,.96,2.69,1.72,5.5,3.91,8.11,1.77-2.66,1.6-5.56,1.96-8.21,2.47-18.17,8.97-34.85,18.55-50.36,2.56-4.14,5.34-9.12,11.09-8.55,5.75,.58,7.39,6.12,9.15,10.6,6.02,15.29,7.8,31.64,11.35,47.55,1,4.48,2.06,8.95,3.21,13.39,.58,2.24,1.32,4.46,3.16,6.59,2.16-2.84,2.1-5.82,2.7-8.53,3.01-13.69,7.01-27.01,14.36-39.07,2.44-4,4.68-9.2,10.25-8.81,5.69,.39,6.92,6.07,8.61,10.34,5.61,14.16,7.59,29.24,10.7,44.04,2.41,11.48,4.81,22.95,7.31,34.41,.31,1.41,.42,3.51,2.16,3.69,1.81,.19,2.03-2.01,2.72-3.25,5.42-9.81,11.1-19.48,15.05-30.07,3.94-10.56,3.43-20.62-1.64-30.59-1.31-2.57-2.54-5.2-3.67-7.86-3.21-7.51-1.05-11.15,7.2-11.05,14.53,.18,27.77,4.83,39.53,13.27,29.35,21.05,38.15,56.32,22.93,90.97-6.41,14.6-15.55,27.16-28.18,36.94-3.84,2.98-3.17,4.2,.38,6.75,24.57,17.67,42.7,40.31,51.96,69.41,7.77,24.42,3.19,47.12-11.05,67.97-14.54,21.3-34.43,36.48-56.99,48.43-20.15,10.68-41.09,19.74-61.84,29.1-13.43,6.06-16.46,16.21-15.73,28.79,1.15,20.07,7.3,39.05,14.05,57.8,7.11,19.73,17.33,38.04,26.57,56.79,1.23,2.5,3.02,2.78,5.37,2.75,9.89-.13,19.12-2.86,28.03-6.91,26.65-12.11,48.61-30.48,68.23-51.8,21.94-23.85,39.72-50.48,52.18-80.52,.72-1.72,1.5-3.44,2.4-5.07,4.1-7.37,7.64-8.09,14.08-2.69,10.26,8.6,18.49,19.02,26.03,29.97,14.93,21.69,27.97,44.48,34.26,70.24,6.79,27.79,8.73,56.09,5.07,84.61-.2,1.6,.28,4.02-1.54,4.53-2.36,.66-2.73-2.1-3.69-3.5-3.56-5.21-6.98-10.52-12.9-13.46-6.76-3.36-11.27-1.29-12.87,6.06-1.98,9.17-.19,18.3,.36,27.45,.11,1.78,.97,3.64-.39,5.61-2.02-.94-2.76-2.91-3.86-4.48-5.45-7.81-10.55-15.89-17.89-22.18-6.91-5.92-14.57-9.84-23.96-9.94-7.01-.07-12.04,2.83-15.55,8.78-3.28,5.56-4.89,11.58-5.11,17.96-.17,4.89-.03,9.8-.03,15.8-2.88-3.02-5.36-5.43-7.62-8.02-5.39-6.17-11.03-12.07-18.16-16.28-10.88-6.42-20.09-5.49-29.33,3.15-7.54,7.05-13.09,15.61-17.93,24.66-2.97,5.55-5.65,11.31-10.54,15.52-1.9,1.64-1.39,3.15-.47,4.93,6.32,12.29,11.03,25.22,15.3,38.32,.85,2.61,1.81,3.58,4.63,2.69,27.62-8.7,56.39,6.2,61.23,43.93,1.17,9.16,1.35,18.34,.65,27.5-.29,3.81,.86,4.44,4.21,3.43,9.98-3.02,18.38-8.66,26.24-15.31,1.66-1.4,1.19-2.96,.97-4.64-2.49-19.2,2.48-36.76,11.91-53.29,2.12-3.71,4.59-7.22,8.21-9.63,3.92-2.62,6.98-1.34,7.81,3.28,.98,5.46,0,10.83-1.23,16.17-1.36,5.9-2.69,11.81-2.66,19.29,4.67-7.87,7.37-15.14,10.34-22.27,3-7.22,5.75-14.55,8.71-21.78,.6-1.47,.98-3.72,3.17-3.39,2.13,.32,2.71,2.44,3.04,4.3,1.03,5.9-.56,11.49-2.28,17.02-.89,2.85-1.98,5.64-3.27,9.29ZM364.21,227.57c-.75-16.6-9.37-35.59-26.52-50.32-9.94-8.54-21.64-13.78-35-13.05-30.76,1.68-59.17,29.36-62.1,60-2.73,28.55,14,54.82,41.75,65.57,40.63,15.74,82.12-12.74,81.88-62.19Zm87.7,62.77c31.73,.99,53.01-23.97,60.18-44.08,11.34-31.79-11.54-67.15-33.09-77.11-16.14-7.46-32.73-9.48-49.03-.28-19.41,10.95-32.85,26.71-37.83,48.9-5.03,22.44-1.27,42.4,17.27,57.66,12.26,10.09,26.72,14.54,42.5,14.91Zm-29.73,444.55c15.27-.81,33.19-3.23,49.74-11.88,2.57-1.34,3.78-2.88,3.75-5.85-.06-5.95-.06-11.93,.47-17.84,.44-4.87-1.34-4.77-5.1-3.54-17.12,5.58-34.66,8.9-52.71,6.86-25.37-2.86-50.59-6.62-74.25-17.02-2.27-1-3.98-1.45-3.48,2.14,.98,7.07,1.87,14.15,2.78,21.22,.23,1.78,1.04,2.96,2.63,4.04,22.06,15.12,46.64,21.69,76.17,21.87Zm29.26-66.26c-6.33,1.52-12.45,.83-18.28,3.07-7.9,3.04-16.2,3.98-24.55,2.22-13.83-2.92-27.63-6.02-41.65-7.92-.99-.13-1.96-.66-3.08,.22,1.4,4.05,4.19,7.68,4.34,12.25,.1,2.96-.71,5.49-3.21,7.05-2.59,1.62-4.95,.25-6.98-1.38-4.1-3.29-8.34-6.42-11.77-10.49-2.22-2.63-4.59-5.13-6.9-7.68-.38,.32-.77,.63-1.15,.95,.15,1.64,.47,3.29,.43,4.93-.16,6.28,3.02,9.19,8.85,11.49,19.63,7.74,40.16,11.24,60.8,14.53,18.44,2.95,36.61,1.39,54.53-3.35,12.87-3.4,12.82-3.59,12.53-16.64,0-.34-.05-.68,0-1.02,.47-3.9-1.11-4.12-3.88-2.16-4.71,3.34-9.29,6.88-14.13,10.01-4.96,3.2-8.63,1-8.77-4.89-.09-3.81,1.7-7.14,2.91-11.22Zm-97.87,73.34c4.02,9.61,8.59,17.34,13.73,24.75,.74,1.07,1.88,2.02,3.04,2.63,6.04,3.13,12.21,5.94,18.86,7.62,17.03,4.3,34.09,2.94,51.13,.29,22.5-3.5,25.27-6.11,30.93-28.14,.08-.33,.16-.66,.2-1,.16-1.14,.83-2.68,.33-3.33-1.08-1.42-2.44,.04-3.61,.47-9.74,3.55-19.49,7.29-29.89,8.24-28.67,2.64-57.04,2.5-84.72-11.52Zm110.66-126.99c-.81-5.95-1.5-10.98-2.17-16.01-.49-3.7,.33-8.73-1.77-10.75-2.48-2.39-6.69,1.35-10.27,1.98-24.51,4.35-49.11,7.38-74.07,5.56-5.09-.37-10.16-.99-15.21-1.71-2.5-.36-3.68,.08-4.02,2.89-.64,5.23-1.65,10.41-2.6,15.6-.59,3.25-.33,4.88,3.72,3.36,6.52-2.44,13.18-4.52,19.84-6.55,4.25-1.29,8.99-2.6,12.44,1.19,3.42,3.76,.08,7.38-1.75,10.65-1.6,2.86-.66,3.4,2.1,3.67,10.84,1.08,21.7,1.95,32.6,1.68,6.03-.15,12.03-.74,17.84-3.15-1.5-2.29-2.97-4.17-4.04-6.25-1.81-3.5-2.5-7.13,.32-10.5,2.69-3.21,6.04-2.24,9.41-1.34,6.36,1.7,11.6,5.48,17.63,9.67Zm-63.99-44.02c16.74-1.39,33.34-3.9,49.86-7.13,4.64-.91,5.62-3.11,4.42-7.43-.85-3.08-.98-6.38-1.25-9.59-.52-6.35-.44-6.22-6.6-4.66-14.82,3.75-29.6,8.17-45.18,5.06-9.16-1.83-18.37-3.5-27.44-5.74-3.81-.94-5.15,.01-5.93,3.6-1.08,4.97-2.62,9.85-3.96,14.76-.49,1.79-.59,3.21,1.78,3.89,11.24,3.25,22.19,7.88,34.3,7.23Zm-8.99,21.75c17.75-.16,37.02-2.32,56.1-5.86,12.73-2.36,12.67-2.73,10.59-15.53-.11-.67-.18-1.37-.42-2-.48-1.28,.21-3.57-2.1-3.39-1.69,.13-3.61,.26-3.84,3.06-.2,2.45-.96,2.65-2.4,.64-1.19-1.66-2.39-.92-3.55-.8-3.89,.38-7.84,.61-11.63,1.48-23.16,5.32-46.11,6.54-68.58-3.07-2.95-1.26-3.46,.39-3.89,2.67-1.01,5.35-1.96,10.71-3.24,15.99-.95,3.92,.59,4.97,4.27,5.36,8.98,.96,17.99,1.19,28.69,1.45Zm-45.66,124.41c.88,13.53,6.62,23.05,20.21,26.49,.16,.04,.32,.13,.47,.19,19.68,7.5,40.19,7.93,60.84,7.16,13.57-.5,26.56-3.69,39.07-8.86,7.76-3.21,9.35-6.6,7.57-15.13-44.31,17.86-87.08,15.41-128.16-9.85Zm69.31-212.73c10.27,.63,20.55-1.6,30.8-4.19,2.13-.54,3.3-1.19,2.91-3.71-.87-5.54-1.66-11.1-2.16-16.68-.31-3.37-1.82-3.92-4.67-2.96-15.16,5.1-30.64,5.74-46.33,3.15-1.87-.31-3.15-.13-3.99,1.98-2.08,5.2-4.31,10.36-6.72,15.42-1.38,2.9-.5,3.84,2.42,4.33,9.06,1.51,18.1,3.16,27.75,2.67Zm-4.24,40.15c11.21-.09,20.73-2.12,30.01-4.7,13.97-3.89,12.04,.19,10.83-15.46-.05-.68-.16-1.35-.22-2.03-.54-5.66-.55-5.69-5.9-3.05-14.56,7.19-29.88,9.75-46,7.73-6.76-.85-13.3-2.67-19.92-4.14-1.53-.34-3.52-1.39-4.22,1.15-1.17,4.3-4.47,8.04-3.46,12.87,.08,.37,1.15,.63,1.79,.79,12.71,3.05,25.41,6.13,37.1,6.83Zm5.3,126.61c6.93,.16,14.41-.37,19.37-4.77,4.46-3.95,9.31-7.11,13.94-10.68,1.28-.99,4.17-1.12,3.23-3.64-.87-2.34-3.21-2.7-5.6-2.47-7.22,.71-14.49,.46-21.59,2.77-7.11,2.32-14.41,1.73-21.47-.94-2.7-1.02-5.44-1.92-8.15-2.89-1.58-.56-2.83-.59-3.87,1.15-2.52,4.22-6.7,4.82-11.1,4.6-2.54-.13-5.06-.53-7.6-.68-1.85-.11-2.78,.82-1.43,2.42,2.49,2.96,4.69,6.91,8.48,7.78,11.86,2.72,23.42,7.1,35.78,7.36Zm-5.45-146.98c12.16,.03,24.52-3.24,36.1-9.54,3.29-1.79,4.85-6.64,2.72-10.22-1.77-2.98-4.11-.28-6.16,.04-1.5,.23-2.94,.83-4.43,1.18-17.22,4.09-34.42,3.08-51.62-.23-1.45-.28-2.89-1.25-4.44-.42-.86,.46-5.36,12.17-5.14,13.21,.26,1.25,1.27,1.43,2.28,1.65,9.8,2.07,19.47,4.97,30.69,4.34Zm39.84,108.63c-3.48-4.22-6.21-7.4-11.54-5.04-1.82,.8-3.96,.94-5.97,1.24-13.78,2.04-27.5,.43-41.22-.77-8.02-.7-11.97,1.45-16.06,9.07,3.59,.46,7.16-.25,10.64,.82,3.38,1.04,4.52,4.78,7.35,5.99,10.91,4.66,22.04,8.29,34.09,4.08,2.16-.76,3.17-1.43,2.97-4.22-.5-6.94,1.75-9.24,8.55-9.97,3.47-.38,6.94-.74,11.2-1.19Zm-56.98-277.35c13.1-.4,27.9-2.82,41.21-10.27,6.02-3.37,10.91-4.39,18.18-3.28,26.5,4.05,46.17-18.12,52.26-44.84,.33-1.43-.41-2.3-1.7-2.68-1.44-.43-2.27,.35-2.64,1.67-.32,1.14-.55,2.31-.85,3.46-2.85,10.91-7.65,20.81-16.12,28.45-8.84,7.98-19.1,12.41-31.3,9.97-3.26-.65-6.8-1.57-7.23-5.98-.13-1.29-.66-2.33-2.25-2.12-1.27,.17-1.71,1.2-1.69,2.2,.09,4.11-2.9,5.87-5.71,7.8-3.1,2.13-6.42,3.85-9.95,5.14-23.9,8.74-47.58,8.75-71-1.8-1.75-.79-4.04-2.68-5.19,.06-.92,2.2,1.8,2.95,3.39,3.66,12.25,5.51,25.07,8.54,40.59,8.55Zm19.56,106.88c0,.07,.01,.13,.02,.2,3.2-.36,6.43-.54,9.59-1.12,2.99-.54,5.96-1.33,8.85-2.29,11.9-3.97,11.79-3.98,8.5-16.16-.72-2.66-1.92-3.36-4.31-2.57-6.58,2.18-13.38,1.84-20.17,1.91-3.04,.03-6.73-2.4-8.74-.49-2.04,1.95-2.28,5.83-3.23,8.89-3.18,10.26-2.43,11.27,8.46,11.63,.34,.01,.68,0,1.02,0Zm.08,15.5c7.99,.44,16.21-.94,24.18-3.45,9.17-2.89,8.14-.3,6.85-10.85-.54-4.43-2-4.96-5.74-3.14-9.58,4.66-19.75,5.95-30.31,4.98-3-.27-6.29-3.22-8.65-1.23-2.24,1.89-2.95,5.6-4.32,8.5-.07,.15-.12,.33-.21,.46-1.8,2.58-.8,3.58,2.01,3.82,5.25,.45,10.47,1.23,16.2,.9Zm-36.95,298.5c22.19,22.52,67.73,22.62,81.13,.97-26.72,6.28-53.38,9.97-81.13-.97ZM568.98,65.4c-3.95,.11-8.3,1.19-11.01,5.61-1.36,2.22-.65,4.33,.9,6.09,3.58,4.04,8.19,4.58,13.07,3.25,3.96-1.09,7.44-2.92,7.01-7.94-.37-4.23-4.01-6.95-9.97-7.01Zm-145.34,364.97v-.5c-3.73,0-7.46,.1-11.18-.03-4.08-.14-3.98,3.17-4.46,5.58-.58,2.93,2.12,2.49,3.79,2.66,7.47,.74,14.89,.41,22.22-1.36,2.13-.51,4.19-.62,3.82-3.99-.37-3.38-2.24-3.15-4.55-2.97-3.21,.25-6.42,.41-9.64,.61ZM567.43,118.44c5.9,.06,11.42-3.56,11.26-7.38-.15-3.59-4.74-6.17-10.94-6.15-.17,0-.34,0-.51,0-4.73,.15-8.67,3.27-8.7,6.91-.04,3.63,3.91,6.57,8.89,6.62Zm1.79-20.38c4.88,.04,8.49-.87,11.37-3.46,2.46-2.21,2.84-4.86-.5-6.53-5.1-2.53-10.4-2.79-15.55,.04-1.86,1.02-3.33,2.53-3.07,4.84,.25,2.22,1.74,3.65,3.83,4.28,1.6,.48,3.28,.7,3.93,.83Zm-10.35-34.68c4.48,.01,9.28-3.58,9.06-6.71-.3-4.29-3.51-5.46-7.18-5.59-4.17-.15-7.73,2.85-7.64,6.5,.09,4.03,2.79,5.47,5.76,5.8ZM197.54,118.98c3.98-.11,7.9-3.37,7.67-6.68-.31-4.44-3.87-5.24-7.28-5.54-3.55-.31-6.89,3.01-6.53,6.22,.4,3.56,2.04,6.1,6.14,5.99Zm8.23-25.37c-.62-3.44-2.61-5.41-5.96-5.1-3.17,.29-5.43,2.19-5.31,5.66,.12,3.37,2.6,4.72,5.55,4.66,3.25-.06,5.26-2,5.72-5.22Zm2.81,745.79c.27-2.23-2.57-2.29-4.82-2.4-3.85-.18-6.38,2.94-6.72,5.74-.37,3.01,4.08,4.57,6.13,4.46,2.73-.14,5.21-2.82,5.42-7.81ZM567.75,138.01c-.29-2.94-2.39-3.66-4.61-3.93-3.01-.37-6.85,2.83-6.74,5.56,.1,2.72,2.15,4.06,4.39,3.95,3.46-.17,5.71-2.46,6.96-5.58Zm-361.75-2.95c.04-2.3-1.16-3.42-3.4-3.42-2.77,0-6.62,3.93-6.66,6.74-.03,2.24,1.47,2.87,3.3,2.98,3.21,.19,6.72-3.13,6.76-6.29Zm438,700.53c-.88-2.57-1.32-5.46-4.66-5.38-2.22,.06-4.69,.78-4.53,3.7,.15,2.73,1.33,6.04,3.94,6.34,1.78,.21,4.2-2.3,5.26-4.66Zm-34.17,.02c-1.68,.8-5.43-.18-5.09,4.05,.22,2.75,2.58,4.33,4.74,4.1,2.45-.26,4.68-2.18,4.6-5.21-.06-2.18-1.3-3.41-4.25-2.94Zm86.55-154.66c.16-2.49-.36-4.44-2.81-4.16-3.76,.43-4.33,3.73-4.95,6.68-.5,2.38,.96,3.55,3.09,3.54,4.38,0,4.05-3.63,4.66-6.06Zm-159.95,169.03c1.64-.52,5.55,.62,5.99-3.54,.24-2.27-1.63-3.59-4.12-3.21-2.3,.35-5.64-.69-5.48,3.34,.05,1.44-.7,4.2,3.61,3.4ZM216.84,64.96c-.19-2.71-2.29-3.45-4.51-3.57-2.53-.13-4.22,1.39-4.27,3.9-.05,2.57,1.86,3.96,4.2,4.12,2.82,.19,4.14-1.71,4.59-4.46Zm363.24,780.03c-2.37,.1-4.85-.32-4.77,3.14,.07,3.23,2.47,3.99,4.83,4.11,3.22,.16,3.71-2.62,3.84-4.96,.17-3.06-2.47-1.96-3.9-2.28Zm-81.63-7.73c-.84-1.72-1.66-4.74-4.04-4.69-2.54,.06-3.14,3.17-3.47,5.48-.32,2.24,1.74,3.7,3.17,3.8,2.25,.15,3.92-1.59,4.34-4.6ZM552.09,47.1c.09-2.61-1.52-3.4-3.56-3.43-2.46-.03-4.45,.98-4.4,3.75,.04,2.03,1.3,3.58,3.54,3.51,2.46-.07,4.1-1.36,4.42-3.83Zm-11.8,65.3c-.23-2.45-1.78-3.72-4.05-3.72-2.08,0-3.61,1.24-3.54,3.5,.08,2.43,1.66,3.72,3.99,3.71,2.13-.01,3.45-1.23,3.6-3.49Zm198.8,590.55c0-.93-.65-1.99-2.02-1.91-3.27,.21-5.44,2.4-7.42,4.72-.76,.89-.65,1.9,.43,2.56,2.15,1.31,8.77-2.34,9-5.37ZM507.02,168.63c-.45-1.55-2.23-2.09-3.13-1.43-2.85,2.08-5.11,4.85-6.58,8.1-.38,.84,.44,1.57,1.44,1.59,.86,.02,8.26-7.29,8.27-8.26Zm-185.96,161.46c2.76-1.12,5.51-2.69,6.4-6.09,.35-1.33-.74-2.14-2.04-2.33-.95-.14-7.53,5.93-7.35,6.75,.32,1.43,1.42,1.7,2.99,1.67Zm-22.96-198.1c2.26-.41,4.85-.95,5.16-3.81,.22-2.03-1.77-2.25-3.35-1.98-2.3,.39-5.25,.46-5.67,3.32-.29,2.02,1.89,2.45,3.86,2.47Zm199.21,662.51c-.42-2.36-2.17-3.18-4.4-3.13-2.05,.05-3.19,1.3-2.9,3.33,.3,2.02,1.52,3.54,3.74,3.42,2.04-.11,3.55-1.12,3.55-3.63ZM211.26,157.16c-2.14,.43-3.71,1.83-4.13,4.24-.33,1.88,.88,3.04,2.56,3.03,2.59,0,3.89-1.86,4.3-4.2,.31-1.76-.51-2.93-2.73-3.08Zm203.74-32.6c-.85-1.94-2.25-3.26-4.56-3.04-2.2,.21-3.35,1.84-3.12,3.8,.27,2.34,2.37,2.56,4.28,2.33,1.71-.21,3.26-.83,3.4-3.1Zm116.49-38.39c-2.12,.37-3.51,1.61-3.65,3.68-.15,2.24,1.23,3.52,3.46,3.41,2.24-.1,3.32-1.63,3.32-3.74,0-1.96-1.22-3.06-3.12-3.35Zm-273.84,89.41c.94-.32,3.17,.26,2.64-1.16-1.04-2.73-3.96-3.96-6.6-4.98-1.51-.59-2.94,.4-2.77,1.95,.43,4,4.2,3.06,6.73,4.19Zm217.93-14.1c3.57-.18,5.81-2.24,8.5-2.94,.85-.22,1.76-.79,1.54-1.66-.16-.64-1.02-1.28-1.71-1.6-3.5-1.62-5.93,.1-8.33,6.2Zm53.63-116.28c1.85-.24,3.57-1,3.45-3.32-.11-2.27-1.86-3.08-3.88-3.04-2.1,.04-3.58,1.09-3.55,3.37,.03,2.42,1.77,2.96,3.98,2.99Zm-40.9,754.88c-.27-1.94-.98-3.63-3.22-3.85-2.37-.24-3.36,1.27-3.41,3.37-.05,2.17,1.25,3.55,3.34,3.66,1.94,.1,2.98-1.26,3.29-3.18ZM368.86,112.35c-.64-2.04-2.15-2.78-3.95-2.58-1.98,.22-3.73,1.26-3.54,3.52,.15,1.84,1.88,2.28,3.47,2.16,1.98-.15,3.48-1.1,4.02-3.1Zm-126.78-51.12c2.03-.26,3.06-1.43,2.99-3.39-.08-2.07-1.39-3-3.37-2.84-1.92,.16-3.21,1.17-3.03,3.24,.17,2,1.56,2.83,3.41,2.99Zm310.34,92.06c.26,1.35,1.12,2.42,2.62,2.46,2.23,.07,3.43-1.39,3.64-3.46,.18-1.76-.79-3.14-2.61-2.97-2.08,.19-3.07,1.87-3.65,3.97Zm-273.19,9.71c-1.59-1.6-2.4-4.43-5.4-4.5-1.25-.03-2.28,.89-1.77,2.42,.84,2.53,2.96,3.63,5.32,4.16,1.09,.24,1.89-.54,1.86-2.08Zm248.39-55.3c-.25-1.94-1.37-3.16-3.29-3.04-1.85,.12-3.06,1.33-3.01,3.33,.04,1.83,1.16,2.79,2.9,2.72,1.84-.07,3.15-1,3.41-3.02Zm-222.56,522.53c-1.73,.54-3.38,1.22-3.06,3.37,.27,1.78,1.73,2.46,3.38,2.32,1.73-.15,2.8-1.24,2.7-3.03-.1-1.82-1.34-2.57-3.02-2.67Zm45.47-503.01c-1.51,1.35-4.68,1.34-5.24,4.34-.18,.98,1.22,1.62,2.31,1.45,2.4-.38,4.82-1.07,5.6-3.68,.39-1.31-.68-2.16-2.66-2.11Zm-109.22-12.69c1.86-.11,3.37-.77,3.63-2.78,.25-1.94-1.12-2.76-2.76-2.82-1.8-.07-3.37,.67-3.61,2.72-.22,1.91,1.12,2.6,2.74,2.88Zm-3.11-46.71c-1.47,.09-2.78,.57-2.72,2.31,.05,1.62,.8,3.14,2.57,3.33,1.75,.18,2.92-.99,3.06-2.73,.16-1.93-1.25-2.59-2.91-2.91Zm161.62,40.75c-.79-1.48-1.94-2.63-3.83-2.58-1.72,.05-3.06,.9-2.67,2.77,.39,1.88,1.98,2.64,3.83,2.42,1.4-.16,2.51-.87,2.67-2.61Zm48.64,508.99c1.38-1.19,4.12-.66,4.64-3.08,.39-1.82-1.32-2.1-2.61-2.3-2.05-.31-3.74,.12-3.73,2.71,0,1.14-.08,2.42,1.7,2.66ZM354.22,87.62c.16,0,.31,0,.47,0,.54-2.96,1.09-5.92,1.6-8.89,.2-1.18,1.42-2.94-.84-3.14-1.95-.17-2.44,1.58-2.29,3.2,.27,2.95,.7,5.89,1.07,8.83Zm-52.06,13.7c1.01-2.26,1.89-4.06,2.61-5.91,.54-1.39,.46-2.86-1.28-3.21-1.78-.35-2.3,1.11-2.39,2.51-.13,2-.12,4.02,1.06,6.61Zm176.93,24.48c-.41-1.82-1.64-2.46-3.35-2.36-1.76,.1-2.99,.97-2.75,2.82,.22,1.67,1.4,2.71,3.2,2.5,1.69-.2,2.67-1.26,2.9-2.96Zm56.09-73.55c-.09-1.73-1.05-2.38-2.65-2.18-1.83,.23-2.56,1.48-2.49,3.14,.05,1.44,.82,2.74,2.4,2.62,2.02-.16,2.52-1.87,2.74-3.57ZM248.72,125.75c-.33-1.81-1.61-2.4-3.24-2.35-1.77,.05-2.82,1.05-2.68,2.85,.12,1.44,.96,2.57,2.53,2.54,1.88-.03,3.03-1.12,3.38-3.04Zm255.55,662.44c1.29-.44,2.7-1.05,2.74-2.86,.04-1.75-1.1-2.83-2.76-2.99-1.79-.17-2.87,1.04-2.97,2.68-.11,1.72,1.16,2.63,2.99,3.17ZM415.08,82.16c.33,.05,.67,.09,1,.14,.99-2.13,2.03-4.23,2.95-6.39,.44-1.03,.28-2.03-.98-2.44-1.48-.48-2.34,.2-2.49,1.64-.23,2.34-.33,4.7-.48,7.05Zm-42.13,2.31c1-3.82,1.78-6.64,2.46-9.49,.2-.85-.03-1.75-1.02-1.99-1.21-.3-2.02,.39-2.07,1.53-.13,2.95-.45,5.93,.62,9.95Zm-65.03,557.95c-.07-1.7-.89-2.7-2.48-2.67-1.74,.03-2.82,1.06-2.94,2.83-.1,1.48,.4,2.75,2.12,2.82,2.03,.07,2.97-1.22,3.3-2.97ZM430.02,116.23c-1.35,.14-2.54,.5-2.27,2.11,.28,1.64,1.37,2.76,3.05,2.98,1.35,.17,2.46-.64,2.47-1.96,0-2.01-1.45-2.87-3.25-3.12Zm-182.96,76.09c-.8-1.71-2.33-2.33-4.1-2.42-1.34-.07-2.53,.58-2.28,2.05,.33,1.96,2.18,1.85,3.66,1.94,1.14,.07,2.48,.2,2.72-1.58Zm59.44,430.26c-.06-1.36-.75-2.45-2.41-2.38-1.37,.06-2.84,.44-2.95,2.15-.1,1.58,.94,2.5,2.47,2.62,1.54,.13,2.61-.54,2.89-2.39Zm21.73-530.09c.44-2.75,2.23-5.07,1.09-7.76-.33-.78-1.79-.51-2.14,.21-1.22,2.51-1.3,5.02,1.05,7.54Zm168.67,675.55c1.62-.15,2.19-1.24,2.09-2.79-.09-1.44-.47-2.82-2.34-2.58-1.56,.2-2.37,1.4-2.44,2.84-.09,1.64,1.05,2.35,2.69,2.53ZM427.68,85.69c.3,.13,.6,.26,.91,.39,1.11-2.04,2.2-4.08,3.33-6.1,.5-.89,1.21-1.92-.02-2.58-1.43-.77-2.22,.39-2.56,1.55-.66,2.22-1.12,4.49-1.66,6.75Zm115.2,8.74c.99-.37,2.71-.33,2.86-2.02,.18-1.93-1.42-2.49-3-2.65-1.34-.14-2.33,.48-2.44,1.93-.12,1.6,.69,2.53,2.58,2.74Zm-94.34-2.9c.94-2.63,3.42-4.66,2.76-7.75-.04-.2-1.09-.47-1.32-.29-2.63,2.16-1.36,5.25-1.44,8.03Zm11.49,33.42c-.47-1.22-1.39-2.08-2.96-1.83-1.49,.24-2.5,1.11-2.25,2.75,.22,1.38,1.29,1.91,2.59,1.77,1.44-.15,2.55-.79,2.62-2.69Zm-252.43-45.35c1.42-.42,2.4-1.28,2.31-2.84-.07-1.3-.85-2.23-2.22-2.29-1.41-.06-2.19,.88-2.26,2.18-.08,1.47,.62,2.56,2.17,2.96Zm108.69,17.87c.25,.14,.49,.27,.74,.41,.36-2.28,.76-4.56,1.06-6.86,.12-.93,.46-2.27-.95-2.4-1.57-.15-1.89,1.22-1.78,2.42,.2,2.16,.61,4.29,.93,6.44Zm144.73-5.82c.29,.21,.58,.42,.87,.63,1.24-1.34,2.5-2.67,3.72-4.03,.99-1.11,.81-2.22-.35-3.01-1.39-.95-2.23-.03-2.66,1.19-.61,1.71-1.06,3.47-1.58,5.21Z"/>
  <path d="M357.49,236.51c-.17,12.14-4.24,22.31-12.66,30.57-12.95,12.69-31.99,10.7-42.3-4.29-11.74-17.09-7.92-43.84,8.13-56.96,9.92-8.11,22.92-8.12,32.76,.07,9.66,8.04,13.78,18.65,14.07,30.61Zm-16.9-22.36c-4.99-.07-8.71,3.36-8.66,8,.04,4.1,4.05,7.7,8.59,7.71,4.46,0,8.31-3.64,8.34-7.91,.03-4.49-3.4-7.73-8.26-7.8Z"/>
  <path d="M468.31,234.41c.02,20.2-12.29,35.57-29.43,38.91-14.55,2.84-28.34-5.3-33.8-20.03-3.69-9.94-3.67-20.01-.5-30.04,4.3-13.59,15.69-23.25,28.14-24.1,12.46-.85,25.23,7.12,31.43,19.71,2.74,5.57,4.08,11.51,4.16,15.55Zm-16.06-12.12c.11-5.59-3.55-9.47-8.95-9.47-5.27,0-9.68,4.38-9.71,9.63-.03,5.04,3.81,9.08,8.78,9.23,5.29,.16,9.78-4.11,9.89-9.4Z"/>
  <path d="M386.23,684.78c-.15,1.4-.55,2.83-2.06,3.08-1.86,.31-2.13-1.34-2.15-2.63-.02-1.28,.06-2.91,1.8-3.08,1.71-.16,2.1,1.29,2.41,2.63Z"/>
  <path d="M451.55,758.48c1.69,.33,2.08,1.57,1.94,3.01-.14,1.37-.62,2.89-2.28,2.79-1.61-.1-2.08-1.58-1.99-3.01,.09-1.41,.64-2.62,2.33-2.79Z"/>
  <path d="M422.61,554.35c-.3,2.1-.49,4.6-3.35,4.69-1.66,.05-1.87-1.77-1.72-3.1,.24-2.1,.13-4.8,3.02-5.03,1.97-.16,2.03,1.81,2.05,3.44Z"/>
  <path d="M375.24,553.65c2.09,.07,2.46,1.36,2.34,2.79-.18,2.17-.37,4.63-2.97,5.19-1.37,.29-1.9-1.32-1.76-2.52,.24-2.07-.03-4.49,2.39-5.46Z"/>
  <path d="M391.93,562.93c-.35,1.67,.25,3.95-2.3,3.84-2.1-.1-1.96-2.02-1.81-3.5,.18-1.72-.22-4.35,2.26-4.29,2.19,.05,1.51,2.55,1.85,3.95Z"/>
  <path d="M436.78,482.97c1.92,.48,2.88,1.8,2.59,3.71-.27,1.71-1.12,3.6-3.13,3.35-2.07-.25-2.2-2.36-2.14-4.05,.06-1.58,.57-3.05,2.67-3.01Z"/>
  <path d="M423.52,502.24c-1.9-.6-1.73-2.28-1.81-3.71-.09-1.62,.24-3.23,2.4-2.97,1.54,.19,2.34,1.39,2.24,2.9-.12,1.77-.86,3.23-2.84,3.77Z"/>
  <path d="M417.28,537.27c-.3,2.08,.06,4.98-2.66,5.25-1.99,.2-2.12-2.36-2.02-3.98,.13-2.06-.43-5.1,2.29-5.47,2.52-.35,2.06,2.46,2.4,4.2Z"/>
  <path d="M428.86,447.23c.4-1.48-.27-3.78,1.94-4.08,2.24-.31,2.01,1.82,2.01,3.24,0,1.62,.27,3.83-1.87,4.14-2.21,.31-1.86-1.82-2.08-3.29Z"/>
</svg>