<?xml version="1.0" encoding="UTF-8"?>
<svg id="Layer_1" data-name="Layer 1" xmlns="http://www.w3.org/2000/svg" viewBox="0 0 864 864">
  <path d="M573.97,629.27c-2.91,5.87-3.76,12.19-4.25,18.55-2.28,29.43,6.69,56.05,20.54,81.41,2.44,4.47,4.87,8.99,7.74,13.19,6.11,8.94,10.34,29.48,11.58,38.03-2.75-3.63-5.44-1.43-7.99-.25-15.14,7.02-30.44,13.55-46.7,17.59-25.03,6.22-50.36,7.42-75.95,5.04-4.39-.41-8.81-.58-13.22-.69-2.32-.06-3.28-.64-2.98-3.29,1.52-13.72,8.16-22.41,21.76-25.7,17.34-4.2,35.03-6.94,52.35-11.22,18.3-4.53,36.26-10.39,54.04-16.7,.73-.26,1.32-.89,2.46-1.69-2.64-1.76-4.86-.83-7.03-.37-15.82,3.38-31.09,8.73-46.63,13.12-17.72,5.01-36.02,7.09-53.93,11.14-16.2,3.66-25.16,13.33-27.2,29.53-.45,3.54-1.56,4.71-5.06,3.95-3.29-.72-6.67-1.03-10.01-1.53,.66-3.3,1.29-6.6,1.99-9.89,1.67-7.87,2-15.85,2.01-23.85,0-1.23,.39-3.15-1.46-3.29-1.82-.15-1.98,1.68-1.95,2.98,.58,20.96-7.5,39.93-13.69,59.31-1.37,4.28-.89,7.3,2.63,10.31,6.62,5.65,10.35,13.36,14.08,21.04,1.92,3.95,.04,5.52-3.44,5.8-5.25,.41-10.54,.69-15.8,.56-20.16-.5-40.25,1.57-60.41,1.32-6.32-.08-7.63-1.72-4.71-7.4,2.73-5.31,5.51-10.66,10.68-14.05,2.62-1.72,1.19-3.5,.59-5.3-5.75-17.12-10.6-34.45-12.91-52.42-1.02-7.96-.82-15.96-.69-23.95,.02-1.55,.68-3.95-1.72-4.01-1.88-.05-1.75,2.27-1.87,3.68-.68,7.99-.46,15.99,.46,23.94,.38,3.27-.61,3.81-3.59,2.8-5.31-1.79-10.68-3.45-16.12-4.81-2.83-.71-3.1-2.36-2.48-4.51,2.51-8.66,4.33-17.47,6.36-26.24,1.9-8.25,9.69-13.24,19.41-13.75,9.84-.52,19.24,1.86,28.64,4.27,1.34,.34,3.24,1.68,3.87-.43,.55-1.85-1.53-2.38-2.93-2.84-9.41-3.12-19.02-5.33-29.01-5.01-13.47,.43-22.56,8.54-24.47,21.44-3.14,21.19-10.92,40.26-25.72,56.13-4.29,4.6-8.29,9.48-12.59,14.07-1.9,2.03-2.73,3.44-.25,5.78,7.52,7.09,12.5,16.04,17.79,24.78,1.96,3.24,.55,4.25-2.18,5.02-4.1,1.16-8.26,2.09-12.53,2.27-8.67,.35-17.34,.65-26.01,.85-4.75,.11-5.19-.89-3.5-5.25,3.23-8.32,5.29-16.16,1.62-25.65-7.28-18.87-12.49-38.48-13.5-58.93-.72-14.73,1.67-28.89,8.15-42.12,2.18-4.45,1.03-5.87-2.98-7.65-33.27-14.78-60.45-37.05-81.31-66.92-16.66-23.86-28.86-49.58-33.25-78.69-2.89-19.14,.57-37.56,5.04-55.99,4.14-17.06,9.88-33.58,16.18-49.92,3.38-8.75,5.71-17.8,7.92-26.88,.86-3.53,1.04-7.1,.17-10.62-2.85-11.59,.19-21.89,6.88-31.32,7.75-10.93,9.51-23.03,7.47-35.97-.96-6.08-3.26-11.55-8.03-15.52-13.63-11.33-17.55-26.56-17.77-43.32-.1-7.41-.02-14.82-.02-22.37-2.23,.62-1.76,2.25-1.91,3.46-1.43,11.74-.95,23.45,1.02,35.08,1.75,10.32,6.04,19.32,13.56,26.86,12.38,12.41,14.44,30.85,5.41,46.13-3.97,6.72-8.51,13.12-10.16,21-.71,3.39-1.43,6.85-.59,10.1,3.54,13.6-1.18,26.09-5.73,38.2-7.56,20.1-14.14,40.41-18.4,61.46-.57,2.82-.78,5.73-.92,8.61-.16,3.21-1.38,3.8-4.56,3.15-21.78-4.48-34.8-18.58-38.82-42.47-1.19-7.07-1.98-14.15-.14-21.26,.92-3.56,2.58-6.65,5.15-9.24,5.6-5.64,12.04-5.4,17.24,.56,5.01,5.75,8.36,12.36,10.34,19.69,1.58,5.82,5.8,8.69,11.9,9.69-3.32-5.44-6.61-10.91-9.97-16.32-3.31-5.34-6.94-10.51-10-15.99-7.74-13.88-3.47-33.55,9.16-43.29,5.76-4.44,12.43-3.89,17.3,1.64,4.49,5.11,6.5,11.46,8.56,17.78,1.48,4.56,1.94,9.48,4.9,14.66,1.85-8.23,1.26-15.5-.64-22.44-2.93-10.69-1.24-20.49,3.67-30.09,3.17-6.2,6.33-12.38,7.2-19.5,1.27-10.37-1.28-19.98-7.5-27.9-12.81-16.32-14.62-35.05-13.74-54.6,.53-11.84,2.55-23.34,8.85-33.67,1.1-1.8,1.97-3.92,4.69-4.83-1.08,25.05,14.2,40.52,31.59,54.61,8.45,6.85,17.36,13.08,24.11,21.86,11.53,14.98,14.71,31.47,9.54,49.55-4.53,15.83-12.91,29.93-20.36,44.45-4.95,9.66-9.43,19.48-12.16,30.98,8.34-4.1,13.93-9.74,17.88-17.04,4.05-7.49,8.6-14.66,13.36-21.72,3.66-5.43,7.74-10.21,15.18-9.14,7.28,1.05,11.26,6.08,13.4,12.54,3.19,9.65,7.21,19.18,6.75,29.66-.97,22.09-10.22,39.09-30.49,49.45,.69,1.83,2.8,2.05,4.29,3.02,7.15,4.63,8.46,12,2.45,18.05-9.41,9.47-21.23,11.47-33.97,9.47-3.52-.55-6.95-1.62-10.57-1.56-8.49,.14-11.08,3.83-8.15,11.67,.28,.75,.53,1.52,.43,2.37-6.16-11.02-8.01-23.07-8.35-35.48-.6-21.9,3.27-43.38,6.27-64.93,2.69-19.37,5.51-38.72,8.49-58.05,2.86-18.49,.06-35.49-11.77-50.59-5.02-6.41-8.96-13.59-13.04-20.71,1.21,5.47,4,10.23,6.8,14.96,1.47,2.48,3.12,4.88,4.92,7.14,11.17,14.06,13.33,30.13,10.69,47.3-4.44,28.91-9.05,57.79-13.24,86.74-2.17,14.99-3.41,30.12-1.71,45.27,3.7,32.87,20.56,57,49.14,73.19,21.72,12.31,45.47,18.02,70.02,20.45,34.06,3.37,68.04,2.97,101.37-5.87,41.61-11.04,79.75-29.31,113.08-56.81,12.38-10.21,19.63-23.78,21.53-39.89,.28-2.33,1.76-6.03-1-6.87-3.51-1.07-8.48-1.84-10.91,1.64-2.86,4.09-4.55,.12-6.23-.36-2.6-.74-1.29-2.79,.13-4.31,.54-.57,.83-1.47,1.01-2.27,1.73-7.5,4.45-14.6,9.48-22.4-8.96,4.69-13.64-.89-18.79-5.2-.97-.81-.84-1.16-.06-2.29,2.04-2.98,2.69-6.32,.16-9.5-.84-1.06-1.43-2.61-.23-3.07,4.49-1.72,3.85-5.97,5.04-9.3,.98-2.73,1.93-5.48,3.97-7.63,1.19-1.26,1.33-2.39,.74-4.11-1.97-5.74-5.25-7.14-11.39-3.01-3.61,2.43-5.59-.73-8.34-.63-.2,0-.74-.97-.61-1.24,2.86-6,.77-13.78,6.7-18.67,.63-.52,1.47-1.13,1.12-2.08-.44-1.19-1.67-1.22-2.61-.99-3.69,.87-7.79,.1-10.89,3.36-1.48,1.56-3.97,1.33-5.56-.07-1.39-1.23-1.2-2.99,.24-4.5,2.01-2.11,.83-4.89,1.3-7.34,.64-3.35,1.23-6.69,3.4-9.49,.51-.66,1.19-1.36,.63-2.26-.55-.88-1.49-.75-2.28-.45-4.26,1.63-9.62,.75-12.45,5.72-1,1.75-2.56,1.46-4.31,.3-1.52-1-2.74-1.37-2.08-3.74,1.82-6.56,1.33-13.88,7.31-18.98,1.66-1.41-2.32-6.12-5.12-5.55-4.8,.97-9.85,1.31-14.18,3.89-1.87,1.11-3.86,1.41-5.84,1.45-1.73,.03-4.13-1.53-3.4-2.86,2.55-4.63,.89-10.23,3.85-14.63,.47-.7,.87-1.46,1.29-2.2,1.14-2.02,4.87-3.49,1.24-6.5-2.99-2.48-5.1-4.94-10.05-2.29-11.67,6.24-17.24,16.52-21.08,28.23-2.16,6.57-3.78,13.32-6.35,19.82-2.67-12.04,1.46-22.75,6.71-33.3-9.18,8.09-13.97,18.78-17.89,30.97-6.16-21.7,5.76-43.48,30.55-57.22-1.85-2.66-4.05-4.65-7.44-3.78-8.3,2.13-17.39,1.3-24.86,6.64-2,1.43-3.51-.54-5.07-1.32-2.3-1.16-.23-2.49,.02-3.8,.99-5.08,2.44-9.93,6.56-13.45,1.15-.99,2.41-1.91,3.76-2.59,1.36-.68,3.17-1.28,4.13,.37,.98,1.68-1.02,2.19-1.93,3.01-2.77,2.52-5.54,5.02-6.49,9.53,7.03-.99,13.55-3.31,20.51-3.08-.1-2.52-2.03-3.27-3.38-4.39-5.91-4.87-11.84-9.73-16.55-15.83-1.44-1.86-3.03-2.48-5.29-2-10.01,2.16-19.84,4.85-28.73,10.13-6.78,4.02-11.81,9.63-14.98,16.9-.72,1.65-.94,3.62-2.95,5.18-1.58-5.91-.59-11.35,1.45-16.53,3.69-9.37,10.35-16.26,18.97-21.32,2.93-1.72,6.1-3.11,8.81-5.12,1.7-1.26,6.32-.52,4.1-5.15-2.98-6.19-4.39-7.12-9.24-5.47-1.93,.66-3.86,1.32-5.76,2.08-2.43,.98-4.16,2.41-3.07,5.44,.41,1.13,.88,2.42-.76,2.97-1.41,.47-2.85-.8-2.76-1.58,.44-3.69-7.45-.72-4.56-5.84,.84-1.49,.82-2.87,.76-4.39-.29-7.31,1.01-14.32,5.01-20.49,2.16-3.33,.72-5.95-.83-8.45-1.72-2.78-3.98-.28-5.88,.2-5.77,1.45-11.52,3.03-16.89,5.69-1.63,.81-3.21,1.17-4.74-.16-1.48-1.29-1.53-2.94-1.04-4.68,.18-.65,.38-1.3,.63-1.94,2.51-6.56,2.52-6.59-4.69-8.1-23.75-4.98-41.34-19.24-55.95-37.66-7.82-9.86-14.9-20.3-19.94-31.95-.94-2.17-1.79-4.47-2.15-6.79-.77-4.93-1.65-8.75-8.36-8.63-4.44,.08-7.57-3.74-8.36-8.4-.8-4.74,.74-8.85,4.76-11.61,4.47-3.07,9.28-3.04,14-.5,3.65,1.96,5.51,5.44,7.16,9.03,.63,1.38,.78,2.99,2.04,4.04,13.81,11.56,25.86,25.18,40.99,35.18,15.86,10.48,33.3,11.87,51.48,8.48,.96-.18,2.21-.53,2.68-1.23,2.88-4.29,7.42-5.08,12.3-5.95-1.24-3.76-3.96-6.35-6.06-9.25-19.74-27.25-33.5-57.1-39.58-90.31-.38-2.1-1.2-3.15-3.29-3.85-5.54-1.86-8.01-6.17-7.96-11.79,.06-5.95,2.88-10.46,8.34-12.96,5.33-2.44,9.94-.7,14,3.07,4.12,3.83,5.94,9.03,8.28,13.93,8.22,17.22,19.04,32.57,33.35,45.28,6.68,5.93,14.27,10.44,22.99,12.79,2.3,.62,4.38,1.11,5.95-1.93,2.06-4,6.04-3.27,9.5-2.34,3.76,1.01,7.38,2.57,11.07,3.86,1.11,.39,2.36,.92,3.21-.39,.7-1.09-.28-1.89-.79-2.7-19.61-31.33-24.26-66.32-24.89-102.25-.06-3.37-.35-5.83-3.56-8.11-5.26-3.74-5.55-10.28-1.52-15.33,4.17-5.24,10.63-6.29,15.82-2.39,4.83,3.63,7.29,8.91,9.18,14.42,4.53,13.18,7.09,27,12.74,39.8,9.11,20.66,24.16,36.18,42.15,49.05,1.71-1.25,.67-2.23,.64-3.12-.21-5.17,3.68-8.01,8.36-5.72,3.34,1.63,6.35,3.93,9.51,5.93,2.45,1.56,3.61,1.06,3.8-2,1.21-20.03,4.26-39.92,4.74-60.01,.06-2.7,.28-5-3.07-6.65-6.72-3.3-8.41-11.44-4.2-17.39,3.84-5.44,11.49-6.26,17.14-1.62,5.5,4.51,8.92,10.65,12.37,16.71,9.75,17.1,15.13,35.63,17.5,55.05,.5,4.1,2.34,5.83,6.07,6.84,17.55,4.73,35.13,8.41,53.22,2.9,8.48-2.58,15.29-8.07,22.34-13.08,16.18-11.5,28.64-9.93,41.19,5.44,16.85,20.64,20.94,44.47,13.77,69.27-14.51,50.2-43.01,90.08-89.98,115.37-17.36,9.35-35.7,15.9-54.66,20.86-4.4,1.15-4.91,2.65-2.72,6.54,8.17,14.53,19.28,26.79,30.31,39.01,25.76,28.53,52.46,56.22,77.88,85.04,41.61,47.17,74.81,99.45,92.28,160.54,10.16,35.51,13.64,71.52,4.51,107.85-4.55,18.11-11.24,35.36-24.87,48.97-1.11,1.11-1.91,2.38-2.07,3.99-2.3,22.68-11.59,43.24-19.56,64.19-1.87,4.93-3.69,9.89-5.84,14.69-1.13,2.52-1.03,4.19,1.02,6.25,6.41,6.41,9.73,14.65,12.81,22.98,1.26,3.41-.05,5.19-3.61,5.54-14.89,1.45-29.77,2.07-44.7,.35-1.78-.21-3.7,.35-5.5,.8-10.89,2.75-22.07,.44-33.02,1.95-10.88,1.5-11.12,1.27-7.38-8.78,2.08-5.6,4.35-11.16,8.74-15.39,1.74-1.68,1.43-3.09,.78-4.99-8.98-26.44-15.91-53.42-21.8-80.7-1.66-7.69-6.56-14.14-10.36-20.95-12.02-21.57-21.6-43.97-23.41-68.97-.64-8.84-.28-17.68,.78-26.49,.29-2.45,1.08-4.96-.55-7.53ZM117.54,483.28c2.68,2.02,4.04,4.82,5.04,7.95,1.08,3.39,2.32,6.74,3.74,10,4.32,9.89,11.38,16.54,22.58,18.75-.4-.6-.5-.96-.74-1.1-.88-.5-1.76-1.07-2.72-1.37-9.19-2.86-14.42-9.69-18.25-17.99-3.75-8.12-6.03-16.54-5.6-25.57,2.98,.5,4.02,2.93,4.94,5.27,1.49,3.79,2.65,7.7,4.09,11.51,3.73,9.81,12.8,16.42,22.8,16.34-1.52-.6-2.58-1.11-3.7-1.45-9.68-2.98-16.03-9.14-18.67-19.07-.82-3.1-1.94-6.19-3.39-9.04-1.49-2.94-2.85-6.69-7.01-6.46-4.31,.24-5.33,4.22-6.84,7.39-.36,.75-.39,1.64-.57,2.47-1.9,8.75,1.22,16.71,3.78,24.81,4.98,15.75,16.38,22.27,32.95,22.64-3.64-2.35-7-3.57-10.62-4.25-3.87-.72-7.7-1.7-10.67-4.46-9.79-9.09-13.45-20.85-14.5-33.74-.22-2.68,1.05-3.25,3.34-2.64Zm357.57-219.03c9.66,.16,18.99-1.35,27.63-5.85,18.67-9.72,24.48-29.96,14.05-48.13-7.57-13.19-18.73-22.27-32.36-28.4-6.9-3.1-14.28-4.41-21.9-3.27-20.1,3-33.84,19.07-34.67,40.51-.85,21.77,11.86,39.07,32.07,43.71,5.01,1.15,10.09,1.39,15.19,1.43Zm98.72-72.37c2.91-.2,5.47-.25,7.99-.57,26.55-3.41,39.63-27.36,28.25-51.65-10.22-21.82-35.67-33.18-59.12-26.19-14.36,4.28-23.66,13.79-27.1,28.42-3.38,14.38,1.29,26.61,11.75,36.51,10.74,10.18,24.37,12.85,38.24,13.48Zm93.63,663.84c3.19-6.8,4.58-13.33,8.8-18.27,2.45-2.87,2.53-5.24,1.28-8.65-8.25-22.54-14.69-45.44-16.25-69.66-.9-14.07-5.14-27.68-10.86-40.66-.81-1.83-1.18-4.23-3.8-4.98-.14,.74-.41,1.28-.29,1.71,1.11,3.92,2.31,7.8,3.44,11.71,9.33,32.3,13.08,64.56-.61,96.71-.6,1.42-1.41,2.76,.17,4.12,8.48,7.28,13.3,17,18.12,27.97Zm-38.57-245.38c-1.54,1.8-.58,3.43-.26,4.99,1.6,7.87,4.88,15.17,7.81,22.59,9.94,25.18,20.78,49.87,37.9,71.24,3.42,4.26,6.9,8.47,11.29,11.7,18.91,13.93,40.33,5.74,49.37-16.32,.55-1.33,.71-2.78-.98-3.43-1.45-.56-2.11,.6-2.76,1.62-1.72,2.73-3.28,5.58-5.21,8.14-3.82,5.08-8.17,9.62-14.59,11.38-11.45,3.14-20.37-1.77-27.87-9.58-8.85-9.22-16.08-19.74-22.25-30.94-11.68-21.17-20.82-43.47-29.04-66.17-.71-1.97-.97-4.29-3.41-5.23ZM232.8,451.33c2.76-5.94,5.21-11.32,7.77-16.65,1.04-2.17,2.71-3.91,4.57-5.43,4.66-3.8,8.36-3.07,11.18,2.16,2.22,4.12,2.91,8.68,3.61,13.21,3.36,21.81-2.13,46.08-29.38,58.42-2.63,1.19-5.15,2.64-7.72,3.97,4.59-.46,8.49-2.5,12.43-4.41,25.14-12.17,36.5-49.13,22.64-73.5-2.38-4.18-5.86-5.48-10.32-3.83-3.14,1.16-5.53,3.24-7.45,5.95-3.67,5.18-6.13,10.98-8.38,16.85-2.73,7.13-7,13.15-12.22,18.62-7.16,7.49-14.3,15.01-21.35,22.6-1.58,1.7-3.45,3.38-4.09,7.09,12.14-12.57,24.61-23.15,34.81-35.98,2.48-3.12,5.52-5.55,9.24-7.02,5.82-2.3,10.18,.29,10.99,6.5,.75,5.76-1.52,10.71-4.68,15.24-7.71,11.07-17.75,19.61-29.39,26.31-5.82,3.35-11.7,6.6-17.55,9.89,16.98-5.7,32.28-14.1,44.34-27.59,4.46-4.99,8.38-10.38,10.05-16.94,1.37-5.41,1.55-11.15-2.86-15.3-4.33-4.08-9.48-2.49-14.35-.42-.29,.12-.64,.1-1.9,.27Zm400.1-250.31c3.75,1.26,6.83,2.61,10.28,2.83,12.86,.81,22.82-4.81,30.56-14.4,15.89-19.69,20.21-42.55,17.39-67.17-.09-.83-.48-1.62-.74-2.43-.31-.98-.65-2.32-1.77-2.19-1.7,.19-1.21,1.8-1.1,2.89,.73,7.29,.94,14.61,.45,21.9-1.25,18.48-7.9,34.83-21.07,47.91-9.32,9.27-20.51,12.37-33.12,6.3-1.49-.72-3.2-1.97-4.78-.9-1.68,1.14-.75,3.11-.49,4.72,.48,2.93,.99,5.89-2.21,7.66-3.31,1.83-5.58-.44-7.52-2.52-2.71-2.89-5.08-6.11-7.6-9.19-.86,4.22,1.16,7.23,3.54,9.91,3.13,3.53,6.87,6.51,11.95,5.24,4.95-1.23,5.99-5.5,6.25-10.58ZM207.83,431.37c1.43-3.75,2.58-7.64,4.35-11.23,4.73-9.59,9.82-19.01,14.58-28.58,9.2-18.52,5.58-35.62-6.2-51.6-4.13-5.6-9.65-9.02-16.97-8.68-3.5,.16-6.36-1.17-8.33-4.04-7.89-11.46-16.47-22.54-20.27-36.28-.4-1.44-.62-2.97-2.12-4.32,.13,1.12,.23,1.94,.32,2.76,1.65,14.68,10.78,25.76,18.04,37.78,3.34,5.53,7.74,8.26,14.17,8,2.95-.12,5.69,.73,8.08,2.6,11.48,8.98,18.11,29.47,14.01,43.42-3.58,12.17-10.92,22.6-15.89,34.13-2.2,5.12-4.2,10.25-3.77,16.04Zm221.46,191.84c.01-7.13-4.11-11.27-9.74-9.5-4.69,1.47-9.3,3.26-13.81,5.21-4.2,1.82-9.13,10.87-8.08,14.25,1.41,4.56,8.04,9.02,13.22,8.9,9.82-.23,18.4-9.02,18.42-18.85Zm-217.03-13.94c.02,6.45,2.17,10.23,6.79,11.92,8.57,3.14,19.22-2.15,21.79-10.85,.97-3.27,.61-6.04-3.13-7.38-4.95-1.78-9.89-3.57-14.8-5.43-4.97-1.88-7.54-.77-9.48,4.24-.94,2.42-1.18,4.95-1.17,7.51Zm252.16,7c9.33,.1,16.56-4.37,18.73-9.91,1.61-4.12-.32-6.9-3.13-9.37-2.13-1.87-4.34-4.48-7.54-2.58-5.13,3.05-10.62,5.33-16,7.86-3.19,1.5-3.62,3.79-2.23,6.69,2.48,5.2,6.88,7.22,10.17,7.31ZM650.78,121.49c8.28,.08,14.45-5.25,14.42-12.45-.03-6.73-4.75-11.34-11.65-11.36-8.43-.03-14.1,4.91-14.33,12.49-.2,6.6,4.55,11.25,11.56,11.32ZM288.26,639.65c4.7,.13,8.57-1.67,11.82-4.98,2.12-2.16,3.74-4.67,2.81-7.72-.89-2.92-3.66-3.88-6.42-4.29-6.54-.98-13.09-1.8-19.64-2.72-2.73-.38-3.92,1.12-3.72,3.51,.79,9.3,4.22,15.66,15.14,16.2ZM537.6,94.39c.69-2.69,2.45-3.2,3.92-3.93,3.18-1.59,5.1-4.41,7.19-7.07,.76-.97,1.31-2.17,.38-3.25-1.07-1.24-2.36-.5-3.05,.42-2.37,3.15-8.52,.95-9.23,6.74-.13,1.03-2.93,1.31-4.65,.51-.92-.43-1.83-.9-2.79-1.24-.99-.35-2.08-.45-2.79,.5-.9,1.19-.29,2.33,.61,3.15,.87,.78,1.99,1.27,2.95,1.95,1.13,.8,3.56,1.16,2.62,2.95-1.06,2.03-3.33,1.38-4.91,.21-2.04-1.51-3.82-3.35-5.78-4.97-.78-.64-1.83-1.19-2.79-.48-.9,.67-.84,1.77-.66,2.82,.78,4.51,5.73,8.88,10.27,8.15,7.67-1.22,15.52-2.19,22.03-7.15,1.39-1.06,3.95-1.64,2.54-4.08-1.4-2.44-3.51-1.3-5.32-.25-3.18,1.87-6.28,3.91-10.57,5Zm-131.84,726.52c-3.63,5.12-6.89,9.78-10.21,14.39-.8,1.11-.96,2.05,0,3.15,4.35,5.03,7.51,10.81,10.45,16.73,.6,1.21,1.77,2.9,2.88,.99,2-3.43,5.18-6.98,4.21-11.06-1.89-7.96-4.69-15.7-7.33-24.2Zm-56.47-197.33v.43c-2.55-.15-5.08-.3-7.62-.44-3.3-.17-5.01,1.34-5.35,4.68-.75,7.34,6.01,15.63,13.26,16.1,6.67,.43,13.41-6.29,13.72-13.68,.21-4.96-1.48-6.88-6.38-7.07-2.54-.1-5.08-.02-7.62-.02Zm185.25-331.08c-1.9,.23-3.94,.39-5.94,.74-13.05,2.27-26.08,4.64-39.13,6.84-9.04,1.53-18.12,2.82-27.16,4.3-1.31,.22-3.72-.19-3.32,2.02,.34,1.88,2.51,1.09,3.96,1.1,.34,0,.67-.1,1.01-.13,23.81-2.49,47.41-6.34,70.91-10.87,1.85-.36,4.42-.84,4.17-2.86-.26-2.15-2.87-.59-4.5-1.14Zm11.8,261.07c4.82-.04,9.67-2.93,12.09-7.21,3.12-5.52,1.81-11.94-3.12-15.31-4.64-3.18-10.68-1.76-14.63,3.49-1.11,1.48-2.28,2.97-3.1,4.62-4.62,9.33-2.49,13.23,8.76,14.42Zm-67.8-425.4c3.32-2.87,5.39-6.14,4.29-10.67-.46-1.87-1.5-3.17-3.57-2.73-2.27,.48-1.49,2.06-1.13,3.6,1.12,4.74-1.61,7.49-6.28,6.35-1.13-.28-2.6-1.29-3.04,.23-1.74,6.09-4.77,2.49-7.46,1.12-1.14-.58-2.15-2.13-3.41-.46-1.01,1.33-.24,2.68,.8,3.59,.99,.88,2.17,1.68,3.41,2.13,8.68,3.13,17.02,2.54,24.69-2.87,5.29-3.74,6.06-8.32,2.15-13.47-1.4-1.85-2.48-6.28-5.78-3.63-2.52,2.03,.68,4.73,2.17,6.3,2.74,2.89,2.01,4.94-.43,7.24-1.73,1.63-3.47,3.21-6.4,3.28Zm-8.06,539.59c-.12-6.55-6.81-10.77-13.21-7.92-6.97,3.11-11.12,8.95-12.29,16.33-1.15,7.32,6.67,14.21,12.54,11.64,6.31-2.76,13.08-13.24,12.95-20.06Zm-65.63-493.21c9.46,.06,18.84-6.26,22.49-14.97,1.5-3.58,1.07-6.46-1.93-9.13-3.68-3.27-7.13-6.8-10.65-10.25-1.26-1.23-2.62-2.68-4.33-1.16-2.14,1.91-.22,3.43,1.1,4.6,3.17,2.82,6.48,5.49,9.77,8.17,2.84,2.31,3.05,4.79,1.42,8.08-3.72,7.48-15.01,14.17-24.12,9.24-2.64-1.43-5.64-2.5-8.83-1.84-1.21,.25-2.34,.82-2.38,2.25-.03,.96,.78,1.7,1.62,1.67,5.57-.22,10.29,3.51,15.84,3.33Zm149.18,464.97c-.12-2.91-.78-5.7-1.89-8.38-2.4-5.75-6.17-7.19-11.79-4.56-6.83,3.19-11.97,13.14-10.35,20.43,.89,3.99,3.48,6.54,7.65,7.05,7.79,.94,16.37-6.73,16.38-14.54Zm115.82-34.07c8.16-.93,15.78-2.57,23.3-4.66,13.06-3.62,26.28-6.82,38.34-13.3,1.71-.92,5.33-1.48,4.12-4.07-1.29-2.78-3.83-.14-5.69,.59-4.57,1.79-8.98,4.04-13.62,5.63-14.92,5.11-29.96,9.85-45.68,11.9-1.45,.19-3.42,.04-3.42,2.17,0,1.89,1.67,1.75,2.65,1.74Zm-160.66-24.64c-.17,7.67,4.41,11.84,10.63,10.02,5.12-1.5,8.71-6.75,7.95-11.61-.61-3.91-10.18-13.15-13.35-11.99-4.62,1.7-4.14,6.81-4.96,10.85-.2,.99-.21,2.02-.27,2.73Zm-312.92-47.81c7.56-7.33,16.73-6.12,25.76-5.72,5.76,.25,11.56,.73,17.27-.48,2.92-.62,6.59-1.04,6.82-4.94,.22-3.75-2.98-5.45-5.88-6.91-1.17-.59-2.62-.83-3.94-.84-7.47-.09-14.95-.26-22.41,0-6.37,.21-11.24,2.3-14.88,5.92,11.91-6.36,24.53-3.23,36.93-3.06,2.24,.03,4.39,.7,6.09,2.25,1.22,1.11,2.04,2.44,.44,3.87-2.57,2.31-8.57,1.13-10.52-2.3-.39,3.82-3.11,3.71-5.7,3.8-6.93,.24-13.93-1.12-20.8,.76-4.07,1.11-7.81,2.71-9.17,7.66Zm91.57,142.91c.01-6.32-4.15-10.5-10.47-10.5-6.27,0-14.64,6.3-14.68,11.06-.05,5.59,7.41,11.37,14.71,11.4,6.04,.02,10.42-5,10.44-11.96Zm393.95-52.79c7.28-.37,14.1-1.69,20.88-3.45,12.19-3.17,23.6-8.76,35.94-11.43,1.24-.27,3.23-.02,3.04-1.92-.21-2.19-2.28-1.65-3.69-1.5-4.77,.49-9.25,2.16-13.74,3.73-13.79,4.81-27.42,10.21-42.29,10.97-2.24,.12-6.45-1.16-6.37,1.85,.08,3,4.22,1.17,6.23,1.75Zm25.09,41.55c14.5-.18,25.34-.62,35.91-3.58,1.55-.44,3.14-.91,2.6-2.96-.48-1.82-2.1-1.36-3.4-1.17-1,.15-1.96,.53-2.95,.75-19.82,4.58-39.62,5.19-59.42-.12-1.22-.33-2.81-1.46-3.54,.3-.71,1.71,1.1,2.23,2.28,2.75,1.23,.54,2.55,.93,3.87,1.25,9.3,2.27,18.77,2.75,24.66,2.77Zm-36.45-72.27c7.65-.71,14.94-2.95,22.25-5.15,11.54-3.48,22.87-7.49,33.94-12.25,1.16-.5,2.96-.81,2.24-2.68-.56-1.46-2.02-1.67-3.47-1.29-.65,.17-1.26,.48-1.89,.74-17.43,7.12-34.9,14.1-53.62,17.21-1.25,.21-3.19,.27-2.9,2.08,.26,1.66,2.11,1.28,3.43,1.35Zm11.61,42.61c6.62-.54,12.81-1.42,18.99-2.62,13.53-2.63,25.95-9.01,39.49-11.55,1.14-.21,2.55-.72,2.11-2.26-.39-1.36-1.81-1.43-3.01-1.28-5.08,.66-9.87,2.41-14.69,4.03-14.31,4.8-28.54,9.89-43.93,10.1-1.66,.02-4.66-1.14-4.77,1.16-.15,3.11,3.13,2.13,5.15,2.42,.33,.05,.68,0,.66,0Zm67.58,12.17c-3.03-2.17-3.04-2.25-6.75-1.77-18.39,2.37-36.79,3.78-55.29,1.27-1.53-.21-3.95-1.17-4.16,1.26-.2,2.22,2.37,2.09,3.91,2.23,12.5,1.14,25,2.43,37.57,1.01,8.16-.92,16.31-1.85,24.71-4Zm-101.09-114.93c1.56-.5,3.49-1.14,5.43-1.75,15.93-5.01,30.73-12.62,45.64-19.94,1.34-.66,4.07-.9,3.25-3.06-1.03-2.69-3.15-.76-4.7-.08-16.29,7.15-32.08,15.51-49.23,20.64-.79,.24-1.56,.68-2.2,1.2-.66,.53-1.14,1.32-.76,2.24,.41,.97,1.31,.88,2.57,.76Zm-122.63-456.1c-1.91,.32-4.4-1.23-5.07,1.81-.28,1.25-.06,2.3,1.22,3,6.58,3.62,12.95,2.71,18.65-2.75,1.71-1.64,3.33-3.38,5.06-5,1.61-1.51,3.52-2.84,2.73-5.51-.25-.85-.81-1.63-1.73-1.62-2.79,.03-3.32,2.49-4.42,4.33-.35,.58-.72,1.15-1.15,1.67-3.37,4.13-6.64,4.52-10.88,1.2-1.86-1.45-3.74-2.89-5.06-4.95-.78-1.21-1.83-2.94-3.58-1.61-1.53,1.16-.71,2.82,.17,4.1,1.23,1.78,2.61,3.46,4.04,5.33ZM199.38,577.24c1.08-.11,2.89,.07,3.73-1.35,.96-1.63-.63-2.78-1.52-3.92-3.15-4.06-4.9-8.85-7.23-13.35-1-1.94-.74-5.79-3.53-5.3-2.27,.4-2.65,4.01-3.17,6.45-1.95,9.11,3.48,17.42,11.72,17.48Zm469.72-7.85c16.94-2.57,32.37-9.39,47-18.28,.29-.18,.56-.38,.82-.6,.71-.61,1.04-1.44,.64-2.26-.43-.87-1.31-.98-2.18-.61-.94,.39-1.88,.79-2.77,1.28-13.89,7.61-28.13,14.33-43.99,16.77-1.34,.21-3.01,.48-2.87,2.24,.15,1.96,1.94,1.37,3.36,1.48ZM437.3,78.33c2.57-1.81,4.84-3.04,2.8-5.63-2.17-2.75-4.55-5.18-8.56-3.64-1.92,.74-3.49,2.05-2.56,4.19,.92,2.12,2.79,1.23,4.37,.5,.86-.4,1.43-1.51,2.67-1.05,.43,2.58,.32,4.63-3.18,4.74-1.57,.05-3.01,.99-2.83,2.93,.16,1.71,1.65,2.06,2.99,2.23,3.88,.49,7.77,.89,11.52-.78,5.82-2.59,7.61-7.46,4.54-12.83-.96-1.68-2.16-4.07-4.63-2.24-2.17,1.61-1.3,3.55,.42,5.15,1.26,1.17,2.92,2.46,.86,4.09-2.04,1.61-4.19,3.46-8.4,2.34Zm224.97,473.7c1.33-.24,2.99-.56,4.66-.84,13.37-2.17,25.58-7.81,37.94-12.92,1.95-.8,6.15-.7,5.23-3.32-1.01-2.87-4.53-.55-6.67,.18-14.09,4.81-27.57,11.54-42.59,13.42-1.04,.13-2.24,.63-2.12,1.78,.2,1.83,1.87,1.56,3.55,1.69ZM335.98,213.93c-.09,3.67-2.58,7.31-6.17,9.28-3.62,1.99-7.07,2.09-10.4-.59-2.38-1.91-4.75-3.82-7.18-5.66-.99-.75-2.22-1.17-3.22-.08-1.17,1.29,0,2.18,.83,2.95,1.75,1.6,3.54,3.17,5.39,4.64,8.02,6.4,18.08,4.25,23.15-4.91,2.82-5.1,2.14-10.85-1.87-15.01-1.16-1.2-2.57-2.83-4.29-1.39-1.64,1.38,0,2.76,.88,3.9,1.59,2.04,2.96,4.14,2.89,6.86Zm371.84,483.19c8.54,.08,16.97-.89,25.26-2.89,1.77-.43,4.88-.47,4.11-3.29-.68-2.48-3.16-.93-4.84-.56-15.09,3.3-30.17,5.04-45.34,.46-1.43-.43-3.55-2.13-4.23,.5-.56,2.2,1.97,2.47,3.43,2.97,7,2.42,14.3,2.74,21.62,2.81Zm-59.05-182.1c.34-.03,.69-.01,1.01-.1,15.07-4.15,28.73-11.96,43.52-16.85,.99-.33,1.41-1.49,.97-2.58-.47-1.19-1.55-1.25-2.55-.93-2.58,.83-5.18,1.63-7.66,2.68-11.37,4.85-22.69,9.82-34.39,13.85-.64,.22-1.26,.5-1.87,.78-.8,.37-1.57,.93-1.42,1.86,.21,1.32,1.38,1.25,2.41,1.28ZM373.56,222.72c0-1.87,.17-3.76-.03-5.61-.59-5.38-.67-10.92-3.77-15.7-1.04-1.6-2.17-3.2-4.42-2.78-1.42,.27-2.47,1.23-2.88,2.62-.66,2.26,.74,3.44,2.5,4.42,1.68,.93,3.45,2.23,3.6,4.09,.8,9.72,4.94,19.84-2.9,28.7-.7,.79-1.33,1.7-.34,2.62,.87,.81,1.91,.48,2.84-.03,1.75-.96,2.59-2.67,3.41-4.34,2.19-4.43,1.99-9.24,1.99-14Zm20.56-79.92c.34,11.89-4.55,14.8-15.24,9.09-2-1.07-4.15-1.46-6.32-1.8-1.94-.3-4.51-1.16-4.87,1.82-.34,2.8,2.08,3.15,4.2,3.01,1.77-.12,3.35,.16,4.87,1.04,5.73,3.3,11.6,3.93,17.26,.1,5.74-3.9,4.83-9.97,4.43-15.72-.14-1.96-.12-4.97-2.53-4.84-3.27,.18-1.56,3.34-1.78,5.28-.08,.67-.01,1.35-.01,2.03Zm81.41-37.9c.95-4.41-1.57-5.57-3.66-6.98-1.18-.79-2.59-1.3-3.7-.07-1.3,1.43-.81,2.96,.66,3.9,2.75,1.76,2.15,3.69,.83,6.04-3.79,6.77-9.5,8.36-16.15,4.21-1.57-.98-2.95-2.27-4.47-3.36-.67-.48-1.62-1.08-2.25-.3-.44,.55-.63,1.71-.34,2.34,.54,1.2,1.35,2.36,2.31,3.26,5,4.66,11.05,5.22,17.14,3.23,6.21-2.03,7.7-8.1,9.63-12.28Zm221.89,751.33c2.71-.23,4.56-.49,6.42-.53,3.2-.07,4.26-.97,2.55-4.24-1.9-3.62-3.94-7.05-6.66-10.13-2.73-3.08-4.57-1.96-6.27,.88-1.59,2.65-.61,5.65-1.03,8.45-.72,4.82,1,6.74,5,5.57Zm-63.3-366.04c3.09,1.03,5.64-.08,8.05-1.21,10.26-4.83,20.47-9.76,30.65-14.72,1.32-.64,3.83-.94,2.42-3.41-1.17-2.04-2.85-.97-4.42-.22-10.68,5.12-21.39,10.18-32.06,15.32-1.76,.85-3.83,1.48-4.65,4.24Zm-487.52-16.62c-2.25-6.15-5.02-11.93-7.05-18.04-2.32-6.99-2.21-13.66,1.3-20.19,1.62-3.02,3.26-6.66,6.97-6.76,3.78-.1,4.79,3.92,6.12,6.73,3.96,8.37,5.28,17.52,7.47,26.42,.95,3.88,1.77,7.78,2.65,11.68,.17-10.2-2.64-19.78-4.98-29.43-1.12-4.62-2.66-9.16-5.19-13.24-3.3-5.33-7.57-5.65-11.41-.68-3.92,5.08-6.73,10.87-6.15,17.4,.85,9.66,5.3,18.1,10.26,26.12Zm570.31,210.49c3.69-.27,10.29-.74,16.89-1.28,1.11-.09,2.65-.11,2.36-1.87-.19-1.16-1.3-1.45-2.39-1.45-1.19,0-2.38,0-3.57,.1-12.56,1.06-25.1,1.51-37.59-.73-1.35-.24-3-.56-3.24,1.32-.22,1.75,1.39,2.14,2.75,2.34,7.24,1.1,14.53,1.44,24.78,1.56Zm-96.12-222.92c1.32-.47,3.15-.93,4.8-1.75,8.95-4.44,17.87-8.93,26.77-13.48,1.34-.69,3.87-1.03,2.67-3.35-1.01-1.96-2.9-.99-4.46-.2-9.53,4.79-19.08,9.55-28.61,14.33-.91,.45-1.83,.89-2.69,1.42-.74,.46-1.36,1.12-1.05,2.08,.33,1.01,1.24,.95,2.57,.94Zm24.82,388.88c.05,7.72,.05,7.77,6.48,7.01,2.63-.31,6.64,.57,7.48-1.7,1.12-3.04-2.13-5.75-4.11-8.16-2.04-2.47-4.75-5.06-8.16-3.94-3.5,1.15-.98,4.75-1.69,6.79Zm-21.78,8c5.05-.06,9.7-1.47,14.43-.78,1.61,.23,2.15-.61,2.03-2.06-.15-1.86-.22-3.74-.53-5.57-.91-5.41-3.99-6.73-8.61-3.61-4.13,2.79-6.25,6.88-7.33,12.02ZM357.04,112.69c2.64,.09,5.03-.6,7.16-2.2,1.15-.86,2.51-2.71,1.91-3.28-3.25-3.09-3.45-7.78-6.24-11.01-.56-.65-1.46-.87-2.32-.38-.84,.47-1.33,1.42-.93,2.13,1.36,2.48,.13,5.83,2.9,7.88,1.9,1.41,.46,2.28-.93,2.75-3.26,1.1-5.76-.94-6.41-5.17-.27-1.74-.53-3.53-2.88-3.38-1.35,.09-2.05,1.01-2.16,2.39-.43,5.18,4.47,10.27,9.93,10.28Zm172.92,349.26c-7.4,.26-8.83,1.69-8.48,8.3,.16,3.03,1.38,5.32,4.76,5.42,3.6,.11,9.39-4.57,8.8-7.27-.63-2.89,.32-7.55-5.08-6.44Zm-168.91-243.85c-.05-6.4-7.12-13.31-13.04-13.23-.72,0-1.36,.06-1.72,.72-.46,.85-.29,1.79,.39,2.3,1.2,.9,2.56,1.58,3.88,2.32,6.38,3.58,7.78,6.88,5.69,13.82-1.15,3.83-2.67,7.42-7.34,8.11-.9,.13-1.83,.56-1.67,1.52,.19,1.13,1.34,1.63,2.37,1.38,1.28-.32,2.6-.83,3.67-1.58,5.45-3.83,7.26-9.52,7.78-15.36Zm19.2-94.92c-.02-.34,0-.69-.08-1.01-.59-2.28,.71-6.47-2.56-6.22-3.84,.29-1.03,3.97-1.18,6.16-.05,.68,.06,1.36-.01,2.03-.41,3.8-1.03,7.47-5.29,9.06-4.06,1.52-7.29,.27-10.05-2.78-.34-.38-.68-.78-1.1-1.06-1.14-.76-2.38-1.68-3.61-.3-1.24,1.4-.1,2.45,.78,3.51,3.87,4.68,9.21,6.27,14.6,4.31,5.5-2,8.64-7.05,8.51-13.71Zm156.74,355.67c.28,5.32-2.71,9.5-4.11,14.12-.85,2.8-3.92,6.12-1.89,8.26,1.81,1.91,5.73-.47,8.76-.42,1.72,.03,2.5-.83,2.21-2.55-1.09-6.62-1.86-13.33-4.97-19.41Zm130.13-18.41c-1.08-2.69-2.95-1.39-4.5-.61-8.64,4.36-17.25,8.79-25.84,13.26-1.4,.73-4.05,1.23-3.24,3.17,.98,2.34,3.34,.66,4.87,.05,9.33-3.71,17.93-8.91,26.81-13.55,.92-.48,1.81-.98,1.9-2.33Zm-429.6,192.81c-3.23-2.52-5.86-1.49-8.21,.37-2.58,2.05-2.93,4.85-1.84,7.85,1.66,4.59,9.02,8.57,13.82,7.46,1.89-.43,3.77-1.1,3.24-3.64-.44-2.14-1.99-2.56-3.91-2.05-3.96,1.06-6.72-.45-8.1-4.15-1.5-4.02,2.6-3.92,4.99-5.84Zm441.9,202.98c8.42-.2,8.48-.21,7.47-7.44-.27-1.91,.04-4.42-2.38-5.19-2.47-.79-4.72,.22-6.42,2.06-1.13,1.22-2.18,2.61-2.91,4.1-3.25,6.63-3.2,6.65,4.24,6.47ZM457.29,92.38c-.06-2.59,.66-6.52-2.9-6.28-3.47,.23-1.8,3.99-1.62,6.31,.5,6.46-3.35,8.95-9.7,6.18-1.65-.72-3.57-2.29-4.78,.19-1.35,2.76,1.21,3.41,3,4.2,9.04,3.96,15.72-.48,15.99-10.6Zm-130.22,590.12c2.47-.39,6.13-.14,5.76-3.88-.43-4.4-3.65-1.07-5.49-1.01-4.82,.16-7.84-3.77-6.42-8.97,.39-1.44,1.25-2.76,1.88-4.13,.52-1.13,.91-2.31-.49-3.07-1.08-.59-1.92,.17-2.7,.8-2.82,2.27-4.44,9.12-2.85,13.24,1.75,4.54,5.25,6.87,10.31,7.02Zm200.33,.74c-4.62,.03-8.84,1.25-10.91-3.05-2.02-4.2,.52-7.44,2.99-10.58,.8-1.02,2.02-2.25,.76-3.57-1.37-1.43-2.92-.48-4.12,.44-3.91,3-5.88,7.09-5.46,11.97,.35,4.09,2.93,6.83,6.85,8,3.53,1.06,6.93,1.06,9.89-3.22Zm-95.34-20c-1.91,.62-2.83,.96-3.76,1.22-5.67,1.59-9.36-1.58-8.68-7.45,.38-3.3,2.51-5.43,4.88-7.47,.87-.75,2.83-1.44,1.53-3.1-1.05-1.34-2.5-.48-3.72,.13-6.1,3.03-8.84,11.75-5.53,17.6,3.5,6.18,10.7,6.26,15.28-.92Zm74.13-38.03c.13,7.16,7.07,10.68,13.54,6.8,1.39-.83,3.57-1.68,2.83-3.65-.85-2.29-2.85-.72-4.36-.41-2.04,.41-4.06,.81-5.64-1.05-1.63-1.92-1.55-4.01-.47-6.16,.38-.76,.78-1.5,1.14-2.27,.44-.96,.77-2.03-.22-2.76-1-.74-1.99-.04-2.74,.59-2.76,2.31-4.11,5.31-4.07,8.91Zm24.82-563.66c6.33,.05,11.17-3.34,13.19-9.28,.49-1.45,1.22-3.28-.37-4.18-1.93-1.1-2.53,1.14-3.32,2.23-4.65,6.35-6.71,6.95-13.91,3.6-1.34-.62-2.66-1.14-3.63,.25-.87,1.25-.45,2.61,.53,3.74,1.98,2.3,4.35,3.79,7.51,3.65Zm100.53,349.68c-1.37-2.41-3.08-1.29-4.65-.28-7.4,4.76-14.66,9.74-22.57,13.66-1.14,.56-2.94,1.39-2.36,2.86,.76,1.94,2.65,.84,3.89,.33,8.66-3.56,16.37-8.78,24.03-14.07,.83-.57,1.59-1.29,1.66-2.5Zm-329.92,446.93c2.63-.73,6.82,.48,7.69-2.03,.9-2.61-2.92-4.48-4.82-6.55-.56-.62-1.26-1.14-1.97-1.59-2.37-1.53-5.08-4.33-7.64-2.58-2.55,1.75,.69,4.45,1.02,6.8,.12,.83,.57,1.6,.7,2.43,.45,2.92,2.07,4.09,5.02,3.53Zm8.01-660.6c-.09,1.55-.28,3.12-1.81,3.96-2.06,1.14-3.56,0-4.87-1.46-1.35-1.49-2.94-1.98-4.39-.47-1.76,1.83-.02,3.1,1.22,4.15,2.38,2.03,5.01,3.76,8.3,2.26,3.53-1.61,5.51-4.47,5.68-8.37,.16-3.75-1.14-6.98-4.07-9.42-.65-.54-1.55-.69-2.34-.05-.81,.66-.55,1.45-.29,2.3,.72,2.42,2.62,4.41,2.57,7.11Zm264.12,150.71c-1.2-2.66-3.06-1.57-4.76-.36-6.1,4.36-12.48,8.2-19.34,11.24-1.29,.57-3.48,.89-2.71,2.93,.83,2.2,2.93,1.3,4.43,.7,7.46-2.96,14.16-7.31,20.75-11.81,.81-.55,1.69-1.2,1.63-2.71Zm-48.38-22.92c7.61-2.72,14.9-7.2,21.9-12.21,.9-.64,.94-1.74,.09-2.67-.98-1.08-2.13-1.04-3.18-.31-6.53,4.55-13.47,8.36-20.69,11.68-.92,.42-1.75,1.21-1.36,2.4,.41,1.26,1.6,.94,3.24,1.1Zm-101.95,385.32c-1.48-.71-2.37-1.16-3.28-1.58-5.09-2.39-6.24-6.71-2.96-11.13,.4-.54,.97-.96,1.38-1.49,.91-1.21,2.2-2.6,.73-4-1.43-1.35-3.01-.09-4.06,.84-3.81,3.35-5.77,7.59-4.74,12.71,1.07,5.32,7.13,7.72,12.92,4.66ZM283.88,174.17c1.79-1.39,2.57-3.18,2.14-5.38-.43-2.19-1.04-4.32-3.13-5.55-.55-.32-1.42-.42-1.74,.38-.8,1.99-.48,3.95,.35,5.89,.51,1.18,1.62,2.54,.17,3.66-1.35,1.05-2.95,.47-4.32-.23-.88-.45-1.59-1.25-2.41-1.83-1.08-.76-2.24-.92-3.22,.1-1.02,1.07-.49,2.17,.17,3.23,3.28,5.29,11.42,6.38,16.33,2.19-.86-1.57-2.95-.55-4.34-2.45Zm326.56,289.53c3.12-2.21,4.2-5.43,5.33-8.55,3.52-9.64-.13-18.1-9.57-22.01-1.97-.82-5.07-3.25-6.14-.64-.95,2.31,2.89,3.06,4.92,3.98,8.02,3.65,10.47,8.58,8.28,17.14-.87,3.38-1.87,6.72-2.81,10.08ZM528.73,38.82c-1.29-.97-.56-3.92-3.26-3.59-.94,.12-1.54,.75-1.72,1.61-.4,1.91,.58,2.77,2.18,3.92,1.86,1.34,1.42,3.99-.42,5.24-3.53,2.39-1.01,3.1,.87,3.89,4.57,1.92,6.68,.51,6.94-4.33,.05-.95,.65-1.87,.97-2.81,.69-2.09,1.68-4.45-.43-6.05-2.39-1.8-3.13,1.79-5.12,2.11Zm10.29,311.04c.58-.1,1.28-.13,1.91-.34,7.95-2.66,14.89-7.12,21.46-12.21,.95-.73,1.88-1.72,.73-2.95-1.22-1.3-2.44-.51-3.61,.26-6.79,4.41-13.27,9.36-21.15,11.81-1.01,.32-1.89,1-1.79,2.15,.13,1.42,1.43,1.1,2.45,1.28Zm-330.69,7.91c4.2,6.74,8.37,12.29,8.68,19.66,.3,7.32-2.24,13.84-4.76,21.54,12.23-13.24,8.39-36.84-3.91-41.2Zm384.31,74.71c4.37-10.13,.61-23.86-8.53-31.2-1.19-.96-2.63-3.02-4.21-.93-1.28,1.7,.8,2.68,1.86,3.58,6.65,5.66,9.48,13.01,9.9,21.54,.11,2.32-.22,4.74,.99,7Zm-106.59,269.8c-8.52-1.36-9.85-3.69-7.14-11.16,.46-1.27,1.06-2.5,1.57-3.76,.6-1.47,1.15-3.11-.74-3.93-1.86-.81-2.72,.74-3.5,2.08-1.91,3.3-2.73,6.94-3.03,10.69-.24,3.02,.28,5.81,3.25,7.46,3.16,1.76,6.08,1.34,9.6-1.38Zm28.48,94.05c-1.44-7.57-3.08-16.22-4.74-24.86-.2-1.05-.67-2.19-1.85-2.03-1.47,.21-1.68,1.67-1.48,2.82,1.53,8.66,3.15,17.3,4.79,25.95,.19,1.02,.75,2.18,1.91,2.04,1.55-.19,1.42-1.62,1.37-3.92Zm-120.37,62.52c1.87-.73,4.91,.79,5.76-1.38,.74-1.91-1.45-3.92-2.8-5.61-1.25-1.56-2.57-3.12-4.1-4.38-1.5-1.23-3.5-1.11-4.4,.6-1.57,3-.73,6.34,.12,9.32,.76,2.64,3.46,1.05,5.41,1.44Zm-14.38-597.11c-3.23,8.61-4.12,13.37-3.48,17.74q11.86-4.03,5.48-14.7c-.5-.83-1.06-1.62-2.01-3.04Zm241.51,183.35c2.25,1.09,4.11,.27,5.96-.62,6.25-3.01,12.38-6.23,18.21-9.99,1.21-.78,3.33-1.4,2.43-3.24-1.08-2.21-2.93-.77-4.33-.02-6.41,3.42-12.78,6.91-19.16,10.4-1.3,.71-2.85,1.21-3.11,3.47Zm-336.96,413.93c2.13-.74,6.68,1.05,6.97-1.19,.44-3.43-3.17-5.96-6.25-7.87-.57-.35-1.2-.63-1.84-.85-1.45-.49-2.8-.17-3.56,1.13-1.52,2.65-3.13,5.8-2.27,8.52,.55,1.75,3.94,.12,6.04,.31,.17,.02,.34-.02,.9-.06Zm298.62-501.16c-.53-.74-.81-1.42-1.31-1.76-1.38-.94-2.56-.15-3.7,.64-5.42,3.79-11,7.3-17,10.11-1.37,.64-3.25,1.24-2.25,3.18,.94,1.82,2.72,.81,4.06,.26,6.61-2.73,12.49-6.75,18.47-10.58,.65-.42,1.1-1.16,1.73-1.85ZM205.54,640c0,5.32,4.42,9.35,8.5,8.14,.75-.22,1.61-.72,1.99-1.35,.58-.95-.41-1.38-1.08-1.87-6.06-4.41-6.13-4.9-1.49-11.38,.9-1.26,2.18-2.49,.38-3.85-1.48-1.12-2.95-.37-4.08,.75-2.78,2.74-3.9,6.23-4.22,9.56Zm312.59-325.97c7.23-2.33,14.8-5.71,21.82-10.27,.9-.58,1.49-1.56,.69-2.58-.69-.89-1.84-1.08-2.78-.53-6.92,4.02-14.28,7.12-21.61,10.28-1.02,.44-1.69,1.33-1.15,2.45,.4,.83,1.37,.85,3.02,.66Zm78.61,101.64c3.65,.24,20.53-10.13,21.98-13.13,.42-.87,.43-1.63-.3-2.28-.76-.7-1.62-.46-2.33,.03-6.46,4.39-12.82,8.91-19.83,12.43-.77,.39-1.31,1.24-.72,2.12,.32,.48,1.02,.72,1.2,.84Zm-161.89,442.22c2.01-.6,5.06,.85,5.96-1.42,.77-1.96-1.54-3.89-2.79-5.67-1.27-1.81-2.63-3.56-4.63-4.6-1.25-.65-2.98-1.08-3.64,.32-1.55,3.25,.1,6.63,.44,9.9,.28,2.73,3.01,1.07,4.67,1.48Zm-68.65,1.05c5,0,9.82,0,14.63,0,1.16,0,2.28-.45,1.61-1.73-1.5-2.86-3.29-5.64-6.59-6.7-2.91-.93-4.86,.87-6.43,2.95-1.18,1.56-2.76,2.93-3.22,5.48Zm169.82-64.02c-2.62-8.08-5.41-16.75-8.26-25.39-.34-1.02-1.17-1.82-2.33-1.3-1.14,.51-1.01,1.73-.71,2.66,2.77,8.5,5.6,16.98,8.44,25.46,.27,.81,.84,1.53,1.86,1.3,1.14-.26,.83-1.27,1-2.72Zm-171.28-98.52c.12,3.09,1.06,5.52,3.61,7.08,.94,.57,1.99,.45,2.88-.13,.79-.51,1.04-1.26,.42-2.13-3.68-5.1-1.09-8.8,2.75-12.2,1.01-.9,2.37-1.83,1.13-3.3-1.04-1.23-2.5-.74-3.74-.11-4.49,2.29-6.37,6.27-7.05,10.79Zm275.59-168.65c7.64-11.09,2.69-24.48-4.74-31.45-.76-.71-1.74-1.35-2.67-.44-.97,.96-.12,1.92,.5,2.63,3.54,4.01,6.14,8.47,7.21,13.77,1.02,5.04,.18,10.07-.31,15.49Zm-64.81-140.1c.33-.05,.69-.03,1-.15,6.42-2.34,11.96-6.2,17.53-10.03,.76-.52,1.01-1.32,.53-2.21-.74-1.36-2-1.38-3.06-.79-5.73,3.23-11.41,6.56-17.07,9.9-.73,.43-1.22,1.2-.95,2.15,.29,1.01,1.18,1.06,2.03,1.13ZM431,38.01c1.69,.17,2.88-.67,3.96-1.84,1.12-1.2,1.84-2.49,.94-4.08-.84-1.48-1.86-3.06-3.59-3.35-2.07-.35-2.32,1.39-2.51,2.98-.12,.97-.75,1.55-1.74,1.3-1.69-.42-.75-1.44-.43-2.31,.52-1.42,.24-2.69-.87-3.68-.68-.61-1.52-.67-2.3-.06-1.14,.89-1.11,2.05-.55,3.18,.47,.95,.84,1.66-.08,2.67-2.22,2.42-.35,3.67,1.69,4.34,1.74,.57,3.65,.6,5.49,.85Zm46.05,325.69c-.19-1.96-1.28-2.9-2.22-3.77-2.2-2.04-4.22-6.42-6.52-5.66-2.88,.96-3.03,5.57-4.08,8.74-.92,2.78-.39,3.84,2.71,3.01,3.25-.87,6.56-1.51,10.11-2.32Zm126.48,21.9c-.1-1.3-.59-1.97-1.42-2.32-1.39-.57-2.26,.47-3.09,1.23-4.12,3.79-8.42,7.35-13.04,10.52-1.18,.81-3.14,1.67-1.87,3.46,1.14,1.59,2.86,.35,4.13-.31,5.3-2.79,9.8-6.65,14.04-10.82,.57-.56,.95-1.32,1.25-1.76Zm-54.22,402.48c-1.89-7.6-3.83-15.63-6.75-23.38-.35-.92-.96-2.03-2.19-1.5-1.4,.6-1.09,2.01-.77,3.11,2.18,7.63,4.42,15.24,6.65,22.86,.28,.96,.58,2.15,1.87,1.88,1.24-.26,1.14-1.49,1.2-2.96Zm-13.97-450.94c6.94-1.57,13.27-5.09,19.27-9.3,.91-.64,1.11-1.75,.25-2.66-1.01-1.08-2.13-.68-3.21,0-5.48,3.41-11.04,6.62-17.42,8.1-1.23,.29-2.4,.94-2.07,2.39,.31,1.37,1.62,1.54,3.18,1.47Zm24.54,421.88c-2.17,1.02-1.41,2.73-.72,4.23,3.02,6.6,6.11,13.17,9.2,19.74,.55,1.18,1.04,2.97,2.74,2.26,1.7-.71,.8-2.33,.29-3.51-3.05-6.95-6.15-13.89-9.25-20.82-.42-.93-.95-1.82-2.25-1.91Zm-9.46-169.52c1.9,.06,3.7-.41,5.32-1.32,1.16-.65,2.49-1.46,1.91-3.11-.52-1.46-1.88-1.17-3.03-.92-3.99,.85-6.83-.77-9.03-4-.71-1.04-1.42-2.67-3.08-1.73-1.32,.75-1.22,2.23-.96,3.63,.84,4.46,4.37,7.46,8.86,7.46Zm-150.46,88.33c.44,4.2,2.63,7.39,6.6,9.32,.92,.45,2.02,.56,2.82-.29,1.03-1.1,.05-1.86-.64-2.52-3.84-3.62-4.55-7.72-2.04-12.38,.44-.83,.41-1.71-.33-2.29-.75-.59-1.6-.32-2.35,.18-2.78,1.85-3.84,4.59-4.06,7.98Zm186.79,100.12c-.12-1.94-9.37-21.05-10.98-22.75-.6-.63-1.25-1.32-2.12-.78-.79,.49-.94,1.48-.51,2.26,3.98,7.25,7.53,14.71,10.72,22.34,.31,.75,1.01,1.45,2,1.05,.94-.38,.98-1.25,.9-2.13Zm119.09-61.01c.01-.09,.02-.18,.03-.27,.68,.04,1.36,.13,2.03,.1,1.75-.07,4.42,.79,4.55-1.76,.13-2.71-2.68-1.86-4.35-2.05-5.23-.58-10.46-1.03-15.7-1.52-1.25-.12-3-1.18-3.48,.67-.48,1.85,1.28,2.68,2.8,2.92,4.69,.74,9.41,1.29,14.11,1.92Zm-179.71-368.12c3.81-7.9-2.01-20.39-9.93-22.8-.88-.27-1.77-.41-2.18,.49-.2,.46,.02,1.48,.41,1.77,6.88,5.1,11,11.77,11.71,20.54Zm40.21,48.89c.96-4.93,1.6-8.75,1.03-12.67-.97-6.62-5.64-11.1-11.81-11.28-1.28-.04-3.16-.5-3.51,1.12-.41,1.86,1.64,1.88,2.81,2.11,6.76,1.33,9.57,5.7,10.07,12.23,.19,2.46-.35,5.07,1.41,8.49Zm60.91,91.54c5.91-11.98,.3-24.24-11.15-23.26,9,5.69,12.42,13.42,11.15,23.26Zm-52.34,90.87c-.09-7.26-5.48-12.14-11.18-10.98-1.19,.24-2.46,.52-2.46,2.02,0,1.24,1.18,1.56,2.14,1.77,5.13,1.09,8.14,3.83,7.6,9.46-.08,.84-.05,1.76,1.04,1.95,.95,.16,1.68-.37,1.99-1.19,.46-1.24,.74-2.55,.87-3.02Zm67.09-44.99c13.44,5.08,12.91,14.98,9.83,25.91,4.12-6.41,6.45-12.99,2.29-20.03-2.5-4.23-6.16-7.04-12.12-5.88Zm-145.79,165.56c.18,3.01,.89,5.81,4.06,7.01,1.68,.63,3.41,.37,4.51-1.34,1.11-1.72-.36-2.47-1.42-3.22-2.2-1.56-2.32-3.58-1.47-5.86,.57-1.52,3.03-3.2,0-4.5-2.68-1.14-3.51,1.2-4.42,3-.76,1.52-1.35,3.13-1.25,4.9ZM153.15,440.92c-1.29-1.6-2.51-2.97-4.75-1.83-2.4,1.22-3.14,3.39-3.43,5.86-.97,8.26,6.72,29.56,12.97,35.77,.21-2.11-1.23-3.49-2.06-5.08-4.59-8.79-8.13-17.94-9.08-27.88-.53-5.55,.89-6.93,6.34-6.84Zm383.33,171.09c4.63,0,9.24-5.79,8.42-10.14-.19-1.03-.55-2.04-1.79-2.14-1.35-.11-1.53,.97-1.84,1.96-1.98,6.34-2.11,6.39-8.28,3.94-1.03-.41-2.18-1.54-3.11-.13-.59,.9,0,2.01,.6,2.83,1.58,2.16,3.67,3.47,6,3.66Zm-38.04,189.06c1.43-8.66,.06-17.12-1.05-25.6-.12-.89-.7-1.88-1.57-1.66-1.32,.33-1.66,1.64-1.52,2.89,.52,4.9,1.07,9.8,1.68,14.69,.41,3.29-.11,6.78,2.46,9.67Zm158.52-206.23c.2,.09,.4,.18,.6,.27,.94-1.55,2.03-3.04,2.81-4.67,3.7-7.77,3.94-15.65,.3-23.51-.62-1.33-1.56-3.38-3.15-2.7-2.11,.89-.22,2.53,.3,3.7,2.45,5.61,3.12,11.42,1.85,17.37-.69,3.22-1.79,6.36-2.71,9.54ZM432.73,47.91c-1.22,.38-1.6,1.47-1.73,2.7-.34,3.29-.45,6.38,2,9.26,.99,1.16,1.49,2.68,3.2,2.67,1.77,0,2.62-1.4,3.24-2.86,.64-1.51,.83-3.17-.72-4.12-2.52-1.55-4.85-3.02-4.4-6.55,.08-.62-.64-1.15-1.58-1.1Zm223.94,554.48c12.65,5.71,10.03,15.79,8.6,25.52,4.57-7.11,4.86-14.53,1.26-21.76-1.64-3.28-4.37-6.74-9.85-3.76Zm15.26,62.62c5.55,8.15,7.15,16.63,4.34,25.84,5.13-6.42,4.9-13.37,2.14-20.39-.98-2.5-1.58-6.12-6.48-5.45Zm-258.39,192.73c2.14,0,3.59,.02,5.04,0,6.22-.1,7.58-2.27,4.84-7.76-1.15-2.3-2.64-3-4.64-.83-2.18,2.37-3.53,5.18-5.24,8.59Zm188.65-84.84c-1.12-7.99-4.7-14.94-8.77-21.69-.43-.71-1.11-1.45-2.06-.91-1.46,.83-.81,2-.29,3.07,2.17,4.39,4.28,8.81,6.57,13.14,1.2,2.28,1.66,5.08,4.56,6.4ZM514.55,111.28c-.16-.33-.26-.98-.62-1.17-5.06-2.74-10.15-5.43-15.26-8.08-.66-.34-1.37,0-1.73,.64-.47,.86-.15,1.81,.5,2.31,4.46,3.43,9.42,6,14.62,8.09,1.32,.53,2.31-.07,2.48-1.79Zm-31.42,542.17c-.04,1.8,.61,3.34,1.89,4.57,1.62,1.55,3.6,2.29,5.53,.91,2.33-1.67,.69-3.3-.6-4.63-1.39-1.43-1.65-2.86-.69-4.59,.61-1.12,.95-2.25-.55-3-1.51-.75-2.58-.04-3.54,1.09-1.39,1.63-1.91,3.56-2.03,5.64Zm12.12-267.76c-2.54-2.84-3.67-7.8-6.85-7.74-2.64,.05-3.09,5.08-4.06,8.1-.76,2.34,.08,3.18,2.51,2.34,2.55-.89,5.14-1.66,8.41-2.7Zm-144.16,278.5c-3.89,2.64-4.66,5.42-3.77,8.55,.97,3.43,3.14,5.97,6.78,6.89,1,.25,2.21,.39,2.85-.47,.79-1.06-.2-1.92-.96-2.51-3.81-2.9-5.16-6.89-4.9-12.47Zm-20.64-448.32c-.79-2.52-.46-6.61-5.39-4.57-1.29,.53-1.84-.27-2.6-.86-1.21-.95-2.43-1.99-4.09-1.08-.81,.44-1.15,1.25-.84,2.16,.7,2.05,2.83,3.41,4.27,2.86,3.09-1.18,3.22,.22,3.46,2.5,.17,1.62,1.1,2.99,3.02,2.65,1.83-.32,2.35-1.73,2.17-3.65Zm108.59-74.78c-.25-.31-.56-1.07-1.09-1.29-4.38-1.81-8.8-3.52-13.21-5.24-.71-.28-1.49-.08-1.74,.56-.2,.53-.08,1.33,.2,1.86,1,1.9,12.09,6.93,14.06,6.46,1.07-.25,1.9-.73,1.77-2.34Zm-186.2,501.05c.1,2.7,.74,5.18,2.42,7.16,1.15,1.36,2.97,1.89,4.6,.91,1.64-.99,.41-2.36,0-3.57-.59-1.76-1.11-3.54-1.72-5.28-.56-1.61-.22-4.28-3.02-3.71-2.27,.47-2.09,2.76-2.28,4.5Zm34.23,14.02c-.08-1.36-.91-1.99-2.08-2.53-2.44-1.12-4.79-2.41-7.18-3.63-.88-.45-1.81-1.2-2.74-.33-1.02,.96-.86,2.34-.17,3.26,2.44,3.23,5.89,4.95,9.78,5.7,1.71,.33,2.36-.89,2.39-2.47Zm287.23-49.19c-4.06,.6-7.51,1.5-7.8-3.51-.06-1.06-.86-1.84-2.09-1.69-1.2,.15-1.64,1.1-1.76,2.13-.37,3.09-.61,6.4,2.89,7.8,3.97,1.6,6.66-.34,8.77-4.74Zm-69.02,44.88c-5.18,4.34-5.55,10.69-1.12,13.31,1.26,.75,2.51,1.09,3.71-.05,.9-.85,.82-1.89,.11-2.73-2.53-2.98-2.75-6.62-2.71-10.54Zm-24.62,143.78c.1-.02,.19-.03,.29-.05-.5-2.82-.9-5.66-1.55-8.45-.32-1.39-.7-3.49-2.71-2.9-1.7,.49-.91,2.32-.53,3.51,.94,2.96,.81,6,1.05,9.03,.14,1.8-1.06,4.95,1.59,4.95,2.33,0,1.44-3.24,1.86-5.08,.07-.32,.01-.67,.01-1.01ZM382.18,192.36c-.5,.03-1.02,0-1.51,.09-1.47,.26-3.54,.39-3.59,2.08-.08,2.23,2.11,1.49,3.45,1.54,3.24,.12,6.3,.8,9.23,2.22,1.1,.53,2.59,1.66,3.39-.26,.66-1.58-.71-2.48-1.86-3.14-2.81-1.61-5.83-2.58-9.11-2.52Zm288.09,464c5.35-6.96,5.43-15.27,1.18-20.41-.81-.98-1.77-1.86-3-1.29-1.17,.54-.86,1.78-.26,2.63,3.82,5.47,4.28,11.49,2.08,19.07Zm-475.17-57.75c-3.36-2.12-3.84-4.86-3.17-8.03,.35-1.62-.23-3.26-2.01-3.56-1.89-.32-2.47,1.42-3,2.84-1.98,5.3,1.64,9.71,8.17,8.75Zm307.86-202.86c-2.14,4.17-4.41,7.98-3.07,10.94,1.12,2.48,5.1-.42,7.85-.18,.19,.02,.41-.42,.94-.98-1.69-2.9-3.46-5.91-5.72-9.78Zm-111.48-159.58c-5.31,2.95-10.58,5.8-16.5,7.17-.84,.19-1.64,.65-1.3,1.75,.24,.77,.92,.93,1.63,.78,6.43-1.45,12.79-3.02,16.17-9.69Zm51.17,460.41c-2.08,1.25-3.61,3.38-4.3,6.08-.58,2.28-.24,4.42,1.78,5.92,.9,.67,1.92,.39,2.83-.23,1.06-.72,1.89-1.72,1.37-2.97-1.02-2.48-1.34-4.79,.08-7.25,.55-.95-.21-1.51-1.76-1.55Zm71.94-267.43c1.37-1.16,5.21,.44,5.12-2.77-.07-2.61-1.46-6.94-3.97-6.83-2.71,.11-2.93,4.35-3.47,7.14-.3,1.57-.14,2.76,2.32,2.46Zm-211.26,259.5c1.32-.11,2.92,.29,3.65-1.13,.84-1.63-1.1-1.68-1.73-2.5-.6-.78-1.14-1.65-1.52-2.56-.56-1.32-.42-3.39-2.58-3.04-1.92,.31-2.58,2.18-2.78,3.82-.44,3.59,1.44,5.31,4.96,5.41Zm164.26-47.48c-2.44,2.19-3.55,4.25-2.56,6.98,.98,2.69,3.27,3.74,5.87,4.25,1.08,.21,2.08-.12,2.55-1.17,.4-.91-.21-1.7-.9-2.15-2.69-1.75-3.62-4.7-4.96-7.9Zm69.86-270.76c1.55-3.47,2.1-6.94,1.88-10.51-.17-2.74-.55-5.43-2.69-7.43-.44-.41-1.2-.7-1.8-.67-.87,.03-1.06,.96-.74,1.49,3.2,5.31,1.6,11.53,3.35,17.13Zm-336.89,251.67c-.69-1.69,.18-4.8-2.93-4.83-2.26-.02-3.4,2.12-3.51,4.3-.12,2.36,.65,4.65,3.4,4.7,2.22,.04,2.92-1.94,3.04-4.17ZM506.56,320.01c4.87-7.69,2.69-14.98-4.64-16.17,5.19,4.3,4.73,9.65,4.64,16.17Zm-86.96-162.75c.02-2.33-.95-3.75-3.23-3.74-2.16,.01-3.63,1.41-3.52,3.46,.13,2.38,2.03,4.29,4.18,4.39,2.27,.1,2-2.61,2.57-4.11Zm-181.07,476.22c-1.7,.59-4.88,.37-4.42,2.36,.72,3.1,4.52,2.72,7.09,3.52,1.41,.44,2.91-.57,2.69-2.19-.4-3.01-3.16-3.04-5.37-3.7ZM403.53,167.78c1.34-.58,3.75-.22,3.81-2.82,.05-2.14-1.28-3.6-3.48-3.45-2.3,.15-4.7,1.39-4.87,3.66-.17,2.2,2.36,2.35,4.53,2.61Zm-13.24,503.46c-.8-3.19-3.53-5.06-3.59-8.11-.01-.72-.62-1.21-1.37-1.2-.96,0-1.44,.71-1.84,1.49-1.82,3.55,1.15,7.3,6.79,7.82Zm137.24-225.1c-.76,2.52-1.38,4.41-1.89,6.33-.28,1.04-1.48,2.28-.19,3.15,1.31,.88,2.95,.23,4.34-.21,1.56-.49,1.19-1.86,.73-2.93-.83-1.9-.59-4.27-2.98-6.34Zm-341.75-23.81c3.62-3.39,5.9-11.36,4.48-15.58-2.97,4.9-3.95,9.86-4.48,15.58Zm163.01-202.07c-1.62,1-3.09,2.25-2.53,4.35,.38,1.41,.41,3.84,2.8,3.26,1.88-.46,2.95-2.33,2.93-4.24-.02-1.8-1.28-2.98-3.21-3.38Zm16.08,26.3c-9.33-1.46-10.91-.84-11.42,3.9,3.86-1.32,7.64-2.61,11.42-3.9Zm101.67-138.85c-.09-2.24-1.77-2.72-3.45-2.91-1.99-.23-2.58,1.17-2.64,2.86-.07,1.94,.72,3.37,2.82,3.35,2.01-.02,2.74-1.63,3.27-3.29Zm14.34,533.83c-.26-1.49-1.07-3.13-3.38-3-1.77,.1-2.69,1.42-2.51,3.11,.21,2.03,1.9,2.6,3.62,2.81,1.73,.21,2.4-.78,2.27-2.92Zm-31.23-.42c-1.45,.13-2.26,.99-2.18,2.31,.12,1.95,.88,3.78,3.12,3.9,1.48,.08,1.67-1.38,1.72-2.59,.08-1.93-.75-3.19-2.66-3.62Zm-16.09-552.7c-1.46,.03-2.34,.86-2.35,2.14-.03,1.84,.2,3.96,2.43,4.34,1.36,.23,2.55-.91,2.45-2.53-.1-1.74-.84-3.2-2.53-3.94Zm107.54,583.46c-.32-1.64-1.11-2.94-2.98-2.74-1.66,.18-2.19,1.49-1.93,2.99,.27,1.55,.93,3.12,2.85,2.88,1.6-.2,1.86-1.73,2.06-3.12ZM427.33,55.74c-1.61,.07-2.44,.92-2.16,2.29,.38,1.87,1.13,3.66,3.56,3.55,1.02-.05,2.39-.44,2.24-1.53-.29-2.1-1.67-3.6-3.64-4.3Zm-44.67,91.52c-.3-1.61-.75-3.44-3.12-3.67-1.3-.13-1.82,.81-1.75,1.94,.13,1.93,.65,3.83,2.82,4.29,1.54,.33,1.95-.96,2.04-2.57Zm-29.35-62.82c-.42-1.71-1.28-3.4-2.51-3.15-3.32,.68-.06,4.6-2.54,6.06-.33,.19,.63,1.61,.92,1.36,1.53-1.34,2.85-2.91,4.13-4.27Zm13.23,43.3c1.28,.07,1.81-.71,1.92-1.8,.16-1.57-.13-3.18-1.72-3.77-1.5-.56-2.04,.71-2.13,1.97-.12,1.57,.19,2.99,1.93,3.61Z"/>
  <path d="M375.74,342.87c-5.01-10.53,7.93-29.73,19.49-29.42-4.83,3.48-9.8,6.69-13.06,11.9-3.26,5.2-4.12,11.26-6.43,17.52Z"/>
  <path d="M504.47,225.04c-.02,13.86-12.24,25.98-26.11,25.89-13.52-.09-24.35-11.53-24.21-25.57,.14-13.77,12.18-26.31,25.3-26.35,13.87-.05,25.04,11.57,25.02,26.04Z"/>
  <path d="M571.37,180.31c-14.2-.03-26.23-12.14-26.22-26.37,.01-14.06,12.86-27.56,26.15-27.49,14.37,.08,25.71,12.35,25.81,27.93,.09,14.31-11.49,25.97-25.75,25.93Z"/>
  <path d="M423.55,623.03c-.27,3.76-1.56,7.21-4.56,9.77-2.56,2.19-5.6,2.74-8.48,.89-3.11-2-4.29-5.19-3.76-8.83,.23-1.57,1.19-2.92,2.97-3.05,1.76-.12,2.1,1.41,2.55,2.67,.43,1.21,.31,3.06,2.17,2.9,1.95-.16,2.01-1.99,2.26-3.49,.11-.67,.16-1.35,.33-2.01,.47-1.85,.96-3.86,3.47-3.57,2.66,.31,2.85,2.5,3.05,4.71Z"/>
  <path d="M221.33,601.06c2.25,6.03,2.27,6.07,7.88,3.37,1.22-.59,2.29-.82,3.18,.26,1.19,1.44,1.34,3.21,.43,4.76-1.85,3.16-4.78,4.75-8.42,4.77-2.93,.02-4.6-1.96-5.61-4.42-1.29-3.12-.34-6.11,2.54-8.74Z"/>
  <path d="M469.45,611.14c-2.78-.25-4.75-1.58-6.56-3.13-1.62-1.38-1.46-2.91-.14-4.43,1.29-1.49,2.69-2.12,4.24-.38,2.32,2.62,3.52,1.7,4.37-1.21,.57-1.92,1.82-3.59,4.06-2.87,2.59,.83,2.2,3.08,1.61,5.12-1.14,3.95-3.68,6.36-7.57,6.91Z"/>
  <path d="M647.83,106.99c.74-3.17,2.8-5.4,6.56-5.3,3.68,.1,6.77,4.04,6.37,7.72-.41,3.71-4.29,7.14-7.6,6.72-2.99-.38-5.71-4.83-5.32-9.13Z"/>
  <path d="M289.02,634.87c-4.32-.3-7.03-2.23-8.33-5.98-.72-2.07,.1-3.65,1.99-4.62,1.96-1.01,3.3-.03,4.05,1.7,.73,1.67,1.2,3.26,3.54,1.92,1.7-.97,3.7-2.57,5.08,.27,1.42,2.9-.94,4.35-2.84,5.64-1.05,.71-2.53,.79-3.49,1.07Z"/>
  <path d="M350.71,633.15c.39-.3,.85-.53,1.12-.89,1.55-2.08,3.29-4.7,5.96-2.05,2.3,2.28,1.18,5.03-.92,7.16-2.69,2.71-5.91,3.13-9.29,1.61-2.36-1.06-4.41-2.64-4.43-5.6-.01-2.09,1.24-3.66,3.09-4.18,3.14-.88,2.4,3.17,4.47,3.96Z"/>
  <path d="M555.33,536.54c.07,5.11-2.96,9.55-6.96,10.57-4.04,1.04-7.82-1.37-8.21-5.32-.15-1.51-.28-3.18,1.3-4.11,1.59-.93,2.92-.19,4.04,1.02,3.73,4.04,3.66,.4,4.31-2.08,.43-1.64-.2-4.32,2.52-4.23,2.61,.08,2.84,2.46,3,4.15Z"/>
  <path d="M449.1,677.01c-.1-5.23,5.92-12.78,11.13-13.96,3.97-.9,7.04,2.09,6.16,6.3-1.17,5.57-4.52,9.81-8.88,13.3-1.62,1.29-3.54,1.43-5.27,.42-2.23-1.31-3.02-3.56-3.14-6.06Z"/>
  <path d="M550.08,638.28c.13,6.23-5.54,11.81-10.87,11.64-3.34-.11-4.77-2.2-5.2-5.19-.67-4.7,3.15-11.94,7.43-14.18,3.13-1.64,5.65-1.09,7.02,2.31,.82,2.02,1.25,4.19,1.61,5.42Z"/>
  <path d="M518.31,575.17c2.93,.42,4.06,2.38,3.99,5.02-.06,2.4-1.66,3.83-3.97,3.8-2.86-.04-4.29-1.92-4.25-4.69,.04-2.64,1.66-3.94,4.23-4.13Z"/>
  <path d="M283.83,676.91c-.41,3.12-1.4,6.46-6.06,6.7-3.81,.19-10.36-4.4-10.22-7.06,.13-2.47,6.81-7.12,10.42-7.24,3.31-.11,5.85,2.9,5.86,7.61Z"/>
  <path d="M121.73,474.13c-1.77,2-1.24,4.42-.98,6.65,.34,2.93-1.41,2.73-3.28,2.63-1.95-2.48-3.25-4.93-.72-7.92,1.45-1.72,2.71-3.1,4.98-1.36Z"/>
</svg>