<?xml version="1.0" encoding="UTF-8"?>
<svg id="Layer_1" data-name="Layer 1" xmlns="http://www.w3.org/2000/svg" viewBox="0 0 864 864">
  <path d="M746.9,507.48c-.5-1.27-1.88-.87-2.93-.93-1.88-.12-3.79-.02-5.66-.25-6.24-.77-7.94-3.82-5.09-9.43,1.56-3.08,3.61-5.9,5.35-8.89,.93-1.61,2.22-3.36,.68-5.2-1.37-1.63-3.18-.94-4.81-.32-4.07,1.55-8.32,1.65-12.58,1.48-5.64-.23-6.89-2.05-5.33-7.59,1.31-4.63,4.05-8.49,6.86-12.3,.68-.92,1.37-1.83,.51-2.95-.96-1.26-2.21-1.16-3.34-.34-2.67,1.93-5.42,3.8-7.88,5.98-10.52,9.34-16.56,21.25-19.35,34.88-1.27,6.23-4.13,11.05-10.79,12.16-3.71,.62-5.3,2.64-6.44,5.88-3.83,10.95-5.28,22.33-6.43,33.77-.68,6.77-1.4,13.61-1.63,20.41-.04,.77-.07,1.54-.11,2.31-.14,3-.28,5.99-.43,8.99-.02,.37-.04,.76-.28,1.04-.57,.7-1.67,.15-2.56-.02-1.17-.22-2.38,.38-3.19,1.26s-1.3,2-1.77,3.1c-.2,.46-.4,.96-.28,1.45,.09,.34,.33,.63,.56,.89,2.68,2.95,6,5.25,8.12,8.7,.64,1.03,1.64,3.66-.64,2.87-5.3-1.84-11.54-.06-16.14-4.33-1.09-1.01-2.34-2.56-4.02-.97-2.28,2.15-4.68,4.28-5.71,7.4-1.66,5.08-.27,8.26,4.95,10.61,7.03,3.16,14.32,5.72,21.06,9.53,3.79,2.14,2.75,6.08,1.64,8.3-1.19,2.37-3.47-.56-4.62-1.71-2.26-2.28-3.8-1.37-5.41,.46-2.31,2.63-4.76,2.58-7.51,.72-2.34-1.59-4.84-2.95-7.18-4.54-2.76-1.88-3.95,.73-5.58,1.88-1.37,.96-2.79,1.89-1.87,4.21,3.14,7.89,8.35,13.57,16.51,16.34,1,.34,2.95,.17,2.85,1.17-.52,5.17,3.83,6.35,6.7,8.77,1.39,1.17,2.71,2.5,1.18,4.35-1.51,1.82-2.73,.41-3.94-.62-1.39-1.19-3.13-2.37-4.31-.12-1.95,3.71-4.37,2.62-7.04,1.23-1.95-1.02-3.97-1.92-5.92-2.93-2.14-1.11-4.3-2.41-6.37-.01-1.85,2.14-2.39,4.37-1.5,7.38,2.58,8.76,8,15.07,15.33,20.23,6.63,4.66,6.49,4.87,3.41,12.62-1.47-.87-1.87-2.47-2.64-3.79-.79-1.35-1.49-2.77-2.26-4.14-1.57-2.82-3.35-2.99-5.36-.41-5.52,7.08-5.52,5.37-12.15,1.34-1.31-.8-2.77-3.09-4.39-1.28-1.43,1.61-3.32,3.42-2.3,6.26,3.58,9.92,6.48,20.27,12.86,28.76,3.46,4.61,1.98,7.54-.55,11.21-1.56,2.26-2.38,1.86-3.42-.38-1.93-4.16-3.26-8.51-4.69-12.84-.93-2.82-1.73-5.84-4.82-7.9,0,2.84,.12,5.14-.04,7.42-.14,1.9-1.45,3.4-3.18,3.69-2,.34-1.73-1.86-2.19-3.03-.92-2.36-1.9-4.66-3.48-6.67-2.91-3.69-3.91-3.59-6.53,.3-4.89,7.27-6.59,15.56-7.99,23.98-.19,1.12,.33,2.85-1.37,3.1-1.18,.18-1.73-1.18-2.45-1.99-1.23-1.39-2.28-3.32-4.55-2.68-2.5,.7-3.12,2.87-3.33,5.18-.49,5.33-.98,10.66-1.48,15.98-.13,1.38,.08,2.99-1.68,3.54-1.35,.42-2.79,.87-4.16,.25-1.75-.79-1.13-2.44-1-3.75,.6-6.1,3-11.93,2.74-18.16-.07-1.59-.31-3.57-2.18-3.71-2.5-.19-1.75,2.17-1.84,3.51-.43,6.84-2.59,13.25-4.56,19.72-1.06,3.47-4.02,3.13-6.18,2.53-2.72-.75-.47-2.91-.04-4.16,2.84-8.17,5.93-16.26,8.88-24.39,.74-2.03,1.08-4.22-1.5-5.18-2.67-.99-3.08,1.44-3.8,3.07-2.55,5.75-5.01,11.54-7.56,17.3-1.28,2.89-2.79,5.67-4.91,8.03-3.07,3.41-5.99,3.04-8.21-.97-2.22-4.02-1.17-8.6,3.15-10.86,2.38-1.24,2.02-2.86,1.95-4.66-.07-1.67-1.22-2.43-2.74-2.79-2.2-.52-3.08,.89-3.95,2.51-1.57,2.9-3,5.93-4.94,8.57-3.51,4.77-5.26,5.01-11.02,2.19,1.63-1.97,3.4-3.77,4.78-5.84,4.79-7.18,10.06-14.18,9.82-23.5-.05-2.12-.65-3.89-2.67-4.5-2.08-.63-2.42,1.51-3.21,2.76-3.8,6.01-7.97,11.74-13.54,16.26-4.35,3.53-9.26,4.7-14.55,2.27-4.25-1.95-5.09-4.88-2.4-8.71,2.26-3.21,4.52-6.55,7.38-9.17,4-3.66,2.13-6.29-.35-9.59-2.88-3.83-5.28-1.19-7.68,.18-2.45,1.4-4.64,3.24-6.96,4.86-2.78,1.93-5.41,4.14-8.88,5.54,0-.82-.15-1.33,.02-1.67,2.48-4.73,4.74-9.62,7.61-14.11,2.87-4.5,2.2-9.09,1.12-13.65-.89-3.77-3.54-4.48-6.76-2.37-4.74,3.1-9.42,6.3-14.23,9.28-1.47,.91-3.16,2.88-4.99,1.42-1.65-1.33-1.49-3.71-1.32-5.75,.19-2.36,1.54-4.08,3.43-5.4,1.93-1.36,3.94-2.61,5.81-4.05,2.58-1.99,6.55-3.92,5.83-7.35-.78-3.71-5.38-3.07-8.46-3.66-6.68-1.28-13.27-2.79-19.24-6.15-4.68-2.64-4.77-4.4-.39-7.38,3.24-2.21,6.88-3.86,10.05-6.16,1.77-1.28,5.78-1.36,4.41-4.93-1.22-3.17-2.43-6.69-7.54-6.04-5.43,.69-11,.36-16.51,.37-1.55,0-3.15-.19-4.63-.63-1.34-.41-2.7-1.29-2.87-2.83-.17-1.46,1.18-2.15,2.26-2.75,3.71-2.07,7.36-4.28,11.21-6.05,4.2-1.93,4.63-4.18,.73-8.01,.38,3.89-2.2,4.29-4.53,5.13-3.11,1.12-6.12,2.49-9.22,3.62-6.93,2.53-8.2,1.86-10.9-5.59,1.82-1.01,3.66,.15,5.47-.06,1.82-.21,3.89,.51,5.61-1.36-6.34-1.21-8.86-2.35-10.87-4.8-1.03-1.26-1.89-2.63-1.44-4.3,.51-1.91,2.29-2.02,3.82-2.14,3.61-.27,7.23-.33,10.84-.58,1.56-.1,3.22-.25,3.79-2.17,1.09-3.67-3.36-9.98-7.17-10.1-6.13-.19-12.33,.06-18.23-1.94-1.6-.54-4.26-.82-4.02-3.23,.22-2.25,1.99-3.93,4.22-4.69,1.17-.4,2.46-.47,3.71-.63,3.72-.49,6.75-2.24,9.61-4.64,3.94-3.31-.69-5.91-.48-8.93,.16-2.28-1.93-2.33-3.76-2.44-5.65-.35-11.33-.61-16.94-1.33-3.64-.47-4.11-2.34-1.73-5.18,1.15-1.37,2.71-2.15,4.34-2.75,3.54-1.32,7.16-2.44,10.62-3.92,2.11-.9,5.33-.98,4.87-4.66-.43-3.38-1.75-5.95-5.54-6.67-5.01-.95-9.97-2.11-15.07-3.2,.77-2.17,2.47-2.8,3.88-3.68,2.92-1.84,6.38-3.05,8.51-5.85,1.95-2.56,4.44-5.57,2.38-8.95-2.07-3.4-5.55-2.12-8.55-1.15-5.14,1.67-10.41,2.46-15.8,2.46-1.3,0-3.06,.55-3.69-1.21-.57-1.57,.05-3.07,.99-4.43,1.58-2.28,3.84-2.55,6.3-2.14,2.01,.34,3.99,1.02,6.02,1.16,2.68,.19,6.22,.26,6.27-3.19,.05-3.08-3.55-2.54-5.66-2.51-5.5,.08-11,.65-16.5,.91-1.6,.08-3.72,.74-4.07-1.89-.36-2.7,1.7-2.98,3.59-3.35,3.4-.65,6.82-1.18,10.19-1.96,1.76-.41,4.16-.79,3.68-3.39-.55-2.94-2.87-1.61-4.59-1.34-3.98,.63-7.63,2.41-12.01,3.97,1.98-5.56,5.9-8.5,9.44-11.77,1.14-1.05,3.73-1.81,2.36-3.9-1.55-2.37-3.34-.06-4.86,.62-3.18,1.43-5.88,3.9-9.48,4.81-.28-2.09,1.12-2.48,2.14-3.03,12.15-6.62,24.92-11.31,38.87-12.19,21.5-1.35,41.86,4.08,61.95,10.73,15.39,5.09,26.72,14.51,31.13,30.84,.42,1.54,.77,3.91,3.08,3.47,2.37-.44,1.52-2.8,1.54-4.37,.11-7.55-.9-15.09-.1-22.65,1.52-14.4,8.82-24.82,20.44-27.06,15.37-2.96,29.02,.97,39.98,12.63,1.39,1.48,2.5,3.24,3.72,4.88,.58,.77,1.22,1.68,2.26,1.03,1.02-.64,.5-1.66,.15-2.53-.42-1.02-.88-2.02-1.3-3.04-3.24-7.89-6.13-15.89-6.61-24.5-.95-17.11,12.88-37.81,30.66-46.38,14.04-6.77,28.97-8.06,44.22-7.67,2.41,.06,4.82,0,7.93,0-1.5-2.91-3.55-2.97-5.19-3.51-5.38-1.77-10.88-3.16-16.03-5.58-6.8-3.2-11.99-8.08-15.11-14.96-7.76-17.12,.11-40.85,16.68-49.66,16.06-8.55,33.05-9.4,50.49-5.27,4.59,1.09,9.15,2.33,13.74,3.43,.97,.23,2.37,.94,2.77-.63,.27-1.05-.97-1.48-1.74-1.96-27.41-17.13-56.87-24.97-89.24-19.64-37.6,6.19-70.3,23.16-100.32,45.84-20.64,15.6-39.04,33.76-57.99,51.3-16.56,15.33-33.77,29.81-54.39,39.57-12.47,5.9-25.42,10.07-39.31,10.96-4.34,.28-3.95-2.33-3.68-5.15,.26-2.66-.13-5.55,4.3-4.72,4.16,.78,8.43,.99,12.66,1.38,1.05,.1,2.47,.27,2.7-1.17,.21-1.3-1.02-1.82-2.06-2.23-2.64-1.04-5.28-2.06-7.93-3.05-8.4-3.13-8.2-3.07-6.16-11.88,.82-3.51,2.51-3.75,5.36-3.1,5.22,1.18,10.46,2.24,15.71,3.3,1,.2,2.34,.78,2.85-.67,.48-1.36-.77-1.99-1.71-2.44-4.25-2.04-8.58-3.94-12.83-5.99-2.01-.97-5.64-.85-3.95-4.82,1.39-3.27,1.77-7.72,7.51-5.83,4.62,1.52,9.44,2.43,14.18,3.57,1.2,.29,2.73,.78,3.22-.85,.35-1.17-.83-1.97-1.8-2.49-4.02-2.16-8.08-4.23-12.11-6.36-2.2-1.16-5.28-1.42-3.55-5.55,1.48-3.55,3.3-3.82,6.53-2.65,3.39,1.23,6.96,1.95,10.49,2.75,1.29,.29,3.23,1.21,3.82-.34,.71-1.86-1.46-2.46-2.75-3.16-2.75-1.52-5.57-2.94-8.4-4.31-5.08-2.45-5.16-2.9-2.04-7.39,1.25-1.8,2.73-2.4,4.79-2.19,4.54,.48,9.09,.84,13.62,1.34,1.41,.15,3.03,.83,3.49-1.13,.42-1.81-1.19-2.47-2.54-2.83-3.79-1.02-7.65-1.82-11.45-2.84-1.4-.37-4.07,.45-3.29-2.58,.61-2.37,2.54-2.02,4.23-1.47,4.19,1.35,8.33,2.85,12.51,4.23,1.4,.46,3.24,1.74,4.13-.24,.82-1.83-1.13-2.78-2.45-3.48-2.64-1.39-5.35-2.66-8.11-3.78-6.04-2.46-6.46-5.6-1.16-9.8,1.79-1.42,3.94-1.87,6.17-2.11,4.48-.49,8.79,.3,13,1.73,2.32,.78,3.6-.25,4.36-2.3,.98-2.65-1.06-2.76-2.72-3.23-4.69-1.35-9.4-2.58-14.25-3.28-1.08-.16-3.04,.37-2.93-1.44,.13-1.98,.73-4.07,1.66-5.83,.78-1.48,2.27-.37,3.35,.11,5.03,2.24,10.02,4.58,15.07,6.78,1.61,.7,3.72,2.44,4.99,.19,1.13-2-1.06-3.43-2.48-4.55-3.95-3.12-8.05-6.05-12.06-9.1-1.07-.81-2.72-1.45-2.12-3.25,.59-1.76,1.21-3.55,3.38-4.19,3.07-.9,5.93-.27,8.72,.92,3.19,1.35,6.4,2.67,9.48,4.24,2.31,1.18,3.39,.26,4.47-1.69,1.28-2.29-.17-3.16-1.77-3.99-3.49-1.8-7.19-3.21-10.41-5.53-1.64-1.19-3.12-2.35-1.69-4.59,1.52-2.38,2.97-.61,4.36,.18,3.42,1.94,6.76,4.03,10.22,5.91,1.4,.76,3.28,2.43,4.53,.38,1.17-1.9-.98-3.15-2.24-4.13-3.23-2.51-6.65-4.76-9.96-7.16-1.08-.78-3.1-1.12-2.62-2.86,.49-1.78,1.67-3.49,3.74-3.91,1.37-.28,2.81-.29,4.22-.28,4.88,.04,9.78-.09,14.64,.3,3.93,.32,5.47-2.03,6.36-4.97,.93-3.09-2.01-3.42-3.86-4.35-3.38-1.69-6.89-3.13-10.16-4.99-1.48-.84-4.85-1.08-3.22-4.02,1.48-2.67,1.05-7.29,6.3-6.84,4.86,.42,9.75,.46,14.63,.47,1.69,0,4.49,1.06,4.75-1.4,.24-2.28-2.71-2.1-4.38-2.64-3.74-1.22-7.5-2.4-11.33-3.27-2.83-.64-2.87-1.78-1.98-4.26,1.69-4.68,3.94-7.79,9.65-7.72,4.19,.05,8.4-1.14,12.59-1.84,1.72-.28,3.38-.79,4.73-1.99,1.06-.94,2.34-1.9,2.21-3.44-.14-1.78-1.9-1.93-3.19-2.31-3.92-1.16-7.92-2.08-11.8-3.36-1.8-.59-5.23,.18-4.57-3.28,.61-3.23,0-7.39,5.36-7.99,5.29-.59,10.51-1.98,15.73-3.14,1.29-.29,3.31-.4,3.21-2.15-.11-1.98-2.18-1.33-3.43-1.4-4.72-.24-9.44-.37-14.16-.41-2.39-.02-3.48-.75-3-3.36,.57-3.09,1-6.22,1.25-9.36,.23-2.99,1.73-4.33,4.58-5.05,5.48-1.4,10.89-3.11,16.29-4.81,1.21-.38,3.3-.53,2.89-2.39-.31-1.45-2.13-.95-3.33-.9-2.83,.12-5.66,.54-8.48,.5-3.42-.05-7.74,2.36-9.94,.2-2.39-2.34-.32-6.9-.74-10.45-.37-3.14,1.06-4.33,3.99-5.11,4.4-1.16,8.67-2.84,12.92-4.48,1.51-.58,4.31-.79,3.9-2.66-.5-2.28-3.19-.97-4.91-1.04-2.03-.09-4.09,.13-6.12,.34-10.25,1.05-10.14,1.06-10.77-9.3-.15-2.47,.61-3.34,2.87-3.75,4.65-.84,9.16-2.26,13.59-3.89,17.68-6.51,32.79-17.23,47.42-28.78,19.26-15.2,36.03-32.86,51.46-51.86,2.73-3.36,3.15-6.8,.24-10.26-2.72-3.24-7.22-3.9-11.15-1.67-.82,.46-1.57,1.04-2.33,1.61-21.66,16.25-44.02,31.53-66.26,46.96-13.89,9.63-28.42,17.95-45.26,21.69-5.64,1.25-7.39-1.78-9.17-5.52-1.9-3.99,2.41-3.92,4.05-5.45,1.94-1.8,4.39-3.05,6.51-4.67,31.97-24.34,53.54-56.83,71.82-91.87,2.34-4.49,1.21-8.81-2.26-10.92-4.24-2.57-7.49-.56-10.39,2.56-7.28,7.85-14.5,15.76-21.83,23.56-20.42,21.75-42.04,42.09-67.47,58.07-4.46,2.81-7.54,3.36-11.85-.4-7.26-6.32-15.87-10.74-24.4-15.19-1.9-.99-4.06-1.65-5.7-3.88,7.72-4.69,15.19-9.57,22.39-14.85,19.08-13.98,36.52-29.5,47.62-50.92,3.13-6.04,5.58-12.34,6.13-19.22,.19-2.31-.27-4.43-2.45-5.74-2.31-1.39-4.55-.93-6.65,.49-1.04,.7-1.97,1.57-2.92,2.4-16.08,14.13-32.05,28.4-48.28,42.37-15.03,12.94-30.04,25.95-48.46,34.15-3.13,1.39-6.17,2.07-9.58,1.68-9.88-1.11-19.81-1.09-29.72-.77-10.6,.34-11.64-.92-8.72-11.2,.3-1.06,.63-2.11,.99-3.15,4.13-12.14,10.28-23.29,16.86-34.24,5.43-9.03,12.01-17.36,16.28-27.08,1.87-4.25,1.78-8.34-1.64-11.81-3.51-3.57-7.74-3.84-12.23-2.17-4.06,1.52-7.43,4.16-10.53,7.05-26.65,24.82-40.98,55.99-46.9,91.46-.27,1.62,.28,3.39-1.77,4.49-12.37,6.66-21.3,17.16-29.83,27.86-15.6,19.58-35.45,27.6-60.32,24.55-11.84-1.45-23.74-3.13-35.77-2.39-17.89,1.1-29.92,10.54-34.12,27.96-6.06,25.14,3.21,45.12,22.3,61.1,14.5,12.14,31.59,19.74,49.73,24.18,35.91,8.79,72.14,16.29,108.04,25.12,18.04,4.43,35.32,4.83,52.48-2.91,6.83-3.08,7.16-2.8,10.67,4.05,.64,1.26,1.17,2.58,1.68,3.9,5.5,14.35,5.72,29.2,4.11,44.22-2.81,26.13-15.49,47.91-30.31,68.75-15.74,22.14-34.55,41.65-52.83,61.63-19.19,20.97-37.05,42.9-48.57,69.27-.48,1.11-1.4,2.03-2.11,3.03l.13-.16c.04,.31,.21,.65,.12,.91-4,11.45-7.68,22.98-8.98,35.11-.25,2.29-1.6,2.29-3.34,1.99-4.96-.86-9.92-1.71-14.9-2.47-1.59-.24-3.62-1.12-4.02,1.66-.32,2.2,.96,3.02,2.85,3.58,4.85,1.43,9.77,2.45,14.8,2.93,2.13,.2,3.54,.81,3.28,3.46-.55,5.62-.88,11.26-1.29,16.87-4.08-.45-7.82-.88-11.57-1.26-1.49-.15-3.28-.83-3.42,1.8-.12,2.19,.82,3.21,2.99,3.26,3.15,.07,6.29,.19,9.44,.3,1.06,.04,2.49-.28,2.56,1.31,.14,2.98,.79,6.22-.15,8.88-.88,2.51-4.18,1-6.39,1.26-3.28,.39-6.6,.43-9.9,.54-2.44,.08-4.95,.26-6.91-2.08,3.29,8.5,7.41,16.35,12.45,23.72,1.01,1.47,2.56,2.5-.24,4.31-16.72,10.79-22.38,26.61-19.46,45.69,2.39,15.65,7.75,30.47,14.4,44.8,11.38,24.53,26.4,46.85,42,68.81,1.5,2.12,3.43,4.01,4.04,7.06-.94-.08-1.55-.04-2.12-.18-19.61-5.07-37.36-.03-54.06,10.17-5.61,3.43-9.2,8.51-10.33,15.13-1.24,7.24-.56,8.18,6.64,8.94,1.88,.2,3.78,.23,5.64,.52,3.3,.51,4.27-.36,3.62-3.97-1.06-5.92,3.72-12.15,8.89-12.39,1.64-.08,3.29,.19,4.06,1.8,.86,1.78-.88,2.41-1.86,3.32-1.27,1.17-2.72,2.19-3.83,3.49-1.87,2.2-5.77,4.25-4.54,7.03,1.08,2.43,5.15,.86,7.86,.77,21.7-.76,43.39-2.75,65.11-.75,5.96,.55,11.89,1.31,17.89,.81,9.32-.78,14.05-6.8,12.68-16.07-.72-4.85-2.53-9.45-6.4-12.27-4.59-3.35-4.7-7.32-3.7-12.04,.39-1.84,.45-3.75,.78-5.61,1.07-6.14,1.13-6.23,6.7-3.47,21.72,10.76,43.64,21.09,66.33,29.7,.58,.22,1.19,.48,.96,1.61-1.42,.12-2.93,.25-4.43,.38-9.18,.76-17.98,2.88-26.4,6.71-6.95,3.16-10.16,8.56-10.41,16.01-.23,6.59-.07,6.92,6.56,7.18,19.22,.76,38.41-.2,57.6-1.18,5.67-.29,11.24-1.44,16.52-3.67,2.36-1,5.05-2.16,5.41-4.83,.55-4.05,2.66-2.79,4.86-2.05,9.86,3.33,19.92,5.85,30.15,7.77,40.88,7.65,81.15,6.12,120.53-8.21,40.38-14.69,72.66-39.14,92.96-77.81,12.25-23.32,22.84-47.37,29.92-72.79,2.3-8.26,6.82-13.51,14.65-16.38,2.95-1.08,5.77-2.51,8.66-3.76,2.81-1.21,3.47-3.82,3.22-6.28-.31-3.01-3.03-1.27-4.61-1.42-3.32-.32-6.58-.8-9.64-2.11-6.03-2.59-6.91-9.58-1.55-13.51,2.64-1.94,5.7-3.31,8.6-4.88,1.93-1.05,4.03-1.84,5.85-3.05,4.3-2.85,4.21-5.7-.37-8-2.79-1.4-5.84-2.32-8.82-3.29-4.04-1.31-7.32-3.63-9.78-7.06-2.58-3.59-2.52-6.91,.99-10.01,3.95-3.48,8.48-5.95,13.18-8.2,1.43-.68,3.78-.85,3.34-3.25-.41-2.28-1.71-4.01-4.33-4.28-4.07-.41-8.14-.84-12.2-1.33-6.06-.72-8.79-6.19-5.7-11.41,1.05-1.78,2.43-3.3,4.16-4.45,2.75-1.83,5.45-3.74,8.3-5.41,1.74-1.02,2.6-2.25,2.07-4.22-.58-2.14-2.39-1.56-3.9-1.65-2.51-.16-5.08-.07-7.51-.6-7.12-1.54-9-7.55-4.15-13.07,2.74-3.11,6.09-5.47,9.99-6.95,1.87-.71,2.21-2,1.91-3.75-.29-1.74-1.45-2.2-3.03-2.33-2.82-.24-5.63-.62-8.44-.96-2.99-.36-4.5-1.84-4.16-5.05,.57-5.48,1.05-10.97,1.43-16.46,.17-2.44,1.28-3.18,3.62-3.07,6.33,.27,12.59-.51,18.74-1.91,10.21-2.32,19.91-5.89,28.44-12.16,.95-.7,2.44-1.32,1.83-2.89Zm-98.34,106.29c-2.36-.75-4.66-1.88-3.44-4.99,1.08-2.77,3.06-4.95,6.33-4.6,9.74,1.04,14.52,5.32,17.05,15.76-7.13-2.2-13.55-4.14-19.94-6.17Zm-11.49-284.57c1.86,.04,3.39,1.1,3.17,3.27-.21,2-1.61,2.93-3.64,3.03-1.77-.2-2.88-1.2-2.83-3.05,.05-2.04,1.35-3.29,3.29-3.24Zm-83.26,49.74c-1.26-.09-2.1-.84-2.06-2.09,.05-1.51,1.13-2.09,2.5-2.14,1.29,.21,2.07,.89,2.06,2.17-.02,1.6-1.07,2.15-2.5,2.05Zm60.71,1.11c-1.77,.05-3.07-.85-3.04-2.7,.03-1.77,1.32-2.83,3.01-2.91,1.76-.08,2.82,.99,3.09,2.78-.24,1.8-1.31,2.78-3.06,2.84Zm14.02-39.64c1.78-.14,2.86,.89,3.07,2.71-.27,1.95-1.39,3.22-3.28,3.31-1.73,.08-2.92-1.14-3.04-2.86-.14-2.12,1.43-3.01,3.24-3.15Zm-6.1,14.88c1.69,.06,2.43,1.12,2.54,2.69-.29,1.73-1.03,3.09-2.98,2.89-1.55-.16-2.53-1.23-2.54-2.83-.01-1.91,1.13-2.82,2.98-2.75Zm-5.39-21.39c1.42-.08,2.39,.88,2.33,2.29-.06,1.55-1.13,2.45-2.63,2.76-1.55-.1-2.26-1.16-2.34-2.43-.11-1.68,1.14-2.52,2.63-2.61Zm-2.55,32.41c-.46,1.6-1.57,2.3-3.12,2.26-1.72-.04-2.52-1.17-2.53-2.73,0-1.63,1.01-2.69,2.65-2.6,1.78,.1,2.64,1.42,3,3.07Zm-4.63-19.46c1.51,.11,2.54,.99,2.57,2.33,.03,1.74-1.05,3.07-2.89,3.06-1.41,0-2.24-1.07-2.18-2.55,.06-1.61,.87-2.63,2.5-2.84Zm-12.78,5.74c1.77-.28,2.54,.82,2.68,2.43,.13,1.49-.59,2.34-2.07,2.55-1.52-.16-2.81-.65-2.85-2.43-.03-1.45,.9-2.34,2.24-2.56Zm-1.19,27.94c-.06,1.58-.44,2.82-1.97,2.97-1.89,.19-2.35-1.29-2.39-2.74-.04-1.39,.75-2.49,2.2-2.54,1.56-.05,1.98,1.22,2.16,2.31Zm-6.42-15.14c1.61-.16,2.63,.66,2.87,2.25-.01,1.69-.74,2.76-2.41,2.88-1.52,.11-2.9-.43-3.13-2.07-.27-1.86,.92-2.88,2.68-3.05Zm-1.62,58.81c1.47-.22,2.48,.41,2.63,1.92,.14,1.44-.65,2.33-1.98,2.66-1.69,.11-2.38-.97-2.49-2.27-.1-1.15,.57-2.11,1.85-2.31Zm-7.75-6.58c-1.86,.02-2.84-1.23-2.71-2.98,.11-1.54,1.25-2.36,2.62-2.58,1.78,.31,2.63,1.3,2.63,2.88,0,1.63-.94,2.66-2.53,2.68Zm-3.44-28.84c-.1-1.72,1.04-2.46,2.79-2.47,1.54,.22,2.46,1.14,2.3,2.81-.16,1.73-1.45,2.35-2.97,2.3-1.57-.05-2.05-1.39-2.12-2.63Zm5.6-11.25c-.31,1.89-1.33,3.16-3.37,3.25-1.71,.08-2.68-.91-2.74-2.56-.07-2.03,1.1-3.35,3.04-3.56,1.85-.2,2.87,.99,3.07,2.87Zm-3.76-18.62c1.7-.02,2.48,1.11,2.51,2.86-.21,2.11-1.49,3.45-3.6,3.53-1.66,.06-2.42-1.3-2.44-2.88-.02-2.32,1.33-3.48,3.52-3.5Zm-12,45.96c-1.65-.3-2.82-.99-2.74-2.76,.07-1.49,1.02-2.31,2.45-2.32,1.69-.01,2.58,.97,2.53,2.69-.04,1.5-.89,2.25-2.24,2.39Zm1.72-17.97c-.16,1.92-1.53,2.56-3.3,2.51-1.97-.05-2.88-1.22-2.64-3.03,.23-1.77,1.52-2.61,3.32-2.65,1.91,.2,2.77,1.38,2.62,3.17Zm-3.77-19.1c1.6,.25,2.86,.9,2.91,2.54,.05,1.62-1.11,2.54-2.62,2.72-1.69,.2-2.6-.83-2.7-2.44-.1-1.68,1.04-2.42,2.41-2.83Zm-9.85-2.94c1.49,.23,2.35,1.1,2.31,2.49-.05,1.85-1.25,2.84-3.02,2.8-1.4-.03-2.33-.99-2.26-2.42,.1-1.8,1.27-2.71,2.97-2.87Zm-4.12,30.87c1.68,.09,2.67,1,2.65,2.62-.01,1.35-.78,2.38-2.25,2.52-1.73,.17-2.63-.92-2.86-2.43-.26-1.74,.9-2.48,2.46-2.72Zm-3.08,22.07c1.39,.04,1.89,1.15,1.82,2.3-.08,1.33-.67,2.46-2.34,2.42-1.3-.05-2.03-.79-2.05-2.07-.03-1.68,.84-2.71,2.57-2.66Zm-31.46,16.89c-1.73-.09-2.52-1.14-2.43-2.76,.1-1.72,1.01-3.06,2.81-3.21,2.02-.16,2.78,1.34,2.71,3.03-.07,1.76-1.27,2.77-3.09,2.94Zm4.66,28.76c1.39,.06,2.26,.89,2.33,2.39-.36,1.44-1.35,2.03-2.76,1.88-1.33-.14-1.82-1.03-1.7-2.29,.12-1.28,.9-2.04,2.13-1.98Zm2.43,37.95c-.17,1.32-.89,2.27-2.49,2.21-1.47-.39-2.33-1.4-2.23-2.96,.1-1.43,1.11-2.24,2.49-2.12,1.63,.14,2.44,1.27,2.22,2.88Zm7.44-16.21c-1.46,.14-2.16-1.09-2.41-2.36-.31-1.57,.69-2.41,2.08-2.43,1.34-.02,2.28,.83,2.58,2.24-.06,1.46-.94,2.42-2.25,2.54Zm2.53-15.33c-1.5,.11-2.36-.84-2.35-2.31,0-1.4,.71-2.49,2.24-2.47,1.43,.02,2.22,1,2.52,2.36-.12,1.5-1.05,2.32-2.42,2.42Zm7.45-63.51c1.77,.11,3.03,.88,3.18,2.4,.16,1.68-1.21,2.35-2.72,2.48-1.36,.11-2.51-.36-2.59-1.92-.08-1.59,.83-2.54,2.13-2.96Zm-8.57-21.8c.18-1.43,1.25-2.13,2.56-2.32,1.25-.19,2.11,.34,2.15,1.79-.23,1.58-1.19,2.5-2.78,2.56-1.28,.05-2.1-.68-1.94-2.03Zm-5.52,19.44c.18-1.77,1.34-2.81,3.15-2.77,1.61,.04,2.59,.9,2.58,2.62-.46,1.67-1.45,2.8-3.25,2.81-1.67,0-2.65-1-2.48-2.66Zm-8.38-7.75c.25-1.69,1.29-2.74,3.1-2.94,1.36,.23,2.29,.93,2.1,2.46-.22,1.8-1.43,2.72-3.13,2.84-1.56,.11-2.28-.9-2.07-2.35Zm-4.57,11.34c1.58-.2,2.65,.64,3.07,2.14-.16,1.66-.91,2.81-2.48,3.09-1.69,.3-2.71-.66-2.91-2.28-.21-1.66,.71-2.75,2.31-2.95Zm-2.05,53.53c1.51,.05,2.23,1.16,2.19,2.47-.04,1.44-1.12,2.09-2.59,2.17-1.42-.18-2.13-1.11-2.09-2.51,.04-1.52,1.09-2.18,2.48-2.13Zm-4.83-16.4c-.09,1.96-.6,3.24-2.44,3.07-1.89-.18-3.3-1.31-3.3-3.25,0-1.64,1.4-2.28,2.95-2.31,1.93-.04,2.81,1,2.79,2.49Zm-6.14-35.44c1.38,.1,2.45,.89,2.3,2.39-.19,1.89-1.24,3.15-3.27,3.27-1.7-.2-2.61-1.18-2.52-2.81,.12-2.11,1.5-3,3.48-2.86Zm-4.71,21.21c.14-1.61,1.1-2.57,2.79-2.5,1.55,.06,2.23,1.09,2.16,2.49-.08,1.68-1.18,2.43-2.78,2.49-1.58-.11-2.29-1.04-2.17-2.48Zm.06,56.56c1.55-.12,2.32,.93,2.49,2.28,.21,1.61-.88,2.18-2.08,2.34-1.66,0-2.71-.58-2.72-2.16-.01-1.47,.88-2.36,2.31-2.47Zm-7.61-36.94c1.52,0,2.19,.93,2.23,2.31,.04,1.43-.79,2.34-2.2,2.44-1.53,.1-2.18-1.04-2.31-2.32-.15-1.52,1.01-2.07,2.28-2.42Zm-4.15,27.15c.16,1.75-1.17,2.46-2.64,2.69-1.53,.24-2.39-.64-2.49-2.11-.11-1.7,.84-2.59,2.49-2.75,1.47,.03,2.51,.76,2.64,2.17Zm-3.11-48.27c1.52-.14,2.37,.91,2.44,2.24,.09,1.88-1.17,2.73-2.93,2.92-1.39-.11-2.49-.69-2.48-2.21,.02-1.85,1.24-2.79,2.97-2.95Zm-1.79,15.11c1.49,.11,1.88,1,1.7,2.21-.2,1.4-1.09,2.19-2.5,2.12-1.19-.07-2.16-.84-2.07-2.02,.11-1.65,1.53-2.08,2.87-2.3Zm-53.6,40.25c-1.4,.04-2.31-.98-2.2-2.43,.12-1.51,1.28-1.96,2.64-2.04,1.31,.11,1.97,.88,1.96,2.13-.02,1.51-1.12,2.31-2.4,2.34Zm42.98-8.45c1.38,.08,2.27,.81,2.46,2.24-.25,1.43-1.15,2.21-2.52,2.24-1.62,.03-2.66-.82-2.56-2.53,.1-1.55,1.25-2.02,2.61-1.94Zm-5.58-10.65c-.29,1.95-1.58,2.65-3.32,2.64-1.47,0-2.4-.81-2.37-2.31,.02-1.7,1.09-2.54,2.72-2.58,1.56-.04,2.74,.54,2.98,2.25Zm-4.3-19.36c1.95-.04,2.72,1.31,2.81,3,.1,1.99-1.02,3.13-2.89,3.5-1.77-.24-3.11-.98-3.16-2.85-.06-2.12,.92-3.6,3.23-3.66Zm-13.34,19.91c1.69,.23,3.01,1.27,2.83,3.05-.18,1.75-1.17,3.19-3.27,3.22-1.87-.48-3.1-1.55-3.01-3.55,.09-2.13,1.45-3,3.45-2.72Zm-7.38,10.83c1.78-.12,2.99,.89,3.25,2.71,.26,1.8-.86,2.61-2.45,2.74-1.78,.14-3.05-.56-3.24-2.41,.02-1.77,.82-2.93,2.45-3.04Zm-11.45-8.82c2.01-.02,3.06,1.2,3.17,3.27-.18,1.86-1.04,3.27-3.11,3.24-1.98-.03-3.17-1.34-3.21-3.25-.04-1.94,1.16-3.24,3.15-3.26ZM581.6,94.82c1.24-.15,2.12,.58,2.09,1.93-.04,1.96-.98,3.23-2.85,3.47-1.68,.01-2.73-.78-2.67-2.19,.08-2,1.59-2.99,3.43-3.21Zm-15.1,12.24c.27-2.43,2.02-3.53,4.3-3.47,1.61,.04,2.56,1.1,2.39,3.05-.74,1.67-1.16,4.02-3.91,3.66-1.67-.22-2.98-1.37-2.78-3.24Zm-10.07,6.58c.25-1.93,1.57-3.09,3.52-3.05,1.96,.04,3.14,1.16,3.22,3.26-.56,1.95-1.59,3.5-3.86,3.29-1.97-.18-3.15-1.46-2.88-3.5Zm-6.89,5.81c2,.21,3.15,.98,3.17,2.96,.03,2.05-1.27,2.79-2.97,2.87-1.85,.08-2.93-1.05-2.99-2.88-.06-1.97,1.34-2.62,2.78-2.94Zm-11.77,6.66c1.83-.08,3.4,.87,3.34,2.98-.06,2.08-1.8,2.63-3.33,3.13-1.82-.32-3.16-1.08-3.24-2.9-.09-2.1,1.42-3.12,3.22-3.21Zm-13.1,11.34c1.9-.11,3.14,1.16,3.24,3.4-.21,2.29-1.45,4.03-3.92,4.31-2.15,.24-3.62-1.03-3.68-3.25-.08-2.84,1.79-4.31,4.36-4.46Zm-17.33,8.87c2.11-.21,3.15,.95,3.25,2.8-.18,2.7-1.27,4.51-3.94,4.51-1.87,0-3.37-1.08-3.4-3.13-.04-2.63,1.63-3.94,4.09-4.19Zm-15.7,8.76c2.09,.1,3.23,1.3,3.18,3.29-.05,2.18-1.38,3.49-3.6,3.49-2.04,0-3.23-1.15-3.19-3.24,.04-2.3,1.47-3.3,3.61-3.54Zm-17.71,6.65c.22-2.28,1.73-3.35,3.85-3.25,1.87,.09,2.78,1.49,2.66,3.26-.15,2.14-1.47,3.37-3.6,3.61-2.07-.38-3.11-1.57-2.91-3.62Zm-3.65,104.79c.37-1.43,1.21-2.19,2.73-1.82,3.43,.84,6.86,1.72,10.29,2.58-3.66,1.77-7.24,1.46-10.82,1.22-1.16-.08-2.74,.1-2.2-1.98Zm-9.21-101.89c.27-2.55,2.02-3.87,4.55-3.77,1.9,.07,2.68,1.38,2.68,3.3-.52,2.28-1.78,4.04-4.37,4.02-2.12-.02-3.06-1.65-2.86-3.55Zm66.9-115.23c.16-2.01,1.39-2.97,3.25-3.18,2.03,.14,2.69,1.39,2.63,3.14-.07,2.06-1.34,3.16-3.26,3.13-1.8-.03-2.77-1.21-2.62-3.08Zm-6.79,10.07c.22-2.25,1.8-3.16,3.93-3.03,1.8,.11,2.89,1.03,2.77,3.26-.27,1.84-1.33,3.25-3.61,3.09-1.94-.14-3.29-1.23-3.09-3.32Zm-4.44,6.6c2.39,.15,3.67,1.55,3.71,4.06-.18,2.52-1.57,4.27-4.1,4.16-2.37-.11-4.21-1.64-4-4.32,.2-2.51,1.72-4.06,4.39-3.89Zm-14.1,14.2c2.62,.01,3.91,1.55,3.95,4.29-.23,2.79-1.4,5.2-4.61,5.25-2.87,.04-4.01-2.24-3.94-4.78,.08-2.79,1.54-4.76,4.6-4.75Zm-14.03,17.33c2.14,.02,3.34,1.43,3.47,3.78-.22,2.32-1.87,3.4-4.05,3.55-2.35,.16-3.4-1.48-3.34-3.56,.07-2.35,1.61-3.78,3.92-3.76Zm-14.31,10.84c2.37,.09,3.68,1.44,3.88,3.71-.06,2.34-1.28,3.79-3.4,3.82-2.49,.02-4.17-1.5-4.11-4.09,.05-2.12,1.37-3.51,3.63-3.43Zm-12.92,8.52c2.35-.11,2.94,1.49,3.06,3.29,.13,1.8-.91,3.08-2.66,3.2-2.11,.14-3.65-1.02-3.69-3.24-.04-2.05,1.55-2.85,3.29-3.24Zm-7.69,190.24c4.03,1.42,8.11,3,12.5,7-5.91-.4-10.51-.68-15.11-1.03-1.38-.1-2.16-1.01-1.29-2.2,1.08-1.47,1.06-4.77,3.9-3.77Zm-5.42-182.39c2.41,.11,3.7,1.49,3.75,3.56,.07,2.68-1.51,4.55-4.21,4.7-2.12,.12-3.61-1.46-3.68-3.51-.1-2.72,1.71-4.18,4.14-4.75Zm10.34-99.96c1.74-.1,2.98,1.31,2.85,3.02-.16,2.1-1.27,3.81-3.64,4.19-2.06-.19-3.24-1.42-3.14-3.33,.12-2.28,1.72-3.75,3.93-3.88Zm-10.87,10.81c2.15-.09,3.62,1.13,3.52,3.39-.12,2.63-1.79,4.12-4.1,4.73-2.37-.23-3.83-1.45-3.75-3.57,.09-2.57,1.58-4.44,4.33-4.55Zm-17.34,15.18c.29-2.63,1.95-4.43,4.64-4.47,2.4-.04,3.88,1.72,3.73,4-.17,2.72-1.82,4.6-4.63,5.18-2.5-.64-4.04-2.11-3.75-4.7Zm-9.41,10.74c2.25,0,3.85,1.15,3.99,3.55-.2,2.7-1.69,4.27-4.13,4.42-2.32,.14-3.97-1.32-3.92-3.71,.05-2.43,1.42-4.25,4.06-4.26Zm-16.38,11.25c2.54,.44,4.01,1.97,3.81,4.51-.21,2.68-1.89,4.41-4.68,4.15-2.28-.22-3.67-1.82-3.58-4.19,.1-2.74,1.66-4.27,4.45-4.46ZM142.14,178.35c-.19-3.3,2.96-6.42,6.13-6.39,3.19,.03,6.1,3.16,6.05,6.51-.05,3.31-3.11,6.3-6.43,6.04-3.71-.28-5.55-2.64-5.75-6.16Zm80.14,35.77c-3.33,12.96-12.33,20.86-23.92,26.23-5.91,2.74-12.27,3.95-17.14,3.85-18.26-.01-27.86-9.35-34.29-23-.52-1.1-1.35-2.45,.27-3.26,1.28-.64,1.4,.66,1.8,1.47,11.84,24.18,37.7,29.56,58.54,12.21,5.82-4.85,10.23-10.63,12.23-18.06,.3-1.1,.33-3.02,1.94-2.65,1.68,.38,.84,2.11,.56,3.22Zm3.57-5.97c-.28,.92-1.18,1.02-1.91,.94-3.69-.42-7.41-.76-11.05-1.47-1.66-.33-1.63-1.63-.32-2.72,1.33-1.11,2.93-.81,4.46-.83,2.67,.1,5.23,.73,7.65,1.85,.91,.43,1.49,1.17,1.17,2.23Zm-20.88,423.77c-.07-.89,.06-1.55,1.08-1.68,.62-.08,1.25-.13,1.87-.16,4.85-.19,10.72-2.13,14.27-.08,3.7,2.15,2.18,8.8,3.2,13.43,1.97,8.96,1.4,9.24-7.62,6.66-1.97-.56-3.56-1.46-4.01-3.5-.57-2.58,1.89-2.9,3.32-3.85,1.8-1.19,3.98-1.8,6.4-4.72-3.78,.61-6.34,1.07-8.91,1.43-4.65,.64-9.22-2.99-9.6-7.54Zm-4.3,60.34c-1.33,.13-1.56-1.29-1.56-2.4,0-1.38-.14-2.87,1.67-3.4,1.36,.1,1.91,1.03,1.93,2.2,.02,1.55-.01,3.4-2.03,3.6Zm2.3-21.21c.05-2.52,1.33-4.4,3.93-4.41,3.23-.02,4.67,2.15,4.91,5.4-.14,2.5-1.7,3.97-4.22,3.87-2.88-.11-4.68-1.79-4.62-4.85Zm7.06,20.09c.07-2.02,1.05-3.8,3.26-3.85,2.14-.04,2.73,1.66,2.7,3.64-.29,1.92-.9,3.71-3.37,3.51-1.87-.16-2.65-1.64-2.6-3.3Zm4.56,20.7c-2.33-.29-3.2-2.7-3.57-4.85-.24-1.4,.68-2.49,2.16-2.44,2.46,.08,2.88,1.94,3.02,3.82-.14,1.48-.15,3.66-1.6,3.48Zm-1.01-48.59c-.09-1.81,1.05-2.94,2.79-3.16,2.22-.28,2.88,1.34,3.33,3.08-.23,1.9-1,3.53-3.04,3.54-2.02,0-2.99-1.58-3.07-3.46Zm6.74,64.78c-1.99-.55-2.27-2.73-2.6-4.53-.2-1.06,.37-1.77,1.68-1.85,1.9,.59,2.14,2.33,2.3,4,.1,1.06-.14,2.72-1.38,2.38Zm7.41-66.56c3.47,.22,5.38,2.52,5.26,5.98-.11,3.24-1.98,5.4-5.31,5.37-3.48-.03-5.37-2.13-5.58-5.58,.6-3.27,1.87-6.01,5.62-5.77Zm.05,40.51c-.24,1.22,.25,3.16-1.93,2.89-1.88-.23-2.15-2.05-2.34-3.6-.19-1.55,.21-3,2.1-2.88,2.13,.14,2.03,1.98,2.18,3.58Zm-1.52,39.83c-1.76-.56-2.84-1.86-3.19-3.63-.2-1.04,.56-1.91,1.62-1.8,2.23,.24,2.31,2.2,2.66,3.84,.17,.79,.08,1.57-1.1,1.59Zm2.89-24.17c-1.58,.06-2.1-1.19-2.18-2.51-.07-1.14,.32-2.38,1.7-2.33,1.44,.06,1.93,1.37,2.31,2.57,.08,1.34-.58,2.22-1.83,2.27Zm3.48-29.87c-1.9-.02-1.92-1.78-1.76-3.13,.17-1.45,.23-3.4,2.39-3.26,1.8,.11,1.88,1.71,1.93,3.13-.21,1.61-.66,3.28-2.56,3.25Zm6.24-38.85c-2.24,.17-2.15-1.81-2.06-3.31,.13-1.99,.95-3.77,3.23-3.78,1.88,0,1.86,1.68,1.93,3.03-.25,2.01-.91,3.9-3.1,4.07Zm2-20.97c-2.26,.15-2.91-2.08-2.82-4.07,.09-1.89,.55-4.33,2.71-4.3,2.18,.03,1.51,2.61,1.97,3.97-.34,1.77,.43,4.24-1.86,4.39Zm8.13-38.81c-.11,.83-.25,2.07-1.48,1.91-1.31-.17-1.6-1.43-1.54-2.5,.15-2.83,1.27-5.25,3.78-8.06,.76,3.61-.42,6.09-.75,8.65Zm-11.05,251.7c-1.2,1.42-2.38,2.89-3.72,4.17-.99,.95-.92,3.54-3.04,2.68-1.57-.64-1.27-2.66-1.5-3.7,.12-5.09,3.12-8.44,6.6-7.8,1.28,.24,2.44,.82,3,1.99,.61,1.29-.69,1.89-1.35,2.66Zm108.12,10.36c-1.12,1.51-2.33,2.95-3.57,4.36-.87,.99-1.07,3.17-2.8,2.69-2.03-.55-1.74-2.7-1.86-4.21,.03-3.55,1.85-5.84,4.64-7.33,1.87-1,4.2-1.48,5.63,.44,1.56,2.09-1.11,2.81-2.03,4.05Zm19.15-2.66c-1.68,1.86-3.39,3.66-4.47,5.98-.56,1.22-1.1,2.96-2.92,2.32-1.53-.54-1.38-2.27-1.59-3.45-.15-5.05,3.55-8.69,7.8-7.94,2.23,.4,2.73,1.37,1.18,3.08Zm72.61-193.59c1.66,.25,2.52,1.23,2.41,2.89-.1,1.61-.97,2.67-2.66,2.68-2.01,0-2.82-1.32-2.66-3.09,.15-1.58,1.25-2.46,2.91-2.48Zm-.25,29.48c-1.69-.02-2.43-1.24-2.4-2.83,.03-1.41,.68-2.43,2.26-2.31,1.52,.11,2.04,1.21,2.2,2.58-.11,1.31-.49,2.58-2.07,2.56Zm.42,23.25c-.04,2.34,.1,4.79-2.04,6.41-.56,.42-1.27-.18-1.32-.83-.19-2.57,.69-4.7,2.52-6.67,.51,.65,.84,.88,.84,1.1Zm-9.76-96.74c8.08,.09,15.26,3.03,22.3,6.42-.05,.45-.1,.91-.14,1.36-5.98,.65-11.94,1.47-17.93,1.86-2.44,.16-6.63-5.37-6.52-7.86,.07-1.55,1.28-1.79,2.3-1.78Zm-.6,114.59c.26-2.05-.43-4.72,2.69-5.08,1.42-.17,2.26,1.02,2.05,2.48-.34,2.33-.89,5.07-3.28,5.68-1.97,.5-1.08-1.93-1.45-3.08Zm-9.06-35.74c2.57-.15,2.93,2.08,2.62,3.99-.44,2.65-.52,6.4-3.73,6.61-2.27,.15-2.12-3.29-2.49-5.37,.42-2.33,.55-5.06,3.6-5.23Zm-4.89-37.51c.49-3.62,2.86-5.69,6.39-5.75,3.66-.05,5.1,2.55,5.47,5.87-.65,3.46-2.36,5.9-6.14,6.04-3.2,.12-6.15-3.03-5.72-6.16Zm6.94,58.65c.62-.47,1.76-.56,2.11,.15,1.51,3.05-.32,5.67-1.39,8.34-.5,1.24-1.02,3.02-2.71,2.75-1.76-.28-1.49-2.08-1.63-3.6,.47-2.8,1.07-5.7,3.63-7.64Zm1.27-31.69c.26-2.03,1.27-3.67,3.63-3.42,2.02,.21,2.82,1.7,2.99,3.41-.41,2.32-1.6,3.82-3.77,3.62-1.86-.17-3.12-1.55-2.85-3.6Zm7.92,18.51c2.22-.07,2.77,1.82,2.48,3.64-.34,2.16,.12,5.46-2.69,5.68-2.67,.21-2.66-2.82-2.97-4.63,.17-2.45,.62-4.6,3.18-4.69Zm-2.77-57.22c-.13,1.75-1.09,2.9-2.94,2.82-1.77-.08-2.89-1.21-2.87-3.04,.02-1.65,1.02-2.58,2.68-2.61,1.84-.04,2.91,.89,3.13,2.84Zm-6.31-54.23c5.62,.57,11.25,1.06,16.87,1.63,1.25,.13,2.64,.34,3.02,1.8,.45,1.74-.94,2.54-2.14,3.25-4.04,2.43-8.56,2.91-12.4,3.05-7.42,.06-9.57-1.69-9-6.55,.27-2.28,1.23-3.43,3.64-3.18Zm5.73-25.98v.3c2.52,0,5.04-.12,7.54,.04,1.47,.09,2.76,.9,3.05,2.51,.35,1.91-1.21,2.36-2.53,2.81-6.39,2.18-12.78,4.36-19.21,6.42-3.52,1.13-5.08-.48-4.85-4.01,.26-3.9,2.14-6.61,6.14-7.21,3.25-.49,6.57-.59,9.85-.86Zm-17.55,145.2c1.96-.25,2.74,1.02,2.84,2.83,.12,2.23-.83,3.86-3.07,5.12-1.43-.97-1.82-2.62-2.14-4.19-.39-1.91,.25-3.48,2.37-3.76Zm-4.58-22.16c-.06-1.45,.96-2.22,2.37-2.26,1.46-.04,2.25,.81,2.5,2.2-.06,1.55-1.03,2.18-2.41,2.25-1.47,.07-2.41-.8-2.47-2.19Zm4.16-139.51c1.55-1.42,3.54-2.02,5.56-2.37,3.71-.66,7.43-1.23,10.46-1.72,2.13-.03,3.8-.13,4.44,1.36,.75,1.76-.92,2.47-2.11,3.12-4.69,2.54-9.35,5.17-14.18,7.4-1.53,.71-3.91,2.85-5.3,.03-1.28-2.59-1.36-5.55,1.12-7.82Zm-7.27,111.45c-.49,3.78-2.54,5.84-6.18,6.05-3.24,.19-5.96-2.67-5.92-5.98,.04-3.38,3.07-6.47,6.34-6.24,3.84,.27,5.2,2.94,5.76,6.17Zm-3.6,41.39c.02,1.98-1.03,3.39-2.99,3.42-2.3,.04-3.17-1.81-3.25-3.76-.08-1.91,1.21-3.06,2.96-3.58,2.21,.45,3.26,1.81,3.28,3.92Zm17.31-224.45c1.35,.26,2.41,.93,2.41,2.38,0,1.66-1.05,2.58-2.69,2.43-1.42-.14-2.15-1.18-2.12-2.58,.02-1.51,1-2.14,2.41-2.22Zm-13.99,1.82c1.34-.04,2.83,.41,2.64,1.94-.24,2.02-2.35,2.25-3.82,2.96-1.43-.1-2.02-1.03-2.01-2.21,.02-2.02,1.47-2.63,3.18-2.68Zm-4.95,12.48c1.7-.04,3.08,.46,3.36,2.46-.38,1.84-1.38,3.2-3.35,3.27-1.79,.06-3-1.01-2.99-2.85,.02-1.8,1.14-2.84,2.98-2.89Zm-7.57,26.55c1.81-2.13,3.81-4.07,7.03-4.65,.29,3.52-1.01,6.06-3.51,7.97-1.14,.88-2.63,1.37-3.85,.1-1.11-1.15-.47-2.48,.33-3.42Zm2.34,169.19c-.08,1.93-1.5,3.25-3.39,3.12-2.5-.17-3.91-1.97-3.82-4.41,.08-2.07,1.82-2.65,3.7-2.84,2.24,.44,3.6,1.86,3.51,4.14Zm-26.19,23.57c-1.68,.15-2.01-1.2-1.91-2.53,.12-1.47,.67-2.89,2.35-3,1.54-.11,1.43,1.29,1.57,2.34-.18,1.39-.19,3.03-2.02,3.2Zm3.55,21.34c-.05,1.5-.86,2.42-2.4,2.16-1.9-.32-2.36-1.85-2.45-3.51-.08-1.46,.47-2.43,2.13-2.42,2.03,.44,2.78,1.84,2.72,3.77Zm-6.84-37.73c-.69,.51-1.66,.57-2-.25-1.12-2.72,.92-4.1,2.76-6.14,1.37,2.89,1.3,4.84-.77,6.39Zm3.21-92.84c-1.48-.03-2.5-.5-2.53-1.83-.03-1.77,1.21-2.46,2.79-2.44,1.12,0,2.35,.35,2.37,1.73,.02,1.79-1.52,2.13-2.63,2.55Zm.26-68.3c-1.67,0-2.67-.94-2.81-2.47-.15-1.73,.74-3.06,2.57-3.21,1.97-.16,2.69,1.2,2.71,2.94,.02,1.62-.83,2.57-2.47,2.74Zm1.54-46.73c.03-1.65,.86-2.58,2.44-2.66,1.55,.21,2.52,.9,2.29,2.45-.23,1.6-1.37,2.44-2.93,2.44-1.37,0-1.82-1.01-1.8-2.22Zm4.86,31.94c1.49-.23,2.48,.62,2.46,2.08-.01,1.4-.97,2.22-2.41,2.33-1.43,.02-2.55-.52-2.54-2.06,.01-1.47,1.21-2.14,2.49-2.34Zm1.57,45.28c2.67,.01,4.31,1.51,4.51,4.57-.17,2.28-1.43,3.88-4.04,3.92-2.96,.05-4.73-1.57-4.73-4.54,0-2.62,1.81-3.96,4.26-3.95Zm3.84,41c-1.09,.34-1.84-.19-1.84-1.36,0-1.65,.97-2.56,2.55-2.78,1.16-.17,2.08,.27,2.66,1.29-.34,2-1.92,2.4-3.37,2.86Zm5.6,42.99c2.13,.13,3.42,1.42,3.44,3.73-.46,2.25-1.66,3.77-4.15,3.52-2.25-.23-3.33-1.72-3.1-3.92,.23-2.18,1.64-3.46,3.81-3.33Zm-9.92-62.06c1.23,.14,1.79,1.05,1.73,2.44-.24,1.35-1.23,1.92-2.61,1.81-1.18-.1-2.16-.72-2.03-2.01,.16-1.63,1.34-2.41,2.91-2.23Zm2.69,32.02c1.84-.13,2.82,1.17,3.02,2.85,.26,2.15-1.16,2.97-2.9,3.26-1.99,.05-3.04-.86-3.11-2.72-.07-2.02,1.05-3.25,3-3.39Zm1.93,77.33c2.24,.17,3.21,1.77,3.09,3.89-.11,1.84-.87,3.31-3.12,3.4-2.33-.43-3.41-2.07-3.37-4.27,.04-1.99,1.43-3.16,3.4-3.01Zm3-21.5c-3.15-.08-5.06-2.09-5.25-5.32,.3-3.36,2.04-5.48,5.31-5.41,3.4,.07,5.46,2.15,5.42,5.7-.04,3.5-2.4,5.11-5.48,5.03Zm2.82-183.49c2.14,.17,3.34,1.39,3.32,3.62-.01,2.02-1.21,3.29-3.14,3.46-2.25,.19-3.55-1.22-3.69-3.36-.14-2.22,1.23-3.42,3.5-3.72Zm-5.19,49.85c1.04,.27,3.18,.11,2.64,1.57-.78,2.12-1.33,5.18-4.03,5.59-1.81,.28-2.81-1.76-2.73-3.66,.11-2.49,1.67-3.51,4.11-3.5Zm10.59-450.71c2.23-.13,3.57,1.29,3.61,3.49,.05,2.68-1.35,4.42-4.02,5-2.5-.29-3.72-1.82-3.65-4.14,.07-2.49,1.5-4.21,4.06-4.35ZM337.11,12.28c2.18,.43,3.9,1.49,3.67,3.95-.23,2.44-1.84,3.98-4.35,3.97-2.22-.02-3.32-1.51-3.34-3.67-.03-2.63,1.5-3.9,4.02-4.25Zm-11.11,10.86c2.19,.08,3.68,1.5,3.88,3.94-.17,2.29-1.47,3.88-3.73,3.94-2.36,.06-3.66-1.78-3.77-3.95-.12-2.29,1.24-4.01,3.62-3.93Zm-8.82,10.24c2.28-.02,3.77,1.26,3.9,3.86-.1,2.36-1.14,4.22-3.81,4.22-2.27,0-3.85-1.37-3.91-3.77-.07-2.51,1.18-4.29,3.82-4.32Zm-6.98,11.33c2.36,.02,3.45,1.79,3.61,4.21-.39,2.26-1.46,4.13-4.13,4-2.33-.12-3.76-1.66-3.62-4.02,.15-2.44,1.62-4.22,4.13-4.2Zm-5.5,10.99c2.74,0,4.04,1.63,3.78,4.24-.23,2.34-1.3,4.19-3.99,4.38-2.85-.35-3.63-2.34-3.56-4.7,.07-2.29,1.24-3.92,3.76-3.92Zm-4.18,16.34c2.51,.08,3.92,1.72,4.19,4.19-.44,2.92-1.97,4.87-4.94,4.75-2.44-.11-4.13-1.73-4.07-4.32,.07-2.97,1.85-4.71,4.82-4.61Zm-10.07,18.8c.11-2.54,1.51-4.09,4.09-4.12,2.53-.04,3.48,1.63,3.61,4.01-.53,2.2-1.52,4.26-4.14,4.18-2.28-.07-3.66-1.66-3.56-4.06Zm3.33,25.74c.15-4.98,4.5-9.1,9.58-9.08,5.31,.02,9.62,4.1,9.53,9.02-.09,4.82-4.63,9.2-9.55,9.2-4.98,0-9.71-4.52-9.56-9.13Zm56.42,104.51c-25.14,1.62-46.82-16.68-49.54-41.81-1.87-17.26,13.53-36.85,31.7-40.3,3.56-.68,7.14-1.15,10.82-1.04,18.58,.82,34.27,6.73,42.41,25.08,12.28,27.68-5.13,56.13-35.39,58.08Zm17.54,239.45c3.31,.15,4.79,2.5,4.97,5.86-.54,3.18-2.36,5.46-5.84,5.23-3.2-.21-5.1-2.43-4.9-5.69,.21-3.41,2.31-5.56,5.77-5.4Zm-10.08,108.3c1.66-.59,2.1,.82,2.09,2.15-.01,1.92-.43,3.68-2.47,4.51-1.55-.05-2.21-1.03-2.37-2.35-.26-2.14,.9-3.66,2.74-4.31Zm-18.72-32.39c.3-3.66,2.56-5.69,6.07-5.98,3.26-.27,5.88,2.69,5.75,6.54-.54,3.01-2.35,5.29-6.08,5.4-3.45,.1-6.02-2.55-5.74-5.95Zm-5.09-22.97c2.64,0,4.19,1.77,4.46,4.56-.45,2.65-1.66,4.75-4.69,4.83-3.03,.08-4.68-1.67-4.56-4.66,.11-2.92,1.98-4.71,4.79-4.72Zm-20.34,1.8c3.22-.27,6.03,2.63,5.93,5.95-.12,3.74-2.33,5.6-5.34,6.08-3.92,.05-6.61-2.54-6.48-5.93,.14-3.71,2.29-5.8,5.89-6.1Zm-.81,23.49c3.3,.17,6.04,3.2,5.96,6.58-.09,3.83-2.89,6.71-6.4,6.6-3.67-.11-6.4-3.05-6.26-6.74,.13-3.54,3.34-6.61,6.7-6.44Zm-7.42,139.45c-1.63-.04-2.62-1.1-2.68-2.63-.07-1.85,1.08-2.89,2.94-2.71,1.59,.15,2.41,1.22,2.45,2.88-.14,1.62-1.08,2.49-2.71,2.45Zm2.61,30.19c-.1,1.43-.89,2.43-2.27,2.51-1.41,.08-2.39-.8-2.25-2.32,.12-1.33,.84-2.45,2.28-2.54,1.51-.1,2.21,.88,2.24,2.36Zm-7.5-88.69c-2.72-.39-4.54-1.81-4.36-4.6,.18-2.71,1.52-4.94,4.67-4.82,2.72,.11,4.33,1.76,4.39,4.54,.07,3.16-2.1,4.26-4.71,4.88Zm6.87,17.89c.05-2.25,1.36-3.73,3.78-3.89,2.38,.12,3.87,1.42,3.91,3.73,.04,2.36-1.6,3.79-3.83,3.86-2.26,.07-3.92-1.29-3.87-3.7Zm3.53-37.05c-2.87,.13-4.68-1.94-4.69-4.79,0-2.82,1.75-4.55,4.54-5.08,2.8,.2,4.48,1.71,4.65,4.39,.2,3.06-1.41,5.35-4.5,5.48Zm-3.74-31.46c0,3.76-2.75,6.57-6.45,6.57-3.4,0-6.12-2.85-6.1-6.39,.02-3.61,3.08-6.74,6.5-6.63,3.46,.11,6.05,2.87,6.06,6.45Zm-10.81-62.18c.15-1.27,.41-2.63,2.04-2.68,1.47-.05,2.23,.91,2.44,2.37-.14,1.35-.7,2.42-2.22,2.51-1.48,.1-2.45-.55-2.26-2.2Zm-6.82,2.72c3.27-.1,4.94,2.21,5.24,5.47-.34,3.17-1.91,5.47-5.23,5.49-3.28,.02-5.19-2.03-5.16-5.38,.04-3.29,2-5.48,5.14-5.57Zm-12.24,206.87c-2.16,0-3.2-1.87-3.19-3.93,.01-2.02,.8-3.92,3.21-3.76,2.17,.15,2.44,2.08,2.57,3.6-.15,2.06-.45,4.1-2.59,4.09Zm.98,11.04c-.05,.93-.46,1.7-1.39,1.88-1.74-.94-2.24-2.32-2.16-3.94,.05-1.01,.53-1.89,1.69-1.61,1.94,.47,1.94,2.11,1.85,3.67Zm-12.35-89.04c2.23,.06,3.34,1.7,3.38,3.8,.05,2.29-1.44,3.31-3.54,3.62-2.03-.53-3.51-1.53-3.41-3.86,.1-2.24,1.37-3.62,3.56-3.57Zm-.83-18.35c.19-2.65,1.89-4.02,4.42-3.82,2.73,.22,4.09,2.05,4.27,4.8-.41,2.76-2.19,4.31-4.83,4.04-2.69-.27-4.05-2.29-3.85-5.02Zm-.5,38.31c2.34-.23,3.33,1.28,3.74,3.25-.01,2.41-1.38,3.61-3.47,3.77-1.98,.15-3.28-.91-3.34-3.05-.07-2.16,.77-3.74,3.08-3.96Zm4.26,43.51c1.59,.04,2.03,.99,2.12,2.15,.13,1.64-.14,3.38-1.98,3.69-1.42,.24-1.38-1.37-1.49-2.37-.17-1.41-.07-2.79,1.35-3.46Zm-.1-17.59c0-1.57,.84-2.66,2.56-2.86,2.05,.34,2.91,1.65,2.93,3.63,.02,1.53-.31,3.01-2.19,3-2.35-.02-3.3-1.65-3.31-3.76Zm11.07-109.09c.21,3.48-2.63,6.58-5.88,6.62-3.17,.04-6.37-3.08-6.42-6.27-.06-3.32,2.87-6.28,6.32-6.2,3.74,.09,5.76,2.17,5.98,5.85Zm-10.94-25.53c3.75,.19,5.52,2.46,5.88,5.57,0,3.83-2.87,6.9-6.22,6.79-3.64-.13-5.81-2.11-6.04-5.83-.23-3.72,2.7-6.71,6.38-6.53Zm-4.3,50.97c3.55,.31,5.12,2.41,5.11,5.34,0,3.09-2.06,5.07-5.13,4.9-2.93-.16-4.96-1.93-4.86-5.2,.1-3.26,2.26-4.55,4.88-5.03Zm-6.59,109.35c3.11,35.57,9.68,72.23,20.74,107.43-8.77-12.83-24.14-94.72-20.74-107.43Zm2.62,126.99c-1.15,2.02-2.35,4.01-3.47,6.04-.57,1.02-.49,2.82-2.1,2.63-1.66-.19-1.84-1.88-2.06-3.26-.12-.77-.16-1.54-.2-1.98,0-4.84,2.08-7.49,5.62-7.42,1.08,.02,2.26,.1,2.95,1.08,.82,1.17-.22,2.01-.74,2.91Zm18.8,1.61c-3.34,2.46-5.5,5.9-7.82,9.68-3.23-3.14-2.33-6.18-.92-9.03,1.35-2.74,3.33-4.96,6.76-5.1,1.48-.06,3.02,.2,3.7,1.55,.74,1.48-.76,2.2-1.72,2.91Zm3.09-139.78c-.28-1.23,.28-2.21,1.55-2.36,1.6-.2,2.59,.71,3.04,2.19-.03,1.28-.6,2.14-1.89,2.2-1.38,.06-2.39-.66-2.7-2.03Zm2.37,37.28c-1.15-.02-1.58-.99-1.36-1.99,.32-1.46,.52-3.34,2.58-3.19,1.22,.09,1.47,1.42,1.52,2.52-.26,1.6-1.08,2.68-2.74,2.66Zm.88-54.95c-2.14-.12-2.95-1.69-2.9-3.58,.06-2.21,1.32-3.54,3.62-3.37,2.09,.15,2.91,1.58,2.93,3.57-.23,2.19-1.38,3.51-3.66,3.38Zm-.7-79.93c-3.02-.28-4.42-2.2-4.34-5.03,.08-2.64,1.62-4.57,4.39-4.54,2.88,.03,4.73,1.77,4.66,4.76-.06,2.86-1.59,4.66-4.71,4.81Zm2.36-49.52c-3.53,.1-6.61-2.86-6.7-6.42-.08-3.56,2.9-6.7,6.38-6.71,3.55-.01,6.47,3,6.44,6.64-.03,3.39-2.87,6.4-6.13,6.49Zm8.01,152.02c1.63-.12,2.69,.89,2.9,2.42,.24,1.72-.91,2.47-2.36,2.67-1.85,.02-2.77-.99-2.78-2.55,0-1.31,.79-2.43,2.24-2.53Zm1.35,27.53c-2.28-.08-3.17-1.66-3.19-3.78-.02-2.18,1.32-3.03,3.26-3.07,2.06-.04,3.7,.59,3.76,3.24-.27,2.11-1.38,3.69-3.83,3.61Zm3.44-38.38c-2.2,.24-3.04-1.31-3.2-3.17-.18-2.04,1.03-3.32,2.98-3.42,1.97-.09,3.1,1.16,3.33,3.1-.07,2.08-1.2,3.27-3.11,3.49Zm1.24,97.22c5.4-22.74,13.95-44.5,17.31-67.59-1.55,23.66-10.59,45.42-17.31,67.59Zm15.82-222.22c-.06-3.48,2.7-6.52,6.02-6.63,3.43-.12,6.31,2.65,6.43,6.17,.12,3.61-2.42,6.63-5.76,6.85-3.62,.24-6.62-2.63-6.69-6.39Zm13.38,50.58c-2.52-.02-4.07-1.65-3.91-4.27,.17-2.73,1.86-4.4,4.57-4.31,2.49,.08,3.95,1.67,3.97,4.43-.23,2.74-2.03,4.17-4.63,4.15Zm11.5,24.47c-1.92-.15-3.09-1.38-2.98-3.42,.11-1.93,1.16-3.46,3.13-3.24,1.91,.21,2.55,2.01,2.74,3.81-.1,1.84-1.08,3-2.9,2.85Zm-.41-48.7c-2.47-.15-3.39-2.23-3.21-4.43,.18-2.22,1.44-3.99,3.91-3.91,2.52,.08,3.47,1.82,3.42,4.18-.13,2.63-1.53,4.31-4.12,4.16Zm.56-29.7c-3.52,.08-6.3-2.58-6.34-6.06-.05-3.76,2.68-6.73,6.23-6.79,3.59-.06,6.18,2.43,6.32,6.07,.14,3.71-2.6,6.7-6.22,6.78Zm6.6,58.1c-.08-2.04,1.19-3.29,3.15-3.37,2.03-.08,3.11,1.2,3.27,3.23-.02,2.06-1.03,3.34-3.09,3.36-2.01,.02-3.25-1.24-3.33-3.22Zm5.77,81.72c-.73,25.03,4.58,48.94,12.49,72.4-8.83-23.36-15.18-47.14-12.49-72.4Zm12.71,41.34c-1.92-.13-2.3-2.33-2.6-3.99-.27-1.51,.23-3.07,2.1-2.92,2.06,.17,1.95,2.09,2.2,3.64-.3,1.26,.13,3.39-1.7,3.27Zm-.88-63.58c-.15-2.58,.92-4.67,3.47-5.4,1.56-.45,2.88,.67,2.84,2.28-.05,2.61-1.23,4.74-3.5,5.87-2.11-.03-2.73-1.28-2.81-2.75Zm4.07,24.35c.23-1.5,.76-3.38,2.58-3.45,2.33-.09,1.57,2.18,2.05,3.17-.15,1.75-.18,3.35-2.11,3.39-1.99,.04-2.79-1.36-2.52-3.1Zm6.45,12.22c1.95,.3,2.68,1.98,2.57,3.85-.1,1.69-1.02,2.84-2.6,3.31-2.24-.65-2.46-2.44-2.5-4.1-.04-1.58,.43-3.38,2.53-3.06Zm4.48,127.49c-.58,.91-1.1,1.87-1.72,2.76-.9,1.28-.79,4.06-2.96,3.44-2.21-.63-1.77-3.31-2.11-4.79,.19-2.85,1.3-4.56,3.63-5.35,1.28-.44,2.47-.26,3.46,.67,1.26,1.19,.36,2.23-.31,3.27Zm.6-135.76c-.21-2.25,.69-4.16,3.16-4.31,2.48-.15,3.57,1.63,3.63,3.91,.06,2.18-.64,3.98-3.07,4.46-2.58-.18-3.53-1.91-3.73-4.06Zm1.49,20.7c-.08-1.76,.06-4.07,2.27-3.95,2.83,.15,2.29,2.84,2.44,4.99-.5,1.65,.43,4.96-2.02,4.79-2.6-.17-2.57-3.5-2.68-5.83Zm3.02,37.9c-.03-1.45-.01-3.64,1.99-3.56,2.46,.11,1.55,2.51,1.88,4.12-.6,1.33,.67,4.06-1.73,3.96-2.16-.09-2.11-2.75-2.15-4.53Zm7.78,74.52c-.34,1.82-.09,4.68-2.69,4.61-2.13-.06-1.3-2.71-1.87-4.01,.39-1.74-.27-4.05,2.31-3.98,1.9,.05,2.57,1.75,2.26,3.38Zm-1-126.24c-.15-2.27,1.01-4.18,3.43-4.3,2.81-.14,3.6,2,3.81,4.3-.23,2.29-.77,4.44-3.37,4.49-2.78,.06-3.72-2.18-3.87-4.49Zm3.94,19.65c1.5-.64,2.63,.47,3.19,1.88,.68,1.73,1,3.51-.14,5.67-1.8-1.31-2.5-2.88-3.22-4.39-.49-1.03-1.44-2.48,.17-3.17Zm4.15,26.97c-.16,1.22-.14,2.87-1.66,2.94-1.82,.09-2.11-1.57-2.07-3.03,.04-1.47,.5-3.11,2.25-2.95,1.46,.14,1.49,1.76,1.48,3.04Zm-.54-127.81c0-2.18,1.42-3.32,3.64-3.43,2.25,.23,3.29,1.68,3.25,3.77-.04,2.36-1.45,3.89-3.84,3.71-2.25-.17-3.06-2.1-3.05-4.05Zm5.86,213.28c-2.97-.55-3.18-3.45-3.31-5.93-.07-1.37,.19-3.38,2.02-3.02,2.9,.57,2.73,3.43,3.19,5.65-.22,1.43-.27,3.6-1.91,3.3Zm1.5-116.15c.24-2.33,.64-5.05,3.44-5.47,1.79-.27,1.76,1.76,1.8,3.32-.63,2.22-.47,5.52-3.24,6.09-2.07,.43-2.17-2.28-2-3.95Zm2.81,97.34c-.77-.71-1.13-.93-1.1-1.02,10.81-35.75,24.89-70.54,31.89-107.38-5.71,37.35-19.79,72.22-30.8,108.4Zm37.27-173.75c.44-1.86,2.2-2.08,3.8-2.1,3.29-.06,6.59-.02,9.89-.02v.25c3.61,0,7.21-.04,10.82,.03,.88,.02,1.98,.16,2.18,1.32,.18,.99-.74,1.3-1.42,1.62-5.84,2.68-11.54,5.68-17.67,7.7-2.29,.76-4.02-.09-5.34-1.89-1.5-2.04-2.9-4.24-2.26-6.91Zm6.28,189.67c-2.49,.24-3.7-1.7-3.57-3.91,.15-2.47,.75-5.23,3.92-5.47,2.77-.21,2.99,2.11,3.22,3.99-.23,2.61-.65,5.11-3.58,5.39Zm4.5-37.68c-.57,2.35-.32,5.89-4.15,6.48-2.37,.37-3.31-1.67-3.03-3.71,.4-2.96,1.23-6.14,4.64-6.79,2.12-.4,2.65,1.66,2.54,4.02Zm8.21,20.23c-.87,2.75-.78,6.7-5.09,7.15-2.18,.23-2.73-1.92-2.51-3.75,.4-3.34,2.05-6.17,5.35-7.02,1.86-.48,2.38,1.56,2.25,3.62Zm-.98-140.79c-1.09-2.12-.97-3.1,1.68-3.2,4.21-.16,8.41-.5,13.21-.8,1.12,.21,3.45-.81,4.15,1.73,.66,2.37-.89,3.73-2.74,4.88-7.37,4.55-13.12,3.6-16.31-2.6Zm7.1,112.08c-2.43,.1-3.14-2.01-2.88-3.98,.38-2.83,1.25-5.82,4.57-6.33,2.54-.4,2.88,1.8,2.92,4.13-.55,2.57-.55,6.02-4.61,6.19Zm14.21-85.78c3.01-4.07,6.81-7.37,10.95-10.27,1.71-1.2,3.27-.63,4.71,.57,1.38,1.16,1.24,2.62,.27,3.77-4.88,5.73-9.84,11.4-14.83,17.03-1.12,1.26-1.96,.5-2.32-.79-.38-1.35-.62-2.74-.74-3.3-.1-3.14,.66-5.25,1.97-7.02Zm.98,62.42c-2.33-.08-3.65-1.81-3.54-4.13,.12-2.67,1.29-5.13,4.18-5.35,2.67-.2,3.6,1.96,3.68,4.46-.49,2.47-1.05,5.14-4.33,5.02Zm5.62,60.34c-2.16,.26-3-1.64-2.92-3.47,.13-2.94,1.02-5.85,4.29-6.5,2.26-.45,2.61,1.69,2.79,3.68-.59,2.51-.44,5.83-4.15,6.29Zm21.5-114.72c.69-.72,1.41-2.12,2.66-1.27,1.25,.85,.91,2.27,.26,3.41-2.6,4.58-6.51,7.73-11.23,10.08,2.22-4.48,4.87-8.62,8.32-12.22Zm-6.14,43.26c-2.29,.23-3.42-1.88-3.39-4.24,.03-3.21,3.18-7.82,5.27-7.53,2.3,.32,2.89,2.12,3.06,4.36-1.07,2.74-.58,6.96-4.94,7.4Zm8.5,49.87c-2.23,.21-2.73-1.87-2.58-3.68,.25-3,.68-6.31,4.35-6.85,2.33-.34,2.32,2.01,2.47,4.04-.51,2.56-.18,6.12-4.24,6.5Zm9.81-59.72c-.59-.23-1.21-.28-1.4-.59-.51-.8,.05-1.47,.59-2.04,2.16-2.28,4.36-4.52,6.5-6.83,3.75-4.05,6.81-8.61,9.8-13.24,.82-1.27,1.91-2.97,3.72-1.66,1.46,1.05,.72,2.71-.17,3.79-5.29,6.41-10.07,13.28-16.33,18.84-.8,.71-1.81,1.17-2.69,1.72Zm10.55,39.28c-.22,2.3-.99,4.55-4.1,4.27-2.33-.21-3.01-2.15-2.71-4.17,.38-2.53,1.2-5.31,4.34-5.12,2.67,.16,2.54,2.69,2.46,5.03Zm4.89-7.35c-1.86,.1-3.37-1.36-3.08-3.4,.43-3.05,1.7-6.09,4.97-6.73,2.67-.52,2.47,2.15,2.75,3.94-.61,2.85-.95,5.98-4.64,6.18Zm7.93,53.71c-2.52,.33-2.62-2.29-2.54-4.09,.14-3.02,.88-6.27,4.29-6.84,2.45-.41,2.4,2.25,2.61,4.24-.56,2.74-.69,6.21-4.36,6.69Zm20.09-12.46c-2,.3-2.84-1.52-2.96-3.42-.19-2.87,2.53-6.97,4.56-6.75,2.22,.25,2.52,1.97,2.56,4.09-.29,2.56-.72,5.56-4.16,6.08Zm5.79-18.56c-2.35,.16-3.1-1.86-2.96-3.89,.18-2.72,.88-5.63,3.98-6.07,2.37-.33,2.71,2.02,2.77,4.29-.43,2.24-.16,5.43-3.79,5.67Zm13.76-17.95c-3.33,.24-4.4-2.57-4.33-5.48,.08-3.14,1.1-6.34,4.65-6.5,3.19-.14,3.53,2.93,3.74,5.68-.35,2.66-.46,6.04-4.06,6.3Zm5.51-26.77c-2.14-1.28-3.94-10.68-2.61-12.93,.43-.74,.92-1.25,1.85-1.1,.82,.14,1.59,.55,1.77,1.35,.83,3.66,1.82,7.32,2.22,11.04,.22,1.99-1.43,2.73-3.23,1.64Zm11.1-1.24c-1.17-.62-1.03-1.9-1.05-2.95-.06-3.46-.02-6.91-.02-10.37,0-6.76,.25-13.52,1.66-20.16,.42-1.99,.78-4.35,3.41-4.44,3.07-.1,2.69,2.68,2.93,4.5,1.13,8.89,2.12,17.79,3.06,26.7,.3,2.84-7.52,8.03-9.99,6.72Zm13.11,58.71c-2.84,.36-6.88-5.75-7.06-10.5-.06-1.66,.09-3.2,2.22-3.39,2.91-.25,7.34,5.48,7.48,9.95-.03,1.65-.21,3.62-2.65,3.93Zm7.33-69.77c-1.63,.86-3.4,1.11-4.6-.63-2.4-3.48-3.83-7.28-3.16-12.26,3.94,3.02,6.07,6.79,8.63,10.17,.83,1.1,.2,2.16-.86,2.72Zm12.41,48.53c-3.09-1.91-5.68-4.46-6.93-8.06-.31-.9-.63-1.84,.09-2.67,.84-.98,2.06-1,3.04-.52,3.77,1.82,5.92,4.97,6.89,8.57,.08,2.7-.93,4.01-3.08,2.68Zm5.19-75.34c-.9,1.08-1.95,2.6-3.27,.69-4.54-6.54-9.36-12.92-12.54-20.3-.3-.7-.34-1.52-.46-2.08,0-2.91,1.76-3.3,3.83-2.96,3.22,.52,5.77,2.34,7.97,4.65,1.51,1.59,2.95,3.24,4.39,4.89,5.78,6.61,5.79,8.3,.09,15.11Zm8.91-40.68c-4.9-2.77-9.81-5.58-13.9-9.51-1.91-1.83-4.1-4.07-1.95-6.88,1.99-2.61,4.54-1.12,6.76,.04,4.73,2.49,9.09,5.51,12.89,9.3,.98,.98,2.22,1.83,2.03,3.38,.05,3.71-2.71,5.44-5.83,3.67Zm8.92,75.95c-.68,1.35-1.86,1.63-3.16,1.37-3.18-.64-5.69-2.41-7.75-4.85-.61-.72-1.14-1.55-.67-2.53,.59-1.22,1.77-1.04,2.82-1.06,2.93,.71,5.74,1.61,7.96,3.73,.95,.91,1.48,1.99,.79,3.35Zm1.94-110.65c-7.58-3.31-15.21-6.58-22.11-11.22-1.46-.98-1.43-2.72-.37-4.2,.93-1.29,1.97-2.69,3.83-1.74,6.96,3.57,13.85,7.26,19.68,12.59,.76,.69,1.12,1.82,1.54,2.52-.14,1.99-1.18,2.65-2.57,2.05Zm39.27-13.24c4.17,.75,8.44,1.07,12.41,2.67,3.69,1.48,3.85,3.11,.66,5.62-3.65,2.87-7.9,4.42-12.33,5.67-2.22,.63-3.26,.12-3.37-2.25-.14-2.82-.4-5.64-.57-7.97-.63-3.23,.33-4.26,3.21-3.74Zm-1.9,36.83c1.1-.81,2.4-.43,3.92-.53,2.94,.65,7.71-.52,8.63,3.34,.84,3.54-3.98,4.02-6.38,5.77-.5,.36-1.06,.71-1.64,.89-2.35,.68-3.91,4.02-6.95,2.19-.72-.44,1.55-11.01,2.4-11.65Zm.42-69.36c3.11,.4,6.18,1.09,9.26,1.68,1.07,.2,2.54,.24,2.78,1.4,.32,1.53-1.38,1.93-2.36,2.51-3.24,1.91-6.49,3.83-9.89,5.42-4.76,2.22-5.32,1.79-5.45-3.35-.02-.78,0-1.57,0-2.35-.41-6.01-.4-6.08,5.67-5.31Zm-12.3-16.54c-.53,3.47-3.94,3.37-6.55,3.87-1.86-.45-4.78-.13-4.47-2.47,.47-3.58,3.99-3.9,6.93-4.09,1.86-.12,4.44,.38,4.09,2.69Zm-12.13-43.38c.9-.59,1.88-1.12,2.9-1.45,2.74-.89,5.49-1.27,7.92,.85,.65,.57,.85,1.36,.28,2.07-1.86,2.3-4.51,2.47-7.6,2.61-.82-.2-2.07-.37-3.21-.82-2.14-.83-2.15-2.05-.29-3.27Zm3.04,186.05c-.55,1.12-1.74,1.25-2.85,1.07-2.65-.43-5.04-1.56-7.26-3.04-.92-.62-1.9-1.44-1.48-2.64,.51-1.43,1.89-1.38,2.89-1.25,2.88,.64,5.39,1.47,7.53,3.12,.87,.67,1.77,1.52,1.17,2.74Zm11.23-105.84c-2.8,1.8-5.8,3.04-9.22,2.15-.9-.23-1.07-1.23-.55-1.91,2.14-2.76,5.16-3.84,8.03-4.24,1.73-.05,3.33-.1,3.75,1.17,.44,1.32-1,2.17-2.02,2.83Zm4.43-48.37c.61,.15,1.27,.19,1.83,.44,2.48,1.11,6.19-.46,7.44,3.13,.32,.91-10.12,6.28-11.46,5.85-3.06-.99-1.05-3.84-1.48-4.59-1.76-5.26,.39-5.65,3.68-4.82Zm-2.37-26.86c3.12,.53,7.62,.03,8.2,2.67,.66,2.97-3.95,3.65-6.28,5.28-1.18,.83-2.7,2.18-4.19,.65-1.93-1.99-1.9-4.63-1.43-7.1,.44-2.31,2.55-1.08,3.7-1.48Z"/>
  <path d="M291.61,381.38c12.43-22.43,30.5-41.99,34.01-68.86,0,1.19,.13,2.4-.02,3.56-.44,3.33,.89,4.65,4.24,4.26,1.45-.17,3.66-.83,3.98,1.26,.31,2.07-2.19,1.74-3.44,2.48-2.65,1.58-6.81,.87-7.56,5.32-.42,2.48-.06,4.05,2.79,4.15,.31,.01,.64,.02,.94,.1,2.17,.59,6.15-.25,6.17,1.81,.02,3.07-3.99,3.01-6.41,3.28-4.73,.52-8.41,2.07-10.63,6.57-1.05,2.14-.75,3.12,1.59,3.65,2.76,.62,5.49,1.38,8.2,2.19,1.01,.3,2.44,.71,2.28,2.02-.2,1.65-1.83,1.57-3.02,1.47-3.29-.26-6.57-.72-9.86-1.07-3.61-.38-8.22,3.73-8.17,7.2,.03,1.66,1.31,2,2.44,2.48,2.17,.93,4.42,1.68,6.52,2.74,1.29,.65,3.3,1.23,2.4,3.36-.81,1.92-2.41,.77-3.69,.52-2.78-.54-5.54-1.17-8.31-1.7-4.14-.8-6.54,1.41-8.15,4.86-1.01,2.17-.72,3.92,1.69,5.04,2.42,1.13,4.79,2.38,7.16,3.62,1.19,.63,3.27,.92,2.83,2.61-.51,1.94-2.64,1.32-4.1,1.16-3.47-.39-6.81-1.4-9.76-3.28-1.39-.89-2.64-1.4-4.12-.79Z"/>
  <path d="M234.98,443.51c15.9-18.61,34.45-34.74,50.19-54.15,2.51,4.44,6.67,6.31,10.25,8.91,1.24,.9,3.02,1.9,1.77,3.71-1.01,1.47-2.6,.53-3.81-.17-2.45-1.42-5.05-2.67-7.21-4.46-2.92-2.42-4.71-1.02-6.68,1.15-2.16,2.38-4.64,4.61-1.94,8.11,2.02,2.61,4.1,5.18,6.11,7.8,.6,.78,.99,1.77,.24,2.58-.92,.99-1.69-.05-2.39-.52-.91-.61-1.75-1.34-2.59-2.04-2.18-1.79-4.34-3.6-6.51-5.4-2.37,2.86-6.12,3.72-8.84,6.09-2.43,2.11-2.34,3.82,.4,5.51,3.64,2.25,6.83,5.03,9.51,8.39,.76,.96,1.99,1.91,.65,3.19-1.05,1-2.08,.16-2.95-.47-3.44-2.49-6.93-4.92-10.24-7.58-2.52-2.02-4.37-1.98-6.84,.35-6.23,5.87-6.47,6.46-2.34,13.84,.46,.82,.9,1.67,1.15,2.57,.29,1.05,.55,2.38-.45,3.06-1.19,.82-1.91-.49-2.76-1.11-2.45-1.79-3.46-6.33-6.75-5.7-2.53,.48-4.56,3.61-6.83,5.55-.35,.3-.76,.54-1.14,.81Z"/>
  <path d="M283.04,465.22c-8.38-1.02-14.15-6.47-20.19-11.37-1.32-1.07-.25-2.24,.6-3.2,.96-1.09,2.07-1.46,3.27-.48,5.95,4.88,12.28,9.13,19.5,11.95,.74,.29,1.45,.97,.96,1.81-.98,1.66-2.75,1.06-4.14,1.3Z"/>
  <path d="M234.13,544.17c-2.19,1.66-4.67,1.6-7.16,1.06-5.82-1.26-11.35-3.45-16.96-5.36-2.23-.76-2.27-2.15-1.76-4.05,.58-2.18,1.96-1.53,3.28-1.08,6.8,2.31,13.6,4.63,20.38,6.99,1.17,.41,2.44,.89,2.09,2.59,0,0,.13-.16,.13-.16Z"/>
  <path d="M330.25,411.09c-7.81-.57-13.59-5.12-19.67-9-.92-.59-1.83-1.41-.74-2.67,.92-1.08,1.82-2.47,3.49-1.49,6.37,3.75,12.78,7.4,19.57,10.36,.68,.3,1.49,.94,1,1.82-.88,1.57-2.49,.87-3.64,.98Z"/>
  <path d="M308.08,437.68c-7.34-.64-12.68-5.99-18.56-10.26-1.32-.96-.32-1.92,.47-2.69,1.25-1.21,2.48-1.66,4.09-.37,2.44,1.95,4.94,3.84,7.58,5.49,2.5,1.57,5.27,2.7,7.81,4.21,1.17,.69,3.83,.03,3.27,2.31-.42,1.7-2.62,1.2-4.66,1.31Z"/>
  <path d="M349.48,378.77c-6.38-.85-12.55-4.33-18.78-7.64-1.15-.61-1.61-1.46-.77-2.65,.86-1.22,1.73-2.13,3.48-1.23,3.77,1.93,7.58,3.79,11.46,5.48,2.43,1.05,5.04,1.71,7.55,2.58,.97,.34,2.54,.2,2.54,1.58,0,1.61-1.61,1.65-2.81,1.87-.61,.11-1.25,.02-2.68,.02Z"/>
  <path d="M353.07,362.93c-4.5-.15-9.6-1.62-14.59-3.66-1.44-.59-2.62-.97-1.81-2.97,.67-1.64,1.42-2.13,3.19-1.47,6.53,2.42,13.25,3.99,20.25,4.16,.69,.02,1.73-.28,1.88,.84,.14,1.08-.63,1.67-1.52,2.12-2.05,1.03-4.27,.94-7.4,.98Z"/>
  <path d="M257.94,495.92c-6.87-.71-12.18-5.15-17.44-9.68-1.05-.9-.85-1.9-.06-2.9,.84-1.08,1.77-1.93,3.14-.91,5.55,4.13,11.01,8.37,17.58,10.85,.65,.24,.99,.91,.63,1.51-.77,1.29-2.12,1.12-3.84,1.13Z"/>
  <path d="M199.45,492.99c3.02-5.73,6.05-11.46,9.07-17.19-4.07,7.23,1.93,10.18,5.8,13.96,1.01,.98,2.14,1.84,3.17,2.81,.9,.85,2.11,1.76,.93,3.13-.93,1.08-2.26,1.13-3.43,.39-1.59-1-3.13-2.09-4.61-3.24q-5.69-4.43-10.93,.14Z"/>
  <path d="M211.07,473.06c1.96-4.34,3.74-6.8,6.06-9.05,1.96,5.48,6.82,7.86,10.7,11.22,1.56,1.35,5.23,2.31,4.18,4.2-1.41,2.52-4.52,.44-6.69-.45-3.5-1.43-6.52-3.7-9.17-6.41-1.24-1.27-2.42-2.52-5.07,.49Z"/>
  <path d="M219.06,460.93c4.41-5.23,8.83-10.46,13.24-15.69-.6,2.75,.73,4.52,2.44,6.13,1.94,1.83,3.89,3.67,5.87,5.45,1.31,1.17,1.45,2.32,.21,3.62-1.21,1.28-2.26,.63-3.26-.26-1.76-1.57-3.69-3.01-5.16-4.82-2.24-2.76-4.03-2.14-6.15,.07-2.06,2.15-4.32,4.11-6.49,6.15-.24-.21-.48-.42-.71-.64Z"/>
  <path d="M270.4,472.5c-.66,2.33-2.28,2.53-4.04,1.75-4.77-2.11-8.66-5.53-12.65-8.79-1.2-.98-.53-1.92,.12-2.84,.75-1.06,1.74-2.27,3.04-1.31,4.4,3.22,8.67,6.62,12.96,9.99,.32,.25,.39,.8,.57,1.2Z"/>
  <path d="M351.55,327.01c-2.53,0-4.1,0-5.67,0-1.34,0-2.08-.54-1.87-1.98,.16-1.09,.25-2.25,1.79-2.29,6.14-.14,12.17-1.06,18.17-2.33,.71-.15,1.67-.3,2,.64,.38,1.06-.41,1.8-1.11,2.39-4.17,3.51-9.28,3.33-13.32,3.57Z"/>
  <path d="M290.13,451.04c-6-.83-11.07-3.51-15.89-6.8-1.05-.71-1.55-1.52-.77-2.72,.72-1.11,1.54-2.13,3.02-1.24,5.25,3.15,10.78,5.65,16.57,7.6,.74,.25,1.59,.88,1.16,1.69-.89,1.68-2.69,1.22-4.09,1.46Z"/>
  <path d="M353.01,341.39c-2.67-.19-5.34-.37-8-.55-1.42-.1-2.36-.51-2.21-2.28,.14-1.65,.93-2.16,2.44-2.08,6.12,.36,12.25,.69,18.37,1.04,.77,.04,1.71,0,1.74,1.06,.04,1.08-.81,1.7-1.66,2.1-3.46,1.6-7.08,1.08-10.68,.7Z"/>
  <path d="M336.91,395.89c-6.33-.41-11.64-3.04-16.78-6.15-.88-.53-2.18-1.1-1.2-2.5,.72-1.02,1.56-1.98,3.11-1.19,5.61,2.84,11.38,5.25,17.51,6.76,.78,.19,1.68,.72,1.3,1.59-.8,1.8-2.62,1.29-3.94,1.49Z"/>
  <path d="M186.33,541.49c-1.18,7.69,2.11,12.31,9.1,14.63,1.91,.63,2.31,1.95,1.9,3.69-.53,2.24-2.07,1.27-3.38,1.03q-9.07-1.65-8.37-10.9c.22-2.82,.5-5.64,.75-8.46Z"/>
  <path d="M241.35,512.28c-5.62-.52-10.08-3.68-14.41-7.09-1.04-.82-.98-1.89-.34-2.94,.74-1.21,1.79-1.14,2.83-.49,4.38,2.74,8.78,5.42,13.78,6.92,.97,.29,1.68,1.01,1.35,2.11-.46,1.55-1.84,1.42-3.21,1.48Z"/>
  <path d="M349.72,312.42c-.75,0-2.64,0-4.52,0-1.61,0-2.75-.45-2.62-2.43,.1-1.58,.87-2.18,2.39-2.23,5.18-.15,10.36-.36,15.54-.53,.9-.03,2.11-.24,2.29,1.01,.18,1.21-.74,2.01-1.77,2.52-3.23,1.6-6.77,1.12-11.31,1.65Z"/>
  <path d="M313.82,424.12c-5.84-1.12-10.98-3.72-15.64-7.34-.93-.72-1.56-1.58-.69-2.79,.88-1.22,1.9-1.54,3.21-.64,4.43,3.05,9.36,5.14,14.12,7.55,.89,.45,2.29,.94,1.86,2.31-.43,1.36-1.8,.9-2.87,.91Z"/>
  <path d="M190.42,521.34c1.22,3.94,3.57,6.9,6.87,9.1,1.36,.91,1.96,1.91,1.1,3.5-.87,1.62-2.06,.91-3.21,.51-.44-.15-.89-.31-1.29-.54-3.68-2.11-6.48-2.33-6.62,3.5,.14-5.73,1.44-10.83,3.16-16.08Z"/>
  <path d="M188.64,587.17c-2.71-7.32-2.66-14.7-2.84-22.12,1.4,0,.9,1,.99,1.52,.76,4.31,1.89,8.3,6.77,9.83,1.18,.37,2.44,1.19,2.3,2.66-.15,1.53-1.65,1.28-2.64,1.29-4.62,.02-6.22,2.13-4.57,6.83Z"/>
  <path d="M217.69,568.31c-1.96-.29-5.18-.87-8.43-1.22-2.4-.26-2.64-1.66-2.42-3.59,.28-2.56,1.92-1.85,3.44-1.51,3.19,.7,6.39,1.38,9.57,2.1,1.37,.31,2.95,.6,2.69,2.54-.29,2.17-1.96,2.05-4.85,1.68Z"/>
  <path d="M261.62,481.1c-5.08-.55-9.38-3.01-13.38-6.13-1.24-.97-1.17-2.08-.35-3.28,1.02-1.49,2.15-.9,3.2-.12,3.54,2.63,7.36,4.73,11.43,6.39,.97,.4,2.36,.67,1.99,2.12-.37,1.43-1.78,.87-2.9,1.01Z"/>
  <path d="M228.43,529.09c-2.19-.54-5.37-1.3-8.53-2.12-2.27-.59-2.3-2.25-1.73-4.06,.72-2.3,2.12-.99,3.34-.58,2.96,.98,5.93,1.93,8.88,2.93,1.2,.41,3.25,.1,2.91,2.15-.35,2.07-2.29,1.67-4.88,1.7Z"/>
  <path d="M193.3,510.1c.84-3.45,1.73-6.04,3.3-8.83,2.53,2.2,4.96,4.25,7.32,6.37,.67,.6,1.51,1.34,1.02,2.37-.63,1.35-1.78,.79-2.86,.6-2.78-.49-5.16-3.76-8.79-.52Z"/>
  <path d="M232.7,495.58c.44-1.63,1.38-2.49,3.02-1.32,3.69,2.63,7.32,5.35,10.95,8.06,1.02,.76,1.58,1.74,.07,2.51-2.05,1.05-13.89-6.76-14.04-9.25Z"/>
  <path d="M214.75,601.09c-3.61-.31-6.89-.63-9.88-2.11-1.29-.64-2.5-1.67-1.81-3.32,.72-1.71,2.1-.72,3.22-.4,2.84,.81,5.69,1.62,8.5,2.54,1.4,.45,3.98,.05,3.87,1.77-.16,2.33-2.79,.92-3.91,1.51Z"/>
  <path d="M347.19,300.77c-2.15-.25-4.24,.74-4.48-2.09-.26-3.04,1.85-2.68,3.72-2.72,2.35-.06,4.71-.12,7.06-.17,1-.03,1.99,.12,2.14,1.3,.15,1.17-.26,2.24-1.59,2.49-2.46,.47-4.94,.86-6.84,1.19Z"/>
  <path d="M221.78,557.41c-5.54-.25-10.32-2.5-14.62-5.98-.73-.6-1.18-1.5-.54-2.48,.51-.77,1.25-.83,2.03-.4,4.56,2.51,9.11,5.03,13.67,7.55-.18,.44-.35,.87-.53,1.31Z"/>
  <path d="M194.84,611.58c-2.14-4.23-3.16-8.58-3.78-13.29,1.78,2.66,3.97,4.79,6.58,6.54,1.45,.97,1.42,2.4-.02,3.49-1.12,.85-2.1,1.79-2.78,3.26Z"/>
  <path d="M284.22,432.53c.88,.69,1.6,1.24,2.31,1.82,1.7,1.38,3.51,2.65,5.04,4.2,1.38,1.41,5.05,2.26,3.4,4.52-1.13,1.56-3.81-1.01-5.5-2.18-2.17-1.5-4.08-3.38-6.05-5.17-.53-.48-1.26-1.13-.68-1.99,.31-.46,.89-.74,1.47-1.2Z"/>
  <path d="M338.2,385.91c-4.06-1.97-8.15-3.89-12.18-5.92-1.07-.54-2.49-1.24-1.37-2.84,.96-1.38,2.13-.9,3.26-.09,3.67,2.64,7.36,5.27,11.05,7.9-.25,.32-.5,.64-.75,.96Z"/>
  <path d="M317.22,416.2c-4.81-1.13-8.01-4.5-11.52-7.38-.44-.36-.94-.9-.53-1.6,.34-.58,.96-.99,1.54-.63,4.11,2.55,7.64,5.72,10.51,9.61Z"/>
  <path d="M219.95,512.16c4.91,2.13,8.95,5.41,13.38,8.87-4.07,.18-10.29-3.84-13.38-8.87Z"/>
  <path d="M351.17,351.08c-3.83-1.05-7.98-1.36-10.88-4.66,4.22,.12,7.44,2.64,10.88,4.66Z"/>
  <path d="M305.77,180.63c.09-18.27,12.63-31.43,29.92-31.4,17.28,.03,30.36,13.45,30.39,31.18,.03,17-13.35,30.21-30.4,30.02-17.3-.2-29.99-12.84-29.91-29.8Zm34.27-11.22c.06-5.83-5.1-11.08-11.08-11.29-6.01-.21-11.86,5.55-11.81,11.62,.05,6.18,4.94,11.11,11.03,11.12,6.66,0,11.81-4.96,11.87-11.45Z"/>
  <path d="M310.35,116.27c-.12,3.67-3.4,6.76-7.12,6.69-3.5-.06-6.67-3.25-6.57-6.61,.11-3.78,3.21-6.66,7.12-6.59,3.77,.06,6.69,2.95,6.57,6.51Z"/>
  <path d="M150.92,178.74c-.05,1.48-.93,2.3-2.29,2.4-1.49,.11-2.29-.86-2.28-2.27,0-1.39,.78-2.34,2.26-2.37,1.45-.03,2.28,.73,2.31,2.24Z"/>
</svg>