<?xml version="1.0" encoding="UTF-8"?>
<svg id="Layer_1" data-name="Layer 1" xmlns="http://www.w3.org/2000/svg" viewBox="0 0 864 864">
  <path d="M247.03,150.33c2.99-5.32,7.89-6.95,13.48-6.23,5.75,.74,8.2,5.01,9.38,10.27,2.89,12.9-2.41,23.71-15.69,31.42,3.31,1.1,5.98,.35,8.63-1.41,12.76-8.49,22.57-31.65,19.74-46.76-2.49-13.25-14.64-22.16-29.12-21.33-2.32,.13-4.64,.4-7.97,.69,2.81-3.37,5.59-5.18,8.33-7,8.52-5.64,17.9-9.45,27.62-12.35,3.17-.95,4.05-2.25,4.42-5.51,3.75-33.11,15.11-62.65,40.88-85.23,2.55-2.23,5.17-4.33,8.24-5.82,1.75-.84,3.49-1.62,5.89-.58-6.6,12.72-10.17,26.36-13.35,40.11-2.25,9.7-4.56,19.39-4.7,29.45-.08,6.17,.76,12.15,2.65,18.03,.96,2.99,2.7,4.43,5.91,4.6,8.98,.5,17.97,1.07,26.92,1.92,3.48,.33,4.67-.95,5.54-4.15,4.78-17.52,9.94-34.92,18.41-51.12,6.1-11.66,13.78-22.07,24.09-30.37,4-3.22,8.19-6.12,13.94-6.14-3.92,10.47-7.78,20.62-11.5,30.81-8.8,24.07-8.62,48.12,.31,72.13,1.98,5.33,6.95,7.83,10.76,11.39,1.38,1.3,2.92-.56,4.26-1.32,16.76-9.45,30.05-22.95,43.08-36.8,6.86-7.3,12.74-15.29,18.15-23.68,.87-1.35,1.49-3.71,3.72-3.1,1.83,.5,2.29,2.58,2.81,4.25,1.63,5.18,1.49,10.52,.73,15.77-3.63,24.96-13.42,46.81-32.61,63.86-1.23,1.09-3.48,2.12-2.51,4.17,.96,2.05,3.34,1.63,5.22,1.47,5.56-.48,10.38-3.22,15.42-5.29,.56-.23,1.17-.31,2.41-.63-.95,2.72-2.85,3.94-4.38,5.31-6.41,5.73-13.47,10.49-21.74,13.03-3.75,1.15-2.65,2.63-.91,4.54,2.97,3.27,6.9,4.47,11.07,5.32,7.41,1.51,14.65-.05,22.08-.83-7.66,6.78-16.16,11.87-26.08,14.47-1.82,.48-2.13-.22-2.48-1.73-.91-3.87-2.01-7.7-3.85-11.4,.98,5.68,2.1,11.34,2.92,17.04,2.68,18.58-.61,36.84-3.18,55.13-2.71,19.32-10.25,37.49-13.58,56.64-5.49,31.57-18.5,60.63-29.64,90.32-6.6,17.58-13.56,35.09-17.58,53.49-3.39,15.51-1.7,30.38,8.33,43.45,5.17,6.74,9.14,7.97,17.18,5.27,3.49-1.18,6.99-2.47,10.25-4.17,31.5-16.45,62.64-33.55,90.43-55.95,31.92-25.73,59.91-55.37,85.52-87.31,12.88-16.06,25.43-32.34,35.67-50.26,5.3-9.27,9.06-19.15,11.37-29.57,.41-1.86,.55-3.83,.51-5.74-.08-3.68-1.93-4.86-5.41-3.46-3.71,1.49-6.73,3.73-8.49,7.43-.94,1.98-1.85,3.98-3.36,7.23-2.36-10.41-2.6-19.37,3.19-27.21,5.18-7.03,12.33-10.76,21.41-8.74,2.77,.61,3.82-1.22,5.05-2.79,7.84-9.98,15.61-20.02,23.38-30.06,8.74-11.27,17.46-22.55,26.84-33.75,10.32,108.25,47.19,207,104.16,299.66-6.18-2.44-11.84-4.44-18.01-4.25-12.06,.39-23.51,3.24-34.47,8.16-19.03,8.55-35.11,21.3-49.98,35.66-23.89,23.09-45.65,47.93-62.35,76.88-5.54,9.6-9.52,19.83-12.19,30.11-22.9-40.32-60.07-52.29-103.34-51.62-17.57,.27-34.29,4.84-49.82,13.34-3.11,1.7-6.22,3.47-8.73,5.96-2.43,2.4-3.39,1.58-4.73-1.08-7.81-15.39-17.14-29.78-28.58-42.76-4.36-4.94-9.37-9.2-14.64-13.85-.42,1.7,.64,2.31,1.22,2.99,15.18,17.74,29.08,36.4,40.78,56.63,6.91,11.96,11.37,25.12,18.21,37.18,17.6,31.03,41.28,55.99,72.1,74.06,37.5,21.99,75.12,20.85,112.83,.49,27.08-14.62,50.12-34.1,69.96-57.54,2.03-2.4,2.04-4.89,2.03-7.62-.05-13.42,4.72-30.32,11.53-40.18,1.3,7.84,2.37,15.33,4.95,23.19,17.51-23.06,32.9-46.97,52.68-67.4-20.62,18.38-35.36,41.61-52.07,63.69-1.52-14.44,50.03-73.88,68.18-78.5-1.2,2.37-2.11,4.33-3.15,6.22-13.07,23.68-23.89,48.37-33.33,73.7-1.45,3.9-1.82,5.86,3.33,5.62,2.01-.1,5.22-.9,5.94,1.61,.57,1.99-2.3,3.2-3.81,4.55-7.03,6.33-15.25,10.56-24.06,13.88-21.39,8.06-21.18,8.25-33.59,27.5-36.71,56.93-87.69,94.67-152.79,113.55-32.38,9.39-65.22,14.29-98.96,12.48-10.6-.57-21.16-1.66-31.56-3.79-3.5-.72-4.9-.31-4.78,3.72,.25,8.53-.98,16.99-2,25.44-.85,7.11-3.16,13.74-6.73,19.96-6.22,10.82-14.04,20.36-23.08,28.9-3.04,2.88-6.45,5.25-11.34,5.9,1-9.59,6.17-17.16,9.96-25.56-5.79,3.85-11.5,7.84-17.39,11.52-5.31,3.31-10.81,6.32-16.26,9.4-.91,.52-2.05,1.47-3.04,.58-.92-.82-.43-2.17-.1-3.2,2.15-6.7,6.07-12.35,10.63-17.61,1.44-1.66,3.35-2.97,4.48-5.81-7.22,2.09-13.94,4.05-20.66,5.96-2.31,.66-4.65,1.27-7.01,1.71-.97,.19-2.32,1.09-3-.32-.56-1.16,.46-2.13,1.15-2.97,2.98-3.62,6.46-6.7,10.33-9.35,2.2-1.51,4.33-3.12,6.08-5.73-4.82,.58-9.64,1.22-14.47,1.7-1.16,.11-2.82,.84-3.46-.62-.56-1.28,.69-2.38,1.48-3.33,7.54-9.07,17.8-12.25,29.01-13.12,10.68-.83,21.1,.47,31.5,5.59-1.44-10.08-5.34-18.29-9.58-26.35-1.57-2.98-3.55-5.74-5.21-8.67-5.74-10.14-13.89-16.65-25.06-21-29.42-11.47-57.61-25.64-81.98-46.12-22.59-18.99-43.16-39.92-58.31-65.62-11.43-19.38-17.71-40.33-18.04-62.72-.28-18.62,.54-37.29,2.82-55.81,2.46-20,7.48-39.29,18.17-56.77-4.04,3.11-6.63,7.31-8.82,11.69-9.1,18.21-13.34,37.77-15.58,57.84-1.09,9.75-1.47,19.55-1.55,29.35-.02,2.76-.61,3.62-3.67,2.57-28.37-9.74-60.72-1.01-80.6,21.58-.2,.23-.5,.37-1.07,.77-1.34-2.53-.66-5.27-1.02-7.8-3.11-22.33-15.19-38.9-33.31-51.4-23.07-15.91-48.44-23.35-76.59-19.81-1.74,.22-3.49,.28-5.14,.4-.84-1.46,.31-1.93,.93-2.49,22-19.94,37.13-44.62,48.75-71.56,18.56-43.07,29.92-88.11,35.68-134.62,1.68-13.56,2.42-27.2,3.45-40.82,.14-1.87,.67-4.04-1.76-4.96-2.58-.97-4.46,.35-5.66,2.42-1.75,3.02-3.21,6.2-4.78,9.29-1.84-.21-2.04-1.73-2.38-2.79-2.64-8.35-1.56-16.28,3.67-23.31,4.04-5.44,10.44-6.14,15.63-1.81,2.07,1.73,2.73,1.53,4.25-.57,3.2-4.4,7.85-6.09,11.75-4.39,4.37,1.91,5.64,5.93,5.87,10.29,.24,4.52-.83,8.8-2.86,13.2-1.65-1.81-2.95-3.36-4.39-4.79-1.56-1.54-3.45-2.57-5.66-1.62-2.08,.9-2.31,2.98-2.32,4.92-.01,10.95,.7,21.84,3.29,32.53,7.16,29.58,20.56,56.34,37.17,81.6,19.36,29.44,41.97,56.05,69.28,78.5,5.35,4.4,11.14,8.16,17.07,11.73,1.75,1.05,2.92,1.36,4.23-.85,22.88-38.42,50.09-73.95,74.42-111.4,10.04-15.45,17.89-31.96,20.86-50.39,.51-3.17,1.68-2.19,3.38-.98,4.85,3.46,9.91,5.28,16.1,1.08-5.31-2.83-10.9-3.9-15.53-7-1.68-1.12-2.93-2.03-3.13-4.35-.96-11.5-4.78-21.56-15.38-28.22,11.76,.16,23.13-.91,34.04-5.05,11.1-4.22,19.47-11.24,24.11-23.14-.8,.41-.97,.44-1.03,.54-9.9,17.63-26.32,24.2-45.14,24.8-45.46,1.43-89.86-4.1-131.44-24.06-13.39-6.43-25.62-14.75-35.52-26.09-19.76-22.64-18.88-53.77,2.19-73.81,5.69-5.41,12.1-9.61,20.36-9.82,2.92-.07,5.8,.16,8.41,1.65,4.25,2.43,4.92,5.07,2.42,9.24-5.61,9.33-4.51,20.12,3.06,30.11,6.28,8.28,16.47,14.64,24.34,15.09-6.86-11-6.6-21.98-.1-32.94-.39,1.04-.89,2.05-1.15,3.11-.52,2.23-.04,4.24,2.07,5.39,1.99,1.08,4.08,.96,5.77-.7,1.63-1.61,2.09-3.58,1.04-5.71-1.06-2.14-2.9-2.88-5.18-2.58-.92,.12-1.81,.43-2.72,.66Zm125.09,65.49c6.78,0,13.45-.84,19.93-2.86,28.72-8.91,37.55-41.71,17.25-63.99-16.81-18.44-50.34-20.17-68.5-3.04-11.55,10.89-16.27,24.55-12.46,40.28,3.69,15.27,14.25,23.84,29.02,27.76,4.83,1.28,9.78,1.76,14.77,1.84Zm266.42,259.16c.26,.12,.51,.24,.77,.36,.65-1.79,1.4-3.56,1.93-5.39,5.94-20.51,11.98-41,16.24-61.94,9.5-46.67,16.85-93.59,13.94-141.48-.63-10.41-1.25-20.84-3.48-31.08-.29-1.33-.51-3.23-2.57-2.68-1.7,.46-1.06,2.06-.94,3.3,.63,6.55,1.55,13.09,1.84,19.66,2.6,59.25-2.9,117.75-16.71,175.43-3.51,14.65-7.34,29.21-11.02,43.82Zm-194.01,161.8c-19.76-4.48-36.12,1.4-49.83,18.03,1.18-12.71-1.75-23.39-5.5-33.93-.24,1.93-.01,3.79,.27,5.64,1.25,8.08,3.95,15.94,3.59,24.24-.06,1.36,.6,3.38-.91,3.9-1.78,.62-2.63-1.4-3.59-2.6-3.63-4.52-7.15-9.12-10.24-15.31-.72,3.58-1.16,5.92-1.67,8.25-2.12,9.62-5.98,18.62-9.7,27.68-1.85,4.5-1.12,5.5,3.88,5-2.88-2.69-1.57-5.31-.46-8.07,1.66-4.11,3.04-8.33,4.61-12.48,1.45-3.86,4.72-7.19,3.39-11.86-.06-.22,.52-.63,.93-1.09,4.83,4.02,7.35,9.9,12.29,13.59,1.45,1.08-.15,2.28-.52,3.4-1.49,4.41-3.16,8.76-4.39,13.24-1.03,3.75-4.9,7.08-2.03,11.54,.07,.1-.02,.31-.05,.47-3.3,17.52-.38,34.13,7.12,50.14,2.21,4.71,2.03,4.8,5.75,7.46-.16-.55-.19-1.04-.42-1.42-10.86-18.43-13.21-38.31-9.99-59.11,3.02-19.57,11.27-35.38,30.91-43.11,8.65-3.41,17.49-4.68,26.58-3.6ZM404.65,16.07c-1.91,2.32-3.58,4.23-5.13,6.25-15.57,20.27-24.15,43.59-29.82,68.19-.88,3.82,.82,4.86,4.6,4.53-.27-1.01-.54-1.72-.65-2.45-.86-5.47,.68-7.1,6.2-6.78,2.04,.12,4.1,.02,6.14,.02-1.75-1.17-3.45-1.56-5.15-1.98-2.38-.58-3.67-2.15-3.26-4.54,.38-2.2,2.08-3.01,4.28-3.02,2.6-.02,5.19-.21,7.79-.33-2.03-.99-4.07-1.25-6.11-1.47-1.91-.21-4.1-.07-4.28-2.78-.19-2.69,1.33-4.03,3.85-4.69,2.05-.54,4.45,.11,6.8-1.8-2.67-.91-6.17-.36-6.26-3.39-.14-4.18,4.26-4.07,7.06-5.51-1.74-1.3-4.8-.61-4.76-3.06,.04-2.35,2.68-2.89,4.59-3.63,2.33-.91,4.7-1.69,7.06-2.53-1.17-.53-2.12-.38-3.07-.35-1.77,.06-4.14,1.28-4.64-1.68-.43-2.58,1.51-3.63,3.58-4.4,1.78-.66,3.86-.26,5.67-1.61-.61-.4-1.1-.76-1.62-1.06-1.29-.75-3.37-.77-2.98-3.09,.33-1.94,1.95-2.38,3.52-2.8,1.61-.43,3.33-.62,4.67-2-4.01-2.19-4.12-3.68-.62-5.87,.95-.59,2.05-.92,3-1.51,.51-.31,1.82-.93,.3-1.52-3.1-1.2,.02-2.92-.77-5.14Zm77.55,50.92c-15.14,22.62-34.4,40.8-58.21,54.91,2.83,2.01,5.09,3.6,7.66,5.43,.24-6.57,1.52-7.23,6.56-4.14,1.11,.68,2.32,1.21,3.79,1.97-.56-3.61-5.3-5.98-2.46-9.15,3.25-3.62,6.99,.04,10.45,1.02,.28-2.78-4.77-3.01-2.52-6.52,3.44-5.35,7.87-.47,11.9-1.22-1.23-2.5-5.66-3.43-3.8-7.01,1.82-3.48,5.07-4.6,9.04-3.12-1.55-4.98,.23-6.83,6.45-7.03-.74-1.52-2-2.84-.8-4.77,2.24-3.61,5.84-.96,9.43-1.97-2.98-2.25-6.06-4.83-2.35-7.42,4.2-2.93,2.81-7.52,4.85-10.99Zm-178.55,152.36c-1.3,.64-1.39,1.48-1.46,2.24-.91,9.08-6.68,13.91-14.76,16.4-6.09,1.88-12.39,1.58-18.6,.52-15.39-2.63-29.34-9.01-42.78-16.68-1.2-.68-2.25-1.98-4.56-1.61,8.43,6.46,17.1,11.28,26.17,15.34,10.16,4.55,20.71,7.87,32.04,7.46,15.01-.54,24.86-10.29,23.96-23.66Zm55.32,328.52c5.14,34.51-.11,67.35-15.67,98.6,19.07-30.72,23.66-63.7,15.67-98.6ZM321.95,17.84c-11.54,13.82-22.19,40.65-20.18,66.58,.13,1.73-.68,4.85,1.64,4.77,2.23-.08,1.39-3.18,1.4-4.95,.09-15.99,2.26-31.6,7.74-46.7,2.5-6.88,6-13.27,9.4-19.71Zm66.75,599.56c12.43-19.59,9.06-65.2-5.94-81.61,16.11,25.87,11.6,53.25,5.94,81.61Zm-34.73,55.81c-4.15-.19-8.04,.1-11.34-2.93-3.02-2.77-2.23-4.09,.62-6.13,1.69-1.21,4.09,.16,4.71-.97,2.63-4.8,5.67-8.63,11.77-8.5,.28,0,.73-.61,.83-1.01,1.13-4.43,2.21-8.87,3.3-13.31-4.48,8.11-11.15,14.05-17.96,19.87-1.82,1.56-3.65,3.13-5.33,4.84-1.56,1.59-3.87,3.23-4.13,5.1-.32,2.23,3.1,2.41,4.6,4,3.97,4.19,8.07,3.79,12.94-.96Zm-41.02-227.43c-3.98-1.05-7.54-1.85-11.01-2.95-3.69-1.17-6.74-3.57-9.93-5.68-.76-.5-1.7-1.35-2.57-.66-1.05,.83-.39,2.08-.13,3.13,2.42,9.46,15.86,13.29,23.64,6.15Zm14.9-74.43c1.06,6.43,5.59,11.23,12.09,13.38,4.37,1.44,8.76,2.12,13.73-1.25-9.22-3.57-17.43-7.05-25.83-12.13Zm-81.84,172.51c-.07,3.64,.67,7.04,3.08,9.89,.85,1.01,2,1.83,3.37,1.34,1.25-.44,1.19-1.75,1.28-2.88,.23-3.04,.57-6.07,.74-9.12,.17-3.14,.15-6.88-3.78-7.18-3.98-.31-4.38,3.4-4.68,6.51-.05,.48,0,.96,0,1.44Zm122.17-192.37c-9.62,.19-17.57-2.41-25.86-5.95,3.35,11.33,15.86,14.32,25.86,5.95Zm-115.69,165.71c-.06,3.96,.56,6.91,2.63,9.33,1.14,1.33,2.94,2.41,3.43-.26,1.02-5.48,1.6-11.04,2.25-16.59,.15-1.27-.17-2.65-1.72-3.04-1.23-.31-2.17,.41-2.93,1.26-2.57,2.88-3.54,6.36-3.67,9.3Zm53.43,23.46c-.3-3.93-.47-7.77-1.88-11.37-.89-2.26-2.3-3.65-4.54-1.21-2.93,3.19-2.86,11.58,.15,14.76,1.46,1.54,3.35,3.05,5.42,2.33,2.25-.78,.35-3.08,.85-4.51Zm-11.88,18.66c-.06,2.49,.59,4.76,2.15,6.73,.86,1.09,1.98,1.68,3.37,1.35,1.34-.32,1.51-1.49,1.65-2.64,.48-3.82,1.02-7.63,1.47-11.45,.18-1.5-.05-2.98-1.67-3.63-1.57-.63-2.81,.2-3.82,1.32-2.13,2.35-3.31,5.09-3.15,8.32Zm-43.91,8.62c.06-2.02,.28-5.23-3.56-5.39-3.63-.15-4.15,3.05-4.46,5.77-.37,3.2-.35,6.45,1.2,9.43,1.35,2.61,3.01,2.85,4.55,.21,1.65-2.83,2.27-5.98,2.27-10.03Zm65.36-175.76c2.93,7.72,7.94,10.9,14.29,12.34,3.24,.73,6.46,.75,9.31-2.88-8.47-1.58-15.31-5.73-23.6-9.46Zm18.05,309.19c1.43-.06,2.99,.05,3.9-1.31,.6-.9-.26-1.51-1-1.71-5.32-1.48-7.7-5.84-10.17-10.17-.7-1.24-1.59-2.7-3.29-2.21-1.81,.52-2.02,2.28-2.07,3.91-.19,5.45,6.39,11.41,12.63,11.48Zm-37.7-19.45c1.45-.02,3.22,.1,3.79-1.41,.54-1.43-1.09-2.12-2.09-2.83-2.9-2.08-5.23-4.64-7.1-7.67-.81-1.31-1.59-3.17-3.55-2.5-1.71,.59-1.92,2.46-1.92,4.06,.01,4.93,5.65,10.24,10.87,10.35Zm16.71-202.93c-8.39,1.56-12.07-2.76-13.9-9.49-.24-.89-.8-1.88-2.03-1.54-1.01,.28-1.37,1.23-1.72,2.15-1.54,4.04,.94,9.21,5.74,11.95,4.28,2.44,7.93,1.74,11.91-3.06Zm-37.37,76.25c.56,4.41,1.34,8.47,4.73,11.4,.98,.85,2.2,1.3,3.55,.93,.72-.2,.97-.75,.8-1.46-1.1-4.8-2.15-9.6-3.33-14.38-.27-1.11-1.11-2.01-2.4-1.97-1.26,.04-2,.97-2.4,2.04-.44,1.18-.67,2.44-.94,3.45Zm-2.93-28.17h.07c0-2.39,.02-4.77,0-7.16-.01-1.12-.05-2.33-1.3-2.84-1.44-.58-2.4,.35-3.3,1.29-3.36,3.52-2.9,12.51,.84,15.87,.94,.85,2.08,1.86,3.36,1.15,1.21-.67,.28-2.03,.31-3.07,.06-1.75,.02-3.5,.02-5.25Zm52.1-105.21c-3.52-1.5-6.65-2.69-9.65-4.13-3.04-1.46-5.64-3.61-8.17-5.83-.57-.5-1.37-1.13-2.06-.29-.33,.4-.4,1.18-.31,1.75,1.23,7.78,12.86,12.98,20.18,8.5Zm28.28-98.62c.73,5.7,3.23,8.58,7.52,9.91,4.57,1.42,8.78,.76,13.73-2.83-7.99-1.45-14.54-3.09-21.25-7.09Zm-85.26,261.79c-3.73-4.88-5.01-10.2-5.22-15.86-.04-1,.18-2.47-1.28-2.69-1.05-.16-1.57,.95-2.09,1.72-2.73,3.99-2.26,8.09-.43,12.26,1.67,3.8,4.75,4.78,9.02,4.57Zm.17-22.44c-1.5-5.27-.95-10.05-.97-14.82,0-1.77-.51-4.29-2.93-2.24-3.22,2.74-4.29,6.7-3.6,10.9,.62,3.75,2.92,5.88,7.5,6.16Zm58.93,112.46c-4.31-1.43-6.63-3.75-8.5-6.61-1.23-1.88-2.54-3.71-3.9-5.5-.59-.77-1.46-1.33-2.52-.99-1.18,.38-1.06,1.45-1.1,2.4-.31,7.85,7.37,13.59,16.01,10.7Zm-81.65-83.04c-.15,5.25,.75,8.99,5.36,10.55,1.63,.55,2.92,.34,2.53-1.92-.66-3.76-1.23-7.53-2.04-11.25-.28-1.31-.75-3.02-2.59-2.95-1.91,.07-2.59,1.65-2.96,3.25-.25,1.08-.28,2.2-.29,2.33Zm12.83,34.79c-.05,4.04,3.09,9.95,6.1,11.4,1.17,.56,2.52,1.06,3.65,.21,1.45-1.1,.31-2.4-.29-3.37-1.79-2.88-3.01-5.97-3.94-9.22-.43-1.52-1.04-3.34-3.08-3.07-2.24,.29-2.43,2.2-2.44,4.05Zm532.17-16.91c10.15-16.67,16.06-35.3,25.08-52.49-10.03,16.72-17.14,34.81-25.08,52.49Zm-502.98-75.67c-.25-2.84,.09-5.76-1.04-8.5-.37-.9-.76-1.84-1.83-2.01-1.3-.2-2.05,.7-2.63,1.69-2.03,3.5-1.57,7.09-.15,10.6,.85,2.11,2.27,4.59,4.69,4.08,2.63-.55,.46-3.24,.94-4.91,.08-.29,.01-.63,.02-.96Zm-24.44,65.33c.24,3.73,1.34,6.93,5.52,7.85,2.41,.53,3.74-.1,2.74-3-.98-2.85-1.67-5.79-2.54-8.68-.36-1.19-.62-2.67-2.2-2.76-1.54-.09-1.99,1.34-2.58,2.44-.69,1.29-1,2.67-.94,4.15Zm8.35,52.02c-1.72,.45-1.85,1.78-1.91,3.05-.15,3.64,5.46,10.35,9.08,10.84,2.3,.3,3.91-.93,2.54-2.96-2.5-3.69-5.65-6.93-8.57-10.33-.28-.32-.81-.43-1.14-.59Zm28.03-19.9c-6.89-4-8.14-9.99-8.58-16.52-4.06,3.43-4.9,7.26-2.72,11.67,2.07,4.2,5.36,6.1,11.31,4.85Zm33.77,22.22c-4.13,1.93-5.83-.86-7.71-3.21-1-1.25-1.82-2.63-2.72-3.95-.81-1.19-1.64-2.82-3.29-2.2-1.85,.69-1.61,2.62-1.29,4.2,1.19,5.84,8.57,11.95,15.02,5.16Zm-11.63,48.86c-5.54-2.73-9.35-7.2-13.02-11.86-.93-1.19-1.92-3.2-3.75-2.13-2.2,1.29-.59,3.26,.18,4.62,3.62,6.36,9.38,9.2,16.59,9.37Zm213.62,2.65c6.76-1.35,9.56-5.03,11.25-9.66,1.15-3.16,1.4-6.44-2.34-9.76-.72,7.53-4.29,12.96-8.9,19.42Zm-265.22-216.15h-.2c.2-2.23,.44-4.45,.59-6.68,.05-.8-.15-1.64-.98-2.02-.86-.4-1.51,.16-2.12,.67-3.36,2.77-3.72,12.13-.56,15.08,.7,.65,1.45,1.39,2.49,1.09,1.31-.38,.76-1.52,.78-2.4,.02-1.91,0-3.83,0-5.74Zm12.59,97.37c-2.39-4.08-3.02-8.04-3.85-11.95-.2-.93-.28-2.09-1.43-2.24-1.04-.13-1.73,.75-2.23,1.56-1.86,2.98-1.81,6.1-.4,9.2,1.4,3.07,4,3.8,7.91,3.43Zm13.63-5.57c.36,3.5,.78,6.4,3.68,8.01,.97,.54,2.22,.81,3.23,.15,.99-.65,.42-1.72,.26-2.64-.49-2.84-.94-5.7-1.48-8.53-.22-1.17,.07-2.88-1.75-2.94-1.45-.05-2.24,1.25-2.78,2.38-.61,1.27-.89,2.7-1.16,3.57Zm19.93,52.28c-5.91-3.63-5.95-3.68-8.74-8.88-.65-1.2-.97-3.08-2.93-2.37-1.87,.68-1.75,2.46-1.52,4.08,.92,6.35,6.31,9.44,13.19,7.17Zm-23.65-133.98c-.52,.19-1.05,.24-1.38,.53-2.37,2.1-3,4.76-2.3,7.77,.67,2.87,2.28,4.85,5.31,5.39,.8,.14,2-.05,1.86-.9-.66-4.03-1.54-8.03-2.42-12.02-.07-.32-.7-.52-1.07-.77Zm17.93,9.91c.03-1.17,.26-2.33-.94-3.05-1.11-.66-2.14-.45-3.13,.25-2.73,1.92-3.68,8.54-1.5,10.98,1.65,1.85,3.27,2.27,4.03-.73,.63-2.47,1.04-5,1.54-7.45Zm257.67,200.03c-.71,6.32-2.88,11.34-7.41,15.72,4.96,.55,7.75-1.51,9.44-5.09,1.65-3.5,2.07-7.02-2.04-10.62Zm-71.18-53.68c5.57-1.13,9.11-4.7,11.18-9.78,.69-1.69,.42-3.76-1.62-4.46-2.03-.7-2.21,1.34-2.68,2.59-1.61,4.25-4.51,7.68-6.89,11.65Zm-200.48-17.29c-.69,4.17,1.07,6.89,4.08,8.94,3.56,2.43,7.26,2.49,11.17,.4-6.2-1.28-10.93-4.83-15.25-9.34Zm234.6,38.2c-.49,6.23-2.99,11.6-7.29,16.72,8.54-.28,11.92-8.61,7.29-16.72Zm7.5,46.53c5.62,1.15,8.43-1.6,10.72-4.88,2.12-3.03,4.52-6.23,1.59-11.37-2.19,7.2-6.25,12.09-12.31,16.25ZM459.89,127.7c-4.13,4.01-9.02,6.86-13.35,10.42-1.2,.99-1.5,1.96-.55,3.28,1.06,1.49,1.98,1.05,3.14,.04,4.47-3.9,8.45-8.16,10.77-13.75Zm-147.38,343.4c-.01,2.85,.66,5.12,2.5,6.9,.68,.66,1.63,1.27,2.6,.81,1.18-.57,.46-1.6,.36-2.51-.24-2.22-.36-4.46-.53-6.69-.13-1.66,.62-4.16-1.73-4.32-2.35-.16-2.52,2.46-3.05,4.25-.18,.6-.12,1.27-.15,1.57Zm-33.98,1.64c-3-2.39-3.27-6.59-5.6-9.57-.86-1.1-2.12,.1-2.68,1.05-1.54,2.62-.14,4.97,1.03,7.21,1.01,1.95,2.68,3.18,5.03,3.09,1-.04,1.89-.31,2.23-1.78Zm3.64,163.9c-5.88-2.33-8.06-6.83-9.79-11.66-.31-.87-.4-2.13-1.63-2-1.39,.15-1.47,1.46-1.55,2.59-.38,5.63,6.2,11.73,12.97,11.08Zm301.72,115.41c4.72,.73,6.77-2.23,8.06-5.79,1.35-3.72,1.14-7.32-2.91-11.39,1.05,7.41-.07,12.87-5.14,17.18Zm-81.56-82.75c5.81-.54,11.36-6.88,10.73-11.73-.13-.97-.36-1.99-1.52-2.11-.97-.1-1.32,.79-1.59,1.53-1.61,4.52-4.27,8.44-7.62,12.3Zm26.16,51.26c.46,6.64-2.29,11.63-4.91,16.93,7.48-1.7,9.86-9.39,4.91-16.93Zm-247.28-218.57c-.1-1.26-.09-2.55-.34-3.78-.34-1.64,.94-4.72-1.83-4.46-2.85,.26-3.58,3.38-3.46,5.98,.12,2.56,1.59,4.6,4.3,4.93,2.01,.24,1.56-1.43,1.33-2.67Zm3.13-37.29c-.24,.26-.73,.64-1.01,1.13-1.18,2.1,.52,7.84,2.68,9.13,1.15,.69,2.57,1.19,3.65,.46,1.69-1.14-.16-2.17-.53-3.2-.71-1.95-1.6-3.84-2.38-5.77-.38-.94-.88-1.71-2.4-1.75Zm319.68,261.71c3.96-2.86,4.43-5.88,2.97-9.32-1.22-2.87-3-5.09-7.41-4.36,4.18,3.76,4.19,8.32,4.44,13.67Zm-84.71-56.16c-.69,6.9-3,12.02-6.48,17.51,7.31-2.86,9.85-9.5,6.48-17.51Zm-102.74-110.74c4.91-5.6,5.89-10.44,3.4-14.1-.63-.92-1.32-2.03-2.62-1.61-1.3,.43-.62,1.64-.46,2.45,.81,4.1,.53,8.19-.32,13.26Zm167.68,168.66c6.37-4.47,6.57-12.9,.66-18.28,1.76,6.26,1.41,12.03-.66,18.28Zm-265.36-211.34c.08,2.39,1.19,5.32,3.09,4.62,3.23-1.19,1.67-5.31,2.75-8.01,.44-1.1,.08-2.6-1.36-2.42-3.36,.42-3.86,3.29-4.48,5.81Zm254.48,210.26c1.52,5.7,.21,10.12-1.85,14.76,3.82-.35,5.32-2.48,5.76-5.28,.52-3.3,.22-6.52-3.92-9.48Zm13.62,32.18c6.35,2.9,11.54-.27,12.27-7.27-3.71,2.95-7.61,4.99-12.27,7.27Zm-33.45,12.57c4.23-.47,6.39-2.23,6.97-5.24,.55-2.8,.46-5.77-2.74-7.98-.28,4.78-1.36,8.86-4.23,13.22Zm-244.23-153.5c-3.88-4.09-4.72-8.62-6.04-13.22-4.07,5.92-1.79,11.52,6.04,13.22Zm269.04,140.42c-3.32,2.08-6.19,4.7-10.07,5.34-.74,.12-1.59,.7-1.21,1.66,.19,.48,.85,.9,1.39,1.09,4.41,1.56,9.68-2.61,9.89-8.08Zm-37.1-6.29c7.22-2.6,9.06-9.35,4.91-15.93,.21,5.82-1.5,10.62-4.91,15.93Zm-104.63-203.47c.41,5.8-1.18,10.03-2.81,14.82,7.13-3.79,8.24-8.43,2.81-14.82Zm42.07,54.1c-1.03,4.41-2.02,8.66-3.05,13.11,6.09-2.43,7.34-7.95,3.05-13.11Zm-226.57,9.54c-.51-2.37,.7-5.81-2.76-6.32-2.01-.3-2.39,2.21-2.31,4.02,.12,2.68,.84,5.62,3.73,5.96,2.55,.3,.8-2.42,1.35-3.65ZM318.31,109.58c-.92-2.76-3.33-4.2-6.03-5.26-1.04-.41-2.28-.59-3.1,.37-.59,.69-.19,1.61,.52,2.05,2.59,1.59,3.83,5.28,7.56,5.01,.86-.06,1.04-1.07,1.04-2.17Zm115.44,483.07c6.27-1.92,8.71-6.54,5.95-10.06-.84-1.08-2.18-2.13-2.59,.04-.63,3.28-2.27,6.21-3.36,10.02Zm-82.37-58.72c-4.18,3.02-5.97,5.97-5.88,9.88,.03,1.3,.76,2.64,2.16,2.83,2.06,.29,1.49-1.57,1.72-2.66,.62-2.92,1.17-5.86,2-10.05Zm205.16,171.47c4.47-4.61,4.93-9.18,1.64-11.53-.66-.47-1.36-.89-2.19-.55-.75,.31-.7,.99-.47,1.59,1.23,3.16,.37,6.55,1.02,10.49Zm109.15-.42c1.66,3.88,5.09,5.22,6.85,7.97,.5,.78,1.19,1.8,2.26,1.09,.84-.57,.78-1.75,.47-2.66-1.39-4.08-4.41-5.92-9.58-6.39Zm-379.09-49.18c-2.49-2.85-4.44-5.11-6.43-7.35-.8-.9-1.62-2.49-2.98-1.56-1.15,.79-.54,2.38-.07,3.55,1.61,4.05,4.62,5.78,9.49,5.35Zm201.89-13.83c5.37-1.99,7.63-4.96,8.33-9.19,.19-1.16-.28-2.41-1.41-2.81-1.63-.57-1.78,1.03-2.01,1.98-.8,3.27-3.07,5.84-4.91,10.02Zm-20.76-43.98c3.01-1.76,4.62-3.19,3.8-5.88-.8-2.63-4.22-4.39-8.38-4.17,3.43,2.34,5.12,5.3,4.58,10.05Zm288.42,2.07c-2.51,6.59-4.19,13.26-2.03,20.3,.68-6.77,1.35-13.53,2.03-20.3Zm-150.26,154.79c4.92,0,8.36-2.39,8.24-5.58-.03-.87-.5-1.82-1.02-2.55-.43-.6-1.3-.35-1.53,.28-1.13,3.06-4.25,4.75-5.7,7.86ZM349.34,405.01c-.07-1.38,.39-3.41-1.34-3.14-2.5,.39-3.99,2.53-4.48,5.03-.31,1.58,.45,3.18,2.1,3.17,3.35-.03,3-3.09,3.72-5.06Zm98.83,191.3c3.82-1.15,5.26-3.65,5.93-6.57,.39-1.69-.63-3.31-2.37-3.56-2.08-.29-1.23,1.75-1.56,2.76-.71,2.2-1.23,4.47-2,7.37Zm-115.12-23.65c-.83-1.66,1.74-4.7-1.26-5.13-2.24-.32-2.98,2.44-3.03,4.66-.05,2.39,.47,5.15,3.14,4.98,2.34-.15,.44-2.94,1.15-4.51Zm7.39-55.18c-.09-.71-.34-1.65-1.63-1.31-2.08,.56-2.78,2.4-3.51,4.16-.7,1.7-.8,3.4,.48,4.89,.77,.88,1.7,.97,2.16-.26,.88-2.36,1.6-4.77,2.5-7.48Zm176.27,190.95c4.33-1.81,5.66-4.66,5.27-8.53-.1-1.03-.63-1.92-1.65-2.07-1.36-.2-1.32,1-1.53,1.9-.61,2.61-1.25,5.21-2.09,8.7Zm-87.99-101.73c3.81-.92,5.55-2.86,6.69-5.38,.76-1.69,.2-3.39-1.39-4.11-2.25-1.02-2.03,1.3-2.53,2.43-.88,2.01-1.62,4.09-2.77,7.07Zm26.72,3.13c3.87-1.73,5.84-3.98,4.83-7.9-.29-1.11-1.23-1.95-2.46-1.91-1.71,.04-1.43,1.51-1.33,2.49,.24,2.36-.63,4.57-1.04,7.33Zm-33.39-25.72c-.26,.76-.57,1.67,.21,2.17,.75,.48,1.53-.01,2.17-.54,1.28-1.04,2.31-2.3,2.59-3.94,.3-1.74-.25-3.38-2.11-3.79-2.25-.51-1.99,1.46-2.24,2.8-.21,1.1-.41,2.2-.62,3.3Zm-99.23-134.82c-.22-1.3-.12-3.36-1.78-2.77-2.28,.82-3.6,3.09-3.88,5.56-.2,1.8,1.19,2.7,2.78,2.46,3.14-.49,2.19-3.39,2.88-5.25Zm-6.71,137.17c.09,2.3,.87,3.99,2.62,5.09,.48,.3,1.47,.57,1.71,.33,1.6-1.58-.07-3.25-.05-4.9,0-.31-.04-.65-.16-.94-.48-1.24,0-3.49-1.76-3.41-2.15,.1-2.14,2.37-2.37,3.83Zm324.23,127.92c-.15-1.81-4.73-4.58-7.03-4.29-.78,.1-2,.57-1.46,1.31,1.68,2.3,3.9,4.24,6.61,5.17,1.14,.39,1.73-1.08,1.88-2.19ZM333.41,425.28c.14-1.28-.1-2.02-1.01-2.23-.74-.16-5.36,5.56-5.23,6.45,.2,1.33,1.2,2.06,2.34,1.76,3.21-.86,3.42-3.76,3.9-5.98Zm42.13-69.23c-.47-1.32,.55-4.08-1.52-3.8-2.76,.38-2.59,3.63-3.1,5.86-.37,1.58,.86,2.49,2.26,2.39,2.91-.2,2.12-2.62,2.37-4.45Zm282.1,360.2c1.59,1.93,2.64,3.34,3.83,4.6,.84,.88,.96,3.36,2.91,2.07,1.58-1.04,1.07-2.92,.14-4.31-1.5-2.23-3.47-3.51-6.88-2.36ZM385.53,332.4c-.48-1.41,.48-4.25-1.98-3.88-2.03,.3-2.32,3.16-2.63,5.13-.28,1.81,1.17,2.61,2.68,2.48,2.29-.19,1.75-2.17,1.92-3.73Zm-35.16,390.73c-.02-1.65-1.26-2.13-1.79-3.08-.62-1.11-1.23-2.24-1.81-3.37-.39-.76-.99-1.53-1.8-1.15-.6,.27-1.13,1.13-1.32,1.83-.91,3.36,2,5.93,6.72,5.77Zm-39.7-594.06c-.2-3.15-1.89-5.02-4.95-5.63-.86-.17-2.03,.49-1.57,1.16,1.59,2.32,2.6,5.34,5.39,6.48,1.31,.54,1.06-1.11,1.13-2.01Zm20.55,422.41c-2.78,2.25-3.64,4.58-2.99,7.46,.22,.95,.81,1.87,1.88,1.91,1.3,.05,1.35-1.13,1.43-2.04,.19-2.19,.72-4.4-.33-7.34Zm47.26,183.19c-1.33,.39-2.17,1.2-1.99,2.41,.39,2.64,2.05,4.21,4.72,4.55,.75,.1,1.98,0,1.59-1.02-.87-2.32-1.97-4.61-4.33-5.94Zm-47.55-109.46c-2.09-1.35-3.68-2.3-5.17-3.38-1.16-.84-2.34-1.36-3.19,.13-.93,1.64-.42,3.13,1.34,3.89,2.17,.94,4.32,.46,7.02-.64Zm3.73-91.97c-3.21,1.51-4.02,4-3.89,6.98,.06,1.33,.56,2.69,2.08,2.67,1.52-.02,1.17-1.59,1.33-2.55,.38-2.23,1.38-4.45,.48-7.11Zm46.58,194.11c-.45-1.69-2.22-2.09-3.52-2.81-1.44-.8-2.94-4.07-4.48-1.77-1.63,2.43,1.52,3.69,3.37,4.77,.92,.54,2.1,.7,3.19,.87,.59,.09,1.29-.06,1.43-1.05Zm-35.32-146.42c1.57-1.37,1.2-3.28,1.4-4.94,.15-1.22,1.55-3.14-.55-3.63-1.42-.33-2.45,1.35-3.01,2.68-1.07,2.54-.66,4.67,2.16,5.89Zm-21.72,26.19c-.88-1.93-.16-5.09-2.63-6.07-1.42-.56-2.09,1.74-2.04,3.15,.08,2.16,.84,4.18,3.15,4.9,1.33,.41,1.54-.7,1.52-1.97Zm-15.53-494.63c-.54-2.35-2.11-3.74-4.56-4.04-.91-.11-2.43,.27-1.86,1.33,1.1,2.04,2.7,3.99,4.96,4.83,.98,.36,1.39-.99,1.46-2.12Zm51.59,267.47c-2.01,1.15-2.66,3.16-3.36,5.04-.6,1.61,.24,2.88,1.83,3.27,1.43,.35,1.93-.87,2.12-1.99,.36-2.11,1.27-4.31-.6-6.32Zm139.89,378.26c-.22-1.52-.77-3.72-2.14-3.22-2.66,.97-1.59,4.4-2.95,6.45-.57,.86,.2,1.6,1.12,1.39,2.45-.54,3.79-2.15,3.97-4.63Zm-151.71-202.36c-2.21,1.46-3.09,3.16-3.19,5.31-.07,1.47,.01,3.28,1.68,3.51,2.22,.29,1.63-1.87,1.74-3.07,.16-1.69,.74-3.42-.24-5.75Zm73.9-222.08c.2,1.09-.09,3.02,1.54,2.91,2.58-.17,2.27-2.68,2.51-4.47,.17-1.27,0-2.9-1.79-2.68-2.38,.29-2.13,2.39-2.27,4.24Zm62.3,293.23c2.02-1,3.3-2.69,3.17-5.16-.05-1.05-.6-2.82-1.76-2.21-2.23,1.17-2.51,3.8-2.96,6.1-.17,.88,.3,1.51,1.55,1.27Zm-164.11-54.93c-.63-1.91,.14-4.93-2.4-5.57-1.69-.43-1.7,1.92-1.54,3.27,.22,1.86,.33,4.11,2.59,4.65,1.83,.44,1.29-1.23,1.35-2.35Zm-2.79-473.29c0,1.35,1.08,1.91,1.98,2.45,1.83,1.09,2.9,3.5,5.49,3.19,.18-.02,.48-.88,.36-1.21-.95-2.63-3.16-3.86-5.61-4.73-.73-.26-1.54-.31-2.22,.29Zm131.25,387.62c1.51-.2,2.03-1.16,2-2.34-.06-1.99-.51-3.88-3.02-4-1.11-.06-2.51,.2-2.33,1.65,.25,2.11,1.67,3.61,3.35,4.7Zm-127.53,66.84c-.31-1.51,.31-3.82-1.72-3.97-1.9-.14-2.32,1.91-2.24,3.57,.07,1.63,.47,3.55,2.37,3.64,2.27,.1,1.29-2.03,1.6-3.24Zm45.77,159.59c-.93,.1-2.31,.24-1.93,1.37,.74,2.21,2.59,3.5,4.95,3.74,.88,.09,1.48-.51,1.24-1.49-.54-2.21-1.82-3.61-4.26-3.62Zm132.43,35.04c2.9-2.23,4.34-4.17,4.29-6.87-.02-1.3-.81-2.57-2.31-2.53-1.3,.03-1.01,1.33-1.12,2.21-.25,2.02-.49,4.03-.87,7.19Zm-111.09-437.81c-.42-.96,.15-3.09-1.36-2.86-2.06,.31-2.38,2.65-2.68,4.51-.2,1.2,.26,2.42,1.6,2.39,2.62-.05,1.79-2.44,2.44-4.04Zm-18.65,395.09c-.91-2.04-2.82-2.82-4.86-3.22-1.17-.23-2.54,.31-2.11,1.74,.69,2.29,3.06,2.52,4.98,3.1,1.03,.31,1.8-.35,1.99-1.61Zm-28.76-594.31c.86-5.95-.92-8.03-5.44-7.34,.05,.3,0,.69,.17,.9,1.56,1.95,3.15,3.87,5.27,6.44Zm68.47,521.72c1.42-.56,2.56-1.51,2.38-3.16-.15-1.35-1.05-2.46-2.59-2.29-1.55,.18-2.05,1.45-2.01,2.83,.04,1.35,.46,2.56,2.21,2.62Zm9.65-35.24c-.19-1.12-.45-2.7-1.81-2.26-2.02,.64-2.51,2.73-2.69,4.67-.1,1.11,.62,1.86,1.8,1.65,2.25-.39,2.38-2.3,2.7-4.05Zm32.57-21.76c2.12-.23,2.95-1.59,3.64-3.05,.62-1.34,1.25-3.13-.31-3.85-2.06-.95-2.07,1.39-2.47,2.5-.45,1.28-1.44,2.53-.86,4.4Zm175.59,156.94c1.64-1.6,1.53-3.4,.66-5.24-.73-1.55-2.16-3.12-3.67-2.29-2.29,1.25,.4,2.31,.89,3.3,.69,1.39,.61,3.21,2.12,4.23Zm21.61-9.8c-.33-1.86-1.46-2.85-3.2-3.08-1.28-.17-1.85,.72-1.37,1.74,.76,1.61,.39,4.27,2.51,4.59,1.38,.2,1.73-1.92,2.05-3.25Zm58.13-31.88c1.26-.04,2.02-.6,1.71-1.75-.71-2.62-3.06-2.86-5.2-3.24-.78-.14-1.89,.32-1.46,1.21,1,2.05,2.83,3.26,4.95,3.78Zm-218.9,47.64c1.6-.21,2.3-1.48,3.05-2.62,.9-1.37,.71-2.74-.52-3.8-.55-.48-1.49-1.05-2.04-.88-1.76,.54-.78,2.11-.76,3.2,.02,1.33-.81,2.76,.27,4.11ZM331.13,109.49c-1.06-.07-2.04,.32-1.71,1.18,.79,2.03,1.7,4.18,3.55,5.42,.98,.66,1.74-.66,1.66-1.58-.18-2.36-1.48-4.06-3.5-5.02Zm212.23,654.52c3.3-1.15,4.73-2.75,4.69-5.49-.02-1.13-.09-2.47-1.44-2.66-1.55-.21-1.49,1.24-1.74,2.29-.4,1.66-.85,3.32-1.51,5.86Zm-87.14-37.48c3.57-5.75,4.35-9.39,3.04-13.79-1.11,5.03-2.07,9.41-3.04,13.79Zm-91.85-30.79c-.36-1.93-1.99-2.3-3.51-2.76-1.33-.4-3.11-.33-3.1,1.13,.02,2,2.17,2.53,3.83,3.01,1.18,.34,2.21-.14,2.77-1.37ZM300.23,117.24c-.55-1.67-1.72-3.26-3.8-4.01-1.04-.38-1.61,.38-1.36,1.23,.59,2.01,1.59,3.86,3.69,4.63,.94,.34,1.32-.53,1.47-1.85Zm161.25,465.76c1.79-.2,2.69-1.31,3.45-2.5,.84-1.31,2.17-3.21,.66-4.18-2.06-1.32-2.24,1.33-2.93,2.48-.69,1.15-1.79,2.25-1.18,4.2Zm-64.27-90.47c-.09-1.34-.24-2.74-1.94-2.73-1.63,.01-2.73,.95-2.54,2.71,.16,1.51,.92,2.88,2.61,2.84,1.68-.04,1.61-1.64,1.87-2.82Zm1.97-90.04c.08-1.29-.06-2.61-1.4-2.67-1.7-.07-2.42,1.31-2.47,2.85-.04,1.41,.09,3.19,1.97,3.06,1.77-.13,1.47-2.1,1.9-3.23Zm147.89,13.52c-.23-1.21-.9-2.36-2.64-2.38-1.31-.02-2.11,.76-2.04,2.06,.08,1.5,.75,2.9,2.37,3.11,1.56,.2,2.1-1.06,2.31-2.78Zm-225.04,114.54c-1.81,.01-2.36,1.39-2.74,2.74-.45,1.59-.27,3.19,1.02,4.39,.4,.37,1.42,.73,1.62,.54,1.14-1.12,.75-2.65,.74-4.04,0-1.21,.39-2.54-.63-3.63Zm250.05,215.71c.27,2.96-1.1,5.09-.3,7.56,4.23-3.33,4.33-4.28,.3-7.56Zm-126.35-495.22c1.56-.25,1.96-1.37,1.94-2.72-.01-1.36-.39-2.6-2.06-2.52-1.39,.07-1.73,1.18-1.7,2.36,.04,1.28,.18,2.54,1.82,2.88Zm38.15,496.32c.26,2.92-1.16,4.86,.37,6.92,.1,.13,1.26-.21,1.58-.6,1.54-1.97,1.28-3.78-1.94-6.31Zm-20.87-269.15c1.57-.36,2.04-1.48,2.07-2.84,.04-1.63-1.11-2.26-2.45-2.35-1.12-.07-2.47,.32-2.37,1.73,.12,1.63,1.12,2.88,2.74,3.46Zm-39.57,19.41c-.13-1.48-.66-2.77-2.41-2.84-1.28-.05-2.21,.77-1.88,2.05,.38,1.48,1.03,3.25,2.8,3.36,1.31,.08,1.32-1.45,1.49-2.57Zm104.92,267.85c-1.58-.41-2.58,.98-3.94,1.15-1.09,.14-2.27,.42-2.76,1.52-.14,.31,.41,1.22,.85,1.44,1.19,.6,2.49,.52,3.58-.31,1.21-.93,2.55-1.85,2.28-3.8ZM296.61,85.68c-1.66,.4-2.18,1.73-2.39,3.2-.22,1.57,.77,1.93,2.08,1.81,1.37-.13,2.66-.52,2.55-2.21-.08-1.33-.68-2.48-2.24-2.79Zm230.67,664.51v7.89c4.04-3.22,4.01-4.73,0-7.89Zm-28.73-301.02c-1.18,.12-2.44,.4-2.4,1.81,.06,1.78,1.28,2.96,3.01,3.19,1.22,.16,1.47-1,1.57-1.97,.17-1.64-.31-2.85-2.19-3.03ZM295.83,106.91c-.43-1.52-.87-3.19-2.84-3.33-1.12-.08-1.66,.89-1.57,1.96,.17,1.88,1.49,2.82,3.15,3.08,.84,.13,1.31-.73,1.25-1.71Zm150.34,492.76c-1.4,2.92-2.7,5.25-2.93,8.68,3.5-2.35,4.97-4.63,2.93-8.68Zm62.11,167.57c5.13,1.08,7.23-.52,6.71-5.61-1.7,3.15-3.98,4.67-6.71,5.61Zm-64.32-508.29c-.12-1.49-.39-2.99-2.23-3.13-1.1-.08-1.65,.85-1.69,1.91-.07,1.54,.33,3,2,3.36,1.52,.33,1.74-.99,1.92-2.14Zm4.14,368.33c-1.29,.32-2.41,.96-2.41,2.45,0,1.63,1.27,2.04,2.62,2.05,1.25,.02,2.17-.56,2.15-1.94-.02-1.48-.96-2.24-2.36-2.57Zm-115.57-20.51c-.81-1.31,.38-3.96-2.03-4.54-1.07-.26-1.61,1.27-1.7,2.41-.15,2,.85,3.36,2.7,3.88,.95,.26,1.31-.57,1.03-1.74Zm-44.63-489.98c.99,2.66,1.88,4.81,4.18,5.88,.6,.28,1.33-.52,1.1-1.13-.83-2.18-1.54-4.58-5.28-4.75Zm104.02,361.65c-1.48,.63-1.87,2.02-1.85,3.48,.02,1.26,.79,2.35,2.14,1.91,1.64-.54,1.75-2.14,1.58-3.64-.11-.99-.42-1.92-1.87-1.75Zm371.73,129.36c-.33-1.29-.33-3.08-2.16-3.07-1.32,0-1.42,1.47-1.4,2.56,.02,1.42,.13,3.07,2.01,3.06,1.37,0,1.35-1.45,1.54-2.55Zm-351.51-238.85c-.26-.78,.12-2.44-1.41-2.26-1.73,.2-2.38,1.88-2.63,3.48-.2,1.28,.43,2.24,1.8,2.11,1.79-.17,1.98-1.71,2.24-3.32Zm-94.25-253.51c1.73,2.78,3.01,4.84,4.52,7.28,1.17-4.94,.65-5.84-4.52-7.28Zm131.62,107.07c.18,1.53,.69,2.96,2.41,3.05,1.14,.06,1.54-1.09,1.32-2.09-.29-1.36-.45-3.12-2.15-3.34-1.53-.2-1.42,1.33-1.59,2.38Zm-64.33,244.38c-1.34,.78-1.94,2.03-1.88,3.52,.05,1.19,.67,2.45,1.99,2.02,1.59-.52,1.51-2.23,1.44-3.64-.05-.91-.12-1.96-1.55-1.89Zm-50.64,119.96c.08-1.01-.11-2.09-1.04-1.89-1.83,.39-2.4,2.02-2.39,3.69,0,1.1,.43,2.67,1.81,2.21,1.81-.6,1.03-2.77,1.61-4.01Zm58.14,162.09c-3.13-1.43-4.41-3.79-6.95-3.71-.71,.02-.77,1.25-.37,2,1.4,2.62,3.66,2.5,7.31,1.7Zm142.24,21.99c2.72,0,4.47-.64,5.06-3.07,.19-.8-.1-1.94-.99-1.85-2.67,.26-3.22,2.44-4.07,4.92Zm-178.81-66.87c-1.17,.22-1.24,1.07-1.13,1.82,.31,2.14,1.75,3.31,3.75,3.66,.94,.16,1.51-.68,1.05-1.52-.9-1.62-1.84-3.28-3.67-3.96Z"/>
  <path d="M288.23,827.49c-12.47,4.78-21.6,13.71-31.22,22.23,1.5-11.4,7.03-20.72,14.41-29.8-6.43,.1-11.42,3.76-17.72,4.61,3.03-8.24,9.03-12.46,16.23-15.21,7.43-2.83,15.11-2.58,22.78-.9,5.75,1.26,5.89,1.27,5.57-4.79-1.52-28.24-8.17-55.16-20.96-80.48-6.01-11.91-11.69-23.97-14.18-37.22-1.09-5.84-1.56-11.71-.4-17.6,1.78-.46,1.93,1.08,2.51,1.83,16.3,21.03,35.96,38.41,58.11,52.98,4.67,3.07,6.05,6.23,5.26,11.81-3.38,23.71-7.2,47.27-15.18,69.99-6.35,18.09-16.93,33.41-29.91,47.26-.84,.89-1.7,2.48-3,2-1.68-.62-.9-2.48-.9-3.81,0-6.67,2.56-12.48,6.1-17.98,.9-1.4,2.44-2.51,2.51-4.9Z"/>
  <path d="M233.75,601.76c2.49,22.06,13.18,40.8,22.85,60.09-7.02-1.84-11.51-6.77-17.16-11.02,.51,2.32,.9,4.68,1.56,6.96,.71,2.46,1.59,4.88,2.53,7.26,.93,2.37,2.01,4.69,3.61,8.38-10.87-4.68-16.2-12.53-20.35-23.14-4.35,9.95-4.67,19.23-3.38,29.67-6.6-6.66-9.99-14.05-11.64-22.21-1.96-9.75-.65-19.2,6.21-26.67,7.76-8.46,14.03-17.41,15.78-29.32Z"/>
  <path d="M457.99,231.38c6.81,14.07,17.34,17.97,31.03,15.19-4.17,3.76-8.9,5.52-13.68,7.1-6.41,2.13-13.04,3.22-19.71,4.18-2.47,.36-3.16-.04-2.57-2.65,1.65-7.32,3.06-14.69,4.94-23.82Z"/>
  <path d="M443.07,293.01c6.47,12.55,14.77,20.18,29.5,15.29,.56,2.25-.99,2.25-1.8,2.67-9.86,5.11-20.43,7.28-31.47,7.66-2.22,.08-2.53-.75-2.1-2.47,1.93-7.72,3.9-15.44,5.86-23.15Z"/>
  <path d="M490.86,218.27c-3.6,3.11-7.19,4.34-10.68,5.71-5.99,2.36-12.16,4.11-18.47,5.39-2.83,.57-4.1,0-3.63-3.37,.95-6.67,1.47-13.39,2.34-21.69,3.91,5.47,7.1,10.24,12.65,12.39,5.51,2.14,11.29,1.05,17.78,1.57Z"/>
  <path d="M480.81,277.59c-10.7,6.59-22.22,9.03-34.04,10.46-2.21,.27-2.9-.38-2.23-2.66,1.97-6.73,3.8-13.51,6.17-22.05,5.52,16.38,16.9,17.33,30.1,14.24Z"/>
  <path d="M490.02,190.94c-8.18,5.89-17.31,9.14-26.86,11.34-1.71,.39-3.21,.56-3.1-2.02,.25-5.87-.18-11.74-.85-18.58,4.71,4.44,9.07,7.51,14.64,8.48,5.35,.93,10.73,.29,16.17,.77Z"/>
  <path d="M372.14,183.08c-.09-8.92,2.37-15.73,8.02-21.1,9.02-8.58,23.24-5.13,27.5,6.58,3.16,8.69,2.17,17.13-2.18,25.1-4.06,7.44-11.18,10.92-18.83,9.71-7.33-1.16-12.4-6.61-13.99-15.21-.38-2.04-.43-4.14-.52-5.08Zm4.48-11.22c.23,3.31,2,5.75,5.71,6.19,3.35,.4,6.93-3.24,7.08-7.01,.15-3.82-1.8-6.04-5.6-6.34-3.7-.29-7.05,2.99-7.19,7.16Z"/>
</svg>