<?xml version="1.0" encoding="UTF-8"?>
<svg id="Layer_1" data-name="Layer 1" xmlns="http://www.w3.org/2000/svg" viewBox="0 0 864 864">
  <path d="M645.12,126.83c2.83,6.85,3.61,14.09,3.57,21.39-.02,2.82,.93,4.52,3.17,6.13,7.27,5.25,15.31,8.31,24.23,8.48,16.32,.31,31.67-3.54,45.96-11.51,8.49-4.73,15.26-11.02,19.51-19.97,1.85-3.9,4.47-7.46,7.42-10.67,1.12-1.22,2.33-2.84,4.27-2.25,1.73,.52,1.86,2.37,2.08,3.87,.5,3.53,1,7.07,1.23,10.63,2.02,31.48-.67,62.19-16.8,90.2-22.25,38.62-55.54,64-97.5,77.66-40.11,13.06-81.52,17.47-123.63,14.89-8.52-.52-16.98-1.86-25.33-3.61-3.08-.64-4.18,.11-5.03,3.28-4.38,16.48-.87,32,5.14,47.28,12.76,32.42,31.4,61.3,54.05,87.53,19.58,22.66,40.14,44.48,60,66.91,19.87,22.43,39.59,45.08,55.29,70.72,22.72,37.1,31.19,77.64,27.7,120.89-3.58,44.49-18.68,85.23-39.79,124.06-4.97,9.13-5.01,9.1,4.95,9.41,3.9,.12,7.75,.59,11.28,2.43,6.26,3.28,6.93,9.96,1.39,14.36-3.69,2.93-8,4.27-12.66,3.57-9.88-1.48-19.82-1.17-29.75-1.41-6.12-.15-6.19-.11-6.18-6.41,.03-19.76,2.47-39.34,4.54-58.94,.53-5.02,.57-5.1-4.25-3.16-11.37,4.58-22.72,9.24-34.79,11.72-2.13,.44-2.67,1.66-2.97,3.49-1.71,10.59-2.49,21.27-3.17,31.96-.16,2.54,.64,3.32,3.11,3.06,5.45-.56,10.85-.19,16.16,1.25,2.59,.71,4.96,1.86,6.81,3.83,2.77,2.97,3.55,6.58,2.52,10.38-.91,3.35-3.93,4.14-6.93,4.59-2.3,.34-4.62,.7-6.93,.73-15.37,.16-30.74,.16-46.11,.39-3.07,.05-4.41-.83-4.79-4.01-1.16-9.55-2.7-19.06-3.86-28.61-.32-2.61-1.12-3.31-3.78-3.05-20.86,2.08-41.61,4.92-62.19,8.93-.91,.18-1.85,.26-2.75,.48-1.69,.41-2.16,1.75-1.97,3.23,.19,1.59,1.64,1.13,2.6,1.13,4.97-.01,9.96-.14,14.82,1.09,5.3,1.34,10.07,3.4,11.43,9.55,1.18,5.34-.22,8.06-5.49,9.38-3.14,.78-6.43,1.24-9.66,1.28-17.85,.2-35.71,.17-53.56,.36-2.81,.03-4.26-.61-4.54-3.67-.36-3.85-1.24-7.66-1.77-11.5-.31-2.27-1.28-3.13-3.69-2.9-13.14,1.28-26.33,1.7-39.52,2.09-2.69,.08-5.42,.74-7.46,2.37-7.17,5.71-15.74,6.14-24.23,6.86-18.47,1.57-36.48-1.39-54.43-5.47-54.65-12.4-101.31-39.02-140.69-78.64-22.72-22.86-37.79-49.86-43.01-81.9-1.95-11.96-2.93-24-1.79-36.18,1.8-19.25,9.4-35.56,23.86-48.48,2.56-2.29,3.15-4.21,1.87-7.55-3.43-8.98-6.36-18.16-8.6-27.52-.42-1.78-1.76-4.37,1.13-5.14,2.67-.71,3.12,2,3.81,3.78,3.24,8.39,6.48,16.78,9.52,25.25,.91,2.54,1.67,3.14,4.18,1.59,3.82-2.36,7.93-4.35,12.32-5.4,3.57-.85,4.4-2.87,4.39-6.34-.05-11.97-.6-23.9-2.1-35.78-.22-1.77-1.13-4.17,1.47-4.64,2.42-.44,2.81,2.11,3.29,3.78,3.35,11.54,5.05,23.36,5.13,35.36,.02,3.75,1.12,4.92,4.8,4.38,2.26-.33,4.67-.09,6.96,.26,3.68,.56,4.96-.33,4.25-4.39-2.05-11.78-4.19-23.52-7.37-35.06-.57-2.07-2.32-5.21,.37-6.22,3.14-1.17,3.71,2.56,4.6,4.62,5.1,11.89,8.82,24.22,10.12,37.12,.41,4.04,2.01,4.14,5.04,3.15,8.23-2.7,14.23-8.05,18.54-15.42,1.55-2.66,2.91-5.44,4.59-8.6,1.28,1.84,.77,3.47,.44,4.95-1.14,5.15-2.38,10.27-3.66,15.39-5.62,22.52,4.07,39.07,26.56,45.4,2.47,.69,5.13,.86,7.69,2.47-2.51,2.38-5.44,2.81-8.23,3.44-7.26,1.64-14.62,2.92-21.81,4.81-9.17,2.41-11.87,6-12.5,15.47-.15,2.32-.21,4.65-.2,6.98,.04,5.7,0,5.83-5.22,3.06-3.42-1.81-6.75-3.85-9.86-6.15-2.28-1.69-3.18-1.25-3.69,1.32-1.73,8.79-2.31,17.61,.5,26.25,10.45,32.2,28.05,59.69,54.32,81.33,4.77,3.93,9.93,7.32,16.12,10.11-1.59-8.3-3.18-15.99-4.47-23.72-.4-2.4-2.15-6.32,.91-7,3.54-.79,3.41,3.68,4.11,6.07,2.46,8.33,4.68,16.73,6.77,25.15,.62,2.51,1.58,4.02,4.18,4.87,8.96,2.93,18.03,4.79,27.47,3.23,4.87-.8,5-1.42,2.11-5.45-6.87-9.6-13.99-19-21.81-27.86-.72-.81-1.37-1.69-2.05-2.53-.94-1.16-1.64-2.55-.58-3.8,1.26-1.49,2.86-.85,4.16,.17,4.89,3.84,9.41,8.11,13.63,12.67,5.17,5.59,10.04,11.45,13.77,18.13,1.35,2.41,2.52,3.01,4.87,.94,6.73-5.93,12.42-12.54,15.78-21,1.23-3.11,.8-4.74-2.71-5.67-9.6-2.54-19.12-5.36-28.67-8.07-1.34-.38-2.72-.71-3.99-1.25-1.74-.74-4.58-.84-3.96-3.62,.7-3.12,3.56-1.94,5.45-1.59,7.93,1.48,15.79,3.29,23.71,4.85,4.04,.79,8.94,4.16,11.8,1.89,2.51-2,.85-7.6,.91-11.61,.06-4.03-.27-8.07-.26-12.1,0-2.63-.95-3.68-3.73-4.06-6.76-.91-13.47-2.22-20.17-3.53-2.57-.5-5.09-1.37-7.57-2.24-1.31-.46-2.73-1.24-2.38-2.97,.36-1.77,1.99-1.84,3.37-1.74,2.78,.2,5.56,.59,8.33,.9,5.86,.65,11.73,1.23,17.58,1.99,2.57,.33,3.69-.13,3.35-3.1-.37-3.22-.58-6.58-.09-9.75,.64-4.11-1.27-5-4.72-5.34-5.58-.56-10.93-2.27-16.25-3.99-1.77-.57-4.74-.87-4.15-3.47,.67-2.95,3.55-1.71,5.55-1.45,5.7,.73,11.37,1.62,17.05,2.49,5.67,.87,3.3-3.92,4.32-6.23,1.29-2.92-.83-3.28-3.05-3.56-6.78-.84-13.54-1.84-20.09-3.85-1.41-.44-3.45-.69-3.2-2.74,.29-2.35,2.47-2.03,4.1-1.94,7.13,.39,14.29,.57,21.36,1.47,4.47,.57,4.84-2.69,5.69-5.15,.89-2.57-1.97-2.64-3.47-3.3-7.53-3.29-15.14-6.42-22.68-9.7-1.62-.71-3.99-1.4-3.19-3.82,.81-2.47,3.12-1.51,4.82-1.11,8.32,1.96,16.5,4.4,24.35,7.81,3.03,1.32,5.22,1.45,7.67-1.33,2.11-2.4,4.96-4.22,7.7-5.96,2.28-1.45,2.22-2.21,.15-3.9-9.04-7.36-18.5-14.14-28.17-20.62-1.03-.69-2.06-1.39-3-2.2-.74-.65-.99-1.56-.64-2.54,.46-1.31,1.58-1.52,2.66-1.26,1.34,.32,2.65,.84,3.9,1.43,11.71,5.53,22.77,12.05,32.09,21.2,1.16,1.14,2.14,1.93,4.02,1.07,3.52-1.6,7.18-2.95,10.86-4.15,2.59-.85,2.39-2.02,1.28-4.05-5.53-10.08-11.3-20-18.47-29.03-1.16-1.46-2.36-2.89-3.41-4.42-.91-1.32-2.76-2.75-1.07-4.42,1.86-1.84,3.51-.05,4.8,1.14,10.74,10.04,20.18,21.11,26.06,34.76,1.22,2.84,2.63,3.67,5.56,3.15,7.22-1.26,14.54-1.2,21.83-1.03,3.14,.08,3.98-.56,2.13-3.56-5.2-8.47-10.77-16.69-16.56-24.76-.72-1-1.4-2.04-2.04-3.1-.52-.87-.53-1.81,.16-2.59,.86-.96,2-.95,2.97-.33,1.16,.74,2.25,1.64,3.23,2.62,8.81,8.85,16.59,18.47,21.95,29.86,.9,1.91,1.94,3.74,4.33,3.61,2.25-.12,2.16-2.43,2.76-3.86,2.87-6.87,5.48-13.85,8.35-20.71,1.21-2.89,.42-4.43-2.28-5.87-10.82-5.76-21.54-11.72-32.29-17.61-1.22-.67-2.45-1.37-3.57-2.2-.99-.73-2.08-1.67-1.32-3.08,.73-1.36,2.08-1.19,3.3-.73,3.19,1.2,6.36,2.46,9.54,3.7,9.41,3.67,18.67,7.68,27.28,12.99,2.44,1.5,3.35,1.06,4.16-1.55,1.6-5.19,3.29-10.36,5.26-15.41,1.32-3.41,.16-4.93-2.94-6.34-9.74-4.45-19.35-9.17-29.01-13.8-.98-.47-1.93-1-2.9-1.49-1.35-.68-2.51-1.64-1.94-3.25,.68-1.9,2.41-1.76,3.94-1.25,4.85,1.63,9.73,3.21,14.49,5.09,6.06,2.4,12.06,4.96,17.97,7.69,2.74,1.26,4.23,1.39,4.54-2.21,.39-4.48,1.01-8.94,1.72-13.38,.52-3.27-.38-4.67-3.98-4.97-11.8-.99-23.26-3.78-34.53-7.37-1.18-.38-2.36-.78-3.5-1.28-1.2-.53-2.19-1.36-1.7-2.87,.39-1.23,1.51-1.57,2.63-1.44,2.93,.34,5.85,.72,8.75,1.23,9.63,1.7,19.24,3.45,28.97,4.51,2.88,.31,3.97-.28,3.72-3.31-.41-4.95-.65-9.91-.78-14.88-.08-3.38-1.44-3.67-4.36-2.69-8.7,2.94-17.62,5.05-26.87,5.12-2.46,.02-6.44,1.03-6.85-2.03-.47-3.53,3.73-2.95,6.06-3.3,9.43-1.39,18.38-4.43,27.39-7.34,2.57-.83,3.54-2,2.97-4.65-.87-4.09-.25-9.48-2.67-11.99-2.83-2.92-7.66,.87-11.65,1.48-7.53,1.14-15,2.6-22.66,1.77-1.58-.17-3.81,.03-3.8-2.44,0-2.35,2.09-2.36,3.74-2.61,9.21-1.42,18.31-3.35,27.42-5.25,4.79-1,5.22-2.82,3.5-6.84-1.95-4.55-3.59-9.27-5.01-14.02-.87-2.89-2.12-3.55-4.99-2.64-6.07,1.92-12.32,3.2-18.63,4.03-2.92,.38-5.87,.61-8.81,.62-2.05,0-5.11,.56-5.29-2.33-.18-2.91,3.03-2.69,4.99-3,8.31-1.29,16.29-3.89,24.4-5.95,2.69-.68,3.68-1.57,2.41-4.39-1.91-4.24-2.36-10.12-5.53-12.53-3.18-2.42-8.24,1.64-12.55,2.55-7.3,1.56-14.57,3.2-22.08,3.05-1.86-.04-4.68,.6-4.83-2.23-.14-2.7,2.73-2.68,4.56-2.95,9.9-1.43,19.26-4.73,28.7-7.81,3.12-1.02,3.7-2.42,2.41-5.38-2.79-6.4-5.41-12.88-7.85-19.41-.94-2.52-1.88-2.91-4.37-1.79-10.82,4.87-22.09,8.28-34.03,8.87-2.56,.13-6.82,1.34-7.16-2.09-.36-3.57,4.1-2.85,6.57-3.33,11.21-2.15,21.64-6.61,32.24-10.58,1.95-.73,2.07-1.7,1.32-3.53-4.07-9.9-8.11-19.82-11.91-29.82-1.15-3.04-2.95-2.04-4.79-1.46-10.58,3.3-21.41,5.2-32.47,5.67-2.77,.12-7.2,1.27-7.72-2-.66-4.07,4.18-3.09,6.67-3.7,10.25-2.48,20.57-4.7,30.9-6.8,3.16-.64,3.65-1.92,2.5-4.75-3.54-8.77-7.03-17.58-10.28-26.46-1.01-2.75-2.39-3.36-5.15-3.01-9.43,1.18-18.89,1.16-28.33-.15-.77-.11-1.56-.15-2.3-.36-1.61-.45-3.73-.66-3.5-2.95,.19-1.95,2.09-2.02,3.64-2.15,1.39-.12,2.79-.05,4.19-.13,7.9-.42,15.81-.91,23.71-1.27,3.06-.14,4.08-1.08,2.91-4.3-3.5-9.62-6.88-19.29-10-29.04-.84-2.63-2.09-2.91-4.37-2.59-8.84,1.21-17.67,.68-26.46-.57-1.67-.24-4.34,0-4.31-2.55,.03-2.88,2.71-2.42,4.63-2.53,7.59-.42,15.19-.78,22.79-1.14,3.23-.15,4.74-1.17,3.55-4.88-2.71-8.43-4.62-17.08-5.98-25.82-.44-2.84-1.6-3.5-4.28-3.29-7.76,.6-15.52,.4-23.18-1.16-1.62-.33-3.84-.45-3.71-2.72,.14-2.66,2.58-2.3,4.33-2.28,7.15,.08,14.28-.18,21.41-.65,2.8-.19,3.68-1.17,3.47-4.02-.35-4.79-.48-9.63-.2-14.42,.18-3.16-.78-4.36-3.89-4.69-8.05-.86-15.87-2.86-23.53-5.46-1.17-.4-2.36-.78-3.49-1.29-1.52-.69-3.61-1.25-3.15-3.4,.49-2.28,2.65-1.79,4.27-1.56,3.38,.48,6.72,1.18,10.09,1.76,5.81,1,11.64,1.92,17.44,2.98,2.4,.44,3.61-.11,4.2-2.77,5.88-26.48,20.09-47.47,42.21-63.08,2.86-2.02,2.75-3.29,.28-5.51-9.63-8.6-20.08-16.13-30.34-23.93-2.44-1.85-3-.3-3.98,1.45-4.17,7.48-8.69,14.73-15.14,20.5-1.74,1.55-3.99,4.54-6.25,2.55-2.38-2.1,.75-4.41,1.95-6.29,4.51-7.07,9.18-14.03,13.95-20.92,1.39-2.01,1.26-3.18-.87-4.39-4.05-2.3-8.08-4.64-11.98-7.17-2.27-1.47-3.77-1.11-5.57,.83-4.47,4.82-9.84,8.52-15.53,11.76-1.21,.69-2.43,1.45-3.75,1.84-1.49,.44-3.44,1.92-4.52-.25-.85-1.71,.99-2.72,2.13-3.7,5.17-4.46,10.29-8.98,15.59-13.28,2.49-2.02,1.75-2.9-.63-4.03-6.72-3.2-13.41-6.47-20.05-9.84-2.02-1.03-3.31-.65-4.82,.96-2.44,2.61-5.22,4.87-8.44,6.52-1.13,.58-2.46,1.19-3.4,0-.83-1.04,.2-2.07,.84-2.88,1.53-1.95,3.07-3.91,4.78-5.7,1.86-1.95,1.48-2.94-.97-3.87-3.91-1.49-7.74-3.2-11.56-4.91-1.69-.76-3.38-1.61-4.9-2.66-2.47-1.7-6.43-2.91-5.61-6.57,.75-3.35,4.71-2.94,7.51-3.41,7.43-1.27,14.85-.48,22.27,.38,26.6,3.11,50.97,13.05,74.86,24.44,15.27,7.28,31.12,13.85,44.36,24.41,7.59,6.05,13.27,6.6,21.49,2.2,7.17-3.84,15.32-5.91,23.13-8.44,2.76-.89,3.3-1.96,2.5-4.65-3.81-12.94-8.6-25.6-11.03-38.93-2.26-12.38-4.48-24.76-3.41-37.43,.16-1.84,.48-3.71,1.05-5.46,1.7-5.21,3.36-5.73,7.27-1.96,1.57,1.51,2.71,1,4.09,.38,3.11-1.39,6.32-2.05,10.58-2.01-2.47,3.81-5.32,5.79-8.5,7.32-5.24,2.53-.62,5.08,0,7.54,.78,3.11,2.44,2.67,4.73,1.13,3.01-2.02,6.54-2.8,10.19-2.73,.72,.01,1.63-.13,2.02,.74,.4,.9-.36,1.42-.84,1.98-2.38,2.78-5.3,4.83-8.81,5.82-2.43,.69-2.74,1.86-1.86,4.09,6.79,17.21,12.02,34.9,15.64,53.05,.73,3.63,2.12,4.71,5.98,3.65,12.72-3.49,25.61-6.31,38.72-7.97,2.38-.3,3.89-1.22,4.84-3.57,3.5-8.66,5.95-17.63,8.09-26.7,.56-2.39,.06-3.41-2.7-3.11-2.91,.31-5.88,.21-8.82,.06-1.49-.08-3.4-.31-3.56-2.28-.16-1.94,1.71-2.44,3.12-2.97,3.35-1.25,6.81-2.04,10.41-2.31,3.34-.25,4.53-3.25,3.88-8.69-.43-3.6-2.81-1.37-4.24-1.42-2.94-.11-5.9,.18-8.76-.81-1.04-.36-2.17-.68-2.21-2.03-.04-1.36,1.12-1.87,2.11-2.15,3.13-.88,6.27-2.03,9.46-2.28,3.98-.31,3.94-2.69,3.68-5.46-.25-2.58,.71-5.88-3.94-5.65-3.25,.16-6.5-.53-9.61-1.57-1.11-.37-2.8-.51-2.65-2.09,.14-1.47,1.84-1.62,2.97-1.77,2.76-.37,5.56-.53,8.35-.64,2.33-.09,4.3-.18,6.19-2.23,2.39-2.6,4.23-.22,5.34,1.9,2.24,4.3,3.53,8.94,4.19,13.74,2.48,17.98,1.52,35.94-.54,53.87-.71,6.16-.74,6.06,5.44,6.79,19.54,2.33,37.46,8.5,52.13,22.26-1.84-.12-3-1.54-4.43-2.4-12.29-7.36-25.9-6.77-37.52,1.57-8.05,5.78-12.8,13.69-15.45,23.08-5.27,18.69-.07,36.87,13.82,47.95,12.91,10.3,32.71,11.46,48.17,2.48,10.86-6.31,16.13-15.76,15.21-28.59-.41-5.75-1.72-11.3-2.51-16.97Zm-180.75,35.21c-.61,32.64,18.32,54.42,46.82,57.5,32.81,3.55,59.09-21.96,54.65-53.85-2.23-15.97-9.21-30.06-21.04-41.58-15.5-15.1-40.04-17.49-57.73-5.09-16.14,11.31-22.09,27.69-22.7,43.02Zm-65.75,169.31c.21-1.15,.37-1.47,.29-1.71-2.68-8.09-5.42-16.15-8.06-24.25-2.64-8.1-5.03-16.29-7.83-24.34-2.72-7.78-3.83-15.92-5.63-23.89-5.05-22.45-7.15-45.01-.69-67.63,1.94-6.8,4.82-13.22,7.28-19.97-.7,.21-.96,.73-1.25,1.24-.7,1.21-1.43,2.39-2.12,3.6-10.69,18.85-13.04,39.25-10.67,60.34,2.83,25.16,11.4,48.83,19.75,72.52,2.76,7.83,5.76,15.58,8.92,24.07Zm247.26-53.23c-.48-.3-.64-.48-.74-.46-1.32,.39-2.64,.81-3.95,1.24-31.02,10.1-62.19,11.63-92.9-.42-17.49-6.86-34.09-15.7-39.85-36.49-1.49,7.3,1.6,12.83,5.52,17.91,8.56,11.09,20.48,17.49,33.26,22.09,22.89,8.24,46.46,8.59,70.19,4.44,9.7-1.69,19.22-4.12,28.47-8.31Zm-69.62,563.23c1.52-37.3,4.45-74.56,6.26-111.87-4.41,37.16-9.01,74.31-6.26,111.87Zm-143.68-13.09c-4.59-34.46-12.14-68.13-30.13-98.61,12.85,31.98,24.38,64.36,30.13,98.61Zm34.44-91.07c-3.38,21.62-7.1,88.23-5.47,96.05,3.42-32.37,5.21-64.21,5.47-96.05Zm68.59,2.01c9.63,29.46,16.61,59.35,15.13,90.64,2.89-31.52-.86-61.95-15.13-90.64Zm38.67-223.88c.04,3.17,1.86,5.14,5.31,5.33,3.14,.17,6.54-3.44,6.63-7.05,.08-3.2-.96-5.89-4.64-6.29-3.08-.34-7.17,4.12-7.31,8.02Zm-435.74,102.76c.19-3.21-1.95-4.83-4.71-3.21-4.13,2.44-6.8,6.32-8.27,10.8-.97,2.95,1.29,4.78,4.26,3.81,3.2-1.04,8.52-8.01,8.73-11.41ZM707.1,180.5c-3.94-4.81-7.95-8.04-13.98-7.38-5.29,.58-8.14,4.13-9.8,8.73-1.77,4.9-1.69,9.7,1.89,14.85,.61-20.1,3.04-21.88,21.9-16.2ZM118.24,645.53c.06,1.85,.25,3.56,1.18,5.05,1.26,2.02,2.82,2.25,4.57,.54,2.24-2.19,3.98-10.3,2.82-13.23-.53-1.34-1.21-2.58-2.86-2.7-1.57-.11-2.59,.8-3.41,2.02-1.72,2.56-1.98,5.5-2.29,8.31Zm520.13-69.79c-6.74,1.18-13.03,3.52-18.79,7.14-1.26,.79-2.75,1.88-1.88,3.73,.86,1.82,2.64,2.03,4.39,1.68,1.19-.24,2.39-.68,3.45-1.28,5.01-2.8,9.27-6.51,12.84-11.28Zm-474.76,181.32c-.13-2.8-6.16-10.12-8.88-10.79-2.62-.64-4.87,1.43-3.92,3.99,1.54,4.15,4.17,7.67,8.21,9.73,2.72,1.38,4.72-.04,4.59-2.93ZM372.03,71.09c-16.61-7.69-33.62-14.05-52-15.97,17.49,4.83,34.5,11.2,52,15.97ZM126.61,687.22c.13-4.05-.9-7.11-2.64-9.89-1.66-2.64-3.52-2.25-4.87,.29-1.81,3.4-1.11,6.92,.11,10.32,.79,2.21,1.93,4.71,4.71,4.24,2.98-.5,2.52-3.41,2.69-4.96Zm46.64,79.53c-2.72,.27-3.14,2.58-2.11,4.6,2.15,4.21,5.78,7.18,10.08,9.04,2.06,.89,3.65-.18,3.55-2.7-.12-3.02-8.1-10.82-11.53-10.94Zm360.27-301.66c3.08-.11,5.61-1.45,7.83-3.48,1.5-1.38,2.14-3.16,1.3-5-.91-1.99-2.91-1.42-4.5-1.1-2.42,.49-4.7,1.52-6.69,2.99-1.41,1.04-3.5,1.99-2.6,4.3,.78,2.01,2.75,2.22,4.66,2.29Zm-344.65,169.1c-2.5,16.24,1,23.99,12.03,26.55-4.71-8.85-14.15-15.09-12.03-26.55Zm-54.35,93.75c.12,4.38,4.62,9.74,7.33,9.34,1.88-.28,3-1.44,2.98-3.51-.02-3.45-4.19-9.11-6.87-9.05-2.5,.06-3.45,1.68-3.45,3.22ZM740.48,144.52c4.31-4.51,7.99-9.38,10.4-15.11,.47-1.12,1.23-2.6,.04-3.41-1.39-.94-2.62,.33-3.56,1.32-4.52,4.83-5.48,11.08-6.88,17.19ZM126.23,708.84c-.06,3.54,2.85,7.53,5.35,7.54,2.03,0,3.11-1.09,3.03-3.21-.11-2.64-3.93-7.71-5.96-7.66-2.4,.06-2.25,2.04-2.41,3.33Zm120.18,109.71c-2.7,.22-3.25,1.94-2.96,3.92,.49,3.36,2.86,5.1,6.02,5.27,2.03,.11,2.95-1.73,2.57-3.58-.64-3.09-2.48-5.19-5.62-5.62ZM487.03,256.52c4.85,1.31,8.88,2.24,13.09,1.82,1.8-.18,4.38-.14,4.19-2.52-.18-2.2-2.8-2.09-4.56-2.04-3.99,.12-7.93,.73-12.72,2.74ZM198,790.03c.02-3.07-3.5-7.57-5.9-7.45-1.67,.08-2.45,1.02-2.35,2.76,.17,2.88,3.85,7.49,6.09,7.52,1.98,.02,2.19-1.31,2.16-2.82Zm12.02,8.13c-2.31,.03-3.62,1.33-3.28,3.16,.54,2.98,2.73,4.83,5.76,5.1,1.96,.18,3.27-1.14,3.03-3.17-.39-3.27-2.91-4.41-5.51-5.1ZM499.04,272.29c3.35-2.47,6.36-5.1,8.43-8.58,.53-.88,1.18-2,.14-2.95-1.23-1.13-2.38-.33-3.23,.56-2.94,3.07-4.48,6.86-5.35,10.97Zm-242.25,535.35c-1.74,.33-3.64,1.09-3.57,3.25,.07,2.38,1.79,3.95,4.22,3.94,2.05-.01,3.5-1.33,3.42-3.51-.09-2.3-1.54-3.53-4.07-3.68Zm-20.85,13.05c1.83,.02,3.28-.36,3.24-2.18-.08-3-2.14-4.36-4.83-4.73-1.55-.21-2.94,.57-2.71,2.35,.33,2.57,2.11,3.99,4.3,4.56Zm424.1-163.02c-2.57,1.19-5.32,2.57-6.8,5.4-.55,1.06,.68,1.68,1.61,1.48,3.01-.67,5.97-1.66,7.21-4.85,.46-1.17-.41-1.99-2.02-2.02Zm-276.62-13.63c-.33-1.55-1.22-3.15-3.5-2.96-1.76,.15-3.49,1.07-3.43,3.07,.06,2.24,1.47,3.78,3.88,3.67,1.95-.09,3.07-1.26,3.05-3.79Zm-107.61,188.31c-.27-2.15-1.61-3.29-3.71-3.25-1.71,.03-2.99,1.06-3.04,2.84-.05,2.17,1.29,3.45,3.42,3.51,1.95,.06,3.12-1.06,3.33-3.09Zm-88.41-69.38c-.4-1.75-1.13-3.47-3.35-3.7-1.83-.19-3.02,.83-3.03,2.69-.02,2.11,1.09,3.58,3.25,3.83,1.81,.21,2.92-.75,3.13-2.82ZM496.4,420.36c3.72-.85,5.97-2.4,7.89-4.45,.62-.66,1.25-1.5,.52-2.47-.7-.93-1.63-.69-2.5-.26-2.76,1.35-4.52,3.56-5.92,7.19ZM176.09,748.75c-.18-1.77-.84-3.33-2.97-3.21-1.84,.1-3.17,1.13-3.13,3.21,.04,1.79,1.12,2.86,2.8,3.05,2.06,.23,3.02-1.05,3.3-3.04Zm292.71-205.68c-1.66,.68-3.13,1.96-2.9,4.32,.12,1.19,.65,2.73,2.33,2.16,2.14-.72,2.95-2.71,3.18-4.76,.15-1.31-.91-1.82-2.61-1.73Zm-256.64,240.06c.02-1.71-.55-3.14-2.4-3.36-1.85-.22-2.98,.94-2.94,2.73,.04,1.66,1.06,2.96,2.8,3.16,1.7,.19,2.48-.89,2.53-2.53Zm391.01-225.49c0-1.4-.73-2.21-1.97-2.06-2.02,.24-3.37,1.49-3.7,3.54-.18,1.15,.32,2.37,1.61,2.33,2.36-.08,3.21-2.05,4.06-3.8Zm15.93,176.51c-.31-1.64-1.03-2.99-2.95-2.81-1.53,.14-2.57,1.13-2.49,2.76,.09,1.75,1.03,2.93,2.91,2.82,1.6-.1,2.4-1.17,2.53-2.77ZM293.96,55.57c3.09,2.05,6.2,3.72,10.76,2.72-3.54-3.08-7.09-3.24-10.76-2.72Zm172.4,453.1c-.11-1.54-.95-2.71-2.52-2.6-1.86,.13-2.36,1.68-2.32,3.34,.03,1.36,.61,2.5,2.12,2.38,1.74-.14,2.65-1.3,2.72-3.13Zm-180.47,315.36c1.43-.27,2.72-.92,2.69-2.87-.03-1.44-.85-2.32-2.25-2.41-1.76-.11-3.04,.81-3.19,2.56-.14,1.59,.96,2.47,2.76,2.71Zm59.24-92.73c-.24-1.36-1.05-2.45-2.57-2.58-1.66-.14-2.5,1.05-2.61,2.52-.11,1.56,.8,2.64,2.39,2.74,1.66,.1,2.32-1.13,2.79-2.68Zm239.09-193.89c-.08-1.32-.8-2.4-2.18-2.45-1.64-.07-3.16,.63-3.3,2.52-.11,1.48,1.05,2.22,2.4,2.29,1.53,.08,2.66-.66,3.08-2.35Zm-68.28-90.85c4.33-.79,8.39-2.25,12.03-4.73-4.52,.33-8.51,1.95-12.03,4.73Zm-167.71,318.29c.02-1.34-.77-2.14-2.19-2.23-1.35-.08-2.5,.43-2.63,1.93-.14,1.63,.81,2.69,2.39,2.76,1.39,.06,2.17-.94,2.44-2.46Zm72.76-114.93c1.46-.25,2.26-1.16,2.14-2.57-.12-1.37-1.04-2.33-2.47-2.27-1.48,.06-2.19,1.11-2.08,2.54,.11,1.43,.98,2.2,2.42,2.3Zm-76.5,58.92c-.09-1.44-.81-2.39-2.18-2.51-1.41-.13-2.34,.75-2.5,2.1-.17,1.46,.75,2.27,2.14,2.37,1.39,.11,2.3-.57,2.54-1.96Zm191.17-188.44c-1.4,.23-2.29,.92-2.13,2.43,.15,1.4,.97,2.29,2.41,2.12,1.33-.16,2.23-1.03,2.17-2.46-.06-1.52-1.14-1.99-2.45-2.08ZM229.21,795.44c-1.27,.16-2.25,.86-2.35,2.24-.1,1.38,.7,2.32,2.14,2.44,1.62,.13,2.73-.63,2.69-2.32-.03-1.37-1.02-2.13-2.48-2.36Zm118.43-117.11c1.31-.34,2.28-1.1,2.06-2.56-.19-1.33-1.04-2.32-2.55-2.04-1.45,.27-1.98,1.4-1.8,2.77,.16,1.24,1,1.83,2.28,1.83Zm89.94-255.45c-.05-1.32-.59-2.39-2.01-2.62-1.5-.24-2.4,.6-2.37,2.05,.03,1.33,.84,2.32,2.26,2.45,1.26,.11,2.02-.52,2.12-1.88Zm124.54,109.4c1.1-.4,2.06-1.18,1.84-2.61-.21-1.36-1.23-2.18-2.6-2.09-1.45,.1-2.15,1.1-1.95,2.54,.2,1.4,1.1,2.11,2.71,2.16Zm-216.81,214.12c-.13-1.34-.8-2.21-2.32-2.13-1.2,.07-2.09,.66-2.09,1.95,0,1.31,.53,2.53,2.02,2.58,1.4,.04,2.14-.97,2.39-2.41Z"/>
  <path d="M619.42,146c-18.28-.11-30.81-17.38-24.56-33.85,3.06-8.05,10.07-12.83,18.67-12.71,12.95,.18,25.82,12.35,26.72,25.27,.88,12.59-7.71,21.37-20.83,21.29Z"/>
  <path d="M513.19,155.32c.53-9.65,1.89-18.15,8.39-24.87,5.87-6.07,11.33-7.02,18.86-3.26,12.22,6.09,20.98,21.49,19.34,33.96-1.53,11.65-10.75,19.91-22.88,20.51-11.37,.56-19.79-6.09-22.5-17.97-.69-3.01-.89-6.12-1.21-8.37Z"/>
</svg>