<?xml version="1.0" encoding="UTF-8"?>
<svg id="Layer_1" data-name="Layer 1" xmlns="http://www.w3.org/2000/svg" viewBox="0 0 864 864">
  <path d="M448.44,809.61c-35.36-1.61-69.98-3.05-100.8-24.68,.94,1.38,1.11,1.94,1.47,2.11,13.15,6.28,12.04,18.37,11.7,29.77-.33,11.35-7.08,18.86-16.64,24.12-14.21,7.82-29.89,10.55-45.63,13-13.39,2.09-26.78,1.47-40.1-.74-14.02-2.33-28.26-.46-42.29-2.37-9.61-1.31-18.74-3.74-25.79-11.03-9.17-9.48-8.98-22.99,.45-32.2,2.42-2.36,5.01-4.56,8.09-5.94,14.74-6.6,29.79-12.2,46.2-12.63,3.93-.1,4.48-.9,2.59-4.47-11.06-20.79-16.19-42.88-13.33-66.45,2.52-20.79,11.24-39.26,22.05-56.88,5.37-8.76,11.74-16.8,18.08-24.85,.84-1.07,1.53-2.88,3.12-2.46,1.92,.51,1.44,2.57,1.6,4.07,1.71,15.62,1.46,31.69,5.66,46.74,7.7,27.6,19.35,53.5,41.26,73.36,3.03,2.75,6.31,5.13,9.98,6.94,5.55,2.74,8.96,1.35,11.16-4.51,1.26-3.35,1.56-6.86,1.73-10.41,.17-3.78,1.84-4.77,5.08-2.53,.87,.6,1.76,1.2,2.69,1.69,7.76,4.08,14,1.23,16.29-7.17,.54-2-.92-5.32,3.2-5.58,1.52-.1,.09-.89-.2-1.03-1.65-.77-2.33-2.19-2.5-3.81-1.37-13.04-7.35-24.66-11.51-36.82-6.25-18.29-10.67-36.98-12.88-56.14-.84-7.24-.14-14.66-.36-22-2.63,13.81-.15,27.37,2.01,40.96,2.73,17.18,7.53,33.75,14.07,49.86,3.42,8.41,5.41,17.18,4.69,26.39-.27,3.49-1,6.84-4.44,8.47-3.58,1.69-5.94-.91-8.34-3.02-4.84-4.25-8.27-3.17-9.56,3.18-.91,4.49-1.18,9.12-2.23,13.57-2.03,8.62-5.79,9.88-12.53,4.16-16.4-13.93-27.78-31.39-35.46-51.35-8.99-23.37-11.37-48.03-13.82-72.63-1.43-14.41-2.35-28.96-.2-43.36,3.56-23.85,17.31-40.91,37.45-53.1,8.3-5.02,17.33-8.82,25.68-13.77,21.63-12.82,32.82-33.07,38.68-56.64,4.44-17.85,6.98-36.06,7.44-54.48,.1-4.13,1.48-5.68,5.6-5.52,23.27,.93,46.24-1.41,68.85-6.98,5.3-1.3,5.19,2.39,5.28,5.44,.41,14.67,1.72,29.28,3.64,43.81,3.17,24.08,7.56,47.88,20.71,68.97,4.71,7.56,10.61,14.25,17.69,19.59,20.76,15.63,26.99,36.63,23.59,61.43-4.7,34.4-16.21,66.85-28.52,99.07-8.25,21.58-20.35,40.71-36.82,56.97-3.13,3.09-6.6,5.89-10.2,8.41-7.92,5.56-13.34,3.5-15.24-6.04-1.24-6.21-1.65-12.6-2.37-18.91-.93-8.2-3.73-9.62-10.64-5.32-1.35,.84-2.67,1.73-4.05,2.52-7.3,4.21-13.22,1.03-13.97-7.46-.53-6.05,2.18-11.02,5.4-15.71,7.9-11.53,15.28-23.34,21.06-36.13,6.52-14.44,10.37-29.65,13.53-45.08,.24-1.19,.2-2.43,.07-3.7-3.55,17.22-8.65,33.91-15.91,49.93-5.13,11.33-11.27,22-19.16,31.64-4.99,6.1-9.03,12.67-9.38,20.9-.06,1.42-.15,2.74,.3,4.15,3.36,10.51,8.29,12.41,17.86,6.71,2.12-1.26,4.13-2.73,6.24-4.02,3.86-2.36,6.07-1.51,6.49,2.96,.41,4.38,.13,8.82,.12,13.24,0,3.37,.2,6.7,1.21,9.96,2.15,6.96,6.34,9.01,12.96,6.05,9.89-4.43,17.32-11.97,24.77-19.58,25.34-25.93,36.14-58.96,45.49-92.67,4.06-14.64,7.59-29.42,11.41-44.13,.38-1.45,.23-3.64,2.16-3.84,1.55-.16,1.87,1.86,2.67,2.98,9.97,13.94,20.19,27.71,29.84,41.87,14.54,21.34,23.59,44.71,23.17,70.9-.24,14.9-4.06,29.33-7.12,44.02,.73-2.12,1.52-4.22,2.16-6.37,.71-2.37,1.4-4.75,1.89-7.18,3.1-15.59,5.94-31.12,4.46-47.26-1.46-15.86-8.51-29.35-15.69-42.95-.68-1.29-2.83-2.47-1.44-4.05,1.21-1.38,3.03-.04,4.41,.51,13.82,5.45,28.13,9.35,42.45,13.09,5.22,1.36,10.81,1.26,16.21,2.03,11.55,1.65,14.46,6.26,10.55,17.98,4.05-4.34,4.47-8.5,2.53-12.71-1.49-3.24-.61-3.96,2.55-4.06,3.17-.1,6.38-.97,9.48-.02,3.86,1.18,6.12-2.09,9.21-3.01,10.02-2.96,19.6-7.03,28.1-13.31,5.79-4.27,10.22-9.68,13.85-15.84,1.23-2.09,.79-4.07,.36-6.14-1.51-7.21-1.35-14.41,.19-21.57,.5-2.34,.85-5.61,3.7-5.83,3.08-.24,3.28,3.13,4.09,5.38,.58,1.62,1.07,3.28,2.13,4.92,.12-6.01,1.5-11.71,2.85-17.42,.53-2.22,1.31-4.42,2.26-6.5,.92-2.01,1.7-5.01,4.37-4.62,2.7,.4,1.64,3.43,1.99,5.38,.28,1.54,.45,3.1,1.42,4.71,.27-2.01,.54-4.02,.81-6.03,.64,.07,1.13-.02,1.29,.17,2.35,2.73,4.77,5.57,8.87,4.43,4.08-1.13,4.71-4.97,5.59-8.35,1.34-5.18,2.84-10.24,6.54-14.3,.79-.87,1.63-2.22,3.04-1.43,1.11,.62,.5,1.89,.38,2.9-.08,.7-.16,1.41-.2,2.11-.49,8.62,2.11,11,10.52,9.56,1.57-.27,3.1-.76,4.67-.95,1.83-.22,4.38-2.03,5.35-.1,1.08,2.13-1.96,2.84-3.33,4.02-2.23,1.92-4.55,3.74-7.84,6.42,5.48-1.37,8.1-4.99,12.13-7.11,.58,3.4-.86,5.91-1.6,8.51-.97,3.36-2.55,6.52-1.4,10.28,.88,2.87-2.13,4.09-3.99,6.34,5.15,1.09,9.41-.86,13.78-1.49,1.38-.2,2.92-1,4.03,.18,1.35,1.45,.2,3.04-.46,4.4-5.19,10.65-14.18,16.93-24.89,20.92-2.91,1.09-3.49,2.24-4.13,5.34-1.3,6.27-2.22,12.78-5.03,18.68-5.76,12.1-12.05,23.84-20.54,34.36-8.22,10.18-17.46,19.35-26.72,28.52-2.74,2.71-4.49,3.09-5.74-1.22-.76-2.6-2.53-4.63-5.18-5.71-2.87-1.17-2.69-2.84-.8-4.83,1.95-2.05,3.92-4.1,4.47-8.17-1.25,1.94-1.97,3.09-2.72,4.21-1.87,2.79-5.89,4.57-6.08,7.78-.23,3.76,4.92,3.5,7.01,6.06,3.38,4.15,3.53,6.88-.7,10.3-3.57,2.89-6.99,6.42-11.12,8.05-8.69,3.44-15.27,10.36-23.97,13.62-2.65,.99-4.6,1.67-3.77-2.42,.88-4.41-3.57-7.78-3.12-11.29,.45-3.56,5.03-6,5.92-10.27,1.82-8.68-5.71-20.45-14.29-21.84-2.15-.35-4.2,.05-6.1,2.13,9.11,3.03,18.75,6.09,18.75,17.66,0,8.65-7.29,11.12-15.35,12.68,2.74,1.75,4.93,2.83,6.74,4.36,5.18,4.39,4.92,11.29-1.03,13.95-17.36,7.75-35.8,11.37-54.5,13.62-.59-1.98,.64-2.37,1.38-3.02,7.22-6.33,8.5-13.35,3.92-21.7q-1.46-2.67,.37-6.71c-2.14,2.31-4.99,3.57-7.94,5.12,10.53,5,11.37,15.32,2.12,22.01-6.06,4.38-13.39,5.47-20.4,6.82-3.99,.77-4.56,2.33-4.17,5.54,.33,2.73,1.69,4.99,3.2,7.18,13.7,19.85,7.72,43.96-14.18,54.37-18.96,9.01-39.15,12.75-60.24,11.63-16.24-.86-32.46-1.87-48.49-4.64-10.62-1.84-21.2-4.13-30.34-10.44-12.35-8.52-12.5-22.72-.38-31.72,4.41-3.28,9.7-4.76,15.25-7.4Zm-2.82-318.56c-11.19,4.69-22.59,7.63-34.92,5.61-7.78-1.28-15.06-3.72-21.86-7.73,13.97,14.67,42.43,15.58,56.75,2.05,2.64,4.07,.66,8.62,1.31,12.89,.68,4.43-1.21,6.65-5.49,8.03-11.27,3.64-22.66,3.89-34.25,2.38,11.67,4.83,23.44,5.64,35.19,.54,3.1-1.35,5.36-2.06,6.09,2.58-.18-5.47-1.27-10.5-1.02-15.64,.17-3.52,.3-7.07,.08-10.58-.17-2.84-1.17-1.03-1.88-.13Zm-38.4,114.42c17.02,.51,31.9-3.13,45.75-11.02,1.34-.76,2.6-1.76,4.4-1.44,2.75,.49,1.53-1.71,1.5-2.72-.05-1.84-1.21-1.84-2.58-1.09-2.47,1.35-4.86,2.96-7.48,3.92-31.58,11.56-62.37,12.89-91.39-7.41-.93-.65-1.99-2.05-3.14-.56-1.21,1.57,.03,2.24,1.31,3.22,15.58,11.93,33.01,18.05,51.63,17.1Zm-53.12,23.7c2.47,.83,4.9,1.88,7.43,2.47,32.4,7.59,62.72,3.28,90.43-15.89,2.36-1.63,5.01-4.6,6.12,1.15v-12.02c.52,3.88-2.23,5.69-4.8,7.6-3.7,2.75-7.71,4.97-11.91,6.86-27.98,12.65-57.03,15.07-87.27,9.84Zm98.35-65.36c-31.9,12.01-61.65,15.67-87.27-11.14,19.12,26.56,63.99,32.63,87.27,11.14Zm-13.95,101.07c-27.12,5.88-54.12,4.37-81.07-1.3,26.86,11.4,53.88,11.64,81.07,1.3Zm-52.33-149.46c6.1,15.75,36.8,37.83,64.01,27.5-27.51,2.75-47.24-9.03-64.01-27.5Zm15.29-79.07c10.02,9.42,35.25,8.92,49.71-.35-16.7,3.95-32.99,5.25-49.71,.35Zm49.84,26.75c-17.44,7.08-35.68,8.22-54.41,5.13,17.11,9.24,47.89,3.04,54.41-5.13Zm-215.55,366.85c2.09-5.74,3.58-10.41,2.23-15.41-.54-1.98-1.87-3.58-4.17-3.27-2.29,.31-2.39,2.33-2.38,4.11,.05,4.84,1.57,9.27,4.32,14.58Z"/>
  <path d="M282.43,236.03c-11.24-5.91-23.44-6.31-36.67-5.68,11.62-16.09,10.82-35.8,19.9-51.85,1.47-2.6,.42-4.07-1.7-5.71-8.83-6.84-16.82-14.55-23.93-23.19-2.63-3.2-2.54-4.89,1.87-6.11,10.91-3.01,20.69-8.17,28.44-16.65,1.81-1.98,3.48-2.58,5.91-.8,5.41,3.96,10.95,7.76,16.52,11.5,2.82,1.89,3.07,3.35,.18,5.54-2.74,2.07-5.08,4.66-6.96,7.7,.64-.49,1.33-.91,1.91-1.47,18.45-17.88,41.32-24.39,66.19-25.46,13.23-.57,26.49-.72,39.73-1.06,1.06-.03,2.13-.02,3.17-.17,1.73-.24,3.92-.16,4.69-1.89,.93-2.08-1.29-3.13-2.54-4.12-6.85-5.38-9.07-12.98-9.77-21.02-.78-8.98-.52-17.99,1.74-26.86,2.04-7.98,6.77-13.87,13.43-18.38,1.42-.96,3.08-2.24,4.85-1.14,1.81,1.12,1.25,3.16,1.05,4.86-1.09,9.51-1.22,18.99,.63,29.77,.63-10.88,5.8-17.83,12.94-23.52,11.92-9.5,25.79-16.06,38.03-25.1,.83-.61,1.9-1.38,2.9-.69,1.03,.72,.5,1.93,.23,2.94-2.31,8.78-6.05,16.95-10.5,24.82-2.5,4.43-4.93,8.9-7.15,13.58,10.87-8.13,22.31-15.25,33.89-22.14,2.05-1.22,4.52-3.8,6.6-2.28,2.51,1.83,.38,4.97-.42,7.29-4.25,12.36-8.61,24.69-13.78,36.71-.66,1.53-1.97,3.04-.75,5.35,4.97-2.08,8.76-5.76,12.57-9.27,5.46-5.02,10.58-10.41,15.88-15.6,1.19-1.17,2.23-3.25,4.29-2.29,1.88,.87,1.44,3.02,1.62,4.74,1.17,11.53-2.88,21.09-10.8,29.31-6.76,7.03-13.96,13.52-22.13,18.89-1.12,.74-2.63,1.14-3.03,2.85,1.54,1.32,3.55,1.3,5.37,1.75,23.84,5.78,45.03,17.04,63.4,32.94,23.07,19.96,37.08,45.1,41.82,75.77,4.67,30.2,2.79,59.22-10.4,86.97-15.67,32.96-42.33,53.85-75.84,66.26-25.7,9.52-52.59,13.22-79.96,14.58-49.56,2.47-97.58-5.63-144.5-20.64-32.52-10.4-57.72-31.37-75.82-59.94-10.18-16.08-15.14-34.42-9.62-53.78,5.74-20.16,20.18-31.91,39.42-38.09,18.31-5.88,36.8-6.38,55.15,.27,.61,.22,1.27,.31,1.91,.46Zm226.47,46.1c10.62,.93,20.84-5.57,23.47-14.79,2.97-10.41,3.18-20.9-.07-31.32-5.78-18.5-23.57-30.55-41.45-28.76-28.9,2.89-49.09,33.12-51.38,58.91-.21,2.32,.32,4.31,2.96,4.86,7.32,1.51,13.93,4.83,20.68,8.12-4.23-17.37-.55-28.53,11.8-36.07,9.74-5.94,22.47-4.71,31.51,3.11,4.41,3.81,7.09,8.65,8.6,14.28,2.24,8.33-1.39,15.06-6.12,21.67Zm-152.59-11.34c7.27-3.13,12.72-8.22,15.19-15.85,4.38-13.54,5.63-27.24,1.49-41.16-10.24-34.43-47.92-36.95-66.41-17.35-10.69,11.33-16.29,24.99-18.43,40.25-.17,1.23-.11,2.04,.91,2.69,8.63,5.54,16.08,12.45,23.05,20.55-.41-24.53,6.49-36.05,23.64-40.12,12.57-2.99,26.3,3.19,31.87,14.36,6.15,12.32,2.01,25.42-11.31,36.62Zm124.95,84.27c-26.3,22.18-57.37,23.18-88.9,19.32-32.57-3.99-58.04-20.93-77.42-47.35,7.09,14.45,17.84,25.54,31.14,33.89,33.02,20.7,68.73,21.66,105.22,12.41,11.41-2.89,21.57-9.29,29.96-18.27Zm44.88-143.35c-6.73-10.9-21.84-17.17-39.92-16.56-15.07,.51-30.84,8.69-36.22,18.8,21.46-22.15,53.35-23.59,76.14-2.24Zm-169.12,20.62c-3.49-.03-5.19,1.76-5.33,4.77-.18,3.73,1.89,6.14,5.56,6.17,3.08,.02,5.33-1.94,5.23-5.31-.1-3.51-2.4-5.19-5.46-5.62Zm138.58,26.01c.26,3.13,1.75,5.32,5.16,5.33,3.35,.01,5.25-1.85,5.04-5.28-.2-3.15-1.93-5.41-5.18-5.52-3.38-.11-4.95,2.08-5.01,5.46Z"/>
  <path d="M701.03,597.36c.35,3.86,.67,7.73,1.05,11.59,.21,2.1,.93,4.45-1.44,5.69-2.2,1.15-3.57-.76-4.99-2.02-24.18-21.58-52.23-26.56-83.05-19.19-12.88,3.08-21.11,12.31-28.36,22.61-1.53,2.17-2.99,4.37-4.43,6.6-3.45,5.37-5.1,5.54-9.75,.95-6.16-6.08-11.9-12.59-18.76-17.94-1.39-1.08-2.76-2.57-4.35-2.95-6.68-1.6-6.06-5.94-5.58-11.36,1.09-12.47,2.35-25.18-5.66-36.33-4.17-5.79-9.47-10.46-14.82-15.09-1.2-1.04-2.43-2.05-3.57-3.16-.84-.82-2.21-1.6-1.57-3.03,.58-1.29,2.07-1.25,3.27-1.31,6.56-.36,12.97-1.48,19.28-3.3,22.39-6.45,42.11-18.03,60.91-31.48,45.93-32.86,82.89-73.92,112.57-121.81,12.56-20.26,19.58-42.14,22.01-65.72,.81-7.9,2.16-15.76,3.67-23.55,.76-3.92,.3-6.57-3.29-8.98-4.31-2.9-6.24-7.29-4.34-12.51,2.17-5.96,6.28-10.21,12.37-12.24,1.96-.65,2.6,.64,1.98,2.4-.58,1.66-1.45,3.23-1.99,4.9-.55,1.68-1.04,3.58,.6,4.92,1.63,1.33,3.48,.57,4.96-.34,2.09-1.29,3.96-2.95,5.97-4.37,1.1-.77,2.1-2.32,3.66-1.45,1.69,.94,1.33,2.81,1.11,4.32-1.08,7.49-4.77,13.29-11.72,16.56-2.69,1.26-4.26,2.89-4.55,5.85-2.87,29.04-3.95,57.96,8.13,85.53,7.36,16.8,17.82,31.26,33.55,41.39,4.47,2.88,4.46,3.7,.05,6.52-4.33,2.76-8.55,5.63-12.51,8.91-10.9,9.04-12.02,21.22-10.21,33.87,2.95,20.6,11.47,38.82,25.22,54.54,1,1.14,2.73,2.14,1.78,4.01-.81,1.59-2.45,1.16-3.8,.83-32.07-7.81-52.53,9.07-69.53,32.93-9.17,12.86-14.13,27.22-13.89,43.23Zm25.99-238.97c-29.75,64.03-77.07,112.91-133.42,154,65.3-33.28,107.55-86.55,133.42-154Z"/>
  <path d="M75.51,513.24c-3.53,0-7.06,.1-10.59-.05-1.41-.06-2.85-.68-3.2-2.32-.35-1.63,.7-2.74,1.95-3.45,1.99-1.13,4.06-2.14,6.17-3.02,22.64-9.48,30.44-27.1,22.22-50.49-1.76-5-3.77-9.94-6.92-14.27-2.28-3.13-2.38-5.74,1-8.11,21.09-14.8,31.28-36.27,37.11-60.46,.6-2.49-.26-4.48-.86-6.66-2.22-8.12,1.76-16.14,9.09-18.52,3.29-1.07,4.66-.18,4.21,3.46-1.34,10.7-.63,11.38,10.21,9.23,3.49-.69,3.9,.59,2.77,3.25-1.72,4.03-4.51,7.43-8.45,9.17-3.88,1.71-4.33,4.36-4.36,8.02-.14,16.09,5.21,30.53,13.04,44.2,21.87,38.21,51.59,69.39,86.97,95.14,19.44,14.15,41.31,22.96,65.66,24.55,1.52,.1,3.52-.3,4.07,1.62,.45,1.56-1.19,2.44-2.18,3.37-13.17,12.33-22.12,26.97-24.76,45.09-1.64,11.27-1.36,22.56-.24,33.82,.46,4.64-.98,5.13-4.97,3.72-7.51-2.67-15.35-4.1-23.23-5.24-8.19-1.18-15.73,.15-22.62,5.15-6,4.35-12.28,8.34-18.57,12.27-4.97,3.11-7.18,2.42-9.39-2.97-1.94-4.73-3.58-9.6-5.11-14.48-6.78-21.61-27.45-25.99-42.76-23.07-7.53,1.44-14.54,4.31-21.5,7.4-1.78,.79-3.52,1.67-5.33,2.35-2.16,.8-4.47,1.66-6.52-.14-2.07-1.81-1.56-4.17-.87-6.41,1.84-5.92,3.43-11.93,3.79-18.11,1.14-19.39-1.58-38.22-11.02-55.36-7.36-13.36-19.16-19.96-34.82-18.66Zm166.98,14.82c-19.65-14.73-39.54-29.15-56.97-46.5-17.53-17.44-31.09-37.83-42.4-59.71,16.29,51.15,54.9,81.5,99.38,106.21Z"/>
  <path d="M527.25,93.31c7.72,6.09,16.89,8.59,26.26,10.43,7.32,1.44,7.63,1.52,4.52,8.31-2.42,5.29-5.35,10.34-7.95,15.55-1.79,3.58-4.23,4.51-8.22,3.43-8.51-2.31-16.65-5.49-24.7-9.06,6.71,6.24,14.76,9.83,23.7,11.21,4.59,.71,4.91,2.46,2.67,5.86-2.99,4.57-5.54,9.45-9.13,13.63-1.55,1.81-3.18,2.84-5.42,1.12-11.15-8.56-24.01-14.13-36.29-20.71-2.52-1.35-3.89-2.68-1.16-5.01,11.88-10.14,22.16-21.72,31.43-34.26,.5-.67,1.39-1.06,2.11-1.57,.73,.36,1.45,.72,2.18,1.07Z"/>
  <path d="M322.26,106.46c-7.15-1.09-14.14-2.82-21.14-4.55-4.02-.99-5.75-3.03-4.99-7.12,1.07-5.72,2.15-11.45,3.16-17.18,.62-3.49,2.24-4.96,5.86-3.49,7.76,3.14,15.82,4.94,24.22,5.11,2.73,.05,3.8,1.57,3.73,4.06-.35,12.64,1.23,25.01,4.96,37.1,.79,2.58-.65,3.54-2.89,3.93-11.23,1.93-21.91,5.47-31.87,11.06-2.31,1.3-3.58,.49-4.34-1.86-2.88-8.86-3.65-17.96-3.18-27.2,.22-4.23,3.03-3.07,5.34-2.29,6.88,2.33,13.86,3.47,21.13,2.45Z"/>
  <path d="M527.25,93.31c-.73-.36-1.45-.72-2.18-1.07,.32-1.8,1.35-3.23,2.38-4.67,7.81-10.94,14.58-22.51,20.34-34.64,1.7-3.59,3.21-5.15,7.53-3.26,4.5,1.96,9.59,2.4,14.56,1.65,3.58-.55,5.01,.65,4.41,4.27-.86,5.22-1.67,10.45-2.48,15.68-.56,3.57-2.73,4.62-6.08,4.05-5.51-.94-11-2-16.4-3.5,4.99,2.74,10.36,4.15,16.01,4.23,3.91,.06,5.09,1.67,3.91,5.3-1.75,5.37-3.54,10.72-5.16,16.13-1.05,3.53-2.97,4.52-6.7,3.89-10.32-1.74-20.14-5.19-30.14-8.06Z"/>
  <path d="M320.24,46.14c4.13,3.03,8.8,4.42,13.77,4.58,3.65,.12,4.52,1.58,3.61,5.04-1.34,5.12-2.35,10.32-3.35,15.52-.49,2.56-1.45,4.24-4.4,4.23-8.75-.02-17.14-2.18-25.54-4.28-2.57-.64-2.65-2.62-2-4.63,5.24-16.31,12.86-31.28,24.61-43.97,2.76-2.98,4.88-2.51,7.41,.27,2.84,3.13,5.74,6.27,9.78,7.98,2.29,.97,2.53,2.58,1.53,4.74-1.78,3.84-3.45,7.74-5.09,11.65-1.24,2.95-3.6,3.15-6.17,2.54-4.74-1.14-9.44-2.44-14.16-3.67Z"/>
  <path d="M628.91,152.28c-.41,.87-.77,2.07-1.46,3.03-6.56,9.16-13.32,18.13-22.3,25.2-2.97,2.34-4.84,1.89-6.99-.88-6.41-8.25-11.54-17.3-16.54-26.43-1.36-2.48-1.21-4.05,1.72-5.35,11.09-4.92,22.27-9.7,32.57-16.21,1.76-1.11,3.52-1.18,4.23,1.14,1.97,6.45,4.47,12.62,8.38,18.16,.19,.27,.2,.67,.39,1.33Z"/>
  <path d="M599.26,185.66c-.94,.59-1.89,1.09-2.74,1.73-6.22,4.66-12.43,9.33-18.62,14.03-2.19,1.67-3.87,1.29-5.16-1.1-6.54-12.04-14.86-22.75-24.36-32.57-2.45-2.54-1.95-4.09,1.23-5.4,8.33-3.43,16.61-6.96,24.87-10.54,2.68-1.16,4.74-1.36,5.75,2.03,3.29,11.05,9.07,20.64,17.06,28.93,.58,.61,.96,1.41,1.96,2.9Z"/>
  <path d="M246.25,102.84c2.47-.51,3.93,1.1,5.43,2.6,5.22,5.24,10.74,10.17,16.67,14.59,2.83,2.11,3.26,3.64,.13,5.92-9.03,6.56-18.81,11.7-28.99,16.18-3.04,1.33-5.16,.75-7.21-2.04-4.4-5.99-8.03-12.4-11.5-18.93-1.07-2.02-1.73-3.95,.84-5.4,9.2-2.43,17.25-7.04,24.64-12.92Z"/>
  <path d="M246.25,102.84c-7.39,5.87-15.44,10.49-24.64,12.92-2.65,.17-4.29-1.13-5.24-3.51-.45-1.14-1.11-2.2-1.52-3.36-1.28-3.63-4.19-7.33-3.34-10.9,1.1-4.61,6.64-2.23,9.92-3.94,2.78-1.45,6.02-2.14,8.47-4.15,3.21-2.63,5.61-1.85,8.07,.99,2.18,2.52,4.52,4.91,6.88,7.26,1.36,1.36,2.13,2.77,1.4,4.69Z"/>
  <path d="M216.73,78.71c-10.79-.33-11.32-.83-10.84-11.97,.12-2.9-.59-7.17,2.12-8.11,2.51-.88,3.85,3.36,5.73,5.31,4.9,5.06,8.75,11.08,14.15,15.67,3.02,2.57,2.58,4.65-.59,6.58-4.41,2.69-9.13,4.52-14.22,5.52-4.54,.89-4.83-2.24-5.48-5.23-.64-2.93-1.26-5.7,3.09-6.25,2.05-.26,4.03-1,6.05-1.53Z"/>
  <path d="M568.05,34.08c-1.31,0-2.01,.03-2.72,0-7.55-.37-8.36-1.52-6.07-8.56,1.63-5.02,3.21-10.06,4.91-15.06,.42-1.23,.46-3.08,2.3-3.12,1.45-.03,1.87,1.47,2.39,2.53,3.12,6.39,5.03,13.17,5.66,20.24,.54,6.06-4.35,3.3-6.47,3.98Z"/>
  <path d="M356.45,16.49c-1.73,4.41-4.2,7.99-7.15,11.22-.81,.89-2,.37-2.88-.29-3.36-2.54-6.73-5.05-10.01-7.69-2.48-2-1.83-3.87,.57-5.45,2.35-1.54,4.61-3.23,7.08-4.54,1.91-1.01,4.08-3.79,6-2.07,2.64,2.36,4.3,5.82,6.38,8.8Z"/>
  <path d="M566.53,47.61c-2.35-.23-4.1-.44-5.85-.57-8.85-.66-9.58-2.07-5.58-9.77,1.22-2.36,2.79-2.89,5.12-2.41,3.46,.71,6.94,1.12,10.48,.46,2.45-.46,4.47,.25,4.33,3.06-.15,3.02,1.95,7.06-2.81,8.47-2,.59-4.17,.57-5.68,.76Z"/>
  <path d="M630.4,125.35c-.12-2.75,1.99-3.85,3.76-5.3,3.67-3.01,7.2-6.18,10.85-9.22,1.08-.9,2.52-2.82,3.41,.12,1.08,3.6-7.23,22.67-10.7,24.9-2.44-3.5-4.88-7-7.32-10.5Z"/>
  <path d="M630.4,125.35c2.44,3.5,4.88,7,7.32,10.5,.81,5.65-3.46,8.67-6.57,13.84-1.52-6.73-4.28-11.56-6.29-16.7-2.18-5.58-.88-7.37,5.53-7.64Z"/>
  <path d="M369.21,1.56c-.82,1.09-1.72,2.39-2.71,3.6-1.23,1.5-2.53,2.95-3.82,4.4-1.24,1.39-1.98,3.83-4.33,3.31-2.61-.58-3.67-3.14-4.99-5.2-.85-1.32-.18-2.38,1.04-3.07,4.04-2.28,8.42-3.61,12.94-4.54,.94-.19,1.75,.02,1.88,1.5Z"/>
</svg>