<?xml version="1.0" encoding="UTF-8"?>
<svg id="Layer_1" data-name="Layer 1" xmlns="http://www.w3.org/2000/svg" viewBox="0 0 864 864">
  <path d="M792.87,551.44c-5.19-24.58-10.93-49.3-21.39-72.27-9.37-20.58-19.56-41.72-38.31-55.42-13.59-9.93-29.31-16.45-44.96-22.64-25.63-10.13-51.5-19.62-77.61-28.46-25.01-8.46-49.97-18.75-76.65-19.47-21.41-.58-41.38,4.36-59.9,15.11-1.34,.78-3.51,1.31-3.37,3.18,.16,2.14,2.53,2.46,4.14,2.86,4.27,1.05,8.61,1.85,12.96,2.54,16.91,2.7,33.5,7.74,50.44,10.07,26.9,3.69,54.22,10.61,79.02,22.64,24.23,11.75,51.85,27.81,70.65,47.25,14.73,15.24,25.19,33.5,32.05,53.5,11.43,33.34,7.69,65.77-5.19,97.79-1.14,2.84-2.28,3.23-4.94,1.75-9.56-5.31-19.13-10.58-28.06-16.93-5.32-3.78-6.36-3.38-6.9,3.03-1.22,14.44-4.89,28.57-5.3,43.1-.08,2.72-1.09,3.29-3.16,1.64-3.83-3.04-7.74-6.01-11.32-9.34-7.77-7.22-15.39-14.61-23-22-2.45-2.37-4.06-2.95-5.33,1.08-1.17,3.7-2.15,7.49-4.18,10.91-4.28,7.2-6.88,15.11-9.52,23-1.66,4.94-3.45,9.83-5.14,14.76-1.08,3.15-2.49,2.89-4.34,.59-3.49-4.33-6.57-8.93-9.39-13.71-4.82-8.18-10.45-15.75-17.05-22.6-1.79-1.86-2.81-2.02-4.45,.36-5.37,7.78-11.03,15.35-16.54,23.03-2.63,3.67-4.45,7.9-7.58,11.13-1.58-.42-1.72-1.71-2.21-2.68-5.06-9.86-10.08-19.74-15.1-29.61-1.49-2.93-2.72-4.47-5.56-.79-8.59,11.1-17.96,21.54-28.16,31.22-2.2,2.08-3.44,2.1-4.23-.95-2.36-9.15-5.42-18.11-7.01-27.46-1.89-11.07-3.66-22.17-6.69-33.02-1.14-4.09-3.17-5.51-7.49-3.92-6.88,2.53-13.94,4.57-20.93,6.82-4.71,1.52-9.41,3.07-14.71,4.8,.4-1.41,.57-2,.73-2.59,3.2-11.64,7.31-22.97,11.39-34.32,1.56-4.34,.77-7.53-4.14-9.19-6.49-2.19-12.96-4.48-19.72-5.56-3.13-.5-4.08-1.16-2.72-4.39,4.54-10.82,8.74-21.77,13.25-32.6,2.44-5.87,2.27-6.55-3.75-8.94-11.32-4.5-22.62-9.04-34.07-13.62,1.28-1.84,2.54-3.54,3.69-5.31,7.31-11.18,15.7-21.65,21.39-33.89,1.76-3.79,1.37-5.98-2.14-8.49-9.98-7.14-19-15.39-27.08-24.67-2.21-2.53-2.05-3.67,.85-5.31,13.64-7.72,27.62-14.72,42.05-20.83,1.56-.66,3.84-.87,3.87-3.15,.03-2.03-2.09-2.36-3.46-2.99-11.57-5.36-22.46-11.95-33.3-18.61-3.53-2.17-7.44-3.91-10.37-7.53,1.54-.79,2.82-1.46,4.1-2.1,12-6.01,23.29-13.16,33.89-21.39,3.95-3.07,3.9-4.71,.32-7.63-9.75-7.92-19.4-15.97-29.23-23.78-2.59-2.06-1.88-2.93,.35-4.54,9.12-6.61,18.14-13.34,27.14-20.11,5.21-3.92,5.1-4.79-.48-7.95-10.94-6.2-21.81-12.48-30.77-21.55-2.45-2.48-2.4-3.5,.9-4.96,10.91-4.82,21.48-10.3,30.8-17.89,5.21-4.25,5.16-6.09-.33-9.89-9.4-6.51-18.39-13.55-26.97-21.11-2.82-2.48-3.23-4.07,.4-6.46,9.67-6.37,19.14-13.07,28.54-19.83,4.21-3.03,3.91-4.74-.73-6.66-7.53-3.11-15.17-5.96-22.6-9.28-8.11-3.62-16.03-7.66-24.58-11.78,3.58-2.98,6.45-5.36,9.3-7.77,20.22-17.01,41.28-33.09,59.17-52.72,7.68-8.43,13.92-17.77,16.85-28.89,1.87-7.12,2.21-14.36-4.08-19.9-6.28-5.53-15.06-6.31-22.87-2.32-4.93,2.52-8.44,6.61-11.88,10.75-11.57,13.95-20.6,29.76-32.01,43.83-10.6,13.07-21.93,25.44-34.93,36.19-1.55,1.28-2.94,2.79-5.58,1.59-5.48-2.48-11.15-4.57-16.8-6.68-1.8-.67-2.44-1.06-.98-2.94,15.56-20,26.68-42.48,36.22-65.79,4.09-9.97,7.57-20.17,6.65-31.25-.56-6.71-2.71-12.97-9.32-15.51-10.64-4.09-20.94-2.32-27.58,8.62-4.74,7.81-6.95,16.54-8.28,25.41-3.39,22.73-12.2,43.45-22.51,63.72-3.2,6.3-6.76,9.42-14.64,7.67-10.16-2.26-20.76-.75-31.15-1.03-.41-2.05,.89-3.29,1.57-4.69,8.78-18.04,17.79-35.99,22.7-55.59,1.95-7.8,3.31-15.9-.97-23.31-4.3-7.45-11.93-8.56-19.67-8.33-7.34,.22-13.18,3.22-16.47,10.25-4.02,8.57-5.41,17.74-6.04,27.02-1.28,18.76-3.65,37.27-10.15,55.07-.96,2.62-2.03,3.79-4.98,4.13-20.38,2.41-40.7,5.01-60.74,9.8-31.95,7.63-61,20.76-86.04,42.31-8.79,7.57-16.41,15.77-19.36,27.48-5.36,21.28-.3,40.36,12.16,57.77,12.51,17.48,30.35,27.94,49.7,35.98,40.45,16.81,83.01,21.73,126.38,21.45,9.32-.06,11.79,.99,14.94,9.67,9.12,25.14,11.67,50.3,3,76.49-11.1,33.55-21.66,67.29-30.76,101.47-12.47,46.81-15.07,94.47-12.92,142.55,1.28,28.58,8.5,55.95,18.36,82.67,.79,2.15,1.61,4.32,1.34,6.65-1.08,9.52-.07,18.95,2.08,28.14,4.69,20.07,6.74,40.46,8.82,60.91,1.32,13.03,4.68,25.73,11.63,37.03,8.73,14.19,24.34,16.7,37.37,6.31,8-6.39,13.56-14.45,16.33-24.4,3.75-13.45,5.89-27.09,4.54-41.06-.45-4.69,.88-6.38,5.69-6.07,6.54,.41,12.96-1.03,19.34-2.38,5.69-1.2,9.8,1.95,10.17,7.79,.81,12.67,1.32,25.37,2.47,38.01,1.18,12.98,6.04,23.97,18.54,30.18,10.4,5.16,19.11,3.36,24.82-5.45,2.15-3.32,3.15-7.1,3.81-11,2.87-17.21,1.9-34.48,1.01-51.75-.28-5.49-.15-5.6,5.17-4.79,13.45,2.03,26.99,2.55,40.47,.87,26.19-3.25,52.56-4.64,78.74-7.91,4.23-.53,5.08,.77,5.14,4.79,.17,10.91,.72,21.83,1.46,32.72,.75,11.09,2.35,22.04,7.25,32.23,3.83,7.95,12.51,12.46,21.96,11.32,7.09-.85,11.44-5.94,13.16-15.48,1.3-7.22,2.75-14.45,2.58-21.83-.34-14.81-.81-29.62-1.22-44.43-.05-1.87-.88-4.24,2.17-4.46,3.4-.25,1.83,2.52,1.9,3.85,.56,11.73,.84,23.47,1.39,35.19,.53,11.4,1.15,22.85,5.41,33.63,3.81,9.64,10.77,15.48,21.47,15.62,9.4,.12,14.67-6,18.72-13.49,3.57-6.6,4.72-13.86,4.98-21.21,.64-17.43,.97-34.87,1.52-52.3,.17-5.2-.84-11.21,1.42-15.37,2.3-4.26,8.93-4.73,13.51-7.18,.14-.08,.29-.15,.44-.22,42.83-20.65,77.31-51.14,105.35-89.26,14.11-19.19,22.97-40.51,25.43-64.24,1.67-16.19-.15-32.3-3.5-48.14Zm-277.31-178.44c-2.03-.02-3.45-1.51-3.43-3.42,.03-2.01,1.82-2.88,3.64-3.31,1.91,.12,3.21,1.09,3.28,2.96,.08,2.24-1.18,3.79-3.5,3.77Zm14.29-1.44c-1.66,.1-3.33-.82-3.26-2.77,.08-2.01,1.05-3.8,3.45-3.84,1.9-.03,2.89,1.13,3.07,3.03-.28,1.93-1.28,3.47-3.26,3.59Zm15.34-1.64c-2.15-.02-4.63-1.03-4.49-3.52,.12-2.26,1.7-4.23,4.56-4.19,2.2,.03,3.82,.78,4.16,3.37-.35,2.36-1.52,4.37-4.22,4.34Zm-138.23-37.92c1.67,0,3.34,.92,3.26,2.94-.09,2.37-1.92,3.18-3.98,3.55-1.41-.33-3.35-.27-3.19-2.27,.18-2.21,1.34-4.22,3.91-4.22ZM450.37,47.55c2.09-.14,3.38,.88,3.58,2.96-.23,2.07-.99,3.79-3.19,3.67-1.78-.1-3.73-.91-3.73-3.11,0-1.96,1.25-3.38,3.35-3.52Zm-12.78,15.15c2.19-.29,3.33,1.47,3.79,3.15-.53,3.25-2.22,4.88-5,4.86-2.19-.02-3.67-1.4-3.73-3.71-.09-3.3,2.62-3.99,4.94-4.3Zm-75.82-43.8c1.72-.04,2.46,1.21,2.93,2.56-.29,1.9-1.27,3.11-3.03,3.37-1.71,.25-2.74-.7-2.85-2.43-.14-2.07,.75-3.45,2.95-3.5Zm-6.62,17.78c2.38,.26,4.29,1.19,4.15,3.82-.14,2.51-1.67,4.29-4.3,4.44-2.48,.14-4.14-1.31-4.03-3.79,.11-2.44,1.45-4.27,4.18-4.47ZM92.52,240.34c-.56-.63-1.21-1.74-.32-2.6,.95-.91,1.85-.03,2.52,.55,2.75,2.4,5.43,4.88,9.2,8.31-5.72-.72-8.73-3.25-11.4-6.26Zm104.53-44.84c-16.88,0-31.89-14.93-30.8-31.74,1.35-20.88,14.08-33.1,33.28-33.82,19.51-.74,32.1,18.38,31.97,32.75-.17,19.12-14.55,32.81-34.45,32.81ZM275.08,26.75c1.66-.1,2.64,.93,2.8,2.7-.28,1.84-1.03,3.44-3.2,3.43-1.53,0-2.92-.85-2.83-2.6,.1-1.91,1.17-3.41,3.23-3.53Zm-5.94,18.28c.31-2.32,1.75-3.81,4.29-3.63,2.18,.16,2.87,1.76,3.2,3.63-.77,2.16-1.99,3.93-4.45,3.66-1.89-.21-3.33-1.58-3.04-3.66Zm3.06,132.94c.88-18.75,10.2-34.37,31.82-34.86,18.82-.43,34.16,13.72,34.11,31.41-.06,17.84-13.31,35.63-35.95,34.87-14.19,1.84-30.77-14.4-29.98-31.42Zm5.75,664.18c-2.02-.42-1.87-3.11-2.06-4.96-.15-1.46,.32-3.41,2-3.29,2.86,.2,1.5,3.03,2.23,4.66-.14,1.6-.48,3.94-2.17,3.59Zm7.19-17.77c-2.31,.06-1.82-2.23-2.03-3.66-.19-1.28,.03-2.79,1.73-2.86,2.17-.1,1.84,1.71,1.98,3.09-.28,1.32,.31,3.38-1.67,3.44Zm7.52,26.99c-3.7-.08-1.54-4.76-2.91-7.02,.99-2.42-.49-6.55,1.84-6.64,2.94-.1,2.37,3.93,2.57,6.31,.22,2.64,.63,7.39-1.5,7.35Zm7.47-26.94c-3.11,.14-4.08-2.29-3.95-4.94,.14-2.78,.54-5.85,4.32-5.73,2.88,.09,3.43,2.46,3.53,5.1-.76,2.12-.41,5.42-3.9,5.58Zm7.77,25.97c-2.92,.18-2.11-5.2-2.55-8.15-.3-2.01,.19-4.16,.48-6.22,.17-1.24,.37-2.71,2.11-2.79,1.71-.08,2.1,1.41,2.48,2.56,.61,1.82,.92,3.74,1.38,5.72-1.2,3.13,.1,8.64-3.91,8.88Zm7.32-29.87c-.18,1.45-.2,3.76-2.39,3.38-1.72-.29-2.03-2.28-1.93-4.05,.34-1.31,.28-3.49,1.9-3.39,1.91,.12,2.65,2.2,2.42,4.05Zm36.11-40.45c-9.77,1.34-19.46,.45-29.19-.97-23.81-3.49-39.79-17.5-52.64-36.87-15.64-23.59-23.53-49.9-29.14-77.14-4.02-19.55-4.53-39.41-4.03-59.26-1.28-43.32,6.53-85.28,18.33-126.69,7.63-26.78,15.7-53.44,24.59-79.8,9.42-27.93,8.69-55.31-1.23-82.75-.99-2.75-1.68-5.64-2.97-8.24-1.69-3.43-1.03-4.43,2.84-4.35,15.68,.34,27.43,7.28,35.52,20.58,10.25,16.86,14.35,35.1,12.34,54.75-3.94,38.44-13.12,75.55-26.3,111.88-11.07,30.5-19.92,61.72-20.41,94.56-.23,15.5,2.76,30.76,4.92,46.07,4.22,29.92,13.48,58.29,26.47,85.46,6.94,14.51,16.72,27.16,27.14,39.33,5.61,6.55,11.02,13.28,16.35,20.07,2.89,3.68-1.31,3.19-2.6,3.36Zm54.58-397.39c2.7-.08,3.91,1.77,4.12,4.08-.11,2.83-1.69,4.06-4.03,4.12-2.68,.07-4.22-1.42-4.07-4.19,.13-2.42,1.65-3.94,3.97-4.01Zm-12.29-2.81c3.43-.17,5.33,2,5.5,5.06-.03,3.82-3,6.94-6.13,6.69-3.31-.26-5.71-1.79-5.54-5.47,.17-3.8,2.52-6.1,6.17-6.28Zm7.73-55.77c.16,3.38-3.32,7.26-6.65,7.22-3.34-.04-4.99-1.99-5.18-5.91-.08-2.86,2.86-5.89,6.55-5.8,2.83,.07,5.12,1.14,5.28,4.49Zm8.75-50.08c1.96,0,2.74,1.37,2.86,3.18,.14,2.14-.99,3.25-2.9,3.63-2.24,.02-2.89-1.39-2.86-3.14,.04-1.85,.57-3.66,2.89-3.67Zm-11.98-4.71c2.72-.46,3.93,1.75,4.85,4.1-1.01,2.39-1.96,5.07-5.04,5.19-2.18,.08-4.79-.14-4.74-3.52,.05-3.3,1.97-5.26,4.92-5.77Zm-20.91,556.69c.31-1.31-.42-3.28,1.72-3.39,1.74-.09,2.45,1.39,2.5,2.95,.05,1.72-.64,3.47-2.42,3.64-2.28,.21-1.26-2.05-1.8-3.19Zm3.25,19.82c-2.54-.5-1.71-3.4-2.48-4.92,.21-1.72,.19-3.79,2.07-3.45,2.77,.49,1.86,3.31,2.18,5.18,.23,1.34,.08,3.56-1.78,3.19Zm1.56-623.15c-.21-3.49,2.59-6.55,6.5-6.54,2.69-.11,4.6,1.74,4.32,5.01-.28,3.38-2.34,5.75-5.99,5.86-2.79,.08-4.66-1.45-4.83-4.34Zm2.9,237.65c.22-3.24,1.62-5.79,5.15-5.84,3.22-.05,4.96,1.96,4.93,6.59-.22,1.84-1.97,3.9-5.12,3.84-2.64-.05-5.2-1.07-4.96-4.59Zm5.42,365.18c.14-2.13,.07-4.43,2.41-4.34,1.96,.08,2.66,2.11,2.58,4.04-.09,1.86-.67,3.9-2.72,3.97-2.63,.09-1.7-2.53-2.27-3.67Zm4.18,23.89c-1.87-.11-2.04-3.36-1.94-5.38,.09-1.82,.14-4.93,2.07-4.8,2.38,.16,1.71,3.29,2.12,5.21-.55,1.88,.43,5.13-2.25,4.97Zm8.57-332.52c-.28,2.69-2.16,5.1-5.17,4.76-2.8-.32-5.24-1.86-4.84-5.85,.63-2.83,2.4-5.09,5.83-4.89,3.54,.21,4.46,3.19,4.17,5.98Zm1.52,298.76c.43-2.03,.53-4.59,3.18-4.74,2.58-.14,2.87,2.27,2.88,4.2,0,2.26-.93,4.36-3.46,4.48-2.54,.12-2.2-2.26-2.6-3.94Zm4.1,31.5c-2.79-3.61-2.77-7.16-2.46-10.73,.1-1.14,.59-2.31,1.95-2.45,1.46-.15,1.89,1.12,2.23,2.15,1.24,3.75,.63,7.25-1.73,11.03Zm5.69-315.21c-2.63,.05-5.49-1.1-5.33-4.45,.15-3.3,1.82-6.28,5.53-6.29,3.08-.01,5,2.12,5.11,6.08-.32,2.58-2.28,4.6-5.31,4.66Zm9.75,51.08c-3.73-.14-4.72-3.26-4.78-6.21-.07-3.08,2.47-4.63,5.15-4.64,3.09-.01,4.92,2.05,5.24,5.26-.7,3.08-2.06,5.73-5.61,5.59Zm31.36,43.87c-2.08-.08-3.86-1.51-3.82-3.75,.05-2.86,1.97-4.32,4.94-4.58,2.46,.27,3.6,1.98,3.5,4.33-.11,2.76-2.13,4.09-4.62,4Zm16.39,2.5c-2.42,.29-3.96-1.27-4.09-3.7-.14-2.65,1.36-4.14,3.94-4.59,2.29,.26,4.16,1.15,4.23,3.73,.07,2.66-1.65,4.27-4.07,4.56Zm49.38,31.29c-3.14,.17-4.56-1.96-4.7-3.58-.1-4.42,1.09-6.62,4.36-6.62,3.07,0,4.84,2.04,4.99,4.97,.15,3-1.67,5.07-4.64,5.23Zm43.15,188.76c-2.93-.72-2.66-4.27-2.91-6.82,.25-1.61-.44-4.07,1.98-3.68,2.92,.47,2.52,3.57,2.61,5.63,.07,1.71-.04,5.28-1.68,4.88Zm3.95-22.7c-.11,1.82-.14,4.54-2.41,4.69-2.57,.17-2.97-2.39-3.2-4.38,.07-2.23,.52-4.36,2.98-4.29,2.13,.06,2.74,2.22,2.63,3.98Zm3.82-173.62c-3.16,.04-3.74-2.51-4.12-4.7,.48-2.83,.89-5.44,4.23-5.23,3,.19,4.83,2.08,4.85,5.06,.01,3.07-2.03,4.83-4.96,4.87Zm8.49,198.4c-2.96,.37-2.39-3.14-3.32-4.98-.07-.14-.07-.32-.07-.47,.09-2.61-1.09-7.03,1.62-7.17,3.5-.18,3.37,4.24,3.72,7.07-.6,2.06,.65,5.23-1.95,5.55Zm3.66-22.81c-.12,.98,.57,4.01-2.02,3.8-3.26-.26-3.8-3.54-3.89-6.39-.06-2.03,.33-4.51,2.9-4.09,2.93,.47,3.31,3.2,3,6.68Zm28.33,16.08c-2.66,.19-2.58-3.54-3.28-5.73-.79-2.49,0-4.78,1.42-6.83,.22-.31,1.31-.39,1.72-.14,2.29,1.44,2.74,3.83,3.02,6.58-.72,2.06,.16,5.9-2.88,6.12Zm1.94-23.04c-1.74-.13-2.04-1.84-1.95-3.38,.09-1.43,.05-3.31,2.03-3.2,1.88,.1,1.78,1.94,1.86,3.41-.28,1.3,.14,3.32-1.94,3.17Zm7.84-173.75c.14-3.22,1-5.83,4.91-5.96,2.71-.07,3.98,1.53,3.76,3.95-.27,2.88-1.4,5.56-4.95,5.53-2.08-.02-3.83-.91-3.72-3.52Zm9.39,200.79c-.26,.91-.81,1.93-1.96,1.91-1.12-.02-1.62-.97-1.98-1.91-1.47-3.87-2.2-7.86-1.3-11.95,.33-1.49,.52-3.49,2.67-3.59,2.02-.1,2.53,1.68,3.24,3.14,.74,1.53,.74,3.14,.77,5.39,.15,2.04-.74,4.52-1.44,7.01Zm4.99-30.96c-2.12,.11-2.45-1.75-2.58-3.39-.15-1.9,.34-3.54,2.4-4.14,2.51,.16,2.61,2.08,2.9,3.82,.35,2.14-.62,3.6-2.72,3.71Zm7.76-170.96c-2.74,.14-4.05-2-4.17-4.44-.13-2.68,1.97-3.65,4.21-3.68,2.29-.04,4.11,.95,4.15,3.68,.06,2.88-1.75,4.31-4.19,4.44Zm42.32-18.79c-2.29,.11-4.4-1.12-4.66-3.9-.27-2.8,2.95-6.51,5.54-6.21,2.78,.33,4.2,2.13,4.23,4.2,.14,4.31-2.21,5.77-5.11,5.91Z"/>
  <path d="M281.92,498.28c-10.5-.29-17.07-6.82-22.77-14.63-1.07-1.47-.96-3.09,.63-4.3,1.63-1.25,2.99-.67,4.27,.66,2.02,2.11,4.09,4.17,6.14,6.26,4.96,5.07,10.64,7.05,17.69,4.8,2.18-.7,5.74-2.86,6.81,.25,.99,2.89-2.6,4.36-5.16,5.46-2.41,1.04-4.92,1.66-7.6,1.49Z"/>
  <path d="M297.74,428.88c-6.39-.05-17.92-7.78-19.97-12.87-.62-1.53-.29-2.91,.79-4.03,1.42-1.48,2.34,.04,3.23,.78,2.75,2.26,5.25,4.87,8.16,6.89,4.01,2.78,8.17,4.04,12.07-.57,1.09-1.29,2.99-2.97,4.6-1.68,1.69,1.36,.73,3.67-.31,5.31-2.16,3.4-5.01,5.93-8.57,6.18Z"/>
  <path d="M308.03,386.77c-6.46-1.02-11.6-4.31-15.1-10.05-.99-1.63-1.27-3.47,.52-4.8,1.89-1.4,3.28-.23,4.62,1.15,1.47,1.51,2.95,3.05,4.61,4.33,4.73,3.65,8.55,3.53,13.18-.15,1.31-1.04,2.58-3.17,4.5-1.47,1.81,1.6,.74,3.72-.25,5.36-2.68,4.43-7.29,4.95-12.07,5.62Z"/>
  <path d="M279.48,717.27c-5.86-.05-11.67-4.31-13.29-9.76-.53-1.78-.9-3.64,1.05-4.77,2.11-1.22,2.8,.78,3.75,1.97,6.8,8.45,12.22,8.29,18.21-.62,.97-1.44,1.94-2.87,3.85-1.94,2.05,1,1.76,3,1.24,4.71-1.56,5.14-9.23,10.44-14.82,10.4Z"/>
  <path d="M296.94,450.75c-7.61,.09-16.61-6.2-18.21-12.46-.53-2.06-1.18-4.5,1.35-5.57,2.41-1.02,3.36,1.07,4.27,2.89,1.41,2.84,3.55,5.07,6.15,6.83,3.37,2.28,6.74,3.3,10.14-.11,.96-.96,2.22-2.33,3.79-1.02,1.32,1.11,.19,2.43-.14,3.6-1.11,3.93-3.49,6.2-7.34,5.82Z"/>
  <path d="M260.83,659.9c-8.49-.24-13.69-5.19-19.22-9.4-1.37-1.04-.85-2.2,.85-2.79,2.79-.97,5.16-.03,7.27,1.6,6.53,5.04,13.07,6.33,19.86,.49,1.03-.88,2.34-1.48,3.52-.37,1.33,1.25,.84,2.64-.15,3.91-3.29,4.27-7.67,6.37-12.12,6.55Z"/>
  <path d="M306.37,760.85c-5.24-.17-9.78-2.18-13.74-5.47-1.51-1.26-2.85-2.85-1.12-5,1.74-2.16,3.09-.58,4.53,.41,1.07,.74,2.15,1.46,3.26,2.15,6.68,4.16,9.92,3.05,12.28-4.31,.52-1.62,.86-3.42,2.94-3.17,1.92,.23,2.32,1.96,2.51,3.68,.73,6.48-4.16,11.88-10.65,11.71Z"/>
  <path d="M285.64,739.11c-3.01-.36-6.66-.35-9.86-2.19-1.26-.72-2.52-1.85-1.93-3.55,.63-1.83,2.23-1.52,3.71-1.23,1.28,.25,2.56,.48,3.84,.72,7.91,1.47,10.72,0,14.34-7.34,.73-1.49,1.07-4.31,3.12-3.66,2.48,.78,2.39,3.6,1.93,5.91-1.49,7.6-6.44,11.41-15.15,11.35Z"/>
  <path d="M270.99,624.28c-6.44,.05-16.78-8.31-17.73-13.7-.28-1.57,.57-2.5,1.73-3.17,1.27-.74,2.53-.49,3.52,.61,1.84,2.06,3.72,4.09,5.43,6.26,2.63,3.34,5.86,4.39,9.92,3.08,1.46-.47,3.31-1.66,4.34,.32,1.1,2.11-.43,3.69-2,4.95-1.73,1.38-3.74,1.92-5.2,1.64Z"/>
  <path d="M264.64,563.72c-7.84-.05-14.44-3.17-20.3-8.14-1.69-1.44-2.5-2.96-.61-4.89,1.8-1.84,3.48-1.39,5.03,.23,5.03,5.25,11.25,7.34,18.4,7.29,1.96-.02,5.2-1.38,5.1,2.41-.08,3.08-2.98,2.86-5.19,3.09-.8,.09-1.62,.01-2.43,.01Z"/>
  <path d="M267.37,681.35c-4.79-.09-10.12-4.76-11.01-9.58-.4-2.14,.55-3.51,2.42-4.17,1.85-.65,2.93,.28,3.75,2.03,3.14,6.68,5.52,7.04,10.98,1.81,.47-.45,.89-.95,1.4-1.35,1.13-.89,2.3-2.17,3.85-1.1,1.72,1.19,.98,2.92,.45,4.42-1.46,4.17-7.28,8.03-11.84,7.95Z"/>
  <path d="M263.98,584.55c-5.95-1.09-11.8-2.39-15.22-8.2-1.09-1.85-1.82-3.81-1.38-6.03,.32-1.6,1.11-2.7,2.91-2.67,1.4,.02,2.58,.43,2.91,2.01,1.3,6.3,6.16,8.22,11.59,9.55,1.55,.38,4.15-.05,3.72,2.7-.36,2.3-2.27,2.97-4.52,2.64Z"/>
  <path d="M294.42,345.35c-1.94,.08-4.56-.77-5.72-4.08-.63-1.8-.77-3.65,1.23-4.65,1.78-.88,4.31-1.55,5.25,.47,1.54,3.35,3.51,2.02,5.53,1.21,1.79-.73,3.45-1.8,5.23-2.56,1.57-.67,3.47-1.94,4.78,.1,1.27,1.97-.58,3.3-1.76,4.53-3.61,3.8-8.41,4.52-14.54,4.97Z"/>
  <path d="M299.84,407.73c-5.43-.19-9.88-1.94-12.07-7.4-.57-1.43-1.06-2.8,.45-3.92,1.23-.92,2.7-.73,3.58,.24,3.47,3.84,7.29,6.39,12.81,4.86,.97-.27,1.8,.71,2.18,1.64,.5,1.21,.02,2.21-.99,2.97-1.78,1.34-3.85,1.64-5.96,1.61Z"/>
  <path d="M274.43,517.86c-5.31-.2-12.5-5.55-14.44-10.46-.55-1.38-.66-2.45,.56-3.44,1.42-1.16,2.37-.18,3.32,.74,2.09,2.01,4.05,4.2,6.32,5.99,1.34,1.06,3.12,1.73,4.81,2.13,1.77,.42,4.42-.49,4.2,2.53-.22,3.02-2.94,2.33-4.76,2.51Z"/>
  <path d="M293.21,319.24c-1.54,2.1-2.08,4.61-2.72,7.15-.31,1.23-1.95,1.77-3.32,1.16-1.55-.69-1.7-2.43-.76-3.24,2.17-1.87,.34-2.7-.43-4.11-.85-1.56-1.12-3.51,.42-4.97,1.15-1.09,2.64-1.2,4.11-.57,1.95,.82,2.13,2.69,2.7,4.59Z"/>
  <path d="M269.97,467.1c.36-2.24-.02-4.73,2.97-5.06,3.04-.33,2.78,1.96,2.94,3.9,.04,.47,.2,.98,.46,1.37,1.44,2.13,3.08,4.73-.48,5.83-2.94,.91-4.54-1.8-5.55-4.35-.23-.59-.26-1.26-.35-1.69Z"/>
  <path d="M260,546.39c.13-3.63,1.28-6.74,5.12-7.77,1.56-.42,3.28,.89,2.56,2.46-1.38,3.01-.28,7.66-4.8,8.69-2.21,.5-3.05-1.26-2.89-3.37Z"/>
  <path d="M266.64,639.16c-.48,2.19-1.41,3.31-3.39,3.26-2.7-.06-6.94-3.81-6.68-6.07,.22-1.99,1.93-3.03,3.42-2.46,2.76,1.05,5.21,2.83,6.65,5.26Z"/>
  <path d="M247.42,597.05c-.15,2.26-.66,4.42-2.85,4.08-3.3-.52-3.68-3.7-4.1-6.35-.35-2.21,.85-4.27,3.1-3.9,3.38,.57,2.81,4.17,3.85,6.18Z"/>
  <path d="M256.5,691.1c2.74,.17,4.2,1.42,4.42,3.6,.26,2.64-1.27,4.47-3.78,4.87-2.64,.43-3.32-1.88-3.47-3.78-.18-2.21,.91-4.01,2.83-4.7Z"/>
  <path d="M275.81,535.18c-2.54-1.21-2.29-4.18-2.86-6.44-.44-1.75,1.39-3.1,3.1-2.84,2.69,.4,3.5,2.72,3.51,5.1,.01,2.15-1.13,3.67-3.75,4.18Z"/>
  <path d="M256.23,524.57c2.59,.92,3.84,2.73,3.98,5.18,.12,2.06-1.05,3.74-3.14,3.46-2.88-.39-3.75-2.89-3.82-5.44-.05-1.9,1.43-2.71,2.99-3.2Z"/>
  <path d="M284.24,694.84c-.32,1.77-1.28,3.2-3.06,3.26-2.71,.09-4.13-1.84-4.44-4.26-.24-1.92,.72-3.81,2.94-3.58,2.49,.25,3.74,2.33,4.57,4.58Z"/>
  <path d="M298.17,470.34c-.17,2.08-1.74,3.21-3.23,3.02-2.76-.36-3.84-2.87-4.04-5.28-.16-1.9,1.63-2.88,3.34-2.61,2.62,.42,3.32,2.72,3.93,4.87Z"/>
  <path d="M273.11,599.88c-.53,2.05-1.66,3.86-3.89,3.54-2.22-.32-3.71-2.02-3.5-4.52,.16-1.99,1.28-3.6,3.39-3.25,2.13,.35,3.82,1.71,4,4.23Z"/>
  <path d="M284.55,481.65c-.62,1.9-1.3,4.02-3.6,3.98-2.11-.03-3.67-1.56-3.47-3.81,.18-2.05,1.46-3.84,3.72-3.58,1.65,.19,3.43,1.1,3.35,3.41Z"/>
  <path d="M308.04,366.21c-2.17-.89-3.73-2.54-3.89-4.95-.12-1.89,1.43-3.21,3.16-2.77,2.24,.56,4.19,2.22,4.16,4.74-.02,1.61-1.39,2.85-3.43,2.99Z"/>
  <path d="M248.55,623.61c2.1,.79,3.88,1.93,3.89,4.4,.01,1.91-1.24,3.1-3.12,2.92-2.44-.24-3.65-2.23-3.95-4.32-.27-1.93,1.52-2.57,3.18-3Z"/>
  <path d="M333.25,762.96c-.13,1.87-1.16,3.02-3.03,3.03-1.97,0-4.21-.37-4.24-2.85-.02-1.62,.59-3.65,3.11-3.43,2.07,.18,3.79,.83,4.16,3.26Z"/>
  <path d="M307.07,745.16c-1.94-.32-2.23-1.83-2.12-3.3,.15-2,1.3-3.53,3.42-3.34,1.58,.15,2.58,1.57,2.34,3.2-.29,1.95-1.66,3.08-3.63,3.43Z"/>
  <path d="M333.85,178.27c.12,6.75-5.05,12.13-11.89,12.38-6.96,.25-13.24-6.45-13.32-14.2-.06-6.28,5.58-12.94,11-12.98,7.04-.05,14.07,7.28,14.2,14.8Z"/>
  <path d="M215.36,176.19c-7.19,0-12.84-6.28-12.89-14.33-.04-6.54,5.57-13.34,11.04-13.38,8-.06,14.61,7.09,14.57,15.76-.03,6.89-5.42,11.96-12.72,11.96Z"/>
</svg>