<?xml version="1.0" encoding="UTF-8"?>
<svg id="Layer_1" data-name="Layer 1" xmlns="http://www.w3.org/2000/svg" viewBox="0 0 864 864">
  <path d="M595.11,841.63c3.2-4.93,5.6-10.78,8.81-15.31,8.01-11.29,19.01-19.62,27.3-30.59,10.79-14.26,20.04-29.67,27.57-45.89,6.11-13.17,9.44-26.82,6.99-41.58-2.11-12.69-8.81-23-15.93-33.18-9.1-13-21.29-21.48-37.02-24.23-13.01-2.28-25.49,.82-37.83,4.64q-7.6,2.35-6.6,10.01c.01,.11-.13,.24-.42,.75-.48-.45-.93-.68-1.07-1.04-.68-1.76-1.42-3.52-1.89-5.35-5.56-21.15-15.23-40.58-24.84-60.05-10.12-20.51-21.63-40.32-30.55-61.42-17.01-40.29-24.84-82.09-20.95-125.89,.39-4.38,1.99-6.17,6.22-7.18,27.28-6.54,53.24-16.47,76.36-32.59,34.65-24.15,54.21-56.78,53.88-99.88-.2-26.03-6.19-50.81-16.98-74.46-.89-1.95-1.85-3.65-.58-6.11,15.49-30.08,24.48-62.31,30.7-95.37,4.77-25.34,6.8-50.85,2.91-76.55-.72-4.76-1.73-9.48-4.44-13.61-5.43-8.28-14.76-8.91-21.32-1.48-3.43,3.89-5.61,8.48-7.57,13.21-7.35,17.76-14.44,35.64-22.86,52.95-11.1,22.83-22.89,45.27-38.78,65.25-5.66,7.11-5.67,7.01-13.38,2.77-21.64-11.88-44.8-19.57-68.87-24.69-2.16-.46-3.92-.58-4.07-3.82-1.15-25.34-3.05-50.63-5.34-75.89-.82-8.98-1.55-18.05-5.1-26.52-2.72-6.48-5.48-6.79-9.88-1.26-1.83,2.3-3.22,4.88-4.15,7.65-1.52,4.55-3.19,9.09-4.3,13.75-6.33,26.53-10.46,53.46-13.95,80.49-.42,3.24-1.35,4.79-4.75,5.45-5.42,1.05-10.77,2.59-16.02,4.32-20.12,6.61-39.65,14.61-57.77,25.72-3.27,2.01-5.36,1.7-7.51-1.54-3.55-5.33-7.7-10.28-11.1-15.7-16.95-27.03-27.9-56.62-36.72-87.1-3.03-10.49-4.88-21.35-9.23-31.42-4.62-10.72-15.38-11.9-22.83-2.82-3,3.66-4.98,7.88-6.44,12.33-5.96,18.13-7.09,36.86-6.6,55.73,1.09,42.09,11.52,82.09,27.64,120.74,1,2.4,1.01,4.38-.08,6.62-5.82,11.98-10.01,24.53-12.83,37.54-5.57,25.68-6.17,51.19,3.04,76.27,11.69,31.83,34.37,53.57,63.94,68.72,21.67,11.1,44.72,18.35,68.52,23.23,3.69,.76,4.84,2.11,4.88,5.92,.39,34.68-4.87,68.53-14.28,101.82-3.17,11.21-3.18,11.32-14.16,7.48-17.24-6.03-33.89-13.34-49.34-23.21-22.08-14.11-36.33-34.72-48.89-57.14-16.35-29.19-37.09-54.69-65.72-73.05-19.54-12.53-40.45-21.9-62.69-28.4-1.32-.39-3.07-1.55-4.09-.22-1.02,1.32,.82,2.54,1.29,3.84,.29,.82,.79,1.56,1.17,2.34,13.06,26.3,11.94,52.34-1.91,77.88-8.28,15.27-20.8,26.88-34.2,37.59-16.79,13.42-35.15,24.46-53.7,35.19-3.22,1.87-6.6,3.54-9.52,6.23,.64,.51,.91,.9,1.27,.98,1.13,.27,2.28,.47,3.43,.62,15.94,2.08,31.75,4.75,46.59,11.26,14.43,6.34,25.7,15.85,30.56,31.57,3.78,12.24,2.77,24.47,.2,36.72-3.35,15.98-8.23,31.57-12.33,47.35-2.35,9.04-4.17,18.17-5.25,27.45-.15,1.26-.52,2.99,.74,3.64,1.44,.74,2.24-.92,3.05-1.86,2.37-2.76,4.7-5.57,7.01-8.39,13.2-16.13,26.26-32.4,41.76-46.46,6.27-5.69,12.72-11.21,20.54-14.71,11.55-5.18,20.88-1.86,26.59,9.47,1.3,2.58,2.21,5.39,3,8.18,2.09,7.37,1.99,14.99,2.35,22.56,.29,6.1-.15,12.27,1.33,18.28,.41,1.69,.94,3.68,2.88,4.05,1.84,.35,2.7-1.51,3.61-2.75,5.29-7.17,9.78-14.84,14.3-22.5,6.55-11.08,13.8-21.64,23.7-30.09,3.02-2.58,6.32-4.74,10.3-5.5,4.54-.86,6.88,.6,8.22,5.02,1.2,3.94,1.48,8.01,1.75,12.09,.31,4.65,.56,9.32,1.71,13.87,.31,1.24,.65,2.75,2.12,3.05,1.3,.27,2.09-.86,2.76-1.82,1.66-2.39,3.26-4.83,4.93-7.22,3.82-5.5,7.29-11.3,13.37-14.77,5.99-3.42,10.43-3,15.56,1.56,6.24,5.55,9.16,13,11.85,20.6,.88,2.51,1.06,5.33,3.14,7.76,.57-1.59,1.03-2.81,1.43-4.05,9.2-28.54,21.33-55.86,36.56-81.61,13.4-22.64,21.7-46.65,24.55-72.68,.77-6.97,1.53-13.95,2.38-21.8,.29,1.3,.46,1.71,.46,2.12-.24,20.52-2.35,40.8-9.32,60.22-7.75,21.57-18.47,41.81-28.97,62.13-13.18,25.52-26.5,50.97-32.69,79.35-.56,2.56-1.72,2.42-3.69,1.92-13.92-3.57-27.8-2.48-41.55,.89-15.41,3.78-28.6,11.11-36.61,25.43-11.71,20.95-11.75,42.61-2.56,64.39,6.76,16.03,17.52,29.53,28.71,42.63,6.25,7.31,12.93,14.24,19.47,21.29,1.93,2.08,1.75,3.17-1.21,3.4-.73,.06-1.45,.14-2.18,.19-30.97,2.15-59.48-5.92-86.17-21.1-6.45-3.67-12.44-8.15-17.25-13.97-4.15-5.03-4.37-9.03-.88-14.32,2.44-3.7,5.79-6.53,8.87-9.63,4.61-4.64,4.19-6.39-2.03-8.06-6.18-1.66-12.48-2.85-18.45-5.34-8-3.34-11.91-9.35-12.62-17.82-.8-9.52,.02-18.92,1.48-28.31,.36-2.32,.98-4.7,.3-7.24-2.04,.74-2.82,2.19-3.78,3.41-5.95,7.65-10.44,16.12-14.09,25.06-7.81,19.15-11.28,38.73-4.27,58.83,9.74,27.94,29.85,45.88,57.07,55.79,31.41,11.43,63.54,12.37,95.94,4.23,1.9-.48,3.57-1.05,5.03,1.02,3.6,5.12,8.94,7.77,14.6,9.91,14.44,5.46,29.31,5.89,44.39,3.81,2.94-.41,5.5-.73,7.69,2.29,1.61,2.22,4.61,2.96,7.41,3.36,12.49,1.79,24.99,1.67,37.49,.18,3.38-.4,6.52-1.59,9.53-3.06,7.81-3.81,9.42-7.64,8.72-16.14-.74-8.98-5.23-15.24-12.39-20-3.97-2.64-6.17-6.33-7.69-10.78-3.07-8.98-5.82-18.06-7.65-27.34-6.72-33.96-9.54-68.38-11.52-102.89-.25-4.27-.03-8.56-.03-13.38,7.83,10,10.75,11.85,16.55,10.73-.34-1.13-1.41-.84-2.16-1.09-8.56-2.86-14.77-11.82-13.91-20.75,1.38-14.36,2.83-28.72,4.6-43.03,3.83-30.87,11.86-60.91,18.45-91.22,7.61-35,14.46-69.99,10.83-106.08-.28-2.82,.93-3.16,3.22-2.96,13.56,1.19,27.1,.67,40.57-1.13,2.29-.31,2.83,.34,2.58,2.48-.42,3.62-.78,7.25-.99,10.89-2.1,36.17,3.31,71.51,12.03,106.46,5.99,24.03,12.02,48.05,18.12,72.06,.79,3.1,.68,5.19-2.39,7.36-3.77,2.67-5.71,6.99-7.39,12.13,5.76-1.96,7.6-7,11.52-10.39,.44,1.78,.79,3.01,1.05,4.26,6.91,32.44,9.35,65.14,6.32,98.24-2.85,31.07-8.44,61.47-20.95,90.26-3.77,8.67-7.46,17.37-14.29,24.34-3.46,3.53-4.51,8.39-5.24,13.22-1.64,10.95,2.91,17.55,13.77,19.33,10.36,1.71,20.82,2.63,31.33,2.92,6.02,.17,11.98-.2,17.31-3.5,1.38-.86,2.81-.47,4.25-.37,14.96,1.02,29.71-.09,44.15-4.34,6-1.77,12.67-3.91,17.61-7.92,2.08-1.69,3.8-3.84,5.33-6.2ZM255.74,497.29c.32-2.16,.98-4.39,3.26-5.15,1.69-.57,1.69,1.09,1.7,2.18,.02,2.27-1.16,3.75-3.24,4.44-1.12,.06-1.86-.48-1.72-1.48Zm-30.23-83.09c2.48-.16,4.87,.42,7.42,1.73-1.18,1.45-4.8,2.3-.55,3.63-1.96,4.79,5.01,3.24,4.7,6.94-6.08-.6-9.42-5.23-13.1-9.28-1.81-1.99-.38-2.9,1.53-3.02Zm-5.81,18.31c.25-1.9,1.14-3.72,3.19-4.15,1.54-.32,1.82,1.1,1.74,2.3-.13,1.95-.69,3.69-2.93,4.23-1.3-.27-2.16-1.14-2-2.39Zm-28.94-27.2c.08-1.77,.87-3.23,2.86-3.05,1.68,.15,2.26,1.58,2.38,3.25-.24,1.75-1.45,2.91-3.12,2.94-1.85,.03-2.18-1.63-2.11-3.14Zm-1.41,47.19c1.26,.21,2.68,.32,3,1.96,.31,1.58-.29,2.84-1.57,3.76-2.29,1.64-4.83,2.54-8.06,2.55-2.06-.2-5.03-.1-5.5-3.18-.43-2.84,2.28-3.72,4.43-4.5,2.47-.9,5.08-1.03,7.68-.59Zm-17.14,42.84c-.97-1.56-1.11-3.11,.46-3.73,1.86-.74,3.48-3.78,6.09-1.06-1,.76-1.99,1.5-2.97,2.25,0,0,0-.01,.02-.02-1.49,.24-2.38,1.38-3.59,2.57Zm3.53-2.48c1.69-.12,3.11,.28,3.86,2,.41,.95-.37,1.18-.91,1.62-.7,.57-1.58,1.24-2.24,.48-.99-1.14-1.99-2.5-.71-4.1Zm2.66-96.53c-1,0-1.99,.13-2.99,.23-1.21,.12-1.99,2.7-3.57,.69-1.41-1.8,.12-3.35,.78-4.75,.92-1.97,2.96-1.45,4.61-1.06,1.64,.38,2.76,1.48,3.11,3.21,.03,1.37-.78,1.68-1.95,1.69Zm-7.79-11.54c.07-1.22,.76-2.31,2.26-2.02,1.49,.28,2.72,1.01,2.93,2.7-.09,1.56-1.05,2.03-2.36,1.93-1.58-.13-2.94-.75-2.82-2.6Zm7.92-14.63c.88,.85,2.35,1.58,1.09,3.17-.63,.8-1.31,1.68-2.5,1.36-1.7-.47-1.91-1.49-1-2.94,.14-.23-.15-1.08-.34-1.1-8.73-1.41-11.79-10.52-18.98-14-.75-.36-1.36-1.02-2.03-1.54,8.83,3.84,16.95,8.47,23.76,15.05Zm-14.2,46.24c-1.74,1.72-4.02,2.9-6.19,4.4-.93-.42-2.35-.57-2.44-2.33-.17-3.44,3.62-6.3,7.1-5.61,2.59,.51,3.43,1.66,1.53,3.53Zm-10.26,47.71c.36-3.53,3.68-3.48,6.02-3.97,2.33,.19,5.04-.01,4.94,2.71-.13,3.74-3.58,4.1-6.39,4.45-2.22,.27-4.88-.27-4.58-3.18Zm6.24,79.3c2.19,.66,3.06-.59,4.08-3.19,.9,3.23-.13,5.2-1.48,5.05-2.26-.25-5.05,.58-6.83-1.71-1.12-1.46-.85-3.04,.06-4.48,1-1.58,2.47-2.19,4.05-.97,1.75,1.35,.25,2.1-.76,2.95-1.85,1.55-.85,1.83,.87,2.35Zm-69.27-55.49c11.46-6.86,42.27-17.89,51.37-18.41-2.73,4.5-35.4,16.21-51.37,18.41Zm101.42,45.7c-11.37,12.66-22.77,25.28-34.22,37.87-7.83,8.61-14.95,17.8-21.96,27.33,1.44-8.29,48.06-65.79,58.84-70.03,0,2.2-1.47,3.51-2.66,4.83Zm4.09-115.8c-.99,.33-1.94-1.14-1.57-2.08,.79-2.01,1.92-4.15,4.15-4.71,1.7-.43,1.26,1.47,1.59,2.38-.01,2.83-2.18,3.74-4.17,4.41Zm1.72-30.63c-.61-1.04-1.48-2.28-.79-3.17,1.02-1.33,2.39-.2,3.48,.39,4.56,2.45,5.02,4.48,1.97,8.26-.79-2.46-3.42-3.35-4.66-5.47Zm11.46,12.79c-2.31-2.38-4.53-4.85-6.79-7.28,0,0,0,0,0-.01,4.11-.45,8.44-1.75,11.69,2.28-.91,1.88-2.61-.29-3.58,1.07,1.67,1.22,3.71-.16,5.38,.83,.43,1.93-1.77,.97-2.3,2.14,.7,.15,1.36,.34,2.03,.41,1.97,.19,2.44,1.55,2.08,3.09-.41,1.74-1.93,1.46-3.22,1.15-2.22-.54-3.78-2.13-5.29-3.68Zm6.31,120.18c-3.16,.2-4.94-.79-4.96-3.51-.01-3.09,2.23-4.22,4.85-4.38,2.53-.16,4.85,.93,4.92,3.7,.08,3.36-2.72,3.95-4.81,4.2Zm4.62,107.73c.72-7.24,3.22-13.98,5.85-20.68-.7,7.25-3.02,14.04-5.85,20.68Zm7.43-169.56c-1.67-.07-1.83-1.57-1.82-2.9,.02-1.69,.47-3.36,2.52-3.25,1.72,.09,2.23,1.55,2.18,3.15-.06,1.87-1.03,3.08-2.88,3Zm.58-15.4c-1.97,.03-2.61-1.29-2.16-2.87,.45-1.6-.05-4.29,2.71-4.1,1.7,.12,2.56,1.68,2.49,3.54-.19,1.85-.81,3.4-3.04,3.44Zm6.57,9.2c-1.75-.11-3.34-1.55-3.13-3.53,.26-2.43,2.3-3.84,4.46-3.91,1.81-.06,1.51,2.04,1.79,3.16-.75,1.9-.55,4.44-3.11,4.27Zm11.97-15.39c.3-.73,.89-1.6,1.49-1.05,1.98,1.79,4.47,3.17,5.53,5.57-.12,1.7-.95,2.32-2.29,2.41-2.89,.19-5.87-4.19-4.73-6.93Zm4.44,55.16c-1.57-.44-1.39-1.67-1.16-2.77,.28-1.34,.39-3.16,2.35-2.95,1.27,.13,2.54,1.02,2,2.65-.5,1.5-1.35,2.86-3.19,3.07Zm4.77,41.89c-2.2,.17-3.56-1.15-3.63-3.37-.07-2.51,1.22-4.26,3.8-4.3,2.3-.03,4.12,1.09,4.72,3.53-.51,2.8-2.45,3.95-4.89,4.14Zm4.09-48.45c-1.77,.09-2.56-1.29-2.42-2.92,.14-1.64,.76-3.4,2.65-3.44,1.85-.04,1.37,1.82,1.6,2.98-.13,1.43,.22,3.27-1.83,3.38Zm8.08,3.51c-.33,1.42-.4,3.19-2.2,3.33-1.59,.12-2.19-1.27-2.12-2.67,.08-1.49,.49-2.94,2.44-2.91,1.47,.02,1.99,.92,1.88,2.26Zm2.52-15.73c-4-2.52-7.2-5.78-8.3-10.62-.34-1.48,.25-2.46,1.56-2.89,1.93,.1,9.5,9.99,9.32,11.87-.17,1.73-1.13,2.55-2.58,1.64Zm2.62,27.55c-1.49-.07-1.95-1.06-1.85-2.38,.1-1.19,.43-2.56,1.71-2.7,1.9-.2,1.49,1.7,1.95,2.43,.04,1.62-.19,2.73-1.81,2.65Zm23.37,19.34c.98-.4,1.6,.42,2.2,1.02,2.99,2.95,6.38,5.67,6.15,11.23-.07,.42-.14,1.6-.46,2.7-.49,1.71-1.48,2.22-2.64,.54-2.72-3.97-4.93-8.2-6.17-12.87-.24-.91-.29-2.14,.91-2.62Zm2.55,49.21c-5.69,10.19-10.12,20.91-14,31.88-.53,1.49-1.12,2.95-1.68,4.42,2.21-13.57,4.55-26.92,11.96-38.59,1.26-1.98,2.98-5.7,5.01-4.46,2.67,1.63-.13,4.65-1.3,6.74Zm.37-21.01c-2.42,.22-2.82-1.63-2.91-3.45-.08-1.58,.5-2.86,2.42-3.09,2.07,.45,3.24,1.91,3.4,3.93,.14,1.82-1.43,2.48-2.91,2.61Zm6,6.71c-1.62-.11-2.31-1.27-2.28-2.64,.03-1.52,1.23-2.17,2.65-2.41,1.61,.19,2.16,1.25,2.09,2.72-.07,1.54-.84,2.44-2.47,2.33Zm-148.35,211.24c1.84,.05,2.85,1.26,2.91,3.16-.18,1.86-1.21,3.01-3.08,2.97-1.85-.04-2.99-1.11-2.85-3.08,.13-1.83,1.14-3.1,3.02-3.05Zm-18.05-15.15c2.41,4.85,3.89,9.8,4.07,15.08,.05,1.36-.14,2.73-1.91,2.88-1.46,.13-2.69-.48-2.99-1.96-1.09-5.37-1.83-10.76,.83-16Zm2.13,28.64c-1.79-.38-2.93-1.37-2.75-3.26,.16-1.71,1.06-3.14,2.91-3.18,1.77-.04,3.09,.99,3,2.91-.08,1.92-1.27,3.11-3.17,3.53Zm10.99,19.23c-2.21,.1-3.36-1.53-3.48-3.64-.11-1.88,1.14-2.81,2.73-3.28,2.1,.41,3.92,1.11,3.94,3.44,.01,1.94-1.29,3.4-3.18,3.48Zm8.6,8.72c-1.92-.26-3.87-.88-3.89-3.32-.02-2.23,1.3-3.53,3.54-3.56,2.54-.04,3.52,1.64,3.81,3.89-.23,2.06-1.32,3.28-3.45,2.99Zm9.07,9.89c-1.63-.16-2.82-1.15-2.43-2.9,.37-1.64,.87-3.61,3.23-3.32,1.97,.24,3.09,1.43,2.98,3.5-.39,2.19-1.85,2.92-3.78,2.72Zm9.74-22.84c1.62-.07,2.15,1.17,2.54,2.41-.01,1.25-.6,2.06-1.77,2.13-1.59,.09-2.4-.89-2.45-2.4-.03-1.1,.44-2.08,1.68-2.14Zm-.97,14.9c-1.62-.05-2.19-1.28-2.18-2.65,0-1.34,.85-2.09,2.24-1.98,1.43,.11,1.89,1.1,1.96,2.37-.1,1.26-.58,2.3-2.02,2.26Zm3.88,13.61c-1.42,.02-2.56-.73-2.51-2.31,.07-2,1.61-2.46,3.2-2.69,1.5,.16,2.62,.85,2.57,2.36-.06,1.96-1.59,2.61-3.26,2.63Zm29.14-8.73c1.34-.13,2.24,.69,2.35,1.98,.14,1.66-.78,2.66-2.39,2.93-1.37,.01-2.35-.42-2.35-1.91,0-1.59,.65-2.83,2.39-3Zm-11.08,6.16c-.27,1.66-1.27,2.52-2.9,2.81-1.6-.73-2.57-1.99-2.41-3.72,.15-1.63,1.6-2.01,2.94-1.95,1.69,.07,2.68,.98,2.37,2.86Zm-.48-8.74c-1.76-.54-3-1.77-3.08-3.75-.04-1.13,.75-1.54,1.73-1.2,1.68,.59,3.05,1.56,3.54,3.34-.26,1.31-1.11,1.94-2.19,1.61Zm14.49,25.93c-3.03-.15-5.61-1.42-5.5-4.86,.09-2.91,2.05-4.87,5.04-4.96,3.63-.11,4.26,2.79,4.86,5.35-.18,2.99-1.58,4.62-4.4,4.48Zm11.25-8.99c-2.07,.06-3.2-1.27-3.38-3.25-.14-1.48,.58-2.51,2.23-2.79,1.69,.34,2.88,1.34,3.03,3.14,.11,1.33-.12,2.84-1.87,2.9Zm-.56-11.5c.03-1.62,1.26-2.19,2.68-2.09,1.45,.11,2.37,.95,2.32,2.53-.05,1.57-.98,2.28-2.52,2.43-1.67-.19-2.51-1.27-2.48-2.87Zm7.1,20.61c-1.93,.01-2.89-1.34-2.84-3.16,.07-2.14,1.67-3.04,3.51-3.16,2.01-.13,2.76,1.24,2.75,3.15-.19,2.05-1.46,3.15-3.43,3.17Zm11.18-12.89c-1.15-.06-1.88-.86-1.78-2.03,.09-1.07,.76-1.83,1.74-2.05,1.31,.15,2.13,.79,2.16,1.92,.04,1.31-.73,2.24-2.13,2.16Zm49.69-60.2c.17,1.85-.68,2.69-2.18,2.78-2.22,.13-3.57-1.05-3.78-3.21-.16-1.75,.99-2.66,2.66-2.65,2.11,0,2.88,1.54,3.3,3.08Zm-6.54-13.5c-2.85-.14-4.89-1.8-5-4.99-.08-2.47,1.35-3.66,3.68-4.1,2.88,.39,4.94,1.83,5.2,4.88,.23,2.62-1.38,4.33-3.88,4.21Zm-6.99-21.81c-2.52-.23-4.27-1.47-4.53-3.95-.25-2.46,1.43-3.78,3.67-3.97,2.21-.18,4.17,.73,4.33,3.24,.16,2.38-.92,4.2-3.48,4.68Zm9.49-32.62c.14,3-2.71,5.66-6.34,5.71-2.52-.3-5.12-1.56-4.97-4.63,.18-3.54,3.07-5.2,6.39-5.41,2.83-.18,4.78,1.25,4.92,4.33Zm-10.43-19.79c2.15-.19,3.62,.83,3.86,3.11-.19,2.35-1.17,4.07-3.66,4.09-2.34,.02-3.93-1.34-3.96-3.73-.03-2.29,1.73-3.3,3.76-3.48Zm-20.49,9.12c1.98-.07,3,.91,3.21,2.5,.24,1.82-.95,2.66-2.62,2.66-1.61,0-2.85-.92-3.07-2.52-.25-1.84,1.13-2.44,2.47-2.65Zm1.66,14.08c3.07,.17,5.31,1.25,5.46,4.5,.15,3.29-2.08,4.78-4.93,4.82-3.09,.04-5.36-1.72-5.37-5,0-3.01,2.3-4.05,4.84-4.33Zm-1.89,18.29c2.63,.15,4.3,1.42,4.48,3.97,.2,2.79-1.47,4.48-4.13,4.61-2.78,.14-4.32-1.7-4.38-4.37-.07-2.62,1.74-3.79,4.04-4.2Zm-10.58-23.96c1.18-.01,1.91,.8,1.76,2-.18,1.46-1.18,2.25-2.47,2.56-1.28,.12-1.63-.61-1.64-1.58-.02-1.61,.47-2.96,2.35-2.98Zm.57,14.97c2.73-.13,4.2,1.5,4.72,4.13-.54,2.48-1.82,4.27-4.61,4.21-2.54-.06-4.13-1.52-4.09-4.07,.04-2.42,1.41-4.15,3.98-4.28Zm-3.15,24.04c-.1-2.49,1.34-3.64,3.42-3.92,2.81,.15,4.4,1.45,4.61,3.96,.21,2.58-1.65,3.69-3.8,3.83-2.5,.16-4.12-1.23-4.22-3.88Zm8.75,20.82c-1.48,.07-1.9-1.19-1.96-2.32-.09-1.56,.51-2.89,2.36-2.84,1.33,.04,2.5,.57,2.69,2.19-.34,1.7-1.28,2.88-3.09,2.97Zm3.67-13.81c.01-3.15,1.91-4.77,4.94-4.85,2.75-.07,4.96,.99,4.92,4.16-.04,3.25-2.38,4.31-5.22,4.77-2.37-.42-4.65-1.08-4.64-4.09Zm7.28,21.17c-2.32-.01-4.15-.87-4.14-3.42,0-3.27,2.12-5.13,5.16-5.44,2.43-.25,4.38,1.19,4.37,3.79-.01,3.33-2.21,4.83-5.38,5.07Zm2.31,10.82c.07-3.06,1.86-4.35,4.63-4.46,3.02,.19,5.37,1.15,5.25,4.56-.11,3.12-2.07,4.71-5.1,4.75-3.15,.04-4.85-1.62-4.78-4.84Zm17.75,14.41c-.27,2.05-1.66,4.08-4.82,4.1-2.9,.02-4.59-1.63-4.76-4.54-.15-2.63,2.73-5.22,5.48-4.98,2.69,.23,4.24,1.67,4.09,5.42Zm5.14,16.7c-2.64,.08-4.1-1.5-4.07-4.03,.04-2.5,1.6-3.91,3.96-4.16,2.61,.13,3.92,1.51,3.94,3.87,.02,2.47-1.15,4.24-3.83,4.32Zm117.71,37.64c1.3,4.93,1.55,9.68,1.01,14.48-2.93-4.01-3.18-9.98-1.01-14.48Zm-21.12-35.59c.08-1.38,.96-2.44,2.52-2.58,1.31-.12,2.33,.47,2.82,1.64,2.74,6.45,3.2,13.01,.85,20.87-4.77-6.59-6.58-12.92-6.19-19.93Zm-14.27-198.28c2.35,.37,3.42,2.34,2.86,4.56-.81,3.18-2.05,6.24-3.53,10.63-1.65-4.57-2.68-7.96-2.61-11.58,.04-2.07,.82-3.99,3.28-3.6Zm3.19,140.12c-.06,2.01-1.33,2.5-2.91,2.46-2.38-.06-2.66-2.1-2.84-3.69-.16-1.41,.63-3.15,2.31-3.07,2.51,.13,2.8,2.5,3.44,4.3Zm-6.74-105.84c.96-.44,2.02-.41,2.83,.41,1.09,1.11,.75,2.45,.32,3.68-.85,2.44-1.81,4.83-2.79,7.41-1.37-2.56-1.41-5.22-1.84-7.77-.25-1.47-.13-2.99,1.48-3.74Zm-7.79-55.46c.19-2.2,.74-4.69,3.64-4.32,2.77,.36,3.02,2.89,2.73,5.08-.39,2.92-2.63,4.98-4.16,8.4-1.46-3.51-2.47-6.22-2.21-9.16Zm3.87,110.69c1.69,.04,1.61,2,1.99,3.2-.02,1.5-.66,2.29-2.09,2.06-1.24-.2-2.17-.89-1.9-2.31,.24-1.26,.75-2.98,2.01-2.95Zm-5.7-49.16c-.02,1.6-.78,2.9-2.51,2.93-1.65,.03-2.7-1.12-2.77-2.73-.08-1.8,1.48-2.23,2.59-2.82,1.55,.44,2.71,1.05,2.69,2.62Zm-4.89-27.79c2.48-.03,3.4,1.68,3.22,4.16-.23,3.31-2.16,5.88-3.44,9.68-1.89-3.8-2.51-6.76-2.73-9.8-.16-2.1,.65-4.01,2.95-4.04Zm-12.66,38.43c2.43-.11,2.92,1.91,3.53,3.44,.24,2.06-.91,2.42-2.37,2.46-1.98,.05-3.41-.58-3.48-2.86-.05-1.66,.54-2.96,2.32-3.04Zm-1.13,50.52c1.72,.43,2.08,1.66,2.07,3.25,0,1.39-.56,2.31-1.94,2.19-1.89-.17-2.02-1.8-2.05-3.22-.03-1.18,.31-2.32,1.92-2.21Zm-33.17-4.58c-.24,2.45-1.44,4.31-3.96,4.29-2.85-.02-4.41-1.98-4.57-4.76-.15-2.6,1.42-4.19,3.89-4.19,2.84,0,4.41,1.79,4.64,4.66Zm-3.46-19.49c-.27,2.21-1.68,2.96-3.62,2.8-1.93-.16-3.29-1.12-3.18-3.27,.12-2.19,1.61-2.91,3.55-2.8,2.02,.11,3.04,1.35,3.25,3.27Zm-5.18-16.85c2.13,0,3.56,1.03,3.72,3.04,.04,2.51-1.38,3.44-3.25,3.62-2.34,.22-3.42-1.26-3.59-3.41-.18-2.17,1.08-3.26,3.12-3.26Zm-.21,115.77c-2.29-.49-4.33-1.37-4.15-4.12,.16-2.37,1.85-3.57,4.12-3.61,2.62-.05,4.02,1.45,4.01,4.05-.01,2.56-1.8,3.38-3.99,3.68Zm4.08-59.45c.02-2.75,1.72-4.12,4.04-4.21,3.17,.11,4.82,1.55,4.76,4.31-.05,2.72-1.36,4.9-4.4,4.81-2.9-.09-4.42-2.1-4.41-4.9Zm6.03,27.19c-2.83,.05-4.14-1.93-4.15-4.52-.01-2.79,1.83-4.24,4.45-4.24,2.78,0,4.1,1.74,4.15,4.43-.13,2.9-1.86,4.29-4.45,4.34Zm5.14,13.71c.01-2.66,1.92-3.84,4.36-3.79,2.61,.06,3.97,1.82,3.97,4.27,0,2.66-1.78,3.76-4.37,3.75-2.59-.19-3.98-1.77-3.96-4.23Zm14.77,79.02c-.48-.01-.95-.03-1.43-.04-.35-11.44-.14-22.87,1.43-33.67v33.71Zm-3.7-54.86c-2.49-.27-4.34-1.17-4.44-3.93-.09-2.61,1.34-4.32,3.81-4.44,2.4-.11,4.16,1.29,4.36,3.93,.21,2.69-1.37,3.95-3.73,4.44Zm-9.72-100.05c10.56,32.56,20.83,64.22,30.85,95.11-6.31-7.27-29.18-76.47-30.85-95.11Zm24.54,138.35c1.76-6.57,4.8-12.55,8.49-18.23-1.5,6.68-5.11,12.4-8.49,18.23Zm8.3-136.46c-1.38-.12-2.61-.73-2.53-2.29,.07-1.27,.68-2.76,2.07-2.9,1.98-.21,1.83,1.72,2.27,2.91,.02,1.33-.22,2.42-1.82,2.28Zm2.22-18.92c-1.59,.04-2.51-.9-2.14-2.47,.42-1.78-.38-4.6,2.48-4.74,2.16-.11,2.37,2.09,2.64,3.63,.04,2.22-.84,3.54-2.98,3.59Zm3.9,25.1c1.58,2.23,4.13,4.18,2.62,7.16-.59,1.17-2.71,1.27-3.54,.37-2.37-2.56-.11-4.98,.91-7.52Zm-1.23,25.15c.33-1.36,.68-3.22,2.23-3.41,1.44-.18,2.18,1.38,2.21,2.75,.04,1.79-1.46,1.89-2.68,2.07-1.09,.03-2.03-.29-1.76-1.41Zm4.55,128.75c-1.98-6.75-.75-13.24,1.53-19.64-.51,6.55-1.02,13.09-1.53,19.64Zm-.79-122.01c-.05-1.37,.84-2.19,2.14-2.25,1.41-.07,2.05,.93,2.16,2.22,.11,1.31-.44,2.23-1.77,2.5-1.6-.11-2.48-.97-2.53-2.47Zm2.74,11.59c0-1.27,.92-1.99,2.09-2.26,1.81,.35,2.3,1.67,2.47,3.13,.14,1.17-.41,2.05-1.7,1.78-1.41-.3-2.86-.89-2.86-2.65Zm7.66,28.19c-1.04,1.48-3.78,1.47-4.58-.13-1.65-3.29,.65-5.87,2.84-8.91,1.35,3.29,3.96,5.87,1.74,9.04Zm-.54-95.41c-1.88,.15-2.3-1.43-2.49-2.95-.11-.86-.14-1.73-.21-2.6,.09-.87,.1-1.76,.29-2.6,.18-.78,.04-1.89,1.22-2,.85-.08,1.19,.72,1.55,1.32,.99,1.63,1.67,3.38,1.88,5.29,.19,1.78-.21,3.37-2.24,3.54Zm2.36,47.65c.43-1.49,.73-3.06,2.22-4.4,1.38,1.67,1.33,3.41,1.06,5.1-.15,.94,.16,2.7-1.6,2.3-1.29-.29-2.14-1.44-1.69-3Zm3.57,57.43c2.5,.01,3.36,1.89,3.81,4.08-.2,1.81-.86,3.7-2.97,3.51-2.26-.21-3.36-2.2-3.54-4.36-.15-1.77,.75-3.24,2.7-3.23Zm2.69,40.02c-3.2,.23-3.91-3.44-4.44-6.11-.36-1.82-.25-3.77-.09-5.64,.15-1.82,.87-3.57,3.03-3.67,2.01-.09,3.23,1.3,3.76,3.09,.53,1.8,.76,3.69,1.06,5.24-.54,2.96,.16,6.83-3.32,7.09Zm7.66,21.8c.57,4.88,1.17,9.75,1.69,14.64,.08,.78,.35,1.97-.77,2.19-1.39,.28-1.6-1.01-1.74-1.96-.75-4.9-.79-9.81,.83-14.87Zm1.52-265.28c-.64,2.15-.62,5.13-2.85,5.9-1.45,.5-1.19-2.05-1.48-3.34,.25-1.95-.06-4.29,2.78-4.57,1.28-.13,1.87,.89,1.54,2Zm4.95-33.53c-1.48,2.81-3.15,5.51-4.75,8.26-1.11-3.59-1.32-7.02,.08-10.29,.63-1.48,1.79-3.09,3.63-2.18,1.56,.78,1.87,2.63,1.04,4.22Zm174.61-203.5c-1.9-4.29-2-8.78-1.4-13.34,2.16,4.25,2.1,8.74,1.4,13.34Zm9.34-12.21c1.37,4.15,.83,8.42,1.03,13.84-1.66-5.3-1.57-9.55-1.03-13.84Zm35.32-162.78c-.3,3.14-3.04,3.7-5.43,4.06-2.15,.32-3.83-1.01-3.71-3.28,.18-3.19,2.64-4.2,4.98-4.67,2.83,.21,4.39,1.4,4.15,3.89Zm-12.92-26.14c-2.38-.13-4.25-1.36-4.05-4.12,.2-2.72,1.85-4.26,4.58-4.18,2.49,.07,3.41,1.83,3.61,4.11-.55,2.24-1.42,4.34-4.15,4.19Zm.9,14.13c-.12,2.17-1.74,2.75-3.63,2.92-2.08-.34-3.58-1.45-3.45-3.65,.14-2.21,1.81-3.24,3.9-3.11,2.24,.14,3.29,1.69,3.17,3.83Zm15.86-1.29c-2.61,.02-3.85-1.74-3.93-4.25-.08-2.48,1.28-3.87,3.69-3.84,2.4,.03,3.67,1.47,3.66,3.93-.04,2.28-.89,4.14-3.41,4.17Zm6.65-16.43c-2.8,.13-4.39-1.41-4.38-4.21,0-2.57,1.54-4.14,4.02-4.24,2.55-.1,4.04,1.34,4.04,4.04,.06,2.55-.99,4.3-3.68,4.42Zm5.42-17c-2.09-.33-3.62-1.44-3.6-3.63,.02-2.2,1.59-3.46,3.68-3.5,1.97-.04,3.28,1.1,3.26,3.25-.02,2.19-1.13,3.51-3.34,3.89Zm12.22-80.52c.19,3.55-.78,5.29-3.53,5.37-2.54,.08-4.31-1.32-4.35-3.81-.04-2.66,1.35-4.9,4.3-5,2.79-.1,3.45,2.11,3.58,3.44Zm-.27,18.06c-.5,2.14-.25,5.16-3.75,5.23-2.96,.06-4.54-1.83-4.66-4.7-.13-3.01,1.64-4.56,4.51-4.81,2.9-.26,3.78,1.58,3.9,4.28Zm-5.93-39.73c2.44,.1,3.39,1.88,3.75,4.09-.33,2.13-1.51,3.6-3.7,3.48-2.37-.13-4.28-1.41-4.19-4.05,.08-2.41,1.82-3.62,4.13-3.52Zm.71,62.75c2.71-.01,3.99,1.73,4,4.13,0,2.79-1.85,4.02-4.55,4.06-2.58-.24-4.54-1.3-4.49-4.19,.05-3.22,2.36-3.99,5.05-4Zm-4.45,16.71c1.67,.15,3.97,.26,3.7,2.65-.16,1.45,.08,4.58-3.17,3.02-2.58,.6-4.33-.19-4.45-2.8-.12-2.58,1.91-3.06,3.92-2.87Zm-8.73-72.26c2.18-.06,3.28,1.68,3.39,3.83,.15,2.92-2.31,5.65-4.93,5.58-2.42-.07-3.29-1.5-3.32-3.95,.45-2.67,1.43-5.36,4.86-5.46Zm-1.23,16.32c2.62-.14,3.44,1.69,3.48,3.7-.12,2.81-1.14,4.55-3.89,4.57-2.42,.01-3.94-1.32-3.91-3.73,.02-2.68,1.64-4.39,4.32-4.54Zm.54,25.31c3.23,.38,5.4,2.59,5.54,5.68,.15,3.21-2.14,4.85-4.84,4.9-3.99-.05-6.74-2.48-6.7-5.44,.04-2.56,3.19-5.47,5.99-5.14Zm-2.56,29.17c-.01,2.62-1.98,3.87-4.39,3.92-2.63,.05-4.49-1.19-4.64-4.11-.16-2.99,1.77-4.02,4.09-4.53,3.05,.32,4.96,1.79,4.94,4.71Zm-9.88-41.99c2.37,.02,3.58,1.69,3.62,4.31-.12,2.73-1.64,4.42-4.59,4.52-2.27,.08-3.85-1.36-3.63-3.45,.26-2.6,1.24-5.4,4.61-5.37Zm-2.33,19.97c2.58,.18,3.44,2.24,4.08,4.25-.63,2.08-1.44,3.87-3.76,3.7-2.72-.2-4.17-1.91-4.04-4.63,.1-2.22,1.56-3.48,3.72-3.32Zm1.3,38.23c3.63,.03,6.47,2.57,6.43,5.75-.04,3.27-2.88,5.81-6.41,5.73-3.8-.08-6.7-2.41-6.78-5.44-.08-3.17,3.17-6.07,6.76-6.04Zm-6.26-10.13c-.07,2.41-1.18,4.17-3.94,4.44-2.15-.51-3.76-1.65-3.65-4.11,.11-2.56,1.61-4.04,4.21-4.03,2.34,.01,3.44,1.53,3.38,3.7Zm-6.6-19.42c2.03,0,2.89,1.57,3.46,3.34-.3,2.13-1.91,2.7-3.68,2.88-1.84,.19-3.17-.63-3.18-2.61-.01-2.15,1.17-3.61,3.39-3.62Zm-8.7,26.9c2.13-.06,3.58,1.12,3.47,3.46-.12,2.37-1.55,3.57-3.6,3.86-2.44-.28-3.75-1.58-3.81-3.68-.08-2.5,1.76-3.58,3.94-3.64Zm-1.39,16.57c2.96-.07,2.49,2.55,2.8,4.24,.17,1.85-.23,3.28-2.18,3.09-2.1-.2-4.13-1.11-4.12-3.58,0-2.04,1.43-3.69,3.5-3.74Zm3.44,19.35c.05,2.05-.99,3.24-3.09,3.5-1.96-.1-3.35-.98-3.4-3.1-.06-2.21,1.17-3.61,3.37-3.73,2.17-.12,3.07,1.33,3.12,3.33Zm-13.32-25.9c1.48-.27,1.85,.97,2.15,2.11-.07,1.24-.52,2.34-1.83,2.52-1.39,.2-2.11-.82-2.13-2.07-.01-1.17,.55-2.34,1.8-2.57Zm-8.1,14.86c.29-1.15,.44-3.19,2.48-3,1.98,.19,3.05,1.45,3.07,3.55-.26,1.27-.74,2.97-2.23,2.44-1.29-.46-3.95-.48-3.32-2.99Zm-12.62,69.46c-5.71,.18-10.45,1.94-12.92,7.74-1.34-6.97,3.91-10.06,12.92-7.74Zm-26.67-57.91c1.85,.1,3.39,.95,3.46,3.08,.05,1.57-.81,2.65-2.23,3.17-2.06-.6-3.6-1.53-3.85-3.71-.22-1.92,1.02-2.63,2.62-2.54Zm-8.32,13.86c-.17,2.58-1.83,4-4.35,3.85-2.68-.16-4.22-1.78-4.17-4.58,.05-2.64,1.77-3.4,3.9-3.46,2.69,.29,4.82,1.13,4.62,4.19Zm-5.69-19.09c2.18-.14,3.16,1.32,3.15,3.3,0,2-1.1,3.23-3.33,3.35-1.56-.25-3.15-.72-3.11-2.78,.03-2.08,1.02-3.73,3.29-3.88Zm-10.88-5.96c1.58-.1,2.21,1.04,2.46,2.44-.06,1.12-.41,2.02-1.76,1.9-1.17-.11-2.46-.37-2.51-1.81-.05-1.15,.37-2.43,1.81-2.52Zm-.55,13.24c2.59,.1,3.89,1.58,3.67,4.63-.43,2.06-1.5,4.3-4.3,3.96-2.57-.31-3.85-2.61-3.84-5.04,.01-2.67,2.07-3.64,4.47-3.55Zm-4.27,28.64c1.37-3.27,3.76-5.93,7.01-7.37,2.41-1.07,4.24-.1,4.42,2.29,.07,3.55-4.72,9.24-7.71,9.72-2.81,.45-4.86-1.9-3.72-4.64Zm-.12,108.79c2.25-15.21,7.08-29.46,16.05-42.02,18.49-25.9,58.96-27.48,79.64-3.28,6.25,7.31,10.7,15.54,13.08,24.89,4.91,19.32-.17,33.08-16.72,44.23-13.74,9.26-29.28,12.48-42.93,13.01-11.43,.03-20.1-1.08-28.34-4.24-18.5-7.1-23.04-17.24-20.77-32.58Zm-9.87-97.23c-.05-1.89,1.33-3.07,3.08-2.85,2.81,.35,4,2.48,4.43,5.09-.32,1.75-1.18,3.33-3.05,2.89-2.51-.59-4.39-2.32-4.46-5.14Zm.24,14.28c-.33,2.42-1.81,4.15-4.31,4.09-2.91-.06-2.66-2.49-2.7-4.54-.04-2.73,1.84-2.89,3.81-2.89,1.95,.31,3.51,1.08,3.2,3.34Zm3.47-63.87c2.06,.06,3.23,1.4,3.37,3.3,.16,2.1-1.25,3.07-3.23,3.31-2.15-.21-3.64-1.23-3.57-3.53,.06-2.05,1.38-3.15,3.43-3.09Zm-.82,18.78c2.64,.21,4.1,1.83,4.02,4.38-.43,2.5-1.18,4.63-3.97,4.42-3.02-.23-4.13-2.5-4.01-5.15,.1-2.24,1.58-3.84,3.96-3.66Zm-7.07-26.58c2.1-.46,3.9-.35,4.18,1.99,.14,1.19-1.11,1.67-2.2,1.49-1.94-.32-4.66-.2-4.9-2.62-.19-1.97,2.04-.55,2.92-.85Zm-1.49,15.44c2.52,.06,2.93,2.3,3.46,4.18-.28,1.96-.99,3.47-3.22,3.29-2.29-.19-3.82-1.49-3.75-3.86,.06-2.06,1.36-3.66,3.5-3.61Zm-2.06,33.4c.09,3.03-2.8,6.1-5.77,5.97-2.46-.11-4.38-1.28-4.32-3.94,.08-3.47,2.39-5.2,5.63-5.54,2.45-.26,4.33,.64,4.46,3.52Zm-7.84-45.43c1.7-.11,5.45,4.71,5.38,6.87-.08,2.31-1.7,3.37-3.71,3.52-2.02,.15-3.51-2.84-3.55-6.88,.44-1.15-.67-3.34,1.87-3.51Zm-2.95,27.12c.25-2.19,.98-5.88,2.88-5.56,3.04,.52,3.27,4.29,3.67,6.18,.32,3.34-1.14,4.07-3.12,3.95-2.8-.18-3.69-2.27-3.43-4.57Zm.98,36.73c1.49,0,2.25,.82,2.41,2.11,.2,1.6-.68,2.56-2.24,2.57-1.43,.01-1.97-1.13-2.11-2.36-.16-1.42,.67-2.13,1.94-2.32Zm1.48,13.83c2.63,.09,3.99,1.61,4.1,4.15,.13,3.12-4.59,7.51-7.93,7.6-2.31,.06-2.51-1.47-2.6-2.58-.09-4.86,3.19-9.27,6.43-9.17Zm-9.79-23.58c1.45,.12,3.02,.34,2.72,2.4-.24,1.59-1.42,2.35-2.81,2.76-1.58-.59-2.5-1.66-2.54-3.2-.05-1.73,1.24-2.08,2.64-1.97Zm-5.39-10.37c-1.21,.07-1.9-.54-1.83-1.8,.09-1.71,.65-3.15,2.58-3.41,1.49-.2,2.46,.51,2.77,2.08-.45,1.83-1.53,3.01-3.52,3.13Zm-.32-11.26c-2.94-.29-3.25-2.47-3.08-4.78,.17-2.22,1.17-4.28,3.61-3.98,2.93,.36,3.67,2.86,3.74,4.83-.3,3.3-1.96,4.15-4.28,3.93Zm-.56,36.51c2.96-.21,2.93,2.57,3.22,4.66-.36,3.19-1.25,7.01-4.35,7.29-3.01,.27-3.8-3.56-3.78-6.28,.02-3.02,1.84-5.45,4.92-5.66Zm1,24.48c2.03,.13,2.83,1.07,2.68,3.06-.33,4.3-4.56,9.43-7.78,9.28-2.87-.13-4.07-1.82-4.01-4.15,.31-4.47,5.04-8.45,9.11-8.18Zm-5.14,55.26c3.18-.01,4.65,1.82,4.9,4.81-.37,3.01-1.85,4.92-5.02,4.82-3.23-.1-4.62-2.41-4.65-5.17-.03-2.82,1.86-4.44,4.77-4.45Zm-4.2-23.98c-2.83,.11-5.5-1.04-5.39-4.36,.11-3.32,2.63-5.23,5.69-5.66,3.04-.42,4.33,1.78,4.82,4.4-.33,3.26-1.86,5.48-5.13,5.61Zm7.12,14.87c.07-2.85,1.86-4.66,4.77-4.6,2.46,.05,4.2,1.45,4.06,4.15-.15,2.91-1.88,4.44-4.28,4.57-3.3,.04-4.6-1.68-4.54-4.12Zm-6.23-157.99c-1.82-.08-2.6-1.17-2.35-2.87,.2-1.4,.48-3.23,2.29-3.15,1.98,.09,2.08,2.03,2.37,3.44-.06,1.63-.62,2.67-2.31,2.59Zm1.86,52.46c-.1,1.94-1.48,2.65-3.34,2.78-1.44,0-2.48-.56-2.3-2.27,.19-1.81,1.17-2.99,3.09-2.86,1.36,.1,2.64,.71,2.55,2.35Zm-3.24-43.72c2.67-.09,2.37,3.02,2.97,4.48-.08,2.56-.64,4.38-3.11,4.28-2.42-.1-2.45-2.19-2.38-3.87,.08-1.98,.35-4.82,2.52-4.89Zm-1.33,21.61c3.41,1.49,3.5,5.06,3.57,8.14,.07,2.86-1.47,5.11-4.71,5.04-2.76-.07-4.12-1.78-4.06-3.93,.22-4.66,3.37-10.05,5.2-9.25Zm-3.39,37.88c.58-1.17,1.38-2.39,2.85-2.4,1.53-.01,2.24,1.3,2.69,2.51,1.1,3,1.71,6.13,2.04,9.48-.48,2.93-.91,6.22-4.98,6.29-4.05,.06-4.39-3.15-4.42-6.14-.04-3.34,.32-6.68,1.83-9.74Zm-.38,29.26c2.99,.22,4.02,2.85,4.95,5.09-.15,2.19-.89,3.68-3.14,3.47-2.97-.27-4.72-2.09-5.12-4.97-.32-2.33,1.25-3.75,3.3-3.6Zm-5.19-70.6c-2.59-.18-3.06-2.28-3.32-4.39,.18-1.62,.37-3.81,2.24-3.66,2.43,.19,4.23,2.18,4.33,4.69,.07,1.75-1.08,3.51-3.25,3.36Zm-2.03,21.99c1.27,5.24,1.19,9.85-2.35,13.75-1.24,1.37-3.13,2.73-4.99,1.45-1.52-1.05-.85-3.03-.17-4.44,1.86-3.84,3.43-7.94,7.51-10.76Zm1.59,41.46c.13,1.86-1.25,3.03-3.01,2.98-2.12-.06-4.09-.97-4.15-3.48-.04-1.75,1.09-2.91,3.08-3.21,1.77,.68,3.91,1.28,4.08,3.71Zm-6.34,21.34c3.6,.1,8.03,3.69,9.01,7.25,.51,1.84,.3,3.55-1.21,4.76-1.67,1.34-3.56,1.17-5.26-.04-2.54-1.82-4.26-4.37-5.66-7.09-1.71-3.31-.56-4.99,3.11-4.88Zm-4.13,61.92c2.28-.16,3.21,1.57,3.73,3.67-.54,2.49-2.44,3.88-4.77,4.27-2.14,.35-3.06-1.38-3.08-3.3-.04-2.7,1.41-4.45,4.12-4.63Zm-4.29-34.19c.01-2.84,3.53-5.61,7.12-5.48,2.07,.28,3.91,1.22,3.94,3.98,.03,2.79-3.88,6.25-6.93,6.1-2.86-.14-4.14-1.9-4.13-4.6Zm6.75,20.26c-2.8-.22-4.64-1.72-4.59-4.68,.06-3.37,2.52-4.44,5.4-4.33,2.6,.1,4.6,1.54,4.49,4.34-.12,3.09-2.08,4.66-5.31,4.67Zm-5.04-58.61c-2.4-.15-3.58-1.72-3.7-3.95-.11-2.15,1.07-3.59,3.36-3.73,2.44-.15,3.93,1.04,4,3.51,.06,2.34-1.17,3.81-3.66,4.17Zm-2.92,60.55c-.02,1.8-1.02,2.97-2.83,3.11-1.86,.14-3.09-1.09-3.24-2.81-.16-1.82,1.15-2.99,2.9-3.16,1.85-.19,2.96,.87,3.17,2.86Zm-3.92-35.11c-2.43-.27-4.97-1.21-5.06-4.37-.04-1.37,1.34-3.22,2.2-2.44,1.77,1.61,5.99-1.3,5.8,3.73-.16,1.41-.81,3.33-2.94,3.09Zm-1.89-41.5c-.18,1.66-.52,3.85-2.54,4-2.26,.16-3.05-1.9-3.18-3.82-.12-1.8,.96-2.91,2.87-3.13,1.8,.13,3.05,1.05,2.85,2.95Zm-2.06,54.91c2.41,.2,4.24,1.31,4.35,4.17,.1,2.79-1.75,3.86-4.13,4.01-2.58,.16-4.12-1.29-4.2-3.87-.08-2.48,1.04-4.16,3.98-4.31Zm-.02,77.91c2.69-2.87,5.99-4.86,10.03-4.17,3.1,.53,3.68,3.37,3.96,6.06,.23,2.16,.36,4.34,.58,7.13-.26,2.14-.55,4.88-.94,7.6-.34,2.4-1.68,2.99-3.63,1.62-4.29-3.04-8.09-6.64-10.98-11.06-1.66-2.54-.99-5.09,.97-7.18Zm13.51-24.98c.02-3.02,2.32-3.77,4.83-3.87,2.19-.09,4.5,.49,4.54,3,.05,3.07-2.52,3.87-4.67,4.15-2.75,.02-4.72-.65-4.7-3.28Zm6.43-19.32c.17-2.25,1.18-3.97,3.74-3.89,2.45,.08,4.31,1.18,4.21,3.93-.1,2.66-2.04,3.6-4.36,4.01-2.37-.34-3.78-1.57-3.59-4.05Zm6.84-16.58c-.1-2.88,2.01-3.85,4.29-4.45,2.12,.29,3.89,.96,3.86,3.35-.03,2.93-1.86,4.58-4.61,4.7-2.14,.09-3.47-1.48-3.54-3.6Zm7,35.22c.17-3.28,1.75-5.55,5.33-5.47,2.54,.05,3.94,1.54,3.82,4.22-.05,2.78-3.14,6.28-5.62,6.16-3.1-.15-3.66-2.44-3.53-4.9Zm7.18,22.86c.2-1.29,1.26-1.97,2.46-2.17,3.74-.64,7.03,.64,9.44,3.33,2,2.24,1.74,5.24,.42,7.8-2.8,5.41-6.9,9.86-11.48,15.11-1.89-8.58-2.03-16.29-.83-24.06Zm12.49-71.8c-2.82-.13-5.05-1.71-5.61-4.45-.48-2.35,1.69-2.99,3.56-3.46,2.99,.21,4.37,1.98,4.66,4.74,.19,1.86-.65,3.26-2.6,3.17Zm2.13-20.68c-.02-2.49,1.97-3.58,3.99-3.6,1.99-.02,1.95,2.07,2.26,3.48-.12,2.1-1.07,3.42-3.13,3.47-2.14,.05-3.11-1.5-3.12-3.35Zm-3.08-95.99c-.39,2.81-1.07,5.56-4.63,5.73-2.39,.11-4.29-.94-4.4-3.72-.07-1.87,4.43-6.96,6.09-6.74,2.67,.36,2.63,2.65,2.94,4.73Zm-6.1-22.44c0,1.51-.96,2.48-2.47,2.28-1.48-.2-1.52-1.5-1.36-2.7,.25-1.89,1.12-3.5,2.44-5.24,1.42,1.93,1.4,3.82,1.39,5.66Zm-2.63-22.5c-.44,1.7,.35,4.3-2.4,4.37-1.98,.05-2.34-1.87-2.25-3.57,.12-2.09,.57-4.73,2.7-4.9,2.05-.17,1.62,2.51,1.95,4.1Zm-.91-19.79c-.52,2.66-.61,5.85-4.28,6.08-2.38,.15-3.2-1.83-2.91-3.94,.41-3.03,1.66-6.02,4.9-6.44,2.8-.36,1.98,2.53,2.29,4.3Zm-3.79-13c.11,2.81-1.56,4.73-4.4,4.98-2.34,.2-2.77-1.59-2.67-3.66,1.04-2.97-.87-8.15,3.35-8.68,2.8-.35,3.61,4.33,3.72,7.36Zm-7.81-22.7c.02-.29,.03-.6,.14-.86,.91-2,.26-5.89,2.92-5.59,2.96,.34,3.09,4.07,3.44,6.72-.45,2.53-.48,5.63-3.93,5.26-3.17-.33-2.71-3.2-2.57-5.53Zm.29,46.69c.03,1.41-.65,2.31-1.97,2.35-1.52,.05-1.88-1.08-1.73-2.36,.15-1.28,.35-2.95,1.88-2.92,1.52,.02,1.59,1.73,1.82,2.93Zm-3.97-37.38c1.61-.07,2.07,1.3,2.24,2.67-.02,1.6-1.1,2.55-2.38,2.68-1.58,.15-2.24-1.19-2.17-2.63,.07-1.4,.82-2.66,2.31-2.72Zm-4.47,23.03c0-.14,.01-.3,.06-.43,.79-1.87,.21-5.44,2.5-5.27,2.48,.18,2.91,3.53,3.25,5.88-.17,2.29-.71,4.43-3.32,4.37-3-.07-2.53-2.54-2.49-4.55Zm-1.59,17.39c1.91-.17,2.67,2.96,2.96,5.11,.3,2.22-.74,3.71-2.99,3.83-2.16,.11-2.35-1.66-2.5-3.58,.6-1.79,.18-5.16,2.53-5.36Zm-2.02,17.62c3.42-.57,3.49,3.88,4.65,6.38,1.2,2.58,1.68,5.25,.5,7.98-.58,1.34-1.22,2.72-3,2.74-1.5,.02-2.28-1.07-3.06-2.14-1.55-2.12-1.37-4.67-1.76-7.53,.91-2.26-1.09-6.81,2.66-7.44Zm-6.16,20.73c.07-1.12,.15-2.66,1.67-2.55,1.53,.11,1.8,1.65,2.02,2.94-.16,1.32-.72,2.31-2.16,2.21-1.62-.11-1.61-1.46-1.53-2.6Zm-2.12,16.32c.31-1.38,.96-2.68,1.74-4.78,1.28,1.87,1.98,3.13,2.9,4.2,1.25,1.46,1.94,2.97,.87,4.74-.56,.92-1.53,1.48-2.6,.72-1.68-1.19-3.46-2.44-2.91-4.89Zm2.15,8.24c1.68,.44,2.43,1.56,2.15,3.2-.26,1.55-.62,3.46-2.59,3.39-1.61-.06-2.24-1.75-2.25-3.22-.01-1.71,.84-3.02,2.69-3.37Zm-1.7,33c2.9-.09,4.39,2.07,4.6,4.83,.2,2.66-2.72,5.66-5.2,5.4-2.63-.28-3.72-1.99-3.59-4.89,.37-2.32,.82-5.23,4.2-5.34Zm-3.96-11.75c-.05,3.06-.83,5.28-4.11,5.26-2.63-.02-4.11-1.46-3.85-4.13,.3-3.01,.62-6.97,4.15-7.16,3.27-.17,3.5,3.58,3.81,6.03Zm-8.46-39.49c2.34-.02,6.72,4.31,6.42,6.35-.46,3.07-3.07,2.94-5.41,3.18-3.06-.38-5.91-1.38-5.86-5.03,.03-2.75,2.01-4.48,4.86-4.5Zm-2.44,20.19c1.11-.05,1.77,.8,1.79,2.09-.31,1.58-1.23,2.91-2.9,3.2-.96,.17-2.12-.64-1.96-1.78,.23-1.73,.99-3.41,3.08-3.51Zm-5.41,24.37c2.79,.19,3.81,2.76,4.26,5,0,2.82-1.37,4.26-3.69,4.31-3.13,.07-4.29-2.22-4.37-4.9-.07-2.43,1.35-4.58,3.8-4.42Zm1.39,37.28c2.12-.49,2.53,1.18,2.76,2.9,.35,2.55-1.62,3.03-3.3,3.96-1.57-.59-3.57-1.31-3.58-3.09-.01-2.26,2.18-3.32,4.12-3.77Zm-11.14-11.38c-2.02,.07-3.46-.21-4.15-1.75-.76-1.72,0-3.07,1.35-4.17,2.45-1.98,5.29-2.93,8.38-3.23,1.18-.11,2.39-.1,2.96,1.2,.51,1.14,.44,2.37-.45,3.25-2.4,2.38-5.26,3.99-8.11,4.7Zm4.16-74.57c1.43-.55,1.84,.53,1.67,1.68-.26,1.73-1.21,2.93-3.03,3.16-1.55-.17-2.76-1.07-2.7-2.44,.11-2.48,2.58-1.83,4.06-2.4Zm-4.31,16.14c.29-2.38,2.05-3.61,4.26-4.24,1.97,.8,4.04,1.63,3.75,4.11-.28,2.45-1.96,3.79-4.52,3.57-2.05-.18-3.78-1.06-3.49-3.44Zm-3.11,23.9c.42-2.09,.49-5.12,3.62-4.96,2.4,.12,2.87,2.44,3.07,4.49-.19,2.38-1.44,3.96-3.75,3.92-1.88-.03-3.35-1.46-2.94-3.45Zm2.89,14.69c.73,1.81-.32,3.11-1.76,3.95-2.11,1.22-4.28,2.38-6.54,3.29-1.68,.68-3.1-.2-4.01-1.69-.78-1.26-.59-2.58,.44-3.56,2.22-2.11,4.73-3.74,7.56-4.03,1.98,.08,3.61,.31,4.31,2.04Zm-13.38-45.82c.26-2.5,2.64-3.21,4.55-3.07,1.77,.13,4.31,.91,4.16,3.34-.18,2.87-3.08,2.42-4.91,3.1-2.09-.34-4.05-.97-3.8-3.37Zm3.5,10.3c2.66-.08,4.27,1.82,4.27,3.97,0,2.1-2.06,3.28-4.38,3.53-2.43-.04-3.62-1.63-3.75-3.82-.16-2.51,1.55-3.6,3.86-3.68Zm1.48,21.38c.95,.91,1.34,2.23,.41,3.11-3.17,3.02-6.79,5.38-10.85,6.27-2.49,.03-4.14-.72-4.18-3.12-.07-4.43,2.94-6.75,6.42-8.46,3.24-1.59,5.87-.03,8.2,2.2Zm-17.15-27.34c.28-2.53,1.73-4.41,4.49-4.39,2.03,.01,3.19,1.23,2.81,3.45-.32,2.5-1.14,4.64-4.2,4.4-1.97-.16-3.32-1.44-3.09-3.46Zm-4.45,18.85c.25-5.24,.95-5.88,7.11-5.78,1.03,.02,2.09,.16,2.69,1.15,.68,1.13-.08,2.01-.79,2.69-2.11,2.03-4.36,3.92-7.4,4.36-1.32,.19-2.61,.13-1.62-2.42Zm-10.8-9.36c0-3.01,2.96-6.63,5.61-6.57,2.15,.05,4.08,.85,4.14,3.45,.04,1.85-5.77,5.94-7.99,5.86-2-.07-1.82-1.42-1.76-2.75Zm-9.62,56.64c-3.3-6.2-8.58-7.57-14.74-6.83,8.22-3.93,14.62-1.15,14.74,6.83Zm-25.45-70.03c-.19,3.33-2.69,5-5.34,5.2-3.46,.26-3.5-3.21-3.56-5.46-.08-2.86,2.44-3.52,4.82-3.81,2.39,.38,4.25,1.26,4.08,4.07Zm-11.41-19.24c2.31,.39,4.26,1.33,4.22,4.02-.04,2.5-1.03,4.83-3.93,4.68-2.6-.14-4.02-2.07-4.04-4.76-.02-2.47,1.44-3.61,3.75-3.94Zm-8.2-17.97c3.14-.08,4.34,2.33,4.91,5.13-.29,3.11-1.99,5.44-5,5.56-3.01,.13-3.89-2.56-4.02-5.2-.15-2.93,.84-5.4,4.11-5.49Zm3.49,52.13c-.32,2.62-1.03,5.86-4.16,5.48-1.9-.23-5.98,.05-5.8-3.96,.14-3.29,1.92-5.48,5.44-5.69,2.81-.17,4.42,1.15,4.52,4.17Zm-6.06-19.05c-.23,2.87-4.81,6.6-7.96,6.15-3.48-.5-5.51-2.41-4.72-6.54,.22-3.74,2.3-6.04,5.58-5.91,3.7,.14,7.34,3.37,7.11,6.3Zm-16.08,24.8c2.5,0,4.07,1.37,4.06,4.04-.17,2.47-1.44,3.93-3.87,3.88-2.56-.05-4.07-1.65-4.13-4.15-.06-2.47,1.66-3.76,3.93-3.76Zm-1.88-45.68c-.1-3.18,2.15-4.51,4.98-4.96,2.67,.22,4.65,1.17,4.57,4.19-.08,2.97-1.81,4.58-4.69,4.67-2.59,.07-4.77-1.04-4.85-3.89Zm14.64-27.53c.09,2.45-2.18,3.51-4.09,3.63-1.99,.13-3.52-1.46-3.49-3.62,.03-2.35,1.2-4.1,3.76-4.68,2.21,.77,3.73,2.4,3.82,4.68Zm-7.02-20.4c2.23-.04,2.38,2.08,2.81,3.51-.24,1.89-.77,3.86-2.46,3.79-1.92-.07-3.39-1.86-3.52-3.86-.13-1.93,1.3-3.42,3.17-3.45Zm-5.65,29.47c.13,3.04-1.96,4.27-4.59,4.64-2.99-.13-4.99-1.46-5-4.44,0-2.87,1.83-4.58,4.7-4.65,2.89-.08,4.76,1.55,4.89,4.45Zm-12.83-22.09c.04-2.06,1.13-3.21,3.25-3.29,2.58,.04,3.62,1.79,3.79,3.94,.17,2.13-1.45,3.18-3.34,3.2-2.4,.04-3.74-1.4-3.7-3.86Zm10.39-25.45c-.02,3.34-2.11,5.17-5.25,5.66-3.13-.37-5.06-1.85-5.04-4.99,.02-3.44,2-5.34,5.38-5.46,3.15-.11,4.92,1.8,4.91,4.79Zm-10.7-22.13c2.39,.08,3.95,1.85,3.89,4.38-.06,2.56-1.13,4.49-4.01,4.58-2.65-.35-4.59-1.42-4.53-4.33,.06-2.94,1.85-4.72,4.65-4.63Zm-5.03-13.06c1.87,.04,3.38,1.2,3.25,3.3-.14,2.24-1.42,3.7-3.69,3.99-1.97-.24-3.61-.9-3.52-3.1,.1-2.41,1.34-4.25,3.97-4.18Zm-3.96,21.61c1.77,.21,2.93,1.12,2.83,3.09-.39,1.56-.65,3.42-2.76,3.21-1.8-.18-3.43-1.28-3.42-3.27,.01-1.9,1.15-3.29,3.35-3.03Zm-6.05,24.36c.32-2.45,1.63-4.6,4.51-4.27,2.34,.27,3.3,2.1,3.15,4.57-.51,2.12-1.29,4.26-4.14,3.87-2.24-.31-3.83-1.78-3.51-4.17Zm-.67,20.65c.11-2.28,1.68-4.01,4.25-3.95,1.99,.05,3.23,1.32,3.19,3.33-.04,2.22-1.47,2.92-3.56,2.55-1.35-.55-4.03,.94-3.88-1.92Zm5.81,29.45c-2.49-.09-3.83-1.55-3.64-3.89,.17-2.16,1.07-4.7,3.55-4.62,2.52,.08,3.78,2.34,4.05,4.71-.22,2.6-1.47,3.89-3.95,3.8Zm4.3,15.37c.29-2.71,2.4-3.45,4.71-3.44,2.09,.01,3.55,1.06,3.68,3.35-.6,2.61-2.07,4.21-4.83,4.04-2.36-.14-3.82-1.48-3.55-3.95Zm9.31,25.44c-2.51-.27-3.87-1.94-3.72-4.51,.15-2.4,1.69-3.54,4.01-3.81,2.32,.6,4.09,1.9,3.98,4.44-.11,2.47-1.61,4.16-4.27,3.87Zm33.36,193.63c.36-5.23-.75-10.84,2.97-15.54,.61,5.42-1.49,10.38-2.97,15.54Zm10.58-1.96c-1.57-4.41-1.05-9.73,1.67-14,.87,4.7-.62,9.12-1.67,14Zm54.12-26.99c-10.33,5.29-21.47,7.13-33.58,7.19-15.52-.18-30.54-4.01-43.79-13.53-12.57-9.03-19.16-20.87-16.93-36.76,2.26-16.02,8.62-29.96,21.4-40.26,22.72-18.3,56.53-12.27,72.22,13.01,9.06,14.61,13.69,30.71,14.35,47.99,.41,10.69-4.63,17.72-13.68,22.35Zm32.32,213.62c-.06,.7-.38,1.38-.77,2.74-.8-.86-1.25-1.23-1.55-1.69-1.18-1.83-.75-3.64,.3-5.33,.27-.44,.91-.9,1.45-.3,1.24,1.37,.7,3.02,.58,4.58Zm77.09-142.43c-15.63,10.17-32.7,11.53-50.39,7.38-18.2-4.26-33.74-13.32-46.49-27.04-.47-.51-.82-1.13-1.01-1.95,5.37,4.54,10.81,8.96,16.72,12.73,18.56,11.86,38.53,17.79,60.64,13.92,17.21-3.01,29.41-13.22,38.4-27.74,1.76-2.84,3.45-5.71,5.18-8.56,.05-.08,.22-.1,.9-.37-4.94,13.24-12.33,24.05-23.96,31.62Zm10.02,136.94c-1.44-2.6-2.34-5.32-1.54-9.62,1.61,3.87,1.72,6.71,1.54,9.62Zm7.74,25.65c-.68-.44-.84-.49-.9-.6-1.24-1.91-2.62-3.79-1.83-6.26,.06-.18,.94-.36,1.05-.23,1.6,1.93,2.27,4.11,1.69,7.08Zm-5.98-92.14c1.7,17.97,4.66,35.72,8.04,53.41-5.41-17.39-8.96-35.07-8.04-53.41Zm15.22,112.29c-.93,1.62-.51,4.97-2.93,4.82-1.75-.11-3.19-3-3.25-5.19-.06-2.53,2.47-2.61,4.18-2.83,2.12-.26,2,1.54,1.99,3.19Zm-26.82,289.05c-2.64-4.21-1.92-8.82-1.3-13.42,1.8,4.31,2.61,8.74,1.3,13.42Zm19.95-35.57c-2.34-2.93-3.16-6.44-3.34-10.14-.11-2.25,.59-4.44,2.76-4.81,2.27-.4,3.84,1.34,4.61,3.62,1.03,3.04,1.66,6.14,1.64,9.84-.13,1.51,.53,4.37-1.42,5.07-2.09,.76-3.06-2.09-4.25-3.58Zm6.99,38.39c-.21,.82-.52,1.85-1.58,1.76-1.24-.1-.97-1.25-.91-2.03,.34-4.15,.68-8.31,2.95-12.07,1.18,4.2,.59,8.29-.46,12.34Zm102.06-69.63c-2.95-.33-4.75-1.62-4.7-4.4,.05-2.75,1.87-4.28,4.47-4.27,2.61,.01,4.47,1.56,4.37,4.31-.09,2.61-1.76,4.13-4.15,4.35Zm5.49-15.75c-2.13-.19-3.56-1.39-3.47-3.68,.09-2.23,1.39-3.54,3.64-3.45,2.44,.1,3.5,1.73,3.73,3.92-.24,2.48-1.75,3.4-3.9,3.21Zm8.16-21.75c.21,2.72-1.39,4.46-4.08,4.56-3.06,.11-4.84-1.64-4.96-4.74-.1-2.46,.86-4.2,3.72-4.36,2.69,.37,5.07,1.38,5.31,4.55Zm-1.16-17.17c.14-2.99,1.93-4.21,4.61-4.04,2.99,.19,5.01,1.78,4.8,5-.17,2.53-1.44,4.62-4.34,4.44-3.21-.2-4.93-2.16-5.06-5.39Zm-1.67,65.98c-2.05-.12-3.3-1.23-3.24-3.33,.05-1.85,1.17-2.95,3.04-3.06,2.15-.13,3.15,1.14,3.52,3.09-.39,1.85-1.03,3.44-3.32,3.31Zm12.47-15.18c-1.13,1.95-3.12,3.46-5.36,2.31-1.86-.95-3.54-2.81-2-5.33,.79-1.28,1.87-2.38,2.95-3.74,.85,1.13,.57,2.82,2.55,2.97,2.19,.17,2.91,1.95,1.85,3.79Zm15.11-47.32c-2.46,.05-3.39-1.82-3.39-4.08-.21-3.19,1.61-4.87,4.39-4.88,2.73,0,4.03,2.09,4.03,4.74,0,3.29-2.48,4.17-5.03,4.22Zm11.9-20.1c.06,2.39-1.55,3.72-3.91,3.68-2.62-.05-4.51-1.48-4.67-4.15-.14-2.5,1.77-3.39,4.03-3.66,2.65,.11,4.47,1.39,4.55,4.14Zm-9.5-19.13c3.09,.15,4.12,2.41,4.11,5.08-.01,2.51-1.9,2.91-4.1,2.85-2.52-.56-4.57-1.95-4.44-4.84,.11-2.53,2.32-3.19,4.43-3.09Zm-7.27-14.12c1.43,.3,2.84,.93,3.22,2.41,.29,1.09-.92,1.23-1.76,1.25-1.39,.04-2.6-.35-2.87-1.94-.17-.98,.29-1.64,1.41-1.73Zm.22,65.36c2.3-.19,3.89,1.2,4.08,3.52,.24,3.01-2.17,2.8-4.15,2.97-1.96,.22-3.53-.29-3.61-2.56-.09-2.44,1.51-3.75,3.69-3.93Zm-1.35,18.14c.24,2.95-2.83,3.39-4.68,3.34-2.25-.06-4.72-1.25-2.89-4.34-1.48-2.86,.15-3.77,2.3-3.76,3.01,0,5.04,1.95,5.27,4.76Zm-7.08-53.19c-.15,2.65-1.82,4.12-4.53,4.15-3.11-.28-4.93-2.05-4.99-5-.06-2.98,1.99-4.45,4.84-4.25,2.99,.21,4.87,2,4.68,5.09Zm-10.27-43.88c3.71,.12,7.31,2.82,6.98,5.13-.4,2.76-2.69,3.28-4.9,3.18-3.04-.13-5.96-1.08-6.13-4.76-.13-2.79,2.09-3.46,4.06-3.56Zm-1.08,18.13c2.84,.16,5.33,1.45,5.2,4.67-.13,3.21-2.53,4.95-5.56,4.98-3.06,.04-4.72-1.89-4.77-5.15,.23-3.07,2.05-4.67,5.13-4.5Zm-7.95-31.44c2.4,.07,4.13,1.21,4.21,4.08-.38,2.6-2.12,3.93-4.71,3.94-2.52,.01-4.18-1.44-4.12-4,.07-2.79,1.99-4.1,4.63-4.02Zm-10.31,11.34c2.8,.05,4.84,1.67,4.9,4.52,.06,2.8-2.09,3.9-4.65,4.2-2.73-.27-4.97-1.33-5.08-4.35-.11-3.08,2.04-4.41,4.83-4.37Zm-1.84,21.75c2.9,.14,4.6,2,4.6,4.83,0,2.77-2.39,3.3-4.32,3.9-2.69-.57-4.81-1.62-4.77-4.49,.03-2.75,1.72-4.37,4.49-4.24Zm-1.14,30.94c2.22-.02,3.77,1.14,4.19,3.18,0,2.33-1.21,4.09-2.94,3.82-1.75-.27-4.69-.27-4.66-3.3,.02-2.05,1.15-3.68,3.41-3.7Zm-1.56,23.42c1.74,.1,3.09,.98,3.09,3.13,0,1.87-1.03,2.97-2.94,3.04-2.09,.08-3.3-.85-3.2-3.09,.08-1.81,.71-3.1,3.06-3.09Zm-47.71-12c.23,1.38-.59,2.15-1.93,2.36-1.6,0-2.41-.9-2.5-2.4-.06-1.09,.33-2.05,1.64-2.11,1.51-.08,2.55,.67,2.79,2.15Zm-7.29-65.34c.87-2.29,.93-6.17,3.99-5.84,3.07,.34,1.06,4.22,2.04,5.7,.22,2.54,.11,4.41-1.95,5.4-1.25,.59-2.58,.56-3.64-.42-1.53-1.43-1.05-3.27-.45-4.84Zm1.1,23.07c.06,1.69-1.03,2.7-2.76,2.65-1.92-.06-3.14-1.4-2.91-3.09,.43-3.19,.81-6.57,3.87-8.88,2.16,2.95,1.68,6.21,1.8,9.32Zm-9.91-24.28c-1.83-.3-2.31-1.55-2.27-3.13,.03-1.2,.73-1.94,1.9-1.81,1.84,.19,2.09,1.78,2.26,3.18,.17,1.31-.84,1.64-1.89,1.76Zm-6.55,52.76c.28-2.85,2.08-6.11,4.35-6.23,2.55-.14,1.56,3.64,2.24,5.33-.16,2.23-.07,4.42-2.86,4.13-1.85-.19-3.98-.71-3.74-3.23Zm-2-45.36c.39-1.9,.73-4.26,2.8-4.9,1.59-.49,2.83,1.55,2.65,2.66-.3,1.85-.63,4.34-2.74,4.19-2.5,.39-2.95-.81-2.71-1.94Zm4.58-56.22c.11-1.46,.84-2.58,2.41-2.38,2.02,.25,2.73,1.81,2.91,3.2-.04,2.13-1.08,2.77-2.53,2.69-2.16-.11-2.94-1.5-2.79-3.5Zm-2.68,27.07c2.32,.08,2.35,2.15,2.76,3.94-.97,1.45-.03,4.65-2.24,4.41-1.98-.21-2.81-3.07-2.91-5.32-.07-1.58,.63-3.09,2.39-3.03Zm-4.25,52.72c.56-1.1-.09-3.63,1.84-3.48,1.77,.14,1.93,2.6,2.24,4.24,.32,1.67-.88,2.37-2.32,2.3-1.75-.09-1.84-1.47-1.76-3.06Zm-8.39-111.53c2,.94,2.16,2.87,2.22,4.78-.03,.44,.06,.91-.09,1.29-.72,1.92,.47,4.99-1.79,5.66-1.62,.48-2.79-2.14-3.72-3.72-1.37-2.33-2.15-4.82-.17-7.22,.9-1.09,2.27-1.38,3.54-.78Zm-.25,133.68c-1.63-.24-1.87-1.54-1.95-2.87-.07-1.2,.08-2.52,1.67-2.48,1.72,.04,1.9,1.53,2.01,2.84,.11,1.22-.08,2.35-1.73,2.51Zm2.49,17.49c1.77,2.02,2.32,4.08,2.55,6.19,.2,1.84-.68,3.14-2.68,3.07-1.85-.07-2.87-1.15-2.74-3.1,.16-2.24,1.4-3.99,2.86-6.16Zm-9.75-189.19c-.07-1.26,.31-2.55,1.83-2.3,1.8,.3,1.76,2.03,1.98,3.45-.16,.93,.2,2.39-1.39,2.09-1.58-.3-2.33-1.65-2.42-3.23Zm1.97,218.54c.24-1.99,.42-4.98,2.2-5.16,2.24-.23,2.06,2.88,2.76,4.43,.11,1.85-.41,3.02-2.29,3.08-1.62,.05-2.92-.33-2.67-2.36Zm8.15,55.8c-2,.5-2.75-1.84-3.59-3.26-2.4-4.04-3.92-8.43-4.47-13.11-.28-2.34,.31-4.7,2.75-5.32,2.26-.58,3.18,1.76,3.95,3.37,2.02,4.24,2.85,8.82,3.44,13.34-.39,1.92,.11,4.43-2.07,4.98Zm2.39-36.01c.04,1.63-1.5,3.18-3.64,2.55-2.06-.6-3.31-2.04-2.5-4.28,.89-2.45,2.56-4.41,4.47-6.46,2.16,2.7,1.6,5.6,1.67,8.19Zm-.73-159.04c-2.42-3.51-4.93-5.63-4.79-9.16,.07-1.71,.66-3.31,2.59-3.43,1.92-.12,2.69,1.35,2.97,3.08,.47,2.91-.59,5.6-.77,9.51Zm3.61,122.41c2.46-.1,3.4,1.65,4.25,3.29-.4,1.89-.8,3.63-2.74,3.7-2.74,.09-3.57-2.04-3.97-4.26-.34-1.85,.78-2.66,2.46-2.73Zm-1.91,19.8c.46-2.42,1.56-5.46,4.02-5.58,2.12-.11,1.14,2.99,1.58,4.47-.12,1.92,.07,3.9-2.55,3.81-1.72-.06-3.45-.59-3.05-2.7Zm3.71,55.71c2.87,8.36,5.46,16.78,5.85,25.73-2.64-8.41-5.17-16.85-5.85-25.73Zm3.88-79.38c-1.78-.35-3.4-.97-3.48-3.17-.07-1.82,1.13-2.69,2.76-2.63,2.05,.07,3.76,.92,3.75,3.33,0,1.88-1.46,2.28-3.03,2.47Zm4.81-13.71c-2.13,.08-2.88-1.51-3.21-3.11,.07-2.19,1.15-3.16,3.01-3.16,2.13,0,3.1,1.39,3.21,3.31,.11,1.98-1.32,2.89-3.01,2.95Zm3.08-103.77c.12-2.17,1.13-3.78,3.42-3.61,1.93,.14,1.7,2,1.83,3.34-.35,1.89-.86,3.63-3.16,3.47-1.9-.14-2.17-1.64-2.08-3.2Zm1.79,80.5c-.05-1.28,.28-2.29,1.69-2.47,1.63-.08,2.14,.85,2.07,2.18-.06,1.15-.15,2.5-1.7,2.56-1.41,.06-2-.94-2.06-2.27Zm38.05-9.86c-8.58,34.21-19.75,67.51-34.92,99.42,12.18-32.95,22.15-66.68,34.92-99.42Zm-31.49,138.74c-2.97-4.42-3.13-9.45-3.1-14.53,2.4,4.54,3.52,9.37,3.1,14.53Zm11.19-19.32c3.58,3.53,6.33,8.99,7.6,14.88-3.23-4.61-5.75-9.59-7.6-14.88Zm18.28,25.6c-2.95-7.92-5.03-16.04-5.54-24.5,.37-.09,.74-.17,1.1-.26,1.85,8.17,3.69,16.35,5.54,24.52-.37,.08-.74,.15-1.11,.23Zm-.4-46.49c-2.57,0-4.09-1.59-3.89-4.19,.21-2.6,1.27-5.03,4.34-5.01,2.69,.02,3.52,2.13,3.56,4.55-.13,2.6-1.09,4.65-4.01,4.64Zm4.83-36.36c-.17-2.17,.95-3.65,3.27-3.8,2.41-.15,4.06,.99,4.13,3.44,.06,2.16-1.31,3.44-3.39,3.69-2.32-.07-3.83-1.12-4.01-3.33Zm7.08,22.53c-2.11,.04-3.16-1.21-3.22-3.24-.05-1.72,.83-2.8,2.61-2.67,1.76,.13,2.98,1.03,3.02,3.01,.03,1.66-.59,2.88-2.41,2.91Zm-.08-40.2c-2.08-.07-3.74-.97-3.89-3.28-.18-2.69,1.6-4.08,3.94-4.34,2.33-.26,3.8,1.11,4.09,3.62-.32,2.37-1.42,4.09-4.14,4.01Zm4.37-27.93c-2.75-.08-4.63-1.17-4.76-4-.14-2.91,1.89-4.17,4.37-4.25,2.51-.08,4.56,1.11,4.65,3.99,.09,2.88-1.79,3.99-4.26,4.26Zm3.34,86.02c-.03-2.57,1.45-4.24,3.96-4.19,2.18,.04,3.87,1.44,3.96,3.84,.11,2.69-1.74,3.75-4.09,4.21-2.37-.22-3.8-1.46-3.83-3.86Z"/>
  <path d="M554.19,625.78c-2.18-5.28-4.5-10.41-6.42-15.68-8.57-23.46-19.39-45.86-31.51-67.66-3.11-5.59-5.47-11.59-8.38-17.3-1.62-3.18-.86-4.32,2.57-5.39,26.36-8.22,50.37-20.69,70.27-40.19,9.94-9.73,18.56-20.49,24.96-32.97,14.05-27.38,31.41-52.17,56.42-70.85,20.9-15.62,44.1-26.6,68.96-34.19,1.3-.4,3.05-1.62,4.05-.21,.92,1.29-.66,2.68-1.3,3.91-3.98,7.63-7.7,15.37-10.39,23.57-8.96,27.28-3.57,50.69,18.27,70.06,14.6,12.95,31.43,22.03,49.08,29.85,9.06,4.01,18.17,7.91,27.25,11.87,1.87,.82,3.73,1.66,5.53,2.62,1.24,.66,3.12,1.08,3.12,2.72,0,1.85-2.09,1.8-3.32,2.23-8.54,2.94-17.09,5.86-25.24,9.81-6.72,3.27-12.91,7.32-18.64,12.11-18.1,15.13-22.94,35.02-20.65,57.46,2.18,21.42,8.7,41.88,14.02,62.6,1.45,5.64,2.62,11.36,3.69,17.08,.33,1.76,1.49,4.39-.16,5.32-2.15,1.2-3.5-1.46-4.77-2.87-5.17-5.74-9.96-11.83-15.3-17.4-13.2-13.77-25.59-28.41-41.43-39.4-4.46-3.09-9.19-5.62-14.53-6.89-6.63-1.57-12.03,.35-16.36,5.59-5.14,6.22-7.02,13.62-7.93,21.4-1.05,8.89-.15,17.77-.01,26.65,.04,2.77,.04,5.53-.57,8.27-.35,1.61-.69,3.3-2.36,3.94-2,.76-2.82-1.12-3.79-2.26-6.55-7.71-11.35-16.58-16.45-25.23-5.91-10.03-13.38-18.72-22.33-26.12-2.94-2.43-6.17-4.42-10.08-4.94-4.68-.62-7.21,1.02-8.34,5.58-1.31,5.27-1.15,10.71-1.82,16.06-.33,2.68-.04,6.58-2.77,7.33-2.94,.81-4.05-3.08-5.62-5.17-3.76-5.03-7.44-10.11-12.53-13.92-7.86-5.88-16.04-4.92-22.45,2.57-4.03,4.7-6.86,10.11-9.53,15.63-.73,1.5-.97,3.36-3.2,4.41Zm179.41-97.6c-1.27,3.32-4.61,4.28-7.31,6.35,2.47,.93,4.58,1.65,6.82-.52,2.01-1.95,1.44-3.8,.45-5.83-1.25-.64-2.63-1.12-3.74-1.95-3.08-2.31-5.03-1.63-5.93,2.19-.19,.81-.73,1.73,.25,2.31,.88,.52,1.93,0,2.19-.72,.73-2.05,1.79-1.57,3.28-.92,1.42,.62,2.76-.24,3.99-.9Zm7.78,59.46c-16.17-24.18-34.5-46.36-58.39-63.42,19.78,20.84,40.44,40.88,58.39,63.42Zm-88.67-183.77c2.97,0,4.86-1.28,6.58-2.94,5.03-4.85,8.69-10.93,13.99-15.55,.63-.55,1.45-1.27,.7-2.19-.68-.82-1.57-.37-2.38,.01-5.8,2.77-10.65,6.91-15.6,10.88-1.91,1.53-3.97,2.97-5.28,5.15-1.61,2.67-.61,4.58,1.99,4.64Zm124.57,75.45c-13.57-5.8-27.52-10.31-42.16-12.45,13.32,6.64,27.58,10.08,42.16,12.45Zm-177.63,110.38c-1.43-7.89-3.88-15.47-7-22.83-1.03-2.43-2.41-4.67-4.36-6.49-1-.93-2.1-2.67-3.58-1.4-1.14,.97-.85,2.83,.05,4.06,6.06,8.26,10.41,17.45,14.89,26.66Zm95.38-137.6c-1.8,.16-3.85,.09-4.9,2.01-.61,1.1-.02,2.23,.8,3.16,2.1,2.38,8.11,3.43,10.95,1.9,2.68-1.44,2.85-3.71,.31-5.34-2.13-1.37-4.62-1.55-7.15-1.72Zm-107.17,60.33c-.22-1.32,.4-3.03-.99-3.61-1.61-.68-2.03,1.23-2.77,2.12-2.95,3.53-3.59,7.77-3.4,12.21,.03,.67-.16,1.54,.69,1.87,1.04,.41,1.61-.43,2.09-1.09,2.47-3.47,4.08-7.28,4.38-11.5Zm28.13-58.19c1.3-.33,2.35-1.1,3.07-2.22,1.86-2.92,3.64-5.91,4.56-9.28,.39-1.41,1.56-3.42-.5-4.15-1.59-.57-2.95,1.05-3.71,2.43-1.95,3.55-2.24,7.77-4.44,11.26-.42,.67-.19,1.74,1.02,1.96Zm25.97-39.33c-2.37,0-2.34,0-2.51,3.02-.05,.86-.83,1.36-1.52,1.16-1.53-.46-2.43,.47-3.52,1.17-.82,.53-2.09,.65-1.93,1.98,.15,1.29,1.37,1.06,2.26,1.46,5.13,2.28,6.25-2.76,8.95-4.81,.91-.69,2.29-1.73,1.45-3.24-.68-1.21-2.07-.66-3.18-.74Zm63.81,80.03c3.24,.06,5.74-1.59,5.42-3.65-.28-1.78-.23-4.25-2.88-4.58-2.4-.3-7.17,2.65-6.86,4.22,.49,2.49,1.86,4.27,4.32,4.01Zm-10.16-124.75c.35-.18,.78-.32,1.1-.59,3.9-3.23,7.8-6.46,11.66-9.75,.56-.48,1.68-1.06,.7-2.05-.78-.79-1.66-.2-2.36,.25-2.92,1.88-5.85,3.74-8.66,5.78-1.49,1.08-3.2,2.05-3.87,3.98-.46,1.34-.31,2.29,1.43,2.37Zm-19.99,144.41c-2.47,.02-4.05,1-3.86,3.35,.21,2.63,2.15,3.7,4.61,3.63,2.13-.06,4.19-.49,4.04-3.39-.18-3.28-2.7-3.29-4.78-3.6Zm23.71-119.56c-1.24-1.25-.29-4.51-3.62-4.7-2.46-.14-4.88,1.38-4.84,3.28,.07,2.86,3.59,3.22,5.73,4.32,1.34,.68,2.65-.68,2.73-2.89Zm-14.17-9.7c2.67-.28,5.26-1.1,5.68-4.13,.23-1.64-1.33-2.78-3.17-2.79-2.42-.01-5.67,3.11-5.49,5.21,.17,1.94,1.72,1.51,2.98,1.71Zm-33.82,122.31c2.09,.21,3.69-.26,3.94-2.5,.3-2.66-1.67-3.54-3.69-4-2.19-.51-3.9,.63-4.09,2.78-.23,2.55,1.9,3.27,3.84,3.73Zm-18.87,32.61c-2.23,.53-3.4,1.94-3.8,4.16-.6,3.3,2.51,3.27,4.02,3.67,1.47,.39,3.34-1.25,3.23-3.29-.11-2.11-1.23-3.8-3.45-4.54Zm-57.13,.17c.08,1.79,.46,3.39,2.65,3.23,2.28-.17,4.04-1.54,4.08-3.8,.03-1.86-1.11-4.08-3.2-4.11-2.75-.04-3.07,2.56-3.52,4.67Zm91.11-131.61c-1.86,.77-1.9,2.59-2.04,4.22-.21,2.46,1.57,3.28,3.54,3.38,1.88,.09,2.92-1.07,2.64-3.04-.33-2.36-1.7-3.87-4.14-4.56Zm-.84,215.44c-2.47-6.57-4.95-13.15-7.42-19.72,.44,7.34,3.04,13.87,7.42,19.72Zm-30.83-176.81c.19,1.48-.19,3.55,2.03,3.66,2.11,.11,2.93-1.67,3.13-3.5,.21-1.86-.92-3.16-2.65-3.39-2.27-.3-2.39,1.54-2.51,3.23Zm-5.67,40.82c.2-1.77-.73-3.7-2.51-3.76-2.16-.07-2.73,2.33-3.04,4.13-.43,2.44,2.31,2.43,3.39,2.85,1.49,.57,2.12-1.42,2.16-3.22Zm-17.89,6.22c1.73-.42,3.02-1.41,3.09-3.17,.09-2.14-1.4-3.07-3.37-3.05-1.84,.02-2.44,1.33-2.43,2.93,.02,1.78,.82,3.01,2.71,3.29Zm-21.34,37.03c-.1-1.57-.98-2.39-2.5-2.28-2.11,.14-3.5,1.19-3.53,3.48-.02,1.75,.97,2.79,2.65,2.59,2.09-.24,3.21-1.68,3.38-3.79Zm55.42-93.91c-.27-1.65-1.01-2.98-2.71-2.94-1.75,.03-2.37,1.45-2.44,3.04-.07,1.81,.74,3.35,2.57,3.39,2.14,.05,1.63-2.38,2.57-3.48Zm-29.7,69.36c1.63-.25,2.18-1.28,2.09-2.74-.11-1.7-.81-3.34-2.59-3.37-1.87-.03-1.86,1.86-1.89,3.23-.03,1.57,.65,2.74,2.39,2.87Zm65.68-96.58c.03-1.56-.57-2.7-2.08-2.82-1.63-.13-2.22,1.05-2.19,2.5,.03,1.35-.36,3.21,1.74,3.21,1.66,0,2.18-1.56,2.53-2.89Zm-7.3-6.33c-.26-1.09-.14-2.75-1.55-2.72-1.83,.05-2.56,1.73-2.67,3.37-.1,1.53,.92,2.49,2.43,2.35,1.77-.16,1.53-1.78,1.8-3Zm-58.27,79.11c.15,1,.07,2.41,1.58,2.51,1.75,.11,2.64-1.23,2.63-2.75-.01-1.27-.76-2.75-2.22-2.76-1.65-.02-1.68,1.64-2,3.01Zm-26.57,57.72c-1.24,.1-2.18,.68-2.2,2.07-.01,1.53,.49,2.96,2.27,3.09,1.57,.11,1.7-1.23,1.8-2.4,.12-1.37,.02-2.64-1.87-2.76Zm-9.34,10.72c1.04-.29,2.56-.36,2.74-1.99,.19-1.67-1.15-2.24-2.48-2.36-1.48-.13-2.55,.73-2.68,2.21-.12,1.4,.92,1.98,2.42,2.13Zm72.7-121.78c-.18-1.38-.17-3.1-1.96-3.35-1.4-.2-1.99,1.07-1.88,2.32,.13,1.47,.68,2.97,2.36,3.19,1.41,.18,1.37-1.12,1.47-2.16Zm51.82-18.11c-4.2,.35-5.25,1.77-4.24,5.81,2.82-.75,2.51-3.99,4.24-5.81Zm-3.23,8.11c4.16-.11,4.78-.46,5.42-2.62,.33-1.11,.79-2.6-.49-3.07-1.86-.68-1.45,1.35-1.64,2.17-.36,1.54-1.59,2.17-3.29,3.53Zm-55.5,33.85c0-1.12-.02-2.47-1.24-2.5-1.49-.05-2.25,1.24-2.25,2.66,0,1.16,.38,2.63,1.7,2.65,1.74,.04,1.58-1.67,1.79-2.81Zm-4.07,27.97c-1.57,.28-1.83,1.64-2.1,2.84-.21,.93-.35,2.25,1,2.41,1.52,.18,2.28-.93,2.46-2.34,.16-1.21-.16-2.26-1.37-2.9Zm-19.17,13.42c-.31-.97-.22-2.38-1.64-2.62-1.48-.24-1.92,.99-2.08,2.14-.17,1.17,0,2.42,1.49,2.58,1.32,.14,2.09-.66,2.24-2.1Zm25.46-54.83c.42,1.14-.73,3.14,1.5,3.34,1.2,.11,1.43-1.26,1.62-2.22,.29-1.44-.32-2.69-1.68-3.09-1.68-.49-1.21,1.05-1.43,1.97Z"/>
  <path d="M433.86,529.56c-2.2-1.17-2.77-3.31-3.47-5.26-.62-1.73-1.14-3.47-3.46-3.13-2.37,.35-1.56,2.36-1.83,3.82-.3,1.61,.93,4.49-.87,4.58-2.43,.12-1.56-2.85-1.77-4.54-.22-1.78-.02-3.66-2.63-3.54-2.63,.12-6.1-2.72-7.32,2.37-1.76-2.12-1.91-4.46-2.88-7.11,4.01,.85,7.44,1.9,10.93,2.25,13.17,1.33,26.17,.6,38.81-3.76,.94-.32,2-1.13,2.76-.06,.56,.78-.21,1.66-.75,2.31-1.92,2.34-1.03,5.91-3.22,8.32-1.51-1.3-1.06-2.68-1.06-3.89,0-1.76-.03-3.28-2.48-3.02-1.86,.2-3.44,.47-3.43,2.96,0,2.2,.46,4.53-.75,6.94-2.37-1.85-2.08-4.24-2.74-6.22-.44-1.31-1-2.57-2.69-2.21-1.42,.3-1.42,1.57-1.6,2.76-.29,1.86,1.15,4.98-1.35,5.27-2.31,.27-1.95-3.07-2.59-4.86-.55-1.53-1.08-2.71-2.93-2.53-2.17,.22-1.73,1.91-1.86,3.31-.16,1.66,.48,3.44-.81,5.24Z"/>
  <path d="M468.87,558.78c-8.33,7.84-17.98,12.83-29.43,13.51-10.92,.65-21.12-1.89-30.26-8.07-2.51-1.7-4.77-3.69-5.45-8.22,9.86,8.49,20.29,12.84,32.34,13.16,12.16,.31,22.31-5.36,32.79-10.37Z"/>
  <path d="M435.93,445.38c-1.74-1.02-1.74-2.74-1.99-4.25-.29-1.74-.17-3.59-2.68-3.73-3.06-.17-2.46,2.19-2.8,3.91-.14,.71-.19,1.45-1.29,2.01-2.13-2.59-1.95-6.55-5.95-9.06,6.56,.35,11.77,1.78,17.15,1.89,5.61,.11,11.05-.13,16.12-2.87,1.11-.6,2.61-1.47,3.35,.25,.57,1.31-.86,2.04-1.84,2.57-1.27,.68-2.64,1.44-4.02,1.58-4.51,.44-8.8,.89-7.48,7.76-2.54-1.41-2.25-3.21-2.67-4.6-.41-1.39-.84-2.48-2.58-2.3-1.52,.16-1.78,1.23-1.95,2.46-.21,1.51,0,3.19-1.38,4.4Z"/>
  <path d="M468.71,822.14c-9.89,10.96-43.93,10.75-49.75,.9,16.18,6.89,32.4,4.5,49.75-.9Z"/>
  <path d="M447.18,486.7c-1.67-1.42-1.7-3.08-2.12-4.57-.36-1.28-.69-2.66-2.47-2.47-1.64,.18-1.39,1.59-1.61,2.68-.27,1.37,.24,2.93-1.22,4.28-1.57-.98-1.46-2.63-1.65-4.09-.23-1.83-.64-3.72-2.74-3.95-2.64-.29-1.41,2.31-2.14,3.48-.3,.48-.42,1.06-.72,1.9-2.25-1.4-2.19-3.66-2.74-5.61-.32-1.14-.7-2.41-2.16-2.37-1.59,.05-1.54,1.51-1.73,2.6-.26,1.5-.19,3.11-1.69,4.72-1.4-2.92-1.7-5.69-1.77-8.34-.08-2.76,2-1.32,3.09-.89,5.6,2.2,11.44,3.39,17.34,4.32,3.32,.52,6.66,.87,9.91-.43,.66-.26,1.48-.76,1.67,.37,.15,.85-.16,1.78-1.1,2.15-1.87,.74-5.25,3.99-6.16,6.23Z"/>
  <path d="M435.74,788.37c2.79,4.93,6.26,7.63,10.44,7.03,9.78-1.4,20.12,.26,29.24-4.99,.19-.11,.54,.06,.88,.1,.36,1.38-.8,1.76-1.6,2.03-5.04,1.69-10.02,3.88-15.2,4.7-5.07,.8-10.41,.61-15.55,.05-5.46-.6-8.18-3.6-8.21-8.92Z"/>
  <path d="M451.21,677.18c-4.07,6.09-6.68,5.93-15.95-.14-3.21,5.87-5.56,7.46-9.74,6.61-4.35-.89-8.14-6.12-8.81-12.21,1.67-.51,1.87,.94,2.36,1.86,.9,1.66,1.55,3.47,2.54,5.07,3.2,5.17,8.42,5.28,11.23-.26,2.03-4,3.56-3.23,6.35-1.16,4.88,3.63,6.11,3.56,12.03,.23Z"/>
  <path d="M468.44,674.62c-.56-2.24,.61-3.61,2.61-3.58,6.85,.12,11.98-4.08,17.77-6.66,1.16-.51,2.23-1.36,3.9-1.11,.08,2-1.44,2.84-2.61,3.6-5.86,3.82-11.72,7.77-19.27,7.01-.84-.08-1.77-.13-2.41,.66v.07Z"/>
  <path d="M480.73,724.25c-1.66,3.6-4.65,4.88-7.99,4.48-2.15-.26-3.31,.23-4.83,1.61-3.07,2.79-7.94,2.63-11.3,.08-.59-.45-1.29-.84-.9-1.7,.39-.86,1.21-.61,1.88-.44,4.36,1.12,8,.65,12.27-1.79,2.67-1.52,7.28-.58,10.87-2.25Z"/>
  <path d="M423.78,784.39c1.63,4.91,6,6.09,10.3,8.83-4.62,1.35-7.83,.08-9.77-2.82-1.61-2.41-3.16-2.33-5.35-1.76-2.82,.73-5.53,.84-7.36-2.03-.55-.86-1.2-2.02-.26-2.77,1.16-.94,1.62,.43,2.27,1.15,2.99,3.32,6.88,3.23,10.17-.6Z"/>
  <path d="M421.85,635.62c-4.7,1.02-8.34-.71-11.45-3.8-1.05-1.04-3.08-2.05-1.49-3.81,1.22-1.35,3.04-.83,4.29,.38,2.67,2.61,5.39,5.14,8.66,7.23Z"/>
  <path d="M439.89,632.27c-2.1,4.28-5.59,2.99-8.48,3.07-2.63,.07-5.25-.35-6.76-3.02-.46-.82-.67-1.63,.18-2.31,1.05-.84,1.93-.07,2.75,.45,3.66,2.34,7.54,3.41,12.31,1.81Z"/>
  <path d="M458.88,628.99c-3.47,6.47-11.49,7.19-16.08,4.17-.72-.47-1.63-.89-1.37-1.94,.27-1.11,1.17-1.01,2.1-.87q7.97,1.2,15.35-1.36Z"/>
  <path d="M414.85,680.24c-2.84,2.39-6.57,2.13-9.21-.81-2.2-2.45-3.16-5.53-3.9-8.67-.17-.71-.27-1.59,.54-1.9,1.18-.46,1.42,.58,1.69,1.39,.23,.69,.38,1.4,.59,2.1,2.14,6.97,3.3,7.85,10.29,7.88Z"/>
  <path d="M405.65,734.1c-3.31,1.66-6.12,1.08-8.28-.8-4.03-3.52-2.95-8.32-2.32-13.11,2.97,5.06-.95,15.13,10.6,13.91Z"/>
  <path d="M400.64,631.04c-4.95-.47-11.07-7.75-10.56-11.35,.11-.8,.48-1.51,1.24-1.57,1.23-.09,1.66,.91,2.03,1.91,1.44,3.91,2.56,8.02,7.29,11.01Z"/>
  <path d="M493.92,716.34c-3.19,4-7.21,6.08-11.64,6.23,1.69-4.08,6.73-6.89,11.64-6.23Z"/>
  <path d="M424.4,728.62c5.2,8.66,6.03,8.36,15.48,5.92-1.62,3.38-4.77,4.45-9.26,3.14-4.62-1.35-6.93-4.71-6.23-9.06Z"/>
  <path d="M410.43,727.5q2.22,9.51,11.63,7.06c-2.08,3.4-7.34,4.72-10.65,2.66-2.84-1.77-3.3-6.35-.99-9.72Z"/>
  <path d="M454.95,730.68c-3.74,6.02-10.58,5.75-14.66-.78,4.78,2.78,9.57,5.08,14.66,.78Z"/>
  <path d="M468.43,674.55c-4.62,2.53-9.44,3.74-14.63,2.06-1.03-.33-2.78-.55-2.37-2,.53-1.9,1.82-.38,2.7-.03,3.17,1.26,6.27,.89,9.41-.09,1.62-.51,3.3-1.47,4.9,.12,0,.01,0-.05,0-.05Z"/>
  <path d="M477.39,787.73c2.26-4.28,4.47-6.71,8.28-7.18,.83-.1,1.83-.18,2.24,.77,.43,.99-.34,1.6-1.06,2.08-2.6,1.75-5.38,3.09-9.46,4.33Z"/>
  <path d="M417.04,556.7c-.21,1.29,.75,3.54-1.8,3.43-2.29-.1-2.83-2.21-3.02-4.11-.19-1.87,.77-3.08,2.71-3.12,2.84-.06,2.11,2.05,2.11,3.8Z"/>
  <path d="M496.75,648.04c-.67,2.2-2.67,2.39-4.43,2.74-1.29,.26-3.09-.02-2.9-1.59,.23-2,2.36-2.21,4.05-2.37,1.18-.11,2.63-.49,3.28,1.22Z"/>
  <path d="M429.43,559.34c-.13,1.62,.01,3.32-1.8,3.2-2.08-.14-2.2-2.04-2.17-3.62,.02-1.21-.14-3.1,1.53-3.11,2.39-.02,1.98,2.33,2.45,3.54Z"/>
  <path d="M490.95,603.42c-.62,2.32-2.62,3.07-4.71,3.66-.77,.22-1.69-.09-1.39-.94,.67-1.9,1.75-3.67,3.88-4.24,1.05-.28,2,.08,2.22,1.52Z"/>
  <path d="M402.82,782.77c.11-.76-.12-2.34,.91-1.91,2.24,.92,1.91,3.93,3.61,5.51,.35,.32-.17,1.16-.87,1.06-2.67-.37-3.38-2.34-3.65-4.66Z"/>
  <path d="M493.84,743.74c-1.34-.28-3.22,.2-3.27-1.47-.05-1.54,1.63-1.87,2.99-1.76,1.27,.1,2.99,.21,2.93,1.86-.05,1.5-1.72,1.14-2.65,1.36Z"/>
  <path d="M447.21,562.41c-1.64-.21-1.81-1.54-1.98-2.84-.14-1.08-.01-2.1,1.39-2.18,1.72-.11,2.21,1.09,2.39,2.48,.17,1.31-.3,2.27-1.8,2.55Z"/>
  <path d="M391.93,639.56c-.08,1.11-.58,1.92-1.82,1.86-1.56-.07-2.24-1.17-2.36-2.54-.11-1.19,.64-1.84,1.84-1.79,1.53,.06,2.31,.91,2.34,2.47Z"/>
  <path d="M439.5,560.52c-.13,1-.28,2.1-1.54,2.2-1.28,.11-2.23-.56-2.43-1.88-.2-1.28,.29-2.32,1.72-2.44,1.43-.12,1.94,.93,2.26,2.12Z"/>
  <path d="M489.19,733.26c2-2.61,3.29-4.75,6.83-3.66-1.64,2.42-3.73,3.07-6.83,3.66Z"/>
  <path d="M398.58,589.78c-1.17-.42-2.27-1.49-2.34-3.3-.03-.8,.55-1.45,1.4-1.21,1.71,.49,2.63,1.81,2.84,3.51,.11,.85-.51,1.3-1.91,1Z"/>
  <path d="M575.85,269.53c-.11,20.06-15.72,36.21-34.94,36.13-20.32-.08-36.3-16.18-36.23-36.48,.07-20.16,16.39-37.03,35.58-36.77,20.1,.27,35.71,16.55,35.6,37.12Zm-6.57-3.56c.13-4.22-3.03-8.84-6.5-10.06-3.35-1.17-5.07,.07-4.77,3.7,.19,2.3,.85,4.56,1.27,6.84,.51,2.77,1.48,5.27,4.87,5,3.52-.27,4.77-2.85,5.13-5.49Zm-4.86,9.54c-2.69,.08-5.06,1.21-5.24,4.37-.16,2.89,1.31,5.33,4.5,5.25,2.86-.07,4.81-1.82,4.86-5.02,.04-2.67-.83-4.56-4.12-4.59Zm-12.78,11.82c-1.86,.34-3.98,.71-4.05,3.36-.07,2.53,1.63,3.56,3.91,3.6,2.32,.04,3.91-1.02,3.88-3.56-.02-2.26-1.29-3.39-3.74-3.4Z"/>
  <path d="M330.79,302.92c-20.49-.16-36.18-16.15-35.99-36.68,.18-20.32,16.24-36.61,35.88-36.41,20.88,.21,36.71,16.51,36.57,37.68-.13,19.42-16.75,35.57-36.45,35.41Zm-15.58-38.37c-3.89-.07-7.8,4.94-7.78,9.98,.01,3.45,2.29,5.42,6.36,5.49,4.34,.07,7.75-3.4,7.93-8.08,.14-3.61-3.13-7.32-6.5-7.38Zm8.87-3.92c2.45-.41,5.11-1,5.12-4.15,.01-3.56-2.64-4.58-5.69-4.45-2.82,.12-5.39,1.24-5.26,4.53,.14,3.42,3.1,3.7,5.82,4.07Z"/>
  <path d="M420.61,346.8c-4.44-2.8-7.25-6.04-9.92-9.42-1.29-1.64-.94-3.2,.42-4.69,1.8-1.96,3.65-4.12,6.55-3.61,2.35,.41,2.15,2.8,2.26,4.65,.25,4.05,.43,8.11,.68,13.08Z"/>
  <path d="M451.88,345.75c-.98-6-.66-11.03-.26-16.03,.18-2.31,1.82-2.2,3.55-1.71,3.6,1.03,5.61,3.77,4.46,6.67-1.55,3.93-4.1,7.25-7.75,11.07Z"/>
</svg>