<?xml version="1.0" encoding="UTF-8"?>
<svg id="Layer_1" data-name="Layer 1" xmlns="http://www.w3.org/2000/svg" viewBox="0 0 864 864">
  <path d="M480.72,288.6c12,.4,23.63-1.15,34.89-6.49,.28,31.79,10.42,60.69,21.49,89.46,13.53,35.17,21.59,72.01,31.82,108.18,6.65,23.52,14.02,46.76,24.11,69.06,2.29,5.06,4.71,10.06,8.87,14.08-2.01-4.37-4.07-8.7-6.01-13.1-7.74-17.56-13.86-35.73-20.07-53.87-.57-1.66-1.44-3.17,.27-4.93,16.43-16.87,24.06-38.37,31.37-60.03,2.66-7.88,5.34-15.75,8.09-23.6,1.68-4.8,4.11-9.24,6.89-13.5,1.27-1.94,2.28-2.65,3.78-.17,1.03,1.7,2.9,2.05,4.77,2.08,2.85,.05,4.88-1.32,5.95-3.9,1.01-2.44,.46-4.72-1.66-6.31-2.22-1.66-4.75-1.83-7.09-.25-1.17,.78-2.03,2.02-3.24,3.27-.73-.88-1.36-1.69-2.04-2.44-3.66-4.05-4.65-8.52-1.94-13.43,2.51-4.56,6.61-5.96,11.52-5.18,5.56,.88,10.21,4.93,10.35,10.29,.13,5.21,2.16,5.4,6.6,5.13,20.15-1.23,39.6,3.14,58.71,8.85,60.62,18.08,110.06,53.68,153.41,98.68,1.09,1.14,3.04,2.49,2.23,3.99-1.06,1.97-3.22,.6-4.8,.11-14.46-4.53-29.23-6.73-44.4-6.06-24.31,1.07-42.51,11.97-53.46,33.86-2.57,5.14-5.04,6.28-9.78,3.19-1.63-1.06-3.63-1.61-5.52-2.23-17.01-5.61-27.59-1.65-36.5,13.89-6.73,11.74-10,24.76-13.33,37.73-.64,2.49-.41,6.4-3.47,6.71-3.43,.34-3.95-3.68-5.13-6.17-5.23-11.12-9.74-22.6-17.22-32.54-6.75-8.96-15.29-14.79-26.69-15.79-7.92-.69-15.12,1.27-21.17,6.54-7.87,6.85-12.68,15.79-16.15,25.37-2.13,5.89,1.24,10.81,4.64,15.44,13.89,18.89,22.07,40.07,25.68,63.18,4.46,28.51,1.74,56.6-3.87,84.64-3.19,15.96-7.54,31.68-9.72,47.84-1.08,7.99,.07,15.87,1,23.78,.39,3.34,1.78,4.04,5,3.69,10.6-1.16,21.2-2.44,31.89-.52,12.9,2.31,22.77,8.83,29.45,20.13,.72,1.21,2.16,2.62,1.21,3.9-1.32,1.8-2.99,.04-4.35-.48-4.36-1.67-8.63-3.55-13.72-5.67,.81,4.34,1.91,7.86,.82,11.4-.6,1.92-1.37,4-3.52,4.49-2.25,.52-2.97-1.73-3.94-3.13-4.45-6.41-9.85-11.58-17.57-13.76-5.38-1.52-6.47-.43-5.66,5,.37,2.49,.53,5.04,.49,7.56-.03,2.24-.8,4.48-3.04,5.35-2.19,.85-3.73-.87-5.14-2.27-4.4-4.37-9.21-8.16-14.94-10.64-2.77-1.2-5.11-1.34-7.97,.81-6.72,5.06-17.88,1.63-21.47-5.94-6.55-13.83-10.55-28.4-13.64-43.31-2.71,18.32,3.9,34.38,13.17,50.24-17.38,.22-34.13,.58-50.81,2.25-1.44,.14-2.88,.32-4.32,.41-4.13,.27-6.2,1.7-4.86,6.44,1.04,3.7,.52,7.56-1.58,11-.87,1.43-1.88,2.78-3.77,2.66-2.02-.13-2.61-1.82-3-3.39-1.09-4.37-3.26-8.02-6.87-10.75-1-.75-2.16-1.7-3.42-1.22-1.6,.6-.79,2.2-.8,3.34-.02,3.28,0,6.56-1.65,9.51-1.29,2.3-2.8,4.25-6.02,3.2-2.95-.96-3.63-2.78-3.38-5.8,.67-8.05-3.26-11.95-10.54-11.07-2.45,.3-3.64,1.18-3.05,3.84,.64,2.87,.35,5.75-.39,8.6-.59,2.23-1.59,4.28-4.01,4.62-2.59,.37-3.69-1.71-4.71-3.73-1.71-3.38-3.4-6.78-5.34-10.03-1.15-1.94-3.13-3.41-5.44-2.83-2.96,.75-1.43,3.34-1.24,5.04,.61,5.61-1.07,10.36-4.78,14.46-2.09,2.3-3.94,2.6-5.01-.94-.21-.69-.46-1.37-.68-2.06-3.11-9.58-5.52-10.57-13.7-4.99-2.7,1.84-4.18,1.41-5.52-1.24-.25-.48-.49-.97-.73-1.45q-4.79-9.55-15.41-8.9c-8.49,.5-16.98,1-25.48,1.34-2.82,.11-3.95,.72-2.88,3.83,1.06,3.09,1.09,6.42,.44,9.67-.4,1.98-.95,4.06-3.13,4.71-2.2,.66-3.19-1.31-4.3-2.65-3.24-3.92-6.62-7.71-10.85-10.57-1.92-1.31-4.02-2.54-6.22-3.21-4.54-1.39-6.68,.5-5.77,5.15,.79,4.04,1,7.92-.98,11.62-1.83,3.43-4.07,3.94-6.57,.58-.65-.87-1.26-1.77-1.92-2.63-9.23-12.02-16.51-13.27-29.06-5-10.25,6.76-13.16,5.92-15.85-5.96-5.14-22.67-2.88-44.95,5.19-66.62,2.87-7.7,7.79-14.07,15.04-18.4-9.12,2.95-15.22,9.36-19.14,17.7-8.28,17.59-11.69,36.05-8.22,55.42,.52,2.88,.96,4.72-3.2,4.53-29.99-1.32-59.2-6.44-85.57-21.37-39.91-22.59-65.3-55.9-73.74-101.86-5.51-30.02-10.76-60.21-20.52-89.28-5.35-15.93-13.35-30.1-28.41-39.07-3.15-1.88-6.33-3.59-10.15-3.19-3.41,.36-5.75,2.34-6.69,5.54-.92,3.13,2,3.91,3.89,5.05,4.87,2.93,8.06,7.1,10.14,12.32,3.52,8.87,5.1,18.07,5.03,27.57-.01,1.59,.16,3.57-1.56,4.31-1.62,.69-2.5-1.1-3.5-2.03-7.06-6.57-15.72-10.22-24.58-13.45-14.78-5.39-29.97-9.62-44.52-15.67-2.17-.9-4.36-1.76-6.48-2.77-5.92-2.81-6-3.91-.58-7.76,9.94-7.05,20.62-12.68,32.05-16.94,31.11-11.59,58.2-4.86,80.66,18.94,20.28,21.49,33.37,47.07,39.3,76.14,3.39,16.59,9.42,32.07,21.01,44.61,22,23.8,48.51,29.14,78.61,17.72,5.92-2.24,11.83-4.5,17.72-6.82,23.04-9.06,40.43-24.68,53.9-45.31,19.18-29.4,39.93-57.71,60.95-85.82,3.05-4.08,3.6-7.72,2.18-12.46-7.7-25.79-26.03-41.51-49.48-52.2-6.68-3.05-13.5-1.29-19.79,2.2-7.49,4.15-12.87,10.39-17.58,17.37-7.56,11.2-12.55,23.6-17.2,36.17-.79,2.13-.9,5.4-3.54,5.58-3.07,.21-3.37-3.27-4.41-5.44-4.9-10.2-10.8-19.63-19.52-27.09-17.2-14.72-39.6-15.72-58.02-2.49-10.43,7.5-18.44,17.27-25.89,27.57-1.08,1.5-1.87,4.22-4.24,3.44-1.81-.6-1.46-3.12-1.6-4.85-2.24-26.08-15.81-44.02-38.6-56.37-38.5-20.86-78.93-30.94-122.77-24.81-3.75,.53-7.58,.56-11.37,.77-.69,.04-1.4-.16-2.07-.24-.66-2.19,1.23-2.52,2.23-3.29,36.33-28.15,76.03-50.82,116.86-71.64,27.3-13.92,55.28-26.06,85.26-33.07,25.9-6.05,52.05-8.51,78.88-6.04-1.2,2.29-2.46,4.23-3.27,6.34-1.57,4.05-1.14,7.92,2.29,10.89,3.16,2.74,9.58,2.28,13.7-.88,3.41-2.62,5.44-6.01,3.81-10.38-1.7-4.59-5.04-8.16-10.11-7.38-4.56,.7-5.15-1.09-5.42-4.69-.68-9.26,3.31-15.13,10.56-15.18,7.86-.05,14.46,7.29,13.96,15.56-.08,1.26-.04,2.74-.68,3.71-4.11,6.21-.97,8.16,4.78,10.41,16.96,6.62,29.06,19.31,39.35,33.83,12.96,18.29,25.02,37.27,40.77,53.44,8.61,8.85,17.65,17.21,28.78,22.83,11.61,5.86,16.6,4.78,24.91-5.1,11.92-14.16,16.94-30.99,17.94-49.08,1.73-31.32-5.76-61.06-16.75-90.02-13.8-36.37-33.59-69.22-58.8-98.85-2.45-2.88-5.52-3.2-8.72-3.5-10.93-1.02-21.64,.97-32.37,2.58-10.75,1.6-21.49,2.99-32.41,1.78-16.07-1.78-29.79-8.42-41.42-19.54-1.69-1.62-3.99-3.3-2.99-5.88,.94-2.44,3.74-1.69,5.81-1.89,24.58-2.43,48.75-6.67,71.69-16.24,2.44-1.02,6.92-.75,6.42-4.89-.52-4.32-3.79-5.64-8.24-5.79-49.03-1.61-91.78-19.76-129.9-49.85-5.41-4.27-10.35-9.06-14.48-14.61-1.19-1.6-2.51-3.52-1.46-5.48,1.22-2.28,3.56-1.1,5.39-.79,17.86,3,35.23,8.13,52.75,12.54,26.89,6.76,54.18,8.99,81.82,8.06,3.47-.12,4.93-1.18,4.75-4.64-.06-1.24-.01-2.69,.55-3.73,5.54-10.16-1.01-14.71-8.34-19.73-29.29-20.03-50.6-46.71-64.69-79.21-2.01-4.64-3.7-9.42-5.45-14.17-.55-1.5-1.3-3.26,0-4.62,1.51-1.57,3.39-.63,5.08-.07,5.42,1.81,9.99,5.04,14.27,8.72,16.04,13.8,31.29,28.52,48.33,41.15,10.63,7.88,22.16,14.32,33.37,21.3,8.85,5.51,17.88,4.79,27.16,2.25,8.57-2.35,16.62-6.07,24.72-9.7,3.82-1.71,4.4-4,3.57-7.69-3.03-13.43-9.16-25.49-16.13-37.17-5.1-8.54-10.53-16.88-15.72-25.36-1.18-1.93-3.14-4.33-1.28-6.35,1.59-1.73,4.16-.16,6.08,.6,23.94,9.5,44.31,23.57,58.05,45.96,2.77,4.51,4.88,9.33,5.16,14.71,.18,3.42,1.59,4.38,4.86,3.37,2.7-.83,6.38,.25,5.28-5.09-2.67-13-6.75-25.51-11.75-37.75-1.98-4.86-4.08-9.66-6.03-14.53-.66-1.63-2.03-3.53-.72-5.1,1.48-1.77,3.72-.71,5.61-.31,12.32,2.62,21.59,9.8,28.94,19.69,8.12,10.92,13.27,23.23,16.01,36.48,.93,4.51,2.63,6.58,7.55,6.97,12.4,1,24.03,4.98,35.06,10.69,9.7,5.02,17.22,12.37,20.6,22.79,8.13,25.02,37.16,29.42,54.75,11.88,4.86-4.85,9.39-10.03,14.08-15.06,3.74-4.01,8.01-7.33,12.99-9.66,14.47-6.77,28.77-2.26,34.83,12.41,7.46,18.02,9.58,37.13,6.18,56.4-2.34,13.3-11.66,22.63-21.05,31.51-12.32,11.65-26.47,20.81-41.59,28.31-36.3,18-73.36,34.35-110.72,49.99-11.11,4.65-22.78,7.95-34.72,10.11Zm-78.18-108.69c.05,2.89,.18,5.75,.9,8.6,5.3,21.02,29.28,36.38,51.78,32.61,20.92-3.5,36.6-15.34,49.29-31.9,6.54-8.53,7.11-17.42,3.73-27.09-8.37-23.98-35.07-38.99-61.53-34.57-24.97,4.17-43.86,26.56-44.18,52.35Zm27.39,431.3c-.43-.2-.85-.4-1.28-.6-17.08,33.52-27.74,68.6-26.47,106.9,1.14,34.27,19.15,92.89,29.24,107.55-5.45-18.87-9.56-36.99-13.99-55.03-10.63-43.29-10.58-86.3,2.8-129.03,3.12-9.96,6.46-19.86,9.69-29.79Zm127.67-421.9c3.81-.59,5.84-2.38,8.01-3.83,1.48-.99,2.22-1.54,3.63,.68,9.16,14.43,22.62,21.09,39.51,19.65,14.58-1.24,33.64-16.51,38.45-29.87-1.17,.95-2.12,1.76-3.1,2.52-17.8,13.79-44.57,21.66-69.96,3.96-2.41-1.68-2.84-2.81-1.78-5.43,1.13-2.8,2.33-5.82,1.17-9.93-3.56,4.03-4.51,8.36-6.54,12.08-2.11,3.87-5.62,6.39-9.39,10.18Zm-61.97,144.89c-1.58,2.27-1.38,4.11-.67,5.76,2.02,4.68-1.3,5.67-4.49,6.55-3.6,.99-6.2-.24-6.47-4.27-.3-4.47-2.55-2.52-4.51-.96,.53-2.33,1.06-4.06,1.29-5.83,.18-1.4,.38-3.3-1.23-3.81-1.81-.58-2.28,1.37-2.86,2.6-1.7,3.65-4.4,6.11-8.21,7.38-3.08,1.03-3.53,3.52-1.78,5.51,2.37,2.68,5.67,5.34,9.45,4.07,4.23-1.43,7.78-3.23,12.1,.2,1.79,1.42,5.28,.31,7.07-1.43,2.85-2.78,6.4-1.09,9.08-2.1,5.5-2.08,4.99,3.06,7.27,4.7,.87,.63,1.53,1.54,2.38,2.21,4.85,3.78,4.79,5.69-.61,8.89-4.78,2.84-9.56,2.91-14.2-.54-1.18-.88-2.58-2.93-4.08-1.31-1.49,1.61,.16,3.45,1.21,4.81,6.1,7.94,18.72,6.63,24.47-2.49,4.88-7.74,4.15-9.86-4.06-13.44-2.86-1.25-7.11-3.45-5.86-6.51,1.63-4,1.53-9.09,6.06-11.67q-5.2-3.75-9.3-11.82c-.69-1.37-1.69-2.25-2.91-1.18-4.37,3.84-8.28,2.21-12.26-.61-1.09-.77-2.42-1.11-3.41,.13-.95,1.18-.47,2.45,.43,3.44,2.24,2.45,5.05,5.22,8.22,4.61,5-.97,7.05,1.89,9.83,4.84,2.5,2.65,2.94,4.61,.27,7.27-2.66,2.65-5.14,2.21-7.58-.06-1.57-1.46-2.95-3.12-4.66-4.95Zm118.55,308.68c-6.85,60.92-31.71,112.13-80.62,150.53,53.68-35.89,79.7-86.56,80.62-150.53Zm-188.54-132.7c-.73-2.04-2.38-2.11-3.59-2.63-17.23-7.38-32.23-18.05-44.72-31.9-10.29-11.4-19.6-23.67-29.63-35.31-6.88-7.98-14.65-15.07-23.61-20.75,13.19,12.74,24.01,27.42,35.1,41.84,8.76,11.39,18.24,21.98,29.55,30.87,10.93,8.58,23.06,14.6,36.9,17.88Zm44.1,281.29c5.39-38.96-.54-77.48-2.9-116.11-3.94,38.86,.89,77.49,2.9,116.11ZM205.58,521.6c15.08-15.83,68.31-97.04,68.83-104.45-23.86,34.51-46.8,69.21-68.83,104.45Zm33.5-121.47c-16.59-2.22-79.16,36.17-100.36,51.42,33.57-15.82,63.89-37.93,100.36-51.42Zm446.65,148.29c-9.38-36.35-23.29-71.08-35.96-106.24,9.98,36.11,20.39,72.08,35.96,106.24Zm61.84-53.73c-16.34-26.71-41.36-44.36-65.38-63.05,22.13,20.67,44.26,41.33,65.38,63.05Zm-77.01-86.82c7.78,9.01,69.83,45.98,78.15,46.69-26.55-15.67-51.13-33.14-78.15-46.69Zm-345.39,46.28c11.58,24.81,28.99,45.41,47.26,65.38-13.4-23.48-31.9-43.3-47.26-65.38Zm-189.05,41.51c11.85-4.38,62.81-43.55,69.1-53.43-24.66,17.2-46.66,35.6-69.1,53.43Zm163.96-59.08c-.5,28.73-3.13,57.27-4.03,85.88,6.05-28.43,6.72-57.12,4.03-85.88Zm220.81-5.7c-2.42,10.57,3.14,16.94,12.46,15.84,5.45-.64,9.33-3.66,12.32-8.01,1.71-2.49,2.76-5.29,1.24-8.15-1.6-3.02-4.86-2.74-7.69-3.01-1.02-.1-2.32-.16-2.68,1.2-.36,1.36,.85,1.78,1.74,2.36,4.24,2.81,4.27,4.42,.12,7.56-5.55,4.22-11.69,2.95-15.04-3.11-.68-1.24-1.32-2.5-2.47-4.67Zm20.11,56.56c9.05-.17,16.42-6.82,16.3-14.19-.02-1.15,.52-2.8-1.19-3.17-1.43-.31-1.5,1.24-1.98,2.11-6.37,11.41-16.28,12.86-25.55,3.81-1.12-1.09-2.02-3.96-4.05-2.21-1.68,1.45-.44,3.83,.8,5.36,4.19,5.17,9.68,7.93,15.68,8.28Zm15.62,119.73c5.18,1.42,9.77,.36,14.08-2.34,1.12-.7,2.15-1.52,1.39-3.04-.6-1.19-1.64-1.25-2.74-.71-5.32,2.57-10.11,1.58-14.59-2.03-.82-.66-1.94-1.13-2.94-.27-.81,.7-.32,1.65-.24,2.52,.13,1.31,1.94,2.55-.75,3.86-3.2,1.56-2.97,6.03,.15,9.39,2.11,2.27,5.14,3.95,7.57,1.48,3.12-3.18,1.08-6.22-1.93-8.87Zm-9.82-53.2c11.65,.11,17.22-6.41,14.9-17.54-.34-1.62,.01-4.44-2.38-4.09-2.5,.36-1.29,3.01-.99,4.54,.92,4.65,.59,8.63-4.12,11.15-5.93,3.18-11.75,1.57-15.17-4.31-.7-1.21-1.04-3.1-2.92-2.46-1.62,.55-1.44,2.27-1.33,3.75,.43,5.8,4.54,8.89,12,8.96Zm-8.41-93.63c7.29-.06,14.15-6.19,15.04-13.02,.14-1.05,.53-2.35-.62-2.92-1.62-.8-2.11,.77-2.78,1.77-.6,.9-1.12,1.85-1.75,2.72-5.53,7.72-12.94,8.2-19.4,1.3-.98-1.04-1.66-3.4-3.67-1.73-1.47,1.22-.9,3.02,.03,4.44,3.21,4.89,7.9,7.15,13.15,7.44Zm52.42,26.7c14.03-12.86,22.22-28.74,24.37-47.64-7.45,16.21-13.6,33.09-24.37,47.64Zm-37.14,17.88c-1.3,.68-1.84,.82-2.17,1.15-9.12,9.43-15.62,9.07-23.72-1.36-.65-.84-1.18-2.09-2.46-1.32-1.02,.62-.8,1.91-.73,2.97,.51,8.25,12.72,14.53,20.57,10.43,4.47-2.34,7.95-5.61,8.51-11.87Zm-31.56-121.6c7.37,.1,13.09-4.79,13.17-10.79,.03-2.1-.26-4.1-2.94-4.31-2.35-.18-3.05,1.32-3.27,3.37-.51,4.9-4.09,6.01-8.12,6.06-2.31,.03-4.63-.62-6.95-.9-.97-.12-2.23-.99-2.78,.51-.44,1.22,.6,2.02,1.41,2.66,2.94,2.32,6.41,3.15,9.48,3.4Zm76.14,246.02c0-1.76,.07-2.49-.01-3.2-.27-2.25,.16-5.59-2.66-5.76-2.91-.17-2.88,3.19-3.17,5.42-.67,5.16-.82,10.39-2.71,15.36-.63,1.65-1,3.89,1.1,4.75,2.47,1.01,3.44-1.22,4.35-2.95,2.4-4.59,2.83-9.61,3.1-13.62Zm-67.47-211.06c6.83,.3,13.32-3.16,15.37-7.8,.71-1.6,1.85-3.64-.2-4.84-1.54-.9-2.4,1.01-3.35,2.01-6.54,6.92-10.44,7.39-18.27,2.15-.88-.59-1.84-1.65-2.84-.89-1.19,.91-.69,2.38-.11,3.5,2.15,4.15,5.97,5.5,9.39,5.87Zm137.81-285.78c-.59-10.08-5.91-17.79-11.89-18.16-5.69-.35-12.53,5.77-14.09,12.96,4.73-2.63,7.57-8.97,13.76-7.23,5.72,1.61,8.27,7.12,12.22,12.44Zm35.78,364c-3.05-10.12-24.55-38.81-31.09-41.55,10.61,13.69,18.44,28.98,31.09,41.55Zm-171.56-105.69c-1.02,2.12-1.62,3.99-2.7,5.52-3.04,4.29-8.17,4.55-14.43,.92-1.17-.68-2.44-2.21-3.72-.63-1.12,1.38,.1,2.78,1.03,3.8,2.48,2.72,5.48,4.85,9.19,5.2,4.87,.45,8.83-1.6,11.29-5.85,1.62-2.79,2.72-5.83-.66-8.95Zm-41.57-84.1c-.11-1.6,.05-3.63-1.81-4.11-2.05-.53-1.85,1.69-2.38,2.87-3.27,7.21-6.51,7.88-13.09,2.64-.95-.76-1.87-2.1-3.2-1.14-1.18,.86-.7,2.25-.29,3.48,1.46,4.45,6.33,7.51,10.95,6.85,5.25-.75,9.78-5.64,9.81-10.59Zm-23.2-3.01c.01-1.44,.35-2.69-.83-3.29-1.49-.76-2.36,.39-3.12,1.4-.86,1.16-1.57,2.43-2.38,3.63-1.83,2.7-3.92,4.23-7.19,1.94-1.46-1.02-3.35-2.17-4.65,.11-1.1,1.94,.26,3.5,1.68,4.67,2.58,2.12,5.41,3.88,8.92,2.32,4.79-2.13,6.69-6.31,7.57-10.77Zm18.9,89.59c5.88,0,9.96-1.94,12.77-6.21,.89-1.35,1.92-3.11,.58-4.46-1.71-1.73-2.89,.31-3.99,1.3-3.48,3.12-7.42,4.25-12.04,3.32-1.77-.36-4.35-1.83-5.13,.83-.77,2.59,1.74,3.66,3.85,4.33,1.53,.49,3.15,.72,3.95,.89Zm90.9,225.76c.1-2.4-.57-4.49-3.16-4.89-2.49-.38-3.36,1.6-3.83,3.62-.94,4.01-1.85,8.03-2.7,12.06-.25,1.2-.62,2.62,.83,3.33,1.61,.79,2.78-.26,3.67-1.41,2.9-3.75,4.91-7.9,5.2-12.72Zm-82.2-206.95c4.21-.37,6.63-3.56,8.11-7.63,.57-1.57,1.72-3.73-.16-4.95-2.03-1.32-3.11,.92-4.3,2.12-2.28,2.3-4.32,5.02-8.21,3.49-1.31-.51-2.77-1.4-3.55,.67-.56,1.5-.09,2.79,1.13,3.84,1.84,1.59,3.97,2.38,6.98,2.46Zm17.24,113.52c2.41-.24,6.31,.59,6.63-2.63,.32-3.18-3.45-3.52-6.15-3.83-4.47-.51-8.94-.95-13.42-1.37-1.03-.1-2.37-.46-2.88,.74-.66,1.56,.79,2.23,1.82,2.83,4.26,2.49,8.87,3.9,14,4.26Zm36.53,170.1c1.32-.14,3.28,.15,3.83-1.79,.43-1.54-1.26-1.97-2.29-2.57-3.16-1.85-5.95-4.07-7.8-7.31-.88-1.54-2.17-2.58-3.99-1.96-2.18,.73-2.11,2.7-1.98,4.52,.32,4.42,6.32,8.95,12.23,9.11ZM322.09,99.63c4.99-1.51,7.83-5.35,10.23-9.63,.93-1.66,1.31-3.52-.4-4.89-1.98-1.59-3.85-.55-5.16,1.05-2.49,3.04-4.91,6.16-7.04,9.45-1.5,2.32-.17,3.61,2.36,4.02Zm236.53,22.38c-.5-3.48-1.96-6.37-5.83-6.55-3.14-.14-4.87,2.06-5.15,5.09-.32,3.51,2.84,7,6.08,6.83,3.32-.17,4.54-2.39,4.91-5.37Zm-65.1,319.37c2.52,3.71,4.02,4.84,7.13,5.49,5.09,1.06,10.54-1.98,11.52-6.45,.35-1.61,.59-3.49-1.07-4.36-1.78-.94-2.43,.97-3.16,2.06-2.44,3.65-5.8,4.5-9.87,3.56-1.36-.31-2.68-1.13-4.53-.3Zm-155.97-205.67c-.15-.92-.25-2-.5-3.04-.56-2.38-1.41-4.83-4.46-4.28-2.69,.48-2.88,2.86-2.68,5.14,.14,1.61,.08,3.31,.59,4.8,.72,2.11-.97,6.02,2.75,5.94,3.22-.07,3.31-3.73,4.02-6.27,.19-.68,.17-1.42,.26-2.29Zm168.65,73.85c4.67,.19,6.97-1.34,8.3-4.2,.67-1.45,.67-3.42-1.61-2.47-4.44,1.85-8.01,.18-11.73-1.8-1.14-.6-2.68-1.8-3.77-.01-.85,1.39-.13,2.83,.84,3.96,2.47,2.86,5.65,4.33,7.98,4.53Zm65.1,260.1c-.18-1.78-.1-4.01-2.43-4.2-2.09-.17-2.95,1.81-3.44,3.56-.77,2.75-.74,5.82-2.95,7.97-1.38,1.35-2.76,2.44-.65,4.27,2.03,1.76,3.69,.96,5.09-.74,2.58-3.14,3.94-6.82,4.38-10.88Zm-57.45-153.24c-.11-.8,.48-2.26-.95-2.98-1.42-.72-2.44,.27-3.18,1.29-2.57,3.56-5.77,6.36-9.64,8.42-.8,.43-1.64,1.06-1.35,2.07,.33,1.13,1.35,1.51,2.5,1.65,4.38,.52,12.03-5.58,12.61-10.45Zm31.05,203.9c-1.44,.13-1.89,1.22-2.24,2.52-1.39,5.19,3.34,12.34,8.64,13.01,.91,.11,1.89,.26,2.48-.54,.68-.91-.06-1.67-.61-2.35-2.39-2.98-4.14-6.27-5.24-9.94-.41-1.37-1.13-2.7-3.04-2.69Zm41.2-20.45c.52,4.34,4.01,5.65,7.93,6.28,2.44,.39,4.35-.53,4.65-3.27,.29-2.67-5.03-6.78-8.71-6.82-2.29-.03-3.89,.78-3.87,3.82Zm-59.18,115.43c.69,4.5,1.53,8.57,4.89,11.53,1.16,1.02,2.67,1.53,3.99,.71,1.58-.99,.29-2.25-.24-3.27-1.53-2.92-2.35-6.04-2.97-9.25-.34-1.76-.66-3.94-3.15-3.56-2.19,.33-2.55,2.26-2.53,3.84Zm25.66-61.53c-.97,.04-1.65,.47-2.12,1.35-1.88,3.56,3.07,12.45,7.2,12.91,2.17,.24,3.22-.74,2.44-2.8-1.19-3.18-2.63-6.27-4.06-9.35-.65-1.39-1.86-2.13-3.46-2.12ZM325.11,237.46c-.36-2.78,.56-6.24-3.27-6.65-2.46-.27-3.76,1.79-3.99,4.24-.07,.72-.18,1.46-.06,2.16,.49,3.04-.55,7.85,3.65,7.86,4.36,.02,2.64-5.02,3.67-7.61Zm269.66,427.98c.17-1.4,.15-2.66-.9-3.61-.73-.66-1.49-.16-1.82,.4-2.6,4.32-5.18,8.66-7.63,13.06-.53,.94-.36,2.19,.75,2.86,1.14,.69,2.13,0,2.92-.69,3.72-3.21,5.42-7.55,6.68-12.01ZM255.69,424.89c-7.51,4.92-14.04,10.88-19.43,18.08,8.26-4.04,15.2-9.57,19.43-18.08Zm134.09,245.67c1.55-.24,4.02,.14,4.78-2.1,.66-1.96-1.54-2.59-2.85-3.4-1.33-.83-2-1.99-2.47-3.41-.42-1.27-.43-3.19-2.58-2.68-1.52,.36-2.32,1.67-2.77,3.1-1.33,4.2,1.43,8.42,5.89,8.49Zm-132.51-186.98c6.55-7.52,11-18.67,9.82-23.83-3.69,4.21-9.66,18.26-9.82,23.83ZM426.15,40.34c-.69-2.71-2.41-4.8-5.35-5.04-2.86-.23-4.88,1.54-4.94,4.47-.06,2.96,1.52,5.4,4.66,5.57,3,.16,4.88-1.79,5.62-5Zm132.2,680.82c2.15,.01,4.15,.1,4.75-1.63,.65-1.86-1.39-2.24-2.63-2.76-2.14-.89-3.36-2.56-4.53-4.43-.89-1.42-2.15-2.58-4.02-1.4-1.63,1.03-1.88,2.7-1.32,4.3,1.33,3.85,4.41,5.46,7.75,5.91ZM345.69,98.16c-.04-1.49-.25-2.94-1.87-3.55-1.08-.41-2.26-.26-2.88,.77-2.36,3.94-3.26,8.31-3.33,12.83-.02,1.09,1.27,1.44,2.05,.9,3.64-2.49,5.21-6.25,5.99-10.42,.03-.18,.03-.36,.04-.54Zm54.62,523.03c-3.81,.62-5.56,3.36-6.22,6.91-.44,2.37,1.06,3.3,3.19,3.05,3.67-.44,6.62-2.29,7.32-5.99,.49-2.58-1.83-3.54-4.3-3.97Zm-135.69,157.68c1.5-.43,4.4,.71,4.85-1.59,.5-2.51-2.52-2.4-4.23-2.98-2.87-.97-5.81-1.72-8.71-2.59-1.38-.42-2.51-.13-3.16,1.19-.72,1.45,.17,2.42,1.27,3.11,2.93,1.87,6.23,2.58,9.98,2.86Zm284.32-196.03c1.25,0,2.78,.16,3.36-1.1,.8-1.78-1-2.41-2.05-3.22-1.98-1.52-4.06-2.9-6.06-4.37-1.09-.8-2-2.5-3.58-1.28-1.42,1.1-1.44,2.93-.8,4.44,1.68,3.98,5.3,4.98,9.14,5.53Zm-9.71,14.32c-4.27-1.85-8.52-3.73-12.81-5.53-1.25-.52-2.86-1.63-3.72,.3-.68,1.51,.45,2.87,1.6,3.72,4.45,3.26,9.36,4.25,14.93,1.51Zm-29.57,212.8c4.83,2.22,9.1,4.18,13.62,6.26-2.43-12.64-2.75-12.79-13.62-6.26ZM486.72,47.9c-3.02,.9-7.39,.58-8.38,5.31-.36,1.71,1.13,2.9,3.02,3.02,2.79,.18,9.8-3.81,9.65-5.55-.2-2.27-1.82-2.84-4.29-2.78Zm-167.9,29.79c-.34-2.15-1.69-3.74-4-2.65-3.33,1.57-5.79,4.33-6.65,8.02-.36,1.56,.14,3.36,2.38,3.44,2.3,.08,8.28-6.19,8.27-8.8Zm158.44,291.16c2.76-.5,5.8-1.37,5.64-4.61-.18-3.69-3.18-2.3-5.36-1.81-1.46,.32-2.81,.16-4.15-.53-.92-.48-2.05-1.15-2.88-.02-.69,.94-.28,2.04,.21,3.03,1.34,2.7,3.66,3.77,6.53,3.95ZM356.01,105.33c-.4,.22-1.23,.39-1.57,.89-1.98,2.95-3.89,5.96-5.71,9.01-.29,.5-.23,1.55,.11,2.01,.92,1.22,2.27,.88,3.41,.33,3.93-1.88,5.63-5.3,6.03-9.42,.12-1.27-.47-2.45-2.28-2.83Zm125.02-65.35c-.47-3.27-2.8-4.71-5.87-4.99-2.35-.21-3.78,1.26-3.68,3.59,.14,3.31,2.1,5.36,5.37,5.55,2.47,.14,3.88-1.49,4.18-4.15Zm24.76,437.16c2.41,.1,4.68-.31,6.63-1.82,1.04-.8,2.08-1.84,1.36-3.16-.75-1.39-1.8-.17-2.75,.12-2.15,.65-4.25,.23-6.38-.32-2.47-.64-6.13-2.43-6.65,1.32-.44,3.12,3.57,3.28,6.18,3.75,.53,.1,1.08,.09,1.61,.12Zm-310.59,2.88c-8.18,4.24-14.65,10.51-21.3,16.57,8.33-4,15.88-8.96,21.3-16.57ZM435.09,50.35c-.55-2.35-2.07-3.51-4.27-3.35-3.01,.22-5.83,1.23-6.24,4.74-.27,2.31,1.35,3.96,3.58,3.71,3.11-.36,5.74-1.9,6.93-5.1Zm-166.46,401.04c4.44-3.52,7.3-8.05,8.69-13.51,.27-1.08,.31-2.24-.86-2.79-1.23-.58-2.16,.31-2.6,1.24-2.25,4.77-5.14,9.32-5.23,15.06Zm33.38-279.57c.51,1.8-1.17,5.08,1.66,5.37,2.85,.29,2.72-3.23,3.44-5.31,.29-.82,.28-1.79,.22-2.67-.15-2.23,.74-5.61-2.09-5.98-3.38-.44-2.24,3.3-2.92,5.26-.34,.99-.22,2.13-.31,3.33Zm231.54,450.51c-1.4,.31-2.3,1.32-2.52,2.9-.47,3.3,4.86,8.36,8.22,7.85,.74-.11,1.35-.32,1.53-1.2,.35-1.63-5.5-9.63-7.23-9.55Zm-153.8,2.2c-2.38,.36-3.45,1.71-3.1,3.75,.6,3.49,2.73,5.82,6.31,6.23,2.04,.24,2.93-1.36,2.41-3.18-.88-3.09-2.05-6.11-5.62-6.81Zm2.55,23.84c2.54-.42,5.12-1.21,5.2-4.33,.07-2.76-2.25-3.6-4.53-3.41-2.56,.22-5.31,1.18-5.38,4.2-.06,2.55,2.28,3.36,4.71,3.54Zm-173.81-178.32c6.59-4.41,13.27-8.73,17.03-16.13-6.75,4.25-12.61,9.43-17.03,16.13Zm146.01-234.06c-.11-1.04-.07-2.14-.35-3.16-.65-2.38-1.32-5.9-4.14-5.3-3.39,.73-1.33,4.07-1.09,6.35,.09,.88,.38,1.74,.64,2.59,.58,1.88,.03,5.07,3.07,4.6,2.31-.36,1.44-3.24,1.86-5.09Zm157.95,264.45c2.23-.57,5.8,.52,5.73-2.66-.08-3.66-4-2.93-6.44-3.16-2.17-.2-5.7-.25-5.63,2.61,.09,3.72,4.1,2.37,6.34,3.22Zm-101.62,101.34c0-3.2-1.95-4.24-4.52-4.27-2.45-.03-4.11,1.34-4.26,3.86-.17,2.85,1.61,4.33,4.25,4.43,2.7,.1,4.28-1.43,4.52-4.02Zm-100.58-364.27c-.26-2.82-2.02-4.06-4.66-4.13-2.56-.07-4.9,.72-4.79,3.74,.1,3.02,2.43,4.22,5.18,4.32,2.57,.1,3.85-1.5,4.27-3.93Zm85.02,379.11c2.88-.57,3.9-2.56,3.78-5.09-.12-2.54-1.34-4.58-4.19-4.61-2.7-.03-3.7,1.99-3.72,4.3-.03,2.76,1.34,4.71,4.12,5.39Zm180.28-61.64c.28,2.39,.22,5.28,3.41,5.12,2.53-.13,3.23-2.58,3.09-4.87-.16-2.66-.47-6.28-3.52-6.26-2.86,.02-2.53,3.71-2.98,6.02Zm-180.43,90c-2.65-.12-4.7,.51-4.81,2.91-.16,3.51,2.68,4.27,5.43,4.67,2.59,.38,4.32-.87,4.24-3.5-.09-3.27-2.88-3.62-4.86-4.07ZM262.66,163.13c-.03,1.51-.45,2.77,.79,3.33,1.13,.51,2.11-.21,2.83-1.04,1.65-1.93,3.01-4.04,3.51-6.58,.33-1.67,.18-3.53-1.44-4.27-2.01-.92-2.89,.96-3.51,2.4-.92,2.14-1.56,4.39-2.18,6.17Zm18.79-3.09c.03-1.36,.39-2.97-1.49-3.49-1.47-.41-2.45,.58-2.92,1.78-1.17,2.99-2.37,6-2.55,9.26-.05,.86-.12,1.9,.84,2.34,1.02,.47,1.72-.29,2.19-1.04,1.72-2.74,3.1-5.64,3.93-8.85Zm-29.27-.23c-.07,1.75-.21,3.52,1.5,3.89,1.66,.36,2.52-1.14,2.92-2.59,.76-2.78,3.89-5.16,1.6-8.42-.37-.52-1.82-.86-2.4-.56-3.2,1.67-2.78,5.13-3.62,7.68Zm41.36,4.75c-.39-1.88,.7-4.67-1.9-4.99-2.14-.26-2.13,2.4-2.67,4.01-.11,.33-.18,.7-.17,1.05,.07,2.98-2.91,8.01,.41,8.42,3.57,.43,3.56-5.2,4.34-8.5Zm-93.21,585.49c.94,.06,1.8-.13,2.3-1.01,.55-.96-.01-1.84-.61-2.41-2.46-2.33-4.9-4.71-7.59-6.75-1.69-1.28-2.08,.3-2.11,1.66-.07,3.06,4.97,8.37,8.01,8.5ZM538.03,94.64c-2.55,.26-3.93,1.73-3.74,4.25,.18,2.32,1.38,4.3,3.96,4.18,2.67-.12,4.34-2.1,4.28-4.63-.06-2.46-2.16-3.48-4.51-3.8Zm-100.18-34.63c-2.47,.68-4.95,1.74-4.76,4.85,.15,2.46,2.33,3.02,4.48,2.79,2.5-.27,4.76-1.15,4.54-4.22-.17-2.36-1.91-3.3-4.26-3.42Zm-135.36,.87c-2.46-.01-4.32,1.07-4.52,3.58-.22,2.73,1.89,3.72,4.18,3.85,2.34,.13,4.39-.76,4.45-3.49,.06-2.6-1.6-3.8-4.11-3.93Zm-36.52,701.55c2.72-.07,4.54-.67,5.6-2.64,.65-1.2,.71-2.52-.21-3.54-1.82-2.02-3.19,.45-4.79,.66-1.24,.17-2.47,.48-3.68,.81-.85,.23-1.85,.42-1.96,1.54-.11,1.09,.82,1.54,1.6,1.89,1.3,.58,2.66,.99,3.45,1.27Zm50.15-593.85c1.14,2.84-.42,8.91,2.2,8.63,3.64-.39,2.54-5.74,2.31-9.2-.14-2.04-.88-4.56-3.1-4.28-2.16,.28-1.09,2.97-1.41,4.84Zm201.82,575.26c-.14-2.51-1.56-3.88-3.81-3.83-2.47,.05-4,1.5-4.01,4.17-.01,2.65,1.28,4.17,3.96,3.98,2.6-.18,3.68-1.97,3.86-4.32ZM231.68,150.31c2.15-.27,3.93-1.2,3.8-3.58-.13-2.35-1.73-4.01-4.11-4.13-2.25-.11-3.73,1.39-3.74,3.64-.01,2.49,1.6,3.8,4.06,4.07Zm139.54,497.2c-.93-2.49-2.75-4.19-5.46-4.31-1.95-.08-3.58,1.15-3.3,3.36,.35,2.72,2.4,3.9,4.95,4.01,1.95,.08,3.51-.67,3.8-3.06Zm-51.86,84.65c3.97,.43,6.24,.21,7.38-2.46,.61-1.43,.67-2.88-.63-3.94-1.08-.89-2.82-1.03-3.42,.01-1.36,2.38-3.27,2.74-5.71,3.01-1.68,.19-1.64,1.89-.26,2.67,1.19,.67,2.72,.73,2.64,.71Zm-76.89,35.14c1.63-.43,4.71-.06,3.98-2.3-1.06-3.24-4.87-3.11-7.82-3.55-1.6-.24-3.88-.02-3.27,2.24,.93,3.43,4.33,3.17,7.12,3.61Zm5.36-616.33c-.27-2.13-.94-4.65-3.12-2.81-2.96,2.51-3.26,6.65-3.72,10.41-.1,.84,.76,1.45,1.42,1.08,3.44-1.93,4.61-5.3,5.41-8.67Zm322.83,495.18c-.8,.03-1.37,.41-1.56,1.19-.52,2.16,.37,3.84,1.9,5.26,1.6,1.49,3.33,2.85,5.71,2.13,.55-.17,1.17-.89,1.3-1.46,.34-1.45-5.8-7.29-7.35-7.12Zm-321.32,103.25c-1.64,.28-4.59-.51-4.54,2.05,.07,3,3.12,3.44,5.66,3.52,1.75,.06,4,.13,4.03-2.32,.04-3.3-2.63-3.21-5.15-3.24Zm321.48-71.8c-1.36-2.16-2.42-4.88-5.54-5.09-1.86-.13-3.06,1.22-2.78,3.12,.46,3.07,2.49,4.66,5.55,4.66,1.51,0,2.77-.7,2.77-2.69ZM282.38,411.91c2.17-.52,4.24-1.52,4.47-4.27,.18-2.14-1.21-3.47-3.22-3.39-2.93,.12-4.41,2.17-4.58,4.93-.11,1.9,1.15,2.86,3.33,2.74Zm2.92,341.93c2.68-.23,5.18-.81,5.48-3.99,.14-1.51-1.06-3.24-2.57-2.64-2.51,1.01-6.13,1.35-6.83,4.36-.55,2.35,2.26,2.04,3.91,2.27ZM490.15,63.95c-2.69-.01-4.25,1.42-4.3,3.83-.06,2.52,2.04,3.07,4.12,3.08,2.07,0,4.13-.51,4.23-3.01,.1-2.61-1.78-3.63-4.04-3.9Zm-194.71-9.14c-.07-2.65-1.89-3.7-4.13-4.04-1.95-.3-3.66,.36-3.7,2.72-.04,2.77,1.56,4.33,4.24,4.5,2.04,.13,3.33-1.01,3.59-3.18Zm-8.88,371.65c-.15,1.89-.33,3.96,1.81,4,3.28,.06,3.45-3.14,4.26-5.32,.59-1.59,.03-3.62-1.92-3.68-3.35-.11-3.44,2.95-4.15,4.99Zm9.6,342.65c-1.79-2.38-4.26-3.99-7.38-4.52-1.41-.24-2.72,.23-2.29,1.98,.81,3.23,3.39,4.5,6.39,4.87,1.38,.17,2.93-.06,3.28-2.32Zm212.96,18.58c.39-3.28,.73-5.56,.92-7.85,.16-1.92-.28-3.98-2.48-4.02-2.64-.05-2.89,2.29-2.7,4.31,.27,2.71,1.51,4.98,4.26,7.56Zm-277.68-39.82c1.07,0,2.82-.59,2.32-1.34-1.84-2.73-3.98-5.39-6.5-7.49-.98-.82-2.04,1.15-1.9,2.4,.4,3.58,2.45,5.78,6.08,6.43Zm298.4-57.56c-3.99-2.21-6.82-3.83-9.71-5.34-1.46-.77-2.88-.49-3.57,1.1-.73,1.69,.51,2.74,1.77,3.38,3.18,1.62,6.52,2.24,11.5,.86Zm-208.88,50.96c-1.84-1.95-4.36-2.35-6.8-2.47-1.72-.08-2.62,1.34-2.1,3,.74,2.37,2.55,3.5,5.03,3.01,1.85-.37,3.29-1.44,3.87-3.54Zm-98.28,12c-1.62,.07-3.97,.19-3.5,1.7,1.14,3.71,5.11,3.12,8.04,3.97,1.01,.29,3.25,.43,2.67-1.3-1.1-3.24-4.44-3.71-7.21-4.37Zm379.47-173.84c-1.04-2.26-.72-6.02-4.35-6.89-1.77-.43-1.98,1.76-1.9,3.18,.17,3.15,1.69,5.59,4.73,6.5,1.32,.4,1.45-1.2,1.52-2.78Zm-39.08-52.51c.24,4.56,1.4,7.68,5.68,8.69,1.04,.25,2.35,.64,3.05-.31,1.02-1.38-.34-2.37-1.21-3.11-2.12-1.83-3.72-4.41-7.52-5.27Zm-263.9,213.61c1.92-.38,4.61-.4,4.37-2.94-.23-2.36-2.83-2.41-4.83-2.27-1.91,.13-4.62,.05-4.37,2.73,.23,2.4,2.96,2.08,4.84,2.48Zm233.82-79.05c-1.4-1.29-2.88-2.88-4.59-4.17-1.38-1.05-2.79-4.07-4.67-1.81-1.6,1.92,.62,3.95,2.22,5.41,1.5,1.36,3.37,2.11,5.38,2.35,.93,.11,1.8-.17,1.66-1.77Zm-371.94,22.49c-.47-2.83-.29-6.15-3.83-6.99-1.44-.34-1.99,1.49-1.73,2.75,.57,2.78,.82,6.16,3.82,7.24,2.02,.73,1.52-1.74,1.75-3Zm495.87-263.26c-1.9,.18-3.09,1.19-3.13,3.03-.05,2.38,1.09,4.22,3.55,4.58,1.94,.28,2.89-1.09,3-2.93,.16-2.5-1.13-3.98-3.42-4.68Zm-128.12,135.97c-1.56-2.44-3.46-4.84-6.24-6.23-1.26-.63-1.97,.46-1.86,1.76,.28,3.35,2.33,5.16,5.45,5.84,1,.22,2.22,.43,2.65-1.37Zm-168.59,105.51c-1.05-2.42-2.93-3.91-5.57-4.3-1.63-.24-2.95,.5-2.82,2.32,.21,3.07,2.86,3.29,5.06,3.82,1.46,.35,2.88,.15,3.34-1.84Zm-185.56,63.08c1.16,.23,1.92-.56,1.62-1.41-1.04-3.01-2.39-5.93-4.96-7.97-.74-.59-1.61-.14-1.98,.95-.81,2.36,2.79,8.14,5.32,8.43Zm370.87,32.27c3.02-2.02,4.42-5.04,5.52-8.23,.35-1.02,.6-2.34-.53-2.9-1.59-.8-2.2,.79-2.81,1.76-1.75,2.78-2.14,5.97-2.19,9.37Zm-194.12-46.19c.48,1.27-.45,3.86,1.91,3.48,2.44-.4,3.58-2.79,3.94-5.24,.25-1.67-.45-2.92-2.29-2.84-2.83,.13-3.29,2.29-3.55,4.6Zm-6.81,21.96c-2.38-2.44-4.98-3.11-7.37-4.12-1.01-.43-2.21-.48-2.83,.64-.73,1.32-.05,2.41,1.07,3.16,2.69,1.79,5.5,2.03,9.13,.32Zm-11.6-14.08c2.76-.08,5.02-1.02,5.64-3.97,.27-1.3-.7-3.14-1.91-2.46-2.41,1.34-5.49,2.37-6.57,5.05-.56,1.38,1.67,1.26,2.85,1.39Zm-29.24,32.22c-1.56,.22-3.9,.02-3.77,2.03,.16,2.5,2.73,3.04,4.85,3.15,1.8,.09,3.24-1.13,3.09-2.96-.21-2.52-2.48-2.01-4.16-2.21Zm-29.68-353.03c-.03-2.02-1.33-2.86-3.08-2.9-1.96-.04-3.49,.99-3.9,2.96-.41,1.95,.84,3.18,2.63,3.23,2.11,.06,3.68-1.12,4.35-3.3Zm198.44-74.91c-.53-2.09-2.35-2.7-4.31-2.95-1.7-.21-3.38,.13-3.49,2.26-.12,2.27,1.55,3.03,3.46,3.21,1.85,.17,3.58-.07,4.34-2.52Zm-240.92,448.13c-1.56,.49-4.4-.53-4.31,1.76,.1,2.39,2.96,2.72,5.07,2.74,1.73,.01,4.18-.31,4-2.46-.23-2.67-3.06-1.49-4.76-2.05Zm50.39-319.82c-2.35,.27-3.1,2.13-3.19,4.42-.05,1.29-.66,3.35,1.46,3.24,2.59-.13,3.94-2.16,4.32-4.64,.25-1.62-.5-2.72-2.58-3.02Zm-72.97,303.67c-1.79,.37-2.82,1.37-2.46,3,.56,2.53,2.59,3.72,4.91,4.3,1.39,.35,2.05-.73,1.76-1.89-.6-2.41-1.5-4.74-4.21-5.42Zm58.67-6.95c1.49-.19,3.61,.18,3.5-2.18-.11-2.52-2.37-2.93-4.32-3.11-1.77-.17-3.31,.6-3.2,2.67,.13,2.49,2.23,2.36,4.02,2.61Zm11.82-12.7c-1.9,.17-3.79,.6-3.9,2.9-.11,2.28,1.85,2.48,3.44,2.42,1.75-.06,4-.16,3.98-2.61-.01-1.94-1.85-2.42-3.53-2.71Zm-27.12-331.79c1.78-.28,3.78-.66,4.04-2.83,.26-2.19-1.53-2.62-3.29-2.53-1.93,.1-3.72,.77-3.81,3.02-.08,1.84,1.41,2.3,3.06,2.35Zm59.21,0c-.39-1.74-1.22-3.13-3.18-2.88-2.06,.26-3.1,1.75-2.88,3.77,.16,1.53,1.15,2.64,2.85,2.58,2.18-.07,3.05-1.47,3.21-3.47Zm231.48,331.23c-1.09,0-2.24,.19-2.04,1.3,.51,2.77,2.33,4.45,5.16,4.72,1.28,.12,3.12-.49,2.69-1.86-.83-2.63-3.76-3-5.81-4.15Zm-193.24-19.8c-.18-1.44-.64-3.06-2.82-2.85-2.05,.19-2.7,1.73-2.35,3.52,.29,1.48,.22,3.76,2.39,3.62,2.06-.13,2.83-1.97,2.78-4.29Zm-69.83,43.56c-1.95,.17-3.7,.93-3.59,3.1,.1,2,1.99,2.26,3.64,2.32,1.82,.06,3.3-.59,3.17-2.67-.11-1.82-1.22-2.91-3.23-2.75Zm87-85.15c-1.28,.01-3.06-.4-2.98,1.75,.08,2.04,1.73,3.07,3.62,3.26,1.95,.2,4.72,0,4.63-2.2-.1-2.42-3.3-1.92-5.26-2.82Zm255.07-251.48c-2.23,.21-2.92,1.8-3.01,3.7-.07,1.63,.89,2.85,2.54,2.8,2.2-.07,2.96-1.78,3.02-3.7,.05-1.6-.74-2.71-2.55-2.8ZM238.73,740.91c1.16-.29,3.25,.57,3.31-1.45,.09-2.8-2.69-2.81-4.58-3.47-1.45-.51-3.3-.27-3.39,1.41-.15,2.9,2.7,2.65,4.65,3.51Zm101.15-36.17c1.49-.12,3.24-.24,3.03-2.2-.26-2.32-2.24-3.1-4.31-3.38-1.43-.19-2.63,.45-2.65,1.99-.02,2.5,1.8,3.28,3.93,3.6Zm-127.25,31.5c-.49-2.29-2.35-2.95-4.27-3.51-1.37-.4-2.74-.12-2.93,1.42-.32,2.56,1.61,3.4,3.66,3.75,1.42,.24,2.9,.16,3.54-1.67Zm434.03-328.96c-1.54,.27-1.95,1.55-1.88,3.12,.07,1.73,.46,3.41,2.6,3.4,2.02-.01,2.87-1.45,2.58-3.3-.25-1.62-.9-3.17-3.3-3.22Zm-296.73,266.87c-.22-2.01-1.39-3.31-3.37-3.5-1.73-.17-2.54,1.16-2.73,2.71-.23,1.87,.55,3.18,2.56,3.34,1.81,.14,3.14-.56,3.54-2.55Zm19.65,33.66c-1.94,.09-3.34,.74-3.09,2.87,.19,1.63,1.3,2.64,2.95,2.5,1.89-.16,3.75-1.04,3.71-3.13-.04-2.07-2.07-2.07-3.57-2.23Zm-194.74-2.91c-1.66,.07-1.88,1.23-1.86,2.25,.04,2.45,.87,4.62,3.3,5.65,1.37,.58,2.1-.43,1.97-1.63-.27-2.56-1.51-4.66-3.41-6.27Zm452.94-300.41c.01-1.79-.54-3.31-2.59-3.26-1.91,.05-2.75,1.49-2.8,3.26-.06,1.74,.49,3.35,2.57,3.27,1.87-.07,2.71-1.45,2.82-3.27Zm-322.18,9.1c-.06-1.73-.9-2.85-2.65-2.69-1.73,.15-3.11,1.07-3.31,3-.18,1.68,.59,2.94,2.32,3.03,2.21,.12,3.1-1.49,3.64-3.34Zm21.16,291.24c1.08-.2,2.76-.15,2.46-1.85-.37-2.1-2.16-3.15-4.18-3.48-1.41-.23-2.55,.47-2.46,2,.15,2.44,2.04,3.02,4.18,3.34Zm337.66-266.92c-1.54-.16-2.22,.61-2.23,1.84-.01,2.15,.83,3.95,3.09,4.44,1.43,.31,2.5-.54,2.48-2.09-.03-2.27-1.46-3.52-3.34-4.2Zm-412.37,59.29l-1.29-.6c-1.86,4.08-3.72,8.16-5.58,12.24,.42,.18,.83,.36,1.25,.54,2.74-3.66,5.16-7.47,5.61-12.18Zm-115.23,125.15c-.3-1.73-1.29-3.31-3.25-3.59-1.65-.24-2,1.31-2.01,2.6-.01,1.97,.64,3.69,2.97,3.71,1.43,.01,2.25-1,2.3-2.71Zm221.81,74.61c-.13-2.15-1.85-2.44-3.4-2.78-1.48-.33-3.2-.24-3.56,1.5-.43,2.04,1.17,2.87,2.94,3.05,1.6,.17,3.32,.32,4.02-1.78Zm10.92-2.85c1.54-.15,3.06-.6,2.79-2.49-.26-1.85-1.93-2.55-3.55-2.85-1.81-.33-2.87,.75-2.63,2.47,.25,1.74,1.43,2.88,3.39,2.87Zm-60.98,28.38c-.66-2.06-2.38-2.4-4.23-2.43-1.33-.02-2.89,.41-2.83,1.81,.08,2.2,1.96,2.79,3.9,2.79,1.45,0,2.93-.15,3.17-2.16Zm33.93-32.77c-.34-1.94-2.02-2.24-3.5-2.68-1.46-.43-3.12-.38-3.32,1.47-.22,2.03,1.62,2.57,3.2,2.83,1.41,.23,2.83,0,3.62-1.61ZM546.18,105.5c-2.23,.73-3.93,2.23-4.33,4.79-.15,.95,.56,1.87,1.69,1.38,2.15-.95,4.38-2.04,4.96-4.58,.35-1.51-.94-1.66-2.31-1.59Zm-255.79,624.3c1.39-.23,3.3-.09,2.95-2.12-.32-1.81-2.13-2.2-3.79-2.19-1.32,0-2.7,.48-2.65,1.98,.06,2.16,2.01,2.04,3.49,2.33Zm-142.72-75.51c-.32-1.54-.42-3.41-2.53-3.53-1.66-.1-2,1.27-1.9,2.63,.13,1.74,.9,3.31,2.7,3.57,1.9,.28,1.6-1.44,1.73-2.67Zm415.81,42.97c-.86-1.36-.26-4.17-2.89-4.31-1.39-.08-1.68,1.69-1.71,2.97-.04,1.97,.47,3.69,2.9,3.69,1.25,0,2-.72,1.7-2.35Zm-344.02,47.52c-.2-1.54-1.34-2.76-3.44-2.78-1.48-.02-2.35,.91-2.19,2.42,.19,1.88,1.45,2.8,3.24,2.99,1.49,.16,2.42-.44,2.39-2.63Zm-32.31-18.15c-1.62,.37-1.78,1.59-1.73,2.86,.08,1.86,.52,3.64,2.69,3.96,1.43,.21,1.8-.92,1.4-2.07-.58-1.68,.2-4.09-2.36-4.75Zm-19.91-24.71c-.68-1.47-.56-3.84-2.77-4.53-1.5-.47-1.64,1.02-1.5,2.06,.29,2.1,.53,4.47,3.22,4.83,1.15,.15,.94-1.2,1.05-2.36Z"/>
  <path d="M444.55,214.37c-21.48-.4-35.81-20.73-30.36-43.04,4.24-17.35,18.85-27.64,35.26-24.82,16.4,2.81,27.66,18.87,25.76,36.74-1.91,17.96-13.26,30.37-28.48,31.12-.72,.04-1.45,0-2.17,0Zm-2.54-37.64c0-5.01-3.93-9.34-8.57-9.44-4.61-.1-8.91,4.29-8.91,9.07,0,5.54,3.88,9.84,8.76,9.7,4.67-.13,8.71-4.45,8.72-9.33Z"/>
</svg>