<?xml version="1.0" encoding="UTF-8"?>
<svg id="Layer_1" data-name="Layer 1" xmlns="http://www.w3.org/2000/svg" viewBox="0 0 864 864">
  <path d="M126.96,840.07c-5.15,5.08-9.29,10.75-10.41,18.13-.24,1.54-.54,2.79-2.57,2.49-2.2-.32-2.95-1.6-2.65-3.65,.64-4.51,2.44-8.45,5.64-11.74,.85-.87,2.4-1.72,1.9-3.02-.58-1.5-2.4-1.24-3.78-1.27-8.06-.14-16.05-1.21-24.06-1.9-3.74-.32-3.79-1.76-2.25-4.47,5.06-8.89,13-13.5,22.76-15.33,4.52-.85,4.88-1.32,2.19-5.21-2.15-3.11-4.8-5.87-7.01-8.94-20.09-27.96-22.32-57.8-9.14-89.18,.85-2.02,1.82-4.26,3.4-5.63,4.18-3.61,4.13-7.9,3.46-12.82-3.7-27.07-6.18-54.2-6.1-81.6,.19-59.56,13.09-115.75,42.49-167.88,7.05-12.51,13.46-25.36,18.55-38.84,1.19-3.15,1.24-5.39-1.59-7.88-4.03-3.54-7.05-8.04-9.01-13.48,3.62,2.75,7.35,5.38,10.83,8.3,2.62,2.19,3.88,2.06,5.47-1.26,5.24-10.96,10.73-21.8,16.39-32.55,1.55-2.94,1.12-4.15-1.72-5.79-9.69-5.6-13.09-14.99-14.63-25.41,4.62,7.73,11.12,13.23,19.01,17.28,2.4,1.23,3.95,1.1,5.45-1.37,6.61-10.94,13.45-21.74,19.99-32.72,2.68-4.5,2.39-4.77-2.61-5.14-4.62-.34-8.72-2-11.76-5.42-8.82-9.94-9.63-21.6-6.92-34,2.71,14.28,11.63,22.97,24.61,28.11,2.5,.99,4.58,1.33,6.4-1.64,7.69-12.51,14.99-25.22,21.04-38.63,1.54-3.41,1.3-4.95-2.89-5.55-7.27-1.04-12.22-5.5-15.35-12.04-3.29-6.89-4.41-16.48-2.45-23.86,3.2,11.07,9.68,18.86,18.53,24.8,.39,.26,.77,.55,1.17,.8,5.88,3.71,6.36,3.51,9.15-2.82,4.66-10.55,7.84-21.66,12.19-32.32,1.53-3.73,.57-4.72-3.13-5.53-15.93-3.5-25.07-22.15-18.14-37.89,2.85,12.86,10.87,21.16,20.92,27.97,3.44,2.33,5.4,2.67,7.29-1.91,2.64-6.41,6.37-12.32,10.26-18.09,1.1-1.62,2.57-3.07,1.76-5.55-.62-1.87,1.54-2.52,2.66-3.49,15.88-13.64,34.5-22.62,53.27-31.35,1.6-.74,3.66-.88,4.64-3.36-6.4,1.21-12.03,3.62-17.55,6.15-15.39,7.03-30.52,14.55-42.67,26.75-2.73,2.74-3.22,.43-4.08-1.44-4.93-10.75-7.42-22.14-8.34-33.85-1.89-24,.22-47.61,7.69-70.6,.48-1.48,1.09-2.93,1.81-4.84,1.83,1.96,3.83,5.1,5.82,3.42,2.07-1.75,5.84-3.22,5.03-7.26-.17-.84-1.65-.75-9.34,.53,1.71-5.99,4.85-11,7.52-17.59,1.53,7.06,2.04,13.06,3.78,18.83,7.07,23.48,19.71,43.57,36.42,61.28,5.52,5.85,11.69,11.08,16.82,17.32,.82,1,1.68,2.58,3.46,1.75,1.58-.75,1.48-2.33,1.4-3.73-.6-11.04-.8-22.09-.14-33.13,1.56-25.94,6.79-50.93,19.21-74.05,.36-.67,.9-1.24,1.36-1.86,.16,.59,.2,1.26,.5,1.78,1.29,2.23,5.07,3.96,5.57,3.15,1.63-2.59,4.1-5.24,3.52-8.82-.17-1.06-.35-2.55-1.6-2.54-1.41,0-3.95,.12-3.89,1.53,.15,3.32-3.13,3.13-4.19,5.03,1.84-5.38,4.67-10.19,8.63-15.23,1.39,7.57,2.93,14.43,3.82,21.37,.52,4.04-3.81,6.16-6.16,7.17-3.84,1.65,1.81,4.17-1.22,4.91,1.66,.84,3.39,.97,4.78-.32,1.48-1.37,2.69-3.02,4.43-5.02,.67,3.93,1.3,7.54,1.92,11.15-3.19-.21-4.23,2.88-6.42,4.23-1.08,.67-2.97,1.32-1.01,3.03,1.22,1.07,2.27,2.72,4.27,.92,2.37-2.14,3.43-4.74,3.52-7.85,4.26,14.39,11.57,27.55,16.83,41.54-4.79,1.38-8.37,5.58-13.66,5.84-.33,.02-.73,.92-.86,1.47-.06,.24,.4,.79,.73,.92,5.52,2.2,12.76-2.21,13.7-8.32,3.13,3.6,4.81,7.9,5.92,12.45-1.43-.26-2.25,.8-3.31,1.45-3.55,2.19-7.31,3.96-11.47,4.63-1.03,.16-2.7-.43-2.68,.94,.02,1.7,1.66,1.55,2.85,.97,1.07-.51,2.14-.24,3.19-.39,4.99-.73,10.02-1.52,11.31-7.72,4.07,5.74,6.09,12.4,8.12,18.97,1.28,4.15,2.32,5.99,7.76,5.69,13.05-.73,26.13,.87,39.14,2.52,9.04,1.15,17.86,3.4,26.89,4.86-1.58-1.88-3.83-2.34-5.94-2.91-19.58-5.33-39.41-8.9-59.81-7.18-3.66,.31-3.34-1.43-3.3-3.83,.32-17.28,6.46-33,13.06-48.58,5.05-11.92,11.52-23.07,18.54-34.26,2.41,1.71,2.63,6.36,6.85,4.45,.46-.21,.71,.35,.7,.87-.01,.95-2.53,2.06,.11,2.76,.49,.13,1.34-.65,1.85-1.17,1.27-1.29,.84-2.74-.19-3.81-1.3-1.35-2.75-2.66-4.37-3.56-3.11-1.72-2.54-3.58-.86-5.98,4.51-6.44,8.89-12.97,13.84-20.23,0,6.55-.14,12.22,.06,17.87,.11,3.05-1.12,5.19-3.92,5.41-3.39,.28-2.53,2.86-2.19,4.07,.67,2.42,2.69,.87,3.8,.21,1.8-1.07,2.68-.79,2.75,1.22,.73,22.23,8.65,42.81,14.56,63.85,.12,.44,.04,.94,.06,1.42-3.89,2.02-7.61,4.44-12.22,4.59-.92,.03-2.58-.49-2.17,1.42,.23,1.06,.94,2.1,2.39,1.11,.99-.67,1.75,.33,2.63,.45,4.34,.6,8.81-3.14,9.26-7.69,3.91,8.88,5.46,18.42,7.8,27.74,1.01,4.04,2.72,7.02,6.45,9.29,21.4,13.04,36.56,32.18,50.76,52.28,6.1,8.64,12.9,16.74,21.49,23.19,14.78,11.09,31.37,13.09,49.05,10.35,2.65-.41,3.1-2.18,3.84-4.12,3.16-8.35,7.83-15.56,16.08-19.69,15.04-7.54,32.92-.44,38.8,15.6,5.36,14.62,4.53,29.46,.42,44.24-6.8,24.44-20.21,44.7-39.01,61.53-32.39,28.99-70.91,44.84-113.15,52.59-58.55,10.74-115.34,2.95-170.98-16.54-7.45-2.61-14.88-5.25-22.25-8.07-3.64-1.39-5.46-1.08-5.63,3.44-.2,5.36-.71,10.69,.14,16.21-3.26-2.47-5.12-5.93-6.18-9.72-.98-3.49-2.43-3.67-5.39-2.03-13.44,7.47-14.85,13.12-6.31,26.54-4.35,.28-7.95-1.69-10.5-6.68-2.01-3.93-3.18-3.56-5.54-.24-7.26,10.23-6.96,15.88,1.8,24.87,.75,.77,2.11,1.38,1.74,2.59-.49,1.61-2.11,.96-3.27,1-1.57,.06-3.23-.4-4.72-.07-2.62,.59-4.13,.02-4.84-2.74-.63-2.47-2.15-2.3-3.06-.28-2.98,6.61-6.04,13.22-8.48,20.04-1.11,3.1,1.88,5.48,3.57,7.86,2.92,4.12,7.6,5.86,12.66,8.35-5.95,2.94-11.59,3.05-17.17,2.54-3.17-.29-4.55,.56-5.18,3.7-1.33,6.65-2.93,13.25-4.53,19.84-.71,2.93,.17,5.09,2.21,7.23,4.83,5.09,10.66,8.25,18.1,9.49-3.61,3.69-7.76,3.91-11.73,4.26-6.54,.57-10.38,5.05-9.29,11.29,1.15,6.55,2.96,12.92,5.69,19,.49,1.1,.76,2.77,2.24,2.78,1.62,.01,1.54-1.74,1.95-2.86,2.54-6.98,6.21-13.23,11.89-18.3-3.69,6.53-3.96,13.52-3.25,20.64,.21,2.13-.56,2.87-2.66,2.6-1.52-.19-3.03-1-5.7,.13,6.4,1.73,11.93,2.87,17.64,3.15,18.33,.91,36.6-.99,54.92-1.03,42.08-.08,80.91,11.26,115.74,34.59,18.54,12.41,32.78,29.53,43.37,49.33,1.69,3.16,3.4,3.9,6.61,3.1,6.47-1.62,11.44-5.12,14.92-10.89-2.47,7.05-5.57,13.74-10.07,19.75-1.63,2.18-3.06,3.41-4.3-.34-.48-1.45-1.42-2.76-2.87-3.91,1.09,4.39,1.98,8.85,3.29,13.17,13.68,44.98,10.23,88.53-10.77,130.63-1.25,2.5-1.25,4.16,1.14,6.04,5.2,4.1,9.96,8.75,15.39,12.59,1.95,1.38,3.75,1.8,6.15,1.24,7.77-1.81,11.13-3.79,21.43-13.76-3.63,6.68-7.11,12.25-12.02,16.73-2.12,1.93-2.12,2.86,.63,3.71,8.79,2.7,17.68,4.63,26.95,3.49,5.52-.68,9.09-4.3,9.68-9.99,.26-2.49,.04-5.03,.04-8.68,3.65,3.85,5.32,7.53,5.36,11.79,.03,3.19,.81,4.23,4.14,3.19,5.73-1.78,11.37-3.79,16.99-5.88,3.87-1.44,4.52-3.7,3.37-7.3-.96-3-2.03-5.93-4.22-9.66,4.96,2.14,8.03,4.96,10.82,7.98,1.99,2.15,3.46,2.46,5.95,.74,6.88-4.76,6.95-4.65,5.29-13.08-.33-1.67-.57-3.36-.96-5.73,3.17,1.72,5.28,3.71,6.82,6.24,1.21,2,2.42,2.25,4.09,.64,.57-.54,1.23-.98,1.84-1.49,9.79-8.15,11.42-6.02,2.44-19.96,3.56,.54,6.73,1.45,9.41,3.42,2.45,1.79,4.18,1.41,5.98-.89,1.56-1.98,3.44-3.7,5.13-5.58,7.26-8.12,7.33-9.13,.66-19.85,3.5,2.28,6.01,3.74,8.32,5.48,1.81,1.36,3.26,1.72,4.85-.21,4.91-5.98,9.72-12.04,13.57-18.79,.47-.82,1.26-1.79,.04-2.39-4.6-2.27-6.3-8.65-12.64-8.87,4.78-1.99,9.64-2.26,14.4-1.21,2.91,.65,4.37-.03,5.59-2.59,1.78-3.7,3.73-7.32,5.79-10.86,1.18-2.02,1.19-3.33-1.01-4.61-2.84-1.66-5.33-3.91-9.32-4.97,4.59-2.04,8.77-3.09,13.04-3.69,2.13-.3,3.49-1,4.15-3.13,1.27-4.06,2.64-8.1,4.06-12.11,.76-2.15,.23-3.12-2.11-3.56-3.18-.59-6.3-1.58-10.18-2.59,4.07-2.68,7.62-4.5,11.52-4.95,3.34-.39,4.47-2.09,5.09-5.03,2.12-10.12,1.79-10.61-8.89-11.5-.26-.02-.49-.27-.96-.54,2.54-1.55,5.18-2.8,7.93-2.93,3.83-.17,5.32-1.95,5.34-5.51,0-.47,.14-.94,.19-1.41,1.12-10.15-.36-12.12-10.93-14.11,2.48-2.04,5.12-2.78,7.92-3.18,1.58-.22,3.25-.44,3.18-2.66-.36-12.59-2.03-25.02-4.29-37.14-1.48-.46-1.59,.32-1.76,.84-5.92,17.79-18.82,28.68-35.47,35.82-4.42,1.9-9.12,2.46-13.92,2.07-9.62-.78-15.73-5.68-18.52-14.95-.45-1.51-1-3.06-1.05-4.6-.38-10.92-4.89-19.11-14.53-24.84-5.76-3.42-8.26-9.39-8.1-16.21,.2-8.08-.49-15.71-7.35-21.51-2.55-2.16-2.44-5.82-1.94-8.95,1.69-10.57,.71-21.07-.15-31.63-1.05-12.78,4.72-17.99,17.4-15.4,24.02,4.89,44.24,17.19,62.31,33.31,8.41,7.5,15.46,16.2,21.49,25.73,.79,1.25,1.18,2.96,3.17,3.53,1.24-3.2,2.33-6.44,3.73-9.53,7.81-17.24,21.83-24.55,40.38-20.93,7.62,1.49,15.31,2.16,23.01,2.85,1.56,.14,3.17,.31,4.65,.8,3.91,1.3,4.41,3.3,1.4,6.06-3.85,3.53-7.66,7.03-10.55,11.46-3.42,5.24-5.22,11.12-7.13,16.97-2.81,8.61-7.35,15.99-14.47,21.75-7.21,5.83-15.1,7.51-23.95,4.63-1.18-.39-2.43-.59-3.65-.86-.1-.02-.24,.16-.76,.54,.96,2.93,2.04,5.99,2.97,9.1,10.67,35.46,8.99,70.91-1.37,105.96-16.04,54.27-43.27,102.17-84.08,141.79-31.15,30.24-68.35,46.55-112.14,46.23-26.23-.19-51.33-6.49-75.43-16.41-8.2-3.37-14.69-4.3-22.41,1.43-7.16,5.31-15.91,8.37-24.46,11.17-3.5,1.15-5.41,2.94-5.76,6.45-.65,6.45-4.06,8.98-10.62,10-28.25,4.4-56.64,4.17-85.07,3.66-3.13-.06-3.62-1.15-2.98-4.06,2.7-12.09,11.68-20.26,23.97-21.42,2.9-.27,5.81-.42,8.76-1.14-3.59-3.15-7.87-3.63-12.19-3.2-13.59,1.35-22.99,11.01-23.99,24.92-.25,3.51-1.24,4.73-4.72,4.44-4.24-.35-8.52-.46-12.78-.4-3.58,.05-3.48-1.53-2.31-4.06,1.67-3.61,3.77-6.92,6.23-10.03,.72-.91,2.1-1.56,1.65-3.13-5.63,.52-9.48,4.8-11.31,12.53-.41,1.75-.18,3.96-3.1,3.8-3.4-.18-4.99-1.51-3.95-5.1,2.86-9.84,9.7-15.18,19.41-17.29,2.28-.5,4.58-.85,7.5-1.39-3.06-3.59-6.55-2.9-9.51-2.27-3.85,.81-6.52-.29-9.37-2.77-18.11-15.76-27.65-35.76-29.56-59.46-3.27-40.81,10.89-73.33,46.27-95.4,7.16-4.47,14.85-7.99,23.39-9.37-8.18,5.47-15.71,11.62-22.43,18.74-31.16,32.99-33.99,79.15-18.47,111.81,5.86,12.34,14.26,22.69,26.08,29.94,1.83,1.12,3.56,2.55,6.93,2.75-5.38-5.02-10.32-9.28-14.72-14.08-18.59-20.32-25.07-44.48-22.4-71.34,5.22-52.58,56.66-93.83,112.34-88.54,13.35,1.27,26.03,4.74,38.48,9.42,1.12,.42,2.15,1.44,3.58,.74-.6-1.94-2.43-2.33-3.88-3.09-27.07-14.18-55.11-16.07-83.88-6.11-7.17,2.48-14.4,4.44-21.75,6.3-37.72,9.53-61.68,33.61-70.92,71.1-8.04,32.6-3.11,63.33,19.08,90.95-4.56-1.22-7.65-3.43-10.84-5.41-3.49-2.16-6.94-4.39-10.37-6.64-3.26-2.14-6.48-4.34-10.26-6.56,3.01,2.73,2.19,3.85-.95,5.16-7.46,3.11-12.16,8.83-14.05,16.74-.61,2.53-1.19,4.87-4.56,5.09-2.2,.14-2.43,2.05-2.53,3.9-.26,4.57-.91,9.14-.87,13.7,.04,5.07-2.41,7.3-7.09,8.34-13.99,3.12-28.17,3.5-42.39,3.26-11.84-.2-23.64-1.22-35.45-2.07-4.08-.3-4.36-1.68-3.03-4.99,4.16-10.29,10.93-16.84,22.73-16.72,1.31,.01,2.85,.47,3.93-.86-4.17-4.65-9.28-4.44-21.1,.84,.64-1.7,.49-3.43,.1-5.14-7.98-34.92-14.53-70.08-19-105.63-.8-6.39-2.06-12.73-3.21-19.76-1.53,1.64-1.33,2.74-1.26,3.81,1.68,27.58,4.53,55.01,10.23,82.09,2.76,13.09,4.28,26.49,9.31,39.03,.85,2.12,1.17,4.72,3.92,5.52Zm50.16-454.02c3.7-2.01,5.58-5.05,5.5-9.18-2.92,2.47-5.04,5.39-5.42,9.27-3.46,2.4-4.33,6.13-5.24,9.84,2.06-3.13,5.53-5.57,5.15-9.92ZM439.11,226.29c.09-8.8-1.16-16.69-3.95-24.35-6.91-19.01-24.27-31.14-45.62-31.81-17.65-.55-34.73,11-42.12,28.48-10.04,23.76,.4,55.73,22.54,69.01,16.47,9.89,38.27,9.32,52.19-1.71,12.95-10.26,17.18-24.4,16.95-39.63Zm2.76-5.71c-.45,15.98,3.87,29.35,12.65,40.86,15,19.66,43.47,22.07,59.26,5.01,20.81-22.48,18.21-63.09-5.98-81.96-22.4-17.47-49.21-11.26-60.57,13.34-3.57,7.73-5.34,15.81-5.36,22.75Zm-38.54,77.04c-.68,2.78,.37,4.88,1.46,6.96,5.01,9.51,12.79,16.12,22.65,19.85,7.23,2.73,13.92,5.47,16.68,13.49,.29,.84,1.12,1.51,1.77,2.2,4.77,5.04,9.65,5.45,15,.99,2.41-2.01,4.57-4.36,6.59-6.77,3.39-4.05,7.47-4.38,11.05-.66,8.29,8.62,16.25,8.8,22.6-1.23,4.99-7.88,11.09-14.22,17.92-20.2,1.76-1.54,3.15-3.53,4.58-5.41,.55-.72,1.75-1.51,.37-2.99-7.29,7.66-15.49,13.87-25.61,17.32-7.23,2.47-14.65,3.91-22.17,4.7-16.23,1.7-32.15,.46-47.38-6-10.89-4.62-19.68-11.68-25.5-22.27ZM204.8,852.45c3.44-14.64,5.08-29.58,9.06-44.03,8.62-31.32,13.34-63.23,14.74-95.64,1.21-28.05-.67-55.81-9.33-82.78-.37-1.15-.22-2.72-2.3-3.33,.17,1.33,.2,2.26,.41,3.15,10.59,45.79,8.98,91.68,1.35,137.67-2.74,16.52-7.62,32.54-10.94,48.91-2.41,11.9-3.7,23.89-2.98,36.04Zm170.52-269.5c.13-3.86-3.35-7.46-7.38-7.62-4.21-.17-7.72,2.88-7.98,6.94-.27,4.13,3.3,7.86,7.56,7.91,4.03,.05,7.66-3.31,7.8-7.23Zm57.65-16.28c.02-3.87-3.75-7.49-7.67-7.39-4.03,.1-7.05,3.23-7.03,7.3,.02,4.29,3.26,7.54,7.42,7.43,3.72-.1,7.27-3.67,7.29-7.34Zm-84.44-13.57c4.1,.13,7.62-3.27,7.63-7.35,0-3.78-3.39-7.18-7.26-7.26-4.02-.09-7.61,3.38-7.65,7.39-.04,3.77,3.32,7.1,7.28,7.22Zm11.91,57.08c0-4.22-3.26-7.51-7.45-7.5-3.92,0-7.36,3.26-7.44,7.04-.09,4.3,3.46,7.86,7.77,7.78,3.94-.07,7.12-3.35,7.12-7.32Zm146.52,88.4c-.05-4.19-3.5-7.55-7.59-7.39-3.93,.15-6.98,3.4-7.01,7.46-.03,4.16,2.98,7.29,7.02,7.32,4.24,.03,7.62-3.27,7.57-7.39Zm-17.83,35.82c3.91,.1,7.38-3.05,7.55-6.85,.19-4.22-3.34-7.96-7.53-7.97-3.93-.01-7.15,3.15-7.25,7.12-.1,4.15,3.12,7.59,7.22,7.7ZM456.78,110.22c0-2.17,.04-3.72,0-5.27-.57-17.06,.51-34.02,3.03-50.9,.46-3.08,.95-5.65,5.41-4.28-.8-.95-1.47-1.31-1.97-1.84-2.62-2.8-3.29-2.02-4.38,1.46-1.71,5.47-1.95,11.14-3.15,16.67-.47,2.17-.97,3.44-3.7,3.71,3.46,1.01,2.7,3.39,2.51,5.46-.91,10.09-1.05,20.17,0,30.26,.15,1.44-.41,3.2,2.26,4.73Zm-61.46,448.43c3.61,0,7.23-3.65,7.26-7.33,.03-3.83-3.31-7.18-7.22-7.24-4.08-.06-7.26,2.94-7.34,6.94-.09,4.14,3.25,7.62,7.3,7.62Zm-97.57,22.12c-3.76-.02-7.2,3.55-7.1,7.37,.11,3.92,3.49,7.37,7.22,7.35,3.61-.01,7.29-3.79,7.21-7.41-.08-3.69-3.69-7.29-7.34-7.31ZM371.97,36.41c.98,24.11,.22,48.47,10.96,70.93-5.7-23.33-8.27-47.16-10.96-70.93Zm114.26,583.33c.09-3.76-3.22-7.19-7.09-7.35-3.94-.16-7.36,2.94-7.5,6.82-.15,4.09,3.21,7.66,7.23,7.7,3.65,.03,7.27-3.49,7.36-7.17Zm-66.55-25.73c.13-3.66-3.32-7.24-7.12-7.38-3.92-.14-7.31,3.06-7.36,6.96-.05,3.75,2.91,6.85,6.74,7.07,3.89,.23,7.61-2.96,7.74-6.65Zm-97.22,20.32c-.02-3.95-3.32-7.47-6.99-7.46-3.78,0-6.98,3.39-7.02,7.42-.04,3.84,2.95,6.99,6.72,7.08,3.92,.09,7.31-3.18,7.29-7.04Zm27.8-491.72c20.14-5.19,40.48-8.78,61.2-10.12-21.23-1.56-41.77,1.12-61.2,10.12ZM144.7,752.37c.15-3.67-3.04-7.18-6.63-7.28-3.51-.1-6.72,2.82-6.95,6.33-.27,4,2.42,7.16,6.27,7.39,3.87,.23,7.16-2.67,7.32-6.44Zm56-.07c.25-3.32-2.74-6.76-6.18-7.14-3.55-.39-6.79,2.33-7.1,5.96-.32,3.69,2.62,7.17,6.3,7.46,3.34,.26,6.72-2.78,6.98-6.29Zm434.67-268.73c16.45,.55,31.88,5.59,47.27,10.75-12.21-9.88-34.03-14.88-47.27-10.75ZM285.07,85.81c-1.69,10.77,11.94,37.65,21.1,41.67-8.52-13.46-15.97-26.97-21.1-41.67Zm175.4,476.8c1.64-.05,2.82,.02,3.4-1.18,.49-1.02-.13-1.87-.8-2.5-5.11-4.78-10.92-8.38-17.75-10.2-.77-.21-1.6-.36-2.2,.31-.82,.92-.22,1.84,.33,2.53,4.56,5.71,10.47,9.29,17.01,11.04Zm-130.06-285.51c3.55-.03,6.45-3.13,6.36-6.8-.08-3.24-3.21-6.28-6.44-6.26-3.41,.02-6.49,3.34-6.37,6.86,.12,3.41,3.05,6.22,6.45,6.19Zm16.94-12.31c-3.26,.05-6.13,3.08-6.16,6.5-.03,3.45,2.92,6.26,6.37,6.08,3.55-.18,6.24-2.98,6.16-6.39-.08-3.44-2.96-6.24-6.37-6.19Zm105.85,345.14c-.45-3.71-2.35-5.98-6.1-5.97-3.65,0-5.92,2.04-6.2,5.76-.28,3.56,2.55,6.32,6.22,6.15,3.74-.18,5.57-2.44,6.08-5.94Zm227.82-100.63c-13.15-5.56-26.42-6.75-39.83-1.29,13.32-1.17,26.55,.45,39.83,1.29Zm-524.26,74.85c-5.92-1.41-11.21-2.67-16.51-3.92-2.91-.68-5.82-1.39-8.76-1.96-.89-.17-2.01-.05-2.36,1.05-.45,1.4,.55,2.06,1.67,2.36,6.06,1.65,11.72,4.79,18.19,4.93,2.5,.06,5.07,.26,7.77-2.48Zm101.69-358.62c.03,2.15,.49,3.61,2.14,4.32,1.52,.66,2.8-.02,3.78-1.11,2.33-2.58,4.13-5.5,4.93-8.93,.33-1.4,.32-2.87-1.11-3.77-1.34-.84-2.76-.64-3.97,.22-3.35,2.38-5.3,5.64-5.78,9.26Zm39.72,332.51c-2.93,.35-5.47,1.85-5.47,5.45,0,3.41,2.05,5.72,5.57,5.72,3.15,0,5.53-1.76,5.61-5.13,.08-3.38-1.66-5.65-5.71-6.04Zm89.22,48.77c-.42-3.48-1.99-5.88-5.6-6.02-3.32-.12-5.47,1.79-5.76,5.02-.32,3.66,2.14,5.59,5.45,5.84,3.26,.25,5.17-1.82,5.9-4.84Zm-60.14-34.6c3.35-.45,5.39-2.56,5.25-5.91-.15-3.44-2.51-5.33-5.99-5.21-3.41,.12-5.2,2.39-5.14,5.52,.07,3.4,2.25,5.33,5.88,5.6Zm105.11-25.58c1.54-.09,3.03,.24,3.43-1.39,.34-1.42-.74-2.31-1.74-3.07-4.11-3.11-8.95-4.31-13.89-5.22-.93-.17-1.94-.04-2.47,.92-.68,1.23,.1,2.13,.97,2.8,4.14,3.22,8.76,5.37,13.7,5.95Zm-244.98,166.96c.39,2.63,1.96,5.1,5.27,4.9,3.7-.22,5.3-3.11,5.38-6.56,.07-3.13-1.71-4.99-4.9-5.08-3.06-.08-5.83,3.02-5.75,6.74Zm238.14-94.87c3.29-.2,5.29-2.05,5.29-5.31,0-3.3-2.24-5.29-5.41-5.32-3.22-.03-5.4,2-5.35,5.31,.05,3.22,2.02,5.14,5.47,5.32Zm-250.06-36.49c-3.81,1.12-8.1,2.12-12.54,2.33-1,.05-1.81,.75-1.72,1.88,.1,1.21,.99,1.89,2.01,2.43,3.94,2.08,11.58,.54,14.48-2.95,.72-.87,1.44-1.81,.79-2.97-.55-.98-1.6-.81-3.01-.72Zm81.82-331.67c.44-2.39,.3-3.79-1.33-4.43-1.43-.56-2.41,.39-3.25,1.36-1.88,2.17-3.33,4.62-4.34,7.29-.78,2.06-.83,4.21,1.53,5.3,2.37,1.09,3.89-.29,4.95-2.31,1.34-2.54,2.12-5.26,2.44-7.2Zm-68.4,244.7c3.18,.08,6.3-.24,9.13-1.8,.62-.34,1.45-1.14,1.42-1.68-.08-1.16-1.25-1.37-2.18-1.19-5.68,1.11-11.27,0-16.87-.63-1.1-.12-2.45-.29-2.81,1.02-.43,1.54,.95,2.18,2.1,2.66,2.94,1.24,6.07,1.53,9.22,1.62Zm9.16-13.69c-6.27-.63-12.38-1.69-18.42-3.14-1.16-.28-2.7-.96-3.34,.54-.74,1.72,.84,2.58,2.06,3.18,6.57,3.25,13.15,3.4,19.7-.58Zm246.98,93.96c.12,3.45,1.89,5.27,4.99,5.35,3.08,.08,5.2-1.68,5.33-4.8,.14-3.32-1.74-5.41-5.19-5.35-3.11,.06-4.83,1.9-5.14,4.8ZM176.33,409.58c-.6,7.69,10.46,17.71,17.19,16.47,.58-.11,1.29-.08,1.45-.91,.14-.76-.35-1.15-.91-1.45-6.6-3.52-12.87-7.5-17.73-14.12Zm324.81,271.76c2.84-.45,4.72-2.26,4.54-5.32-.18-3.02-2.11-4.96-5.3-4.74-3.05,.21-5.03,2-4.78,5.22,.24,3.05,2.1,4.79,5.53,4.85ZM200.52,425.56c3.42,5.67,13.97,9.56,18.57,7.55,1-.44,2.21-.85,2.23-2.12,.02-1.5-1.29-2.41-2.47-2.34-6.08,.38-11.92-.88-18.32-3.09Zm-56.96,100.89c3.84,8.05,17.32,13.53,24.96,9.64-9.24-2.31-17.46-5-24.96-9.64Zm93.1-236.18c-.04-1.23-.42-2.13-1.44-2.39-1.45-.37-2.45,.53-3.03,1.68-2.42,4.72-4.76,9.49-7.1,14.25-.34,.69-.74,1.59,0,2.16,1.05,.81,1.74-.18,2.24-.89,2.88-4.08,5.74-8.19,8.51-12.34,.5-.75,.6-1.76,.82-2.47Zm134.94-159.98c.07-2.51-1.21-3.46-2.91-3.56-3.81-.23-6.7,1.6-8.53,4.81-.8,1.4-.6,3.15,1.01,4.18,1.58,1.02,3.18,.38,4.36-.66,2.01-1.79,5.63-1.75,6.08-4.78Zm99.45,2.59c-2.78,.44-4.9,1.98-4.83,5.11,.07,3.09,2.14,4.86,5.21,4.89,3,.03,4.64-1.87,4.72-4.75,.09-3.17-1.81-4.81-5.11-5.26Zm-141.8,388.69c-3.1,.28-6.27-.43-8.5,2.27-.56,.68-.42,1.57,.18,2.16,2.52,2.52,5.58,1.61,8.46,1.07,2.53-.48,6.69-.64,6.47-3.36-.26-3.21-4.41-1.42-6.61-2.13Zm66.01,13.36c2.32-.63,5.19-.88,5.68-3.02,.65-2.83-2.51-2.98-4.39-3.8-1.13-.49-2.37-.85-3.6-1-1.95-.24-4.44-.99-5.1,1.74-.56,2.29,1.26,3.75,3.15,4.66,1.38,.66,2.93,.99,4.26,1.42Zm291.89,2.33c-8.34,6.06-16.68,12.08-23.53,19.84,8.98-5.28,18.26-10.18,23.53-19.84Zm63.4-37.86c-7.01,6.13-13.84,12.42-19.71,20.85,7.06-3.29,17.69-14.47,19.71-20.85ZM318.53,162.33c2.72-.14,6.48-4.2,6.45-6.85-.03-2.38-1.53-3.35-3.66-3.41-2.44-.06-6.28,4.2-6.26,6.82,.01,2.39,1.47,3.28,3.46,3.44ZM152.75,743.22c-.25,3.59-.67,7.22,1.58,10.43,.63,.91,1.45,1.87,2.65,1.55,1.58-.42,.85-1.73,.71-2.75-.51-3.56-.85-7.16-1.61-10.66-.43-1.98,.42-5.67-2.09-5.5-2.83,.19-.93,3.56-1.21,5.53-.07,.46,0,.94-.02,1.41ZM281.78,197.94c-.33-2.51-1.53-4.46-4.44-4.37-3.12,.1-5.05,2.07-5.18,5.09-.12,2.73,1.75,4.52,4.45,4.54,3.14,.02,4.77-2.02,5.17-5.25Zm22.02,331.45c3.26-.31,6.01-1.68,8.1-4.24,.28-.34,.21-1.48-.09-1.69-2.59-1.82-5.41-.83-8.17-.48-.31,.04-.62,.13-.92,.22-1.77,.54-4.3,.78-4.08,3.1,.26,2.69,2.84,2.96,5.16,3.08Zm-144.38,67.05c-2,.7-6.47-1.64-6.59,2.15-.13,4.08,4.6,3.36,7.46,3.46,2.57,.09,6.66,.47,6.61-3.29-.05-3.47-3.87-1.88-6.1-2.31-.3-.06-.62,0-1.38,0Zm190.62-73c0-.05,0-.11,0-.16-1.56,.13-3.18,.04-4.67,.43-1.54,.41-2.65,1.81-1.4,3.2,3.34,3.73,7.53,2.15,11.43,1.18,1.32-.33,4.17-.87,3.29-2.39-1.52-2.62-5.02-1.75-7.71-2.26-.3-.06-.63,0-.94,0Zm-51.27-345.03c.09-2.29-1.09-3.7-3.31-3.66-3.42,.07-5.59,2.1-6.12,5.41-.36,2.29,.84,3.97,3.31,4.3,2.64,.35,5.96-2.99,6.12-6.06Zm212.89-19.15c2.45-.04,4.2-.63,4.49-2.96,.25-2.01-3.78-6.14-5.83-6-2.54,.17-3.51,2.07-3.49,4.22,.03,3.25,2.15,4.62,4.82,4.74Zm-48.93-95.44c5.3,.22,8.99-2.36,9.6-6.78,.1-.72,.11-1.69-.29-2.2-.58-.75-1.42-.19-2.05,.3-2.48,1.93-4.87,3.96-8.23,4.36-1.17,.14-1.74,1.42-1.51,2.57,.24,1.19,1.28,1.7,2.48,1.75Zm-14.45,67.07c-2.34,.14-4.82,.27-4.94,3.19-.12,2.82,2.14,3.93,4.43,3.51,2.32-.42,6.3,.75,6.42-2.89,.11-3.2-3.33-3.54-5.92-3.82ZM116.89,623.04c2.77,5.91,10.67,9.48,16.06,7.73,.91-.3,1.91-.56,1.76-1.78-.11-.93-.97-1.16-1.76-1.27-5.35-.72-10.31-2.79-16.06-4.69Zm316.96-26.9c2.34-.29,4.08-1.48,4.14-4.11,.06-2.56-1.39-4.23-3.95-4.37-2.82-.15-4.5,1.58-4.53,4.29-.03,2.54,1.66,3.93,4.34,4.18Zm-251.23-59.08c-1.4-.12-3.12-.32-4.85-.4-1.01-.04-2.38-.6-2.73,.97-.3,1.35,.74,1.98,1.84,2.32,4.37,1.34,8.69,1.15,12.91-.61,.69-.29,1.45-.79,1.21-1.75-.25-1.04-1.21-.86-1.93-.84-2.04,.04-4.08,.19-6.46,.32Zm41.17-163.55c3.65,5.64,9.4,4.89,13.25,7.77,1.13,.84,2.92-1.53,3.41-2.96,.53-1.55-1.15-1.94-2.4-2.12-4.43-.65-8.91-.97-14.26-2.7Zm175.38,206.53c-.42-2.46-1.97-3.94-4.42-3.91-2.45,.03-4.33,1.42-4.1,4.06,.23,2.68,2.18,4.18,4.85,3.98,2.29-.16,3.55-1.72,3.67-4.14Zm-26.96-15.68c2.46-.39,4.11-1.69,3.95-4.33-.14-2.33-1.63-3.75-4.02-3.76-2.57,0-4.28,1.45-4.28,4,0,2.58,1.82,3.81,4.35,4.08Zm-80.31-20.25c-2.56,.2-4.18,1.45-4.27,4.11-.08,2.39,1.12,3.98,3.59,4.11,2.56,.14,4.33-1.09,4.52-3.76,.18-2.59-1.18-4.14-3.84-4.46Zm80.3,1.82c2.53-.2,4.03-1.68,4.02-4.17,0-2.33-1.64-3.8-3.89-3.8-2.4,0-4.27,1.35-4.35,3.93-.08,2.61,1.64,3.85,4.22,4.04Zm108.66,139.21c-.13-2.57-1.6-4.17-4.09-4.04-2.41,.12-4.04,1.76-3.93,4.33,.11,2.34,1.74,3.74,3.96,3.82,2.57,.1,3.94-1.48,4.06-4.11Zm-324.79-140.74c4.85,6.05,12.52,7.23,18.09,2.56-6.35-.52-11.92-1.16-18.09-2.56ZM339.12,146.69c2.53-.97,5.1-2.28,5.2-5.67,.06-1.98-1.57-2.73-3.31-2.45-2.94,.48-5.64,1.64-5.71,5.16-.04,2.05,1.55,2.93,3.82,2.95ZM109.4,684.54c3.69,6.19,12.67,7.18,16.4,2.1-5.4-.69-10.77-1.38-16.4-2.1Zm397.19-26.95c-.4-2.3-1.7-3.78-4.09-3.72-2.51,.07-4.32,1.39-4.14,4.08,.17,2.57,1.99,3.97,4.5,3.76,2.27-.19,3.62-1.71,3.73-4.12Zm-158.34-81c-.25-2.26-1.66-3.74-3.94-3.66-2.67,.09-4.39,1.78-4.23,4.55,.14,2.35,1.77,3.68,4.12,3.49,2.48-.19,3.96-1.65,4.05-4.38Zm-109.15-291.83c2.64-.28,4.55-1.54,4.6-4.34,.03-2.16-1.4-3.53-3.62-3.44-2.94,.12-4.67,1.99-4.9,4.75-.21,2.54,2,2.77,3.92,3.04Zm249.85,312.84c-.19-2.4-1.53-3.8-3.85-3.97-2.42-.17-3.92,1.19-4.04,3.59-.13,2.58,1.18,4.25,3.9,4.22,2.41-.02,3.61-1.56,3.99-3.85Zm-163.73-7.71c-.43-1.89-1.72-3.31-4.16-3.19-2.41,.13-3.86,1.61-3.73,3.99,.13,2.38,1.79,3.77,4.13,3.65,2.32-.12,3.73-1.54,3.76-4.46Zm-178.41,56.79c-2.75,2.23-1.8,4.23-1.85,5.99-.12,3.94-.15,7.88-.07,11.82,.02,1.09,.63,2.31,1.97,2.24,1.68-.09,1.23-1.56,1.17-2.56-.35-5.61-.77-11.22-1.22-17.49Zm11.22-160.42c2.82,4.24,9.85,7.22,13.65,6.22,.94-.25,1.88-.53,1.83-1.71-.04-.92-.82-1.27-1.6-1.44-4.47-1-8.94-1.98-13.87-3.07Zm-4.45-13.67c3.62,4.3,8.18,6.77,13.69,7.19,.91,.07,2.13,0,2.37-1.07,.25-1.15-.91-1.48-1.78-1.75-4.75-1.48-9.52-2.92-14.28-4.38Zm28.52-40.26c3.71,5.52,7.98,7.42,12.92,8.16,.9,.13,2,.16,2.39-.94,.42-1.19-.56-1.72-1.41-2.05-4.17-1.6-8.38-3.13-13.9-5.17Zm22.14-90.56c.26-1.53,.13-2.26-.55-2.37-.5-.08-1.35,.2-1.58,.59-2.63,4.45-5.18,8.94-7.71,13.44-.31,.55-.32,1.3,.36,1.63,.34,.16,1.09,.11,1.28-.14,3.42-4.29,6.31-8.9,8.2-13.15ZM393.83,68.34c-2.55,3.67-9.64,2.5-10.04,8.88,5.66-.67,10.21-2.12,10.04-8.88ZM210.82,436.08c-1.51,.36-3.16-.58-3.63,1.06-.4,1.36,.84,2.27,1.83,3.02,2.02,1.54,4.41,1.48,6.77,1.35,1.16-.06,2.22-.47,2.44-1.78,.21-1.33-.69-2.09-1.8-2.39-1.96-.54-3.96-.9-5.61-1.26Zm-12.67,249.54c2.24-.39,3.79-1.66,3.74-4.04-.05-2.2-1.58-3.48-3.72-3.45-2.34,.04-3.93,1.43-3.79,3.87,.12,2.11,1.54,3.34,3.77,3.61Zm-50.99-89.88c-.1-.3-.16-.61-.29-.89-.63-1.42-8.85-6.3-10.39-6.15-1.9,.18-1.54,1.3-.76,2.24,2.36,2.81,5.15,5.08,8.83,5.9,1.01,.23,2.26,.5,2.6-1.11Zm187.26-53.29c-.32-2.2-1.47-3.84-3.86-3.9-2.42-.06-3.78,1.5-3.9,3.83-.11,2.27,1.41,3.56,3.47,3.72,2.36,.18,3.73-1.31,4.3-3.66ZM406.93,121.75c-2.04,.71-4.51,1.19-4.68,3.87-.15,2.4,1.74,3.23,3.82,3.02,2.27-.23,4.62-1.2,4.82-3.66,.16-2.12-1.87-3-3.96-3.23Zm69.95-51.95c-4.52,.97-7.81,3.49-11.78,3.61-.9,.03-2.12-.14-2,1.26,.09,.99,.98,1.52,1.96,1.77,4.96,1.25,8.97-.78,11.82-6.64Zm-10.25,20.83c10.56-.96,11.35-1.37,12.89-6.44-8.07,1.48-10.57,2.67-12.89,6.44Zm-98.76-21.33c-4.32-1.68-8.32-2.1-11.62-4.32-.72-.48-1.87-1.05-2.48,.05-.51,.92,.32,1.78,.9,2.51,2.75,3.47,7.39,4.28,13.2,1.76ZM230.08,430.37c-1.36,1.29-5.53-1.68-5.51,1.66,.02,2.86,4.18,2.25,6.76,2.45,.15,.01,.32,.01,.47-.02,2.02-.47,5.26,.02,5.12-2.75-.1-2.04-3.12-1.02-4.84-1.32-.46-.08-.94-.01-2.01-.01ZM430.24,135.32c2.2-.19,3.9-1.15,4-3.66,.09-2.29-1.41-3.52-3.51-3.64-2.37-.14-3.98,1.21-4.09,3.61-.09,2.2,1.33,3.4,3.6,3.69Zm-45.12-4.76c2.31-.5,4.42-1.62,4.7-4.29,.2-1.93-1.5-2.59-3.17-2.64-2.73-.08-4.55,1.28-4.74,4.05-.13,1.87,1.33,2.64,3.2,2.88Zm99.24,534.49c-.16-2.31-1.38-3.57-3.56-3.59-2.31-.03-3.97,1.21-4.12,3.55-.15,2.4,1.37,3.78,3.75,3.74,2.34-.04,3.62-1.48,3.94-3.7ZM431.51,79.33c-.2,.4-.39,.8-.59,1.2,4.36,4.34,9.73,5.94,16.24,4.52-5.22-1.91-10.44-3.81-15.66-5.72Zm-232.62,455.54c3.72,3.95,7.91,4.23,12.3,2.76,.82-.27,1.86-.64,1.65-1.9-.14-.82-.9-.84-1.48-.84-4.16-.03-8.31-.02-12.47-.02Zm181.37-8.21c-.55-2.37-2.47-2.77-4.33-2.8-2.03-.03-3.81,.85-3.72,3.25,.09,2.25,1.61,3.39,3.79,3.18,2.16-.2,3.8-1.3,4.27-3.64Zm-175.95-190.1c.4,.34,.8,.68,1.2,1.02,3.42-2.78,6.2-6.16,8.15-10.23,.44-.91,.08-1.91-.77-2.49-1.05-.7-1.76,0-2.27,.86-2.12,3.6-4.22,7.22-6.32,10.83ZM381.08,62.97c2.98-.85,5.43-2.37,6.57-5.41,.35-.94,1.34-2.04,.25-2.98-1.07-.92-2.03,.07-2.89,.66-1.77,1.21-2.79,3.35-5.14,3.88-1.36,.31-.85,1.36-.5,2.24,.33,.8,.25,2.01,1.71,1.61Zm-233.8,477.82c-5.05-2.01-9.52-3.79-14.5-5.77,3.49,6.47,8.34,8.48,14.5,5.77ZM490.46,135.7c-2.46-.02-3.72,1.1-3.6,3.4,.13,2.41,1.57,3.72,3.97,3.64,2.05-.07,3.78-1.06,3.89-3.26,.15-2.92-2.23-3.33-4.25-3.78Zm-205.46-36.72c-4.04,0-7.25-.02-10.46,.01-.97,0-2.43-.92-2.73,.69-.25,1.36,.91,2.28,2.13,2.73,3.99,1.46,7.59,1.13,11.07-3.43Zm21.33,10.15c3.67-.2,6.84-2.19,8.89-5.91,.47-.85,.72-1.95-.14-2.59-.92-.69-1.78,.14-2.43,.77-2.27,2.18-4.59,4.27-7.64,5.32-.69,.24-1.1,.71-.98,1.36,.16,.87,.8,1.29,2.29,1.06Zm223.31,57.4c-.42-1.96-1.48-3.3-3.52-3.17-2.32,.15-3.86,1.65-4,3.91-.12,2,1.31,3.29,3.33,3.08,2.18-.23,3.69-1.58,4.19-3.82Zm-238.3,361.18c-.27-2.25-1.58-3.38-3.77-3.37-2.19,0-3.7,1.17-3.7,3.38,0,2.44,1.67,3.67,4,3.62,2.22-.05,3.34-1.45,3.47-3.63Zm298.9,296.77c-.93-4.03-1.56-6.9-2.27-9.74-.34-1.37-1.25-2.18-2.73-2-1.09,.14-2.25,.42-2.76,1.52-.58,1.24,.4,2,1.13,2.81,1.96,2.17,3.89,4.35,6.62,7.41Zm-443.17-203.27c-.54,0-1.08,0-1.61,0,1.3,6.37-.94,12.76-.03,19.14,.55,0,1.1,0,1.64,.01v-19.15ZM370.98,100.13c-6.02-.41-11.79-2.57-17.84-2.56,5.45,4.2,11.58,3.95,17.84,2.56ZM125.47,638.29c2,4.4,7.67,6.93,11.36,5.4,.69-.29,1.57-.51,1.53-1.52-.03-.81-.76-1.03-1.35-1.06-3.91-.19-7.54-1.73-11.55-2.82ZM356.53,49.14c1.39,6.35,7.31,8.06,13.65,5.46-5.08-.15-8.88-3.56-13.65-5.46Zm-3.99,32.14c3.49,5.82,9.75,7.23,14.62,2.78-5.44,.2-9.73-1.41-14.62-2.78Zm-137.57,240.09c1.98-.05,7.67-9.78,6.69-11.37-.68-1.11-1.72-.87-2.28,.02-1.91,3.07-3.75,6.19-5.47,9.37-.47,.87-.22,1.89,1.05,1.98Zm-65.96,367.07c1.25-5.59,.27-10.92-1.5-16.18-.39,5.48-1.61,11.02,1.5,16.18Zm102.7-422.35c-.53-2.38-2.22-3.26-4.48-3.22-1.71,.03-3.3,.71-3.3,2.62,0,2.53,1.85,3.47,4.13,3.53,1.95,.05,3.3-.81,3.65-2.93Zm-67.87,403.37c-1.47,.41-3.27,.8-3.33,3.02-.06,2.25,1.27,3.55,3.45,3.59,1.99,.03,3.29-1.28,3.34-3.22,.05-1.97-1.21-3.11-3.46-3.39Zm394.3,140.39c1.32-.28,2.44-.57,3.06-1.57,.87-1.39-.27-2.4-.94-3.37-1.21-1.75-1.67-5.37-3.66-4.91-2.72,.63,.54,4.05-1.09,6.22-.56,.75,1.1,2.95,2.63,3.62ZM296.13,86.11c2.5-.8,4.51-2.43,5.19-5.28,.27-1.12,.84-2.69-.67-3.31-1.34-.55-1.77,.97-2.39,1.78-.97,1.27-2.01,2.38-3.52,3.03-1.09,.47-1.87,1.25-1.21,2.59,.48,.96,1.35,1.24,2.6,1.19Zm172.08-46.89c-1.51,1.8-4.9,2.07-5.75,5.11-.42,1.49,.68,2.91,2.4,2.73,3.37-.35,4.49-3.05,5.31-5.82,.29-.98-.14-1.86-1.96-2.02Zm-18.28,31.58c-3.29-3.04-7.38-3.21-10.22-5.6-.67-.56-1.59-1.42-2.47-.53-1.04,1.06-.13,2.05,.59,2.87,3.1,3.52,7.14,3.67,12.1,3.26ZM178.11,600.47c1.35-1.3,5.25-.13,5.32-3.37,.04-2.17-2.96-1.65-4.74-1.65-1.95,0-4.53-.35-4.61,2.6-.05,1.89,1.73,2.37,4.03,2.43Zm-14.05-180.18c.91,5.25,3.15,8.44,7.48,10.03,.88,.32,1.88,.5,2.46-.56,.39-.71-.2-1.19-.65-1.57-2.88-2.48-5.79-4.93-9.3-7.9ZM281.11,58.66c.56,2.49-6.98-2.14-4.34,3.46,1.15,2.45,4.19,3.69,5.88,2.59,4.15-2.7-2.89-4.18-1.53-6.05ZM152.29,724.38c1.63-4.46-1.22-8.48-.95-12.76,.03-.41-.64-1.25-1.36-.85-.46,.26-1.06,1.08-.95,1.42,1.39,3.99,0,8.64,3.25,12.18Zm33.93-142.12c-1.61,.36-4.26-.89-4.28,2.09-.02,2.01,1.93,2.71,3.76,2.76,2.03,.06,4.06-.62,4.14-2.88,.08-2.23-2.18-1.6-3.62-1.97Zm37.71-95.69c-4.59,1.68-9.34,2.57-14.99,2.62,5.29,3.51,10.1,2.65,14.99-2.62ZM322.94,115.34c-.73-1.26-1.59-1.28-2.63-.4-1.45,1.22-3.03,2.31-4.31,3.68-1.31,1.39-5.19,1.98-3.84,3.77,1.69,2.25,4.12-.73,5.93-1.92,1.92-1.26,3.89-2.69,4.85-5.14Zm-114.46,663.18c2.04-.59,2.37-2.25,2.3-4.03-.07-1.94-1.04-3.5-3.11-3.31-2.13,.19-2.63,2-2.42,3.87,.21,1.83,1.07,3.24,3.22,3.48ZM456.84,48.01c1.85-5.79-3.82-5.93-5.89-8.58-.55-.7-1.77-1.82-2.74-.46-.62,.87,.18,1.85,.87,2.46,2.4,2.12,4.88,4.15,7.76,6.58Zm-173.19,35.94c-4.07,1.44-6.86,2.13-9.77,1.3-.71-.2-1.6-.52-1.94,.51-.3,.9,.57,1.35,1.05,1.92,1.92,2.31,4.75,1.2,7.03,1.41,1.78,.16,1.38-2.95,3.63-5.14Zm10.64-13.27c-.23-.68-.43-1.84-1.69-1.38-2.19,.8-4.7,1.7-5.29,4.15-.41,1.7,1.43,2.27,2.93,2.07,2.57-.35,3.58-2.24,4.05-4.84Zm77.26-41.2c-.83-1.99-2.29-3.35-4.75-3.53-1.33-.1-2.22,.3-1.94,1.77,.4,2.04,1.1,3.98,3.58,4.27,1.63,.19,2.63-.67,3.1-2.5Zm105.73,543.54c-1.52-3.89-3.84-5.9-6.34-7.73-.62-.45-1.44-.69-2.16-.12-.84,.67-.43,1.49,.06,2.04,2.12,2.37,4.14,4.92,8.44,5.81ZM218.48,372.06c-4.55-3.57-7.6-6.99-10.88-11.18,.27,6.37,4.21,10.49,10.88,11.18Zm300.65,455.17c2.85-3.45,4.42-6.15,5.21-9.31,.24-.94,.3-1.93-.84-2.34-1.03-.37-2.01,.05-2.27,1.04-.79,3.05-2.11,6.01-2.11,10.61ZM298.86,95.46c.08,1.22,.46,2.24,1.57,2.13,2.96-.3,4.82-1.87,4.99-5.04,.05-1.03,.39-2.8-1.12-2.31-2.54,.82-3.91,3.3-5.43,5.22ZM154.14,632.91c1.8-.22,4.13,.1,4.33-2.49,.14-1.89-1.72-2.05-3.11-2.02-1.94,.04-4.62-.37-4.87,2.33-.17,1.85,2.08,1.92,3.64,2.18Zm-14.58,53.85c-.75-1.83-2.31-2.48-4.08-2.5-1.62-.01-2.75,1.04-2.66,2.65,.1,1.84,1.46,2.74,3.26,2.53,1.58-.19,2.99-.84,3.48-2.68Zm-25.96,10.48c3,3.83,6.27,4.88,10.28,3.51,.69-.24,1.46-.74,1.35-1.7-.1-.82-.8-.91-1.43-.78-3.29,.68-6.42-.67-10.2-1.04ZM360.58,37.12c1.02,4.89,5.11,7.67,9.32,6.4-2.98-2.37-5.59-4.95-9.32-6.4Zm-89.03,78.56c2.96,2.69,7.72,2.84,9.94,.8,.51-.47,.95-1.01,.53-1.54-.31-.39-1.08-.64-1.6-.58-2.75,.34-5.49,.8-8.86,1.31Zm-89.16,431.19c4.18,3.01,7.53,1.39,10.74-.88-.1-.45-.2-.9-.3-1.35-3.48,.74-6.96,1.48-10.44,2.22Zm48.23-111.5c-1.46,.14-3.69-.55-3.71,1.11-.02,2.28,2.54,2.33,4.28,2.51,1.48,.16,3.88,.09,3.77-1.67-.15-2.44-2.84-1.51-4.35-1.95Zm46.16-100.18c-.36-1.71-1.41-2.71-3.25-2.4-1.71,.29-2.84,1.39-2.62,3.22,.21,1.77,1.45,2.84,3.21,2.57,1.68-.26,2.58-1.55,2.66-3.39ZM116.97,670.79c.3,1.62,1.22,2.69,2.84,2.62,1.83-.08,2.85-1.32,2.79-3.12-.05-1.63-1.2-2.68-2.76-2.57-1.71,.12-2.82,1.23-2.86,3.07ZM272.41,71.19c.37,4.17,3.92,3.9,6,5.39,.68,.48,1.11,1.83,2.04,.51,.55-.77,.64-1.9-.48-2.39-2.39-1.04-4.19-3.28-7.56-3.51Zm159.26,25.17c4.05,3.58,8.01,3.49,11.76,4,.32,.04,.91-.35,1.04-.68,.32-.76-.41-1.37-.9-1.3-3.79,.53-7.01-2.22-11.91-2.03ZM151,481.12c-.06-1.02-7.42-4.99-8.27-4.43-.57,.37-.8,1.07-.42,1.62,1.82,2.61,4.6,3.49,7.55,3.93,.68,.1,1.11-.39,1.14-1.12Zm-24.46,34.29c.95,4.55,3.75,6.15,7.12,7.08,.49,.13,1.38-.12,1.64-.49,.55-.81-.1-1.42-.8-1.84-2.45-1.47-4.91-2.93-7.96-4.74ZM441.83,51.08c1.64,4.97,5.04,6.91,9.73,5.08-3.64-1.54-6.04-4.13-9.73-5.08ZM148.87,697.08c-1.69,3.18-1.25,5.8-.89,8.34,.12,.86,.67,1.89,1.87,1.62,.93-.21,.89-1.16,.89-1.91,0-2.5-.26-4.96-1.87-8.05Zm-13.39,14.92c-.38-1.27-1.11-2.47-2.73-2.53-1.61-.06-2.74,.96-2.84,2.5-.12,1.82,1.07,2.95,2.87,2.94,1.61,0,2.43-1.16,2.71-2.92Zm54.6-343.57c.33-1.14-.09-2.13-.88-1.88-2.6,.82-3.41,3.44-4.77,5.45-.44,.65-.18,1.9,.73,1.8,3.24-.35,3.53-3.52,4.92-5.37Zm-60.98,359.62c-.17-1.45-.96-2.44-2.38-2.46-1.69-.03-2.56,1.13-2.56,2.73,0,1.45,.94,2.42,2.35,2.43,1.64,.01,2.52-1.05,2.6-2.7Zm32.79,96.98c1.36-2.45,1.17-4.77,1.02-7.06-.05-.82-.51-1.6-1.39-1.64-1.2-.05-1.58,.92-1.61,1.9-.06,2.28-.33,4.65,1.98,6.8Zm72.93-337.7c1.4-.02,2.48-.65,2.68-2.07,.22-1.59-.68-2.82-2.2-3.12-1.63-.32-2.78,.77-2.96,2.29-.19,1.59,.88,2.56,2.48,2.89Zm-27.04,253.58c-1.41,.34-2.37,1.27-2.42,2.87-.05,1.51,.96,2.31,2.34,2.43,1.47,.13,2.42-.76,2.53-2.19,.12-1.58-.67-2.69-2.46-3.11Zm261.84-141.41c-.09-1.55-.95-2.36-2.4-2.42-1.68-.07-2.78,.76-2.68,2.52,.08,1.37,.93,2.42,2.37,2.51,1.74,.1,2.46-1.09,2.71-2.61Zm57.07,193.22c-.3,2.94-2.07,5.25-.53,7.91,.26,.44,1.3,.49,1.62-.18,1.09-2.31,1.72-4.69,.17-7.08-.07-.11-.27-.15-1.26-.64Zm-314.41-27.78c1.52-.02,2-1.04,2.01-2.43,.02-1.33-.28-2.57-1.87-2.7-1.46-.11-2.33,.81-2.53,2.18-.25,1.68,.71,2.58,2.39,2.95Zm24.85-298.29c1.66-.26,2.31-1.47,2.52-2.89,.2-1.41-.43-2.56-2.01-2.38-1.48,.16-2.56,1.14-2.68,2.73-.11,1.47,.85,2.2,2.18,2.55Zm434.25,278.27c-1.21,0-2.2,.44-2.36,1.73-.25,2.04,1.16,2.71,2.81,2.95,1.3,.19,2.16-.48,2.1-1.82-.06-1.57-.98-2.55-2.55-2.87Zm-498.53-60.28c-.31-1.82-1.64-2.47-3.29-2.56-.99-.05-1.94,.46-1.9,1.55,.07,1.84,1.47,2.64,3.06,2.89,1.22,.19,2.04-.5,2.13-1.88Zm34.9-225.69c-.07-1.56-1.05-2.28-2.44-2.32-1.21-.04-2.16,.65-2.23,1.96-.08,1.44,.68,2.45,2.16,2.57,1.5,.12,2.3-.76,2.51-2.22Zm317.45,350.87c1.56-.29,1.9-1.39,1.79-2.74-.11-1.26-.35-2.63-1.99-2.52-1.71,.11-2.27,1.42-2.15,2.96,.11,1.39,.88,2.25,2.36,2.3ZM283.5,128.07c-2.81,.1-5.81-.02-8.53,2.75,3.75,.78,6.3-.2,8.53-2.75Zm-75.14,500.29c-.2-1.1-.81-1.96-2.06-2.07-1.24-.11-2.22,.49-2.33,1.74-.13,1.45,.8,2.39,2.21,2.44,1.19,.04,1.99-.75,2.18-2.11Zm252.19,6.36c-.24-1.38-1.03-2.29-2.45-2.3-1.42-.01-2.4,.84-2.38,2.28,.02,1.6,.96,2.65,2.63,2.53,1.4-.1,2.16-1.05,2.2-2.5Zm-318.76,103.9c.11-1.39-.53-2.39-1.97-2.62-1.25-.21-2.17,.52-2.36,1.73-.21,1.41,.55,2.46,1.94,2.73,1.29,.25,1.98-.62,2.38-1.84Zm197.81-143.36c-1.52-.02-2.42,.68-2.53,2.15-.11,1.47,.7,2.38,2.13,2.5,1.45,.12,2.4-.78,2.53-2.14,.14-1.42-.8-2.24-2.13-2.52Zm166.3,213.83c-.26-1.24-1.01-2.09-2.25-2.01-1.41,.09-2.34,.99-2.21,2.5,.11,1.25,.99,2.04,2.22,1.99,1.45-.06,2.21-1.02,2.24-2.48Zm-319.5-46.65c-.32-1.01-.56-2.37-2.23-2.31-1.39,.05-1.82,1.04-1.75,2.27,.07,1.23,.7,2.13,1.96,2.25,1.37,.13,1.94-.74,2.02-2.22Zm10.33-32.96c-1.29,.12-2.08,.8-2.02,2.12,.06,1.2,.68,2.2,1.97,2.28,1.53,.1,2.34-.85,2.26-2.35-.07-1.3-1.02-1.86-2.22-2.05Zm293.95,84.75c1.29-.31,2.48-.82,2.3-2.42-.14-1.26-1.07-1.95-2.32-1.78-1.32,.18-2.45,.88-2.34,2.4,.09,1.3,1.14,1.74,2.36,1.8ZM247.21,391.05c1.3,0,2.23-.49,2.32-1.84,.1-1.52-.77-2.37-2.22-2.52-1.25-.13-2.24,.38-2.29,1.76-.06,1.47,.85,2.28,2.2,2.6Zm-94.81,125.56c1.05-.15,2.1-.52,2.16-1.87,.09-1.73-1.08-2.53-2.59-2.7-1.2-.13-2.19,.51-2.28,1.8-.11,1.72,1.1,2.41,2.7,2.77Zm359.77,279.28c-.28-1.33-.96-2.51-2.58-2.71-1.36-.16-2.14,.64-1.91,1.94,.29,1.64,1.31,2.9,3.08,2.98,1.26,.06,1.18-1.18,1.42-2.21Z"/>
  <path d="M341.59,477.75c-3.82,12.26-2.26,23.73,3.7,34.77,1.19,2.21,.12,2.77-1.93,2.72-5.03-.12-10.06-.31-15.1-.27-3.32,.03-2.55-2.05-2.13-3.81,2.1-8.94,5.55-17.35,10.28-25.22,1.66-2.77,3.45-5.46,5.18-8.19Z"/>
  <path d="M399.79,485.07c-7.44,11.24-11.72,22.78-4.44,36.31-6.15-1.41-11.62-2.68-17.09-3.92-3.27-.75-2.2-2.78-1.4-4.71,4.8-11.58,13.37-20.05,22.93-27.67Z"/>
  <path d="M498.24,534.58c1.8,13.78,.73,25.79-5.67,37.02-1.77,3.11-3.1,3.44-5.29,.44-1.57-2.15-3.45-4.15-5.47-5.89-2.62-2.25-2.58-3.8,.39-5.71,6.71-4.32,11.57-10.21,14.01-17.9,.71-2.24,1.17-4.55,2.03-7.96Z"/>
  <path d="M546.86,634.65c-3.6,14.24-10.24,26.89-19.58,38.15-.47,.56-1.28,1.27-1.86,1.21-1.2-.12-.99-1.36-1.11-2.25-.04-.31,0-.64-.07-.94-1.76-8.71-1.71-15.8,8.93-19.79,6.7-2.51,10.27-9.88,13.69-16.37Z"/>
  <path d="M515.1,733.68c1.7-6.04,3.38-11.9,4.99-17.78,.42-1.55,1.2-2.47,2.87-2.63,7.46-.73,13.83-3.99,19.74-9.07-2.64,8.97-19.03,26.41-27.6,29.48Z"/>
  <path d="M107.49,815.92c-12.31,1.88-19.65,8.39-23.18,19.25-.53,1.63-.87,2.99-3.04,2.69-2.46-.34-2.38-2.03-2.28-3.85,.81-14.84,13.15-23.03,28.5-18.09Z"/>
  <path d="M454.6,505.21c-12.08,5.33-19.41,14.24-24.41,25.29-.78,1.71-1.99,1.76-3.48,1.33-1.56-.45-1.67-1.43-1.4-2.91,2.19-11.72,16.29-23.53,29.29-23.72Z"/>
  <path d="M676.99,693.81c-2.18,12.67-9.68,15.8-25.23,11.62,9.68,.03,17.64-3.92,25.23-11.62Z"/>
  <path d="M416.48,227.44c-2.54-1.17-5.12-2.96-7.67-.25-1.29,1.37-1.8,2.99-.72,4.74,1.71,2.77,4.29,2.81,7.11,1.87-2.03,11.46-15.19,19.71-27.85,17.67-11.22-1.81-19.9-14.2-18.31-26.11,2.21-16.51,12.81-26.32,26.59-24.61,12.66,1.57,22.08,13.55,20.84,26.7Z"/>
  <path d="M463.2,232.24c-.06-4.34,.94-8.45,2.59-12.42,3.81-9.16,10.76-14.39,18.78-14.15,9.56,.28,18,6.44,21.21,15.46,4.18,11.78-.64,24.82-11.48,31.04-13.59,7.8-28.61,.37-30.76-15.22-.21-1.56-.23-3.14-.34-4.71Zm43.11-.42c-.34-2.67-2.05-4.07-4.7-4.04-2.57,.03-4.09,1.72-4.06,4.18,.03,2.63,1.6,4.48,4.39,4.41,2.66-.07,4.29-1.58,4.37-4.55Z"/>
</svg>