<?xml version="1.0" encoding="UTF-8"?>
<svg id="Layer_1" data-name="Layer 1" xmlns="http://www.w3.org/2000/svg" viewBox="0 0 864 864">
  <path d="M427.62,566.34c2.26,1.69,3.46,2.88,3.6,5.91,.17,3.88,3.44,6.96,5.92,9.99,8.46,10.35,17.34,20.39,26.95,29.63,18.04,17.35,35.96,34.94,57.05,48.72,44.1,28.84,91.81,42.65,144.83,35.05,28.34-4.06,47.33-21.01,62.66-43.47,9.22-13.52,12.65-29.1,15.35-44.86,5.91-34.47,2.88-68.73-3.03-102.82-5.45-31.45-13.68-62.21-24.37-92.3-.51-1.43-1.17-2.8-1.68-4.23-.78-2.21-2.07-2.81-4.16-1.56-16.92,10.07-36.3,11.27-54.93,15.06-13.83,2.81-28.16,2.05-41.95,5.44-2.52,.62-5.02,1.18-7.15,2.77-1.64,1.22-3.52,2.46-5.24,.5-1.6-1.82-.44-3.56,.8-5.29,11.15-15.59,11.5-33.79,.65-49.28-6.56-9.36-15.52-15.67-26.56-18.93-2.62-.77-5.3-1.45-7.54-3.09-1.78-1.3-2.36-3.13-1.67-5.24,.66-2.04,2.44-2.03,4.12-2.05,16.87-.24,33.61-2.11,50.29-4.34,12.74-1.7,21.95-11.56,24.15-24.41,3.54-20.62,1.97-41.15-.55-61.69-.29-2.41-.81-4.82-.06-7.21,.43-1.38,1.33-2.43,2.88-2.56,1.36-.11,2.47,.53,2.78,1.85,1.21,5.1,4.76,8.76,7.77,12.7,9.97,13,16.33,28.01,23.91,42.34,2.98,5.63,5.94,11.28,10.31,16.03,6.71,7.3,14.2,8.22,21.59,1.7,13.22-11.64,23.78-25.54,32.1-41.02,5.74-10.68,11.61-21.33,15.89-32.72,.53-1.41,1.39-2.54,3-2.1,1.57,.43,1.94,1.76,1.51,3.29-5.57,19.77-7.07,40.3-11.09,60.36-4.02,20.08-7.36,40.29-12.44,60.16-2.45,9.61-6.25,18.37-13.3,25.48-1.94,1.96-1.83,3.15,.2,5.12,9.44,9.2,19.2,18.12,27.47,28.45,14.4,17.98,24.19,38.38,31.97,59.94,15.08,41.77,20.86,84.69,17.21,128.94-2.53,30.69-9.45,60.2-23.2,87.92-8.67,17.48-21.84,31.33-36.22,44.04-23.78,21.02-51.85,34.27-82.16,42.55-27.96,7.64-56.42,12.8-85.31,16.13-27.52,3.18-54.52-.03-81.66-2.91-8.42-.89-8.32-1.31-10.23,6.98-2.43,10.49-4.85,20.99-7.46,31.44-1.77,7.07-3.81,8.48-11.21,8.71-4.09,.13-8.18,.38-12.28,.52-6.34,.21-8.48-2.26-6.73-8.24,.89-3.04-.58-3.29-2.66-2.8-4.54,1.07-7.23,4.4-8.86,8.45-1.3,3.22-1.95,6.69-2.97,10.02-.69,2.23-1.6,4.64-4.46,4.31-2.8-.32-3.36-2.76-3.5-5.14-.43-7.29,1.66-14.02,5.08-20.46-2.81-1.1-3.94,.81-5.11,2.26-3.96,4.88-6.4,10.63-9.11,16.23-1.24,2.56-2.1,6.79-5.99,5.33-3.48-1.31-2.35-5.16-1.62-8.08,1.75-6.96,4.15-13.62,10.84-18.86-4.13,.13-6.37,1.96-8.55,3.7-6.64,5.29-11.52,11.97-15.39,19.5-1.35,2.62-2.22,7.01-6.43,5.54-3.86-1.34-3.34-5.43-2.9-8.73,.83-6.27,4.33-11.2,9.46-16.34-5.54,1.19-9.84,2.75-14.12,4.43-2.95,1.16-6.72,2.95-8.54-.64-2.11-4.16,2.16-5.86,5-7.2,9.29-4.39,19.2-6.64,29.44-7.21,2.86-.16,3.95-.98,4.03-3.96,.32-12.06-1.76-23.57-7.13-34.42-.74-1.49-1.24-2.93-3.43-3.03-17.56-.82-33.79-6.89-49.98-13.02-6.45-2.44-12.75-5.29-19.8-8.23,2.94,8.9,4.79,17.57,5.33,26.49,.66,11.07,1.2,22.14-.43,33.18-.91,6.17-2.28,7.54-8.44,7.92-7.83,.49-15.21-.81-21.18-6.36-2.43-2.26-4.11-1.73-5.91,.59-3.18,4.1-6.25,8.2-6.74,13.66-.15,1.7-.08,3.83-2.42,4.43-2.5,.64-4.01-.9-5.35-2.62-3.14-4.05-2.63-10.6,1.23-16.16,1.58-2.27,3.63-4.05,5.85-5.68,.87-.63,2.57-1.12,1.64-2.68-.69-1.16-1.94-1.01-3.25-.58-6.72,2.21-12.15,6.05-15.97,12.08-1.38,2.18-2.8,4.33-4.2,6.5-.79,1.23-1.78,2.16-3.36,1.68-1.59-.48-1.9-1.88-1.93-3.28-.08-4.83,2.15-8.76,5.06-12.37,2.36-2.93,5.13-5.47,7.81-8.16-6.6,1.58-11.6,5.4-15.32,10.92-1.61,2.39-2.97,4.94-4.4,7.44-.85,1.49-2.13,2.29-3.76,1.89-1.69-.41-2.26-1.89-2.39-3.51-.46-5.6,2.54-9.81,5.3-14.76-3.23,1.56-6.47,3.11-9.7,4.69-1.36,.67-2.63,1.52-4.03,2.08-1.34,.55-2.77,.43-3.71-.83-.82-1.09-.6-2.39,.11-3.42,.84-1.24,1.77-2.5,2.91-3.45,7.86-6.48,16.74-10.3,27.13-10.03,5.77,.15,5.61,.14,4.69-5.87-4.14-27.14-13.93-52.34-25.63-77-14.96-31.52-26.93-64.04-31.11-99.01-2.2-18.44-3.36-36.88-1.52-55.41,.12-1.19,.16-2.39,.3-4.57-5.76,2.85-9.55,6.52-11.27,12.09-1.67,5.43-.63,10.83,.64,16.18,.48,2.02,1.8,4.22-.21,5.94-2.05,1.76-3.65-.44-5.27-1.27-12.5-6.42-24.14-4.5-34.91,3.83-9.62,7.44-18.86,15.32-25.35,25.87-1.02,1.65-2.06,3.74-4.51,2.99-2.33-.71-2.45-2.94-2.35-4.93,.69-15.06-3.33-29.47-5.74-44.12-3.05-18.56-14.12-30.69-29.75-39.64-12.21-7-25.52-10.31-39.33-12.07-2.26-.29-5.52,.42-6.13-2.62-.65-3.26,2.65-4.2,4.87-5.13,5.16-2.18,10.69-3.55,15.72-5.98,14-6.75,26.84-15.37,38.83-25.25,10.27-8.46,14.3-20.01,16.21-32.63,.82-5.4,1.73-10.79,2.55-16.19,.58-3.82,2.73-4.44,5.85-2.89,22.02,10.95,43.51,22.87,64.09,36.36,10.19,6.68,17.28,16.5,24.51,26.09,1.15,1.53,1.83,3.51,4.06,4.5,3.85-13.53,8.85-26.55,14.08-39.47,9.05-22.35,18.83-44.32,29.91-65.82,11.93-23.12,23.49-46.64,29.27-72.36,2.35-10.45,3.26-20.94,1.79-31.63-.4-2.95-1.44-3.61-4.24-3.77-48.19-2.69-95.11-11.63-140-29.75-16.06-6.48-29.89-16.15-38.98-31.47-1.12-1.88-3.25-3.99-.25-5.79,2.59-1.55,3.66,.88,4.89,2.6,4.01,5.64,10.11,8.03,16.24,10.33,2,.75,2.64,0,2.59-2.13-.17-6.95-2.44-9.91-9.33-11.43-10.58-2.34-20.79-5.69-30.14-11.26-15.29-9.12-22.14-22.54-19.53-40.23,2.74-18.57,8.48-36.05,20.78-50.74,5.1-6.1,10.67-11.18,19.7-9.81,6.95,1.06,9.66,3.59,9.91,10.59,.12,3.54-.53,7.01-1.78,10.26-1.36,3.53-.02,4.23,3.19,4.01,18.61-1.28,36.61-5.02,53.86-12.34,18.18-7.71,35.87-16.36,52.98-26.25,13.29-7.68,25.38-16.68,33.92-29.71,5.22-7.97,7.94-17,10.4-26.1,1.35-4.98,2.63-9.99,5.36-14.45,1.23-2.01,2.6-3.91,5.27-3.68,2.58,.22,3.89,2.09,4.84,4.29,5.37,12.56,5.47,25.67,4.16,38.94-.91,9.26-3.97,17.98-7.17,27.32,12-1.61,23.58-1.32,34.84,.96,7.8,1.58,13.92-.21,20.37-4.17,18.73-11.51,38.43-21.55,55.16-36.07,10.81-9.38,19.16-20.66,24.25-34.18,1.68-4.47,2.45-9.04,2.25-13.82-.13-2.97,.16-6.09,3.73-6.92,3.49-.81,6.66,.23,8.87,3.21,2.06,2.77,2.74,6.05,3,9.42,1.32,17.48-4.36,32.88-14.28,46.91-7.41,10.48-16.83,19.12-26.06,27.92-8.91,8.49-15.06,18.96-21.08,29.53-1.39,2.45-.67,3.75,1.5,5.15,2.79,1.8,5.69,3.64,7.96,6.02,4.45,4.67,9.42,6.1,15.87,5.29,31.98-4.06,62.79-11.01,88.58-32.16,13.38-10.97,23.82-24.11,31.24-39.74,4.21-8.87,4.96-18.31,5.21-27.86,.06-2.33-.12-4.77,2.58-5.73,2.6-.92,4.42,.76,5.81,2.59,3.91,5.16,5.1,11.22,5.62,17.51,1.49,18.17-4.34,34.35-13.19,49.8-8.55,14.93-19.83,27.06-34.63,36.01-16.49,9.97-32.78,20.27-49.1,30.51-6.31,3.96-11.98,8.78-17.48,13.82-2.15,1.97-2.26,3.51-.47,5.74,1.87,2.32,4.2,3.91,6.78,5.24,14.33,7.42,29.58,9.48,45.52,8.1,17.68-1.52,34.34-6.12,49.36-15.76,5.75-3.69,11.31-7.73,13.85-14.59,.64-1.74,2.02-2.76,3.93-2.32,1.88,.42,2.66,1.89,2.71,3.73,.02,.91,.1,1.86-.14,2.72-5.19,18.39-15.01,33.42-33.18,40.9-10.48,4.31-21.96,5.91-33.18,7.79-18.25,3.06-35.8,7.86-51.86,17.49-4.11,2.46-5.05,5.11-4.39,9.59,2.34,15.97,13.04,25.36,25.94,32.54,11.07,6.17,23.18,9.78,35.97,10.54,6.56,.39,12.64-1.11,18.22-4.65,1.63-1.04,3.37-2.53,5.25-.49,1.67,1.82,.7,3.72-.23,5.48-2.12,3.97-5.77,6.16-9.72,7.86-15.06,6.46-30.9,7.38-46.93,6.03-13.48-1.14-26.95-1.82-40.48-1.56-3.9,.08-6.26,.95-6.9,5.18-.4,2.67-1.57,5.22-2.37,7.83-5.1,16.56,1.37,34.67,15.81,44.28,7.14,4.76,16.81,3.86,22.99-2.13,.55-.53,1.05-1.11,1.63-1.59,1.34-1.11,2.87-2.06,4.51-.8,1.69,1.3,1.71,3.11,.78,4.92-3.04,5.89-7.7,10.03-13.71,12.78-9.44,4.31-19.25,3.59-29.08,2.17-4.5-.65-8.98-1.53-13.39-2.64-3.25-.82-4.91-.34-5.74,3.34-2.02,9.03-4.72,17.88-7.71,26.65-1.93,5.66,4.8,13.85,12.15,14.95,3.86,.58,7.54-.14,11.08-1.78,1.93-.9,4.21-2.01,5.74,.3,1.56,2.35-.14,4.34-1.66,6.05-1.83,2.06-4.37,2.57-7,2.81-7.89,.7-15.78,.66-23.66,.02-2.63-.22-3.83,.64-4.33,3.25-1.56,8.21-2.88,16.4-3.2,24.79-.26,6.79,1.71,12.09,6.92,16.43,1.84,1.53,4.97,2.9,3.78,6.05-1.14,3.02-4.23,3.17-7.01,3.03-2.36-.12-3.23,.36-2.7,3.02,2.7,13.47,7.15,26.33,12.99,38.73,.44,.92,.63,2.33,1.77,2.46,1.53,.18,1.74-1.46,2.23-2.45,1.42-2.85,3.02-5.67,3.95-8.68,5.51-17.81,17.53-31.22,30.6-43.46,17.38-16.26,34.51-32.87,53.35-47.54,8.14-6.34,16.09-12.92,24.09-19.44,2.21-1.8,4.04-2.35,5,1.1,6.36,22.8,20.74,39.18,40.25,51.99,24.54,16.11,51.02,27.31,79.51,34,4.15,.97,8.14,2.41,12.04,4.12,2.42,1.06,4.49,2.59,5.93,4.81,1.97,3.02,.88,5.77-2.67,6.48-1.91,.39-3.92,.26-5.89,.32-26.33,.72-46.8,12.63-62.11,33.49-6.83,9.31-10.3,20.36-11.3,31.86-1.13,12.96-3.24,25.94-1.01,39.01,.27,1.61,.42,3.43-1.55,4.33-2.14,.97-3.47-.41-4.69-1.79-18.07-20.48-41.59-23.96-66.92-21.05-10.04,1.16-17.11,8.01-24.1,14.62-1.48,1.39-2.67,3.78-5.24,2.67-2.27-.98-1.69-3.37-1.77-5.24-.59-13.06-8.25-21.13-19.12-26.67-4.43-2.26-9.37-3.51-13.95-5.51-2.46-1.07-5.38-.9-7.2-3.97-1.15-1.94-3.48,2.58-6,.38Zm21.01-35.77c-7.22,1.43-13.24,5.42-19.39,9.16,4.63-1.64,9.16-3.54,13.44-5.9,1.96-1.08,4.95-.47,5.87-3.34,6.21,.43,12.01-2.61,18.25-1.93-6.21-.57-12.39-.97-18.17,2Zm-5.97-26.05c5.85-4.27,11.71-8.55,17.56-12.82-.22-.29-.43-.59-.65-.88-6.06,4.03-12.45,7.59-17.33,13.26-4.5,3.53-8.65,7.46-13.26,10.86,5.1-2.78,9.97-5.85,13.68-10.42Zm-226.82,3.2c-3.03-3.66-6.62-6.69-10.5-9.4,3.33,3.33,5.8,7.52,10.05,9.88,3.51,5.07,9.2,8.02,12.54,13.69,.99-2.6,.39-4.65-1.19-5.43-4.33-2.14-6.75-6.49-10.9-8.74Zm289,35.27c5.09,1.59,9.56,4.56,14.58,6.29-4.55-2.87-8.63-6.83-14.71-6.18,.71-1.55-.51-1.93-1.49-2.1-2.44-.43-4.42-1.85-6.63-2.75-7.48-3.05-14.9-6.27-22.8-8.22,.74,.78,1.59,1.31,2.5,1.67,9.49,3.79,18.99,7.56,28.54,11.3ZM328.95,147.98c-16.09-.84-30.17,6.66-41.46,20.06-9.26,10.98-15.42,23.49-18.14,37.64-.82,4.28,.46,7.52,4.09,10.22,6.91,5.15,14.7,8.41,22.59,11.56,36.33,14.53,68.42,8.29,94.32-18.36,7.85-8.08,8.98-13.95,3.12-23.61-14.23-23.46-34.13-37.83-64.51-37.51Zm-56.35,452.56c8.65,.04,17.25-.32,25.77-2.13,2.95-.62,4.07-1.49,3.42-4.77-1.09-5.49-1.73-11.08-2.31-16.65-.82-7.74-.7-7.64-8.46-6.1-20.16,3.99-40.11,2.82-59.74-3.14-3.46-1.05-4.7-.48-4.51,3.21,.3,5.75,.6,11.5,.51,17.25-.07,4.26,1.91,6.12,5.78,7.32,12.92,3.98,26.21,4.57,39.55,5.01Zm-3.57-30.44c7.65,.16,16.64-1,25.55-3.01,2.95-.67,3.88-1.98,3.62-4.99-.5-5.73-.71-11.5-.82-17.25-.05-2.54-.65-3.47-3.42-2.98-20.81,3.68-41.06,1.78-60.58-6.52-2.51-1.07-3.02-.33-3.47,1.99-1.44,7.32-1.51,14.77-2.45,22.13-.45,3.51,1.06,4.78,4.19,5.6,11.78,3.1,23.67,5.18,37.38,5.03Zm-18.22,106.71c3.91,6.93,7.74,13.74,12.12,20.25,1.58,2.35,3.59,3.4,6.29,3.89,10.17,1.85,20.27,1.04,30.33-.73,11.36-2,22.64-4.3,33.02-9.71,2.86-1.49,3.65-2.89,1.88-5.98-2.48-4.33-4.46-8.96-6.47-13.54-1.24-2.84-2.25-4.84-5.67-2.05-1.69,1.37-4.07,2.02-6.24,2.65-19.28,5.65-38.87,8.09-58.93,5.6-1.91-.24-3.77-1.28-6.32-.39Zm20.45-1.43c8.72-.23,15.82-.8,22.85-2,8.97-1.53,17.88-3.25,26.32-6.87,3.03-1.3,4.23-2.83,2.45-6.19-2.06-3.87-3.8-7.94-5.25-12.08-1-2.88-2.09-3.44-5.15-2.59-23.64,6.59-47.48,10.02-71.73,3.2-2.24-.63-2.82-.2-2.07,2.06,1.7,5.19,4.14,10.09,6.1,15.16,2.09,5.42,5.76,7.67,11.31,7.96,5.59,.3,11.17,.97,15.18,1.34Zm-.04-48.93c10.71-.3,21.8-1.41,32.31-5.96,2.96-1.28,4.3-2.78,3.13-6.16-1.23-3.57-2.17-7.26-2.91-10.97-.53-2.64-1.72-2.81-4.09-2.38-23,4.11-45.82,3.58-68.28-3.32-3.2-.98-3.36,.28-3.07,2.67,.59,4.96,1.4,9.91,1.71,14.88,.2,3.15,1.74,4.36,4.49,5.3,11.74,3.99,23.78,5.94,36.71,5.94Zm-3.02,77.36c4.91,8.13,11.21,13.81,17.12,19.84,2.06,2.1,4.38,2.97,7.28,3.02,9.62,.18,19.05-1.18,28.39-3.28,8.88-2,17.7-4.18,25.34-9.57,2.42-1.7,3.16-3.07,1.34-5.81-3.1-4.67-5.91-9.53-8.62-14.44-1.16-2.1-2.15-2.52-4.17-1.09-3.36,2.39-7.15,3.98-11.09,5.14-17.83,5.26-35.86,8.93-55.59,6.17Zm-36.82-81.47c.61,6.6,2.26,12.38,3.75,18.21,.81,3.16,2.45,4.66,5.68,5.53,24.35,6.58,48.13,2.49,71.86-3.38,2.12-.52,2.07-1.7,1.54-3.4-1.65-5.2-3.28-10.41-4.78-15.65-.57-2-1.28-2.23-3.18-1.31-15.31,7.42-31.63,7.6-48.09,6.24-9.04-.75-17.8-3.04-26.78-6.24Zm66.04-95.24c.11,0,.22,0,.33,0,0-2.42-.11-4.85,.03-7.27,.12-2.07-.14-3.21-2.68-2.51-7.91,2.18-15.96,1.81-23.91,.54-11.04-1.75-22.28-3.19-31.57-10.34-2.58-1.98-2.54,.75-2.8,1.68-1.6,5.68-2.8,11.47-4.46,17.13-1.11,3.79-.09,5.67,3.66,7.14,16.59,6.5,33.65,8.57,51.31,6.43,9.71-1.18,9.73-1.06,10.08-10.99,.02-.61,0-1.21,0-1.82Zm-6.68,202.57c5.31,5.21,10.07,9.56,14.46,14.26,6.73,7.22,14.57,9.72,24.1,6.73,2.01-.63,4.17-.77,6.24-1.24,9.86-2.27,19.12-5.81,26.77-12.76,1.56-1.42,2.85-2.55,1.2-4.87-3.77-5.31-7.37-10.73-10.97-16.16-1.14-1.71-2.03-1.65-3.52-.3-4.84,4.37-10.76,6.73-16.92,8.49-13.11,3.74-26.47,5.9-41.34,5.85Zm-3.33-229.31c1.06,0,2.12,.04,3.18,0q8.43-.36,9.46-8.65t-7.31-7.8c-1.81,.08-3.64,.07-5.45-.07-11.92-.91-23.41-3.41-33.77-9.68-2.44-1.48-3.61-1.36-4.41,1.6-.79,2.91-1.88,5.78-3.18,8.5-1.43,2.98-.55,4.53,2.22,6.09,12.21,6.88,25.5,9.34,39.27,10Zm32.99,254.21c9.26,6.13,17.83,10.58,26.82,14.23,1.28,.52,2.53,.78,3.94,.14,8.04-3.7,15.69-8.02,21.9-14.43,5.13-5.29,5.02-5.38,.15-10.79-1.42-1.58-2.94-3.11-4.09-4.87-1.68-2.57-2.95-2.15-4.85-.16-3.06,3.2-6.85,5.43-10.84,7.39-10.03,4.92-20.63,7.64-33.03,8.49Zm-37.52-238.52c2.14-.2,4.86-.36,7.55-.73,7.95-1.07,7.74-1.12,8.38-9.14,.28-3.49-.74-3.76-3.9-3.56-17.08,1.05-33.52-1.29-48.38-10.49-2.04-1.27-2.8-1.07-3.46,1.08-.36,1.15-.94,2.22-1.43,3.33-3.03,6.88-2.63,8.26,4.09,11.47,11.54,5.5,23.92,7.37,37.14,8.05Zm6.67-34.81c14.12-.97,10.96,1.04,13.35-10.5,.67-3.22-.34-4.11-3.62-4.08-11.07,.1-21.61-2.48-31.88-6.59-3.39-1.36-6.69-5.9-9.64-4.17-2.68,1.57-3.17,6.61-5.01,9.92-1.67,3-.84,4.53,1.97,6.09,10.85,6.02,22.47,9.01,34.83,9.33Zm9.49-43.36q10.91-.02,13.01-8.39c.26-1.03,.43-2.09,.74-3.1,.79-2.54-.04-3.07-2.62-2.8-13.12,1.36-26.07,.51-38.61-3.93-2.01-.71-3.12-.38-3.81,1.61-.44,1.29-.81,2.67-1.54,3.78-1.71,2.61-.92,3.8,1.79,5.08,10.61,5,21.79,7.32,31.05,7.73Zm-1.02,26.18c4.33,1.17,6.78-.93,7.08-5.92,.06-1.05,.36-2.1,.69-3.1,.72-2.15,.18-2.93-2.23-2.9-14.22,.21-27.64-2.97-40.18-9.76-.85-.46-1.72-1.42-2.78-.22-2.6,2.92-1.48,10.67,1.97,12.59,10.81,6.01,22.49,8.85,35.45,9.31Zm81.58,286.31c-5.98,10.58-16.34,14.84-25.81,21.11,4.13,1.54,7.62,2.89,11.15,4.14,9.91,3.5,19.45,.56,26.02-7.86,1.08-1.38,1.5-2.49,.22-3.96-3.78-4.32-7.5-8.69-11.58-13.43Zm-81.48-328.74c3.48-.18,6.96-.56,10.43-.5,4.44,.08,6.27-2.1,7.17-6.25,.71-3.3-.08-3.79-3.17-3.5-10.5,.97-20.99,.12-31.13-2.54-4.93-1.29-7.09,.17-9.21,4.08-1.44,2.65-1.33,3.85,1.75,4.87,7.87,2.61,15.91,3.7,24.16,3.83Zm1.9,27.82c1.67,0,3.4,.28,4.99-.06,4.14-.88,3.13-4.78,3.55-7.4,.45-2.87-2.36-1.42-3.62-1.41-13.42,.1-26.21-2.5-38.26-8.51-.88-.44-1.66-1.39-2.82-.38-2.54,2.22-2.13,7.14,.81,8.65,11.09,5.72,22.83,8.96,35.35,9.1Zm23.12-87.27c7.28,.21,8.57-1.17,8.37-8.46-.05-1.85-.55-2.3-2.37-2.07-6.56,.82-12.96-.43-19.31-1.85-6.27-1.4-6.06-1.41-8.94,4.29-1.5,2.97-.49,3.84,2.2,4.67,6.55,2.01,13.2,3.22,20.04,3.42Zm-18.97,47c3.63-.2,7.26-.26,10.87-.63,4.14-.42,3.64-4.39,3.83-6.74,.18-2.12-2.71-.86-4.14-.78-9.58,.5-19.12,0-28.45-2.07-4.24-.94-6.19,0-7.89,3.89-1.21,2.76-.26,2.88,1.91,3.33,7.88,1.65,15.81,2.7,23.87,2.99Zm29.94-79.23c.23-6.98,.63-5.79-5.54-5.89-4.25-.07-8.48-.48-12.54-1.61-3.24-.9-5.23-.66-5.44,3.2-.05,.89-.24,1.83-.58,2.65-1.2,2.86-.36,4.36,2.67,5.28,4.64,1.42,9.31,2.6,14.15,2.94,6.97,.49,7,.44,7.28-6.57Zm-10.88,19.41c8.77,.18,9.47-.49,9.87-7.32,.13-2.31-.21-3.27-2.85-3.06-4.72,.38-9.36-.54-13.93-1.7-8.18-2.08-8.06-2.07-10.59,6.01-.73,2.32-.44,3.17,1.98,3.71,5.49,1.22,11,2.12,15.52,2.36Zm-15.42,49.54c3.76-.29,7.54-.46,11.29-.89,3-.34,2.16-3.22,2.87-5.01,.48-1.22-.55-1.46-1.56-1.41-11.26,.57-22.3-.97-33.33-3.04-3.97-.75-3.7,3.48-4.59,5.56-1.11,2.59,2.01,2.05,3.24,2.31,7.27,1.5,14.64,2.2,22.08,2.49Zm8.84-17.84c1.96,0,3.96-.21,5.89,.04,4.64,.59,4.39-3.05,4.55-5.61,.21-3.32-2.63-1.2-4-1.47-2.35-.46-4.84-.16-7.22-.51-6.28-.93-12.61-1.72-18.78-3.17-5.13-1.2-5.14,3.06-5.96,5.47-1.09,3.19,2.45,2.26,3.91,2.54,7.13,1.37,14.35,2.16,21.61,2.7Zm73.6-25.39c-1.17,1.43,.48,2.49,.47,3.75,0,.72,.29,2.06-.53,1.82-2.67-.78-2.36,1.23-2.49,2.49-.3,2.78-2.25,3.26-4.43,3.63-1.97,.34-3.53,.73-4.76-1.86-1.11-2.33-4.24-2.59-6.37-1.8-2.39,.89-1.23,3.44-.72,5.21,1.35,4.72,6.06,8.44,10.58,8.63,3.72,.16,8.09-3.06,10.05-7.39,1.92-4.26,1.04-11.53-1.79-14.48Zm-70.45,15.63c3.09,0,4.91,.07,6.72-.02,2.99-.15,2.2-2.77,2.73-4.45,.53-1.65-.54-2.06-1.98-2.05-9.15,.03-17.97-1.66-26.7-4.42-3.91-1.24-3.58,3.23-4.75,5.26-1.4,2.42,1.24,2.16,2.42,2.43,7.52,1.71,15.1,3.06,21.56,3.24Zm-7.9,17.88c3.18,0,6.36,.05,9.54-.02,2.81-.06,2.64-2.54,3.13-4.3,.36-1.3-.83-1.28-1.76-1.29-10.64-.03-21.15-1.33-31.57-3.36-3.62-.71-3.5,2.36-4.2,4.15-.93,2.38,1.49,2.11,2.76,2.34,7.31,1.31,14.67,2.22,22.1,2.48Zm-122.44-160.7c-2.81,.22-6-.44-7.77,.84-2.51,1.83,.8,4.79,.33,7.38-.27,1.47-.15,3.01-.35,4.49-.15,1.15,.23,1.81,1.36,1.76,4.37-.23,8.73-.51,13.09-.82,.8-.06,1.39-.6,1.51-1.45,.51-3.81,.48-7.71-1.33-11.06-1.55-2.86-4.7-.62-6.83-1.14Zm-28.24-.78c1.19,2.94,3.34,5.49,2.78,8.26-1.14,5.64,2.47,5.58,6.14,5.94,10.12,1,11.57-.82,8.57-10.7-.52-1.7-1.34-2.52-3.12-2.61-4.63-.23-9.26-.56-14.36-.89Zm53.61,6.44c-.17-7.52-1-8.22-8.11-7.36-2.4,.29-5.37-.18-7.07,1.07-2.5,1.83,.45,4.54,.52,6.95,.06,2.13-1.4,5.14,.73,6.28,1.97,1.06,4.68-.37,7.02-.93,.88-.21,1.74-.66,2.62-.69,3.92-.16,4.78-2.47,4.29-5.32Zm163.45,545.77c8.04,2.5,15.54,3.83,23.19,4.49,2.34,.2,3.16-.44,1.71-2.69-2.45-3.8-4.8-7.66-7.24-11.47-.69-1.08-1.55-2.02-2.81-.56-3.88,4.53-8.97,7.39-14.85,10.24Zm-55.2-480.1c2.3,0,3.66,.02,5.02,0,6.73-.11,6.54-.09,6.03-6.68-.25-3.18-1.48-3.65-4.31-3.23-4.02,.59-8.12,1.03-12.17,.95-3.93-.08-4.87,1.42-4.41,5.08,.33,2.7,1.4,3.67,4,3.61,2.26-.05,4.52,.2,5.84,.27Zm.98,13.1v-.13c-2.56-.23-5.13-.34-7.66-.74-2.53-.4-3.41,.49-3.67,3.04-.25,2.44-.76,4.4,2.53,5.04,4.76,.93,9.56,1.18,14.38,1.51,4.2,.28,5.32-1.29,5.37-5.38,.06-4.55-2.73-3.28-5.06-3.33-1.96-.04-3.92,0-5.88,0Zm97.19-49.48c-1.11,2.04-2.01,4.23-3.36,6.09-3.29,4.51-5.85,4.39-9.8,.54-1.33-1.29-3.83-2.22-5.6-1.97-1.82,.26-1.93,2.81-1.95,4.61-.04,3.54,1.03,6.65,4.46,8.28,3.44,1.64,6.53,.57,9.18-1.85,4.5-4.12,6.67-9.46,7.08-15.7Zm-96.16,38.96c-3.24-.16-5.67-.18-8.08-.43-2.08-.21-3.62-.08-3.54,2.61,.07,2.32-.93,5.1,3.02,5.21,4.54,.13,9.08,.37,13.62,.64,3.09,.18,5.04-.16,4.97-4.29-.07-4.05-2.14-3.91-4.89-3.77-1.97,.11-3.94,.02-5.1,.02Zm174.04,470.26c-1.53,7.23-2.77,13.77-5.57,19.86-.41,.88-1.46,1.84-.39,2.84,.9,.85,2.08,.43,2.99-.04,12.05-6.2,14.64-11.66,5.63-20.27-.64-.61-1.31-1.18-2.65-2.38ZM429.55,233.04c-1.64,1.98-.55,4.2-1.58,5.87-1.04,1.69-2.62,4.15-4.37,2.26-1.85-1.99-4.46-4.21-3.91-7.74,.16-1.04,1.28-2.6-.44-3.13-1.36-.42-1.94,1.18-2.64,2.1-.82,1.09-1.54,2.25-2.23,3.43-2.97,5.02-1.25,9.6,4.27,11.47,3.77,1.27,6.92,.26,9.35-2.74,2.73-3.37,3.41-7.1,1.54-11.51Zm-24.39,63.87c-2.74,2.25-2.07,8.91-7.05,7.12-2.85-1.02-5.66-4.8-5.26-9.12-3.84,4.42-4.52,9.64-1.61,13.49,2.33,3.1,5.45,3.67,8.89,2.11,4.7-2.12,6.37-6.68,5.03-13.61Zm111.13,496.71c.11,1.13,.1,2.05,.32,2.93,.35,1.4,.16,3.34,2.05,3.64,1.52,.25,2.26-1.28,3.1-2.32,1.41-1.77,2.8-3.57,4.17-5.37,2.53-3.33,.56-10.28-3.3-11.91-1.13-.47-1.75,0-2.16,.9-1.84,3.96-3.98,7.83-4.18,12.14Zm185.91-32.34c-.46-2.23-1.07-5.52-4.75-5.27-3.41,.23-6.38,2.44-7.37,5.83-1.07,3.64,1.23,6.62,3.26,9.43,.47,.65,1.29,.5,2.07,.22,2.53-.89,6.85-6.88,6.79-10.21ZM148.47,226.15c.57,2.4,1.17,4.43,1.52,6.5,1.15,6.73,1.32,6.79,8.18,7.63,3.03,.37,3.69-.83,3.58-3.5-.31-7.53-3.54-10.24-13.28-10.62Zm211.65,156.44c-.86,1.94-1.34,3.02-1.83,4.1-1.32,2.92-2.6,6.66-6.58,5.46-3.65-1.11-2.5-4.58-1.74-7.4,.2-.75,.37-1.61-.53-1.93-.45-.16-1.15,.09-1.62,.36-3.11,1.79-4.61,7.6-2.88,11,1.77,3.48,5.66,4.9,9.29,3.4,4.65-1.92,7.59-8.61,5.89-14.99Zm361.76,370.45c-.11-3.32-2.6-6.57-5.05-6.59-2.5-.01-7.45,4.65-7.48,7.04-.03,2.49,4.88,7.44,7.24,7.3,2.07-.13,5.38-4.98,5.29-7.75Zm-77.57,25.54c.92,2.68,1.75,5.99,5.42,6.68,2.62,.49,8.22-5.1,7.81-7.67-.53-3.3-2.58-5.47-6.06-5.63-3.19-.15-7.25,3.58-7.17,6.63Zm-42.91,8.58c.11,2.46,3.72,7.49,5.24,7.31,2.21-.26,7.89-6.57,7.35-8.57-.74-2.75-1.64-5.81-5.34-5.82-3.16,0-7.38,4.29-7.25,7.08Zm-202.48-459.44c-1.27,1.13-1.01,2.24-1.02,3.26-.04,3.4-.96,6.62-4.43,7.63-3.65,1.05-3.78-2.42-4.68-4.72-.78-1.98-3.43-1.38-4.47-3.06-1.39,1.13-1.89,2.66-2.01,4.38-.32,4.48,2.3,7.57,6.77,7.95,7.99,.68,12.91-6.79,9.84-15.43Zm-17.44,98.94c-.47,.31-.92,.45-1.09,.75-3.94,6.89-7,6.35-10.93-1.13-.34-.65-.52-1.48-1.05-1.91-.81-.66-2.23-1.33-2.7-.01-.96,2.67-4.21,4.76-2.29,8.22,1.78,3.21,4.43,4.9,8.18,4.58,4.56-.38,8.72-4.73,9.88-10.5Zm345.85,257.68c3.76-.06,6.86-3.14,6.57-6.46-.27-3.12-2.02-5.41-5.13-6.02-1.95-.39-8.5,5.98-8.03,7.82,.87,3.44,3.98,4.09,6.59,4.66ZM427.65,201.91c-7.04,6.03-5.94,10.89-3.76,13.89,2.64,3.64,6.1,2.6,9.34,.84,4.3-2.34,6.01-6.94,4.26-11.48-1.47,3.63-1.89,8.36-7.21,7.68-2.32-.3-3.96-6.96-2.63-10.93Zm116.76,600.11c1.03-1.62,1.63-2.64,2.3-3.61,.77-1.1,1.52-2.23,2.41-3.23,2.47-2.77,2.31-7.04-.74-9.36-3.12-2.37-4.95,.55-6.77,2.29-1.92,1.83-2.15,4.24-.95,6.65,1.11,2.24,2.29,4.45,3.74,7.26Zm41.04-100.43c.23-2.55-2.47-3.88-4.4-5.64-.84-.77-2.1-.72-2.78,.34-1.46,2.27-3.36,4.3-4.05,7-.53,2.1,.03,3.9,1.9,5.11,1.71,1.1,3.67,1.95,5.43,.46,1.97-1.67,3.36-3.86,3.89-7.27Zm-207.47-236.06c-1.07,2.38-1.82,3.66-2.23,5.03-.64,2.17-2.06,3.44-4.2,3.53-2.52,.12-3.37-1.86-3.55-3.91-.2-2.19-1.52-2.19-3.13-2.26-1.85-.08-2.71,.72-3.16,2.48-1.09,4.24,1.37,7.81,5.89,8.36,7.09,.86,10.15-2.73,10.39-13.24Zm312.75,238.18c-.33-2.14-.79-4.43-3.19-5.44-2.35-.99-3.54,1.03-4.91,2.3-1.78,1.66-4.65,2.97-3.15,6.18,1.04,2.22,1.89,5.03,5.19,4.78,2.52-.19,6.06-4.85,6.05-7.82ZM391.29,392.35c-1.67,2.2-2.39,3.68-2.59,5.33-.24,1.91-1.41,3.35-2.38,4.86-1.34,2.07-3.46,3.05-5.87,2.73-2.48-.33-2.71-2.34-2.86-4.46-.14-2.07-1.53-4.54-3.19-4.5-2.21,.06-2.93,2.72-3.12,4.9-.15,1.73,.47,3.24,1.66,4.57,3.34,3.72,9.09,3.75,12.98-.03,3.45-3.35,4.54-7.7,5.37-13.39Zm-8.08,155.73c1.79-.26,3.44-.46,5.06-.77,1.38-.26,2-1.15,2.02-2.58,.06-4.06-5.15-8.99-9.27-8.82-2.07,.09-2.61,.92-1.94,2.88,.53,1.54,1.62,3.8,.99,4.68-3.81,5.33,1.11,3.8,3.13,4.6Zm188.32,241.85c-1.01-1.85-1.9-4.43-4.47-5.41-2.68-1.03-2.9,1.88-4.12,3.14-.83,.86-1.47,1.89-2.23,2.82-1.7,2.07-.16,3.69,.85,5.26,.76,1.18,1.34,2.86,3.24,2.68,1.92-.19,6.81-6.07,6.73-8.48Zm52.94-6.91c.64,2.66,1.1,5.96,3.97,7.78,1.13,.72,6.95-5.79,6.83-7.79-.17-2.77-.82-5.67-4.13-6.19-2.58-.41-6.58,3.38-6.68,6.2Zm-42.71,6.01c-.07,3.28,2.25,7.42,3.72,7.39,2.26-.05,7.79-7.29,7.08-9.44-.74-2.27-2.09-4.48-4.8-3.76-3.16,.84-5.44,3.05-6.01,5.82Zm182.49-75.22c-.46-3.03-2.23-5.24-5.16-6.06-1.92-.54-5.95,4.08-6.07,6.51-.11,2.2,3.87,5.74,6.72,5.52,3.41-.27,3.98-3.11,4.51-5.97Zm-84.59,56.39c-.61-2.26-1.36-4.95-4.71-5.31-2.06-.22-6.25,3.9-6.23,5.85,.01,1.49,4.21,6.91,5.36,6.94,1.77,.03,5.62-4.8,5.58-7.47ZM352.03,448.04c-.1,2.56-1.9,3.94-3.36,5.58-1.55,1.74-2.5,4.55-5.7,2.85-2.65-1.4-3.24-3.41-1.62-6.01,.33-.53,.4-1.22-.26-1.54-.33-.16-1.01-.09-1.25,.16-1.86,1.93-2.93,4.33-2.85,6.96,.07,2.51,1.15,4.73,3.69,5.81,2.62,1.12,4.76,.1,6.58-1.73,3.3-3.32,4.62-7.5,4.78-12.08Zm-1.13-27.39c-1.79,.08-2.52,1.53-3.4,2.69-1.53,2.03-3.27,3.35-5.71,1.56-2.51-1.85-1.32-3.96-.12-5.98,.49-.82,1.95-1.56,.68-2.59-1.07-.88-1.97,.26-2.65,.98-2.69,2.89-3.92,6.16-1.94,9.92,1.34,2.55,3.47,3.76,6.41,2.83,3.94-1.23,6.88-5.37,6.72-9.41Zm204.14,280.18c3.2,0,4.54-2.31,5.23-5.06,.42-1.7-3.97-6.37-5.81-6.03-2.89,.53-5.03,2.51-5,5.5,.04,3.17,1.99,5.26,5.58,5.59Zm-106.67-74.2c2.19-.99,6.52-.56,5.34-3.74-.96-2.59-2.86-5.84-5.95-7.45-.81-.42-2.18-1.15-2.31-.43-.35,1.91-4.34,1.74-2.62,4.29,1.69,2.49,1.38,6.63,5.54,7.33ZM216.85,229.09c.09,1.21,.43,3.46,.38,5.71-.05,2.32,.82,3.03,2.95,2.29,1.56-.55,3.14-1.08,4.65-1.75,3.06-1.35,3.06-3.52,1.19-5.8-2.08-2.54-5.21-2.83-8.21-3.2-1.23-.15-1.53,.64-.97,2.75Zm150.63,266.4c-.57,3.3-1.75,6,.49,9.72,3.43,5.7,7.8,4.86,11.99,1.81,.92-.67,1.64-1.49,1.13-2.65-.27-.62-.92-1.39-1.51-1.49-1.89-.33,.39,2.35-1.46,2.28-1.08-.98-.73-3.33-3.25-3.07,.24,.61,.47,1.12,.65,1.64,.42,1.17,1.88,2.73-.02,3.41-1.54,.55-2.12-1.33-2.52-2.57-1.1-3.41-3.4-6.11-5.5-9.08Zm427.51,106.09c3.9,.48,5.87-.04,5.93-3.19,.07-3.63-1.96-5.88-5.28-6.17-3.11-.28-4.86,1.82-5.08,5.06-.3,4.41,3,4.07,4.42,4.29Zm-186.75,108.9c.03-3.66-2.74-7.56-5-7.09-3.36,.7-4.34,3.37-4.47,6.51-.13,3.2,1.34,4.85,4.55,4.84,3.13,0,4.68-1.72,4.91-4.27Zm170.14-22.98c2.65,.32,4.79-.49,4.66-3.76-.11-2.83-1.03-5.53-4.15-6.34-1.98-.51-5.7,3.76-5.68,6.2,.02,3.37,2.35,3.83,5.16,3.9Zm-161,23.71c.12,2.66,.16,5.77,3.34,5.62,3.67-.17,4.43-3.7,4.88-6.7,.44-2.93-1.34-4.77-4.09-4.93-4.56-.27-3.25,3.76-4.13,6.01Zm162.14-212.44c4.13-.03,8.1-2.13,8.01-4.41-.11-2.97-2.08-4.4-4.8-4.24-3.48,.2-6.07,2.1-6.69,5.65-.42,2.37,1.46,2.99,3.48,3Zm-411.53-166.32c-2.19,1.18-3.15,4.73-6.18,3.76-3.01-.97-2.79-3.77-2.72-6.44,.06-2.09-1.37-1.58-2.4-.73-1.34,1.1-1.97,2.61-1.99,4.38-.05,3.82,2.62,7.01,6.06,7.18,3.81,.18,6.64-2.96,7.22-8.14Zm369.05,409.02c-.35-2.77-.48-6.22-4.04-6.02-3.03,.17-5.02,3.41-5.2,6.04-.2,2.82,2.78,4.99,5.39,5.13,2.72,.14,3.57-2.67,3.85-5.15ZM527.23,110.85c2.05-1.03,5.73-.33,5.5-4.42-.16-2.88-1.75-5.15-4.8-4.96-2.91,.18-5.24,2.1-5.34,5.21-.08,2.56,1.65,4.1,4.64,4.16Zm-148.92,128.29c-4.02,2.62-5.52,5.41-4.35,9.15,.88,2.8,2.73,4.83,6.06,4.24,3.58-.63,6.27-4.76,6.11-9.42-2.84,1.3-2.79,7.39-7.27,5.04-3.36-1.77-1.33-5.33-.56-9.01Zm381.76,198.63c-1.02,.4-2.9,1-4.65,1.86-1.93,.95-2.33,2.6-1.66,4.62,.76,2.25,2.43,1.9,4.1,1.51,1.47-.35,2.93-.78,4.38-1.24,1.55-.49,3.61-.71,3.16-3.04-.44-2.28-1.84-3.8-5.33-3.7ZM402.81,93.43c2.37-1.02,5.6-1.67,5.45-4.97-.13-2.75-2.64-4.72-5.32-4.59-2.98,.15-4.84,2.66-4.91,5.56-.07,2.7,2.26,3.59,4.78,4Zm343.86,564.33c-.17-2.76-1.55-4.41-3.99-4.97-1.35-.3-5.97,4.78-5.66,6.41,.51,2.66,2.83,4.23,5.14,4.16,3.21-.09,4.14-2.93,4.51-5.6Zm1.36,79.01c2.86-.63,4.09-2.39,3.62-4.72-.57-2.79-1.61-6.23-4.96-6.11-2.46,.09-4.81,2.89-4.49,5.48,.36,2.99,3.67,3.96,5.83,5.35Zm-41.87-37.45c3.55,0,4.8-2.12,4.83-4.93,.03-2.46-1.75-5.08-3.82-4.7-2.85,.53-5.36,3.06-5.61,6.29-.25,3.23,2.81,2.81,4.61,3.34Zm-218.36-46.9c-2.08-.3-4.01,.75-3.93,4.18,.06,2.52,1.03,4.97,3.67,4.75,2.47-.21,5.71-.61,6.81-3.47,.69-1.8-3.36-5.45-6.55-5.46ZM229.77,127.24c1.99-.43,5.36-.95,5.51-4.02,.13-2.65-2.88-4.24-5.47-4.41-2.75-.18-5.04,1.33-5.16,4.44-.11,2.82,1.75,3.95,5.13,3.99Zm565.88,443.18c-2.63,.35-5.27,1.16-5.14,4.43,.15,3.75,3.39,3.68,6.07,3.9,2.68,.22,4.37-.86,4.26-3.86-.12-3.31-2.22-4.33-5.2-4.47Zm-22.41-108.07c-.11,.02-.73,.02-1.29,.2-2.73,.91-5.24,2.26-4.48,5.66,.84,3.74,3.71,1.83,5.89,1.65,.59-.05,1.19-.19,1.76-.38,1.82-.61,4.1-.95,3.58-3.68-.5-2.65-2.39-3.63-5.46-3.46Zm-19.79,170.49c2.69-.28,4.55-1.36,4.43-4.2-.15-3.38-2.66-5.57-5.42-5.62-2.94-.05-3.62,3.41-3.85,5.82-.31,3.29,2.7,3.38,4.84,4Zm-357.27-64.62c1.29-.09,3.05,.43,3.96-1.12,.9-1.53-.69-2.39-1.36-3.49-.71-1.15-1.22-2.44-2.04-3.51-1.52-2-5.38-2.16-6.09-.36-1.48,3.76,1.36,8.25,5.52,8.48Zm-32.23-40.79c1-.01,2.56-.93,3.26-3.13,.35-1.08-.02-1.72-1-2.14-2.78-1.2-5.57-2.4-8.34-3.62-1.27-.56-1.56,.15-1.71,1.21-.57,3.91,2.75,7.81,7.79,7.68Zm-170.54-10.76c-14.23-4.59-28.64-7.33-43.47-2.94,14.64-1.5,29.12-.49,43.47,2.94Zm597.42,18.3c-2.45-.02-4.1,1.17-4.75,3.46-.44,1.55-1.49,3.46-.15,4.75,1.67,1.62,3.28-.47,4.93-.86,.44-.1,.84-.36,1.27-.48,1.86-.55,4.2-.69,3.51-3.61-.59-2.49-2.52-3.21-4.81-3.26Zm-14.32-51.97c2.39-1.09,6.91,.48,7.4-3.63,.35-2.98-3.22-3.74-5.74-3.77-3.06-.04-5.04,1.9-5.37,5-.26,2.49,1.71,2.36,3.71,2.4Zm-15.62-27.8c.25,1.24-.41,3.08,2.03,3.17,2.83,.1,8.52-2.91,8.51-4.66-.02-2.8-1.96-3.71-4.25-3.55-3.07,.21-6.19,.76-6.29,5.05Zm-249.13,218.35c2.1-.68,4.7-.39,5.01-3.2,.25-2.32-5.06-7.27-7.34-7.3-1.43-.01-1.71,1.1-1.24,1.69,2.07,2.57-1.89,7.73,3.57,8.81Zm271.47-160.75c2.25-.82,6.14,1.01,6.25-3.27,.07-2.81-2.15-4.26-4.97-3.99-3.21,.31-5.61,2.01-5.53,5.43,.06,2.88,2.63,1.54,4.26,1.83ZM440.43,151.24c-.29-2.39-1.21-4.8-4.06-4.95-2.47-.13-4.3,1.51-4.38,4.2-.09,3.03,1.69,4.93,4.6,5.11,2.58,.16,3.54-1.85,3.85-4.35Zm-130.26-30.61c.8,2.01-.57,5.51,3.37,5.67,2.01,.08,4.62,.09,4.51-3.07-.12-3.38-1.97-5.91-5.24-6.54-2.72-.53-2.25,2.12-2.64,3.95Zm440.51,313.05c1.8-.89,5.66,.25,6.19-3.58,.33-2.44-1.85-3.82-4.19-3.64-2.89,.23-5.84,.91-5.98,4.75-.08,2.3,1.45,2.69,3.98,2.47ZM391.62,103.31c2.35,.17,4.14-.57,4-2.79-.18-2.88-1.93-5.43-4.85-5.6-2.37-.14-3.96,2.03-3.98,4.58-.02,3.41,2.86,3.27,4.83,3.81Zm63.33,39.85c-.37-2.22-.93-4.31-3.72-4.28-2.89,.03-4.48,1.64-4.51,4.53-.03,2.77,1.78,4.31,4.23,4.36,2.74,.05,3.7-2.16,4-4.6Zm332.84,521.24c.46-3.04-.92-4.87-3.22-4.86-2.84,.01-4.42,2.42-5.03,5-.68,2.89,1.56,3.63,3.74,3.86,3.16,.34,4.02-1.96,4.51-4ZM497.25,127.91c-.51-2.75-2.13-4.54-5.16-4.43-2.14,.08-4.13,1.23-3.7,3.58,.49,2.65,2.49,4.53,5.35,4.73,2.44,.17,3.44-1.43,3.51-3.88Zm-83.93-51.85c-.52-2.6-2.36-4.1-4.91-4.38-2.48-.28-4.26,1.45-4.28,3.7-.03,2.94,2.68,3.84,5.05,4.18,2.2,.32,3.62-1.11,4.14-3.49Zm102.91,44.6c2.14,.18,4.12-.38,4.31-2.79,.24-2.89-1.38-4.95-4.31-5.34-2.54-.33-3.9,1.38-4.14,3.73-.28,2.86,1.69,3.89,4.13,4.39Zm-86.34,366.75c-9.15,8.11-13.23,19.05-17.28,30,6.61-9.51,8.75-21.56,17.28-30Zm238,226.87c1.69,.09,3.24,.06,3.29-2.07,.07-2.66-1.12-5-3.73-5.37-2.25-.31-5.27,.24-5.41,3.35-.18,4.02,3.89,2.72,5.84,4.08Zm-245.56-115.27c.16,5.65,.49,6.22,4.17,5.91,1.39-.12,3.68,.45,3.67-2.04-.01-2.3-4.52-6.37-6.44-6.63-3.64-.5-.5,2.11-1.4,2.77Zm-65.5-55.02c-1.13,.04-1.53,1.31-1.23,2.49,.72,2.82-.1,6.84,4.71,6.88,1.76,.01,2.9-.73,2.97-2.63,.09-2.34-3.79-6.77-6.45-6.74Zm11.38-280.7c-3.25,.52-4.74,5.28-7.85,2.86-2.66-2.08-.29-5.23,.06-8-2.53,2.29-4.39,4.83-3.5,8.45,.48,1.94,1.84,3.42,3.86,3.17,3.55-.45,5.94-2.62,7.42-6.48Zm-18.91,226.76c-2.4,3.28-4.46,3.51-8.62,.76-.84-.56-1.53-1.7-2.69-1.04-1.31,.74-.81,2.08-.71,3.25,.16,1.89,1.1,2.89,3.02,3.32,4.46,1,7.1-.68,9.01-6.29Zm442.29,155.09c.14-2.62-1.35-4.05-3.75-4.13-2.82-.09-4.05,2.16-4.23,4.47-.23,2.93,2.38,3.16,4.45,3.37,2.56,.26,3.42-1.44,3.53-3.71Zm-599.17-101.13c6.02-2.49,12.22-4.13,18.47-5.67,1.13-.28,2.72-.63,2.49-2.11-.23-1.5-1.95-1.55-2.96-1.15-6.24,2.45-12.85,4.16-18,8.92Zm207.96,39.51c.15,4.54,2.12,7.99,4.49,7.79,1.53-.13,3.11-.46,3.31-2.41,.14-1.34-5.13-7.72-6.34-7.8-2.1-.14-1.22,1.51-1.46,2.41Zm243.97,127.06c-.33-2.49-1.43-4.27-4.03-4.07-2.99,.23-3.19,2.92-3.53,5.06-.37,2.34,1.43,3.21,3.38,3.3,2.94,.13,3.64-2.11,4.18-4.29ZM379.96,94.46c2.31-.56,4.12-1.89,4.21-4.46,.08-2.23-1.28-3.79-3.64-3.62-2.33,.17-4.05,1.68-4.09,4.03-.04,2.01,.99,3.77,3.52,4.04Zm-57.51,27.6c.24,1.89,.31,4.08,2.91,3.73,2.48-.33,4.18-1.89,3.98-4.65-.15-2.04-.81-4.28-3.3-4.06-2.73,.24-3.33,2.68-3.59,4.98Zm116.39,40.35c-2.05,.29-3.65,1.12-3.63,3.33,.03,2.75,1.65,4.72,4.31,4.87,2.19,.12,2.78-2.04,2.89-3.9,.13-2.46-1.18-3.91-3.57-4.31Zm110.97-108.36c-3.11,.13-4.2,2.1-4.23,4.49-.02,2.46,1.91,3.91,4.1,3.86,2.55-.06,3.27-2.37,3.32-4.55,.06-2.2-1-3.71-3.2-3.79Zm155.26,657.99c-2.96,.4-3.31,2.95-3.73,4.98-.57,2.76,1.89,3.02,3.75,3.25,2.15,.26,3.39-.94,3.46-3.12,.08-2.51-1.09-4.24-3.48-5.1ZM453.65,220.9c-2.26,.07-3.58,1.54-3.67,3.64-.12,2.75,2.16,3.48,4.29,3.43,1.9-.04,4.33-.78,4.16-3.11-.17-2.35-2.04-3.9-4.79-3.97Zm10.95-79.02c2.21-.11,4.2-.62,4.21-3.18,0-2.44-1.44-4.03-3.98-3.98-2.08,.05-4.03,.88-4.16,3.31-.14,2.62,1.56,3.72,3.94,3.85Zm-182.98-52.44c-.48-2.09-1.83-3.4-4.04-3.46-2.22-.06-4.04,1.16-4.19,3.35-.15,2.15,1.39,3.73,3.63,3.95,2.57,.25,3.71-1.58,4.61-3.84Zm85.19,12.32c2.34-.49,3.78-1.78,3.7-4.3-.08-2.27-1.25-3.9-3.58-3.66-2.24,.23-3.9,1.62-3.74,4.22,.14,2.22,1.2,3.65,3.62,3.74Zm167.57,578.13c-.31-1.67-1.34-2.83-2.98-2.79-2.52,.06-4.94,.97-5.55,3.72-.5,2.28,1.29,3.3,3.24,3.41,2.91,.16,4.06-2.09,5.29-4.34Zm262.51-62.17c.03-3.01-1.06-4.38-3.53-4.22-2.62,.16-3.64,1.86-3.59,4.28,.05,2.54,1.66,3.26,3.93,3.23,2.69-.03,3.21-1.73,3.19-3.29Zm-277.93,99.44c.26,1.75-.17,4.14,2.85,3.96,2.59-.15,3.63-1.92,3.62-4.25,0-2.63-1.82-4.54-4.08-4.44-2.22,.1-2.39,2.65-2.38,4.74ZM248.82,109.03c-1.87,.18-3.97,.22-4.04,2.66-.06,2.3,1.26,4.24,3.58,4.53,2.49,.31,3.91-1.69,4.25-3.83,.41-2.65-1.83-3.03-3.79-3.36Zm19.1-6.47c-.31-1.92-.78-4.05-3.4-3.73-2.12,.26-4.41,1.44-4.28,3.81,.11,2.09,1.85,3.99,4.23,3.91,2.12-.07,3.62-1.41,3.46-3.98Zm518.57,426.99c1.94-1.07,5.46-.45,5.91-4.16,.27-2.21-1.37-3-3.19-2.91-2.78,.14-5.1,1.24-5.41,4.42-.14,1.46,.45,2.72,2.69,2.66ZM538.45,92.38c2.14-.25,3.35-1.5,3.36-3.55,0-2.49-1.73-4-3.92-4.19-2.29-.2-3.46,1.68-3.59,3.79-.17,2.78,2.23,3.18,4.15,3.94Zm-75.72,56.51c-1.57,1.07-3.82,1.86-3.91,4.27-.08,2.33,1.39,4.13,3.79,4.18,2.29,.05,3.49-1.73,3.46-3.89-.02-2.01-.86-3.78-3.35-4.56Zm291.25,544.63c-.11-1.94-1.06-4.12-2.89-3.93-3.24,.33-3.53,3.69-4.17,6.16-.45,1.74,1.26,2.17,2.7,2.09,2.67-.13,4.04-1.69,4.36-4.32ZM432.24,140.51c-.32-1.99-1.24-3.67-3.4-3.45-2.33,.24-3.72,1.91-3.75,4.32-.02,1.92,1.03,3.14,3.05,3.13,2.6-.01,3.6-1.77,4.1-4Zm77.4,66.02c1.76-.37,4-1.18,4.13-3.84,.08-1.63-1.18-3.33-3.06-3.32-2.55,.01-4.19,1.83-4.67,4.13-.4,1.94,1.06,2.95,3.6,3.03Zm-172.64-81.15c2.13-.26,3.75-.92,3.55-3.6-.18-2.36-1.31-3.64-3.66-3.63-2.57,0-3.3,1.71-3.21,3.92,.09,2.05,.94,3.47,3.32,3.31Zm424.51,436.49c-2.51-.28-2.58,1.31-2.78,2.86-.35,2.77,1.1,3.95,3.61,4,1.82,.04,3.36-.65,3.43-2.78,.11-3.07-2.43-3.4-4.27-4.09Zm-16.91-136.02c1.88-1.64,4.46-2.98,4.59-5.71,.09-1.79-2.1-1.97-3.54-1.85-2.24,.18-4.21,1.11-3.92,3.86,.17,1.63,.88,3.16,2.87,3.71Zm18.8,170.13c.15-1.51-1.07-2.33-3.08-2.19-1.8,.12-3.96,.07-3.71,2.78,.16,1.75,.36,4.03,2.7,4.11,2.39,.08,3.89-1.43,4.09-4.7ZM393.47,78.83c-2.14,.14-3.62,1.15-3.59,3.32,.02,1.65,.59,3.75,2.64,3.59,2.2-.17,4.03-1.82,4.33-4.08,.29-2.19-1.78-2.44-3.38-2.83Zm154.71-1.48c-.48-2.13-1.93-3.68-4.46-3.97-2.1-.24-3.17,.98-2.99,2.95,.25,2.86,2.68,3.38,4.87,3.76,1.58,.28,2.49-.74,2.58-2.75Zm232.08,524.12c-.2-1.43-.07-4.31-2.37-4.25-3.26,.08-2.44,3.59-3.05,5.72-.47,1.64,.44,2.59,2.22,2.49,2.17-.13,3.38-1.16,3.2-3.96Zm-177.66,127.4c-1.99,.75-2.2,2.72-2.33,4.61-.1,1.53,.1,3.33,2.27,2.93,1.91-.36,4.47-.45,4.11-3.57-.26-2.19-1.57-3.45-4.04-3.97Zm-162.47-86.39c1.06-.36,3.37,.42,3.23-2.2-.16-2.98-2.96-3.82-4.97-4.52-2.06-.72-1.94,2.02-1.94,3.08,0,1.88,.5,4.05,3.69,3.63Zm34.45-496.82c-.53,2.65,.17,3.91,2.26,4.13,2.14,.22,3.57-.76,3.73-2.91,.17-2.25-1.19-3.81-3.3-4.16-2.73-.45-2.41,1.98-2.68,2.93Zm-358.5-3.92c-2.53,.42-3.99,1.89-3.9,4.59,.04,1.23,.27,2.6,2.08,2.1,2.3-.63,5.01-.99,5-4.21,0-1.84-1.35-2.54-3.18-2.47Zm658,493.97c2.08-.02,3.7-.46,3.86-2.86,.16-2.4-1-3.61-3.33-3.83-2.79-.27-3.11,1.72-3.36,3.71-.27,2.2,1.07,2.88,2.84,2.98Zm-92.92,115.63c-.42-1.64-.39-4.36-2.9-4.69-2.09-.28-2.93,1.92-3.15,3.78-.29,2.53,1.3,3.47,3.6,3.62,1.69,.11,2.62-.52,2.45-2.71ZM472.16,205.59c-.2-1.61-.83-3.4-3.04-3.48-1.99-.07-3.59,1.16-3.7,3.19-.13,2.53,1.84,3.14,3.96,3.21,1.77,.06,2.89-.64,2.78-2.91Zm-96.86-96.69c2.21-.21,3.66-1.13,3.58-3.63-.06-1.64-.59-3.38-2.32-3.22-2.92,.28-3.39,3.15-3.88,5.33-.35,1.56,1.47,1.42,2.62,1.51Zm85.28,100.9c-.23-1.93-1.06-3.57-3.24-3.58-1.76-.01-3.29,.91-3.27,2.99,.02,2.01,.9,3.55,3.17,3.6,1.92,.04,3.09-.97,3.34-3Zm-6.06-48.53c-.29-2-.7-4.16-3.12-4.39-2.17-.21-2.72,1.67-2.76,3.41-.05,2.22,1.08,3.97,3.33,4.14,1.8,.13,2.45-1.47,2.56-3.16Zm23.74-25.62c1.63-.21,3-.97,2.99-2.76-.02-2.09-.83-4.08-3.31-4.08-1.91,0-2.97,1.55-3.14,3.32-.23,2.34,1.58,2.98,3.47,3.51Zm-5.42,537.1c.16-1.6-4.17-5.81-5.85-5.87-.88-.03-1.79,.58-1.51,1.18,1.06,2.32,.89,5.6,4.27,6.29,1.42,.29,2.71-.06,3.1-1.61ZM191.85,140.26c.48,1.97,1.81,3.24,3.89,3.58,1.82,.3,2.95-.63,2.79-2.49-.17-2.04-1.05-3.86-3.3-4.21-2.09-.33-2.7,1.38-3.38,3.13ZM773.45,701.08c-.24-2.09-1.68-3.44-3.5-3.57-2.21-.16-3.01,1.93-3.18,3.7-.21,2.23,1.72,2.58,3.4,2.72,1.93,.15,3.19-.7,3.28-2.85Zm-383.07-81.95c-.61,2.78,.17,4.57,.74,6.36,.52,1.64,1.98,1.62,3.34,1.62,.95,0,1.82-.34,2.2-1.27,.65-1.6-.79-1.99-1.67-2.72-1.35-1.13-2.67-2.31-4.61-3.98Zm-83.27-489.91c-.42-2.94-2.39-4.62-5.17-5.39-1.35-.37-2.08,.76-1.87,1.84,.52,2.74,2.61,4.28,5.01,5.26,1.19,.49,1.98-.26,2.04-1.72Zm164.52,91.08c-.19-1.7-.97-3.18-2.94-3.26-1.76-.08-3.4,.67-3.52,2.7-.13,2.22,1.33,3.25,3.42,3.27,1.67,.01,2.94-.64,3.03-2.71Zm-98.39,350.1c-2.58,2.42-1.99,5.23-.12,7.25,1.13,1.22,3.78-.12,4.11-1.47,.77-3.21-2.44-4.19-3.99-5.77Zm-24.08-450.02c-2.25-.03-3.02,1.29-3.07,3.18-.05,1.83,.99,2.79,2.77,2.87,1.94,.09,3.21-.7,3.24-2.84,.03-2.06-1.15-2.97-2.94-3.21Zm135.86,314.01c-5.68,4.11-11.22,8.41-15.61,13.98,6.02-3.73,10.73-8.95,15.61-13.98Zm22.47-218.35c1.81,.03,2.71-.79,2.56-2.48-.18-2.1-1.4-3.33-3.52-3.43-1.64-.07-3.24,.44-3.1,2.42,.17,2.4,2.26,2.94,4.06,3.49Zm-24.98-7.71c1.98,.02,3.3-.79,3.29-2.57-.02-1.79-1.15-3.29-3.06-3.3-1.84,0-3.27,1.46-3.46,3.1-.25,2.15,1.93,2.26,3.23,2.78Zm14.68,479.08c1.63,.11,3.06-.06,2.68-2.04-.41-2.16-1.95-3.31-4.08-3.54-1.8-.2-2.23,.82-2.22,2.48,.03,2.66,1.46,3.35,3.61,3.1ZM284.76,104.41c1.81-.52,3.25-1.65,3.07-3.72-.17-1.87-1.59-2.85-3.5-2.7-2.18,.18-2.58,1.77-2.39,3.56,.17,1.57,.72,2.94,2.82,2.85Zm214.65,99.92c-.26-1.67-.82-3.14-2.78-2.79-1.61,.29-3.36,1.01-3.32,3.03,.05,2.07,1.69,2.65,3.47,2.61,1.82-.04,2.65-1.13,2.62-2.85Zm190.97,140.85c3.4,5.35,6.79,10.71,10.19,16.06l1.06-.7c-2.94-5.63-6.1-11.13-11.25-15.36Zm-202.41-207.97c-1.34,.27-2.81,.71-2.54,2.45,.27,1.75,.91,3.76,3.13,3.69,1.61-.05,2.79-1.41,2.63-3.09-.17-1.7-1.03-3.17-3.22-3.05Zm35.56,557.58c-.44-1.97-.77-4.24-3.41-4.48-1.7-.16-3.02,1.01-2.75,2.72,.42,2.68,3.05,3.04,5.06,3.7,1.23,.41,1.08-1,1.1-1.95Zm-70.17-498.74c-1.71,.3-2.72,1.47-2.59,3.13,.19,2.35,2.16,2.66,4.04,2.73,1.48,.05,2.31-.78,2.08-2.28-.29-1.97-1.28-3.38-3.53-3.58Zm309.43,466.04c-2.1,.55-1.64,2.3-1.73,3.7-.13,2,.96,3.17,2.91,3.26,1.75,.08,2.4-1.03,2.14-2.67-.33-2.02-1.01-3.8-3.32-4.3ZM387.51,110.45c-1.59,.48-2.56,1.62-2.6,3.22-.06,2.17,1.45,3.3,3.4,3.37,1.82,.06,2.06-1.5,1.86-2.91-.23-1.62-.53-3.33-2.67-3.69Zm-232.48,480.94c-2.11,5.34-6.25,9.55-8.24,14.95,3.97-4.31,7.85-8.67,8.24-14.95Zm314.53-105.7c7.61-2.26,15.39-2.21,23.11-2.66-7.99-1.3-15.82-1.19-23.11,2.66Zm-14.28-194.32c-.23-1.7-1.12-2.87-2.98-2.54-1.81,.32-3.03,1.47-2.79,3.5,.19,1.56,1.25,2.45,2.81,2.36,1.98-.11,2.97-1.27,2.96-3.32Zm40.78,417.87c1.49,.2,2.2-.32,2.06-1.68-.23-2.32-1.71-3.47-3.89-3.46-1.66,.01-3.12,1.19-2.79,2.82,.49,2.47,3.18,1.54,4.62,2.32Zm268.87-198.5c1.87-.1,2.85-.93,2.77-2.8-.07-1.81-.73-3.54-2.71-3.32-2.03,.22-2.6,2.3-2.74,4.05-.15,1.81,1.4,1.98,2.69,2.07ZM304.95,76.69c-.35-1.62-1.38-2.94-2.95-2.84-1.93,.12-2.51,1.96-2.55,3.63-.04,1.73,1.37,2.2,2.78,2.15,1.77-.06,2.58-1.23,2.71-2.94Zm-70.26,106.07c1.78-.25,3.8-.59,3.95-2.79,.14-2.1-1.86-1.95-3.29-2.01-1.87-.08-3.27,.82-3.47,2.73-.2,1.91,1.4,1.93,2.81,2.07Zm59.42-52.45c-1.76,.14-2.64,1.02-2.51,2.67,.16,2.15,1.59,2.7,3.49,2.58,1.51-.1,2.75-.49,2.47-2.4-.3-2.04-1.86-2.54-3.45-2.85Zm185.19,84.21c-1.65,.09-2.5,.99-2.32,2.62,.21,1.89,1.31,3.01,3.27,2.99,1.67-.02,2.37-1.05,2.31-2.66-.07-2.1-1.43-2.78-3.26-2.95Zm-38.36,75.58c-1.6,.37-2.92,1.38-2.78,3,.13,1.56,.83,3.44,2.88,3.48,1.94,.04,2.44-1.55,2.39-3.17-.05-1.59-.61-2.95-2.49-3.31Zm-20.84-231.37c-1.96-.18-2.78,.9-2.83,2.34-.06,1.97,1.34,3.02,3.12,3.02,1.69,0,2.75-1.35,2.69-2.96-.07-1.83-1.74-2.14-2.99-2.4Zm129.05,662.94c-.19-2.09-1.24-3.67-3.42-4.09-1.21-.24-2.11,.63-1.94,1.87,.31,2.18,1.25,4.11,3.72,4.44,1.44,.19,1.58-1.04,1.63-2.22Zm174,5.37c-1.42,.52-2.03,1.68-2.13,3.07-.13,1.83,.5,3.39,2.55,3.6,1.36,.14,2.42-.79,2.4-2.16-.02-1.89-1.06-3.37-2.82-4.51ZM90.63,522.01c-5.56-.43-11.12-.88-16.62,.47,5.58,.98,11.12,.77,16.62-.47ZM536.18,194.98c-.43-1.39-1.33-2.16-2.69-1.77-1.57,.45-3.33,1.11-3.27,3.1,.04,1.31,.86,2.86,2.53,2.39,1.75-.49,2.95-1.9,3.42-3.72Zm192.08,507.1c.09,1.84,.24,3.56,2.59,3.59,1.65,.02,2.64-.75,2.35-2.51-.32-1.89-1.19-3.67-3.23-3.91-2.2-.26-1.43,1.76-1.71,2.84ZM297.89,58.03c1.56-.53,2.96-1.58,3.46-3.45,.43-1.6-.71-2.1-2.05-2.19-1.86-.13-3.31,.5-3.58,2.52-.19,1.4,.13,2.7,2.17,3.12Zm44.13,453.8c-.25,3.06-.18,5.65,3.26,6.52,.88,.22,1.92,.17,2.23-.89,.18-.64-.13-2.04-.21-2.04-2.53,.05-2.46-3.33-5.28-3.6Zm45.05,86.97c.56,2.21-1.91,5.02,1.6,6.48,1.06,.44,2.44,.2,2.64-.94,.56-3.07-1.79-4.31-4.25-5.54Zm408.72-38.65c-1.52-1.78-4.18-1.5-4.6-3.83-.38-2.09,1.98-3.01,2.64-5.05-4.11,1.48-4.4,2.05-3.25,5.54,1.42,4.32,1.53,4.4,5.22,3.34ZM295.56,86.29c-1.82,.35-2.17,1.85-2.39,3.33-.2,1.36,.27,2.44,1.88,2.39,1.73-.06,2.87-.88,2.8-2.77-.05-1.48-.67-2.59-2.3-2.96Zm477.87,456.2c1.08-.2,2.86,.48,2.5-1.57-.34-1.94-1.8-3.22-3.73-3.5-1.62-.24-1.9,1.22-2.05,2.43-.31,2.59,1.69,2.38,3.27,2.63ZM217.32,176.15c-.23-1.7-1.37-2.62-3.04-2.74-1.35-.1-2.46,.52-2.22,2.13,.24,1.61,1,2.94,2.89,2.91,1.37-.02,2.29-.71,2.36-2.3Zm314.56,29.42c.36,1.62,1.35,2.67,3.1,2.67,1.39,0,2.39-.75,2.19-2.25-.25-1.8-1.22-3.2-3.25-3.04-1.37,.11-2.03,1.17-2.04,2.62Zm225.03,74.3c-.19-1.28-.12-3.42-1.61-3.12-2.25,.45-1.98,3.02-2.17,4.87-.1,1.04-.54,3.07,1.03,2.85,2.23-.3,2.4-2.68,2.75-4.6Zm-12.2,26.78c.13,1.11-.05,2.92,1.15,2.52,2.39-.8,2.59-3.39,2.91-5.57,.15-.98-.18-2.58-1.5-2.11-2.32,.83-2.05,3.33-2.56,5.15Zm-280.91,331.49c-.3,2.77,1.01,4.7,1.63,6.77,.27,.9,1.03,1.52,2.07,1.14,.9-.33,.59-1.15,.64-1.88,.19-2.84-1.88-4.11-4.34-6.03Zm-26.24-160.31c3.69-4.25,8.9-6.91,12.31-11.42-5.18,2.66-8.87,6.93-12.31,11.42ZM550.34,42.1c-1.55,.16-2.14,1.15-1.98,2.5,.18,1.5,.56,3.2,2.37,3.37,1.74,.17,2.21-1.42,2.3-2.77,.11-1.79-1.2-2.6-2.69-3.1ZM270.26,114.61c-1.73,.35-3.14,1.24-3.27,3.17-.09,1.27,.93,1.95,2.13,1.73,1.83-.34,2.94-1.58,3.05-3.46,.07-1.18-.85-1.46-1.92-1.44Zm-59.63,18.76c1.22-.12,2.87,.07,3.04-1.72,.16-1.69-1.07-2.71-2.63-3.12-1.57-.41-2.2,.58-2.25,1.95-.04,1.28-.34,2.84,1.84,2.89Zm546.11,402.64c1.54-.36,3.29-.64,3.52-2.72,.18-1.63-.95-2.61-2.38-2.66-1.95-.06-2.1,1.83-2.56,3.17-.38,1.11-.13,2.09,1.43,2.21ZM193.76,150.56c-1.41,.24-2.61,.77-2.43,2.24,.23,2,1.74,2.67,3.59,2.56,1.13-.07,2.28-.55,2.11-1.81-.24-1.8-1.51-2.82-3.27-2.98Zm274.11,134.58c-1.54,.25-2.53,1.22-2.51,2.95,.01,1.43,.89,2.2,2.31,2.02,1.64-.21,2.79-1.14,2.78-2.89,0-1.45-1.11-1.96-2.58-2.09Zm-47.79,343.13c-.6,1.81,.14,3.39,.48,4.92,.24,1.07,1.13,2.35,2.61,1.76,1.47-.58,1.33-1.86,.65-3.01-.82-1.39-1.47-2.99-3.74-3.66ZM240.5,165.87c-.22-1.4-.65-2.75-2.24-2.99-1.64-.25-2.56,.69-2.54,2.34,.02,1.51,.74,2.73,2.33,2.79,1.25,.04,2.28-.68,2.46-2.14Zm171.04,444.56c-1.42,.27-1.78,1.06-1.45,2,.6,1.69,.28,4.12,2.96,4.34,.96,.08,1.93-.58,1.79-1.55-.31-2.16-2.12-3.35-3.3-4.79Zm47.99-330.45c-.02-1.37-.79-2.12-1.95-2.04-1.64,.11-2.74,1.16-3.08,2.78-.24,1.16,.18,2.25,1.51,2.19,1.83-.08,2.83-1.42,3.51-2.92Zm99.79,463.16c-1.15-2.49-2.3-4.35-4.97-4.23-.86,.04-1.78,.98-1.23,1.99,1.26,2.33,3.43,2.5,6.21,2.23Zm123.38-20.97c-1.59,.32-1.68,1.56-1.71,2.79-.04,1.73,.87,2.48,2.58,2.28,1.2-.14,2.13-.69,1.99-1.98-.17-1.66-1.21-2.71-2.86-3.09ZM523.83,200.35c-.41-1.66-1.56-2.64-3.16-2.57-1.72,.08-2.02,1.61-1.91,2.96,.14,1.7,1.42,2.12,2.91,1.91,1.28-.18,2.23-.79,2.16-2.29Zm-17.4-67.06c-.46-1.37-1.28-2.5-2.85-2.34-1.44,.15-2.62,1.09-2.54,2.66,.09,1.81,1.59,1.99,3,1.89,1.3-.09,2.31-.66,2.39-2.21Zm51.31,52.21c-.07-1.21-.73-2.15-1.87-2.08-1.74,.11-3.13,1.18-3.45,2.92-.3,1.64,1.07,1.87,2.33,1.84,1.73-.04,2.7-1,2.98-2.68ZM137.44,530.09c1.51-.39,3.79,.03,3.86-2.19,.04-1.39-1.77-1.36-2.96-1.24-1.47,.15-3.43,.14-3.63,1.99-.19,1.81,1.66,1.18,2.73,1.44ZM424.05,67.51c-1.14,.21-2.45,.65-2.58,2.32-.12,1.63,1.18,2.02,2.41,2.05,1.33,.04,2.91,.03,3.07-1.85,.14-1.77-1.16-2.26-2.9-2.53Zm122.38,452.98c1.07-.14,2.65,.12,2.47-1.29-.23-1.87-2.18-1.78-3.6-1.94-1.14-.13-2.88-.13-2.56,1.53,.35,1.81,2.41,1.28,3.69,1.69Zm-80.18-24.76c3.72,.34,6.43,.93,9.39-1.61-3.64-1.15-6.2-1.23-9.39,1.61Zm273.74-168.83c2.44-1.81,3.55-3.74,3.2-6.38-.09-.67-.77-1.23-1.27-.97-2.44,1.25-2.07,3.74-2.38,5.91-.04,.26,.17,.56,.46,1.44ZM203.99,481.35c3.05,2.78,6.11,5.56,9.16,8.33-1.97-3.94-4.91-6.8-9.16-8.33ZM294.18,66.1c-.22-1.47-1-2.61-2.54-2.62-1.29-.01-2.27,.88-2.36,2.27-.1,1.47,.76,2.23,2.2,2.21,1.24-.02,2.4-.29,2.7-1.86Zm379.46,311.11q-1.08-5.35-3.94-7.6c-.54,3.42,.47,5.83,3.94,7.6Zm-215.93,130.43c1.2-.4,3.25,.17,3.4-1.4,.17-1.84-1.83-1.57-3.09-1.57-1.28,0-3.26-.24-3.4,1.31-.16,1.78,1.84,1.4,3.09,1.66ZM301.51,46.81c-.24-1.52-1.01-2.51-2.66-2.52-1.57-.01-2.05,1.13-2.2,2.38-.21,1.86,1.02,2.32,2.55,2.3,1.4-.02,2.31-.61,2.3-2.16Zm143.27,618.11c-.63-1.91-1.44-3.77-3.75-3.91-.84-.05-1.7,.82-1.34,1.9,.62,1.86,2.04,2.93,3.92,3.3,.89,.17,1.42-.28,1.17-1.29Zm304.3-336.67c-.08-1.18,.07-2.94-1.15-2.56-1.96,.61-1.61,2.95-1.94,4.64-.19,.97-.17,2.76,.97,2.54,2.55-.49,1.44-3.15,2.12-4.62ZM157.01,520.72c-1.42,.15-3.47-.27-3.6,1.69-.12,1.69,1.77,1.18,2.82,1.14,1.39-.05,3.49,.4,3.65-1.55,.12-1.51-1.75-1.13-2.87-1.28Zm220.27,100.66c.05-2.82-.56-4.66-3.32-4.88-1.06-.08-1.92,.34-1.71,1.49,.48,2.55,2.47,3.12,5.03,3.39ZM307.62,63.36c-.19-1.21-.65-2.39-2.19-2.16-1.37,.21-1.94,1.4-1.97,2.67-.03,1.39,.65,2.32,2.21,2.11,1.43-.2,2-1.17,1.96-2.62Zm241.4,134.53c-.27-1.31-1.2-1.74-2.31-1.57-1.66,.26-2.68,1.41-2.65,3.05,.02,.97,1.03,1.45,2,1.3,1.58-.25,2.74-1.06,2.96-2.78Zm-.51-128.52c-.25-1.93-1.63-2.72-3.36-3.1-1.07-.23-1.84,.26-1.84,1.37,.01,1.79,1.2,2.69,2.79,3.09,1.14,.29,2.12,.09,2.4-1.37Zm106.74,307.4c-.67,.12-1.52,.28-1.25,1,.72,1.98,1.6,4,3.92,4.55,.73,.17,1.55-.51,1.22-1.43-.69-1.92-2-3.34-3.88-4.12ZM126.82,517.6c4.14,.49,7.87-1.09,11.75-1.99-4.18-.87-7.91,.9-11.75,1.99Zm336.43-217.92c1.39-.02,2.28-.55,2.12-2.12-.16-1.46-.88-2.65-2.34-2.86-1.68-.24-2.37,.98-2.36,2.49,.01,1.61,1.09,2.3,2.58,2.49ZM215.14,158.22c1.11-.19,2.1-.78,2.26-2.18,.16-1.33-.26-2.47-1.82-2.52-1.66-.06-2.44,1.1-2.52,2.56-.06,1.14,.62,1.96,2.08,2.14Zm416.23,565.24c-1.19-.01-1.85,.65-1.92,1.88-.1,1.91,1.33,2.15,2.69,2.27,.92,.08,2.48,.62,2.31-1.06-.16-1.54-1.46-2.54-3.08-3.1ZM492.68,219.19c1.32-.16,2.73-.45,2.76-2.2,.03-1.48-1.08-2.08-2.4-2.11-1.3-.02-2.4,.45-2.49,1.99-.08,1.4,.5,2.31,2.12,2.33ZM165.45,526.34c-1.29,.09-2.97,.04-2.91,1.52,.09,2.16,2.19,1.51,3.52,1.61,1.12,.08,2.91,.08,2.84-1.39-.11-2.05-2.21-1.38-3.45-1.73Zm346.14-43.04c0-.2,0-.4,.01-.59h-14.89c0,.2,0,.4,0,.59h14.88ZM245.37,126.98c-1.38,.08-2.39,.79-2.41,2.16-.02,1.73,1.46,1.66,2.63,1.59,1.14-.06,2.67-.02,2.41-1.82-.19-1.36-1.26-1.96-2.63-1.94Zm184.09,169.81c1.6-.44,1.45-1.86,1.32-3.17-.1-1.01-.2-2.42-1.54-2.28-1.72,.18-2.44,1.62-2.33,3.25,.08,1.34,.95,2.12,2.56,2.2Zm-141.3-154.88c1.07,.09,2.22,.04,2.08-1.12-.22-1.85-1.77-2.66-3.42-3.04-1.24-.29-2.05,.35-2.05,1.65-.02,2.44,2.13,1.98,3.38,2.52Zm392.71,247.31c-.21-1.01-.66-2.17-2.14-2.06-1.34,.1-2.13,1.02-2.02,2.46,.1,1.26,.42,2.52,1.99,2.45,1.48-.07,1.73-1.43,2.17-2.85Zm-239.51-118.92c-.26-1.28-.93-2.45-2.22-2.58-1.56-.16-1.93,1.25-2.03,2.47-.13,1.52,.75,2.24,2.24,2.08,1.13-.12,2.05-.57,2-1.96Zm-4.79-215.57c-1.3,.25-2.24,.94-2.26,2.35-.02,1.24,.26,2.6,1.83,2.57,1.63-.03,2.3-1.3,2.31-2.78,0-1.14-.59-2-1.88-2.14Zm301.53,316.39c-1.86,2.66-2.91,5.59-2.88,9.53,2.53-3.11,3.05-6.19,2.88-9.53Zm-287.03,111.42c2.39-.32,4.72-.64,5.84-3.4-3.16-.6-4.88,.8-5.84,3.4ZM285.78,78.67c1.1-.12,2.17-.41,2.16-1.76-.02-1.46-1.01-2.12-2.38-2.1-1.3,.01-1.84,.94-1.87,2.08-.03,1.34,.92,1.74,2.09,1.79Zm286.08,453.41c.26,1.67,1.63,1.96,2.92,2.13,1.09,.14,2.86,.5,2.84-1.08-.01-1.5-1.89-1.6-3.14-1.93-.99-.25-2.07-.47-2.62,.87Zm-204.44,67.08c-.4,2.63,.24,4.41,2.29,5.5,.39,.21,1.51-.03,1.56-.24,.53-2.25-1.31-3.33-2.52-4.71-.16-.19-.5-.22-1.33-.56ZM211.51,147.98c1.24-.1,2.1-.67,2.02-1.96-.08-1.26-.61-2.5-2.03-2.62-1.23-.11-1.92,.92-2.04,2.03-.14,1.41,.78,2.18,2.05,2.56Zm294.58-21.93c1.1-.14,2.51-.38,2.29-1.58-.31-1.68-1.8-2.65-3.5-2.95-1.03-.18-1.77,.27-1.55,1.48,.29,1.59,1.11,2.72,2.76,3.05Zm63.25,398.14c-1.73-2.59-3.26-3.81-5.66-3.42-.66,.11-1.16,.73-.79,1.32,1.3,2.11,3.44,2.02,6.45,2.1Zm-153.61-165.95c-.15-1.25-.97-2-2.12-1.96-1.67,.06-1.71,1.56-1.73,2.72-.02,1.1,.45,2.28,1.85,1.99,1.34-.27,1.81-1.48,1.99-2.76Zm199.98,58.95c4.29-1.76,4.42-2.39,1.19-5.51-1.09,1.69-1.72,3.45-1.19,5.51Zm-137.29-119.41c-.98-1.47-2.57-1.8-4.21-1.82-.74-.01-1.63,.55-1.31,1.38,.71,1.84,2.5,1.84,4.11,1.87,.76,.02,1.39-.41,1.41-1.43Zm253.63,18.82c.2,.87-.36,2.46,1.19,2.32,1.94-.17,2.01-1.96,1.88-3.45-.09-1,.52-2.92-1.32-2.61-1.74,.29-1.64,2.22-1.75,3.74Z"/>
  <path d="M350.7,191.17c-.09,8.82-1.71,18.05-6.17,26.57-4.18,7.98-10.26,13.98-19.81,13.82-10.26-.17-17.96-5.44-22.25-14.79-4.43-9.66-4.71-20-3.6-30.39,.83-7.81,3.33-15.11,7.59-21.73,4.97-7.72,11.79-12.19,21.32-11.17,9.51,1.03,15.84,6.27,19.29,15.14,2.74,7.04,3.92,14.32,3.64,22.56Zm-12.51,2.72c-4.39,.09-7.6,3.33-7.44,7.49,.19,4.97,3.98,9.07,8.42,9.12,4.11,.04,7.72-3.78,7.59-8.03-.15-5.25-3.58-8.68-8.57-8.58Z"/>
</svg>