<?xml version="1.0" encoding="UTF-8"?>
<svg id="Layer_1" data-name="Layer 1" xmlns="http://www.w3.org/2000/svg" viewBox="0 0 864 864">
  <path d="M775.02,489.11c-.74-.39-1.56-.63-2.3-1.02-12.39-6.37-25.33-11.55-37.49-18.44-34.15-19.35-59.4-46.63-75.54-82.5-11.53-25.63-20.76-52.06-28.52-79.02-4.69-16.27-9.5-32.52-11.97-49.34-.57-3.9-.8-7.92-2.95-11.55-.95,7.95-1.49,15.89-3.05,23.7-6.14,30.84-19.5,58.51-37.35,84.1-23.66,33.93-51.86,63.92-82.36,91.66-35.56,32.34-73.8,61.67-108.45,95.05,2.78-3.09,5.62-6.12,8.54-9.08,4.3-4.36,8.78-8.54,13.17-12.81,4.39-4.27,8.58-8.71,12.6-13.32,8.2-9.38,16.1-19.03,24.12-28.57,8.15-9.7,16.3-19.39,24.45-29.09,7.46-8.88,14.73-17.76,19.91-28.22,8.57-17.31,13.04-37.07,15.71-56.1,3.26-23.27-16.96-25.53-34.42-16.74-29.19,14.69-47.97,55.56-64.34,81.9-9.29,14.94-18.56,29.89-28.17,44.62-8.46,12.97-17.19,25.77-26.4,38.22-.14-.45-.29-.9-.42-1.36-13.67-48.76-14.08-97.75-2.5-146.97,.98-4.15,2.61-6.53,6.73-8.22,31.94-13.12,55.8-35.54,71.15-66.12,21.27-42.37,16.34-84.6-4.03-125.91-1.82-3.69-1.7-5.64,1-8.61,16.4-18.07,31.01-37.56,44.27-58.02,11.21-17.29,19.92-35.79,24.81-55.92,1.94-7.99,3.79-16.03,4.01-24.3,.06-2.34-.13-4.89-2.85-5.92-2.5-.94-4.67,.1-6.44,1.78-2.19,2.08-4.38,4.2-6.25,6.56-7.5,9.49-15.07,18.92-22.24,28.65-20.76,28.17-45.8,51.67-75.22,70.65-8.98,5.79-17.57,7.85-27.65,3.04-3.59-1.71-4.74-2.84-3.51-6.78,5.4-17.23,12.42-33.69,21.98-49.05,4.17-6.7,8.39-13.37,12.39-20.16,1.45-2.47,2.56-5.39,.54-8.07-2.19-2.9-5.33-2.28-8.33-1.49-9.6,2.53-17.89,7.59-25.64,13.58-18.23,14.11-31.01,32.42-40.38,53.24-1.27,2.82-2.81,4.17-6.04,4.04-4.52-.19-9.08-.08-13.6,.24-3.61,.25-6-1.19-8.05-4.01-7.16-9.84-8.7-20.91-7.23-32.6,2.18-17.37,9.69-32.72,18.24-47.66,2.91-5.1,5.97-10.14,8.55-15.41,2.37-4.84,.2-7.88-5.16-7.76-3.77,.08-7.29,1.23-10.59,2.96-14.78,7.71-26.81,18.55-35.39,32.82-12.85,21.38-17.65,44.85-16.31,69.57,.26,4.88-1.21,6.71-5.58,8.13-9.92,3.21-19.33,7.73-28.33,13.01-15.69,9.21-31.17,18.88-42.32,33.66-14.18,18.81-19.8,41.27-25.69,63.53-.74,2.79,.78,2.81,3.02,2.67,9.57-.63,19.14-.52,28.68,.57,18.04,2.06,35.43,6.08,50.4,17.16,2.23,1.65,4.29,3.53,6.42,5.3-6.09-3.2-11.27-7.49-17.43-10.28-23.12-10.44-47.6-12.11-72.48-11.27-5.72,.19-11.41,.58-16.85,2.6-18.29,6.76-30.86,28.29-28.65,49.69,2.1,20.36,13.86,34.85,29.52,46.69,14.35,10.85,30.48,18.39,47.45,24,28.79,9.52,58.41,14.01,88.75,13.28,4.14-.1,5.67,.7,5.07,5.15-.92,6.85-1.93,13.61-4.43,20.1-7.98,20.62-18.7,39.8-31.03,58.07-21.45,31.77-41.4,64.33-56.62,99.67-23.69,55.02-23.66,109.72,.32,164.64,14,32.07,32.97,60.69,57.73,86.81-9.74,.61-18.46-.86-27.12-2.52-18.52-3.55-35.81-1.25-51.23,10.25-8.91,6.65-14.75,15.5-17.83,26.16-.5,1.72-1.48,3.86,.39,5.1,1.74,1.16,3.09-.71,4.27-1.75,4.17-3.67,9.28-5.29,14.38-7.02,1.91-.65,3.18-.64,3.56,1.81,.81,5.16,4.15,5.71,8.6,4.86,2.19-.42,5.67-2.84,5.82,2.66,.06,2.06,2.51,1.31,4.2,1.01,9.6-1.69,19.23-3.35,29.03-1.85,4.51,.69,9.04,.62,13.58,.44,14.94-.61,29.88-1.19,44.81-1.88,11.58-.53,23.11-1.61,34.49-3.98,6.39-1.33,10.46-4.84,12.39-11.09,2.08-6.75,4.22-13.5,4.96-20.53,.38-3.65,1.57-3.53,4.38-2.37,10.09,4.17,20.28,8.08,30.39,12.2,2.05,.84,4.44,1.22,6.38,3.36-1.51,.19-2.49,.28-3.47,.44-16.81,2.67-32.9,18.26-35.89,34.79-.38,2.11-1.23,4.7,1.02,5.99,1.86,1.07,3.31-.96,4.7-2.12,6.06-5.05,13.4-6.69,20.9-8.01,2.42-.43,3.03,.59,2.92,2.67-.2,3.69-.46,7.37-.57,11.06-.06,1.99-.39,4.43,1.62,5.49,2.38,1.26,3.43-1.31,4.84-2.57,1.38-1.23,2.51-2.83,4.06-3.74,4.75-2.82,9.74-6.09,15.46-4.02,4.85,1.75,9.66,2.61,14.73,2.73,27.37,.67,54.2-3.21,80.99-8.48,12.98-2.55,19.75-9.58,21.8-22.1,.11-.66,.29-1.32,.33-1.99,.11-2.37,1.33-3.25,3.63-2.9,1.66,.25,3.34,.35,5,.57,27.18,3.53,54.43,5.8,81.89,5.26,45.1-.89,81.05-19.42,107.41-55.91,6.59-9.12,13.9-18.28,14.86-30.34,13.99-26.37,18.95-54.55,17.8-84.2-1.09-28.12-3.55-56.04-11.5-83.11-2.6-8.85-4.28-16.78,1.59-24.69,.09-.12-.24-.54-.46-1.01-1.05,.37-2.1,.87-3.21,1.1-2.69,.57-4.32,5.07-7.09,3.18-2.32-1.59-2.21-5.44-3.04-8.33-.09-.32-.11-.66-.18-.99-.29-1.44-.07-3.38-1.72-3.9-1.66-.52-2.61,1.14-3.62,2.24q-4.14,4.53-6.89-.77c-2.11-4.06-3.62-4.45-5.89-.72-2.11,3.48-3.6,3.09-5.9,.52-2.56-2.85-4.68-2.4-5.71,1.29-.71,2.53-2.15,3.95-4.62,4.73-2.78,.88-5.02,2.72-6.93,4.88-7.59,8.55-9.69,18.71-7.8,29.62,1.59,9.15,6.36,16.42,15.8,19.1,9.24,2.62,16.71-.96,22.97-7.81,1.29-1.41,2.29-3.32,4.62-3.86,1.25,3.56,1.55,7.15,2.02,10.77,.57,4.4-1.2,8.43-.61,13.06,1.08,8.43-1.32,16.97-3.37,25.32-.56,2.29-1.55,3.13-3.89,2.07-.94-.43-2-1.42-3.56-.12,4.46,5.26,2.86,10.76,.61,16.46-1.08,2.72-1.95,3.89-4.95,2.36-2.32-1.18-4.95-1.72-7.51-2.56-.26,1.54,.76,1.75,1.3,2.28,6.36,6.36,6.75,14.27,1.07,21.23-1.75,2.15-3.37,3.29-6.34,1.54-2.78-1.63-6.01-2.56-9.93-2.74,1.61,2.24,3,3.89,4.07,5.73,2.76,4.77,2.35,9.05-.77,12.55-3.55,3.98-7.36,3-11.4,.99-2.88-1.43-5.66-3.28-9.36-3.32,6.03,9.05,6.54,12.26,1.73,15.56-3.57,2.45-6.88,6.6-12.05,5-4.5-1.39-7.6-4.8-10.06-9.15-1.94,3.44-1.72,6.72-2.32,9.81-.79,4.06-1.98,4.41-5.2,1.81-3.07-2.48-3.92-6.38-6.35-10.14-1.93,4.64-3.6,8.64-5.26,12.65-1.62,3.91-3.59,4.21-6.43,.96-2.5-2.86-2.56-6.57-3.09-10.34-2.19,1.36-2.45,3.33-3.19,4.92-2.91,6.21-8.82,8.53-13,3.21-5.31-6.76-9.4-4.96-15.12-1.96-3.08,1.62-4.92-.13-3.89-3.68,.87-3.02,2.02-5.96,3.07-9.01-2.21-.8-4.09,.27-6.02,.52-2.94,.37-6.14,1.92-8.49-.94-2.61-3.18-.07-5.95,1.32-8.74,.2-.4,.17-.91,.27-1.56-3.33-.31-5.86,1.47-8.61,2.54-1.64,.64-3.41,2.3-5.13,.78-1.99-1.76-.87-4.03-.2-6.1,1.33-4.09,4.53-7.08,7.22-11.25-5,.73-9.1,1.58-13.25,1.87-5.04,.36-6.52-1.65-5.78-6.73,.5-3.44,2.67-6.03,4.7-9.18-3.58-.08-6.54,.57-9.25,1.7-3.25,1.35-4.78,.13-6.43-2.56-3.78-6.16-5.53-12.62-3.27-20.32-4.04,1.81-5.33,4.88-7.29,7.32-.92,1.14-1.42,2.62-3.52,1.4-6.82-3.96-11.12-13.91-9.32-21.89,.36-1.58,1.46-3.03,.92-5.09-2.7,.71-5.08,1.96-6.99,3.74-2.51,2.34-3.55,1.1-4.7-1.24-2.62-5.32-3.32-11.05-3.46-17.41-3.16,1.85-4.97,4.26-6.36,6.88-1.93,3.62-3.69,2.8-6.08,.47-4.9-4.76-7.59-10.56-8.85-17.16-1.23-6.44-2.07-12.93-1.89-20.41-4.41,4.77-5.82,9.75-7.29,14.73-.46,1.57-.47,4-3.5,2.54-10.38-5.03-15.09-13.83-13.13-24.85,1.75-9.85,8.88-14.57,18.73-12.47,3.32,.71,6.59,1.66,9.37,3.55,17.55,11.93,29.77,28.43,39.55,46.89,2.26,4.27,3.56,9.04,5.31,13.58,.47,1.21,.67,3.02,2.41,2.67,1.83-.36,1.08-2.16,1.09-3.4,.16-12.71,3.77-24.56,9.74-35.59,17.27-31.95,54.06-37.07,79.87-11.41,8.16,8.11,15.08,17.12,21.06,26.9,.77,1.25,1.48,2.98,3.38,2.23,1.09-.43,.85-1.8,.45-2.69-3.57-7.84-1.65-15.89-.67-23.8,3.6-29.13,16.82-52.59,42.05-68.3,29.52-18.39,62.3-23,96.31-21.33,9.85,.49,19.8,.96,29.33,4.09,1.13,.37,2.47,.72,3.14-.59,.86-1.69-.57-2.37-1.77-2.99ZM475.71,52.43c1.8-.09,2.72,.99,3.02,2.6-.28,2.18-1.31,3.59-3.49,3.67-1.77,.07-2.93-1.01-2.95-2.73-.02-2.13,1.25-3.43,3.42-3.54Zm-35.16,42.81c1.27,.17,1.82,1.25,1.77,2.66-.3,1.34-1.11,2.29-2.65,2.19-1.34-.09-2.11-1.09-2.03-2.32,.11-1.67,1.18-2.76,2.92-2.53Zm-23.42,37.84c1.4-.12,2.14,.58,2.27,1.74-.1,2.02-1.09,3.04-2.79,3.1-1.42,.05-2.05-1.06-2.01-2.32,.04-1.53,1.01-2.38,2.53-2.51ZM112.87,251.98c-3.01,6.04-.81,11.29,.35,16.62-5.57-5.49-6.24-14.52-.35-16.62Zm37.08,570.95c-3.11,.55-6.26,1.04-9.15,2.45-2.83,1.39-5.65,2.77-8.94,4.38,1.89-9.04,11.43-19.52,20.79-23.38,0,4.57-.04,9.14,.02,13.71,.03,1.95-1.01,2.53-2.71,2.84Zm40.61,.38c-1.14,3.54-6.06,1.66-9.2,2.81-4.44,1.62-8.24,4.37-13.4,6.93,3.2-10.07,8.05-17.37,16.36-22.04,2.29-1.29,4.27-1.9,4.6,2.08,.29,3.47,2.58,7.3,1.64,10.22Zm146.6,13.41c-.18,1.18-1.42,1.28-2.38,1.5-5.09,1.16-9.93,3.02-14.72,5.05-1.03,.44-2.22,1.29-3.23,.18-.78-.86-.09-1.9,.28-2.8,4.01-9.76,11.13-16.13,21.15-19.31,1.32-.42,2.95-1.12,3.13,.99-1.95,4.95-3.51,9.53-4.23,14.38Zm353.08-262.25c.15-1.58,1.28-2.28,2.77-2.13,1.54,.16,2.21,1.25,2.34,2.7-.24,1.53-1.17,2.48-2.64,2.43-1.77-.06-2.63-1.29-2.47-3.01Zm-41.08-4.81c-1.79-.21-2.99-1.16-3.07-3.13-.1-2.18,1.11-3.49,3.19-3.67,2.2-.19,3.53,1.19,3.5,3.27-.03,2.05-1.46,3.22-3.62,3.53Zm7.92-8.23c-2.58-.18-4.01-1.68-4.02-4.18,0-2.76,1.25-5.08,4.22-5.31,2.63-.2,3.8,1.84,4.01,4.22,.26,2.98-1.25,4.71-4.21,5.26Zm10.69-10.03c1.86-.19,2.82,.88,3,2.56,.21,2.02-.98,3.03-2.99,3.31-1.72-.16-3.25-.78-3.28-2.87-.03-2.07,1.46-2.81,3.27-3Zm6.22,34.38c-.75,1.86-2.73,2.52-4.56,2.62-2.64,.15-4.25-1.77-5.57-3.73-1.3-1.91-1.43-4.09-.57-6.24,.48-1.21,1.54-1.7,2.8-1.73,1.66-.06,2.33,1.1,2.88,2.37,.6,1.4,1.21,2.76,2.6,3.58,1.23,.73,3.24,1.12,2.43,3.13Zm7.36-27.14c-1.96-.06-3.06-1.24-3.04-3.22,.02-2.04,1.36-2.88,3.15-3.17,2,.11,3.28,1.19,3.37,3.06,.1,2.18-1.3,3.4-3.47,3.33Zm.56,124.3c1.78,.04,2.4,1.47,2.58,2.86-.18,1.97-1.15,2.98-2.89,2.96-1.83-.02-2.68-1.18-2.49-2.93,.17-1.62,1.08-2.93,2.8-2.89Zm-3.24-13.38c1.54,.03,2.42,1.07,2.46,2.53,.05,1.73-1.06,2.61-2.45,2.87-1.75-.08-2.94-.72-2.97-2.26-.03-1.83,.92-3.17,2.95-3.14Zm-16.12,24.29c1.53,.15,2.24,1.27,2.46,2.76-.27,1.5-1.12,2.38-2.71,2.31-1.64-.08-2.43-1.12-2.32-2.64,.1-1.47,.93-2.59,2.58-2.42Zm-10.17,20.29c2.88,.03,4.18,1.88,4.05,4.63-.11,2.36-1.69,3.47-3.79,3.89-2.56-.54-3.92-2.09-3.89-4.58,.03-2.28,1.2-3.97,3.63-3.94Zm-12.8-.02c1.48,.09,2.38,1.04,2.45,2.67-.19,1.49-1.08,2.38-2.61,2.36-1.65-.02-3.07-.79-3-2.59,.07-1.77,1.53-2.54,3.16-2.44Zm2.38,10.27c3.06,.04,4.59,2.37,4.8,5.26-.37,3.73-2.3,5.78-5.89,5.67-3.22-.09-4.94-2.2-4.77-5.27,.2-3.45,2.47-5.7,5.86-5.66Zm-13.54,8.69c1.86-.03,2.5,1.26,2.72,2.67-.19,2.26-1.5,3.14-3.33,3.17-1.82,.03-2.7-1.26-2.68-2.9,.03-2,1.43-2.9,3.29-2.94Zm-12.51-11.35c1.94,.11,3.03,1.51,2.77,3.46-.27,2-1.55,3.27-3.69,3.56-1.8-.42-3.12-1.47-3.02-3.4,.12-2.32,1.59-3.75,3.94-3.62Zm-13.39,19.25c1.34,.11,2.26,.74,2.3,2.15,.05,1.59-.92,2.58-2.38,2.74-1.4,.16-2.15-.89-2.21-2.2-.08-1.53,.63-2.57,2.3-2.7Zm-17.25-6.51c.34-2.55,2.22-3.7,4.65-3.62,2.52,.08,3.2,1.99,3.6,3.94-.93,2.59-2.33,4.45-5.14,4.08-2.38-.32-3.41-2.15-3.11-4.4Zm5.95,13.43c-.2,1.82-1.36,3.05-3.25,3.03-1.48-.01-2.43-.97-2.32-2.56,.14-2.01,1.67-2.62,3.28-3.06,1.67,.1,2.45,1.12,2.29,2.59Zm-9.85,17.02c1.36,.17,2.09,.96,2.03,2.3-.07,1.51-.93,2.55-2.45,2.57-1.47,.01-2.59-.75-2.31-2.46,.24-1.47,1.28-2.21,2.73-2.41Zm-5.88-35.12c2.4,.06,3.89,1.43,3.66,3.82-.26,2.73-2.26,3.93-4.86,4.25-2.07-.45-4.13-1.05-3.92-3.7,.24-3,2.17-4.44,5.11-4.38Zm2.89,19.22c-.39,1.59-1.32,2.46-2.85,2.43-1.63-.03-2.48-.99-2.3-2.59,.17-1.55,1.26-2.41,2.74-2.4,1.59,.02,2.28,1.15,2.41,2.56Zm-6.31,72.02c45.49-2.92,81.65-22.97,109.29-58.91,.61-.8,1.22-1.6,1.88-2.36,.17-.2,.52-.26,.78-.38-12.95,19.37-29.27,35-49.69,46.07-21.22,11.51-44.07,16.82-68.1,17.25-11.9,.22-23.81,.04-35.72-.33,13.85-.62,27.7-.46,41.55-1.35Zm-40.99-61.18c-.12-1.88,1.07-2.64,2.73-2.91,1.59,.03,2.55,.81,2.51,2.43-.04,1.55-1.04,2.48-2.49,2.64-1.5,.17-2.63-.51-2.74-2.17Zm35.54-12.71c.06,3.77-2,5.3-4.94,5.57-2.94,.27-4.95-1.35-4.92-4.34,.03-3.01,1.84-4.96,4.99-5.21,3.1-.25,4.56,1.48,4.87,3.98Zm-7.94-24.77c3.1-.2,4.59,2.16,5.15,5.02-.32,3.28-1.88,5.55-5.24,5.55-2.98,0-5.12-1.75-5.12-4.94,0-3.3,2.12-5.43,5.21-5.63Zm-6.12,51.34c.14-1.57,.91-2.77,2.59-3.15,1.53,.25,2.31,1.17,2.34,2.67,.04,1.64-.59,3.02-2.35,3.2-1.8,.19-2.74-.93-2.57-2.72Zm-3.86-38.06c1.81-.18,3.11,.79,3.57,2.65-.17,2.15-1.47,3.3-3.41,3.64-1.8,.32-2.87-.85-3.07-2.46-.25-2.05,.74-3.62,2.9-3.83Zm-5.84,30.47c1.45-.17,1.91,.97,2.15,2.17,0,1.55-.76,2.64-2.24,2.77-1.32,.12-2.15-.93-2.18-2.18-.03-1.44,.77-2.59,2.27-2.76Zm-1.6-36.25c-.35,3-1.96,5-5.08,5.09-2.9,.08-4.79-1.63-4.9-4.57-.13-3.23,1.94-5.02,4.94-5.16,2.87-.13,4.54,1.72,5.04,4.63Zm-11.99-16.33c.28-2.52,1.95-3.88,4.48-3.66,1.85,.16,3,1.34,3.01,3.27-.57,2.52-2.01,3.92-4.61,3.73-2.01-.14-3.1-1.43-2.88-3.35Zm-10.06,23.67c-.04-1.55,.98-2.45,2.4-2.6,1.49-.16,2.52,.62,2.56,2.24,.04,1.56-.97,2.31-2.37,2.68-1.47-.09-2.54-.73-2.59-2.31Zm7.3,16.04c-.12,1.81-1.5,2.61-3.13,2.61-1.53,0-2.48-.97-2.42-2.59,.06-1.76,1-2.76,2.79-2.95,1.7,.25,2.88,1.12,2.76,2.93Zm-3.87-34.19c1.7,.33,2.57,1.24,2.53,2.74-.06,2.01-1.35,2.99-3.23,2.87-1.41-.09-2.56-1.05-2.44-2.57,.15-1.89,1.6-2.69,3.14-3.04Zm-4.38-20.22c1.69-.02,2.88,.89,3.05,2.67,.22,2.22-1.03,3.38-3.16,3.87-1.74-.22-3.29-.92-3.27-2.97,.03-2.04,1.13-3.54,3.37-3.56Zm-5.03,11.98c2.05,.02,2.83,1.44,2.97,3.38-.28,2.22-1.46,3.77-3.84,3.64-2.08-.11-3.45-1.57-3.31-3.65,.16-2.38,1.96-3.39,4.18-3.38Zm-4.66-23.22c1.52,.25,2.91,.91,2.93,2.68,.03,2.04-1.36,2.91-3.27,2.81-1.7-.09-2.82-1-2.69-2.83,.12-1.76,1.22-2.6,3.02-2.66Zm-4.68,15.64c.25-1.73,1.45-2.48,3.13-2.45,1.57,.03,2.51,.98,2.47,2.46-.06,1.89-1.2,2.96-3.19,2.97-1.76-.22-2.67-1.2-2.41-2.98Zm-126.19-416.8c-1.57-.07-2.67-.92-2.77-2.66-.11-1.79,.87-2.77,2.67-2.73,1.8,.03,2.7,1.16,2.7,2.84,0,1.48-.87,2.42-2.6,2.55Zm5.77-135.54c3.5,1.81,3.8,8.46,.77,14.02-.82-3.65,.51-7.44-1.61-10.31-3.02-4.1-6.2-.14-9.43,.07,2.74-3.33,5.86-6.05,10.26-3.78Zm-27.13-82.09c1.54-.03,2.44,.92,2.57,2.56-.15,1.64-.98,2.9-2.69,3.07-1.85,.19-2.79-1.03-2.75-2.78,.05-1.73,1.13-2.82,2.86-2.85Zm-5.39,10.21c1.73-.11,2.72,1.02,2.79,2.8-.11,1.92-1.05,3.35-2.92,3.52-1.86,.17-3.23-.93-3.35-2.92-.15-2.35,1.53-3.28,3.48-3.4Zm-10.94-3.48c1.74,.08,2.82,.84,2.76,2.73-.05,1.75-.94,2.97-2.7,2.85-1.71-.12-2.49-1.48-2.54-3.15-.04-1.65,.91-2.37,2.47-2.43Zm-2.59,21.8c.31-3.03,1.66-5.58,5.24-5.6,3.5-.02,5.01,2.17,5.35,5.61-.48,3.11-2.46,5.11-5.65,5.04-2.89-.07-5.28-1.63-4.94-5.05Zm7.61,39.79c3.89,2.35,2.8,5.47,1.17,9.17-1.12-8.76-3.68-9.24-17.21-3.82,4.44-5.53,11.65-7.99,16.04-5.34Zm-16.96-24.37c.14-2.72,1.97-4.02,4.73-4.27,2.2,.22,3.69,1.42,3.46,3.81-.23,2.35-.96,4.79-3.95,4.82-2.71,.03-4.39-1.58-4.24-4.36Zm-.22-21.65c.28-2.86,2.16-4.48,5.14-4.38,2.6,.09,4.08,1.54,3.97,4.16-.13,3.2-2.41,4.09-5.07,4.33-2.73-.1-4.3-1.52-4.05-4.1Zm-2.7,7.76c2.15-.04,3.34,1.21,3.53,3.43-.15,2.3-1.42,3.69-3.75,3.74-2.13,.04-3.45-1.2-3.47-3.38-.02-2.39,1.35-3.74,3.7-3.78Zm-37.72,41.08c.23-2.01,1.56-3.38,3.72-3.17,1.97,.19,2.88,1.6,2.61,3.52-.29,2.04-1.91,2.5-3.66,2.64-1.73-.26-2.85-1.29-2.66-2.99Zm1.66,73.92c10.06-25.82,37.27-39.6,60.86-30.84,19.77,7.35,31.44,27.88,27.72,48.8-4.06,22.85-21.91,37.78-47.47,37.81-9.33-.15-19.96-3.02-29.12-10.46-13.94-11.34-18.54-28.54-12-45.31Zm29.36,511.47c-.23,1.94-1.51,3.1-3.35,3.13-1.97,.03-3.11-1.34-3.09-3.26,.03-2.28,1.69-3.05,3.42-3.34,2.3,.31,3.27,1.45,3.02,3.48Zm1.96,13.82c-.08,1.47-.92,2.37-2.42,2.6-1.4-.37-2.37-1.14-2.37-2.68,0-1.59,1.02-2.46,2.46-2.46,1.49,0,2.41,.98,2.33,2.54Zm-8-443.77c-12.21,6.98-28.41,1.92-28.96-8.66,7.34,9.78,17.05,11.25,28.96,8.66Zm-25.03,123.4c1.6,.07,2.8,.93,3.13,2.64-.07,1.76-1.29,2.25-2.69,2.31-1.49,.06-2.6-.55-2.62-2.27-.02-1.49,.48-2.74,2.19-2.67Zm3.34-40.04c2.14,.12,4.82,.45,4.99,3.01,.11,1.68-2.27,1.32-3.63,1.5-1.96-.27-4.55,.15-4.91-2.33-.33-2.26,1.98-2.27,3.56-2.18Zm1.8,55.26c2.3-.22,3.56,1.34,3.94,3.56-.15,2.26-1.46,3.33-3.58,3.2-2-.13-4.46-.61-4.66-2.84-.22-2.45,2.08-3.71,4.3-3.92Zm2.06-19.35c.11-1.88,1.29-2.96,3.25-3.11,2.22,.47,3.51,1.75,3.42,4.12-.08,1.99-1.14,3.11-3.17,2.93-2.33-.2-3.64-1.59-3.5-3.94Zm3.6-13.9c-.02-1.65,.91-2.37,2.74-2.46,3.2,.57,4.57,3.16,5.49,6.08,.31,.98,.07,1.96-1.33,2.1-2.02,.2-6.88-3.77-6.9-5.72Zm5.42-23.43c-.34-1.27,.36-2.57,1.84-2.19,3.38,.87,4.57,4.03,6.23,6.12,.15,1.71-.36,2.69-1.59,2.32-3.18-.95-5.58-2.94-6.48-6.25Zm-17.14,70.42c2.69,0,8.53,4.16,8.59,6.16,.06,2.13-1.7,1.52-3.06,1.83-3.3-.84-7.54-.5-8.64-5.12-.5-2.13,1.21-2.87,3.11-2.87Zm-10.48-424.93c.16-1.46,1.02-2.48,2.6-2.26,1.41,.2,2.32,1.1,2.42,2.71-.29,1.46-1.33,2.12-2.78,2.08-1.57-.04-2.42-.96-2.25-2.53Zm-12.37,63.96c-1.98-.35-3.58-1.31-3.51-3.45,.08-2.37,1.39-4.15,3.97-4.14,2.18,0,3.17,1.51,3.14,3.62-.04,2.34-1.38,3.56-3.6,3.97Zm5.01,15.66c-.32,2.5-1.75,4.21-4.23,4.13-2.42-.08-4.08-1.7-3.95-4.3,.11-2.31,1.62-3.74,3.91-3.83,2.61-.1,3.92,1.52,4.27,4.01Zm-3.22,20.83c2.98,.29,4.97,3.4,5.4,8.53-4.42-7.02-5.16-7.26-11.28-3.76,1.18-3.22,2.76-5.07,5.88-4.76Zm1.31-65.6c2.46-.2,3.43,1.6,3.56,3.72-.18,2.48-.66,4.69-3.58,4.6-2.28-.07-3.68-1.44-3.74-3.85-.06-2.58,1.33-4.27,3.76-4.47Zm-15.89,12.57c.17-3.19,2.19-4.64,5.34-4.78,3.16,.3,5.46,1.79,5.29,5.25-.15,3.13-2.43,4.78-5.37,4.77-3.19-.02-5.45-1.68-5.26-5.24Zm2.83,16.65c2.68,.01,4.51,1.52,4.32,4.4-.2,3.04-2.46,4.07-4.79,4.54-2.83-.4-4.43-1.75-4.36-4.31,.09-2.95,1.94-4.64,4.83-4.62Zm-4.04,15.34c2.11-.21,3.46,.8,3.65,2.94-.04,2.53-1.35,3.83-3.67,3.89-1.96,.05-3.08-1.2-3.15-3.1-.07-2.1,1.06-3.52,3.17-3.73Zm-15.87,21.74c3.56,.52,4.79,3.02,5.61,7.31-5.78-5.99-6.88-6.02-14.9-1.25,2.06-4.29,5.56-6.6,9.29-6.06Zm-44.29,71.74c-4.41-.24-8.15-4.32-8.02-8.75,.13-4.34,3.94-7.77,8.38-7.54,4.57,.24,8.16,4.14,7.97,8.67-.18,4.35-4.01,7.86-8.33,7.63Zm32.74,7.66c-2.36,8.44-6.24,15.97-13.69,21.06-3.8,2.59-7.91,4.35-13.22,2.36,15.72-15,18.24-29.4,8.03-43.81-7.48-10.55-22.08-13.86-34.27-7.77-15.83,7.9-20.28,22.81-13.19,45.65-6.78-4.18-9.51-10.13-10.67-17.03-.28-1.64-.24-3.35-.21-5.02,.42-21.25,24.8-43.69,45.99-42.37,23.06,1.44,37.77,23.51,31.23,46.92Zm-7.81,57.85c-7-.96-11.4,1.37-15.25,5.07,4.5-6.6,8.67-8.23,15.25-5.07Zm-13.66,68.2c-14.23-2.54-27.54-7.24-39.86-14.74-2.68-1.63-5.51-3.1-7.28-5.94,22.53,14.85,47.35,20.46,73.85,18.98,15.23-.85,29.18-5.88,41.44-15.21,6.13-4.66,10.17-10.97,13.97-17.49-2.88,10.27-9.33,17.85-18.21,23.4-19.78,12.35-41.19,15.06-63.9,11.01Zm57.66,132.41c-2.05-.23-3.52-1.27-3.54-3.45-.02-2.47,1.61-3.61,3.94-3.51,2.09,.09,3.61,1.31,3.63,3.43,.03,2.44-1.68,3.46-4.04,3.54Zm3.02,14.69c-.06,2.08-1.07,3.29-3.03,3.27-2.49-.02-4.09-1.42-4.21-3.92-.09-1.82,.93-3.26,2.96-3.22,2.5,.05,3.84,1.58,4.28,3.86Zm.19-32.9c-2,.32-4.27,.59-5.38-1.51-.92-1.73,.51-3.08,1.76-4.26,1.45-1.36,2.69-2.97,4.7-3.7,.77,1.82,2.15,3.41,2.03,5.54-.11,2.03-.96,3.57-3.13,3.92Zm2.4-35.92c-1.5-.09-2.75-.25-2.17-1.68,1.06-2.61,3.46-3.5,6.04-3.87,.8-.11,2.07,.07,1.82,1.09-.76,3.09-3.65,3.53-5.69,4.46Zm4.05,5.61c.26-2.07,1.99-2.99,4.05-2.98,1.85,0,2.83,1.11,2.74,2.86-.11,2.16-1.41,3.3-3.59,3.33-1.86-.33-3.45-1.23-3.2-3.21Zm6.53,13.22c1.69,0,3.09,.59,3.16,2.44,.05,1.41-1.17,1.95-2.42,2-1.57,.05-3.22-.2-3.39-2.13-.15-1.68,1.21-2.18,2.65-2.3Zm-4.09-37.29c-1.72-.18-4.11-.1-3.69-1.83,.84-3.44,4.3-3.68,7.22-4.07,1.65-.22,4.26,.21,3.87,1.98-.84,3.86-4.85,3.04-7.4,3.92Zm-18.52,35.53c.53-3.45,3.66-4.36,6.32-5.26,1.94,.14,4.15,.31,3.79,2.48-.57,3.43-3.8,4.42-6.65,5.21-1.68,.47-3.78-.36-3.46-2.44Zm3.07,62.62c3.48,.33,5.76,2.62,6.4,6.15,.49,2.68-1.41,3.02-3.6,3.13-3.19-.47-6.98-.74-7.41-5.06-.27-2.68,1.99-4.47,4.61-4.22Zm3,42.57c-2.68,.93-4.81-.53-6.93-1.81-.84-.5-1.98-1.24-1.68-2.23,.41-1.36,1.81-1.13,2.98-.97,.16,.04,.33,.07,.49,.11,2.22,.58,4.67,.78,6.05,2.96,.55,.86-.08,1.65-.91,1.94Zm-9.58-18.76c1.77,.32,3.65,.68,4.23,2.83-.39,1.45-1.5,1.26-2.43,1.04-1.76-.41-4.02-.63-4.38-2.71-.3-1.74,1.55-1.35,2.58-1.16Zm.2,41.95c-.35,2.25-2.47,2.36-4.16,2.54-1.63-.25-3.67-.21-3.45-2.2,.27-2.45,2.58-2.77,4.61-2.82,1.62-.04,3.28,.58,2.99,2.48Zm-1.11-13.18c.27,2.01-2.33,2.01-3.89,1.87-2.16-.19-5.23,.32-5.49-2.82-.16-1.96,2.21-2.03,3.63-2.35,2.51,.42,5.39,.68,5.75,3.3Zm-6.85,44.9c.25,2.58-1.8,3.45-3.83,3.69-2.41,.28-3.83-1.27-3.85-3.55-.02-2.27,1.97-2.78,3.42-3.25,2.41,.12,4.06,.97,4.26,3.11Zm-7.22-124.55c.82-2.46,2.88-3.57,5.27-4.01,.82-.15,1.62,.28,1.77,1.45-1.31,2.04-3.43,2.96-5.7,3.59-.72,.2-1.56-.38-1.34-1.03Zm2.71,30.82c2.32,.34,4.29,1.48,4.27,4-.02,2.67-1.82,4.27-4.6,4.18-2.76-.09-4.36-1.53-4.17-4.46,.18-2.74,1.99-3.61,4.5-3.73Zm-7.99,24.65c.82-.17,1.68-.3,2.5-.22,2.25,.21,5.85-.42,5.91,2.3,.07,3.11-3.63,1.71-5.44,2.31-1.09-.05-1.94,0-2.76-.14-1.31-.22-2.99-.4-3.08-2.02-.09-1.65,1.55-1.96,2.86-2.23Zm6.62,36.87c-.4,2.94-1.93,5.03-5.1,5.09-3.1,.05-5.23-1.61-5.07-4.91,.16-3.31,2.28-5.35,5.54-5.3,2.93,.04,4.32,2.19,4.63,5.12Zm-5.73-20.43c1.7,.03,2.98,.88,2.72,2.75-.32,2.32-2.22,2.65-4.13,2.63-1.58-.02-2.98-.43-3.14-2.45,.63-2.3,2.43-2.96,4.55-2.93Zm-.84,32.29c3.55-.06,5.33,2.25,5.74,5.68-.24,3.3-1.99,5.56-5.23,5.57-3.39,0-5.67-2.14-5.7-5.69-.03-3.27,1.86-5.51,5.18-5.56Zm-21.16,77.31c-2.67-.07-4.33-1.85-4.48-4.52-.14-2.45,1.54-3.84,3.79-3.73,2.55,.12,4.47,1.44,4.41,4.44,.03,2.51-1.46,3.87-3.72,3.81Zm1.03,46.76c-.19,1.57-1.26,2.16-2.71,2.19-1.34,.02-2.2-.64-2.19-2.05,.02-1.5,.81-2.55,2.34-2.6,1.53-.06,2.32,.96,2.56,2.47Zm11.85-96.56c-.28,2.79-2,4.34-4.62,4.37-2.74,.03-4.41-1.74-4.34-4.5,.06-2.56,1.71-3.97,4.26-4.01,2.74-.05,4.44,1.26,4.71,4.15Zm-6.24-31.68c-1.76,.27-2.71-1.16-2.85-2.72-.19-2.09,1.02-3.53,3.08-3.72,1.64-.15,2.71,.95,2.99,2.73-.16,1.98-1.29,3.41-3.22,3.71Zm.46-38.15c-1.34,.07-3.1-.16-2.89-1.85,.29-2.28,2.49-2.34,4.3-2.4,1.35-.04,2.6,.32,3.12,1.86-.89,2.1-2.73,2.3-4.54,2.39Zm-1.7,11.57c2.09,.02,3.25,1.45,3.37,3.5-.23,2.46-1.72,3.77-3.89,3.92-2.11,.14-3.46-1.19-3.49-3.36-.03-2.6,1.51-4.09,4.01-4.07Zm-2.75,34.06c2.95,.55,5.07,2.01,4.9,5.29-.17,3.16-2.13,4.91-5.26,4.86-3.16-.06-5.02-1.87-4.89-5.11,.13-3.2,2.21-4.67,5.25-5.03Zm-1.9,50.66c0-3.22,1.96-5.43,5.32-5.46,3.51-.03,5.53,1.98,5.89,5.89-.15,3.12-2.29,4.95-5.4,5.07-3.46,.13-5.81-1.95-5.81-5.5Zm14.58,18.55c2.52-.02,4.17,1.26,4.21,3.91,.04,2.41-1.46,3.57-3.88,3.86-2.3-.44-3.93-1.76-3.86-4.31,.06-2.07,1.37-3.44,3.52-3.46Zm-.45-32.74c.03-2.37,1.7-3.7,3.88-3.86,2.25-.16,3.75,1.11,4.08,3.5-.26,2.59-1.85,3.94-4.27,4.11-2.5,.18-3.71-1.46-3.69-3.75Zm4.55,12.68c0-2.08,1.12-3.66,3.31-3.62,1.98,.04,2.86,1.49,2.81,3.45-.13,1.86-.74,3.38-2.92,3.31-1.92-.06-3.2-1.17-3.2-3.14Zm-20.61-115.87c4.18-3.23,9.12-4.69,14.16-5.84,.97-.22,2.09-.13,2.55,1.01,.53,1.34-.35,2.23-1.32,2.91-4.17,2.91-8.8,4.64-13.71,5.26-1.1-.03-2.24,.28-2.78-.82-.55-1.14,.33-1.92,1.09-2.51Zm-5.29-17.08c.38,.2,.76,.4,1.14,.61-3.19,5.73-6.37,11.47-9.56,17.2l-.97-.52c3.13-5.77,6.27-11.53,9.4-17.3Zm-9.7,55.24c.52-2.04,6.83-5.89,8.97-5.43,.81,.17,1.63,.41,1.41,1.71-.16,2.03-6.8,6.44-9.03,5.86-1.13-.29-1.67-.92-1.35-2.14Zm-1.72,32.73c2.07-.03,3.25,1.39,3.47,3.24-.06,2.57-1.26,4.16-3.51,4.35-2.42,.2-3.61-1.42-3.62-3.74-.01-2.38,1.39-3.82,3.66-3.85Zm-5.67-13.49c-1.47-.13-3.25-.09-2.99-1.92,.4-2.86,3.05-3.23,5.29-3.73,1.42-.32,3,.05,2.76,1.85-.38,2.86-2.86,3.33-5.06,3.8Zm-27.36,112.96c-11.64-48.13-1.49-93.2,18.85-136.87,4.53-9.73,9.3-19.36,13.99-29.02,.21-.43,.63-.76,1.66-.82-2.9,6.1-5.73,12.24-8.71,18.3-11.29,22.95-20.71,46.57-25.79,71.75-7.76,38.46-2.04,75.43,12.27,111.46,.3,.75,.58,1.5,.88,2.25-5.9-11.63-10.02-24.14-13.14-37.05Zm10.46-48.17c-1.54-.02-2.52-.83-2.41-2.48,.13-1.97,1.35-2.89,3.14-3.05,1.67,.13,2.64,1.02,2.54,2.54-.12,1.9-1.31,3.01-3.27,2.98Zm11.83-36.32c-1.76-.25-4.15-.39-3.57-2.9,.46-2.03,2.17-3.95,4.48-3.92,1.8,.02,2.58,1.78,2.65,3.57-.46,1.91-1.15,3.59-3.55,3.25Zm2.46,14.01c.15-2.68,1.57-4.72,4.4-5.26,2.66,.15,3.66,1.86,3.66,4.04,0,2.76-1.3,5.1-4.2,5.41-2.66,.29-3.99-1.78-3.86-4.19Zm8.57,41.62c-1.92,.19-3.22-1.04-3.19-2.99,.04-2.76,1.97-3.59,4.39-3.61,1.89-.02,3.2,.73,3.42,2.93-.53,2.38-2.38,3.45-4.62,3.68Zm6.7-89.9c.33-2.92,3.21-4.07,5.97-4.37,2.13-.23,3.67,.83,3.46,3.21-.31,3.62-3.29,2.47-5.44,2.85-1.56-.1-4.21,.25-3.99-1.69Zm1.84,43.98c.03-2.11,1.27-3.54,3.43-3.53,2.41,.01,3.5,1.6,3.66,3.84-.25,2.29-1.1,4.08-3.68,3.87-2.41-.2-3.44-1.94-3.41-4.18Zm3.85,139.42c7.5,22.57,19.58,42.45,35.26,60.21-18.2-16.29-28.93-36.96-35.26-60.21Zm42.08-78.77c-1.58-.28-2.91-.99-2.78-2.8,.12-1.7,1.35-2.63,3.04-2.6,1.52,.02,2.49,.95,2.54,2.47,.05,1.78-1.17,2.57-2.79,2.93Zm1.77-37.37c-2.23-.56-4.33-1.41-4.71-3.88-.32-2.07,1.27-3.04,3.09-3.08,2.35-.05,4.4,.82,4.54,3.53,.1,1.82-.96,3.12-2.92,3.43Zm-.45-18.12c-2.42-.63-5.96,.09-6.27-3.49-.19-2.1,2.29-2.57,4.23-2.46,2.6,.14,5.53,.77,6.08,3.47,.52,2.56-2.34,2.05-4.04,2.48Zm3.14-27.38c-1.73,.09-2.92-.91-3.01-2.63-.1-1.97,1.08-3.15,3.07-3.07,1.7,.07,2.66,1.17,2.86,2.89-.2,1.73-1.24,2.72-2.92,2.81Zm8.98,119.5c-.16,1.94-1.28,3.08-3.31,2.96-2.09-.13-2.92-1.55-2.83-3.42,.1-1.98,1.35-2.95,3.14-2.94,2.31,.18,3.16,1.47,3,3.4Zm.84-38.39c-1.78-.04-2.68-1.07-2.77-2.78,.21-1.78,1.15-2.8,2.9-2.86,2.14-.07,2.93,1.34,2.92,3.2,0,1.94-1.4,2.48-3.05,2.44Zm9.12-80.85c-1.53,1.93-3.4,.93-4.95,.26-2.49-1.06-6.01-1.86-5.07-5.6,.54-2.15,2.8-1.14,4.26-.4,2.38,1.22,4.67,2.61,5.81,5.04-.02,.37,.03,.58-.05,.68Zm-.4-23.05c-2.33-.4-4.92-.83-5.76-3.27-.55-1.61,1.31-1.61,2.4-1.3,2.31,.65,5.41,.51,6.09,3.43,.35,1.5-1.67,.98-2.73,1.14Zm2.05-66.18c-1.53-.09-2.62-.77-2.65-2.38-.03-1.56,1.05-2.52,2.45-2.73,1.62-.24,2.46,.95,2.57,2.4,.13,1.58-.91,2.39-2.37,2.71Zm1.95-44.27c.22-2.14,1.56-3.27,3.58-3.49,1.85-.2,2.72,.86,2.8,2.34-.13,2.71-1.47,4.06-3.78,4.06-1.67,0-2.79-1.02-2.6-2.91Zm3.1,20.53c1.81,.07,2.72,1.18,2.69,2.91-.02,1.27-.75,2.16-2.04,2.3-1.86-.29-2.73-1.41-2.81-3.08-.07-1.4,.75-2.19,2.16-2.13Zm-1.83,33.67c.09-2.11,1.67-2.88,3.46-2.8,1.71,.07,2.75,1.2,2.57,3.03-.18,1.86-1.5,2.43-2.93,2.53-1.95-.15-3.19-.9-3.1-2.76Zm6.55,149.95c-1.93,.14-3.2-.96-3.45-2.81-.21-1.59,.96-2.45,2.4-2.58,1.97-.18,2.99,1.06,3.5,2.79-.02,1.65-.98,2.5-2.45,2.6Zm1.06-174.67c.28-1.9,1.4-2.94,3.43-2.78,2.6,.2,8.66,5.27,8.38,7.13-.28,1.82-1.87,1.46-2.95,1.57-4.35-.15-9.21-3.42-8.85-5.92Zm13.75,307.57c-1.62,.2-2.4-.89-2.56-2.43-.05-1.81,.82-2.96,2.62-3,1.48-.04,2.64,.82,2.69,2.4,.06,1.76-1.11,2.83-2.75,3.03Zm4.51-141.42c-1.32,2.98-2.83,5.88-3.92,8.94-12.62,35.37-7.79,69.36,8.5,102.3,5.51,11.15,12.25,21.6,19.7,31.57,.75,1,1.42,2.05,1.92,3.19-35.94-29.93-50.81-112.54-26.21-146.01Zm24.29,74.38c-.11-2.42,1.27-3.85,3.51-3.96,2.37-.12,3.62,1.45,3.64,3.78,.03,2.28-1.64,3.04-3.53,3.52-1.92-.34-3.52-1.07-3.63-3.34Zm7.12,53.28c-2.89,.14-4.97-1.19-5.07-4.3-.1-3.29,2.04-4.71,4.72-5.09,3.46-.09,5.13,1.6,5.1,4.56-.03,2.9-1.82,4.69-4.75,4.84Zm11-83.99c0-1.81,1.12-2.77,2.83-2.8,1.35-.02,2.03,.96,2.24,2.27-.44,1.66-1.58,2.52-3.26,2.5-1.18-.01-1.81-.87-1.81-1.98Zm-.68-18.7c-.19-3.46,2.03-5.09,5.22-5.46,3.32,.03,5.21,1.69,5.3,4.86,.09,3.2-1.85,5.01-4.98,5.14-3.03,.12-5.37-1.3-5.54-4.54Zm8.17,66.53c-3.76-.32-6.35-2.07-6.47-6.23-.1-3.82,3.18-7.1,6.96-7.03,3.75,.07,6.58,3.1,6.42,6.88-.15,3.72-3.25,6.68-6.92,6.38Zm15.15,118.64c-3.09,.76-6.18,1.57-9.17,2.64-2.95,1.07-5.78,2.49-8.71,3.78-2.24-8.51,7.15-17.83,15.77-18.96,1.84-.24,2.36,.47,2.55,2.11,.3,2.66,.7,5.32,1.17,7.95,.26,1.44-.15,2.11-1.62,2.47Zm4.33-216.92c.09-2.96,2.05-4.58,4.89-4.57,1.97,0,3.45,1.17,3.52,3.65-.63,2.51-2.14,4.41-5.04,4.48-2.2,.06-3.44-1.53-3.38-3.57Zm12.71,185.73c14.09,2.93,28.06,7.02,42.74,4.31-14.99,5.19-28.83,.14-42.74-4.31Zm51.75-184.43c33.18,4.51,57.74,29.9,61.77,63.11,.06,.48,0,.98-.17,1.52-3.1-12.79-6.4-25.6-14.95-35.94-17.24-20.87-39.33-30.27-66.41-26.02-12.36,1.94-20.64,9.78-26.27,20.67-6.04,11.7-8.53,24.32-9.64,37.27-3.44,40.23,6.56,76.85,29.75,109.89,3.83,5.45,8.71,9.96,13.05,14.93-13.29-10.11-23.12-22.89-30.1-38.06-16.52-35.9-19.34-72.99-9.8-111.09,2.67-10.68,7.43-20.52,16.09-27.93,10.76-9.21,23.63-10.12,36.67-8.34Zm-14.52,19.11c-.01,3.68-2.48,5.15-5.82,5.51-2.71,.08-4.85-1.13-4.9-3.82-.06-3.45,2.36-5.42,5.67-5.77,2.79-.29,5.06,.89,5.06,4.07Zm-27.29,60.64c-.21,1.62-1.57,1.99-2.84,2.22-1.69-.23-2.56-1.07-2.44-2.69,.12-1.57,1.07-2.58,2.59-2.47,1.62,.12,2.93,1.05,2.69,2.95Zm27.59-89.32c-.8,.36-1.19-.27-1.65-.7-18.54-17.67-50.49-21.3-75.65,1.64-15.77,14.38-23.17,32.42-25.99,52.93-.18,1.29-.2,2.6-.59,3.88-.88-5.9,.26-11.65,1.7-17.26,6.99-27.14,22.64-47.02,49.62-56.27,18.16-6.23,42.37,1.61,52.55,15.78Zm51.81-59.81c-.22,1.79-1.03,3.12-3.12,3.25-1.95-.37-1.92-1.93-1.88-3.42,.05-1.66,.7-2.98,2.6-2.87,1.81,.1,2.61,1.29,2.4,3.04Zm3.59-26.13c-2.99-2.28-2.95-5.7-2.85-8.86,.31-9.99-.19-20.04,2.05-29.93-1.03,12.96-.98,25.9,.8,38.78Zm1.19,39.65c-1.48-3.56-1.2-7.86-1.69-11.84-.47-3.81-1.13-7.61-1.37-11.44-.24-3.81-.05-7.65-.05-11.48,.28,7.33,1.58,14.73,2.45,22.17,.85,7.26,1.91,14.5,2.31,21.89-3.53-2.35-.36-6.22-1.64-9.31Zm-1.14-39.29c1.26,10.12,2.52,20.24,3.77,30.36-1.61-10.08-4.64-20.01-3.77-30.36Zm-4.35-44.95c3.77-3.13,7.54-6.25,11.31-9.38-3.24,3.68-5.98,8.17-11.31,9.38Zm17.84-4.54c-3.13,26.52-1.04,52.99,.24,79.45-3.63-14.32-3.86-60.28-.24-79.45Zm42.85-45.81c-1.67,1.35-3.43,2.6-5.15,3.9-3.42,4.23-7.59,7.62-11.72,11.05-.28-.3-.55-.61-.83-.91,4.05-3.53,8.1-7.06,12.14-10.59,6.38-7.37,14.16-13.3,20.96-20.23,24.47-24.93,46.52-51.58,59.39-84.65,4.19-10.77,7.53-21.83,10.93-33.15,1.11,1.5,.31,2.63,.03,3.79-9.43,39.11-29.09,72.54-56.41,101.74-5.85,6.25-11.6,12.58-18.02,18.27-1.05,.93-3.53,1.58-2.11,3.96-4.45,.4-6.23,4.42-9.21,6.83Zm8.52,15.65c16.06,42.73,38.2,82.52,58.78,123.04-18.01-26.23-55.17-103.97-58.78-123.04Zm135.54,6.29c-25.92-6.28-52.3-9.98-78.78-13.07-17.82-2.08-35.51-5.08-52.05-12.57-1.44-.65-3.86-.45-3.87-3,17.2,8.12,35.61,11.45,54.26,13.32,41,4.11,81.06,12.55,120.28,25.06,1.72,.55,3.8,.54,4.95,2.32-14.93-4.04-29.77-8.42-44.8-12.06Zm45.49,12.32c8.97,1.21,16.94,5.57,25.42,8.33-8.69-2.08-17.21-4.72-25.42-8.33Z"/>
  <path d="M330.95,200.52c17.71,.11,30.8,13.92,30.7,32.38-.1,18-15.12,33.65-32.15,33.51-17.12-.14-30.96-15.13-30.75-33.29,.21-18.09,14.65-32.7,32.2-32.59Zm6.66,24.48c4.92,.02,8.88-4.03,8.83-9.04-.04-4.73-3.88-8.5-8.75-8.6-4.63-.1-8.77,3.85-8.89,8.48-.13,4.86,3.99,9.14,8.81,9.16Z"/>
</svg>